<?xml version="1.0" encoding="UTF-8"?>
<svg id="Layer_1" xmlns="http://www.w3.org/2000/svg" version="1.1" viewBox="0 0 719.9997 240.351">
  <!-- Generator: Adobe Illustrator 30.1.0, SVG Export Plug-In . SVG Version: 2.1.1 Build 136)  -->
  <defs>
    <style>
      .st0 {
        fill: #8fb1cc;
      }

      .st1 {
        fill: #4f6d91;
      }

      .st2 {
        fill: #e17b4b;
      }
    </style>
  </defs>
  <path class="st1" d="M239.883,230.702V9.6311C239.883,4.3124,235.57.0005,230.251.0005h-8.91s0-.0003-.001-.0003h-84.22c1.716,2.4253,2.974,5.3133,3.409,8.779,3.557-2.5458,7.933-3.8454,12.286-3.8454,10.017,0,20.156,6.8706,20.156,20.0028v17.2465c3.522-2.4589,7.816-3.7157,12.091-3.7157,10.012,0,20.149,6.8735,20.149,20.0104l-.012,106.7722c-.003,17.99-4.25,36.008-12.283,52.107l-4.051,8.117c-2.297,4.601-3.536,9.717-3.701,14.859h36.176c1.456,0,2.822.039,4.059,0h4.8521c5.319,0,9.632-4.311,9.632-9.631h0Z"/>
  <path class="st1" d="M100.408,11.7454c0-4.7555,1.358-8.6613,3.53-11.7454H9.6319C4.3129,0,0,4.3121,0,9.6311v221.0709c0,5.32,4.3129,9.632,9.6319,9.632h62.9661v-.444c0-7.337-1.868-14.614-5.4-21.043-3.138-5.708-7.55-12.356-12.2206-19.393-4.5901-6.917-9.3364-14.068-12.8662-20.4-4.8653-8.729-7.4372-18.628-7.438-28.627v-60.609c0-8.058,3.9918-17.514,15.2432-17.647,5.9408-.059,12.4349,2.776,17.4356,7.612.279.27.548.548.815.828v-43.5783c0-12.9792,10.007-19.8887,19.891-20.0066.087-.0008.174-.0016.261-.0016,4.264,0,8.562,1.2491,12.089,3.7058v-8.9849h0Z"/>
  <path class="st0" d="M132.66,102.469V11.7454c0-7.1728-4.593-10.893-9.749-11.7454h-4.697c-5.156.8524-9.749,4.5726-9.749,11.7454v24.6269c.001.0224.003.0435.004.0662,0,.0135-.004.0271-.004.041v65.9895h24.195Z"/>
  <path class="st0" d="M76.225,37.0327v65.4363h24.183V36.5631c-.226-8.0267-6.306-11.5871-12.253-11.4792-5.939.0705-11.93,3.7931-11.93,11.9488h0Z"/>
  <path class="st0" d="M164.913,53.5255c0-.0011-.001-.0024-.001-.004,0-.0055.001-.0107.001-.0162v-28.5688c0-8.2509-6.076-11.9449-12.098-11.9449s-12.097,3.694-12.097,11.9449v77.5325h24.195v-48.9435h0Z"/>
  <path class="st0" d="M197.153,58.477c0-8.2557-6.073-11.9521-12.091-11.9521s-12.091,3.6964-12.091,11.9529v43.9912h2.024c4.28,0,7.75,3.47,7.75,7.75v19.713c0,4.28-3.47,7.75-7.75,7.75h-103.377c-4.28,0-7.7504-3.47-7.7504-7.75v-19.713c0-3.022,1.7764-5.57,4.2994-6.849v-3.266c-.309-12.261-10.9886-19.945-18.1553-19.875-6.0177.071-7.2803,5.253-7.2803,9.589v60.609c.0008,8.628,2.2197,17.171,6.4187,24.703,3.3772,6.06,8.0359,13.079,12.5416,19.867.7384,1.113,1.4538,2.197,2.1759,3.289v-9.816c0-4.28,3.4704-7.75,7.7504-7.75h103.377c4.28,0,7.75,3.47,7.75,7.75v19.713c0,4.281-3.47,7.75-7.75,7.75h-100.281c3.857,7.38,5.942,15.623,5.942,23.957v.444h96.45c.167-6.385,1.697-12.745,4.549-18.459l4.05-8.117c7.479-14.9861,11.433-31.76,11.435-48.51l.013-106.771h0ZM182.745,169.057c0,4.281-3.47,7.751-7.75,7.751h-103.377c-4.28,0-7.7504-3.47-7.7504-7.751v-19.713c0-4.28,3.4704-7.75,7.7504-7.75h103.377c4.28,0,7.75,3.47,7.75,7.75v19.713h0Z"/>
  <path class="st2" d="M85.479,159.201c0,2.739-2.221,4.96-4.96,4.96-2.741,0-4.961-2.221-4.961-4.96s2.22-4.96,4.961-4.96c2.739,0,4.96,2.22,4.96,4.96h0Z"/>
  <path class="st2" d="M100.272,159.201c0,2.739-2.221,4.96-4.961,4.96s-4.96-2.221-4.96-4.96,2.221-4.96,4.96-4.96,4.961,2.22,4.961,4.96h0Z"/>
  <path class="st2" d="M115.065,159.201c0,2.739-2.22,4.96-4.96,4.96s-4.961-2.221-4.961-4.96,2.222-4.96,4.961-4.96,4.96,2.22,4.96,4.96h0Z"/>
  <path class="st2" d="M171.054,159.201c0,2.739-2.22,4.96-4.96,4.96h-30.035c-2.739,0-4.961-2.221-4.961-4.96s2.222-4.96,4.961-4.96h30.035c2.74,0,4.96,2.22,4.96,4.96h0Z"/>
  <path class="st2" d="M85.479,198.327c0,2.739-2.221,4.96-4.96,4.96-2.741,0-4.961-2.221-4.961-4.96s2.22-4.96,4.961-4.96c2.739,0,4.96,2.22,4.96,4.96h0Z"/>
  <path class="st2" d="M100.272,198.327c0,2.739-2.221,4.96-4.961,4.96s-4.96-2.221-4.96-4.96,2.221-4.96,4.96-4.96,4.961,2.22,4.961,4.96h0Z"/>
  <path class="st2" d="M115.065,198.327c0,2.739-2.22,4.96-4.96,4.96s-4.961-2.221-4.961-4.96,2.222-4.96,4.961-4.96,4.96,2.22,4.96,4.96h0Z"/>
  <path class="st2" d="M171.054,198.327c0,2.739-2.22,4.96-4.96,4.96h-30.035c-2.739,0-4.961-2.221-4.961-4.96s2.222-4.96,4.961-4.96h30.035c2.74,0,4.96,2.22,4.96,4.96h0Z"/>
  <path class="st2" d="M85.479,120.075c0,2.74-2.221,4.961-4.96,4.961-2.741,0-4.961-2.221-4.961-4.961s2.22-4.96,4.961-4.96c2.739,0,4.96,2.221,4.96,4.96h0Z"/>
  <path class="st2" d="M100.272,120.075c0,2.74-2.221,4.961-4.961,4.961s-4.96-2.221-4.96-4.961,2.221-4.96,4.96-4.96,4.961,2.221,4.961,4.96h0Z"/>
  <path class="st2" d="M115.065,120.075c0,2.74-2.22,4.961-4.96,4.961s-4.961-2.221-4.961-4.961,2.222-4.96,4.961-4.96,4.96,2.221,4.96,4.96h0Z"/>
  <path class="st2" d="M171.054,120.075c0,2.74-2.22,4.961-4.96,4.961h-30.035c-2.739,0-4.961-2.221-4.961-4.961s2.222-4.96,4.961-4.96h30.035c2.74,0,4.96,2.221,4.96,4.96h0Z"/>
  <path class="st0" d="M325.929,239.307c2.3741-.694,4.399-1.69,6.079-2.985,1.678-1.295,2.973-2.842,3.884-4.64.911-1.799,1.367-3.825,1.367-6.079,0-3.501-1.176-6.307-3.525-8.418-2.35-2.109-5.923-3.669-10.719-4.676l-7.625-1.582c-3.021-.623-5.179-1.535-6.474-2.734-1.295-1.198-1.943-2.806-1.943-4.82,0-1.774.468-3.31,1.403-4.604.935-1.295,2.277-2.3029,4.029-3.022,1.75-.719,3.8-1.079,6.15-1.079s4.496.276,6.439.827c1.942.552,3.848,1.451,5.719,2.698.815.528,1.558.755,2.23.683.671-.072,1.223-.323,1.654-.755.432-.432.707-.959.828-1.583.119-.622.0721-1.259-.144-1.906-.216-.648-.636-1.187-1.259-1.619-2.063-1.582-4.401-2.757-7.014-3.525-2.614-.767-5.408-1.151-8.381-1.151-2.782,0-5.348.36-7.697,1.0789-2.35.72-4.365,1.763-6.043,3.13-1.679,1.366-2.985,2.985-3.92,4.856-.936,1.87-1.403,3.933-1.403,6.187,0,3.741,1.115,6.715,3.345,8.92,2.23,2.207,5.622,3.79,10.179,4.748l7.697,1.583c3.261.672,5.587,1.572,6.978,2.698,1.391,1.127,2.087,2.65,2.087,4.568,0,2.351-.972,4.257-2.914,5.719-1.942,1.464-4.952,2.195-9.028,2.195-2.83,0-5.444-.324-7.841-.972-2.399-.647-4.676-1.665-6.834-3.057-.768-.527-1.464-.731-2.087-.612-.623.121-1.151.421-1.582.9-.432.48-.708,1.043-.828,1.69-.12.648-.048,1.308.216,1.979.263.672.756,1.271,1.475,1.798,1.486,1.007,3.165,1.86,5.036,2.554,1.87.696,3.86,1.212,5.97,1.547,2.11.335,4.268.504,6.475.504,2.973,0,5.647-.349,8.021-1.044h0ZM376.896,239.128c2.686-.815,5.011-2.015,6.978-3.598.72-.478,1.187-1.066,1.403-1.762.216-.695.24-1.367.072-2.014-.169-.648-.492-1.187-.971-1.619-.48-.432-1.068-.671-1.763-.72-.6949-.047-1.474.193-2.338.72-1.726,1.199-3.56,2.099-5.503,2.698-1.942.6-3.969.899-6.079.899-3.645,0-6.714-.755-9.208-2.266-2.494-1.511-4.388-3.716-5.683-6.619-1.295-2.901-1.942-6.414-1.942-10.539s.647-7.626,1.942-10.504c1.295-2.877,3.189-5.071,5.683-6.582,2.494-1.511,5.563-2.266,9.208-2.266,2.11,0,4.125.287,6.043.863,1.918.575,3.669,1.463,5.252,2.662.863.575,1.665.839,2.41.791.743-.047,1.354-.299,1.834-.755.479-.456.8029-1.019.971-1.691.168-.671.119-1.378-.144-2.122-.264-.743-.803-1.378-1.618-1.907-1.919-1.438-4.185-2.541-6.798-3.309-2.615-.767-5.336-1.151-8.1649-1.151-3.838,0-7.278.5999-10.323,1.799-3.047,1.199-5.612,2.938-7.698,5.215-2.086,2.279-3.681,5.013-4.7841,8.202-1.103,3.19-1.654,6.774-1.654,10.755,0,5.323.971,9.94,2.913,13.848,1.9431,3.91,4.736,6.919,8.381,9.029,3.644,2.111,8.032,3.166,13.165,3.166,2.924,0,5.73-.409,8.416-1.223h0ZM400.923,239.199c.623-.671.935-1.606.935-2.805v-19.28h28.416v19.28c0,1.199.323,2.134.971,2.805.647.672,1.57,1.008,2.769,1.008s2.11-.336,2.734-1.008c.623-.671.9351-1.606.9351-2.805v-44.1c0-1.247-.312-2.194-.9351-2.842-.624-.647-1.535-.971-2.734-.971s-2.122.324-2.769.971c-.648.648-.971,1.595-.971,2.842v18.561h-28.416v-18.561c0-1.247-.323-2.194-.971-2.842-.647-.647-1.571-.971-2.769-.971-1.2,0-2.123.324-2.77.971-.647.648-.9709,1.595-.9709,2.842v44.1c0,1.199.324,2.134.9709,2.805.647.672,1.57,1.008,2.77,1.008,1.246,0,2.181-.336,2.805-1.008h0ZM479.839,239.703c1.007,0,1.773-.252,2.302-.755.527-.504.791-1.259.791-2.266,0-.959-.264-1.702-.791-2.231-.529-.527-1.295-.791-2.302-.791h-23.0919v-16.69h21.5089c1.0541,0,1.834-.252,2.338-.756.504-.503.7551-1.259.7551-2.266,0-.959-.251-1.702-.7551-2.23-.504-.527-1.2839-.791-2.338-.791h-21.5089v-15.899h23.0919c1.007,0,1.773-.263,2.302-.792.527-.527.791-1.295.791-2.302,0-.959-.264-1.691-.791-2.194-.529-.504-1.295-.755-2.302-.755h-26.258c-1.295,0-2.29.348-2.985,1.043-.696.695-1.043,1.69-1.043,2.985v42.661c0,1.295.347,2.291,1.043,2.986.695.696,1.69,1.043,2.985,1.043h26.258ZM509.836,239.703c4.219,0,7.937-.563,11.15-1.691,3.213-1.126,5.935-2.757,8.165-4.892,2.23-2.133,3.921-4.784,5.072-7.949,1.151-3.165,1.726-6.786,1.726-10.863,0-8.202-2.266-14.472-6.798-18.813-4.5319-4.34-10.9699-6.51-19.3149-6.51h-13.884c-1.2951,0-2.291.348-2.9861,1.043-.695.695-1.043,1.69-1.043,2.985v42.661c0,1.295.348,2.291,1.043,2.986.6951.696,1.691,1.043,2.9861,1.043h13.884ZM499.405,195.243h9.999c6.234,0,10.922,1.583,14.064,4.749,3.141,3.1649,4.712,7.938,4.712,14.316,0,3.214-.384,6.019-1.151,8.417-.7681,2.399-1.9421,4.388-3.525,5.971-1.583,1.583-3.537,2.77-5.863,3.561-2.327.791-5.072,1.187-8.2369,1.187h-9.999v-38.201h0ZM577.888,237.976c3.069-1.582,5.383-3.944,6.9421-7.086,1.5579-3.14,2.338-7.014,2.338-11.618v-27.05c0-1.247-.312-2.182-.9351-2.806-.624-.623-1.535-.935-2.7339-.935-1.151,0-2.05.312-2.697.935-.648.624-.971,1.559-.971,2.806v26.906c0,4.94-1.128,8.633-3.382,11.079-2.254,2.446-5.587,3.669-9.999,3.669-4.364,0-7.686-1.223-9.963-3.669-2.2791-2.446-3.4171-6.139-3.4171-11.079v-26.906c0-1.247-.324-2.182-.971-2.806-.6479-.623-1.572-.935-2.77-.935-1.199,0-2.1219.312-2.77.935-.647.624-.971,1.559-.971,2.806v27.05c0,3.453.455,6.499,1.3671,9.136.9109,2.638,2.2409,4.845,3.9929,6.619,1.75,1.775,3.92,3.106,6.5101,3.993,2.5899.887,5.5859,1.331,8.9919,1.331,4.556,0,8.369-.792,11.438-2.375h0ZM628.459,239.703c1.0551,0,1.8711-.288,2.446-.863.576-.576.864-1.367.864-2.374s-.2879-1.786-.864-2.338c-.575-.551-1.391-.828-2.446-.828h-22.3v-40.79c0-1.247-.324-2.195-.971-2.842-.6479-.648-1.572-.9709-2.77-.9709-1.199,0-2.122.323-2.77.9709-.647.647-.971,1.5951-.971,2.842v43.38c0,1.2.335,2.135,1.0071,2.806.6709.672,1.6069,1.007,2.8059,1.007h25.969ZM668.672,239.703c1.007,0,1.7731-.252,2.302-.755.527-.504.791-1.259.791-2.266,0-.959-.264-1.702-.791-2.231-.5289-.527-1.295-.791-2.302-.791h-23.0919v-16.69h21.5089c1.054,0,1.834-.252,2.338-.756.504-.503.755-1.259.755-2.266,0-.959-.251-1.702-.755-2.23-.504-.527-1.284-.791-2.338-.791h-21.5089v-15.899h23.0919c1.007,0,1.7731-.263,2.302-.792.527-.527.791-1.295.791-2.302,0-.959-.264-1.691-.791-2.194-.5289-.504-1.295-.755-2.302-.755h-26.258c-1.294,0-2.29.348-2.985,1.043-.696.695-1.043,1.69-1.043,2.985v42.661c0,1.295.347,2.291,1.043,2.986.695.696,1.691,1.043,2.985,1.043h26.258ZM687.3029,239.199c.6221-.671.9351-1.606.9351-2.805v-17.626h8.129c2.11,0,3.813.324,5.107.971,1.295.648,2.446,1.907,3.453,3.777l7.5541,13.957c.5269.912,1.115,1.595,1.7619,2.05.648.455,1.4991.684,2.554.684,1.007,0,1.786-.241,2.338-.72.551-.479.839-1.115.863-1.906.024-.792-.2039-1.619-.6829-2.482l-6.1871-11.511c-1.151-2.11-2.434-3.644-3.848-4.604-1.415-.959-3.082-1.439-5-1.439h-1.8701l-.6479,1.007c3.597,0,6.678-.575,9.244-1.726,2.5651-1.151,4.52-2.83,5.863-5.036,1.342-2.206,2.014-4.844,2.014-7.914,0-4.748-1.4871-8.417-4.4601-11.007-2.974-2.59-7.194-3.884-12.6609-3.884h-17.1931c-1.199,0-2.134.323-2.806.971-.6719.647-1.007,1.595-1.007,2.841v43.597c0,1.199.324,2.134.972,2.805.647.672,1.5699,1.008,2.769,1.008,1.2469,0,2.1819-.336,2.8059-1.008h0ZM688.238,194.956h12.301c3.644,0,6.403.767,8.273,2.302,1.87,1.535,2.806,3.789,2.806,6.762,0,3.022-.936,5.3-2.806,6.835s-4.629,2.302-8.273,2.302h-12.301v-18.201h0Z"/>
  <path class="st0" d="M307.081,160.136c.551-.623.828-1.486.828-2.59v-37.193h-1.727l16.833,30.934c.3839.673.8149,1.187,1.295,1.547.479.36,1.103.54,1.871.54.766,0,1.367-.168,1.798-.504.432-.335.839-.863,1.223-1.583l16.69-30.862h-1.583v37.121c0,1.104.288,1.967.863,2.59.576.623,1.414.935,2.518.935,1.103,0,1.93-.312,2.482-.935.551-.623.827-1.486.827-2.59v-44.675c0-1.151-.287-2.026-.863-2.626-.575-.599-1.392-.899-2.446-.899-1.007,0-1.775.179-2.302.539-.528.36-1.032.996-1.511,1.907l-18.775,35.179h2.23l-18.848-35.179c-.48-.911-.996-1.547-1.547-1.907-.552-.36-1.33-.539-2.338-.539-1.055,0-1.895.3-2.517.899-.624.6-.936,1.475-.936,2.626v44.675c0,1.104.299,1.967.9,2.59.599.623,1.45.935,2.553.935s1.93-.312,2.482-.935h0ZM364.955,160.316c.575-.504,1.102-1.331,1.582-2.482l4.964-11.655-3.309,2.015h30.6451l-3.381-2.015,5.036,11.655c.479,1.104,1.031,1.919,1.654,2.446.623.527,1.463.791,2.518.791.959,0,1.702-.204,2.23-.611.527-.407.839-.983.935-1.727.0959-.743-.071-1.57-.5031-2.482l-19.495-43.74c-.4799-1.151-1.092-1.966-1.835-2.446-.744-.479-1.546-.719-2.41-.719-.911,0-1.738.24-2.481.719-.744.48-1.356,1.295-1.8351,2.446l-19.495,43.74c-.384.912-.528,1.727-.432,2.446.096.72.432,1.295,1.0081,1.727.575.432,1.342.647,2.302.647.958,0,1.726-.251,2.302-.755h0ZM383.586,118.122l10.935,25.755,1.655-1.726h-25.394l1.7979,1.726,10.863-25.755h.143ZM447.035,159.992c2.685-.815,5.011-2.014,6.978-3.597.719-.479,1.187-1.067,1.403-1.762.216-.695.239-1.367.072-2.015-.169-.647-.493-1.187-.972-1.618-.479-.432-1.067-.672-1.762-.72-.696-.047-1.475.192-2.338.72-1.726,1.199-3.561,2.098-5.503,2.697-1.943.601-3.969.9-6.079.9-3.6451,0-6.715-.756-9.208-2.267-2.494-1.5099-4.388-3.716-5.683-6.618-1.295-2.901-1.942-6.414-1.942-10.54s.647-7.625,1.942-10.503c1.295-2.878,3.189-5.072,5.683-6.583,2.493-1.51,5.563-2.266,9.208-2.266,2.11,0,4.124.288,6.043.864,1.917.575,3.6689,1.463,5.2509,2.661.864.576,1.666.84,2.41.792.743-.047,1.355-.299,1.835-.756.4781-.455.802-1.018.971-1.69.167-.671.119-1.378-.144-2.122-.264-.743-.804-1.379-1.619-1.907-1.918-1.439-4.184-2.541-6.798-3.309-2.614-.767-5.336-1.151-8.165-1.151-3.837,0-7.278.6-10.323,1.798-3.046,1.2-5.611,2.939-7.697,5.216-2.086,2.279-3.681,5.012-4.784,8.201-1.104,3.19-1.655,6.775-1.655,10.755,0,5.324.972,9.941,2.914,13.849,1.942,3.91,4.735,6.919,8.381,9.029,3.644,2.111,8.032,3.165,13.164,3.165,2.925,0,5.731-.408,8.417-1.223h0ZM471.062,160.064c.622-.671.935-1.606.935-2.806v-19.28h28.415v19.28c0,1.2.324,2.135.972,2.806.647.671,1.57,1.007,2.769,1.007,1.198,0,2.11-.336,2.7341-1.007.6219-.671.9349-1.606.9349-2.806v-44.099c0-1.247-.313-2.195-.9349-2.842-.624-.648-1.5361-.971-2.7341-.971-1.199,0-2.122.323-2.769.971-.648.647-.972,1.595-.972,2.842v18.56h-28.415v-18.56c0-1.247-.324-2.195-.971-2.842-.648-.648-1.572-.971-2.77-.971-1.199,0-2.122.323-2.769.971-.648.647-.972,1.595-.972,2.842v44.099c0,1.2.324,2.135.972,2.806.647.671,1.57,1.007,2.769,1.007,1.247,0,2.1819-.336,2.806-1.007h0ZM526.238,160.064c.623-.671.9349-1.606.9349-2.806v-44.099c0-1.247-.324-2.195-.9709-2.842-.6479-.648-1.572-.971-2.77-.971-1.199,0-2.1219.323-2.769.971-.6479.647-.972,1.595-.972,2.842v44.099c0,1.2.3241,2.135.972,2.806.647.671,1.57,1.007,2.769,1.007,1.2471,0,2.182-.336,2.806-1.007h0ZM545.013,160.136c.575-.623.8629-1.511.8629-2.662v-37.625h-1.655l29.495,38.992c.623.816,1.211,1.392,1.762,1.727.551.335,1.259.503,2.123.503.9099,0,1.6419-.312,2.1939-.935.55-.623.827-1.486.827-2.59v-44.675c0-1.103-.288-1.966-.863-2.59-.576-.623-1.439-.935-2.59-.935-1.1041,0-1.9551.312-2.5541.935-.5999.624-.899,1.487-.899,2.59v37.697h1.798l-29.6381-39.064c-.624-.815-1.163-1.378-1.6189-1.691-.4561-.311-1.115-.467-1.9781-.467-1.007,0-1.811.323-2.41.971-.6.647-.899,1.571-.899,2.77v44.387c0,1.151.311,2.039.9351,2.662.623.623,1.486.935,2.59.935,1.103,0,1.942-.312,2.5181-.935h0ZM622.705,160.568c1.007,0,1.7739-.252,2.3019-.756.527-.503.7921-1.259.7921-2.266,0-.959-.265-1.702-.7921-2.23-.528-.527-1.295-.791-2.3019-.791h-23.0921v-16.691h21.5101c1.054,0,1.834-.251,2.338-.755.5029-.504.7549-1.259.7549-2.266,0-.959-.252-1.702-.7549-2.23-.504-.528-1.2841-.792-2.338-.792h-21.5101v-15.899h23.0921c1.007,0,1.7739-.263,2.3019-.791.527-.527.7921-1.295.7921-2.302,0-.959-.265-1.691-.7921-2.194-.528-.504-1.295-.756-2.3019-.756h-26.2571c-1.2949,0-2.291.349-2.985,1.043-.696.696-1.044,1.691-1.044,2.986v42.661c0,1.295.348,2.291,1.044,2.986.694.695,1.6901,1.043,2.985,1.043h26.2571Z"/>
  <path class="st1" d="M716.911,9.731c0-2.2339-.6329-3.9646-1.899-5.1935-1.2661-1.2285-3.053-1.8427-5.36-1.8427h-56.7329c-2.3841,0-4.208.6142-5.472,1.8427-1.268,1.2289-1.899,2.9596-1.899,5.1935,0,2.3088.631,4.0957,1.899,5.3608,1.264,1.2671,3.088,1.8989,5.472,1.8989h19.6549v56.5123c0,2.83.744,5.008,2.234,6.534,1.488,1.525,3.6101,2.289,6.365,2.289,2.9041,0,5.082-.764,6.534-2.289,1.452-1.526,2.178-3.704,2.178-6.534V16.9907h19.767c2.307,0,4.094-.6318,5.36-1.8989,1.2661-1.2651,1.899-3.052,1.899-5.3608h0ZM637.676,58.6488c1.823-4.9872,2.736-10.5715,2.736-16.7525,0-8.1145-1.62-15.2065-4.858-21.276-3.239-6.0678-7.782-10.7582-13.6249-14.0724-5.8461-3.3122-12.6761-4.97-20.493-4.97-5.808,0-11.1121.9321-15.915,2.7923-4.802,1.8618-8.916,4.5789-12.34,8.1528-3.426,3.5738-6.05,7.8564-7.874,12.8439-1.825,4.9892-2.736,10.5368-2.736,16.641,0,8.1165,1.6,15.2276,4.802,21.3317,3.201,6.1064,7.762,10.8334,13.6811,14.1844,5.919,3.35,12.713,5.025,20.382,5.025,5.8799,0,11.204-.931,15.97-2.792,4.764-1.86,8.8781-4.596,12.34-8.208,3.463-3.611,6.104-7.9111,7.9301-12.9002h0ZM622.3189,42.0079c0,5.3608-.8369,9.9783-2.512,13.8489-1.6749,3.8723-4.059,6.851-7.148,8.9352-3.09,2.085-6.832,3.127-11.223,3.127-6.478,0-11.5601-2.29-15.245-6.8687-3.6851-4.5792-5.528-10.9259-5.528-19.0424,0-5.509.819-10.1807,2.457-14.0163,1.6371-3.834,4.021-6.757,7.148-8.7674,3.1271-2.0104,6.849-3.0154,11.168-3.0154,6.55,0,11.67,2.253,15.355,6.757,3.686,4.5055,5.528,10.8526,5.528,19.0421h0ZM546.994,46.4194c4.802-4.504,7.203-10.7025,7.203-18.5955,0-7.8178-2.401-13.9605-7.203-18.4279-4.803-4.4673-11.5599-6.7012-20.27-6.7012h-27.2501c-2.755,0-4.897.7453-6.422,2.2339-1.527,1.4901-2.289,3.6854-2.289,6.5893v61.985c0,2.83.743,5.008,2.233,6.534,1.489,1.525,3.611,2.289,6.366,2.289,2.904,0,5.082-.764,6.534-2.289,1.451-1.526,2.177-3.704,2.177-6.534V16.2088h15.747c4.467,0,7.873.9683,10.219,2.9037,2.345,1.9368,3.517,4.8406,3.517,8.7113,0,3.9475-1.1721,6.9071-3.517,8.8789-2.346,1.9738-5.752,2.9596-10.219,2.9596h-8.916v13.514h11.8201c8.71,0,15.4669-2.251,20.27-6.757h0ZM437.102,30.9512c-1.527-1.3404-2.2899-3.052-2.2899-5.1377,0-2.01.559-3.7412,1.676-5.1932,1.116-1.4519,2.7729-2.5863,4.969-3.4065,2.195-.8182,4.858-1.2285,7.985-1.2285,2.904,0,5.752.2792,8.544.8377s5.378,1.4711,7.762,2.7362c2.01.9687,3.7211,1.3037,5.137,1.0054,1.413-.2968,2.5861-.9497,3.518-1.9547.93-1.005,1.488-2.2338,1.675-3.6854.1851-1.4519,0-2.8481-.558-4.1885-.559-1.34-1.547-2.4569-2.96-3.3504-3.127-1.9351-6.701-3.3871-10.721-4.3558-4.021-.9668-8.08-1.4519-12.173-1.4519-4.766,0-9.121.5775-13.067,1.7311-3.947,1.1552-7.315,2.8306-10.107,5.0258-2.792,2.1973-4.952,4.841-6.477,7.9297-1.527,3.0907-2.29,6.4969-2.29,10.2194,0,5.8826,1.712,10.6292,5.138,14.2397,3.423,3.6121,8.711,6.1985,15.858,7.762l12.62,2.6804c4.094.8202,6.98,1.8427,8.655,3.0712,1.675,1.2289,2.513,2.9596,2.513,5.1935,0,2.5322-1.192,4.6173-3.574,6.2543-2.3829,1.639-6.254,2.457-11.615,2.457-3.573,0-7.166-.408-10.777-1.229-3.612-.818-6.98-2.046-10.107-3.6849-1.713-.8935-3.313-1.1727-4.802-.8377-1.49.335-2.663,1.0802-3.518,2.2336-.857,1.155-1.396,2.476-1.619,3.965-.224,1.49,0,2.96.67,4.411.67,1.452,1.86,2.625,3.574,3.519,2.306,1.34,4.895,2.457,7.762,3.35,2.865.893,5.936,1.563,9.213,2.01,3.275.447,6.477.67,9.604.67,4.987,0,9.437-.577,13.3459-1.731,3.9091-1.153,7.259-2.792,10.0511-4.914,2.792-2.122,4.97-4.69,6.5339-7.706,1.563-3.016,2.345-6.3836,2.345-10.1073,0-5.6576-1.806-10.2193-5.417-13.6817-3.612-3.4619-9.101-5.975-16.472-7.5385l-12.509-2.6804c-3.872-.8186-6.571-1.8989-8.096-3.2389h0ZM354.908,70.041c2.419-3.946,3.63-8.5999,3.63-13.9607,0-4.9876-1.044-9.3625-3.127-13.1232-2.0851-3.7587-5.009-6.7008-8.767-8.8232-3.761-2.1219-8.135-3.1827-13.122-3.1827-3.574,0-6.907.6142-9.996,1.8427-1.186.4717-2.189,1.1054-3.183,1.7471,0,0-1.596,1.0297,0,0v-17.6622h26.692c2.381,0,4.224-.6143,5.528-1.8427,1.302-1.2285,1.954-2.9963,1.954-5.3051,0-2.2339-.652-3.9646-1.954-5.1935-1.304-1.2285-3.147-1.8427-5.528-1.8427h-35.85c-2.456,0-4.299.6333-5.528,1.8989-1.228,1.2667-1.842,3.0903-1.842,5.4723v35.2923c0,2.0104.539,3.5742,1.619,4.6908,1.079,1.1169,2.773,1.6754,5.081,1.6754,1.266,0,2.513-.2792,3.742-.8377,1.228-.5585,2.251-1.1341,3.071-1.7312,1.935-1.5635,3.909-2.6613,5.919-3.2946,2.01-.6318,3.982-.9493,5.919-.9493,3.945,0,7.053,1.0803,9.325,3.2389,2.27,2.1602,3.407,5.0258,3.407,8.5997,0,2.3088-.559,4.3192-1.676,6.0308-1.117,1.7139-2.663,3.0349-4.634,3.9649-1.974.932-4.375,1.396-7.204,1.396-2.755,0-5.491-.335-8.208-1.005-2.719-.67-5.416-1.712-8.097-3.127-1.787-.9668-3.406-1.3022-4.858-1.0054-1.452.2983-2.643.9879-3.574,2.0664-.931,1.08-1.546,2.345-1.842,3.797-.299,1.452-.131,2.904.502,4.356.632,1.452,1.843,2.663,3.63,3.63,3.3499,2.01,7.035,3.462,11.056,4.355,4.02.894,7.891,1.34,11.615,1.34,6.179,0,11.502-1.099,15.97-3.294,4.467-2.195,7.91-5.267,10.33-9.214h0Z"/>
  <path class="st2" d="M386.697,56.6905c8.079,0,14.628-6.5487,14.628-14.627s-6.549-14.6269-14.628-14.6269-14.628,6.5487-14.628,14.6269,6.549,14.627,14.628,14.627h0Z"/>
</svg>