<?xml version="1.0" encoding="UTF-8"?>
<svg id="Layer_1" xmlns="http://www.w3.org/2000/svg" version="1.1" viewBox="0 0 418.7499 540">
  <!-- Generator: Adobe Illustrator 30.1.0, SVG Export Plug-In . SVG Version: 2.1.1 Build 136)  -->
  <defs>
    <style>
      .st0 {
        fill: #8fb1cc;
      }

      .st1 {
        fill: #4f6d91;
      }

      .st2 {
        fill: #e17b4b;
      }
    </style>
  </defs>
  <path class="st1" d="M418.7499,402.7219V16.8124C418.7499,7.5278,411.2209.0007,401.9359.0007h-15.554c-.001,0-.001-.0003-.002-.0003h-147.018c2.996,4.2336,5.192,9.275,5.952,15.3248,6.209-4.444,13.848-6.7125,21.447-6.7125,17.485,0,35.1841,11.9935,35.1841,34.9177v30.1056c6.147-4.292,13.644-6.486,21.107-6.486,17.478,0,35.172,11.999,35.172,34.931l-.021,186.386c-.004,31.405-7.418,62.858-21.441,90.959l-7.071,14.17c-4.009,8.032-6.173,16.963-6.461,25.94h63.15c2.542,0,4.926.067,7.086-.001h8.47c9.285,0,16.814-7.526,16.814-16.813h0Z"/>
  <path class="st1" d="M175.2759,20.5031c0-8.3012,2.371-15.1194,6.162-20.5031H16.8139C7.5287,0,0,7.5273,0,16.8124v385.9106c0,9.286,7.5287,16.813,16.8139,16.813h109.916v-.775c0-12.807-3.26-25.51-9.427-36.732-5.477-9.964-13.179-21.57-21.332-33.855-8.013-12.074-16.298-24.557-22.46-35.611-8.493-15.236-12.9826-32.517-12.984-49.972v-105.802c0-14.065,6.968-30.572,26.609-30.805,10.371-.103,21.707,4.846,30.437,13.289.487.472.956.957,1.422,1.444v-76.071c0-22.6573,17.469-34.7188,34.723-34.9247.151-.0012.304-.0027.455-.0027,7.443,0,14.946,2.1806,21.103,6.4691v-15.6846h0Z"/>
  <path class="st0" d="M231.5769,178.873V20.5031c0-12.521-8.018-19.0152-17.018-20.5031h-8.2c-9,1.4879-17.017,7.9821-17.017,20.5031v42.9899c.001.039.004.0759.005.1155,0,.0236-.006.0473-.005.0716v115.1929h42.235Z"/>
  <path class="st0" d="M133.0609,64.646v114.227h42.215V63.826c-.394-14.0118-11.008-20.2271-21.39-20.0386-10.366.123-20.825,6.6213-20.825,20.8585h0Z"/>
  <path class="st0" d="M287.8779,93.436v-49.9058c0-14.4032-10.606-20.8515-21.118-20.8515s-21.117,6.4483-21.117,20.8515v135.3428h42.235v-85.437h0Z"/>
  <path class="st0" d="M344.1579,102.08c0-14.412-10.601-20.864-21.106-20.864s-21.107,6.452-21.107,20.865v76.792h3.533c7.472,0,13.529,6.058,13.529,13.529v34.412c0,7.472-6.0569,13.53-13.529,13.53H125.0189c-7.472,0-13.529-6.058-13.529-13.53v-34.412c0-5.274,3.101-9.723,7.505-11.955v-5.701c-.539-21.404-19.182-34.817-31.693-34.696-10.504.125-12.708,9.171-12.708,16.739v105.802c.001,15.063,3.875,29.975,11.204,43.123,5.896,10.578,14.028,22.832,21.894,34.68,1.289,1.944,2.537,3.835,3.798,5.742v-17.135c0-7.472,6.057-13.529,13.529-13.529h180.459c7.472,0,13.529,6.057,13.529,13.529v34.411c0,7.473-6.0569,13.53-13.529,13.53h-175.055c6.734,12.883,10.373,27.272,10.373,41.819v.775h168.367c.292-11.146,2.963-22.248,7.941-32.222l7.071-14.169c13.0551-26.161,19.958-55.442,19.961-84.681l.022-186.384h0ZM319.0069,295.113c0,7.472-6.0569,13.53-13.529,13.53H125.0189c-7.472,0-13.529-6.058-13.529-13.53v-34.412c0-7.4709,6.057-13.529,13.529-13.529h180.459c7.472,0,13.529,6.058,13.529,13.529v34.412h0Z"/>
  <path class="st2" d="M149.2149,277.908c0,4.782-3.877,8.658-8.659,8.658s-8.658-3.876-8.658-8.658,3.875-8.659,8.658-8.659,8.659,3.876,8.659,8.659h0Z"/>
  <path class="st2" d="M175.0389,277.908c0,4.782-3.877,8.658-8.66,8.658s-8.659-3.876-8.659-8.658,3.877-8.659,8.659-8.659,8.66,3.876,8.66,8.659h0Z"/>
  <path class="st2" d="M200.8609,277.908c0,4.782-3.875,8.658-8.658,8.658s-8.659-3.876-8.659-8.658,3.878-8.659,8.659-8.659,8.658,3.876,8.658,8.659h0Z"/>
  <path class="st2" d="M298.5979,277.908c0,4.782-3.875,8.658-8.659,8.658h-52.43c-4.781,0-8.659-3.876-8.659-8.658s3.878-8.659,8.659-8.659h52.43c4.784,0,8.659,3.876,8.659,8.659h0Z"/>
  <path class="st2" d="M149.2149,346.207c0,4.782-3.877,8.659-8.659,8.659s-8.658-3.877-8.658-8.659,3.875-8.659,8.658-8.659,8.659,3.877,8.659,8.659h0Z"/>
  <path class="st2" d="M175.0389,346.207c0,4.782-3.877,8.659-8.66,8.659s-8.659-3.877-8.659-8.659,3.877-8.659,8.659-8.659,8.66,3.877,8.66,8.659h0Z"/>
  <path class="st2" d="M200.8609,346.207c0,4.782-3.875,8.659-8.658,8.659s-8.659-3.877-8.659-8.659,3.878-8.659,8.659-8.659,8.658,3.877,8.658,8.659h0Z"/>
  <path class="st2" d="M298.5979,346.207c0,4.782-3.875,8.659-8.659,8.659h-52.43c-4.781,0-8.659-3.877-8.659-8.659s3.878-8.659,8.659-8.659h52.43c4.784,0,8.659,3.877,8.659,8.659h0Z"/>
  <path class="st2" d="M149.2149,209.608c0,4.782-3.877,8.659-8.659,8.659s-8.658-3.877-8.658-8.659,3.875-8.658,8.658-8.658,8.659,3.876,8.659,8.658h0Z"/>
  <path class="st2" d="M175.0389,209.608c0,4.782-3.877,8.659-8.66,8.659s-8.659-3.877-8.659-8.659,3.877-8.658,8.659-8.658,8.66,3.876,8.66,8.658h0Z"/>
  <path class="st2" d="M200.8609,209.608c0,4.782-3.875,8.659-8.658,8.659s-8.659-3.877-8.659-8.659,3.878-8.658,8.659-8.658,8.658,3.876,8.658,8.658h0Z"/>
  <path class="st2" d="M298.5979,209.608c0,4.782-3.875,8.659-8.659,8.659h-52.43c-4.781,0-8.659-3.877-8.659-8.659s3.878-8.658,8.659-8.658h52.43c4.784,0,8.659,3.876,8.659,8.658h0Z"/>
  <path class="st1" d="M418.7499,467.247c0-2.232-.633-3.961-1.897-5.189-1.265-1.2281-3.051-1.841-5.356-1.841h-56.679c-2.382,0-4.204.6129-5.4669,1.841-1.266,1.228-1.897,2.957-1.897,5.189,0,2.306.631,4.092,1.897,5.356,1.263,1.266,3.085,1.897,5.4669,1.897h19.637v56.462c0,2.828.743,5.004,2.231,6.528,1.487,1.523,3.607,2.287,6.36,2.287,2.901,0,5.076-.7639,6.527-2.287,1.451-1.524,2.176-3.7,2.176-6.528v-56.462h19.748c2.305,0,4.091-.631,5.356-1.897,1.264-1.264,1.897-3.05,1.897-5.356h0ZM339.5889,516.1209c1.822-4.9829,2.733-10.5619,2.733-16.7379,0-8.107-1.617-15.193-4.853-21.257-3.236-6.0619-7.774-10.748-13.612-14.0599-5.84-3.3091-12.664-4.965-20.474-4.965-5.802,0-11.102.931-15.899,2.7899-4.798,1.8601-8.909,4.574-12.329,8.1451-3.423,3.5709-6.045,7.849-7.867,12.8329-1.823,4.984-2.733,10.527-2.733,16.626,0,8.109,1.599,15.214,4.798,21.312,3.197,6.101,7.754,10.824,13.668,14.172,5.913,3.3481,12.7,5.021,20.362,5.021,5.875,0,11.194-.931,15.955-2.789,4.76-1.859,8.87-4.593,12.329-8.2021,3.459-3.607,6.098-7.903,7.922-12.888h0ZM324.2469,499.4949c0,5.3561-.836,9.969-2.51,13.8361-1.674,3.869-4.055,6.845-7.141,8.927-3.087,2.083-6.825,3.125-11.213,3.125-6.472,0-11.548-2.2881-15.23-6.863-3.682-4.575-5.523-10.916-5.523-19.0251,0-5.5039.818-10.172,2.455-14.004,1.635-3.831,4.016-6.751,7.141-8.76,3.124-2.008,6.842-3.012,11.157-3.012,6.544,0,11.659,2.251,15.341,6.7509,3.683,4.501,5.523,10.843,5.523,19.025h0ZM248.9919,503.9019c4.798-4.5,7.196-10.693,7.196-18.579,0-7.81-2.398-13.948-7.196-18.411-4.798-4.463-11.548-6.695-20.251-6.695h-27.224c-2.753,0-4.892.744-6.416,2.232-1.525,1.488-2.287,3.682-2.287,6.583v61.93c0,2.828.743,5.004,2.232,6.528,1.487,1.523,3.607,2.287,6.359,2.287,2.901,0,5.077-.7639,6.528-2.287,1.45-1.524,2.175-3.7,2.175-6.528v-57.243h15.732c4.463,0,7.866.967,10.209,2.901,2.343,1.935,3.515,4.836,3.515,8.703,0,3.9441-1.172,6.9011-3.515,8.871-2.343,1.9721-5.746,2.9571-10.209,2.9571h-8.907v13.502h11.808c8.703,0,15.453-2.249,20.251-6.751h0ZM139.2039,488.448c-1.526-1.339-2.288-3.049-2.288-5.133,0-2.008.558-3.738,1.674-5.1891,1.115-1.45,2.77-2.584,4.965-3.403,2.193-.818,4.854-1.228,7.978-1.228,2.901,0,5.746.279,8.535.837,2.789.558,5.373,1.47,7.755,2.734,2.008.968,3.718,1.303,5.132,1.005,1.412-.297,2.584-.949,3.514-1.953.93-1.004,1.488-2.232,1.674-3.682.185-1.451,0-2.846-.558-4.1849-.558-1.3391-1.545-2.455-2.957-3.3481-3.124-1.933-6.694-3.384-10.71-4.352-4.017-.966-8.072-1.45-12.162-1.45-4.761,0-9.113.577-13.055,1.7289-3.943,1.155-7.308,2.828-10.097,5.022-2.789,2.195-4.947,4.836-6.471,7.922-1.526,3.088-2.288,6.4911-2.288,10.211,0,5.877,1.711,10.619,5.133,14.227,3.42,3.608,8.703,6.1931,15.843,7.755l12.608,2.6781c4.09.819,6.974,1.841,8.647,3.068,1.674,1.2279,2.511,2.957,2.511,5.1889,0,2.5301-1.191,4.6131-3.571,6.249-2.381,1.6371-6.248,2.455-11.603,2.455-3.571,0-7.16-.408-10.767-1.228-3.609-.817-6.974-2.045-10.098-3.682-1.712-.893-3.31-1.172-4.798-.8369-1.488.335-2.66,1.079-3.514,2.232-.856,1.154-1.395,2.474-1.618,3.961-.223,1.489,0,2.9569.669,4.408.67,1.45,1.859,2.6219,3.571,3.515,2.304,1.338,4.89,2.454,7.754,3.347,2.863.893,5.931,1.562,9.205,2.009,3.273.446,6.472.669,9.596.669,4.982,0,9.428-.577,13.333-1.73,3.905-1.1521,7.252-2.789,10.041-4.909,2.79-2.12,4.966-4.687,6.528-7.699,1.562-3.014,2.343-6.378,2.343-10.0991,0-5.6519-1.805-10.21-5.412-13.669-3.608-3.459-9.093-5.97-16.457-7.532l-12.496-2.678c-3.869-.818-6.566-1.897-8.089-3.236h0ZM57.0872,527.5029c2.4162-3.942,3.626-8.5919,3.626-13.9479,0-4.984-1.0423-9.355-3.1241-13.1121-2.0831-3.755-5.0035-6.695-8.7584-8.815-3.757-2.12-8.1276-3.18-13.1099-3.18-3.5707,0-6.9002.614-9.9862,1.841-1.1852.471-2.1869,1.104-3.1799,1.746,0,0-1.5943,1.028,0,0v-17.647h26.6664c2.3795,0,4.2206-.6141,5.5228-1.841,1.3006-1.227,1.9529-2.994,1.9529-5.3,0-2.232-.6523-3.961-1.9529-5.189-1.3022-1.2281-3.1433-1.841-5.5228-1.841H13.4055c-2.4543,0-4.2954.632-5.5228,1.897-1.2273,1.265-1.841,3.0869-1.841,5.4669v35.261c0,2.0091.5389,3.571,1.6178,4.687,1.0777,1.116,2.7703,1.674,5.0766,1.674,1.264,0,2.5105-.279,3.7379-.837,1.2273-.558,2.249-1.133,3.0684-1.73,1.9334-1.562,3.905-2.659,5.9132-3.292,2.0086-.631,3.9786-.948,5.9136-.948,3.9416,0,7.0467,1.0789,9.3164,3.236,2.2681,2.158,3.4031,5.021,3.4031,8.5919,0,2.307-.5579,4.315-1.6735,6.025-1.1159,1.713-2.6605,3.033-4.6305,3.962-1.9716.9311-4.3706,1.395-7.1963,1.395-2.7528,0-5.4866-.335-8.2008-1.005-2.7162-.6689-5.4114-1.71-8.0894-3.124-1.7849-.9661-3.4027-1.301-4.8534-1.004-1.4506.298-2.641.987-3.5703,2.064-.9308,1.0791-1.5445,2.343-1.841,3.794-.2981,1.451-.131,2.901.5022,4.352.6308,1.451,1.8407,2.6601,3.626,3.6261,3.3475,2.0089,7.0292,3.46,11.046,4.352,4.0164.8929,7.8832,1.339,11.6036,1.339,6.1735,0,11.4921-1.098,15.955-3.292,4.463-2.193,7.9028-5.261,10.3209-9.205h0Z"/>
  <path class="st2" d="M88.8459,514.1639c8.071,0,14.614-6.543,14.614-14.614s-6.543-14.614-14.614-14.614-14.614,6.5431-14.614,14.614,6.543,14.614,14.614,14.614h0Z"/>
</svg>