<?xml version="1.0" encoding="UTF-8"?>
<svg id="Layer_1" xmlns="http://www.w3.org/2000/svg" version="1.1" viewBox="0 0 720.0001 118.6899">
  <!-- Generator: Adobe Illustrator 29.4.0, SVG Export Plug-In . SVG Version: 2.1.0 Build 152)  -->
  <defs>
    <style>
      .st0 {
        fill: #2358ff;
      }

      .st1 {
        fill: #90a6ee;
      }
    </style>
  </defs>
  <path class="st0" d="M118.6901,104.9759V13.7134c0-7.5737-6.14-13.7134-13.714-13.7134h-12.644c4.867,1.5844,8.391,6.1861,8.391,11.6222,0,5.4803-3.579,10.1176-8.508,11.6653v72.1144c4.929,1.548,8.508,6.185,8.508,11.666,0,5.436-3.524,10.037-8.391,11.622h12.644c7.574,0,13.714-6.14,13.714-13.714h0Z"/>
  <path class="st0" d="M36.8876,0H13.7133C6.1398,0,0,6.1397,0,13.7134v72.2415L31.8795,20.0767c-2.0908-2.1951-3.3829-5.1704-3.3829-8.4545,0-5.4361,3.5235-10.0378,8.391-11.6222h0Z"/>
  <path class="st1" d="M.1114,106.6439c.8241,6.785,6.5939,12.046,13.602,12.046h71.1747c-4.867-1.585-8.391-6.186-8.391-11.622,0-3.279,1.299-6.239,3.3839-8.433L43.5087,23.4707c-.9305.231-1.8981.3669-2.8992.3669-.825,0-1.6302-.0846-2.4089-.2431L.1114,102.2949v4.349H.1114Z"/>
  <path class="st0" d="M49.6974,19.6794l35.3077,72.9635V23.2874c-4.929-1.5478-8.508-6.185-8.508-11.6652,0-5.4361,3.524-10.0378,8.391-11.6222h-40.5568c4.8675,1.5844,8.3908,6.1861,8.3908,11.6222,0,3.0911-1.1475,5.9057-3.0247,8.0572h0Z"/>
  <path class="st1" d="M181.5721,118.2699v-19.308h18.068v-9.172h-18.068v-10.55h21.929v-9.931h-33.238v48.961h11.309ZM220.8091,118.2699v-15.791h7.379l9.378,15.791h12.757l-10.757-18.205c1.241-.689,2.3549-1.528,3.344-2.517.988-.988,1.828-2.103,2.517-3.344.69-1.242,1.218-2.563,1.586-3.966.368-1.401.552-2.861.552-4.378,0-2.023-.403-4.023-1.207-6-.805-1.976-1.92-3.746-3.344-5.31-1.426-1.562-3.115-2.827-5.069-3.792-1.954-.966-4.08-1.449-6.378-1.449h-22.067v48.961h11.309ZM220.8091,79.2399h9.999c1.287,0,2.483.598,3.586,1.792,1.103,1.196,1.655,2.805,1.655,4.828,0,1.977-.483,3.597-1.448,4.861-.966,1.265-2.115,1.897-3.448,1.897h-10.344v-13.378h0ZM250.3931,118.2699h11.585l3.724-10.964h15.24l3.793,10.964h11.585l-17.86-48.961h-10.206l-17.861,48.961h0ZM267.4951,99.5129l5.862-17.308,5.723,17.308h-11.585ZM351.0731,118.2699v-48.961h-12.205l-12.758,25.584-12.688-25.584h-12.275v48.961h11.309v-29.307l10.62,21.308h6.0681l10.62-21.308v29.307h11.309ZM371.7601,108.3399v-10.413h19.309v-9.171h-19.309v-9.516h22.481v-9.931h-33.79v48.961h34.41v-9.93h-23.101ZM461.6141,69.2399l-9.379,31.928-10.206-31.859h-12.343l-9.999,31.928-9.448-31.928h-12.826l15.24,48.961h11.723l11.516-30.48,11.654,30.411h11.723l15.24-48.961h-12.895ZM509.816,116.6149c2.9881-1.379,5.562-3.206,7.723-5.482,2.1611-2.276,3.85-4.907,5.069-7.8961,1.217-2.988,1.827-6.091,1.827-9.309,0-3.08-.575-6.114-1.724-9.103-1.149-2.988-2.7819-5.654-4.8959-7.999-2.115-2.345-4.6661-4.229-7.654-5.655-2.9891-1.424-6.2991-2.137-9.93-2.137-3.5411,0-6.8051.678-9.7921,2.034-2.9901,1.356-5.575,3.172-7.758,5.448-2.1851,2.275-3.886,4.908-5.103,7.895-1.219,2.989-1.828,6.093-1.828,9.31,0,3.172.586,6.253,1.759,9.24,1.1721,2.989,2.815,5.644,4.9301,7.965,2.1139,2.322,4.6659,4.196,7.6549,5.62,2.988,1.426,6.298,2.138,9.93,2.138,3.539,0,6.8031-.689,9.792-2.069h0ZM488.0591,88.4459c.528-1.77,1.333-3.345,2.414-4.724,1.08-1.379,2.414-2.493,4-3.345,1.5861-.85,3.4581-1.275,5.62-1.275,2.069,0,3.896.403,5.4821,1.206,1.586.805,2.9309,1.886,4.0339,3.241,1.103,1.357,1.931,2.92,2.483,4.69.551,1.77.827,3.597.827,5.482,0,1.839-.265,3.644-.793,5.413-.5289,1.771-1.3219,3.357-2.379,4.758-1.0579,1.403-2.3909,2.541-4,3.414-1.6089.874-3.494,1.31-5.654,1.31-2.069,0-3.908-.414-5.517-1.241-1.61-.828-2.9539-1.931-4.034-3.31-1.081-1.379-1.896-2.954-2.448-4.724-.552-1.769-.828-3.597-.828-5.4821,0-1.838.264-3.643.793-5.413h0ZM542.295,118.2699v-15.791h7.3791l9.3779,15.791h12.758l-10.758-18.205c1.241-.689,2.356-1.528,3.345-2.517.988-.988,1.827-2.103,2.517-3.344.689-1.242,1.217-2.563,1.5861-3.966.3669-1.401.551-2.861.551-4.378,0-2.023-.403-4.023-1.2061-6-.805-1.976-1.9199-3.746-3.345-5.31-1.425-1.562-3.115-2.827-5.068-3.792-1.955-.966-4.081-1.449-6.379-1.449h-22.067v48.961h11.309ZM542.295,79.2399h9.999c1.287,0,2.483.598,3.586,1.792,1.104,1.196,1.655,2.805,1.655,4.828,0,1.977-.482,3.597-1.4479,4.861-.965,1.265-2.115,1.897-3.448,1.897h-10.3441v-13.378h0ZM588.4981,118.2699v-14.412l5.103-5.31,13.861,19.722h12.895l-19.585-27.101,18.344-21.86h-12.689l-17.929,21.102v-21.102h-11.309v48.961h11.309Z"/>
  <path class="st0" d="M165.7121,49.3112h11.585l3.724-10.9645h15.24l3.792,10.9645h11.585L193.7781.3502h-10.206l-17.86,48.961h0ZM182.8141,30.5543l5.861-17.3087,5.724,17.3087h-11.585ZM227.7751,49.3112V.3502h-11.31v48.961h11.31ZM283.6301,47.8975c2.665-1.1723,4.953-2.7584,6.861-4.7582,1.907-1.9998,3.39-4.3325,4.448-6.9993,1.057-2.6657,1.586-5.4704,1.586-8.413v-5.034h-21.515v9.9301h9.24c-.322.9201-.804,1.7929-1.448,2.6204-.644.8275-1.425,1.5634-2.344,2.2067-.921.6443-1.955,1.1615-3.103,1.5516-1.1501.3911-2.369.5861-3.655.5861-2.024,0-3.782-.4482-5.276-1.3447-1.494-.8964-2.724-2.0569-3.6891-3.4824-.965-1.4244-1.679-3.0105-2.138-4.7582-.46-1.7466-.689-3.4706-.689-5.1719,0-1.8382.252-3.643.758-5.4133.506-1.7692,1.252-3.3445,2.2411-4.7237.988-1.3792,2.23-2.4933,3.724-3.3445,1.494-.8502,3.207-1.2758,5.138-1.2758,1.562,0,2.941.2877,4.137.862,1.195.5754,2.207,1.2413,3.034,1.9998.828.7586,1.506,1.5408,2.035,2.3447.528.8048.931,1.4373,1.206,1.8963l8.965-7.0338c-1.885-3.2174-4.425-5.7118-7.62-7.4821C282.3301.8911,278.6181.0054,274.3891.0054c-3.724,0-7.068.6896-10.033,2.0688-2.966,1.3792-5.483,3.2066-7.551,5.4822-2.069,2.2757-3.655,4.8854-4.758,7.8269-1.104,2.9426-1.655,5.9768-1.655,9.1026,0,3.2648.596,6.4132,1.792,9.4474,1.195,3.0342,2.873,5.7128,5.034,8.0337,2.161,2.322,4.735,4.1839,7.724,5.5857,2.988,1.4029,6.275,2.1033,9.861,2.1033,3.217,0,6.16-.5862,8.827-1.7585h0ZM333.9011,47.6561c2.988-1.3791,5.562-3.2066,7.723-5.4822,2.16-2.2757,3.85-4.9069,5.069-7.8958,1.217-2.9879,1.827-6.091,1.827-9.3095,0-3.0795-.575-6.1137-1.724-9.1026-1.15-2.9879-2.782-5.6546-4.896-7.9993-2.115-2.3446-4.667-4.2291-7.655-5.6546-2.989-1.4244-6.299-2.1377-9.93-2.1377-3.54,0-6.804.6788-9.792,2.0343-2.989,1.3565-5.575,3.1721-7.758,5.4477-2.184,2.2757-3.885,4.908-5.103,7.8958-1.218,2.989-1.827,6.0922-1.827,9.3095,0,3.1721.586,6.2527,1.758,9.2405,1.173,2.989,2.816,5.6439,4.931,7.9648,2.114,2.322,4.665,4.1957,7.654,5.6202,2.988,1.4255,6.298,2.1377,9.93,2.1377,3.54,0,6.804-.6896,9.793-2.0688h0ZM312.1441,19.4864c.528-1.7693,1.333-3.3446,2.414-4.7237,1.079-1.3792,2.413-2.4933,3.999-3.3446,1.586-.8501,3.459-1.2757,5.62-1.2757,2.069,0,3.897.403,5.483,1.2068,1.586.8049,2.93,1.8856,4.034,3.2411,1.103,1.3565,1.931,2.9199,2.482,4.6892.552,1.7703.828,3.5977.828,5.4822,0,1.8393-.265,3.6441-.793,5.4133-.529,1.7703-1.322,3.3564-2.379,4.7582-1.058,1.4029-2.391,2.5407-4,3.4135-1.61.8738-3.494,1.3102-5.655,1.3102-2.068,0-3.908-.4138-5.516-1.2413-1.61-.8275-2.955-1.9308-4.034-3.31-1.081-1.3792-1.897-2.9534-2.448-4.7237-.552-1.7692-.828-3.5967-.828-5.4823,0-1.8381.264-3.6429.793-5.4132h0ZM348.3831.3502l18.757,48.961h9.516L395.2061.3502h-11.93l-11.378,34.7554L360.382.3502h-11.999ZM411.0661,39.3811v-10.4129h19.309v-9.1715h-19.309v-9.5164h22.481V.3502h-33.79v48.961h34.41v-9.9301h-23.101ZM452.373,49.3112v-15.7917h7.3781l9.379,15.7917h12.757l-10.757-18.2052c1.241-.6896,2.355-1.5279,3.344-2.517.988-.9881,1.827-2.1033,2.5171-3.3446.69-1.2412,1.2179-2.5622,1.5859-3.9651.3669-1.4018.552-2.8618.552-4.3789,0-2.0225-.403-4.0223-1.207-5.9995-.8049-1.9761-1.92-3.7464-3.345-5.3098-1.425-1.5624-3.115-2.8273-5.068-3.7928-1.955-.9654-4.08-1.4481-6.379-1.4481h-22.067v48.961h11.31ZM452.373,10.2803h9.9991c1.286,0,2.482.598,3.586,1.793,1.103,1.196,1.655,2.8046,1.655,4.8271,0,1.9772-.483,3.5977-1.449,4.8616-.965,1.265-2.115,1.8964-3.448,1.8964h-10.343v-13.3781h0ZM521.1251,49.3112h9.102V.3502h-11.3089v28.756L496.0931.3502h-8.827v48.961h11.309v-27.9974l22.55,27.9974h0ZM535.0541,49.3112h11.585l3.7239-10.9645h15.239l3.7931,10.9645h11.5849L563.1201.3502h-10.2059l-17.86,48.961h0ZM552.1551,30.5543l5.862-17.3087,5.7241,17.3087h-11.5861ZM619.6661,49.3112h9.103V.3502h-11.3089v28.756L594.634.3502h-8.8269v48.961h11.3099v-27.9974l22.549,27.9974h0ZM637.0781,33.6575c1.172,3.0341,2.827,5.7473,4.9651,8.1371,2.137,2.391,4.689,4.31,7.6539,5.7581,2.965,1.4481,6.217,2.1722,9.7581,2.1722,2.022,0,4.0909-.2532,6.2059-.7585,2.114-.5054,4.114-1.2413,6-2.2067,1.884-.9655,3.551-2.1604,4.999-3.5859,1.4479-1.4244,2.54-3.0342,3.2759-4.8271l-9.2409-5.4478c-.506,1.2413-1.172,2.2875-2.0001,3.1376-.827.8513-1.7349,1.5408-2.7239,2.0688-.989.5291-2.0231.9202-3.1031,1.1723-1.08.2532-2.127.3793-3.1369.3793-1.978,0-3.759-.4019-5.3451-1.2068-1.586-.8038-2.942-1.8964-4.068-3.2756-1.127-1.3791-1.989-2.9652-2.5859-4.7581-.5981-1.793-.897-3.6549-.897-5.5857,0-1.793.252-3.5622.759-5.3099.505-1.7466,1.286-3.31,2.344-4.6892,1.057-1.3792,2.39-2.5051,4-3.379,1.609-.8727,3.493-1.3102,5.655-1.3102,1.01,0,2.045.1034,3.103.3103,1.057.2069,2.0909.5754,3.103,1.1034,1.011.529,1.942,1.2186,2.793,2.0687.85.8512,1.551,1.9201,2.103,3.2066l8.6889-6.0684c-1.655-3.1721-4.172-5.7462-7.551-7.7234-3.379-1.9761-7.3679-2.9652-11.964-2.9652-3.8619,0-7.3099.7133-10.344,2.1377-3.034,1.4255-5.61,3.2874-7.724,5.5857-2.115,2.2993-3.724,4.9079-4.827,7.8268-1.103,2.92-1.655,5.8508-1.655,8.7923,0,3.1269.5861,6.2063,1.759,9.2406h0ZM696.899,39.3811v-10.4129h19.308v-9.1715h-19.308v-9.5164h22.48V.3502h-33.79v48.961h34.411v-9.9301h-23.101Z"/>
</svg>
