<?xml version="1.0" encoding="utf-8"?>
<svg id="master-artboard" viewBox="0 0 400 245" version="1.1" xmlns="http://www.w3.org/2000/svg" x="0px" y="0px" style="enable-background:new 0 0 850.4 1133.9;" width="400px" height="245px"><defs><clipPath clipPathUnits="userSpaceOnUse" id="clipPath16"> <path d="m 0,164.41 195.59,0 L 195.59,0 0,0 0,164.41 z" id="path18"/> </clipPath><clipPath id="a"><path d="M30.928 118.27l5.712 6.383 19.922-23.758zm5.712-31.583v8.618l30.649-4.286zm25.355-19.565l-5.758 6.382L81.87 90.879zm31.856 2.422l-8.545.885 7.477 30.14zm22.104 23.199l-6.966-5.031-14.535 27.39zm.928 32.096l-1.81-8.432-29.07 10.621zm-20.71 24.456l4.272-7.5-28.698-11.6zm-31.717 4.24l8.173-2.656-13.56-27.904zM38.033 135.46l7.848 3.494 8.544-29.86zm-7.523-31.211l3.483 7.873 26.284-16.444zm15.185-28.23l-2.647 8.2 30.463 5.403zm30.138-10.76l-7.476 4.285 19.085 24.503zm29.58 12.204l-8.405-1.816-2.182 30.978zm13.839 28.929l-5.062-6.988-22.29 21.568zm-9.01 30.745l.883-8.572-30.927 1.072zM83.032 154l6.362-5.776-23.683-19.985zm-31.485-5.776h8.591l-4.318-30.745zM18 16.903v27.925h10.069c8.18 0 13.53-5.585 13.53-13.845 0-8.26-5.31-14.08-13.609-14.08zm33.156-.472c-4.011 0-6.686 2.32-6.686 5.82 0 1.889.826 3.462 2.4 4.445 1.415.826 3.303 1.337 6.41 1.77l4.17.511v.512c0 2.95-1.141 4.208-3.658 4.208-2.321 0-3.698-1.22-3.855-3.461H45.1c.315 4.208 3.619 6.804 8.693 6.804 5.82 0 8.416-2.478 8.416-8.18v-5.861c0-2.675.197-4.72.59-6.096h-4.72a27.566 27.566 0 0 0-.314 3.382c-.944-2.4-3.422-3.854-6.608-3.854zm14.16 16.716v3.421h3.54v4.956l4.72 1.888v-6.844h4.798v-3.421h-4.799v-9.4c0-2.125.905-3.108 2.871-3.108.787 0 1.298.079 1.928.236v-3.972c-1.141-.236-2.006-.354-3.226-.354-4.72 0-6.293 2.478-6.293 6.45v10.148zm17.148 6.686v4.916h5.113v-4.916zm.236-22.93v19.665h4.72V16.903zm18.958-.472c-5.86 0-9.636 4.05-9.636 10.305 0 6.41 3.697 10.304 9.675 10.304 4.877 0 8.063-2.596 8.653-7.08l-4.602-.747c-.314 2.675-1.848 4.13-4.169 4.13-2.91 0-4.72-2.438-4.72-6.49 0-4.247 1.77-6.686 4.799-6.686 2.36 0 3.815 1.455 4.248 4.209l4.444-.905c-.708-4.366-4.012-7.04-8.692-7.04zm18.21 0c-4.012 0-6.686 2.32-6.686 5.82 0 1.889.826 3.462 2.4 4.445 1.415.826 3.303 1.337 6.41 1.77l4.17.511v.512c0 2.95-1.141 4.208-3.659 4.208-2.32 0-3.697-1.22-3.854-3.461h-4.838c.315 4.208 3.619 6.804 8.692 6.804 5.821 0 8.417-2.478 8.417-8.18v-5.861c0-2.675.197-4.72.59-6.096h-4.72a27.544 27.544 0 0 0-.314 3.382c-.944-2.4-3.422-3.854-6.608-3.854zm1.534 3.343c2.91 0 4.877 2.045 4.877 5.192v1.258l-4.444-.668c-2.596-.433-3.776-1.377-3.776-3.068 0-1.652 1.259-2.714 3.343-2.714zm-68.712 0c2.91 0 4.877 2.045 4.877 5.192v1.258l-4.444-.668c-2.596-.433-3.776-1.377-3.776-3.068 0-1.652 1.259-2.714 3.343-2.714zm-29.616 1.101h4.759c5.428 0 8.456 4.563 8.456 10.108 0 5.664-2.91 9.872-8.377 9.872h-4.838z" clip-rule="evenodd"/></clipPath><clipPath id="b"><path d="M0 0h149v171H0z"/></clipPath><clipPath id="c"><path d="M0 747h714V0H0z"/></clipPath><clipPath id="d"><path d="M0 747h714V0H0z"/></clipPath><clipPath id="e"><path d="M0 747h714V0H0z"/></clipPath><clipPath id="f"><path d="M0 747h714V0H0z"/></clipPath><clipPath id="g"><path d="M0 747h714V0H0z"/></clipPath><clipPath id="h"><path d="M0 747h714V0H0z"/></clipPath><clipPath id="i"><path d="M0 747h714V0H0z"/></clipPath><clipPath id="j"><path d="M0 747h714V0H0z"/></clipPath><clipPath id="path-1"><path d="M0 432h432V0H0z"/></clipPath><clipPath id="path-2"><path d="M181.472 265.113l34.527-34.249 34.534 34.249-34.534 71.545z"/></clipPath><radialGradient id="gradient-1" spreadMethod="pad" gradientTransform="matrix(-65.1427 0 0 65.1427 247.822 264.472)" gradientUnits="userSpaceOnUse" r="1" cy="0" cx="0" fy="0" fx="0"><stop offset="0" stop-color="#0068ab"/><stop offset=".263" stop-color="#0068ab"/><stop offset="1" stop-color="#133e67"/></radialGradient><clipPath id="path-3"><path d="M215.999 230.864l43.911-43.559h28.513l-37.89 77.808z"/></clipPath><radialGradient id="gradient-2" spreadMethod="pad" gradientTransform="matrix(-67.47137 0 0 67.47137 249.63 265.508)" gradientUnits="userSpaceOnUse" r="1" cy="0" cx="0" fy=".166" fx=".307"><stop offset="0" stop-color="#2688c8"/><stop offset="1" stop-color="#0068ab"/></radialGradient><clipPath id="path-4"><path d="M143.574 187.305h28.514l43.911 43.559-34.527 34.249z"/></clipPath><linearGradient id="gradient-3" gradientTransform="matrix(72.4252 0 0 -72.4252 143.574 226.209)" gradientUnits="userSpaceOnUse" x2="1"><stop offset="0" stop-color="#92c0dd"/><stop offset="1" stop-color="#c4daeb"/></linearGradient><path id="SVGID_1_" d="M650 800.5c0 32.3-26.5 58.8-58.8 58.8H70.4c-32.3 0-58.8-26.5-58.8-58.8V69c0-32.3 26.5-58.8 58.8-58.8h520.7c32.3 0 58.8 26.5 58.8 58.8v731.5h.1z"/><path id="SVGID_4_" d="M210.8 250.5l19.4-56.1s15.4-44.5 63.1-27.6c43.6 15.4 49.8-2.1 70.2-5.1 28.2-4.1 44.5 7.7 49.8 28.2s18.4 60.1 18.4 60.1l17.3 1.8c.7-7.9 14.3-131.4-126.9-117.4-10.9-1.5-130.3-20.9-124.5 117.4l13.2-1.3z"/></defs><rect id="ee-background" x="0" y="0" width="400" height="245" style="fill: white; fill-opacity: 0; pointer-events: none;"/><g transform="matrix(0.28064660402021463, 0, 0, 0.28064660402021463, 0.000019690014596562833, 67.064815014367)"><metadata id="metadata8"/><g transform="matrix(1.3333333,0,0,-1.3333333,0,395.05333)" id="g10"><g transform="scale(0.1)" id="g12"><path id="path14" style="fill:#485153;fill-opacity:1;fill-rule:nonzero;stroke:none" d="m 3511.8,1573.73 c -34.19,15.95 -118.49,38.74 -232.43,38.74 -186.84,0 -271.16,-75.2 -271.16,-214.19 0,-159.51 95.71,-216.48 230.15,-216.48 143.54,0 273.44,91.14 273.44,191.41 z m 41,-458 -6.83,2.27 c -84.32,-107.09 -223.3,-170.898 -387.37,-170.898 -255.2,0 -423.82,141.278 -423.82,446.618 0,257.5 173.17,423.82 492.18,423.82 107.09,0 207.35,-18.22 284.84,-43.3 v 102.55 c 0,170.9 -82.03,239.26 -287.12,239.26 -148.11,0 -255.21,-22.79 -380.53,-77.48 l -25.06,239.26 c 134.44,59.24 287.1,88.87 458,88.87 382.81,0 521.81,-164.07 521.81,-533.2 V 969.898 h -221.03 l -25.07,145.832"/><path id="path16" style="fill:#485153;fill-opacity:1;fill-rule:nonzero;stroke:none" d="M 4017.67,969.898 V 2332.52 l 232.42,13.67 25.06,-257.48 h 6.84 c 84.3,177.73 225.59,273.43 394.2,273.43 56.97,0 107.1,-6.83 143.56,-18.23 l -18.24,-293.95 c -43.3,13.68 -93.4,22.79 -143.55,22.79 -198.23,0 -350.9,-154.94 -350.9,-412.42 V 969.898 h -289.39"/><path id="path-5" style="fill:#485153;fill-opacity:1;fill-rule:nonzero;stroke:none" d="m 6531.01,969.898 v 890.942 c 0,164.06 -91.15,239.25 -241.53,239.25 -132.17,0 -232.43,-72.91 -232.43,-223.3 V 969.898 h -289.37 v 906.892 c 0,161.78 -95.71,225.59 -232.43,225.59 -97.98,0 -195.96,-50.14 -243.81,-125.33 V 969.898 H 5002.05 V 2334.8 l 207.35,13.67 50.14,-136.72 c 93.42,95.71 221.03,152.67 353.18,152.67 177.74,0 296.23,-63.8 366.87,-195.97 86.58,134.44 223.29,195.97 387.35,195.97 266.61,0 453.46,-164.06 453.46,-499.02 V 969.898 h -289.39"/><path id="path20" style="fill:#485153;fill-opacity:1;fill-rule:nonzero;stroke:none" d="m 7629.33,1181.8 c 225.58,0 309.89,109.38 309.89,469.42 0,360.01 -84.31,469.38 -309.89,469.38 -227.87,0 -314.45,-109.37 -314.45,-469.38 0,-360.04 88.87,-469.42 314.45,-469.42 z m 0,-243.808 c -423.82,0 -615.23,205.078 -615.23,713.228 0,505.85 191.41,715.48 615.23,715.48 426.11,0 608.39,-209.63 608.39,-715.48 0,-508.15 -182.28,-713.228 -608.39,-713.228"/><path id="path22" style="fill:#485153;fill-opacity:1;fill-rule:nonzero;stroke:none" d="M 8451.93,969.898 V 2332.52 l 232.43,13.67 25.05,-257.48 h 6.84 c 84.31,177.73 225.6,273.43 394.2,273.43 56.97,0 107.1,-6.83 143.56,-18.23 l -18.23,-293.95 c -43.3,13.68 -93.42,22.79 -143.55,22.79 -198.25,0 -350.9,-154.94 -350.9,-412.42 V 969.898 h -289.4"/><path id="path24" style="fill:#485153;fill-opacity:1;fill-rule:nonzero;stroke:none" d="m 9914.82,967.621 6.85,20.5 -594.73,1353.519 h 332.68 l 339.51,-911.46 61.57,-173.18 h 6.8 l 45.6,177.73 266.6,906.91 h 309.9 L 10204.2,965.34 C 10104,696.461 9958.13,596.199 9741.65,596.199 c -79.76,0 -157.22,13.672 -223.3,43.301 l 25.06,211.898 c 50.13,-25.066 97.99,-34.179 148.11,-34.179 97.98,0 170.89,34.179 223.3,150.402"/><path id="path26" style="fill:#ffffff;fill-opacity:1;fill-rule:nonzero;stroke:none" d="m 1919.94,2352.36 -115.46,53.28 v 222.97 l -581.8,130.6 -0.01,0.01 -581.815,-130.61 V 2532.8 2405.64 L 525.402,2352.36 209.445,2206.53 c -4.054,-38.97 -7.836,-89.1 -9.523,-147.67 -2.481,-86.28 -0.16,-191.36 13.004,-308.46 92.625,37.52 193.797,58.38 299.89,58.38 99.336,0 194.364,-18.27 282.09,-51.4 141.399,-53.41 263.734,-145.65 353.854,-263.84 24.29,2.54 48.94,3.89 73.91,3.89 130.92,0 253.34,-36 358.24,-98.41 25.94,-15.45 50.86,-32.43 74.51,-50.98 86.65,50.59 187.36,79.71 294.94,79.71 73.72,0 144.21,-13.75 209.2,-38.6 11.22,37.82 21.51,76.08 30.61,114.91 21.67,92.5 35.6,181.2 44.22,263.78 19.68,188.72 11.23,345.02 1.48,438.7 l -315.93,145.82"/><path id="path28" style="fill:#18679e;fill-opacity:1;fill-rule:nonzero;stroke:none" d="m 2234.39,1767.84 c -8.62,-82.58 -22.55,-171.28 -44.22,-263.78 -9.1,-38.83 -19.39,-77.09 -30.61,-114.91 -64.99,24.85 -135.48,38.6 -209.2,38.6 -107.58,0 -208.29,-29.12 -294.94,-79.71 -23.65,18.55 -48.57,35.53 -74.51,50.98 -104.9,62.41 -227.32,98.41 -358.24,98.41 -24.97,0 -49.62,-1.35 -73.91,-3.89 -90.12,118.19 -212.455,210.43 -353.854,263.84 -87.726,33.13 -182.754,51.4 -282.09,51.4 -106.093,0 -207.265,-20.86 -299.89,-58.38 -13.164,117.1 -15.485,222.18 -13.004,308.46 1.687,58.57 5.469,108.7 9.523,147.67 l 315.957,145.83 115.453,53.28 v 127.16 95.81 l 581.815,130.61 0.01,-0.01 581.8,-130.6 v -95.81 -127.16 l 115.46,-53.28 315.93,-145.82 c 9.75,-93.68 18.2,-249.98 -1.48,-438.7 m -231.17,764.96 v 254.87 l -780.54,175.22 h -0.01 L 442.117,2787.67 V 2532.8 L 27.9492,2341.64 c 0,0 -31.37889,-150.76 -27.640606,-382.69 C 1.81641,1865.48 9.07813,1758.81 26.3516,1643.52 41.1797,1544.51 63.4375,1439.17 95.8672,1330.29 215.785,927.648 474.949,477.332 1012.66,124.801 1078.46,81.6602 1148.27,39.9414 1222.67,0 l 0.01,0.0117188 C 1297.03,39.9219 1366.79,81.6094 1432.54,124.711 c 447.95,293.648 702.53,655.121 844.4,1000.419 21.92,53.32 41.24,106.26 58.07,158.5 44.35,137.63 72.05,270.35 88.61,392.63 52.12,384.67 -6.24,665.38 -6.24,665.38 l -414.16,191.16"/><path id="path30" style="fill:#64c8e3;fill-opacity:1;fill-rule:nonzero;stroke:none" d="m 794.906,1757.38 c 69.211,36.25 147.903,56.85 231.444,56.85 63.95,0 125.03,-12.14 181.23,-34.03 86.09,108.16 208.1,181.77 346,198.91 -92.99,53.44 -211.39,85.52 -340.4,85.52 -17.24,0 -34.25,-0.64 -51.08,-1.75 -98.08,111.26 -236.225,180.68 -389.424,180.68 -159.137,0 -302.11,-74.85 -400.711,-193.75 -33.754,9.61 -69.258,15.08 -106.094,15.08 -22.531,0 -44.473,-2.34 -65.949,-6.03 -2.481,-86.28 -0.16,-191.36 13.004,-308.46 92.625,37.52 193.797,58.38 299.89,58.38 99.336,0 194.364,-18.27 282.09,-51.4"/><path id="path32" style="fill:#379cc2;fill-opacity:1;fill-rule:nonzero;stroke:none" d="m 2057.72,1790.95 c -14.09,0 -28.01,-0.52 -41.8,-1.33 -98.59,118.68 -241.44,193.35 -400.41,193.35 -20.95,0 -41.6,-1.33 -61.93,-3.86 -137.9,-17.14 -259.91,-90.75 -346,-198.91 -56.2,21.89 -117.28,34.03 -181.23,34.03 -83.541,0 -162.233,-20.6 -231.444,-56.85 141.399,-53.41 263.734,-145.65 353.854,-263.84 24.29,2.54 48.94,3.89 73.9,3.89 130.93,0 253.35,-36 358.25,-98.42 25.94,-15.44 50.86,-32.42 74.51,-50.97 86.65,50.59 187.36,79.71 294.94,79.71 73.72,0 144.21,-13.75 209.2,-38.6 11.22,37.82 21.51,76.08 30.61,114.91 21.67,92.5 35.6,181.2 44.22,263.78 -54.89,14.88 -114.41,23.11 -176.67,23.11"/><path id="path34" style="fill:#ced0d3;fill-opacity:1;fill-rule:nonzero;stroke:none" d="m 2234.39,1767.84 c -54.89,14.88 -114.41,23.11 -176.67,23.11 -14.09,0 -28.01,-0.52 -41.8,-1.33 -98.59,118.68 -241.44,193.35 -400.41,193.35 -20.95,0 -41.6,-1.33 -61.93,-3.86 -130.02,-16.16 -245.92,-82.52 -330.9,-180.71 v 0 c 84.98,98.19 200.88,164.55 330.9,180.71 -90.7,52.13 -205.58,83.93 -330.9,85.46 v 694.64 l 581.8,-130.6 v -95.81 -127.16 l 115.46,-53.28 315.93,-145.82 c 5.43,-52.15 10.45,-123.7 10.45,-209.44 -0.01,-68.29 -3.21,-145.59 -11.93,-229.26 v 0"/><path id="path36" style="fill:#ced0d3;fill-opacity:1;fill-rule:nonzero;stroke:none" d="M 1222.68,0.0117188 V 1497.43 c 130.92,-0.01 253.34,-36 358.23,-98.42 25.94,-15.44 50.86,-32.42 74.51,-50.97 86.65,50.59 187.36,79.71 294.94,79.71 73.72,0 144.21,-13.75 209.2,-38.6 11.22,37.82 21.51,76.08 30.61,114.91 21.67,92.5 35.6,181.2 44.22,263.78 v 0 0 c 8.72,83.67 11.92,160.97 11.93,229.26 0,85.74 -5.02,157.29 -10.45,209.44 l -315.93,145.82 -115.46,53.28 v 127.16 95.81 l -581.8,130.6 v 203.68 l 780.54,-175.22 V 2532.8 l 414.16,-191.16 c 0,0 27.9,-134.19 27.89,-344.15 0,-93.71 -5.56,-202.52 -21.65,-321.23 -16.56,-122.28 -44.26,-255 -88.61,-392.63 -16.83,-52.24 -36.15,-105.18 -58.07,-158.5 C 2135.07,779.832 1880.49,418.359 1432.54,124.711 1366.79,81.6094 1297.03,39.9219 1222.68,0.0117188"/><path id="path38" style="fill:#3575a8;fill-opacity:1;fill-rule:nonzero;stroke:none" d="M 1222.68,0.0117188 V 1497.43 c 130.92,-0.01 253.34,-36 358.23,-98.42 25.94,-15.44 50.86,-32.42 74.51,-50.97 86.65,50.59 187.36,79.71 294.94,79.71 73.72,0 144.21,-13.75 209.2,-38.6 11.22,37.82 21.51,76.08 30.61,114.91 21.67,92.5 35.6,181.2 44.22,263.78 v 0 0 c 8.72,83.67 11.92,160.97 11.93,229.26 0,85.74 -5.02,157.29 -10.45,209.44 l -315.93,145.82 -115.46,53.28 v 127.16 95.81 l -581.8,130.6 v 203.68 l 780.54,-175.22 V 2532.8 l 414.16,-191.16 c 0,0 27.9,-134.19 27.89,-344.15 0,-93.71 -5.56,-202.52 -21.65,-321.23 -16.56,-122.28 -44.26,-255 -88.61,-392.63 -16.83,-52.24 -36.15,-105.18 -58.07,-158.5 C 2135.07,779.832 1880.49,418.359 1432.54,124.711 1366.79,81.6094 1297.03,39.9219 1222.68,0.0117188"/><path id="path40" style="fill:#ced0d3;fill-opacity:1;fill-rule:nonzero;stroke:none" d="m 1222.68,1798.4 v 266.17 c 125.32,-1.53 240.2,-33.33 330.9,-85.46 -130.02,-16.16 -245.92,-82.52 -330.9,-180.71"/><path id="path42" style="fill:#7bd0e7;fill-opacity:1;fill-rule:nonzero;stroke:none" d="m 1222.68,1798.4 v 266.17 c 125.32,-1.53 240.2,-33.33 330.9,-85.46 -130.02,-16.16 -245.92,-82.52 -330.9,-180.71"/><path id="path44" style="fill:#ced0d3;fill-opacity:1;fill-rule:nonzero;stroke:none" d="m 1655.42,1348.04 c -23.65,18.55 -48.57,35.53 -74.51,50.97 -104.89,62.42 -227.31,98.41 -358.23,98.42 v 300.97 c 84.98,98.19 200.88,164.55 330.9,180.71 20.33,2.53 40.98,3.86 61.93,3.86 158.97,0 301.82,-74.67 400.41,-193.35 13.79,0.81 27.71,1.33 41.8,1.33 62.26,0 121.78,-8.23 176.67,-23.11 v 0 0 c -8.62,-82.58 -22.55,-171.28 -44.22,-263.78 -9.1,-38.83 -19.39,-77.09 -30.61,-114.91 -64.99,24.85 -135.48,38.6 -209.2,38.6 -107.58,0 -208.29,-29.12 -294.94,-79.71"/><path id="path46" style="fill:#53a7c9;fill-opacity:1;fill-rule:nonzero;stroke:none" d="m 1655.42,1348.04 c -23.65,18.55 -48.57,35.53 -74.51,50.97 -104.89,62.42 -227.31,98.41 -358.23,98.42 v 300.97 c 84.98,98.19 200.88,164.55 330.9,180.71 20.33,2.53 40.98,3.86 61.93,3.86 158.97,0 301.82,-74.67 400.41,-193.35 13.79,0.81 27.71,1.33 41.8,1.33 62.26,0 121.78,-8.23 176.67,-23.11 v 0 0 c -8.62,-82.58 -22.55,-171.28 -44.22,-263.78 -9.1,-38.83 -19.39,-77.09 -30.61,-114.91 -64.99,24.85 -135.48,38.6 -209.2,38.6 -107.58,0 -208.29,-29.12 -294.94,-79.71"/></g></g></g></svg>