<?xml version="1.0" encoding="utf-8"?>
<!-- Generator: Adobe Illustrator 27.0.0, SVG Export Plug-In . SVG Version: 6.00 Build 0)  -->
<svg version="1.1" id="Layer_1" xmlns="http://www.w3.org/2000/svg" xmlns:xlink="http://www.w3.org/1999/xlink" x="0px" y="0px"
	 viewBox="0 0 443.5 551.5" style="enable-background:new 0 0 443.5 551.5;" xml:space="preserve">
<style type="text/css">
	.st0{fill:#5D93CD;}
	.st1{fill:#DFE1DF;}
	.st2{fill:#0054A6;}
</style>
<g>
	<path class="st0" d="M8.8,534.2v-9h10.5c2.3,0,4.1,0.4,5.1,1.2c1.1,0.8,1.6,1.9,1.6,3.3v0.1c0,1.5-0.6,2.7-1.7,3.4
		c-1.1,0.7-2.7,1.1-4.7,1.1H8.8L8.8,534.2z M8.8,517.6v-8.7h8.9c1.9,0,3.4,0.4,4.4,1.1c1,0.7,1.5,1.8,1.5,3.1v0.1
		c0,1.5-0.6,2.6-1.8,3.3c-1.2,0.7-2.8,1-4.8,1H8.8L8.8,517.6z M0,542.1h19.5c2.3,0,4.4-0.2,6.3-0.7c1.9-0.5,3.5-1.2,4.9-2.1
		c1.3-0.9,2.4-2.1,3.1-3.5c0.7-1.4,1.1-3.1,1.1-4.9v-0.1c0-2.7-0.7-4.9-2-6.4c-1.4-1.5-3.2-2.8-5.6-3.7c0.7-0.4,1.4-0.9,2.1-1.4
		c0.6-0.5,1.2-1.2,1.7-1.9c0.5-0.7,0.9-1.5,1.2-2.4c0.3-0.9,0.4-1.9,0.4-3.1v-0.1c0-2.8-0.9-5.1-2.8-7c-2.4-2.4-6-3.6-10.7-3.6H0
		V542.1L0,542.1z M49.6,535.5c-0.9-0.7-1.4-1.6-1.4-2.8v-0.1c0-1.4,0.5-2.5,1.6-3.2c1.1-0.7,2.6-1.1,4.5-1.1c1.1,0,2.1,0.1,3.1,0.3
		c1,0.2,1.8,0.5,2.6,0.9v1.6c0,1.6-0.6,3-1.9,4c-1.3,1-3,1.5-5.1,1.5C51.6,536.5,50.5,536.2,49.6,535.5L49.6,535.5z M56,541.6
		c1.5-0.7,2.8-1.7,3.9-2.9v3.4h8.6v-18.3c0-2.1-0.3-4-0.8-5.7c-0.5-1.7-1.4-3.1-2.6-4.3c-1.1-1.1-2.6-2-4.3-2.6
		c-1.7-0.6-3.8-0.9-6.3-0.9c-2.7,0-4.9,0.2-6.8,0.7c-1.9,0.5-3.7,1.1-5.4,1.8l2.2,6.8c1.4-0.5,2.8-1,4.1-1.3
		c1.3-0.3,2.8-0.4,4.6-0.4c2.2,0,3.9,0.5,5.1,1.5c1.1,1,1.7,2.4,1.7,4.3v0.5c-1.1-0.4-2.3-0.7-3.5-0.9c-1.2-0.2-2.6-0.4-4.2-0.4
		c-1.9,0-3.6,0.2-5.1,0.6c-1.5,0.4-2.9,1-4,1.8c-1.1,0.8-2,1.9-2.6,3.1c-0.6,1.3-0.9,2.7-0.9,4.5v0.1c0,1.6,0.3,2.9,0.9,4.1
		c0.6,1.2,1.3,2.2,2.3,3c1,0.8,2.1,1.4,3.4,1.9c1.3,0.4,2.7,0.6,4.2,0.6C52.6,542.7,54.4,542.3,56,541.6L56,541.6z M98.7,541.2
		c2-1.1,3.7-2.5,5.2-4.1l-5.2-5.3c-1.1,1-2.2,1.8-3.3,2.4c-1.1,0.6-2.4,0.9-3.9,0.9c-1.2,0-2.3-0.2-3.3-0.7c-1-0.4-1.8-1.1-2.5-1.8
		c-0.7-0.8-1.2-1.7-1.6-2.8c-0.4-1.1-0.6-2.2-0.6-3.4v-0.1c0-1.2,0.2-2.3,0.6-3.3c0.4-1,0.9-1.9,1.6-2.7c0.7-0.8,1.5-1.4,2.4-1.9
		c0.9-0.5,1.9-0.7,3.1-0.7c1.6,0,2.9,0.3,4,0.9c1.1,0.6,2.1,1.5,3.1,2.5l5.5-5.9c-1.5-1.6-3.2-2.9-5.2-3.9c-2-0.9-4.4-1.4-7.4-1.4
		c-2.4,0-4.7,0.4-6.7,1.3c-2,0.9-3.8,2-5.2,3.5c-1.4,1.5-2.6,3.2-3.4,5.2c-0.8,2-1.2,4.1-1.2,6.3v0.1c0,2.2,0.4,4.3,1.2,6.3
		c0.8,2,2,3.7,3.4,5.2c1.4,1.5,3.2,2.6,5.2,3.5c2,0.9,4.2,1.3,6.5,1.3C94.2,542.8,96.8,542.3,98.7,541.2L98.7,541.2z M109.8,542.1
		h8.9v-9.6l3.1-3.3l8.2,12.9h10.2L127.9,523l12-12.4h-10.7l-10.5,11.5v-22.8h-8.9V542.1L109.8,542.1z M158,534.5
		c-0.9-0.4-1.7-1-2.4-1.8c-0.7-0.8-1.2-1.7-1.6-2.8c-0.4-1.1-0.6-2.3-0.6-3.6v-0.1c0-1.3,0.2-2.5,0.6-3.6c0.4-1.1,1-2,1.6-2.8
		c0.7-0.8,1.5-1.4,2.4-1.8c0.9-0.4,1.9-0.6,3-0.6c1.1,0,2,0.2,3,0.6c0.9,0.4,1.7,1,2.4,1.8c0.7,0.8,1.3,1.7,1.7,2.8
		c0.4,1.1,0.6,2.3,0.6,3.6v0.1c0,1.3-0.2,2.5-0.6,3.6c-0.4,1.1-1,2-1.7,2.7c-0.7,0.8-1.5,1.3-2.4,1.8c-0.9,0.4-1.9,0.6-3,0.6
		C159.9,535.1,158.9,534.9,158,534.5L158,534.5z M144.5,551.5h8.9V538c1.1,1.3,2.4,2.3,3.9,3.3c1.5,0.9,3.5,1.4,5.9,1.4
		c1.9,0,3.7-0.4,5.4-1.1c1.7-0.7,3.2-1.8,4.6-3.1c1.3-1.4,2.4-3.1,3.2-5.1c0.8-2,1.2-4.3,1.2-7v-0.1c0-2.6-0.4-4.9-1.2-7
		c-0.8-2-1.9-3.7-3.2-5.1c-1.3-1.4-2.9-2.4-4.6-3.1c-1.7-0.7-3.5-1.1-5.3-1.1c-2.3,0-4.3,0.5-5.8,1.4c-1.5,1-2.9,2.2-4,3.7v-4.5
		h-8.9V551.5L144.5,551.5z M184.6,542.1h8.9v-42.9h-8.9V542.1L184.6,542.1z M210,535.5c-0.9-0.7-1.4-1.6-1.4-2.8v-0.1
		c0-1.4,0.5-2.5,1.6-3.2c1.1-0.7,2.6-1.1,4.5-1.1c1.1,0,2.1,0.1,3.1,0.3c1,0.2,1.8,0.5,2.6,0.9v1.6c0,1.6-0.6,3-1.9,4
		c-1.3,1-3,1.5-5.1,1.5C212.1,536.5,210.9,536.2,210,535.5L210,535.5z M216.4,541.6c1.5-0.7,2.8-1.7,3.9-2.9v3.4h8.6v-18.3
		c0-2.1-0.3-4-0.8-5.7s-1.4-3.1-2.6-4.3c-1.1-1.1-2.6-2-4.3-2.6c-1.7-0.6-3.8-0.9-6.3-0.9c-2.7,0-4.9,0.2-6.8,0.7
		c-1.9,0.5-3.7,1.1-5.4,1.8l2.2,6.8c1.4-0.5,2.8-1,4.1-1.3c1.3-0.3,2.8-0.4,4.6-0.4c2.2,0,3.9,0.5,5.1,1.5c1.1,1,1.7,2.4,1.7,4.3
		v0.5c-1.1-0.4-2.3-0.7-3.5-0.9c-1.2-0.2-2.6-0.4-4.2-0.4c-1.9,0-3.6,0.2-5.1,0.6c-1.5,0.4-2.9,1-4,1.8c-1.1,0.8-2,1.9-2.6,3.1
		c-0.6,1.3-0.9,2.7-0.9,4.5v0.1c0,1.6,0.3,2.9,0.9,4.1c0.6,1.2,1.3,2.2,2.3,3c1,0.8,2.1,1.4,3.4,1.9c1.3,0.4,2.7,0.6,4.2,0.6
		C213,542.7,214.9,542.3,216.4,541.6L216.4,541.6z M236.7,542.1h8.9v-17.5c0-2.1,0.5-3.7,1.5-4.8c1-1.1,2.4-1.6,4.1-1.6
		c1.7,0,3.1,0.5,4,1.6c0.9,1.1,1.4,2.7,1.4,4.8v17.5h8.9v-20.4c0-3.6-0.9-6.5-2.8-8.6c-1.9-2.1-4.5-3.1-7.9-3.1
		c-1.1,0-2.2,0.1-3.1,0.4c-0.9,0.3-1.7,0.7-2.5,1.1c-0.7,0.5-1.4,1-2,1.6c-0.6,0.6-1.2,1.3-1.7,1.9v-4.5h-8.9V542.1L236.7,542.1z
		 M280.5,523.9c0.4-2,1.1-3.7,2.3-4.9c1.2-1.2,2.7-1.8,4.6-1.8c1.9,0,3.4,0.6,4.5,1.9c1.1,1.2,1.8,2.8,2.1,4.8H280.5L280.5,523.9z
		 M295.7,541.3c2.1-1,3.9-2.5,5.4-4.3l-5.1-4.5c-1.3,1.1-2.5,2-3.6,2.5c-1.2,0.5-2.5,0.8-4,0.8c-2,0-3.7-0.5-5-1.6
		c-1.4-1-2.2-2.6-2.7-4.6h21.9c0-0.4,0.1-0.8,0.1-1.2c0-0.4,0-0.8,0-1.1c0-2.2-0.3-4.4-0.9-6.4c-0.6-2.1-1.5-3.9-2.8-5.5
		c-1.3-1.6-2.9-2.8-4.8-3.8c-1.9-0.9-4.2-1.4-6.8-1.4c-2.3,0-4.4,0.4-6.3,1.3c-1.9,0.9-3.5,2-4.9,3.5c-1.4,1.5-2.4,3.2-3.2,5.2
		c-0.8,2-1.1,4.1-1.1,6.3v0.1c0,2.4,0.4,4.6,1.2,6.6c0.8,2,2,3.7,3.4,5.1c1.5,1.4,3.2,2.6,5.2,3.3c2,0.8,4.2,1.2,6.5,1.2
		C291.1,542.8,293.5,542.3,295.7,541.3L295.7,541.3z"/>
	<path d="M413.1,417.1c18.8,0,30.4-11.7,30.4-27.6v-0.2c0-15.7-11.2-21.7-22.7-23.7l21.4-20.4v-14h-57.1V347h33.2l-20.2,20.3
		l2.9,11.8h7.7c10.4,0,16.5,3.9,16.5,10.7v0.2c0,6.3-4.9,10.3-12,10.3c-8.6,0-14.6-3.6-20.4-10.1l-12.8,12.2
		C387.4,411,397.9,417.1,413.1,417.1L413.1,417.1z"/>
	<path d="M0,459.6h22v-51.4h63.7v-20H22v-34.8h71.8v-20H0V459.6L0,459.6z M140.4,439.6v-86.2h24.9c6.6,0,12.6,1.1,18,3.3
		c5.4,2.2,10,5.2,13.8,9c3.8,3.8,6.7,8.4,8.8,13.7c2.1,5.3,3.2,11.1,3.2,17.2v0.4c0,6.2-1.1,11.9-3.2,17.1
		c-2.1,5.3-5.1,9.8-8.8,13.6c-3.8,3.8-8.4,6.8-13.8,8.9c-5.4,2.1-11.4,3.2-18,3.2H140.4L140.4,439.6z M118.4,459.6h47.1
		c9.9,0,18.9-1.6,27.2-4.9c8.2-3.2,15.3-7.7,21.3-13.4c6-5.7,10.6-12.3,13.8-20c3.2-7.7,4.9-16,4.9-24.9v-0.4
		c0-8.9-1.6-17.2-4.9-24.8c-3.2-7.6-7.8-14.3-13.8-19.9c-6-5.7-13.1-10.1-21.3-13.3c-8.2-3.2-17.3-4.8-27.2-4.8h-47.1V459.6
		L118.4,459.6z M334.4,460.2c4.9-1,9.4-2.5,13.4-4.5c4.1-2,7.9-4.3,11.5-7c3.5-2.7,6.9-5.8,10.2-9.3l-14.3-14.4
		c-5.4,5.1-10.9,9.1-16.4,12c-5.5,2.9-12.1,4.4-19.8,4.4c-6,0-11.6-1.2-16.7-3.5c-5.1-2.3-9.5-5.6-13.3-9.7
		c-3.7-4.1-6.6-8.9-8.7-14.3c-2-5.5-3.1-11.3-3.1-17.4v-0.4c0-6.1,1-11.9,3.1-17.3c2-5.4,4.9-10.1,8.7-14.2c3.7-4,8.1-7.2,13.3-9.6
		c5.1-2.3,10.7-3.5,16.7-3.5c7.2,0,13.6,1.4,19.3,4.3c5.7,2.9,11,6.7,16.1,11.4l14.3-16.4c-3-2.9-6.2-5.5-9.6-7.9
		c-3.4-2.4-7-4.5-11-6.2c-4-1.7-8.3-3.1-13.1-4.1c-4.8-1-10-1.4-15.8-1.4c-9.6,0-18.4,1.7-26.3,5.1c-7.9,3.4-14.8,8.1-20.6,14.1
		c-5.8,6-10.3,12.9-13.5,20.7c-3.2,7.9-4.8,16.3-4.8,25.3v0.4c0,9,1.6,17.5,4.9,25.4c3.3,7.9,7.8,14.8,13.5,20.7
		c5.7,5.8,12.5,10.4,20.3,13.8c7.8,3.4,16.4,5.1,25.6,5.1C324.1,461.7,329.5,461.2,334.4,460.2L334.4,460.2z"/>
	<path class="st1" d="M202.8,333.3"/>
	<path class="st2" d="M249.9,212.2V75.7l-110.1,63.6c0.1,0.6,0.3,1.1,0.3,1.7c0,6.8-4.6,12.4-10.8,14.3v126.6L249.9,212.2
		L249.9,212.2z"/>
	<path class="st0" d="M136.8,131.8l108.6-62.7v-0.3L125,0L4.6,68.8v0.3l108.6,62.7c2.8-3.6,6.9-6.1,11.8-6.1
		C129.8,125.8,134,128.2,136.8,131.8L136.8,131.8z"/>
	<path d="M110.1,139.3L0,75.7v136.5l120.6,69.6V155.2c-6.2-1.9-10.8-7.5-10.8-14.3C109.8,140.3,110.1,139.8,110.1,139.3L110.1,139.3
		z"/>
</g>
</svg>
