<?xml version="1.0" encoding="utf-8"?>
<!-- Generator: Adobe Illustrator 23.0.2, SVG Export Plug-In . SVG Version: 6.00 Build 0)  -->
<svg version="1.1" id="Layer_1" xmlns="http://www.w3.org/2000/svg" xmlns:xlink="http://www.w3.org/1999/xlink" x="0px" y="0px"
	 viewBox="0 0 400 245" style="enable-background:new 0 0 400 245;" xml:space="preserve">
<style type="text/css">
	.st0{fill-rule:evenodd;clip-rule:evenodd;fill:#EC1C24;}
	.st1{fill-rule:evenodd;clip-rule:evenodd;fill:#231F20;}
	.st2{fill:#434343;}
	.st3{fill:#898989;}
	.st4{fill:url(#SVGID_1_);}
	.st5{fill:url(#SVGID_2_);}
	.st6{fill:#B36E01;}
	.st7{fill:url(#SVGID_3_);}
	.st8{fill:url(#SVGID_4_);}
	.st9{fill:url(#SVGID_5_);}
	.st10{fill:#FAF8D5;}
	.st11{fill:#313130;}
	.st12{fill:#86C440;stroke:#58B847;stroke-width:1.5531;stroke-miterlimit:10;}
	.st13{fill:#D1DD26;}
	.st14{fill:#352E29;}
	.st15{fill:#86C440;stroke:#58B847;stroke-width:0.6761;}
	.st16{fill:#231916;}
	.st17{fill:#E50013;}
	.st18{fill:#3E608B;}
	.st19{fill:#6E9C3A;}
	.st20{fill:#3693C3;}
	.st21{fill:#0B8B5D;}
	.st22{fill:#E1903D;}
	.st23{fill:#58749B;}
	.st24{fill:#0066A4;}
	.st25{fill:#402210;}
	.st26{clip-path:url(#SVGID_7_);fill:url(#SVGID_8_);}
	.st27{fill:#FFFFFF;}
	.st28{fill:#6A2811;}
	.st29{fill:#1EBAD6;}
	.st30{fill:#161629;}
	.st31{fill:#C0C0C8;}
	.st32{opacity:0.9;}
	.st33{fill-rule:evenodd;clip-rule:evenodd;fill:#295C82;}
	.st34{fill-rule:evenodd;clip-rule:evenodd;fill:#193A53;}
	.st35{fill-rule:evenodd;clip-rule:evenodd;fill:url(#SVGID_9_);}
	.st36{fill-rule:evenodd;clip-rule:evenodd;fill:url(#SVGID_10_);}
	.st37{fill-rule:evenodd;clip-rule:evenodd;fill:url(#SVGID_11_);}
	.st38{fill-rule:evenodd;clip-rule:evenodd;fill:url(#SVGID_12_);}
	.st39{fill-rule:evenodd;clip-rule:evenodd;fill:url(#SVGID_13_);}
	.st40{fill:#EC1C24;}
	.st41{fill:#231F20;}
	.st42{fill-rule:evenodd;clip-rule:evenodd;fill:#ED1C24;}
	.st43{fill-rule:evenodd;clip-rule:evenodd;fill:#C3C1C4;}
	.st44{fill:#ED1C24;}
	.st45{fill:#E11F26;}
	.st46{fill:#CECDCF;}
	.st47{fill:#19171B;}
	.st48{fill:#E49C23;}
	.st49{fill:#3E3A39;}
	.st50{enable-background:new    ;}
	.st51{fill:#EB6224;}
	.st52{fill:#4D4E4E;}
	.st53{fill:#217CB9;}
	.st54{fill:#58595B;}
	.st55{fill:#B38634;}
	.st56{fill:#A7A9AC;}
	.st57{fill:#A89A75;}
	.st58{fill:#2ED8CB;}
	.st59{fill:none;}
	.st60{fill:#65B1B8;}
	.st61{fill:#61D8D3;}
	.st62{fill:#79E0FA;}
	.st63{fill:#666766;}
	.st64{fill:url(#SVGID_14_);}
	.st65{fill:url(#SVGID_15_);}
	.st66{fill:url(#SVGID_16_);}
	.st67{fill:url(#SVGID_17_);}
	.st68{fill:url(#SVGID_18_);}
	.st69{fill:url(#SVGID_19_);}
	.st70{fill:url(#SVGID_20_);}
	.st71{fill:url(#SVGID_21_);}
	.st72{fill:url(#SVGID_22_);}
	.st73{fill:url(#SVGID_23_);}
	.st74{fill:url(#SVGID_24_);}
	.st75{fill:url(#SVGID_25_);}
	.st76{fill:url(#SVGID_26_);}
	.st77{fill:url(#SVGID_27_);}
	.st78{opacity:0.79;fill:#A3A5A8;enable-background:new    ;}
	.st79{fill:#86888B;}
	.st80{fill:#D2232A;}
	.st81{fill:#00478A;}
	.st82{fill:#009FE8;}
	.st83{fill:#005BAB;}
	.st84{fill-rule:evenodd;clip-rule:evenodd;fill:none;}
	.st85{fill-rule:evenodd;clip-rule:evenodd;}
	.st86{fill:#FF9900;}
	.st87{fill:#666666;}
</style>
<g>
	<g>
		<path id="Wordmark" class="st54" d="M89.35,153.64h4.37v24.45l-19.96-27.3h-9.97v2.85h4.12l1.36,1.94v30.9h-4.36v2.87h12.32v-2.87
			H72.9v-25.98l21.43,29.5h2.99v-36.35h4.3v-2.85H89.35V153.64z M42.87,186.03h-4.94v-15.02h4.94c5.14,0,8.46,3.06,8.46,7.81
			C51.33,184.13,46.79,186.03,42.87,186.03 M37.93,154.16h4.73c2.51,0,6.71,0.86,6.71,6.61c0,4.77-3.53,6.92-7.02,6.92h-4.42V154.16
			z M49.03,168.99c3.66-1.04,7.08-3.89,7.08-8.45c0-5.92-4.4-9.75-11.22-9.75h-17.7v2.85h4.29v32.82h-4.29v2.88H45.9
			c7.22,0,12.04-4.11,12.04-10.23C57.94,173.06,53.59,169.99,49.03,168.99 M127.92,153.64h4.93l-8.29,13.67l-8.9-13.67h4.47v-2.85
			h-15.57v2.85h3.47l11.73,18.03v14.79h-4.29v2.88h15.04v-2.88h-4.35v-15.13l10.84-17.69h3.12v-2.85h-12.2V153.64z M310.49,186.03
			h-12.71v-32.39h4.29v-2.85h-15.04v2.85h4.32v32.82h-4.32v2.88h26.82v-8.37h-3.36V186.03z M277.45,186.03h-12.68v-32.39h4.31v-2.85
			h-15.06v2.85h4.31v32.82h-4.31v2.88h26.82v-8.37h-3.38V186.03z M186,178.51l-12.98-27.71h-10.76v2.85h4.35v32.82h-4.35v2.88h12.31
			v-2.88h-4.35v-26.74l14.38,30.72l13.65-30.05v26.07h-4.29v2.88H209v-2.88h-4.31v-32.82H209v-2.85h-10.23L186,178.51z
			 M336.94,186.36c-7.15,0-12.13-6.7-12.13-16.29c0-9.57,5.03-16.24,12.2-16.24c7.01,0,11.91,6.67,11.91,16.24
			C348.92,179.65,344,186.36,336.94,186.36 M336.94,150.1c-10.58,0-19.2,8.98-19.2,20.03c0,11,8.62,19.96,19.2,19.96
			c10.51,0,19.05-8.98,19.05-20.02C355.98,159.05,347.45,150.1,336.94,150.1 M386.6,150.79v2.85h4.35v24.45l-19.94-27.3h-10v2.85
			h4.14l1.37,1.94v30.89h-4.35v2.88h12.31v-2.88h-4.36v-25.97l21.43,29.5h3.01v-36.35h4.3v-2.85H386.6z M241.29,186.03h-13.35
			v-14.62h10.08v4.39h3.38v-12.05h-3.38v4.34h-10.08v-13.93h12.83v4.88h3.32v-9.86h-3.38v1.62H217.2v2.85h4.29v32.82h-4.29v2.88
			h27.47v-8.37h-3.38V186.03z"/>
		<g id="Icon">
			<path class="st55" d="M99.55,93.04l-47.2-18.46c-10.14,5.55-18.44,11.97-25.16,18.46c6.73,6.47,15.02,12.89,25.16,18.45
				L99.55,93.04z"/>
			<path class="st56" d="M1.14,54.56c0,0,5,16.25,21.4,33.74c7.27-5.59,16.04-10.68,26.45-15.04L1.14,54.56z"/>
			<path class="st57" d="M1.14,131.52c0,0,5-16.24,21.4-33.74c7.27,5.59,16.04,10.67,26.45,15.04L1.14,131.52z"/>
		</g>
	</g>
</g>
</svg>
