<?xml version="1.0" encoding="utf-8"?>
<!-- Generator: Adobe Illustrator 25.0.0, SVG Export Plug-In . SVG Version: 6.00 Build 0)  -->
<svg version="1.1" id="Layer_1" xmlns="http://www.w3.org/2000/svg" xmlns:xlink="http://www.w3.org/1999/xlink" x="0px" y="0px"
	 viewBox="0 0 724.3 162.4" style="enable-background:new 0 0 724.3 162.4;" xml:space="preserve">
<style type="text/css">
	.st0{fill:#000029;}
	.st1{fill:#008FFF;}
</style>
<g>
	<path class="st0" d="M37.5,80.8C23.2,80.8,11,76.2,0,69.3L6.8,59c11,7,21.1,10.4,32.4,10.4c13.3,0,19.5-5.1,19.5-11.1
		c0-17.2-56.1-6.9-56.1-34.4C2.6,10.5,16,0,37.5,0C52,0,64.6,5.4,72,12.8l-8.4,8.6c-6.3-5.6-16.1-10-26.3-10
		c-12.6,0-21.1,4.5-21.1,11c0,16,56.2,7.5,56.2,34.5C72.4,71.2,58,80.8,37.5,80.8L37.5,80.8z M127.4,47.8v30.3h-13.6V47.7l-34-45.1
		h15.9l25.5,34.9l24.1-34.9H161L127.4,47.8L127.4,47.8z M255.9,78.1V18.9l-3.7,8l-26.8,51.1h-8.2L190.8,27l-3.7-8v59.2h-13V2.6H193
		l25.4,50.8l3.5,7.7l3.5-7.7l25.1-50.8h18.7v75.5H255.9L255.9,78.1z M343.1,25.1c0-6.2-4.2-10.9-14.5-10.9h-25.1v24.4h25.6
		c10.3,0,13.9-5,13.9-11.1V25.1L343.1,25.1z M327.1,49.7h-23.6v28.5H290V2.6h37.2c20.6,0,29.7,9.3,29.7,22.4v2
		C356.9,40.2,347.8,49.7,327.1,49.7L327.1,49.7z M431,78.1V45.6h-45.5v32.5h-13.6V2.6h13.6v32H431v-32h13.6v75.5H431L431,78.1z
		 M526.7,35.7c0-12.9-9-24-25.5-24c-16.6,0-25.4,11.1-25.4,24v9.2c0,12.9,8.8,24.3,25.4,24.3c16.5,0,25.5-11.3,25.5-24.3V35.7
		L526.7,35.7z M501.2,80.8c-24.3,0-39.1-17.2-39.1-35.7v-9.4C462.1,16.9,477,0,501.2,0c24.4,0,39.2,16.9,39.2,35.7v9.4
		C540.4,63.6,525.6,80.8,501.2,80.8L501.2,80.8z M619,78.1l-42.3-47.7l-5.4-7v54.8h-13.5V2.6h12.6l40.9,47.8l5.6,7V2.6h13.4v75.5
		H619L619,78.1z M690.8,47.8v30.3h-13.6V47.7l-34-45.1H659l25.5,34.9l24.1-34.9h15.6L690.8,47.8L690.8,47.8z"/>
	<path class="st1" d="M26.4,162.4c8.7,0,13.8-3.1,18.4-8l-6.3-6.4c-3.5,3.2-6.7,5.3-11.8,5.3c-7.7,0-13-6.4-13-14.1v-0.1
		c0-7.7,5.5-14,13-14c4.5,0,8,1.9,11.5,5.1l6.3-7.2c-4.2-4.1-9.2-6.9-17.7-6.9C13,116,3.4,126.4,3.4,139.2v0.1
		C3.4,152.2,13.2,162.4,26.4,162.4L26.4,162.4z M48.9,161.7H59l4.1-10.1h19l4.1,10.1h10.3l-19.2-45.2h-9.1L48.9,161.7L48.9,161.7z
		 M66.6,142.9l6-14.6l6,14.6H66.6L66.6,142.9z M103.4,161.7h9.7v-28.5l21.8,28.5h8.4v-44.9h-9.7v27.6l-21-27.6h-9.1V161.7
		L103.4,161.7z M175.9,162.4c13.9,0,23.9-10.4,23.9-23.2v-0.1c0-12.8-9.9-23.1-23.8-23.1c-13.9,0-23.9,10.4-23.9,23.2v0.1
		C152.1,152.1,162,162.4,175.9,162.4L175.9,162.4z M176,153.3c-8,0-13.6-6.4-13.6-14.1v-0.1c0-7.7,5.5-14,13.5-14
		c8,0,13.6,6.4,13.6,14.1v0.1C189.5,147,184,153.3,176,153.3L176,153.3z M208.6,161.7h9.7v-28.5l21.8,28.5h8.4v-44.9h-9.7v27.6
		l-21.1-27.6h-9.1V161.7L208.6,161.7z"/>
</g>
</svg>
