<?xml version="1.0" encoding="utf-8"?>
<!-- Generator: Adobe Illustrator 25.4.1, SVG Export Plug-In . SVG Version: 6.00 Build 0)  -->
<svg version="1.1" id="Layer_1" xmlns="http://www.w3.org/2000/svg" xmlns:xlink="http://www.w3.org/1999/xlink" x="0px" y="0px"
	 viewBox="0 0 78.1 94" style="enable-background:new 0 0 78.1 94;" xml:space="preserve">
<style type="text/css">
	.st0{fill:#1FA3C2;}
	.st1{fill:#B9181E;}
	.st2{fill:#32B5D2;}
</style>
<g>
	<path class="st0" d="M52.4,67.3l-12,8.4c-0.8,0.6-1.9,0.6-2.7,0l-12-8.4C14.7,59.5,8.1,46.9,8.1,33.4V15.9c0-3.5,2.3-6.7,5.6-7.9
		l21.7-7.5c2.4-0.8,4.9-0.8,7.3,0l21.7,7.5c3.4,1.2,5.6,4.3,5.6,7.9v17.5C70,46.9,63.5,59.5,52.4,67.3z"/>
	<g>
		<path class="st1" d="M0,86.9c0-4.2,3.2-7.2,7.5-7.2c2.4,0,4.4,0.9,5.7,2.5L11.2,84c-0.9-1.1-2.1-1.6-3.5-1.6
			c-2.6,0-4.4,1.8-4.4,4.4c0,2.6,1.8,4.4,4.4,4.4c1.4,0,2.6-0.6,3.5-1.6l2.1,1.9C11.9,93.1,9.9,94,7.5,94C3.2,94,0,91,0,86.9z"/>
		<path class="st1" d="M24.5,87.7v6.1h-2.9v-1.3c-0.6,1-1.7,1.5-3.2,1.5c-2.5,0-4-1.4-4-3.2c0-1.9,1.3-3.2,4.6-3.2h2.5
			c0-1.3-0.8-2.1-2.5-2.1c-1.1,0-2.3,0.4-3.1,1l-1.1-2.2c1.2-0.8,2.9-1.3,4.6-1.3C22.6,83,24.5,84.5,24.5,87.7z M21.4,90.4v-1.1
			h-2.1c-1.4,0-1.9,0.5-1.9,1.2c0,0.8,0.7,1.3,1.7,1.3C20.2,91.9,21.1,91.4,21.4,90.4z"/>
		<path class="st1" d="M34.2,93.3c-0.6,0.5-1.6,0.7-2.5,0.7c-2.5,0-4-1.3-4-3.8v-4.4H26v-2.4h1.6v-2.6h3.1v2.6h2.7v2.4h-2.7v4.3
			c0,0.9,0.5,1.4,1.3,1.4c0.5,0,0.9-0.1,1.2-0.4L34.2,93.3z"/>
		<path class="st1" d="M34.8,88.5c0-3.2,2.5-5.5,5.9-5.5c2.2,0,4,1,4.8,2.7L43.1,87c-0.6-1-1.4-1.5-2.4-1.5c-1.6,0-2.8,1.1-2.8,3
			c0,1.9,1.2,3,2.8,3c1,0,1.8-0.4,2.4-1.5l2.4,1.3c-0.8,1.7-2.5,2.7-4.8,2.7C37.3,93.9,34.8,91.7,34.8,88.5z"/>
		<path class="st1" d="M58.1,87.7v6.1H55v-5.6c0-1.7-0.8-2.5-2.2-2.5c-1.5,0-2.6,0.9-2.6,2.9v5.3h-3.1V79.1h3.1v5.1
			c0.8-0.8,2-1.3,3.4-1.3C56.2,83,58.1,84.4,58.1,87.7z"/>
		<path class="st1" d="M61.1,79.9h3.2v13.9h-3.2V79.9z"/>
		<path class="st1" d="M70.5,82.5H66v-2.6h12.1v2.6h-4.4v11.2h-3.2V82.5z"/>
	</g>
	<path class="st2" d="M49.5,59.6l-9.3,6.6c-0.6,0.4-1.5,0.4-2.1,0l-9.3-6.6C20,53.6,14.9,43.7,14.9,33.2V19.5c0-2.8,1.8-5.2,4.4-6.1
		l16.9-5.8c1.8-0.6,3.8-0.6,5.7,0l16.9,5.8c2.6,0.9,4.4,3.4,4.4,6.1v13.7C63.2,43.7,58.1,53.6,49.5,59.6z"/>
	<path class="st1" d="M54.7,24L54.7,24c-1.3-1.2-3.2-1.1-4.4,0.2L35.6,39.8l-7.8-8.3c-1.2-1.3-3.2-1.3-4.4-0.2s-1.3,3.2-0.2,4.4
		l10,10.8c0.3,0.4,0.8,0.6,1.2,0.8c0,0,0,0,0.1,0c0.2,0.1,0.3,0.1,0.5,0.1c0.1,0,0.1,0,0.2,0c0.1,0,0.2,0,0.3,0c0.1,0,0.2,0,0.3,0
		c0.1,0,0.1,0,0.2,0c0.2,0,0.3-0.1,0.5-0.1c0,0,0,0,0.1,0c0.4-0.2,0.9-0.4,1.2-0.8l16.9-18.1C56,27.1,55.9,25.1,54.7,24z"/>
</g>
</svg>
