<?xml version="1.0" encoding="utf-8"?>
<!-- Generator: Adobe Illustrator 28.0.0, SVG Export Plug-In . SVG Version: 6.00 Build 0)  -->
<svg version="1.1" id="Layer_1" xmlns="http://www.w3.org/2000/svg" xmlns:xlink="http://www.w3.org/1999/xlink" x="0px" y="0px"
	 viewBox="0 0 492.4 539.3" style="enable-background:new 0 0 492.4 539.3;" xml:space="preserve">
<style type="text/css">
	.st0{fill:#0586BF;}
	.st1{fill:#00BCE7;}
	.st2{clip-path:url(#SVGID_00000127723530954249311360000017790228612899471544_);}
	.st3{clip-path:url(#SVGID_00000099661520165384830930000009306821689087205553_);}
	.st4{clip-path:url(#SVGID_00000094585058715784216390000007844903942787627163_);}
	.st5{clip-path:url(#SVGID_00000142176788160310730370000003912476761157383866_);}
	.st6{clip-path:url(#SVGID_00000064330962836628689260000008078244802493570992_);}
	.st7{clip-path:url(#SVGID_00000121253112003704610500000012445058577611429035_);}
</style>
<polygon class="st0" points="5.8,246.9 44,246.9 44,257 16.8,257 16.8,267.6 40.7,267.6 40.7,277.7 16.8,277.7 16.8,297.1 
	5.8,297.1 5.8,246.9 "/>
<polygon class="st0" points="53.8,246.9 64.9,246.9 64.9,297.1 53.8,297.1 53.8,246.9 "/>
<polygon class="st0" points="77.4,246.9 87.6,246.9 111.1,277.8 111.1,246.9 121.9,246.9 121.9,297.1 112.6,297.1 88.3,265.2 
	88.3,297.1 77.4,297.1 77.4,246.9 "/>
<path class="st0" d="M131.4,272.1V272c0-14.3,11.3-25.9,26.7-25.9s26.6,11.5,26.6,25.9v0.1c0,14.3-11.3,25.9-26.7,25.9
	S131.4,286.4,131.4,272.1L131.4,272.1z M173.2,272.1V272c0.3-8.4-6.3-15.5-14.7-15.8c-0.2,0-0.3,0-0.5,0c-8.9,0-15,7-15,15.6v0.1
	c-0.3,8.4,6.3,15.5,14.7,15.8c0.2,0,0.4,0,0.6,0C167,287.8,173.2,280.7,173.2,272.1L173.2,272.1z"/>
<path class="st0" d="M190.4,289.8l6.5-7.8c4.1,3.8,9.4,5.9,15,6.1c4.5,0,7.2-1.7,7.2-4.7v-0.1c0-2.8-1.7-4.2-10.1-6.4
	c-10.1-2.6-16.6-5.4-16.6-15.3v-0.1c0-9.1,7.3-15.1,17.6-15.1c6.8-0.1,13.4,2.1,18.6,6.4l-5.7,8.3c-4.5-3.1-8.8-5-13-5
	c-4.2,0-6.5,1.9-6.5,4.4v0.1c0,3.3,2.2,4.4,10.8,6.6c10.2,2.7,15.9,6.3,15.9,15v0.1c0,10-7.6,15.5-18.4,15.5
	C203.9,297.8,196.3,295,190.4,289.8L190.4,289.8z"/>
<path class="st1" d="M39.2,538.2c2.6-0.7,5-1.6,7.1-2.8c2.1-1.2,4-2.6,5.6-4.2c1.7-1.6,3.2-3.4,4.6-5.3l-12.3-8.8
	c-0.9,1.1-1.8,2-2.7,2.9c-0.9,0.9-1.9,1.6-2.9,2.3c-1,0.6-2.2,1.1-3.5,1.5c-1.3,0.3-2.7,0.5-4.2,0.5c-2.1,0-4-0.4-5.7-1.2
	c-1.7-0.8-3.2-1.9-4.4-3.3c-1.2-1.4-2.2-3.1-2.9-5c-0.7-1.9-1.1-4-1.1-6.2v-0.2c0-2.1,0.3-4.2,1.1-6.1c0.7-1.9,1.7-3.6,2.9-5
	c1.2-1.4,2.7-2.5,4.4-3.3c1.7-0.8,3.6-1.2,5.7-1.2c2.9,0,5.3,0.6,7.3,1.9s3.9,2.9,5.6,5l12.3-9.5c-1.3-1.8-2.8-3.5-4.4-5
	c-1.7-1.5-3.5-2.8-5.6-3.9c-2-1.1-4.3-1.9-6.8-2.5c-2.5-0.6-5.2-0.9-8.2-0.9c-4.5,0-8.6,0.8-12.4,2.4c-3.8,1.6-7.1,3.7-9.8,6.5
	c-2.7,2.8-4.9,6-6.5,9.8c-1.6,3.7-2.4,7.7-2.4,12v0.2c0,4.4,0.8,8.4,2.4,12.2c1.6,3.7,3.8,7,6.5,9.7c2.7,2.7,5.9,4.8,9.6,6.4
	c3.7,1.5,7.7,2.3,11.9,2.3C33.6,539.3,36.6,538.9,39.2,538.2L39.2,538.2z M88.2,523.2c-1.9-0.9-3.4-2-4.8-3.5
	c-1.3-1.5-2.4-3.1-3.1-5c-0.7-1.9-1.1-3.9-1.1-6.1v-0.2c0-2.1,0.4-4.2,1.1-6.1c0.7-1.9,1.7-3.6,3-5c1.3-1.4,2.9-2.6,4.7-3.4
	c1.8-0.8,3.9-1.3,6.1-1.3c2.2,0,4.3,0.4,6.2,1.3c1.9,0.9,3.5,2,4.8,3.5c1.3,1.5,2.4,3.1,3.1,5c0.7,1.9,1.1,3.9,1.1,6.1v0.2
	c0,2.1-0.4,4.2-1.1,6.1c-0.7,1.9-1.7,3.6-3,5c-1.3,1.4-2.9,2.6-4.7,3.4c-1.9,0.8-3.9,1.3-6.2,1.3C92.1,524.5,90.1,524.1,88.2,523.2
	L88.2,523.2z M106.9,536.9c3.9-1.6,7.2-3.8,10.1-6.6c2.9-2.8,5.1-6,6.7-9.8c1.6-3.7,2.4-7.7,2.4-11.9v-0.2c0-4.2-0.8-8.2-2.4-11.9
	c-1.6-3.7-3.8-6.9-6.6-9.7c-2.8-2.7-6.1-4.9-10-6.5c-3.9-1.6-8.1-2.4-12.6-2.4s-8.8,0.8-12.6,2.4c-3.9,1.6-7.2,3.8-10.1,6.6
	c-2.9,2.8-5.1,6-6.7,9.8c-1.6,3.7-2.4,7.7-2.4,11.9v0.2c0,4.2,0.8,8.2,2.4,11.9c1.6,3.7,3.8,6.9,6.6,9.7c2.8,2.7,6.1,4.9,10,6.5
	c3.9,1.6,8.1,2.4,12.6,2.4C98.8,539.3,103,538.5,106.9,536.9L106.9,536.9z M135.7,538.1h16.1v-32.3l25.2,32.3h14.3v-58.9h-16.1v31.1
	L151,479.2h-15.3V538.1L135.7,538.1z M217.4,538.1h16.3v-44.6h17.7v-14.3h-51.7v14.3h17.7V538.1L217.4,538.1z M276,507.4v-14.1h10.7
	c2.7,0,4.9,0.6,6.5,1.7c1.6,1.2,2.4,2.9,2.4,5.3v0.2c0,2.1-0.8,3.8-2.3,5.1c-1.5,1.3-3.7,1.9-6.5,1.9H276L276,507.4z M259.7,538.1
	H276v-17.8h7h0.2l11.9,17.8h18.8l-14.1-20.5c3.7-1.6,6.6-3.8,8.8-6.8c2.2-3,3.3-6.7,3.3-11.3v-0.2c0-5.8-1.7-10.4-5.2-13.7
	c-2-2-4.5-3.6-7.7-4.7c-3.1-1.1-7-1.7-11.5-1.7h-27.9V538.1L259.7,538.1z M344.9,523.2c-1.9-0.9-3.4-2-4.8-3.5
	c-1.3-1.5-2.4-3.1-3.1-5c-0.7-1.9-1.1-3.9-1.1-6.1v-0.2c0-2.1,0.4-4.2,1.1-6.1c0.7-1.9,1.7-3.6,3-5c1.3-1.4,2.9-2.6,4.7-3.4
	c1.8-0.8,3.9-1.3,6.1-1.3c2.2,0,4.3,0.4,6.2,1.3c1.9,0.9,3.5,2,4.8,3.5c1.3,1.5,2.4,3.1,3.1,5c0.7,1.9,1.1,3.9,1.1,6.1v0.2
	c0,2.1-0.4,4.2-1.1,6.1c-0.7,1.9-1.7,3.6-3,5c-1.3,1.4-2.9,2.6-4.7,3.4c-1.9,0.8-3.9,1.3-6.2,1.3
	C348.9,524.5,346.8,524.1,344.9,523.2L344.9,523.2z M363.6,536.9c3.9-1.6,7.2-3.8,10.1-6.6c2.9-2.8,5.1-6,6.7-9.8
	c1.6-3.7,2.4-7.7,2.4-11.9v-0.2c0-4.2-0.8-8.2-2.4-11.9c-1.6-3.7-3.8-6.9-6.6-9.7c-2.8-2.7-6.1-4.9-10-6.5
	c-3.9-1.6-8.1-2.4-12.6-2.4c-4.5,0-8.8,0.8-12.6,2.4c-3.9,1.6-7.2,3.8-10.1,6.6c-2.9,2.8-5.1,6-6.7,9.8c-1.6,3.7-2.4,7.7-2.4,11.9
	v0.2c0,4.2,0.8,8.2,2.4,11.9c1.6,3.7,3.8,6.9,6.6,9.7c2.8,2.7,6.1,4.9,10,6.5c3.9,1.6,8.1,2.4,12.6,2.4S359.7,538.5,363.6,536.9
	L363.6,536.9z M392.5,538.1h44.9v-14.3h-28.5v-44.6h-16.3V538.1L392.5,538.1z M478.4,537.8c2.9-0.9,5.4-2.1,7.5-3.8
	c2.1-1.7,3.7-3.7,4.8-6c1.1-2.4,1.7-5,1.7-8.1v-0.2c0-2.7-0.5-5.1-1.5-7.1c-1-2-2.5-3.7-4.4-5.1c-1.9-1.4-4.2-2.6-6.9-3.6
	c-2.7-1-5.8-1.8-9.1-2.6c-2-0.4-3.7-0.9-5-1.3c-1.3-0.4-2.4-0.8-3.1-1.3c-0.8-0.4-1.3-0.9-1.6-1.4c-0.3-0.5-0.5-1.1-0.5-1.8v-0.2
	c0-1.1,0.5-2,1.5-2.7c1-0.7,2.5-1.1,4.4-1.1c2.6,0,5.4,0.5,8.2,1.5c2.8,1,5.6,2.4,8.3,4.3l8.2-11.6c-3.2-2.6-6.8-4.6-10.7-5.9
	c-4-1.3-8.5-2-13.5-2c-3.5,0-6.7,0.5-9.5,1.4c-2.8,0.9-5.2,2.2-7.2,3.9c-2,1.7-3.5,3.7-4.5,6c-1,2.3-1.6,4.8-1.6,7.6v0.2
	c0,3,0.6,5.6,1.7,7.6c1.1,2,2.7,3.8,4.7,5.1c2,1.4,4.3,2.5,7,3.4c2.7,0.9,5.6,1.7,8.8,2.4c2,0.4,3.7,0.9,4.9,1.3
	c1.3,0.4,2.3,0.9,3,1.3c0.8,0.4,1.3,0.9,1.6,1.4c0.3,0.5,0.4,1,0.4,1.6v0.2c0,1.3-0.6,2.3-1.7,3c-1.2,0.7-2.8,1-5,1
	c-6.8,0-13.2-2.4-19.1-7.1l-9.1,10.9c3.6,3.3,7.8,5.7,12.6,7.4c4.7,1.6,9.7,2.5,15,2.5C472.2,539.1,475.5,538.6,478.4,537.8
	L478.4,537.8z"/>
<path class="st1" d="M39.2,457.8c2.6-0.7,5-1.6,7.1-2.8c2.1-1.2,4-2.6,5.6-4.2c1.7-1.6,3.2-3.4,4.6-5.3l-12.3-8.8
	c-0.9,1.1-1.8,2-2.7,2.9c-0.9,0.9-1.9,1.6-2.9,2.3c-1,0.6-2.2,1.1-3.5,1.5c-1.3,0.3-2.7,0.5-4.2,0.5c-2.1,0-4-0.4-5.7-1.2
	c-1.7-0.8-3.2-1.9-4.4-3.3c-1.2-1.4-2.2-3.1-2.9-5c-0.7-1.9-1.1-4-1.1-6.2V428c0-2.1,0.3-4.2,1.1-6.1c0.7-1.9,1.7-3.6,2.9-5
	c1.2-1.4,2.7-2.5,4.4-3.3c1.7-0.8,3.6-1.2,5.7-1.2c2.9,0,5.3,0.6,7.3,1.9c2,1.2,3.9,2.9,5.6,5l12.3-9.5c-1.3-1.8-2.8-3.4-4.4-5
	c-1.7-1.5-3.5-2.8-5.6-3.9c-2-1.1-4.3-1.9-6.8-2.5c-2.5-0.6-5.2-0.9-8.2-0.9c-4.5,0-8.6,0.8-12.4,2.4c-3.8,1.6-7.1,3.7-9.8,6.5
	c-2.7,2.8-4.9,6-6.5,9.8C0.8,420,0,424,0,428.2v0.2c0,4.4,0.8,8.4,2.4,12.2c1.6,3.7,3.8,7,6.5,9.7c2.7,2.7,5.9,4.8,9.6,6.4
	c3.7,1.5,7.7,2.3,11.9,2.3C33.6,458.8,36.6,458.5,39.2,457.8L39.2,457.8z M64.6,457.7h44.9v-14.3H80.9v-44.6H64.6V457.7L64.6,457.7z
	 M141.2,442.8c-1.9-0.9-3.4-2-4.8-3.5c-1.3-1.5-2.3-3.1-3.1-5c-0.7-1.9-1.1-3.9-1.1-6.1V428c0-2.1,0.4-4.2,1.1-6.1
	c0.7-1.9,1.7-3.6,3-5c1.3-1.4,2.9-2.6,4.7-3.4c1.8-0.8,3.9-1.3,6.1-1.3c2.2,0,4.3,0.4,6.2,1.3c1.9,0.9,3.5,2,4.8,3.5
	c1.3,1.5,2.4,3.1,3.1,5c0.7,1.9,1.1,3.9,1.1,6.1v0.2c0,2.1-0.4,4.2-1.1,6.1c-0.7,1.9-1.7,3.6-3,5c-1.3,1.4-2.9,2.6-4.7,3.4
	c-1.9,0.8-3.9,1.3-6.2,1.3C145.1,444.1,143.1,443.7,141.2,442.8L141.2,442.8z M159.9,456.4c3.9-1.6,7.2-3.8,10.1-6.6s5.1-6,6.7-9.8
	c1.6-3.7,2.4-7.7,2.4-11.9V428c0-4.2-0.8-8.2-2.4-11.9c-1.6-3.7-3.8-6.9-6.6-9.7c-2.8-2.7-6.1-4.9-10-6.5s-8.1-2.4-12.6-2.4
	c-4.5,0-8.8,0.8-12.6,2.4c-3.9,1.6-7.2,3.8-10.1,6.6c-2.9,2.8-5.1,6-6.7,9.8c-1.6,3.7-2.4,7.7-2.4,11.9v0.2c0,4.2,0.8,8.2,2.4,11.9
	c1.6,3.7,3.8,6.9,6.6,9.7c2.8,2.8,6.1,4.9,10,6.5c3.9,1.6,8.1,2.4,12.6,2.4C151.8,458.8,156,458,159.9,456.4L159.9,456.4z
	 M226.7,457.2c3.4-1.1,6.3-2.7,8.7-4.9c2.4-2.2,4.2-5,5.6-8.5c1.3-3.4,2-7.6,2-12.3v-32.6h-16.7v33.2c0,4.2-1,7.2-2.9,9.2
	c-1.9,2-4.6,2.9-7.8,2.9c-3.3,0-5.9-1-7.8-3.1c-1.9-2-2.9-5.2-2.9-9.5v-32.7H188v33.1c0,4.6,0.6,8.6,1.9,12c1.3,3.4,3.1,6.2,5.4,8.4
	c2.4,2.2,5.2,3.9,8.6,4.9s7.2,1.6,11.4,1.6C219.5,458.8,223.3,458.2,226.7,457.2L226.7,457.2z M270,443.2v-30h6.7
	c4.9,0,8.8,1.3,11.8,3.9c3,2.6,4.5,6.3,4.5,11v0.2c0,4.8-1.5,8.4-4.5,11c-3,2.6-6.9,3.9-11.8,3.9H270L270,443.2z M253.7,457.7h22.4
	c5.3,0,10-0.7,14.2-2.2c4.2-1.5,7.7-3.5,10.6-6.2c2.9-2.6,5-5.8,6.6-9.4c1.5-3.6,2.3-7.6,2.3-11.8v-0.2c0-4.3-0.7-8.2-2.2-11.7
	c-1.5-3.6-3.6-6.6-6.5-9.2c-2.8-2.6-6.3-4.6-10.4-6c-4.1-1.4-8.8-2.1-14.1-2.1h-22.7V457.7L253.7,457.7z"/>
<path class="st1" d="M39.2,377.4c2.6-0.7,5-1.6,7.1-2.8c2.1-1.2,4-2.6,5.6-4.2c1.7-1.6,3.2-3.4,4.6-5.3l-12.3-8.8
	c-0.9,1.1-1.8,2-2.7,2.9c-0.9,0.9-1.9,1.6-2.9,2.3c-1,0.6-2.2,1.1-3.5,1.5c-1.3,0.3-2.7,0.5-4.2,0.5c-2.1,0-4-0.4-5.7-1.2
	c-1.7-0.8-3.2-1.9-4.4-3.3c-1.2-1.4-2.2-3.1-2.9-5c-0.7-1.9-1.1-4-1.1-6.2v-0.2c0-2.1,0.3-4.2,1.1-6.1c0.7-1.9,1.7-3.6,2.9-5
	c1.2-1.4,2.7-2.5,4.4-3.3c1.7-0.8,3.6-1.2,5.7-1.2c2.9,0,5.3,0.6,7.3,1.9c2,1.2,3.9,2.9,5.6,5l12.3-9.5c-1.3-1.8-2.8-3.4-4.4-5
	c-1.7-1.5-3.5-2.8-5.6-3.9c-2-1.1-4.3-1.9-6.8-2.5c-2.5-0.6-5.2-0.9-8.2-0.9c-4.5,0-8.6,0.8-12.4,2.4c-3.8,1.6-7.1,3.7-9.8,6.5
	c-2.7,2.8-4.9,6-6.5,9.8c-1.6,3.7-2.4,7.7-2.4,12v0.2c0,4.4,0.8,8.4,2.4,12.2c1.6,3.7,3.8,7,6.5,9.7c2.7,2.7,5.9,4.8,9.6,6.4
	c3.7,1.5,7.7,2.3,11.9,2.3C33.6,378.4,36.6,378.1,39.2,377.4L39.2,377.4z M88.2,362.4c-1.9-0.9-3.4-2-4.8-3.5
	c-1.3-1.5-2.4-3.1-3.1-5c-0.7-1.9-1.1-3.9-1.1-6.1v-0.2c0-2.1,0.4-4.2,1.1-6.1c0.7-1.9,1.7-3.6,3-5c1.3-1.4,2.9-2.6,4.7-3.4
	c1.8-0.8,3.9-1.3,6.1-1.3c2.2,0,4.3,0.4,6.2,1.3c1.9,0.9,3.5,2,4.8,3.5c1.3,1.5,2.4,3.1,3.1,5c0.7,1.9,1.1,3.9,1.1,6.1v0.2
	c0,2.1-0.4,4.2-1.1,6.1c-0.7,1.9-1.7,3.6-3,5c-1.3,1.4-2.9,2.6-4.7,3.4c-1.9,0.8-3.9,1.3-6.2,1.3C92.1,363.7,90.1,363.3,88.2,362.4
	L88.2,362.4z M106.9,376c3.9-1.6,7.2-3.8,10.1-6.6c2.9-2.8,5.1-6,6.7-9.8c1.6-3.7,2.4-7.7,2.4-11.9v-0.2c0-4.2-0.8-8.2-2.4-11.9
	c-1.6-3.7-3.8-6.9-6.6-9.7c-2.8-2.7-6.1-4.9-10-6.5c-3.9-1.6-8.1-2.4-12.6-2.4s-8.8,0.8-12.6,2.4c-3.9,1.6-7.2,3.8-10.1,6.6
	c-2.9,2.8-5.1,6-6.7,9.8c-1.6,3.7-2.4,7.7-2.4,11.9v0.2c0,4.2,0.8,8.2,2.4,11.9c1.6,3.7,3.8,6.9,6.6,9.7c2.8,2.7,6.1,4.9,10,6.5
	c3.9,1.6,8.1,2.4,12.6,2.4C98.8,378.4,103,377.6,106.9,376L106.9,376z M135.7,377.3h16.1v-33.7l14.9,22.9h0.3l15-23.1v33.8h16.2
	v-58.9h-17.2L167,341.2L153,318.4h-17.3V377.3L135.7,377.3z M209.9,377.3H226v-33.7l14.9,22.9h0.3l15-23.1v33.8h16.2v-58.9h-17.3
	l-14.1,22.8l-14.1-22.8h-17.3V377.3L209.9,377.3z M307.8,362.4c-1.9-0.9-3.4-2-4.8-3.5c-1.3-1.5-2.4-3.1-3.1-5
	c-0.7-1.9-1.1-3.9-1.1-6.1v-0.2c0-2.1,0.4-4.2,1.1-6.1c0.7-1.9,1.7-3.6,3-5c1.3-1.4,2.9-2.6,4.7-3.4c1.8-0.8,3.9-1.3,6.1-1.3
	c2.2,0,4.3,0.4,6.2,1.3c1.9,0.9,3.5,2,4.8,3.5c1.3,1.5,2.4,3.1,3.1,5c0.7,1.9,1.1,3.9,1.1,6.1v0.2c0,2.1-0.4,4.2-1.1,6.1
	c-0.7,1.9-1.7,3.6-3,5c-1.3,1.4-2.9,2.6-4.7,3.4c-1.9,0.8-3.9,1.3-6.2,1.3C311.7,363.7,309.6,363.3,307.8,362.4L307.8,362.4z
	 M326.4,376c3.9-1.6,7.2-3.8,10.1-6.6c2.9-2.8,5.1-6,6.7-9.8c1.6-3.7,2.4-7.7,2.4-11.9v-0.2c0-4.2-0.8-8.2-2.4-11.9
	c-1.6-3.7-3.8-6.9-6.6-9.7c-2.8-2.7-6.1-4.9-10-6.5c-3.9-1.6-8.1-2.4-12.6-2.4c-4.5,0-8.8,0.8-12.6,2.4c-3.9,1.6-7.2,3.8-10.1,6.6
	c-2.9,2.8-5.1,6-6.7,9.8c-1.6,3.7-2.4,7.7-2.4,11.9v0.2c0,4.2,0.8,8.2,2.4,11.9c1.6,3.7,3.8,6.9,6.6,9.7c2.8,2.7,6.1,4.9,10,6.5
	c3.9,1.6,8.1,2.4,12.6,2.4S322.5,377.6,326.4,376L326.4,376z M355.3,377.3h16.1v-32.3l25.2,32.3h14.3v-58.9h-16.1v31.1l-24.3-31.1
	h-15.3V377.3L355.3,377.3z"/>
<g>
	<defs>
		<path id="SVGID_1_" d="M340.4,59.7c-5.1-11.9-12.2-22.3-21.2-31.1c-9-8.8-19.7-15.8-32.2-20.9C274.5,2.6,261,0,246.4,0
			c-14.6,0-28.1,2.6-40.5,7.7c-10.3,4.2-19.3,9.9-27.3,16.7c0.1,0.1,0.2,0.2,0.2,0.2c9.5,9.3,17,20.4,22.4,32.9
			c1.6,3.7,3,7.8,4.2,12.4c1.6-2.7,3.3-5.3,5.5-7.6c4.2-4.6,9.3-8.2,15.2-10.9c5.9-2.7,12.4-4.1,19.6-4.1c7.2,0,13.8,1.4,19.8,4.2
			c6,2.8,11.1,6.5,15.5,11.2c3.3,3.5,5.8,7.6,7.9,11.9c2.8-1.1,5.8-1.7,9-1.7h46.9C343.6,68.4,342.2,64,340.4,59.7L340.4,59.7z"/>
	</defs>
	
		<linearGradient id="SVGID_00000080201686307489232980000005072141318591115165_" gradientUnits="userSpaceOnUse" x1="178.536" y1="37.3174" x2="344.786" y2="37.3174">
		<stop  offset="0" style="stop-color:#0586BF"/>
		<stop  offset="1" style="stop-color:#00BCE7"/>
	</linearGradient>
	<use xlink:href="#SVGID_1_"  style="overflow:visible;fill:url(#SVGID_00000080201686307489232980000005072141318591115165_);"/>
	<clipPath id="SVGID_00000132056613694102997140000005049257319078788495_">
		<use xlink:href="#SVGID_1_"  style="overflow:visible;"/>
	</clipPath>
	<g style="clip-path:url(#SVGID_00000132056613694102997140000005049257319078788495_);">
		<defs>
			<rect id="SVGID_00000120532701724705612350000001480874253576232336_" x="178.5" y="0" width="166.2" height="74.6"/>
		</defs>
		
			<linearGradient id="SVGID_00000054266503283303895790000018248744866621521852_" gradientUnits="userSpaceOnUse" x1="178.536" y1="37.3174" x2="344.786" y2="37.3174">
			<stop  offset="0" style="stop-color:#0586BF"/>
			<stop  offset="1" style="stop-color:#00BCE7"/>
		</linearGradient>
		
			<use xlink:href="#SVGID_00000120532701724705612350000001480874253576232336_"  style="overflow:visible;fill:url(#SVGID_00000054266503283303895790000018248744866621521852_);"/>
		<clipPath id="SVGID_00000034060281549296616830000008607112916903168697_">
			<use xlink:href="#SVGID_00000120532701724705612350000001480874253576232336_"  style="overflow:visible;"/>
		</clipPath>
	</g>
</g>
<g>
	<defs>
		<path id="SVGID_00000135676825975933147230000015208448192820624264_" d="M152.1,78.7c-10.9,0-19.6,8.8-19.6,19.6
			c0,10.9,8.8,19.6,19.6,19.6h43.4c10.9,0,19.7-8.8,19.7-19.6c0-10.9-8.8-19.6-19.7-19.6H152.1L152.1,78.7z"/>
	</defs>
	
		<linearGradient id="SVGID_00000101823959791872629850000010620563591996827832_" gradientUnits="userSpaceOnUse" x1="132.5" y1="98.3864" x2="215.234" y2="98.3864">
		<stop  offset="0" style="stop-color:#0586BF"/>
		<stop  offset="1" style="stop-color:#00BCE7"/>
	</linearGradient>
	
		<use xlink:href="#SVGID_00000135676825975933147230000015208448192820624264_"  style="overflow:visible;fill:url(#SVGID_00000101823959791872629850000010620563591996827832_);"/>
	<clipPath id="SVGID_00000103986976352199580140000010519513956446166441_">
		<use xlink:href="#SVGID_00000135676825975933147230000015208448192820624264_"  style="overflow:visible;"/>
	</clipPath>
	<g style="clip-path:url(#SVGID_00000103986976352199580140000010519513956446166441_);">
		<defs>
			<rect id="SVGID_00000166677938608946110280000010525399548681406105_" x="132.5" y="78.7" width="82.7" height="39.3"/>
		</defs>
		
			<linearGradient id="SVGID_00000061459550810660512670000017363771454286228624_" gradientUnits="userSpaceOnUse" x1="132.5" y1="98.3864" x2="215.234" y2="98.3864">
			<stop  offset="0" style="stop-color:#0586BF"/>
			<stop  offset="1" style="stop-color:#00BCE7"/>
		</linearGradient>
		
			<use xlink:href="#SVGID_00000166677938608946110280000010525399548681406105_"  style="overflow:visible;fill:url(#SVGID_00000061459550810660512670000017363771454286228624_);"/>
		<clipPath id="SVGID_00000047033972144201110070000009099373015558314646_">
			<use xlink:href="#SVGID_00000166677938608946110280000010525399548681406105_"  style="overflow:visible;"/>
		</clipPath>
	</g>
</g>
<g>
	<defs>
		<path id="SVGID_00000149353564417272466020000004061534761148121011_" d="M301.7,78.7c-10.9,0-19.6,8.8-19.6,19.6
			c0,10.9,8.8,19.6,19.6,19.6h43.4c10.9,0,19.7-8.8,19.7-19.6c0-10.9-8.8-19.6-19.7-19.6H301.7L301.7,78.7z"/>
	</defs>
	
		<linearGradient id="SVGID_00000143617994236574316210000004382819979313761168_" gradientUnits="userSpaceOnUse" x1="282.084" y1="98.3859" x2="364.818" y2="98.3859">
		<stop  offset="0" style="stop-color:#0586BF"/>
		<stop  offset="1" style="stop-color:#00BCE7"/>
	</linearGradient>
	
		<use xlink:href="#SVGID_00000149353564417272466020000004061534761148121011_"  style="overflow:visible;fill:url(#SVGID_00000143617994236574316210000004382819979313761168_);"/>
	<clipPath id="SVGID_00000118397568398480698820000009559589880939395209_">
		<use xlink:href="#SVGID_00000149353564417272466020000004061534761148121011_"  style="overflow:visible;"/>
	</clipPath>
	<g style="clip-path:url(#SVGID_00000118397568398480698820000009559589880939395209_);">
		<defs>
			<rect id="SVGID_00000082367443826935624980000001544022823968407219_" x="282.1" y="78.7" width="82.7" height="39.3"/>
		</defs>
		
			<linearGradient id="SVGID_00000152253367067805634610000003280626647640448898_" gradientUnits="userSpaceOnUse" x1="282.084" y1="98.3859" x2="364.818" y2="98.3859">
			<stop  offset="0" style="stop-color:#0586BF"/>
			<stop  offset="1" style="stop-color:#00BCE7"/>
		</linearGradient>
		
			<use xlink:href="#SVGID_00000082367443826935624980000001544022823968407219_"  style="overflow:visible;fill:url(#SVGID_00000152253367067805634610000003280626647640448898_);"/>
		<clipPath id="SVGID_00000048484839903424586080000001251328195675412901_">
			<use xlink:href="#SVGID_00000082367443826935624980000001544022823968407219_"  style="overflow:visible;"/>
		</clipPath>
	</g>
</g>
<g>
	<defs>
		<path id="SVGID_00000156568483142723311040000013970268752913572780_" d="M169.3,172.1c-9.5-9.3-17-20.3-22.4-32.9
			c-1.6-3.7-3-7.9-4.3-12.6c-1.6,2.8-3.4,5.5-5.5,7.8c-4.2,4.6-9.2,8.2-15.2,10.9c-6,2.7-12.6,4.1-19.8,4.1
			c-7.2,0-13.8-1.4-19.8-4.2c-6-2.8-11.1-6.5-15.3-11.2c-4.2-4.7-7.5-10.1-9.9-16.2c-2.3-6.1-3.5-12.6-3.5-19.5v-0.5
			c0-6.8,1.1-13.3,3.4-19.5c2.3-6.1,5.5-11.5,9.8-16.1c4.2-4.6,9.3-8.2,15.2-10.9c5.9-2.7,12.4-4.1,19.6-4.1
			c7.2,0,13.8,1.4,19.8,4.2c6,2.8,11.1,6.5,15.5,11.2c2.9,3.2,5.3,6.8,7.3,10.6c1.4-0.2,2.8-0.4,4.3-0.4h51.2c0.4,0,0.7,0.1,1.1,0.1
			c-1.2-4.5-2.6-9-4.4-13.3c-5.1-11.9-12.2-22.3-21.2-31.1c-9-8.8-19.7-15.8-32.2-20.9C130.3,2.6,116.8,0,102.2,0
			C87.6,0,74.1,2.6,61.6,7.7c-12.4,5.1-23.2,12.2-32.4,21.1C20,37.7,12.8,48.2,7.7,60.1C2.6,72.1,0,84.9,0,98.4v0.5
			c0,13.5,2.6,26.2,7.7,38.1c5.1,11.9,12.2,22.3,21.2,31.1c9,8.8,19.7,15.8,32.2,20.9c12.4,5.1,25.9,7.7,40.5,7.7
			c14.6,0,28.1-2.6,40.5-7.7c10.3-4.2,19.3-9.9,27.3-16.7C169.4,172.3,169.4,172.2,169.3,172.1L169.3,172.1z"/>
	</defs>
	
		<linearGradient id="SVGID_00000109011037977674495690000006180345087940511908_" gradientUnits="userSpaceOnUse" x1="0" y1="98.3883" x2="200.541" y2="98.3883">
		<stop  offset="0" style="stop-color:#0586BF"/>
		<stop  offset="1" style="stop-color:#00BCE7"/>
	</linearGradient>
	
		<use xlink:href="#SVGID_00000156568483142723311040000013970268752913572780_"  style="overflow:visible;fill:url(#SVGID_00000109011037977674495690000006180345087940511908_);"/>
	<clipPath id="SVGID_00000165219877541289461750000013827343827115535500_">
		<use xlink:href="#SVGID_00000156568483142723311040000013970268752913572780_"  style="overflow:visible;"/>
	</clipPath>
	<g style="clip-path:url(#SVGID_00000165219877541289461750000013827343827115535500_);">
		<defs>
			<rect id="SVGID_00000031910947764899071180000014692828433273194643_" y="0" width="200.5" height="196.8"/>
		</defs>
		
			<linearGradient id="SVGID_00000071558670707570634330000018044498344984668821_" gradientUnits="userSpaceOnUse" x1="0" y1="98.3883" x2="200.541" y2="98.3883">
			<stop  offset="0" style="stop-color:#0586BF"/>
			<stop  offset="1" style="stop-color:#00BCE7"/>
		</linearGradient>
		
			<use xlink:href="#SVGID_00000031910947764899071180000014692828433273194643_"  style="overflow:visible;fill:url(#SVGID_00000071558670707570634330000018044498344984668821_);"/>
		<clipPath id="SVGID_00000005251223770541131290000012550474814128469390_">
			<use xlink:href="#SVGID_00000031910947764899071180000014692828433273194643_"  style="overflow:visible;"/>
		</clipPath>
	</g>
</g>
<g>
	<defs>
		<path id="SVGID_00000114036220160371476410000017200504372462218670_" d="M484.7,59.7c-5.1-11.9-12.2-22.3-21.2-31.1
			c-9-8.8-19.7-15.8-32.2-20.9C418.9,2.6,405.4,0,390.8,0c-14.6,0-28.1,2.6-40.5,7.7c-10.3,4.3-19.3,9.9-27.4,16.8
			c0.1,0.1,0.1,0.1,0.2,0.2c9.5,9.3,17,20.4,22.4,32.9c1.6,3.8,3,7.9,4.4,12.8c1.6-2.9,3.4-5.6,5.6-8c4.2-4.6,9.2-8.2,15.2-10.9
			c6-2.7,12.6-4.1,19.8-4.1c7.2,0,13.8,1.4,19.8,4.2c6,2.8,11.1,6.5,15.3,11.2c4.2,4.7,7.5,10.1,9.9,16.2c2.3,6.1,3.5,12.6,3.5,19.5
			v0.5c0,6.8-1.1,13.3-3.4,19.5c-2.3,6.1-5.5,11.5-9.8,16.1c-4.2,4.6-9.3,8.2-15.2,10.9c-5.9,2.7-12.4,4.1-19.6,4.1
			c-7.2,0-13.8-1.4-19.8-4.2c-6-2.8-11.1-6.5-15.4-11.2c-2.8-3.1-5.1-6.5-7-10.2h-4.5c0,0,0,0,0,0H293c-0.4,0-0.7-0.1-1.1-0.1
			c1.2,4.5,2.6,9,4.4,13.3c5.1,11.9,12.2,22.3,21.2,31.1c9,8.8,19.7,15.8,32.2,20.9c12.4,5.1,25.9,7.7,40.5,7.7
			c14.6,0,28.1-2.6,40.5-7.7c12.4-5.1,23.2-12.2,32.4-21.1c9.2-8.9,16.3-19.4,21.5-31.4c5.1-12,7.7-24.7,7.7-38.2v-0.5
			C492.4,84.3,489.9,71.6,484.7,59.7L484.7,59.7z"/>
	</defs>
	
		<linearGradient id="SVGID_00000084513718350688346040000000502953629371212931_" gradientUnits="userSpaceOnUse" x1="291.891" y1="98.388" x2="492.432" y2="98.388">
		<stop  offset="0" style="stop-color:#0586BF"/>
		<stop  offset="1" style="stop-color:#00BCE7"/>
	</linearGradient>
	
		<use xlink:href="#SVGID_00000114036220160371476410000017200504372462218670_"  style="overflow:visible;fill:url(#SVGID_00000084513718350688346040000000502953629371212931_);"/>
	<clipPath id="SVGID_00000100343816292847562890000000642618366361366688_">
		<use xlink:href="#SVGID_00000114036220160371476410000017200504372462218670_"  style="overflow:visible;"/>
	</clipPath>
	<g style="clip-path:url(#SVGID_00000100343816292847562890000000642618366361366688_);">
		<defs>
			<rect id="SVGID_00000075136305390318254640000014245231701849212549_" x="291.9" width="200.5" height="196.8"/>
		</defs>
		
			<linearGradient id="SVGID_00000163062905994407840970000010940104303148885147_" gradientUnits="userSpaceOnUse" x1="291.891" y1="98.388" x2="492.432" y2="98.388">
			<stop  offset="0" style="stop-color:#0586BF"/>
			<stop  offset="1" style="stop-color:#00BCE7"/>
		</linearGradient>
		
			<use xlink:href="#SVGID_00000075136305390318254640000014245231701849212549_"  style="overflow:visible;fill:url(#SVGID_00000163062905994407840970000010940104303148885147_);"/>
		<clipPath id="SVGID_00000019674385394640180350000006565658742696390530_">
			<use xlink:href="#SVGID_00000075136305390318254640000014245231701849212549_"  style="overflow:visible;"/>
		</clipPath>
	</g>
</g>
<g>
	<defs>
		<path id="SVGID_00000179646241118330508690000007905721591391165058_" d="M313.6,172.1c-9.5-9.3-17-20.3-22.4-32.9
			c-1.6-3.8-3-8-4.3-12.7c-1.6,2.9-3.5,5.5-5.6,7.9c-4.2,4.6-9.2,8.2-15.2,10.9c-6,2.7-12.6,4.1-19.8,4.1c-7.2,0-13.8-1.4-19.8-4.2
			c-6-2.8-11.1-6.5-15.3-11.2c-2.9-3.2-5.2-6.8-7.2-10.7c-1.5,0.3-3,0.5-4.5,0.5h-51.2c-0.3,0-0.5-0.1-0.8-0.1
			c1.2,4.5,2.6,9,4.4,13.3c5.1,11.9,12.2,22.3,21.2,31.1c9,8.8,19.7,15.8,32.2,20.9c12.4,5.1,25.9,7.7,40.5,7.7
			c14.6,0,28.1-2.6,40.5-7.7c10.3-4.2,19.4-9.9,27.4-16.8C313.8,172.2,313.7,172.2,313.6,172.1L313.6,172.1z"/>
	</defs>
	
		<linearGradient id="SVGID_00000108277468922430470450000008617476612833769916_" gradientUnits="userSpaceOnUse" x1="147.513" y1="160.0819" x2="313.843" y2="160.0819">
		<stop  offset="0" style="stop-color:#0586BF"/>
		<stop  offset="1" style="stop-color:#00BCE7"/>
	</linearGradient>
	
		<use xlink:href="#SVGID_00000179646241118330508690000007905721591391165058_"  style="overflow:visible;fill:url(#SVGID_00000108277468922430470450000008617476612833769916_);"/>
	<clipPath id="SVGID_00000091705820920557439760000017604797425097697727_">
		<use xlink:href="#SVGID_00000179646241118330508690000007905721591391165058_"  style="overflow:visible;"/>
	</clipPath>
	<g style="clip-path:url(#SVGID_00000091705820920557439760000017604797425097697727_);">
		<defs>
			<rect id="SVGID_00000161624748374732386790000014696674214114839438_" x="147.5" y="123.4" width="166.3" height="73.4"/>
		</defs>
		
			<linearGradient id="SVGID_00000144330952776070551280000015028580934595408829_" gradientUnits="userSpaceOnUse" x1="147.513" y1="160.0819" x2="313.843" y2="160.0819">
			<stop  offset="0" style="stop-color:#0586BF"/>
			<stop  offset="1" style="stop-color:#00BCE7"/>
		</linearGradient>
		
			<use xlink:href="#SVGID_00000161624748374732386790000014696674214114839438_"  style="overflow:visible;fill:url(#SVGID_00000144330952776070551280000015028580934595408829_);"/>
		<clipPath id="SVGID_00000168116043675528299870000017840351128400313474_">
			<use xlink:href="#SVGID_00000161624748374732386790000014696674214114839438_"  style="overflow:visible;"/>
		</clipPath>
	</g>
</g>
</svg>
