<?xml version="1.0" encoding="utf-8"?>
<!-- Generator: Adobe Illustrator 24.1.0, SVG Export Plug-In . SVG Version: 6.00 Build 0)  -->
<svg version="1.1" id="Layer_1" xmlns="http://www.w3.org/2000/svg" xmlns:xlink="http://www.w3.org/1999/xlink" x="0px" y="0px"
	 viewBox="0 0 404.16 540" style="enable-background:new 0 0 404.16 540;" xml:space="preserve">
<style type="text/css">
	.st0{fill:#97999A;}
	.st1{fill:#00B6BC;}
	.st2{fill:#53535A;}
	.st3{fill:#9ED5D9;}
	.st4{fill:#C8C9C6;}
	.st5{fill:#FBE300;}
	.st6{fill:#545C63;}
	.st7{fill:#848C8C;}
	.st8{fill:#DDE5ED;}
	.st9{fill:#545D63;}
	.st10{fill:#ECF0F4;}
	.st11{fill:#9B9CA0;}
</style>
<g>
	<path class="st0" d="M249.06,487.05c-6.4,0-11.66,2.01-15.48,6.21v-24.95h-14.91v70.92h14.24v-5.93c3.73,4.49,9.27,6.69,16.15,6.69
		c14.43,0,25.62-10.32,25.62-26.48C274.68,497.37,263.49,487.05,249.06,487.05L249.06,487.05z M246.48,527.76
		c-7.46,0-13.1-5.35-13.1-14.24c0-8.89,5.64-14.24,13.1-14.24c7.46,0,13.1,5.35,13.1,14.24
		C259.57,522.41,253.93,527.76,246.48,527.76L246.48,527.76z M309.09,540c16.34,0,28.2-10.99,28.2-26.48
		c0-15.48-11.85-26.48-28.2-26.48c-16.35,0-28.29,10.99-28.29,26.48C280.79,529.01,292.74,540,309.09,540L309.09,540z
		 M309.09,527.76c-7.46,0-13.19-5.35-13.19-14.24c0-8.89,5.74-14.24,13.19-14.24c7.45,0,13.1,5.35,13.1,14.24
		C322.18,522.41,316.54,527.76,309.09,527.76L309.09,527.76z M374.27,526.24c-1.72,1.24-3.92,1.91-6.12,1.91
		c-4.02,0-6.31-2.39-6.31-6.79v-20.93h12.71v-11.47h-12.71v-12.52h-14.91v45.12c0,12.23,6.98,18.45,19.21,18.45
		c4.49,0,8.98-1.05,12.04-3.25L374.27,526.24L374.27,526.24z"/>
	<path class="st1" d="M194.67,524.61c6.5,0,11.95-5.16,11.95-12.14c0-6.98-5.45-12.04-11.95-12.04c-6.6,0-11.95,5.07-11.95,12.04
		C182.73,519.45,188.08,524.61,194.67,524.61L194.67,524.61z"/>
	<path class="st0" d="M54.65,540c10.8,0,19.31-4.78,23.04-13l-11.57-6.31c-2.77,4.97-6.88,7.07-11.57,7.07
		c-7.55,0-13.48-5.26-13.48-14.24c0-8.99,5.93-14.24,13.48-14.24c4.68,0,8.79,2.2,11.57,7.07l11.57-6.21
		c-3.73-8.41-12.24-13.09-23.04-13.09c-16.73,0-28.68,10.99-28.68,26.48C25.97,529.01,37.92,540,54.65,540L54.65,540z M104.35,540
		c2.58,0,5.16-0.38,7.74-1.24l-0.67-11.57c-0.86,0.48-2.58,0.96-4.21,0.96c-4.11,0-6.4-2.39-6.4-6.79v-53.05H85.9v53.91
		C85.9,533.69,92.78,540,104.35,540L104.35,540z M155.77,487.81v5.45c-3.73-4.2-9.08-6.21-15.39-6.21
		c-14.53,0-25.71,10.32-25.71,26.48c0,16.15,11.18,26.48,25.71,26.48c6.88,0,12.33-2.2,16.06-6.69v5.93h14.24v-51.42H155.77
		L155.77,487.81z M142.96,527.76c-7.46,0-13.19-5.35-13.19-14.24c0-8.89,5.74-14.24,13.19-14.24c7.36,0,13.1,5.35,13.1,14.24
		C156.06,522.41,150.32,527.76,142.96,527.76L142.96,527.76z"/>
	<path class="st0" d="M325.57,366.81v-5.07c0,6.91-5.6,12.51-12.51,12.51H91.11c-6.91,0-12.51-5.6-12.51-12.51v5.07
		c0,17.28,14.01,31.28,31.28,31.28h184.41C311.56,398.09,325.57,384.09,325.57,366.81L325.57,366.81z"/>
	<path class="st2" d="M78.53,298.52c0.18,0.93,0.53,1.86,0.53,2.79c0.03,17.09,0.03,34.18,0,51.27c0,1.07-0.37,2.14-0.57,3.21
		c-7.08-0.82-11.38-5.37-11.56-12.4c-0.1-4.04-0.02-8.08-0.02-12.8c-4.72,0-9.26-0.18-13.78,0.05c-4.08,0.21-6.42-1.51-8.04-5.19
		c-9.05-20.65-18.34-41.21-27.25-61.92c-1.1-2.55-1.25-6.11-0.44-8.77c5.65-18.64,11.78-37.14,17.46-55.78
		c0.97-3.19,1.2-6.94,0.62-10.23c-2.44-13.99-5.32-27.91-8.04-41.85c4.16-0.84,8.32-1.68,12.49-2.52c3.3,15.95,6.67,31.9,9.83,47.88
		c0.38,1.93,0,4.18-0.59,6.12c-5.64,18.51-11.33,37-17.21,55.44c-1.1,3.44-0.89,6.39,0.5,9.64c6.7,15.6,13.25,31.27,19.85,46.91
		c3.59,8.52,4.64,9.11,14.51,7.92C66.83,309.5,66.2,300.07,78.53,298.52L78.53,298.52z"/>
	<path class="st1" d="M27.95,147.88c15.44,0,27.95-12.92,27.95-28.85c0-15.93-12.51-28.85-27.95-28.85
		C12.51,90.17,0,103.09,0,119.03C0,134.96,12.51,147.88,27.95,147.88"/>
	<path class="st3" d="M34.96,116.62c-5.72,0-10.36-4.66-10.36-10.41c0-5.75,4.64-10.41,10.36-10.41c5.72,0,10.36,4.66,10.36,10.41
		C45.32,111.96,40.68,116.62,34.96,116.62"/>
	<path class="st2" d="M325.63,298.52c-0.18,0.93-0.53,1.86-0.53,2.79c-0.03,17.09-0.03,34.18,0,51.27c0,1.07,0.37,2.14,0.57,3.21
		c7.08-0.82,11.38-5.37,11.56-12.4c0.1-4.04,0.02-8.08,0.02-12.8c4.72,0,9.26-0.18,13.78,0.05c4.08,0.21,6.42-1.51,8.03-5.19
		c9.05-20.65,18.34-41.21,27.25-61.92c1.1-2.55,1.25-6.11,0.44-8.77c-5.65-18.64-11.78-37.14-17.46-55.78
		c-0.97-3.19-1.2-6.94-0.62-10.23c2.44-13.99,5.32-27.91,8.04-41.85c-4.16-0.84-8.32-1.68-12.49-2.52
		c-3.3,15.95-6.67,31.9-9.83,47.88c-0.38,1.93,0,4.18,0.59,6.12c5.64,18.51,11.33,37,17.21,55.44c1.1,3.44,0.89,6.39-0.5,9.64
		c-6.7,15.6-13.25,31.27-19.85,46.91c-3.59,8.52-4.64,9.11-14.51,7.92C337.33,309.5,337.96,300.07,325.63,298.52L325.63,298.52z"/>
	<path class="st1" d="M376.21,147.88c15.44,0,27.95-12.92,27.95-28.85c0-15.93-12.51-28.85-27.95-28.85
		c-15.44,0-27.95,12.92-27.95,28.85C348.26,134.96,360.78,147.88,376.21,147.88"/>
	<path class="st3" d="M383.22,116.62c-5.72,0-10.36-4.66-10.36-10.41c0-5.75,4.64-10.41,10.36-10.41c5.72,0,10.36,4.66,10.36,10.41
		C393.58,111.96,388.95,116.62,383.22,116.62"/>
	<path class="st4" d="M195.9,94.61c-64.79,0-117.31,52.52-117.31,117.31v149.82c0,6.91,5.6,12.51,12.51,12.51h221.95
		c6.91,0,12.51-5.6,12.51-12.51V211.92c0-64.79-52.52-117.31-117.31-117.31H195.9"/>
	<path class="st5" d="M150.54,7.01c3.96,1.62,8.11,2.89,11.82,4.94c4.63,2.56,8.86,5.81,13.33,8.68c4.29,2.76,5.62,2.47,8.43-1.91
		c1.96-3.05,3.62-6.29,5.56-9.35c1.11-1.76,2.35-3.48,3.79-4.97c5.67-5.86,13.03-5.96,18.23,0.29c3.36,4.04,5.82,8.83,8.64,13.3
		c3.24,5.13,4.54,5.4,9.69,2.15c5.54-3.5,10.88-7.41,16.76-10.23c10.43-5.01,17.44-1.83,19.52,9.41
		c2.02,10.9,8.54,17.38,18.27,20.27c13.33,3.95,26.99,6.8,40.56,9.9c9.15,2.09,18.28,4.19,25.97,9.94c2.77,2.07,5.51,4.41,7.52,7.17
		c0.96,1.33,0.98,4.72-0.03,5.73c-1.15,1.16-4.93,1.7-5.82,0.8c-13.95-14.16-32.81-14.07-50.36-17.8c-9.4-2-18.83-3.89-28.16-6.19
		c-7.93-1.96-12.89-7.47-15.84-14.88c-1.44-3.62-2.62-7.35-4.08-10.97c-1.56-3.85-2.56-4.14-5.76-1.57
		c-3.15,2.54-6.02,5.43-9.24,7.88c-2.98,2.28-6.08,4.53-9.43,6.16c-5.82,2.82-10.09,1.85-14.11-3.21c-3.29-4.14-6-8.73-9.08-13.04
		c-3.31-4.63-5.13-4.63-8.47,0.06c-2.75,3.86-5.13,8-7.97,11.79c-4.91,6.53-9.69,7.81-16.71,3.56c-5.44-3.3-10.31-7.59-15.25-11.67
		c-5.38-4.44-6.98-4.51-8.33,2.07c-4.26,20.75-19.89,25.59-37.58,28.44c-13.21,2.12-26.35,4.73-39.41,7.6
		c-7.44,1.64-14.16,5.13-19.49,10.84c-2.19,2.35-4.67,2.46-7.06,0.48c-2.53-2.1-1.75-4.48,0.04-6.61
		c6.06-7.21,13.92-11.72,22.89-13.92c11.77-2.89,23.74-5.03,35.57-7.7c9-2.03,17.89-4.47,25.4-10.23c4.03-3.09,6.53-7.06,7.6-12.12
		c0.68-3.23,1.82-6.46,3.3-9.4C143.01,9.19,146.3,7.66,150.54,7.01L150.54,7.01z"/>
	<path class="st0" d="M264.21,113.2c-10.47-2.7-20.9-5.56-31.42-8.05c-5.8-1.38-10.22-4.19-12.83-9.62
		c-2.27-6.81-0.44-12.94,4.31-17.74c4.79-4.84,10.85-4.77,17.16-2.47c24.37,8.88,48.81,17.57,73.2,26.38
		c1.82,0.66,3.6,1.57,5.23,2.62c5.27,3.4,6.82,8.54,4.56,14.58c-1.62,4.33-5.89,6.65-11.8,5.65c-6.45-1.1-12.82-2.67-19.19-4.19
		C283.68,118.05,273.95,115.6,264.21,113.2L264.21,113.2z"/>
	<path class="st0" d="M139.95,113.2c10.47-2.7,20.9-5.56,31.42-8.05c5.8-1.38,10.22-4.19,12.83-9.62
		c2.27-6.81,0.44-12.94-4.31-17.74c-4.79-4.84-10.85-4.77-17.16-2.47c-24.37,8.88-48.81,17.57-73.2,26.38
		c-1.82,0.66-3.6,1.57-5.23,2.62c-5.27,3.4-6.82,8.54-4.56,14.58c1.62,4.33,5.89,6.65,11.8,5.65c6.45-1.1,12.82-2.67,19.19-4.19
		C120.48,118.05,130.21,115.6,139.95,113.2L139.95,113.2z"/>
	<path class="st6" d="M244.5,296.33l-0.21-0.02c-0.65-0.14-1.35-0.25-2.27-0.25c-0.22,0-0.44,0-0.66,0l-0.1-0.01
		c-12.98-0.01-25.96,0-38.94,0h-0.25h-0.25c-12.98,0-25.96-0.01-38.94,0l-0.1,0.01c-0.22,0-0.44,0-0.66,0
		c-0.92,0-1.61,0.11-2.27,0.25l-0.21,0.02c-1.73,0.42-2.53,1.45-2.65,3.26c-0.07,0.82-0.06,1.76,0.07,2.97
		c0.82,7.62,4.09,14.86,8.9,21.02c4.34,5.79,9.97,10.39,16.47,13.48c0.13,0.06,0.26,0.11,0.39,0.18c1.83,0.85,3.73,1.6,5.69,2.2
		c0.95,0.3,1.92,0.53,2.89,0.76c1.25,0.3,2.52,0.54,3.81,0.74c0.58,0.08,1.14,0.28,1.73,0.33c1.73,0.17,3.44,0.23,5.13,0.22
		c1.69,0.01,3.4-0.05,5.13-0.22c0.59-0.06,1.15-0.25,1.73-0.33c1.29-0.19,2.56-0.44,3.81-0.74c0.97-0.24,1.94-0.46,2.89-0.76
		c1.96-0.6,3.85-1.35,5.69-2.2c0.13-0.06,0.26-0.11,0.39-0.18c6.51-3.09,12.14-7.69,16.47-13.48c4.81-6.16,8.08-13.4,8.9-21.03
		c0.13-1.2,0.14-2.14,0.07-2.95C247.04,297.79,246.24,296.75,244.5,296.33L244.5,296.33z"/>
	<path class="st7" d="M274.25,269.09c36.28,0,65.69-29.41,65.69-65.69c0-36.28-29.41-65.69-65.69-65.69
		c-36.28,0-65.69,29.41-65.69,65.69C208.56,239.68,237.97,269.09,274.25,269.09"/>
	<path class="st8" d="M274.25,260.42c31.49,0,57.02-25.53,57.02-57.02c0-31.49-25.53-57.02-57.02-57.02
		c-31.49,0-57.02,25.53-57.02,57.02C217.23,234.89,242.76,260.42,274.25,260.42"/>
	<path class="st1" d="M274.25,236.33c18.19,0,32.93-14.74,32.93-32.93c0-18.19-14.74-32.93-32.93-32.93
		c-18.19,0-32.93,14.74-32.93,32.93C241.32,221.59,256.07,236.33,274.25,236.33"/>
	<path class="st9" d="M274.25,222.42c10.64,0,19.27-8.52,19.27-19.02c0-10.5-8.63-19.02-19.27-19.02
		c-10.64,0-19.27,8.52-19.27,19.02C254.98,213.91,263.61,222.42,274.25,222.42"/>
	<path class="st10" d="M307.15,202c-0.66-15.74-12.36-28.62-27.56-31.1c3.68-3.36,8.57-5.41,13.93-5.41
		c11.44,0,20.72,9.32,20.72,20.82C314.23,192.57,311.49,198.18,307.15,202"/>
	<path class="st3" d="M293.52,207.14c-0.12,0-0.25,0-0.37,0c0.24-1.21,0.37-2.46,0.37-3.74c0-10.5-8.63-19.02-19.27-19.02
		c-0.46,0-0.91,0.02-1.36,0.05c0.48-5.35,2.97-10.11,6.7-13.52c15.2,2.48,26.9,15.36,27.56,31.1
		C303.51,205.2,298.74,207.14,293.52,207.14"/>
	<path class="st11" d="M293.15,207.14c-11.27-0.2-20.34-9.45-20.34-20.82c0-0.64,0.03-1.27,0.09-1.89c0.45-0.03,0.9-0.05,1.36-0.05
		c10.64,0,19.27,8.52,19.27,19.02C293.52,204.68,293.39,205.93,293.15,207.14"/>
	<path class="st7" d="M129.91,269.09c36.28,0,65.69-29.41,65.69-65.69c0-36.28-29.41-65.69-65.69-65.69
		c-36.28,0-65.69,29.41-65.69,65.69C64.22,239.68,93.63,269.09,129.91,269.09"/>
	<path class="st8" d="M129.91,260.42c31.49,0,57.02-25.53,57.02-57.02c0-31.49-25.53-57.02-57.02-57.02
		c-31.49,0-57.02,25.53-57.02,57.02C72.89,234.89,98.42,260.42,129.91,260.42"/>
	<path class="st1" d="M129.91,236.33c18.19,0,32.93-14.74,32.93-32.93c0-18.19-14.74-32.93-32.93-32.93
		c-18.19,0-32.93,14.74-32.93,32.93C96.98,221.59,111.72,236.33,129.91,236.33"/>
	<path class="st9" d="M129.91,222.42c10.64,0,19.27-8.52,19.27-19.02c0-10.5-8.63-19.02-19.27-19.02
		c-10.64,0-19.27,8.52-19.27,19.02C110.64,213.91,119.27,222.42,129.91,222.42"/>
	<path class="st10" d="M162.81,202c-0.66-15.74-12.36-28.62-27.56-31.1c3.68-3.36,8.56-5.41,13.93-5.41
		c11.44,0,20.72,9.32,20.72,20.82C169.89,192.57,167.15,198.18,162.81,202"/>
	<path class="st3" d="M149.18,207.14c-0.12,0-0.25,0-0.37,0c0.24-1.21,0.37-2.46,0.37-3.74c0-10.5-8.63-19.02-19.27-19.02
		c-0.46,0-0.91,0.02-1.36,0.05c0.48-5.35,2.97-10.11,6.7-13.52c15.2,2.48,26.9,15.36,27.56,31.1
		C159.17,205.2,154.4,207.14,149.18,207.14"/>
	<path class="st11" d="M148.81,207.14c-11.27-0.2-20.34-9.45-20.34-20.82c0-0.64,0.03-1.27,0.09-1.89c0.45-0.03,0.9-0.05,1.36-0.05
		c10.64,0,19.27,8.52,19.27,19.02C149.18,204.68,149.05,205.93,148.81,207.14"/>
</g>
</svg>
