<?xml version="1.0" encoding="utf-8"?>
<!-- Generator: Adobe Illustrator 24.1.0, SVG Export Plug-In . SVG Version: 6.00 Build 0)  -->
<svg version="1.1" id="Layer_1" xmlns="http://www.w3.org/2000/svg" xmlns:xlink="http://www.w3.org/1999/xlink" x="0px" y="0px"
	 viewBox="0 0 719.74 557.73" style="enable-background:new 0 0 719.74 557.73;" xml:space="preserve">
<style type="text/css">
	.st0{fill:#FE5000;}
	.st1{fill:#00C1D4;}
	.st2{fill:#8AD4E1;}
	.st3{fill:#BEE5ED;}
</style>
<g>
	<path class="st0" d="M56.38,537.09c-0.91-0.65-1.93-0.92-3.07-0.83c-1.14,0.1-2.06,0.57-2.77,1.41c-1.36,1.56-2.89,2.9-4.58,4.04
		c-1.69,1.14-3.51,2-5.45,2.58c-1.95,0.58-3.96,0.88-6.04,0.88c-5.91,0-10.97-2.21-15.19-6.62c-4.22-4.41-6.33-9.74-6.33-15.97
		c0-6.23,2.11-11.55,6.33-15.97c4.22-4.41,9.28-6.62,15.19-6.62c6.04,0,11.16,2.24,15.38,6.72c0.78,0.85,1.7,1.3,2.77,1.36
		c1.07,0.07,2.03-0.26,2.87-0.97l3.41-2.63c0.97-0.78,1.49-1.79,1.56-3.02c0.13-1.23-0.23-2.3-1.07-3.21
		c-3.31-3.44-7.11-6.09-11.39-7.93c-4.28-1.85-8.8-2.78-13.53-2.78c-6.23,0-11.99,1.56-17.28,4.67c-5.29,3.12-9.48,7.37-12.56,12.76
		C1.54,510.35,0,516.22,0,522.58c0,6.36,1.54,12.24,4.62,17.62c3.08,5.39,7.27,9.64,12.56,12.76c5.29,3.11,11.05,4.67,17.28,4.67
		c4.93,0,9.65-1.02,14.17-3.07c4.51-2.05,8.42-4.95,11.73-8.71c0.71-0.91,1.04-1.95,0.97-3.12c-0.13-1.17-0.68-2.14-1.66-2.92
		L56.38,537.09L56.38,537.09z M75.27,488.7c-1.17,0-2.16,0.41-2.97,1.22c-0.81,0.81-1.22,1.8-1.22,2.97v59.3
		c0,1.17,0.4,2.16,1.22,2.97c0.81,0.81,1.8,1.22,2.97,1.22h35.15c1.17,0,2.17-0.4,3.02-1.22c0.84-0.81,1.27-1.8,1.27-2.97V548
		c0-1.17-0.42-2.17-1.27-3.02c-0.84-0.84-1.85-1.27-3.02-1.27H84.71c-0.65,0-0.97-0.33-0.97-0.97v-7.11c0-0.65,0.32-0.97,0.97-0.97
		h19.57c1.17,0,2.17-0.41,3.02-1.22c0.84-0.81,1.27-1.8,1.27-2.97v-4.19c0-1.17-0.42-2.17-1.27-3.02c-0.84-0.84-1.85-1.27-3.02-1.27
		H84.71c-0.65,0-0.97-0.32-0.97-0.97v-18.69c0-0.65,0.32-0.97,0.97-0.97h25.71c1.17,0,2.17-0.42,3.02-1.27
		c0.84-0.84,1.27-1.85,1.27-3.02v-4.19c0-1.17-0.42-2.16-1.27-2.97c-0.84-0.81-1.85-1.22-3.02-1.22H75.27L75.27,488.7z
		 M128.53,488.7c-1.17,0-2.16,0.41-2.97,1.22c-0.81,0.81-1.22,1.8-1.22,2.97v59.3c0,1.17,0.4,2.16,1.22,2.97
		c0.81,0.81,1.8,1.22,2.97,1.22h4.19c1.17,0,2.17-0.4,3.02-1.22c0.84-0.81,1.27-1.8,1.27-2.97v-10.03c0-0.65,0.32-0.97,0.97-0.97
		h6.72c0.45,0,0.91,0,1.36,0c0.39,0,0.68,0.13,0.88,0.39l9.25,13.05c0.84,1.17,1.98,1.75,3.41,1.75h5.16c1.49,0,2.66-0.52,3.51-1.56
		c1.3-1.69,1.33-3.38,0.1-5.06l-8.57-12.07c-0.33-0.59-0.23-1.04,0.29-1.36c3.44-2.47,6.12-5.58,8.03-9.35
		c1.91-3.76,2.87-7.76,2.87-11.98v-1.27c0-6.88-2.45-12.77-7.35-17.67c-4.9-4.9-10.83-7.35-17.77-7.35H128.53L128.53,488.7z
		 M158.32,515.67c0,3.89-1.4,7.24-4.19,10.03c-2.79,2.79-6.13,4.19-10.03,4.19h-6.13c-0.65,0-0.97-0.32-0.97-0.97v-27.94
		c0-0.65,0.32-0.97,0.97-0.97h6.82c3.76,0,6.96,1.33,9.59,3.99c2.63,2.66,3.94,5.84,3.94,9.54V515.67L158.32,515.67z M181.88,488.7
		c-1.17,0-2.16,0.41-2.97,1.22c-0.81,0.81-1.22,1.8-1.22,2.97v3.9c0,1.17,0.4,2.17,1.22,3.02c0.81,0.85,1.8,1.27,2.97,1.27h14.61
		c0.65,0,0.97,0.33,0.97,0.97v50.14c0,1.17,0.42,2.16,1.27,2.97c0.84,0.81,1.85,1.22,3.02,1.22h4.19c1.17,0,2.16-0.4,2.97-1.22
		c0.81-0.81,1.22-1.8,1.22-2.97v-50.14c0-0.65,0.32-0.97,0.97-0.97h14.61c1.17,0,2.17-0.42,3.02-1.27c0.84-0.84,1.27-1.85,1.27-3.02
		v-3.9c0-1.17-0.42-2.16-1.27-2.97c-0.85-0.81-1.85-1.22-3.02-1.22H181.88L181.88,488.7z M248.68,488.7c-1.17,0-2.16,0.41-2.97,1.22
		c-0.81,0.81-1.22,1.8-1.22,2.97v59.3c0,1.17,0.41,2.16,1.22,2.97c0.81,0.81,1.8,1.22,2.97,1.22h4.28c0.71,0,1.39-0.18,2.05-0.53
		c0.65-0.36,1.17-0.86,1.56-1.51c0.39-0.65,0.58-1.36,0.58-2.14v-59.3c0-1.17-0.42-2.16-1.27-2.97c-0.84-0.81-1.82-1.22-2.92-1.22
		H248.68L248.68,488.7z M276.04,488.7c-1.17,0-2.18,0.41-3.02,1.22c-0.85,0.81-1.27,1.8-1.27,2.97v59.3c0,1.17,0.42,2.16,1.27,2.97
		c0.84,0.81,1.85,1.22,3.02,1.22h4.09c1.17,0,2.17-0.4,3.02-1.22c0.84-0.81,1.27-1.8,1.27-2.97v-16.55c0-0.65,0.32-0.97,0.97-0.97
		h19.57c1.17,0,2.17-0.42,3.02-1.27c0.84-0.84,1.27-1.85,1.27-3.02v-4.09c0-1.17-0.42-2.17-1.27-3.02
		c-0.84-0.84-1.85-1.27-3.02-1.27h-19.57c-0.65,0-0.97-0.32-0.97-0.97v-18.69c0-0.65,0.32-0.97,0.97-0.97h25.7
		c1.17,0,2.17-0.42,3.02-1.27c0.84-0.84,1.27-1.85,1.27-3.02v-4.19c0-0.71-0.19-1.41-0.58-2.09c-0.39-0.68-0.91-1.2-1.56-1.56
		c-0.65-0.36-1.36-0.54-2.14-0.54H276.04L276.04,488.7z M334.16,488.7c-1.17,0-2.16,0.41-2.97,1.22c-0.81,0.81-1.22,1.8-1.22,2.97
		v59.3c0,1.17,0.4,2.16,1.22,2.97c0.81,0.81,1.8,1.22,2.97,1.22h4.28c0.71,0,1.4-0.18,2.04-0.53c0.65-0.36,1.17-0.86,1.56-1.51
		c0.39-0.65,0.58-1.36,0.58-2.14v-59.3c0-1.17-0.42-2.16-1.27-2.97c-0.84-0.81-1.82-1.22-2.92-1.22H334.16L334.16,488.7z
		 M413.62,537.09c-0.91-0.65-1.93-0.92-3.07-0.83c-1.14,0.1-2.06,0.57-2.78,1.41c-1.36,1.56-2.89,2.9-4.58,4.04
		c-1.69,1.14-3.51,2-5.45,2.58c-1.95,0.58-3.96,0.88-6.04,0.88c-5.91,0-10.97-2.21-15.19-6.62c-4.22-4.41-6.33-9.74-6.33-15.97
		c0-6.23,2.11-11.55,6.33-15.97c4.22-4.41,9.28-6.62,15.19-6.62c6.04,0,11.16,2.24,15.38,6.72c0.78,0.85,1.7,1.3,2.77,1.36
		c1.07,0.07,2.03-0.26,2.87-0.97l3.41-2.63c0.97-0.78,1.49-1.79,1.56-3.02c0.13-1.23-0.23-2.3-1.07-3.21
		c-3.31-3.44-7.11-6.09-11.39-7.93c-4.28-1.85-8.8-2.78-13.53-2.78c-6.23,0-11.99,1.56-17.28,4.67c-5.29,3.12-9.48,7.37-12.56,12.76
		c-3.08,5.39-4.62,11.26-4.62,17.62c0,6.36,1.54,12.24,4.62,17.62c3.08,5.39,7.27,9.64,12.56,12.76c5.29,3.11,11.05,4.67,17.28,4.67
		c4.93,0,9.66-1.02,14.17-3.07c4.51-2.05,8.42-4.95,11.73-8.71c0.71-0.91,1.04-1.95,0.97-3.12c-0.13-1.17-0.68-2.14-1.65-2.92
		L413.62,537.09L413.62,537.09z M459.23,485.87c-0.94,0-1.61,0.42-2,1.27l-28.53,63.1c-0.85,1.88-0.49,3.54,1.07,4.97
		c0.78,0.78,1.82,1.17,3.12,1.17h4.09c1.95,0,3.31-0.91,4.09-2.73l2.82-6.72c0.13-0.45,0.42-0.68,0.88-0.68h28.92
		c0.39,0,0.68,0.23,0.88,0.68l2.82,6.72c0.71,1.82,2.08,2.73,4.09,2.73h3.99c1.3,0,2.37-0.39,3.21-1.17
		c1.49-1.43,1.85-3.08,1.07-4.97l-28.53-63.1C460.84,486.3,460.17,485.87,459.23,485.87L459.23,485.87z M450.13,534.17
		c-0.26,0-0.44-0.1-0.54-0.29c-0.1-0.19-0.11-0.39-0.05-0.58l9.05-21.13c0.13-0.26,0.32-0.39,0.58-0.39c0.26,0,0.42,0.13,0.49,0.39
		l9.15,21.13c0.13,0.2,0.13,0.39,0,0.58c-0.13,0.2-0.29,0.29-0.49,0.29H450.13L450.13,534.17z M495.21,488.7
		c-1.17,0-2.16,0.41-2.97,1.22c-0.81,0.81-1.22,1.8-1.22,2.97v3.9c0,1.17,0.4,2.17,1.22,3.02c0.81,0.85,1.8,1.27,2.97,1.27h14.61
		c0.65,0,0.97,0.33,0.97,0.97v50.14c0,1.17,0.42,2.16,1.27,2.97c0.84,0.81,1.85,1.22,3.02,1.22h4.19c1.17,0,2.16-0.4,2.97-1.22
		c0.81-0.81,1.22-1.8,1.22-2.97v-50.14c0-0.65,0.32-0.97,0.97-0.97h14.6c1.17,0,2.17-0.42,3.02-1.27c0.84-0.84,1.27-1.85,1.27-3.02
		v-3.9c0-1.17-0.42-2.16-1.27-2.97c-0.84-0.81-1.85-1.22-3.02-1.22H495.21L495.21,488.7z M562,488.7c-1.17,0-2.16,0.41-2.97,1.22
		c-0.81,0.81-1.22,1.8-1.22,2.97v59.3c0,1.17,0.4,2.16,1.22,2.97c0.81,0.81,1.8,1.22,2.97,1.22h4.28c0.71,0,1.39-0.18,2.04-0.53
		c0.65-0.36,1.17-0.86,1.56-1.51c0.39-0.65,0.58-1.36,0.58-2.14v-59.3c0-1.17-0.42-2.16-1.27-2.97c-0.84-0.81-1.82-1.22-2.92-1.22
		H562L562,488.7z M589.8,504.96c-3.15,5.39-4.72,11.26-4.72,17.62c0,6.36,1.57,12.24,4.72,17.62c3.15,5.39,7.42,9.64,12.8,12.76
		c5.39,3.11,11.25,4.67,17.57,4.67s12.19-1.56,17.57-4.67c5.39-3.12,9.65-7.37,12.8-12.76c3.15-5.39,4.72-11.26,4.72-17.62
		c0-6.36-1.57-12.23-4.72-17.62c-3.15-5.39-7.42-9.64-12.8-12.76c-5.39-3.12-11.25-4.67-17.57-4.67s-12.19,1.56-17.57,4.67
		C597.22,495.32,592.95,499.57,589.8,504.96L589.8,504.96z M620.13,545.17c-6.04,0-11.2-2.21-15.48-6.62
		c-4.28-4.41-6.43-9.74-6.43-15.97c0-6.23,2.14-11.55,6.43-15.97c4.28-4.41,9.44-6.62,15.48-6.62s11.21,2.21,15.53,6.62
		c4.32,4.42,6.47,9.74,6.47,15.97c0,6.23-2.16,11.55-6.47,15.97C631.34,542.97,626.17,545.17,620.13,545.17L620.13,545.17z
		 M711.27,488.79c-1.17,0-2.16,0.42-2.97,1.27c-0.81,0.85-1.22,1.85-1.22,3.02v33.3c0,0.39-0.21,0.68-0.63,0.88
		c-0.42,0.2-0.76,0.13-1.02-0.19l-37.29-39.34c-0.58-0.58-1.25-0.71-2-0.39c-0.75,0.33-1.12,0.88-1.12,1.66v63.09
		c0,1.17,0.4,2.18,1.22,3.02c0.81,0.84,1.8,1.26,2.97,1.26h4.19c1.17,0,2.17-0.42,3.02-1.26c0.84-0.84,1.27-1.85,1.27-3.02v-33.49
		c0-0.45,0.19-0.76,0.58-0.92c0.39-0.16,0.74-0.08,1.07,0.24l37.19,39.24c0.39,0.39,0.84,0.59,1.36,0.59c0.26,0,0.49-0.07,0.68-0.2
		c0.78-0.26,1.17-0.81,1.17-1.65v-62.8c0-1.17-0.42-2.17-1.27-3.02c-0.84-0.84-1.85-1.27-3.02-1.27H711.27L711.27,488.79z"/>
	<path class="st1" d="M55.24,441.38c-0.89-0.64-1.89-0.91-3.01-0.81c-1.11,0.1-2.02,0.56-2.72,1.38c-1.34,1.53-2.83,2.85-4.48,3.96
		c-1.65,1.11-3.43,1.95-5.34,2.53c-1.91,0.57-3.88,0.86-5.91,0.86c-5.79,0-10.75-2.16-14.88-6.49c-4.13-4.32-6.2-9.54-6.2-15.65
		c0-6.1,2.07-11.32,6.2-15.64c4.13-4.32,9.09-6.49,14.88-6.49c5.91,0,10.94,2.19,15.07,6.58c0.76,0.83,1.67,1.27,2.72,1.33
		c1.05,0.07,1.99-0.25,2.81-0.95l3.34-2.58c0.95-0.76,1.46-1.75,1.53-2.96c0.13-1.21-0.22-2.26-1.05-3.15
		c-3.24-3.37-6.96-5.96-11.16-7.77c-4.2-1.81-8.62-2.72-13.26-2.72c-6.11,0-11.75,1.53-16.93,4.58c-5.18,3.05-9.29,7.22-12.31,12.5
		C1.51,415.18,0,420.94,0,427.17c0,6.23,1.51,11.99,4.53,17.27c3.02,5.28,7.12,9.44,12.31,12.5c5.18,3.05,10.83,4.58,16.93,4.58
		c4.83,0,9.46-1,13.88-3.01c4.42-2,8.25-4.85,11.5-8.54c0.7-0.89,1.02-1.91,0.95-3.05c-0.13-1.14-0.67-2.1-1.62-2.86L55.24,441.38
		L55.24,441.38z M83.57,447.87c-0.45,0-0.81-0.14-1.1-0.43c-0.29-0.29-0.43-0.65-0.43-1.1v-48.27c0-0.57-0.11-1.11-0.33-1.62
		c-0.22-0.51-0.52-0.95-0.91-1.34c-0.38-0.38-0.83-0.67-1.34-0.86c-0.51-0.19-1.02-0.29-1.53-0.29h-4.2c-1.14,0-2.12,0.4-2.91,1.19
		c-0.8,0.8-1.19,1.77-1.19,2.91v58.1c0,1.14,0.4,2.12,1.19,2.91c0.79,0.8,1.77,1.19,2.91,1.19h32.43c1.15,0,2.11-0.4,2.91-1.19
		c0.79-0.79,1.19-1.76,1.19-2.91v-4.1c0-1.14-0.4-2.13-1.19-2.96c-0.8-0.83-1.76-1.24-2.91-1.24H83.57L83.57,447.87z M124.44,409.9
		c-3.09,5.28-4.63,11.03-4.63,17.27c0,6.23,1.54,11.99,4.63,17.27c3.08,5.28,7.26,9.44,12.54,12.5c5.28,3.05,11.02,4.58,17.22,4.58
		s11.94-1.53,17.22-4.58c5.28-3.05,9.46-7.22,12.55-12.5c3.08-5.28,4.63-11.03,4.63-17.27c0-6.23-1.54-11.99-4.63-17.27
		c-3.09-5.28-7.27-9.45-12.55-12.5c-5.28-3.05-11.02-4.58-17.22-4.58s-11.94,1.53-17.22,4.58
		C131.71,400.46,127.53,404.62,124.44,409.9L124.44,409.9z M154.16,449.3c-5.91,0-10.97-2.16-15.17-6.49
		c-4.2-4.32-6.3-9.54-6.3-15.65c0-6.1,2.1-11.32,6.3-15.64c4.2-4.32,9.25-6.49,15.17-6.49c5.92,0,10.99,2.16,15.22,6.49
		c4.23,4.33,6.34,9.54,6.34,15.64c0,6.11-2.11,11.32-6.34,15.65C165.15,447.14,160.08,449.3,154.16,449.3L154.16,449.3z
		 M241.16,393.97c-1.15,0-2.13,0.4-2.96,1.19c-0.83,0.8-1.24,1.77-1.24,2.91v39.02c0,3.24-1.14,6.01-3.43,8.3
		c-2.29,2.29-5.06,3.43-8.3,3.43h-3.34c-3.24,0-6.01-1.14-8.3-3.43c-2.29-2.29-3.43-5.06-3.43-8.3v-39.02
		c0-1.15-0.41-2.11-1.24-2.91c-0.83-0.79-1.81-1.19-2.96-1.19h-3.72c-1.08,0-2.04,0.4-2.86,1.19c-0.83,0.8-1.24,1.77-1.24,2.91v39.3
		c0,6.3,2.24,11.69,6.72,16.17c4.48,4.48,9.9,6.73,16.26,6.73h4.87c6.36,0,11.78-2.24,16.27-6.73c4.48-4.48,6.72-9.87,6.72-16.17
		v-39.3c0-1.15-0.41-2.11-1.24-2.91c-0.83-0.79-1.81-1.19-2.96-1.19H241.16L241.16,393.97z M267.2,393.97
		c-1.08,0-2.04,0.4-2.86,1.19c-0.83,0.8-1.24,1.77-1.24,2.91v58.1c0,1.14,0.41,2.12,1.24,2.91c0.83,0.8,1.78,1.19,2.86,1.19h17.27
		c5.79,0,11.13-1.42,16.03-4.25c4.9-2.83,8.76-6.69,11.59-11.59c2.83-4.9,4.24-10.24,4.24-16.03v-2.58c0-5.79-1.42-11.13-4.24-16.03
		c-2.83-4.9-6.69-8.76-11.59-11.59c-4.9-2.83-10.24-4.25-16.03-4.25H267.2L267.2,393.97z M304.22,427.93
		c0,6.04-2.15,11.21-6.44,15.5c-4.29,4.29-9.46,6.44-15.5,6.44h-5.82c-0.64,0-0.95-0.35-0.95-1.05v-43.4c0-0.7,0.32-1.05,0.95-1.05
		h4.29c6.49,0,12.02,2.29,16.6,6.87c4.58,4.58,6.87,10.11,6.87,16.6V427.93L304.22,427.93z M370.78,421.45
		c-3.43-1.4-5.88-2.54-7.35-3.44c-4.96-2.92-7.03-5.88-6.2-8.87c0.44-1.4,1.3-2.61,2.58-3.63c1.27-1.02,2.42-1.56,3.43-1.62
		c2.54-0.13,4.53,0.03,5.96,0.48c1.43,0.45,3.07,1.53,4.91,3.24c0.76,0.7,1.65,1.07,2.67,1.1c1.02,0.03,1.94-0.24,2.77-0.81l2.58-2
		c1.02-0.76,1.56-1.8,1.62-3.1c0.06-1.3-0.38-2.4-1.33-3.29c-5.09-4.83-11.45-7.25-19.08-7.25c-3.88,0-7.41,1.26-10.59,3.77
		c-3.18,2.51-5.34,5.8-6.49,9.87c-0.7,2.23-0.94,4.36-0.72,6.39c0.22,2.04,0.64,3.85,1.24,5.44c0.6,1.59,1.51,3.1,2.72,4.53
		c1.21,1.43,2.42,2.64,3.62,3.62c1.21,0.99,2.54,1.89,4.01,2.72c1.97,1.21,4.96,2.64,8.97,4.29c4.58,1.85,7.54,3.37,8.87,4.58
		c1.34,1.21,1.88,3.02,1.62,5.44c-0.13,1.65-0.62,3.07-1.48,4.24c-0.86,1.18-1.91,1.99-3.15,2.43c-1.24,0.44-2.29,0.75-3.15,0.91
		c-0.86,0.16-1.7,0.24-2.53,0.24c-5.03,0-9.51-2.29-13.45-6.87c-0.7-0.83-1.59-1.3-2.67-1.43c-1.08-0.13-2.07,0.1-2.96,0.67
		l-2.48,1.81c-1.02,0.7-1.59,1.62-1.72,2.77c-0.19,1.21,0.06,2.29,0.76,3.24c1.59,2.1,3.34,3.91,5.25,5.44
		c1.91,1.53,3.59,2.66,5.06,3.39c1.46,0.73,3.11,1.29,4.96,1.67c1.84,0.38,3.19,0.6,4.05,0.67c0.86,0.06,1.89,0.1,3.1,0.1
		c1.34,0,2.83-0.14,4.48-0.43c1.65-0.29,3.51-0.86,5.58-1.72c2.07-0.86,3.96-1.92,5.68-3.19c1.72-1.27,3.23-3.02,4.53-5.25
		c1.3-2.23,2.11-4.77,2.43-7.63c0.19-1.97,0.13-3.85-0.19-5.63c-0.32-1.78-0.76-3.31-1.34-4.58c-0.57-1.27-1.42-2.51-2.53-3.72
		c-1.11-1.21-2.13-2.18-3.05-2.91c-0.92-0.73-2.16-1.51-3.72-2.34c-1.56-0.83-2.75-1.42-3.58-1.77c-0.83-0.35-2-0.84-3.53-1.48
		L370.78,421.45L370.78,421.45z M402.64,393.97c-1.15,0-2.12,0.4-2.91,1.19c-0.8,0.8-1.19,1.77-1.19,2.91v58.1
		c0,1.14,0.4,2.12,1.19,2.91c0.79,0.8,1.76,1.19,2.91,1.19h34.44c1.14,0,2.13-0.4,2.96-1.19c0.83-0.79,1.24-1.76,1.24-2.91v-4.1
		c0-1.14-0.41-2.13-1.24-2.96c-0.83-0.83-1.81-1.24-2.96-1.24H411.9c-0.64,0-0.95-0.32-0.95-0.95v-6.96c0-0.64,0.32-0.95,0.95-0.95
		h19.17c1.15,0,2.13-0.4,2.96-1.19c0.83-0.79,1.24-1.77,1.24-2.91v-4.1c0-1.15-0.42-2.13-1.24-2.96c-0.83-0.83-1.81-1.24-2.96-1.24
		H411.9c-0.64,0-0.95-0.32-0.95-0.95v-18.32c0-0.64,0.32-0.95,0.95-0.95h25.19c1.14,0,2.13-0.41,2.96-1.24
		c0.83-0.83,1.24-1.81,1.24-2.96v-4.1c0-1.15-0.41-2.11-1.24-2.91c-0.83-0.79-1.81-1.19-2.96-1.19H402.64L402.64,393.97z
		 M454.83,393.97c-1.14,0-2.12,0.4-2.91,1.19c-0.8,0.8-1.19,1.77-1.19,2.91v58.1c0,1.14,0.4,2.12,1.19,2.91
		c0.79,0.8,1.77,1.19,2.91,1.19h4.1c1.14,0,2.13-0.4,2.96-1.19c0.83-0.79,1.24-1.76,1.24-2.91v-9.83c0-0.63,0.32-0.95,0.95-0.95
		h6.58c0.44,0,0.89,0,1.34,0c0.38,0,0.67,0.13,0.86,0.38l9.06,12.78c0.83,1.15,1.94,1.72,3.34,1.72h5.06c1.46,0,2.61-0.51,3.43-1.53
		c1.27-1.65,1.3-3.31,0.1-4.96l-8.4-11.83c-0.32-0.57-0.22-1.02,0.29-1.34c3.37-2.42,5.99-5.47,7.87-9.16
		c1.88-3.69,2.81-7.6,2.81-11.73v-1.24c0-6.74-2.4-12.51-7.2-17.31c-4.8-4.8-10.61-7.2-17.41-7.2H454.83L454.83,393.97z
		 M484.02,420.4c0,3.82-1.37,7.09-4.1,9.83c-2.73,2.74-6.01,4.1-9.83,4.1h-6.01c-0.64,0-0.95-0.32-0.95-0.95v-27.38
		c0-0.63,0.32-0.95,0.95-0.95h6.68c3.69,0,6.82,1.3,9.4,3.91c2.58,2.61,3.86,5.72,3.86,9.35V420.4L484.02,420.4z M557.95,394.07
		c-1.97,0-3.31,0.89-4.01,2.67l-7.25,17.46l-9.73,21.08c-0.13,0.38-0.4,0.57-0.81,0.57c-0.42,0-0.72-0.19-0.91-0.57l-9.63-21.08
		l-7.25-17.46c-0.76-1.78-2.13-2.67-4.1-2.67h-3.91c-1.27,0-2.29,0.38-3.05,1.15c-1.53,1.4-1.88,3.05-1.05,4.96l28.24,62.77
		c0.32,0.7,0.87,1.05,1.67,1.05c0.79,0,1.35-0.35,1.67-1.05l28.14-62.77c0.83-1.91,0.51-3.56-0.95-4.96
		c-0.83-0.76-1.88-1.15-3.15-1.15H557.95L557.95,394.07z M584.75,393.97c-1.14,0-2.11,0.4-2.91,1.19c-0.8,0.8-1.19,1.77-1.19,2.91
		v58.1c0,1.14,0.4,2.12,1.19,2.91c0.79,0.8,1.77,1.19,2.91,1.19h4.2c0.7,0,1.37-0.17,2-0.53c0.64-0.35,1.15-0.84,1.53-1.48
		c0.38-0.63,0.57-1.34,0.57-2.1v-58.1c0-1.15-0.41-2.11-1.24-2.91c-0.83-0.79-1.78-1.19-2.86-1.19H584.75L584.75,393.97z
		 M662.59,441.38c-0.89-0.64-1.89-0.91-3-0.81c-1.11,0.1-2.02,0.56-2.72,1.38c-1.34,1.53-2.83,2.85-4.48,3.96
		c-1.66,1.11-3.43,1.95-5.34,2.53c-1.91,0.57-3.88,0.86-5.92,0.86c-5.79,0-10.75-2.16-14.88-6.49c-4.13-4.32-6.2-9.54-6.2-15.65
		c0-6.1,2.07-11.32,6.2-15.64c4.13-4.32,9.09-6.49,14.88-6.49c5.92,0,10.94,2.19,15.07,6.58c0.76,0.83,1.67,1.27,2.72,1.33
		c1.05,0.07,1.99-0.25,2.81-0.95l3.34-2.58c0.95-0.76,1.46-1.75,1.53-2.96c0.13-1.21-0.22-2.26-1.05-3.15
		c-3.24-3.37-6.96-5.96-11.16-7.77c-4.2-1.81-8.62-2.72-13.26-2.72c-6.1,0-11.75,1.53-16.93,4.58c-5.18,3.05-9.29,7.22-12.31,12.5
		c-3.02,5.28-4.53,11.03-4.53,17.27c0,6.23,1.51,11.99,4.53,17.27c3.02,5.28,7.12,9.44,12.31,12.5c5.18,3.05,10.83,4.58,16.93,4.58
		c4.83,0,9.46-1,13.88-3.01c4.42-2,8.25-4.85,11.5-8.54c0.7-0.89,1.02-1.91,0.95-3.05c-0.13-1.14-0.67-2.1-1.62-2.86L662.59,441.38
		L662.59,441.38z M681.1,393.97c-1.15,0-2.11,0.4-2.91,1.19c-0.8,0.8-1.19,1.77-1.19,2.91v58.1c0,1.14,0.4,2.12,1.19,2.91
		c0.79,0.8,1.76,1.19,2.91,1.19h34.44c1.14,0,2.13-0.4,2.96-1.19c0.83-0.79,1.24-1.76,1.24-2.91v-4.1c0-1.14-0.41-2.13-1.24-2.96
		c-0.83-0.83-1.81-1.24-2.96-1.24h-25.19c-0.64,0-0.95-0.32-0.95-0.95v-6.96c0-0.64,0.32-0.95,0.95-0.95h19.18
		c1.15,0,2.13-0.4,2.96-1.19c0.83-0.79,1.24-1.77,1.24-2.91v-4.1c0-1.15-0.41-2.13-1.24-2.96c-0.83-0.83-1.81-1.24-2.96-1.24h-19.18
		c-0.64,0-0.95-0.32-0.95-0.95v-18.32c0-0.64,0.32-0.95,0.95-0.95h25.19c1.14,0,2.13-0.41,2.96-1.24c0.83-0.83,1.24-1.81,1.24-2.96
		v-4.1c0-1.15-0.41-2.11-1.24-2.91c-0.83-0.79-1.81-1.19-2.96-1.19H681.1L681.1,393.97z"/>
	<path class="st2" d="M473.12,183.03L473.12,183.03z M476.55,192.47L476.55,192.47z M482.78,224.48L482.78,224.48z M612.4,283.82
		c0-29.97-24.3-54.26-54.26-54.26c-2.08,0-4.13,0.14-6.16,0.37c0.21-2.83,0.34-5.67,0.34-8.55c0-58.05-41.73-106.17-96.38-115.17
		v46.04c6.35,8.52,13.29,21.79,11.86,19.03c31.66,12.73,54.09,44.04,54.09,80.73c0,2.14-0.1,4.26-0.25,6.36
		c1.51-0.17,3.03-0.28,4.58-0.28c22.31,0,40.39,18.08,40.39,40.39c0,19.6-13.96,35.92-32.47,39.6c0,0,22.04,0,24.01,0
		C588.1,338.08,612.4,313.79,612.4,283.82L612.4,283.82z"/>
	<path class="st0" d="M395.58,130.87c-15.6-7.52-32.36-11.34-49.82-11.34h-9.6c-17.46,0-34.22,3.81-49.82,11.34l-7.35,3.55v-8.17
		v-26.19c0-16.55,6.45-32.12,18.15-43.82c11.7-11.71,27.27-18.15,43.82-18.15c34.17,0,61.97,27.8,61.97,61.97v26.19v8.17
		L395.58,130.87L395.58,130.87z M318.91,237.58c-8.84-6.79-14.19-17.43-14.19-28.67c0-19.92,16.21-36.14,36.14-36.14
		c19.92,0,36.13,16.21,36.13,36.14c0,10.99-4.92,21.18-13.34,28.01c4.4,11.21,8.81,22.41,13.21,33.62l2.75,7h-7.52h-59.93h-7.22
		l2.39-6.82C311.18,259.67,315.04,248.62,318.91,237.58 M470.87,332.96v-98.57c0-28.28-9.66-55.88-27.25-77.95V98.91
		C443.62,44.37,399.25,0,344.72,0h-7.5c-54.54,0-98.91,44.37-98.91,98.91v57.53c-17.59,22.06-27.25,49.67-27.25,77.95v98.57v5.13
		h5.13h249.56h5.13V332.96L470.87,332.96z"/>
	<path class="st1" d="M226,152.25L226,152.25C208.4,175.86,208.4,175.86,226,152.25L226,152.25z M226,145.31v-22.36
		c-2.17-0.29-4.37-0.46-6.62-0.46c-25.38,0-46.18,19.47-48.36,44.28c-6.75-1.68-13.8-2.58-21.07-2.58
		c-48.02,0-86.95,38.93-86.95,86.95c0,47.72,38.45,86.45,86.06,86.93v0.02h49.68v0h-15.32v-0.02
		c-42.29-0.43-76.45-34.83-76.45-77.22c0-42.66,34.58-77.24,77.24-77.24c6.46,0,12.72,0.8,18.71,2.3
		C190.39,167.12,209.81,144.44,226,145.31L226,145.31z"/>
	<path class="st2" d="M226,152.25c0,0,0-6.08,0-6.94c-16.19-0.87-35.61,21.81-23.07,40.59c-5.99-1.49-12.26-2.3-18.71-2.3
		c-42.66,0-77.24,34.58-77.24,77.24c0,42.39,34.16,76.79,76.45,77.22v0.02h15.32v-0.34c-26.43-5.18-46.38-28.42-46.38-56.37
		c0-28.08,20.15-51.43,46.77-56.46C200.96,198.71,210.28,173.33,226,152.25L226,152.25z"/>
	<path class="st3" d="M199.13,224.92c-26.62,5.03-46.77,28.37-46.77,56.46c0,27.95,19.95,51.19,46.38,56.37v-4.79v-98.57
		C198.75,231.22,198.91,228.07,199.13,224.92L199.13,224.92z"/>
	<path class="st1" d="M656.73,277c0-33.74-27.35-61.09-61.09-61.09c-2.35,0-4.65,0.16-6.93,0.42c0.24-3.18,0.38-6.39,0.38-9.62
		c0-72.56-57.92-131.38-129.36-131.38c-2.12,0-4.22,0.06-6.31,0.16c1.63,7.56,2.5,15.38,2.5,23.42v7.3
		c54.65,9,96.38,57.13,96.38,115.17c0,2.88-0.13,5.72-0.34,8.55c2.02-0.23,4.07-0.37,6.16-0.37c29.97,0,54.26,24.29,54.26,54.26
		c0,29.96-24.29,54.25-54.25,54.26c0,0,35.28,0,37.5,0C629.38,338.08,656.73,310.73,656.73,277L656.73,277z M558.11,338.08
		L558.11,338.08z"/>
	<path class="st3" d="M566.6,298.48c0-22.31-18.08-40.39-40.39-40.39c-1.55,0-3.08,0.11-4.58,0.28c0.16-2.1,0.25-4.22,0.25-6.36
		c0-36.69-22.43-67.99-54.09-80.73c10.01,19.41,15.39,41.11,15.39,63.11v98.57v5.13v0h50.95C552.64,334.4,566.6,318.08,566.6,298.48
		L566.6,298.48z"/>
</g>
</svg>
