<?xml version="1.0" encoding="utf-8"?>
<!-- Generator: Adobe Illustrator 24.1.0, SVG Export Plug-In . SVG Version: 6.00 Build 0)  -->
<svg version="1.1" id="Layer_1" xmlns="http://www.w3.org/2000/svg" xmlns:xlink="http://www.w3.org/1999/xlink" x="0px" y="0px"
	 viewBox="0 0 720 507.29" style="enable-background:new 0 0 720 507.29;" xml:space="preserve">
<style type="text/css">
	.st0{fill:#F05323;}
	.st1{fill:#19BFD2;}
	.st2{fill:#8ED5E1;}
	.st3{fill:#B4E2EA;}
	.st4{fill:#6CCBDB;}
</style>
<g>
	<path class="st0" d="M89.19,488.88c-0.81-0.58-1.72-0.83-2.74-0.74c-1.01,0.09-1.84,0.51-2.48,1.26c-1.22,1.39-2.58,2.59-4.08,3.6
		c-1.51,1.01-3.13,1.78-4.87,2.3c-1.74,0.52-3.53,0.78-5.39,0.78c-5.27,0-9.79-1.97-13.55-5.91c-3.77-3.94-5.65-8.69-5.65-14.25
		c0-5.56,1.88-10.31,5.65-14.25c3.76-3.94,8.28-5.91,13.55-5.91c5.39,0,9.96,2,13.73,5.99c0.7,0.75,1.52,1.16,2.48,1.22
		c0.96,0.06,1.81-0.23,2.56-0.87l3.04-2.35c0.87-0.69,1.33-1.59,1.39-2.69c0.11-1.1-0.2-2.05-0.96-2.87
		c-2.95-3.07-6.34-5.43-10.16-7.08c-3.82-1.65-7.85-2.48-12.08-2.48c-5.56,0-10.7,1.39-15.42,4.17c-4.72,2.78-8.46,6.58-11.21,11.38
		c-2.75,4.81-4.13,10.05-4.13,15.73c0,5.68,1.38,10.92,4.13,15.72c2.75,4.81,6.49,8.6,11.21,11.38c4.72,2.78,9.86,4.17,15.42,4.17
		c4.4,0,8.62-0.91,12.64-2.74c4.03-1.82,7.52-4.42,10.47-7.78c0.64-0.81,0.93-1.74,0.87-2.78c-0.12-1.04-0.61-1.91-1.48-2.61
		L89.19,488.88L89.19,488.88z M106.04,445.69c-1.04,0-1.93,0.36-2.65,1.09c-0.73,0.72-1.09,1.61-1.09,2.65v52.91
		c0,1.04,0.36,1.93,1.09,2.65c0.72,0.73,1.61,1.09,2.65,1.09h31.36c1.04,0,1.94-0.36,2.69-1.09c0.75-0.72,1.13-1.61,1.13-2.65v-3.74
		c0-1.04-0.38-1.94-1.13-2.69c-0.75-0.75-1.65-1.13-2.69-1.13h-22.94c-0.58,0-0.87-0.29-0.87-0.87v-6.34c0-0.58,0.29-0.87,0.87-0.87
		h17.46c1.04,0,1.94-0.36,2.69-1.09c0.75-0.72,1.13-1.61,1.13-2.65v-3.74c0-1.04-0.38-1.94-1.13-2.69
		c-0.75-0.75-1.65-1.13-2.69-1.13h-17.46c-0.58,0-0.87-0.29-0.87-0.87v-16.68c0-0.58,0.29-0.87,0.87-0.87h22.94
		c1.04,0,1.94-0.38,2.69-1.13c0.75-0.75,1.13-1.65,1.13-2.69v-3.74c0-1.04-0.38-1.92-1.13-2.65c-0.75-0.72-1.65-1.09-2.69-1.09
		H106.04L106.04,445.69z M153.56,445.69c-1.04,0-1.93,0.36-2.65,1.09c-0.72,0.72-1.09,1.61-1.09,2.65v52.91
		c0,1.04,0.36,1.93,1.09,2.65c0.72,0.73,1.61,1.09,2.65,1.09h3.74c1.04,0,1.94-0.36,2.69-1.09c0.75-0.72,1.13-1.61,1.13-2.65v-8.95
		c0-0.58,0.29-0.87,0.87-0.87h6c0.4,0,0.81,0,1.22,0c0.35,0,0.61,0.12,0.78,0.35l8.25,11.64c0.75,1.04,1.77,1.56,3.04,1.56h4.6
		c1.33,0,2.37-0.46,3.13-1.39c1.16-1.51,1.19-3.01,0.09-4.52l-7.65-10.77c-0.29-0.52-0.2-0.93,0.26-1.22
		c3.07-2.2,5.46-4.98,7.17-8.34c1.71-3.36,2.56-6.92,2.56-10.69v-1.13c0-6.14-2.19-11.39-6.56-15.77
		c-4.37-4.37-9.66-6.56-15.86-6.56H153.56L153.56,445.69z M180.15,469.76c0,3.48-1.25,6.46-3.74,8.95
		c-2.49,2.49-5.47,3.74-8.95,3.74h-5.47c-0.58,0-0.87-0.29-0.87-0.87v-24.93c0-0.58,0.29-0.87,0.87-0.87h6.08
		c3.36,0,6.21,1.19,8.56,3.56c2.35,2.38,3.52,5.21,3.52,8.52V469.76L180.15,469.76z M201.18,445.69c-1.04,0-1.93,0.36-2.65,1.09
		c-0.73,0.72-1.09,1.61-1.09,2.65v3.48c0,1.04,0.36,1.94,1.09,2.69c0.72,0.75,1.61,1.13,2.65,1.13h13.03c0.58,0,0.87,0.29,0.87,0.87
		v44.74c0,1.04,0.38,1.93,1.13,2.65c0.75,0.73,1.65,1.09,2.69,1.09h3.74c1.04,0,1.93-0.36,2.65-1.09c0.72-0.72,1.09-1.61,1.09-2.65
		V457.6c0-0.58,0.29-0.87,0.87-0.87h13.03c1.04,0,1.94-0.38,2.69-1.13c0.75-0.75,1.13-1.65,1.13-2.69v-3.48
		c0-1.04-0.38-1.92-1.13-2.65c-0.75-0.72-1.65-1.09-2.69-1.09H201.18L201.18,445.69z M260.78,445.69c-1.04,0-1.93,0.36-2.65,1.09
		c-0.73,0.72-1.09,1.61-1.09,2.65v52.91c0,1.04,0.36,1.93,1.09,2.65c0.72,0.73,1.61,1.09,2.65,1.09h3.82c0.64,0,1.24-0.16,1.83-0.48
		c0.58-0.32,1.04-0.77,1.39-1.35c0.35-0.58,0.52-1.22,0.52-1.91v-52.91c0-1.04-0.38-1.92-1.13-2.65c-0.75-0.72-1.62-1.09-2.61-1.09
		H260.78L260.78,445.69z M285.19,445.69c-1.04,0-1.94,0.36-2.69,1.09c-0.75,0.72-1.13,1.61-1.13,2.65v52.91
		c0,1.04,0.38,1.93,1.13,2.65c0.75,0.73,1.65,1.09,2.69,1.09h3.65c1.04,0,1.94-0.36,2.69-1.09c0.75-0.72,1.13-1.61,1.13-2.65v-14.77
		c0-0.58,0.29-0.87,0.87-0.87h17.46c1.04,0,1.94-0.38,2.69-1.13c0.75-0.75,1.13-1.65,1.13-2.69v-3.65c0-1.04-0.38-1.94-1.13-2.69
		c-0.75-0.75-1.65-1.13-2.69-1.13h-17.46c-0.58,0-0.87-0.29-0.87-0.87v-16.68c0-0.58,0.29-0.87,0.87-0.87h22.94
		c1.04,0,1.94-0.38,2.69-1.13c0.75-0.75,1.13-1.65,1.13-2.69v-3.74c0-0.64-0.17-1.26-0.52-1.87c-0.35-0.61-0.81-1.07-1.39-1.39
		c-0.58-0.32-1.22-0.48-1.91-0.48H285.19L285.19,445.69z M337.06,445.69c-1.04,0-1.93,0.36-2.65,1.09
		c-0.73,0.72-1.09,1.61-1.09,2.65v52.91c0,1.04,0.36,1.93,1.09,2.65c0.72,0.73,1.61,1.09,2.65,1.09h3.82c0.64,0,1.24-0.16,1.82-0.48
		c0.58-0.32,1.04-0.77,1.39-1.35c0.35-0.58,0.52-1.22,0.52-1.91v-52.91c0-1.04-0.38-1.92-1.13-2.65c-0.75-0.72-1.62-1.09-2.61-1.09
		H337.06L337.06,445.69z M407.95,488.88c-0.81-0.58-1.72-0.83-2.74-0.74c-1.01,0.09-1.84,0.51-2.48,1.26
		c-1.22,1.39-2.58,2.59-4.08,3.6c-1.51,1.01-3.13,1.78-4.87,2.3c-1.74,0.52-3.53,0.78-5.39,0.78c-5.27,0-9.79-1.97-13.55-5.91
		c-3.77-3.94-5.65-8.69-5.65-14.25c0-5.56,1.88-10.31,5.65-14.25c3.76-3.94,8.28-5.91,13.55-5.91c5.39,0,9.96,2,13.73,5.99
		c0.7,0.75,1.52,1.16,2.48,1.22c0.95,0.06,1.81-0.23,2.56-0.87l3.04-2.35c0.87-0.69,1.33-1.59,1.39-2.69
		c0.12-1.1-0.2-2.05-0.96-2.87c-2.95-3.07-6.34-5.43-10.17-7.08c-3.82-1.65-7.85-2.48-12.08-2.48c-5.56,0-10.7,1.39-15.42,4.17
		c-4.72,2.78-8.46,6.58-11.21,11.38c-2.75,4.81-4.13,10.05-4.13,15.73c0,5.68,1.38,10.92,4.13,15.72c2.75,4.81,6.49,8.6,11.21,11.38
		c4.72,2.78,9.86,4.17,15.42,4.17c4.4,0,8.62-0.91,12.64-2.74c4.03-1.82,7.52-4.42,10.47-7.78c0.64-0.81,0.93-1.74,0.87-2.78
		c-0.12-1.04-0.61-1.91-1.48-2.61L407.95,488.88L407.95,488.88z M448.66,443.18c-0.84,0-1.43,0.38-1.78,1.13l-25.46,56.3
		c-0.75,1.68-0.43,3.16,0.96,4.43c0.7,0.69,1.62,1.04,2.78,1.04h3.65c1.74,0,2.95-0.81,3.65-2.43l2.52-6
		c0.12-0.4,0.38-0.61,0.78-0.61h25.8c0.35,0,0.61,0.2,0.78,0.61l2.52,6c0.64,1.62,1.85,2.43,3.65,2.43h3.56
		c1.16,0,2.11-0.35,2.87-1.04c1.33-1.27,1.65-2.75,0.96-4.43l-25.46-56.3C450.09,443.55,449.5,443.18,448.66,443.18L448.66,443.18z
		 M440.53,486.27c-0.23,0-0.39-0.09-0.48-0.26c-0.09-0.17-0.1-0.35-0.04-0.52l8.08-18.85c0.11-0.23,0.29-0.35,0.52-0.35
		c0.23,0,0.38,0.12,0.43,0.35l8.17,18.85c0.11,0.17,0.11,0.35,0,0.52c-0.12,0.17-0.26,0.26-0.43,0.26H440.53L440.53,486.27z
		 M480.76,445.69c-1.04,0-1.93,0.36-2.65,1.09c-0.72,0.72-1.09,1.61-1.09,2.65v3.48c0,1.04,0.36,1.94,1.09,2.69
		c0.72,0.75,1.61,1.13,2.65,1.13h13.03c0.58,0,0.87,0.29,0.87,0.87v44.74c0,1.04,0.38,1.93,1.13,2.65c0.75,0.73,1.65,1.09,2.69,1.09
		h3.74c1.04,0,1.93-0.36,2.65-1.09c0.72-0.72,1.09-1.61,1.09-2.65V457.6c0-0.58,0.29-0.87,0.87-0.87h13.03
		c1.04,0,1.94-0.38,2.69-1.13c0.75-0.75,1.13-1.65,1.13-2.69v-3.48c0-1.04-0.38-1.92-1.13-2.65c-0.75-0.72-1.65-1.09-2.69-1.09
		H480.76L480.76,445.69z M540.36,445.69c-1.04,0-1.93,0.36-2.65,1.09c-0.72,0.72-1.09,1.61-1.09,2.65v52.91
		c0,1.04,0.36,1.93,1.09,2.65c0.72,0.73,1.61,1.09,2.65,1.09h3.82c0.64,0,1.24-0.16,1.82-0.48c0.58-0.32,1.04-0.77,1.39-1.35
		c0.35-0.58,0.52-1.22,0.52-1.91v-52.91c0-1.04-0.38-1.92-1.13-2.65c-0.75-0.72-1.62-1.09-2.61-1.09H540.36L540.36,445.69z
		 M565.16,460.2c-2.81,4.81-4.21,10.05-4.21,15.73c0,5.68,1.4,10.92,4.21,15.72c2.81,4.81,6.62,8.6,11.43,11.38
		c4.81,2.78,10.04,4.17,15.68,4.17c5.65,0,10.87-1.39,15.68-4.17c4.81-2.78,8.61-6.57,11.43-11.38c2.81-4.81,4.21-10.05,4.21-15.72
		c0-5.68-1.41-10.92-4.21-15.73c-2.81-4.81-6.62-8.6-11.43-11.38c-4.81-2.78-10.04-4.17-15.68-4.17c-5.65,0-10.88,1.39-15.68,4.17
		C571.78,451.6,567.97,455.4,565.16,460.2L565.16,460.2z M592.23,496.09c-5.39,0-9.99-1.97-13.81-5.91
		c-3.82-3.94-5.74-8.69-5.74-14.25c0-5.56,1.91-10.31,5.74-14.25c3.82-3.94,8.43-5.91,13.81-5.91c5.39,0,10,1.97,13.86,5.91
		c3.85,3.94,5.78,8.69,5.78,14.25c0,5.56-1.93,10.31-5.78,14.25C602.23,494.12,597.61,496.09,592.23,496.09L592.23,496.09z
		 M673.55,445.78c-1.04,0-1.93,0.38-2.65,1.13c-0.72,0.75-1.09,1.65-1.09,2.69v29.71c0,0.35-0.19,0.61-0.56,0.78
		c-0.38,0.17-0.68,0.12-0.91-0.17l-33.28-35.1c-0.52-0.52-1.12-0.64-1.78-0.35c-0.67,0.29-1,0.78-1,1.48v56.3
		c0,1.04,0.36,1.94,1.09,2.69c0.72,0.75,1.61,1.13,2.65,1.13h3.74c1.04,0,1.94-0.38,2.69-1.13c0.75-0.75,1.13-1.65,1.13-2.69v-29.89
		c0-0.4,0.17-0.68,0.52-0.83c0.35-0.14,0.67-0.07,0.96,0.22l33.19,35.01c0.35,0.35,0.75,0.52,1.22,0.52c0.23,0,0.44-0.06,0.61-0.17
		c0.69-0.23,1.04-0.72,1.04-1.48V449.6c0-1.04-0.38-1.94-1.13-2.69c-0.75-0.75-1.65-1.13-2.69-1.13H673.55L673.55,445.78z"/>
	<path class="st1" d="M50.31,401.99c-0.81-0.58-1.72-0.83-2.74-0.74c-1.01,0.09-1.84,0.51-2.48,1.26c-1.22,1.39-2.58,2.59-4.08,3.6
		c-1.51,1.02-3.13,1.78-4.87,2.3c-1.74,0.52-3.53,0.78-5.39,0.78c-5.27,0-9.79-1.97-13.55-5.91c-3.77-3.94-5.65-8.69-5.65-14.25
		c0-5.56,1.88-10.31,5.65-14.25c3.76-3.94,8.28-5.91,13.55-5.91c5.39,0,9.96,2,13.73,5.99c0.7,0.75,1.52,1.16,2.48,1.22
		c0.96,0.06,1.81-0.23,2.56-0.87l3.04-2.35c0.87-0.69,1.33-1.59,1.39-2.69c0.12-1.1-0.2-2.05-0.96-2.87
		c-2.95-3.07-6.34-5.43-10.17-7.08c-3.82-1.65-7.85-2.48-12.08-2.48c-5.56,0-10.7,1.39-15.42,4.17c-4.72,2.78-8.46,6.57-11.21,11.38
		C1.38,378.13,0,383.37,0,389.05c0,5.68,1.38,10.92,4.13,15.73c2.75,4.81,6.49,8.6,11.21,11.38c4.72,2.78,9.86,4.17,15.42,4.17
		c4.4,0,8.61-0.91,12.64-2.74c4.03-1.83,7.52-4.42,10.47-7.78c0.64-0.81,0.93-1.74,0.87-2.78c-0.12-1.04-0.61-1.91-1.48-2.61
		L50.31,401.99L50.31,401.99z M76.11,407.9c-0.41,0-0.74-0.13-1-0.39c-0.26-0.26-0.39-0.59-0.39-1v-43.96c0-0.52-0.1-1.01-0.3-1.48
		c-0.2-0.46-0.48-0.87-0.83-1.22c-0.35-0.35-0.75-0.61-1.22-0.78c-0.46-0.17-0.93-0.26-1.39-0.26h-3.82c-1.04,0-1.93,0.36-2.65,1.09
		c-0.72,0.72-1.09,1.61-1.09,2.65v52.91c0,1.04,0.36,1.93,1.09,2.65c0.72,0.73,1.61,1.09,2.65,1.09H96.7c1.04,0,1.93-0.36,2.65-1.09
		c0.72-0.72,1.09-1.61,1.09-2.65v-3.74c0-1.04-0.36-1.94-1.09-2.69c-0.72-0.75-1.61-1.13-2.65-1.13H76.11L76.11,407.9z
		 M113.34,373.32c-2.81,4.81-4.21,10.05-4.21,15.73c0,5.68,1.4,10.92,4.21,15.73c2.81,4.81,6.62,8.6,11.42,11.38
		c4.81,2.78,10.04,4.17,15.68,4.17c5.65,0,10.87-1.39,15.68-4.17c4.81-2.78,8.62-6.57,11.43-11.38c2.81-4.81,4.21-10.05,4.21-15.73
		c0-5.68-1.41-10.92-4.21-15.73c-2.81-4.81-6.62-8.6-11.43-11.38c-4.81-2.78-10.04-4.17-15.68-4.17c-5.65,0-10.88,1.39-15.68,4.17
		C119.95,364.72,116.15,368.51,113.34,373.32L113.34,373.32z M140.4,409.2c-5.39,0-9.99-1.97-13.81-5.91
		c-3.82-3.94-5.74-8.69-5.74-14.25c0-5.56,1.91-10.31,5.74-14.25c3.82-3.94,8.43-5.91,13.81-5.91s10.01,1.97,13.86,5.91
		c3.85,3.94,5.78,8.69,5.78,14.25c0,5.56-1.93,10.31-5.78,14.25C150.41,407.24,145.79,409.2,140.4,409.2L140.4,409.2z
		 M219.64,358.81c-1.04,0-1.94,0.36-2.69,1.09c-0.75,0.72-1.13,1.61-1.13,2.65v35.54c0,2.95-1.04,5.47-3.13,7.56
		c-2.08,2.09-4.6,3.13-7.56,3.13h-3.04c-2.95,0-5.47-1.04-7.56-3.13c-2.09-2.09-3.13-4.6-3.13-7.56v-35.54
		c0-1.04-0.38-1.93-1.13-2.65c-0.75-0.72-1.65-1.09-2.69-1.09h-3.39c-0.99,0-1.85,0.36-2.61,1.09c-0.75,0.72-1.13,1.61-1.13,2.65
		v35.8c0,5.73,2.04,10.64,6.12,14.73c4.08,4.08,9.02,6.12,14.81,6.12h4.43c5.79,0,10.73-2.04,14.81-6.12
		c4.08-4.08,6.12-8.99,6.12-14.73v-35.8c0-1.04-0.38-1.93-1.13-2.65c-0.75-0.72-1.65-1.09-2.69-1.09H219.64L219.64,358.81z
		 M243.35,358.81c-0.99,0-1.85,0.36-2.61,1.09c-0.75,0.72-1.13,1.61-1.13,2.65v52.91c0,1.04,0.38,1.93,1.13,2.65
		c0.75,0.73,1.62,1.09,2.61,1.09h15.73c5.27,0,10.14-1.29,14.6-3.87c4.46-2.58,7.98-6.09,10.56-10.56c2.58-4.46,3.87-9.33,3.87-14.6
		v-2.34c0-5.27-1.29-10.14-3.87-14.6c-2.58-4.46-6.1-7.98-10.56-10.56c-4.46-2.58-9.33-3.87-14.6-3.87H243.35L243.35,358.81z
		 M277.07,389.74c0,5.5-1.96,10.21-5.87,14.12c-3.91,3.91-8.62,5.86-14.12,5.86h-5.3c-0.58,0-0.87-0.32-0.87-0.96v-39.53
		c0-0.64,0.29-0.96,0.87-0.96h3.91c5.91,0,10.95,2.09,15.12,6.26c4.17,4.17,6.26,9.21,6.26,15.12V389.74L277.07,389.74z
		 M351.61,383.83c-3.13-1.27-5.36-2.32-6.69-3.13c-4.52-2.66-6.4-5.36-5.65-8.08c0.4-1.27,1.19-2.37,2.35-3.3
		c1.16-0.93,2.2-1.42,3.13-1.48c2.32-0.12,4.13,0.03,5.43,0.43c1.3,0.41,2.79,1.39,4.48,2.95c0.69,0.64,1.51,0.97,2.43,1
		c0.93,0.03,1.77-0.22,2.52-0.74l2.35-1.83c0.93-0.7,1.42-1.64,1.48-2.82c0.06-1.19-0.35-2.19-1.22-3c-4.63-4.4-10.43-6.6-17.38-6.6
		c-3.53,0-6.75,1.14-9.64,3.43c-2.9,2.29-4.87,5.29-5.91,8.99c-0.64,2.03-0.85,3.97-0.65,5.82c0.2,1.85,0.58,3.5,1.13,4.95
		c0.55,1.45,1.37,2.82,2.48,4.13c1.1,1.3,2.2,2.4,3.3,3.3c1.1,0.9,2.31,1.72,3.65,2.48c1.79,1.1,4.52,2.4,8.17,3.91
		c4.17,1.68,6.86,3.07,8.08,4.17c1.22,1.1,1.71,2.75,1.48,4.95c-0.12,1.51-0.57,2.79-1.35,3.87c-0.78,1.07-1.74,1.81-2.87,2.22
		c-1.13,0.41-2.08,0.68-2.87,0.83c-0.78,0.15-1.55,0.22-2.3,0.22c-4.58,0-8.66-2.08-12.25-6.26c-0.64-0.75-1.45-1.19-2.43-1.3
		c-0.98-0.11-1.88,0.09-2.69,0.61l-2.26,1.65c-0.93,0.64-1.45,1.48-1.56,2.52c-0.17,1.1,0.06,2.09,0.7,2.95
		c1.45,1.91,3.04,3.56,4.78,4.95c1.74,1.39,3.27,2.42,4.6,3.08c1.33,0.67,2.84,1.17,4.52,1.52c1.68,0.35,2.91,0.55,3.69,0.61
		c0.78,0.06,1.72,0.09,2.82,0.09c1.22,0,2.58-0.13,4.08-0.39c1.51-0.26,3.2-0.78,5.08-1.56c1.88-0.78,3.61-1.75,5.17-2.91
		c1.56-1.16,2.94-2.75,4.13-4.78c1.19-2.03,1.92-4.34,2.22-6.95c0.17-1.79,0.12-3.5-0.17-5.13c-0.29-1.62-0.7-3.01-1.22-4.17
		c-0.52-1.16-1.29-2.29-2.3-3.39c-1.01-1.1-1.94-1.98-2.78-2.65c-0.84-0.67-1.97-1.38-3.39-2.13c-1.42-0.75-2.51-1.29-3.26-1.61
		c-0.75-0.32-1.82-0.77-3.21-1.35L351.61,383.83L351.61,383.83z M380.63,358.81c-1.04,0-1.93,0.36-2.65,1.09
		c-0.73,0.72-1.09,1.61-1.09,2.65v52.91c0,1.04,0.36,1.93,1.09,2.65c0.72,0.73,1.61,1.09,2.65,1.09h31.36
		c1.04,0,1.94-0.36,2.69-1.09c0.75-0.72,1.13-1.61,1.13-2.65v-3.74c0-1.04-0.38-1.94-1.13-2.69c-0.75-0.75-1.65-1.13-2.69-1.13
		h-22.94c-0.58,0-0.87-0.29-0.87-0.87v-6.34c0-0.58,0.29-0.87,0.87-0.87h17.46c1.04,0,1.94-0.36,2.69-1.09
		c0.75-0.72,1.13-1.61,1.13-2.65v-3.73c0-1.04-0.38-1.94-1.13-2.69c-0.75-0.75-1.65-1.13-2.69-1.13h-17.46
		c-0.58,0-0.87-0.29-0.87-0.87v-16.68c0-0.58,0.29-0.87,0.87-0.87h22.94c1.04,0,1.94-0.38,2.69-1.13c0.75-0.75,1.13-1.65,1.13-2.69
		v-3.74c0-1.04-0.38-1.93-1.13-2.65c-0.75-0.72-1.65-1.09-2.69-1.09H380.63L380.63,358.81z M428.15,358.81
		c-1.04,0-1.93,0.36-2.65,1.09c-0.73,0.72-1.09,1.61-1.09,2.65v52.91c0,1.04,0.36,1.93,1.09,2.65c0.72,0.73,1.61,1.09,2.65,1.09
		h3.74c1.04,0,1.94-0.36,2.69-1.09c0.75-0.72,1.13-1.61,1.13-2.65v-8.95c0-0.58,0.29-0.87,0.87-0.87h5.99c0.41,0,0.81,0,1.22,0
		c0.35,0,0.61,0.12,0.78,0.35l8.25,11.64c0.75,1.04,1.77,1.56,3.04,1.56h4.61c1.33,0,2.37-0.46,3.13-1.39
		c1.16-1.5,1.19-3.01,0.09-4.52l-7.65-10.77c-0.29-0.52-0.2-0.93,0.26-1.22c3.07-2.2,5.46-4.98,7.17-8.34
		c1.71-3.36,2.56-6.92,2.56-10.69v-1.13c0-6.14-2.19-11.4-6.56-15.77c-4.37-4.37-9.66-6.56-15.86-6.56H428.15L428.15,358.81z
		 M454.74,382.88c0,3.48-1.25,6.46-3.74,8.95c-2.49,2.49-5.47,3.74-8.95,3.74h-5.47c-0.58,0-0.87-0.29-0.87-0.87v-24.94
		c0-0.58,0.29-0.87,0.87-0.87h6.08c3.36,0,6.21,1.19,8.56,3.56c2.35,2.38,3.52,5.21,3.52,8.52V382.88L454.74,382.88z M522.07,358.9
		c-1.8,0-3.01,0.81-3.65,2.43l-6.6,15.9l-8.86,19.2c-0.12,0.35-0.36,0.52-0.74,0.52c-0.38,0-0.65-0.17-0.82-0.52l-8.78-19.2
		l-6.6-15.9c-0.7-1.62-1.94-2.43-3.74-2.43h-3.56c-1.16,0-2.09,0.35-2.78,1.04c-1.39,1.28-1.71,2.78-0.96,4.52l25.72,57.17
		c0.29,0.64,0.79,0.96,1.52,0.96c0.72,0,1.23-0.32,1.52-0.96l25.63-57.17c0.75-1.74,0.46-3.24-0.87-4.52
		c-0.75-0.7-1.71-1.04-2.87-1.04H522.07L522.07,358.9z M546.49,358.81c-1.04,0-1.93,0.36-2.65,1.09c-0.72,0.72-1.09,1.61-1.09,2.65
		v52.91c0,1.04,0.36,1.93,1.09,2.65c0.72,0.73,1.61,1.09,2.65,1.09h3.82c0.64,0,1.24-0.16,1.82-0.48c0.58-0.32,1.04-0.77,1.39-1.35
		c0.35-0.58,0.52-1.22,0.52-1.91v-52.91c0-1.04-0.38-1.93-1.13-2.65c-0.75-0.72-1.62-1.09-2.61-1.09H546.49L546.49,358.81z
		 M617.38,401.99c-0.81-0.58-1.72-0.83-2.74-0.74c-1.02,0.09-1.84,0.51-2.48,1.26c-1.22,1.39-2.58,2.59-4.08,3.6
		c-1.51,1.02-3.13,1.78-4.87,2.3c-1.74,0.52-3.53,0.78-5.39,0.78c-5.27,0-9.79-1.97-13.55-5.91c-3.77-3.94-5.65-8.69-5.65-14.25
		c0-5.56,1.88-10.31,5.65-14.25c3.76-3.94,8.28-5.91,13.55-5.91c5.39,0,9.96,2,13.73,5.99c0.7,0.75,1.52,1.16,2.48,1.22
		c0.96,0.06,1.81-0.23,2.56-0.87l3.04-2.35c0.87-0.69,1.33-1.59,1.39-2.69c0.12-1.1-0.2-2.05-0.96-2.87
		c-2.95-3.07-6.34-5.43-10.17-7.08c-3.82-1.65-7.85-2.48-12.08-2.48c-5.56,0-10.7,1.39-15.42,4.17c-4.72,2.78-8.46,6.57-11.21,11.38
		c-2.75,4.81-4.13,10.05-4.13,15.73c0,5.68,1.38,10.92,4.13,15.73c2.75,4.81,6.49,8.6,11.21,11.38c4.72,2.78,9.86,4.17,15.42,4.17
		c4.4,0,8.61-0.91,12.64-2.74c4.03-1.83,7.52-4.42,10.47-7.78c0.64-0.81,0.93-1.74,0.87-2.78c-0.12-1.04-0.61-1.91-1.48-2.61
		L617.38,401.99L617.38,401.99z M634.24,358.81c-1.04,0-1.93,0.36-2.65,1.09c-0.72,0.72-1.09,1.61-1.09,2.65v52.91
		c0,1.04,0.36,1.93,1.09,2.65c0.72,0.73,1.61,1.09,2.65,1.09h31.36c1.04,0,1.94-0.36,2.69-1.09c0.75-0.72,1.13-1.61,1.13-2.65v-3.74
		c0-1.04-0.38-1.94-1.13-2.69c-0.75-0.75-1.65-1.13-2.69-1.13h-22.94c-0.58,0-0.87-0.29-0.87-0.87v-6.34c0-0.58,0.29-0.87,0.87-0.87
		h17.46c1.04,0,1.94-0.36,2.69-1.09c0.75-0.72,1.13-1.61,1.13-2.65v-3.73c0-1.04-0.38-1.94-1.13-2.69
		c-0.75-0.75-1.65-1.13-2.69-1.13h-17.46c-0.58,0-0.87-0.29-0.87-0.87v-16.68c0-0.58,0.29-0.87,0.87-0.87h22.94
		c1.04,0,1.94-0.38,2.69-1.13c0.75-0.75,1.13-1.65,1.13-2.69v-3.74c0-1.04-0.38-1.93-1.13-2.65c-0.75-0.72-1.65-1.09-2.69-1.09
		H634.24L634.24,358.81z M703.4,383.83c-3.13-1.27-5.36-2.32-6.69-3.13c-4.52-2.66-6.4-5.36-5.65-8.08c0.41-1.27,1.19-2.37,2.35-3.3
		c1.16-0.93,2.2-1.42,3.13-1.48c2.32-0.12,4.13,0.03,5.43,0.43c1.3,0.41,2.79,1.39,4.47,2.95c0.7,0.64,1.51,0.97,2.43,1
		c0.93,0.03,1.77-0.22,2.52-0.74l2.35-1.83c0.93-0.7,1.42-1.64,1.48-2.82c0.06-1.19-0.35-2.19-1.22-3c-4.63-4.4-10.43-6.6-17.38-6.6
		c-3.53,0-6.75,1.14-9.64,3.43c-2.9,2.29-4.87,5.29-5.91,8.99c-0.64,2.03-0.85,3.97-0.65,5.82c0.2,1.85,0.58,3.5,1.13,4.95
		c0.55,1.45,1.38,2.82,2.48,4.13c1.1,1.3,2.2,2.4,3.3,3.3c1.1,0.9,2.32,1.72,3.65,2.48c1.8,1.1,4.52,2.4,8.17,3.91
		c4.17,1.68,6.86,3.07,8.08,4.17c1.22,1.1,1.71,2.75,1.48,4.95c-0.12,1.51-0.56,2.79-1.35,3.87c-0.78,1.07-1.74,1.81-2.87,2.22
		c-1.13,0.41-2.09,0.68-2.87,0.83c-0.78,0.15-1.55,0.22-2.3,0.22c-4.58,0-8.66-2.08-12.25-6.26c-0.64-0.75-1.45-1.19-2.43-1.3
		c-0.99-0.11-1.88,0.09-2.69,0.61l-2.26,1.65c-0.93,0.64-1.45,1.48-1.56,2.52c-0.17,1.1,0.06,2.09,0.69,2.95
		c1.45,1.91,3.04,3.56,4.78,4.95c1.74,1.39,3.27,2.42,4.61,3.08c1.33,0.67,2.84,1.17,4.52,1.52c1.68,0.35,2.91,0.55,3.69,0.61
		c0.78,0.06,1.72,0.09,2.82,0.09c1.22,0,2.58-0.13,4.08-0.39c1.51-0.26,3.2-0.78,5.08-1.56c1.88-0.78,3.61-1.75,5.17-2.91
		c1.56-1.16,2.94-2.75,4.13-4.78c1.19-2.03,1.93-4.34,2.21-6.95c0.17-1.79,0.12-3.5-0.17-5.13c-0.29-1.62-0.7-3.01-1.22-4.17
		c-0.52-1.16-1.29-2.29-2.3-3.39c-1.01-1.1-1.94-1.98-2.78-2.65c-0.84-0.67-1.97-1.38-3.39-2.13c-1.42-0.75-2.51-1.29-3.26-1.61
		c-0.75-0.32-1.83-0.77-3.22-1.35L703.4,383.83L703.4,383.83z"/>
	<path class="st2" d="M540.57,307.91c-1.79,0-21.86,0-21.86,0c16.86-3.35,29.58-18.22,29.58-36.07l0,0l0,0l0,0c0-0.2,0-0.4-0.01-0.6
		c-0.01-0.64-0.04-1.29-0.08-1.92c-0.01-0.14-0.02-0.27-0.03-0.41c0-0.04-0.01-0.09-0.01-0.13c-1.55-18.89-17.38-33.73-36.66-33.73
		c-1.41,0-2.8,0.1-4.17,0.25c0.14-1.92,0.23-3.85,0.23-5.8l0,0l0,0c0-32.08-18.82-59.63-45.84-72.05c-1.13-0.52-2.27-1.01-3.42-1.47
		l0,0l0,0c0.02,0.03,0.04,0.07,0.05,0.1c0,0,0,0,0,0.01c0.01,0.01,0.01,0.02,0.02,0.03c0.07,0.13,0.1,0.2,0.1,0.2
		c-0.03,0-5.72-10.62-10.98-17.67V96.73c49.77,8.2,87.78,52.03,87.78,104.89c0,2.62-0.12,5.21-0.31,7.79
		c1.84-0.21,3.71-0.34,5.61-0.34c27.29,0,49.42,22.13,49.42,49.42C589.99,285.79,567.86,307.91,540.57,307.91"/>
	<path class="st0" d="M392.52,119.19c-14.21-6.85-29.47-10.33-45.37-10.33h-8.74c-15.9,0-31.16,3.47-45.37,10.33l-6.7,3.23v-7.44
		V91.13c0-15.08,5.87-29.25,16.53-39.91c10.66-10.66,24.83-16.53,39.91-16.53c31.12,0,56.44,25.32,56.44,56.44v23.85v7.44
		L392.52,119.19L392.52,119.19z M322.7,216.37c-8.06-6.18-12.93-15.87-12.93-26.11c0-18.15,14.76-32.91,32.91-32.91
		c18.15,0,32.91,14.76,32.91,32.91c0,10.01-4.48,19.29-12.15,25.51c4.01,10.21,8.02,20.41,12.03,30.62l2.51,6.38h-6.85h-54.58h-6.58
		l2.17-6.21C315.65,236.5,319.17,226.43,322.7,216.37 M461.1,303.24v-89.77c0-25.76-8.8-50.9-24.82-70.99v-52.4
		C436.28,40.41,395.87,0,346.2,0h-6.83c-49.67,0-90.08,40.41-90.08,90.08v52.4c-16.02,20.09-24.82,45.23-24.82,70.99v89.77v4.67
		h4.67h227.29h4.67V303.24L461.1,303.24z"/>
	<path class="st1" d="M238.08,138.66L238.08,138.66C222.05,160.17,222.05,160.17,238.08,138.66 M238.08,132.34v-20.37
		c-1.97-0.27-3.98-0.42-6.03-0.42c-23.12,0-42.06,17.73-44.04,40.33c-6.15-1.53-12.57-2.35-19.19-2.35
		c-43.73,0-79.19,35.45-79.19,79.19c0,43.46,35.02,78.73,78.38,79.17v0.02h45.25v0H199.3v-0.02c-38.52-0.39-69.63-31.72-69.63-70.33
		c0-38.85,31.49-70.34,70.35-70.34c5.88,0,11.58,0.73,17.04,2.09C205.65,152.21,223.33,131.55,238.08,132.34"/>
	<path class="st2" d="M213.26,307.91L213.26,307.91H199.3v-0.02l0,0c-38.52-0.39-69.63-31.72-69.63-70.33
		c0-38.85,31.49-70.34,70.35-70.34c0.67,0,1.33,0.01,1.99,0.03c5.18,0.15,10.21,0.86,15.05,2.06l0,0l0,0
		c-0.85-1.28-1.54-2.58-2.09-3.89c-6.56-15.85,8.8-33.1,22.26-33.11c0,0,0.01,0,0.01,0l0,0c0.28,0,0.56,0.01,0.83,0.02
		c0,0.78,0,6.32,0,6.32l0,0c-7.91,10.61-11.91,15.98-12.02,16.13c0,0,0,0,0,0s0,0,0,0c0.11-0.14,4.05-5.43,11.83-15.86
		c-14.19,19.15-22.62,42.16-24.27,65.93c-15.66,2.96-28.87,12.88-36.25,26.43c-4.04,7.42-6.34,15.93-6.34,24.99
		c0,25.45,18.17,46.62,42.24,51.34V307.91"/>
	<path class="st1" d="M213.26,307.91H199.3H213.26 M199.3,307.89c-38.52-0.39-69.63-31.72-69.63-70.33l0,0
		C129.67,276.18,160.78,307.5,199.3,307.89L199.3,307.89 M217.06,169.31c-4.84-1.2-9.88-1.92-15.05-2.06
		C207.19,167.39,212.22,168.11,217.06,169.31L217.06,169.31 M214.98,165.43c-6.56-15.85,8.8-33.1,22.26-33.11
		C223.78,132.33,208.41,149.57,214.98,165.43 M226.05,154.79C226.05,154.79,226.05,154.79,226.05,154.79
		C226.05,154.79,226.05,154.79,226.05,154.79 M226.06,154.79c0.11-0.14,4.11-5.52,12.02-16.13l0,0c-0.07,0.09-0.13,0.17-0.2,0.26
		C230.11,149.36,226.16,154.65,226.06,154.79 M237.25,132.32L237.25,132.32L237.25,132.32L237.25,132.32"/>
	<path class="st3" d="M213.26,307.6L213.26,307.6c-24.07-4.72-42.24-25.88-42.24-51.34c0-9.05,2.3-17.56,6.34-24.99
		c7.38-13.55,20.59-23.47,36.25-26.43c-0.2,2.86-0.35,5.74-0.35,8.62v89.77V307.6"/>
	<path class="st4" d="M213.26,307.6c-24.07-4.72-42.24-25.88-42.24-51.34c0-9.05,2.3-17.56,6.34-24.99
		c-4.04,7.42-6.34,15.93-6.34,24.99C171.02,281.72,189.19,302.88,213.26,307.6L213.26,307.6"/>
	<path class="st1" d="M630.37,252.28c0-30.73-24.91-55.64-55.64-55.64c-2.14,0-4.24,0.15-6.31,0.38c0.21-2.9,0.35-5.82,0.35-8.77
		c0-66.08-52.75-119.65-117.81-119.65c-1.93,0-3.84,0.06-5.75,0.15c1.48,6.88,2.28,14.01,2.28,21.33v6.65
		c49.77,8.2,87.78,52.03,87.78,104.89c0,2.62-0.12,5.21-0.31,7.79c1.84-0.21,3.71-0.34,5.61-0.34c27.29,0,49.42,22.13,49.42,49.42
		c0,27.29-22.12,49.41-49.4,49.42c0,0,32.13,0,34.15,0C605.46,307.91,630.37,283,630.37,252.28L630.37,252.28z M540.55,307.91
		L540.55,307.91z"/>
	<path class="st3" d="M518.7,307.91h-46.4v0v-4.67v-89.77c0-19.99-4.87-39.7-13.94-57.34c0-0.01-0.01-0.02-0.02-0.03c0,0,0,0,0-0.01
		c-0.02-0.03-0.03-0.06-0.05-0.1c1.15,0.46,2.3,0.96,3.42,1.47c27.01,12.42,45.84,39.98,45.84,72.05c0,1.95-0.09,3.88-0.23,5.8l0,0
		l0,0c1.37-0.16,2.76-0.25,4.17-0.25c19.29,0,35.11,14.84,36.66,33.73c0,0.04,0.01,0.09,0.01,0.13c0.01,0.14,0.02,0.27,0.03,0.41
		c0.04,0.64,0.07,1.28,0.08,1.92c0,0.2,0.01,0.4,0.01,0.6l0,0C548.28,289.69,535.57,304.56,518.7,307.91L518.7,307.91L518.7,307.91"
		/>
	<path class="st4" d="M518.7,307.91L518.7,307.91c16.86-3.35,29.58-18.22,29.58-36.07l0,0C548.28,289.69,535.57,304.56,518.7,307.91
		 M548.28,271.84c0-0.2,0-0.4-0.01-0.6C548.28,271.44,548.28,271.64,548.28,271.84 M548.2,269.32c-0.01-0.14-0.02-0.27-0.03-0.41
		C548.18,269.05,548.19,269.19,548.2,269.32 M548.16,268.79c-1.55-18.89-17.37-33.73-36.66-33.73c-1.41,0-2.8,0.1-4.17,0.25l0,0
		c1.37-0.16,2.76-0.25,4.17-0.25C530.78,235.06,546.6,249.9,548.16,268.79 M507.55,229.51c0-32.07-18.82-59.63-45.84-72.05
		C488.73,169.88,507.55,197.44,507.55,229.51L507.55,229.51 M458.36,156.13c0-0.01-0.01-0.02-0.02-0.03
		C458.35,156.11,458.36,156.12,458.36,156.13 M458.34,156.09c-0.02-0.03-0.03-0.07-0.05-0.1l0,0
		C458.31,156.03,458.33,156.06,458.34,156.09"/>
</g>
</svg>
