<?xml version="1.0" encoding="utf-8"?>
<!-- Generator: Adobe Illustrator 26.0.1, SVG Export Plug-In . SVG Version: 6.00 Build 0)  -->
<svg version="1.1" id="Layer_1" xmlns="http://www.w3.org/2000/svg" xmlns:xlink="http://www.w3.org/1999/xlink" x="0px" y="0px"
	 viewBox="0 0 721.5 498.7" style="enable-background:new 0 0 721.5 498.7;" xml:space="preserve">
<style type="text/css">
	.st0{fill:#FE5000;}
	.st1{fill:#00C1D4;}
	.st2{fill:#8AD4E1;}
	.st3{fill:#BEE5ED;}
</style>
<g>
	<path class="st0" d="M5.9,436.8c-1,0-1.9,0.4-2.6,1.1c-0.7,0.7-1.1,1.6-1.1,2.6v52.7c0,1,0.4,1.9,1.1,2.6c0.7,0.7,1.6,1.1,2.6,1.1
		h3.8c0.6,0,1.2-0.2,1.8-0.5c0.6-0.3,1-0.8,1.4-1.3c0.3-0.6,0.5-1.2,0.5-1.9v-52.7c0-1-0.4-1.9-1.1-2.6c-0.8-0.7-1.6-1.1-2.6-1.1
		H5.9L5.9,436.8z M67.6,436.9c-1,0-1.9,0.4-2.6,1.1c-0.7,0.8-1.1,1.6-1.1,2.7v29.6c0,0.3-0.2,0.6-0.6,0.8c-0.4,0.2-0.7,0.1-0.9-0.2
		l-33.2-35c-0.5-0.5-1.1-0.6-1.8-0.3c-0.7,0.3-1,0.8-1,1.5v56.1c0,1,0.4,1.9,1.1,2.7c0.7,0.8,1.6,1.1,2.6,1.1h3.7
		c1,0,1.9-0.4,2.7-1.1c0.7-0.8,1.1-1.6,1.1-2.7v-29.8c0-0.4,0.2-0.7,0.5-0.8c0.3-0.1,0.7-0.1,1,0.2l33.1,34.9
		c0.3,0.3,0.7,0.5,1.2,0.5c0.2,0,0.4-0.1,0.6-0.2c0.7-0.2,1-0.7,1-1.5v-55.8c0-1-0.4-1.9-1.1-2.7c-0.8-0.8-1.6-1.1-2.7-1.1H67.6
		L67.6,436.9z M87.6,436.8c-1,0-1.9,0.4-2.7,1.1c-0.8,0.7-1.1,1.6-1.1,2.6v52.7c0,1,0.4,1.9,1.1,2.6c0.8,0.7,1.6,1.1,2.7,1.1h3.6
		c1,0,1.9-0.4,2.7-1.1c0.8-0.7,1.1-1.6,1.1-2.6v-14.7c0-0.6,0.3-0.9,0.9-0.9h17.4c1,0,1.9-0.4,2.7-1.1c0.7-0.7,1.1-1.6,1.1-2.7v-3.6
		c0-1-0.4-1.9-1.1-2.7c-0.8-0.7-1.6-1.1-2.7-1.1H95.9c-0.6,0-0.9-0.3-0.9-0.9v-16.6c0-0.6,0.3-0.9,0.9-0.9h22.9c1,0,1.9-0.4,2.7-1.1
		c0.8-0.8,1.1-1.6,1.1-2.7v-3.7c0-0.6-0.2-1.3-0.5-1.9c-0.3-0.6-0.8-1.1-1.4-1.4c-0.6-0.3-1.2-0.5-1.9-0.5H87.6L87.6,436.8z
		 M134.9,436.8c-1,0-1.9,0.4-2.6,1.1c-0.7,0.7-1.1,1.6-1.1,2.6v52.7c0,1,0.4,1.9,1.1,2.6c0.7,0.7,1.6,1.1,2.6,1.1h3.7
		c1,0,1.9-0.4,2.7-1.1c0.8-0.7,1.1-1.6,1.1-2.6v-8.9c0-0.6,0.3-0.9,0.9-0.9h6c0.4,0,0.8,0,1.2,0c0.3,0,0.6,0.1,0.8,0.3l8.2,11.6
		c0.8,1,1.8,1.6,3,1.6h4.6c1.3,0,2.4-0.5,3.1-1.4c1.2-1.5,1.2-3,0.1-4.5l-7.6-10.7c-0.3-0.5-0.2-0.9,0.3-1.2c3.1-2.2,5.4-5,7.1-8.3
		c1.7-3.3,2.6-6.9,2.6-10.6V459c0-6.1-2.2-11.4-6.5-15.7c-4.4-4.4-9.6-6.5-15.8-6.5H134.9L134.9,436.8z M161.4,460.8
		c0,3.5-1.2,6.4-3.7,8.9c-2.5,2.5-5.5,3.7-8.9,3.7h-5.5c-0.6,0-0.9-0.3-0.9-0.9v-24.9c0-0.6,0.3-0.9,0.9-0.9h6.1
		c3.3,0,6.2,1.2,8.5,3.6c2.3,2.4,3.5,5.2,3.5,8.5V460.8L161.4,460.8z M208.7,434.3c-0.8,0-1.4,0.4-1.8,1.1l-25.4,56.1
		c-0.8,1.7-0.4,3.1,1,4.4c0.7,0.7,1.6,1,2.8,1h3.6c1.7,0,2.9-0.8,3.6-2.4l2.5-6c0.1-0.4,0.4-0.6,0.8-0.6h25.7c0.3,0,0.6,0.2,0.8,0.6
		l2.5,6c0.6,1.6,1.8,2.4,3.6,2.4h3.5c1.2,0,2.1-0.3,2.9-1c1.3-1.3,1.6-2.7,1-4.4l-25.4-56.1C210.2,434.6,209.6,434.3,208.7,434.3
		L208.7,434.3z M200.6,477.2c-0.2,0-0.4-0.1-0.5-0.3c-0.1-0.2-0.1-0.3,0-0.5l8.1-18.8c0.1-0.2,0.3-0.3,0.5-0.3
		c0.2,0,0.4,0.1,0.4,0.3l8.1,18.8c0.1,0.2,0.1,0.3,0,0.5c-0.1,0.2-0.3,0.3-0.4,0.3H200.6L200.6,477.2z M270.1,461.7
		c-3.1-1.3-5.3-2.3-6.7-3.1c-4.5-2.7-6.4-5.3-5.6-8.1c0.4-1.3,1.2-2.4,2.3-3.3c1.2-0.9,2.2-1.4,3.1-1.5c2.3-0.1,4.1,0,5.4,0.4
		c1.3,0.4,2.8,1.4,4.5,2.9c0.7,0.6,1.5,1,2.4,1c0.9,0,1.8-0.2,2.5-0.7l2.3-1.8c0.9-0.7,1.4-1.6,1.5-2.8c0.1-1.2-0.3-2.2-1.2-3
		c-4.6-4.4-10.4-6.6-17.3-6.6c-3.5,0-6.7,1.1-9.6,3.4c-2.9,2.3-4.8,5.3-5.9,9c-0.6,2-0.9,4-0.6,5.8c0.2,1.8,0.6,3.5,1.1,4.9
		c0.5,1.4,1.4,2.8,2.5,4.1c1.1,1.3,2.2,2.4,3.3,3.3c1.1,0.9,2.3,1.7,3.6,2.5c1.8,1.1,4.5,2.4,8.1,3.9c4.2,1.7,6.8,3.1,8.1,4.2
		c1.2,1.1,1.7,2.7,1.5,4.9c-0.1,1.5-0.6,2.8-1.3,3.9c-0.8,1.1-1.7,1.8-2.9,2.2c-1.1,0.4-2.1,0.7-2.9,0.8c-0.8,0.1-1.5,0.2-2.3,0.2
		c-4.6,0-8.6-2.1-12.2-6.2c-0.6-0.8-1.4-1.2-2.4-1.3c-1-0.1-1.9,0.1-2.7,0.6l-2.3,1.6c-0.9,0.6-1.4,1.5-1.6,2.5
		c-0.2,1.1,0.1,2.1,0.7,2.9c1.4,1.9,3,3.6,4.8,4.9c1.7,1.4,3.3,2.4,4.6,3.1c1.3,0.7,2.8,1.2,4.5,1.5c1.7,0.3,2.9,0.5,3.7,0.6
		c0.8,0.1,1.7,0.1,2.8,0.1c1.2,0,2.6-0.1,4.1-0.4c1.5-0.3,3.2-0.8,5.1-1.6c1.9-0.8,3.6-1.7,5.2-2.9c1.6-1.2,2.9-2.7,4.1-4.8
		c1.2-2,1.9-4.3,2.2-6.9c0.2-1.8,0.1-3.5-0.2-5.1c-0.3-1.6-0.7-3-1.2-4.2c-0.5-1.2-1.3-2.3-2.3-3.4c-1-1.1-1.9-2-2.8-2.6
		c-0.8-0.7-2-1.4-3.4-2.1c-1.4-0.8-2.5-1.3-3.2-1.6c-0.8-0.3-1.8-0.8-3.2-1.3L270.1,461.7L270.1,461.7z M299,436.8
		c-1,0-1.9,0.4-2.6,1.1c-0.7,0.7-1.1,1.6-1.1,2.6v3.5c0,1,0.4,1.9,1.1,2.7c0.7,0.8,1.6,1.1,2.6,1.1h13c0.6,0,0.9,0.3,0.9,0.9v44.6
		c0,1,0.4,1.9,1.1,2.6c0.8,0.7,1.6,1.1,2.7,1.1h3.7c1,0,1.9-0.4,2.6-1.1c0.7-0.7,1.1-1.6,1.1-2.6v-44.6c0-0.6,0.3-0.9,0.9-0.9h13
		c1,0,1.9-0.4,2.7-1.1c0.7-0.7,1.1-1.6,1.1-2.7v-3.5c0-1-0.4-1.9-1.1-2.6c-0.8-0.7-1.6-1.1-2.7-1.1H299L299,436.8z M354.1,436.8
		c-1,0-1.9,0.4-2.6,1.1c-0.7,0.7-1.1,1.6-1.1,2.6v52.7c0,1,0.4,1.9,1.1,2.6c0.7,0.7,1.6,1.1,2.6,1.1h3.7c1,0,1.9-0.4,2.7-1.1
		c0.7-0.7,1.1-1.6,1.1-2.6v-8.9c0-0.6,0.3-0.9,0.9-0.9h6c0.4,0,0.8,0,1.2,0c0.3,0,0.6,0.1,0.8,0.3l8.2,11.6c0.7,1,1.8,1.6,3,1.6h4.6
		c1.3,0,2.4-0.5,3.1-1.4c1.2-1.5,1.2-3,0.1-4.5l-7.6-10.7c-0.3-0.5-0.2-0.9,0.3-1.2c3.1-2.2,5.4-5,7.1-8.3c1.7-3.3,2.6-6.9,2.6-10.6
		V459c0-6.1-2.2-11.4-6.5-15.7c-4.4-4.4-9.6-6.5-15.8-6.5H354.1L354.1,436.8z M380.6,460.8c0,3.5-1.2,6.4-3.7,8.9
		c-2.5,2.5-5.5,3.7-8.9,3.7h-5.5c-0.6,0-0.9-0.3-0.9-0.9v-24.9c0-0.6,0.3-0.9,0.9-0.9h6.1c3.3,0,6.2,1.2,8.5,3.6
		c2.3,2.4,3.5,5.2,3.5,8.5V460.8L380.6,460.8z M439.4,436.8c-1,0-1.9,0.4-2.7,1.1c-0.8,0.7-1.1,1.6-1.1,2.6v35.4
		c0,2.9-1,5.5-3.1,7.5c-2.1,2.1-4.6,3.1-7.5,3.1h-3c-2.9,0-5.5-1-7.5-3.1c-2.1-2.1-3.1-4.6-3.1-7.5v-35.4c0-1-0.4-1.9-1.1-2.6
		c-0.8-0.7-1.6-1.1-2.7-1.1h-3.4c-1,0-1.8,0.4-2.6,1.1c-0.8,0.7-1.1,1.6-1.1,2.6v35.7c0,5.7,2,10.6,6.1,14.7c4.1,4.1,9,6.1,14.8,6.1
		h4.4c5.8,0,10.7-2,14.8-6.1c4.1-4.1,6.1-9,6.1-14.7v-35.7c0-1-0.4-1.9-1.1-2.6c-0.8-0.7-1.6-1.1-2.7-1.1H439.4L439.4,436.8z
		 M505.3,479.8c-0.8-0.6-1.7-0.8-2.7-0.7c-1,0.1-1.8,0.5-2.5,1.3c-1.2,1.4-2.6,2.6-4.1,3.6c-1.5,1-3.1,1.8-4.8,2.3
		c-1.7,0.5-3.5,0.8-5.4,0.8c-5.3,0-9.8-2-13.5-5.9c-3.8-3.9-5.6-8.7-5.6-14.2c0-5.5,1.9-10.3,5.6-14.2c3.8-3.9,8.3-5.9,13.5-5.9
		c5.4,0,9.9,2,13.7,6c0.7,0.8,1.5,1.2,2.5,1.2c1,0.1,1.8-0.2,2.6-0.9l3-2.3c0.9-0.7,1.3-1.6,1.4-2.7c0.1-1.1-0.2-2-1-2.9
		c-2.9-3.1-6.3-5.4-10.1-7.1c-3.8-1.6-7.8-2.5-12-2.5c-5.5,0-10.7,1.4-15.4,4.2c-4.7,2.8-8.4,6.6-11.2,11.3
		c-2.7,4.8-4.1,10-4.1,15.7c0,5.7,1.4,10.9,4.1,15.7c2.7,4.8,6.5,8.6,11.2,11.3c4.7,2.8,9.8,4.2,15.4,4.2c4.4,0,8.6-0.9,12.6-2.7
		c4-1.8,7.5-4.4,10.4-7.8c0.6-0.8,0.9-1.7,0.9-2.8c-0.1-1-0.6-1.9-1.5-2.6L505.3,479.8L505.3,479.8z M522.1,436.8
		c-1,0-1.9,0.4-2.6,1.1c-0.7,0.7-1.1,1.6-1.1,2.6v3.5c0,1,0.4,1.9,1.1,2.7c0.7,0.8,1.6,1.1,2.6,1.1h13c0.6,0,0.9,0.3,0.9,0.9v44.6
		c0,1,0.4,1.9,1.1,2.6c0.7,0.7,1.6,1.1,2.7,1.1h3.7c1,0,1.9-0.4,2.6-1.1c0.7-0.7,1.1-1.6,1.1-2.6v-44.6c0-0.6,0.3-0.9,0.9-0.9h13
		c1,0,1.9-0.4,2.7-1.1c0.7-0.7,1.1-1.6,1.1-2.7v-3.5c0-1-0.4-1.9-1.1-2.6c-0.8-0.7-1.6-1.1-2.7-1.1H522.1L522.1,436.8z M612.5,436.8
		c-1,0-1.9,0.4-2.7,1.1c-0.8,0.7-1.1,1.6-1.1,2.6v35.4c0,2.9-1,5.5-3.1,7.5c-2.1,2.1-4.6,3.1-7.5,3.1h-3c-2.9,0-5.5-1-7.5-3.1
		s-3.1-4.6-3.1-7.5v-35.4c0-1-0.4-1.9-1.1-2.6c-0.8-0.7-1.6-1.1-2.7-1.1h-3.4c-1,0-1.8,0.4-2.6,1.1c-0.8,0.7-1.1,1.6-1.1,2.6v35.7
		c0,5.7,2,10.6,6.1,14.7c4.1,4.1,9,6.1,14.8,6.1h4.4c5.8,0,10.7-2,14.8-6.1c4.1-4.1,6.1-9,6.1-14.7v-35.7c0-1-0.4-1.9-1.1-2.6
		c-0.8-0.7-1.6-1.1-2.7-1.1H612.5L612.5,436.8z M636.3,436.8c-1,0-1.9,0.4-2.6,1.1c-0.7,0.7-1.1,1.6-1.1,2.6v52.7
		c0,1,0.4,1.9,1.1,2.6c0.7,0.7,1.6,1.1,2.6,1.1h3.7c1,0,1.9-0.4,2.7-1.1c0.8-0.7,1.1-1.6,1.1-2.6v-8.9c0-0.6,0.3-0.9,0.9-0.9h6
		c0.4,0,0.8,0,1.2,0c0.3,0,0.6,0.1,0.8,0.3l8.2,11.6c0.8,1,1.8,1.6,3,1.6h4.6c1.3,0,2.4-0.5,3.1-1.4c1.2-1.5,1.2-3,0.1-4.5
		l-7.6-10.7c-0.3-0.5-0.2-0.9,0.3-1.2c3.1-2.2,5.4-5,7.1-8.3c1.7-3.3,2.6-6.9,2.6-10.6V459c0-6.1-2.2-11.4-6.5-15.7
		c-4.4-4.4-9.6-6.5-15.8-6.5H636.3L636.3,436.8z M662.8,460.8c0,3.5-1.2,6.4-3.7,8.9c-2.5,2.5-5.5,3.7-8.9,3.7h-5.5
		c-0.6,0-0.9-0.3-0.9-0.9v-24.9c0-0.6,0.3-0.9,0.9-0.9h6.1c3.3,0,6.2,1.2,8.5,3.6c2.3,2.4,3.5,5.2,3.5,8.5V460.8L662.8,460.8z
		 M686.4,436.8c-1,0-1.9,0.4-2.6,1.1c-0.7,0.7-1.1,1.6-1.1,2.6v52.7c0,1,0.4,1.9,1.1,2.6c0.7,0.7,1.6,1.1,2.6,1.1h31.3
		c1,0,1.9-0.4,2.7-1.1c0.7-0.7,1.1-1.6,1.1-2.6v-3.7c0-1-0.4-1.9-1.1-2.7c-0.8-0.8-1.6-1.1-2.7-1.1h-22.9c-0.6,0-0.9-0.3-0.9-0.9
		v-6.3c0-0.6,0.3-0.9,0.9-0.9h17.4c1,0,1.9-0.4,2.7-1.1c0.7-0.7,1.1-1.6,1.1-2.6v-3.7c0-1-0.4-1.9-1.1-2.7c-0.8-0.7-1.6-1.1-2.7-1.1
		h-17.4c-0.6,0-0.9-0.3-0.9-0.9v-16.6c0-0.6,0.3-0.9,0.9-0.9h22.9c1,0,1.9-0.4,2.7-1.1c0.7-0.8,1.1-1.6,1.1-2.7v-3.7
		c0-1-0.4-1.9-1.1-2.6c-0.8-0.7-1.6-1.1-2.7-1.1H686.4L686.4,436.8z"/>
	<path class="st1" d="M36.7,401.1c-0.6-0.4-1.3-0.6-2-0.5c-0.7,0.1-1.3,0.4-1.8,0.9c-0.9,1-1.9,1.9-3,2.6c-1.1,0.7-2.3,1.3-3.5,1.7
		c-1.3,0.4-2.6,0.6-3.9,0.6c-3.8,0-7.1-1.4-9.9-4.3c-2.7-2.9-4.1-6.3-4.1-10.4c0-4.1,1.4-7.5,4.1-10.4c2.7-2.9,6-4.3,9.9-4.3
		c3.9,0,7.3,1.5,10,4.4c0.5,0.6,1.1,0.8,1.8,0.9c0.7,0,1.3-0.2,1.9-0.6l2.2-1.7c0.6-0.5,1-1.2,1-2c0.1-0.8-0.1-1.5-0.7-2.1
		c-2.2-2.2-4.6-4-7.4-5.2c-2.8-1.2-5.7-1.8-8.8-1.8c-4.1,0-7.8,1-11.3,3c-3.4,2-6.2,4.8-8.2,8.3c-2,3.5-3,7.3-3,11.5
		c0,4.1,1,8,3,11.5c2,3.5,4.7,6.3,8.2,8.3c3.4,2,7.2,3,11.3,3c3.2,0,6.3-0.7,9.2-2c2.9-1.3,5.5-3.2,7.6-5.7c0.5-0.6,0.7-1.3,0.6-2
		c-0.1-0.8-0.4-1.4-1.1-1.9L36.7,401.1L36.7,401.1z M49.3,380.2c-2,3.5-3.1,7.3-3.1,11.5c0,4.1,1,8,3.1,11.5c2,3.5,4.8,6.3,8.3,8.3
		c3.5,2,7.3,3,11.4,3c4.1,0,7.9-1,11.4-3c3.5-2,6.3-4.8,8.3-8.3c2-3.5,3.1-7.3,3.1-11.5c0-4.1-1-8-3.1-11.5c-2-3.5-4.8-6.3-8.3-8.3
		c-3.5-2-7.3-3-11.4-3c-4.1,0-7.9,1-11.4,3C54.2,373.9,51.4,376.7,49.3,380.2L49.3,380.2z M69.1,406.4c-3.9,0-7.3-1.4-10.1-4.3
		c-2.8-2.9-4.2-6.3-4.2-10.4c0-4.1,1.4-7.5,4.2-10.4c2.8-2.9,6.1-4.3,10.1-4.3c3.9,0,7.3,1.4,10.1,4.3c2.8,2.9,4.2,6.3,4.2,10.4
		c0,4.1-1.4,7.5-4.2,10.4C76.4,405,73,406.4,69.1,406.4L69.1,406.4z M137,369.3l-15.8,23.9c-0.1,0.2-0.3,0.3-0.5,0.3
		c-0.2,0-0.4-0.1-0.5-0.3l-15.1-23.8c-0.3-0.5-0.7-0.7-1.3-0.6c-0.5,0.1-0.8,0.5-0.9,1l-4.6,40.8c-0.1,0.8,0.1,1.5,0.7,2.1
		c0.5,0.6,1.2,0.9,2,0.9h2.5c0.7,0,1.3-0.2,1.8-0.7c0.5-0.5,0.8-1,0.9-1.7l2.2-20c0-0.3,0.1-0.5,0.4-0.6c0.3-0.1,0.5,0,0.7,0.3
		l10.1,15.7c0.3,0.3,0.6,0.5,1,0.5c0.4,0,0.8-0.2,1-0.5l10.1-15.7c0.2-0.3,0.4-0.3,0.7-0.3c0.3,0.1,0.5,0.2,0.5,0.5l2,20
		c0,0.5,0.2,0.9,0.4,1.3c0.3,0.4,0.6,0.7,1,0.9c0.4,0.2,0.8,0.3,1.3,0.3h2.6c0.8,0,1.5-0.3,2.1-0.9c0.5-0.6,0.8-1.3,0.7-2.1
		l-3.9-40.8c-0.1-0.6-0.4-1-0.9-1.1C137.7,368.7,137.3,368.9,137,369.3L137,369.3L137,369.3z M154.1,369.6c-0.8,0-1.4,0.3-1.9,0.8
		c-0.5,0.5-0.8,1.2-0.8,1.9V411c0,0.8,0.3,1.4,0.8,1.9c0.5,0.5,1.2,0.8,1.9,0.8h2.7c0.8,0,1.4-0.3,2-0.8c0.5-0.5,0.8-1.2,0.8-1.9
		v-6.5c0-0.4,0.2-0.6,0.6-0.6h4.4c4.7,0,8.8-1.7,12.1-5c3.3-3.3,5-7.3,5-12.1v-0.8c0-4.5-1.6-8.3-4.8-11.5c-3.2-3.2-7-4.8-11.6-4.8
		H154.1L154.1,369.6z M173.5,387.2c0,2.5-0.9,4.7-2.7,6.5c-1.8,1.8-4,2.7-6.5,2.7h-4c-0.4,0-0.6-0.2-0.6-0.6v-18.2
		c0-0.4,0.2-0.6,0.6-0.6h4.4c1.6,0,3.1,0.4,4.4,1.2c1.4,0.8,2.4,1.8,3.2,3.2c0.8,1.4,1.2,2.8,1.2,4.4V387.2L173.5,387.2z
		 M197.2,405.4c-0.3,0-0.5-0.1-0.7-0.3c-0.2-0.2-0.3-0.4-0.3-0.7v-32.1c0-0.4-0.1-0.7-0.2-1.1c-0.1-0.3-0.3-0.6-0.6-0.9
		c-0.3-0.3-0.5-0.4-0.9-0.6c-0.3-0.1-0.7-0.2-1-0.2h-2.8c-0.8,0-1.4,0.3-1.9,0.8c-0.5,0.5-0.8,1.2-0.8,1.9V411
		c0,0.8,0.3,1.4,0.8,1.9c0.5,0.5,1.2,0.8,1.9,0.8h21.6c0.8,0,1.4-0.3,1.9-0.8c0.5-0.5,0.8-1.2,0.8-1.9v-2.7c0-0.8-0.3-1.4-0.8-2
		c-0.5-0.5-1.2-0.8-1.9-0.8H197.2L197.2,405.4z M227.2,369.6c-0.8,0-1.4,0.3-1.9,0.8c-0.5,0.5-0.8,1.2-0.8,1.9V411
		c0,0.8,0.3,1.4,0.8,1.9c0.5,0.5,1.2,0.8,1.9,0.8h2.8c0.5,0,0.9-0.1,1.3-0.3c0.4-0.2,0.8-0.6,1-1c0.3-0.4,0.4-0.9,0.4-1.4v-38.6
		c0-0.8-0.3-1.4-0.8-1.9c-0.5-0.5-1.2-0.8-1.9-0.8H227.2L227.2,369.6z M262.4,367.8c-0.6,0-1,0.3-1.3,0.8l-18.6,41.1
		c-0.5,1.2-0.3,2.3,0.7,3.2c0.5,0.5,1.2,0.8,2,0.8h2.7c1.3,0,2.2-0.6,2.7-1.8l1.8-4.4c0.1-0.3,0.3-0.4,0.6-0.4h18.8
		c0.3,0,0.4,0.1,0.6,0.4l1.8,4.4c0.5,1.2,1.4,1.8,2.7,1.8h2.6c0.8,0,1.5-0.3,2.1-0.8c1-0.9,1.2-2,0.7-3.2l-18.6-41.1
		C263.4,368.1,263,367.8,262.4,367.8L262.4,367.8z M256.4,399.2c-0.2,0-0.3-0.1-0.3-0.2c-0.1-0.1-0.1-0.3,0-0.4l5.9-13.8
		c0.1-0.2,0.2-0.3,0.4-0.3c0.2,0,0.3,0.1,0.3,0.3l6,13.8c0.1,0.1,0.1,0.3,0,0.4c-0.1,0.1-0.2,0.2-0.3,0.2H256.4L256.4,399.2z
		 M318.9,369.7c-0.8,0-1.4,0.3-1.9,0.8c-0.5,0.5-0.8,1.2-0.8,2v21.7c0,0.3-0.1,0.4-0.4,0.6c-0.3,0.1-0.5,0.1-0.7-0.1L290.8,369
		c-0.4-0.4-0.8-0.5-1.3-0.3c-0.5,0.2-0.7,0.6-0.7,1.1v41.1c0,0.8,0.3,1.4,0.8,2c0.5,0.6,1.2,0.8,1.9,0.8h2.7c0.8,0,1.4-0.3,2-0.8
		c0.5-0.5,0.8-1.2,0.8-2v-21.8c0-0.3,0.1-0.5,0.4-0.6c0.3-0.1,0.5-0.1,0.7,0.2l24.2,25.5c0.3,0.3,0.5,0.4,0.9,0.4
		c0.2,0,0.3,0,0.4-0.1c0.5-0.2,0.8-0.5,0.8-1.1v-40.9c0-0.8-0.3-1.4-0.8-2c-0.5-0.5-1.2-0.8-2-0.8H318.9L318.9,369.7z M333.4,369.6
		c-0.8,0-1.4,0.3-1.9,0.8c-0.5,0.5-0.8,1.2-0.8,1.9v2.5c0,0.8,0.3,1.4,0.8,2c0.5,0.6,1.2,0.8,1.9,0.8h9.5c0.4,0,0.6,0.2,0.6,0.6V411
		c0,0.8,0.3,1.4,0.8,1.9c0.5,0.5,1.2,0.8,2,0.8h2.7c0.8,0,1.4-0.3,1.9-0.8c0.5-0.5,0.8-1.2,0.8-1.9v-32.6c0-0.4,0.2-0.6,0.6-0.6h9.5
		c0.8,0,1.4-0.3,2-0.8c0.5-0.5,0.8-1.2,0.8-2v-2.5c0-0.8-0.3-1.4-0.8-1.9c-0.6-0.5-1.2-0.8-2-0.8H333.4L333.4,369.6z M395.2,369.6
		c-0.8,0-1.4,0.3-2,0.8c-0.6,0.5-0.8,1.2-0.8,1.9V411c0,0.8,0.3,1.4,0.8,1.9c0.5,0.5,1.2,0.8,2,0.8h2.7c0.8,0,1.4-0.3,2-0.8
		c0.5-0.5,0.8-1.2,0.8-1.9v-10.8c0-0.4,0.2-0.6,0.6-0.6h12.7c0.8,0,1.4-0.3,2-0.8c0.5-0.5,0.8-1.2,0.8-2v-2.7c0-0.8-0.3-1.4-0.8-2
		c-0.5-0.5-1.2-0.8-2-0.8h-12.7c-0.4,0-0.6-0.2-0.6-0.6v-12.2c0-0.4,0.2-0.6,0.6-0.6h16.7c0.8,0,1.4-0.3,2-0.8
		c0.5-0.5,0.8-1.2,0.8-2v-2.7c0-0.5-0.1-0.9-0.4-1.4c-0.3-0.4-0.6-0.8-1-1c-0.4-0.2-0.9-0.3-1.4-0.3H395.2L395.2,369.6z
		 M433.1,369.6c-0.8,0-1.4,0.3-1.9,0.8c-0.5,0.5-0.8,1.2-0.8,1.9V411c0,0.8,0.3,1.4,0.8,1.9c0.5,0.5,1.2,0.8,1.9,0.8h2.8
		c0.5,0,0.9-0.1,1.3-0.3c0.4-0.2,0.8-0.6,1-1c0.3-0.4,0.4-0.9,0.4-1.4v-38.6c0-0.8-0.3-1.4-0.8-1.9c-0.5-0.5-1.2-0.8-1.9-0.8H433.1
		L433.1,369.6z M478.2,369.7c-0.8,0-1.4,0.3-1.9,0.8c-0.5,0.5-0.8,1.2-0.8,2v21.7c0,0.3-0.1,0.4-0.4,0.6c-0.3,0.1-0.5,0.1-0.7-0.1
		L450.1,369c-0.4-0.4-0.8-0.5-1.3-0.3c-0.5,0.2-0.7,0.6-0.7,1.1v41.1c0,0.8,0.3,1.4,0.8,2c0.5,0.6,1.2,0.8,1.9,0.8h2.7
		c0.8,0,1.4-0.3,2-0.8c0.5-0.5,0.8-1.2,0.8-2v-21.8c0-0.3,0.1-0.5,0.4-0.6c0.3-0.1,0.5-0.1,0.7,0.2l24.2,25.5
		c0.3,0.3,0.5,0.4,0.9,0.4c0.2,0,0.3,0,0.4-0.1c0.5-0.2,0.8-0.5,0.8-1.1v-40.9c0-0.8-0.3-1.4-0.8-2c-0.5-0.5-1.2-0.8-2-0.8H478.2
		L478.2,369.7z M510.2,367.8c-0.6,0-1,0.3-1.3,0.8l-18.6,41.1c-0.5,1.2-0.3,2.3,0.7,3.2c0.5,0.5,1.2,0.8,2,0.8h2.7
		c1.3,0,2.2-0.6,2.7-1.8l1.8-4.4c0.1-0.3,0.3-0.4,0.6-0.4h18.8c0.3,0,0.4,0.1,0.6,0.4l1.8,4.4c0.5,1.2,1.4,1.8,2.7,1.8h2.6
		c0.8,0,1.5-0.3,2.1-0.8c1-0.9,1.2-2,0.7-3.2l-18.6-41.1C511.2,368.1,510.8,367.8,510.2,367.8L510.2,367.8z M504.2,399.2
		c-0.2,0-0.3-0.1-0.3-0.2c-0.1-0.1-0.1-0.3,0-0.4l5.9-13.8c0.1-0.2,0.2-0.3,0.4-0.3s0.3,0.1,0.3,0.3l6,13.8c0.1,0.1,0.1,0.3,0,0.4
		c-0.1,0.1-0.2,0.2-0.3,0.2H504.2L504.2,399.2z M566.7,369.7c-0.8,0-1.4,0.3-1.9,0.8c-0.5,0.5-0.8,1.2-0.8,2v21.7
		c0,0.3-0.1,0.4-0.4,0.6c-0.3,0.1-0.5,0.1-0.7-0.1L538.6,369c-0.4-0.4-0.8-0.5-1.3-0.3c-0.5,0.2-0.7,0.6-0.7,1.1v41.1
		c0,0.8,0.3,1.4,0.8,2c0.5,0.6,1.2,0.8,1.9,0.8h2.7c0.8,0,1.4-0.3,2-0.8c0.5-0.5,0.8-1.2,0.8-2v-21.8c0-0.3,0.1-0.5,0.4-0.6
		c0.3-0.1,0.5-0.1,0.7,0.2l24.2,25.5c0.3,0.3,0.5,0.4,0.9,0.4c0.2,0,0.3,0,0.4-0.1c0.5-0.2,0.8-0.5,0.8-1.1v-40.9
		c0-0.8-0.3-1.4-0.8-2c-0.6-0.5-1.2-0.8-2-0.8H566.7L566.7,369.7z M615.2,401.1c-0.6-0.4-1.3-0.6-2-0.5c-0.7,0.1-1.3,0.4-1.8,0.9
		c-0.9,1-1.9,1.9-3,2.6c-1.1,0.7-2.3,1.3-3.6,1.7c-1.3,0.4-2.6,0.6-3.9,0.6c-3.8,0-7.1-1.4-9.9-4.3c-2.7-2.9-4.1-6.3-4.1-10.4
		c0-4.1,1.4-7.5,4.1-10.4c2.7-2.9,6-4.3,9.9-4.3c3.9,0,7.3,1.5,10,4.4c0.5,0.6,1.1,0.8,1.8,0.9c0.7,0,1.3-0.2,1.9-0.6l2.2-1.7
		c0.6-0.5,1-1.2,1-2c0.1-0.8-0.1-1.5-0.7-2.1c-2.2-2.2-4.6-4-7.4-5.2c-2.8-1.2-5.7-1.8-8.8-1.8c-4.1,0-7.8,1-11.2,3
		c-3.4,2-6.2,4.8-8.2,8.3c-2,3.5-3,7.3-3,11.5c0,4.1,1,8,3,11.5c2,3.5,4.7,6.3,8.2,8.3c3.4,2,7.2,3,11.2,3c3.2,0,6.3-0.7,9.2-2
		c2.9-1.3,5.5-3.2,7.6-5.7c0.5-0.6,0.7-1.3,0.6-2c-0.1-0.8-0.4-1.4-1.1-1.9L615.2,401.1L615.2,401.1z M630.7,369.6
		c-0.8,0-1.4,0.3-1.9,0.8c-0.5,0.5-0.8,1.2-0.8,1.9V411c0,0.8,0.3,1.4,0.8,1.9c0.5,0.5,1.2,0.8,1.9,0.8h2.8c0.5,0,0.9-0.1,1.3-0.3
		c0.4-0.2,0.8-0.6,1-1c0.3-0.4,0.4-0.9,0.4-1.4v-38.6c0-0.8-0.3-1.4-0.8-1.9c-0.5-0.5-1.2-0.8-1.9-0.8H630.7L630.7,369.6z
		 M665.8,367.8c-0.6,0-1,0.3-1.3,0.8L646,409.7c-0.6,1.2-0.3,2.3,0.7,3.2c0.5,0.5,1.2,0.8,2,0.8h2.7c1.3,0,2.2-0.6,2.7-1.8l1.8-4.4
		c0.1-0.3,0.3-0.4,0.6-0.4h18.8c0.3,0,0.4,0.1,0.6,0.4l1.8,4.4c0.5,1.2,1.4,1.8,2.7,1.8h2.6c0.8,0,1.5-0.3,2.1-0.8
		c1-0.9,1.2-2,0.7-3.2l-18.6-41.1C666.9,368.1,666.4,367.8,665.8,367.8L665.8,367.8z M659.9,399.2c-0.2,0-0.3-0.1-0.3-0.2
		c-0.1-0.1-0.1-0.3,0-0.4l5.9-13.8c0.1-0.2,0.2-0.3,0.4-0.3c0.2,0,0.3,0.1,0.3,0.3l6,13.8c0.1,0.1,0.1,0.3,0,0.4
		c-0.1,0.1-0.2,0.2-0.3,0.2H659.9L659.9,399.2z M701.5,405.4c-0.3,0-0.5-0.1-0.7-0.3c-0.2-0.2-0.3-0.4-0.3-0.7v-32.1
		c0-0.4-0.1-0.7-0.2-1.1c-0.1-0.3-0.3-0.6-0.6-0.9c-0.3-0.3-0.6-0.4-0.9-0.6c-0.3-0.1-0.7-0.2-1-0.2H695c-0.8,0-1.4,0.3-1.9,0.8
		c-0.5,0.5-0.8,1.2-0.8,1.9V411c0,0.8,0.3,1.4,0.8,1.9c0.5,0.5,1.2,0.8,1.9,0.8h21.5c0.8,0,1.4-0.3,1.9-0.8c0.5-0.5,0.8-1.2,0.8-1.9
		v-2.7c0-0.8-0.3-1.4-0.8-2c-0.5-0.5-1.2-0.8-1.9-0.8H701.5L701.5,405.4z"/>
	<path class="st2" d="M462.5,164.6L462.5,164.6z M465.6,173L465.6,173z M471.2,201.8L471.2,201.8z M587.7,255.2
		c0-26.9-21.8-48.8-48.8-48.8c-1.9,0-3.7,0.1-5.5,0.3c0.2-2.5,0.3-5.1,0.3-7.7c0-52.2-37.5-95.5-86.7-103.5v41.4
		c5.7,7.7,11.9,19.6,10.7,17.1c28.5,11.4,48.6,39.6,48.6,72.6c0,1.9-0.1,3.8-0.2,5.7c1.4-0.2,2.7-0.2,4.1-0.2
		c20.1,0,36.3,16.3,36.3,36.3c0,17.6-12.6,32.3-29.2,35.6c0,0,19.8,0,21.6,0C565.9,303.9,587.7,282.1,587.7,255.2L587.7,255.2z"/>
	<path class="st0" d="M392.8,117.7c-14-6.8-29.1-10.2-44.8-10.2h-8.6c-15.7,0-30.8,3.4-44.8,10.2l-6.6,3.2v-7.3V90
		c0-14.9,5.8-28.9,16.3-39.4c10.5-10.5,24.5-16.3,39.4-16.3c30.7,0,55.7,25,55.7,55.7v23.5v7.3L392.8,117.7L392.8,117.7z
		 M323.9,213.6c-8-6.1-12.8-15.7-12.8-25.8c0-17.9,14.6-32.5,32.5-32.5c17.9,0,32.5,14.6,32.5,32.5c0,9.9-4.4,19-12,25.2
		c4,10.1,7.9,20.1,11.9,30.2l2.5,6.3h-6.8h-53.9h-6.5l2.1-6.1C317,233.4,320.4,223.5,323.9,213.6 M460.5,299.3v-88.6
		c0-25.4-8.7-50.2-24.5-70.1V88.9c0-49-39.9-88.9-88.9-88.9h-6.7c-49,0-88.9,39.9-88.9,88.9v51.7c-15.8,19.8-24.5,44.7-24.5,70.1
		v88.6v4.6h4.6h224.4h4.6V299.3L460.5,299.3z"/>
	<path class="st1" d="M240.4,136.9L240.4,136.9z M240.4,130.6v-20.1c-1.9-0.3-3.9-0.4-5.9-0.4c-22.8,0-41.5,17.5-43.5,39.8
		c-6.1-1.5-12.4-2.3-18.9-2.3c-43.2,0-78.2,35-78.2,78.2c0,42.9,34.6,77.7,77.4,78.2v0h44.7v0h-13.8v0c-38-0.4-68.7-31.3-68.7-69.4
		c0-38.3,31.1-69.4,69.4-69.4c5.8,0,11.4,0.7,16.8,2.1C208.4,150.2,225.8,129.8,240.4,130.6L240.4,130.6z"/>
	<path class="st2" d="M240.4,136.9c0,0,0-5.5,0-6.2c-14.6-0.8-32,19.6-20.7,36.5c-5.4-1.3-11-2.1-16.8-2.1
		c-38.3,0-69.4,31.1-69.4,69.4c0,38.1,30.7,69,68.7,69.4v0h13.8v-0.3c-23.8-4.7-41.7-25.5-41.7-50.7c0-25.2,18.1-46.2,42-50.8
		C217.9,178.6,226.2,155.8,240.4,136.9L240.4,136.9z"/>
	<path class="st3" d="M216.2,202.2c-23.9,4.5-42,25.5-42,50.8c0,25.1,17.9,46,41.7,50.7v-4.3v-88.6C215.9,207.9,216,205,216.2,202.2
		L216.2,202.2z"/>
	<path class="st1" d="M627.6,249c0-30.3-24.6-54.9-54.9-54.9c-2.1,0-4.2,0.1-6.2,0.4c0.2-2.9,0.3-5.7,0.3-8.7
		c0-65.2-52.1-118.1-116.3-118.1c-1.9,0-3.8,0.1-5.7,0.1c1.5,6.8,2.2,13.8,2.2,21.1v6.6c49.1,8.1,86.6,51.4,86.6,103.5
		c0,2.6-0.1,5.1-0.3,7.7c1.8-0.2,3.7-0.3,5.5-0.3c26.9,0,48.8,21.8,48.8,48.8c0,26.9-21.8,48.8-48.8,48.8c0,0,31.7,0,33.7,0
		C603,303.9,627.6,279.4,627.6,249L627.6,249z M538.9,303.9L538.9,303.9z"/>
	<path class="st3" d="M546.6,268.3c0-20.1-16.3-36.3-36.3-36.3c-1.4,0-2.8,0.1-4.1,0.2c0.1-1.9,0.2-3.8,0.2-5.7
		c0-33-20.2-61.1-48.6-72.6c9,17.4,13.8,37,13.8,56.7v88.6v4.6v0h45.8C534,300.6,546.6,286,546.6,268.3L546.6,268.3z"/>
</g>
</svg>
