<?xml version="1.0" encoding="iso-8859-1"?>
<!-- Generator: Adobe Illustrator 24.2.1, SVG Export Plug-In . SVG Version: 6.00 Build 0)  -->
<svg version="1.1" id="Layer_1" xmlns="http://www.w3.org/2000/svg" xmlns:xlink="http://www.w3.org/1999/xlink" x="0px" y="0px"
	 viewBox="0 0 485.613 90.553" style="enable-background:new 0 0 485.613 90.553;" xml:space="preserve">
<g>
	<g>
		<circle style="fill:#3B7262;" cx="57.764" cy="48.444" r="8"/>
		<circle style="fill:#3B7262;" cx="73.442" cy="27.638" r="10.999"/>
		<circle style="fill:#3B7262;" cx="42.085" cy="69.25" r="6"/>
		<circle style="fill:#3B7262;" cx="34.357" cy="30.806" r="7"/>
		<circle style="fill:#3B7262;" cx="50.035" cy="10" r="9.999"/>
		<circle style="fill:#3B7262;" cx="3" cy="72.418" r="3"/>
		<circle style="fill:#3B7262;" cx="18.678" cy="51.612" r="5"/>
		<circle style="fill:#3B7262;" cx="81.171" cy="66.083" r="8.999"/>
		<circle style="fill:#3B7262;" cx="96.849" cy="45.277" r="11.999"/>
		<circle style="fill:#3B7262;" cx="112.528" cy="24.471" r="8.999"/>
		<circle style="fill:#3B7262;" cx="120.256" cy="62.915" r="10.999"/>
		<circle style="fill:#3B7262;" cx="135.934" cy="42.109" r="8"/>
		<circle style="fill:#3B7262;" cx="151.613" cy="21.303" r="6"/>
		<circle style="fill:#3B7262;" cx="143.663" cy="80.553" r="9.999"/>
		<circle style="fill:#3B7262;" cx="159.341" cy="59.747" r="7"/>
		<circle style="fill:#3B7262;" cx="190.698" cy="18.135" r="3"/>
		<circle style="fill:#3B7262;" cx="175.02" cy="38.941" r="5"/>
	</g>
	<g>
		<path style="fill:#111920;" d="M212.089,47.982c0-18.328,14.569-33.18,32.897-33.18c9.964,0,18.611,4.229,24.345,10.997
			l-6.203,5.264c-4.324-5.075-10.903-8.365-18.142-8.365c-13.629,0-24.344,11.373-24.344,25.284
			c0,13.817,10.715,25.285,24.344,25.285c7.238,0,13.817-3.29,18.142-8.366l6.203,5.264c-5.733,6.768-14.381,10.997-24.345,10.997
			C226.659,81.161,212.089,66.311,212.089,47.982z"/>
		<path style="fill:#111920;" d="M276.1,58.133c0-13.911,10.434-22.746,22.935-22.746c12.502,0,23.029,8.835,23.029,22.746
			s-10.527,23.028-23.029,23.028C286.534,81.161,276.1,72.044,276.1,58.133z M313.886,58.133c0-9.023-6.768-15.039-14.852-15.039
			c-7.989,0-14.663,6.016-14.663,15.039c0,9.118,6.674,15.321,14.663,15.321C307.118,73.454,313.886,67.251,313.886,58.133z"/>
		<path style="fill:#111920;" d="M329.959,67.156h7.613c0.094,3.76,3.384,6.862,8.741,6.862c5.546,0,8.836-2.538,8.836-6.11
			c0-3.29-2.538-4.981-6.016-5.733l-6.016-1.41c-7.332-1.974-11.562-5.545-11.562-12.595c0-7.237,6.203-12.783,15.039-12.783
			c7.426,0,15.133,3.947,15.133,12.783h-7.896c-0.094-3.384-3.571-5.64-7.05-5.64c-4.229,0-7.049,2.537-7.049,5.922
			c0,3.008,2.819,4.605,5.64,5.264l6.485,1.598c9.117,2.256,11.467,7.707,11.467,12.689c0,8.177-7.896,13.158-17.013,13.158
			C338.418,81.161,330.335,76.18,329.959,67.156z"/>
		<path style="fill:#111920;" d="M417.279,36.326v43.896h-8.177v-6.955c-2.914,5.075-9.306,7.895-15.604,7.895
			c-12.031,0-21.994-9.117-21.994-22.934c0-13.912,9.869-22.841,21.9-22.841c6.579,0,12.783,2.632,15.697,7.802v-6.862H417.279z
			 M409.102,58.133c0-9.493-7.708-15.039-14.945-15.039c-7.989,0-14.381,6.204-14.381,15.039c0,8.741,6.392,15.321,14.381,15.321
			C402.052,73.454,409.102,67.532,409.102,58.133z"/>
		<path style="fill:#111920;" d="M426.115,20.159c0-3.102,2.632-5.451,5.733-5.451c3.196,0,5.828,2.35,5.828,5.451
			s-2.632,5.452-5.828,5.452C428.746,25.611,426.115,23.261,426.115,20.159z M427.806,36.326h8.178v43.896h-8.178V36.326z"/>
		<path style="fill:#111920;" d="M445.288,58.228c0-13.912,10.998-22.841,23.593-22.841c6.861,0,12.877,2.726,16.731,6.955
			l-5.17,5.358c-2.726-2.82-6.674-4.606-11.279-4.606c-8.647,0-15.603,6.11-15.603,15.134s6.956,15.133,15.603,15.133
			c4.605,0,8.554-1.786,11.279-4.605l5.17,5.357c-3.854,4.323-9.87,6.955-16.731,6.955
			C456.286,81.067,445.288,72.138,445.288,58.228z"/>
	</g>
</g>
</svg>
