<?xml version="1.0" encoding="utf-8"?>
<!-- Generator: Adobe Illustrator 24.1.0, SVG Export Plug-In . SVG Version: 6.00 Build 0)  -->
<svg version="1.1" id="Layer_1" xmlns="http://www.w3.org/2000/svg" xmlns:xlink="http://www.w3.org/1999/xlink" x="0px" y="0px"
	 viewBox="0 0 614.57 540" style="enable-background:new 0 0 614.57 540;" xml:space="preserve">
<style type="text/css">
	.st0{fill:#1B365D;}
	.st1{fill:#00B5E2;}
	.st2{clip-path:url(#SVGID_2_);}
</style>
<g>
	<path class="st0" d="M401.22,538.9h23.43v-96.19h-23.43v37.68h-36.45v-37.68h-23.43v96.19h23.43v-39.6h36.45V538.9L401.22,538.9z
		 M517.01,462.44h-23.43v41.52c0,10.41-5.76,16.17-14.8,16.17c-8.77,0-14.66-5.76-14.66-16.17v-41.52h-23.29v44.67
		c0,20.42,11.92,32.61,29.6,32.61c10.28,0,18.5-4.66,23.16-11.24v10.41h23.43v-76.45H517.01z M557.29,473.27V437.5h-23.43v101.4
		h23.43v-10.69c4.25,6.72,12.33,11.79,23.57,11.79c18.77,0,33.71-15.35,33.71-39.47c0-24.12-14.8-39.19-33.71-39.19
		C569.9,461.34,561.54,466.41,557.29,473.27L557.29,473.27z M590.73,500.53c0,12.2-7.95,19.05-16.85,19.05
		c-8.77,0-16.72-6.71-16.72-18.91c0-12.2,7.95-18.91,16.72-18.91C582.78,481.76,590.73,488.34,590.73,500.53L590.73,500.53z"/>
	<path class="st1" d="M36.04,442.71H0v96.19h36.04c30.7,0,50.43-19.6,50.43-48.1C86.47,462.17,66.73,442.71,36.04,442.71
		L36.04,442.71z M23.43,518.62v-55.91h11.1c17.68,0,28.09,10.41,28.09,28.09s-10.41,27.82-28.09,27.82H23.43L23.43,518.62z
		 M94.96,500.53c0,24.12,14.94,39.47,33.57,39.47c11.37,0,19.46-5.21,23.71-11.92v10.83h23.43v-76.46h-23.43v10.83
		c-4.11-6.71-12.2-11.92-23.57-11.92C109.9,461.34,94.96,476.42,94.96,500.53L94.96,500.53z M152.24,500.67
		c0,12.2-7.81,18.91-16.72,18.91c-8.77,0-16.72-6.85-16.72-19.05c0-12.19,7.95-18.77,16.72-18.77
		C144.43,481.76,152.24,488.48,152.24,500.67L152.24,500.67z M196.36,512.32c0,19.87,11.1,26.58,26.99,26.58h11.92v-19.87h-8.36
		c-5.21,0-7.12-1.92-7.12-6.44V481.9h15.35v-19.46h-15.35V443.8h-23.43v18.64h-9.32v19.46h9.32L196.36,512.32L196.36,512.32z
		 M243.64,500.53c0,24.12,14.94,39.47,33.57,39.47c11.37,0,19.46-5.21,23.71-11.92v10.83h23.43v-76.46h-23.43v10.83
		c-4.11-6.71-12.2-11.92-23.57-11.92C258.57,461.34,243.64,476.42,243.64,500.53L243.64,500.53z M300.91,500.67
		c0,12.2-7.81,18.91-16.72,18.91c-8.77,0-16.72-6.85-16.72-19.05c0-12.19,7.95-18.77,16.72-18.77
		C293.1,481.76,300.91,488.48,300.91,500.67L300.91,500.67z"/>
</g>
<g>
	<path class="st0" d="M490.2,57.45V33.47C490.2,14.97,475.21,0,456.74,0h-298.9c-18.47,0-33.47,14.99-33.47,33.47v163.58
		l61.22,33.95c3.79-4.2,9.23-6.87,15.33-6.87c2.57,0,5.03,0.52,7.32,1.38l63.79-63.79c-0.17-1.05-0.31-2.1-0.31-3.17
		c0-11.47,9.3-20.76,20.76-20.76s20.76,9.3,20.76,20.76c0,1.26-0.17,2.5-0.38,3.72l37.71,20.91c3.38-2.41,7.51-3.84,11.97-3.84
		c3.29,0,6.34,0.83,9.11,2.19l57.4-63.77l-19.76-17.81L490.2,57.45L490.2,57.45z"/>
	<g>
		<g>
			<defs>
				<path id="SVGID_1_" d="M124.37,212.16v120.21c0,18.5,14.99,33.47,33.47,33.47h298.9c18.5,0,33.47-14.99,33.47-33.47V64.84
					l-31.61,79.52l-19.79-17.81l-57.83,64.24c1.41,2.79,2.26,5.91,2.26,9.25c0,11.47-9.3,20.76-20.76,20.76
					c-11.47,0-20.76-9.3-20.76-20.76c0-2.15,0.43-4.17,1.03-6.1l-36.35-20.14c-3.69,3.38-8.56,5.51-13.97,5.51
					c-5.36,0-10.2-2.1-13.9-5.44l-60.07,60.07c1.98,3.17,3.19,6.91,3.19,10.94c0,11.47-9.3,20.76-20.76,20.76
					c-11.47,0-20.76-9.3-20.76-20.76c0-0.57,0.12-1.12,0.17-1.69L124.37,212.16L124.37,212.16z"/>
			</defs>
			<clipPath id="SVGID_2_">
				<use xlink:href="#SVGID_1_"  style="overflow:visible;"/>
			</clipPath>
			<g class="st2">
				<g>
					<defs>
						<rect id="SVGID_3_" x="124.37" y="64.84" width="365.84" height="301"/>
					</defs>
					<linearGradient id="SVGID_4_" gradientUnits="userSpaceOnUse" x1="140.5751" y1="48.6292" x2="473.9949" y2="382.0489">
						<stop  offset="0.2016" style="stop-color:#00B5E2"/>
						<stop  offset="1" style="stop-color:#1B365D"/>
					</linearGradient>
					<use xlink:href="#SVGID_3_"  style="overflow:visible;fill:url(#SVGID_4_);"/>
					<clipPath id="SVGID_5_">
						<use xlink:href="#SVGID_3_"  style="overflow:visible;"/>
					</clipPath>
				</g>
			</g>
		</g>
	</g>
</g>
</svg>
