<?xml version="1.0" encoding="utf-8"?>
<!-- Generator: Adobe Illustrator 24.1.0, SVG Export Plug-In . SVG Version: 6.00 Build 0)  -->
<svg version="1.1" id="Layer_1" xmlns="http://www.w3.org/2000/svg" xmlns:xlink="http://www.w3.org/1999/xlink" x="0px" y="0px"
	 viewBox="0 0 753.88 540" style="enable-background:new 0 0 753.88 540;" xml:space="preserve">
<style type="text/css">
	.st0{fill:#6A6DCD;}
	.st1{fill:#97999B;}
</style>
<g>
	<path class="st0" d="M24.01,516.46v-65.8h18.55c4.88,0,9.36,0.81,13.41,2.42c4.05,1.61,7.51,3.87,10.37,6.78
		c2.86,2.91,5.09,6.39,6.7,10.45c1.61,4.05,2.42,8.47,2.42,13.25v0.31c0,4.89-0.81,9.3-2.42,13.25c-1.61,3.95-3.85,7.38-6.7,10.29
		c-2.86,2.91-6.31,5.15-10.37,6.7c-4.05,1.56-8.52,2.34-13.41,2.34H24.01L24.01,516.46z M0,538.13h42.57
		c8.52,0,16.35-1.4,23.47-4.21c7.12-2.81,13.25-6.65,18.4-11.54c5.14-4.89,9.12-10.65,11.93-17.31c2.81-6.65,4.21-13.82,4.21-21.52
		v-0.31c0-7.69-1.4-14.84-4.21-21.44c-2.81-6.6-6.78-12.34-11.93-17.23c-5.15-4.88-11.28-8.71-18.4-11.46
		c-7.12-2.75-14.94-4.13-23.47-4.13H0V538.13L0,538.13z M140.95,520.67c-2.39-1.77-3.59-4.26-3.59-7.49v-0.31
		c0-3.74,1.45-6.6,4.37-8.58c2.91-1.97,6.91-2.96,12.01-2.96c2.91,0,5.64,0.29,8.19,0.86c2.55,0.57,4.86,1.32,6.94,2.26v4.21
		c0,4.37-1.69,7.9-5.07,10.6c-3.38,2.7-7.87,4.05-13.49,4.05C146.46,523.32,143.34,522.43,140.95,520.67L140.95,520.67z
		 M157.95,536.8c4.05-1.92,7.54-4.49,10.45-7.72v9.04h22.92v-48.49c0-5.61-0.73-10.68-2.18-15.2c-1.46-4.52-3.74-8.34-6.86-11.46
		c-3.02-3.01-6.84-5.33-11.46-6.94c-4.63-1.61-10.21-2.42-16.76-2.42c-7.07,0-13.1,0.62-18.09,1.87c-4.99,1.25-9.77,2.86-14.34,4.83
		l5.93,18.09c3.84-1.45,7.51-2.57,10.99-3.35c3.48-0.78,7.51-1.17,12.08-1.17c5.92,0,10.39,1.3,13.41,3.9
		c3.01,2.6,4.52,6.39,4.52,11.38v1.4c-3.02-1.04-6.11-1.87-9.28-2.49c-3.17-0.62-6.89-0.94-11.15-0.94c-4.99,0-9.54,0.55-13.64,1.64
		c-4.11,1.09-7.64,2.73-10.6,4.91c-2.96,2.18-5.28,4.94-6.94,8.26c-1.66,3.33-2.5,7.28-2.5,11.85v0.31c0,4.16,0.75,7.82,2.26,10.99
		c1.51,3.17,3.56,5.85,6.16,8.03c2.6,2.18,5.64,3.82,9.12,4.91c3.48,1.09,7.2,1.64,11.15,1.64
		C148.96,539.69,153.9,538.73,157.95,536.8L157.95,536.8z M250.41,538.21c3.01-0.88,5.77-2.05,8.26-3.51v-19.02
		c-3.64,2.08-7.54,3.12-11.69,3.12c-5.09,0-7.64-2.71-7.64-8.14v-35.83h19.65v-20.27h-19.65v-21.36h-23.7v21.36h-9.98v20.27h9.98
		v39.6c0,4.89,0.6,8.91,1.79,12.08c1.19,3.17,2.86,5.74,4.99,7.72c2.13,1.98,4.68,3.35,7.64,4.13c2.96,0.78,6.26,1.17,9.9,1.17
		C243.91,539.53,247.39,539.09,250.41,538.21L250.41,538.21z M297.97,520.67c-2.39-1.77-3.59-4.26-3.59-7.49v-0.31
		c0-3.74,1.45-6.6,4.37-8.58c2.91-1.97,6.91-2.96,12.01-2.96c2.91,0,5.64,0.29,8.19,0.86c2.55,0.57,4.86,1.32,6.94,2.26v4.21
		c0,4.37-1.69,7.9-5.07,10.6c-3.38,2.7-7.87,4.05-13.49,4.05C303.47,523.32,300.36,522.43,297.97,520.67L297.97,520.67z
		 M314.96,536.8c4.05-1.92,7.54-4.49,10.45-7.72v9.04h22.92v-48.49c0-5.61-0.73-10.68-2.18-15.2c-1.46-4.52-3.74-8.34-6.86-11.46
		c-3.02-3.01-6.84-5.33-11.46-6.94c-4.63-1.61-10.21-2.42-16.76-2.42c-7.07,0-13.1,0.62-18.09,1.87c-4.99,1.25-9.77,2.86-14.34,4.83
		l5.92,18.09c3.85-1.45,7.51-2.57,10.99-3.35c3.48-0.78,7.51-1.17,12.08-1.17c5.93,0,10.39,1.3,13.41,3.9
		c3.01,2.6,4.52,6.39,4.52,11.38v1.4c-3.02-1.04-6.11-1.87-9.28-2.49c-3.17-0.62-6.89-0.94-11.15-0.94c-4.99,0-9.54,0.55-13.64,1.64
		c-4.11,1.09-7.64,2.73-10.6,4.91c-2.96,2.18-5.28,4.94-6.94,8.26c-1.66,3.33-2.49,7.28-2.49,11.85v0.31
		c0,4.16,0.75,7.82,2.26,10.99c1.5,3.17,3.56,5.85,6.16,8.03c2.6,2.18,5.64,3.82,9.12,4.91c3.48,1.09,7.2,1.64,11.15,1.64
		C305.97,539.69,310.91,538.73,314.96,536.8L314.96,536.8z M371.25,538.13h24.01v-43.81h44.28v43.81h24.01V428.98h-24.01v43.19
		h-44.28v-43.19h-24.01V538.13L371.25,538.13z M506.43,489.79c0.93-5.4,2.93-9.72,6-12.94c3.06-3.22,7.09-4.83,12.08-4.83
		c4.99,0,8.99,1.64,12.01,4.91c3.01,3.27,4.89,7.56,5.61,12.86H506.43L506.43,489.79z M546.66,535.87
		c5.61-2.75,10.39-6.57,14.34-11.46l-13.57-12.01c-3.33,3.02-6.55,5.2-9.67,6.55c-3.12,1.35-6.65,2.03-10.6,2.03
		c-5.3,0-9.74-1.38-13.33-4.13c-3.59-2.75-5.95-6.83-7.09-12.24h58.16c0.1-1.14,0.18-2.23,0.23-3.27c0.05-1.04,0.08-2.03,0.08-2.96
		c0-5.93-0.81-11.62-2.42-17.07c-1.61-5.46-4.11-10.29-7.48-14.5c-3.38-4.21-7.62-7.56-12.71-10.06
		c-5.09-2.49-11.12-3.74-18.09-3.74c-6.13,0-11.72,1.15-16.76,3.43c-5.04,2.29-9.38,5.41-13.02,9.36c-3.64,3.95-6.47,8.57-8.5,13.88
		c-2.03,5.3-3.04,10.91-3.04,16.84v0.31c0,6.45,1.09,12.29,3.27,17.54c2.18,5.25,5.22,9.8,9.12,13.64c3.9,3.85,8.52,6.81,13.88,8.89
		c5.35,2.08,11.15,3.12,17.39,3.12C534.45,540,541.05,538.62,546.66,535.87L546.66,535.87z M583.93,538.13h23.7V424.3h-23.7V538.13
		L583.93,538.13z M631.01,538.13h23.7v-83.58h-23.7V538.13L631.01,538.13z M630.39,445.35h24.95V424.3h-24.95V445.35L630.39,445.35z
		 M669.99,538.13h24.79l16.84-26.04l16.84,26.04h25.41l-29.47-42.88l28.22-40.7h-24.79l-15.75,24.32l-15.59-24.32h-25.42
		l28.22,41.16L669.99,538.13L669.99,538.13z"/>
	<path class="st0" d="M116.59,0C101.46,0,89.2,12.26,89.2,27.39v100.13c0,15.13,12.26,27.39,27.39,27.39l0,0
		c15.13,0,27.39-12.26,27.39-27.39V27.39C143.98,12.26,131.71,0,116.59,0L116.59,0L116.59,0z"/>
	<path class="st0" d="M637.29,313.76c15.13,0,27.39-12.26,27.39-27.39V186.24c0-15.13-12.26-27.39-27.39-27.39l0,0
		c-15.13,0-27.39,12.26-27.39,27.39v100.13C609.9,301.5,622.16,313.76,637.29,313.76L637.29,313.76L637.29,313.76z"/>
	<path class="st0" d="M220.73,9.33c-15.13,0-27.39,12.26-27.39,27.39V84.5c0,15.13,12.26,27.39,27.39,27.39l0,0
		c15.13,0,27.39-12.26,27.39-27.39V36.72C248.12,21.59,235.85,9.33,220.73,9.33L220.73,9.33L220.73,9.33z"/>
	<path class="st0" d="M533.15,304.43c15.13,0,27.39-12.26,27.39-27.39v-47.78c0-15.13-12.26-27.39-27.39-27.39l0,0
		c-15.13,0-27.39,12.26-27.39,27.39v47.78C505.76,292.16,518.02,304.43,533.15,304.43L533.15,304.43L533.15,304.43z"/>
	<path class="st0" d="M324.87,55.34c-15.13,0-27.39,12.26-27.39,27.39v28.65c0,15.13,12.26,27.39,27.39,27.39l0,0
		c15.13,0,27.39-12.26,27.39-27.39V82.72C352.26,67.6,339.99,55.34,324.87,55.34L324.87,55.34L324.87,55.34z"/>
	<path class="st0" d="M429.01,258.42c15.13,0,27.39-12.26,27.39-27.39v-28.65c0-15.13-12.26-27.39-27.39-27.39l0,0
		c-15.13,0-27.39,12.26-27.39,27.39v28.65C401.62,246.16,413.88,258.42,429.01,258.42L429.01,258.42L429.01,258.42z"/>
	<path class="st1" d="M116.59,286.37c15.13,0,27.39-12.26,27.39-27.39s-12.26-27.39-27.39-27.39c-15.13,0-27.39,12.26-27.39,27.39
		S101.46,286.37,116.59,286.37L116.59,286.37z"/>
	<path class="st1" d="M637.29,27.39c-15.13,0-27.39,12.26-27.39,27.39c0,15.13,12.26,27.39,27.39,27.39
		c15.13,0,27.39-12.26,27.39-27.39C664.68,39.65,652.41,27.39,637.29,27.39L637.29,27.39z"/>
	<path class="st1" d="M220.73,313.76c15.13,0,27.39-12.26,27.39-27.39s-12.26-27.39-27.39-27.39s-27.39,12.26-27.39,27.39
		S205.6,313.76,220.73,313.76L220.73,313.76z"/>
	<path class="st1" d="M533.15,0c-15.13,0-27.39,12.26-27.39,27.39c0,15.13,12.26,27.39,27.39,27.39c15.13,0,27.39-12.26,27.39-27.39
		C560.54,12.26,548.27,0,533.15,0L533.15,0z"/>
	<path class="st1" d="M324.87,267.99c15.13,0,27.39-12.26,27.39-27.39s-12.26-27.39-27.39-27.39s-27.39,12.26-27.39,27.39
		S309.74,267.99,324.87,267.99L324.87,267.99z"/>
	<path class="st1" d="M429.01,45.77c-15.13,0-27.39,12.26-27.39,27.39c0,15.13,12.26,27.39,27.39,27.39s27.39-12.26,27.39-27.39
		C456.4,58.03,444.13,45.77,429.01,45.77L429.01,45.77z"/>
</g>
</svg>
