<?xml version="1.0" encoding="utf-8"?>
<!-- Generator: Adobe Illustrator 26.0.1, SVG Export Plug-In . SVG Version: 6.00 Build 0)  -->
<svg version="1.1" id="Layer_1" xmlns="http://www.w3.org/2000/svg" xmlns:xlink="http://www.w3.org/1999/xlink" x="0px" y="0px"
	 viewBox="0 0 720 281.9" style="enable-background:new 0 0 720 281.9;" xml:space="preserve">
<style type="text/css">
	.st0{fill:#0091C7;}
	.st1{fill:#00BCE7;}
</style>
<g>
	<path class="st0" d="M274.1,208.6h11.9v-53.9h-11.9V208.6L274.1,208.6z M300.5,208.6h11.7v-34.3l26.1,34.3h10.1v-53.9h-11.7v33.2
		l-25.3-33.2h-10.9V208.6L300.5,208.6z M394.7,208.9c2.1-0.4,4-1.1,5.8-1.9c1.8-0.8,3.4-1.9,4.9-3c1.5-1.2,2.9-2.5,4.3-4l-7.5-7.6
		c-2.1,2-4.2,3.5-6.4,4.6c-2.1,1.1-4.7,1.7-7.8,1.7c-2.3,0-4.4-0.4-6.4-1.3c-1.9-0.9-3.6-2.1-4.9-3.7c-1.4-1.5-2.4-3.3-3.2-5.4
		c-0.8-2.1-1.2-4.2-1.2-6.5v-0.2c0-2.3,0.4-4.5,1.2-6.5c0.8-2,1.8-3.8,3.2-5.4c1.4-1.5,3-2.7,5-3.6c1.9-0.9,4-1.3,6.3-1.3
		c2.7,0,5.2,0.5,7.4,1.6c2.2,1.1,4.3,2.6,6.4,4.5l7.5-8.7c-1.2-1.2-2.6-2.4-4-3.4c-1.4-1-3-1.9-4.7-2.6c-1.7-0.7-3.6-1.3-5.7-1.7
		c-2.1-0.4-4.4-0.6-6.9-0.6c-4.2,0-8,0.7-11.4,2.2c-3.4,1.5-6.4,3.5-8.9,6c-2.5,2.5-4.4,5.5-5.8,8.9c-1.4,3.4-2.1,7-2.1,10.8v0.2
		c0,3.8,0.7,7.5,2.1,10.9c1.4,3.4,3.3,6.3,5.8,8.8c2.5,2.5,5.4,4.5,8.8,5.9c3.4,1.4,7.1,2.2,11,2.2
		C390.2,209.6,392.6,209.4,394.7,208.9L394.7,208.9z M420.3,208.6H459v-10.7h-26.9v-43.2h-11.9V208.6L420.3,208.6z M501.3,208
		c2.9-1,5.4-2.5,7.5-4.5c2.1-2,3.6-4.6,4.7-7.6c1.1-3,1.7-6.6,1.7-10.7v-30.4h-11.9v30.9c0,4.3-1,7.5-3.1,9.7
		c-2.1,2.2-4.9,3.2-8.5,3.2c-3.6,0-6.5-1.1-8.5-3.3c-2.1-2.2-3.1-5.6-3.1-10v-30.5h-11.9v30.8c0,8,2.1,13.9,6.2,17.9
		c4.2,4,9.9,6,17.1,6C495.1,209.5,498.3,209,501.3,208L501.3,208z M555.5,208.3c2.4-0.7,4.5-1.8,6.2-3.2c1.7-1.4,3.1-3.2,4.1-5.2
		c1-2.1,1.5-4.5,1.5-7.1v-0.2c0-2.4-0.4-4.4-1.1-6.1s-1.9-3.2-3.3-4.4c-1.5-1.3-3.3-2.3-5.4-3.2s-4.6-1.7-7.3-2.4
		c-2.3-0.6-4.2-1.2-5.8-1.6c-1.5-0.5-2.7-0.9-3.6-1.5c-0.9-0.5-1.5-1.1-1.8-1.7c-0.3-0.6-0.5-1.4-0.5-2.3v-0.2
		c0-1.3,0.6-2.5,1.7-3.3c1.2-0.9,2.9-1.3,5.2-1.3c2.3,0,4.6,0.5,6.9,1.4c2.3,0.9,4.7,2.2,7.1,3.9l6.2-8.9c-2.8-2.2-5.8-3.9-9.1-5.1
		c-3.3-1.2-6.9-1.8-10.9-1.8c-2.8,0-5.3,0.4-7.6,1.2c-2.3,0.8-4.3,1.9-5.9,3.3c-1.7,1.4-2.9,3.1-3.9,5.1c-0.9,2-1.4,4.2-1.4,6.7v0.2
		c0,2.7,0.4,4.9,1.3,6.7c0.8,1.8,2,3.3,3.6,4.5c1.5,1.2,3.4,2.2,5.6,3c2.2,0.8,4.7,1.6,7.4,2.2c2.3,0.6,4.1,1.1,5.5,1.6
		c1.4,0.5,2.5,1,3.3,1.5c0.8,0.5,1.3,1.1,1.6,1.7c0.3,0.6,0.4,1.3,0.4,2v0.2c0,1.6-0.7,2.8-2,3.7s-3.3,1.3-5.7,1.3
		c-3.1,0-5.9-0.6-8.5-1.8c-2.6-1.2-5.1-2.8-7.6-4.8l-7,8.4c3.2,2.9,6.8,5.1,10.8,6.5c4,1.4,8,2.1,12.1,2.1
		C550.5,209.4,553.1,209,555.5,208.3L555.5,208.3z M579.2,208.6H591v-53.9h-11.9V208.6L579.2,208.6z M625.3,197.3
		c-2-0.9-3.7-2.1-5.2-3.7c-1.5-1.5-2.6-3.3-3.4-5.4c-0.8-2.1-1.2-4.2-1.2-6.5v-0.2c0-2.3,0.4-4.5,1.2-6.5c0.8-2,1.9-3.8,3.3-5.4
		c1.4-1.5,3.1-2.7,5.1-3.6c2-0.9,4.2-1.3,6.6-1.3c2.4,0,4.5,0.4,6.5,1.3s3.7,2.1,5.2,3.7c1.5,1.5,2.6,3.3,3.4,5.4
		c0.8,2.1,1.2,4.2,1.2,6.5v0.2c0,2.3-0.4,4.5-1.2,6.5c-0.8,2-1.9,3.8-3.3,5.4c-1.4,1.5-3.1,2.7-5.1,3.6c-2,0.9-4.2,1.3-6.5,1.3
		C629.5,198.6,627.3,198.2,625.3,197.3L625.3,197.3z M643.3,207.4c3.5-1.5,6.5-3.5,9.1-6c2.5-2.5,4.5-5.5,6-8.9
		c1.4-3.4,2.2-7,2.2-10.8v-0.2c0-3.8-0.7-7.5-2.1-10.8c-1.4-3.4-3.4-6.3-5.9-8.8c-2.5-2.5-5.6-4.5-9-5.9c-3.5-1.5-7.3-2.2-11.5-2.2
		c-4.2,0-8,0.7-11.5,2.2c-3.5,1.5-6.5,3.5-9.1,6c-2.5,2.5-4.5,5.5-6,8.9c-1.4,3.4-2.2,7-2.2,10.8v0.2c0,3.8,0.7,7.5,2.1,10.8
		c1.4,3.4,3.4,6.3,5.9,8.8c2.5,2.5,5.6,4.5,9,5.9c3.5,1.5,7.3,2.2,11.5,2.2C635.9,209.6,639.8,208.8,643.3,207.4L643.3,207.4z
		 M672.1,208.6h11.7v-34.3l26.1,34.3H720v-53.9h-11.7v33.2L683,154.8h-10.9V208.6L672.1,208.6z"/>
	<path class="st1" d="M274.1,131.7h41v-10.5h-29.3v-11.3h25.4V99.2h-25.4V88.3h28.9V77.8h-40.6V131.7L274.1,131.7z M346.5,120.3
		c-2-0.9-3.7-2.1-5.2-3.7c-1.5-1.5-2.6-3.3-3.4-5.4c-0.8-2.1-1.2-4.2-1.2-6.5v-0.2c0-2.3,0.4-4.5,1.2-6.5c0.8-2,1.9-3.8,3.3-5.4
		c1.4-1.5,3.1-2.7,5.1-3.6c2-0.9,4.2-1.3,6.6-1.3c2.4,0,4.5,0.4,6.5,1.3c2,0.9,3.7,2.1,5.2,3.7c1.5,1.5,2.6,3.3,3.4,5.4
		c0.8,2.1,1.2,4.2,1.2,6.5v0.2c0,2.8-0.5,5.2-1.5,7.4l-8.9-8l-7.5,8.5l8.8,7.5c-2.2,1-4.6,1.5-7.1,1.5
		C350.6,121.6,348.5,121.2,346.5,120.3L346.5,120.3z M374.8,133.3l7.5-8.4l-5.5-4.7c1.5-2.3,2.7-4.7,3.5-7.3
		c0.8-2.6,1.2-5.3,1.2-8.2v-0.2c0-3.9-0.7-7.5-2.1-10.8c-1.4-3.4-3.4-6.3-5.9-8.8c-2.5-2.5-5.6-4.5-9-5.9c-3.5-1.5-7.3-2.2-11.5-2.2
		c-4.2,0-8,0.7-11.5,2.2c-3.5,1.5-6.5,3.5-9.1,6c-2.5,2.5-4.5,5.5-6,8.9c-1.4,3.4-2.2,7-2.2,10.8v0.2c0,3.9,0.7,7.5,2.1,10.8
		c1.4,3.4,3.4,6.3,5.9,8.8c2.5,2.5,5.6,4.5,9,5.9c3.5,1.5,7.3,2.2,11.5,2.2c3,0,5.9-0.4,8.5-1.2c2.7-0.8,5.2-1.9,7.5-3.4
		L374.8,133.3L374.8,133.3z M425.5,131c2.9-1,5.4-2.5,7.5-4.5c2.1-2,3.6-4.6,4.7-7.6c1.1-3,1.7-6.6,1.7-10.7V77.8h-11.9v30.9
		c0,4.3-1,7.5-3.1,9.7c-2.1,2.2-4.9,3.2-8.5,3.2c-3.6,0-6.5-1.1-8.5-3.3c-2.1-2.2-3.1-5.6-3.1-10V77.8h-11.9v30.8
		c0,8,2.1,13.9,6.2,17.9c4.2,4,9.9,6,17.1,6C419.3,132.5,422.6,132,425.5,131L425.5,131z M453.1,131.7h11.9V77.8h-11.9V131.7
		L453.1,131.7z M492,131.7h11.9v-43h16.4V77.8h-44.7v10.9H492V131.7L492,131.7z M545.6,131.7h11.9v-21.5l20.7-32.4h-13.5l-13.1,21.6
		l-12.9-21.6h-13.9l20.7,32.6V131.7L545.6,131.7z M621.9,123.7h10.9v-13.9h13.9V99.2h-13.9V85.4h-10.9v13.8H608v10.7h13.9V123.7
		L621.9,123.7z"/>
	<path class="st0" d="M285.9,44V11.5h9.2c2.4,0,4.6,0.4,6.6,1.2c2,0.8,3.7,1.9,5.1,3.3c1.4,1.4,2.5,3.2,3.3,5.2
		c0.8,2,1.2,4.2,1.2,6.5v0.2c0,2.4-0.4,4.6-1.2,6.5c-0.8,2-1.9,3.6-3.3,5.1c-1.4,1.4-3.1,2.5-5.1,3.3c-2,0.8-4.2,1.2-6.6,1.2H285.9
		L285.9,44z M274.1,54.7h21c4.2,0,8.1-0.7,11.6-2.1c3.5-1.4,6.5-3.3,9.1-5.7c2.5-2.4,4.5-5.3,5.9-8.5c1.4-3.3,2.1-6.8,2.1-10.6v-0.2
		c0-3.8-0.7-7.3-2.1-10.6c-1.4-3.3-3.3-6.1-5.9-8.5c-2.5-2.4-5.6-4.3-9.1-5.7c-3.5-1.4-7.4-2-11.6-2h-21V54.7L274.1,54.7z
		 M335.9,54.7h11.9V0.8h-11.9V54.7L335.9,54.7z M379.5,55h10.5l21.8-54.3h-12.8l-14.1,38l-14.1-38h-13.1L379.5,55L379.5,55z
		 M421.1,54.7h41V44.1h-29.3V32.8h25.4V22.3h-25.4V11.3h28.9V0.8h-40.6V54.7L421.1,54.7z M485.6,26.9V11.5h11.8
		c2.9,0,5.2,0.6,6.9,1.9c1.6,1.3,2.5,3.2,2.5,5.8v0.2c0,2.3-0.8,4.2-2.3,5.5c-1.6,1.4-3.8,2.1-6.7,2.1H485.6L485.6,26.9z
		 M473.8,54.7h11.9V37.4h9.2h0.2l11.5,17.2h13.9l-13.2-19.2c3.4-1.3,6.2-3.3,8.4-6c2.1-2.7,3.2-6.3,3.2-10.7v-0.2
		c0-5.1-1.5-9.2-4.6-12.3c-3.6-3.6-8.9-5.5-15.7-5.5h-24.6V54.7L473.8,54.7z M557.8,54.3c2.4-0.7,4.5-1.8,6.2-3.2
		c1.7-1.4,3.1-3.2,4.1-5.2c1-2.1,1.5-4.5,1.5-7.1v-0.2c0-2.4-0.4-4.4-1.1-6.1c-0.7-1.7-1.9-3.2-3.3-4.4c-1.5-1.3-3.3-2.3-5.4-3.2
		c-2.1-0.9-4.6-1.7-7.3-2.4c-2.3-0.6-4.2-1.2-5.8-1.6c-1.5-0.5-2.7-0.9-3.6-1.5c-0.9-0.5-1.5-1.1-1.8-1.7c-0.3-0.6-0.5-1.4-0.5-2.3
		v-0.2c0-1.3,0.6-2.5,1.7-3.3c1.2-0.9,2.9-1.3,5.2-1.3c2.3,0,4.6,0.5,6.9,1.4c2.3,1,4.7,2.2,7.1,3.9l6.2-8.9
		C565,4.6,562,3,558.7,1.8c-3.3-1.2-6.9-1.8-10.9-1.8c-2.8,0-5.3,0.4-7.6,1.2c-2.3,0.8-4.3,1.9-5.9,3.3c-1.7,1.4-2.9,3.1-3.9,5.1
		c-0.9,2-1.4,4.2-1.4,6.7v0.2c0,2.7,0.4,4.9,1.3,6.7c0.8,1.8,2,3.3,3.6,4.5c1.5,1.2,3.4,2.2,5.6,3c2.2,0.8,4.7,1.6,7.4,2.2
		c2.3,0.6,4.1,1.1,5.5,1.6c1.4,0.5,2.5,1,3.3,1.5c0.8,0.5,1.3,1.1,1.6,1.7c0.3,0.6,0.4,1.3,0.4,2v0.2c0,1.6-0.7,2.8-2,3.7
		c-1.4,0.9-3.3,1.3-5.7,1.3c-3.1,0-5.9-0.6-8.5-1.8c-2.6-1.2-5.1-2.8-7.6-4.8l-7,8.4c3.2,2.9,6.8,5.1,10.8,6.5c4,1.4,8,2.1,12.1,2.1
		C552.7,55.4,555.4,55.1,557.8,54.3L557.8,54.3z M581.4,54.7h11.9V0.8h-11.9V54.7L581.4,54.7z M620.4,54.7h11.9v-43h16.4V0.8H604
		v10.9h16.4V54.7L620.4,54.7z M674,54.7h11.9V33.2l20.7-32.4h-13.5L680,22.4L667.1,0.8h-13.9L674,33.4V54.7L674,54.7z"/>
	<path class="st0" d="M285.6,275.8c5.6,0,9.6-3.1,9.6-8v-0.1c0-4.3-2.9-6.6-9.2-8c-6.2-1.3-7.7-2.8-7.7-5.5v-0.1
		c0-2.5,2.3-4.6,6-4.6c2.9,0,5.5,0.9,8.1,3.1l1.9-2.5c-2.9-2.3-5.8-3.5-9.9-3.5c-5.4,0-9.3,3.3-9.3,7.7v0.1c0,4.6,3,6.7,9.5,8.1
		c5.9,1.2,7.3,2.7,7.3,5.4v0.1c0,2.8-2.5,4.8-6.3,4.8c-3.9,0-6.7-1.3-9.7-4l-2,2.3C277.4,274.3,281.1,275.8,285.6,275.8L285.6,275.8
		z M301.2,281.9h3.1v-10.4c1.6,2.3,4.1,4.4,8,4.4c5,0,9.9-4,9.9-10.8V265c0-6.9-5-10.8-9.9-10.8c-3.8,0-6.3,2.1-8,4.6v-4.2h-3.1
		V281.9L301.2,281.9z M311.7,273.1c-3.9,0-7.5-3.2-7.5-8.1V265c0-4.8,3.7-8,7.5-8c4,0,7.3,3.1,7.3,8.1v0.1
		C319,270.1,315.7,273.1,311.7,273.1L311.7,273.1z M337,275.9c3.9,0,6.5-1.6,8.6-3.9l-1.9-1.7c-1.7,1.8-3.7,2.9-6.6,2.9
		c-3.7,0-6.9-2.5-7.3-7.1h16.5c0-0.4,0-0.6,0-1c0-6.1-3.5-11-9.7-11c-5.8,0-10,4.8-10,10.8v0.1C326.6,271.5,331.3,275.9,337,275.9
		L337,275.9z M329.8,263.9c0.4-4.1,3.1-7.1,6.8-7.1c4.2,0,6.3,3.3,6.7,7.1H329.8L329.8,263.9z M361.2,275.9c3.9,0,6.4-1.7,8.5-4
		l-2-1.9c-1.7,1.8-3.7,3.1-6.4,3.1c-4.4,0-7.7-3.6-7.7-8.1V265c0-4.5,3.2-8.1,7.5-8.1c2.8,0,4.7,1.4,6.3,3.1l2.1-2.2
		c-1.9-2.1-4.4-3.7-8.3-3.7c-6.1,0-10.7,5-10.7,10.9v0.1C350.5,271,355.1,275.9,361.2,275.9L361.2,275.9z M374.9,250.1h3.5v-3.4
		h-3.5V250.1L374.9,250.1z M375.1,275.4h3.1v-20.8h-3.1V275.4L375.1,275.4z M391.6,275.9c3.7,0,6.1-1.7,7.5-3.6v3.1h3v-12.7
		c0-2.7-0.7-4.7-2.1-6.1c-1.5-1.5-3.8-2.3-6.7-2.3c-3,0-5.3,0.7-7.6,1.7l0.9,2.5c1.9-0.9,3.9-1.5,6.3-1.5c3.9,0,6.2,1.9,6.2,5.7v0.7
		c-1.9-0.5-3.7-0.9-6.4-0.9c-5.3,0-8.9,2.3-8.9,6.7v0.1C383.8,273.7,387.7,275.9,391.6,275.9L391.6,275.9z M392.2,273.4
		c-2.8,0-5.2-1.5-5.2-4.2v-0.1c0-2.6,2.2-4.3,6.1-4.3c2.5,0,4.6,0.4,6.1,0.9v2C399.2,271.1,396,273.4,392.2,273.4L392.2,273.4z
		 M409,275.4h3.1V246H409V275.4L409,275.4z M432.2,275.4h3.2v-28.2h-3.2V275.4L432.2,275.4z M443.1,275.4h3.1v-11.9
		c0-3.9,2.7-6.5,6.2-6.5c3.7,0,5.8,2.4,5.8,6.3v12.2h3.1v-12.9c0-5-2.9-8.3-8-8.3c-3.6,0-5.8,1.8-7.1,4.1v-3.6h-3.1V275.4
		L443.1,275.4z M474.9,275.8c1.5,0,2.7-0.3,3.7-0.9v-2.7c-1.1,0.5-2,0.7-3,0.7c-2.1,0-3.5-0.9-3.5-3.5v-12.2h6.6v-2.7h-6.6v-6.3H469
		v6.3h-2.9v2.7h2.9v12.6C469,274.1,471.6,275.8,474.9,275.8L474.9,275.8z M492.7,275.9c4,0,6.5-1.6,8.6-3.9l-1.9-1.7
		c-1.7,1.8-3.7,2.9-6.6,2.9c-3.7,0-6.9-2.5-7.3-7.1H502c0-0.4,0-0.6,0-1c0-6.1-3.5-11-9.7-11c-5.8,0-10,4.8-10,10.8v0.1
		C482.3,271.5,487,275.9,492.7,275.9L492.7,275.9z M485.5,263.9c0.4-4.1,3.1-7.1,6.8-7.1c4.2,0,6.3,3.3,6.6,7.1H485.5L485.5,263.9z
		 M507.5,275.4h3.1v-8.3c0-6.3,3.7-9.5,8.3-9.5h0.2v-3.3c-3.9-0.2-7,2.3-8.5,5.8v-5.4h-3.1V275.4L507.5,275.4z M532,275.9
		c3.9,0,6.5-1.6,8.6-3.9l-1.9-1.7c-1.7,1.8-3.7,2.9-6.6,2.9c-3.7,0-6.9-2.5-7.3-7.1h16.5c0-0.4,0-0.6,0-1c0-6.1-3.5-11-9.7-11
		c-5.8,0-10,4.8-10,10.8v0.1C521.6,271.5,526.3,275.9,532,275.9L532,275.9z M524.7,263.9c0.4-4.1,3.1-7.1,6.8-7.1
		c4.2,0,6.3,3.3,6.7,7.1H524.7L524.7,263.9z M553.6,275.8c4.2,0,7.4-2.3,7.4-6.2v-0.1c0-3.7-3.5-5-6.7-6c-2.8-0.8-5.4-1.6-5.4-3.6
		v-0.1c0-1.7,1.6-3,4-3c2,0,4.2,0.8,6.2,2l1.4-2.3c-2.1-1.4-5-2.3-7.5-2.3c-4.1,0-7.1,2.4-7.1,6v0.1c0,3.8,3.6,5,6.9,5.9
		c2.7,0.8,5.2,1.6,5.2,3.7v0.1c0,2-1.8,3.3-4.3,3.3c-2.5,0-5-1-7.2-2.7l-1.6,2.2C547.3,274.7,550.6,275.8,553.6,275.8L553.6,275.8z
		 M573.4,275.8c1.5,0,2.7-0.3,3.7-0.9v-2.7c-1.1,0.5-2,0.7-3,0.7c-2.1,0-3.5-0.9-3.5-3.5v-12.2h6.6v-2.7h-6.6v-6.3h-3.1v6.3h-2.9
		v2.7h2.9v12.6C567.5,274.1,570,275.8,573.4,275.8L573.4,275.8z M608.4,275.9c4.8,0,8.7-2,11.3-4.3v-11.2h-11.6v2.9h8.6v7
		c-1.9,1.6-4.9,2.8-8.1,2.8c-6.9,0-11.2-5-11.2-11.7v-0.1c0-6.3,4.5-11.6,10.7-11.6c4,0,6.4,1.3,8.6,3.2l2.1-2.4
		c-2.8-2.4-5.8-3.7-10.5-3.7c-8.5,0-14.1,6.8-14.1,14.6v0.1C594,269.5,599.5,275.9,608.4,275.9L608.4,275.9z M626.4,275.4h3.1v-8.3
		c0-6.3,3.7-9.5,8.3-9.5h0.2v-3.3c-3.9-0.2-7,2.3-8.5,5.8v-5.4h-3.1V275.4L626.4,275.4z M651.3,275.9c6.3,0,10.9-5,10.9-10.9V265
		c0-5.9-4.6-10.8-10.8-10.8c-6.3,0-10.9,5-10.9,10.9v0.1C640.5,271,645,275.9,651.3,275.9L651.3,275.9z M651.4,273.1
		c-4.4,0-7.7-3.6-7.7-8.1V265c0-4.4,3.1-8.1,7.6-8.1c4.4,0,7.7,3.7,7.7,8.1v0.1C659,269.5,655.9,273.1,651.4,273.1L651.4,273.1z
		 M675.5,275.9c3.6,0,5.7-1.8,7.1-4.1v3.6h3.1v-20.8h-3.1v11.9c0,3.9-2.7,6.5-6.2,6.5c-3.7,0-5.8-2.4-5.8-6.3v-12.2h-3.1v12.9
		C667.5,272.5,670.4,275.9,675.5,275.9L675.5,275.9z M692.6,281.9h3.1v-10.4c1.6,2.3,4.1,4.4,8,4.4c5,0,9.9-4,9.9-10.8V265
		c0-6.9-5-10.8-9.9-10.8c-3.8,0-6.3,2.1-8,4.6v-4.2h-3.1V281.9L692.6,281.9z M703.1,273.1c-3.9,0-7.5-3.2-7.5-8.1V265
		c0-4.8,3.7-8,7.5-8c3.9,0,7.3,3.1,7.3,8.1v0.1C710.5,270.1,707.2,273.1,703.1,273.1L703.1,273.1z"/>
	<polygon class="st1" points="169.9,0 169.9,67 0,121 0,54.2 169.7,0.1 169.9,0 	"/>
	<polygon class="st1" points="0,163.3 0,281.9 66,281.9 66,209.1 169.9,176.1 169.9,109.3 0,163.3 	"/>
	<path class="st0" d="M169.9,108.9c0-0.1,0-0.2-0.1-0.2c0,0-0.1-0.1-0.1-0.1l-65.4-20.8L0,121l0,0.3c0,0.1,0,0.2,0.1,0.2
		c0,0,0.1,0.1,0.1,0.1l65.4,20.8l104.3-33.1C169.9,109.3,169.9,108.9,169.9,108.9L169.9,108.9z"/>
</g>
</svg>
