<?xml version="1.0" encoding="utf-8"?>
<!-- Generator: Adobe Illustrator 25.0.0, SVG Export Plug-In . SVG Version: 6.00 Build 0)  -->
<svg version="1.1" id="Layer_1" xmlns="http://www.w3.org/2000/svg" xmlns:xlink="http://www.w3.org/1999/xlink" x="0px" y="0px"
	 viewBox="0 0 576 581.1" style="enable-background:new 0 0 576 581.1;" xml:space="preserve">
<style type="text/css">
	.st0{fill:#0076A5;}
	.st1{fill:#00A3E0;}
</style>
<g>
	<path class="st0" d="M45.7,523.3l-8.9,29.1l-3.3,12h-0.2l-3.2-12.1l-9-29H0v57h13.2v-26.2l-0.4-17.5H13L27,580.3h12l14.1-43.7h0.2
		l-0.4,17.5v26.2H66v-57H45.7L45.7,523.3z M100.9,578.9c2.5-1.5,4.4-3.7,5.8-6.8l0.4,8.1h13.1v-43.2h-14.7v23.1
		c0,1.7-0.2,3.1-0.6,4.4c-0.4,1.2-0.9,2.2-1.6,3c-0.7,0.8-1.5,1.4-2.4,1.7c-0.9,0.4-1.9,0.6-2.9,0.6c-2,0-3.6-0.5-4.7-1.6
		c-1.1-1.1-1.6-3-1.6-5.8v-25.4H77v28.8c0,3.6,0.6,6.6,1.9,8.8c1.3,2.2,3,3.9,5.2,4.9c2.2,1,4.8,1.5,7.7,1.5
		C95.4,581.1,98.4,580.4,100.9,578.9L100.9,578.9z M134.1,527.4v39.9c0.1,3.3,0.7,6,2,8c1.3,2,3.1,3.5,5.5,4.4
		c2.4,0.9,5.2,1.4,8.5,1.4c2.3,0,4.5-0.3,6.7-0.9c2.2-0.6,4-1.4,5.4-2.4l-1.6-9.1c-0.8,0.6-1.7,1.1-2.7,1.4c-1,0.3-2.2,0.5-3.6,0.5
		c-1.8,0-3.2-0.4-4.2-1.3c-1-0.9-1.5-2.4-1.5-4.4v-41.5L134.1,527.4L134.1,527.4z M126.7,537.1v10.5h35v-10.5H126.7L126.7,537.1z
		 M192.1,578.9c2.5-1.5,4.4-3.7,5.8-6.8l0.4,8.1h13.1v-43.2h-14.7v23.1c0,1.7-0.2,3.1-0.6,4.4c-0.4,1.2-0.9,2.2-1.6,3
		c-0.7,0.8-1.5,1.4-2.4,1.7c-0.9,0.4-1.9,0.6-2.9,0.6c-2,0-3.6-0.5-4.7-1.6c-1.1-1.1-1.6-3-1.6-5.8v-25.4h-14.7v28.8
		c0,3.6,0.6,6.6,1.9,8.8c1.3,2.2,3,3.9,5.2,4.9c2.2,1,4.8,1.5,7.7,1.5C186.6,581.1,189.6,580.4,192.1,578.9L192.1,578.9z M246,564.3
		c0,1.3-0.2,2.4-0.6,3.3c-0.4,0.9-0.9,1.7-1.6,2.3c-0.7,0.6-1.5,1.1-2.4,1.3c-0.9,0.3-1.8,0.4-2.8,0.4c-1.3,0-2.4-0.3-3.3-1
		c-0.9-0.6-1.4-1.6-1.4-2.8c0-1.3,0.4-2.3,1.3-3c0.8-0.7,2.1-1.2,3.8-1.5l8.3-1.7l0.1-7.8l-16.3,3.4c-4,0.8-7,2.2-8.9,4.3
		c-1.9,2-2.8,4.6-2.8,7.7c0,2.6,0.6,4.8,1.8,6.5c1.2,1.8,2.9,3.1,5.1,4c2.2,0.9,4.7,1.4,7.7,1.4c2.5,0,5-0.4,7.3-1.2
		c2.3-0.8,4.2-2,5.7-3.7c1.5-1.7,2.2-3.7,2.2-6.2l-1.6,0.6v0.5c0,2.2,0.5,4.1,1.5,5.6c1,1.5,2.3,2.6,4.1,3.3c1.7,0.7,3.7,1.1,6,1.1
		c2.5,0,4.6-0.4,6.3-1.2l0.9-8.4c-0.6,0.2-1.5,0.3-2.5,0.3c-2,0-3-1.1-3-3.4v-15.8c0-3.6-0.8-6.6-2.4-9c-1.6-2.4-3.9-4.3-6.8-5.5
		c-3-1.2-6.5-1.9-10.8-1.9c-6.3,0-11.1,1.2-14.6,3.7c-3.5,2.5-5.6,5.8-6.4,9.9l12.4,2.9c0.5-2.4,1.5-4.1,2.8-5.1
		c1.4-0.9,3-1.4,4.9-1.4c1.9,0,3.4,0.6,4.5,1.8c1.1,1.2,1.7,2.8,1.7,4.8V564.3L246,564.3z M271.8,518.8v48.7c0,4.8,1,8.3,3.1,10.4
		c2.1,2.1,5.4,3.2,10,3.2c1.6,0,3.3-0.2,4.9-0.6c1.7-0.4,3-0.9,4.1-1.6l1-8.8c-0.8,0.2-1.5,0.4-2.1,0.5c-0.6,0.1-1.3,0.2-2.2,0.2
		c-1.5,0-2.6-0.4-3.2-1.2c-0.6-0.8-1-2.2-1-4.1v-46.8H271.8L271.8,518.8z M314,530.4c1.4-1.1,2.1-2.9,2.1-5.3c0-2.5-0.7-4.3-2.1-5.4
		c-1.4-1.1-3.5-1.7-6.5-1.7c-3,0-5.2,0.6-6.5,1.7c-1.4,1.1-2,2.9-2,5.4c0,2.4,0.7,4.2,2,5.3c1.4,1.1,3.5,1.7,6.5,1.7
		C310.4,532.1,312.6,531.5,314,530.4L314,530.4z M300.2,537.1v43.2h14.7v-43.2H300.2L300.2,537.1z M361.8,580.3V570H347l-7.6,0.2
		l4.7-4.8l16.9-19.3v-9h-37.8v10.3H338l6.8-0.2l-4.6,4.6l-17.2,19.5v9H361.8L361.8,580.3z M394,564.3c0,1.3-0.2,2.4-0.6,3.3
		c-0.4,0.9-1,1.7-1.6,2.3c-0.7,0.6-1.5,1.1-2.4,1.3c-0.9,0.3-1.8,0.4-2.8,0.4c-1.3,0-2.4-0.3-3.3-1c-0.9-0.6-1.4-1.6-1.4-2.8
		c0-1.3,0.4-2.3,1.3-3c0.8-0.7,2.1-1.2,3.8-1.5l8.3-1.7l0.1-7.8l-16.3,3.4c-4,0.8-7,2.2-8.9,4.3c-1.9,2-2.8,4.6-2.8,7.7
		c0,2.6,0.6,4.8,1.8,6.5c1.2,1.8,2.9,3.1,5.1,4c2.2,0.9,4.8,1.4,7.7,1.4c2.5,0,5-0.4,7.3-1.2c2.3-0.8,4.2-2,5.7-3.7
		c1.5-1.7,2.2-3.7,2.2-6.2l-1.6,0.6v0.5c0,2.2,0.5,4.1,1.5,5.6c1,1.5,2.3,2.6,4.1,3.3c1.7,0.7,3.7,1.1,6,1.1c2.5,0,4.6-0.4,6.3-1.2
		l0.9-8.4c-0.6,0.2-1.5,0.3-2.5,0.3c-2,0-3-1.1-3-3.4v-15.8c0-3.6-0.8-6.6-2.4-9c-1.6-2.4-3.9-4.3-6.8-5.5c-3-1.2-6.6-1.9-10.8-1.9
		c-6.3,0-11.1,1.2-14.6,3.7c-3.5,2.5-5.6,5.8-6.4,9.9l12.4,2.9c0.5-2.4,1.5-4.1,2.8-5.1c1.4-0.9,3-1.4,4.9-1.4
		c1.9,0,3.4,0.6,4.5,1.8c1.1,1.2,1.7,2.8,1.7,4.8V564.3L394,564.3z M421.5,529.2v38.1c0.1,3.3,0.7,6,2,8c1.3,2,3.1,3.5,5.5,4.4
		c2.4,0.9,5.2,1.4,8.5,1.4c2.3,0,4.5-0.3,6.7-0.9c2.2-0.6,4-1.4,5.4-2.4l-1.6-9.1c-0.8,0.6-1.7,1.1-2.7,1.4c-1,0.3-2.2,0.5-3.6,0.5
		c-1.8,0-3.2-0.4-4.2-1.3c-1-0.9-1.5-2.4-1.5-4.4v-39.8L421.5,529.2L421.5,529.2z M414.1,537.1v10.5h35v-10.5H414.1L414.1,537.1z
		 M469.7,530.4c1.4-1.1,2.1-2.9,2.1-5.3c0-2.5-0.7-4.3-2.1-5.4c-1.4-1.1-3.5-1.7-6.5-1.7c-3,0-5.2,0.6-6.5,1.7c-1.4,1.1-2,2.9-2,5.4
		c0,2.4,0.7,4.2,2,5.3c1.4,1.1,3.5,1.7,6.5,1.7C466.1,532.1,468.3,531.5,469.7,530.4L469.7,530.4z M455.9,537.1v43.2h14.7v-43.2
		H455.9L455.9,537.1z M489.7,538.8c-3.5,1.8-6.1,4.3-8.1,7.7c-1.9,3.4-2.9,7.4-2.9,12.1c0,4.7,1,8.8,2.9,12.1
		c1.9,3.4,4.6,5.9,8.1,7.7c3.5,1.8,7.4,2.6,11.8,2.6c4.5,0,8.5-0.9,12-2.6c3.4-1.8,6.1-4.3,8-7.7c1.9-3.4,2.9-7.4,2.9-12.1
		c0-4.7-1-8.8-2.9-12.1c-1.9-3.4-4.6-5.9-8-7.7c-3.4-1.8-7.4-2.6-12-2.6C497.1,536.2,493.2,537.1,489.7,538.8L489.7,538.8z
		 M506,547.9c1.2,0.8,2.1,2.1,2.8,3.9c0.6,1.8,1,4.1,1,6.9c0,2.8-0.3,5.1-1,6.9c-0.6,1.8-1.6,3.1-2.8,3.9c-1.2,0.8-2.7,1.3-4.4,1.3
		c-1.7,0-3.1-0.4-4.3-1.3c-1.2-0.8-2.1-2.1-2.8-3.9c-0.6-1.8-1-4-1-6.9c0-2.8,0.3-5.1,1-6.9c0.6-1.8,1.6-3.1,2.8-3.9
		c1.2-0.8,2.6-1.2,4.3-1.2C503.3,546.7,504.7,547.1,506,547.9L506,547.9z M547.4,580.3v-22.9c0-2.4,0.3-4.3,1-5.8
		c0.7-1.4,1.6-2.5,2.8-3.2c1.2-0.7,2.5-1,3.9-1c1.8,0,3.3,0.6,4.4,1.7c1.2,1.2,1.7,3.2,1.7,6.2v24.9H576v-28.8
		c0-3.4-0.6-6.2-1.9-8.5c-1.3-2.2-3-3.9-5.2-5.1c-2.2-1.2-4.8-1.7-7.8-1.7c-2.8,0-5.3,0.5-7.5,1.6c-2.2,1.1-4.1,2.6-5.5,4.7
		c-1.5,2.1-2.5,4.7-3.1,7.8l1.6,1.6l-0.8-14.9h-13.1v43.2H547.4L547.4,580.3z"/>
	<path class="st1" d="M0,390.9v104.5h44.3c16.4,0,28.9-4.5,37.6-13.6c8.7-9.1,13.1-22,13.1-38.6c0-16.7-4.4-29.6-13.1-38.6
		c-8.7-9.1-21.2-13.6-37.6-13.6H0L0,390.9z M27.2,474.9v-63.4h14.4c8.9,0,15.3,2.7,19.4,8c4.1,5.3,6.1,13.2,6.1,23.7
		s-2,18.3-6.1,23.7c-4.1,5.3-10.5,8-19.4,8H27.2L27.2,474.9z M166.3,494.6c5-1.6,9.3-3.9,12.9-7c3.6-3.1,6.2-6.9,7.7-11.3l-21.5-7.3
		c-1.2,2.9-2.9,5.1-5.3,6.7c-2.4,1.6-5.6,2.4-9.6,2.4c-3.6,0-6.7-0.7-9.2-2.2c-2.5-1.5-4.5-3.8-5.9-7c-1.4-3.2-2.1-7.4-2.1-12.7
		c0-5.3,0.6-9.6,1.8-12.9c1.2-3.3,3-5.8,5.4-7.4c2.4-1.6,5.3-2.4,8.6-2.4c4.8,0,8.3,1.7,10.5,5.1c2.3,3.4,3.4,8.2,3.4,14.6l13-5.1
		h-51v14.6h62.7c0.2-1.3,0.4-2.8,0.5-4.7c0.1-1.8,0.2-3.8,0.2-5.8c0-7.3-1.6-13.8-4.7-19.4c-3.1-5.6-7.6-10.1-13.4-13.3
		c-5.8-3.2-12.9-4.8-21.2-4.8c-8.1,0-15.3,1.6-21.6,4.9c-6.3,3.3-11.1,7.9-14.6,14c-3.4,6.1-5.1,13.5-5.1,22.3
		c0,8.8,1.7,16.2,5.1,22.3c3.4,6.1,8.3,10.7,14.7,14c6.4,3.3,13.9,4.9,22.6,4.9C156,497,161.3,496.2,166.3,494.6L166.3,494.6z
		 M235.8,476.6l-16.3-60.3h-28.3l28.5,79.2h32.2l28.5-79.2h-27.9L235.8,476.6L235.8,476.6z M311.2,395.7
		c-7.7,4.3-13.6,10.4-17.7,18.5c-4.1,8-6.2,17.7-6.2,29c0,11.3,2.1,21,6.2,29c4.1,8,10,14.2,17.7,18.5c7.7,4.3,16.8,6.4,27.4,6.4
		c10.6,0,19.7-2.1,27.3-6.4c7.7-4.3,13.5-10.4,17.7-18.5c4.1-8,6.2-17.7,6.2-29c0-11.3-2.1-21-6.2-29c-4.1-8-10-14.2-17.7-18.5
		c-7.7-4.3-16.8-6.4-27.3-6.4C328,389.3,318.9,391.5,311.2,395.7L311.2,395.7z M351.3,414.4c3.4,2.4,6,6,7.8,10.8
		c1.8,4.8,2.7,10.8,2.7,18c0,7.1-0.9,13-2.7,17.9c-1.8,4.9-4.4,8.5-7.8,10.9c-3.4,2.4-7.7,3.6-12.7,3.6s-9.3-1.2-12.8-3.6
		c-3.5-2.4-6.1-6.1-7.9-10.9c-1.8-4.9-2.7-10.8-2.7-17.9c0-7.2,0.9-13.2,2.7-18c1.8-4.8,4.4-8.4,7.9-10.8c3.5-2.4,7.8-3.6,12.8-3.6
		S347.9,411.9,351.3,414.4L351.3,414.4z M433.1,511.4v-40.8l-2.5,3.8c1.5,6.5,4.4,12,8.9,16.2c4.4,4.3,10.2,6.4,17.4,6.4
		c6.5,0,12.3-1.6,17.2-4.9c4.9-3.3,8.7-8,11.5-14.3c2.7-6.2,4.1-13.7,4.1-22.3c0-8.7-1.3-16-4-22.1c-2.7-6.1-6.5-10.7-11.3-13.9
		c-4.9-3.2-10.6-4.8-17.1-4.8c-5.2,0-9.8,1.2-13.8,3.5c-4,2.3-7.3,5.5-9.8,9.5c-2.5,4-4.2,8.7-4.9,13.9l3.2,3.3l-1.4-28.7h-24.2
		v103.2L433.1,511.4L433.1,511.4z M439.8,474.7c-2.2-1.7-3.9-4.1-5-7.4c-1.1-3.2-1.7-7-1.7-11.5c0-4.6,0.6-8.6,1.8-11.7
		c1.2-3.2,2.9-5.6,5.1-7.2c2.2-1.6,4.8-2.5,7.8-2.5c4.6,0,8.3,1.7,10.8,5.1c2.6,3.4,3.9,8.8,3.9,16.2c0,7.4-1.3,12.8-4,16.2
		c-2.6,3.4-6.3,5.1-10.9,5.1C444.7,477.2,442,476.4,439.8,474.7L439.8,474.7z M559.5,493.5c5.5-2.4,9.6-5.6,12.4-9.8
		c2.7-4.2,4.1-8.7,4.1-13.7c0-5.6-1.8-10.3-5.4-14.3c-3.6-3.9-9.5-6.6-17.6-8.1l-14.4-2.9c-3.6-0.7-6-1.6-7.4-2.6
		c-1.3-1-2-2.2-2-3.6c0-1.2,0.4-2.2,1.3-3.1c0.8-0.9,2.1-1.6,3.9-2.1c1.7-0.5,3.8-0.7,6.3-0.7c4.1,0,8.2,0.9,12.2,2.6
		c4,1.7,7.3,4.3,9.8,7.5l13-14.6c-3.7-4.4-8.6-7.8-14.7-10.1c-6.1-2.3-13.2-3.5-21.2-3.5c-8.4,0-15.4,1.3-21,3.8
		c-5.5,2.5-9.7,5.8-12.4,9.7c-2.7,3.9-4,8-4,12.4c0,6.4,2.1,11.6,6.3,15.6c4.2,4,11.3,6.9,21.4,8.9l10.9,2.1
		c3.2,0.7,5.3,1.6,6.3,2.5c1.1,0.9,1.6,2.1,1.6,3.6c0,2.1-1.1,3.6-3.2,4.5c-2.1,0.9-4.9,1.3-8.2,1.3c-5.4,0-10.2-1.1-14.6-3.4
		c-4.3-2.3-7.9-5.1-10.6-8.5L499.7,482c4.5,4.9,10.2,8.6,17,11.2c6.8,2.6,14.2,3.9,22.1,3.9C547.1,497,554,495.8,559.5,493.5
		L559.5,493.5z"/>
	<path class="st1" d="M312.4,281.9c9.5,0,17.2-7.7,17.2-17.2c0-9.5-7.7-17.2-17.2-17.2c-6.8,0-12.8,3.9-15.6,10.1H196V151.1h12.2
		v94.3h98.6c7.7,0,15.1-1.9,21.8-5.5l17.6,21.3l0.6,0.8l0.1-0.1l0.1,0.1l0.7-0.6c0.4-0.3,0.9-0.5,1.3-0.8c0.6-0.4,1.2-0.7,1.8-1.1
		c13.5-9.6,24.3-22.9,32.2-39.6c7.9-16.6,11.9-34.9,11.9-54.3c0-19.5-4-37.8-11.9-54.4c-7.9-16.6-18.8-29.9-32.2-39.5
		c-13.5-9.6-28.3-14.5-44-14.5H179.5V274h118.8C301.5,279,306.8,281.9,312.4,281.9L312.4,281.9z M348.3,221.9
		c11.4-15.5,17.2-34.4,17.2-56.3c0-21.7-5.8-40.6-17.2-56.2c-11.5-15.7-25.5-23.6-41.5-23.6h-74c-3.3-4.7-8.3-7.3-13.7-7.3
		c-9.5,0-17.2,7.7-17.2,17.2c0,9.5,7.7,17.2,17.2,17.2c7,0,13.1-4.2,15.8-10.7h72c11.4,0,21.3,6.2,29.4,18.3
		c8.3,12.3,12.4,27.4,12.4,45c0,17.5-4.2,32.6-12.4,44.9c-8.2,12.2-18.1,18.4-29.4,18.4h-82.2v-93.2l-0.1-1.1l-28.5,0v-61h110.8
		c12.7,0,24.6,4.1,35.4,12.2c10.9,8.1,19.6,19.4,26.1,33.5c6.5,14.1,9.7,29.7,9.7,46.3c0,25.2-7.1,47.1-21.1,65
		c-2.4,3.1-5,6-7.6,8.6l-7.8-9.4C344.1,227.2,346.3,224.6,348.3,221.9L348.3,221.9z"/>
	<path class="st0" d="M433.6,82.6C420.6,58,403,38,381.2,23.3c0-0.1,0-0.1,0.1-0.2c0.2-0.6,0.3-1.2,0.3-1.9
		c0-9.5-7.7-17.2-17.2-17.2c-9.5,0-17.2,7.7-17.2,17.2c0,9.5,7.7,17.2,17.2,17.2c2.3,0,4.5-0.5,6.9-1.6
		c10.1,6.6,19.2,14.4,26.9,23.3c11.7,13.3,21.1,29.3,28.1,47.7c7,18.3,10.6,37.8,10.6,57.8c0,20-3.6,39.5-10.6,57.9
		c-7,18.4-16.5,34.4-28.1,47.7c-11.6,13.2-25.6,23.9-41.6,31.7c-16,7.8-32.7,11.8-49.8,11.8h-168V260h12.2v42.6h155.9
		c20.8,0,40.5-6.2,58.4-18.4c17.9-12.2,32.4-29,43.1-50c10.6-21,16-44.1,16-68.6c0-24.6-5.4-47.7-16-68.6
		c-10.6-21-25.1-37.8-43.1-50c-10.2-6.9-21.4-11.9-33.4-15l4-28.8l-9.5-1.3C318.6,0.6,312.6,0,306.8,0H122.3v331.2h184.5
		c19.4,0,38.4-4.4,56.4-13.1c18-8.7,33.8-20.6,46.9-35.3c13.1-14.7,23.8-32.5,31.7-52.9c7.9-20.4,11.9-42,11.9-64.3
		C453.7,135.9,447,108,433.6,82.6L433.6,82.6z M315.6,29.2l-0.9-0.1c-2.6-0.3-5.2-0.5-7.9-0.5H150.9v164.3c-5.7,3-9.2,8.8-9.2,15.1
		c0,9.5,7.7,17.2,17.2,17.2c9.5,0,17.2-7.7,17.2-17.2c0-6.1-3.3-11.7-8.8-14.8V45.1h139.4c17.7,0,34.5,5.4,49.9,16.1
		c15.4,10.7,27.9,25.5,37,44c9.2,18.5,13.8,38.8,13.8,60.4c0,21.7-4.6,42.1-13.8,60.5c-9.2,18.4-21.6,33.2-36.9,43.9
		c-15.3,10.7-32.1,16.1-50,16.1H167.4v-42.7l-28.6,0.1V16.5h168c3.4,0,6.8,0.2,10.5,0.6L315.6,29.2L315.6,29.2z"/>
</g>
</svg>
