<svg  data-name="Layer 1" xmlns="http://www.w3.org/2000/svg" viewBox="0 0 378.98 100.48"><defs><style>.cls-1{fill:#002147;}</style></defs><title>logo</title><path class="cls-1" d="M345.48,35.84a16.2,16.2,0,0,1,4.4-7.8,13.73,13.73,0,0,1,9.5-3.6,15.69,15.69,0,0,1,6.4,1.4,14.4,14.4,0,0,1,4.9,3.7,15.52,15.52,0,0,1,2.8,6.2l-28,.1Zm24,15.5a16,16,0,0,1-4.6,2.7,15.4,15.4,0,0,1-5.6,1,13.29,13.29,0,0,1-10-4.2,15.45,15.45,0,0,1-4.2-10.8H379q0-7.8-4.2-12.9a19.64,19.64,0,0,0-30.4-.2,20.73,20.73,0,0,0,.8,26.5c3.5,4.1,8.3,6.1,14.4,6.1a19.67,19.67,0,0,0,7.5-1.3,17.31,17.31,0,0,0,5.9-3.7,19.89,19.89,0,0,0,4.6-6.4l-4.1-2.2a17.94,17.94,0,0,1-4,5.4m-72.1-12.4q0,8.1,1.8,12a12.82,12.82,0,0,0,5.5,6.2,20.34,20.34,0,0,0,18.4,0,14.37,14.37,0,0,0,5.5-6.2c1.2-2.6,1.8-6.6,1.8-11.7V20.74h-5v17.6c0,4.7-.2,7.8-.7,9.2a10.46,10.46,0,0,1-3.9,5.2,12,12,0,0,1-6.9,2,12.51,12.51,0,0,1-7-2,9.71,9.71,0,0,1-4-5.5c-.5-1.6-.7-4.6-.7-8.9V20.74h-4.9l.1,18.2Zm-15,19.5h4.9V6.24h-4.9Zm-39.3-8.1a14.85,14.85,0,0,1-4.3-10.9,15.17,15.17,0,0,1,1.9-7.7,15,15,0,0,1,13.1-7.5,14.94,14.94,0,0,1,7.4,2,14.39,14.39,0,0,1,5.5,5.7,15,15,0,0,1,2,7.7,15.69,15.69,0,0,1-2,7.6,15.3,15.3,0,0,1-5.4,5.6,14.76,14.76,0,0,1-7.5,2,14.57,14.57,0,0,1-10.7-4.5m-3.9,8.1v-6.9a19.31,19.31,0,0,0,6.6,5.9,17.85,17.85,0,0,0,8.3,2,18.29,18.29,0,0,0,13.7-5.8,19.25,19.25,0,0,0,5.7-14,19.47,19.47,0,0,0-5.7-14.1,18.29,18.29,0,0,0-13.7-5.8,19,19,0,0,0-8.3,1.8,19.8,19.8,0,0,0-6.8,5.6v-21h-4.9v52.3Z"/><path class="cls-1" d="M220.88,5.34a8.32,8.32,0,0,0-4.3,1.1,5.65,5.65,0,0,0-2.5,2.8,16.4,16.4,0,0,0-.7,5.8v5.9h-5V25h5v33.5h4.9V25h7.9v-4.2h-7.9v-5.1a26.07,26.07,0,0,1,.2-4c.1-.5.6-.9,1.2-1.3a4.27,4.27,0,0,1,2.4-.6,13.18,13.18,0,0,1,4.6,1.1V6.14a28.39,28.39,0,0,0-5.8-.8m-22.9,0a8.32,8.32,0,0,0-4.3,1.1,5.65,5.65,0,0,0-2.5,2.8,16.4,16.4,0,0,0-.7,5.8v5.9h-5V25h5v33.5h4.9V25h7.9v-4.2h-7.9v-5.1a26.07,26.07,0,0,1,.2-4c.1-.5.6-.9,1.2-1.3a4.27,4.27,0,0,1,2.4-.6,13.18,13.18,0,0,1,4.6,1.1V6.14a30.3,30.3,0,0,0-5.8-.8m-25.6,53.2h4.9V20.84h-4.9ZM172,6.44a3.87,3.87,0,0,0,0,5.6,3.78,3.78,0,0,0,2.8,1.2,3.63,3.63,0,0,0,2.8-1.2,3.78,3.78,0,0,0,1.2-2.8,3.63,3.63,0,0,0-1.2-2.8,4.2,4.2,0,0,0-2.8-1.2,5,5,0,0,0-2.8,1.2m-19.3,22.5a14.85,14.85,0,0,1,4.3,10.9,15.17,15.17,0,0,1-1.9,7.7,13.62,13.62,0,0,1-5.5,5.4,15.69,15.69,0,0,1-7.6,2,14.94,14.94,0,0,1-7.4-2,14.39,14.39,0,0,1-5.5-5.7,14.91,14.91,0,0,1-2-7.6,15.69,15.69,0,0,1,2-7.6,14.55,14.55,0,0,1,5.4-5.6,15,15,0,0,1,18.2,2.5m4-22.7v21.5a19.31,19.31,0,0,0-6.6-5.9,18,18,0,0,0-8.4-2,18.67,18.67,0,0,0-13.8,5.8,19.18,19.18,0,0,0-5.7,13.9,19.47,19.47,0,0,0,5.7,14.1,18.29,18.29,0,0,0,13.7,5.8,17.78,17.78,0,0,0,8.3-1.9,21,21,0,0,0,6.8-5.6v6.5h4.8V6.24Z"/><path class="cls-1" d="M277.88,79.64a4.79,4.79,0,0,1,1,3.1h-7.5a4.65,4.65,0,0,1,1.2-3.1,3.69,3.69,0,0,1,2.7-1.1,3.31,3.31,0,0,1,2.6,1.1m1,13.3a11.42,11.42,0,0,0,2.6-.9v-2.9a21.27,21.27,0,0,1-2.7.9,12.65,12.65,0,0,1-2.8.3,4.46,4.46,0,0,1-3.5-1.3,5.35,5.35,0,0,1-1.3-3.7h11.2v-1.9a7.52,7.52,0,0,0-1.9-5.5,7,7,0,0,0-5.2-2,7.23,7.23,0,0,0-5.6,2.3,9.27,9.27,0,0,0-2,6.4,7.78,7.78,0,0,0,8.3,8.5,12.77,12.77,0,0,0,2.9-.2m-25.6-4.1a8.13,8.13,0,0,1-1-4.2,7.4,7.4,0,0,1,1-4.3,3.27,3.27,0,0,1,2.9-1.5,3.69,3.69,0,0,1,3.2,1.3c.7.9,1,2.4,1,4.5v.5a6.88,6.88,0,0,1-1,4,3.94,3.94,0,0,1-3.2,1.2,3.39,3.39,0,0,1-2.9-1.5m7,1.9h.2l.6,2.2h2.8V69.44h-3.6v6.1a17.84,17.84,0,0,0,.3,2.8h-.2a5.7,5.7,0,0,0-5-2.4,5.94,5.94,0,0,0-4.9,2.3,10.15,10.15,0,0,0-1.8,6.4,9.84,9.84,0,0,0,1.8,6.3,6.2,6.2,0,0,0,9.8-.2m-25.5-10.5a3.68,3.68,0,0,1,3.2-1.5q4.2,0,4.2,5.7c0,3.8-1.4,5.8-4.2,5.8s-4.3-1.9-4.3-5.8a8.08,8.08,0,0,1,1.1-4.2m9-2a7.12,7.12,0,0,0-5.7-2.3,7.75,7.75,0,0,0-5.9,2.3,8.88,8.88,0,0,0-2.1,6.3,9.74,9.74,0,0,0,1,4.6,6.78,6.78,0,0,0,2.8,3,8.11,8.11,0,0,0,4.1,1.1,7.53,7.53,0,0,0,5.8-2.3,9.14,9.14,0,0,0,2.1-6.4,8.88,8.88,0,0,0-2.1-6.3M224.28,74l2.4.9,1.3-3a14.44,14.44,0,0,0-6.2-1.4,11.34,11.34,0,0,0-5.6,1.4,8.52,8.52,0,0,0-3.6,3.9,14,14,0,0,0-1.3,6c0,3.6.9,6.4,2.6,8.4s4.2,2.9,7.4,2.9a15.89,15.89,0,0,0,5.9-1V89c-.9.3-1.9.5-2.7.7a12.41,12.41,0,0,1-2.7.3,6.14,6.14,0,0,1-5-2.1,9.64,9.64,0,0,1-1.7-6.1,9.43,9.43,0,0,1,1.8-6.1,5.86,5.86,0,0,1,4.9-2.2,13.77,13.77,0,0,1,2.5.5m-27.6,2.7a7.28,7.28,0,0,0-2.2,2.4h-.1l-.5-2.9h-2.8v16.7h3.5v-8.7a4.84,4.84,0,0,1,1.3-3.6,4.6,4.6,0,0,1,3.4-1.4,8.75,8.75,0,0,1,1.6.2l.5-3.4a9,9,0,0,0-1.8-.2,6.15,6.15,0,0,0-2.9.9m-20.5,3.5a3.68,3.68,0,0,1,3.2-1.5q4.2,0,4.2,5.7c0,3.8-1.4,5.8-4.2,5.8s-4.3-1.9-4.3-5.8a9.17,9.17,0,0,1,1.1-4.2m9.1-2a7.12,7.12,0,0,0-5.7-2.3,7.75,7.75,0,0,0-5.9,2.3,8.88,8.88,0,0,0-2.1,6.3,9.74,9.74,0,0,0,1,4.6,6.78,6.78,0,0,0,2.8,3,8.11,8.11,0,0,0,4.1,1.1,7.53,7.53,0,0,0,5.8-2.3,9.14,9.14,0,0,0,2.1-6.4,8.88,8.88,0,0,0-2.1-6.3m-15.2-2H166v-1.1a3.4,3.4,0,0,1,.6-2.2,2.07,2.07,0,0,1,1.8-.8,7.66,7.66,0,0,1,2.5.4l.9-2.7a11.48,11.48,0,0,0-3.7-.6,5.74,5.74,0,0,0-4.2,1.4,6.1,6.1,0,0,0-1.4,4.4v1.1l-2.7,1.1v1.7h2.7v14h3.6v-14h4.1l-.1-2.7Zm-21.3-5.4h-3.6v22h3.6Zm-19.6,12.8,2-5.8c.5-1.5.9-2.8,1.2-4.1.1.4.3,1,.6,1.9s.5,1.5.6,1.9l2.1,6-6.5.1Zm13.4,9.2-8.2-22.1h-3.9l-8.2,22.1h3.8l2.2-6.1h8.4l2.2,6.1Z"/><path class="cls-1" d="M52.52,42c-.64.6-.86,1.39-.51,1.76s3.45,2.52,4.09,1.91-1.41-3.74-1.77-4.1S53.16,41.37,52.52,42Z"/><path class="cls-1" d="M34.77,50.64a.21.21,0,0,0,.26-.13h0a32.48,32.48,0,0,1,1.58-3.69,10.75,10.75,0,0,1,2.12-2.87,8.67,8.67,0,0,1,3.06-1.77,27,27,0,0,1,3.93-.94.2.2,0,0,0,.15-.12.19.19,0,0,0-.11-.26,8.68,8.68,0,0,0-4.42-.69A7.8,7.8,0,0,0,37,42.07a8.44,8.44,0,0,0-2.35,8.44A.19.19,0,0,0,34.77,50.64Z"/><path class="cls-1" d="M61.31,34.07a7.88,7.88,0,0,0,2.1-8.1,4.31,4.31,0,0,1-1.36,3.23,4.46,4.46,0,0,1-6.27-.13,4.34,4.34,0,0,1,.13-6.18A4.47,4.47,0,0,1,60.53,22a8.13,8.13,0,0,0-10.39.64,7.88,7.88,0,0,0-.23,11.25A8.14,8.14,0,0,0,61.31,34.07Z"/><path class="cls-1" d="M50.24,0a50.24,50.24,0,1,0,50.24,50.24A50.24,50.24,0,0,0,50.24,0ZM22.3,42.25c-5.52-2.68-5.25-5.07-5.25-5.07S19.4,35,24.23,35a71.73,71.73,0,0,0,5.19-5.43c2.74-3.17,7.26-3.9,10.23-1.45-2.35-3-1.43-7.46,1.89-10a71.17,71.17,0,0,0,5.71-4.89c.16-4.77,2.5-7,2.5-7s2.43-.18,4.91,5.4a21.7,21.7,0,0,1,9.16,5.59c8.85,9.11,7.93,24.18-2.08,33.65a26.55,26.55,0,0,1-13,6.8,17,17,0,0,0-2.46-3.19l-.78-.73-1.08,0a19.29,19.29,0,0,0-10.14,2.52,21.51,21.51,0,0,1-6.74-4.69A21.23,21.23,0,0,1,22.3,42.25ZM32,85.34s6.14-11.53-1.84-21.8A17.25,17.25,0,0,1,44.4,56.43s7.48,7.12,2.83,18.07A17.24,17.24,0,0,1,32,85.34ZM76.35,62.09a39.24,39.24,0,0,1-26.6,32.45A28.24,28.24,0,0,1,40,86.07a19.8,19.8,0,0,0,9.78-10.52A19.08,19.08,0,0,0,50,60c20-4.36,21.78-22.51,21.78-22.51A39.8,39.8,0,0,1,76.35,62.09Z"/></svg>
