<?xml version="1.0" encoding="utf-8"?>
<!-- Generator: Adobe Illustrator 24.1.0, SVG Export Plug-In . SVG Version: 6.00 Build 0)  -->
<svg version="1.1" id="Layer_1" xmlns="http://www.w3.org/2000/svg" xmlns:xlink="http://www.w3.org/1999/xlink" x="0px" y="0px"
	 viewBox="0 0 412.38 539.98" style="enable-background:new 0 0 412.38 539.98;" xml:space="preserve">
<style type="text/css">
	.st0{fill:url(#SVGID_2_);}
	.st1{clip-path:url(#SVGID_5_);}
	.st2{fill:url(#SVGID_6_);}
	.st3{fill:#79BE70;}
	.st4{fill:#014900;}
</style>
<g>
	<g>
		<g>
			<g>
				
					<radialGradient id="SVGID_2_" cx="205.56" cy="369.3633" r="147.2419" gradientTransform="matrix(1 0 0 -1 0 542.0068)" gradientUnits="userSpaceOnUse">
					<stop  offset="0" style="stop-color:#79BE70"/>
					<stop  offset="0.3966" style="stop-color:#438A4C"/>
					<stop  offset="0.7997" style="stop-color:#135B2C"/>
					<stop  offset="1" style="stop-color:#00491F"/>
				</radialGradient>
				<path id="SVGID_1_" class="st0" d="M379.9,327.71V17.57C379.9,7.87,372.03,0,362.33,0H48.79c-9.71,0-17.57,7.87-17.57,17.57
					v310.14c0,9.71,7.87,17.57,17.57,17.57h313.53C372.03,345.29,379.9,337.42,379.9,327.71L379.9,327.71z M288.89,171.56
					l-89.98,71.65v-43.55h-76.34v-54.03h76.33v-43.55L288.89,171.56L288.89,171.56z"/>
			</g>
			<g>
				<defs>
					<path id="SVGID_3_" d="M379.9,327.71V17.57C379.9,7.87,372.03,0,362.33,0H48.79c-9.71,0-17.57,7.87-17.57,17.57v310.14
						c0,9.71,7.87,17.57,17.57,17.57h313.53C372.03,345.29,379.9,337.42,379.9,327.71L379.9,327.71z M288.89,171.56l-89.98,71.65
						v-43.55h-76.34v-54.03h76.33v-43.55L288.89,171.56L288.89,171.56z"/>
				</defs>
				<clipPath id="SVGID_5_">
					<use xlink:href="#SVGID_3_"  style="overflow:visible;"/>
				</clipPath>
				<g class="st1">
					<g>
						<g>
							
								<radialGradient id="SVGID_6_" cx="205.56" cy="369.3634" r="147.2419" gradientTransform="matrix(1 0 0 -1 0 542.0068)" gradientUnits="userSpaceOnUse">
								<stop  offset="0" style="stop-color:#79BE70"/>
								<stop  offset="1" style="stop-color:#00491F"/>
							</radialGradient>
							<rect id="SVGID_4_" x="31.22" class="st2" width="348.68" height="345.29"/>
						</g>
					</g>
				</g>
			</g>
		</g>
	</g>
	<polygon class="st3" points="328.83,265.33 328.83,79.96 224.46,79.96 224.46,111.86 301.44,171.31 224.46,232.62 224.46,265.33 	
		"/>
	<polygon class="st3" points="186.66,137.67 186.66,49.87 82.28,49.87 82.28,295.42 186.66,295.42 186.66,207.31 114.66,207.31 
		114.66,137.67 	"/>
</g>
<polygon class="st3" points="328.83,265.33 328.83,79.96 224.45,79.96 224.45,111.86 301.44,171.31 224.45,232.62 224.45,265.33 "/>
<polygon class="st3" points="186.66,137.66 186.66,49.87 82.28,49.87 82.28,295.42 186.66,295.42 186.66,207.32 114.66,207.32 
	114.66,137.66 "/>
<path class="st4" d="M50.74,439.94H27.02v-19.38H46.4l2.94,8.57h10.57v-22.67H27.02L0,407.05v9.98l8.81,3.52v55.21L0,479.29v9.98
	h61.32v-23.73H50.74l-2.7,9.63H27.02v-22.32h23.73L50.74,439.94L50.74,439.94z M134.38,435.83v-9.98l-19.62,0.59l-12.22,20.44
	l-6.11-10.34l3.52-0.7v-9.98l-30.42,0.59v9.4l6.34,1.53l14.21,20.79l-12.92,19.38l-8.81,2.35v9.4h19.97l12.69-21.03l6.23,10.34
	l-3.64,1.29v9.4h31.95v-9.4l-8.69-2.35l-13.27-19.97l13.51-20.2L134.38,435.83L134.38,435.83z M171.96,424.67
	c-19.15,0-31.71,12.33-31.71,33.48c0,22.32,10.81,32.3,29.95,32.3c19.03,0,31.36-12.92,31.36-34.06
	C201.56,436.18,190.99,424.67,171.96,424.67L171.96,424.67z M171.37,438.76c8.46,0,11.98,6.23,11.98,18.21
	c0,14.1-4.11,19.38-12.57,19.38c-8.58,0-12.33-5.87-12.33-18.79C158.45,443.46,162.8,438.76,171.37,438.76L171.37,438.76z
	 M253.25,489.27l25.02-0.82v-9.4l-9.4-2.35v-78.46l-27.02,0.94v9.4l9.4,2.35v14.92c-2.58-0.59-5.99-1.17-8.81-1.17
	c-21.49,0-32.07,12.33-32.07,34.42c0,19.38,7.64,31.36,24.08,31.36c10.1,0,16.09-5.76,17.74-7.4L253.25,489.27L253.25,489.27z
	 M251.25,469.66c0,0-3.88,6.7-11.39,6.7c-7.99,0-11.28-6.34-11.28-18.21c0-11.75,3.52-19.38,13.51-19.38c3.41,0,6.93,0.7,9.16,1.76
	V469.66L251.25,469.66z M282.38,435.83l9.4,2.94v30.66c0,13.16,6.81,21.03,18.56,21.03c11.16,0,20.55-9.4,20.55-9.4l1.17,8.22
	l24.79-0.82v-9.16l-9.4-2.35v-51.1l-27.02,0.59v9.4l9.4,2.94v30.66c0,0-5.64,6.34-13.27,6.34c-5.29,0-7.17-2.94-7.17-9.4v-40.52
	l-27.02,0.59L282.38,435.83L282.38,435.83z M374.23,468.72h-10.57v19.15c0,0,10.45,2.58,21.61,2.58c16.09,0,27.02-7.64,27.02-21.14
	c0-20.32-31.36-16.21-31.36-25.72c0-3.88,3.05-5.99,8.1-5.99c4.7,0,8.11,1.17,8.11,1.17l1.76,7.05h9.98l0.47-17.62
	c0,0-11.28-3.52-21.85-3.52c-12.45,0-24.2,5.4-24.2,20.09c0,20.91,31.36,17.38,31.36,27.02c0,3.76-3.17,5.76-9.63,5.76
	c-5.76,0-9.87-1.17-9.87-1.17L374.23,468.72L374.23,468.72z"/>
<path class="st3" d="M0.1,534.31h5.34v-15.96l6.85,10.4h0.14l6.92-10.51v16.06h5.34v-24.6h-5.83l-6.47,10.4l-6.47-10.4H0.1V534.31
	L0.1,534.31z M34.89,530.37c-0.54-0.4-0.81-0.96-0.81-1.69v-0.07c0-0.84,0.33-1.49,0.98-1.93c0.66-0.44,1.56-0.67,2.71-0.67
	c0.66,0,1.27,0.06,1.85,0.19c0.57,0.13,1.1,0.3,1.56,0.51v0.95c0,0.98-0.38,1.78-1.14,2.39s-1.77,0.91-3.04,0.91
	C36.13,530.97,35.43,530.77,34.89,530.37L34.89,530.37z M38.72,534.01c0.91-0.43,1.7-1.01,2.35-1.74v2.04h5.17v-10.93
	c0-1.27-0.16-2.41-0.49-3.43s-0.84-1.88-1.55-2.58c-0.68-0.68-1.54-1.2-2.58-1.56s-2.3-0.54-3.78-0.54c-1.59,0-2.95,0.14-4.08,0.42
	c-1.12,0.28-2.2,0.64-3.23,1.09l1.34,4.08c0.87-0.33,1.69-0.58,2.48-0.76c0.78-0.18,1.69-0.26,2.72-0.26c1.34,0,2.34,0.29,3.02,0.88
	s1.02,1.44,1.02,2.57v0.32c-0.68-0.23-1.38-0.42-2.09-0.56c-0.72-0.14-1.55-0.21-2.51-0.21c-1.12,0-2.15,0.12-3.08,0.37
	c-0.93,0.25-1.72,0.61-2.39,1.11c-0.67,0.49-1.19,1.11-1.56,1.86c-0.38,0.75-0.56,1.64-0.56,2.67v0.07c0,0.94,0.17,1.76,0.51,2.48
	c0.34,0.71,0.8,1.32,1.39,1.81s1.27,0.86,2.06,1.11c0.78,0.25,1.62,0.37,2.51,0.37C36.7,534.66,37.81,534.44,38.72,534.01
	L38.72,534.01z M58.92,529.75c-0.55-0.25-1.03-0.6-1.44-1.05c-0.41-0.46-0.74-1.01-0.98-1.65c-0.25-0.64-0.37-1.35-0.37-2.13v-0.07
	c0-0.77,0.12-1.48,0.37-2.13c0.25-0.64,0.57-1.2,0.98-1.65c0.41-0.46,0.89-0.81,1.44-1.05c0.55-0.25,1.14-0.37,1.77-0.37
	s1.22,0.12,1.78,0.37c0.55,0.25,1.04,0.6,1.46,1.05c0.42,0.46,0.76,1.01,1,1.65c0.25,0.64,0.37,1.35,0.37,2.13v0.07
	c0,0.8-0.12,1.51-0.37,2.14s-0.58,1.18-1,1.64s-0.91,0.81-1.46,1.05c-0.55,0.25-1.14,0.37-1.78,0.37
	C60.06,530.12,59.47,530,58.92,529.75L58.92,529.75z M50.85,539.93h5.34v-8.09c0.63,0.75,1.41,1.41,2.34,1.97s2.1,0.84,3.53,0.84
	c1.12,0,2.2-0.21,3.23-0.63c1.03-0.42,1.94-1.05,2.72-1.88s1.42-1.85,1.9-3.06s0.72-2.59,0.72-4.16v-0.07
	c0-1.57-0.24-2.96-0.72-4.17c-0.48-1.21-1.12-2.22-1.92-3.06c-0.8-0.83-1.71-1.46-2.74-1.88s-2.1-0.63-3.2-0.63
	c-1.41,0-2.57,0.29-3.5,0.86s-1.72,1.31-2.37,2.2v-2.71h-5.34L50.85,539.93L50.85,539.93z M91.1,529.42v-14.83h4.18
	c1.1,0,2.11,0.18,3.02,0.55s1.69,0.87,2.34,1.53c0.64,0.66,1.15,1.44,1.51,2.35s0.55,1.91,0.55,2.99v0.07c0,1.1-0.18,2.1-0.55,2.99
	c-0.36,0.89-0.87,1.66-1.51,2.32c-0.65,0.66-1.42,1.16-2.34,1.51c-0.91,0.35-1.92,0.53-3.02,0.53H91.1V529.42z M85.68,534.31h9.6
	c1.92,0,3.69-0.32,5.29-0.95c1.61-0.63,2.99-1.5,4.15-2.6s2.06-2.4,2.69-3.9c0.63-1.5,0.95-3.12,0.95-4.85v-0.07
	c0-1.73-0.32-3.34-0.95-4.83s-1.53-2.78-2.69-3.88s-2.54-1.96-4.15-2.58c-1.6-0.62-3.37-0.93-5.29-0.93h-9.6V534.31L85.68,534.31z
	 M119.9,529.7c-0.6-0.28-1.12-0.66-1.56-1.14c-0.44-0.48-0.79-1.03-1.02-1.65c-0.23-0.62-0.35-1.28-0.35-1.99v-0.07
	c0-0.7,0.11-1.36,0.33-1.99c0.22-0.62,0.54-1.17,0.97-1.63c0.42-0.47,0.93-0.84,1.53-1.11c0.6-0.27,1.28-0.4,2.06-0.4
	c0.73,0,1.39,0.14,2,0.42c0.61,0.28,1.14,0.66,1.58,1.14c0.45,0.48,0.78,1.03,1.02,1.65c0.23,0.62,0.35,1.28,0.35,1.99v0.07
	c0,0.7-0.11,1.37-0.33,1.99s-0.55,1.17-0.97,1.64c-0.42,0.47-0.93,0.84-1.53,1.11c-0.6,0.27-1.28,0.4-2.06,0.4
	C121.17,530.12,120.5,529.98,119.9,529.7L119.9,529.7z M125.93,533.95c1.24-0.51,2.32-1.22,3.23-2.11s1.63-1.93,2.14-3.11
	s0.77-2.45,0.77-3.81v-0.07c0-1.36-0.26-2.63-0.77-3.81c-0.51-1.18-1.22-2.21-2.13-3.09c-0.9-0.88-1.97-1.57-3.22-2.07
	c-1.24-0.5-2.59-0.76-4.04-0.76c-1.48,0-2.84,0.26-4.08,0.77c-1.24,0.52-2.32,1.22-3.23,2.11s-1.63,1.93-2.14,3.11
	s-0.77,2.46-0.77,3.81v0.07c0,1.36,0.26,2.63,0.77,3.81c0.51,1.18,1.22,2.21,2.13,3.09c0.9,0.88,1.97,1.57,3.22,2.07
	c1.24,0.5,2.59,0.76,4.04,0.76C123.33,534.73,124.69,534.47,125.93,533.95L125.93,533.95z M149.41,533.76
	c1.17-0.64,2.21-1.47,3.13-2.48l-3.13-3.16c-0.66,0.61-1.32,1.09-1.99,1.46c-0.67,0.36-1.45,0.54-2.34,0.54
	c-0.73,0-1.38-0.13-1.97-0.4s-1.09-0.64-1.51-1.11s-0.75-1.02-0.97-1.65s-0.33-1.31-0.33-2.04v-0.07c0-0.7,0.11-1.36,0.33-1.99
	c0.22-0.62,0.54-1.17,0.95-1.63c0.41-0.47,0.89-0.84,1.44-1.11c0.55-0.27,1.17-0.4,1.85-0.4c0.96,0,1.76,0.19,2.41,0.56
	c0.64,0.38,1.27,0.88,1.88,1.51l3.27-3.52c-0.89-0.98-1.92-1.76-3.09-2.32s-2.65-0.84-4.43-0.84c-1.45,0-2.78,0.26-3.99,0.77
	c-1.21,0.52-2.24,1.22-3.11,2.11s-1.55,1.93-2.04,3.13c-0.49,1.2-0.74,2.46-0.74,3.8v0.07c0,1.34,0.25,2.6,0.74,3.78
	c0.49,1.18,1.17,2.21,2.04,3.09s1.9,1.58,3.11,2.09c1.21,0.52,2.51,0.77,3.92,0.77C146.71,534.73,148.24,534.41,149.41,533.76
	L149.41,533.76z M164.1,534.41c0.54-0.17,1.03-0.39,1.48-0.67c0.44-0.28,0.85-0.61,1.21-0.97c0.36-0.37,0.7-0.75,1-1.15v2.69h5.34
	v-18.84h-5.34v10.48c0,1.26-0.3,2.21-0.9,2.86c-0.6,0.64-1.41,0.96-2.44,0.96s-1.83-0.32-2.39-0.96s-0.84-1.6-0.84-2.86v-10.48
	h-5.34v12.2c0,2.18,0.56,3.89,1.67,5.13s2.69,1.86,4.73,1.86C162.95,534.66,163.56,534.57,164.1,534.41L164.1,534.41z
	 M177.91,534.31h5.34v-10.48c0-1.26,0.29-2.22,0.86-2.86s1.36-0.96,2.37-0.96s1.78,0.32,2.32,0.96c0.54,0.64,0.81,1.6,0.81,2.86
	v10.48h5.34v-10.48c0-1.26,0.29-2.22,0.86-2.86s1.36-0.96,2.37-0.96s1.78,0.32,2.32,0.96c0.54,0.64,0.81,1.6,0.81,2.86v10.48h5.34
	v-12.27c0-2.27-0.56-3.99-1.69-5.17c-1.12-1.17-2.68-1.76-4.68-1.76c-1.29,0-2.44,0.25-3.44,0.76c-1.01,0.51-1.92,1.26-2.74,2.25
	c-0.49-0.97-1.19-1.71-2.09-2.23c-0.9-0.52-1.98-0.78-3.22-0.78c-0.68,0-1.29,0.08-1.85,0.25c-0.55,0.17-1.05,0.39-1.49,0.67
	c-0.45,0.28-0.85,0.61-1.21,0.97c-0.36,0.37-0.7,0.75-1,1.15v-2.69h-5.34v18.85H177.91z M215.63,523.41
	c0.21-1.22,0.66-2.19,1.35-2.92s1.6-1.09,2.72-1.09s2.03,0.37,2.71,1.11c0.68,0.74,1.1,1.7,1.26,2.9H215.63L215.63,523.41z
	 M224.7,533.8c1.26-0.62,2.34-1.48,3.23-2.58l-3.06-2.71c-0.75,0.68-1.48,1.17-2.18,1.48s-1.5,0.46-2.39,0.46
	c-1.2,0-2.2-0.31-3.01-0.93s-1.34-1.54-1.6-2.76h13.11c0.02-0.26,0.04-0.5,0.05-0.74c0.01-0.23,0.02-0.46,0.02-0.67
	c0-1.34-0.18-2.62-0.55-3.85c-0.36-1.23-0.93-2.32-1.69-3.27c-0.76-0.95-1.72-1.7-2.87-2.27c-1.15-0.56-2.51-0.84-4.08-0.84
	c-1.38,0-2.64,0.26-3.78,0.77c-1.14,0.52-2.12,1.22-2.93,2.11c-0.82,0.89-1.46,1.93-1.92,3.13c-0.46,1.2-0.68,2.46-0.68,3.8V525
	c0,1.45,0.25,2.77,0.74,3.95s1.18,2.21,2.06,3.08s1.92,1.54,3.13,2c1.21,0.47,2.51,0.7,3.92,0.7
	C221.94,534.73,223.43,534.42,224.7,533.8L224.7,533.8z M232.85,534.31h5.34v-10.48c0-1.26,0.3-2.22,0.9-2.86
	c0.6-0.64,1.41-0.96,2.44-0.96s1.83,0.32,2.39,0.96s0.84,1.6,0.84,2.86v10.48h5.34v-12.2c0-2.18-0.56-3.89-1.67-5.13
	s-2.69-1.86-4.73-1.86c-0.68,0-1.29,0.08-1.83,0.25c-0.54,0.17-1.03,0.39-1.48,0.67c-0.44,0.28-0.85,0.61-1.21,0.97
	c-0.36,0.37-0.7,0.75-1,1.15v-2.69h-5.34v18.84H232.85z M263.47,534.32c0.68-0.2,1.3-0.46,1.86-0.79v-4.29
	c-0.82,0.47-1.7,0.7-2.64,0.7c-1.15,0-1.72-0.61-1.72-1.83v-8.08h4.43v-4.57h-4.43v-4.82h-5.34v4.82h-2.25v4.57h2.25v8.93
	c0,1.1,0.13,2.01,0.4,2.72c0.27,0.71,0.64,1.29,1.12,1.74c0.48,0.45,1.06,0.76,1.72,0.93c0.67,0.17,1.41,0.26,2.23,0.26
	C262,534.62,262.79,534.52,263.47,534.32L263.47,534.32z M280.44,534.31h5.34v-15.96l6.85,10.4h0.14l6.93-10.51v16.06h5.34v-24.6
	h-5.83l-6.47,10.4l-6.47-10.4h-5.84L280.44,534.31L280.44,534.31z M310.64,534.31h5.34v-18.84h-5.34V534.31L310.64,534.31z
	 M310.49,513.39h5.62v-4.75h-5.62V513.39L310.49,513.39z M326.8,527.13c-0.87-0.8-1.3-1.85-1.3-3.16v-0.07
	c0-0.63,0.12-1.22,0.35-1.76c0.23-0.54,0.56-1,0.97-1.39s0.89-0.69,1.44-0.9s1.15-0.32,1.81-0.32s1.27,0.11,1.83,0.32
	s1.05,0.51,1.46,0.9s0.73,0.85,0.97,1.39c0.23,0.54,0.35,1.12,0.35,1.76v0.07c0,0.63-0.12,1.22-0.35,1.76
	c-0.23,0.54-0.56,1-0.97,1.39s-0.9,0.68-1.46,0.9s-1.17,0.32-1.83,0.32C328.76,528.33,327.67,527.93,326.8,527.13L326.8,527.13z
	 M334.2,539.4c1.35-0.4,2.47-1.04,3.36-1.93c1.59-1.59,2.39-4.07,2.39-7.42v-14.59h-5.34v2.46c-0.73-0.8-1.56-1.46-2.49-2
	c-0.94-0.54-2.13-0.81-3.58-0.81c-1.08,0-2.12,0.19-3.13,0.58s-1.9,0.95-2.67,1.7c-0.77,0.75-1.39,1.67-1.86,2.76
	c-0.47,1.09-0.7,2.34-0.7,3.74v0.07c0,1.41,0.23,2.65,0.69,3.74c0.46,1.09,1.07,2.01,1.85,2.76c0.77,0.75,1.66,1.32,2.67,1.7
	c1.01,0.39,2.06,0.58,3.16,0.58c1.43,0,2.61-0.27,3.55-0.81s1.8-1.29,2.6-2.25v0.91c0,1.69-0.44,2.96-1.32,3.83s-2.23,1.3-4.06,1.3
	c-1.27,0-2.4-0.15-3.39-0.46c-1-0.3-1.99-0.73-2.97-1.26l-1.83,4.01c1.2,0.63,2.5,1.12,3.9,1.46c1.41,0.34,2.88,0.51,4.43,0.51
	C331.27,540,332.85,539.8,334.2,539.4L334.2,539.4z M344.73,534.31h5.34v-6.96c0-2.27,0.51-3.95,1.53-5.03s2.42-1.62,4.2-1.62h0.28
	v-5.59c-1.59-0.07-2.86,0.28-3.8,1.05c-0.94,0.77-1.68,1.8-2.21,3.09v-3.8h-5.34L344.73,534.31L344.73,534.31z M364.27,530.37
	c-0.54-0.4-0.81-0.96-0.81-1.69v-0.07c0-0.84,0.33-1.49,0.98-1.93c0.66-0.44,1.56-0.67,2.71-0.67c0.66,0,1.27,0.06,1.85,0.19
	c0.57,0.13,1.1,0.3,1.56,0.51v0.95c0,0.98-0.38,1.78-1.14,2.39s-1.77,0.91-3.04,0.91C365.51,530.97,364.81,530.77,364.27,530.37
	L364.27,530.37z M368.1,534.01c0.91-0.43,1.7-1.01,2.36-1.74v2.04h5.17v-10.93c0-1.27-0.16-2.41-0.49-3.43s-0.84-1.88-1.55-2.58
	c-0.68-0.68-1.54-1.2-2.58-1.56c-1.04-0.36-2.3-0.54-3.78-0.54c-1.59,0-2.95,0.14-4.08,0.42c-1.12,0.28-2.2,0.64-3.23,1.09
	l1.34,4.08c0.87-0.33,1.69-0.58,2.48-0.76s1.69-0.26,2.72-0.26c1.34,0,2.34,0.29,3.02,0.88s1.02,1.44,1.02,2.57v0.32
	c-0.68-0.23-1.38-0.42-2.09-0.56s-1.55-0.21-2.51-0.21c-1.12,0-2.15,0.12-3.08,0.37s-1.72,0.61-2.39,1.11
	c-0.67,0.49-1.19,1.11-1.56,1.86c-0.38,0.75-0.56,1.64-0.56,2.67v0.07c0,0.94,0.17,1.76,0.51,2.48c0.34,0.71,0.8,1.32,1.39,1.81
	c0.58,0.49,1.27,0.86,2.06,1.11s1.62,0.37,2.51,0.37C366.08,534.66,367.19,534.44,368.1,534.01L368.1,534.01z M388.95,534.32
	c0.68-0.2,1.3-0.46,1.86-0.79v-4.29c-0.82,0.47-1.7,0.7-2.64,0.7c-1.15,0-1.72-0.61-1.72-1.83v-8.08h4.43v-4.57h-4.43v-4.82h-5.34
	v4.82h-2.25v4.57h2.25v8.93c0,1.1,0.13,2.01,0.4,2.72c0.27,0.71,0.64,1.29,1.12,1.74c0.48,0.45,1.06,0.76,1.72,0.93
	c0.67,0.17,1.41,0.26,2.23,0.26C387.48,534.62,388.27,534.52,388.95,534.32L388.95,534.32z M399.14,523.41
	c0.21-1.22,0.66-2.19,1.35-2.92s1.6-1.09,2.72-1.09s2.03,0.37,2.71,1.11s1.1,1.7,1.27,2.9H399.14L399.14,523.41z M408.21,533.8
	c1.27-0.62,2.34-1.48,3.23-2.58l-3.06-2.71c-0.75,0.68-1.48,1.17-2.18,1.48c-0.7,0.31-1.5,0.46-2.39,0.46
	c-1.19,0-2.2-0.31-3.01-0.93s-1.34-1.54-1.6-2.76h13.11c0.02-0.26,0.04-0.5,0.05-0.74s0.02-0.46,0.02-0.67
	c0-1.34-0.18-2.62-0.54-3.85c-0.36-1.23-0.93-2.32-1.69-3.27s-1.72-1.7-2.86-2.27c-1.15-0.56-2.51-0.84-4.08-0.84
	c-1.38,0-2.64,0.26-3.78,0.77c-1.14,0.52-2.11,1.22-2.93,2.11s-1.46,1.93-1.91,3.13c-0.46,1.2-0.69,2.46-0.69,3.8V525
	c0,1.45,0.25,2.77,0.74,3.95s1.18,2.21,2.06,3.08s1.92,1.54,3.13,2c1.21,0.47,2.51,0.7,3.92,0.7
	C405.45,534.73,406.94,534.42,408.21,533.8L408.21,533.8z"/>
</svg>
