<?xml version="1.0" encoding="utf-8"?>
<!-- Generator: Adobe Illustrator 26.3.1, SVG Export Plug-In . SVG Version: 6.00 Build 0)  -->
<svg version="1.1" id="Layer_1" xmlns="http://www.w3.org/2000/svg" xmlns:xlink="http://www.w3.org/1999/xlink" x="0px" y="0px"
	 viewBox="0 0 457.9 540.7" style="enable-background:new 0 0 457.9 540.7;" xml:space="preserve">
<style type="text/css">
	.st0{fill:#0054A6;}
	.st1{fill:#5D93CD;}
	.st2{fill:#DFE1DF;}
</style>
<g>
	<path class="st0" d="M235.9,209v-99.3l-80.1,46.2c0,0.4,0.2,0.8,0.2,1.2c0,5-3.4,9-7.9,10.4v92.1L235.9,209L235.9,209z"/>
	<path class="st1" d="M153.6,150.5l79-45.6v-0.2l-87.6-50l-87.6,50v0.2l79,45.6c2-2.6,5-4.4,8.6-4.4
		C148.5,146.1,151.6,147.9,153.6,150.5L153.6,150.5z"/>
	<path d="M134.2,155.9l-80.1-46.2V209l87.7,50.7v-92.1c-4.5-1.4-7.9-5.4-7.9-10.4C134,156.7,134.1,156.3,134.2,155.9L134.2,155.9z"
		/>
	<path class="st1" d="M145,39.1c-0.8,0-1.5-0.7-1.5-1.5V1.5c0-0.8,0.7-1.5,1.5-1.5s1.5,0.7,1.5,1.5v36.1
		C146.5,38.4,145.8,39.1,145,39.1L145,39.1z"/>
	<path class="st1" d="M145,275.1c-0.8,0-1.5,0.7-1.5,1.5v36.1c0,0.8,0.7,1.5,1.5,1.5s1.5-0.7,1.5-1.5v-36.1
		C146.5,275.8,145.8,275.1,145,275.1L145,275.1z"/>
	<path class="st1" d="M41.4,92c-0.5,0.7-1.4,0.9-2.1,0.4l-30-20.2c-0.7-0.5-0.9-1.4-0.4-2.1c0.5-0.7,1.4-0.9,2.1-0.4L41,90
		C41.7,90.4,41.9,91.3,41.4,92L41.4,92z"/>
	<path class="st1" d="M41.4,222.2c-0.5-0.7-1.4-0.9-2.1-0.4L9.4,242c-0.7,0.5-0.9,1.4-0.4,2.1c0.5,0.7,1.4,0.9,2.1,0.4l30-20.2
		C41.7,223.8,41.9,222.9,41.4,222.2L41.4,222.2z"/>
	<path class="st1" d="M248.6,92c0.5,0.7,1.4,0.9,2.1,0.4l30-20.2c0.7-0.5,0.9-1.4,0.4-2.1c-0.5-0.7-1.4-0.9-2.1-0.4L249,90
		C248.3,90.4,248.1,91.3,248.6,92L248.6,92z"/>
	<path class="st1" d="M248.6,222.2c0.5-0.7,1.4-0.9,2.1-0.4l30,20.2c0.7,0.5,0.9,1.4,0.4,2.1c-0.5,0.7-1.4,0.9-2.1,0.4l-30-20.2
		C248.3,223.8,248.1,222.9,248.6,222.2L248.6,222.2z"/>
	<path class="st1" d="M66.6,28.2l7.3,19.9c0.1,0.4,0.4,0.6,0.7,0.8c0.3,0.2,0.7,0.2,1.1,0l10.2-4.1l3,16.4c0.1,0.5,0.4,0.9,0.8,1
		c0.3,0.1,0.6,0.1,0.9,0.1c0.8-0.2,1.3-1,1.2-1.8l-3.3-18.1c-0.1-0.4-0.3-0.8-0.7-1c-0.4-0.2-0.8-0.2-1.2-0.1l-10.5,4.2l-6.8-18.5
		c-0.3-0.7-1-1.1-1.7-0.9l-0.3-0.6l0.2,0.6C66.7,26.6,66.3,27.5,66.6,28.2L66.6,28.2z"/>
	<path class="st1" d="M66.6,286l7.3-19.9c0.1-0.4,0.4-0.6,0.7-0.8c0.3-0.2,0.7-0.2,1.1,0l10.2,4.1l3-16.4c0.1-0.5,0.4-0.9,0.8-1
		c0.3-0.1,0.6-0.1,0.9-0.1c0.8,0.2,1.3,1,1.2,1.8l-3.3,18.1c-0.1,0.4-0.3,0.8-0.7,1c-0.4,0.2-0.8,0.2-1.2,0.1l-10.5-4.2l-6.8,18.5
		c-0.3,0.7-1,1.1-1.7,0.9l-0.3,0.6l0.2-0.6C66.7,287.6,66.3,286.8,66.6,286L66.6,286z"/>
	<path class="st1" d="M223.4,28.2l-7.3,19.9c-0.1,0.4-0.4,0.6-0.7,0.8c-0.3,0.2-0.7,0.2-1.1,0L204,44.8l-3,16.4
		c-0.1,0.5-0.4,0.9-0.8,1c-0.3,0.1-0.6,0.1-0.9,0.1c-0.8-0.2-1.3-1-1.2-1.8l3.3-18.1c0.1-0.4,0.3-0.8,0.7-1c0.4-0.2,0.8-0.2,1.2-0.1
		l10.5,4.2l6.8-18.5c0.3-0.7,1-1.1,1.7-0.9l0.3-0.6l-0.2,0.6C223.3,26.6,223.7,27.5,223.4,28.2L223.4,28.2z"/>
	<path class="st1" d="M223.4,286l-7.3-19.9c-0.1-0.4-0.4-0.6-0.7-0.8c-0.3-0.2-0.7-0.2-1.1,0l-10.2,4.1l-3-16.4
		c-0.1-0.5-0.4-0.9-0.8-1c-0.3-0.1-0.6-0.1-0.9-0.1c-0.8,0.2-1.3,1-1.2,1.8l3.3,18.1c0.1,0.4,0.3,0.8,0.7,1c0.4,0.2,0.8,0.2,1.2,0.1
		l10.5-4.2l6.8,18.5c0.3,0.7,1,1.1,1.7,0.9l0.3,0.6l-0.2-0.6C223.3,287.6,223.7,286.8,223.4,286L223.4,286z"/>
	<path class="st1" d="M287.7,165.7l-21.1-1.6c-0.4,0-0.7-0.2-1-0.5c-0.2-0.3-0.4-0.7-0.3-1l1.1-10.9l-16.5,1.7
		c-0.5,0-0.9-0.1-1.2-0.5c-0.2-0.2-0.3-0.5-0.3-0.8c-0.1-0.8,0.6-1.5,1.4-1.6l18.3-1.8c0.4,0,0.9,0.1,1.1,0.4
		c0.3,0.3,0.5,0.7,0.4,1.1l-1.1,11.2l19.7,1.5c0.8,0.1,1.3,0.7,1.3,1.4l0.7,0.2l-0.7-0.1C289.2,165.1,288.5,165.7,287.7,165.7
		L287.7,165.7z"/>
	<path class="st1" d="M2.3,165.7l21.1-1.6c0.4,0,0.7-0.2,1-0.5c0.2-0.3,0.4-0.7,0.3-1l-1.1-10.9l16.5,1.7c0.5,0,0.9-0.1,1.2-0.5
		c0.2-0.2,0.3-0.5,0.3-0.8c0.1-0.8-0.6-1.5-1.4-1.6L22,148.6c-0.4,0-0.9,0.1-1.1,0.4c-0.3,0.3-0.5,0.7-0.4,1.1l1.1,11.2L2,162.8
		c-0.8,0.1-1.3,0.7-1.3,1.4L0,164.4l0.7-0.1C0.7,165.1,1.5,165.7,2.3,165.7L2.3,165.7z"/>
	<path class="st1" d="M53.9,540h28.4v-7.3H62v-7.8h17.6v-7.3H62V510h20v-7.3H53.9V540L53.9,540z M89.2,540h8.1v-39h-8.1V540
		L89.2,540z M111.5,523.5c0.3-1.8,1-3.3,2.1-4.4c1.1-1.1,2.4-1.7,4.1-1.7c1.7,0,3.1,0.6,4.1,1.7c1,1.1,1.7,2.6,1.9,4.4H111.5
		L111.5,523.5z M125.3,539.3c1.9-0.9,3.6-2.3,4.9-3.9l-4.6-4.1c-1.1,1-2.2,1.8-3.3,2.2c-1.1,0.5-2.3,0.7-3.6,0.7
		c-1.8,0-3.3-0.5-4.6-1.4c-1.2-0.9-2-2.3-2.4-4.2h19.9c0-0.4,0.1-0.8,0.1-1.1c0-0.4,0-0.7,0-1c0-2-0.3-4-0.8-5.8
		c-0.6-1.9-1.4-3.5-2.6-5c-1.2-1.4-2.6-2.6-4.4-3.4c-1.7-0.9-3.8-1.3-6.2-1.3c-2.1,0-4,0.4-5.7,1.2c-1.7,0.8-3.2,1.9-4.5,3.2
		c-1.2,1.4-2.2,2.9-2.9,4.8c-0.7,1.8-1,3.7-1,5.8v0.1c0,2.2,0.4,4.2,1.1,6c0.7,1.8,1.8,3.4,3.1,4.7c1.3,1.3,2.9,2.3,4.8,3
		c1.8,0.7,3.8,1.1,6,1.1C121.1,540.7,123.4,540.2,125.3,539.3L125.3,539.3z M158.1,539.2c1.8-1,3.4-2.2,4.8-3.8l-4.8-4.8
		c-1,0.9-2,1.7-3,2.2c-1,0.6-2.2,0.8-3.5,0.8c-1.1,0-2.1-0.2-3-0.6c-0.9-0.4-1.7-1-2.3-1.7c-0.6-0.7-1.1-1.5-1.5-2.5
		c-0.3-1-0.5-2-0.5-3.1v-0.1c0-1.1,0.2-2.1,0.5-3c0.3-0.9,0.8-1.8,1.4-2.5c0.6-0.7,1.4-1.3,2.2-1.7c0.8-0.4,1.8-0.6,2.8-0.6
		c1.5,0,2.7,0.3,3.7,0.9c1,0.6,1.9,1.3,2.9,2.3l5-5.3c-1.4-1.5-2.9-2.7-4.7-3.5c-1.8-0.9-4-1.3-6.7-1.3c-2.2,0-4.2,0.4-6.1,1.2
		c-1.8,0.8-3.4,1.9-4.7,3.2c-1.3,1.4-2.3,2.9-3.1,4.8c-0.7,1.8-1.1,3.7-1.1,5.8v0.1c0,2,0.4,3.9,1.1,5.7c0.7,1.8,1.8,3.4,3.1,4.7
		c1.3,1.3,2.9,2.4,4.7,3.2c1.8,0.8,3.8,1.2,6,1.2C154,540.7,156.3,540.2,158.1,539.2L158.1,539.2z M181.4,540.1c1-0.3,2-0.7,2.8-1.2
		v-6.5c-1.2,0.7-2.6,1.1-4,1.1c-1.7,0-2.6-0.9-2.6-2.8v-12.3h6.7v-6.9h-6.7v-7.3h-8.1v7.3h-3.4v6.9h3.4v13.6c0,1.7,0.2,3.1,0.6,4.1
		c0.4,1.1,1,2,1.7,2.6s1.6,1.1,2.6,1.4c1,0.3,2.1,0.4,3.4,0.4C179.2,540.5,180.4,540.4,181.4,540.1L181.4,540.1z M190.3,540h8.1
		v-10.6c0-3.5,0.8-6,2.3-7.6c1.5-1.6,3.7-2.5,6.4-2.5h0.4v-8.5c-2.4-0.1-4.3,0.4-5.8,1.6c-1.4,1.2-2.5,2.7-3.4,4.7v-5.8h-8.1V540
		L190.3,540z M223.7,533c-0.9-0.4-1.7-1-2.4-1.7c-0.7-0.7-1.2-1.6-1.5-2.5c-0.4-0.9-0.5-1.9-0.5-3v-0.1c0-1.1,0.2-2.1,0.5-3
		c0.3-0.9,0.8-1.8,1.5-2.5c0.6-0.7,1.4-1.3,2.3-1.7c0.9-0.4,1.9-0.6,3.1-0.6c1.1,0,2.1,0.2,3,0.6c0.9,0.4,1.7,1,2.4,1.7
		c0.7,0.7,1.2,1.6,1.5,2.5c0.4,0.9,0.5,1.9,0.5,3v0.1c0,1.1-0.2,2.1-0.5,3c-0.3,0.9-0.8,1.8-1.5,2.5c-0.6,0.7-1.4,1.3-2.3,1.7
		c-0.9,0.4-1.9,0.6-3.1,0.6C225.6,533.7,224.6,533.5,223.7,533L223.7,533z M232.8,539.5c1.9-0.8,3.5-1.8,4.9-3.2
		c1.4-1.4,2.5-2.9,3.3-4.7c0.8-1.8,1.2-3.7,1.2-5.8v-0.1c0-2.1-0.4-4-1.2-5.8c-0.8-1.8-1.9-3.4-3.2-4.7c-1.4-1.3-3-2.4-4.9-3.1
		c-1.9-0.8-3.9-1.1-6.1-1.1c-2.2,0-4.3,0.4-6.2,1.2c-1.9,0.8-3.5,1.9-4.9,3.2c-1.4,1.4-2.5,2.9-3.3,4.7c-0.8,1.8-1.2,3.7-1.2,5.8
		v0.1c0,2.1,0.4,4,1.2,5.8c0.8,1.8,1.9,3.4,3.2,4.7c1.4,1.3,3,2.4,4.9,3.1c1.9,0.8,3.9,1.1,6.1,1.1
		C228.9,540.7,231,540.3,232.8,539.5L232.8,539.5z M248.1,540h8.1v-15.9c0-1.9,0.5-3.4,1.4-4.3c0.9-1,2.1-1.5,3.7-1.5
		c1.6,0,2.8,0.5,3.6,1.5c0.9,1,1.3,2.4,1.3,4.3V540h8.1v-18.5c0-3.3-0.8-5.9-2.5-7.8c-1.7-1.9-4.1-2.8-7.2-2.8c-1,0-2,0.1-2.8,0.4
		c-0.8,0.3-1.6,0.6-2.2,1c-0.7,0.4-1.3,0.9-1.8,1.5c-0.6,0.6-1.1,1.1-1.5,1.7v-4.1h-8.1V540L248.1,540z"/>
	<path d="M430.2,427.6c17.1,0,27.7-10.7,27.7-25.2v-0.2c0-14.3-10.2-19.8-20.7-21.6l19.5-18.6v-12.7h-52v14.5h30.2l-18.4,18.5
		l2.6,10.8h7c9.5,0,15.1,3.5,15.1,9.8v0.2c0,5.7-4.5,9.3-10.9,9.3c-7.8,0-13.3-3.3-18.6-9.2l-11.7,11.1
		C406.8,422.2,416.3,427.6,430.2,427.6L430.2,427.6z"/>
	<path d="M53.9,466.4h20v-46.8h58v-18.2H74v-31.7h65.4v-18.2H53.9V466.4L53.9,466.4z M181.8,448.1v-78.6h22.7c6,0,11.5,1,16.4,3
		c4.9,2,9.1,4.7,12.6,8.2c3.5,3.5,6.1,7.6,8.1,12.5c1.9,4.8,2.9,10.1,2.9,15.7v0.3c0,5.6-1,10.8-2.9,15.6c-1.9,4.8-4.6,8.9-8.1,12.4
		c-3.5,3.5-7.6,6.2-12.6,8.1c-4.9,1.9-10.4,2.9-16.4,2.9H181.8L181.8,448.1z M161.7,466.4h42.9c9,0,17.2-1.5,24.7-4.4
		c7.5-3,14-7,19.4-12.2c5.4-5.1,9.6-11.2,12.6-18.2c3-7,4.4-14.6,4.4-22.7v-0.3c0-8.1-1.5-15.6-4.4-22.6c-3-7-7.1-13-12.6-18.2
		c-5.4-5.1-11.9-9.2-19.4-12.1c-7.5-2.9-15.7-4.4-24.7-4.4h-42.9V466.4L161.7,466.4z M358.5,466.9c4.4-0.9,8.5-2.3,12.2-4.1
		c3.7-1.8,7.2-3.9,10.4-6.4c3.2-2.5,6.3-5.3,9.3-8.5l-13-13.1c-4.9,4.6-9.9,8.2-15,10.9c-5,2.7-11.1,4-18.1,4
		c-5.5,0-10.5-1.1-15.2-3.2c-4.7-2.1-8.7-5.1-12.1-8.8c-3.4-3.7-6-8.1-7.9-13.1c-1.9-5-2.8-10.3-2.8-15.9v-0.3
		c0-5.6,0.9-10.8,2.8-15.8c1.9-4.9,4.5-9.2,7.9-12.9c3.4-3.7,7.4-6.6,12.1-8.7c4.7-2.1,9.7-3.2,15.2-3.2c6.6,0,12.4,1.3,17.6,3.9
		c5.1,2.6,10,6.1,14.6,10.4l13-15c-2.7-2.6-5.6-5-8.7-7.2c-3.1-2.2-6.4-4.1-10-5.7c-3.6-1.6-7.6-2.8-11.9-3.7
		c-4.3-0.9-9.1-1.3-14.4-1.3c-8.8,0-16.8,1.6-24,4.7c-7.2,3.1-13.5,7.4-18.8,12.8c-5.3,5.4-9.4,11.7-12.3,18.9
		c-2.9,7.2-4.4,14.9-4.4,23.1v0.3c0,8.2,1.5,15.9,4.5,23.2c3,7.2,7.1,13.5,12.3,18.8c5.2,5.3,11.4,9.5,18.5,12.6
		c7.1,3.1,14.9,4.6,23.3,4.6C349.2,468.3,354.1,467.9,358.5,466.9L358.5,466.9z"/>
	<path class="st2" d="M238.7,351.4"/>
</g>
</svg>
