<?xml version="1.0" encoding="utf-8"?>
<!-- Generator: Adobe Illustrator 26.3.1, SVG Export Plug-In . SVG Version: 6.00 Build 0)  -->
<svg version="1.1" id="Layer_1" xmlns="http://www.w3.org/2000/svg" xmlns:xlink="http://www.w3.org/1999/xlink" x="0px" y="0px"
	 viewBox="0 0 720 341" style="enable-background:new 0 0 720 341;" xml:space="preserve">
<style type="text/css">
	.st0{fill:#5D93CD;}
</style>
<g>
	<path class="st0" d="M0,339.9h50V327H14.3v-13.8h31v-12.9h-31v-13.4h35.3V274H0V339.9L0,339.9z M62.2,339.9h14.3v-68.7H62.2V339.9
		L62.2,339.9z M101.5,310.7c0.6-3.3,1.8-5.9,3.6-7.8c1.8-1.9,4.3-2.9,7.3-2.9c3,0,5.4,1,7.2,3c1.8,2,2.9,4.6,3.4,7.8H101.5
		L101.5,310.7z M125.8,338.5c3.4-1.7,6.3-4,8.7-6.9l-8.2-7.2c-2,1.8-3.9,3.1-5.8,4c-1.9,0.8-4,1.2-6.4,1.2c-3.2,0-5.9-0.8-8-2.5
		c-2.2-1.7-3.6-4.1-4.3-7.4h35.1c0.1-0.7,0.1-1.3,0.1-2c0-0.6,0-1.2,0-1.8c0-3.6-0.5-7-1.5-10.3c-1-3.3-2.5-6.2-4.5-8.7
		c-2-2.5-4.6-4.6-7.7-6.1c-3.1-1.5-6.7-2.3-10.9-2.3c-3.7,0-7.1,0.7-10.1,2.1c-3,1.4-5.7,3.3-7.9,5.6c-2.2,2.4-3.9,5.2-5.1,8.4
		c-1.2,3.2-1.8,6.6-1.8,10.2v0.2c0,3.9,0.7,7.4,2,10.6c1.3,3.2,3.2,5.9,5.5,8.2s5.1,4.1,8.4,5.4c3.2,1.3,6.7,1.9,10.5,1.9
		C118.4,341,122.4,340.2,125.8,338.5L125.8,338.5z M183.6,338.4c3.1-1.7,5.9-3.9,8.4-6.6l-8.4-8.5c-1.8,1.6-3.5,2.9-5.3,3.9
		c-1.8,1-3.9,1.5-6.3,1.5c-1.9,0-3.7-0.4-5.3-1.1c-1.6-0.7-2.9-1.7-4-3c-1.1-1.3-2-2.7-2.6-4.4c-0.6-1.7-0.9-3.5-0.9-5.5v-0.2
		c0-1.9,0.3-3.7,0.9-5.3c0.6-1.7,1.4-3.1,2.5-4.4c1.1-1.3,2.4-2.2,3.9-3c1.5-0.7,3.1-1.1,4.9-1.1c2.6,0,4.7,0.5,6.4,1.5
		c1.7,1,3.4,2.4,5,4l8.7-9.4c-2.4-2.6-5.1-4.7-8.3-6.2c-3.1-1.5-7.1-2.3-11.9-2.3c-3.9,0-7.4,0.7-10.7,2.1c-3.2,1.4-6,3.3-8.3,5.6
		c-2.3,2.4-4.1,5.2-5.5,8.4c-1.3,3.2-2,6.6-2,10.2v0.2c0,3.6,0.7,6.9,2,10.1c1.3,3.2,3.1,5.9,5.5,8.3c2.3,2.4,5.1,4.2,8.3,5.6
		c3.2,1.4,6.7,2.1,10.5,2.1C176.4,341,180.5,340.1,183.6,338.4L183.6,338.4z M224.6,339.9c1.8-0.5,3.5-1.2,5-2.1v-11.5
		c-2.2,1.3-4.5,1.9-7.1,1.9c-3.1,0-4.6-1.6-4.6-4.9v-21.6h11.9v-12.2H218v-12.9h-14.3v12.9h-6v12.2h6v23.9c0,2.9,0.4,5.4,1.1,7.3
		c0.7,1.9,1.7,3.5,3,4.7c1.3,1.2,2.8,2,4.6,2.5c1.8,0.5,3.8,0.7,6,0.7C220.7,340.7,222.8,340.4,224.6,339.9L224.6,339.9z
		 M240.3,339.9h14.3v-18.6c0-6.1,1.4-10.6,4.1-13.5c2.7-2.9,6.5-4.3,11.2-4.3h0.8v-15c-4.3-0.2-7.7,0.8-10.2,2.8
		c-2.5,2.1-4.5,4.8-5.9,8.3v-10.2h-14.3V339.9L240.3,339.9z M299.2,327.5c-1.6-0.8-3-1.8-4.2-3.1c-1.2-1.3-2.1-2.8-2.7-4.4
		c-0.6-1.7-0.9-3.4-0.9-5.3v-0.2c0-1.9,0.3-3.7,0.9-5.3c0.6-1.7,1.5-3.1,2.6-4.4c1.1-1.3,2.5-2.2,4.1-3c1.6-0.7,3.4-1.1,5.5-1.1
		c1.9,0,3.7,0.4,5.4,1.1c1.6,0.8,3,1.8,4.2,3.1c1.2,1.3,2.1,2.8,2.7,4.4c0.6,1.7,0.9,3.4,0.9,5.3v0.2c0,1.9-0.3,3.7-0.9,5.3
		c-0.6,1.7-1.5,3.1-2.6,4.4c-1.1,1.3-2.5,2.2-4.1,3c-1.6,0.7-3.4,1.1-5.5,1.1C302.6,328.7,300.8,328.3,299.2,327.5L299.2,327.5z
		 M315.3,338.9c3.3-1.4,6.2-3.3,8.7-5.6c2.4-2.4,4.4-5.2,5.7-8.3c1.4-3.2,2.1-6.6,2.1-10.2v-0.2c0-3.6-0.7-7-2.1-10.2
		c-1.4-3.2-3.3-5.9-5.7-8.3c-2.4-2.4-5.3-4.2-8.6-5.5c-3.3-1.3-6.9-2-10.8-2c-4,0-7.6,0.7-10.9,2.1c-3.3,1.4-6.2,3.3-8.7,5.6
		c-2.4,2.4-4.4,5.2-5.7,8.3c-1.4,3.2-2.1,6.6-2.1,10.2v0.2c0,3.6,0.7,7,2.1,10.2c1.4,3.2,3.3,5.9,5.7,8.3c2.4,2.4,5.3,4.2,8.6,5.5
		c3.3,1.3,6.9,2,10.8,2C308.3,341,312,340.3,315.3,338.9L315.3,338.9z M342.1,339.9h14.3v-28.1c0-3.4,0.8-5.9,2.4-7.6
		c1.6-1.7,3.8-2.6,6.5-2.6c2.8,0,4.9,0.9,6.4,2.6c1.5,1.7,2.3,4.3,2.3,7.6v28.1h14.3v-32.6c0-5.8-1.5-10.4-4.5-13.7
		c-3-3.3-7.2-5-12.7-5c-1.8,0-3.4,0.2-4.9,0.7c-1.4,0.4-2.8,1-4,1.8c-1.2,0.8-2.3,1.6-3.2,2.6c-1,1-1.9,2-2.7,3.1v-7.2h-14.3V339.9
		L342.1,339.9z"/>
	<path d="M670.6,139.5c30.6,0,49.4-19,49.4-44.9v-0.4c0-25.5-18.2-35.3-36.8-38.4l34.7-33.1V0h-92.7v25.8h53.9l-32.7,32.9L651,78
		h12.5c16.9,0,26.9,6.3,26.9,17.4v0.4c0,10.2-8,16.7-19.4,16.7c-13.9,0-23.7-5.9-33.1-16.5l-20.8,19.8
		C628.9,129.7,645.9,139.5,670.6,139.5L670.6,139.5z"/>
	<path d="M0,208.5h35.7v-83.5h103.4V92.6H35.7V36h116.6V3.5H0V208.5L0,208.5z M227.9,176V36h40.4c10.7,0,20.5,1.8,29.3,5.3
		c8.8,3.5,16.3,8.4,22.4,14.6c6.2,6.2,10.9,13.6,14.4,22.2c3.4,8.6,5.1,17.9,5.1,27.9v0.6c0,10-1.7,19.3-5.1,27.8
		c-3.4,8.5-8.2,15.9-14.4,22.1c-6.1,6.2-13.6,11-22.4,14.4c-8.8,3.4-18.6,5.1-29.3,5.1H227.9L227.9,176z M192.1,208.5h76.4
		c16,0,30.7-2.6,44.1-7.9c13.4-5.3,24.9-12.5,34.6-21.7c9.7-9.2,17.1-20,22.4-32.5c5.3-12.5,7.9-26,7.9-40.4v-0.6
		c0-14.4-2.6-27.9-7.9-40.3c-5.3-12.4-12.7-23.2-22.4-32.4c-9.7-9.2-21.2-16.4-34.6-21.5c-13.4-5.2-28.1-7.8-44.1-7.8h-76.4V208.5
		L192.1,208.5z M542.9,209.6c7.9-1.7,15.2-4.1,21.8-7.3c6.6-3.2,12.8-7,18.6-11.4c5.8-4.4,11.3-9.4,16.5-15.1l-23.1-23.4
		c-8.8,8.2-17.7,14.7-26.7,19.5c-9,4.8-19.7,7.2-32.2,7.2c-9.8,0-18.8-1.9-27.1-5.7c-8.3-3.8-15.5-9-21.5-15.7
		c-6.1-6.6-10.7-14.4-14.1-23.3c-3.3-8.9-5-18.3-5-28.3v-0.6c0-10,1.7-19.3,5-28.1c3.3-8.8,8-16.4,14.1-23
		c6.1-6.5,13.2-11.7,21.5-15.5c8.3-3.8,17.3-5.7,27.1-5.7c11.7,0,22.2,2.3,31.3,7c9.2,4.7,17.9,10.8,26.1,18.5l23.1-26.7
		c-4.9-4.7-10.1-9-15.5-12.9c-5.5-3.9-11.4-7.3-17.9-10.1c-6.4-2.8-13.5-5-21.2-6.6C536,0.8,527.5,0,518.1,0
		c-15.6,0-29.9,2.8-42.8,8.3c-12.9,5.6-24,13.2-33.5,22.8c-9.4,9.7-16.8,20.9-22,33.7c-5.2,12.8-7.8,26.5-7.8,41.1v0.6
		c0,14.6,2.7,28.4,8,41.3c5.3,12.9,12.6,24.1,22,33.5c9.3,9.5,20.3,16.9,33,22.4c12.7,5.5,26.6,8.2,41.6,8.2
		C526.2,212,534.9,211.2,542.9,209.6L542.9,209.6z"/>
</g>
</svg>
