<?xml version="1.0" encoding="utf-8"?>
<!-- Generator: Adobe Illustrator 26.3.1, SVG Export Plug-In . SVG Version: 6.00 Build 0)  -->
<svg version="1.1" id="Layer_1" xmlns="http://www.w3.org/2000/svg" xmlns:xlink="http://www.w3.org/1999/xlink" x="0px" y="0px"
	 viewBox="0 0 462.7 219.1" style="enable-background:new 0 0 462.7 219.1;" xml:space="preserve">
<style type="text/css">
	.st0{fill:#5D93CD;}
</style>
<g>
	<path class="st0" d="M27,218.6c1.6-0.3,3.1-0.8,4.5-1.5c1.4-0.7,2.6-1.4,3.8-2.4c1.2-0.9,2.3-2,3.4-3.1l-5.9-5.9
		c-1.6,1.5-3.3,2.7-4.9,3.6c-1.7,0.9-3.7,1.3-6.1,1.3c-1.8,0-3.4-0.3-4.9-1c-1.5-0.7-2.8-1.6-3.8-2.8c-1.1-1.2-1.9-2.6-2.5-4.2
		c-0.6-1.6-0.9-3.3-0.9-5.1v-0.1c0-1.8,0.3-3.5,0.9-5.1c0.6-1.6,1.4-3,2.5-4.2c1.1-1.2,2.4-2.1,3.9-2.8c1.5-0.7,3.1-1,4.9-1
		c2.1,0,4,0.4,5.7,1.3c1.7,0.8,3.4,2,5,3.5l5.9-6.8c-1-1-2-1.8-3.1-2.6c-1.1-0.8-2.3-1.5-3.7-2c-1.3-0.6-2.8-1-4.4-1.3
		c-1.6-0.3-3.4-0.5-5.4-0.5c-3.2,0-6.2,0.6-8.9,1.7c-2.7,1.1-5,2.7-6.9,4.7c-1.9,2-3.4,4.3-4.5,6.9c-1.1,2.6-1.6,5.4-1.6,8.4v0.1
		c0,3,0.5,5.8,1.6,8.4c1.1,2.6,2.6,4.9,4.5,6.9c1.9,1.9,4.2,3.5,6.8,4.6c2.6,1.1,5.5,1.7,8.6,1.7C23.5,219.1,25.4,218.9,27,218.6
		L27,218.6z M57.5,210.5c-1-0.5-1.9-1.1-2.7-1.9c-0.8-0.8-1.3-1.8-1.7-2.8c-0.4-1.1-0.6-2.2-0.6-3.4v-0.1c0-1.2,0.2-2.3,0.6-3.4
		c0.4-1.1,0.9-2,1.6-2.8c0.7-0.8,1.6-1.4,2.6-1.9c1-0.5,2.2-0.7,3.5-0.7c1.2,0,2.4,0.2,3.4,0.7c1,0.5,1.9,1.1,2.7,1.9
		c0.8,0.8,1.3,1.8,1.7,2.8c0.4,1.1,0.6,2.2,0.6,3.4v0.1c0,1.2-0.2,2.3-0.6,3.4c-0.4,1.1-0.9,2-1.6,2.8c-0.7,0.8-1.6,1.4-2.6,1.9
		c-1,0.5-2.2,0.7-3.5,0.7C59.7,211.3,58.5,211,57.5,210.5L57.5,210.5z M67.8,217.8c2.1-0.9,4-2.1,5.5-3.6c1.6-1.5,2.8-3.3,3.7-5.3
		c0.9-2,1.3-4.2,1.3-6.5v-0.1c0-2.3-0.4-4.5-1.3-6.5c-0.9-2-2.1-3.8-3.6-5.3c-1.5-1.5-3.4-2.7-5.5-3.5c-2.1-0.9-4.4-1.3-6.9-1.3
		c-2.5,0-4.8,0.4-6.9,1.3c-2.1,0.9-4,2.1-5.5,3.6c-1.6,1.5-2.8,3.3-3.7,5.3c-0.9,2-1.3,4.2-1.3,6.5v0.1c0,2.3,0.4,4.5,1.3,6.5
		c0.9,2,2.1,3.8,3.6,5.3c1.5,1.5,3.4,2.7,5.5,3.5c2.1,0.9,4.4,1.3,6.9,1.3C63.3,219.1,65.7,218.7,67.8,217.8L67.8,217.8z
		 M84.8,218.4h9.1v-17.9c0-2.1,0.5-3.8,1.5-4.9c1-1.1,2.4-1.6,4.2-1.6c1.8,0,3.1,0.5,4.1,1.6c1,1.1,1.4,2.7,1.4,4.9v17.9h9.1v-20.8
		c0-3.7-0.9-6.6-2.8-8.7c-1.9-2.1-4.6-3.2-8.1-3.2c-1.2,0-2.2,0.1-3.1,0.4c-0.9,0.3-1.8,0.7-2.5,1.1c-0.8,0.5-1.4,1-2.1,1.7
		c-0.6,0.6-1.2,1.3-1.7,2v-4.6h-9.1V218.4L84.8,218.4z M123.7,218.4h9.1v-24.3h7.2v-7.4h-7.4v-1.3c0-2.3,1.1-3.5,3.3-3.5
		c0.8,0,1.5,0.1,2.2,0.2c0.6,0.1,1.3,0.3,2,0.6v-7.5c-0.8-0.3-1.8-0.5-2.8-0.7c-1-0.2-2.2-0.2-3.7-0.2c-3.2,0-5.7,0.8-7.4,2.5
		c-1.7,1.7-2.6,4.3-2.6,7.8v2h-3.8v7.5h3.8V218.4L123.7,218.4z M157.4,210.5c-1-0.5-1.9-1.1-2.7-1.9c-0.8-0.8-1.3-1.8-1.7-2.8
		c-0.4-1.1-0.6-2.2-0.6-3.4v-0.1c0-1.2,0.2-2.3,0.6-3.4c0.4-1.1,0.9-2,1.6-2.8c0.7-0.8,1.6-1.4,2.6-1.9c1-0.5,2.2-0.7,3.5-0.7
		c1.2,0,2.4,0.2,3.4,0.7c1,0.5,1.9,1.1,2.7,1.9c0.8,0.8,1.3,1.8,1.7,2.8c0.4,1.1,0.6,2.2,0.6,3.4v0.1c0,1.2-0.2,2.3-0.6,3.4
		c-0.4,1.1-0.9,2-1.6,2.8c-0.7,0.8-1.6,1.4-2.6,1.9c-1,0.5-2.2,0.7-3.5,0.7C159.6,211.3,158.4,211,157.4,210.5L157.4,210.5z
		 M167.7,217.8c2.1-0.9,4-2.1,5.5-3.6c1.6-1.5,2.8-3.3,3.7-5.3c0.9-2,1.3-4.2,1.3-6.5v-0.1c0-2.3-0.4-4.5-1.3-6.5
		c-0.9-2-2.1-3.8-3.6-5.3c-1.5-1.5-3.4-2.7-5.5-3.5c-2.1-0.9-4.4-1.3-6.9-1.3c-2.5,0-4.8,0.4-6.9,1.3c-2.1,0.9-4,2.1-5.5,3.6
		c-1.6,1.5-2.8,3.3-3.7,5.3c-0.9,2-1.3,4.2-1.3,6.5v0.1c0,2.3,0.4,4.5,1.3,6.5c0.9,2,2.1,3.8,3.6,5.3c1.5,1.5,3.4,2.7,5.5,3.5
		c2.1,0.9,4.4,1.3,6.9,1.3C163.3,219.1,165.6,218.7,167.7,217.8L167.7,217.8z M184.8,218.4h9.1v-11.9c0-3.9,0.9-6.7,2.6-8.6
		c1.7-1.8,4.1-2.8,7.2-2.8h0.5v-9.5c-2.7-0.1-4.9,0.5-6.5,1.8c-1.6,1.3-2.9,3.1-3.8,5.3v-6.5h-9.1V218.4L184.8,218.4z M209.8,218.4
		h9.1v-17.9c0-2.1,0.5-3.8,1.5-4.9c1-1.1,2.3-1.6,4-1.6c1.7,0,3,0.5,4,1.6c0.9,1.1,1.4,2.7,1.4,4.9v17.9h9.1v-17.9
		c0-2.1,0.5-3.8,1.5-4.9c1-1.1,2.3-1.6,4-1.6c1.7,0,3,0.5,4,1.6c0.9,1.1,1.4,2.7,1.4,4.9v17.9h9.1v-20.9c0-3.9-1-6.8-2.9-8.8
		c-1.9-2-4.6-3-8-3c-2.2,0-4.2,0.4-5.9,1.3c-1.7,0.9-3.3,2.1-4.7,3.8c-0.8-1.6-2-2.9-3.6-3.8c-1.5-0.9-3.4-1.3-5.5-1.3
		c-1.2,0-2.2,0.1-3.1,0.4c-0.9,0.3-1.8,0.7-2.5,1.1c-0.8,0.5-1.4,1-2.1,1.7c-0.6,0.6-1.2,1.3-1.7,2v-4.6h-9.1V218.4L209.8,218.4z
		 M274.9,211.7c-0.9-0.7-1.4-1.6-1.4-2.9v-0.1c0-1.4,0.6-2.5,1.7-3.3c1.1-0.8,2.7-1.1,4.6-1.1c1.1,0,2.2,0.1,3.1,0.3
		c1,0.2,1.9,0.5,2.7,0.9v1.6c0,1.7-0.6,3-1.9,4.1c-1.3,1-3,1.6-5.2,1.6C277,212.7,275.8,212.4,274.9,211.7L274.9,211.7z
		 M281.4,217.9c1.6-0.7,2.9-1.7,4-3v3.5h8.8v-18.6c0-2.2-0.3-4.1-0.8-5.8c-0.6-1.7-1.4-3.2-2.6-4.4c-1.2-1.2-2.6-2-4.4-2.7
		c-1.8-0.6-3.9-0.9-6.4-0.9c-2.7,0-5,0.2-6.9,0.7c-1.9,0.5-3.8,1.1-5.5,1.9l2.3,6.9c1.5-0.6,2.9-1,4.2-1.3c1.3-0.3,2.9-0.4,4.6-0.4
		c2.3,0,4,0.5,5.1,1.5c1.2,1,1.7,2.5,1.7,4.4v0.5c-1.2-0.4-2.3-0.7-3.6-1c-1.2-0.2-2.6-0.4-4.3-0.4c-1.9,0-3.7,0.2-5.2,0.6
		c-1.6,0.4-2.9,1-4.1,1.9c-1.1,0.8-2,1.9-2.7,3.2c-0.6,1.3-1,2.8-1,4.5v0.1c0,1.6,0.3,3,0.9,4.2c0.6,1.2,1.4,2.2,2.4,3.1
		c1,0.8,2.2,1.5,3.5,1.9c1.3,0.4,2.8,0.6,4.3,0.6C278,219,279.9,218.6,281.4,217.9L281.4,217.9z M302.1,218.4h9.1v-17.9
		c0-2.1,0.5-3.8,1.5-4.9c1-1.1,2.4-1.6,4.2-1.6c1.8,0,3.1,0.5,4.1,1.6c1,1.1,1.4,2.7,1.4,4.9v17.9h9.1v-20.8c0-3.7-0.9-6.6-2.8-8.7
		c-1.9-2.1-4.6-3.2-8.1-3.2c-1.2,0-2.2,0.1-3.1,0.4c-0.9,0.3-1.8,0.7-2.5,1.1c-0.8,0.5-1.4,1-2.1,1.7c-0.6,0.6-1.2,1.3-1.7,2v-4.6
		h-9.1V218.4L302.1,218.4z M362.3,217.5c2-1.1,3.8-2.5,5.3-4.2l-5.3-5.4c-1.1,1-2.2,1.9-3.4,2.5c-1.1,0.6-2.5,0.9-4,0.9
		c-1.2,0-2.4-0.2-3.4-0.7c-1-0.5-1.9-1.1-2.6-1.9c-0.7-0.8-1.3-1.7-1.6-2.8c-0.4-1.1-0.6-2.2-0.6-3.5v-0.1c0-1.2,0.2-2.3,0.6-3.4
		c0.4-1.1,0.9-2,1.6-2.8c0.7-0.8,1.5-1.4,2.5-1.9c0.9-0.5,2-0.7,3.1-0.7c1.6,0,3,0.3,4.1,1c1.1,0.6,2.2,1.5,3.2,2.6l5.6-6
		c-1.5-1.7-3.3-3-5.3-4c-2-1-4.5-1.4-7.5-1.4c-2.5,0-4.7,0.4-6.8,1.3c-2.1,0.9-3.8,2.1-5.3,3.6c-1.5,1.5-2.6,3.3-3.5,5.3
		c-0.8,2-1.3,4.2-1.3,6.5v0.1c0,2.3,0.4,4.4,1.3,6.4c0.8,2,2,3.8,3.5,5.3c1.5,1.5,3.2,2.7,5.3,3.6c2.1,0.9,4.3,1.3,6.7,1.3
		C357.7,219.1,360.3,218.6,362.3,217.5L362.3,217.5z M381,199.8c0.4-2.1,1.1-3.7,2.3-5s2.7-1.9,4.6-1.9c1.9,0,3.5,0.6,4.6,1.9
		c1.2,1.3,1.9,2.9,2.2,4.9H381L381,199.8z M396.4,217.5c2.2-1.1,4-2.5,5.5-4.4l-5.2-4.6c-1.3,1.2-2.5,2-3.7,2.5
		c-1.2,0.5-2.6,0.8-4.1,0.8c-2,0-3.7-0.5-5.1-1.6c-1.4-1.1-2.3-2.6-2.7-4.7h22.3c0-0.4,0.1-0.9,0.1-1.3c0-0.4,0-0.8,0-1.1
		c0-2.3-0.3-4.5-0.9-6.6c-0.6-2.1-1.6-4-2.9-5.6c-1.3-1.6-2.9-2.9-4.9-3.9c-2-1-4.3-1.4-6.9-1.4c-2.4,0-4.5,0.4-6.4,1.3
		c-1.9,0.9-3.6,2.1-5,3.6c-1.4,1.5-2.5,3.3-3.3,5.3c-0.8,2-1.2,4.2-1.2,6.5v0.1c0,2.5,0.4,4.7,1.3,6.7c0.8,2,2,3.8,3.5,5.2
		c1.5,1.5,3.3,2.6,5.3,3.4c2.1,0.8,4.3,1.2,6.7,1.2C391.7,219.1,394.2,218.6,396.4,217.5L396.4,217.5z"/>
	<path d="M431,89.7c19.6,0,31.7-12.2,31.7-28.8v-0.3c0-16.4-11.7-22.7-23.7-24.7l22.3-21.3V0h-59.6v16.6h34.6l-21,21.2l3,12.3h8.1
		c10.8,0,17.3,4,17.3,11.2v0.3c0,6.6-5.2,10.7-12.5,10.7c-8.9,0-15.2-3.8-21.3-10.6l-13.3,12.7C404.1,83.4,415.1,89.7,431,89.7
		L431,89.7z"/>
	<path d="M0,134h23V80.4h66.4V59.5H23V23.1h74.9V2.3H0V134L0,134z M146.4,113.1v-90h26c6.9,0,13.2,1.1,18.8,3.4
		c5.6,2.3,10.4,5.4,14.4,9.4c4,4,7,8.7,9.2,14.3c2.2,5.5,3.3,11.5,3.3,18v0.4c0,6.4-1.1,12.4-3.3,17.9c-2.2,5.5-5.3,10.2-9.2,14.2
		c-4,4-8.8,7.1-14.4,9.3c-5.6,2.2-11.9,3.3-18.8,3.3H146.4L146.4,113.1z M123.5,134h49.1c10.3,0,19.7-1.7,28.3-5.1
		c8.6-3.4,16-8,22.2-13.9c6.2-5.9,11-12.9,14.4-20.9c3.4-8,5.1-16.7,5.1-26v-0.4c0-9.3-1.7-17.9-5.1-25.9c-3.4-8-8.2-14.9-14.4-20.8
		c-6.2-5.9-13.6-10.5-22.2-13.8c-8.6-3.3-18-5-28.3-5h-49.1V134L123.5,134z M348.8,134.7c5.1-1.1,9.8-2.6,14-4.7
		c4.3-2.1,8.2-4.5,12-7.3c3.7-2.8,7.2-6.1,10.6-9.7l-14.9-15.1c-5.6,5.3-11.4,9.4-17.1,12.5c-5.8,3.1-12.7,4.6-20.7,4.6
		c-6.3,0-12.1-1.2-17.4-3.7c-5.3-2.4-9.9-5.8-13.8-10.1c-3.9-4.3-6.9-9.3-9-15c-2.1-5.7-3.2-11.8-3.2-18.2v-0.4
		c0-6.4,1.1-12.4,3.2-18.1c2.1-5.6,5.1-10.6,9-14.8c3.9-4.2,8.5-7.5,13.8-10c5.3-2.4,11.1-3.7,17.4-3.7c7.5,0,14.2,1.5,20.1,4.5
		c5.9,3,11.5,7,16.8,11.9l14.9-17.1c-3.1-3-6.5-5.8-10-8.3c-3.5-2.5-7.3-4.7-11.5-6.5c-4.1-1.8-8.7-3.2-13.6-4.2
		c-5-1-10.4-1.5-16.5-1.5c-10,0-19.2,1.8-27.5,5.4c-8.3,3.6-15.5,8.5-21.5,14.7c-6.1,6.2-10.8,13.4-14.1,21.6c-3.4,8.2-5,17-5,26.4
		v0.4c0,9.4,1.7,18.3,5.1,26.5c3.4,8.3,8.1,15.5,14.1,21.5c6,6.1,13.1,10.9,21.2,14.4c8.2,3.5,17.1,5.3,26.7,5.3
		C338.1,136.3,343.8,135.7,348.8,134.7L348.8,134.7z"/>
</g>
</svg>
