<?xml version="1.0" encoding="utf-8"?>
<!-- Generator: Adobe Illustrator 26.3.1, SVG Export Plug-In . SVG Version: 6.00 Build 0)  -->
<svg version="1.1" id="Layer_1" xmlns="http://www.w3.org/2000/svg" xmlns:xlink="http://www.w3.org/1999/xlink" x="0px" y="0px"
	 viewBox="0 0 443.2 540.8" style="enable-background:new 0 0 443.2 540.8;" xml:space="preserve">
<style type="text/css">
	.st0{fill:#5D93CD;}
	.st1{fill:#DFE1DF;}
	.st2{fill:#0054A6;}
</style>
<g>
	<path class="st0" d="M25.9,540.3c1.6-0.3,3-0.8,4.3-1.4c1.3-0.6,2.5-1.4,3.6-2.3c1.1-0.9,2.2-1.9,3.2-3l-5.6-5.7
		c-1.6,1.5-3.1,2.6-4.7,3.4c-1.6,0.8-3.5,1.3-5.8,1.3c-1.7,0-3.3-0.3-4.7-1c-1.4-0.7-2.7-1.6-3.7-2.7c-1-1.1-1.8-2.5-2.4-4
		c-0.6-1.5-0.9-3.2-0.9-4.9v-0.1c0-1.7,0.3-3.3,0.9-4.8c0.6-1.5,1.4-2.8,2.4-4c1-1.1,2.3-2,3.7-2.7c1.4-0.6,3-1,4.7-1
		c2,0,3.9,0.4,5.5,1.2c1.6,0.8,3.2,1.9,4.8,3.3l5.6-6.5c-0.9-0.9-1.9-1.8-3-2.5c-1.1-0.8-2.2-1.4-3.5-2c-1.3-0.5-2.7-1-4.2-1.3
		c-1.5-0.3-3.3-0.5-5.1-0.5c-3.1,0-5.9,0.5-8.5,1.6c-2.6,1.1-4.8,2.6-6.6,4.5c-1.8,1.9-3.3,4.1-4.3,6.6c-1,2.5-1.5,5.2-1.5,8.1v0.1
		c0,2.9,0.5,5.6,1.5,8.1c1,2.5,2.5,4.7,4.3,6.6c1.8,1.9,4,3.3,6.5,4.4c2.5,1.1,5.3,1.6,8.2,1.6C22.5,540.8,24.3,540.6,25.9,540.3
		L25.9,540.3z M55.1,532.6c-1-0.5-1.8-1.1-2.6-1.9c-0.7-0.8-1.3-1.7-1.7-2.7c-0.4-1-0.6-2.1-0.6-3.2v-0.1c0-1.1,0.2-2.2,0.5-3.2
		c0.4-1,0.9-1.9,1.6-2.7c0.7-0.8,1.5-1.4,2.5-1.8c1-0.4,2.1-0.7,3.4-0.7c1.2,0,2.3,0.2,3.3,0.7c1,0.5,1.9,1.1,2.6,1.9
		c0.7,0.8,1.3,1.7,1.7,2.7c0.4,1,0.6,2.1,0.6,3.2v0.1c0,1.1-0.2,2.2-0.5,3.2c-0.4,1-0.9,1.9-1.6,2.7c-0.7,0.8-1.5,1.4-2.5,1.8
		c-1,0.4-2.1,0.7-3.4,0.7C57.2,533.3,56.1,533.1,55.1,532.6L55.1,532.6z M64.9,539.5c2-0.8,3.8-2,5.3-3.4c1.5-1.5,2.7-3.1,3.5-5.1
		c0.8-1.9,1.3-4,1.3-6.2v-0.1c0-2.2-0.4-4.3-1.3-6.2c-0.8-1.9-2-3.6-3.5-5c-1.5-1.4-3.2-2.6-5.2-3.4c-2-0.8-4.2-1.2-6.6-1.2
		c-2.4,0-4.6,0.4-6.7,1.3c-2,0.8-3.8,2-5.3,3.4c-1.5,1.5-2.7,3.1-3.5,5.1c-0.8,1.9-1.3,4-1.3,6.2v0.1c0,2.2,0.4,4.3,1.3,6.2
		c0.8,1.9,2,3.6,3.5,5c1.5,1.4,3.2,2.6,5.2,3.4c2,0.8,4.2,1.2,6.6,1.2C60.7,540.8,62.9,540.4,64.9,539.5L64.9,539.5z M81.3,540.1H90
		V523c0-2.1,0.5-3.6,1.5-4.7c1-1,2.3-1.6,4-1.6c1.7,0,3,0.5,3.9,1.6c0.9,1,1.4,2.6,1.4,4.7v17.1h8.7v-19.9c0-3.6-0.9-6.3-2.7-8.4
		c-1.8-2-4.4-3-7.7-3c-1.1,0-2.1,0.1-3,0.4c-0.9,0.3-1.7,0.6-2.4,1.1c-0.7,0.5-1.4,1-2,1.6c-0.6,0.6-1.1,1.2-1.6,1.9v-4.4h-8.7
		V540.1L81.3,540.1z M118.5,540.1h8.7v-23.3h6.9v-7.1h-7.1v-1.2c0-2.2,1.1-3.3,3.2-3.3c0.8,0,1.5,0.1,2.1,0.2
		c0.6,0.1,1.2,0.3,1.9,0.5v-7.2c-0.8-0.3-1.7-0.5-2.7-0.6c-1-0.2-2.1-0.2-3.5-0.2c-3.1,0-5.4,0.8-7.1,2.4c-1.6,1.6-2.5,4.1-2.5,7.5
		v2h-3.6v7.2h3.6V540.1L118.5,540.1z M150.8,532.6c-1-0.5-1.8-1.1-2.6-1.9c-0.7-0.8-1.3-1.7-1.7-2.7c-0.4-1-0.6-2.1-0.6-3.2v-0.1
		c0-1.1,0.2-2.2,0.5-3.2c0.4-1,0.9-1.9,1.6-2.7c0.7-0.8,1.5-1.4,2.5-1.8c1-0.4,2.1-0.7,3.4-0.7c1.2,0,2.3,0.2,3.3,0.7
		c1,0.5,1.9,1.1,2.6,1.9c0.7,0.8,1.3,1.7,1.7,2.7c0.4,1,0.6,2.1,0.6,3.2v0.1c0,1.1-0.2,2.2-0.5,3.2c-0.4,1-0.9,1.9-1.6,2.7
		c-0.7,0.8-1.5,1.4-2.5,1.8c-1,0.4-2.1,0.7-3.4,0.7C152.9,533.3,151.8,533.1,150.8,532.6L150.8,532.6z M160.6,539.5
		c2-0.8,3.8-2,5.3-3.4c1.5-1.5,2.7-3.1,3.5-5.1c0.8-1.9,1.3-4,1.3-6.2v-0.1c0-2.2-0.4-4.3-1.3-6.2c-0.8-1.9-2-3.6-3.5-5
		c-1.5-1.4-3.2-2.6-5.2-3.4c-2-0.8-4.2-1.2-6.6-1.2c-2.4,0-4.6,0.4-6.7,1.3c-2,0.8-3.8,2-5.3,3.4s-2.7,3.1-3.5,5.1
		c-0.8,1.9-1.3,4-1.3,6.2v0.1c0,2.2,0.4,4.3,1.3,6.2c0.8,1.9,2,3.6,3.5,5c1.5,1.4,3.2,2.6,5.2,3.4c2,0.8,4.2,1.2,6.6,1.2
		C156.4,540.8,158.6,540.4,160.6,539.5L160.6,539.5z M177,540.1h8.7v-11.4c0-3.7,0.8-6.4,2.5-8.2c1.7-1.8,3.9-2.6,6.9-2.6h0.5v-9.1
		c-2.6-0.1-4.7,0.5-6.2,1.7c-1.5,1.3-2.7,2.9-3.6,5v-6.2H177V540.1L177,540.1z M201,540.1h8.7V523c0-2.1,0.5-3.6,1.4-4.7
		c0.9-1,2.2-1.6,3.9-1.6c1.6,0,2.9,0.5,3.8,1.6c0.9,1,1.3,2.6,1.3,4.7v17.1h8.7V523c0-2.1,0.5-3.6,1.4-4.7c0.9-1,2.2-1.6,3.9-1.6
		c1.6,0,2.9,0.5,3.8,1.6c0.9,1,1.3,2.6,1.3,4.7v17.1h8.7v-20c0-3.7-0.9-6.5-2.8-8.4c-1.8-1.9-4.4-2.9-7.6-2.9c-2.1,0-4,0.4-5.6,1.2
		c-1.6,0.8-3.1,2.1-4.5,3.7c-0.8-1.6-1.9-2.8-3.4-3.6c-1.5-0.8-3.2-1.3-5.2-1.3c-1.1,0-2.1,0.1-3,0.4c-0.9,0.3-1.7,0.6-2.4,1.1
		c-0.7,0.5-1.4,1-2,1.6c-0.6,0.6-1.1,1.2-1.6,1.9v-4.4H201V540.1L201,540.1z M263.4,533.7c-0.9-0.7-1.3-1.6-1.3-2.8v-0.1
		c0-1.4,0.5-2.4,1.6-3.2c1.1-0.7,2.5-1.1,4.4-1.1c1.1,0,2.1,0.1,3,0.3c0.9,0.2,1.8,0.5,2.6,0.8v1.5c0,1.6-0.6,2.9-1.9,3.9
		c-1.2,1-2.9,1.5-5,1.5C265.4,534.7,264.2,534.3,263.4,533.7L263.4,533.7z M269.6,539.6c1.5-0.7,2.8-1.7,3.8-2.8v3.3h8.4v-17.8
		c0-2.1-0.3-3.9-0.8-5.6c-0.5-1.7-1.4-3.1-2.5-4.2c-1.1-1.1-2.5-2-4.2-2.6c-1.7-0.6-3.8-0.9-6.2-0.9c-2.6,0-4.8,0.2-6.7,0.7
		c-1.8,0.5-3.6,1.1-5.3,1.8l2.2,6.7c1.4-0.5,2.8-0.9,4-1.2c1.3-0.3,2.8-0.4,4.4-0.4c2.2,0,3.8,0.5,4.9,1.4c1.1,1,1.7,2.4,1.7,4.2
		v0.5c-1.1-0.4-2.2-0.7-3.4-0.9c-1.2-0.2-2.5-0.3-4.1-0.3c-1.8,0-3.5,0.2-5,0.6c-1.5,0.4-2.8,1-3.9,1.8c-1.1,0.8-1.9,1.8-2.6,3
		c-0.6,1.2-0.9,2.7-0.9,4.4v0.1c0,1.5,0.3,2.9,0.8,4s1.3,2.1,2.3,3c1,0.8,2.1,1.4,3.4,1.8c1.3,0.4,2.6,0.6,4.1,0.6
		C266.3,540.7,268.1,540.3,269.6,539.6L269.6,539.6z M289.4,540.1h8.7V523c0-2.1,0.5-3.6,1.5-4.7c1-1,2.3-1.6,4-1.6
		c1.7,0,3,0.5,3.9,1.6c0.9,1,1.4,2.6,1.4,4.7v17.1h8.7v-19.9c0-3.6-0.9-6.3-2.7-8.4c-1.8-2-4.4-3-7.7-3c-1.1,0-2.1,0.1-3,0.4
		c-0.9,0.3-1.7,0.6-2.4,1.1c-0.7,0.5-1.4,1-2,1.6c-0.6,0.6-1.1,1.2-1.6,1.9v-4.4h-8.7V540.1L289.4,540.1z M347.1,539.2
		c1.9-1.1,3.6-2.4,5.1-4l-5.1-5.2c-1.1,1-2.2,1.8-3.2,2.4c-1.1,0.6-2.4,0.9-3.8,0.9c-1.2,0-2.3-0.2-3.2-0.7c-1-0.4-1.8-1-2.5-1.8
		c-0.7-0.8-1.2-1.7-1.6-2.7c-0.4-1-0.5-2.1-0.5-3.3v-0.1c0-1.1,0.2-2.2,0.5-3.2c0.4-1,0.9-1.9,1.5-2.7c0.7-0.8,1.5-1.4,2.4-1.8
		c0.9-0.4,1.9-0.7,3-0.7c1.6,0,2.9,0.3,3.9,0.9c1.1,0.6,2.1,1.4,3.1,2.5l5.3-5.7c-1.5-1.6-3.1-2.9-5-3.8c-1.9-0.9-4.3-1.4-7.2-1.4
		c-2.4,0-4.5,0.4-6.5,1.3c-2,0.8-3.7,2-5.1,3.4c-1.4,1.5-2.5,3.2-3.3,5.1c-0.8,2-1.2,4-1.2,6.2v0.1c0,2.2,0.4,4.2,1.2,6.2
		c0.8,1.9,1.9,3.6,3.3,5c1.4,1.4,3.1,2.6,5.1,3.4c2,0.8,4.1,1.3,6.4,1.3C342.7,540.8,345.2,540.3,347.1,539.2L347.1,539.2z
		 M364.9,522.3c0.3-2,1.1-3.6,2.2-4.8c1.1-1.2,2.6-1.8,4.4-1.8c1.8,0,3.3,0.6,4.4,1.8c1.1,1.2,1.8,2.8,2.1,4.7H364.9L364.9,522.3z
		 M379.7,539.3c2.1-1,3.8-2.4,5.3-4.2l-5-4.4c-1.2,1.1-2.4,1.9-3.6,2.4c-1.1,0.5-2.4,0.7-3.9,0.7c-2,0-3.6-0.5-4.9-1.5
		c-1.3-1-2.2-2.5-2.6-4.5h21.4c0-0.4,0.1-0.8,0.1-1.2c0-0.4,0-0.7,0-1.1c0-2.2-0.3-4.3-0.9-6.3c-0.6-2-1.5-3.8-2.8-5.3
		c-1.2-1.5-2.8-2.8-4.7-3.7c-1.9-0.9-4.1-1.4-6.7-1.4c-2.3,0-4.3,0.4-6.2,1.3c-1.9,0.8-3.5,2-4.8,3.4c-1.3,1.5-2.4,3.2-3.1,5.1
		c-0.7,2-1.1,4-1.1,6.2v0.1c0,2.4,0.4,4.5,1.2,6.5c0.8,1.9,1.9,3.6,3.4,5c1.4,1.4,3.1,2.5,5.1,3.3c2,0.8,4.1,1.1,6.4,1.1
		C375.2,540.8,377.7,540.3,379.7,539.3L379.7,539.3z"/>
	<path d="M412.8,416.8c18.8,0,30.4-11.7,30.4-27.6v-0.2c0-15.7-11.2-21.7-22.7-23.7l21.3-20.4v-14h-57.1v15.9H418l-20.1,20.3
		l2.9,11.8h7.7c10.4,0,16.5,3.9,16.5,10.7v0.2c0,6.3-4.9,10.3-11.9,10.3c-8.6,0-14.6-3.6-20.4-10.1l-12.8,12.2
		C387.1,410.8,397.6,416.8,412.8,416.8L412.8,416.8z"/>
	<path d="M0,459.3h22v-51.4h63.6v-20H22v-34.8h71.8v-20H0V459.3L0,459.3z M140.3,439.3v-86.2h24.9c6.6,0,12.6,1.1,18,3.3
		c5.4,2.2,10,5.2,13.8,9c3.8,3.8,6.7,8.4,8.8,13.7c2.1,5.3,3.2,11,3.2,17.2v0.4c0,6.2-1.1,11.9-3.2,17.1c-2.1,5.3-5,9.8-8.8,13.6
		c-3.8,3.8-8.4,6.8-13.8,8.9c-5.4,2.1-11.4,3.2-18,3.2H140.3L140.3,439.3z M118.3,459.3h47.1c9.9,0,18.9-1.6,27.1-4.9
		c8.2-3.2,15.3-7.7,21.3-13.3c6-5.6,10.5-12.3,13.8-20c3.2-7.7,4.9-16,4.9-24.9v-0.4c0-8.9-1.6-17.2-4.9-24.8
		c-3.2-7.6-7.8-14.3-13.8-19.9c-5.9-5.6-13-10.1-21.3-13.3c-8.2-3.2-17.3-4.8-27.1-4.8h-47.1V459.3L118.3,459.3z M334.2,459.9
		c4.9-1,9.3-2.5,13.4-4.5c4.1-2,7.9-4.3,11.4-7c3.5-2.7,6.9-5.8,10.2-9.3L355,424.7c-5.4,5-10.9,9-16.4,12
		c-5.5,2.9-12.1,4.4-19.8,4.4c-6,0-11.6-1.2-16.7-3.5c-5.1-2.3-9.5-5.6-13.3-9.6c-3.7-4.1-6.6-8.9-8.7-14.3
		c-2-5.5-3.1-11.3-3.1-17.4v-0.4c0-6.1,1-11.9,3.1-17.3c2-5.4,4.9-10.1,8.7-14.2c3.7-4,8.1-7.2,13.3-9.6c5.1-2.3,10.7-3.5,16.7-3.5
		c7.2,0,13.6,1.4,19.3,4.3c5.6,2.9,11,6.7,16,11.4l14.2-16.4c-3-2.9-6.2-5.5-9.6-7.9c-3.4-2.4-7-4.5-11-6.2c-4-1.7-8.3-3.1-13.1-4.1
		c-4.7-1-10-1.4-15.8-1.4c-9.6,0-18.4,1.7-26.3,5.1c-7.9,3.4-14.8,8.1-20.6,14.1c-5.8,5.9-10.3,12.9-13.5,20.7
		c-3.2,7.9-4.8,16.3-4.8,25.3v0.4c0,9,1.6,17.5,4.9,25.4c3.3,7.9,7.8,14.8,13.5,20.6c5.7,5.8,12.5,10.4,20.3,13.8
		c7.8,3.4,16.3,5,25.6,5C323.9,461.4,329.3,460.9,334.2,459.9L334.2,459.9z"/>
	<path class="st1" d="M202.7,333.1"/>
	<path class="st2" d="M249.7,212.1V75.6l-110.1,63.5c0.1,0.6,0.3,1.1,0.3,1.7c0,6.8-4.6,12.4-10.8,14.3v126.6L249.7,212.1
		L249.7,212.1z"/>
	<path class="st0" d="M136.7,131.7l108.5-62.7v-0.3L124.9,0L4.5,68.7v0.3l108.5,62.7c2.8-3.6,6.9-6.1,11.8-6.1
		C129.8,125.7,133.9,128.1,136.7,131.7L136.7,131.7z"/>
	<path d="M110,139.2L0,75.6v136.5l120.5,69.6V155.1c-6.2-1.9-10.8-7.4-10.8-14.3C109.7,140.2,110,139.7,110,139.2L110,139.2z"/>
</g>
</svg>
