<?xml version="1.0" encoding="utf-8"?>
<!-- Generator: Adobe Illustrator 24.1.0, SVG Export Plug-In . SVG Version: 6.00 Build 0)  -->
<svg version="1.1" id="Layer_1" xmlns="http://www.w3.org/2000/svg" xmlns:xlink="http://www.w3.org/1999/xlink" x="0px" y="0px"
	 viewBox="0 0 517.2 538.4" style="enable-background:new 0 0 517.2 538.4;" xml:space="preserve">
<style type="text/css">
	.st0{fill:#DFE1DF;}
	.st1{fill:#0054A6;}
	.st2{fill:#5D93CD;}
</style>
<g>
	<path d="M481.7,486.3c22,0,35.5-13.6,35.5-32.2v-0.3c0-18.3-13.1-25.3-26.5-27.6l24.9-23.8v-16.3h-66.6v18.6h38.7l-23.5,23.7
		l3.4,13.8h9c12.1,0,19.3,4.5,19.3,12.5v0.3c0,7.3-5.8,12-13.9,12c-10,0-17-4.2-23.8-11.8l-14.9,14.2
		C451.8,479.3,464,486.3,481.7,486.3L481.7,486.3z"/>
	<path d="M0,535.9h25.7v-60h74.3v-23.3H25.7V412h83.7v-23.3H0V535.9L0,535.9z M163.7,512.6V412h29c7.7,0,14.7,1.3,21,3.8
		c6.3,2.5,11.7,6,16.1,10.5s7.9,9.8,10.3,16c2.5,6.2,3.7,12.9,3.7,20.1v0.4c0,7.2-1.2,13.8-3.7,20c-2.5,6.1-5.9,11.4-10.3,15.8
		c-4.4,4.4-9.8,7.9-16.1,10.3c-6.3,2.5-13.3,3.7-21,3.7L163.7,512.6L163.7,512.6z M138,535.9h54.9c11.5,0,22.1-1.9,31.7-5.7
		s17.9-9,24.8-15.6c6.9-6.6,12.3-14.4,16.1-23.3s5.7-18.7,5.7-29v-0.4c0-10.4-1.9-20-5.7-28.9c-3.8-8.9-9.1-16.7-16.1-23.2
		c-6.9-6.6-15.2-11.8-24.8-15.5s-20.2-5.6-31.7-5.6H138L138,535.9L138,535.9z M389.9,536.7c5.7-1.2,10.9-3,15.7-5.3
		c4.8-2.3,9.2-5,13.4-8.2c4.1-3.2,8.1-6.8,11.9-10.8l-16.6-16.8c-6.3,5.9-12.7,10.5-19.1,14c-6.5,3.4-14.2,5.2-23.1,5.2
		c-7,0-13.5-1.4-19.5-4.1s-11.1-6.5-15.5-11.2c-4.4-4.8-7.7-10.3-10.1-16.7c-2.4-6.4-3.6-13.2-3.6-20.3v-0.4
		c0-7.2,1.2-13.9,3.6-20.2c2.4-6.3,5.8-11.8,10.1-16.5c4.3-4.7,9.5-8.4,15.5-11.2c6-2.7,12.5-4.1,19.5-4.1c8.4,0,15.9,1.7,22.5,5
		s12.8,7.8,18.7,13.2l16.6-19.1c-3.5-3.4-7.2-6.5-11.1-9.3c-3.9-2.8-8.2-5.2-12.8-7.3c-4.6-2-9.7-3.6-15.2-4.7s-11.7-1.7-18.4-1.7
		c-11.2,0-21.5,2-30.7,6s-17.3,9.5-24,16.4s-12,15-15.8,24.2c-3.8,9.2-5.6,19-5.6,29.6v0.4c0,10.5,1.9,20.4,5.7,29.7
		c3.8,9.3,9.1,17.3,15.8,24.1c6.7,6.8,14.6,12.2,23.7,16.1c9.1,3.9,19.1,5.9,29.9,5.9C378,538.5,384.3,537.8,389.9,536.7
		L389.9,536.7z"/>
	<path class="st0" d="M236.5,328.7"/>
	<path class="st1" d="M291.4,247.5V88.2L163,162.4c0.1,0.7,0.4,1.3,0.4,2c0,8-5.4,14.5-12.6,16.7v147.7L291.4,247.5L291.4,247.5z"/>
	<path class="st2" d="M159.5,153.7l126.6-73.1v-0.4L145.7,0L5.3,80.2v0.4l126.6,73.1c3.2-4.2,8.1-7.1,13.8-7.1
		C151.4,146.7,156.3,149.5,159.5,153.7L159.5,153.7z"/>
	<path d="M128.4,162.4L0,88.2v159.2l140.7,81.2V181c-7.3-2.2-12.6-8.7-12.6-16.7C128,163.6,128.3,163.1,128.4,162.4L128.4,162.4z"/>
</g>
</svg>
