<?xml version="1.0" encoding="UTF-8"?>
<svg id="Layer_1" xmlns="http://www.w3.org/2000/svg" version="1.1" viewBox="0 0 720 207.348">
  <!-- Generator: Adobe Illustrator 29.5.1, SVG Export Plug-In . SVG Version: 2.1.0 Build 141)  -->
  <defs>
    <style>
      .st0 {
        fill: #007dff;
      }

      .st1 {
        fill: #00ce00;
      }

      .st2 {
        fill: #233158;
      }
    </style>
  </defs>
  <path class="st1" d="M154.359,207.348v-52.989h-85.243v52.989h85.243ZM0,52.9889h52.9889V0H0v52.9889h0Z"/>
  <path class="st2" d="M207.348,207.348v-52.989h-52.989v52.989h52.989ZM52.9889,52.9889h85.2431V0H52.9889v52.9889h0Z"/>
  <path class="st0" d="M207.349,154.359v-85.243h-52.99v85.243h52.99ZM0,138.232h52.989V52.9889H0v85.2431h0Z"/>
  <path class="st2" d="M267.752,53.2934v100.7616h20.444v-41.181h29.061v-17.231h-29.061v-25.118h32.711v-17.2316h-53.155ZM355.223,53.2934h-20.444v100.7616h20.444V53.2934h0ZM420.498,53.2934v55.9296l-28.6219-55.9296h-16.94v100.7616h20.444v-55.054l28.476,55.054h17.086V53.2934h-20.444ZM453.937,111.852h31.543v-16.355h-31.543v16.355h0ZM562.2899,110.83v-14.311c0-31.105-13.143-44.5398-33.295-44.5398s-33.2949,13.4348-33.2949,44.5398v14.311c0,31.104,13.1419,44.539,33.2949,44.539s33.295-13.4349,33.295-44.539h0ZM516.144,110.83v-14.311c0-20.153,4.089-27.308,12.851-27.308s12.85,7.155,12.85,27.308v14.311c0,20.152-4.088,27.308-12.85,27.308s-12.851-7.156-12.851-27.308h0ZM639.539,84.544c-2.7751-22.0506-14.311-32.5648-30.813-32.5648-19.7141,0-33.295,13.4348-33.295,44.5398v14.311c0,30.812,13.581,44.539,33.295,44.539,17.5239,0,27.8919-9.93,30.813-32.565h-19.422c-1.3141,10.223-4.0891,15.334-11.391,15.334-9.0531,0-12.8501-8.616-12.8501-27.308v-14.311c0-19.276,3.797-27.308,12.8501-27.308,7.3019,0,10.3689,5.841,11.391,15.333h19.422ZM720,154.055l-17.086-43.079c8.616-4.381,14.019-13.289,14.019-26.87,0-20.4443-12.704-30.8126-32.127-30.8126h-31.5421v100.7616h20.444v-39.574h10.076l14.7491,39.574h21.4669ZM673.708,97.249v-26.578h8.762c8.6161,0,14.019,2.921,14.019,13.435s-5.403,13.143-14.019,13.143h-8.762Z"/>
</svg>
