<?xml version="1.0" encoding="utf-8"?>
<!-- Generator: Adobe Illustrator 24.1.0, SVG Export Plug-In . SVG Version: 6.00 Build 0)  -->
<svg version="1.1" id="Layer_1" xmlns="http://www.w3.org/2000/svg" xmlns:xlink="http://www.w3.org/1999/xlink" x="0px" y="0px"
	 viewBox="0 0 536.69 540.62" style="enable-background:new 0 0 536.69 540.62;" xml:space="preserve">
<style type="text/css">
	.st0{fill:#F78E20;}
	.st1{fill:#265EAC;}
</style>
<g>
	<path class="st0" d="M26.62,528.44c-2.68-1.22-4.97-2.85-6.89-4.9c-1.91-2.04-3.4-4.46-4.47-7.24c-1.06-2.78-1.6-5.73-1.6-8.84
		v-0.18c0-3.11,0.53-6.05,1.6-8.79c1.07-2.75,2.54-5.14,4.42-7.19c1.88-2.05,4.15-3.66,6.8-4.86c2.65-1.19,5.55-1.79,8.71-1.79
		c3.16,0,6.08,0.61,8.76,1.83c2.67,1.22,4.97,2.85,6.89,4.9c1.91,2.05,3.4,4.46,4.47,7.24c1.07,2.78,1.6,5.72,1.6,8.84v0.18
		c0,3.11-0.53,6.05-1.6,8.79c-1.06,2.75-2.54,5.15-4.42,7.19c-1.89,2.05-4.15,3.66-6.79,4.86c-2.65,1.19-5.55,1.79-8.71,1.79
		C32.21,530.27,29.29,529.66,26.62,528.44L26.62,528.44z M48.75,537.97c4.09-1.77,7.63-4.17,10.63-7.19
		c2.99-3.02,5.31-6.53,6.96-10.53c1.65-4,2.47-8.26,2.47-12.78v-0.18c0-4.52-0.82-8.78-2.47-12.78c-1.65-4-3.94-7.49-6.87-10.49
		c-2.93-2.99-6.44-5.36-10.53-7.1c-4.09-1.74-8.61-2.61-13.56-2.61c-4.95,0-9.47,0.89-13.56,2.66c-4.09,1.77-7.63,4.17-10.63,7.19
		c-2.99,3.02-5.31,6.54-6.96,10.53c-1.65,4-2.47,8.26-2.47,12.78v0.18c0,4.52,0.82,8.78,2.47,12.78c1.65,4,3.94,7.5,6.87,10.49
		c2.93,2.99,6.44,5.36,10.53,7.1c4.09,1.74,8.61,2.61,13.56,2.61C40.14,540.62,44.66,539.74,48.75,537.97L48.75,537.97z
		 M94.91,529.54v-17.59h17.81c4.44,0,7.75,0.75,9.91,2.24c2.16,1.5,3.24,3.62,3.24,6.37v0.18c0,2.93-1.1,5.13-3.29,6.6
		c-2.19,1.47-5.21,2.2-9.04,2.2H94.91L94.91,529.54z M94.91,502.43v-17.04h16.16c3.65,0,6.43,0.72,8.35,2.15
		c1.92,1.44,2.88,3.43,2.88,6v0.18c0,2.93-1.1,5.11-3.29,6.55c-2.19,1.44-5.11,2.15-8.76,2.15H94.91L94.91,502.43z M83.74,539.52
		h29.63c3.54,0,6.77-0.38,9.69-1.15c2.93-0.76,5.43-1.88,7.5-3.34c2.07-1.46,3.67-3.3,4.8-5.5c1.13-2.2,1.69-4.73,1.69-7.6v-0.18
		c0-2.2-0.3-4.12-0.91-5.77c-0.61-1.65-1.47-3.08-2.59-4.31c-1.12-1.22-2.46-2.27-4.01-3.16c-1.55-0.88-3.26-1.66-5.14-2.34
		c1.15-0.61,2.29-1.34,3.41-2.2c1.12-0.86,2.09-1.85,2.91-2.98c0.82-1.13,1.48-2.44,2-3.94c0.51-1.5,0.77-3.22,0.77-5.18v-0.18
		c0-4.21-1.43-7.75-4.3-10.62c-3.78-3.79-9.36-5.68-16.73-5.68H83.74V539.52L83.74,539.52z M174.15,539.02
		c2.62-0.95,4.88-2.37,6.78-4.26c1.89-1.89,3.36-4.24,4.4-7.05c1.04-2.81,1.56-6.14,1.56-9.98V475.4h-11.54v42.04
		c0,4.28-0.93,7.43-2.79,9.48c-1.86,2.05-4.32,3.07-7.37,3.07c-2.75,0-5.11-0.66-7.1-1.97c-1.98-1.31-3.92-3.16-5.82-5.54l-7.42,7.6
		c2.14,2.93,4.86,5.39,8.15,7.37c3.3,1.98,7.42,2.98,12.37,2.98C168.59,540.44,171.52,539.97,174.15,539.02L174.15,539.02z
		 M203.64,539.52h47.91v-10.17h-36.73v-17.13h32.15v-10.17h-32.15v-16.49h36.27V475.4h-47.45V539.52L203.64,539.52z M304.35,539.84
		c2.47-0.52,4.75-1.28,6.82-2.29c2.08-1.01,4.01-2.2,5.82-3.57c1.8-1.37,3.53-2.95,5.17-4.72l-7.24-7.33
		c-2.75,2.57-5.53,4.6-8.34,6.09c-2.81,1.5-6.17,2.24-10.08,2.24c-3.05,0-5.88-0.59-8.47-1.79c-2.6-1.19-4.84-2.82-6.73-4.9
		c-1.89-2.08-3.36-4.5-4.4-7.28c-1.04-2.78-1.56-5.73-1.56-8.84v-0.18c0-3.11,0.52-6.05,1.56-8.79c1.04-2.75,2.5-5.14,4.4-7.19
		c1.89-2.05,4.14-3.66,6.73-4.86c2.6-1.19,5.42-1.79,8.47-1.79c3.66,0,6.93,0.73,9.8,2.2c2.87,1.46,5.59,3.39,8.15,5.77l7.24-8.34
		c-1.53-1.47-3.15-2.81-4.86-4.03c-1.71-1.22-3.57-2.27-5.59-3.16c-2.01-0.88-4.23-1.57-6.64-2.06c-2.41-0.49-5.08-0.73-8.01-0.73
		c-4.89,0-9.34,0.87-13.37,2.61c-4.03,1.74-7.52,4.12-10.47,7.14c-2.95,3.02-5.24,6.53-6.87,10.53c-1.63,4-2.45,8.29-2.45,12.87
		v0.18c0,4.58,0.83,8.89,2.49,12.92c1.66,4.03,3.95,7.53,6.87,10.49c2.92,2.96,6.36,5.3,10.33,7.01c3.97,1.71,8.3,2.57,13.01,2.57
		C299.15,540.62,301.88,540.36,304.35,539.84L304.35,539.84z M350.93,539.52h11.36v-53.68h20.34V475.4h-52.03v10.44h20.34V539.52
		L350.93,539.52z M427.59,539.16c2.8-0.85,5.2-2.11,7.2-3.76c2-1.65,3.56-3.66,4.68-6.04c1.12-2.38,1.68-5.07,1.68-8.06v-0.18
		c0-2.62-0.45-4.93-1.33-6.92c-0.89-1.98-2.19-3.72-3.9-5.22c-1.71-1.5-3.87-2.76-6.47-3.8c-2.6-1.04-5.59-1.98-8.95-2.84
		c-3.06-0.73-5.59-1.43-7.58-2.11c-1.99-0.67-3.55-1.39-4.68-2.15c-1.13-0.76-1.91-1.62-2.34-2.56c-0.43-0.95-0.64-2.03-0.64-3.25
		v-0.18c0-2.14,0.92-3.94,2.75-5.41c1.83-1.46,4.4-2.2,7.69-2.2c2.93,0,5.83,0.56,8.7,1.69c2.87,1.13,5.77,2.76,8.7,4.9l6.05-8.52
		c-3.3-2.62-6.82-4.63-10.58-6c-3.76-1.37-7.98-2.06-12.69-2.06c-3.18,0-6.1,0.46-8.78,1.37c-2.68,0.91-4.98,2.18-6.88,3.8
		c-1.91,1.62-3.41,3.57-4.5,5.86c-1.09,2.29-1.63,4.81-1.63,7.56v0.18c0,2.93,0.47,5.43,1.42,7.51c0.95,2.08,2.33,3.83,4.13,5.27
		c1.81,1.43,4.04,2.66,6.7,3.66c2.66,1.01,5.71,1.91,9.14,2.7c3,0.67,5.43,1.34,7.3,2.02c1.87,0.67,3.34,1.41,4.41,2.2
		c1.07,0.8,1.81,1.64,2.2,2.52c0.4,0.89,0.6,1.91,0.6,3.07v0.18c0,2.44-1.02,4.4-3.07,5.86c-2.05,1.46-4.81,2.2-8.29,2.2
		c-4.03,0-7.63-0.72-10.81-2.15c-3.18-1.43-6.32-3.49-9.43-6.18l-6.78,8.06c3.85,3.48,8.03,6.06,12.55,7.74
		c4.52,1.68,9.25,2.52,14.2,2.52C421.7,540.44,424.79,540.01,427.59,539.16L427.59,539.16z"/>
	<path class="st1" d="M2.03,447.92H19.8v-22.9h30.32v-14.84H19.8v-10.81h33.52V383.8H2.03V447.92L2.03,447.92z M63.04,447.92H80.9
		V383.8H63.04V447.92L63.04,447.92z M93.91,447.92h17.49v-35.17l27.45,35.17h15.6V383.8h-17.49v33.89l-26.44-33.89H93.91V447.92
		L93.91,447.92z M190.45,422.73l7.24-18.23l7.14,18.23H190.45L190.45,422.73z M161.96,447.92h18.69l4.58-11.45h24.73l4.67,11.45
		h19.05l-27.3-64.58h-17.13L161.96,447.92L161.96,447.92z M241.2,447.92h17.5v-35.17l27.45,35.17h15.61V383.8h-17.5v33.89
		l-26.44-33.89H241.2V447.92L241.2,447.92z M354.82,448.11c2.84-0.73,5.4-1.74,7.69-3.02c2.29-1.28,4.34-2.81,6.14-4.58
		c1.8-1.77,3.46-3.69,4.99-5.77l-13.37-9.53c-0.98,1.16-1.97,2.21-2.98,3.16c-1.01,0.95-2.08,1.77-3.21,2.47
		c-1.13,0.7-2.38,1.24-3.75,1.6c-1.37,0.37-2.89,0.55-4.54,0.55c-2.26,0-4.32-0.44-6.18-1.33c-1.86-0.88-3.47-2.09-4.81-3.62
		c-1.34-1.52-2.4-3.34-3.16-5.45c-0.76-2.11-1.15-4.35-1.15-6.73v-0.18c0-2.32,0.38-4.52,1.15-6.6c0.76-2.07,1.82-3.88,3.16-5.4
		c1.34-1.53,2.95-2.73,4.81-3.62c1.86-0.88,3.92-1.33,6.18-1.33c3.11,0,5.77,0.67,7.97,2.02c2.2,1.34,4.21,3.17,6.04,5.5
		l13.37-10.35c-1.41-1.95-3.01-3.76-4.81-5.4c-1.8-1.65-3.82-3.07-6.05-4.26c-2.23-1.19-4.69-2.11-7.37-2.75
		c-2.69-0.64-5.68-0.96-8.98-0.96c-4.89,0-9.39,0.86-13.51,2.57c-4.12,1.71-7.68,4.08-10.67,7.1c-2.99,3.02-5.34,6.57-7.05,10.63
		c-1.71,4.06-2.57,8.41-2.57,13.05v0.18c0,4.76,0.87,9.17,2.61,13.24c1.74,4.06,4.09,7.57,7.05,10.53
		c2.96,2.96,6.46,5.27,10.49,6.92c4.03,1.65,8.34,2.47,12.92,2.47C348.79,449.21,351.98,448.84,354.82,448.11L354.82,448.11z
		 M382.9,447.92h17.86V383.8H382.9V447.92L382.9,447.92z M437.12,422.73l7.24-18.23l7.14,18.23H437.12L437.12,422.73z
		 M408.64,447.92h18.69l4.58-11.45h24.73l4.67,11.45h19.05l-27.3-64.58h-17.13L408.64,447.92L408.64,447.92z M487.87,447.92h48.82
		v-15.57h-31.05V383.8h-17.77V447.92L487.87,447.92z"/>
	<path class="st0" d="M319.41,139.79c-3.67,0.71-7.34,0.62-10.79-0.32c-4.3,8.98-12.18,18.5-22.88,27.97
		c-9.41-10.12-20.83-20.3-34.03-30.16c4.75-15.78,7.87-30.75,9.41-44.49c14.24,1.24,26.23,4.21,35.03,8.87
		c2.2-2.81,5.11-5.06,8.48-6.68c-10.48-6.59-25.14-10.7-42.67-12.33c0.98-17.57-0.92-32.67-5.88-44.01c-2.1,3.09-4.75,5.63-7.86,7.4
		c3.31,9.39,4.46,21.69,3.58,35.96c-13.74-0.5-29.07,0.57-45.28,2.9c-7.82-14.58-16.23-27.42-24.88-38.26
		c10.94-9.19,21.52-15.59,31.03-18.51c-0.43-3.54,0.03-7.19,1.28-10.72c-12.07,2.75-25.34,10.22-38.88,21.45
		c-11.74-13.12-23.76-22.46-35.29-26.96c0.71,3.67,0.62,7.34-0.32,10.79c8.98,4.3,18.5,12.18,27.97,22.88
		c-10.12,9.41-20.3,20.83-30.16,34.03c-15.78-4.74-30.75-7.87-44.49-9.41c1.25-14.23,4.21-26.23,8.87-35.03
		c-2.81-2.2-5.06-5.11-6.68-8.48c-6.59,10.48-10.7,25.14-12.33,42.67c-17.57-0.98-32.67,0.91-44.01,5.88c3.1,2.1,5.63,4.75,7.4,7.85
		c9.39-3.31,21.69-4.46,35.96-3.58c-0.5,13.83,0.37,29.11,2.74,45.43c-14.47,7.79-27.32,16.13-38.1,24.73
		c-9.19-10.94-15.59-21.52-18.51-31.03c-3.54,0.43-7.19-0.03-10.72-1.27c2.75,12.07,10.22,25.33,21.46,38.88
		c-13.12,11.74-22.46,23.76-26.97,35.29c3.67-0.71,7.35-0.62,10.79,0.32c4.3-8.98,12.18-18.5,22.88-27.97
		c9.41,10.12,20.83,20.3,34.03,30.16c-4.75,15.78-7.87,30.75-9.42,44.49c-14.23-1.25-26.23-4.21-35.03-8.87
		c-2.2,2.81-5.11,5.06-8.48,6.68c10.48,6.59,25.14,10.7,42.67,12.33c-0.98,17.57,0.91,32.68,5.88,44.01c2.1-3.1,4.76-5.63,7.86-7.4
		c-3.31-9.39-4.46-21.7-3.58-35.96c13.74,0.5,29.07-0.57,45.28-2.9c7.83,14.58,16.23,27.42,24.88,38.26
		c-10.94,9.19-21.52,15.59-31.03,18.51c0.42,3.54-0.03,7.19-1.27,10.72c12.07-2.75,25.33-10.22,38.87-21.45
		c11.74,13.12,23.76,22.46,35.29,26.97c-0.71-3.67-0.62-7.34,0.32-10.79c-8.98-4.3-18.5-12.18-27.97-22.88
		c10.12-9.41,20.3-20.83,30.16-34.03c15.78,4.75,30.75,7.87,44.49,9.42c-1.24,14.23-4.21,26.23-8.87,35.03
		c2.81,2.2,5.06,5.11,6.68,8.48c6.59-10.48,10.7-25.14,12.33-42.67c17.57,0.98,32.68-0.91,44.01-5.88c-3.1-2.1-5.63-4.75-7.4-7.86
		c-9.39,3.31-21.69,4.46-35.96,3.58c0.5-13.82-0.37-29.1-2.74-45.43c14.47-7.79,27.32-16.13,38.1-24.73
		c9.19,10.94,15.59,21.52,18.51,31.03c3.54-0.43,7.19,0.03,10.72,1.27c-2.75-12.07-10.22-25.33-21.45-38.88
		C305.57,163.35,314.91,151.32,319.41,139.79L319.41,139.79z M200.43,242.82c4.63-6.65,9.16-13.69,13.56-21.05
		c7.96-3.27,15.56-6.74,22.83-10.34c1.86,14.11,2.61,27.4,2.26,39.43C227.13,249.4,214.12,246.74,200.43,242.82L200.43,242.82z
		 M96.1,130.67c4.17-2.13,8.38-4.24,12.79-6.26c-1.77,3.28-3.54,6.58-5.25,9.98c-1.71,3.4-3.32,6.78-4.9,10.16
		C97.75,139.87,96.86,135.23,96.1,130.67L96.1,130.67z M96.34,176.65c1.07,3.57,2.16,7.15,3.35,10.75c1.19,3.61,2.44,7.14,3.7,10.64
		c-4.02-2.63-7.95-5.29-11.73-7.99C93.1,185.63,94.67,181.16,96.34,176.65L96.34,176.65z M112.76,138.99
		c3.72-7.38,7.65-14.46,11.69-21.31c7.32-2.95,14.88-5.72,22.66-8.28c7.77-2.56,15.5-4.83,23.13-6.82
		c7.33,3.11,14.7,6.46,22.08,10.18c7.38,3.72,14.46,7.65,21.32,11.69c2.94,7.32,5.72,14.88,8.28,22.65s4.83,15.5,6.82,23.14
		c-3.11,7.33-6.46,14.7-10.18,22.08c-3.72,7.38-7.65,14.46-11.69,21.32c-7.32,2.95-14.88,5.72-22.65,8.28
		c-7.77,2.56-15.5,4.83-23.14,6.82c-7.33-3.11-14.7-6.46-22.08-10.18c-7.38-3.72-14.46-7.65-21.31-11.69
		c-2.95-7.32-5.72-14.88-8.28-22.65c-2.56-7.77-4.83-15.5-6.82-23.13C105.69,153.74,109.04,146.37,112.76,138.99L112.76,138.99z
		 M227.67,196.91c1.71-3.4,3.32-6.78,4.9-10.16c0.99,4.69,1.87,9.32,2.63,13.88c-4.17,2.13-8.38,4.24-12.79,6.26
		C224.2,203.61,225.96,200.31,227.67,196.91L227.67,196.91z M227.91,133.26c4.02,2.63,7.95,5.29,11.73,7.99
		c-1.43,4.42-3,8.9-4.67,13.4c-1.07-3.57-2.17-7.15-3.35-10.76C230.42,140.3,229.17,136.77,227.91,133.26L227.91,133.26z
		 M190.05,239.64c-4.42-1.43-8.9-3.01-13.4-4.68c3.57-1.07,7.15-2.16,10.76-3.35c3.61-1.19,7.13-2.44,10.64-3.7
		C195.41,231.93,192.75,235.86,190.05,239.64L190.05,239.64z M135.65,244.74c8-1.43,16.16-3.11,24.52-5.22
		c7.92,3.3,15.75,6.26,23.43,8.86c-8.67,11.3-17.54,21.18-26.29,29.45C149.86,268.34,142.55,257.2,135.65,244.74L135.65,244.74z
		 M124.41,222.42c3.28,1.77,6.58,3.54,9.98,5.25c3.4,1.71,6.78,3.32,10.16,4.9c-4.74,1-9.38,1.8-14,2.57
		C128.45,231.03,126.41,226.78,124.41,222.42L124.41,222.42z M80.46,239.08c1.44-11.95,4.11-24.96,8.03-38.65
		c6.65,4.63,13.69,9.16,21.05,13.56c3.25,7.9,6.67,15.49,10.25,22.71C105.76,238.56,92.44,239.43,80.46,239.08L80.46,239.08z
		 M91.79,160.17c-3.3,7.92-6.26,15.75-8.86,23.42c-11.29-8.67-21.18-17.54-29.44-26.29c9.42-7.4,20.65-14.62,33.03-21.49
		C87.95,143.75,89.7,151.88,91.79,160.17L91.79,160.17z M130.87,88.49c-4.63,6.65-9.16,13.69-13.56,21.05
		c-7.96,3.27-15.56,6.74-22.82,10.34c-1.86-14.11-2.61-27.4-2.26-39.43C104.18,81.9,117.19,84.57,130.87,88.49L130.87,88.49z
		 M141.26,91.67c4.42,1.43,8.89,3.01,13.4,4.68c-3.57,1.07-7.15,2.16-10.75,3.35c-3.61,1.19-7.14,2.44-10.64,3.7
		C135.89,99.38,138.56,95.45,141.26,91.67L141.26,91.67z M195.66,86.57c-8,1.43-16.16,3.11-24.52,5.22
		c-7.92-3.3-15.75-6.26-23.42-8.86c8.67-11.3,17.54-21.18,26.29-29.45C181.45,62.97,188.76,74.11,195.66,86.57L195.66,86.57z
		 M206.9,108.89c-3.28-1.77-6.59-3.54-9.98-5.25c-3.4-1.71-6.78-3.32-10.15-4.9c4.74-1,9.38-1.8,14-2.57
		C202.86,100.28,204.9,104.53,206.9,108.89L206.9,108.89z M250.85,92.22c-1.44,11.95-4.11,24.96-8.03,38.65
		c-6.65-4.63-13.69-9.16-21.05-13.56c-3.25-7.9-6.67-15.49-10.25-22.71C225.55,92.75,238.87,91.88,250.85,92.22L250.85,92.22z
		 M277.81,174.01c-9.42,7.4-20.65,14.62-33.03,21.49c-1.43-7.94-3.18-16.07-5.27-24.35c3.3-7.92,6.26-15.75,8.86-23.43
		C259.66,156.38,269.55,165.26,277.81,174.01L277.81,174.01z"/>
	<path class="st1" d="M187.99,192.73c2.73-1.9,4.89-4.06,6.48-6.49c1.59-2.42,2.58-5.05,2.97-7.89c0.39-2.83,0.07-5.82-0.97-8.96
		l-0.06-0.17c-0.94-2.85-2.27-5.13-4-6.85c-1.73-1.72-3.82-2.98-6.28-3.78c-2.46-0.8-5.27-1.24-8.43-1.33
		c-3.16-0.09-6.61,0.07-10.35,0.47c-2.25,0.23-4.13,0.35-5.64,0.36c-1.51,0.02-2.73-0.07-3.66-0.24c-0.93-0.18-1.64-0.47-2.13-0.89
		c-0.49-0.42-0.85-0.97-1.08-1.67l-0.06-0.17c-0.36-1.1-0.16-2.2,0.61-3.29c0.77-1.09,2.17-1.97,4.21-2.65
		c2.74-0.9,5.74-1.33,9.02-1.28c3.28,0.05,6.64,0.6,10.09,1.66l4.51-14.79c-4.21-1.6-8.59-2.41-13.15-2.43
		c-4.56-0.02-9.46,0.83-14.7,2.56c-3.67,1.21-6.8,2.77-9.39,4.69c-2.59,1.92-4.64,4.09-6.13,6.52c-1.49,2.42-2.38,5.01-2.68,7.74
		c-0.29,2.74,0.03,5.53,0.97,8.38l0.06,0.17c1.04,3.14,2.5,5.57,4.39,7.3c1.89,1.73,4.11,2.96,6.64,3.7
		c2.54,0.74,5.35,1.1,8.44,1.08c3.09-0.02,6.39-0.19,9.9-0.51c2.25-0.23,4.1-0.34,5.55-0.33c1.45,0,2.65,0.11,3.59,0.31
		c0.94,0.21,1.64,0.51,2.09,0.9c0.45,0.4,0.79,0.92,1,1.56l0.06,0.17c0.44,1.34,0.18,2.57-0.77,3.69c-0.95,1.12-2.57,2.05-4.84,2.8
		c-7.1,2.34-14.52,2.08-22.24-0.8l-5.71,14.4c4.9,2.15,10.1,3.26,15.58,3.34c5.48,0.08,10.96-0.79,16.43-2.59
		C182.03,196.19,185.26,194.63,187.99,192.73L187.99,192.73z"/>
	<path class="st1" d="M159.43,129.12l-2.92-8.86l-12.57,4.15l3.07,9.31c2.07-1.22,4.31-2.33,6.92-3.19
		C155.82,129.9,157.62,129.52,159.43,129.12L159.43,129.12z"/>
	<path class="st1" d="M170.14,203.89l2.59,7.84l12.57-4.15l-2.34-7.09c-1.05,0.44-2.07,0.91-3.22,1.29
		C176.55,202.84,173.34,203.48,170.14,203.89L170.14,203.89z"/>
	<path class="st1" d="M330.47,111.31c-2.86-8.68-12.22-13.39-20.89-10.53c-8.68,2.86-13.39,12.22-10.53,20.9
		c2.86,8.68,12.22,13.39,20.9,10.53C328.62,129.34,333.33,119.98,330.47,111.31L330.47,111.31z"/>
	<path class="st1" d="M251.09,32.9c4.11-8.16,0.83-18.11-7.33-22.22c-8.16-4.11-18.11-0.83-22.22,7.33
		c-4.11,8.16-0.83,18.11,7.33,22.22C237.03,44.34,246.98,41.06,251.09,32.9L251.09,32.9z"/>
	<path class="st1" d="M132.2,11.37c-2.86-8.68-12.22-13.39-20.89-10.53c-8.68,2.86-13.39,12.22-10.53,20.9
		c2.86,8.68,12.22,13.39,20.9,10.53C130.35,29.4,135.06,20.05,132.2,11.37L132.2,11.37z"/>
	<path class="st1" d="M32.9,80.21c-8.16-4.11-18.11-0.83-22.22,7.33c-4.11,8.16-0.83,18.11,7.33,22.22
		c8.16,4.11,18.11,0.83,22.22-7.33C44.34,94.28,41.06,84.33,32.9,80.21L32.9,80.21z"/>
	<path class="st1" d="M11.37,199.11C2.69,201.97-2.02,211.32,0.84,220c2.86,8.68,12.22,13.39,20.9,10.53
		c8.68-2.86,13.39-12.22,10.53-20.89C29.4,200.96,20.05,196.25,11.37,199.11L11.37,199.11z"/>
	<path class="st1" d="M80.21,298.4c-4.11,8.16-0.83,18.11,7.33,22.22c8.16,4.11,18.11,0.83,22.22-7.33
		c4.11-8.16,0.83-18.11-7.33-22.22C94.28,286.96,84.33,290.24,80.21,298.4L80.21,298.4z"/>
	<path class="st1" d="M199.11,319.94c2.86,8.68,12.22,13.39,20.89,10.53c8.68-2.86,13.39-12.22,10.53-20.89
		c-2.86-8.68-12.22-13.39-20.89-10.53C200.96,301.91,196.25,311.26,199.11,319.94L199.11,319.94z"/>
	<path class="st1" d="M298.4,251.09c8.16,4.11,18.11,0.83,22.22-7.33c4.11-8.16,0.83-18.11-7.33-22.22
		c-8.16-4.11-18.11-0.83-22.22,7.33C286.96,237.03,290.24,246.98,298.4,251.09L298.4,251.09z"/>
</g>
</svg>
