<?xml version="1.0" encoding="utf-8"?>
<!-- Generator: Adobe Illustrator 26.5.0, SVG Export Plug-In . SVG Version: 6.00 Build 0)  -->
<svg version="1.1" id="Layer_1" xmlns="http://www.w3.org/2000/svg" xmlns:xlink="http://www.w3.org/1999/xlink" x="0px" y="0px"
	 viewBox="0 0 422.1 540" style="enable-background:new 0 0 422.1 540;" xml:space="preserve">
<style type="text/css">
	.st0{fill:#00B5E3;}
	.st1{fill:#0076A5;}
	.st2{fill:url(#SVGID_1_);}
	.st3{fill:url(#SVGID_00000126281189983429554530000006501824216746416807_);}
	.st4{fill:url(#SVGID_00000094599743418532089190000014126985550030535557_);}
	.st5{fill:#0087BF;}
</style>
<path class="st0" d="M32.1,513.7v11.2c0,0.2-0.2,0.5-0.5,0.5H17c-0.4,0-0.5-0.2-0.5-0.5v-11.7H0.9v13.6c0,7.8,5.2,13.2,13.1,13.2
	h20.4c7.8,0,13.2-5.4,13.2-13.2v-11.7c0-5.4-2-9.6-5.5-13.1L17,477.1c-0.4-0.4-0.5-0.6-0.5-1.1v-8.6c0-0.4,0.1-0.5,0.5-0.5h14.6
	c0.2,0,0.5,0.1,0.5,0.5V479h15.6v-13.6c0-7.7-5.4-13.1-13.2-13.1H14c-7.8,0-13.1,5.4-13.1,13.1v9.2c0,5.4,1.9,9.6,5.5,13.1
	l25.2,24.9C31.8,513,32.1,513.2,32.1,513.7L32.1,513.7z M105.4,526.7v-13.4H89.9v11.7c0,0.2-0.2,0.5-0.5,0.5H74.8
	c-0.4,0-0.5-0.2-0.5-0.5v-57.5c0-0.4,0.1-0.5,0.5-0.5h14.6c0.2,0,0.5,0.1,0.5,0.5V479h15.6v-13.6c0-7.6-5.5-13.1-13.2-13.1H71.8
	c-7.6,0-13.1,5.5-13.1,13.1v61.3c0,7.7,5.5,13.2,13.1,13.2h20.4C99.9,539.9,105.4,534.4,105.4,526.7L105.4,526.7z M152.1,539.8h16.3
	l-18.7-87.2h-18.8l-18.7,87.2h16.3l2.4-11.8h18.9L152.1,539.8L152.1,539.8z M133.6,514.2L140,481l0.4-3.1l0.4,3.1l6.4,33.2H133.6
	L133.6,514.2z M222.1,539.8v-87.2h-15.3V499l-0.4-1.9L192,452.6h-16.6v87.2h15.3v-52.2l0.4,1.7l16.9,50.4H222.1L222.1,539.8z
	 M279.9,539.8v-87.2h-15.3V499l-0.4-1.9l-14.4-44.6h-16.6v87.2h15.3v-52.2l0.4,1.7l16.9,50.4H279.9L279.9,539.8z M306.5,539.8v-87.2
	h-15.6v87.2H306.5L306.5,539.8z M364.3,539.8v-87.2H349V499l-0.4-1.9l-14.4-44.6h-16.6v87.2h15.3v-52.2l0.4,1.7l16.9,50.4H364.3
	L364.3,539.8z M422.1,526.8v-35h-24.2v14.3h8.6v18.8c0,0.2-0.2,0.5-0.5,0.5h-14.6c-0.4,0-0.5-0.2-0.5-0.5v-57.5
	c0-0.4,0.1-0.5,0.5-0.5H406c0.2,0,0.5,0.1,0.5,0.5V479h15.6v-13.6c0-7.7-5.4-13.1-13.2-13.1h-20.4c-7.7,0-13.1,5.4-13.1,13.1v61.4
	c0,7.8,5.4,13.2,13.1,13.2h20.4C416.7,540,422.1,534.6,422.1,526.8L422.1,526.8z"/>
<path class="st0" d="M33.2,408.4V420c0,0.3-0.3,0.5-0.5,0.5H17.6c-0.4,0-0.5-0.3-0.5-0.5v-12.1H1V422c0,8.1,5.4,13.7,13.5,13.7h21.1
	c8.1,0,13.7-5.5,13.7-13.7v-12.1c0-5.5-2.1-9.9-5.7-13.5l-26-25.8c-0.4-0.4-0.5-0.6-0.5-1.2v-8.9c0-0.4,0.1-0.5,0.5-0.5h15.1
	c0.3,0,0.5,0.1,0.5,0.5v12h16.1v-14c0-8-5.5-13.5-13.7-13.5H14.5c-8.1,0-13.5,5.5-13.5,13.5v9.5c0,5.5,1.9,9.9,5.7,13.5l26,25.8
	C32.9,407.7,33.2,407.9,33.2,408.4L33.2,408.4z M102.7,435.4v-14.8H76.9v-25h19.3v-14.2H76.9V360h25.8v-14.8H60.8v90.2H102.7
	L102.7,435.4z M160,421.8v-13.9h-16.1V420c0,0.3-0.3,0.5-0.5,0.5h-15.1c-0.4,0-0.5-0.3-0.5-0.5v-59.6c0-0.4,0.1-0.5,0.5-0.5h15.1
	c0.3,0,0.5,0.1,0.5,0.5v12H160v-14c0-7.9-5.7-13.5-13.7-13.5h-21.1c-7.9,0-13.5,5.7-13.5,13.5v63.4c0,8,5.7,13.7,13.5,13.7h21.1
	C154.3,435.5,160,429.8,160,421.8L160,421.8z M219.8,422v-76.8h-16.1V420c0,0.3-0.3,0.5-0.5,0.5h-15.1c-0.4,0-0.5-0.3-0.5-0.5v-74.9
	h-16.1V422c0,8.1,5.4,13.7,13.5,13.7h21.1C214.3,435.6,219.8,430.1,219.8,422L219.8,422z M280.9,435.4l-10.8-35.7
	c5.9-1.5,9.5-6.4,9.5-13v-28c0-8-5.5-13.5-13.7-13.5h-34.7v90.2h16.1v-35.2h7.5l9.2,35.2H280.9L280.9,435.4z M247.4,360H263
	c0.3,0,0.5,0.1,0.5,0.5v24.4c0,0.4-0.3,0.5-0.5,0.5h-15.6V360L247.4,360z M307.2,435.4v-90.2h-16.1v90.2H307.2L307.2,435.4z
	 M363.8,360v-14.8h-48.3V360h16.1v75.4h16.1V360H363.8L363.8,360z M422.1,345.1h-17.4l-9.8,35.6l-0.3,1.4l-0.3-1.4l-9.7-35.6h-17.4
	l19.2,55.4v34.8h16.1v-34.8L422.1,345.1L422.1,345.1z"/>
<polygon class="st1" points="0.9,274.1 37.7,274.1 37.7,283.7 11.5,283.7 11.5,294 34.6,294 34.6,303.6 11.6,303.6 11.6,322.4 
	0.9,322.4 0.9,274.1 "/>
<polygon class="st1" points="47.2,274.1 57.8,274.1 57.8,322.4 47.2,322.4 47.2,274.1 "/>
<polygon class="st1" points="69.9,274.1 79.7,274.1 102.3,303.8 102.3,274.1 112.7,274.1 112.7,322.4 103.7,322.4 80.3,291.7 
	80.3,322.4 69.9,322.4 69.9,274.1 "/>
<path class="st1" d="M121.8,298.4v-0.1c0-13.7,10.8-25,25.7-25c14.9,0,25.6,11.1,25.6,24.8v0.1c0,13.7-10.8,25-25.7,25
	S121.8,312.1,121.8,298.4L121.8,298.4z M162,298.4v-0.1c0-8.3-6.1-15.2-14.6-15.2c-8.6,0-14.5,6.8-14.5,15v0.1
	c0,8.3,6.1,15.2,14.6,15.2C156.1,313.4,162,306.6,162,298.4L162,298.4L162,298.4z"/>
<path class="st1" d="M178.6,315.3l6.3-7.5c4.3,3.6,8.9,5.9,14.4,5.9c4.3,0,7-1.7,7-4.6V309c0-2.7-1.7-4.1-9.7-6.1
	c-9.7-2.5-16-5.2-16-14.8v-0.1c0-8.8,7-14.6,16.9-14.6c6.5-0.1,12.9,2.1,17.9,6.1l-5.5,8c-4.3-3-8.5-4.8-12.6-4.8
	c-4.1,0-6.2,1.9-6.2,4.2v0.1c0,3.2,2.1,4.2,10.4,6.3c9.8,2.5,15.3,6.1,15.3,14.5v0.1c0,9.6-7.3,15-17.7,15
	C191.5,323.1,184.2,320.3,178.6,315.3L178.6,315.3z"/>
<g>
	<linearGradient id="SVGID_1_" gradientUnits="userSpaceOnUse" x1="0" y1="110.9539" x2="102.6533" y2="110.9539">
		<stop  offset="0" style="stop-color:#0076A5"/>
		<stop  offset="1" style="stop-color:#00B5E3"/>
	</linearGradient>
	<path class="st2" d="M102.7,0l-4,2.7c-16.1,10.9-33.4,18-51.2,20.9c-12.6,2.1-25.9,2.1-38.5,0l-9-1.5l0.5,9.2
		c1.9,34.3,9,66.9,21,97c18.5,46.5,48,71.1,77.1,90.8l4,2.7v-35.4c0,0,0,0,0,0c-23.9-16.6-42.4-34.6-54.9-66
		c-8.4-21.1-13.6-43.9-15.7-67.8c9.2,0.9,18.7,0.6,27.7-1c14.9-2.5,29.3-8.1,42.9-16.7V0L102.7,0z"/>
	<g>
		
			<linearGradient id="SVGID_00000080202247050626725150000005116377343730518707_" gradientUnits="userSpaceOnUse" x1="102.6547" y1="40.1338" x2="205.308" y2="40.1338">
			<stop  offset="0" style="stop-color:#0076A5"/>
			<stop  offset="1" style="stop-color:#00B5E3"/>
		</linearGradient>
		<path style="fill:url(#SVGID_00000080202247050626725150000005116377343730518707_);" d="M196.3,23.7c-12.6,2.1-25.9,2.1-38.5,0
			c-17.8-2.9-35-10-51.2-20.9l-4-2.7v35.2c13.6,8.6,28,14.2,42.8,16.7c9,1.5,18.5,1.9,27.7,1c-0.8,9.3-2.1,18.5-3.8,27.4
			c6.6-3.2,17.7-7.3,30.3-6.9c2.6-13.7,4.3-27.8,5.2-42.1l0.5-9.2L196.3,23.7z"/>
		
			<linearGradient id="SVGID_00000131350405913050968430000000121952913307707579_" gradientUnits="userSpaceOnUse" x1="102.6547" y1="155.6697" x2="189.9082" y2="155.6697">
			<stop  offset="0" style="stop-color:#0076A5"/>
			<stop  offset="1" style="stop-color:#00B5E3"/>
		</linearGradient>
		<path style="fill:url(#SVGID_00000131350405913050968430000000121952913307707579_);" d="M183.1,89.4l-50.8,42.8l16.4,6.6
			c-11.8,20.6-27.3,34.6-46.1,47.7c0,0,0,0,0,0v35.4l4-2.7c24.5-16.5,49.1-36.6,67.4-70.1l15.8,6.4L183.1,89.4z"/>
	</g>
	<polygon class="st0" points="126.6,65.9 126.6,84.9 78.7,100.2 78.7,81.2 126.6,65.9 126.6,65.9 	"/>
	<polygon class="st0" points="78.7,112.2 78.7,145.9 97.3,145.9 97.3,125.3 126.6,115.9 126.6,96.9 78.7,112.2 	"/>
	<path class="st5" d="M126.6,96.8C126.6,96.8,126.6,96.8,126.6,96.8C126.6,96.7,126.6,96.7,126.6,96.8l-18.5-6l-29.4,9.4v0.1
		c0,0,0,0,0,0.1c0,0,0,0,0,0l18.4,5.9l29.4-9.4L126.6,96.8L126.6,96.8z"/>
</g>
</svg>
