<?xml version="1.0" encoding="utf-8"?>
<!-- Generator: Adobe Illustrator 28.0.0, SVG Export Plug-In . SVG Version: 6.00 Build 0)  -->
<svg version="1.1" id="Layer_1" xmlns="http://www.w3.org/2000/svg" xmlns:xlink="http://www.w3.org/1999/xlink" x="0px" y="0px"
	 viewBox="0 0 422.6 529" style="enable-background:new 0 0 422.6 529;" xml:space="preserve">
<style type="text/css">
	.st0{fill:url(#SVGID_1_);}
	.st1{fill:url(#SVGID_00000099638468714831376490000000909167271024323480_);}
	.st2{fill:url(#SVGID_00000167367508186579908630000009418842315392740538_);}
	.st3{fill:#00B5E3;}
	.st4{fill:#0087BF;}
	.st5{fill:#0076A5;}
</style>
<g>
	
		<linearGradient id="SVGID_1_" gradientUnits="userSpaceOnUse" x1="0" y1="431.1" x2="102.7" y2="431.1" gradientTransform="matrix(1 0 0 -1 3.814697e-06 542)">
		<stop  offset="0" style="stop-color:#0076A5"/>
		<stop  offset="1" style="stop-color:#00B5E3"/>
	</linearGradient>
	<path class="st0" d="M102.7,0l-4,2.7c-16.1,10.9-33.4,18-51.2,20.9c-12.6,2.1-25.9,2.1-38.5,0l-9-1.5l0.5,9.2
		c1.9,34.3,9,66.9,21,97c18.5,46.5,48,71.1,77.1,90.8l4,2.7v-35.4l0,0c-23.9-16.6-42.4-34.6-54.9-66C39.3,99.3,34.1,76.5,32,52.6
		c9.2,0.9,18.7,0.6,27.7-1c14.9-2.5,29.3-8.1,42.9-16.7V0H102.7z"/>
	<g>
		
			<linearGradient id="SVGID_00000005228696185473433550000017594923600893783743_" gradientUnits="userSpaceOnUse" x1="102.6" y1="501.75" x2="205.3" y2="501.75" gradientTransform="matrix(1 0 0 -1 3.814697e-06 542)">
			<stop  offset="0" style="stop-color:#0076A5"/>
			<stop  offset="1" style="stop-color:#00B5E3"/>
		</linearGradient>
		<path style="fill:url(#SVGID_00000005228696185473433550000017594923600893783743_);" d="M196.3,23.7c-12.6,2.1-25.9,2.1-38.5,0
			c-17.8-2.9-35-10-51.2-20.9l-4-2.7v35.2c13.6,8.6,28,14.2,42.8,16.7c9,1.5,18.5,1.9,27.7,1c-0.8,9.3-2.1,18.5-3.8,27.4
			c6.6-3.2,17.7-7.3,30.3-6.9c2.6-13.7,4.3-27.8,5.2-42.1l0.5-9.2L196.3,23.7z"/>
		
			<linearGradient id="SVGID_00000065783406620723992750000012288847749296856236_" gradientUnits="userSpaceOnUse" x1="102.6" y1="386.35" x2="189.8" y2="386.35" gradientTransform="matrix(1 0 0 -1 3.814697e-06 542)">
			<stop  offset="0" style="stop-color:#0076A5"/>
			<stop  offset="1" style="stop-color:#00B5E3"/>
		</linearGradient>
		<path style="fill:url(#SVGID_00000065783406620723992750000012288847749296856236_);" d="M183.1,89.4l-50.8,42.8l16.4,6.6
			c-11.8,20.6-27.3,34.6-46.1,47.7l0,0v35.4l4-2.7c24.5-16.5,49.1-36.6,67.4-70.1l15.8,6.4L183.1,89.4z"/>
	</g>
	<polygon class="st3" points="126.6,65.9 126.6,84.9 78.7,100.2 78.7,81.2 126.6,65.9 	"/>
	<polygon class="st3" points="78.7,112.2 78.7,145.9 97.3,145.9 97.3,125.3 126.6,115.9 126.6,96.9 	"/>
	<path class="st4" d="M126.6,96.8L126.6,96.8C126.6,96.7,126.6,96.7,126.6,96.8l-18.5-6l-29.4,9.4v0.1c0,0,0,0,0,0.1l0,0l18.4,5.9
		l29.4-9.4L126.6,96.8L126.6,96.8z"/>
</g>
<g>
	<path class="st3" d="M422.6,515.7v-35h-24.2V495h8.6v18.8c0,0.2-0.2,0.5-0.5,0.5h-14.6c-0.4,0-0.5-0.2-0.5-0.5v-57.6
		c0-0.4,0.1-0.5,0.5-0.5h14.6c0.2,0,0.5,0.1,0.5,0.5v11.6h15.6v-13.6c0-7.7-5.3-13.1-13.2-13.1h-20.4c-7.7,0-13.1,5.3-13.1,13.1
		v61.5c0,7.9,5.3,13.2,13.1,13.2h20.4C417.2,528.9,422.6,523.6,422.6,515.7 M364.7,528.7v-87.4h-15.3v46.5L349,486l-14.5-44.7h-16.6
		v87.4h15.4v-52.3l0.4,1.7l16.9,50.5H364.7L364.7,528.7z M306.8,441.3h-15.6v87.4h15.6V441.3z M280.1,528.7v-87.4h-15.3v46.5
		l-0.4-1.8l-14.5-44.7h-16.6v87.4h15.3v-52.3l0.4,1.7l16.9,50.5H280.1L280.1,528.7z M222.2,528.7v-87.4h-15.3v46.5l-0.4-1.8
		L192,441.3h-16.6v87.4h15.3v-52.3l0.4,1.7l16.9,50.5H222.2L222.2,528.7z M133.5,503l6.5-33.3l0.4-3.1l0.4,3.1l6.4,33.3L133.5,503
		L133.5,503z M152.1,528.7h16.3l-18.7-87.4h-18.8l-18.7,87.4h16.3l2.4-11.8h19L152.1,528.7z M105.4,515.6v-13.4H89.8v11.7
		c0,0.2-0.2,0.5-0.5,0.5H74.7c-0.4,0-0.5-0.2-0.5-0.5v-57.6c0-0.4,0.1-0.5,0.5-0.5h14.6c0.2,0,0.5,0.1,0.5,0.5v11.6h15.6v-13.6
		c0-7.6-5.4-13.1-13.2-13.1H71.6c-7.6,0-13.1,5.4-13.1,13.1v61.3c0,7.7,5.4,13.2,13.1,13.2H92C99.8,528.8,105.4,523.3,105.4,515.6
		 M31.9,502.6v11.2c0,0.2-0.2,0.5-0.5,0.5H16.8c-0.4,0-0.5-0.2-0.5-0.5v-11.7H0.7v13.6c0,7.9,5.2,13.2,13.1,13.2h20.4
		c7.9,0,13.2-5.3,13.2-13.2V504c0-5.3-2-9.7-5.4-13.1l-25.2-24.9c-0.4-0.4-0.5-0.6-0.5-1.1v-8.6c0-0.4,0.1-0.5,0.5-0.5h14.6
		c0.2,0,0.5,0.1,0.5,0.5v11.6h15.6v-13.6c0-7.7-5.3-13.1-13.2-13.1H13.8c-7.9,0-13.1,5.3-13.1,13.1v9.2c0,5.3,1.8,9.7,5.4,13.1
		l25.2,24.9C31.6,501.8,31.9,502.1,31.9,502.6"/>
	<path class="st3" d="M215,423.9v-14.4h-24.9v-24.2h18.7v-13.7h-18.7v-20.7H215v-14.4h-40.6v87.4H215z M147.2,409.5h-15.1v-58.6
		h15.1c0.2,0,0.5,0.1,0.5,0.5V409C147.6,409.3,147.4,409.5,147.2,409.5 M163.2,410.6v-61c0-7.7-5.3-13.1-13.2-13.1h-33.6v87.4h33.6
		C157.8,423.9,163.2,418.5,163.2,410.6 M89.8,351.4V409c0,0.2-0.2,0.5-0.5,0.5H74.7c-0.4,0-0.5-0.2-0.5-0.5v-57.6
		c0-0.4,0.1-0.5,0.5-0.5h14.6C89.5,350.9,89.8,351,89.8,351.4 M105.3,410.8v-61.5c0-7.7-5.3-13.1-13.2-13.1H71.6
		c-7.7,0-13.1,5.3-13.1,13.1v61.5c0,7.9,5.3,13.2,13.1,13.2H92C99.9,424.1,105.3,418.7,105.3,410.8 M47.5,410.7v-13.4H31.9V409
		c0,0.2-0.2,0.5-0.5,0.5H16.8c-0.4,0-0.5-0.2-0.5-0.5v-57.6c0-0.4,0.1-0.5,0.5-0.5h14.6c0.2,0,0.5,0.1,0.5,0.5V363h15.6v-13.7
		c0-7.6-5.4-13.1-13.2-13.1H13.8c-7.7,0.1-13.1,5.5-13.1,13.1v61.4c0,7.7,5.4,13.2,13.1,13.2h20.4C41.9,424,47.5,418.5,47.5,410.7"
		/>
	<polygon class="st5" points="0.7,275 0.7,315.3 9.5,315.3 9.5,299.7 28.7,299.7 28.7,291.6 9.5,291.6 9.5,283 31.4,283 31.4,275 	
		"/>
	<rect x="39.3" y="275" class="st5" width="8.8" height="40.3"/>
	<polygon class="st5" points="58.2,275 66.4,275 85.3,299.8 85.3,275 94,275 94,315.3 86.5,315.3 66.9,289.7 66.9,315.3 58.2,315.3 
			"/>
	<path class="st5" d="M135.2,295.2v-0.1c0-6.9-5.1-12.6-12.2-12.6c-7.2,0-12.1,5.6-12.1,12.5v0.1c0,6.9,5,12.6,12.2,12.6
		C130.2,307.8,135.2,302.1,135.2,295.2L135.2,295.2z M101.6,295.2v-0.1c0-11.5,9-20.8,21.5-20.8c12.4,0,21.4,9.2,21.4,20.7v0.1
		c0,11.5-9,20.8-21.5,20.8S101.6,306.7,101.6,295.2"/>
	<path class="st5" d="M148.9,309.4l5.2-6.3c3.6,3,7.4,4.9,12,4.9c3.6,0,5.9-1.4,5.9-3.8v-0.2c0-2.3-1.3-3.4-8.1-5.1
		c-8.1-2.1-13.3-4.3-13.3-12.3v-0.1c0-7.3,5.9-12.1,14.1-12.1c5.4-0.1,10.8,1.7,15,5.1l-4.6,6.7c-3.6-2.5-7.1-4-10.5-4
		s-5.1,1.5-5.1,3.5v0.1c0,2.7,1.7,3.5,8.7,5.3c8.2,2.2,12.7,5,12.7,12.1v0.1c0,8-6.1,12.5-14.8,12.5
		C159.7,315.9,153.6,313.6,148.9,309.4"/>
</g>
</svg>
