<?xml version="1.0" encoding="utf-8"?>
<!-- Generator: Adobe Illustrator 25.0.0, SVG Export Plug-In . SVG Version: 6.00 Build 0)  -->
<svg version="1.1" id="Layer_1" xmlns="http://www.w3.org/2000/svg" xmlns:xlink="http://www.w3.org/1999/xlink" x="0px" y="0px"
	 viewBox="0 0 360 360" style="enable-background:new 0 0 360 360;" xml:space="preserve">
<style type="text/css">
	.st0{fill:#F78E20;}
	.st1{fill:#265EAC;}
</style>
<g>
	<path class="st0" d="M-50.5,383.1c-2.4-1.1-4.5-2.6-6.2-4.4c-1.7-1.8-3-4-4-6.5c-1-2.5-1.4-5.1-1.4-7.9v-0.2c0-2.8,0.5-5.4,1.4-7.9
		c1-2.5,2.3-4.6,4-6.4c1.7-1.8,3.7-3.3,6.1-4.3c2.4-1.1,5-1.6,7.8-1.6c2.8,0,5.4,0.5,7.8,1.6c2.4,1.1,4.4,2.6,6.2,4.4
		c1.7,1.8,3,4,4,6.5c1,2.5,1.4,5.1,1.4,7.9v0.2c0,2.8-0.5,5.4-1.4,7.9c-1,2.5-2.3,4.6-4,6.4c-1.7,1.8-3.7,3.3-6.1,4.3
		c-2.4,1.1-5,1.6-7.8,1.6C-45.5,384.7-48.1,384.2-50.5,383.1L-50.5,383.1z M-30.7,391.6c3.7-1.6,6.8-3.7,9.5-6.4
		c2.7-2.7,4.8-5.8,6.2-9.4c1.5-3.6,2.2-7.4,2.2-11.4v-0.2c0-4-0.7-7.9-2.2-11.4c-1.5-3.6-3.5-6.7-6.2-9.4c-2.6-2.7-5.8-4.8-9.4-6.4
		c-3.7-1.6-7.7-2.3-12.1-2.3c-4.4,0-8.5,0.8-12.1,2.4c-3.7,1.6-6.8,3.7-9.5,6.4c-2.7,2.7-4.8,5.8-6.2,9.4c-1.5,3.6-2.2,7.4-2.2,11.4
		v0.2c0,4,0.7,7.9,2.2,11.4c1.5,3.6,3.5,6.7,6.2,9.4c2.6,2.7,5.8,4.8,9.4,6.4c3.7,1.6,7.7,2.3,12.1,2.3
		C-38.4,394-34.4,393.2-30.7,391.6L-30.7,391.6z M10.6,384v-15.7h15.9c4,0,6.9,0.7,8.9,2c1.9,1.3,2.9,3.2,2.9,5.7v0.2
		c0,2.6-1,4.6-2.9,5.9c-2,1.3-4.7,2-8.1,2H10.6L10.6,384z M10.6,359.8v-15.3h14.5c3.3,0,5.8,0.6,7.5,1.9c1.7,1.3,2.6,3.1,2.6,5.4
		v0.2c0,2.6-1,4.6-2.9,5.9c-2,1.3-4.6,1.9-7.8,1.9H10.6L10.6,359.8z M0.6,393h26.5c3.2,0,6.1-0.3,8.7-1c2.6-0.7,4.9-1.7,6.7-3
		c1.9-1.3,3.3-3,4.3-4.9c1-2,1.5-4.2,1.5-6.8v-0.2c0-2-0.3-3.7-0.8-5.2c-0.5-1.5-1.3-2.8-2.3-3.9c-1-1.1-2.2-2-3.6-2.8
		c-1.4-0.8-2.9-1.5-4.6-2.1c1-0.5,2-1.2,3.1-2c1-0.8,1.9-1.7,2.6-2.7c0.7-1,1.3-2.2,1.8-3.5c0.5-1.3,0.7-2.9,0.7-4.6v-0.2
		c0-3.8-1.3-6.9-3.8-9.5c-3.4-3.4-8.4-5.1-15-5.1H0.6V393L0.6,393z M81.6,392.5c2.3-0.8,4.4-2.1,6.1-3.8c1.7-1.7,3-3.8,3.9-6.3
		c0.9-2.5,1.4-5.5,1.4-8.9v-37.9H82.6v37.6c0,3.8-0.8,6.7-2.5,8.5c-1.7,1.8-3.9,2.7-6.6,2.7c-2.5,0-4.6-0.6-6.4-1.8
		c-1.8-1.2-3.5-2.8-5.2-5l-6.6,6.8c1.9,2.6,4.3,4.8,7.3,6.6c3,1.8,6.6,2.7,11.1,2.7C76.6,393.8,79.2,393.4,81.6,392.5L81.6,392.5z
		 M108,393h42.9v-9.1H118v-15.3h28.8v-9.1H118v-14.8h32.5v-9.1H108V393L108,393z M198.1,393.3c2.2-0.5,4.2-1.1,6.1-2.1
		c1.9-0.9,3.6-2,5.2-3.2c1.6-1.2,3.2-2.6,4.6-4.2l-6.5-6.6c-2.5,2.3-4.9,4.1-7.5,5.5c-2.5,1.3-5.5,2-9,2c-2.7,0-5.3-0.5-7.6-1.6
		c-2.3-1.1-4.3-2.5-6-4.4c-1.7-1.9-3-4-3.9-6.5c-0.9-2.5-1.4-5.1-1.4-7.9v-0.2c0-2.8,0.5-5.4,1.4-7.9c0.9-2.5,2.2-4.6,3.9-6.4
		c1.7-1.8,3.7-3.3,6-4.3c2.3-1.1,4.9-1.6,7.6-1.6c3.3,0,6.2,0.7,8.8,2c2.6,1.3,5,3,7.3,5.2l6.5-7.5c-1.4-1.3-2.8-2.5-4.3-3.6
		c-1.5-1.1-3.2-2-5-2.8c-1.8-0.8-3.8-1.4-5.9-1.8c-2.2-0.4-4.6-0.7-7.2-0.7c-4.4,0-8.4,0.8-12,2.3c-3.6,1.6-6.7,3.7-9.4,6.4
		c-2.6,2.7-4.7,5.8-6.2,9.4c-1.5,3.6-2.2,7.4-2.2,11.5v0.2c0,4.1,0.7,8,2.2,11.6c1.5,3.6,3.5,6.7,6.2,9.4c2.6,2.7,5.7,4.7,9.2,6.3
		c3.6,1.5,7.4,2.3,11.6,2.3C193.5,394,195.9,393.7,198.1,393.3L198.1,393.3z M239.8,393H250v-48.1h18.2v-9.3h-46.6v9.3h18.2V393
		L239.8,393z M308.4,392.7c2.5-0.8,4.7-1.9,6.4-3.4c1.8-1.5,3.2-3.3,4.2-5.4c1-2.1,1.5-4.5,1.5-7.2v-0.2c0-2.3-0.4-4.4-1.2-6.2
		c-0.8-1.8-2-3.3-3.5-4.7c-1.5-1.3-3.5-2.5-5.8-3.4c-2.3-0.9-5-1.8-8-2.5c-2.7-0.7-5-1.3-6.8-1.9c-1.8-0.6-3.2-1.2-4.2-1.9
		c-1-0.7-1.7-1.4-2.1-2.3c-0.4-0.8-0.6-1.8-0.6-2.9v-0.2c0-1.9,0.8-3.5,2.5-4.8c1.6-1.3,3.9-2,6.9-2c2.6,0,5.2,0.5,7.8,1.5
		c2.6,1,5.2,2.5,7.8,4.4l5.4-7.6c-3-2.4-6.1-4.1-9.5-5.4c-3.4-1.2-7.1-1.8-11.4-1.8c-2.8,0-5.5,0.4-7.9,1.2c-2.4,0.8-4.5,2-6.2,3.4
		c-1.7,1.4-3,3.2-4,5.2c-1,2.1-1.5,4.3-1.5,6.8v0.2c0,2.6,0.4,4.9,1.3,6.7c0.8,1.9,2.1,3.4,3.7,4.7c1.6,1.3,3.6,2.4,6,3.3
		c2.4,0.9,5.1,1.7,8.2,2.4c2.7,0.6,4.9,1.2,6.5,1.8c1.7,0.6,3,1.3,3.9,2c1,0.7,1.6,1.5,2,2.3c0.4,0.8,0.5,1.7,0.5,2.7v0.2
		c0,2.2-0.9,3.9-2.7,5.2c-1.8,1.3-4.3,2-7.4,2c-3.6,0-6.8-0.6-9.7-1.9c-2.8-1.3-5.7-3.1-8.4-5.5l-6.1,7.2c3.4,3.1,7.2,5.4,11.2,6.9
		c4,1.5,8.3,2.3,12.7,2.3C303.2,393.8,305.9,393.4,308.4,392.7L308.4,392.7z"/>
	<path class="st1" d="M-72.5,311h15.9v-20.5h27.1v-13.3h-27.1v-9.7h30v-13.9h-45.9V311L-72.5,311z M-17.9,311h16v-57.4h-16V311
		L-17.9,311z M9.7,311h15.7v-31.5L50,311h14v-57.4H48.3v30.3l-23.7-30.3H9.7V311L9.7,311z M96.1,288.4l6.5-16.3l6.4,16.3H96.1
		L96.1,288.4z M70.6,311h16.7l4.1-10.2h22.1l4.2,10.2h17.1l-24.4-57.8H95.1L70.6,311L70.6,311z M141.6,311h15.7v-31.5l24.6,31.5h14
		v-57.4h-15.7v30.3l-23.7-30.3h-14.9V311L141.6,311z M243.3,311.1c2.5-0.7,4.8-1.6,6.9-2.7c2-1.1,3.9-2.5,5.5-4.1
		c1.6-1.6,3.1-3.3,4.5-5.2l-12-8.5c-0.9,1-1.8,2-2.7,2.8c-0.9,0.8-1.9,1.6-2.9,2.2c-1,0.6-2.1,1.1-3.4,1.4c-1.2,0.3-2.6,0.5-4.1,0.5
		c-2,0-3.9-0.4-5.5-1.2c-1.7-0.8-3.1-1.9-4.3-3.2c-1.2-1.4-2.1-3-2.8-4.9c-0.7-1.9-1-3.9-1-6v-0.2c0-2.1,0.3-4,1-5.9
		c0.7-1.9,1.6-3.5,2.8-4.8c1.2-1.4,2.6-2.4,4.3-3.2c1.7-0.8,3.5-1.2,5.5-1.2c2.8,0,5.2,0.6,7.1,1.8c2,1.2,3.8,2.8,5.4,4.9l12-9.3
		c-1.3-1.7-2.7-3.4-4.3-4.8c-1.6-1.5-3.4-2.7-5.4-3.8c-2-1.1-4.2-1.9-6.6-2.5c-2.4-0.6-5.1-0.9-8-0.9c-4.4,0-8.4,0.8-12.1,2.3
		c-3.7,1.5-6.9,3.6-9.6,6.4c-2.7,2.7-4.8,5.9-6.3,9.5c-1.5,3.6-2.3,7.5-2.3,11.7v0.2c0,4.3,0.8,8.2,2.3,11.8
		c1.6,3.6,3.7,6.8,6.3,9.4c2.7,2.7,5.8,4.7,9.4,6.2c3.6,1.5,7.5,2.2,11.6,2.2C237.9,312.1,240.8,311.8,243.3,311.1L243.3,311.1z
		 M268.4,311h16v-57.4h-16V311L268.4,311z M317,288.4l6.5-16.3l6.4,16.3H317L317,288.4z M291.5,311h16.7l4.1-10.2h22.1l4.2,10.2
		h17.1l-24.4-57.8h-15.3L291.5,311L291.5,311z M362.4,311h43.7V297h-27.8v-43.5h-15.9V311L362.4,311z"/>
	<path class="st1" d="M-59.5,444.6c1-0.2,1.9-0.5,2.7-0.9c0.8-0.4,1.6-0.9,2.3-1.4c0.7-0.6,1.4-1.2,2.1-1.9l-2.9-3
		c-1.1,1-2.2,1.9-3.4,2.5c-1.1,0.6-2.5,0.9-4.1,0.9c-1.2,0-2.4-0.2-3.4-0.7c-1-0.5-1.9-1.1-2.7-2c-0.8-0.8-1.4-1.8-1.8-2.9
		c-0.4-1.1-0.6-2.3-0.6-3.6v-0.1c0-1.3,0.2-2.4,0.6-3.5c0.4-1.1,1-2.1,1.8-2.9c0.8-0.8,1.7-1.5,2.7-2c1-0.5,2.2-0.7,3.4-0.7
		c1.5,0,2.8,0.3,3.9,0.9c1.2,0.6,2.3,1.4,3.3,2.3l2.9-3.4c-0.6-0.6-1.3-1.1-2-1.6c-0.7-0.5-1.4-0.9-2.3-1.3
		c-0.8-0.4-1.7-0.6-2.7-0.8c-1-0.2-2-0.3-3.2-0.3c-2,0-3.8,0.4-5.4,1.1c-1.6,0.7-3,1.7-4.2,2.9c-1.2,1.2-2.1,2.6-2.8,4.2
		c-0.7,1.6-1,3.3-1,5.2v0.1c0,1.8,0.3,3.6,1,5.2c0.7,1.6,1.6,3,2.8,4.2c1.2,1.2,2.6,2.1,4.2,2.8c1.6,0.7,3.3,1,5.2,1
		C-61.6,445-60.5,444.9-59.5,444.6L-59.5,444.6z M-41.2,440.6c-0.7-0.3-1.3-0.8-1.9-1.4c-0.5-0.6-0.9-1.2-1.2-2
		c-0.3-0.8-0.4-1.6-0.4-2.4v-0.1c0-0.8,0.1-1.6,0.4-2.4c0.3-0.8,0.7-1.4,1.2-2c0.5-0.6,1.1-1,1.9-1.3c0.7-0.3,1.5-0.5,2.4-0.5
		c0.9,0,1.7,0.2,2.4,0.5c0.7,0.3,1.3,0.8,1.9,1.3c0.5,0.6,0.9,1.2,1.2,2c0.3,0.8,0.4,1.6,0.4,2.4v0.1c0,0.8-0.1,1.6-0.4,2.4
		c-0.3,0.8-0.7,1.4-1.2,2c-0.5,0.6-1.1,1-1.9,1.3c-0.7,0.3-1.5,0.5-2.4,0.5C-39.7,441.1-40.4,440.9-41.2,440.6L-41.2,440.6z
		 M-34.7,444.1c1.3-0.5,2.4-1.3,3.3-2.2c0.9-0.9,1.6-2,2.2-3.2c0.5-1.2,0.8-2.5,0.8-3.9v-0.1c0-1.4-0.3-2.7-0.8-3.9
		c-0.5-1.2-1.2-2.3-2.2-3.2c-0.9-0.9-2-1.6-3.3-2.2c-1.3-0.5-2.7-0.8-4.2-0.8c-1.5,0-2.9,0.3-4.2,0.8c-1.3,0.5-2.4,1.3-3.3,2.2
		c-0.9,0.9-1.6,2-2.2,3.2c-0.5,1.2-0.8,2.5-0.8,3.9v0.1c0,1.4,0.3,2.7,0.8,3.9c0.5,1.2,1.2,2.3,2.2,3.2c0.9,0.9,2,1.6,3.3,2.2
		c1.3,0.5,2.6,0.8,4.1,0.8C-37.4,445-36,444.7-34.7,444.1L-34.7,444.1z M-23.9,444.5h4.5v-10.9c0-1.5,0.4-2.7,1.1-3.6
		c0.8-0.9,1.8-1.3,3-1.3c1.2,0,2.2,0.4,2.9,1.2c0.7,0.8,1,2,1,3.5v11.1h4.5v-11c0-1.6,0.4-2.8,1.2-3.6c0.8-0.8,1.8-1.2,3-1.2
		c1.2,0,2.2,0.4,2.9,1.2c0.7,0.8,1,2,1,3.5v11h4.5v-12.4c0-2.4-0.6-4.2-1.8-5.5c-1.2-1.3-2.9-1.9-5-1.9c-1.5,0-2.8,0.3-3.8,0.9
		c-1.1,0.6-2,1.5-2.8,2.5c-0.5-1-1.3-1.9-2.2-2.5c-1-0.6-2.2-0.9-3.5-0.9c-0.7,0-1.4,0.1-2,0.3c-0.6,0.2-1.1,0.4-1.6,0.8
		c-0.5,0.3-0.9,0.7-1.3,1.1c-0.4,0.4-0.7,0.8-1,1.3v-3h-4.5V444.5L-23.9,444.5z M11.2,444.5h4.5v-10.9c0-1.5,0.4-2.7,1.1-3.6
		c0.8-0.9,1.8-1.3,3-1.3c1.2,0,2.2,0.4,2.9,1.2c0.7,0.8,1,2,1,3.5v11.1h4.5v-11c0-1.6,0.4-2.8,1.2-3.6c0.8-0.8,1.8-1.2,3-1.2
		c1.2,0,2.2,0.4,2.9,1.2c0.7,0.8,1,2,1,3.5v11h4.5v-12.4c0-2.4-0.6-4.2-1.8-5.5c-1.2-1.3-2.9-1.9-5-1.9c-1.5,0-2.8,0.3-3.8,0.9
		c-1.1,0.6-2,1.5-2.8,2.5c-0.5-1-1.3-1.9-2.2-2.5c-1-0.6-2.2-0.9-3.6-0.9c-0.7,0-1.4,0.1-2,0.3c-0.6,0.2-1.1,0.4-1.6,0.8
		c-0.5,0.3-0.9,0.7-1.3,1.1c-0.4,0.4-0.7,0.8-1,1.3v-3h-4.5V444.5L11.2,444.5z M53.2,440.6c-0.7-0.3-1.3-0.8-1.9-1.4
		c-0.5-0.6-0.9-1.2-1.2-2c-0.3-0.8-0.4-1.6-0.4-2.4v-0.1c0-0.8,0.1-1.6,0.4-2.4c0.3-0.8,0.7-1.4,1.2-2c0.5-0.6,1.1-1,1.9-1.3
		c0.7-0.3,1.5-0.5,2.4-0.5c0.9,0,1.7,0.2,2.4,0.5c0.7,0.3,1.3,0.8,1.9,1.3c0.5,0.6,0.9,1.2,1.2,2c0.3,0.8,0.4,1.6,0.4,2.4v0.1
		c0,0.8-0.1,1.6-0.4,2.4c-0.3,0.8-0.7,1.4-1.2,2c-0.5,0.6-1.1,1-1.9,1.3c-0.7,0.3-1.5,0.5-2.4,0.5C54.7,441.1,53.9,440.9,53.2,440.6
		L53.2,440.6z M59.6,444.1c1.3-0.5,2.4-1.3,3.3-2.2c0.9-0.9,1.6-2,2.2-3.2c0.5-1.2,0.8-2.5,0.8-3.9v-0.1c0-1.4-0.3-2.7-0.8-3.9
		c-0.5-1.2-1.2-2.3-2.2-3.2c-0.9-0.9-2-1.6-3.3-2.2c-1.3-0.5-2.7-0.8-4.2-0.8c-1.5,0-2.9,0.3-4.2,0.8c-1.3,0.5-2.4,1.3-3.3,2.2
		c-0.9,0.9-1.6,2-2.2,3.2c-0.5,1.2-0.8,2.5-0.8,3.9v0.1c0,1.4,0.3,2.7,0.8,3.9c0.5,1.2,1.2,2.3,2.2,3.2c0.9,0.9,2,1.6,3.3,2.2
		c1.3,0.5,2.6,0.8,4.1,0.8C57,445,58.4,444.7,59.6,444.1L59.6,444.1z M77.4,440.6c-0.7-0.3-1.3-0.7-1.8-1.3c-0.5-0.5-0.9-1.2-1.2-2
		c-0.3-0.8-0.4-1.6-0.4-2.6v-0.1c0-1,0.1-1.8,0.4-2.6c0.3-0.8,0.7-1.4,1.2-2c0.5-0.5,1.1-1,1.8-1.2c0.7-0.3,1.4-0.4,2.2-0.4
		c0.7,0,1.4,0.1,2.1,0.4c0.7,0.3,1.3,0.7,1.8,1.3s0.9,1.2,1.2,2c0.3,0.8,0.5,1.6,0.5,2.6v0.1c0,0.9-0.2,1.8-0.5,2.5
		c-0.3,0.8-0.7,1.4-1.2,2c-0.5,0.6-1.1,1-1.8,1.3c-0.7,0.3-1.4,0.4-2.1,0.4C78.8,441,78.1,440.9,77.4,440.6L77.4,440.6z M82.5,443.9
		c1.1-0.7,2-1.6,2.7-2.6l0,3.2h4.5v-26.9h-4.5v10.5c-0.7-0.9-1.6-1.7-2.7-2.4c-1.1-0.7-2.4-1-4-1c-1.2,0-2.3,0.2-3.4,0.7
		c-1.1,0.4-2.1,1.1-2.9,2c-0.8,0.9-1.5,1.9-2,3.2c-0.5,1.3-0.8,2.7-0.8,4.3v0.1c0,1.6,0.3,3.1,0.8,4.3c0.5,1.3,1.2,2.3,2,3.2
		c0.8,0.9,1.8,1.5,2.9,2c1.1,0.4,2.2,0.7,3.4,0.7C80.1,444.9,81.4,444.6,82.5,443.9L82.5,443.9z M95.4,444.5h4.5V425h-4.5V444.5
		L95.4,444.5z M95.3,422h4.8v-4.2h-4.8V422L95.3,422z M114.5,444.6c0.6-0.2,1.2-0.4,1.8-0.7v-3.7c-0.9,0.4-1.8,0.7-2.8,0.7
		c-0.8,0-1.4-0.2-1.8-0.6s-0.6-1-0.6-1.9v-9.6h5.2V425h-5.2v-5.4h-4.5v5.4h-2.5v3.8h2.5v10.3c0,1.1,0.1,2,0.4,2.7
		c0.3,0.7,0.7,1.3,1.2,1.8c0.5,0.4,1.1,0.8,1.8,1c0.7,0.2,1.4,0.3,2.3,0.3C113.1,444.8,113.9,444.8,114.5,444.6L114.5,444.6z
		 M121.1,444.5h4.5V425h-4.5V444.5L121.1,444.5z M120.9,422h4.8v-4.2h-4.8V422L120.9,422z M134.8,433.4c0.2-1.5,0.7-2.8,1.6-3.7
		c0.9-0.9,2-1.4,3.4-1.4c0.7,0,1.4,0.1,2,0.4c0.6,0.3,1.1,0.6,1.5,1.1c0.4,0.5,0.8,1,1,1.6c0.2,0.6,0.4,1.3,0.5,2H134.8L134.8,433.4
		z M145,444c1.3-0.7,2.4-1.5,3.3-2.7l-2.6-2.3c-0.8,0.8-1.6,1.3-2.4,1.7c-0.8,0.4-1.8,0.6-2.9,0.6c-1.5,0-2.7-0.4-3.7-1.3
		c-1-0.8-1.7-2.1-1.9-3.7h14.3c0-0.2,0-0.4,0.1-0.6c0-0.2,0-0.4,0-0.6c0-1.4-0.2-2.7-0.6-4c-0.4-1.3-1-2.4-1.8-3.3
		c-0.8-1-1.7-1.7-2.9-2.3c-1.2-0.6-2.5-0.8-4.1-0.8c-1.4,0-2.7,0.3-3.8,0.8c-1.2,0.5-2.2,1.3-3,2.2c-0.8,0.9-1.5,2-2,3.2
		c-0.5,1.2-0.7,2.5-0.7,3.9v0.1c0,1.5,0.3,2.9,0.8,4.1c0.5,1.2,1.2,2.3,2.1,3.2c0.9,0.9,2,1.6,3.2,2.1c1.2,0.5,2.5,0.7,3.9,0.7
		C142.1,445,143.7,444.6,145,444L145,444z M163.2,444.5c0.9-0.3,1.7-0.6,2.3-1.1c0.7-0.5,1.2-1.1,1.5-1.9c0.4-0.8,0.6-1.7,0.6-2.7
		v-0.1c0-0.9-0.2-1.6-0.6-2.2c-0.4-0.6-0.8-1.1-1.4-1.6c-0.6-0.4-1.2-0.8-1.9-1.1c-0.7-0.3-1.4-0.6-2.1-0.8
		c-0.6-0.2-1.1-0.3-1.6-0.5c-0.5-0.2-1-0.4-1.4-0.6c-0.4-0.2-0.7-0.4-1-0.7s-0.4-0.6-0.4-0.9v-0.1c0-0.6,0.2-1,0.7-1.4
		c0.5-0.4,1.1-0.6,2-0.6c0.8,0,1.7,0.2,2.7,0.5c1,0.3,1.9,0.8,2.8,1.3l1.8-3.2c-1-0.7-2.2-1.2-3.4-1.6c-1.3-0.4-2.5-0.6-3.7-0.6
		c-1,0-1.9,0.1-2.7,0.4c-0.8,0.3-1.6,0.7-2.2,1.2c-0.6,0.5-1.1,1.1-1.5,1.9c-0.4,0.7-0.5,1.6-0.5,2.5v0.1c0,0.9,0.2,1.7,0.6,2.4
		c0.4,0.6,0.8,1.2,1.4,1.6c0.6,0.4,1.2,0.8,2,1c0.7,0.3,1.4,0.5,2.2,0.7c0.6,0.2,1.1,0.3,1.6,0.5c0.5,0.2,1,0.4,1.4,0.6
		c0.4,0.2,0.7,0.4,1,0.7c0.2,0.3,0.4,0.6,0.4,1v0.1c0,0.6-0.3,1.1-0.8,1.5c-0.5,0.4-1.3,0.6-2.2,0.6c-1,0-2.1-0.2-3.2-0.6
		c-1.1-0.4-2.2-1-3.2-1.8l-2,3c1.2,1,2.6,1.7,4,2.2c1.4,0.5,2.9,0.7,4.3,0.7C161.4,444.9,162.3,444.8,163.2,444.5L163.2,444.5z
		 M188.2,432.1v-9.3h5.3c1.7,0,3.1,0.4,4.1,1.2c1,0.8,1.5,1.9,1.5,3.5v0.1c0,1.4-0.5,2.5-1.5,3.3c-1,0.9-2.4,1.3-4.1,1.3H188.2
		L188.2,432.1z M183.7,444.5h4.5v-8.3h5.1c1.4,0,2.8-0.2,4-0.6c1.3-0.4,2.4-0.9,3.3-1.7c0.9-0.7,1.7-1.7,2.2-2.7
		c0.5-1.1,0.8-2.4,0.8-3.8v-0.1c0-1.3-0.2-2.5-0.7-3.5c-0.5-1.1-1.1-2-2-2.7c-0.8-0.8-1.9-1.3-3.1-1.8c-1.2-0.4-2.6-0.6-4.1-0.6
		h-10.2V444.5L183.7,444.5z M219.9,437.5c0,0.6-0.1,1.2-0.4,1.7c-0.3,0.5-0.6,0.9-1.1,1.3c-0.5,0.4-1,0.6-1.6,0.8
		c-0.6,0.2-1.3,0.3-2,0.3c-1.1,0-2-0.2-2.7-0.7c-0.7-0.5-1.1-1.2-1.1-2.1v-0.1c0-0.9,0.4-1.7,1.2-2.2c0.8-0.5,1.9-0.8,3.3-0.8
		c0.9,0,1.7,0.1,2.5,0.2c0.8,0.1,1.4,0.3,2,0.6V437.5L219.9,437.5z M224.2,444.5V433c0-2.6-0.7-4.6-2.1-6.1
		c-1.4-1.4-3.6-2.2-6.5-2.2c-1.6,0-3,0.1-4.1,0.4c-1.1,0.3-2.2,0.7-3.3,1.2l1.2,3.6c0.9-0.4,1.8-0.7,2.6-0.9c0.9-0.2,1.8-0.3,3-0.3
		c1.5,0,2.7,0.4,3.6,1.1c0.8,0.7,1.2,1.7,1.2,3.1v0.4c-0.8-0.2-1.6-0.4-2.4-0.6c-0.8-0.1-1.8-0.2-3-0.2c-1.1,0-2.2,0.1-3.2,0.4
		c-1,0.3-1.8,0.7-2.5,1.2c-0.7,0.5-1.2,1.2-1.6,2c-0.4,0.8-0.6,1.7-0.6,2.8v0.1c0,1,0.2,1.9,0.6,2.6c0.4,0.8,0.9,1.4,1.5,1.9
		c0.6,0.5,1.4,0.9,2.2,1.1c0.8,0.3,1.7,0.4,2.7,0.4c1.5,0,2.7-0.3,3.8-0.8c1-0.5,1.9-1.2,2.5-2v2.4H224.2L224.2,444.5z M235.6,450.2
		c0.6-0.2,1.2-0.5,1.7-0.9c0.5-0.4,1-1,1.4-1.7c0.4-0.7,0.8-1.5,1.2-2.5l7.7-20H243l-5.1,14.5l-5.5-14.5h-4.8l8.1,19.5
		c-0.4,0.9-0.8,1.5-1.2,1.8c-0.4,0.3-0.9,0.5-1.6,0.5c-0.5,0-0.9-0.1-1.3-0.2c-0.4-0.1-0.9-0.3-1.3-0.5l-1.5,3.3
		c0.7,0.4,1.4,0.7,2.1,0.9c0.7,0.2,1.6,0.3,2.5,0.3C234.3,450.5,235,450.4,235.6,450.2L235.6,450.2z M258.5,440.6
		c-0.7-0.3-1.3-0.8-1.9-1.4c-0.5-0.6-0.9-1.2-1.2-2c-0.3-0.8-0.4-1.6-0.4-2.4v-0.1c0-0.8,0.1-1.6,0.4-2.4c0.3-0.8,0.7-1.4,1.2-2
		c0.5-0.6,1.1-1,1.9-1.3c0.7-0.3,1.5-0.5,2.4-0.5c0.9,0,1.7,0.2,2.4,0.5c0.7,0.3,1.3,0.8,1.9,1.3c0.5,0.6,0.9,1.2,1.2,2
		c0.3,0.8,0.4,1.6,0.4,2.4v0.1c0,0.8-0.1,1.6-0.4,2.4c-0.3,0.8-0.7,1.4-1.2,2c-0.5,0.6-1.1,1-1.9,1.3c-0.7,0.3-1.5,0.5-2.4,0.5
		C260,441.1,259.2,440.9,258.5,440.6L258.5,440.6z M265,444.1c1.3-0.5,2.4-1.3,3.3-2.2c0.9-0.9,1.6-2,2.2-3.2
		c0.5-1.2,0.8-2.5,0.8-3.9v-0.1c0-1.4-0.3-2.7-0.8-3.9c-0.5-1.2-1.2-2.3-2.2-3.2c-0.9-0.9-2-1.6-3.3-2.2c-1.3-0.5-2.7-0.8-4.2-0.8
		c-1.5,0-2.9,0.3-4.2,0.8c-1.3,0.5-2.4,1.3-3.3,2.2c-0.9,0.9-1.6,2-2.2,3.2c-0.5,1.2-0.8,2.5-0.8,3.9v0.1c0,1.4,0.3,2.7,0.8,3.9
		c0.5,1.2,1.2,2.3,2.2,3.2c0.9,0.9,2,1.6,3.3,2.2c1.3,0.5,2.6,0.8,4.1,0.8C262.3,445,263.7,444.7,265,444.1L265,444.1z M286.1,443.9
		c1-0.7,1.8-1.5,2.4-2.4v3.1h4.5V425h-4.5v11c0,1.5-0.4,2.7-1.2,3.6c-0.8,0.8-1.9,1.3-3.1,1.3c-1.3,0-2.3-0.4-3.1-1.2
		c-0.7-0.8-1.1-2-1.1-3.5v-11h-4.5v12.4c0,2.3,0.6,4.1,1.8,5.5c1.2,1.4,2.9,2,5.1,2C284,444.9,285.2,444.6,286.1,443.9L286.1,443.9z
		 M307.4,444.6c0.6-0.2,1.2-0.4,1.8-0.7v-3.7c-0.9,0.4-1.8,0.7-2.8,0.7c-0.8,0-1.4-0.2-1.8-0.6c-0.4-0.4-0.6-1-0.6-1.9v-9.6h5.2V425
		h-5.2v-5.4h-4.5v5.4h-2.5v3.8h2.5v10.3c0,1.1,0.1,2,0.4,2.7c0.3,0.7,0.7,1.3,1.2,1.8c0.5,0.4,1.1,0.8,1.8,1
		c0.7,0.2,1.4,0.3,2.3,0.3C306,444.8,306.8,444.8,307.4,444.6L307.4,444.6z M331.7,444.5h4.6v-21.6h8.2v-4.2h-21v4.2h8.2V444.5
		L331.7,444.5z M352.1,433.4c0.2-1.5,0.7-2.8,1.6-3.7c0.9-0.9,2-1.4,3.4-1.4c0.7,0,1.4,0.1,2,0.4s1.1,0.6,1.5,1.1
		c0.4,0.5,0.8,1,1,1.6c0.2,0.6,0.4,1.3,0.5,2H352.1L352.1,433.4z M362.3,444c1.3-0.7,2.4-1.5,3.3-2.7L363,439
		c-0.8,0.8-1.6,1.3-2.4,1.7c-0.8,0.4-1.8,0.6-2.9,0.6c-1.5,0-2.7-0.4-3.7-1.3c-1-0.8-1.7-2.1-1.9-3.7h14.3c0-0.2,0-0.4,0.1-0.6
		c0-0.2,0-0.4,0-0.6c0-1.4-0.2-2.7-0.6-4c-0.4-1.3-1-2.4-1.8-3.3c-0.8-1-1.7-1.7-2.9-2.3c-1.2-0.6-2.5-0.8-4.1-0.8
		c-1.4,0-2.7,0.3-3.8,0.8c-1.2,0.5-2.2,1.3-3,2.2c-0.8,0.9-1.5,2-2,3.2c-0.5,1.2-0.7,2.5-0.7,3.9v0.1c0,1.5,0.3,2.9,0.8,4.1
		c0.5,1.2,1.2,2.3,2.1,3.2c0.9,0.9,2,1.6,3.2,2.1c1.2,0.5,2.5,0.7,3.9,0.7C359.5,445,361,444.6,362.3,444L362.3,444z M371,444.5h4.5
		v-7.4c0-1.3,0.2-2.4,0.5-3.4c0.3-1,0.8-1.8,1.4-2.4c0.6-0.6,1.3-1.1,2.1-1.4c0.8-0.3,1.7-0.5,2.7-0.5h0.3v-4.7
		c-1.7-0.1-3.1,0.3-4.3,1.2c-1.1,0.9-2,2.1-2.6,3.5V425H371V444.5L371,444.5z M386.3,444.5h4.5v-10.9c0-1.5,0.4-2.7,1.1-3.6
		c0.8-0.9,1.8-1.3,3-1.3c1.2,0,2.2,0.4,2.9,1.2c0.7,0.8,1,2,1,3.5v11.1h4.5v-11c0-1.6,0.4-2.8,1.2-3.6c0.8-0.8,1.8-1.2,3-1.2
		c1.2,0,2.2,0.4,2.9,1.2c0.7,0.8,1,2,1,3.5v11h4.5v-12.4c0-2.4-0.6-4.2-1.8-5.5c-1.2-1.3-2.9-1.9-5-1.9c-1.5,0-2.8,0.3-3.8,0.9
		c-1.1,0.6-2,1.5-2.8,2.5c-0.5-1-1.3-1.9-2.2-2.5c-1-0.6-2.2-0.9-3.6-0.9c-0.7,0-1.4,0.1-2,0.3c-0.6,0.2-1.1,0.4-1.6,0.8
		c-0.5,0.3-0.9,0.7-1.3,1.1c-0.4,0.4-0.7,0.8-1,1.3v-3h-4.5V444.5L386.3,444.5z M430.9,444.5c0.9-0.3,1.7-0.6,2.3-1.1
		c0.7-0.5,1.2-1.1,1.5-1.9c0.4-0.8,0.6-1.7,0.6-2.7v-0.1c0-0.9-0.2-1.6-0.6-2.2c-0.4-0.6-0.8-1.1-1.4-1.6c-0.6-0.4-1.2-0.8-1.9-1.1
		c-0.7-0.3-1.4-0.6-2.1-0.8c-0.6-0.2-1.1-0.3-1.6-0.5c-0.5-0.2-1-0.4-1.4-0.6c-0.4-0.2-0.7-0.4-1-0.7c-0.2-0.3-0.4-0.6-0.4-0.9v-0.1
		c0-0.6,0.2-1,0.7-1.4c0.5-0.4,1.2-0.6,2-0.6c0.8,0,1.7,0.2,2.7,0.5c1,0.3,1.9,0.8,2.8,1.3l1.8-3.2c-1-0.7-2.2-1.2-3.4-1.6
		c-1.3-0.4-2.5-0.6-3.7-0.6c-1,0-1.9,0.1-2.7,0.4c-0.8,0.3-1.6,0.7-2.2,1.2c-0.6,0.5-1.1,1.1-1.5,1.9c-0.4,0.7-0.5,1.6-0.5,2.5v0.1
		c0,0.9,0.2,1.7,0.6,2.4c0.4,0.6,0.8,1.2,1.4,1.6c0.6,0.4,1.2,0.8,2,1c0.7,0.3,1.4,0.5,2.2,0.7c0.6,0.2,1.1,0.3,1.6,0.5
		c0.5,0.2,1,0.4,1.4,0.6c0.4,0.2,0.7,0.4,1,0.7c0.2,0.3,0.4,0.6,0.4,1v0.1c0,0.6-0.3,1.1-0.8,1.5c-0.5,0.4-1.3,0.6-2.2,0.6
		c-1,0-2.1-0.2-3.2-0.6c-1.1-0.4-2.2-1-3.2-1.8l-2,3c1.2,1,2.6,1.7,4,2.2c1.4,0.5,2.9,0.7,4.3,0.7C429,444.9,430,444.8,430.9,444.5
		L430.9,444.5z"/>
	<path class="st0" d="M211.6,35.1c-3.3,0.6-6.6,0.6-9.7-0.3c-3.8,8-10.9,16.6-20.5,25c-8.4-9.1-18.6-18.2-30.5-27
		c4.2-14.1,7-27.5,8.4-39.8c12.7,1.1,23.5,3.8,31.4,7.9c2-2.5,4.6-4.5,7.6-6c-9.4-5.9-22.5-9.6-38.2-11c0.9-15.7-0.8-29.3-5.3-39.4
		c-1.9,2.8-4.3,5-7,6.6c3,8.4,4,19.4,3.2,32.2c-12.3-0.4-26,0.5-40.5,2.6c-7-13-14.5-24.5-22.3-34.3c9.8-8.2,19.3-14,27.8-16.6
		c-0.4-3.2,0-6.4,1.1-9.6c-10.8,2.5-22.7,9.1-34.8,19.2C71.9-67,61.1-75.3,50.8-79.4c0.6,3.3,0.6,6.6-0.3,9.7
		c8,3.8,16.6,10.9,25,20.5c-9.1,8.4-18.2,18.6-27,30.5C34.4-23,21-25.8,8.7-27.2c1.1-12.7,3.8-23.5,7.9-31.4c-2.5-2-4.5-4.6-6-7.6
		c-5.9,9.4-9.6,22.5-11,38.2c-15.7-0.9-29.3,0.8-39.4,5.3c2.8,1.9,5,4.3,6.6,7c8.4-3,19.4-4,32.2-3.2C-1.4-6.5-0.6,7.2,1.5,21.8
		c-13,7-24.5,14.4-34.1,22.1c-8.2-9.8-14-19.3-16.6-27.8c-3.2,0.4-6.4,0-9.6-1.1c2.5,10.8,9.1,22.7,19.2,34.8
		c-11.7,10.5-20.1,21.3-24.1,31.6c3.3-0.6,6.6-0.6,9.7,0.3c3.8-8,10.9-16.6,20.5-25c8.4,9.1,18.6,18.2,30.5,27
		c-4.2,14.1-7,27.5-8.4,39.8c-12.7-1.1-23.5-3.8-31.4-7.9c-2,2.5-4.6,4.5-7.6,6c9.4,5.9,22.5,9.6,38.2,11
		c-0.9,15.7,0.8,29.3,5.3,39.4c1.9-2.8,4.3-5,7-6.6c-3-8.4-4-19.4-3.2-32.2c12.3,0.4,26-0.5,40.5-2.6c7,13,14.5,24.5,22.3,34.3
		c-9.8,8.2-19.3,14-27.8,16.6c0.4,3.2,0,6.4-1.1,9.6c10.8-2.5,22.7-9.1,34.8-19.2c10.5,11.7,21.3,20.1,31.6,24.1
		c-0.6-3.3-0.6-6.6,0.3-9.7c-8-3.8-16.6-10.9-25-20.5c9.1-8.4,18.2-18.6,27-30.5c14.1,4.2,27.5,7,39.8,8.4
		c-1.1,12.7-3.8,23.5-7.9,31.4c2.5,2,4.5,4.6,6,7.6c5.9-9.4,9.6-22.5,11-38.2c15.7,0.9,29.3-0.8,39.4-5.3c-2.8-1.9-5-4.3-6.6-7
		c-8.4,3-19.4,4-32.2,3.2c0.5-12.4-0.3-26.1-2.5-40.7c13-7,24.5-14.4,34.1-22.1c8.2,9.8,14,19.3,16.6,27.8c3.2-0.4,6.4,0,9.6,1.1
		c-2.5-10.8-9.1-22.7-19.2-34.8C199.2,56.2,207.6,45.5,211.6,35.1L211.6,35.1z M105.1,127.4c4.1-6,8.2-12.3,12.1-18.8
		c7.1-2.9,13.9-6,20.4-9.3c1.7,12.6,2.3,24.5,2,35.3C129,133.3,117.3,130.9,105.1,127.4L105.1,127.4z M11.7,27
		c3.7-1.9,7.5-3.8,11.4-5.6c-1.6,2.9-3.2,5.9-4.7,8.9c-1.5,3-3,6.1-4.4,9.1C13.2,35.2,12.4,31.1,11.7,27L11.7,27z M11.9,68.1
		c1,3.2,1.9,6.4,3,9.6c1.1,3.2,2.2,6.4,3.3,9.5c-3.6-2.4-7.1-4.7-10.5-7.2C9,76.2,10.4,72.2,11.9,68.1L11.9,68.1z M26.6,34.4
		c3.3-6.6,6.9-12.9,10.5-19.1c6.6-2.6,13.3-5.1,20.3-7.4s13.9-4.3,20.7-6.1c6.6,2.8,13.2,5.8,19.8,9.1c6.6,3.3,12.9,6.9,19.1,10.5
		c2.6,6.6,5.1,13.3,7.4,20.3c2.3,7,4.3,13.9,6.1,20.7c-2.8,6.6-5.8,13.2-9.1,19.8c-3.3,6.6-6.9,12.9-10.5,19.1
		c-6.6,2.6-13.3,5.1-20.3,7.4s-13.9,4.3-20.7,6.1c-6.6-2.8-13.2-5.8-19.8-9.1c-6.6-3.3-12.9-6.9-19.1-10.5
		c-2.6-6.6-5.1-13.3-7.4-20.3c-2.3-7-4.3-13.9-6.1-20.7C20.3,47.6,23.3,41,26.6,34.4L26.6,34.4z M129.5,86.3c1.5-3,3-6.1,4.4-9.1
		c0.9,4.2,1.7,8.3,2.4,12.4c-3.7,1.9-7.5,3.8-11.4,5.6C126.4,92.3,127.9,89.3,129.5,86.3L129.5,86.3z M129.7,29.3
		c3.6,2.4,7.1,4.7,10.5,7.2c-1.3,4-2.7,8-4.2,12c-1-3.2-1.9-6.4-3-9.6C131.9,35.6,130.8,32.4,129.7,29.3L129.7,29.3z M95.8,124.5
		c-4-1.3-8-2.7-12-4.2c3.2-1,6.4-1.9,9.6-3c3.2-1.1,6.4-2.2,9.5-3.3C100.6,117.6,98.2,121.1,95.8,124.5L95.8,124.5z M47.1,129.1
		c7.2-1.3,14.5-2.8,22-4.7c7.1,3,14.1,5.6,21,7.9c-7.8,10.1-15.7,19-23.5,26.4C59.8,150.2,53.3,140.2,47.1,129.1L47.1,129.1z
		 M37,109.1c2.9,1.6,5.9,3.2,8.9,4.7c3,1.5,6.1,3,9.1,4.4c-4.2,0.9-8.4,1.6-12.5,2.3C40.6,116.8,38.8,113,37,109.1L37,109.1z
		 M-2.3,124c1.3-10.7,3.7-22.3,7.2-34.6c6,4.1,12.3,8.2,18.8,12.1c2.9,7.1,6,13.9,9.2,20.3C20.3,123.6,8.4,124.3-2.3,124L-2.3,124z
		 M7.8,53.4c-3,7.1-5.6,14.1-7.9,21c-10.1-7.8-19-15.7-26.4-23.5C-18,44.2-8,37.7,3.1,31.6C4.4,38.7,6,46,7.8,53.4L7.8,53.4z
		 M42.8-10.8c-4.1,6-8.2,12.3-12.1,18.8c-7.1,2.9-13.9,6-20.4,9.3C8.6,4.7,7.9-7.2,8.2-18C18.9-16.7,30.6-14.3,42.8-10.8L42.8-10.8z
		 M52.1-7.9c4,1.3,8,2.7,12,4.2c-3.2,1-6.4,1.9-9.6,3c-3.2,1.1-6.4,2.2-9.5,3.3C47.3-1,49.7-4.6,52.1-7.9L52.1-7.9z M100.8-12.5
		c-7.2,1.3-14.5,2.8-22,4.7c-7.1-3-14.1-5.6-21-7.9c7.8-10.1,15.7-19,23.5-26.4C88.1-33.6,94.6-23.7,100.8-12.5L100.8-12.5z
		 M110.9,7.5c-2.9-1.6-5.9-3.2-8.9-4.7c-3-1.5-6.1-3-9.1-4.4c4.2-0.9,8.4-1.6,12.5-2.3C107.3-0.2,109.1,3.6,110.9,7.5L110.9,7.5z
		 M150.2-7.4c-1.3,10.7-3.7,22.3-7.2,34.6c-6-4.1-12.3-8.2-18.8-12.1c-2.9-7.1-6-13.9-9.2-20.3C127.6-7,139.5-7.7,150.2-7.4
		L150.2-7.4z M174.4,65.8c-8.4,6.6-18.5,13.1-29.6,19.2c-1.3-7.1-2.9-14.4-4.7-21.8c3-7.1,5.6-14.1,7.9-21
		C158.1,50,167,57.9,174.4,65.8L174.4,65.8z"/>
	<path class="st1" d="M93.9,82.5c2.4-1.7,4.4-3.6,5.8-5.8c1.4-2.2,2.3-4.5,2.7-7.1c0.3-2.5,0.1-5.2-0.9-8l-0.1-0.2
		c-0.8-2.5-2-4.6-3.6-6.1c-1.5-1.5-3.4-2.7-5.6-3.4c-2.2-0.7-4.7-1.1-7.5-1.2c-2.8-0.1-5.9,0.1-9.3,0.4c-2,0.2-3.7,0.3-5.1,0.3
		c-1.4,0-2.4-0.1-3.3-0.2c-0.8-0.2-1.5-0.4-1.9-0.8c-0.4-0.4-0.8-0.9-1-1.5l-0.1-0.2c-0.3-1-0.1-2,0.5-2.9c0.7-1,1.9-1.8,3.8-2.4
		c2.4-0.8,5.1-1.2,8.1-1.1c2.9,0,5.9,0.5,9,1.5l4-13.2c-3.8-1.4-7.7-2.2-11.8-2.2c-4.1,0-8.5,0.7-13.2,2.3c-3.3,1.1-6.1,2.5-8.4,4.2
		c-2.3,1.7-4.2,3.7-5.5,5.8c-1.3,2.2-2.1,4.5-2.4,6.9c-0.3,2.5,0,5,0.9,7.5l0.1,0.2c0.9,2.8,2.2,5,3.9,6.5c1.7,1.5,3.7,2.7,5.9,3.3
		c2.3,0.7,4.8,1,7.6,1c2.8,0,5.7-0.2,8.9-0.5c2-0.2,3.7-0.3,5-0.3c1.3,0,2.4,0.1,3.2,0.3s1.5,0.5,1.9,0.8c0.4,0.4,0.7,0.8,0.9,1.4
		l0.1,0.2c0.4,1.2,0.2,2.3-0.7,3.3c-0.9,1-2.3,1.8-4.3,2.5c-6.4,2.1-13,1.9-19.9-0.7l-5.1,12.9c4.4,1.9,9,2.9,13.9,3
		c4.9,0.1,9.8-0.7,14.7-2.3C88.6,85.6,91.5,84.2,93.9,82.5L93.9,82.5z"/>
	<path class="st1" d="M68.4,25.6l-2.6-7.9l-11.3,3.7l2.7,8.3c1.9-1.1,3.9-2.1,6.2-2.9C65.1,26.3,66.8,25.9,68.4,25.6L68.4,25.6z"/>
	<path class="st1" d="M78,92.5l2.3,7l11.3-3.7l-2.1-6.3c-0.9,0.4-1.9,0.8-2.9,1.2C83.7,91.6,80.8,92.2,78,92.5L78,92.5z"/>
	<path class="st1" d="M221.5,9.6c-2.6-7.8-10.9-12-18.7-9.4c-7.8,2.6-12,10.9-9.4,18.7c2.6,7.8,10.9,12,18.7,9.4
		C219.8,25.8,224.1,17.4,221.5,9.6L221.5,9.6z"/>
	<path class="st1" d="M150.4-60.5c3.7-7.3,0.7-16.2-6.6-19.9c-7.3-3.7-16.2-0.7-19.9,6.6c-3.7,7.3-0.7,16.2,6.6,19.9
		C137.9-50.3,146.8-53.2,150.4-60.5L150.4-60.5z"/>
	<path class="st1" d="M44-79.8c-2.6-7.8-10.9-12-18.7-9.4c-7.8,2.6-12,10.9-9.4,18.7c2.6,7.8,10.9,12,18.7,9.4
		C42.3-63.7,46.6-72.1,44-79.8L44-79.8z"/>
	<path class="st1" d="M-44.9-18.2c-7.3-3.7-16.2-0.7-19.9,6.6c-3.7,7.3-0.7,16.2,6.6,19.9C-50.9,11.9-42,9-38.3,1.7
		C-34.6-5.6-37.6-14.5-44.9-18.2L-44.9-18.2z"/>
	<path class="st1" d="M-64.2,88.2c-7.8,2.6-12,10.9-9.4,18.7c2.6,7.8,10.9,12,18.7,9.4c7.8-2.6,12-10.9,9.4-18.7
		C-48,89.9-56.4,85.7-64.2,88.2L-64.2,88.2z"/>
	<path class="st1" d="M-2.5,177.1c-3.7,7.3-0.7,16.2,6.6,19.9c7.3,3.7,16.2,0.7,19.9-6.6c3.7-7.3,0.7-16.2-6.6-19.9
		C10.1,166.9,1.1,169.8-2.5,177.1L-2.5,177.1z"/>
	<path class="st1" d="M103.9,196.4c2.6,7.8,10.9,12,18.7,9.4c7.8-2.6,12-10.9,9.4-18.7c-2.6-7.8-10.9-12-18.7-9.4
		C105.6,180.3,101.3,188.6,103.9,196.4L103.9,196.4z"/>
	<path class="st1" d="M192.8,134.8c7.3,3.7,16.2,0.7,19.9-6.6c3.7-7.3,0.7-16.2-6.6-19.9c-7.3-3.7-16.2-0.7-19.9,6.6
		C182.5,122.2,185.5,131.1,192.8,134.8L192.8,134.8z"/>
</g>
</svg>
