<?xml version="1.0" encoding="utf-8"?>
<!-- Generator: Adobe Illustrator 25.0.0, SVG Export Plug-In . SVG Version: 6.00 Build 0)  -->
<svg version="1.1" id="Layer_1" xmlns="http://www.w3.org/2000/svg" xmlns:xlink="http://www.w3.org/1999/xlink" x="0px" y="0px"
	 viewBox="0 0 360 360" style="enable-background:new 0 0 360 360;" xml:space="preserve">
<style type="text/css">
	.st0{fill:#F78E20;}
	.st1{fill:#265EAC;}
</style>
<g>
	<path class="st0" d="M-50.2,370.1c-2.5-1.2-4.7-2.7-6.6-4.7c-1.8-1.9-3.2-4.2-4.3-6.9c-1-2.6-1.5-5.5-1.5-8.4v-0.2
		c0-3,0.5-5.8,1.5-8.4c1-2.6,2.4-4.9,4.2-6.8c1.8-1.9,4-3.5,6.5-4.6c2.5-1.1,5.3-1.7,8.3-1.7c3,0,5.8,0.6,8.3,1.7
		c2.5,1.2,4.7,2.7,6.6,4.7c1.8,1.9,3.2,4.2,4.3,6.9c1,2.6,1.5,5.4,1.5,8.4v0.2c0,3-0.5,5.8-1.5,8.4c-1,2.6-2.4,4.9-4.2,6.8
		c-1.8,1.9-3.9,3.5-6.5,4.6c-2.5,1.1-5.3,1.7-8.3,1.7C-44.8,371.8-47.6,371.2-50.2,370.1L-50.2,370.1z M-29.1,379.1
		c3.9-1.7,7.3-4,10.1-6.8c2.8-2.9,5.1-6.2,6.6-10c1.6-3.8,2.4-7.9,2.4-12.2v-0.2c0-4.3-0.8-8.4-2.4-12.2c-1.6-3.8-3.7-7.1-6.5-10
		c-2.8-2.8-6.1-5.1-10-6.8c-3.9-1.7-8.2-2.5-12.9-2.5s-9,0.8-12.9,2.5c-3.9,1.7-7.3,4-10.1,6.8c-2.8,2.9-5.1,6.2-6.6,10
		c-1.6,3.8-2.4,7.9-2.4,12.2v0.2c0,4.3,0.8,8.4,2.4,12.2c1.6,3.8,3.7,7.1,6.5,10c2.8,2.8,6.1,5.1,10,6.8c3.9,1.7,8.2,2.5,12.9,2.5
		S-33,380.8-29.1,379.1L-29.1,379.1z M14.9,371.1v-16.7h17c4.2,0,7.4,0.7,9.4,2.1c2.1,1.4,3.1,3.4,3.1,6.1v0.2c0,2.8-1,4.9-3.1,6.3
		c-2.1,1.4-5,2.1-8.6,2.1H14.9L14.9,371.1z M14.9,345.3v-16.2h15.4c3.5,0,6.1,0.7,8,2.1c1.8,1.4,2.7,3.3,2.7,5.7v0.2
		c0,2.8-1,4.9-3.1,6.2c-2.1,1.4-4.9,2.1-8.3,2.1H14.9L14.9,345.3z M4.2,380.6h28.2c3.4,0,6.4-0.4,9.2-1.1c2.8-0.7,5.2-1.8,7.1-3.2
		c2-1.4,3.5-3.1,4.6-5.2c1.1-2.1,1.6-4.5,1.6-7.2v-0.2c0-2.1-0.3-3.9-0.9-5.5c-0.6-1.6-1.4-2.9-2.5-4.1c-1.1-1.2-2.3-2.2-3.8-3
		c-1.5-0.8-3.1-1.6-4.9-2.2c1.1-0.6,2.2-1.3,3.2-2.1c1.1-0.8,2-1.8,2.8-2.8c0.8-1.1,1.4-2.3,1.9-3.8c0.5-1.4,0.7-3.1,0.7-4.9v-0.2
		c0-4-1.4-7.4-4.1-10.1c-3.6-3.6-8.9-5.4-15.9-5.4H4.2V380.6L4.2,380.6z M90.3,380.1c2.5-0.9,4.6-2.3,6.5-4.1c1.8-1.8,3.2-4,4.2-6.7
		c1-2.7,1.5-5.8,1.5-9.5v-40.3h-11v40c0,4.1-0.9,7.1-2.7,9c-1.8,1.9-4.1,2.9-7,2.9c-2.6,0-4.9-0.6-6.8-1.9c-1.9-1.3-3.7-3-5.5-5.3
		l-7.1,7.2c2,2.8,4.6,5.1,7.8,7c3.1,1.9,7.1,2.8,11.8,2.8C85,381.5,87.8,381,90.3,380.1L90.3,380.1z M118.4,380.6H164v-9.7h-35
		v-16.3h30.6v-9.7H129v-15.7h34.5v-9.7h-45.2V380.6L118.4,380.6z M214.2,380.9c2.4-0.5,4.5-1.2,6.5-2.2c2-1,3.8-2.1,5.5-3.4
		c1.7-1.3,3.4-2.8,4.9-4.5l-6.9-7c-2.6,2.4-5.3,4.4-7.9,5.8c-2.7,1.4-5.9,2.1-9.6,2.1c-2.9,0-5.6-0.6-8.1-1.7
		c-2.5-1.1-4.6-2.7-6.4-4.7c-1.8-2-3.2-4.3-4.2-6.9c-1-2.6-1.5-5.5-1.5-8.4v-0.2c0-3,0.5-5.8,1.5-8.4c1-2.6,2.4-4.9,4.2-6.8
		c1.8-1.9,3.9-3.5,6.4-4.6c2.5-1.1,5.2-1.7,8.1-1.7c3.5,0,6.6,0.7,9.3,2.1c2.7,1.4,5.3,3.2,7.8,5.5l6.9-7.9c-1.5-1.4-3-2.7-4.6-3.8
		c-1.6-1.2-3.4-2.2-5.3-3c-1.9-0.8-4-1.5-6.3-2c-2.3-0.5-4.8-0.7-7.6-0.7c-4.7,0-8.9,0.8-12.7,2.5c-3.8,1.7-7.2,3.9-10,6.8
		c-2.8,2.9-5,6.2-6.5,10c-1.6,3.8-2.3,7.9-2.3,12.3v0.2c0,4.4,0.8,8.5,2.4,12.3c1.6,3.8,3.8,7.2,6.5,10c2.8,2.8,6.1,5,9.8,6.7
		c3.8,1.6,7.9,2.4,12.4,2.4C209.3,381.7,211.9,381.4,214.2,380.9L214.2,380.9z M258.6,380.6h10.8v-51.1h19.4v-9.9h-49.5v9.9h19.4
		V380.6L258.6,380.6z M331.6,380.3c2.7-0.8,5-2,6.9-3.6c1.9-1.6,3.4-3.5,4.5-5.8c1.1-2.3,1.6-4.8,1.6-7.7v-0.2
		c0-2.5-0.4-4.7-1.3-6.6c-0.8-1.9-2.1-3.5-3.7-5c-1.6-1.4-3.7-2.6-6.2-3.6c-2.5-1-5.3-1.9-8.5-2.7c-2.9-0.7-5.3-1.4-7.2-2
		c-1.9-0.6-3.4-1.3-4.5-2c-1.1-0.7-1.8-1.5-2.2-2.4c-0.4-0.9-0.6-1.9-0.6-3.1v-0.2c0-2,0.9-3.8,2.6-5.1c1.7-1.4,4.2-2.1,7.3-2.1
		c2.8,0,5.6,0.5,8.3,1.6c2.7,1.1,5.5,2.6,8.3,4.7l5.8-8.1c-3.1-2.5-6.5-4.4-10.1-5.7c-3.6-1.3-7.6-2-12.1-2c-3,0-5.8,0.4-8.4,1.3
		c-2.6,0.9-4.7,2.1-6.6,3.6c-1.8,1.5-3.2,3.4-4.3,5.6c-1,2.2-1.6,4.6-1.6,7.2v0.2c0,2.8,0.5,5.2,1.4,7.2c0.9,2,2.2,3.6,3.9,5
		c1.7,1.4,3.8,2.5,6.4,3.5c2.5,1,5.4,1.8,8.7,2.6c2.9,0.6,5.2,1.3,7,1.9c1.8,0.6,3.2,1.3,4.2,2.1c1,0.8,1.7,1.6,2.1,2.4
		c0.4,0.8,0.6,1.8,0.6,2.9v0.2c0,2.3-1,4.2-2.9,5.6c-1.9,1.4-4.6,2.1-7.9,2.1c-3.8,0-7.3-0.7-10.3-2c-3-1.4-6-3.3-9-5.9l-6.5,7.7
		c3.7,3.3,7.6,5.8,11.9,7.4c4.3,1.6,8.8,2.4,13.5,2.4C326,381.5,328.9,381.1,331.6,380.3L331.6,380.3z"/>
	<path class="st1" d="M-73.6,293.4h16.9v-21.8h28.9v-14.1h-28.9v-10.3h31.9v-14.8h-48.8V293.4L-73.6,293.4z M-15.5,293.4h17v-61h-17
		V293.4L-15.5,293.4z M13.9,293.4h16.7v-33.5l26.1,33.5h14.9v-61H54.9v32.3l-25.2-32.3H13.9V293.4L13.9,293.4z M105.8,269.4
		l6.9-17.4l6.8,17.4H105.8L105.8,269.4z M78.7,293.4h17.8l4.4-10.9h23.5l4.4,10.9H147l-26-61.5h-16.3L78.7,293.4L78.7,293.4z
		 M154.1,293.4h16.7v-33.5l26.1,33.5h14.9v-61h-16.7v32.3l-25.2-32.3h-15.8V293.4L154.1,293.4z M262.3,293.6
		c2.7-0.7,5.1-1.7,7.3-2.9c2.2-1.2,4.1-2.7,5.8-4.4c1.7-1.7,3.3-3.5,4.8-5.5l-12.7-9.1c-0.9,1.1-1.9,2.1-2.8,3c-1,0.9-2,1.7-3.1,2.4
		c-1.1,0.7-2.3,1.2-3.6,1.5c-1.3,0.3-2.7,0.5-4.3,0.5c-2.2,0-4.1-0.4-5.9-1.3c-1.8-0.8-3.3-2-4.6-3.4c-1.3-1.5-2.3-3.2-3-5.2
		c-0.7-2-1.1-4.1-1.1-6.4v-0.2c0-2.2,0.4-4.3,1.1-6.3c0.7-2,1.7-3.7,3-5.1c1.3-1.5,2.8-2.6,4.6-3.4c1.8-0.8,3.7-1.3,5.9-1.3
		c3,0,5.5,0.6,7.6,1.9c2.1,1.3,4,3,5.8,5.2l12.7-9.9c-1.3-1.9-2.9-3.6-4.6-5.1c-1.7-1.6-3.6-2.9-5.8-4.1c-2.1-1.1-4.5-2-7-2.6
		c-2.6-0.6-5.4-0.9-8.5-0.9c-4.7,0-8.9,0.8-12.9,2.4c-3.9,1.6-7.3,3.9-10.2,6.8c-2.8,2.9-5.1,6.3-6.7,10.1c-1.6,3.9-2.4,8-2.4,12.4
		v0.2c0,4.5,0.8,8.7,2.5,12.6c1.7,3.9,3.9,7.2,6.7,10c2.8,2.8,6.1,5,10,6.6c3.8,1.6,7.9,2.4,12.3,2.4
		C256.5,294.6,259.6,294.3,262.3,293.6L262.3,293.6z M289,293.4h17v-61h-17V293.4L289,293.4z M340.6,269.4l6.9-17.4l6.8,17.4H340.6
		L340.6,269.4z M313.5,293.4h17.8l4.4-10.9h23.5l4.4,10.9h18.1l-26-61.5h-16.3L313.5,293.4L313.5,293.4z M388.9,293.4h46.5v-14.8
		h-29.6v-46.2h-16.9V293.4L388.9,293.4z"/>
	<path class="st1" d="M-57.5,486.7c1.2-0.2,2.3-0.6,3.2-1.1c1-0.5,1.9-1,2.8-1.7c0.9-0.7,1.7-1.4,2.5-2.2l-3.4-3.5
		c-1.3,1.2-2.6,2.2-4,2.9c-1.3,0.7-2.9,1.1-4.8,1.1c-1.5,0-2.8-0.3-4-0.8c-1.2-0.6-2.3-1.3-3.2-2.3c-0.9-1-1.6-2.1-2.1-3.5
		c-0.5-1.3-0.7-2.7-0.7-4.2v-0.1c0-1.5,0.2-2.9,0.7-4.2c0.5-1.3,1.2-2.4,2.1-3.4c0.9-1,2-1.7,3.2-2.3c1.2-0.6,2.6-0.8,4-0.8
		c1.7,0,3.3,0.3,4.7,1c1.4,0.7,2.7,1.6,3.9,2.7l3.4-4c-0.7-0.7-1.5-1.3-2.3-1.9c-0.8-0.6-1.7-1.1-2.7-1.5c-1-0.4-2-0.7-3.2-1
		c-1.1-0.2-2.4-0.3-3.8-0.3c-2.3,0-4.4,0.4-6.4,1.2c-1.9,0.8-3.6,2-5,3.4c-1.4,1.4-2.5,3.1-3.3,5c-0.8,1.9-1.2,3.9-1.2,6.1v0.1
		c0,2.2,0.4,4.2,1.2,6.1c0.8,1.9,1.9,3.6,3.3,5c1.4,1.4,3,2.5,4.9,3.3c1.9,0.8,4,1.2,6.2,1.2C-60,487.1-58.7,487-57.5,486.7
		L-57.5,486.7z M-35.8,481.9c-0.9-0.4-1.6-0.9-2.2-1.6c-0.6-0.7-1.1-1.5-1.5-2.4c-0.3-0.9-0.5-1.8-0.5-2.9V475c0-1,0.2-1.9,0.5-2.8
		c0.3-0.9,0.8-1.7,1.4-2.3s1.3-1.2,2.2-1.6c0.9-0.4,1.8-0.6,2.8-0.6c1,0,2,0.2,2.8,0.6c0.9,0.4,1.6,0.9,2.2,1.6
		c0.6,0.7,1.1,1.5,1.5,2.4c0.3,0.9,0.5,1.9,0.5,2.9v0.1c0,1-0.2,1.9-0.5,2.8c-0.3,0.9-0.8,1.7-1.4,2.3c-0.6,0.7-1.3,1.2-2.2,1.6
		c-0.9,0.4-1.8,0.6-2.9,0.6C-34.1,482.5-35,482.3-35.8,481.9L-35.8,481.9z M-28.2,486.1c1.5-0.6,2.8-1.5,3.9-2.6s1.9-2.4,2.6-3.8
		c0.6-1.5,0.9-3,0.9-4.6V475c0-1.7-0.3-3.2-0.9-4.6c-0.6-1.4-1.5-2.7-2.6-3.8c-1.1-1.1-2.4-1.9-3.9-2.6c-1.5-0.6-3.1-0.9-4.9-0.9
		c-1.8,0-3.4,0.3-4.9,1c-1.5,0.6-2.8,1.5-3.9,2.6c-1.1,1.1-1.9,2.4-2.6,3.8c-0.6,1.5-0.9,3-0.9,4.7v0.1c0,1.6,0.3,3.2,0.9,4.6
		c0.6,1.5,1.5,2.7,2.6,3.8c1.1,1.1,2.4,1.9,3.9,2.6c1.5,0.6,3.1,0.9,4.9,0.9C-31.4,487.1-29.7,486.8-28.2,486.1L-28.2,486.1z
		 M-15.4,486.6h5.3v-12.9c0-1.8,0.4-3.2,1.3-4.2c0.9-1,2.1-1.5,3.6-1.5c1.5,0,2.6,0.5,3.4,1.4c0.8,1,1.2,2.3,1.2,4.1v13.1h5.3v-13
		c0-1.9,0.5-3.3,1.4-4.2c0.9-1,2.1-1.5,3.5-1.5c1.5,0,2.6,0.5,3.4,1.4c0.8,1,1.2,2.3,1.2,4.2v13.1h5.3v-14.7c0-2.8-0.7-5-2.1-6.5
		c-1.4-1.5-3.4-2.3-5.9-2.3c-1.7,0-3.3,0.4-4.5,1.1c-1.3,0.7-2.4,1.7-3.3,3c-0.6-1.2-1.5-2.2-2.6-3c-1.1-0.7-2.5-1.1-4.2-1.1
		c-0.9,0-1.7,0.1-2.4,0.3c-0.7,0.2-1.3,0.5-1.9,0.9c-0.6,0.4-1.1,0.8-1.5,1.3c-0.4,0.5-0.8,1-1.2,1.5v-3.5h-5.3V486.6L-15.4,486.6z
		 M26,486.6h5.3v-12.9c0-1.8,0.4-3.2,1.3-4.2c0.9-1,2.1-1.5,3.6-1.5c1.5,0,2.6,0.5,3.4,1.4c0.8,1,1.2,2.3,1.2,4.1v13.1h5.3v-13
		c0-1.9,0.5-3.3,1.4-4.2c0.9-1,2.1-1.5,3.5-1.5c1.5,0,2.6,0.5,3.4,1.4c0.8,1,1.2,2.3,1.2,4.2v13.1H61v-14.7c0-2.8-0.7-5-2.1-6.5
		c-1.4-1.5-3.4-2.3-5.9-2.3c-1.7,0-3.3,0.4-4.5,1.1c-1.3,0.7-2.4,1.7-3.3,3c-0.6-1.2-1.5-2.2-2.6-3c-1.1-0.7-2.5-1.1-4.2-1.1
		c-0.9,0-1.7,0.1-2.4,0.3c-0.7,0.2-1.3,0.5-1.9,0.9c-0.6,0.4-1.1,0.8-1.5,1.3c-0.4,0.5-0.8,1-1.2,1.5v-3.5H26V486.6L26,486.6z
		 M75.6,481.9c-0.9-0.4-1.6-0.9-2.2-1.6c-0.6-0.7-1.1-1.5-1.5-2.4c-0.3-0.9-0.5-1.8-0.5-2.9V475c0-1,0.2-1.9,0.5-2.8
		c0.3-0.9,0.8-1.7,1.4-2.3c0.6-0.7,1.3-1.2,2.2-1.6c0.9-0.4,1.8-0.6,2.8-0.6c1,0,2,0.2,2.8,0.6c0.9,0.4,1.6,0.9,2.2,1.6
		c0.6,0.7,1.1,1.5,1.5,2.4c0.3,0.9,0.5,1.9,0.5,2.9v0.1c0,1-0.2,1.9-0.5,2.8c-0.3,0.9-0.8,1.7-1.4,2.3c-0.6,0.7-1.3,1.2-2.2,1.6
		c-0.9,0.4-1.8,0.6-2.9,0.6C77.4,482.5,76.5,482.3,75.6,481.9L75.6,481.9z M83.3,486.1c1.5-0.6,2.8-1.5,3.9-2.6s1.9-2.4,2.6-3.8
		c0.6-1.5,0.9-3,0.9-4.6V475c0-1.7-0.3-3.2-0.9-4.6c-0.6-1.4-1.5-2.7-2.5-3.8c-1.1-1.1-2.4-1.9-3.9-2.6c-1.5-0.6-3.1-0.9-4.9-0.9
		c-1.8,0-3.4,0.3-4.9,1c-1.5,0.6-2.8,1.5-3.9,2.6c-1.1,1.1-1.9,2.4-2.6,3.8c-0.6,1.5-0.9,3-0.9,4.7v0.1c0,1.6,0.3,3.2,0.9,4.6
		c0.6,1.5,1.5,2.7,2.6,3.8c1.1,1.1,2.4,1.9,3.9,2.6c1.5,0.6,3.1,0.9,4.9,0.9C80.1,487.1,81.8,486.8,83.3,486.1L83.3,486.1z
		 M96,486.6h5.3v-13c0-1.8,0.5-3.2,1.4-4.2c1-1,2.2-1.5,3.7-1.5c1.6,0,2.8,0.5,3.6,1.5c0.9,1,1.3,2.4,1.3,4.2v13.1h5.3v-14.7
		c0-2.7-0.7-4.9-2.1-6.5c-1.4-1.6-3.4-2.4-6-2.4c-0.9,0-1.7,0.1-2.4,0.3c-0.7,0.2-1.4,0.5-2,0.9c-0.6,0.4-1.1,0.8-1.6,1.3
		c-0.4,0.5-0.9,1-1.2,1.6v-3.6H96V486.6L96,486.6z M144.3,486.6h5.4V461h9.7v-5h-24.8v5h9.7V486.6L144.3,486.6z M168.4,473.4
		c0.2-1.8,0.9-3.3,1.9-4.4c1.1-1.1,2.4-1.7,4-1.7c0.9,0,1.6,0.2,2.3,0.5c0.7,0.3,1.3,0.7,1.8,1.3c0.5,0.5,0.9,1.2,1.2,1.9
		c0.3,0.7,0.5,1.5,0.6,2.4H168.4L168.4,473.4z M180.4,485.9c1.5-0.8,2.8-1.8,3.9-3.1l-3.1-2.7c-0.9,0.9-1.9,1.6-2.8,2
		c-1,0.5-2.1,0.7-3.4,0.7c-1.7,0-3.2-0.5-4.4-1.5c-1.2-1-2-2.4-2.2-4.3h16.9c0-0.3,0.1-0.5,0.1-0.8c0-0.2,0-0.5,0-0.7
		c0-1.7-0.2-3.2-0.7-4.7c-0.5-1.5-1.2-2.8-2.1-3.9c-0.9-1.1-2.1-2-3.4-2.7c-1.4-0.7-3-1-4.8-1c-1.7,0-3.2,0.3-4.5,0.9
		c-1.4,0.6-2.5,1.5-3.6,2.6c-1,1.1-1.8,2.4-2.3,3.8c-0.6,1.5-0.8,3-0.8,4.7v0.1c0,1.8,0.3,3.4,0.9,4.9c0.6,1.5,1.4,2.7,2.5,3.8
		c1.1,1,2.3,1.9,3.7,2.4c1.4,0.6,3,0.9,4.6,0.9C177.1,487.1,178.9,486.7,180.4,485.9L180.4,485.9z M190.7,486.6h5.3v-12.9
		c0-1.8,0.4-3.2,1.3-4.2c0.9-1,2.1-1.5,3.6-1.5c1.5,0,2.6,0.5,3.4,1.4c0.8,1,1.2,2.3,1.2,4.1v13.1h5.3v-13c0-1.9,0.5-3.3,1.4-4.2
		c0.9-1,2.1-1.5,3.5-1.5c1.5,0,2.6,0.5,3.4,1.4c0.8,1,1.2,2.3,1.2,4.2v13.1h5.3v-14.7c0-2.8-0.7-5-2.1-6.5c-1.4-1.5-3.4-2.3-5.9-2.3
		c-1.7,0-3.3,0.4-4.5,1.1c-1.3,0.7-2.4,1.7-3.3,3c-0.6-1.2-1.5-2.2-2.6-3c-1.1-0.7-2.5-1.1-4.2-1.1c-0.9,0-1.7,0.1-2.4,0.3
		c-0.7,0.2-1.3,0.5-1.9,0.9c-0.6,0.4-1.1,0.8-1.5,1.3c-0.4,0.5-0.8,1-1.2,1.5v-3.5h-5.3V486.6L190.7,486.6z M241.5,481.9
		c-0.8-0.3-1.5-0.8-2.1-1.5c-0.6-0.6-1.1-1.4-1.5-2.3c-0.4-0.9-0.5-1.9-0.5-3V475c0-1.1,0.2-2.1,0.5-3c0.4-0.9,0.8-1.7,1.5-2.3
		c0.6-0.7,1.3-1.2,2.1-1.5c0.8-0.3,1.7-0.5,2.6-0.5c0.9,0,1.8,0.2,2.6,0.5c0.8,0.3,1.5,0.8,2.1,1.5c0.6,0.6,1.1,1.4,1.4,2.3
		c0.3,0.9,0.5,1.9,0.5,3v0.1c0,1.1-0.2,2.2-0.5,3.1c-0.3,0.9-0.8,1.7-1.4,2.3c-0.6,0.6-1.3,1.1-2.1,1.5c-0.8,0.3-1.6,0.5-2.6,0.5
		C243.2,482.5,242.3,482.3,241.5,481.9L241.5,481.9z M232.2,493.5h5.3V483c0.8,1.1,1.8,2,3.1,2.8c1.2,0.8,2.8,1.2,4.7,1.2
		c1.4,0,2.7-0.3,4-0.8c1.3-0.5,2.4-1.3,3.4-2.3c1-1,1.8-2.3,2.4-3.8c0.6-1.5,0.9-3.2,0.9-5.1V475c0-1.9-0.3-3.6-0.9-5.1
		c-0.6-1.5-1.4-2.7-2.4-3.8c-1-1-2.1-1.8-3.4-2.3c-1.3-0.5-2.6-0.8-4-0.8c-1.9,0-3.4,0.4-4.7,1.2c-1.2,0.8-2.3,1.9-3.1,3.1v-3.8
		h-5.3V493.5L232.2,493.5z M261.7,486.6h5.3v-31.8h-5.3V486.6L261.7,486.6z M288.1,478.2c0,0.7-0.2,1.4-0.5,2
		c-0.3,0.6-0.7,1.1-1.3,1.5c-0.6,0.4-1.2,0.7-1.9,1c-0.7,0.2-1.5,0.3-2.4,0.3c-1.3,0-2.3-0.3-3.2-0.9c-0.9-0.6-1.3-1.4-1.3-2.5v-0.1
		c0-1.1,0.5-2,1.4-2.6c0.9-0.6,2.2-1,3.9-1c1,0,2,0.1,2.9,0.3c0.9,0.2,1.7,0.4,2.4,0.7V478.2L288.1,478.2z M293.2,486.6v-13.6
		c0-3.1-0.8-5.5-2.5-7.2c-1.7-1.7-4.2-2.6-7.6-2.6c-1.9,0-3.5,0.2-4.8,0.5c-1.3,0.3-2.6,0.8-3.9,1.4l1.4,4.2c1-0.4,2.1-0.8,3.1-1
		c1-0.3,2.2-0.4,3.5-0.4c1.8,0,3.2,0.4,4.2,1.3c1,0.8,1.5,2.1,1.5,3.7v0.4c-0.9-0.3-1.8-0.5-2.8-0.7c-1-0.2-2.2-0.3-3.6-0.3
		c-1.3,0-2.6,0.2-3.7,0.5c-1.1,0.3-2.1,0.8-3,1.4c-0.8,0.6-1.5,1.4-1.9,2.4c-0.5,0.9-0.7,2.1-0.7,3.3v0.1c0,1.2,0.2,2.2,0.7,3.1
		c0.4,0.9,1,1.6,1.8,2.2c0.7,0.6,1.6,1,2.6,1.4c1,0.3,2,0.5,3.1,0.5c1.7,0,3.2-0.3,4.4-1c1.2-0.6,2.2-1.4,3-2.4v2.8H293.2
		L293.2,486.6z M309.8,486.6c0.8-0.2,1.5-0.5,2.1-0.9v-4.3c-1,0.5-2.1,0.8-3.3,0.8c-0.9,0-1.6-0.2-2.1-0.7c-0.5-0.5-0.7-1.2-0.7-2.2
		v-11.3h6.2v-4.5h-6.2v-6.3h-5.3v6.3h-2.9v4.5h2.9v12.1c0,1.3,0.2,2.3,0.5,3.2c0.3,0.9,0.8,1.5,1.4,2.1c0.6,0.5,1.3,0.9,2.1,1.1
		c0.8,0.2,1.7,0.3,2.7,0.3C308.2,486.9,309.1,486.8,309.8,486.6L309.8,486.6z M321.3,473.4c0.2-1.8,0.9-3.3,1.9-4.4
		c1.1-1.1,2.4-1.7,4-1.7c0.9,0,1.6,0.2,2.3,0.5c0.7,0.3,1.3,0.7,1.8,1.3c0.5,0.5,0.9,1.2,1.2,1.9c0.3,0.7,0.5,1.5,0.6,2.4H321.3
		L321.3,473.4z M333.3,485.9c1.5-0.8,2.8-1.8,3.9-3.1l-3.1-2.7c-0.9,0.9-1.9,1.6-2.8,2c-1,0.5-2.1,0.7-3.4,0.7
		c-1.7,0-3.2-0.5-4.4-1.5c-1.2-1-2-2.4-2.2-4.3h16.9c0-0.3,0-0.5,0.1-0.8c0-0.2,0-0.5,0-0.7c0-1.7-0.2-3.2-0.7-4.7
		c-0.5-1.5-1.2-2.8-2.1-3.9c-0.9-1.1-2.1-2-3.4-2.7c-1.4-0.7-3-1-4.8-1c-1.7,0-3.2,0.3-4.5,0.9c-1.4,0.6-2.6,1.5-3.6,2.6
		c-1,1.1-1.8,2.4-2.3,3.8c-0.6,1.5-0.8,3-0.8,4.7v0.1c0,1.8,0.3,3.4,0.9,4.9c0.6,1.5,1.4,2.7,2.5,3.8c1.1,1,2.3,1.9,3.8,2.4
		c1.4,0.6,3,0.9,4.6,0.9C330,487.1,331.8,486.7,333.3,485.9L333.3,485.9z"/>
	<path class="st1" d="M-70.3,423.9v-11h6.3c2,0,3.6,0.5,4.8,1.4c1.2,0.9,1.8,2.3,1.8,4.1v0.1c0,1.6-0.6,2.9-1.8,3.9
		c-1.2,1-2.8,1.5-4.8,1.5H-70.3L-70.3,423.9z M-75.6,438.6h5.3v-9.8h6.1c1.7,0,3.3-0.2,4.8-0.7c1.5-0.5,2.8-1.1,3.9-2
		c1.1-0.9,2-2,2.6-3.2c0.6-1.3,1-2.8,1-4.5v-0.1c0-1.5-0.3-2.9-0.8-4.2c-0.5-1.3-1.3-2.3-2.3-3.2c-1-0.9-2.2-1.6-3.7-2.1
		c-1.4-0.5-3-0.7-4.8-0.7h-12V438.6L-75.6,438.6z M-47.1,438.6h5.3v-8.8c0-1.5,0.2-2.8,0.6-4c0.4-1.1,0.9-2.1,1.6-2.9
		s1.5-1.3,2.5-1.7c1-0.4,2-0.6,3.2-0.6h0.3v-5.6c-2-0.1-3.7,0.4-5.1,1.4c-1.3,1-2.4,2.4-3.1,4.2v-5.2h-5.3V438.6L-47.1,438.6z
		 M-20.9,434c-0.9-0.4-1.6-0.9-2.2-1.6c-0.6-0.7-1.1-1.5-1.5-2.4c-0.3-0.9-0.5-1.8-0.5-2.9V427c0-1,0.2-1.9,0.5-2.8
		c0.3-0.9,0.8-1.7,1.4-2.3c0.6-0.7,1.3-1.2,2.2-1.6c0.9-0.4,1.8-0.6,2.8-0.6c1,0,2,0.2,2.8,0.6c0.9,0.4,1.6,0.9,2.2,1.6
		c0.6,0.7,1.1,1.5,1.5,2.4c0.3,0.9,0.5,1.9,0.5,2.9v0.1c0,1-0.2,1.9-0.5,2.8c-0.3,0.9-0.8,1.7-1.4,2.3c-0.6,0.7-1.3,1.2-2.2,1.6
		c-0.9,0.4-1.8,0.6-2.9,0.6C-19.1,434.5-20,434.3-20.9,434L-20.9,434z M-13.3,438.2c1.5-0.6,2.8-1.5,3.9-2.6
		c1.1-1.1,1.9-2.4,2.6-3.8c0.6-1.5,0.9-3,0.9-4.6V427c0-1.7-0.3-3.2-0.9-4.6c-0.6-1.4-1.5-2.7-2.6-3.8c-1.1-1.1-2.4-1.9-3.9-2.6
		c-1.5-0.6-3.1-0.9-4.9-0.9c-1.8,0-3.4,0.3-4.9,1c-1.5,0.6-2.8,1.5-3.9,2.6c-1.1,1.1-1.9,2.4-2.6,3.8c-0.6,1.5-0.9,3-0.9,4.7v0.1
		c0,1.6,0.3,3.2,0.9,4.6c0.6,1.5,1.5,2.7,2.6,3.8c1.1,1.1,2.4,1.9,3.9,2.6c1.5,0.6,3.1,0.9,4.9,0.9
		C-16.4,439.1-14.8,438.8-13.3,438.2L-13.3,438.2z M7.7,434c-0.8-0.3-1.5-0.8-2.1-1.5c-0.6-0.6-1.1-1.4-1.4-2.3
		c-0.3-0.9-0.5-1.9-0.5-3V427c0-1.1,0.2-2.2,0.5-3.1c0.3-0.9,0.8-1.7,1.4-2.3c0.6-0.6,1.3-1.1,2.1-1.5c0.8-0.3,1.6-0.5,2.5-0.5
		c0.9,0,1.7,0.2,2.5,0.5c0.8,0.3,1.5,0.8,2.1,1.5c0.6,0.6,1.1,1.4,1.5,2.3c0.4,0.9,0.5,1.9,0.5,3v0.1c0,1.1-0.2,2.1-0.5,3
		c-0.4,0.9-0.8,1.7-1.5,2.3c-0.6,0.7-1.3,1.2-2.1,1.5c-0.8,0.3-1.7,0.5-2.5,0.5C9.4,434.5,8.5,434.3,7.7,434L7.7,434z M13.7,437.8
		c1.3-0.8,2.3-1.9,3.2-3.1l0,3.8h5.3v-31.8h-5.3v12.4c-0.8-1.1-1.9-2-3.1-2.8c-1.2-0.8-2.8-1.2-4.7-1.2c-1.4,0-2.7,0.3-4,0.8
		c-1.3,0.5-2.4,1.3-3.4,2.3c-1,1-1.8,2.3-2.4,3.8c-0.6,1.5-0.9,3.2-0.9,5.1v0.1c0,1.9,0.3,3.6,0.9,5.1c0.6,1.5,1.4,2.7,2.4,3.8
		c1,1,2.1,1.8,3.4,2.3c1.3,0.5,2.6,0.8,4,0.8C10.9,439.1,12.4,438.7,13.7,437.8L13.7,437.8z M41,437.9c1.1-0.8,2.1-1.8,2.8-2.9v3.6
		h5.3v-23h-5.3v13c0,1.8-0.5,3.2-1.4,4.2c-1,1-2.2,1.5-3.7,1.5c-1.6,0-2.8-0.5-3.6-1.5c-0.8-1-1.3-2.4-1.3-4.2v-13h-5.3v14.7
		c0,2.7,0.7,4.9,2.1,6.5c1.4,1.6,3.4,2.4,6,2.4C38.4,439.1,39.9,438.7,41,437.9L41,437.9z M72,437.9c1.5-0.8,2.7-1.8,3.9-3.1
		l-3.2-3.1c-0.8,0.8-1.7,1.5-2.7,2.1c-0.9,0.5-2,0.8-3.3,0.8c-1,0-1.9-0.2-2.8-0.6c-0.8-0.4-1.6-0.9-2.2-1.6
		c-0.6-0.7-1.1-1.5-1.4-2.4c-0.3-0.9-0.5-1.9-0.5-2.9V427c0-1,0.2-1.9,0.5-2.8c0.3-0.9,0.8-1.7,1.4-2.3c0.6-0.7,1.3-1.2,2.1-1.6
		c0.8-0.4,1.7-0.6,2.7-0.6c1.3,0,2.5,0.3,3.4,0.8c0.9,0.5,1.8,1.2,2.6,2.1l3.3-3.5c-1.1-1.2-2.3-2.2-3.8-2.9
		c-1.4-0.7-3.2-1.1-5.4-1.1c-1.7,0-3.3,0.3-4.8,1c-1.5,0.6-2.7,1.5-3.8,2.6c-1.1,1.1-1.9,2.4-2.5,3.8s-0.9,3-0.9,4.6v0.1
		c0,1.6,0.3,3.2,0.9,4.6c0.6,1.5,1.4,2.7,2.5,3.8c1.1,1.1,2.3,1.9,3.8,2.6c1.5,0.6,3,0.9,4.8,0.9C68.7,439.1,70.5,438.7,72,437.9
		L72,437.9z M91,438.7c0.8-0.2,1.5-0.5,2.1-0.9v-4.3c-1,0.5-2.1,0.8-3.3,0.8c-0.9,0-1.6-0.2-2.1-0.7c-0.5-0.5-0.7-1.2-0.7-2.2v-11.3
		h6.2v-4.5h-6.2v-6.3h-5.3v6.3h-2.9v4.5h2.9v12.1c0,1.3,0.2,2.3,0.5,3.2c0.3,0.9,0.8,1.5,1.4,2.1c0.6,0.5,1.3,0.9,2.1,1.1
		c0.8,0.2,1.7,0.3,2.7,0.3C89.4,439,90.3,438.9,91,438.7L91,438.7z M130.3,438.7c1.2-0.2,2.3-0.6,3.2-1.1c1-0.5,1.9-1,2.8-1.7
		c0.9-0.7,1.7-1.4,2.5-2.2l-3.4-3.5c-1.3,1.2-2.6,2.2-4,2.9c-1.3,0.7-2.9,1.1-4.8,1.1c-1.5,0-2.8-0.3-4-0.9
		c-1.2-0.6-2.3-1.3-3.2-2.3c-0.9-1-1.6-2.1-2.1-3.5c-0.5-1.3-0.7-2.7-0.7-4.2v-0.1c0-1.5,0.2-2.9,0.7-4.2c0.5-1.3,1.2-2.4,2.1-3.4
		c0.9-1,2-1.7,3.2-2.3c1.2-0.6,2.6-0.9,4-0.9c1.7,0,3.3,0.3,4.7,1c1.4,0.7,2.7,1.6,3.9,2.7l3.4-4c-0.7-0.7-1.5-1.3-2.3-1.9
		c-0.8-0.6-1.7-1.1-2.7-1.5c-1-0.4-2-0.7-3.2-1c-1.1-0.2-2.4-0.3-3.8-0.3c-2.3,0-4.4,0.4-6.4,1.2c-1.9,0.8-3.6,2-5,3.4
		c-1.4,1.4-2.5,3.1-3.3,5c-0.8,1.9-1.2,3.9-1.2,6.1v0.1c0,2.2,0.4,4.2,1.2,6.1c0.8,1.9,1.9,3.6,3.3,5c1.4,1.4,3,2.5,4.9,3.3
		c1.9,0.8,4,1.2,6.2,1.2C127.9,439.1,129.2,439,130.3,438.7L130.3,438.7z M152,434c-0.9-0.4-1.6-0.9-2.2-1.6
		c-0.6-0.7-1.1-1.5-1.5-2.4c-0.3-0.9-0.5-1.8-0.5-2.9V427c0-1,0.2-1.9,0.5-2.8c0.3-0.9,0.8-1.7,1.4-2.3c0.6-0.7,1.3-1.2,2.2-1.6
		c0.9-0.4,1.8-0.6,2.8-0.6c1,0,2,0.2,2.8,0.6c0.9,0.4,1.6,0.9,2.2,1.6c0.6,0.7,1.1,1.5,1.5,2.4c0.3,0.9,0.5,1.9,0.5,2.9v0.1
		c0,1-0.2,1.9-0.5,2.8c-0.3,0.9-0.8,1.7-1.4,2.3c-0.6,0.7-1.3,1.2-2.2,1.6c-0.9,0.4-1.8,0.6-2.9,0.6
		C153.8,434.5,152.9,434.3,152,434L152,434z M159.7,438.2c1.5-0.6,2.8-1.5,3.9-2.6c1.1-1.1,1.9-2.4,2.6-3.8c0.6-1.5,0.9-3,0.9-4.6
		V427c0-1.7-0.3-3.2-0.9-4.6c-0.6-1.4-1.5-2.7-2.6-3.8c-1.1-1.1-2.4-1.9-3.9-2.6c-1.5-0.6-3.1-0.9-4.9-0.9c-1.8,0-3.4,0.3-4.9,1
		c-1.5,0.6-2.8,1.5-3.9,2.6c-1.1,1.1-1.9,2.4-2.6,3.8c-0.6,1.5-0.9,3-0.9,4.7v0.1c0,1.6,0.3,3.2,0.9,4.6c0.6,1.5,1.5,2.7,2.6,3.8
		c1.1,1.1,2.4,1.9,3.9,2.6c1.5,0.6,3.1,0.9,4.9,0.9C156.5,439.1,158.1,438.8,159.7,438.2L159.7,438.2z M172.4,438.6h5.3v-13
		c0-1.8,0.5-3.2,1.4-4.2c1-1,2.2-1.5,3.7-1.5c1.6,0,2.8,0.5,3.6,1.5c0.8,1,1.3,2.4,1.3,4.2v13h5.3v-14.6c0-2.7-0.7-4.9-2.1-6.5
		c-1.4-1.6-3.4-2.4-6-2.4c-0.9,0-1.7,0.1-2.4,0.3c-0.7,0.2-1.4,0.5-2,0.9c-0.6,0.4-1.1,0.8-1.6,1.3c-0.5,0.5-0.9,1-1.2,1.6v-3.6
		h-5.3V438.6L172.4,438.6z M209.8,438.7c0.8-0.2,1.5-0.5,2.1-0.9v-4.3c-1,0.5-2.1,0.8-3.3,0.8c-0.9,0-1.6-0.2-2.1-0.7
		c-0.5-0.5-0.7-1.2-0.7-2.2v-11.3h6.2v-4.5h-6.2v-6.3h-5.3v6.3h-2.9v4.5h2.9v12.1c0,1.3,0.2,2.3,0.5,3.2c0.3,0.9,0.8,1.5,1.4,2.1
		c0.6,0.5,1.3,0.9,2.1,1.1c0.8,0.2,1.7,0.3,2.7,0.3C208.2,439,209.1,438.9,209.8,438.7L209.8,438.7z M217.3,438.6h5.3v-8.8
		c0-1.5,0.2-2.8,0.6-4c0.4-1.1,0.9-2.1,1.6-2.9c0.7-0.8,1.5-1.3,2.5-1.7c1-0.4,2-0.6,3.2-0.6h0.3v-5.6c-2-0.1-3.7,0.4-5.1,1.4
		c-1.3,1-2.4,2.4-3.1,4.2v-5.2h-5.3V438.6L217.3,438.6z M243.6,434c-0.9-0.4-1.6-0.9-2.2-1.6c-0.6-0.7-1.1-1.5-1.5-2.4
		c-0.3-0.9-0.5-1.8-0.5-2.9V427c0-1,0.2-1.9,0.5-2.8c0.3-0.9,0.8-1.7,1.4-2.3c0.6-0.7,1.3-1.2,2.2-1.6c0.9-0.4,1.8-0.6,2.8-0.6
		c1,0,2,0.2,2.8,0.6c0.9,0.4,1.6,0.9,2.2,1.6c0.6,0.7,1.1,1.5,1.5,2.4c0.3,0.9,0.5,1.9,0.5,2.9v0.1c0,1-0.2,1.9-0.5,2.8
		c-0.3,0.9-0.8,1.7-1.4,2.3c-0.6,0.7-1.3,1.2-2.2,1.6c-0.9,0.4-1.8,0.6-2.9,0.6C245.4,434.5,244.4,434.3,243.6,434L243.6,434z
		 M251.2,438.2c1.5-0.6,2.8-1.5,3.9-2.6c1.1-1.1,1.9-2.4,2.6-3.8c0.6-1.5,0.9-3,0.9-4.6V427c0-1.7-0.3-3.2-0.9-4.6
		c-0.6-1.4-1.5-2.7-2.6-3.8c-1.1-1.1-2.4-1.9-3.9-2.6c-1.5-0.6-3.1-0.9-4.9-0.9c-1.8,0-3.4,0.3-4.9,1c-1.5,0.6-2.8,1.5-3.9,2.6
		c-1.1,1.1-1.9,2.4-2.6,3.8c-0.6,1.5-0.9,3-0.9,4.7v0.1c0,1.6,0.3,3.2,0.9,4.6c0.6,1.5,1.5,2.7,2.6,3.8c1.1,1.1,2.4,1.9,3.9,2.6
		c1.5,0.6,3.1,0.9,4.9,0.9C248.1,439.1,249.7,438.8,251.2,438.2L251.2,438.2z M264.3,438.6h5.3v-31.8h-5.3V438.6L264.3,438.6z"/>
	<path class="st0" d="M228.8,0.1c-3.5,0.7-7,0.6-10.3-0.3c-4.1,8.5-11.6,17.6-21.8,26.6c-9-9.6-19.8-19.3-32.4-28.7
		c4.5-15,7.5-29.3,9-42.4c13.6,1.2,25,4,33.3,8.4c2.1-2.7,4.9-4.8,8.1-6.4c-10-6.3-23.9-10.2-40.6-11.7c0.9-16.7-0.9-31.1-5.6-41.9
		c-2,2.9-4.5,5.4-7.5,7c3.2,8.9,4.2,20.7,3.4,34.2c-13.1-0.5-27.7,0.5-43.1,2.8c-7.4-13.9-15.5-26.1-23.7-36.4
		c10.4-8.8,20.5-14.8,29.5-17.6c-0.4-3.4,0-6.8,1.2-10.2c-11.5,2.6-24.1,9.7-37,20.4c-11.2-12.5-22.6-21.4-33.6-25.7
		c0.7,3.5,0.6,7-0.3,10.3c8.5,4.1,17.6,11.6,26.6,21.8c-9.6,9-19.3,19.8-28.7,32.4c-15-4.5-29.3-7.5-42.4-9c1.2-13.6,4-25,8.4-33.3
		c-2.7-2.1-4.8-4.9-6.4-8.1C8.9-97.6,5-83.7,3.4-67c-16.7-0.9-31.1,0.9-41.9,5.6c2.9,2,5.4,4.5,7,7.5c8.9-3.2,20.7-4.2,34.2-3.4
		C2.3-44.2,3.2-29.6,5.4-14.1C-8.3-6.7-20.6,1.3-30.8,9.5C-39.6-0.9-45.7-11-48.5-20.1c-3.4,0.4-6.8,0-10.2-1.2
		c2.6,11.5,9.7,24.1,20.4,37c-12.5,11.2-21.4,22.6-25.7,33.6c3.5-0.7,7-0.6,10.3,0.3C-49.6,41.1-42.1,32-31.9,23
		c9,9.6,19.8,19.3,32.4,28.7C-4,66.7-7,81-8.4,94.1c-13.6-1.2-25-4-33.3-8.4c-2.1,2.7-4.9,4.8-8.1,6.4c10,6.3,23.9,10.2,40.6,11.7
		c-0.9,16.7,0.9,31.1,5.6,41.9c2-2.9,4.5-5.4,7.5-7c-3.2-8.9-4.2-20.7-3.4-34.2c13.1,0.5,27.7-0.5,43.1-2.8
		C51,115.5,59,127.7,67.2,138c-10.4,8.8-20.5,14.8-29.5,17.6c0.4,3.4,0,6.8-1.2,10.2c11.5-2.6,24.1-9.7,37-20.4
		c11.2,12.5,22.6,21.4,33.6,25.7c-0.7-3.5-0.6-7,0.3-10.3c-8.5-4.1-17.6-11.6-26.6-21.8c9.6-9,19.3-19.8,28.7-32.4
		c15,4.5,29.3,7.5,42.4,9c-1.2,13.6-4,25-8.4,33.3c2.7,2.1,4.8,4.9,6.4,8.1c6.3-10,10.2-23.9,11.7-40.6c16.7,0.9,31.1-0.9,41.9-5.6
		c-2.9-2-5.4-4.5-7-7.5c-8.9,3.2-20.7,4.2-34.2,3.4c0.5-13.2-0.4-27.7-2.6-43.2c13.8-7.4,26-15.4,36.3-23.5
		c8.8,10.4,14.8,20.5,17.6,29.5c3.4-0.4,6.8,0,10.2,1.2c-2.6-11.5-9.7-24.1-20.4-37C215.7,22.5,224.5,11.1,228.8,0.1L228.8,0.1z
		 M115.6,98.2c4.4-6.3,8.7-13,12.9-20c7.6-3.1,14.8-6.4,21.7-9.8c1.8,13.4,2.5,26.1,2.2,37.5C141,104.4,128.6,101.9,115.6,98.2
		L115.6,98.2z M16.2-8.6c4-2,8-4,12.2-6c-1.7,3.1-3.4,6.3-5,9.5c-1.6,3.2-3.2,6.5-4.7,9.7C17.8,0.1,17-4.3,16.2-8.6L16.2-8.6z
		 M16.5,35.2c1,3.4,2.1,6.8,3.2,10.2c1.1,3.4,2.3,6.8,3.5,10.1c-3.8-2.5-7.6-5-11.2-7.6C13.4,43.7,14.9,39.5,16.5,35.2L16.5,35.2z
		 M32.1-0.7c3.5-7,7.3-13.8,11.1-20.3c7-2.8,14.2-5.4,21.6-7.9c7.4-2.4,14.8-4.6,22-6.5c7,3,14,6.1,21,9.7c7,3.5,13.8,7.3,20.3,11.1
		c2.8,7,5.4,14.2,7.9,21.6c2.4,7.4,4.6,14.8,6.5,22c-3,7-6.1,14-9.7,21c-3.5,7-7.3,13.8-11.1,20.3c-7,2.8-14.2,5.4-21.6,7.9
		c-7.4,2.4-14.8,4.6-22,6.5c-7-3-14-6.1-21-9.7c-7-3.5-13.8-7.3-20.3-11.1c-2.8-7-5.4-14.2-7.9-21.6s-4.6-14.8-6.5-22
		C25.4,13.4,28.6,6.3,32.1-0.7L32.1-0.7z M141.5,54.5c1.6-3.2,3.2-6.5,4.7-9.7c0.9,4.5,1.8,8.9,2.5,13.2c-4,2-8,4-12.2,6
		C138.2,60.8,139.9,57.7,141.5,54.5L141.5,54.5z M141.7-6.1c3.8,2.5,7.6,5,11.2,7.6c-1.4,4.2-2.9,8.5-4.5,12.8
		c-1-3.4-2.1-6.8-3.2-10.2C144.1,0.6,142.9-2.8,141.7-6.1L141.7-6.1z M105.7,95.1c-4.2-1.4-8.5-2.9-12.8-4.5c3.4-1,6.8-2.1,10.2-3.2
		c3.4-1.1,6.8-2.3,10.1-3.5C110.8,87.8,108.3,91.5,105.7,95.1L105.7,95.1z M53.9,100c7.6-1.4,15.4-3,23.3-5c7.5,3.1,15,6,22.3,8.4
		c-8.3,10.8-16.7,20.2-25,28C67.4,122.5,60.5,111.8,53.9,100L53.9,100z M43.2,78.7c3.1,1.7,6.3,3.4,9.5,5c3.2,1.6,6.5,3.2,9.7,4.7
		c-4.5,1-8.9,1.7-13.3,2.5C47,86.9,45.1,82.9,43.2,78.7L43.2,78.7z M1.4,94.6C2.7,83.2,5.3,70.8,9,57.8c6.3,4.4,13,8.7,20,12.9
		c3.1,7.5,6.4,14.7,9.8,21.6C25.4,94.1,12.8,94.9,1.4,94.6L1.4,94.6z M12.2,19.5c-3.1,7.5-6,15-8.4,22.3c-10.8-8.3-20.2-16.7-28-25
		c9-7,19.7-13.9,31.4-20.5C8.5,3.8,10.2,11.6,12.2,19.5L12.2,19.5z M49.4-48.8c-4.4,6.3-8.7,13-12.9,20c-7.6,3.1-14.8,6.4-21.7,9.8
		c-1.8-13.4-2.5-26.1-2.2-37.5C23.9-55,36.3-52.5,49.4-48.8L49.4-48.8z M59.2-45.7c4.2,1.4,8.5,2.9,12.8,4.5
		c-3.4,1-6.8,2.1-10.2,3.2c-3.4,1.1-6.8,2.3-10.1,3.5C54.1-38.4,56.7-42.1,59.2-45.7L59.2-45.7z M111-50.6c-7.6,1.4-15.4,3-23.3,5
		c-7.5-3.1-15-6-22.3-8.4c8.2-10.8,16.7-20.2,25-28C97.5-73.1,104.5-62.5,111-50.6L111-50.6z M121.7-29.3c-3.1-1.7-6.3-3.4-9.5-5
		c-3.2-1.6-6.5-3.2-9.7-4.7c4.5-0.9,8.9-1.7,13.3-2.4C117.9-37.5,119.8-33.5,121.7-29.3L121.7-29.3z M163.6-45.2
		c-1.4,11.4-3.9,23.8-7.6,36.8c-6.3-4.4-13-8.7-20-12.9c-3.1-7.5-6.4-14.7-9.8-21.6C139.5-44.7,152.2-45.5,163.6-45.2L163.6-45.2z
		 M189.2,32.6c-9,7-19.7,13.9-31.4,20.5c-1.4-7.6-3-15.3-5-23.2c3.1-7.5,6-15,8.4-22.3C172,15.9,181.4,24.3,189.2,32.6L189.2,32.6z"
		/>
	<path class="st1" d="M103.7,50.5c2.6-1.8,4.7-3.9,6.2-6.2c1.5-2.3,2.5-4.8,2.8-7.5c0.4-2.7,0.1-5.5-0.9-8.5l-0.1-0.2
		c-0.9-2.7-2.2-4.9-3.8-6.5c-1.6-1.6-3.6-2.8-6-3.6c-2.3-0.8-5-1.2-8-1.3c-3-0.1-6.3,0.1-9.9,0.4c-2.1,0.2-3.9,0.3-5.4,0.3
		c-1.4,0-2.6-0.1-3.5-0.2c-0.9-0.2-1.6-0.5-2-0.8c-0.5-0.4-0.8-0.9-1-1.6l-0.1-0.2c-0.3-1.1-0.2-2.1,0.6-3.1c0.7-1,2.1-1.9,4-2.5
		c2.6-0.9,5.5-1.3,8.6-1.2c3.1,0,6.3,0.6,9.6,1.6l4.3-14.1C95.2-6.2,91-7,86.7-7c-4.3,0-9,0.8-14,2.4c-3.5,1.2-6.5,2.6-8.9,4.5
		c-2.5,1.8-4.4,3.9-5.8,6.2c-1.4,2.3-2.3,4.8-2.5,7.4c-0.3,2.6,0,5.3,0.9,8l0.1,0.2c1,3,2.4,5.3,4.2,6.9c1.8,1.6,3.9,2.8,6.3,3.5
		c2.4,0.7,5.1,1.1,8,1c2.9,0,6.1-0.2,9.4-0.5c2.1-0.2,3.9-0.3,5.3-0.3c1.4,0,2.5,0.1,3.4,0.3c0.9,0.2,1.6,0.5,2,0.9
		c0.4,0.4,0.7,0.9,0.9,1.5l0.1,0.2c0.4,1.3,0.2,2.4-0.7,3.5c-0.9,1.1-2.4,2-4.6,2.7c-6.8,2.2-13.8,2-21.2-0.8L64,54.2
		c4.7,2,9.6,3.1,14.8,3.2c5.2,0.1,10.4-0.8,15.6-2.5C98.1,53.8,101.1,52.3,103.7,50.5L103.7,50.5z"/>
	<path class="st1" d="M76.5-10.1l-2.8-8.4l-12,3.9l2.9,8.9c2-1.2,4.1-2.2,6.6-3C73.1-9.3,74.8-9.7,76.5-10.1L76.5-10.1z"/>
	<path class="st1" d="M86.7,61.1l2.5,7.5l12-3.9l-2.2-6.7c-1,0.4-2,0.9-3.1,1.2C92.8,60.1,89.8,60.7,86.7,61.1L86.7,61.1z"/>
	<path class="st1" d="M239.4-27c-2.7-8.3-11.6-12.8-19.9-10c-8.3,2.7-12.8,11.6-10,19.9c2.7,8.3,11.6,12.8,19.9,10
		C237.6-9.9,242.1-18.8,239.4-27L239.4-27z"/>
	<path class="st1" d="M163.8-101.7c3.9-7.8,0.8-17.2-7-21.2c-7.8-3.9-17.2-0.8-21.2,7c-3.9,7.8-0.8,17.2,7,21.2
		C150.4-90.8,159.9-93.9,163.8-101.7L163.8-101.7z"/>
	<path class="st1" d="M50.6-122.2c-2.7-8.3-11.6-12.8-19.9-10c-8.3,2.7-12.8,11.6-10,19.9c2.7,8.3,11.6,12.8,19.9,10
		C48.9-105,53.3-113.9,50.6-122.2L50.6-122.2z"/>
	<path class="st1" d="M-43.9-56.6c-7.8-3.9-17.2-0.8-21.2,7c-3.9,7.8-0.8,17.2,7,21.2c7.8,3.9,17.2,0.8,21.2-7
		C-33-43.3-36.1-52.7-43.9-56.6L-43.9-56.6z"/>
	<path class="st1" d="M-64.4,56.5c-8.3,2.7-12.8,11.6-10,19.9c2.7,8.3,11.6,12.8,19.9,10c8.3-2.7,12.8-11.6,10-19.9
		C-47.2,58.3-56.2,53.8-64.4,56.5L-64.4,56.5z"/>
	<path class="st1" d="M1.1,151.1c-3.9,7.8-0.8,17.2,7,21.2c7.8,3.9,17.2,0.8,21.2-7c3.9-7.8,0.8-17.2-7-21.2
		C14.5,140.2,5,143.3,1.1,151.1L1.1,151.1z"/>
	<path class="st1" d="M114.3,171.6c2.7,8.3,11.6,12.8,19.9,10c8.3-2.7,12.8-11.6,10-19.9c-2.7-8.3-11.6-12.7-19.9-10
		C116.1,154.4,111.6,163.3,114.3,171.6L114.3,171.6z"/>
	<path class="st1" d="M208.8,106c7.8,3.9,17.2,0.8,21.2-7c3.9-7.8,0.8-17.2-7-21.2c-7.8-3.9-17.2-0.8-21.2,7
		C197.9,92.6,201.1,102.1,208.8,106L208.8,106z"/>
</g>
</svg>
