<?xml version="1.0" encoding="utf-8"?>
<!-- Generator: Adobe Illustrator 25.0.0, SVG Export Plug-In . SVG Version: 6.00 Build 0)  -->
<svg version="1.1" id="Layer_1" xmlns="http://www.w3.org/2000/svg" xmlns:xlink="http://www.w3.org/1999/xlink" x="0px" y="0px"
	 viewBox="0 0 718.6 161.1" style="enable-background:new 0 0 718.6 161.1;" xml:space="preserve">
<style type="text/css">
	.st0{fill:#000029;}
	.st1{fill:#008FFF;}
</style>
<g>
	<path class="st0" d="M37.2,80.2c-14.2,0-26.3-4.6-37.2-11.5l6.7-10.2c10.9,7,20.9,10.3,32.2,10.3c13.2,0,19.3-5.1,19.3-11
		c0-17.1-55.7-6.9-55.7-34.1C2.6,10.5,15.9,0,37.2,0c14.4,0,26.9,5.4,34.2,12.7l-8.3,8.5c-6.3-5.5-16-9.9-26.1-9.9
		c-12.5,0-20.9,4.5-20.9,10.9c0,15.9,55.8,7.4,55.8,34.2C71.9,70.6,57.6,80.2,37.2,80.2L37.2,80.2z M126.4,47.5v30h-13.5V47.3
		L79.2,2.6h15.7l25.3,34.6l24-34.6h15.5L126.4,47.5L126.4,47.5z M253.8,77.5V18.8l-3.7,8l-26.5,50.7h-8.1l-26.2-50.7l-3.7-8v58.7
		h-12.9V2.6h18.8L216.6,53l3.5,7.6l3.5-7.6l24.9-50.4H267v74.9H253.8L253.8,77.5z M340.4,24.9c0-6.2-4.2-10.8-14.4-10.8h-24.9v24.2
		h25.4c10.2,0,13.8-5,13.8-11V24.9L340.4,24.9z M324.5,49.3h-23.4v28.2h-13.5V2.6h36.9c20.5,0,29.5,9.2,29.5,22.3v2
		C354,39.9,345,49.3,324.5,49.3L324.5,49.3z M427.5,77.5V45.2h-45.1v32.3H369V2.6h13.5v31.7h45.1V2.6H441v74.9H427.5L427.5,77.5z
		 M522.5,35.4c0-12.8-8.9-23.8-25.3-23.8c-16.4,0-25.2,11-25.2,23.8v9.1c0,12.8,8.8,24.1,25.2,24.1c16.4,0,25.3-11.2,25.3-24.1V35.4
		L522.5,35.4z M497.2,80.2c-24.1,0-38.8-17.1-38.8-35.4v-9.3c0-18.7,14.7-35.4,38.8-35.4c24.2,0,38.9,16.8,38.9,35.4v9.3
		C536.1,63.1,521.4,80.2,497.2,80.2L497.2,80.2z M614.1,77.5l-42-47.3l-5.4-7v54.3h-13.4V2.6h12.5L606.4,50l5.5,7V2.6h13.3v74.9
		H614.1L614.1,77.5z M685.3,47.5v30h-13.5V47.3L638,2.6h15.8l25.3,34.6l24-34.6h15.5L685.3,47.5L685.3,47.5z"/>
	<path class="st1" d="M5.3,160.4h9.8v-17.2h21.3v-8.9H15.1v-9.5h24.1v-8.9H5.3V160.4L5.3,160.4z M65.7,161.1
		c12,0,19.5-6.6,19.5-20.1v-25.1h-9.8v25.5c0,7.1-3.6,10.7-9.6,10.7c-6,0-9.6-3.8-9.6-11v-25.2h-9.8v25.5
		C46.4,154.4,53.7,161.1,65.7,161.1L65.7,161.1z M116.7,161.1c8.1,0,14.4-3.2,19-7.1v-19.3h-19.3v8.5h9.9v6.4
		c-2.5,1.8-5.7,2.7-9.2,2.7c-7.9,0-13.5-6-13.5-14.1V138c0-7.6,5.7-13.9,12.8-13.9c5.2,0,8.2,1.7,11.6,4.5l6.2-7.4
		c-4.6-3.9-9.5-6.1-17.5-6.1c-13.5,0-23.4,10.4-23.4,23v0.1C93.2,151.4,102.8,161.1,116.7,161.1L116.7,161.1z M163.7,161.1
		c12,0,19.5-6.6,19.5-20.1v-25.1h-9.8v25.5c0,7.1-3.6,10.7-9.6,10.7c-6,0-9.6-3.8-9.6-11v-25.2h-9.8v25.5
		C144.4,154.4,151.7,161.1,163.7,161.1L163.7,161.1z M193.2,160.4h33.9v-8.7h-24.2v-9.4h21v-8.7h-21v-9h23.9v-8.7h-33.6V160.4
		L193.2,160.4z"/>
</g>
</svg>
