<?xml version="1.0" encoding="utf-8"?>
<!-- Generator: Adobe Illustrator 25.0.0, SVG Export Plug-In . SVG Version: 6.00 Build 0)  -->
<svg version="1.1" id="Layer_1" xmlns="http://www.w3.org/2000/svg" xmlns:xlink="http://www.w3.org/1999/xlink" x="0px" y="0px"
	 viewBox="0 0 722 414.5" style="enable-background:new 0 0 722 414.5;" xml:space="preserve">
<style type="text/css">
	.st0{clip-path:url(#SVGID_3_);}
	.st1{fill:#00C389;}
	.st2{fill:#2F2A95;}
</style>
<g>
	<g>
		<defs>
			<path id="SVGID_1_" d="M438.5,73.4L369.4,4.3c-5.7-5.7-14.9-5.7-20.6,0l-20.5,20.5l26,26c6-2,13-0.7,17.8,4.1
				c4.8,4.8,6.2,11.8,4.1,17.9l0.7,0.7H438.5L438.5,73.4z M343.9,60.4l-25.6-25.6l-67.6,67.6c-5.7,5.7-5.7,14.9,0,20.6l98.6,98.6
				c5.7,5.7,14.9,5.7,20.6,0l59.7-59.7h-52.5c-0.2,4.2-1.8,8.3-5,11.5c-6.8,6.8-17.7,6.8-24.5,0c-6.8-6.8-6.8-17.7,0-24.5
				c1.7-1.7,3.6-2.9,5.7-3.8v-62c-2.1-0.8-4-2.1-5.7-3.8c-0.8-0.8-1.5-1.7-2.1-2.6c-0.1-0.1-0.2-0.3-0.3-0.4
				C342.2,71.4,341.7,65.5,343.9,60.4L343.9,60.4z M390.6,108.1h-23.1v16.1h25.3C389.4,119.5,388.7,113.4,390.6,108.1L390.6,108.1z
				 M383.7,100.4l-16.2-16.2v16.2H383.7L383.7,100.4z M420.7,124.2h46.3l0.8-0.8c4.1-4.1,5.2-10.1,3.3-15.3H423
				C425,113.4,424.2,119.5,420.7,124.2L420.7,124.2z M372.1,148.8c1.5,1.5,2.7,3.3,3.5,5.2h61.7l22.1-22.1h-91.9v13.6
				C369.1,146.4,370.7,147.4,372.1,148.8L372.1,148.8z M417.4,100.4h48.1l-19.3-19.3h-61.6l16.6,16.6
				C406.6,95.9,412.7,96.7,417.4,100.4L417.4,100.4z"/>
		</defs>
		<linearGradient id="SVGID_2_" gradientUnits="userSpaceOnUse" x1="246.4446" y1="112.8686" x2="472.1563" y2="112.8686">
			<stop  offset="0" style="stop-color:#1E1464"/>
			<stop  offset="0.9997" style="stop-color:#2A2A8B"/>
		</linearGradient>
		<use xlink:href="#SVGID_1_"  style="overflow:visible;fill:url(#SVGID_2_);"/>
		<clipPath id="SVGID_3_">
			<use xlink:href="#SVGID_1_"  style="overflow:visible;"/>
		</clipPath>
		<g class="st0">
			<defs>
				<rect id="SVGID_4_" x="245" y="-1.4" width="228.1" height="228.6"/>
			</defs>
			<linearGradient id="SVGID_5_" gradientUnits="userSpaceOnUse" x1="245.0254" y1="112.8684" x2="473.1454" y2="112.8684">
				<stop  offset="0" style="stop-color:#1E1464"/>
				<stop  offset="0.9997" style="stop-color:#2A2A8B"/>
			</linearGradient>
			<use xlink:href="#SVGID_4_"  style="overflow:visible;fill:url(#SVGID_5_);"/>
			<clipPath id="SVGID_6_">
				<use xlink:href="#SVGID_4_"  style="overflow:visible;"/>
			</clipPath>
		</g>
	</g>
	<path class="st1" d="M279.7,73.4h-12.5V39.2h-30.7c-1.6-4.5-5.8-7.7-10.9-7.7c-6.4,0-11.6,5.2-11.6,11.6c0,6.4,5.2,11.6,11.6,11.6
		c5,0,9.3-3.2,10.9-7.7h23v34.2H272L279.7,73.4L279.7,73.4z"/>
	<path class="st1" d="M252.7,100.4h-87.1c-1.6-4.5-5.8-7.7-10.9-7.7c-6.4,0-11.6,5.2-11.6,11.6c0,6.4,5.2,11.6,11.6,11.6
		c5,0,9.3-3.2,10.9-7.7h81.7c0.7-2.1,1.8-4.1,3.5-5.7L252.7,100.4L252.7,100.4z"/>
	<path class="st1" d="M179.1,187.6c0,6.4,5.2,11.6,11.6,11.6c6.4,0,11.6-5.2,11.6-11.6c0-5-3.2-9.3-7.7-10.9V132h65.2l-7.7-7.7
		h-65.2v52.5C182.3,178.3,179.1,182.6,179.1,187.6L179.1,187.6z"/>
	<path class="st1" d="M215.5,199.2c0,6.4,5.2,11.6,11.6,11.6c6.4,0,11.6-5.2,11.6-11.6c0-5-3.2-9.3-7.7-10.9v-26.5h58.6l-7.7-7.7
		h-58.6v34.3C218.8,189.9,215.5,194.1,215.5,199.2L215.5,199.2z"/>
	<path class="st1" d="M578.9,50.6c0-6.4-5.2-11.6-11.6-11.6c-5,0-9.3,3.2-10.9,7.7h-46v53.7H353.3v7.7h164.9V54.4h38.3
		c1.6,4.5,5.8,7.7,10.9,7.7C573.8,62.2,578.9,57,578.9,50.6L578.9,50.6z"/>
	<path class="st1" d="M487.8,207.9c0,6.4,5.2,11.6,11.6,11.6c6.4,0,11.6-5.2,11.6-11.6c0-5-3.2-9.3-7.7-10.9v-43H344.1
		c-1.1,2.5-1.6,5.1-1.5,7.7h152.9V197C491,198.6,487.8,202.9,487.8,207.9L487.8,207.9z"/>
	<path class="st1" d="M353.3,132h176.6c1.6,4.5,5.8,7.7,10.9,7.7c6.4,0,11.6-5.2,11.6-11.6c0-6.4-5.2-11.6-11.6-11.6
		c-5,0-9.3,3.2-10.9,7.7H353.3V132L353.3,132z"/>
	<path class="st1" d="M485.7,12.7c0-6.4-5.2-11.6-11.6-11.6c-6.4,0-11.6,5.2-11.6,11.6c0,5,3.2,9.3,7.7,10.9v49.8H343.8
		c0.8,2.2,2.1,4.2,3.8,5.9c0.7,0.7,1.4,1.2,2.2,1.8H478V23.5C482.5,21.9,485.7,17.7,485.7,12.7L485.7,12.7z"/>
	<path class="st1" d="M249.3,411.1c0,1,0.9,1.9,1.9,1.9h2.7c1.5,0,2.4-0.9,2.4-1.9v-35.2h27.1c18.3,0,33.5-15.2,33.5-33.8
		c0-18.3-15.2-33.4-33.7-33.4h-32.1c-1,0-1.9,0.9-1.9,1.9V411.1L249.3,411.1z M256.3,369.1v-53.4h26.5c14.8,0,27.1,11.6,27.1,26.2
		c0,15.1-12.4,27.1-27,27.1H256.3L256.3,369.1z M340.8,411.1c0,1,0.9,1.9,1.9,1.9h2.7c1.5,0,2.4-0.9,2.4-1.9v-38.3h27.4
		c1.9,0,3.6,0,5.5-0.1l21.6,39.1c0.4,0.9,1,1.3,2.1,1.3h4.6c1.5,0,1.8-1.5,1-2.7l-21.8-38.6c14.2-4,24.6-16.1,24.6-31.2
		c0-18.2-15.1-31.9-33.2-31.9h-37c-1.2,0-1.9,0.9-1.9,1.9V411.1L340.8,411.1z M348,366.5v-51h31.3c14.5,0,26.5,10.9,26.5,25
		c0,14.8-12.1,25.9-26.4,25.9H348L348,366.5z M433.3,361c0,30,23.9,53.5,53.7,53.5c30,0,53.8-23.6,53.8-53.5
		c0-29.8-23.9-53.8-53.8-53.8C457.1,307.2,433.3,331.2,433.3,361L433.3,361z M439.8,361c0-26.1,21-47.3,47.1-47.3
		c26.1,0,47.3,21.2,47.3,47.3c0,26.1-21.2,47-47.3,47C460.8,408,439.8,387.1,439.8,361L439.8,361z M556.1,410.8
		c-0.7,1.2-0.3,2.2,1.2,2.2h4.8c0.7,0,1.5-0.3,1.9-0.9l28.8-46.1h0.1l29.2,46.1c0.4,0.6,1.2,0.9,1.9,0.9h4.8c1.5,0,1.9-1,1.2-2.2
		l-32.7-51.1l30.7-48.8c0.7-1.2,0.3-2.2-1.2-2.2h-4.8c-0.7,0-1.5,0.3-1.9,0.9l-27.3,43.8h-0.1l-27-43.8c-0.4-0.6-1.2-0.9-1.9-0.9
		h-4.8c-1.5,0-1.9,1-1.2,2.2l30.6,48.8L556.1,410.8L556.1,410.8z M675.8,411.1c0,2.4,3.1,1.9,5.1,1.9c1,0,1.9-0.9,1.9-1.9v-48.9
		l38.8-51.3c0.9-1.2,0.3-2.2-1.2-2.2h-4.5c-0.7,0-1.5,0.3-1.9,0.9l-34.6,46.4l-34-46.4c-0.4-0.6-1.2-0.9-1.9-0.9H639
		c-1.5,0-2.1,1-1.2,2.2l38,51.4V411.1L675.8,411.1z"/>
	<path class="st2" d="M0,361c0,29.8,23.9,53.4,53.5,53.4c21.6,0,37-9.7,37-9.7c0.6-0.4,1.2-1.6,1.2-2.4l-0.1-40.1
		c0-1.5-1.2-2.8-2.7-2.8h-30c-1.6,0-2.8,1.2-2.8,2.8V377c0,1.5,1.2,2.7,2.8,2.7h9.4v8.6c-4.5,1.8-8.9,2.4-13.3,2.4
		c-16.3,0-29.5-13.4-29.5-29.7c0-16.4,13.1-30.1,29.4-30.1c7.3,0,13.9,1.9,19.5,7.2c1.2,0.9,2.8,0.9,4-0.1l11.8-12.5
		c1.2-1.2,1-3-0.3-4c-10.1-8.8-23.9-14-36.4-14C23.9,307.3,0,331.2,0,361L0,361z M115.1,410.2c0,1.5,1.3,2.8,2.8,2.8h17.9
		c1.5,0,2.8-1.3,2.8-2.8v-98.7c0-1.5-1.3-2.8-2.8-2.8h-17.9c-1.5,0-2.8,1.3-2.8,2.8V410.2L115.1,410.2z M180.7,410.2
		c0,1.5,1.3,2.8,2.8,2.8h17.9c1.5,0,2.8-1.3,2.8-2.8v-79.6h21.3c1.6,0,2.8-1.3,2.8-2.8v-16.3c0-1.5-1.2-2.8-2.8-2.8h-66.2
		c-1.6,0-2.8,1.3-2.8,2.8v16.3c0,1.5,1.2,2.8,2.8,2.8h21.3V410.2L180.7,410.2z"/>
</g>
</svg>
