<?xml version="1.0" encoding="utf-8"?>
<!-- Generator: Adobe Illustrator 24.2.3, SVG Export Plug-In . SVG Version: 6.00 Build 0)  -->
<svg version="1.1" id="Layer_1" xmlns="http://www.w3.org/2000/svg" xmlns:xlink="http://www.w3.org/1999/xlink" x="0px" y="0px"
	 viewBox="0 0 483.8 541.4" style="enable-background:new 0 0 483.8 541.4;" xml:space="preserve">
<style type="text/css">
	.st0{fill:#D1D1CF;}
	.st1{fill:#7AB0D4;}
</style>
<g>
	<polygon class="st0" points="345.3,126.7 330.7,141.4 256.6,141.4 256.6,215.4 241.9,230.1 227.3,215.4 227.2,141.4 153.2,141.4 
		138.6,126.7 153.2,112.1 227.3,112 227.3,38 242,23.3 256.6,37.9 256.6,112 330.7,112 345.3,126.7 	"/>
	<polygon class="st0" points="288.6,173.2 269.9,173.3 242,145.3 214.3,172.8 195.7,172.8 195.7,154.2 223.3,126.6 194.6,97.9 
		194.6,79.3 213.3,79.3 242,107.9 270.6,79.3 289.3,79.4 289.3,98 260.6,126.6 288.6,154.6 288.6,173.2 	"/>
	<polygon class="st1" points="259.1,31.3 242,14.3 224.9,31.3 217.8,24.2 242,0 266.2,24.2 259.1,31.3 	"/>
	<polygon class="st1" points="139.8,150.5 115.6,126.3 139.8,102 146.9,109.2 129.8,126.3 146.9,143.4 139.8,150.5 	"/>
	<polygon class="st1" points="241.9,252.6 217.6,228.4 224.8,221.3 241.9,238.4 259,221.3 266.1,228.4 241.9,252.6 	"/>
	<polygon class="st1" points="344,150.6 336.9,143.5 354,126.4 336.9,109.3 344,102.2 368.2,126.4 344,150.6 	"/>
	<polygon class="st1" points="323.6,77 291.7,77 291.7,45.1 301.8,45.1 301.8,66.9 323.6,66.9 323.6,77 	"/>
	<polygon class="st0" points="327.8,61.6 307.1,61.6 307.1,40.9 313.7,40.9 313.7,55 327.8,55 327.8,61.6 	"/>
	<polygon class="st1" points="192.3,77 160.4,77 160.4,66.9 182.2,66.9 182.2,45.1 192.3,45.1 192.3,77 	"/>
	<polygon class="st0" points="176.9,61.6 156.2,61.6 156.2,55 170.3,55 170.3,40.9 176.9,40.9 176.9,61.6 	"/>
	<polygon class="st1" points="301.8,207.7 291.7,207.7 291.7,175.8 323.6,175.8 323.6,185.9 301.8,185.9 301.8,207.7 	"/>
	<polygon class="st0" points="313.7,211.9 307.1,211.9 307.1,191.2 327.8,191.2 327.8,197.8 313.7,197.8 313.7,211.9 	"/>
	<polygon class="st1" points="192.3,207.7 182.2,207.7 182.2,185.9 160.4,185.9 160.4,175.8 192.3,175.8 192.3,207.7 	"/>
	<polygon class="st0" points="176.9,211.9 170.3,211.9 170.3,197.8 156.2,197.8 156.2,191.2 176.9,191.2 176.9,211.9 	"/>
	<path class="st1" d="M66.5,421.7c15,0,29.3,5.8,40.6,15.5c1.3,1.3,1.5,3.3,0.2,4.7l-10.3,10.8c-1.3,1.3-2.8,1.3-4.3,0
		c-7.2-6.3-16-9.6-25.1-9.6c-20.8,0-37.3,17.8-37.3,38.6c0,20.6,16.5,38.1,37.4,38.1c9.3,0,16.5-2.8,19.8-4.2v-14.1H74.1
		c-1.8,0-3.2-1.3-3.2-3v-13.1c0-1.8,1.3-3.2,3.2-3.2h31.9c1.7,0,3,1.5,3,3.2v42.6c0,1.3-0.7,2.2-1.3,2.7c0,0-17.1,10.8-41.3,10.8
		c-33.1,0-59.7-26.3-59.7-59.5C6.8,448.5,33.4,421.7,66.5,421.7L66.5,421.7z"/>
	<path class="st1" d="M154.6,426.5c0-1.7,1.3-3.2,3.2-3.2h15.3c1.7,0,3.2,1.5,3.2,3.2v93.3h42.4c1.8,0,3.2,1.5,3.2,3.2v13.6
		c0,1.7-1.3,3.2-3.2,3.2h-60.9c-1.8,0-3.2-1.5-3.2-3.2V426.5L154.6,426.5z"/>
	<path class="st1" d="M258.1,426.5c0-1.7,1.5-3.2,3.2-3.2h15.8c1.8,0,3.2,1.5,3.2,3.2v68c0,14.1,9.6,25.3,24.1,25.3
		c14.5,0,24.3-11.1,24.3-25.1v-68.2c0-1.7,1.3-3.2,3.2-3.2h15.8c1.7,0,3.2,1.5,3.2,3.2v69.2c0,25.3-20.1,45.7-46.4,45.7
		c-26.1,0-46.2-20.5-46.2-45.7V426.5L258.1,426.5z"/>
	<path class="st1" d="M400.5,426.5c0-1.7,1.3-3.2,3.2-3.2h67.7c1.8,0,3.2,1.5,3.2,3.2v13.6c0,1.7-1.3,3.2-3.2,3.2h-49.2v27.3h41.1
		c1.7,0,3.2,1.5,3.2,3.2v13.8c0,1.8-1.5,3.2-3.2,3.2h-41.1v29.1h49.2c1.8,0,3.2,1.5,3.2,3.2v13.6c0,1.7-1.3,3.2-3.2,3.2h-67.7
		c-1.8,0-3.2-1.5-3.2-3.2V426.5L400.5,426.5z"/>
	<polygon class="st0" points="483.8,321.8 0,321.8 0,319.3 483.8,319.3 483.8,321.8 	"/>
</g>
</svg>
