<?xml version="1.0" encoding="UTF-8"?><svg xmlns="http://www.w3.org/2000/svg" version="1.2" baseProfile="tiny" viewBox="0 0 64 64" width="64px" height="64px"><g fill="#d6e1ee"><rect x="17" y="6" width="1" height="1"/><rect x="49" y="13" width="1" height="1"/><rect height="1" x="6" y="14" width="1"/></g><g fill="#fdfefe"><rect y="11" width="1" height="1" x="46"/><rect width="1" height="1" x="5" y="26"/></g><rect height="1" fill="#e9eff6" x="25" y="12" width="1"/><g fill="#dee7f1"><rect x="25" y="20" width="1" height="1"/><rect x="25" y="21" width="1" height="1"/><rect width="1" height="1" x="20" y="25"/></g><g fill="#7499c6"><rect width="1" height="1" x="20" y="3"/><rect width="1" height="1" x="19" y="13"/><rect y="14" width="1" height="1" x="4"/><rect x="36" y="18" width="1" height="1"/><rect x="18" y="19" width="1" height="1"/><rect x="5" y="23" width="1" height="1"/><rect x="35" y="23" width="1" height="1"/><rect height="1" x="36" y="24" width="1"/><rect x="38" y="25" width="1" height="1"/></g><rect x="30" y="3" width="1" height="1" fill="#83a5cc"/><g fill="#82a4cc"><rect width="1" height="1" x="7" y="4"/><rect y="6" width="1" height="1" x="18"/><rect x="12" y="23" width="1" height="1"/></g><g fill="#e6edf5"><rect x="18" y="7" width="1" height="1"/><rect x="35" y="21" width="1" height="1"/></g><rect x="41" y="7" width="1" height="1" fill="#96b3d4"/><g fill="#8aa9cf"><rect x="11" y="14" width="1" height="1"/><rect x="31" y="18" width="1" height="1"/></g><rect fill="#dfe7f2" x="8" y="23" width="1" height="1"/><g fill="#80a3cb"><rect x="3" y="5" width="1" height="1"/><rect x="6" y="6" width="1" height="1"/><rect x="16" y="7" width="1" height="1"/></g><g fill="#a7bfdb"><rect x="33" y="6" width="1" height="1"/><rect x="18" y="27" width="1" height="1"/></g><g fill="#acc3dd"><rect x="56" y="6" width="1" height="1"/><rect x="33" y="14" width="1" height="1"/></g><g fill="#eef3f8"><rect x="57" y="6" width="1" height="1"/><rect x="5" y="8" width="1" height="1"/><rect y="9" width="1" height="1" x="17"/><rect y="19" width="1" height="1" x="13"/></g><g fill="#759bc7"><rect x="19" y="7" width="1" height="1"/><rect x="7" y="13" width="1" height="1"/><rect height="1" x="45" y="14" width="1"/><rect x="20" y="19" width="1" height="1"/><rect y="20" width="1" height="1" x="9"/><rect x="13" y="22" width="1" height="1"/></g><g fill="#c8d7e9"><rect x="47" y="7" width="1" height="1"/><rect x="36" y="27" width="1" height="1"/></g><g fill="#a8bfdb"><rect width="1" height="1" x="27" y="8"/><rect height="1" x="23" y="14" width="1"/></g><g fill="#d7e2ef"><rect y="19" width="1" height="1" x="29"/><rect x="4" y="20" width="1" height="1"/></g><g fill="#a4bdda"><rect width="1" height="9" x="23" y="4"/><rect width="1" height="1" x="23" y="13"/><rect x="28" y="16" width="1" height="1"/><rect x="22" y="24" width="1" height="1"/></g><g fill="#adc3dd"><rect x="40" y="6" width="1" height="1"/><rect y="8" width="1" height="3" x="49"/><rect x="49" y="11" width="1" height="1"/></g><rect x="58" y="6" width="1" height="1" fill="#f6f8fb"/><g fill="#edf2f8"><rect height="7" x="27" y="18" width="1"/><rect x="20" y="21" width="1" height="1"/><rect x="40" y="24" width="1" height="1"/><rect x="27" y="25" width="1" height="1"/><rect y="25" width="1" height="1" x="39"/><rect x="22" y="26" width="1" height="1"/></g><rect x="4" y="21" width="1" height="1" fill="#84a5cd"/><rect x="25" y="26" width="1" height="1" fill="#a9c0dc"/><g fill="#f7f9fc"><rect height="1" x="5" y="4" width="1"/><rect x="5" y="7" width="1" height="1"/><rect x="39" y="7" width="1" height="1"/><rect x="35" y="9" width="1" height="4"/><rect x="13" y="12" width="1" height="1"/><rect width="1" height="1" x="17" y="12"/><rect x="35" y="13" width="1" height="1"/><rect y="19" width="1" height="1" x="22"/><rect x="36" y="20" width="1" height="1"/><rect x="9" y="26" width="1" height="1"/></g><g fill="#769bc7"><rect width="1" height="1" x="13" y="6"/><rect y="11" width="1" height="1" x="24"/><rect y="18" width="1" height="1" x="30"/><rect x="37" y="20" width="1" height="1"/><rect x="19" y="22" width="1" height="1"/><rect x="3" y="27" width="1" height="1"/></g><g fill="#8babd0"><rect x="36" y="7" width="1" height="1"/><rect x="12" y="11" width="1" height="1"/></g><g fill="#8eadd1"><rect height="1" x="12" y="9" width="1"/><rect height="1" x="45" y="11" width="1"/><rect x="24" y="21" width="1" height="1"/></g><g fill="#7c9fca"><rect x="15" y="10" width="1" height="1"/><rect x="8" y="11" width="1" height="2"/><rect height="1" x="8" y="13" width="1"/><rect x="14" y="18" width="1" height="1"/></g><g fill="#a0bad8"><rect x="46" y="10" width="1" height="1"/><rect height="1" x="27" y="11" width="1"/><rect x="12" y="20" width="1" height="1"/><rect x="12" y="21" width="1" height="1"/></g><g fill="#cad9ea"><rect x="3" y="11" width="1" height="1"/><rect x="10" y="17" width="1" height="1"/><rect x="10" y="18" width="1" height="1"/></g><rect fill="#eff3f9" x="17" y="11" width="1" height="1"/><rect x="4" y="18" width="1" height="1" fill="#f3f7fa"/><g fill="#d4e0ee"><rect height="1" x="35" y="20" width="1"/><rect width="1" height="1" x="15" y="22"/></g><g fill="#e0e8f2"><rect x="16" y="23" width="1" height="1"/><rect y="24" width="1" height="1" x="16"/><rect height="1" x="36" y="26" width="1"/></g><rect width="1" height="1" fill="#dce6f1" x="8" y="3"/><g fill="#c7d6e8"><rect height="1" x="10" y="3" width="1"/><rect x="7" y="27" width="1" height="1"/></g><g fill="#90aed2"><rect height="1" x="9" y="5" width="1"/><rect x="40" y="14" width="1" height="1"/><rect x="56" y="14" width="1" height="1"/><rect x="8" y="17" width="1" height="1"/></g><rect x="31" y="26" width="1" height="1" fill="#d5e1ee"/><g fill="#d3dfed"><rect x="29" y="4" width="1" height="1"/><rect x="25" y="19" width="1" height="1"/><rect x="31" y="21" width="1" height="4"/><rect x="31" y="25" width="1" height="1"/><rect x="23" y="27" width="1" height="1"/></g><rect height="1" fill="#f6f9fb" x="4" y="5" width="1"/><rect x="48" y="6" width="1" height="1" fill="#d1ddec"/><g fill="#9bb6d6"><rect y="10" width="1" height="1" x="12"/><rect y="27" width="1" height="1" x="15"/></g><g fill="#d2deed"><rect y="16" width="1" height="1" x="6"/><rect y="16" width="1" height="1" x="7"/></g><rect x="53" y="6" width="1" height="1" fill="#9eb8d7"/><g fill="#bacde3"><rect x="25" y="7" width="1" height="1"/><rect y="22" width="1" height="1" x="6"/><rect width="1" height="1" x="39" y="22"/><rect width="1" height="1" x="40" y="23"/><rect x="18" y="26" width="1" height="1"/></g><g fill="#cedbeb"><rect x="51" y="7" width="1" height="1"/><rect x="29" y="12" width="1" height="1"/><rect height="3" x="33" y="22" width="1"/><rect x="33" y="25" width="1" height="1"/><rect x="6" y="27" width="1" height="1"/><rect x="22" y="27" width="1" height="1"/></g><g fill="#85a6cd"><rect x="60" y="7" width="1" height="1"/><rect x="15" y="8" width="1" height="1"/><rect x="33" y="19" width="1" height="1"/><rect y="21" width="1" height="1" x="38"/><rect x="39" y="21" width="1" height="1"/><rect x="8" y="24" width="1" height="1"/></g><g fill="#ccdaea"><rect height="1" x="6" y="13" width="1"/><rect width="1" height="1" x="13" y="21"/><rect x="33" y="21" width="1" height="1"/><rect x="14" y="27" width="1" height="1"/></g><g fill="#afc5df"><rect width="1" height="1" x="8" y="20"/><rect x="33" y="27" width="1" height="1"/></g><g fill="#799dc8"><rect x="29" y="3" width="1" height="1"/><rect x="47" y="9" width="1" height="1"/><rect height="1" x="22" y="18" width="1"/><rect x="5" y="22" width="1" height="1"/><rect width="1" height="1" x="37" y="26"/></g><g fill="#ecf1f7"><rect x="3" y="8" width="1" height="1"/><rect x="8" y="9" width="1" height="1"/><rect y="12" width="1" height="1" x="47"/></g><g fill="#b1c6df"><rect x="49" y="12" width="1" height="1"/><rect x="25" y="13" width="1" height="1"/><rect y="26" width="1" height="1" x="15"/></g><rect x="15" y="14" width="1" height="1" fill="#dbe5f0"/><g fill="#e1e9f3"><rect x="14" y="19" width="1" height="1"/><rect width="1" height="1" x="9" y="21"/></g><rect x="22" y="21" width="1" height="1" fill="#acc2dd"/><g fill="#7fa2cb"><rect x="5" y="3" width="1" height="1"/><rect x="15" y="11" width="1" height="1"/><rect x="19" y="23" width="1" height="1"/></g><g fill="#ebf1f7"><rect x="49" y="6" width="1" height="1"/><rect x="17" y="10" width="1" height="1"/><rect x="5" y="21" width="1" height="1"/><rect x="14" y="23" width="1" height="1"/></g><g fill="#9cb7d7"><rect x="15" y="7" width="1" height="1"/><rect x="56" y="7" width="1" height="1"/><rect width="1" height="1" x="29" y="14"/></g><g fill="#a5bdda"><rect y="7" width="1" height="1" x="37"/><rect width="1" height="1" x="45" y="13"/></g><rect width="1" height="1" fill="#aec4de" x="36" y="23"/><g fill="#83a5cd"><rect x="20" y="4" width="1" height="1"/><rect x="44" y="9" width="1" height="4"/><rect width="1" height="1" x="44" y="13"/><rect y="20" width="1" height="1" x="14"/></g><g fill="#d0ddec"><rect x="34" y="6" width="1" height="1"/><rect x="35" y="6" width="1" height="1"/><rect width="1" height="1" x="21" y="14"/><rect x="22" y="14" width="1" height="1"/><rect x="30" y="14" width="1" height="1"/><rect x="34" y="14" width="1" height="1"/><rect x="35" y="14" width="1" height="1"/><rect height="1" x="38" y="14" width="1"/><rect height="1" x="39" y="14" width="1"/><rect width="1" height="1" x="42" y="14"/><rect x="43" y="14" width="1" height="1"/><rect x="50" y="14" width="1" height="1"/><rect x="51" y="14" width="1" height="1"/><rect x="54" y="14" width="1" height="1"/><rect y="14" width="1" height="1" x="55"/><rect x="58" y="14" width="1" height="1"/><rect x="59" y="14" width="1" height="1"/><rect x="33" y="26" width="1" height="1"/></g><g fill="#cad8e9"><rect height="1" x="29" y="8" width="1"/><rect height="1" x="27" y="13" width="1"/><rect x="29" y="20" width="1" height="1"/></g><g fill="#749ac6"><rect x="6" y="11" width="1" height="1"/><rect x="48" y="11" width="1" height="1"/><rect x="19" y="24" width="1" height="1"/></g><g fill="#a6bedb"><rect x="6" y="5" width="1" height="1"/><rect width="1" height="1" x="14" y="22"/></g><g fill="#e0e9f2"><rect y="6" width="1" height="1" x="10"/><rect x="16" y="6" width="1" height="1"/><rect x="4" y="23" width="1" height="1"/></g><g fill="#dce5f1"><rect x="3" y="7" width="1" height="1"/><rect x="9" y="14" width="1" height="1"/></g><g fill="#e8eff6"><rect x="27" y="14" width="1" height="1"/><rect x="16" y="25" width="1" height="1"/><rect x="14" y="26" width="1" height="1"/></g><rect x="48" y="14" width="1" height="1" fill="#d5e0ee"/><g fill="#7b9fc9"><rect x="8" y="4" width="1" height="1"/><rect width="1" height="1" x="15" y="23"/><rect y="24" width="1" height="2" x="3"/><rect x="37" y="24" width="1" height="1"/><rect y="26" width="1" height="1" x="3"/></g><g fill="#fdfdfe"><rect x="21" y="4" width="1" height="1"/><rect height="1" x="35" y="7" width="1"/><rect x="9" y="17" width="1" height="1"/><rect x="16" y="19" width="1" height="1"/></g><g fill="#c3d3e7"><rect x="14" y="6" width="1" height="1"/><rect x="46" y="6" width="1" height="1"/><rect height="1" x="27" y="7" width="1"/></g><g fill="#eff3f8"><rect x="41" y="6" width="1" height="1"/><rect y="9" width="1" height="1" x="3"/><rect x="51" y="9" width="1" height="4"/><rect x="51" y="13" width="1" height="1"/><rect x="8" y="16" width="1" height="1"/></g><g fill="#fefeff"><rect height="1" x="59" y="7" width="1"/><rect x="25" y="11" width="1" height="1"/><rect x="47" y="13" width="1" height="1"/><rect y="22" width="1" height="1" x="20"/><rect x="21" y="26" width="1" height="1"/></g><g fill="#8cabd0"><rect x="6" y="12" width="1" height="1"/><rect x="38" y="18" width="1" height="1"/><rect x="40" y="21" width="1" height="1"/></g><g fill="#fbfcfd"><rect width="1" height="1" x="13" y="8"/><rect x="4" y="19" width="1" height="1"/><rect width="1" height="1" x="13" y="20"/><rect y="22" width="1" height="1" x="38"/></g><rect width="1" height="1" fill="#adc3de" x="14" y="14"/><rect y="26" width="1" height="1" fill="#94b1d3" x="23"/><g fill="#b2c7df"><rect x="8" y="27" width="1" height="1"/><rect x="31" y="27" width="1" height="1"/></g><g fill="#99b5d5"><rect x="11" y="9" width="1" height="4"/><rect x="11" y="13" width="1" height="1"/><rect x="21" y="27" width="1" height="1"/></g><g fill="#98b4d5"><rect x="4" y="4" width="1" height="1"/><rect x="53" y="7" width="1" height="6"/><rect x="3" y="12" width="1" height="1"/><rect x="53" y="13" width="1" height="1"/><rect height="1" x="27" y="16" width="1"/><rect x="9" y="19" width="1" height="1"/></g><g fill="#ebf0f7"><rect x="6" y="4" width="1" height="1"/><rect y="8" width="1" height="1" x="51"/></g><g fill="#fff"><rect height="1" fill="#fff" x="10" y="4" width="1"/><rect x="22" y="4" width="1" height="9" fill="#fff"/><rect height="9" fill="#fff" x="30" y="4" width="1"/><rect fill="#fff" x="5" y="5" width="1" height="1"/><rect fill="#fff" x="10" y="5" width="1" height="1"/><rect x="4" y="6" width="1" height="6" fill="#fff"/><rect width="1" height="6" fill="#fff" x="14" y="7"/><rect fill="#fff" x="17" y="7" width="1" height="1"/><rect x="26" y="7" width="1" height="6" fill="#fff"/><rect x="34" y="7" width="1" height="6" fill="#fff"/><rect y="7" width="1" height="6" fill="#fff" x="38"/><rect x="42" y="7" width="1" height="6" fill="#fff"/><rect x="50" y="7" width="1" height="6" fill="#fff"/><rect fill="#fff" x="54" y="7" width="1" height="6"/><rect y="7" width="1" height="6" fill="#fff" x="55"/><rect y="7" width="1" height="6" fill="#fff" x="58"/><rect x="18" y="8" width="1" height="4" fill="#fff"/><rect x="39" y="8" width="1" height="5" fill="#fff"/><rect x="43" y="8" width="1" height="5" fill="#fff"/><rect height="5" fill="#fff" x="59" y="8" width="1"/><rect y="9" width="1" height="4" fill="#fff" x="9"/><rect x="10" y="9" width="1" height="4" fill="#fff"/><rect fill="#fff" x="13" y="9" width="1" height="2"/><rect x="25" y="10" width="1" height="1" fill="#fff"/><rect x="13" y="11" width="1" height="1" fill="#fff"/><rect height="1" fill="#fff" x="4" y="12" width="1"/><rect x="5" y="12" width="1" height="1" fill="#fff"/><rect height="1" fill="#fff" x="18" y="12" width="1"/><rect x="46" y="12" width="1" height="1" fill="#fff"/><rect fill="#fff" x="5" y="13" width="1" height="1"/><rect x="9" y="13" width="1" height="1" fill="#fff"/><rect y="13" width="1" height="1" fill="#fff" x="10"/><rect y="13" width="1" height="1" fill="#fff" x="14"/><rect x="17" y="13" width="1" height="1" fill="#fff"/><rect x="22" y="13" width="1" height="1" fill="#fff"/><rect x="26" y="13" width="1" height="1" fill="#fff"/><rect x="34" y="13" width="1" height="1" fill="#fff"/><rect height="1" fill="#fff" x="38" y="13" width="1"/><rect width="1" height="1" fill="#fff" x="39" y="13"/><rect fill="#fff" x="42" y="13" width="1" height="1"/><rect fill="#fff" x="43" y="13" width="1" height="1"/><rect y="13" width="1" height="1" fill="#fff" x="46"/><rect fill="#fff" x="50" y="13" width="1" height="1"/><rect fill="#fff" x="54" y="13" width="1" height="1"/><rect x="55" y="13" width="1" height="1" fill="#fff"/><rect x="58" y="13" width="1" height="1" fill="#fff"/><rect x="59" y="13" width="1" height="1" fill="#fff"/><rect fill="#fff" x="5" y="17" width="1" height="3"/><rect x="28" y="17" width="1" height="9" fill="#fff"/><rect x="39" y="19" width="1" height="1" fill="#fff"/><rect x="5" y="20" width="1" height="1" fill="#fff"/><rect y="20" width="1" height="1" fill="#fff" x="6"/><rect x="17" y="20" width="1" height="6" fill="#fff"/><rect fill="#fff" x="21" y="20" width="1" height="5"/><rect x="32" y="20" width="1" height="6" fill="#fff"/><rect y="21" width="2" height="1" fill="#fff" x="6"/><rect width="1" height="1" fill="#fff" x="8" y="21"/><rect x="36" y="21" width="1" height="1" fill="#fff"/><rect x="8" y="22" width="1" height="1" fill="#fff"/><rect y="22" width="1" height="3" fill="#fff" x="9"/><rect x="36" y="22" width="1" height="1" fill="#fff"/><rect height="1" fill="#fff" x="37" y="22" width="1"/><rect x="20" y="23" width="1" height="1" fill="#fff"/><rect height="1" fill="#fff" x="38" y="23" width="1"/><rect y="23" width="1" height="1" fill="#fff" x="39"/><rect x="4" y="24" width="1" height="2" fill="#fff"/><rect fill="#fff" x="10" y="24" width="1" height="1"/><rect y="24" width="1" height="2" fill="#fff" x="13"/><rect x="39" y="24" width="1" height="1" fill="#fff"/><rect x="9" y="25" width="1" height="1" fill="#fff"/><rect fill="#fff" x="21" y="25" width="1" height="1"/><rect x="4" y="26" width="1" height="1" fill="#fff"/><rect x="13" y="26" width="1" height="1" fill="#fff"/><rect height="1" fill="#fff" x="17" y="26" width="1"/><rect x="28" y="26" width="1" height="1" fill="#fff"/><rect x="32" y="26" width="1" height="1" fill="#fff"/></g><g fill="#8fadd1"><rect width="1" height="1" x="57" y="7"/><rect x="57" y="14" width="1" height="1"/></g><g fill="#81a3cc"><rect x="40" y="8" width="1" height="1"/><rect x="44" y="8" width="1" height="1"/><rect x="24" y="10" width="1" height="1"/><rect x="37" y="18" width="1" height="1"/><rect width="1" height="1" x="7" y="23"/><rect height="1" x="9" y="27" width="1"/></g><rect height="1" fill="#88a9cf" x="22" y="3" width="1"/><g fill="#f8fafc"><rect height="8" x="21" y="5" width="1"/><rect y="7" width="1" height="1" x="43"/><rect x="35" y="8" width="1" height="1"/><rect x="21" y="13" width="1" height="1"/><rect x="24" y="19" width="1" height="1"/><rect x="7" y="22" width="1" height="1"/></g><g fill="#f9fbfd"><rect height="1" x="27" y="6" width="1"/><rect width="1" height="1" x="5" y="11"/></g><g fill="#f2f6fa"><rect x="37" y="6" width="1" height="1"/><rect height="1" x="46" y="7" width="1"/></g><g fill="#b6cae1"><rect height="1" x="59" y="6" width="1"/><rect x="10" y="16" width="1" height="1"/><rect height="3" x="18" y="22" width="1"/><rect width="1" height="1" x="18" y="25"/></g><g fill="#95b2d4"><rect x="37" y="8" width="1" height="5"/><rect y="12" width="1" height="1" x="19"/><rect width="1" height="1" x="37" y="13"/></g><g fill="#f4f7fb"><rect x="47" y="11" width="1" height="1"/><rect x="7" y="20" width="1" height="1"/><rect x="37" y="23" width="1" height="1"/></g><g fill="#b4c9e1"><rect x="45" y="12" width="1" height="1"/><rect x="4" y="17" width="1" height="1"/><rect x="29" y="17" width="1" height="1"/><rect x="29" y="18" width="1" height="1"/><rect x="29" y="21" width="1" height="4"/><rect y="25" width="1" height="1" x="29"/><rect x="17" y="27" width="1" height="1"/><rect x="27" y="27" width="1" height="1"/><rect x="28" y="27" width="1" height="1"/><rect x="32" y="27" width="1" height="1"/></g><g fill="#a3bcd9"><rect x="15" y="13" width="1" height="1"/><rect x="22" y="22" width="1" height="1"/></g><rect x="29" y="16" width="1" height="1" fill="#8dacd1"/><rect y="17" width="1" height="1" fill="#91afd2" x="6"/><g fill="#7a9ec9"><rect width="1" height="1" x="12" y="8"/><rect width="1" height="1" x="18" y="14"/><rect x="3" y="23" width="1" height="1"/><rect x="8" y="25" width="1" height="1"/><rect x="7" y="26" width="1" height="1"/></g><g fill="#9ab5d6"><rect x="60" y="8" width="1" height="1"/><rect x="44" y="14" width="1" height="1"/><rect x="20" y="26" width="1" height="1"/></g><g fill="#9fb9d8"><rect y="9" width="1" height="1" x="27"/><rect width="1" height="1" x="49" y="14"/><rect x="22" y="23" width="1" height="1"/><rect height="1" x="6" y="26" width="1"/><rect x="39" y="27" width="1" height="1"/></g><g fill="#b0c5df"><rect x="48" y="9" width="1" height="1"/><rect x="4" y="27" width="1" height="1"/></g><g fill="#cddbeb"><rect width="1" height="1" x="10" y="14"/><rect x="31" y="14" width="1" height="1"/></g><rect x="37" y="14" width="1" height="1" fill="#9eb9d8"/><g fill="#cbd9ea"><rect x="38" y="24" width="1" height="1"/><rect x="5" y="25" width="1" height="1"/></g><g fill="#e2eaf3"><rect y="4" width="1" height="9" x="31"/><rect x="55" y="6" width="1" height="1"/><rect x="29" y="13" width="2" height="1"/><rect x="31" y="13" width="1" height="1"/></g><g fill="#cfdceb"><rect x="26" y="6" width="1" height="1"/><rect x="28" y="14" width="1" height="1"/><rect x="39" y="20" width="1" height="1"/><rect x="10" y="22" width="1" height="1"/></g><g fill="#9db7d7"><rect x="40" y="7" width="1" height="1"/><rect y="8" width="1" height="1" x="19"/><rect x="60" y="9" width="1" height="4"/><rect x="27" y="10" width="1" height="1"/><rect x="60" y="13" width="1" height="1"/><rect height="1" x="5" y="16" width="1"/><rect height="1" x="18" y="20" width="1"/></g><rect y="9" width="1" height="1" fill="#89a9cf" x="46"/><rect x="19" y="10" width="1" height="1" fill="#c5d5e7"/><rect height="1" fill="#87a7ce" x="16" y="13" width="1"/><g fill="#bdcfe4"><rect x="37" y="19" width="1" height="1"/><rect x="33" y="20" width="1" height="1"/></g><rect width="1" height="1" fill="#c1d2e6" x="8" y="26"/><g fill="#c0d1e5"><rect x="5" y="27" width="1" height="1"/><rect y="27" width="1" height="1" x="13"/></g><g fill="#87a8ce"><rect x="15" y="12" width="1" height="1"/><rect x="35" y="19" width="1" height="1"/></g><g fill="#a2bbd9"><rect x="5" y="14" width="1" height="1"/><rect x="53" y="14" width="1" height="1"/><rect x="16" y="27" width="1" height="1"/></g><g fill="#d8e3ef"><rect x="9" y="3" width="1" height="1"/><rect x="29" y="6" width="1" height="1"/><rect x="8" y="14" width="1" height="1"/></g><g fill="#dde6f1"><rect x="9" y="4" width="1" height="1"/><rect y="19" width="1" height="1" x="6"/><rect x="31" y="20" width="1" height="1"/></g><g fill="#d1deec"><rect height="1" x="50" y="6" width="1"/><rect x="9" y="18" width="1" height="1"/><rect x="37" y="27" width="1" height="1"/></g><g fill="#c4d4e7"><rect x="13" y="7" width="1" height="1"/><rect x="46" y="14" width="1" height="1"/><rect width="1" height="1" x="21" y="19"/></g><rect x="7" y="19" width="1" height="1" fill="#7da1ca"/><rect x="40" y="25" width="1" height="1" fill="#eaeff6"/><g fill="#80a2cb"><rect width="1" height="1" x="51" y="6"/><rect x="40" y="9" width="1" height="4"/><rect x="8" y="10" width="1" height="1"/><rect x="40" y="13" width="1" height="1"/><rect x="6" y="18" width="1" height="1"/><rect y="18" width="1" height="1" x="24"/></g><g fill="#f1f5f9"><rect x="46" y="8" width="1" height="1"/><rect x="35" y="25" width="1" height="1"/><rect y="26" width="1" height="1" x="16"/><rect x="35" y="26" width="1" height="1"/></g><g fill="#779cc8"><rect height="1" x="12" y="12" width="1"/><rect x="26" y="17" width="1" height="1"/><rect y="18" width="1" height="1" x="32"/></g><g fill="#c0d1e6"><rect x="17" y="14" width="1" height="1"/><rect x="24" y="26" width="1" height="1"/></g><g fill="#b2c7e0"><rect x="40" y="19" width="1" height="1"/><rect y="27" width="1" height="1" x="35"/></g><g fill="#88a8ce"><rect x="31" y="3" width="1" height="1"/><rect x="11" y="4" width="1" height="1"/><rect y="5" width="1" height="1" x="11"/></g><g fill="#feffff"><rect width="1" height="1" x="5" y="6"/><rect y="9" width="1" height="1" x="25"/><rect y="19" width="1" height="1" x="31"/></g><rect x="47" y="6" width="1" height="1" fill="#e8eef6"/><g fill="#b3c7e0"><rect height="1" x="48" y="10" width="1"/><rect y="20" width="1" height="1" x="40"/><rect x="40" y="26" width="1" height="1"/></g><g fill="#97b3d5"><rect width="1" height="1" x="48" y="13"/><rect height="1" x="36" y="25" width="1"/></g><g fill="#dae4f0"><rect height="1" x="16" y="14" width="1"/><rect width="1" height="1" x="30" y="19"/><rect x="37" y="21" width="1" height="1"/></g><rect y="20" width="1" height="1" fill="#c8d7e8" x="22"/><rect x="29" y="5" width="1" height="1" fill="#becfe4"/><g fill="#789dc8"><rect height="1" x="25" y="6" width="1"/><rect x="24" y="9" width="1" height="1"/><rect x="26" y="16" width="1" height="1"/><rect x="16" y="18" width="1" height="1"/><rect x="11" y="24" width="1" height="1"/></g><g fill="#a1bad9"><rect x="39" y="6" width="1" height="1"/><rect height="1" x="60" y="14" width="1"/><rect x="25" y="25" width="1" height="1"/></g><g fill="#aac1dc"><rect x="43" y="6" width="1" height="1"/><rect x="33" y="8" width="1" height="5"/><rect x="33" y="13" width="1" height="1"/></g><g fill="#f0f4f9"><rect y="8" width="1" height="1" x="25"/><rect y="10" width="1" height="1" x="5"/><rect x="32" y="19" width="1" height="1"/><rect x="27" y="26" width="1" height="1"/></g><rect x="26" y="14" width="1" height="1" fill="#bbcee4"/><rect x="41" y="14" width="1" height="1" fill="#94b1d4"/><g fill="#b7cae1"><rect x="35" y="22" width="1" height="1"/><rect y="26" width="1" height="1" x="29"/></g><g fill="#7fa1cb"><rect x="15" y="9" width="1" height="1"/><rect y="26" width="1" height="1" x="38"/><rect x="12" y="27" width="1" height="1"/></g><rect x="16" y="22" width="1" height="1" fill="#f2f5fa"/><g fill="#b4c8e0"><rect y="6" width="1" height="1" x="36"/><rect x="18" y="21" width="1" height="1"/></g><g fill="#bccee4"><rect height="1" x="19" y="9" width="1"/><rect x="23" y="19" width="1" height="1"/><rect width="1" height="1" x="14" y="24"/><rect x="14" y="25" width="1" height="1"/></g><rect x="29" y="11" width="1" height="1" fill="#c3d3e6"/><g fill="#b5c9e1"><rect x="6" y="3" width="1" height="1"/><rect y="7" width="1" height="1" x="49"/><rect height="1" x="13" y="13" width="1"/></g><rect fill="#e7edf5" x="15" y="6" width="1" height="1"/><rect x="38" y="6" width="1" height="1" fill="#f3f6fa"/><g fill="#c6d5e8"><rect height="1" x="4" y="13" width="1"/><rect x="17" y="19" width="1" height="1"/><rect x="38" y="27" width="1" height="1"/></g><g fill="#b9cce3"><rect x="10" y="19" width="1" height="1"/><rect x="35" y="24" width="1" height="1"/></g><g fill="#bed0e5"><rect x="15" y="19" width="1" height="1"/><rect width="1" height="1" x="38" y="19"/></g><g fill="#fcfdfe"><rect x="10" y="23" width="1" height="1"/><rect y="24" width="1" height="1" x="20"/></g><rect x="10" y="26" width="1" height="1" fill="#93b1d3"/><g fill="#f5f8fb"><rect x="42" y="6" width="1" height="1"/><rect x="17" y="8" width="1" height="1"/><rect x="39" y="26" width="1" height="1"/></g><g fill="#e5ecf4"><rect height="1" x="29" y="7" width="1"/><rect x="3" y="10" width="1" height="1"/><rect x="10" y="25" width="1" height="1"/></g><g fill="#aac1dd"><rect x="33" y="7" width="1" height="1"/><rect x="27" y="12" width="1" height="1"/></g><rect x="19" y="11" width="1" height="1" fill="#b9cce2"/><g fill="#93b0d3"><rect y="19" width="1" height="1" x="12"/><rect height="1" x="5" y="24" width="1"/></g><g fill="#e4ebf4"><rect y="19" width="1" height="1" x="36"/><rect x="13" y="23" width="1" height="1"/></g><g fill="#7399c6"><rect width="62" height="2"/><rect width="1" height="62" x="62"/><rect width="1" height="62" x="63"/><rect y="2" width="62" height="1"/><rect y="3" width="4" height="1"/><rect height="1" x="4" y="3" width="1"/><rect x="12" y="3" width="7" height="1"/><rect width="1" height="3" x="19" y="3"/><rect x="24" y="3" width="4" height="1"/><rect x="28" y="3" width="1" height="2"/><rect x="32" y="3" width="30" height="2"/><rect y="4" width="3" height="58"/><rect x="3" y="4" width="1" height="1"/><rect width="7" height="1" x="12" y="4"/><rect width="4" height="1" x="24" y="4"/><rect x="7" y="5" width="1" height="3"/><rect x="8" y="5" width="1" height="3"/><rect height="1" x="12" y="5" width="3"/><rect y="5" width="5" height="1" x="15"/><rect x="20" y="5" width="1" height="8"/><rect y="5" width="2" height="1" x="24"/><rect height="1" x="26" y="5" width="2"/><rect width="1" height="7" x="28" y="5"/><rect width="30" height="1" x="32" y="5"/><rect y="6" width="1" height="2" x="9"/><rect height="1" x="12" y="6" width="1"/><rect x="19" y="6" width="1" height="1"/><rect width="1" height="2" x="24" y="6"/><rect x="32" y="6" width="1" height="7"/><rect y="6" width="1" height="1" x="44"/><rect x="45" y="6" width="1" height="4"/><rect height="7" x="52" y="6" width="1"/><rect x="60" y="6" width="2" height="1"/><rect y="7" width="6" height="1" x="6"/><rect x="12" y="7" width="1" height="1"/><rect x="48" y="7" width="1" height="1"/><rect x="61" y="7" width="1" height="55"/><rect width="5" height="1" x="6" y="8"/><rect x="11" y="8" width="1" height="1"/><rect x="16" y="8" width="1" height="4"/><rect x="24" y="8" width="1" height="1"/><rect y="8" width="1" height="5" x="36"/><rect x="48" y="8" width="1" height="1"/><rect x="6" y="9" width="1" height="1"/><rect y="10" width="1" height="1" x="6"/><rect x="7" y="10" width="1" height="2"/><rect height="1" x="45" y="10" width="1"/><rect width="1" height="1" x="7" y="12"/><rect x="16" y="12" width="1" height="1"/><rect x="24" y="12" width="1" height="5"/><rect x="28" y="12" width="1" height="1"/><rect y="12" width="1" height="1" x="48"/><rect height="5" x="3" y="13" width="1"/><rect x="12" y="13" width="1" height="5"/><rect width="1" height="5" x="20" y="13"/><rect x="32" y="13" width="1" height="4"/><rect height="4" x="36" y="13" width="1"/><rect height="49" x="52" y="13" width="1"/><rect x="13" y="14" width="1" height="4"/><rect x="19" y="14" width="1" height="7"/><rect x="4" y="15" width="58" height="1"/><rect x="4" y="16" width="1" height="1"/><rect width="14" height="1" x="11" y="16"/><rect x="25" y="16" width="1" height="2"/><rect y="16" width="32" height="1" x="30"/><rect height="1" x="7" y="17" width="1"/><rect x="11" y="17" width="14" height="1"/><rect x="30" y="17" width="32" height="1"/><rect width="1" height="4" x="3" y="18"/><rect x="7" y="18" width="1" height="1"/><rect x="8" y="18" width="1" height="1"/><rect width="2" height="1" x="11" y="18"/><rect height="1" x="13" y="18" width="1"/><rect width="4" height="1" x="17" y="18"/><rect width="1" height="1" x="21" y="18"/><rect x="25" y="18" width="1" height="1"/><rect width="1" height="8" x="26" y="18"/><rect x="33" y="18" width="2" height="1"/><rect x="35" y="18" width="1" height="1"/><rect x="40" y="18" width="22" height="1"/><rect height="1" x="8" y="19" width="1"/><rect x="11" y="19" width="1" height="3"/><rect x="34" y="19" width="1" height="43"/><rect x="41" y="19" width="21" height="43"/><rect x="10" y="20" width="1" height="1"/><rect x="15" y="20" width="1" height="1"/><rect x="23" y="20" width="1" height="5"/><rect y="20" width="1" height="42" x="30"/><rect x="38" y="20" width="1" height="1"/><rect x="14" y="21" width="1" height="1"/><rect height="1" x="15" y="21" width="1"/><rect height="1" x="19" y="21" width="1"/><rect height="1" x="3" y="22" width="1"/><rect x="4" y="22" width="1" height="1"/><rect x="11" y="22" width="1" height="1"/><rect x="12" y="22" width="1" height="1"/><rect height="2" x="24" y="22" width="2"/><rect width="1" height="2" x="6" y="23"/><rect x="7" y="24" width="1" height="1"/><rect width="1" height="1" x="15" y="24"/><rect x="24" y="24" width="2" height="1"/><rect x="6" y="25" width="1" height="1"/><rect width="1" height="1" x="7" y="25"/><rect x="11" y="25" width="1" height="37"/><rect width="1" height="1" x="15" y="25"/><rect x="19" y="25" width="1" height="37"/><rect x="23" y="25" width="1" height="1"/><rect width="1" height="1" x="37" y="25"/><rect x="26" y="26" width="1" height="36"/><rect x="10" y="27" width="1" height="35"/><rect y="27" width="1" height="35" x="20"/><rect height="35" x="25" y="27" width="1"/><rect width="22" height="35" x="40" y="27"/><rect x="3" y="28" width="59" height="34"/><rect y="62" width="62" height="1"/><rect x="62" y="62" width="1" height="1"/><rect width="1" height="1" x="63" y="62"/><rect y="63" width="62" height="1"/><rect x="62" y="63" width="1" height="1"/><rect x="63" y="63" width="1" height="1"/></g><g fill="#7ea1ca"><rect x="11" y="3" width="1" height="1"/><rect x="21" y="3" width="1" height="1"/><rect x="56" y="8" width="1" height="1"/><rect x="57" y="8" width="1" height="5"/><rect x="57" y="13" width="1" height="1"/></g><g fill="#eaf0f7"><rect height="1" x="5" y="9" width="1"/><rect x="47" y="14" width="1" height="1"/><rect width="1" height="1" x="16" y="20"/></g><rect height="1" fill="#dfe8f2" x="7" y="14" width="1"/><g fill="#e7eef5"><rect x="9" y="16" width="1" height="1"/><rect x="16" y="21" width="1" height="1"/></g><g fill="#7da0ca"><rect x="23" y="3" width="1" height="1"/><rect x="56" y="9" width="1" height="4"/><rect width="1" height="1" x="56" y="13"/><rect x="39" y="18" width="1" height="1"/><rect x="10" y="21" width="1" height="1"/></g><g fill="#759ac7"><rect x="44" y="7" width="1" height="1"/><rect x="28" y="13" width="1" height="1"/><rect width="1" height="1" x="25" y="14"/><rect width="1" height="1" x="40" y="22"/><rect y="23" width="1" height="1" x="11"/><rect y="25" width="1" height="1" x="24"/></g><rect height="1" fill="#bfd1e5" x="29" y="10" width="1"/><rect x="29" y="27" width="1" height="1" fill="#a3bcda"/><g fill="#d4dfed"><rect x="7" y="3" width="1" height="1"/><rect x="54" y="6" width="1" height="1"/><rect x="12" y="24" width="1" height="2"/><rect x="12" y="26" width="1" height="1"/></g><g fill="#c2d2e6"><rect x="29" y="9" width="1" height="1"/><rect height="1" x="24" y="20" width="1"/></g><rect x="18" y="13" width="1" height="1" fill="#d9e3ef"/><rect x="3" y="6" width="1" height="1" fill="#b8cbe2"/><g fill="#86a7ce"><rect x="11" y="6" width="1" height="1"/><rect height="5" x="41" y="8" width="1"/><rect x="47" y="8" width="1" height="1"/><rect x="7" y="9" width="1" height="1"/><rect x="41" y="13" width="1" height="1"/><rect x="15" y="18" width="1" height="1"/><rect height="1" x="23" y="18" width="1"/></g><g fill="#f5f7fb"><rect x="47" y="10" width="1" height="1"/><rect width="1" height="1" x="27" y="17"/></g><g fill="#b7cbe2"><rect height="1" x="20" y="20" width="1"/><rect height="1" x="22" y="25" width="1"/></g><rect y="27" width="1" height="1" fill="#a8c0dc" x="24"/></svg>