<?xml version="1.0" encoding="utf-8"?>
<!-- Generator: Adobe Illustrator 24.1.0, SVG Export Plug-In . SVG Version: 6.00 Build 0)  -->
<svg version="1.1" id="Layer_1" xmlns="http://www.w3.org/2000/svg" xmlns:xlink="http://www.w3.org/1999/xlink" x="0px" y="0px"
	 viewBox="0 0 720.27 425.79" style="enable-background:new 0 0 720.27 425.79;" xml:space="preserve">
<style type="text/css">
	.st0{fill:#97999B;}
	.st1{fill:#484848;}
	.st2{fill:#58B947;}
</style>
<g>
	<path class="st0" d="M311.73,408.55h13.85l-12-20.7c6.2-3.14,10.39-9.42,10.39-16.35c0-10.71-8.62-19.33-19.33-19.33h-22.55v56.38
		h12.89v-18.53h6.12L311.73,408.55L311.73,408.55z M294.97,364.25h9.67c3.54,0,6.44,3.14,6.44,7.25c0,4.11-2.9,7.25-6.44,7.25h-9.67
		V364.25L294.97,364.25z M340,393.24h28.6c0.32-1.53,0.48-3.14,0.48-4.83c0-12.16-8.7-21.27-20.46-21.27
		c-12.73,0-21.43,9.26-21.43,21.27c0,12,8.54,21.26,22.31,21.26c7.65,0,13.61-2.82,17.56-8.3l-9.67-5.56
		c-1.61,1.77-4.43,3.06-7.73,3.06C345.23,398.88,341.53,397.43,340,393.24L340,393.24z M339.76,384.22
		c1.13-4.11,4.19-6.36,8.78-6.36c3.62,0,7.25,1.69,8.54,6.36H339.76L339.76,384.22z M394.85,409.68c7.89,0,14.74-4.11,18.2-10.39
		l-10.55-6.04c-1.29,2.82-4.27,4.51-7.81,4.51c-5.24,0-9.1-3.79-9.1-9.34c0-5.56,3.87-9.34,9.1-9.34c3.54,0,6.44,1.69,7.81,4.51
		l10.55-6.12c-3.46-6.2-10.39-10.31-18.2-10.31c-12.24,0-21.35,9.26-21.35,21.27C373.51,400.41,382.61,409.68,394.85,409.68
		L394.85,409.68z M436.42,409.68c11.84,0,21.35-9.26,21.35-21.26c0-12-9.51-21.27-21.35-21.27c-11.84,0-21.35,9.26-21.35,21.27
		C415.07,400.41,424.58,409.68,436.42,409.68L436.42,409.68z M436.42,397.92c-5.24,0-9.26-3.79-9.26-9.5c0-5.72,4.03-9.51,9.26-9.51
		c5.24,0,9.26,3.79,9.26,9.51C445.68,394.13,441.65,397.92,436.42,397.92L436.42,397.92z M494.17,368.27v4.11
		c-2.66-3.3-6.52-5.24-11.76-5.24c-11.44,0-19.82,9.34-19.82,20.46c0,11.12,8.38,20.46,19.82,20.46c5.24,0,9.1-1.93,11.76-5.24v3.71
		c0,5.72-3.46,8.62-9.1,8.62c-5.32,0-7.65-2.26-9.18-5.07l-10.31,5.96c3.71,6.6,10.71,9.75,19.09,9.75
		c10.71,0,21.27-5.72,21.27-19.25v-38.26H494.17L494.17,368.27z M484.42,396.95c-5.72,0-9.75-3.79-9.75-9.34
		c0-5.56,4.03-9.34,9.75-9.34c5.72,0,9.75,3.79,9.75,9.34C494.17,393.16,490.14,396.95,484.42,396.95L484.42,396.95z M538.39,367.15
		c-5.32,0-9.34,1.93-11.52,4.91v-3.79h-12.08v40.27h12.08v-21.99c0-5.72,3.06-8.3,7.49-8.3c3.87,0,7.01,2.34,7.01,7.33v22.96h12.08
		v-24.73C553.45,372.94,546.53,367.15,538.39,367.15L538.39,367.15z M567.79,364.73c3.95,0,7.25-3.3,7.25-7.25
		c0-3.95-3.3-7.25-7.25-7.25c-3.95,0-7.25,3.3-7.25,7.25C560.54,361.43,563.84,364.73,567.79,364.73L567.79,364.73z M561.75,408.55
		h12.08v-40.27h-12.08V408.55L561.75,408.55z M606.29,379.87v-11.6H598V357l-12.08,3.62v7.65h-6.44v11.6h6.44v14.26
		c0,11.28,4.59,16.03,20.38,14.42v-10.95c-5.32,0.32-8.3,0-8.3-3.46v-14.26H606.29L606.29,379.87z M619.18,364.73
		c3.95,0,7.25-3.3,7.25-7.25c0-3.95-3.3-7.25-7.25-7.25c-3.95,0-7.25,3.3-7.25,7.25C611.93,361.43,615.23,364.73,619.18,364.73
		L619.18,364.73z M613.14,408.55h12.08v-40.27h-12.08V408.55L613.14,408.55z M653.41,409.68c11.84,0,21.35-9.26,21.35-21.26
		c0-12-9.51-21.27-21.35-21.27c-11.84,0-21.35,9.26-21.35,21.27C632.07,400.41,641.57,409.68,653.41,409.68L653.41,409.68z
		 M653.41,397.92c-5.24,0-9.26-3.79-9.26-9.5c0-5.72,4.03-9.51,9.26-9.51c5.24,0,9.26,3.79,9.26,9.51
		C662.68,394.13,658.65,397.92,653.41,397.92L653.41,397.92z M705.21,367.15c-5.32,0-9.34,1.93-11.52,4.91v-3.79h-12.08v40.27h12.08
		v-21.99c0-5.72,3.06-8.3,7.49-8.3c3.87,0,7.01,2.34,7.01,7.33v22.96h12.08v-24.73C720.27,372.94,713.34,367.15,705.21,367.15
		L705.21,367.15z"/>
	<path class="st1" d="M22.55,409.68c12.24,0,20.94-6.44,20.94-17.32c0-11.92-9.59-14.9-18.12-17.48
		c-8.78-2.66-10.15-4.43-10.15-7.01c0-2.26,2.01-4.27,6.04-4.27c5.16,0,7.81,2.5,9.75,6.52l10.87-6.36
		c-4.11-8.3-11.36-12.73-20.62-12.73c-9.75,0-18.93,6.28-18.93,17.16c0,10.79,8.22,14.82,16.59,17.16
		c8.46,2.34,11.68,3.7,11.68,7.17c0,2.17-1.53,4.59-7.65,4.59c-6.36,0-9.83-3.14-11.84-7.81L0,395.74
		C3.14,404.04,10.71,409.68,22.55,409.68L22.55,409.68z M73.62,367.15c-5.4,0-9.34,1.85-12,4.91v-3.79H49.54v56.39h12.08v-19.9
		c2.66,3.06,6.6,4.91,12,4.91c10.55,0,19.25-9.26,19.25-21.26C92.87,376.41,84.17,367.15,73.62,367.15L73.62,367.15z M71.21,398.24
		c-5.56,0-9.59-3.79-9.59-9.83c0-6.04,4.03-9.83,9.59-9.83c5.56,0,9.58,3.79,9.58,9.83C80.79,394.45,76.76,398.24,71.21,398.24
		L71.21,398.24z M110.51,393.24h28.6c0.32-1.53,0.48-3.14,0.48-4.83c0-12.16-8.7-21.27-20.46-21.27c-12.73,0-21.43,9.26-21.43,21.27
		c0,12,8.54,21.26,22.31,21.26c7.65,0,13.61-2.82,17.56-8.3l-9.67-5.56c-1.61,1.77-4.43,3.06-7.73,3.06
		C115.75,398.88,112.04,397.43,110.51,393.24L110.51,393.24z M110.27,384.22c1.13-4.11,4.19-6.36,8.78-6.36
		c3.62,0,7.25,1.69,8.54,6.36H110.27L110.27,384.22z M156.83,393.24h28.6c0.32-1.53,0.48-3.14,0.48-4.83
		c0-12.16-8.7-21.27-20.46-21.27c-12.73,0-21.43,9.26-21.43,21.27c0,12,8.54,21.26,22.31,21.26c7.65,0,13.61-2.82,17.56-8.3
		l-9.67-5.56c-1.61,1.77-4.43,3.06-7.73,3.06C162.06,398.88,158.36,397.43,156.83,393.24L156.83,393.24z M156.59,384.22
		c1.13-4.11,4.19-6.36,8.78-6.36c3.62,0,7.25,1.69,8.54,6.36H156.59L156.59,384.22z M211.68,409.68c7.89,0,14.74-4.11,18.2-10.39
		l-10.55-6.04c-1.29,2.82-4.27,4.51-7.81,4.51c-5.24,0-9.1-3.79-9.1-9.34c0-5.56,3.87-9.34,9.1-9.34c3.54,0,6.44,1.69,7.81,4.51
		l10.55-6.12c-3.46-6.2-10.39-10.31-18.2-10.31c-12.24,0-21.35,9.26-21.35,21.27C190.34,400.41,199.44,409.68,211.68,409.68
		L211.68,409.68z M258.32,367.15c-5.32,0-9.34,1.93-11.52,4.91v-19.89h-12.08v56.38h12.08v-21.99c0-5.72,3.06-8.3,7.49-8.3
		c3.87,0,7.01,2.34,7.01,7.33v22.96h12.08v-24.73C273.38,372.94,266.46,367.15,258.32,367.15L258.32,367.15z"/>
	<path class="st2" d="M287.32,183.61l-0.22,0.15c-1.28,0.9-20.5,14.11-49.3,18.95l-0.27-0.05c-1.53-0.26-24.47-4.51-48.26-21.45
		l-0.16-0.22c-0.9-1.27-14.11-20.49-18.95-49.3l0.05-0.27c0.27-1.53,4.52-24.47,21.45-48.25l0.23-0.16
		c1.27-0.9,20.49-14.11,49.29-18.95l0.27,0.04c1.53,0.27,24.47,4.52,48.26,21.46l0.15,0.23c0.9,1.27,14.11,20.49,18.95,49.29
		l-0.05,0.27C308.51,136.88,304.26,159.81,287.32,183.61 M359.77,193.55c-0.17-23.61-5.25-46.14-15.09-66.96
		c-14.58-30.83-36.95-49.91-56.88-61.53c5.15,1.11,10.41,2.57,15.76,4.5c19.43,6.96,36.96,18.04,52.08,32.93l5.81,5.72l11.44-11.62
		l-5.81-5.72c-16.82-16.56-36.34-28.9-58.02-36.67c-32.11-11.5-61.41-9.17-83.73-3.29c4.44-2.86,9.19-5.53,14.33-7.97
		c18.66-8.82,38.89-13.37,60.12-13.53l8.16-0.07l-0.13-16.3l-8.15,0.06c-23.61,0.18-46.14,5.26-66.96,15.09
		c-30.83,14.58-49.91,36.95-61.53,56.88c1.11-5.15,2.57-10.41,4.49-15.76c6.96-19.43,18.05-36.95,32.94-52.08l5.72-5.81L202.71,0
		l-5.72,5.81c-16.57,16.82-28.91,36.34-36.68,58.02c-11.49,32.1-9.17,61.41-3.29,83.72c-2.86-4.42-5.53-9.18-7.96-14.32
		c-8.82-18.67-13.37-38.89-13.54-60.12l-0.06-8.15l-16.3,0.13l0.05,8.15c0.19,23.62,5.26,46.14,15.1,66.96
		c14.58,30.83,36.95,49.91,56.88,61.53c-5.15-1.12-10.41-2.58-15.76-4.5c-19.43-6.96-36.96-18.05-52.08-32.94l-5.81-5.72
		l-11.44,11.62l5.8,5.72c16.83,16.57,36.35,28.91,58.02,36.67c32.11,11.5,61.41,9.17,83.73,3.29c-4.43,2.86-9.18,5.54-14.33,7.96
		c-18.66,8.82-38.88,13.38-60.12,13.54l-8.15,0.06l0.12,16.31l8.15-0.07c23.62-0.18,46.14-5.25,66.96-15.09
		c30.84-14.58,49.9-36.94,61.53-56.87c-1.12,5.15-2.58,10.41-4.5,15.76c-6.97,19.43-18.05,36.96-32.94,52.08l-5.72,5.81l11.62,11.44
		l5.72-5.81c16.57-16.83,28.91-36.34,36.67-58.02c11.5-32.11,9.17-61.41,3.29-83.72c2.86,4.43,5.54,9.18,7.97,14.33
		c8.82,18.67,13.37,38.89,13.54,60.12l0.06,8.15l16.31-0.12L359.77,193.55L359.77,193.55z"/>
	<polygon class="st2" points="270.2,133.39 239.5,86.05 208.79,133.39 239.49,180.73 270.2,133.39 	"/>
	<path class="st1" d="M463.56,175c17.43,0.02,30.33-11.51,30.35-28.37l0.02-11.93c0.02-16.86-12.84-28.62-30.27-28.65
		c-14.96-0.02-30.14,8.86-30.17,28.55l-0.01,11.93C433.46,166.04,448.6,174.97,463.56,175 M452.49,233.89l0.03-15.35l7.58,0.01
		c15.53,0.03,33.73-4.49,33.76-26.65l0.01-11.75c-8.34,6.82-19.34,10.2-30.33,10.18c-22.73-0.04-45.45-15.04-45.41-43.83l0.02-11.93
		c0.04-28.79,22.8-43.91,45.53-43.87c10.99,0.02,21.97,3.44,30.29,10.28v-1.89l0.01-0.76l0.01-7.58l15.35,0.03l-0.01,7.58l0,0.75
		l-0.13,92.81c-0.02,12.5-4.4,23.3-12.93,30.67c-8.73,7.37-20.86,11.33-36.21,11.3L452.49,233.89L452.49,233.89z"/>
	<polygon class="st1" points="522.09,190.43 522.29,54.05 537.64,54.08 537.51,143.48 590.26,90.91 612.42,90.95 565.94,136.9 
		614.17,190.58 593.7,190.55 555.32,147.49 537.48,165.08 537.44,190.46 522.09,190.43 	"/>
</g>
</svg>
