<?xml version="1.0" encoding="utf-8"?>
<!-- Generator: Adobe Illustrator 24.1.0, SVG Export Plug-In . SVG Version: 6.00 Build 0)  -->
<svg version="1.1" id="Layer_1" xmlns="http://www.w3.org/2000/svg" xmlns:xlink="http://www.w3.org/1999/xlink" x="0px" y="0px"
	 viewBox="0 0 720.05 546.69" style="enable-background:new 0 0 720.05 546.69;" xml:space="preserve">
<style type="text/css">
	.st0{fill:#58B947;}
	.st1{fill:#484848;}
	.st2{fill:#97999B;}
</style>
<g>
	<path class="st0" d="M267.55,233.18l-0.28,0.2c-1.62,1.14-26.03,17.92-62.61,24.07l-0.34-0.06c-1.95-0.33-31.07-5.73-61.28-27.24
		l-0.2-0.28c-1.14-1.61-17.92-26.02-24.07-62.61l0.06-0.34c0.34-1.95,5.74-31.07,27.24-61.28l0.29-0.2
		c1.61-1.14,26.02-17.92,62.6-24.06l0.34,0.05c1.95,0.34,31.08,5.74,61.29,27.25l0.2,0.29c1.14,1.61,17.92,26.02,24.07,62.59
		l-0.06,0.35C294.46,173.84,289.07,202.97,267.55,233.18 M359.56,245.81c-0.21-29.98-6.67-58.6-19.16-85.04
		c-18.51-39.16-46.92-63.39-72.24-78.14c6.53,1.41,13.22,3.27,20.02,5.71c24.68,8.83,46.93,22.91,66.14,41.83l7.37,7.27l14.53-14.75
		l-7.38-7.27c-21.36-21.03-46.15-36.71-73.69-46.57c-40.78-14.6-77.99-11.64-106.34-4.18c5.63-3.63,11.67-7.02,18.2-10.12
		c23.7-11.2,49.4-16.98,76.35-17.18l10.36-0.09l-0.16-20.7l-10.35,0.08c-29.99,0.23-58.6,6.68-85.04,19.16
		c-39.16,18.52-63.39,46.92-78.14,72.24c1.4-6.53,3.26-13.22,5.7-20.02c8.85-24.68,22.92-46.92,41.84-66.14l7.27-7.37L160.09,0
		l-7.26,7.37c-21.04,21.36-36.71,46.15-46.58,73.69c-14.6,40.77-11.64,77.99-4.18,106.33c-3.63-5.62-7.03-11.66-10.11-18.18
		c-11.2-23.71-16.98-49.4-17.19-76.35l-0.08-10.36l-20.7,0.16L54.06,93c0.24,30,6.68,58.6,19.17,85.04
		c18.52,39.15,46.92,63.38,72.24,78.15c-6.53-1.42-13.22-3.27-20.02-5.71c-24.68-8.84-46.94-22.92-66.14-41.84l-7.37-7.27
		L37.4,216.14l7.37,7.26c21.37,21.04,46.16,36.71,73.69,46.57c40.78,14.6,78,11.65,106.34,4.18c-5.63,3.63-11.66,7.03-18.2,10.11
		c-23.7,11.2-49.38,16.99-76.35,17.2l-10.35,0.07l0.15,20.71l10.35-0.09c30-0.23,58.6-6.67,85.04-19.17
		c39.16-18.51,63.38-46.92,78.15-72.23c-1.42,6.54-3.28,13.22-5.71,20.02c-8.85,24.68-22.92,46.94-41.84,66.14l-7.27,7.38
		l14.75,14.53l7.27-7.38c21.04-21.37,36.72-46.15,46.57-73.69c14.6-40.78,11.64-77.99,4.18-106.33c3.63,5.62,7.03,11.66,10.12,18.2
		c11.2,23.71,16.98,49.39,17.19,76.35l0.08,10.35l20.71-0.15L359.56,245.81L359.56,245.81z"/>
	<polygon class="st0" points="245.81,169.41 206.81,109.29 167.82,169.41 206.81,229.53 245.81,169.41 	"/>
	<path class="st1" d="M491.38,222.25c22.13,0.03,38.52-14.62,38.55-36.03l0.02-15.15c0.02-21.41-16.31-36.35-38.44-36.39
		c-19.01-0.02-38.28,11.25-38.32,36.26l-0.02,15.15C453.14,210.87,472.38,222.22,491.38,222.25 M477.32,297.04l0.04-19.49l9.62,0.02
		c19.73,0.04,42.83-5.7,42.88-33.84l0.01-14.92c-10.6,8.65-24.56,12.96-38.51,12.93c-28.87-0.05-57.72-19.1-57.67-55.67l0.03-15.15
		c0.05-36.57,28.95-55.76,57.83-55.72c13.96,0.02,27.9,4.37,38.47,13.05v-2.4l0.01-0.97l0.01-9.62l19.49,0.04l-0.01,9.62l-0.01,0.95
		l-0.17,117.88c-0.02,15.88-5.58,29.59-16.42,38.95c-11.08,9.36-26.49,14.38-45.98,14.35L477.32,297.04L477.32,297.04z"/>
	<polygon class="st1" points="565.71,241.85 565.97,68.65 585.46,68.68 585.29,182.23 652.28,115.46 680.43,115.51 621.4,173.87 
		682.65,242.04 656.66,242 607.91,187.31 585.25,209.65 585.2,241.89 565.71,241.85 	"/>
	<path class="st2" d="M537.52,525.56c17.22,0,29.46-9.07,29.46-24.36c0-16.77-13.48-20.96-25.49-24.59
		c-12.35-3.74-14.28-6.23-14.28-9.86c0-3.17,2.83-6,8.5-6c7.25,0,10.99,3.51,13.71,9.18l15.3-8.95
		c-5.78-11.67-15.98-17.9-29.01-17.9c-13.71,0-26.63,8.84-26.63,24.13c0,15.18,11.56,20.85,23.34,24.13
		c11.9,3.29,16.43,5.21,16.43,10.08c0,3.06-2.15,6.46-10.76,6.46c-8.95,0-13.82-4.42-16.66-10.99l-15.64,9.06
		C510.21,517.62,520.86,525.56,537.52,525.56L537.52,525.56z M607.2,444.66h-31.73v79.31h31.73c21.87,0,38.52-17.22,38.52-39.66
		C645.72,461.88,629.07,444.66,607.2,444.66L607.2,444.66z M607.2,506.52h-13.6V462.1h13.6c12.46,0,21.08,8.61,21.08,22.21
		C628.28,497.91,619.66,506.52,607.2,506.52L607.2,506.52z M720.05,523.97l-27.87-40.68l26.74-38.64H698.3l-24.25,34.45v-34.45
		h-18.13v79.31h18.13v-36.71l25.38,36.71H720.05L720.05,523.97z"/>
	<path class="st1" d="M31.73,444.66H0v79.31h31.73c21.87,0,38.52-17.22,38.52-39.66C70.25,461.88,53.59,444.66,31.73,444.66
		L31.73,444.66z M31.73,506.52h-13.6V462.1h13.6c12.46,0,21.07,8.61,21.07,22.21C52.8,497.91,44.19,506.52,31.73,506.52
		L31.73,506.52z M88.38,462.33c5.55,0,10.2-4.65,10.2-10.2c0-5.55-4.65-10.2-10.2-10.2c-5.55,0-10.2,4.64-10.2,10.2
		C78.18,457.69,82.82,462.33,88.38,462.33L88.38,462.33z M79.88,523.97h17v-56.65h-17V523.97L79.88,523.97z M124.86,483.86
		c0-2.04,1.81-3.17,4.76-3.17c3.74,0,6.01,2.04,7.59,4.99l14.5-7.82c-4.76-8.04-12.92-12.12-22.09-12.12
		c-11.78,0-22.21,6.23-22.21,18.58c0,19.6,27.87,16.32,27.87,22.55c0,2.27-2.04,3.51-6.12,3.51c-4.99,0-8.16-2.38-9.63-6.69
		l-14.73,8.38c4.42,9.18,13.03,13.48,24.36,13.48c12.24,0,23.57-5.55,23.57-18.58C152.73,486.01,124.86,490.32,124.86,483.86
		L124.86,483.86z M187.86,525.56c11.1,0,20.74-5.78,25.61-14.62l-14.84-8.5c-1.81,3.96-6.01,6.35-10.99,6.35
		c-7.37,0-12.8-5.33-12.8-13.14c0-7.82,5.44-13.14,12.8-13.14c4.99,0,9.07,2.38,10.99,6.34l14.84-8.61
		c-4.87-8.72-14.62-14.5-25.61-14.5c-17.22,0-30.03,13.03-30.03,29.91C157.83,512.53,170.64,525.56,187.86,525.56L187.86,525.56z
		 M246.32,525.56c16.66,0,30.03-13.03,30.03-29.91c0-16.88-13.37-29.91-30.03-29.91c-16.65,0-30.02,13.03-30.02,29.91
		C216.3,512.53,229.67,525.56,246.32,525.56L246.32,525.56z M246.32,509.01c-7.36,0-13.03-5.33-13.03-13.37
		c0-8.04,5.67-13.37,13.03-13.37c7.36,0,13.03,5.33,13.03,13.37C259.35,503.69,253.69,509.01,246.32,509.01L246.32,509.01z
		 M319.86,467.32l-11.78,35.92l-11.78-35.92h-18.81l20.96,56.65h19.26l20.96-56.65H319.86L319.86,467.32z M357.82,502.44h40.22
		c0.45-2.15,0.68-4.42,0.68-6.8c0-17.11-12.24-29.91-28.78-29.91c-17.9,0-30.14,13.03-30.14,29.91c0,16.88,12.01,29.91,31.38,29.91
		c10.76,0,19.15-3.97,24.7-11.67l-13.6-7.82c-2.27,2.49-6.23,4.31-10.88,4.31C365.18,510.37,359.97,508.33,357.82,502.44
		L357.82,502.44z M357.48,489.75c1.59-5.78,5.89-8.95,12.35-8.95c5.1,0,10.2,2.38,12.01,8.95H357.48L357.48,489.75z M425.35,477.4
		v-10.08h-17v56.65h17v-25.61c0-11.22,9.97-14.05,17-12.92v-19.26C435.2,466.18,427.61,469.81,425.35,477.4L425.35,477.4z
		 M487.1,467.32l-10.65,34.67l-12.58-34.67h-18.69l22.55,54.05c-2.49,6.91-6.23,9.4-14.16,9.4v15.86
		c15.86,0.79,25.95-6.35,32.29-24.36l19.38-54.95H487.1L487.1,467.32z"/>
</g>
</svg>
