<?xml version="1.0" encoding="UTF-8"?>
<svg id="Layer_1" data-name="Layer 1" xmlns="http://www.w3.org/2000/svg" version="1.1" viewBox="0 0 720 110.6">
  <defs>
    <style>
      .cls-1 {
        fill: #692832;
      }

      .cls-1, .cls-2 {
        stroke-width: 0px;
      }

      .cls-2 {
        fill: #c72731;
      }
    </style>
  </defs>
  <path class="cls-1" d="M0,107.9h23.8v-43.2h45.6v43.2h23.8V2.7h-23.8v40.4H23.8V2.7H0v105.2h0ZM140.8,107.9h24V23.7h33.9V2.7h-92v21h34.1v84.2h0ZM284.2,73.7c-1.6,1.8-3.2,3.5-4.9,5.3-1.7,1.7-3.6,3.3-5.8,4.6-2.2,1.3-4.6,2.4-7.4,3.2-2.8.8-6.1,1.2-9.9,1.2s-8.8-.8-12.5-2.5c-3.7-1.7-6.8-4-9.5-6.9-2.6-2.9-4.7-6.4-6.1-10.4-1.4-4-2.1-8.3-2.1-12.9s.7-8.8,2.1-12.9c1.4-4,3.4-7.6,6.1-10.6,2.6-3,5.8-5.4,9.6-7.2,3.8-1.7,8-2.6,12.8-2.6s11.1,1.3,15.5,4c4.3,2.7,8,6.2,11.2,10.6l16.2-15.6c-4.8-6.7-10.9-11.9-18.2-15.5-7.3-3.6-15.9-5.4-25.6-5.4s-15.5,1.4-22.2,4.3c-6.7,2.9-12.4,6.8-17.2,11.8-4.8,5-8.5,10.9-11.1,17.7-2.6,6.8-3.9,14.1-3.9,21.8s1.3,15.3,3.9,22c2.6,6.7,6.3,12.5,11.1,17.3,4.8,4.9,10.5,8.7,17.1,11.4,6.6,2.7,13.9,4.1,21.9,4.1s9.5-.6,14-1.7c4.5-1.2,8.6-2.7,12.5-4.7,3.8-2,7.3-4.3,10.5-7,3.2-2.7,5.8-5.5,8-8.6l-16.2-14.8h0ZM424.4,69.2h18.6v13.2c-2.7,2.2-5.8,3.8-9.3,4.8-3.5,1-7.3,1.5-11.5,1.5s-8.7-.8-12.5-2.4c-3.8-1.6-7.2-3.8-10-6.7-2.8-2.9-5-6.4-6.6-10.5-1.6-4.1-2.4-8.7-2.4-13.7s.7-9,2.1-13.1c1.4-4.1,3.4-7.7,6-10.7,2.6-3,5.8-5.5,9.6-7.3,3.8-1.8,8.1-2.7,12.9-2.7s10.9,1.3,14.9,3.8c4,2.5,7.8,5.8,11.1,9.8l16.1-15.3c-4.7-6.3-10.7-11.2-17.9-14.7-7.2-3.5-15.6-5.3-25.2-5.3s-15.5,1.4-22.1,4.3c-6.6,2.8-12.4,6.8-17.2,11.8-4.8,5-8.6,10.9-11.2,17.6-2.6,6.7-3.9,14-3.9,21.9s1.2,15.5,3.7,22.2c2.5,6.7,6.1,12.5,10.8,17.3,4.7,4.8,10.5,8.6,17.3,11.3,6.8,2.7,14.5,4,23.1,4s17.7-1.3,25-3.9c7.3-2.6,13.7-6.2,19.2-11v-45.6h-40.5v19.2h0ZM484,107.9h23.2v-38.6h13.2l19.6,38.6h26.2l-23.3-42.1c5.5-3,9.7-7.1,12.7-12.2,3-5.1,4.5-11.1,4.5-17.9s-.8-8.8-2.3-12.8c-1.5-4-3.8-7.5-6.9-10.5-3.1-3-7-5.4-11.6-7.1-4.6-1.7-10-2.6-16.1-2.6h-39.1v105.2h0ZM507.2,50.2v-27.9h14.7c4.4,0,7.9,1.3,10.4,3.8,2.5,2.5,3.8,5.9,3.8,10.3s-1.3,7.3-3.8,9.9c-2.5,2.6-6,3.9-10.4,3.9h-14.7ZM579.8,107.9h23.8V2.7h-23.8v105.2h0ZM624.1,107.9h39.6c8.1,0,15.6-1.1,22.5-3.2,6.9-2.2,12.8-5.4,17.8-9.8,5-4.4,8.9-9.8,11.8-16.2,2.8-6.5,4.3-14.1,4.3-22.8s-1.4-17.1-4.2-23.8c-2.8-6.7-6.7-12.2-11.7-16.6-5-4.3-10.9-7.5-17.8-9.6-6.9-2.1-14.4-3.2-22.5-3.2h-39.7v105.2h0ZM647.9,86.7V23.7h14.5c5.7,0,10.6.8,14.7,2.3,4.1,1.5,7.5,3.7,10.2,6.5,2.7,2.8,4.7,6.2,6,10.1,1.3,3.9,2,8.3,2,13.2,0,9.7-2.8,17.3-8.5,22.8-5.7,5.5-13.8,8.3-24.3,8.3h-14.5Z"/>
  <polygon class="cls-2" points="310.6 38.6 310.6 72 344.1 72 344.1 38.6 310.6 38.6 310.6 38.6"/>
</svg>