<?xml version="1.0" encoding="UTF-8"?>
<svg id="Layer_1" data-name="Layer 1" xmlns="http://www.w3.org/2000/svg" version="1.1" viewBox="0 0 579.9 540">
  <defs>
    <style>
      .cls-1 {
        fill: #692832;
      }

      .cls-1, .cls-2 {
        stroke-width: 0px;
      }

      .cls-2 {
        fill: #c72731;
      }
    </style>
  </defs>
  <polygon class="cls-2" points="416.2 219.4 466.7 177.4 416.2 135.3 416.2 150.4 327 150.4 327 204.3 416.2 204.3 416.2 219.4 416.2 219.4"/>
  <polygon class="cls-2" points="163.7 219.4 113.2 177.4 163.7 135.3 163.7 150.4 252.9 150.4 252.9 204.3 163.7 204.3 163.7 219.4 163.7 219.4"/>
  <polygon class="cls-2" points="332 304.2 290 354.7 247.9 304.2 263 304.2 263 215 316.9 215 316.9 304.2 332 304.2 332 304.2"/>
  <polygon class="cls-1" points="199.1 85.8 199.1 139.7 252.9 139.7 252.9 85.8 199.1 85.8 199.1 85.8"/>
  <polygon class="cls-1" points="199.1 215 199.1 268.9 252.9 268.9 252.9 215 199.1 215 199.1 215"/>
  <polygon class="cls-1" points="263 150.4 263 204.3 316.9 204.3 316.9 150.4 263 150.4 263 150.4"/>
  <polygon class="cls-1" points="327 85.8 327 139.7 380.8 139.7 380.8 85.8 327 85.8 327 85.8"/>
  <polygon class="cls-1" points="327 215 327 268.9 380.8 268.9 380.8 215 327 215 327 215"/>
  <polygon class="cls-2" points="332 50.5 290 0 247.9 50.5 263 50.5 263 139.7 316.9 139.7 316.9 50.5 332 50.5 332 50.5"/>
  <path class="cls-1" d="M0,537.8h19.2v-34.8h36.7v34.8h19.2v-84.7h-19.2v32.5H19.2v-32.5H0v84.7h0ZM113.4,537.8h19.3v-67.8h27.3v-16.9h-74.1v16.9h27.4v67.8h0ZM228.9,510.3c-1.3,1.4-2.6,2.9-3.9,4.3-1.4,1.4-2.9,2.6-4.6,3.7-1.7,1.1-3.7,1.9-6,2.5-2.2.6-4.9,1-7.9,1s-7.1-.7-10-2c-3-1.4-5.5-3.2-7.6-5.6-2.1-2.4-3.7-5.2-4.9-8.4-1.1-3.2-1.7-6.7-1.7-10.4s.6-7.1,1.7-10.4c1.1-3.3,2.8-6.1,4.9-8.6,2.1-2.5,4.7-4.4,7.7-5.8,3-1.4,6.5-2.1,10.3-2.1s9,1.1,12.4,3.2c3.5,2.2,6.5,5,9,8.6l13.1-12.6c-3.9-5.4-8.8-9.6-14.7-12.4-5.9-2.9-12.8-4.3-20.6-4.3s-12.5,1.2-17.8,3.5c-5.4,2.3-10,5.5-13.8,9.5-3.9,4-6.8,8.8-9,14.2-2.1,5.5-3.2,11.3-3.2,17.6s1.1,12.3,3.2,17.7c2.1,5.4,5.1,10,9,14,3.9,3.9,8.4,7,13.8,9.2,5.3,2.2,11.2,3.3,17.7,3.3s7.6-.5,11.2-1.4c3.6-.9,6.9-2.2,10-3.8,3.1-1.6,5.9-3.5,8.4-5.7,2.5-2.2,4.7-4.5,6.5-6.9l-13.1-11.9h0ZM341.9,506.7h15v10.7c-2.2,1.8-4.7,3.1-7.5,3.9-2.8.8-5.9,1.2-9.3,1.2s-7-.6-10.1-1.9c-3.1-1.3-5.8-3.1-8.1-5.4-2.3-2.3-4.1-5.1-5.3-8.4-1.3-3.3-1.9-7-1.9-11.1s.5-7.2,1.7-10.5c1.1-3.3,2.7-6.2,4.8-8.6,2.1-2.5,4.7-4.4,7.7-5.8,3-1.4,6.5-2.2,10.4-2.2s8.7,1,12,3c3.3,2,6.2,4.7,9,7.9l13-12.3c-3.8-5.1-8.6-9-14.4-11.9-5.8-2.8-12.6-4.3-20.3-4.3s-12.4,1.1-17.8,3.4c-5.3,2.3-10,5.4-13.8,9.5-3.9,4-6.9,8.7-9,14.2-2.1,5.4-3.2,11.3-3.2,17.7s1,12.5,3,17.9c2,5.4,4.9,10.1,8.7,14,3.8,3.9,8.4,6.9,13.9,9.1,5.5,2.2,11.7,3.2,18.6,3.2s14.2-1,20.1-3.1c5.9-2.1,11-5,15.4-8.8v-36.7h-32.6v15.5h0ZM389.9,537.8h18.7v-31.1h10.7l15.8,31.1h21.1l-18.8-33.9c4.4-2.5,7.8-5.7,10.2-9.8,2.4-4.1,3.6-8.9,3.6-14.4s-.6-7.1-1.8-10.3c-1.2-3.2-3.1-6-5.6-8.4-2.5-2.4-5.6-4.3-9.3-5.7-3.7-1.4-8-2.1-13-2.1h-31.5v84.7h0ZM408.6,491.3v-22.5h11.8c3.6,0,6.4,1,8.4,3,2,2,3,4.8,3,8.3s-1,5.9-3,8c-2,2.1-4.8,3.2-8.4,3.2h-11.8ZM467,537.8h19.2v-84.7h-19.2v84.7h0ZM502.7,537.8h31.9c6.5,0,12.6-.9,18.1-2.6,5.5-1.7,10.3-4.4,14.4-7.9,4-3.5,7.2-7.9,9.5-13.1,2.3-5.2,3.4-11.3,3.4-18.4s-1.1-13.8-3.4-19.2c-2.2-5.4-5.4-9.9-9.4-13.3-4-3.5-8.8-6.1-14.4-7.7-5.5-1.7-11.6-2.5-18.1-2.5h-32v84.7h0ZM521.9,520.8v-50.8h11.7c4.6,0,8.5.6,11.8,1.8,3.3,1.2,6,3,8.2,5.2,2.2,2.2,3.8,5,4.8,8.1,1.1,3.2,1.6,6.7,1.6,10.6,0,7.8-2.3,13.9-6.9,18.4-4.6,4.4-11.1,6.7-19.6,6.7h-11.7Z"/>
  <polygon class="cls-2" points="250.2 482 250.2 508.9 277.1 508.9 277.1 482 250.2 482 250.2 482"/>
</svg>