<?xml version="1.0" encoding="UTF-8"?> <svg xmlns="http://www.w3.org/2000/svg" width="182.743" height="61.054" viewBox="0 0 182.743 61.054"><defs><style> .cls-1 { fill: #bd5f76; } .cls-2 { fill: #be706d; } .cls-3 { fill: #bd4e4a; } .cls-4 { fill: #eb703b; } .cls-5 { fill: #8d835c; } .cls-6 { fill: #8c6845; } .cls-7 { fill: #8c9557; } .cls-8 { fill: #7c8e72; } .cls-9 { fill: #4a8256; } .cls-10 { fill: #23ad7e; } .cls-11 { fill: #7c7e79; } .cls-12 { fill: #637da6; } .cls-13 { fill: #6d5b6e; } .cls-14 { fill: #42746c; } .cls-15 { fill: #768178; } .cls-16 { fill: #c093c2; } .cls-17 { fill: #72c38a; } .cls-18 { fill: #f09486; } .cls-19 { fill: #f3b26b; } .cls-20 { fill: #60c2d0; } .cls-21 { fill: #fff; } </style></defs><g id="iwa-footer-logo" transform="translate(-354.993 -120.295)"><g id="Group_1" data-name="Group 1" transform="translate(354.993 120.295)"><path id="Path_1" data-name="Path 1" class="cls-1" d="M472.156,253.552a43.973,43.973,0,0,1-2.97,3.292,9.5,9.5,0,0,0-6.544.726c-3.751,1.817-8.492,2.373-12.4-.839a18.141,18.141,0,0,1,1-2.307,11.5,11.5,0,0,1,2.017-2.8,8.936,8.936,0,0,0,6.283.914,14.4,14.4,0,0,0,5.282-1.95A14.389,14.389,0,0,0,472.156,253.552Z" transform="translate(-422.643 -212.83)"></path><path id="Path_2" data-name="Path 2" class="cls-2" d="M535.252,208.085a14.447,14.447,0,0,1-1.662,2.1,5.834,5.834,0,0,0-.946,6.638,16.492,16.492,0,0,1,1.115,2.259,12.782,12.782,0,0,1-3.28,1.174,14.682,14.682,0,0,1-4.619.267,9.048,9.048,0,0,0,1.655-3.274c1.112-4.4-.837-8.256.392-13.168a11.162,11.162,0,0,0,3.958,2.14A9.517,9.517,0,0,1,535.252,208.085Z" transform="translate(-476.348 -179.801)"></path><path id="Path_3" data-name="Path 3" class="cls-1" d="M524.615,178.276a6.567,6.567,0,0,1,3.247-.214,11.063,11.063,0,0,1-1.318,2.922,15.443,15.443,0,0,0-2,4.538,15.409,15.409,0,0,1-3.418-4.5A6.627,6.627,0,0,1,524.615,178.276Z" transform="translate(-472.987 -161.243)"></path><path id="Path_4" data-name="Path 4" class="cls-3" d="M509.935,193.039c-1.229,4.913.72,8.769-.392,13.168a9.048,9.048,0,0,1-1.655,3.274,14.389,14.389,0,0,1-7.333-2.967c4.262-2.722,5.2-7.4,4.63-11.532a9.494,9.494,0,0,1,1.332-6.448A15.411,15.411,0,0,0,509.935,193.039Z" transform="translate(-458.376 -168.76)"></path><path id="Path_5" data-name="Path 5" class="cls-4" d="M496.888,179.119a9.494,9.494,0,0,0-1.332,6.448c.569,4.13-.368,8.81-4.63,11.532a18.143,18.143,0,0,1-1.885-1.662A11.494,11.494,0,0,1,487,192.653a8.932,8.932,0,0,0,2.811-5.692,14.409,14.409,0,0,0-.222-5.627,14.387,14.387,0,0,0,5.088-6.057A43.964,43.964,0,0,1,496.888,179.119Z" transform="translate(-448.746 -159.345)"></path><path id="Path_6" data-name="Path 6" class="cls-4" d="M444.868,137.649a15.417,15.417,0,0,1-5.341,1.858,6.508,6.508,0,0,1-.73-7.317,11.035,11.035,0,0,1,2.372,2.156A15.434,15.434,0,0,0,444.868,137.649Z" transform="translate(-413.945 -128.743)"></path><path id="Path_7" data-name="Path 7" class="cls-5" d="M477.782,136.01a12.819,12.819,0,0,1,.1,3.483,14.685,14.685,0,0,1-1.172,4.474,9.056,9.056,0,0,0-2.6-2.585c-3.839-2.418-8.11-1.755-12.4-4.442a11.173,11.173,0,0,0,3.258-3.1,9.512,9.512,0,0,1,2.82-2.644,14.419,14.419,0,0,1,1.483,2.229,5.836,5.836,0,0,0,6.021,2.95A16.479,16.479,0,0,1,477.782,136.01Z" transform="translate(-430.784 -128.035)"></path><path id="Path_8" data-name="Path 8" class="cls-6" d="M463.623,158.055a14.387,14.387,0,0,1-5.088,6.057c-1.272-4.894-5.434-7.231-9.537-7.966a9.5,9.5,0,0,1-5.721-3.259,15.417,15.417,0,0,0,5.341-1.858c4.292,2.687,8.563,2.024,12.4,4.442A9.057,9.057,0,0,1,463.623,158.055Z" transform="translate(-417.695 -142.122)"></path><path id="Path_9" data-name="Path 9" class="cls-7" d="M447.9,168.667a18.142,18.142,0,0,1-2.163,1.279,11.483,11.483,0,0,1-3.281,1.083,8.932,8.932,0,0,0-4.544-4.433,14.405,14.405,0,0,0-5.42-1.527,14.387,14.387,0,0,0-4.188-6.711,44.036,44.036,0,0,1,4.338-.918,9.5,9.5,0,0,0,5.721,3.259C442.469,161.435,446.632,163.772,447.9,168.667Z" transform="translate(-407.063 -146.677)"></path><path id="Path_10" data-name="Path 10" class="cls-7" d="M371.921,202.365a15.409,15.409,0,0,1,.117,5.653,6.506,6.506,0,0,1-7.185-1.566,11.064,11.064,0,0,1,2.784-1.589A15.443,15.443,0,0,0,371.921,202.365Z" transform="translate(-361.997 -178.583)"></path><path id="Path_11" data-name="Path 11" class="cls-8" d="M391.769,152.088a9.057,9.057,0,0,0-3.263,1.678c-3.485,2.9-4.175,7.171-8.057,10.423a11.165,11.165,0,0,0-1.944-4.058,9.519,9.519,0,0,1-1.644-3.5,14.45,14.45,0,0,1,2.578-.722,5.833,5.833,0,0,0,4.666-4.814,16.455,16.455,0,0,1,.427-2.483,12.8,12.8,0,0,1,3.344.979A14.7,14.7,0,0,1,391.769,152.088Z" transform="translate(-370.524 -140.406)"></path><path id="Path_12" data-name="Path 12" class="cls-9" d="M404.751,167.319c-5.048-.3-8.556,2.934-10.523,6.609a9.5,9.5,0,0,1-4.868,4.434,15.407,15.407,0,0,0-.117-5.653c3.882-3.252,4.572-7.518,8.057-10.423a9.058,9.058,0,0,1,3.263-1.678A14.388,14.388,0,0,1,404.751,167.319Z" transform="translate(-379.318 -148.926)"></path><path id="Path_13" data-name="Path 13" class="cls-10" d="M404.441,186.171a11.494,11.494,0,0,1,.017,3.454,8.936,8.936,0,0,0-5.621,2.953,14.409,14.409,0,0,0-3.128,4.683,14.391,14.391,0,0,0-7.677,1.909,44.054,44.054,0,0,1,.468-4.409,9.5,9.5,0,0,0,4.868-4.434c1.967-3.675,5.475-6.911,10.523-6.609A18.094,18.094,0,0,1,404.441,186.171Z" transform="translate(-378.459 -165.326)"></path><path id="Path_14" data-name="Path 14" class="cls-10" d="M421.087,288.781a6.5,6.5,0,0,1-3.709,6.349,11.045,11.045,0,0,1-.652-3.139,15.444,15.444,0,0,0-1.051-4.845A15.417,15.417,0,0,1,421.087,288.781Z" transform="translate(-398.091 -238.797)"></path><path id="Path_15" data-name="Path 15" class="cls-11" d="M464.6,288.206a11.167,11.167,0,0,0-.812,4.426,9.507,9.507,0,0,1-.728,3.8,14.487,14.487,0,0,1-2.51-.932,5.833,5.833,0,0,0-6.6,1.152,16.511,16.511,0,0,1-1.8,1.758,12.8,12.8,0,0,1-2.13-2.757,14.67,14.67,0,0,1-1.682-4.309,9.052,9.052,0,0,0,3.625.561C456.48,291.6,459.545,288.555,464.6,288.206Z" transform="translate(-421.281 -239.55)"></path><path id="Path_16" data-name="Path 16" class="cls-12" d="M512.594,277.675a11.051,11.051,0,0,1-3.187-.351,15.437,15.437,0,0,0-4.933-.5,15.428,15.428,0,0,1,3.228-4.642,6.506,6.506,0,0,1,4.892,5.49Z" transform="translate(-461.158 -228.171)"></path><path id="Path_17" data-name="Path 17" class="cls-13" d="M467.058,271.478a15.428,15.428,0,0,0-3.228,4.642c-5.052.349-8.117,3.395-12.645,3.7a9.052,9.052,0,0,1-3.625-.561,14.388,14.388,0,0,1,.556-7.891c3.906,3.211,8.647,2.655,12.4.839A9.5,9.5,0,0,1,467.058,271.478Z" transform="translate(-420.514 -227.464)"></path><path id="Path_18" data-name="Path 18" class="cls-12" d="M423.125,242.466a14.388,14.388,0,0,0-.556,7.891,43.866,43.866,0,0,1-4.049-1.808,9.495,9.495,0,0,0-2.712-6c-2.888-3.006-4.881-7.343-3.034-12.05a18.117,18.117,0,0,1,2.5.236,11.484,11.484,0,0,1,3.291,1.052,8.935,8.935,0,0,0,1.071,6.258A14.41,14.41,0,0,0,423.125,242.466Z" transform="translate(-395.523 -198.565)"></path><path id="Path_19" data-name="Path 19" class="cls-14" d="M398.736,242.54a9.495,9.495,0,0,1,2.712,6,15.416,15.416,0,0,0-5.412-1.635c-1.893-4.7-5.738-6.671-7.423-10.884a9.056,9.056,0,0,1-.587-3.622,14.391,14.391,0,0,1,7.677-1.909C393.855,235.2,395.849,239.533,398.736,242.54Z" transform="translate(-378.452 -198.555)"></path><path id="Path_20" data-name="Path 20" class="cls-15" d="M382.46,251.593a11.17,11.17,0,0,0-4.46.6,9.507,9.507,0,0,1-3.836.482,14.454,14.454,0,0,1,.111-2.675,5.834,5.834,0,0,0-3.137-5.926,16.459,16.459,0,0,1-2.229-1.173,12.8,12.8,0,0,1,1.964-2.878,14.7,14.7,0,0,1,3.578-2.931,9.056,9.056,0,0,0,.587,3.622C376.722,244.923,380.567,246.9,382.46,251.593Z" transform="translate(-364.876 -203.244)"></path><path id="Path_21" data-name="Path 21" class="cls-16" d="M369.015,258.308a5.834,5.834,0,0,1,3.137,5.926,14.444,14.444,0,0,0-.111,2.675,6.568,6.568,0,0,1-5.288-3.222,6.759,6.759,0,0,1,.032-6.551A16.461,16.461,0,0,0,369.015,258.308Z" transform="translate(-362.753 -217.482)"></path><path id="Path_22" data-name="Path 22" class="cls-16" d="M441.66,240.51a11.5,11.5,0,0,0-2.017,2.8,18.125,18.125,0,0,0-1,2.307,14.41,14.41,0,0,1-3.487-4.422,8.935,8.935,0,0,1-1.071-6.258C437.167,236.466,439.037,239.044,441.66,240.51Z" transform="translate(-411.044 -201.72)"></path><path id="Path_23" data-name="Path 23" class="cls-16" d="M526.482,255.848a7.821,7.821,0,0,1-.075,6.9,6.834,6.834,0,0,1-5.9,3.325,6.506,6.506,0,0,0-4.892-5.49,44.031,44.031,0,0,0,2.97-3.292,14.68,14.68,0,0,0,4.619-.268A12.777,12.777,0,0,0,526.482,255.848Z" transform="translate(-469.069 -216.568)"></path><path id="Path_24" data-name="Path 24" class="cls-16" d="M541.308,182.782a7.916,7.916,0,0,1-1.04,7.019,9.517,9.517,0,0,0-3.387-1.865,11.164,11.164,0,0,1-3.958-2.14,15.441,15.441,0,0,1,2-4.538,11.065,11.065,0,0,0,1.318-2.922A6.6,6.6,0,0,1,541.308,182.782Z" transform="translate(-481.364 -161.517)"></path><path id="Path_25" data-name="Path 25" class="cls-17" d="M396.392,291.917a11.046,11.046,0,0,0,.652,3.139,6.6,6.6,0,0,1-6.715-.617,7.917,7.917,0,0,1-3.285-6.29,9.506,9.506,0,0,0,3.836-.482,11.171,11.171,0,0,1,4.46-.6A15.442,15.442,0,0,1,396.392,291.917Z" transform="translate(-377.757 -238.723)"></path><path id="Path_26" data-name="Path 26" class="cls-17" d="M365.035,218.034a44.072,44.072,0,0,0-.468,4.409,14.693,14.693,0,0,0-3.578,2.931,12.794,12.794,0,0,0-1.964,2.878,7.818,7.818,0,0,1-3.995-5.626,6.834,6.834,0,0,1,2.82-6.159,6.506,6.506,0,0,0,7.185,1.567Z" transform="translate(-354.993 -188.599)"></path><path id="Path_27" data-name="Path 27" class="cls-17" d="M448.181,185.294a8.932,8.932,0,0,1,4.544,4.433c-3.387.578-6.415-.409-9.4-.054a11.5,11.5,0,0,0-.017-3.454,18.09,18.09,0,0,0-.549-2.452A14.405,14.405,0,0,1,448.181,185.294Z" transform="translate(-417.328 -165.374)"></path><path id="Path_28" data-name="Path 28" class="cls-17" d="M492.68,133.432a16.477,16.477,0,0,0-2.493.362,5.836,5.836,0,0,1-6.021-2.95,14.416,14.416,0,0,0-1.483-2.229,6.567,6.567,0,0,1,6.173-.5A6.758,6.758,0,0,1,492.68,133.432Z" transform="translate(-445.682 -125.457)"></path><path id="Path_29" data-name="Path 29" class="cls-18" d="M472.4,312.956a6.568,6.568,0,0,1-4.7,4.033,6.759,6.759,0,0,1-6.22-2.055,16.513,16.513,0,0,0,1.8-1.758,5.833,5.833,0,0,1,6.6-1.152A14.476,14.476,0,0,0,472.4,312.956Z" transform="translate(-430.623 -256.077)"></path><path id="Path_30" data-name="Path 30" class="cls-18" d="M470.327,238.026a18.144,18.144,0,0,0,1.885,1.662,14.4,14.4,0,0,1-5.282,1.95,8.936,8.936,0,0,1-6.283-.915c2.4-2.458,5.431-3.44,7.635-5.481A11.494,11.494,0,0,0,470.327,238.026Z" transform="translate(-430.032 -201.933)"></path><path id="Path_31" data-name="Path 31" class="cls-18" d="M521.1,149.957a6.834,6.834,0,0,1,1.338,6.64,6.505,6.505,0,0,0-6.733,2.955,43.938,43.938,0,0,0-2.213-3.842,14.684,14.684,0,0,0,1.172-4.474,12.822,12.822,0,0,0-.1-3.483A7.82,7.82,0,0,1,521.1,149.957Z" transform="translate(-467.562 -139.779)"></path><path id="Path_32" data-name="Path 32" class="cls-18" d="M446.552,120.295a7.916,7.916,0,0,1,6.354,3.158,9.513,9.513,0,0,0-2.82,2.644,11.172,11.172,0,0,1-3.258,3.1,15.433,15.433,0,0,1-3.7-3.3,11.036,11.036,0,0,0-2.372-2.156A6.6,6.6,0,0,1,446.552,120.295Z" transform="translate(-415.905 -120.295)"></path><path id="Path_33" data-name="Path 33" class="cls-19" d="M550.3,217.9a6.567,6.567,0,0,1,2.384,5.716,6.758,6.758,0,0,1-3.876,5.28,16.5,16.5,0,0,0-1.115-2.259,5.834,5.834,0,0,1,.945-6.638A14.439,14.439,0,0,0,550.3,217.9Z" transform="translate(-491.398 -189.617)"></path><path id="Path_34" data-name="Path 34" class="cls-19" d="M482.591,196.18a14.41,14.41,0,0,1,.222,5.627A8.932,8.932,0,0,1,480,207.5c-1.6-3.043-1.593-6.228-2.854-8.956a11.485,11.485,0,0,0,3.281-1.083A18.148,18.148,0,0,0,482.591,196.18Z" transform="translate(-441.751 -174.191)"></path><path id="Path_35" data-name="Path 35" class="cls-19" d="M365.538,179.785a11.165,11.165,0,0,1,1.944,4.058,15.444,15.444,0,0,1-4.283,2.5,11.063,11.063,0,0,0-2.784,1.589,6.6,6.6,0,0,1-1.487-6.576,7.915,7.915,0,0,1,4.967-5.067A9.522,9.522,0,0,0,365.538,179.785Z" transform="translate(-357.558 -160.061)"></path><path id="Path_36" data-name="Path 36" class="cls-19" d="M414.177,128.9a6.508,6.508,0,0,0,.73,7.317,44.036,44.036,0,0,0-4.338.918,14.7,14.7,0,0,0-3.893-2.5,12.8,12.8,0,0,0-3.344-.979,7.818,7.818,0,0,1,4.116-5.537A6.833,6.833,0,0,1,414.177,128.9Z" transform="translate(-389.325 -125.456)"></path><path id="Path_37" data-name="Path 37" class="cls-20" d="M508.821,288.974a6.6,6.6,0,0,1-2.662,6.2,7.916,7.916,0,0,1-7,1.18,9.506,9.506,0,0,0,.728-3.8,11.167,11.167,0,0,1,.812-4.426,15.436,15.436,0,0,1,4.933.5A11.047,11.047,0,0,0,508.821,288.974Z" transform="translate(-457.386 -239.47)"></path><path id="Path_38" data-name="Path 38" class="cls-20" d="M433.122,301.662a7.818,7.818,0,0,1-6.585,2.061,6.831,6.831,0,0,1-4.985-4.585,6.5,6.5,0,0,0,3.709-6.349,43.861,43.861,0,0,0,4.049,1.808,14.674,14.674,0,0,0,1.682,4.309A12.805,12.805,0,0,0,433.122,301.662Z" transform="translate(-402.265 -242.804)"></path><path id="Path_39" data-name="Path 39" class="cls-20" d="M423.273,204.149c-.5,3.4-2.372,5.975-2.956,8.923a11.482,11.482,0,0,0-3.291-1.052,18.108,18.108,0,0,0-2.5-.236,14.408,14.408,0,0,1,3.128-4.683A8.936,8.936,0,0,1,423.273,204.149Z" transform="translate(-397.274 -179.85)"></path><path id="Path_40" data-name="Path 40" class="cls-20" d="M384.042,148.384a16.452,16.452,0,0,0-.427,2.483,5.833,5.833,0,0,1-4.666,4.814,14.451,14.451,0,0,0-2.578.722,6.568,6.568,0,0,1,1.431-6.025A6.76,6.76,0,0,1,384.042,148.384Z" transform="translate(-370.035 -140.179)"></path></g><g id="Group_2" data-name="Group 2" transform="translate(424.777 125.979)"><path id="Path_41" data-name="Path 41" class="cls-21" d="M605.533,165.152h-4.284V143.934h4.284Z" transform="translate(-599.675 -142.768)"></path><path id="Path_42" data-name="Path 42" class="cls-21" d="M629.8,162.028l.116,1.559a4.374,4.374,0,0,1,3.658-1.851q4.066,0,4.182,5.7V177.8H633.62V167.741a3.622,3.622,0,0,0-.4-1.945,1.561,1.561,0,0,0-1.406-.6,1.926,1.926,0,0,0-1.749,1.151V177.8h-4.139V162.028Z" transform="translate(-617.201 -155.412)"></path><path id="Path_43" data-name="Path 43" class="cls-21" d="M677.43,149.365v3.877h2.113v3.089H677.43v7.837a2.31,2.31,0,0,0,.255,1.284,1.15,1.15,0,0,0,.984.35,3.85,3.85,0,0,0,.976-.1l-.029,3.206a6.423,6.423,0,0,1-2.273.393q-3.993,0-4.036-4.581v-8.389h-1.822v-3.089h1.822v-3.877Z" transform="translate(-649.558 -146.625)"></path><path id="Path_44" data-name="Path 44" class="cls-21" d="M710.546,178.087a6.463,6.463,0,0,1-4.955-1.894,7.625,7.625,0,0,1-1.778-5.421v-1.253a8.963,8.963,0,0,1,1.632-5.756,5.658,5.658,0,0,1,4.678-2.026,5.355,5.355,0,0,1,4.474,1.9,9.065,9.065,0,0,1,1.531,5.624v2.022h-8.2a4.289,4.289,0,0,0,.772,2.569,2.609,2.609,0,0,0,2.113.812,4.636,4.636,0,0,0,3.453-1.414l1.618,2.492a5.326,5.326,0,0,1-2.2,1.7A7.556,7.556,0,0,1,710.546,178.087Zm-2.594-9.676h4.124v-.379a4.41,4.41,0,0,0-.466-2.142,1.623,1.623,0,0,0-1.516-.729,1.715,1.715,0,0,0-1.567.773A5.315,5.315,0,0,0,707.952,168.411Z" transform="translate(-672.518 -155.412)"></path><path id="Path_45" data-name="Path 45" class="cls-21" d="M761.04,166.007l-1.37-.117a2.25,2.25,0,0,0-2.288,1.487V177.8h-4.139V162.028h3.891l.116,1.7a2.987,2.987,0,0,1,2.7-2,2.889,2.889,0,0,1,1.137.189Z" transform="translate(-707.626 -155.412)"></path><path id="Path_46" data-name="Path 46" class="cls-21" d="M797.975,157.268l2.011-13.334h4.24l-3.774,21.218h-4.3l-2.477-12.5-2.448,12.5h-4.314l-3.789-21.218h4.27l2,13.319,2.492-13.319h3.6Z" transform="translate(-728.848 -142.768)"></path><path id="Path_47" data-name="Path 47" class="cls-21" d="M857.488,169.4a8.561,8.561,0,0,1,1.69-5.625,6.417,6.417,0,0,1,9.385,0,8.609,8.609,0,0,1,1.69,5.654v1.006a8.577,8.577,0,0,1-1.676,5.625,6.465,6.465,0,0,1-9.406-.007,8.6,8.6,0,0,1-1.683-5.647Zm4.139,1.034q0,4.227,2.259,4.226,2.084,0,2.244-3.527l.015-1.734a6.64,6.64,0,0,0-.6-3.2,1.862,1.862,0,0,0-1.691-1.042,1.814,1.814,0,0,0-1.639,1.042,6.7,6.7,0,0,0-.59,3.2Z" transform="translate(-781.663 -155.412)"></path><path id="Path_48" data-name="Path 48" class="cls-21" d="M916.625,166.007l-1.37-.117a2.25,2.25,0,0,0-2.288,1.487V177.8h-4.139V162.028h3.891l.117,1.7a2.988,2.988,0,0,1,2.7-2,2.889,2.889,0,0,1,1.137.189Z" transform="translate(-818.126 -155.412)"></path><path id="Path_49" data-name="Path 49" class="cls-21" d="M946.558,156.218l-1.107,1.238v4.838h-4.124V139.911h4.124v12.1l.51-.758,2.857-4.721h4.911l-4.576,6.5,5.013,9.268h-4.722Z" transform="translate(-841.207 -139.911)"></path><path id="Path_50" data-name="Path 50" class="cls-21" d="M607.329,254.024h-5.844l-1.136,4.343h-4.532l6.631-21.218h3.92l6.674,21.218h-4.576Zm-4.911-3.57h3.963L604.4,242.89Z" transform="translate(-595.817 -208.972)"></path><path id="Path_51" data-name="Path 51" class="cls-21" d="M665.137,255.509H661V233.125h4.138Z" transform="translate(-642.111 -206.114)"></path><path id="Path_52" data-name="Path 52" class="cls-21" d="M688.945,255.509h-4.139V233.125h4.139Z" transform="translate(-659.019 -206.114)"></path><path id="Path_53" data-name="Path 53" class="cls-21" d="M708,236.518a2.131,2.131,0,0,1,.612-1.573,2.481,2.481,0,0,1,3.264,0,2.13,2.13,0,0,1,.612,1.573,2.245,2.245,0,1,1-4.489,0Zm4.328,19.848h-4.139V240.6h4.139Z" transform="translate(-675.492 -206.971)"></path><path id="Path_54" data-name="Path 54" class="cls-21" d="M738.243,271.01a5.749,5.749,0,0,1-.35-1.224,3.525,3.525,0,0,1-3,1.516,4.441,4.441,0,0,1-3.286-1.311,4.608,4.608,0,0,1-1.3-3.4,4.772,4.772,0,0,1,1.581-3.832,6.914,6.914,0,0,1,4.554-1.385h1.253V260.11a2.378,2.378,0,0,0-.364-1.5,1.307,1.307,0,0,0-1.064-.437q-1.545,0-1.544,1.807h-4.124a4.564,4.564,0,0,1,1.639-3.607,6.1,6.1,0,0,1,4.146-1.421,5.607,5.607,0,0,1,4.015,1.348,5.061,5.061,0,0,1,1.42,3.855v7.417a7.765,7.765,0,0,0,.583,3.192v.247Zm-2.434-2.944a2.3,2.3,0,0,0,1.166-.277,1.957,1.957,0,0,0,.714-.655v-3.279H736.7a2.116,2.116,0,0,0-1.654.671,2.574,2.574,0,0,0-.6,1.792Q734.44,268.067,735.81,268.066Z" transform="translate(-691.331 -221.615)"></path><path id="Path_55" data-name="Path 55" class="cls-21" d="M782.689,255.242l.117,1.559a4.374,4.374,0,0,1,3.658-1.85q4.066,0,4.182,5.7V271.01h-4.138V260.955a3.625,3.625,0,0,0-.4-1.946,1.561,1.561,0,0,0-1.406-.6,1.926,1.926,0,0,0-1.749,1.151V271.01h-4.139V255.242Z" transform="translate(-725.785 -221.615)"></path><path id="Path_56" data-name="Path 56" class="cls-21" d="M832.857,267.877q1.793,0,1.822-2.332h3.876a5.793,5.793,0,0,1-1.588,4.168,5.39,5.39,0,0,1-4.022,1.588,5.748,5.748,0,0,1-4.649-1.895,8.547,8.547,0,0,1-1.632-5.581v-1.254a8.825,8.825,0,0,1,1.581-5.669,5.655,5.655,0,0,1,4.67-1.953,5.346,5.346,0,0,1,4.11,1.61,6.552,6.552,0,0,1,1.53,4.569h-3.876a4.132,4.132,0,0,0-.438-2.04,1.5,1.5,0,0,0-1.4-.714,1.667,1.667,0,0,0-1.545.765,6.524,6.524,0,0,0-.5,2.965v1.6a12.839,12.839,0,0,0,.19,2.689,2.021,2.021,0,0,0,.627,1.122A1.907,1.907,0,0,0,832.857,267.877Z" transform="translate(-759.77 -221.615)"></path><path id="Path_57" data-name="Path 57" class="cls-21" d="M879.678,271.3a6.463,6.463,0,0,1-4.955-1.895,7.625,7.625,0,0,1-1.778-5.421v-1.253a8.967,8.967,0,0,1,1.632-5.756,5.66,5.66,0,0,1,4.678-2.025,5.357,5.357,0,0,1,4.474,1.9,9.064,9.064,0,0,1,1.53,5.624V264.5h-8.2a4.292,4.292,0,0,0,.772,2.569,2.611,2.611,0,0,0,2.113.812,4.638,4.638,0,0,0,3.454-1.414l1.618,2.492a5.323,5.323,0,0,1-2.2,1.7A7.553,7.553,0,0,1,879.678,271.3Zm-2.594-9.676h4.124v-.379a4.411,4.411,0,0,0-.466-2.142,1.623,1.623,0,0,0-1.516-.729,1.715,1.715,0,0,0-1.566.772A5.318,5.318,0,0,0,877.084,261.625Z" transform="translate(-792.641 -221.615)"></path></g></g></svg> 