<?xml version="1.0" encoding="utf-8"?>
<!-- Generator: Adobe Illustrator 15.1.0, SVG Export Plug-In . SVG Version: 6.00 Build 0)  -->
<!DOCTYPE svg PUBLIC "-//W3C//DTD SVG 1.1//EN" "http://www.w3.org/Graphics/SVG/1.1/DTD/svg11.dtd">
<svg version="1.1" id="Layer_1" xmlns="http://www.w3.org/2000/svg" xmlns:xlink="http://www.w3.org/1999/xlink" x="0px" y="0px"
	 width="297.359px" height="73.2px" viewBox="0 0 297.359 73.2" enable-background="new 0 0 297.359 73.2" xml:space="preserve">
<g>
	<g>
		<path fill="#0056A0" d="M215.521,0c0.08,0,0.16,0,0.24,0c0,23.809,0,47.619,0,71.428c0,0.271-0.141,0.719,0,0.813
			C215.2,48.64,215.681,24,215.521,0z"/>
		<path fill="#211F1F" d="M215.761,0c0.08,0,0.16,0,0.239,0c-0.158,23.868,0.444,48.413-0.1,71.894
			c-0.003,0.131,0.047,0.347-0.14,0.347C215.761,48.161,215.761,24.08,215.761,0z"/>
		<path fill="#0056A0" d="M50.88,73.2c-2.32,0-4.64,0-6.96,0c-5.172-0.508-8.262-3.099-13.2-3.84c-1.488,0.432-0.497,3.344-2.16,3.6
			c-0.247-5.207-0.71-12.709,0.24-17.52c1.514,3.889,2.871,7.484,6,10.561c4.452,4.375,13.365,7.246,20.64,3.601
			c6.457-3.235,8.662-13.677,3.36-20.16c-8.482-10.373-31.227-11.155-29.04-31.68C30.971,6.394,42.347-1.278,55.68,1.2
			c1.883,0.35,4.127,1.748,6.24,1.44c1.882-0.274,1.229-1.382,2.88-2.16c0.428,2.125,0.24,4.941,0.24,7.68
			c0,2.711,0.583,5.856-0.721,7.44C62.47,8.043,57.526,1.788,47.76,2.88C37.346,4.045,32.079,18.805,39.6,27.12
			c6.229,6.887,20.87,10.115,26.4,18.96C73.628,58.282,63.147,72.681,50.88,73.2z"/>
		<path fill="#0056A0" d="M173.04,1.2c5.874,16.42,12.215,35.241,18.479,53.041c2.184,6.198,4.104,16.211,11.76,16.799
			c-1.157,1.315-3.448,0.721-5.279,0.721c-5.396,0-12.695,0.387-17.521-0.479c1.91-1.154,4.807-0.205,6.24-1.441
			c2.922-2.518-0.844-10.364-1.92-13.438c-1.847-5.272-3.146-9.282-4.32-12.96c-8,0-16,0-24,0c-1.333,3.361-2.396,7.462-4.08,12.479
			c-1.835,5.465-5.797,15.123,2.88,15.361c-4.403,0.955-11.517,0.481-16.319,0.239c0.636-1.293,2.573-1.065,3.84-1.92
			c4.249-2.866,5.968-10.506,7.92-16.319c5.652-16.838,11.559-35.613,17.04-51.361c-0.021-0.34-0.04-0.68,0.239-0.72
			C169.681,1.2,171.36,1.2,173.04,1.2z M157.2,40.799c7.279-0.158,15.199,0.32,22.079-0.238
			c-4.029-10.691-7.339-22.102-11.52-32.641C164.342,18.981,160.764,29.884,157.2,40.799z"/>
		<path fill="#0056A0" d="M0,1.92C7.274,2.23,15.735,1.294,22.08,2.4C20.262,3.201,16.816,3.894,15.6,6
			c-1.646,2.854-0.96,10.144-0.96,15.12c0,11.218,0,21.395,0,32.4c0,8.458-0.86,14.434,4.32,16.561
			c1.125,0.461,2.715,0.459,3.12,1.439C15.2,72.081,7.28,71.601,0,71.76c0-0.319,0-0.641,0-0.961
			c4.243-0.082,6.932-2.202,7.439-6.479c0.887-7.449,0-17.167,0-27.36c0-10.188,0.801-19.331,0-27.36
			C7.002,5.201,4.379,3.013,0,2.88C0,2.56,0,2.24,0,1.92z"/>
		<path fill="#0056A0" d="M74.64,71.521c0.046-1.185,1.774-0.69,2.64-0.96c5.176-1.607,4.561-7.385,4.561-15.359
			c0-10.734,0-21.819,0-32.641c0-5.228,0.586-13.794-0.96-16.56c-1.491-2.667-4.052-2.819-6.24-3.6
			c-0.039-0.279,0.053-0.427,0.24-0.48c17.514,0.268,33.902-1.502,45.84,3.84c11.097,4.966,19.775,14.453,20.88,28.8
			c1.329,17.251-6.9,28.191-18.479,33.84C111.273,74.18,91.981,71.081,74.64,71.521z M89.28,52.561
			c0,5.176-0.649,11.833,1.44,14.398c3.412,4.189,20.056,2.93,25.92,0.721c9.272-3.491,15.783-14.396,16.561-24.961
			C135.143,16.312,116.962-1,89.28,5.52C89.28,21.082,89.28,36.604,89.28,52.561z"/>
		<path fill="#211F1F" d="M227.521,23.28c2.572,0.308,6.384-0.624,8.16,0.479c-0.8,1.601-4.503,0.297-6.479,0.72
			c-0.557,1.044-0.083,3.117-0.239,4.56c0,0.08,0,0.16,0,0.24c1.6,0,3.199,0,4.8,0c0.375,2.295-3.089,0.751-4.561,1.2
			c-0.558,1.204-0.082,3.438-0.239,5.04c1.842,0.558,4.718,0.082,6.96,0.24c-0.049,0.136,0.063,0.351,0,0.48
			c-0.884,1.803-6.259,0.146-8.4,0.72C227.521,32.4,227.521,27.84,227.521,23.28z"/>
		<path fill="#0056A0" d="M294.961,24c-2.219-0.698-0.587,2.454-1.44,3.12C293.512,25.746,293.083,22.69,294.961,24z"/>
		<path fill="#211F1F" d="M252.48,27.12c0.24,0,0.48,0,0.721,0c1.107,2.332,0.169,6.711,0.479,9.84
			c-0.137-0.048-0.352,0.063-0.479,0C251.196,35.979,253.201,29.473,252.48,27.12z"/>
		<path fill="#211F1F" d="M268.801,27.12c-0.313,3.128,0.628,7.508-0.48,9.84c-0.239,0-0.479,0-0.72,0
			c0.159-3.201-0.318-7.039,0.24-9.84c0.16,0,0.319,0,0.479,0C268.48,27.12,268.641,27.12,268.801,27.12z"/>
		<path fill="#0056A0" d="M293.521,28.32c0.56,2.161,0.081,5.359,0.24,7.92C293.202,34.079,293.68,30.881,293.521,28.32z"/>
		<path fill="#0056A0" d="M228.961,29.04c1.521,0.157,3.676-0.316,4.8,0.24c-1.601,0-3.2,0-4.8,0
			C228.961,29.2,228.961,29.12,228.961,29.04z"/>
		<path fill="#0056A0" d="M260.641,45.84c0.56,2.4,0.081,5.84,0.24,8.641C260.321,52.079,260.8,48.641,260.641,45.84z"/>
		<path fill="#0056A0" d="M279.12,50.879c0.559,2.082,0.081,5.199,0.239,7.682C278.802,56.479,279.279,53.361,279.12,50.879z"/>
		<path fill="#0056A0" d="M249.601,51.84c0.559,1.762,0.081,4.559,0.24,6.721C249.282,56.797,249.759,54.002,249.601,51.84z"/>
		<path fill="#0056A0" d="M203.04,59.76c5.383-0.768,4.817,8.082-0.721,6.721C199.361,65.752,198.864,60.356,203.04,59.76z
			 M204.48,60.241c-5.71-1.576-4.144,8.844,0.721,5.039C207.085,63.806,206.354,60.756,204.48,60.241z"/>
		<path fill="#0056A0" d="M205.2,65.28c-1.31-0.052-0.915-1.805-2.16-1.92c-0.541,0.18-0.095,1.346-0.239,1.92
			c-1.424-0.177-0.419-2.781-0.721-4.08c0.979-0.547,2.89-0.248,3.12,0.721c0.08,0.881-0.368,1.23-0.96,1.439
			C204.594,63.967,205.088,64.433,205.2,65.28z M202.801,62.879c0.79-0.008,1.698,0.1,1.68-0.719
			c-0.033-0.688-1.001-0.438-1.68-0.48C202.801,62.081,202.801,62.48,202.801,62.879z"/>
		<path fill="#211F1F" d="M252.961,0.72c0,0.32,0,0.64,0,0.96c-0.402,0.424-0.805-0.213-1.682,0c-0.842,0.277-0.734,1.504-0.72,2.64
			c0.182,0.779,2.346-0.426,2.16,0.72c0.321,1.281-1.406,0.514-2.16,0.72c0,2.88,0,5.76,0,8.64c-0.479,0-0.96,0-1.439,0
			c0-2.8,0-5.6,0-8.4c-0.059-0.742-1.976,0.375-1.681-0.72c-0.349-1.148,1.004-0.596,1.681-0.72c-0.12-1.641,0.104-2.936,0.721-3.84
			C250.567,0.455,252.271,0.265,252.961,0.72z"/>
		<path fill="#0056A0" d="M255.841,10.8c-0.737-2.26,4.342-0.776,6.239-1.2c-1.603,0.558-4.238,0.082-6.239,0.24
			C255.841,10.16,255.841,10.48,255.841,10.8z"/>
		<path fill="#211F1F" d="M255.841,10.8c0.528,1.625,1.151,2.546,2.64,2.64c1.663,0.105,2.575-2.034,3.601-1.2
			c0.251,1.337-1.365,2.233-2.159,2.4c-2.646,0.555-5.717-1.196-5.761-5.04c-0.029-2.676,2.342-7.41,6.479-4.8
			c1.217,0.768,1.486,2.327,1.439,4.8C260.183,10.024,255.104,8.54,255.841,10.8z M260.641,7.92c0.081-3.291-5.021-2.898-4.8,0.24
			C255.438,8.846,261.406,9.123,260.641,7.92z"/>
		<path fill="#0056A0" d="M255.841,8.16c1.123,0.556,3.277,0.083,4.8,0.24c0-0.16,0-0.32,0-0.48
			C261.406,9.123,255.438,8.846,255.841,8.16z"/>
		<path fill="#0056A0" d="M239.28,28.32c0.869,2.251-0.545,6.785,0.721,8.64c1.514-0.086,0.358-2.841,0.721-4.08
			c0.157-1.443-0.316-3.516,0.24-4.56c-0.629,2.44,1.172,8.618-0.721,8.88C238.313,37.467,239.701,29.973,239.28,28.32z"/>
		<path fill="#0056A0" d="M247.44,28.32c-0.149,2.89,0.308,6.386-0.239,8.88c-0.35-0.131-1.24,0.28-1.2-0.24
			C248.667,37.418,246.286,29.936,247.44,28.32z"/>
		<path fill="#0056A0" d="M227.521,23.28c0,4.56,0,9.12,0,13.68c2.143-0.574,7.518,1.083,8.4-0.72c0.063-0.129-0.049-0.344,0-0.48
			c1.679,2.47-6.893,1.275-8.642,1.2C227.44,32.479,226.961,27.36,227.521,23.28z"/>
		<path fill="#211F1F" d="M297.36,28.32c-0.8,0-1.6,0-2.398,0c0.146,2.414-0.302,5.421,0.239,7.44
			c0.397,0.402,1.408,0.191,2.159,0.24c0,0.4,0,0.8,0,1.2c-1.392-0.127-3.506,0.467-3.6-0.959c-0.159-2.561,0.318-5.759-0.24-7.92
			c-2.185,0.715-2.185-1.916,0-1.2c0.854-0.667-0.777-3.818,1.44-3.12c-0.25,2.09-0.171,3.851,2.398,3.12
			C297.36,27.52,297.36,27.92,297.36,28.32z"/>
		<path fill="#0056A0" d="M273.36,33.12c-0.28-0.039-0.201-0.438-0.239-0.72c1.54-1.18,6.811,1.37,6.479-1.68
			c1.467,3.309-5.189,0.568-6.24,2.16C273.36,32.96,273.36,33.04,273.36,33.12z"/>
		<path fill="#211F1F" d="M273.36,33.12c0.371,1.81,1.125,2.778,2.642,2.88c1.748,0.117,2.521-2.008,3.6-1.2
			c0.571,1.354-2.223,3.056-4.8,2.4c-3.051-0.776-4.306-6.842-1.681-9.36c1.921-1.842,6.579-1.448,6.479,2.88
			c0.33,3.05-4.939,0.5-6.479,1.68C273.158,32.683,273.079,33.082,273.36,33.12z M273.36,31.2c1.602,0,3.2,0,4.801,0
			C278.871,26.982,272.804,27.415,273.36,31.2z"/>
		<path fill="#0056A0" d="M282.721,27.12c0,3.28,0,6.56,0,9.84c0.399,0,0.8,0,1.2,0C281.219,38.583,282.81,28.898,282.721,27.12z"/>
		<path fill="#0056A0" d="M288.24,29.04c0.866,2.013-0.544,6.303,0.721,7.92c1.61-0.88,0.29-5.447,0.72-7.68
			c-0.011,1.966,1.173,7.691-0.479,7.919C287.229,37.473,288.68,31.227,288.24,29.04z"/>
		<path fill="#211F1F" d="M282.721,27.12c0.835-0.115,1.484-0.045,1.2,0.96c0.71-0.982,6.009-2.402,5.76,1.2
			c-0.43,2.233,0.893,6.8-0.72,7.68c-1.264-1.617,0.146-5.907-0.721-7.92c-0.907-1.868-3.344-0.354-4.319,0.48c0,2.48,0,4.96,0,7.44
			c-0.4,0-0.801,0-1.2,0C282.721,33.68,282.721,30.4,282.721,27.12z"/>
		<path fill="#0056A0" d="M252.48,27.12c0.722,2.353-1.284,8.859,0.721,9.84c0.129,0.063,0.344-0.048,0.479,0
			c0.04,0.521-0.852,0.109-1.2,0.24C252.09,34.389,252.074,29.928,252.48,27.12z"/>
		<path fill="#0056A0" d="M268.801,27.12c-0.166,1.684,1.61,11.149-1.2,9.84c0.24,0,0.479,0,0.72,0
			C269.429,34.628,268.49,30.249,268.801,27.12z"/>
		<path fill="#0056A0" d="M227.521,45.84c0.315,4.404-0.634,10.074,0.479,13.681c1.298-0.757,0.721-3.458,0.721-5.761
			c0-2.202-0.315-7.172,0.479-6c-0.433,1.637-0.239,3.99-0.239,6.24c0,2.141,0.574,4.729-0.721,5.76
			c-1.721-0.969-0.961-4.238-0.961-6.721C227.28,50.486,227.094,47.686,227.521,45.84z"/>
		<path fill="#0056A0" d="M260.881,56.64c0.098,1.385,0.246,4.079-1.44,2.881c0.4,0,0.801,0,1.2,0
			C260.794,58.633,260.33,57.129,260.881,56.64z"/>
		<path fill="#211F1F" d="M260.881,54.48c2.022-1.417,2.097-4.782,5.52-4.801c-0.698,1.382-1.894,2.267-2.64,3.601
			c0.779,2.42,2.269,4.131,3.12,6.479c-3.184,0.144-2.782-3.297-4.08-5.039c-0.97,0.311-1.241,1.318-1.92,1.92
			c-0.551,0.488-0.087,1.992-0.24,2.881c-0.399,0-0.8,0-1.2,0c0.315-4.404-0.634-10.074,0.48-13.682c0.239,0,0.479,0,0.72,0
			C260.8,48.641,260.321,52.079,260.881,54.48z"/>
		<path fill="#0056A0" d="M279.12,49.68c-0.043-1.408-0.354-4.346,1.439-3.119c-0.399,0-0.8,0-1.2,0
			C279.206,47.526,279.673,49.112,279.12,49.68z"/>
		<path fill="#211F1F" d="M280.561,46.561c0,0.96,0,1.92,0,2.88c0.248,0.792,2.523-0.444,2.4,0.72c0.29,1.33-1.599,0.482-2.4,0.721
			c0,2.32,0,4.641,0,6.959c0.006,1.115,1.855,0.386,2.4,0.961c0.313,1.798-3.112,0.875-3.602,0.48c0-0.24,0-0.48,0-0.721
			c-0.158-2.48,0.318-5.6-0.239-7.682c-0.545-0.174-1.872,0.434-1.681-0.479c-0.349-1.148,1.004-0.597,1.681-0.721
			c0.553-0.567,0.086-2.153,0.239-3.119C279.761,46.561,280.16,46.561,280.561,46.561z"/>
		<path fill="#211F1F" d="M249.841,58.561c-0.132,0.35,0.28,1.24-0.24,1.199c-1.121,0.24-1.342-0.418-1.2-1.439
			c-2.087,2.377-6.153,1.719-6.239-1.199c-0.092-3.117,3.252-3.533,6.239-4.08c-0.007-1.756-0.685-2.226-1.68-2.4
			c-1.786-0.313-2.869,2.203-4.08,1.199c0.276-2.951,6.851-3.439,6.96,0C249.759,54.002,249.282,56.797,249.841,58.561z
			 M248.4,56.879c-0.24-0.797,0.531-2.609-0.479-2.639c-1.737,0.742-4.134,0.825-4.32,3.119
			C244.538,59.484,247.516,58.174,248.4,56.879z"/>
		<path fill="#211F1F" d="M252.721,49.68c0.24,0,0.479,0,0.72,0c0.912-0.192,0.307,1.135,0.48,1.681
			c0.844-0.917,1.521-1.999,3.358-1.92c0,0.319,0,0.64,0,0.96c-3.114,1.045-3.779,4.539-3.358,9.12c-0.24,0-0.48,0-0.721,0
			C252.092,57.188,253.032,52.809,252.721,49.68z"/>
		<path fill="#0056A0" d="M252.721,49.68c0.313,3.129-0.629,7.509,0.479,9.841c0.239,0,0.479,0,0.721,0
			C251.219,61.143,252.81,51.459,252.721,49.68z"/>
		<path fill="#211F1F" d="M269.041,23.04c0,0.56,0,1.12,0,1.68c-0.48,0-0.961,0-1.44,0c0-0.56,0-1.12,0-1.68
			C268.08,23.04,268.561,23.04,269.041,23.04z"/>
		<path fill="#211F1F" d="M227.521,45.84c0.8,0,1.601,0,2.4,0c1.002,3.718,2.229,7.211,3.358,10.8
			c1.322-3.397,2.368-7.071,3.36-10.8c0.88,0,1.76,0,2.64,0c-0.101,3.306,0.134,7.347,0,11.039c-0.03,0.879,0.593,2.717-0.72,2.881
			c-1.28-0.061-0.688-1.87-0.72-2.641c-0.118-2.875,0.088-6.808,0-9.84c-1.823,3.855-2.045,9.314-4.562,12.479
			c-2.09-3.08-2.801-7.846-4.079-12c-0.796-1.172-0.479,3.799-0.479,6c0,2.304,0.577,5.005-0.721,5.762
			C226.887,55.915,227.836,50.245,227.521,45.84z"/>
		<path fill="#211F1F" d="M235.2,4.08c-2.1,0.339-1.782-1.738-3.12-2.16c-1.729-0.096-3.833-0.155-3.84,1.92
			c-0.012,3.345,10.925,2.93,7.199,9.12c-2.026,3.369-9.519,1.54-8.88-2.16c1.955-0.729,1.854,1.959,3.36,2.4
			c2.081,0.155,4.411,0.051,4.318-2.4c-0.123-3.31-7.186-2.901-7.68-6.24C225.77-0.786,235.615-0.884,235.2,4.08z"/>
		<path fill="#211F1F" d="M245.761,14.4c-0.994,0.114-1.761,0.001-1.681-0.96c-1.109,0.978-3.599,1.73-5.279,0.72
			c-2.39-3.758,1.567-6.302,5.279-6.24c0.104-1.643-0.649-2.196-1.439-2.4c-1.788-0.46-2.805,1.805-4.08,1.2
			c-0.469-2.819,6.244-3.321,6.96-0.479C245.649,8.911,245.243,12.118,245.761,14.4z M243.601,9.12
			c-1.843,0.623-4.901,1.088-3.84,3.84c1.462,1.159,3.313-0.207,4.319-0.96C243.829,11.131,244.625,9.216,243.601,9.12z"/>
		<path fill="#211F1F" d="M265.2,17.28c0.031-1.088,0.588-1.653,0.721-2.64c-0.942-0.098-0.73-1.35-0.721-2.4
			c0.641,0,1.279,0,1.92,0C267.138,14.577,267.015,16.774,265.2,17.28z"/>
		<path fill="#211F1F" d="M239.28,28.32c-0.545-0.175-1.871,0.432-1.68-0.48c-0.349-1.148,1.003-0.596,1.68-0.72
			c-0.041-1.481,0.2-2.68,0.721-3.6c0.495-0.475,2.396-0.791,3.12-0.24c0,0.24,0,0.479,0,0.72c0.019,1.075-0.89-0.146-1.681,0.24
			c-0.623,0.417-0.485,1.594-0.479,2.64c0.181,0.779,2.346-0.426,2.159,0.72c0.32,1.281-1.405,0.514-2.159,0.72
			c-0.558,1.044-0.083,3.117-0.24,4.56c-0.361,1.239,0.793,3.994-0.721,4.08C238.735,35.105,240.149,30.571,239.28,28.32z"/>
		<path fill="#211F1F" d="M246,36.96c0-2.8,0-5.6,0-8.4c-0.059-0.742-1.976,0.375-1.681-0.72c-0.349-1.148,1.005-0.596,1.681-0.72
			c-0.029-1.389-0.076-2.797,0.479-3.6c0.425-0.383,3.498-1.287,3.12,0.48c0.23,0.954-1.517-0.313-1.92,0.48
			c-0.426,0.454-0.175,1.585-0.24,2.4c0.182,0.779,2.347-0.426,2.16,0.72c0.321,1.281-1.406,0.514-2.16,0.72
			C246.286,29.936,248.667,37.418,246,36.96z"/>
		<path fill="#211F1F" d="M253.681,23.04c0,0.56,0,1.12,0,1.68c-0.479,0-0.96,0-1.439,0c0-0.56,0-1.12,0-1.68
			C252.721,23.04,253.2,23.04,253.681,23.04z"/>
		<path fill="#211F1F" d="M264.001,29.76c-1.797,0.459-1.441-1.56-3.12-1.68c-3.585-0.258-4.115,7.504-0.48,7.92
			c1.766,0.202,1.866-1.222,3.602-1.44c0.786,1.01-1.197,2.459-1.921,2.64c-4.484,1.125-7.334-4.699-4.8-8.64
			C258.749,26.276,264.283,26.242,264.001,29.76z"/>
		<path fill="#211F1F" d="M276.24,54.959c-2.16,0-4.319,0-6.479,0c0.071,2.369,1.055,3.574,2.88,3.602
			c1.73,0.023,2.257-1.919,3.36-1.2c0.586,1.37-2.201,3.075-4.801,2.399c-5.868-1.523-2.323-13.373,3.359-9.84
			C275.742,50.654,276.151,52.215,276.24,54.959z M269.761,53.76c1.68,0,3.359,0,5.04,0C275.225,49.782,269.39,49.831,269.761,53.76
			z"/>
		<path fill="#211F1F" d="M291.12,51.6c-0.414,0.904-5.482-2.912-5.04,0.721c0.238,1.963,5.566,1.566,5.761,4.319
			c0.25,3.575-6.44,4.563-7.44,0.961c0.408-1.183,5.725,3.097,6-0.479c0.222-2.847-7.853-1.342-5.52-6.48
			C286.175,48.62,291.407,49.456,291.12,51.6z"/>
		<line fill="none" stroke="#000000" stroke-miterlimit="10" x1="215.761" y1="0" x2="215.761" y2="72.241"/>
	</g>
</g>
<line fill="none" x1="215.761" y1="0" x2="215.761" y2="71.894"/>
</svg>
