<?xml version="1.0" encoding="utf-8"?>
<!-- Generator: Adobe Illustrator 25.0.0, SVG Export Plug-In . SVG Version: 6.00 Build 0)  -->
<svg version="1.1" id="Layer_1" xmlns="http://www.w3.org/2000/svg" xmlns:xlink="http://www.w3.org/1999/xlink" x="0px" y="0px"
	 viewBox="0 0 720 161.5" style="enable-background:new 0 0 720 161.5;" xml:space="preserve">
<style type="text/css">
	.st0{fill:#000029;}
	.st1{fill:#008FFF;}
</style>
<g>
	<path class="st0" d="M37.3,80.3c-14.2,0-26.4-4.6-37.3-11.5l6.8-10.3C17.7,65.6,27.7,69,39,69c13.2,0,19.4-5.1,19.4-11
		c0-17.1-55.8-6.9-55.8-34.1C2.6,10.5,15.9,0,37.3,0c14.4,0,26.9,5.4,34.3,12.7l-8.3,8.6c-6.3-5.5-16-9.9-26.1-9.9
		c-12.5,0-21,4.5-21,10.9c0,15.9,55.9,7.4,55.9,34.3C72,70.8,57.7,80.3,37.3,80.3L37.3,80.3z M126.7,47.6v30.1h-13.5V47.4L79.3,2.6
		h15.8l25.4,34.7l24-34.7H160L126.7,47.6L126.7,47.6z M254.3,77.6V18.8l-3.7,8L224,77.6h-8.1l-26.3-50.8l-3.7-8v58.8h-13V2.6h18.8
		L217,53.1l3.5,7.7l3.5-7.7l24.9-50.5h18.6v75.1H254.3L254.3,77.6z M341.1,24.9c0-6.2-4.2-10.8-14.4-10.8h-24.9v24.2h25.5
		c10.3,0,13.9-5,13.9-11V24.9L341.1,24.9z M325.2,49.4h-23.4v28.3h-13.5V2.6h37c20.5,0,29.5,9.2,29.5,22.3v2
		C354.7,40,345.7,49.4,325.2,49.4L325.2,49.4z M428.4,77.6V45.3h-45.2v32.3h-13.5V2.6h13.5v31.8h45.2V2.6h13.5v75.1H428.4
		L428.4,77.6z M523.6,35.5c0-12.8-8.9-23.9-25.4-23.9c-16.5,0-25.2,11-25.2,23.9v9.1c0,12.8,8.8,24.1,25.2,24.1
		c16.5,0,25.4-11.3,25.4-24.1V35.5L523.6,35.5z M498.2,80.3c-24.1,0-38.9-17.1-38.9-35.5v-9.4c0-18.7,14.8-35.5,38.9-35.5
		c24.2,0,39,16.8,39,35.5v9.4C537.2,63.2,522.5,80.3,498.2,80.3L498.2,80.3z M615.3,77.6l-42-47.4l-5.4-7v54.4h-13.4V2.6h12.5
		l40.7,47.6l5.5,7V2.6h13.3v75.1H615.3L615.3,77.6z M686.6,47.6v30.1h-13.5V47.4L639.3,2.6h15.8l25.4,34.7l24-34.7H720L686.6,47.6
		L686.6,47.6z"/>
	<path class="st1" d="M15.5,161.3c4.8,0,8.9-1.4,11.6-4.1c2.7-2.7,4.2-6.6,4.2-11.9v-29.2H21.2v28.8c0,5.2-2.3,7.4-6,7.4
		c-3.1,0-5.6-1.7-8.2-4.5l-6.2,6.9C4,158.3,8.5,161.3,15.5,161.3L15.5,161.3z M62.2,161.5c8.6,0,13.7-3.1,18.3-8l-6.2-6.3
		c-3.5,3.2-6.6,5.2-11.7,5.2c-7.7,0-12.9-6.4-12.9-14v-0.1c0-7.7,5.4-13.9,12.9-13.9c4.5,0,8,1.9,11.4,5l6.2-7.2
		c-4.1-4.1-9.2-6.9-17.6-6.9c-13.7,0-23.3,10.4-23.3,23.1v0.1C39.3,151.3,49.1,161.5,62.2,161.5L62.2,161.5z M107,161.4
		c12,0,19.6-6.6,19.6-20.1v-25.2h-9.8v25.6c0,7.1-3.6,10.7-9.6,10.7s-9.6-3.8-9.6-11v-25.3h-9.8v25.5C87.7,154.7,95,161.4,107,161.4
		L107,161.4z M136.6,160.7h9.8v-14.3h7.7l9.6,14.3h11.5l-10.9-15.9c5.7-2.1,9.6-6.6,9.6-13.8v-0.1c0-4.2-1.3-7.7-3.8-10.2
		c-2.9-2.9-7.3-4.5-13-4.5h-20.4V160.7L136.6,160.7z M146.4,137.7v-12.8h9.8c4.8,0,7.7,2.2,7.7,6.4v0.1c0,3.8-2.7,6.3-7.5,6.3H146.4
		L146.4,137.7z M182.7,160.7h32.1v-8.9h-22.3v-35.7h-9.8V160.7L182.7,160.7z"/>
</g>
</svg>
