<?xml version="1.0" encoding="utf-8"?>
<!-- Generator: Adobe Illustrator 27.1.1, SVG Export Plug-In . SVG Version: 6.00 Build 0)  -->
<svg version="1.1" id="Layer_1" xmlns="http://www.w3.org/2000/svg" xmlns:xlink="http://www.w3.org/1999/xlink" x="0px" y="0px"
	 viewBox="0 0 990.1 94.7" style="enable-background:new 0 0 990.1 94.7;" xml:space="preserve">
<style type="text/css">
	.st0{fill:#F37627;}
	.st1{fill:#3A3A3C;}
</style>
<g>
	<polygon class="st0" points="511.2,0 478.2,35.7 478.2,35.7 472.4,41.5 472.4,41.5 472.4,41.5 478.2,47.3 478.2,47.3 511.2,83.1 
		517,77.3 484,41.5 517,5.8 	"/>
	<polygon class="st0" points="586.5,0 619.4,35.7 619.4,35.7 625.2,41.5 625.2,41.5 625.2,41.5 619.4,47.3 619.4,47.3 586.5,83.1 
		580.7,77.3 613.6,41.5 580.7,5.8 	"/>
	<polygon class="st0" points="518.5,9.8 518.5,16.3 544.5,16.3 544.5,81.7 545.2,81.7 552.5,81.7 553.1,81.7 553.1,16.3 579.2,16.3 
		579.2,9.8 	"/>
	<g>
		<path class="st1" d="M5.9,60.2c0.5,2.5,1.6,4.6,3.3,6.3c1.7,1.7,4,2.6,6.9,2.6c2.2,0,4-0.4,5.4-1.2c1.4-0.8,2.6-1.9,3.4-3.3
			c0.9-1.4,1.4-2.9,1.8-4.7c0.3-1.8,0.5-3.6,0.5-5.5V9.8h6.4V55c0,2.1-0.2,4.3-0.7,6.6c-0.4,2.3-1.3,4.5-2.5,6.4
			c-1.2,2-3,3.6-5.1,4.9s-5,1.9-8.4,1.9c-4.6,0-8.3-1.2-11.3-3.7c-3-2.4-4.8-5.6-5.6-9.3L5.9,60.2z"/>
		<path class="st1" d="M79.5,73.2c-0.1-1.1-0.2-2.4-0.3-3.8c-0.1-1.4-0.1-2.5-0.1-3.4H79c-1.2,2.4-3.1,4.4-5.8,6
			c-2.7,1.5-5.5,2.3-8.4,2.3c-5.3,0-9.2-1.6-11.8-4.7C50.3,66.4,49,62.2,49,57V31.3h6v23.2c0,2.2,0.2,4.2,0.5,6
			c0.4,1.8,1,3.3,1.8,4.6c0.9,1.3,2,2.3,3.5,3c1.4,0.7,3.3,1.1,5.5,1.1c1.6,0,3.1-0.3,4.7-1c1.5-0.7,2.9-1.7,4-3
			c1.2-1.3,2.1-3,2.8-5.1c0.7-2.1,1.1-4.5,1.1-7.3V31.3h6V64c0,1.1,0,2.6,0.1,4.4c0.1,1.8,0.1,3.4,0.3,4.8H79.5z"/>
		<path class="st1" d="M106.9,94.7h-6V31.3h6v7.3h0.3c1.7-2.7,4-4.8,6.9-6.2c2.9-1.4,5.8-2.1,8.7-2.1c3.2,0,6.2,0.6,8.8,1.7
			c2.6,1.1,4.9,2.7,6.7,4.7c1.9,2,3.3,4.3,4.3,7c1,2.7,1.6,5.6,1.6,8.7c0,3.1-0.5,6-1.6,8.7c-1,2.7-2.5,5-4.3,7
			c-1.9,2-4.1,3.5-6.7,4.7c-2.6,1.1-5.6,1.7-8.8,1.7c-3,0-5.9-0.7-8.7-2.1c-2.9-1.4-5.2-3.4-6.9-6h-0.3V94.7z M137.8,52.3
			c0-2.3-0.4-4.5-1.1-6.6c-0.7-2.1-1.7-3.9-3.1-5.4c-1.3-1.5-3-2.7-4.9-3.6c-1.9-0.9-4.2-1.3-6.6-1.3c-2.3,0-4.4,0.4-6.4,1.3
			c-2,0.9-3.6,2.1-5.1,3.6c-1.4,1.5-2.5,3.3-3.3,5.4c-0.8,2.1-1.2,4.3-1.2,6.7c0,2.4,0.4,4.6,1.2,6.7c0.8,2.1,1.9,3.8,3.3,5.3
			c1.4,1.5,3.1,2.7,5.1,3.5c2,0.9,4.1,1.3,6.4,1.3c2.5,0,4.7-0.4,6.6-1.3c2-0.9,3.6-2.1,4.9-3.6c1.3-1.5,2.3-3.3,3.1-5.4
			C137.5,56.8,137.8,54.6,137.8,52.3z"/>
		<path class="st1" d="M171.4,66.7h0.2l12.9-35.4h6.6l-20.7,52.8c-1.2,3.2-2.8,5.8-4.7,7.7c-1.9,1.9-4.7,2.9-8.3,2.9
			c-1.8,0-3.6-0.2-5.4-0.5l0.6-5.6c1.4,0.5,2.9,0.7,4.4,0.7c2.1,0,3.7-0.6,4.9-1.9c1.2-1.3,2.2-3.1,3.1-5.5l3.4-8.8l-17.7-41.8h6.7
			L171.4,66.7z"/>
		<path class="st1" d="M219.1,36.4h-11.7v24.5c0,1.6,0.1,2.8,0.4,3.9c0.3,1,0.7,1.8,1.3,2.4c0.6,0.6,1.2,1,2,1.2
			c0.8,0.2,1.6,0.3,2.5,0.3c0.8,0,1.7-0.1,2.6-0.4c0.9-0.2,1.8-0.6,2.6-1l0.3,5.3c-1.1,0.4-2.2,0.7-3.3,0.9
			c-1.2,0.2-2.4,0.3-3.8,0.3c-1.1,0-2.3-0.2-3.5-0.4c-1.2-0.3-2.4-0.9-3.5-1.7c-1.1-0.8-1.9-2-2.6-3.4c-0.7-1.4-1-3.3-1-5.6V36.4
			h-8.6v-5.1h8.6V19.5h6v11.8h11.7V36.4z"/>
		<path class="st1" d="M266.2,51c0,0.4,0,0.9,0,1.3c0,0.5,0,1-0.1,1.5h-34.4c0.1,2.1,0.5,4.1,1.2,5.9c0.8,1.9,1.8,3.5,3.2,4.8
			c1.4,1.4,3,2.5,4.8,3.3c1.8,0.8,3.8,1.2,5.9,1.2c3.1,0,5.8-0.7,8.1-2.2c2.3-1.5,4-3.1,5.2-5.1l4.5,3.6c-2.5,3.2-5.2,5.4-8.2,6.8
			c-3,1.4-6.2,2.1-9.6,2.1c-3.1,0-5.9-0.6-8.6-1.7c-2.6-1.1-4.9-2.6-6.8-4.6c-1.9-2-3.4-4.3-4.5-7c-1.1-2.7-1.6-5.6-1.6-8.8
			c0-3.2,0.5-6.1,1.6-8.8s2.5-5,4.4-7c1.9-2,4.1-3.5,6.6-4.6c2.5-1.1,5.3-1.7,8.2-1.7c3.2,0,6.1,0.6,8.6,1.7
			c2.5,1.1,4.5,2.6,6.2,4.5c1.7,1.9,2.9,4.1,3.8,6.6C265.8,45.5,266.2,48.2,266.2,51z M260.1,49.1c-0.2-3.9-1.4-7.2-3.8-9.8
			c-2.3-2.6-5.7-3.9-10-3.9c-2,0-3.9,0.4-5.6,1.1c-1.7,0.7-3.2,1.8-4.5,3c-1.3,1.3-2.3,2.7-3.1,4.4c-0.8,1.6-1.2,3.4-1.3,5.2H260.1z
			"/>
		<path class="st1" d="M279.1,36.2c-0.1-1.8-0.1-3.4-0.3-4.8h5.8c0.1,1.1,0.2,2.4,0.3,3.8c0.1,1.4,0.1,2.5,0.1,3.4h0.2
			c1.2-2.4,3-4.4,5.3-6c2.4-1.5,5-2.3,8-2.3c0.8,0,1.5,0,2.1,0.1c0.6,0.1,1.3,0.2,1.9,0.4l-0.8,5.8c-0.4-0.1-0.9-0.2-1.8-0.4
			c-0.8-0.1-1.7-0.2-2.5-0.2c-1.6,0-3.1,0.3-4.6,0.9c-1.5,0.6-2.8,1.5-3.9,2.8c-1.1,1.3-2,2.9-2.7,4.9c-0.7,2-1,4.4-1,7.2v21.4h-6
			V40.5C279.2,39.4,279.1,37.9,279.1,36.2z"/>
		<path class="st1" d="M317.8,67.5h29.2v5.7h-35.6V9.8h6.4V67.5z"/>
		<path class="st1" d="M382.4,46.1c0-3.6-0.9-6.3-2.8-8.1c-1.9-1.8-4.6-2.7-8.2-2.7c-2.5,0-4.8,0.4-6.9,1.3
			c-2.1,0.9-3.9,2.1-5.4,3.6l-3.4-4c1.7-1.7,4-3.2,6.8-4.3c2.8-1.1,6-1.7,9.5-1.7c2.2,0,4.3,0.3,6.3,0.9c1.9,0.6,3.7,1.6,5.1,2.8
			c1.5,1.3,2.6,2.8,3.5,4.7c0.8,1.9,1.2,4.2,1.2,6.7v18.4c0,1.6,0.1,3.3,0.2,5c0.1,1.7,0.3,3.2,0.5,4.4h-5.4c-0.2-1-0.3-2.1-0.4-3.3
			c-0.1-1.2-0.2-2.4-0.2-3.5h-0.2c-1.9,2.8-4,4.8-6.4,6c-2.4,1.2-5.3,1.8-8.6,1.8c-1.6,0-3.2-0.2-4.9-0.7c-1.7-0.4-3.2-1.2-4.6-2.2
			c-1.4-1-2.5-2.3-3.5-4c-0.9-1.6-1.4-3.6-1.4-5.9c0-3.2,0.8-5.8,2.4-7.7c1.6-1.9,3.8-3.3,6.5-4.2c2.7-0.9,5.8-1.5,9.4-1.8
			c3.5-0.3,7.2-0.4,10.9-0.4V46.1z M380.6,52.3c-2.5,0-5,0.1-7.5,0.3c-2.5,0.2-4.8,0.6-6.8,1.3c-2,0.6-3.7,1.5-5,2.7
			c-1.3,1.2-2,2.8-2,4.7c0,1.5,0.3,2.7,0.8,3.8c0.6,1,1.3,1.8,2.3,2.5c0.9,0.6,2,1.1,3.1,1.3c1.2,0.3,2.3,0.4,3.5,0.4
			c2.1,0,4-0.4,5.7-1.1c1.7-0.7,3-1.8,4.2-3c1.1-1.3,2-2.8,2.6-4.4c0.6-1.7,0.9-3.4,0.9-5.3v-3.1H380.6z"/>
		<path class="st1" d="M409.8,66.2v7.1h-6V5.5h6v33.1h0.2c1.8-2.7,4.1-4.8,6.9-6.2c2.8-1.4,5.8-2.1,8.8-2.1c3.2,0,6.2,0.6,8.8,1.7
			c2.6,1.1,4.9,2.7,6.7,4.7c1.9,2,3.3,4.3,4.3,7c1,2.7,1.6,5.6,1.6,8.7c0,3.1-0.5,6-1.6,8.7c-1,2.7-2.5,5-4.3,7
			c-1.9,2-4.1,3.5-6.7,4.7c-2.6,1.1-5.6,1.7-8.8,1.7c-3,0-5.9-0.7-8.8-2.1c-2.8-1.4-5.1-3.4-6.9-6.1H409.8z M440.7,52.3
			c0-2.3-0.4-4.5-1.1-6.6c-0.7-2.1-1.7-3.9-3.1-5.4c-1.3-1.5-3-2.7-4.9-3.6c-1.9-0.9-4.2-1.3-6.6-1.3c-2.3,0-4.4,0.4-6.4,1.3
			c-1.9,0.9-3.6,2.1-5.1,3.6c-1.4,1.5-2.5,3.3-3.3,5.4c-0.8,2.1-1.2,4.3-1.2,6.7c0,2.4,0.4,4.6,1.2,6.7c0.8,2.1,1.9,3.8,3.3,5.3
			c1.4,1.5,3.1,2.7,5.1,3.5s4.1,1.3,6.4,1.3c2.5,0,4.7-0.4,6.6-1.3c2-0.9,3.6-2.1,4.9-3.6c1.3-1.5,2.3-3.3,3.1-5.4
			C440.4,56.8,440.7,54.6,440.7,52.3z"/>
	</g>
	<g>
		<path class="st1" d="M667.7,51c0,0.4,0,0.9,0,1.3c0,0.5,0,1-0.1,1.5h-34.4c0.1,2.1,0.5,4.1,1.2,5.9c0.8,1.9,1.8,3.5,3.2,4.8
			c1.4,1.4,3,2.5,4.8,3.3c1.8,0.8,3.8,1.2,5.9,1.2c3.1,0,5.8-0.7,8.1-2.2c2.3-1.5,4-3.1,5.2-5.1l4.5,3.6c-2.5,3.2-5.2,5.4-8.2,6.8
			c-3,1.4-6.2,2.1-9.6,2.1c-3.1,0-5.9-0.6-8.6-1.7c-2.6-1.1-4.9-2.6-6.8-4.6c-1.9-2-3.4-4.3-4.5-7c-1.1-2.7-1.6-5.6-1.6-8.8
			c0-3.2,0.5-6.1,1.6-8.8c1.1-2.7,2.5-5,4.4-7c1.9-2,4.1-3.5,6.6-4.6c2.5-1.1,5.3-1.7,8.2-1.7c3.2,0,6.1,0.6,8.6,1.7
			c2.5,1.1,4.5,2.6,6.2,4.5c1.7,1.9,2.9,4.1,3.8,6.6C667.3,45.5,667.7,48.2,667.7,51z M661.6,49.1c-0.2-3.9-1.4-7.2-3.8-9.8
			s-5.7-3.9-10-3.9c-2,0-3.9,0.4-5.6,1.1c-1.7,0.7-3.2,1.8-4.5,3c-1.3,1.3-2.3,2.7-3.1,4.4c-0.8,1.6-1.2,3.4-1.3,5.2H661.6z"/>
		<path class="st1" d="M692,32.5c2.5-1.5,5.2-2.3,8.2-2.3c1.1,0,2.3,0.1,3.5,0.4c1.2,0.2,2.4,0.7,3.5,1.4c1.2,0.7,2.2,1.6,3.2,2.7
			c1,1.1,1.8,2.6,2.5,4.4c1.4-2.9,3.4-5.1,5.8-6.6c2.5-1.5,5.4-2.3,8.7-2.3c5.3,0,9.2,1.6,11.8,4.7c2.6,3.2,3.9,7.3,3.9,12.5v25.7
			h-6V50c0-4.4-0.8-8-2.4-10.7s-4.4-4-8.3-4c-2.2,0-4,0.4-5.5,1.3c-1.5,0.9-2.7,2.1-3.6,3.5c-0.9,1.5-1.6,3.1-2,5
			c-0.4,1.9-0.6,3.8-0.6,5.7v22.3h-6V48.8c0-2-0.1-3.9-0.4-5.6c-0.3-1.7-0.8-3.1-1.6-4.3c-0.7-1.2-1.8-2.1-3.1-2.7
			c-1.3-0.6-3-0.9-5-0.9c-1.4,0-2.9,0.3-4.3,1c-1.4,0.7-2.7,1.7-3.9,3c-1.2,1.3-2.1,3-2.8,5.1c-0.7,2.1-1.1,4.5-1.1,7.3v21.5h-6
			V40.5c0-1.1,0-2.6-0.1-4.4c-0.1-1.8-0.1-3.4-0.3-4.8h5.8c0.1,1.1,0.2,2.4,0.3,3.8c0.1,1.4,0.1,2.5,0.1,3.4h0.2
			C687.8,36,689.6,34,692,32.5z"/>
		<path class="st1" d="M764.9,94.7h-6V31.3h6v7.3h0.3c1.7-2.7,4-4.8,6.9-6.2c2.9-1.4,5.8-2.1,8.7-2.1c3.2,0,6.2,0.6,8.8,1.7
			c2.6,1.1,4.9,2.7,6.7,4.7c1.9,2,3.3,4.3,4.3,7c1,2.7,1.6,5.6,1.6,8.7c0,3.1-0.5,6-1.6,8.7c-1,2.7-2.5,5-4.3,7
			c-1.9,2-4.1,3.5-6.7,4.7c-2.6,1.1-5.6,1.7-8.8,1.7c-3,0-5.9-0.7-8.7-2.1c-2.9-1.4-5.2-3.4-6.9-6h-0.3V94.7z M795.9,52.3
			c0-2.3-0.4-4.5-1.1-6.6c-0.7-2.1-1.7-3.9-3.1-5.4c-1.3-1.5-3-2.7-4.9-3.6c-1.9-0.9-4.2-1.3-6.6-1.3c-2.3,0-4.4,0.4-6.4,1.3
			c-1.9,0.9-3.6,2.1-5.1,3.6c-1.4,1.5-2.5,3.3-3.3,5.4c-0.8,2.1-1.2,4.3-1.2,6.7c0,2.4,0.4,4.6,1.2,6.7c0.8,2.1,1.9,3.8,3.3,5.3
			c1.4,1.5,3.1,2.7,5.1,3.5c1.9,0.9,4.1,1.3,6.4,1.3c2.5,0,4.7-0.4,6.6-1.3c2-0.9,3.6-2.1,4.9-3.6c1.3-1.5,2.3-3.3,3.1-5.4
			C795.5,56.8,795.9,54.6,795.9,52.3z"/>
		<path class="st1" d="M821.4,73.2h-6V5.5h6V73.2z"/>
		<path class="st1" d="M863.7,46.1c0-3.6-0.9-6.3-2.8-8.1c-1.9-1.8-4.6-2.7-8.2-2.7c-2.5,0-4.8,0.4-6.9,1.3
			c-2.1,0.9-3.9,2.1-5.4,3.6l-3.4-4c1.7-1.7,4-3.2,6.8-4.3c2.8-1.1,6-1.7,9.5-1.7c2.2,0,4.3,0.3,6.3,0.9c2,0.6,3.7,1.6,5.1,2.8
			c1.5,1.3,2.6,2.8,3.5,4.7c0.8,1.9,1.2,4.2,1.2,6.7v18.4c0,1.6,0.1,3.3,0.2,5c0.1,1.7,0.3,3.2,0.5,4.4h-5.4c-0.2-1-0.3-2.1-0.4-3.3
			c-0.1-1.2-0.2-2.4-0.2-3.5h-0.2c-1.9,2.8-4,4.8-6.4,6c-2.4,1.2-5.3,1.8-8.6,1.8c-1.6,0-3.2-0.2-4.9-0.7c-1.7-0.4-3.2-1.2-4.6-2.2
			c-1.4-1-2.5-2.3-3.5-4c-0.9-1.6-1.4-3.6-1.4-5.9c0-3.2,0.8-5.8,2.4-7.7c1.6-1.9,3.8-3.3,6.5-4.2c2.7-0.9,5.8-1.5,9.3-1.8
			c3.5-0.3,7.2-0.4,10.9-0.4V46.1z M861.9,52.3c-2.5,0-5,0.1-7.5,0.3s-4.8,0.6-6.8,1.3c-2,0.6-3.7,1.5-5,2.7
			c-1.3,1.2-1.9,2.8-1.9,4.7c0,1.5,0.3,2.7,0.8,3.8c0.6,1,1.3,1.8,2.3,2.5c0.9,0.6,2,1.1,3.1,1.3c1.2,0.3,2.3,0.4,3.5,0.4
			c2.1,0,4-0.4,5.7-1.1c1.7-0.7,3-1.8,4.2-3c1.1-1.3,2-2.8,2.6-4.4c0.6-1.7,0.9-3.4,0.9-5.3v-3.1H861.9z"/>
		<path class="st1" d="M902.7,36.4H891v24.5c0,1.6,0.1,2.8,0.4,3.9c0.3,1,0.7,1.8,1.3,2.4c0.6,0.6,1.2,1,2,1.2
			c0.8,0.2,1.6,0.3,2.5,0.3c0.8,0,1.7-0.1,2.6-0.4c0.9-0.2,1.8-0.6,2.6-1l0.3,5.3c-1.1,0.4-2.2,0.7-3.3,0.9
			c-1.2,0.2-2.4,0.3-3.8,0.3c-1.1,0-2.3-0.2-3.5-0.4c-1.2-0.3-2.4-0.9-3.5-1.7c-1.1-0.8-1.9-2-2.6-3.4c-0.7-1.4-1-3.3-1-5.6V36.4
			h-8.6v-5.1h8.6V19.5h6v11.8h11.7V36.4z"/>
		<path class="st1" d="M949.8,51c0,0.4,0,0.9,0,1.3c0,0.5,0,1-0.1,1.5h-34.4c0.1,2.1,0.5,4.1,1.2,5.9c0.8,1.9,1.8,3.5,3.2,4.8
			c1.4,1.4,3,2.5,4.8,3.3c1.8,0.8,3.8,1.2,5.9,1.2c3.1,0,5.8-0.7,8.1-2.2c2.3-1.5,4-3.1,5.2-5.1l4.5,3.6c-2.5,3.2-5.2,5.4-8.2,6.8
			c-3,1.4-6.2,2.1-9.6,2.1c-3.1,0-5.9-0.6-8.6-1.7c-2.6-1.1-4.9-2.6-6.8-4.6c-1.9-2-3.4-4.3-4.5-7c-1.1-2.7-1.6-5.6-1.6-8.8
			c0-3.2,0.5-6.1,1.6-8.8c1.1-2.7,2.5-5,4.4-7c1.9-2,4.1-3.5,6.6-4.6c2.5-1.1,5.3-1.7,8.2-1.7c3.2,0,6.1,0.6,8.6,1.7
			c2.5,1.1,4.5,2.6,6.2,4.5c1.7,1.9,2.9,4.1,3.8,6.6C949.4,45.5,949.8,48.2,949.8,51z M943.7,49.1c-0.2-3.9-1.4-7.2-3.8-9.8
			s-5.7-3.9-10-3.9c-2,0-3.9,0.4-5.6,1.1c-1.7,0.7-3.2,1.8-4.5,3c-1.3,1.3-2.3,2.7-3.1,4.4c-0.8,1.6-1.2,3.4-1.3,5.2H943.7z"/>
		<path class="st1" d="M984.8,41.3c-0.9-1.7-2.2-3.1-4-4.3c-1.8-1.1-3.9-1.7-6.2-1.7c-1.1,0-2.1,0.1-3.2,0.4c-1.1,0.2-2,0.6-2.8,1.2
			c-0.8,0.5-1.5,1.2-2,2.1c-0.5,0.8-0.8,1.8-0.8,3c0,2,0.8,3.5,2.4,4.5c1.6,1,4.1,1.9,7.5,2.6c4.9,1,8.5,2.5,10.9,4.4
			c2.3,1.9,3.5,4.6,3.5,7.8c0,2.4-0.5,4.4-1.4,6c-0.9,1.6-2.1,3-3.6,4c-1.5,1-3.1,1.8-5,2.2c-1.9,0.4-3.7,0.7-5.6,0.7
			c-3.1,0-6.2-0.7-9.1-2c-3-1.3-5.4-3.4-7.3-6.2l4.8-3.6c1.1,1.9,2.6,3.4,4.7,4.7c2.1,1.3,4.3,1.9,6.8,1.9c1.3,0,2.5-0.1,3.7-0.4
			c1.2-0.2,2.2-0.7,3.1-1.3c0.9-0.6,1.6-1.4,2.1-2.3c0.5-0.9,0.8-2.1,0.8-3.4c0-2.2-1-3.9-3.1-5c-2.1-1.1-5.1-2.1-9.1-3.1
			c-1.2-0.3-2.6-0.7-3.9-1.1c-1.4-0.4-2.7-1.1-3.9-2c-1.2-0.9-2.2-2-2.9-3.3c-0.8-1.3-1.2-3-1.2-4.9c0-2.1,0.4-4,1.2-5.5
			c0.8-1.5,1.9-2.8,3.3-3.8c1.4-1,3-1.7,4.7-2.2c1.8-0.5,3.6-0.7,5.5-0.7c2.9,0,5.7,0.7,8.4,2c2.7,1.3,4.8,3.2,6.1,5.6L984.8,41.3z"
			/>
	</g>
</g>
</svg>
