<?xml version="1.0" encoding="utf-8"?>
<!-- Generator: Adobe Illustrator 25.0.0, SVG Export Plug-In . SVG Version: 6.00 Build 0)  -->
<svg version="1.1" id="Layer_1" xmlns="http://www.w3.org/2000/svg" xmlns:xlink="http://www.w3.org/1999/xlink" x="0px" y="0px"
	 viewBox="0 0 720 155.6" style="enable-background:new 0 0 720 155.6;" xml:space="preserve">
<style type="text/css">
	.st0{fill:#000029;}
	.st1{fill:#008FFF;}
</style>
<g>
	<path class="st0" d="M35.9,77.4C22.3,77.4,10.5,73,0,66.3l6.5-9.9c10.5,6.7,20.2,10,31.1,10c12.7,0,18.7-4.9,18.7-10.6
		c0-16.5-53.7-6.6-53.7-32.9C2.5,10.1,15.3,0,35.9,0c13.9,0,26,5.2,33,12.3l-8,8.3C54.8,15.2,45.5,11,35.7,11
		c-12.1,0-20.2,4.3-20.2,10.5c0,15.3,53.9,7.2,53.9,33C69.4,68.2,55.6,77.4,35.9,77.4L35.9,77.4z M122,45.8v29h-13V45.7L76.4,2.5
		h15.2l24.4,33.4l23.1-33.4h15L122,45.8L122,45.8z M245.1,74.8V18.1l-3.6,7.7l-25.6,49h-7.8l-25.3-49l-3.6-7.7v56.7h-12.5V2.5h18.1
		l24.3,48.6l3.4,7.4l3.4-7.4l24-48.6h17.9v72.3H245.1L245.1,74.8z M328.7,24c0-6-4-10.4-13.9-10.4h-24v23.3h24.5
		c9.9,0,13.4-4.8,13.4-10.6V24L328.7,24z M313.3,47.6h-22.6v27.3h-13V2.5h35.6c19.8,0,28.4,8.9,28.4,21.5v2
		C341.8,38.5,333.1,47.6,313.3,47.6L313.3,47.6z M412.8,74.8V43.7h-43.5v31.2h-13V2.5h13v30.6h43.5V2.5h13v72.3H412.8L412.8,74.8z
		 M504.5,34.2c0-12.4-8.6-23-24.4-23c-15.9,0-24.3,10.6-24.3,23V43c0,12.4,8.5,23.2,24.3,23.2c15.9,0,24.4-10.9,24.4-23.2V34.2
		L504.5,34.2z M480.1,77.4c-23.2,0-37.5-16.5-37.5-34.2v-9c0-18,14.2-34.2,37.5-34.2c23.3,0,37.6,16.2,37.6,34.2v9
		C517.6,60.9,503.4,77.4,480.1,77.4L480.1,77.4z M592.9,74.8l-40.5-45.7l-5.2-6.7v52.4h-12.9V2.5h12.1l39.2,45.8l5.3,6.7V2.5h12.8
		v72.3H592.9L592.9,74.8z M661.6,45.8v29h-13V45.7L616,2.5h15.2l24.4,33.4l23.1-33.4h15L661.6,45.8L661.6,45.8z"/>
	<path class="st1" d="M5.2,154.8h9.3v-27.9l12,18.2h0.2l12.1-18.4v28.1h9.4v-43H38L26.7,130l-11.3-18.2H5.2V154.8L5.2,154.8z
		 M58.5,154.8h32.7v-8.4H67.9v-9h20.3V129H67.9v-8.7h23v-8.4H58.5V154.8L58.5,154.8z M115,155.5c9.3,0,15.8-4.8,15.8-13.3V142
		c0-7.5-4.9-10.6-13.6-12.9c-7.4-1.9-9.3-2.8-9.3-5.7v-0.1c0-2.1,1.9-3.8,5.5-3.8c3.6,0,7.4,1.6,11.2,4.2l4.9-7.1
		c-4.4-3.5-9.7-5.5-16-5.5c-8.8,0-15,5.2-15,13v0.1c0,8.5,5.6,10.9,14.2,13.2c7.2,1.8,8.7,3.1,8.7,5.5v0.1c0,2.5-2.3,4.1-6.2,4.1
		c-4.9,0-9-2-12.8-5.2l-5.6,6.7C101.9,153.2,108.4,155.5,115,155.5L115,155.5z M153.7,155.5c9.3,0,15.8-4.8,15.8-13.3V142
		c0-7.5-4.9-10.6-13.6-12.9c-7.4-1.9-9.3-2.8-9.3-5.7v-0.1c0-2.1,1.9-3.8,5.5-3.8c3.6,0,7.4,1.6,11.2,4.2l4.9-7.1
		c-4.4-3.5-9.7-5.5-16-5.5c-8.8,0-15.1,5.2-15.1,13v0.1c0,8.5,5.6,10.9,14.2,13.2c7.2,1.8,8.7,3.1,8.7,5.5v0.1
		c0,2.5-2.3,4.1-6.2,4.1c-4.9,0-9-2-12.8-5.2l-5.6,6.7C140.6,153.2,147.2,155.5,153.7,155.5L153.7,155.5z M173.1,154.8h9.6l3.9-9.6
		h18.2l3.9,9.6h9.9l-18.4-43.3h-8.7L173.1,154.8L173.1,154.8z M190,136.8l5.7-13.9l5.7,13.9H190L190,136.8z M243.3,155.6
		c7.9,0,13.9-3.1,18.4-6.8v-18.7H243v8.2h9.5v6.1c-2.4,1.7-5.5,2.6-8.9,2.6c-7.6,0-13-5.8-13-13.6v-0.1c0-7.3,5.5-13.4,12.4-13.4
		c5,0,7.9,1.6,11.2,4.4l6-7.2c-4.5-3.8-9.1-5.9-16.9-5.9c-13,0-22.5,10-22.5,22.2v0.1C220.7,146.2,229.9,155.6,243.3,155.6
		L243.3,155.6z M270.7,154.8h32.7v-8.4h-23.3v-9h20.3V129h-20.3v-8.7h23v-8.4h-32.4V154.8L270.7,154.8z M311.9,154.8h9.3v-27.9
		l12,18.2h0.2l12.1-18.4v28.1h9.4v-43h-10.2L333.4,130l-11.3-18.2h-10.2V154.8L311.9,154.8z M365.2,154.8h30.9v-8.6h-21.4v-34.4
		h-9.5V154.8L365.2,154.8z M439.6,155.5c11.6,0,18.9-6.4,18.9-19.4v-24.3H449v24.6c0,6.8-3.5,10.3-9.3,10.3c-5.8,0-9.3-3.6-9.3-10.6
		v-24.3H421v24.6C421,149.1,428.1,155.5,439.6,155.5L439.6,155.5z M478.2,154.8h9.5v-34.3h13.1v-8.7h-35.6v8.7h13.1V154.8
		L478.2,154.8z M508.4,154.8h9.5v-43h-9.5V154.8L508.4,154.8z M528.6,154.8h30.9v-8.6h-21.4v-34.4h-9.5V154.8L528.6,154.8z
		 M567.1,154.8h9.5v-43h-9.5V154.8L567.1,154.8z M597.3,154.8h9.5v-34.3h13.1v-8.7h-35.6v8.7h13.1V154.8L597.3,154.8z M627.5,154.8
		h9.5v-43h-9.5V154.8L627.5,154.8z M647.7,154.8h32.7v-8.4h-23.3v-9h20.3V129h-20.3v-8.7h23v-8.4h-32.4V154.8L647.7,154.8z
		 M704.2,155.5c9.3,0,15.8-4.8,15.8-13.3V142c0-7.5-4.9-10.6-13.6-12.9c-7.4-1.9-9.3-2.8-9.3-5.7v-0.1c0-2.1,1.9-3.8,5.5-3.8
		c3.6,0,7.4,1.6,11.2,4.2l4.9-7.1c-4.4-3.5-9.7-5.5-16-5.5c-8.8,0-15,5.2-15,13v0.1c0,8.5,5.6,10.9,14.2,13.2
		c7.2,1.8,8.7,3.1,8.7,5.5v0.1c0,2.5-2.3,4.1-6.2,4.1c-4.9,0-9-2-12.8-5.2l-5.6,6.7C691.1,153.2,697.7,155.5,704.2,155.5
		L704.2,155.5z"/>
</g>
</svg>
