<?xml version="1.0" encoding="utf-8"?>
<!-- Generator: Adobe Illustrator 24.2.3, SVG Export Plug-In . SVG Version: 6.00 Build 0)  -->
<svg version="1.1" id="Layer_1" xmlns="http://www.w3.org/2000/svg" xmlns:xlink="http://www.w3.org/1999/xlink" x="0px" y="0px"
	 viewBox="0 0 559.2 521.7" style="enable-background:new 0 0 559.2 521.7;" xml:space="preserve">
<style type="text/css">
	.st0{fill:#F26A21;}
	.st1{fill:#16A2DC;}
</style>
<g>
	<path class="st0" d="M482,484.6h16.2v-77.9H482V484.6L482,484.6z M490.2,396.4c5.7,0,10.2-4.5,10.2-10.3c0-5.8-4.6-10.3-10.2-10.3
		c-5.8,0-10.4,4.5-10.4,10.3C479.9,391.8,484.4,396.4,490.2,396.4L490.2,396.4z M535.8,443.6c0-16.5,7.4-21.5,19.3-21.5h4.1v-16.7
		c-11.1,0-18.9,4.8-23.5,12.6v-11.3h-16.2v77.9h16.2V443.6L535.8,443.6z"/>
	<path class="st1" d="M254.8,443.6c0-16.5,7.4-21.5,19.3-21.5h4.1v-16.7c-11.1,0-18.9,4.8-23.5,12.6v-11.3h-16.2v77.9h16.2V443.6
		L254.8,443.6z M309.4,418.1v-11.5h-16.2v115h16.2v-48.4c5.1,6.1,14.4,12.6,27.3,12.6c20.6,0,36.8-16.5,36.8-40.6
		c0-24-16.2-39.9-36.8-39.9C323.9,405.4,314.4,411.6,309.4,418.1L309.4,418.1z M357.1,445.3c0,16.8-11.7,26.6-23.9,26.6
		c-12.1,0-23.8-9.5-23.8-26.3c0-16.7,11.7-26.2,23.8-26.2C345.4,419.4,357.1,428.5,357.1,445.3L357.1,445.3z M389.7,484.6h16.2
		v-43.6c0-14.3,7.8-21.6,19.8-21.6c11.8,0,19.6,7.4,19.6,21.6v43.6h16.1v-46c0-21.8-13.7-33.2-31.2-33.2c-10.1,0-18.9,3.8-24.3,10.3
		v-35.8h-16.2V484.6L389.7,484.6z"/>
	<path class="st1" d="M222.5,445.6c0-24.5-17.6-40.2-40-40.2c-22.3,0-40,15.7-40,40.2c0,24.5,16.9,40.3,39.3,40.3
		C204.3,485.9,222.5,470,222.5,445.6L222.5,445.6z M159.1,445.6c0-17.7,11-26.2,23.2-26.2c12.1,0,23.6,8.5,23.6,26.2
		s-11.9,26.3-24,26.3C169.6,471.9,159.1,463.3,159.1,445.6L159.1,445.6z"/>
	<path class="st1" d="M111.1,484.6h16.1v-46c0-21.8-13.9-33.2-32.3-33.2c-11.4,0-22.5,5.9-27.3,15.4c-5.4-10.2-15.8-15.4-28.2-15.4
		c-9.4,0-17.9,3.8-23.2,10.2v-8.9H0v77.9h16.2v-43.6c0-14.3,7.8-21.6,19.8-21.6c11.8,0,19.6,7.4,19.6,21.6v43.6h16.1v-43.6
		c0-14.3,7.8-21.6,19.8-21.6c11.8,0,19.6,7.4,19.6,21.6V484.6L111.1,484.6z"/>
	<polygon class="st1" points="365,125.1 365,201.1 427.9,164.8 427.9,88.8 365,125.1 	"/>
	<polygon class="st1" points="194.2,217.4 194.2,141.4 131.4,177.7 131.4,253.7 194.2,217.4 	"/>
	<polygon class="st1" points="282.4,72.6 348.2,110.6 348.2,38 282.4,0 282.4,72.6 	"/>
	<polygon class="st1" points="276.9,266.6 211.1,228.6 211.1,301.2 276.9,339.2 276.9,266.6 	"/>
	<polygon class="st1" points="197,118.7 262.8,80.7 199.9,44.4 134.1,82.4 197,118.7 	"/>
	<polygon class="st1" points="362.2,220.5 296.4,258.5 359.3,294.8 425.1,256.8 362.2,220.5 	"/>
	<path class="st0" d="M383.1,97L417,77.5l-33.9-19.6V97L383.1,97z M279.6,246.1l67.5-38.3v-76.5l-67.5-38.3l-67.5,38.3v76.5
		L279.6,246.1L279.6,246.1z M265.6,169.6c0,8.2-6.6,14.8-14.8,14.8c-8.2,0-14.8-6.6-14.8-14.8c0-8.2,6.6-14.8,14.8-14.8
		C259,154.8,265.6,161.4,265.6,169.6L265.6,169.6z M293.6,169.6c0-8.2,6.6-14.8,14.8-14.8s14.8,6.6,14.8,14.8
		c0,8.2-6.6,14.8-14.8,14.8S293.6,177.8,293.6,169.6L293.6,169.6z M267.1,42.9V3.8l-33.9,19.6L267.1,42.9L267.1,42.9z M142.3,265
		l33.9,19.6v-39.1L142.3,265L142.3,265z M129.7,136.7l33.9-19.6l-33.9-19.6V136.7L129.7,136.7z M326,315.9l-33.9-19.6v39.1
		L326,315.9L326,315.9z M429.5,202.5l-33.9,19.6l33.9,19.6V202.5L429.5,202.5z"/>
</g>
</svg>
