<svg xmlns="http://www.w3.org/2000/svg" role="img" viewBox="-0.46 -0.46 30.29 6.17"><g fill="#d71133"><path d="M4.65755 2.64821c0-1.6757 1.04593-2.5163 2.33578-2.5163 1.28846 0 2.3344.8406 2.3344 2.5163 0 1.67983-1.04594 2.5163-2.3344 2.5163-1.28985 0-2.33578-.8282-2.33578-2.5163m2.33578 1.87827c.63527 0 1.15066-.6656 1.15066-1.87827 0-1.20165-.51539-1.87826-1.15066-1.87826-.63666 0-1.15342.67661-1.15342 1.87826 0 1.20579.51676 1.87827 1.15342 1.87827M.13207.3152v4.66466h.81167V1.8462l2.50252 3.13366h.68213V.3152h-.7717V2.8866L1.27721.3152zm26.11245 0l-1.89205 4.66466h.81718l.5209-1.28296h1.71841l.5278 1.28296h1.32566L27.3511.3152zm-.28939 2.71197l.59118-1.4621.59256 1.4621zm-7.3229.34451c-.02204.4272-.05511.85025-.52778 1.00873-.21084.0689-.59807.06752-.81718-.0193-.10473-.04271-.1695-.07854-.2508-.15984-.1571-.15572-.22049-.48645-.226-.70142V.3152h-1.21543v3.05649c.01102.42168.07993.84611.35416 1.18649.4699.58429 1.33394.66697 2.0326.58015.43408-.05374.81442-.19706 1.12035-.51676.21084-.22049.34175-.56775.37896-.86679.02343-.17363.02618-.20257.02618-.3831V.3152h-.87506zM21.50132.97252c.53606 0 1.06798-.09095 1.30087.46578.09095.22048.09784.71933-.11713.93155-.25494.25218-.6463.27699-.98392.30593l1.2485 2.30408h1.2802L23.09708 2.9252c.67524-.23702.99219-.61874.95912-1.34772C24.02037.79062 23.35477.3152 22.59547.3152H20.2914v4.66466h1.20992zm-7.87549 4.00734L11.82472.3152h-.9467L9.1279 4.97986h.85025L11.155 1.8269l1.19614 3.15296zM13.6837.3152h-.9908l-.3018.79788.42995 1.11621.15572-.40239 1.16444 3.15296h1.34497zm0 0"/><path d="M11.48297 3.3524l-.60495 1.62745h.77308l.22462-.61322zm0 0"/></g></svg>