<svg id="LOGO" xmlns="http://www.w3.org/2000/svg" viewBox="0 0 464.33 227.88"><defs><style>.cls-1{fill:#050013;}.cls-2{fill:#f3901d;}</style></defs><path class="cls-1" d="M103.67,25.31c.85-.32,2.06-.81,3.61-1.45a12.22,12.22,0,0,1,4.72-1,19.7,19.7,0,0,1,14.51,5.77q5.78,5.85,5.77,14.91a21,21,0,0,1-1.44,7.81,21.42,21.42,0,0,1-4.25,6.7,18,18,0,0,1-13.78,6.25,26.23,26.23,0,0,1-6.34-.72,13.49,13.49,0,0,1-1.52-.4l-1.36-.48V82.05H95.73V23.62h7.94ZM120.5,53A13,13,0,0,0,124,43.66a12.73,12.73,0,0,0-13-13,6.68,6.68,0,0,0-2.88.6c-.86.4-1.61.73-2.25,1l-1.32.56-1,.4v21.4a8.28,8.28,0,0,0,1.2.56q.64.24,1.44.48a14.41,14.41,0,0,0,5.29.88A11.67,11.67,0,0,0,120.5,53Z" transform="translate(-7.29 145.31)"/><path class="cls-1" d="M144.14,44.3a12,12,0,0,0,3.61,8.58,12.39,12.39,0,0,0,9.14,3.68,13.45,13.45,0,0,0,6.89-1.68q.89-.48,1.68-1a16.48,16.48,0,0,0,1.68-1.16c.59-.46,1.26-1,2-1.69s1.65-1.48,2.72-2.44v9.86a34.19,34.19,0,0,1-7.13,4.29,20.38,20.38,0,0,1-8.17,1.56,19.58,19.58,0,0,1-14.75-6q-5.77-6-5.77-15.23a22.85,22.85,0,0,1,1.28-7.69,19.57,19.57,0,0,1,3.93-6.58,17.15,17.15,0,0,1,13.38-5.93,16.83,16.83,0,0,1,13,5.53A17.52,17.52,0,0,1,171.39,35a30.92,30.92,0,0,1,1.21,9.34Zm1.2-6.33h18a29,29,0,0,0-1-2.81A6.74,6.74,0,0,0,161,32.92a8.42,8.42,0,0,0-6.25-2.24,9.21,9.21,0,0,0-7.61,3.52,7.57,7.57,0,0,0-.92,1.77C145.89,36.71,145.61,37.38,145.34,38Z" transform="translate(-7.29 145.31)"/><path class="cls-1" d="M213.79,39.89V63.62h-7.93V41.1a16.86,16.86,0,0,0-.57-4.73,11,11,0,0,0-1.44-3.21Q202,30.69,198,30.68a11,11,0,0,0-3.33.44,7.79,7.79,0,0,0-2.52,1.32,23.75,23.75,0,0,0-3.93,4.33V63.62h-7.85v-40h7.85v3a9.85,9.85,0,0,1,1.17-1c.4-.3.81-.58,1.24-.84A15.17,15.17,0,0,1,212.75,33,21.8,21.8,0,0,1,213.79,39.89Z" transform="translate(-7.29 145.31)"/><path class="cls-2" d="M277.67,5V63.62h-8.26v-45L250.66,41.9,231.82,18.65v45h-8.25V5h7.21l19.88,24.28L270.45,5Z" transform="translate(-7.29 145.31)"/><path class="cls-2" d="M316.94,4.55l27,59.07h-8.74L326.56,44.7H302.43l-8.65,18.92H285L312.05,4.55ZM305.88,37.17h17.23l-8.65-18.92Z" transform="translate(-7.29 145.31)"/><path class="cls-2" d="M405.34,5V63.62h-8.25v-45L378.33,41.9,359.5,18.65v45h-8.26V5h7.22l19.87,24.28L398.13,5Z" transform="translate(-7.29 145.31)"/><path class="cls-2" d="M444.61,4.55l27,59.07h-8.73L454.23,44.7H430.11l-8.66,18.92h-8.82L439.72,4.55ZM433.55,37.17h17.23l-8.65-18.92Z" transform="translate(-7.29 145.31)"/><path class="cls-1" d="M59.49,72.1A28.35,28.35,0,0,1,32.16,51.17,14.86,14.86,0,0,1,8.77,54.36,38.76,38.76,0,0,0,79,64.32,28.2,28.2,0,0,1,59.49,72.1Z" transform="translate(-7.29 145.31)"/><path class="cls-1" d="M32.66,15.49A28.35,28.35,0,0,1,60,36.42a14.86,14.86,0,0,1,23.39-3.19,38.76,38.76,0,0,0-70.19-9.95A28.18,28.18,0,0,1,32.66,15.49Z" transform="translate(-7.29 145.31)"/><path class="cls-2" d="M46.07,28.91a14.77,14.77,0,0,1,9,3A25.36,25.36,0,0,0,7.29,43.8a12,12,0,0,0,23.9,0h0A14.9,14.9,0,0,1,46.07,28.91Z" transform="translate(-7.29 145.31)"/><path class="cls-2" d="M46.07,58.68a14.77,14.77,0,0,1-9-3A25.36,25.36,0,0,0,84.85,43.8,11.95,11.95,0,1,0,61,43.8h0A14.91,14.91,0,0,1,46.07,58.68Z" transform="translate(-7.29 145.31)"/><path class="cls-1" d="M259.87-40.78A44.19,44.19,0,0,1,217.29-73.4a23.19,23.19,0,0,1-20.13,11.71,23.09,23.09,0,0,1-16.32-6.74,60.5,60.5,0,0,0,58.12,44,60.44,60.44,0,0,0,51.26-28.44A44,44,0,0,1,259.87-40.78Z" transform="translate(-7.29 145.31)"/><path class="cls-1" d="M218.06-129a44.17,44.17,0,0,1,42.57,32.61,23.24,23.24,0,0,1,20.14-11.71,23.1,23.1,0,0,1,16.32,6.75,60.5,60.5,0,0,0-58.13-44,60.41,60.41,0,0,0-51.25,28.45A43.91,43.91,0,0,1,218.06-129Z" transform="translate(-7.29 145.31)"/><path class="cls-2" d="M239-108.09a23,23,0,0,1,14,4.74,39.52,39.52,0,0,0-34.93-21.06,39.26,39.26,0,0,0-27.95,11.58,39.27,39.27,0,0,0-11.57,27.94,18.63,18.63,0,0,0,18.62,18.61,18.63,18.63,0,0,0,18.61-18.61h0A23.23,23.23,0,0,1,239-108.09Z" transform="translate(-7.29 145.31)"/><path class="cls-2" d="M239-61.69a23.1,23.1,0,0,1-14-4.74,39.57,39.57,0,0,0,34.94,21.07,39.3,39.3,0,0,0,27.95-11.58,39.28,39.28,0,0,0,11.57-27.94,18.64,18.64,0,0,0-18.62-18.62,18.64,18.64,0,0,0-18.61,18.62h0A23.23,23.23,0,0,1,239-61.69Z" transform="translate(-7.29 145.31)"/></svg>