<svg id="Layer_1" data-name="Layer 1" xmlns="http://www.w3.org/2000/svg" viewBox="0 0 4257.02 1053.81"><defs><style>.cls-1{fill:#524eff;}.cls-2{fill:#0f0f1f;}.cls-3{fill:#0e0e1e;}.cls-4{fill:#0e0d1e;}.cls-5{fill:#0d0d1e;}.cls-6{fill:#6b696d;}.cls-7{fill:#534fff;}.cls-8{fill:#6a686c;}.cls-9{fill:#5451ff;}.cls-10{fill:#112;}.cls-11{fill:#6c6a6e;}.cls-12{fill:#101020;}</style></defs><path class="cls-1" d="M619.8,2670.67c-13-2-26.34-2.9-39-6.14-12.92-3.3-24.73-9.57-35.88-17.4a134.47,134.47,0,0,1-40-43.53c-5-8.75-8-18.5-11.67-27.91-8-20.33-5.46-41.72-9-62.42-3.07-18.11-9-35.15-20.35-49.94-1-1.29-2.44-2.31-3.17-3.72-5.77-11.11-15.26-18.58-24.72-26.29-11.22-9.13-23.54-16.54-37.06-20.86a128.87,128.87,0,0,0-39-6c-11.18,0-22.77-.77-33.44-3.8-17.05-4.84-34.32-10.47-48.36-21.8-12.34-10-23.8-20.88-33.15-34.22-8.19-11.69-13.41-24.44-17.7-37.5a116.26,116.26,0,0,1-3.76-56.1c2.63-15.22,6.34-30.72,14.84-44.29,12.4-19.8,27.07-37.82,47.52-49.42,13.53-7.68,27.65-15.18,43.65-17.26,16.94-2.2,34-3.09,50.79.16,18.45,3.58,35.1,11.38,50.86,22.08,19.08,13,32.43,30.14,42.72,50.13,5.57,10.81,8.58,22.42,10.9,34.47,2.74,14.2,2.3,28.44,3.56,42.63.37,4.15,2.09,8.2,3.37,12.24,1.76,5.6,3.89,11.1,5.5,16.74,5.32,18.54,16.82,33.09,30,46.52,15.32,15.61,34.08,25.15,54.64,32.38,14.94,5.24,29.91,4.45,45,4.58,25.39.22,48.39-8.57,68.36-22.94,19-13.7,35.92-30.45,43.6-53.95,9.5-9.58,9.63-22.86,11.88-34.6,2.78-14.51,2.89-29.8-1-44.57-1.59-6-3.66-12-4.76-18.11-1.78-9.89-8-17.62-12.64-25.91-12.8-22.63-31.72-38.82-55.11-50.45-17.95-8.93-36.5-12.73-56.4-12.89-19.35-.15-38.51-3.69-56-12.1-23.28-11.21-43.13-27.4-56.71-49.6-6.71-11-10.68-23.64-15.32-35.85-7.11-18.76-3.91-37.29-4.39-56a16.86,16.86,0,0,1,.69-5.93c3.24-9.23,6.5-18.47,10.11-27.57,7.23-18.23,19.22-32.86,33.69-46,16.37-14.89,35.59-23.15,56.54-29a134.46,134.46,0,0,1,27.09-4.69c14.58-1,28.33,2.19,41.68,6.9A186.14,186.14,0,0,1,689.64,1895c22.33,13,38.92,31.38,48.94,55.44,1.43,3.43,3.92,6.43,5.31,9.88a115.87,115.87,0,0,1,8.24,45.47,125.69,125.69,0,0,0,11.6,55.68,135.17,135.17,0,0,0,58.1,62.48c21.63,12.09,44.56,15.5,68.56,16.46,17.25.69,33.6,4.27,49.57,12.2,11.2,5.56,22.18,11.62,31.06,19.58,12.21,11,23.65,23.33,30.75,38.86a198,198,0,0,1,12.89,38.91,121.55,121.55,0,0,1,2.94,26.32c.11,14.71-4.67,28.51-9.22,42.09a110.66,110.66,0,0,1-15,29.38c-15.43,21.26-34.28,38.72-59.89,47.65-11.5,4-22.7,7.87-35.14,9-8.44.79-16.93,2.43-25.49,2.39-18.23-.1-35.26,5.1-50.66,13.9-23.28,13.28-42,31.17-54.66,55.77a134.83,134.83,0,0,0-15.3,63.36c0,16.4-2.19,32.57-9,47.16-11.49,24.75-27,46.76-51,61.62a149.64,149.64,0,0,1-34.15,16.08,101.28,101.28,0,0,1-19.16,4c-6.26.68-12.65.15-19,.15C620,2669.49,619.87,2670.08,619.8,2670.67Z" transform="translate(-221.64 -1873.63)"/><path class="cls-2" d="M1560.25,2415.28l-6.36-7.9-2,.42c-.15,57.62,0,115.24-.1,174.33-21,.12-41.38.76-62.5-.55V2148.75c7-3.21,43.88-4.26,58.07-1.42.3,6.27-.09,13,1.13,19.33,1.1,5.67-1.54,12.36,4.38,18.31,5.66-11,14.38-17.93,23.58-24.43,14.17-10,29.51-17.17,46.77-19.36,12.52-1.6,25.17-3.39,37.72-3.1,19.31.46,38.85,3.32,56.13,11.87,15.9,7.87,31.22,17.08,43.45,31.35a143.63,143.63,0,0,1,28.11,49.29c10.86,32.92,13.85,58.13,9.62,90.62-1.37,10.47-3,20.93-5.11,31.28-.67,3.36-3.45,6.23-4.6,9.55-4.82,13.92-10.77,27.25-20.16,38.71-5.27,6.42-11.22,12.28-16.87,18.39-4.93,2.92-10.07,5.53-14.74,8.82a96.76,96.76,0,0,1-35.56,16c-7,1.52-14.75,1.84-20.88,5.09-7.3,3.89-14.51,3.63-22,3.72-6,.07-12.87,1.7-17.72-.69-10.66-5.25-22.65-4.14-33.15-8.73a254.79,254.79,0,0,1-27.2-13.5C1573.19,2425.72,1566.9,2420.2,1560.25,2415.28Zm41.63-207.78c-11.58,5.29-21.52,12.51-28.25,23.64-5.12,8.48-10.34,16.87-13.67,26.31-4.73,13.43-4.46,27.32-4.56,41.23-.14,18,3.56,34.64,12.34,50.74,9.68,17.73,22.85,30.56,41.53,37.92s37.91,8.51,57.7,4.4c22.52-4.68,39.18-17.24,52-35.8,8.53-12.39,12.79-26.71,14.44-41,1.88-16.24,2.11-32.73-2-49.33-3.82-15.25-10-28.8-19.55-40.74-6.17-7.69-13.91-14.11-23.66-17.34-.35-.93-.44-2.38-1.09-2.69-12.17-5.91-25-10.21-38.54-9.91a139.36,139.36,0,0,0-32.24,4.32C1611.36,2200.52,1604.85,2201.69,1601.88,2207.5Z" transform="translate(-221.64 -1873.63)"/><path class="cls-3" d="M1876.37,2415c-7.42-9.37-16.49-17.5-21.61-28.59-3.81-8.25-7.33-16.64-11.31-24.8a77.93,77.93,0,0,1-6.09-17.26c-4.58-20.15-7.75-40.41-5.63-61,1.45-14.1,2.56-28.76,7.34-41.89,7.11-19.5,15.32-38.69,29.48-55,16.18-18.62,35.75-32.09,58.42-39.91,23.3-8,47.82-11.26,72.78-7.26,13.78,2.2,27.74,3.69,40.44,9.87,15.13,7.37,30.11,14.86,41.63,27.95,9.17,10.42,18.62,20.14,24.56,33.21,7.12,15.7,13.34,31.22,16.74,48.39,4,20.28,1.83,40.35,3.45,61.37-4.22.51-7.74,1.3-11.25,1.31q-103.94.09-207.87.06c-4.22,0-8.43.5-14,.86,1.79,8.07,2.78,15.17,5,21.89,6.74,20.79,20.53,35.63,40.19,44.85,12.24,5.75,25.59,7.3,38.9,7.43,17.39.17,34.53-2,49.73-11.5a90.52,90.52,0,0,0,28.23-28c1.73-2.68,3.21-5.52,5.44-9.37,17.45,8.78,35.91,14.23,54.65,22.91-7.36,11.73-13.58,22.29-20.49,32.38-3.1,4.53-7.57,8.12-11.42,12.13-3.93,2.59-8,5-11.76,7.81-13.46,10.24-28.21,17.75-44.73,21.57-8,1.85-16.4,2.62-23.93,5.61a45.86,45.86,0,0,1-18.31,3c-10.77-.18-21.48.94-32.05-3.77-7-3.13-15.51-2.92-23.08-5.09-13.27-3.81-25.94-8.89-36.7-18.15C1888.09,2421.64,1882,2418.62,1876.37,2415ZM2061,2273.52c-1.82-8.06-3.79-14.68-4.75-21.44a62.62,62.62,0,0,0-21-38.91c-6.6-5.91-13.57-11.46-22.11-14.55a100.21,100.21,0,0,0-51.92-4.46c-24.58,4.15-42.1,17.61-54.55,38.31a81.69,81.69,0,0,0-7.8,19c-2.08,7-3,14.34-4.6,22.1Z" transform="translate(-221.64 -1873.63)"/><path class="cls-4" d="M1387.87,2165.55c8.18,3.76,13.28,11,19.53,17,14.55,14,23.41,31.11,31.36,49.4,10.29,23.71,13.07,48.19,12.4,73.46-.35,12.93-3.38,25.39-6.67,37.89a151.81,151.81,0,0,1-21.28,46.16c-9.09,13.54-20.56,24.55-33.72,34.65-17.32,13.29-36.89,19-57.07,25.14-17.18,5.22-34.24,4-51.4,3.7-8.13-.14-16.27-2.76-24.29-4.73-12.86-3.16-25.43-7.27-37.08-13.69-20.82-11.46-38.11-26.78-50.93-46.92-11-17.18-17.71-35.73-21.76-55.85-3.89-19.27-4-38.4-2.4-57.54,1.18-14,4.83-27.69,9.55-41.2,5.91-16.93,16.09-30.95,26.21-45.21a43.43,43.43,0,0,0,4.6-3.28c10.33-9.63,20.91-18.79,33.51-25.59,20.85-11.26,42.71-18.06,66.57-18.34,19.94-.23,39.86-.38,59.26,5.05a108.51,108.51,0,0,1,16.18,6.55C1369.66,2156.48,1378.73,2161.08,1387.87,2165.55Zm-139.7,215.71h0c.51.76.86,1.78,1.56,2.26,9.54,6.51,20.11,10.75,31.55,11.74,9.53.83,19.19.42,28.78.15,13.11-.36,24.61-5.88,35.57-12.39,2.59-1.54,6.89-3,6.09-7.74l0-.18,3.84-2.16c.63-1.07,1-2.4,1.94-3.17,11.62-9.89,17.61-23.3,22.38-37.17,4.9-14.23,4.85-29.19,4.56-44.1-.44-22.48-7-42.52-20.91-60.56-12.55-16.23-29.2-24.84-48.34-29.25-17-3.91-33.67-2.84-50.2,4.26-14.22,6.11-27,13-36.06,26.26-12.07,17.65-20.59,36.2-19.8,58.11.29,8,0,16,.33,23.92,1,20.9,10,38.55,22.57,54.68,2,2.51,4.06,4.9,6.09,7.34C1237.85,2380.47,1244.5,2379,1248.17,2381.26Z" transform="translate(-221.64 -1873.63)"/><path class="cls-2" d="M2451.44,2445.1c-22.62.15-44,.12-65.79,0-.3-3.82-.59-5.74-.59-7.66q0-79.44,0-158.86c0-7.65.06-15.38-.89-22.94-2.62-21-10.31-38.78-30.25-49.75a70.5,70.5,0,0,0-31.58-8.8c-25-1.1-46.79,6.61-63.44,25.71-8.83,10.14-14.7,22.17-15.41,36-.84,16.25-1.73,32.52-1.82,48.78-.25,44.93-.09,89.85-.09,135.54-2.86.71-5.65,2-8.46,2-17.66.17-35.33.07-53,0a15.11,15.11,0,0,1-3.32-.9V2146h14.38c11.67,0,23.33,0,35,0,9,0,10.32,1.22,10.93,10,.39,5.65.55,11.31,1,16.94.14,1.8.85,3.55,1.7,6.86,2.19-2.87,3.36-4.61,4.73-6.16,14.79-16.62,33.27-27,54.85-32,26.6-6.16,52.81-4.27,78.85,3.36,16.53,4.85,30.42,14.46,42.28,26.06a70,70,0,0,1,18.1,29.66c1.06,3.55,3.78,6.58,5,10.1,6.64,19.37,7.94,39.41,7.85,59.74-.25,55.29-.07,110.57-.06,165.86Z" transform="translate(-221.64 -1873.63)"/><path class="cls-2" d="M2921.74,2149.61q.3,11.89.61,23.79c-.95,2.6-1.42,5,3.22,6.21,1.53-3,3.19-6.15,4.84-9.35,8.88-6.45,17.33-13.6,26.76-19.1a86.16,86.16,0,0,1,23-8.81c31.56-7.63,62.94-6.36,92.66,6.93,15.37,6.87,29.27,16.5,39.23,31.51a132.6,132.6,0,0,1,22.05,70.87q.18,93.35.12,186.67c0,1.93-.29,3.85-.54,6.86h-20.09c-11.66,0-23.32.1-35,0-8.58-.09-9-.61-9-9.12,0-51.9.12-103.81,0-155.72,0-10,.68-20.29-1.58-29.83-5-20.8-14.12-38.48-36.18-47.54a78.44,78.44,0,0,0-48.49-3.91c-15.47,3.55-30.41,9.76-39.92,24-1.27.19-3.33,0-3.7.66-3.23,6-6.16,12.08-9.18,18.16-.26,1.87-.51,3.74-.77,5.61-5.55,2-3.4,6.49-3.37,10.3q-.33,5.86-.65,11.71c-4.29,3.53-3.12,8.45-3.12,12.94q-.11,74.86,0,149.72v11.19H2860q-.06-118-.1-236.06,0-28.87-.05-57.76c3.56-.55,7.11-1.51,10.68-1.57,11.89-.2,23.78-.25,35.66,0C2911.37,2148.08,2916.55,2149,2921.74,2149.61Z" transform="translate(-221.64 -1873.63)"/><path class="cls-5" d="M2594.37,2444.78h-64v-241.7c-3.81-.94-7.13-2.35-10.51-2.49-8-.32-16,.15-24-.1-3.43-.1-6.83-1.2-10.91-2,0-16-.12-30.86.07-45.77.06-5,3.59-6.61,8.11-6.61,8.66,0,17.32.08,26,0,3.27,0,6.52-.47,10.66-.79,0-3.17,0-5.71,0-8.25,0-15.31.17-30.62.12-45.94-.07-21.6,6.7-40.92,18.64-58.77,9.55-14.27,23.19-22.22,38.54-29.18,21.36-9.68,43.35-8.12,65.48-7.15,4.82.21,9.55,2.42,14.59,3.78V2053c-1.89,3.08-4.91,4.62-9.52,3.13-13.29-4.3-26.52-2-39.22,2.05-11.73,3.74-17.79,13.29-20.88,25-3.72,14.07-2.48,28.39-2.63,42.65-.07,5.94,0,11.88,0,19.12,3.34.39,7.1,1.18,10.87,1.21,18.63.13,37.27.06,57.06.06.75,3.53,2,6.88,2.08,10.27.25,11.31,0,22.62.08,33.94,0,8.91-1.33,10.26-10.11,10.21-16.66-.09-33.32-.22-50,0-3.6.06-7.18,1.77-10.56,2.67Z" transform="translate(-221.64 -1873.63)"/><path class="cls-6" d="M2584.28,2669.26h30.92v252.27a72,72,0,0,1-7.44.84c-7,.11-14-.33-21,.15-5.74.4-9.12-1.73-12-6.58C2558,2888,2541,2860.22,2524,2832.41q-29.85-48.94-59.77-97.85c-1.84-3-3.8-5.92-5.71-8.88l-2,.6v195.51h-30.61c-2.07-7.09-2.92-232.19-.9-251.79h36.52l120.71,198.12c2.24-16.58,2-32.93,2-49.27.05-16.64,0-33.29,0-49.93v-99.66Z" transform="translate(-221.64 -1873.63)"/><path class="cls-7" d="M4428.9,2812.17l49.76,109.8h-36.08l-47-102.9h-69v102.69h-31.35c-1.91-7.14-2.66-235.34-.76-251.79,2.42-.21,5-.63,7.53-.63,29-.05,58-.39,87,.11,16.93.28,33.77,1.67,49.56,9.32,19.33,9.38,31.3,24.61,36.45,44.91,6.23,24.52,2.46,47.45-14.05,67.47-6.5,7.88-15,13.09-24.05,17.45C4434.55,2809.73,4432.13,2810.73,4428.9,2812.17Zm-102.17-25.57a46.49,46.49,0,0,0,4.74.59c22.31,0,44.64.35,66.95-.17,6.83-.16,13.78-2.08,20.38-4.15,11.58-3.63,19.18-11.86,22.74-23.31a53.65,53.65,0,0,0,1.11-26.54c-2.87-14.85-11.49-24.53-25.52-29.14a63.66,63.66,0,0,0-18.53-3.08c-21.31-.37-42.64-.17-64-.11-2.52,0-5.05.49-7.91.79Z" transform="translate(-221.64 -1873.63)"/><path class="cls-1" d="M3068.07,2922.49V2670c2.89-.24,5.45-.64,8-.65,25-.05,49.95-.4,74.91.13,12.89.27,25.86,1.35,38.24,5.81,32.42,11.68,52.64,34.95,60,67.84,8.32,37,8.65,74.58-1.64,111.4-12,42.89-47,67.87-91,68-26,.05-51.94,0-77.9,0Zm32.75-31.13a19.93,19.93,0,0,0,4.13,1c18.32.08,36.71,1.13,54.94-.17,23.77-1.7,42.85-12.36,52.15-35.56a113.18,113.18,0,0,0,7.82-29.63,351.77,351.77,0,0,0,1.62-46.71c-.42-15.23-2.51-30.41-9.15-44.52-10.65-22.61-28.32-34.63-53.42-35.07-16.31-.29-32.64-.08-49,0-2.89,0-5.78.36-9.13.59Z" transform="translate(-221.64 -1873.63)"/><path class="cls-8" d="M2344.2,2795.74c.58,18.33-.2,36.14-4,53.83-8.72,40.64-38.34,70.31-79.57,76.56-54.7,8.29-98.34-23.46-110.93-71.91-6.53-25.11-6.6-50.61-5.64-76.2.73-19.34,3.41-38.36,11.58-56.16,16-35,43.86-53.38,81.73-56.45,25.54-2.08,48.7,5.15,68.92,21.15,18.31,14.47,28.38,33.9,33.76,56.12C2344.3,2760.25,2344.89,2778.14,2344.2,2795.74Zm-166.4.15c-.56,19.06.17,37.57,6,55.52,12.46,38.23,50.16,52,81.07,41.46,24.91-8.45,37.81-27.4,42.62-52.06,2.53-12.95,3.37-26.29,4-39.5.44-9.22-1-18.52-1.16-27.79a112,112,0,0,0-7.36-36.89c-11-29.43-42.9-46.12-73.45-38.48-25.89,6.47-40.69,23.75-47.43,48.76C2177.75,2763.09,2177.22,2779.66,2177.8,2795.89Z" transform="translate(-221.64 -1873.63)"/><path class="cls-9" d="M4197.21,2774.81v31.55c-13.18.5-26.38.16-39.57.22-13,.06-26,0-39,0h-40.33v85.34h135.42v30H4046.28V2669.85h167.41v30.68H4078.35v74.28Z" transform="translate(-221.64 -1873.63)"/><path class="cls-10" d="M2727,2145.92h16.52c12.33,0,24.66-.05,37,0,11.53,0,12.26,1,12.25,12.36q-.09,119.86,0,239.73v46c-22.16,2.69-43.89.78-65.72,1.15Z" transform="translate(-221.64 -1873.63)"/><path class="cls-11" d="M2031.35,2669.51h30.72c2,7.15,2.87,233.74.85,252.64-10,.47-20.05.35-31.16,0V2807.21H1911.83c-.23,12.28-.08,24.81-.1,37.33,0,13,0,26,0,39v38.3h-32.91V2669.5c5.15-.08,10.33-.2,15.51-.24s10.61,0,17.08,0V2774.6h119.95Z" transform="translate(-221.64 -1873.63)"/><path class="cls-7" d="M3514.55,2921.93h-33.93l-20.36-58.13H3351.54q-9.81,28.57-19.95,58.18H3298.3l89-252.27h37.91C3454.9,2753.54,3484.56,2837.28,3514.55,2921.93Zm-65.12-89.78c-14.54-42.44-28.87-84.24-43.91-128.13-15,44.09-29.11,85.7-43.52,128.13Z" transform="translate(-221.64 -1873.63)"/><path class="cls-7" d="M2876.62,2669.7h37.88L3003.93,2922c-6.21.19-11.63.43-17.06.51s-10.62,0-16.75,0c-6.85-19.6-13.63-39-20.56-58.78H2840.91q-9.85,28.76-20,58.32h-33.3Zm-24.95,161.38c10.62,2.2,78.47,1.92,86.64-.33q-21.3-62.1-42.57-124.11l-1.82.24Q2872.81,2768.92,2851.67,2831.08Z" transform="translate(-221.64 -1873.63)"/><path class="cls-7" d="M3610.18,2825.22v96.66h-30.3c-2-7.12-2.66-235.84-.73-251.84a60,60,0,0,1,6.46-.7c27.66-.05,55.33-.34,83,.1,13.26.22,26.6,1,39.39,5.35,22.79,7.71,37.66,23,44.35,46.14a94.74,94.74,0,0,1,.66,50.2c-7.35,29.09-26.56,46.07-55.78,51.5a175.79,175.79,0,0,1-28.74,2.48C3649.54,2825.48,3630.6,2825.22,3610.18,2825.22Zm.86-126.61v96.28c23.35,0,46,0,68.59,0a42.39,42.39,0,0,0,7.88-1.12c18.77-3.66,30.06-15.06,33.44-33.69a77,77,0,0,0,.62-20.8c-2.08-21.66-16.12-36.61-37.81-38.22C3659.92,2699.24,3636,2699.35,3611,2698.61Z" transform="translate(-221.64 -1873.63)"/><path class="cls-8" d="M1223.86,2825.17v96.91c-10.83.51-20.92.46-31.61,0V2669.68c3.33-.15,6.25-.39,9.16-.39,26.33,0,52.65-.35,79,.14a173.89,173.89,0,0,1,32.59,3.49c30.67,6.5,48.85,26,54.22,56.58,2.83,16.09,2.29,32.47-3.31,48.28-8.06,22.77-23.89,37.44-47.11,43.15-11.18,2.75-23,3.67-34.51,4.07C1263.31,2825.64,1244.33,2825.17,1223.86,2825.17Zm.57-126.53V2795c22.67,0,44.62.14,66.56-.11a55.32,55.32,0,0,0,13.74-2.34c13.46-3.67,23.09-11.89,27.1-25.44a78.27,78.27,0,0,0,2.86-18.6c1.1-26.27-11.91-45.18-38.65-47.63C1272.6,2698.78,1248.92,2699.31,1224.43,2698.64Z" transform="translate(-221.64 -1873.63)"/><path class="cls-6" d="M1515.72,2921.87h-32.88c-.19-3.23-.53-6.4-.53-9.56,0-27.65-.11-55.29,0-82.93a31.94,31.94,0,0,0-4.19-17c-25.18-43.81-50-87.82-74.92-131.79-1.78-3.14-3.3-6.44-5.74-11.24,12.17,0,23.25-.32,34.27.28,2.08.11,4.5,3.55,5.85,6,12.5,22.34,24.79,44.79,37.16,67.2,8,14.48,16,28.94,24.57,44.33,1.94-2.5,3.55-4.08,4.59-6q28.86-52.43,57.51-105c2.68-4.94,5.59-7.47,11.58-7.08,8.54.55,17.14.14,27.43.14-4.64,8.54-8.42,15.79-12.44,22.9-23.24,41.08-46.6,82.1-69.68,123.27-1.82,3.25-2.48,7.53-2.51,11.34-.21,28-.11,55.95-.11,83.93Z" transform="translate(-221.64 -1873.63)"/><path class="cls-7" d="M3904.66,2922H3872.1c-.92-24.57-.28-49-.4-73.48s0-48.61,0-72.92v-74.88h-74.84V2671c7.14-2.11,159-3,182.69-1,.06,4.68.14,9.52.17,14.37s0,9.9,0,16h-75.05Z" transform="translate(-221.64 -1873.63)"/><path class="cls-8" d="M1812,2669.81v30.43H1738.6c-.51,11.37-.21,21.88-.26,32.37,0,10.32,0,20.65,0,31v158.23h-32.45V2700.65c-25.4-.19-49.85,0-74.93-.13v-30.71Z" transform="translate(-221.64 -1873.63)"/><path class="cls-12" d="M2801.81,2043c1.84,21.51-22,43.2-42.93,42.47-23.39-.81-45.89-21.59-44-43.77,2-23,17-42.41,44.5-43C2780.13,1998.31,2804,2018.37,2801.81,2043Z" transform="translate(-221.64 -1873.63)"/></svg>