<?xml version="1.0" encoding="utf-8"?>
<!-- Generator: Adobe Illustrator 25.4.1, SVG Export Plug-In . SVG Version: 6.00 Build 0)  -->
<svg version="1.1" id="Layer_1" xmlns="http://www.w3.org/2000/svg" xmlns:xlink="http://www.w3.org/1999/xlink" x="0px" y="0px"
	 viewBox="0 0 370.8 554.7" style="enable-background:new 0 0 370.8 554.7;" xml:space="preserve">
<style type="text/css">
	.st0{fill:#0B1F41;}
	.st1{fill:#00BCE7;}
	.st2{fill:#5297C9;}
	.st3{fill:#1670A0;}
	.st4{fill:#2089C1;}
	.st5{fill:#0880B7;}
	.st6{fill:#FFFFFF;}
	.st7{fill:#F05323;}
	.st8{fill:#F58220;}
	.st9{clip-path:url(#SVGID_00000148634728800675457060000006616480280573614997_);fill:#0586BF;}
	.st10{fill:#A7C3E0;}
</style>
<g>
	<path class="st0" d="M8.5,472.5v-10.7h8.1c2.1,0,3.7,0.4,4.8,1.3c1.1,0.9,1.7,2.2,1.7,3.9v0.1c0,1.6-0.6,2.9-1.8,3.9
		c-1.2,1-2.8,1.4-4.8,1.4H8.5L8.5,472.5z M3,488.5h5.5v-11h6.9h0.1l7.8,11h6.5l-8.5-12c1.1-0.3,2.1-0.7,3-1.3c0.9-0.6,1.7-1.2,2.4-2
		c0.7-0.8,1.2-1.7,1.6-2.8c0.4-1,0.6-2.2,0.6-3.5v-0.1c0-1.4-0.2-2.6-0.7-3.8c-0.5-1.1-1.1-2.2-1.9-3c-1-1-2.3-1.8-3.8-2.3
		c-1.5-0.6-3.3-0.8-5.3-0.8H3V488.5L3,488.5z M43.1,488.5h23.6v-5H48.6V475h15.8v-5H48.6v-8.1h17.9v-5H43.1V488.5L43.1,488.5z
		 M89,475.9l5.4-12.6l5.5,12.6H89L89,475.9z M78,488.5h5.7l3.3-7.6h14.9l3.2,7.6h5.9l-13.9-31.8h-5.1L78,488.5L78,488.5z
		 M129.3,483.4v-21.6h6.2c1.7,0,3.2,0.3,4.5,0.8c1.4,0.5,2.5,1.3,3.5,2.2c0.9,1,1.7,2.1,2.2,3.4c0.5,1.3,0.8,2.8,0.8,4.3v0.1
		c0,1.5-0.3,3-0.8,4.3c-0.5,1.3-1.3,2.4-2.2,3.4c-0.9,1-2.1,1.7-3.5,2.2c-1.4,0.5-2.9,0.8-4.5,0.8H129.3L129.3,483.4z M123.8,488.5
		h11.8c2.5,0,4.7-0.4,6.8-1.2c2.1-0.8,3.8-1.9,5.3-3.3s2.6-3.1,3.5-5c0.8-1.9,1.2-4,1.2-6.2v-0.1c0-2.2-0.4-4.3-1.2-6.2
		c-0.8-1.9-2-3.6-3.5-5c-1.5-1.4-3.3-2.5-5.3-3.3c-2.1-0.8-4.3-1.2-6.8-1.2h-11.8V488.5L123.8,488.5z M166.8,488.5h5.5v-31.6h-5.5
		V488.5L166.8,488.5z M188.2,488.5h5.5V466l17.4,22.5h4.6v-31.6h-5.5v21.9l-16.9-21.9h-5.1V488.5L188.2,488.5z M231.3,488.5h23.6v-5
		h-18.1V475h15.8v-5h-15.8v-8.1h17.9v-5h-23.4V488.5L231.3,488.5z M284.6,488.3c1.4-0.4,2.6-1,3.6-1.9c1-0.8,1.8-1.8,2.3-3
		c0.6-1.2,0.8-2.5,0.8-4v-0.1c0-1.3-0.2-2.4-0.7-3.4c-0.4-1-1.1-1.8-1.9-2.6c-0.8-0.7-1.9-1.4-3.2-1.9c-1.3-0.5-2.8-1-4.4-1.4
		c-1.5-0.4-2.8-0.7-3.7-1c-1-0.3-1.8-0.7-2.3-1.1c-0.6-0.4-0.9-0.8-1.2-1.3c-0.2-0.5-0.3-1-0.3-1.6v-0.1c0-1.1,0.5-1.9,1.4-2.7
		c0.9-0.7,2.2-1.1,3.8-1.1c1.4,0,2.9,0.3,4.3,0.8c1.4,0.6,2.8,1.4,4.3,2.4l3-4.2c-1.6-1.3-3.4-2.3-5.2-3c-1.9-0.7-3.9-1-6.3-1
		c-1.6,0-3,0.2-4.3,0.7c-1.3,0.5-2.5,1.1-3.4,1.9c-0.9,0.8-1.7,1.8-2.2,2.9c-0.5,1.1-0.8,2.4-0.8,3.7v0.1c0,1.4,0.2,2.7,0.7,3.7
		c0.5,1,1.1,1.9,2,2.6c0.9,0.7,2,1.3,3.3,1.8c1.3,0.5,2.8,0.9,4.5,1.3c1.5,0.3,2.7,0.7,3.6,1c0.9,0.3,1.6,0.7,2.2,1.1
		c0.5,0.4,0.9,0.8,1.1,1.2c0.2,0.4,0.3,0.9,0.3,1.5v0.1c0,1.2-0.5,2.2-1.5,2.9c-1,0.7-2.4,1.1-4.1,1.1c-2,0-3.8-0.4-5.3-1.1
		c-1.6-0.7-3.1-1.7-4.7-3l-3.3,4c1.9,1.7,4,3,6.2,3.8c2.2,0.8,4.6,1.2,7,1.2C281.7,488.9,283.2,488.7,284.6,488.3L284.6,488.3z
		 M320.9,488.3c1.4-0.4,2.6-1,3.6-1.9c1-0.8,1.8-1.8,2.3-3c0.6-1.2,0.8-2.5,0.8-4v-0.1c0-1.3-0.2-2.4-0.7-3.4
		c-0.4-1-1.1-1.8-1.9-2.6c-0.8-0.7-1.9-1.4-3.2-1.9c-1.3-0.5-2.8-1-4.4-1.4c-1.5-0.4-2.8-0.7-3.7-1c-1-0.3-1.8-0.7-2.3-1.1
		c-0.6-0.4-0.9-0.8-1.2-1.3c-0.2-0.5-0.3-1-0.3-1.6v-0.1c0-1.1,0.5-1.9,1.4-2.7c0.9-0.7,2.2-1.1,3.8-1.1c1.4,0,2.9,0.3,4.3,0.8
		c1.4,0.6,2.8,1.4,4.3,2.4l3-4.2c-1.6-1.3-3.4-2.3-5.2-3c-1.9-0.7-3.9-1-6.3-1c-1.6,0-3,0.2-4.3,0.7c-1.3,0.5-2.5,1.1-3.4,1.9
		c-0.9,0.8-1.7,1.8-2.2,2.9c-0.5,1.1-0.8,2.4-0.8,3.7v0.1c0,1.4,0.2,2.7,0.7,3.7c0.5,1,1.1,1.9,2,2.6c0.9,0.7,2,1.3,3.3,1.8
		c1.3,0.5,2.8,0.9,4.5,1.3c1.5,0.3,2.7,0.7,3.6,1c0.9,0.3,1.6,0.7,2.2,1.1c0.5,0.4,0.9,0.8,1.1,1.2c0.2,0.4,0.3,0.9,0.3,1.5v0.1
		c0,1.2-0.5,2.2-1.5,2.9c-1,0.7-2.4,1.1-4.1,1.1c-2,0-3.8-0.4-5.3-1.1c-1.6-0.7-3.1-1.7-4.6-3l-3.3,4c1.9,1.7,4,3,6.2,3.8
		c2.2,0.8,4.6,1.2,7,1.2C318,488.9,319.5,488.7,320.9,488.3L320.9,488.3z"/>
	<path class="st0" d="M37.6,437.4c2.9-0.9,5.4-2.1,7.5-3.8c2.1-1.7,3.7-3.7,4.9-6c1.2-2.4,1.7-5.1,1.7-8.1v-0.2
		c0-2.8-0.5-5.1-1.5-7.1c-1-2-2.5-3.7-4.4-5.1c-1.9-1.4-4.2-2.6-7-3.6c-2.7-1-5.8-1.8-9.2-2.6c-2-0.4-3.7-0.9-5-1.3
		c-1.3-0.4-2.4-0.8-3.1-1.3c-0.8-0.4-1.3-0.9-1.6-1.4c-0.3-0.5-0.5-1.1-0.5-1.8v-0.2c0-1.1,0.5-2,1.5-2.7c1-0.7,2.5-1.1,4.4-1.1
		c2.7,0,5.4,0.5,8.3,1.5c2.8,1,5.6,2.4,8.3,4.4l8.2-11.6c-3.2-2.6-6.8-4.6-10.8-5.9c-4-1.3-8.5-2-13.6-2c-3.6,0-6.7,0.5-9.6,1.4
		c-2.8,0.9-5.2,2.2-7.2,3.9c-2,1.7-3.5,3.7-4.6,6c-1,2.3-1.6,4.8-1.6,7.6v0.2c0,3,0.6,5.6,1.7,7.6c1.2,2.1,2.7,3.8,4.7,5.2
		c2,1.4,4.4,2.5,7.1,3.4c2.7,0.9,5.6,1.7,8.8,2.4c2,0.5,3.7,0.9,5,1.3c1.3,0.4,2.3,0.9,3,1.3c0.8,0.5,1.3,0.9,1.6,1.4
		c0.3,0.5,0.4,1,0.4,1.6v0.2c0,1.3-0.6,2.3-1.7,3c-1.2,0.7-2.8,1.1-5,1.1c-6.9,0-13.3-2.4-19.2-7.1L0,428.8
		c3.7,3.3,7.9,5.8,12.7,7.4c4.8,1.6,9.8,2.5,15.1,2.5C31.4,438.7,34.7,438.2,37.6,437.4L37.6,437.4z M84.6,422.7
		c-1.9-0.9-3.5-2-4.8-3.5c-1.3-1.5-2.4-3.2-3.1-5.1c-0.7-1.9-1.1-4-1.1-6.1v-0.2c0-2.1,0.4-4.2,1.1-6.1c0.7-1.9,1.7-3.6,3.1-5
		c1.3-1.4,2.9-2.6,4.8-3.4c1.8-0.8,3.9-1.3,6.2-1.3c2.3,0,4.3,0.4,6.2,1.3c1.9,0.9,3.5,2,4.8,3.5c1.4,1.5,2.4,3.2,3.1,5.1
		c0.7,1.9,1.1,4,1.1,6.1v0.2c0,2.1-0.4,4.2-1.1,6.1c-0.7,1.9-1.8,3.6-3.1,5c-1.3,1.4-2.9,2.6-4.8,3.4c-1.9,0.8-3.9,1.3-6.2,1.3
		C88.5,424,86.5,423.6,84.6,422.7L84.6,422.7z M103.4,436.4c3.9-1.6,7.3-3.8,10.2-6.6c2.9-2.8,5.1-6.1,6.7-9.8
		c1.6-3.8,2.4-7.7,2.4-12v-0.2c0-4.2-0.8-8.2-2.4-11.9c-1.6-3.7-3.8-7-6.6-9.7c-2.8-2.8-6.2-5-10.1-6.6c-3.9-1.6-8.1-2.4-12.7-2.4
		c-4.6,0-8.8,0.8-12.7,2.4c-3.9,1.6-7.3,3.8-10.2,6.6c-2.9,2.8-5.1,6.1-6.7,9.8c-1.6,3.8-2.4,7.7-2.4,12v0.2c0,4.2,0.8,8.2,2.4,11.9
		c1.6,3.7,3.8,7,6.6,9.7c2.8,2.8,6.2,5,10.1,6.6c3.9,1.6,8.1,2.4,12.7,2.4C95.2,438.9,99.5,438,103.4,436.4L103.4,436.4z
		 M170.5,437.2c3.4-1.1,6.3-2.7,8.7-5c2.4-2.2,4.3-5.1,5.6-8.5c1.3-3.5,2-7.6,2-12.4v-32.8h-16.8v33.4c0,4.2-1,7.3-2.9,9.2
		c-2,2-4.6,3-7.9,3c-3.3,0-5.9-1-7.9-3.1c-2-2.1-2.9-5.2-2.9-9.5v-32.9h-16.8v33.3c0,4.6,0.6,8.6,1.9,12.1c1.3,3.4,3.1,6.2,5.5,8.5
		c2.4,2.2,5.2,3.9,8.6,5c3.4,1.1,7.2,1.6,11.4,1.6C163.3,438.8,167.1,438.2,170.5,437.2L170.5,437.2z M214.2,406.9v-14.2h10.8
		c2.8,0,4.9,0.6,6.5,1.7c1.6,1.2,2.4,2.9,2.4,5.3v0.2c0,2.1-0.8,3.9-2.3,5.1c-1.5,1.3-3.7,1.9-6.5,1.9H214.2L214.2,406.9z
		 M197.8,437.7h16.4v-17.9h7h0.2l11.9,17.9h19L238.1,417c3.7-1.6,6.7-3.9,8.9-6.9c2.2-3,3.3-6.8,3.3-11.3v-0.2
		c0-5.8-1.8-10.4-5.2-13.8c-2-2-4.5-3.6-7.7-4.7c-3.2-1.1-7-1.7-11.6-1.7h-28V437.7L197.8,437.7z M297.2,437.8
		c2.6-0.7,5-1.6,7.1-2.8c2.1-1.2,4-2.6,5.7-4.2c1.7-1.6,3.2-3.4,4.6-5.3l-12.4-8.8c-0.9,1.1-1.8,2-2.8,2.9c-0.9,0.9-1.9,1.6-3,2.3
		c-1,0.6-2.2,1.1-3.5,1.5c-1.3,0.3-2.7,0.5-4.2,0.5c-2.1,0-4-0.4-5.7-1.2c-1.7-0.8-3.2-1.9-4.4-3.3c-1.2-1.4-2.2-3.1-2.9-5
		c-0.7-1.9-1.1-4-1.1-6.2v-0.2c0-2.1,0.4-4.2,1.1-6.1c0.7-1.9,1.7-3.6,2.9-5c1.2-1.4,2.7-2.5,4.4-3.3c1.7-0.8,3.6-1.2,5.7-1.2
		c2.9,0,5.3,0.6,7.4,1.9c2,1.2,3.9,2.9,5.6,5.1l12.4-9.6c-1.3-1.8-2.8-3.5-4.4-5c-1.7-1.5-3.5-2.8-5.6-3.9c-2.1-1.1-4.3-1.9-6.8-2.5
		c-2.5-0.6-5.2-0.9-8.3-0.9c-4.5,0-8.7,0.8-12.5,2.4c-3.8,1.6-7.1,3.8-9.9,6.6c-2.8,2.8-4.9,6.1-6.5,9.8c-1.6,3.8-2.4,7.8-2.4,12.1
		v0.2c0,4.4,0.8,8.5,2.4,12.2c1.6,3.8,3.8,7,6.5,9.7c2.7,2.7,6,4.9,9.7,6.4c3.7,1.5,7.7,2.3,11.9,2.3
		C291.6,438.9,294.6,438.5,297.2,437.8L297.2,437.8z M322.8,437.7h48v-14H339v-9.4h28.4v-13H339v-9h31.4v-14h-47.6V437.7
		L322.8,437.7z"/>
	<path class="st0" d="M28.2,343.7c-1.9-0.9-3.5-2-4.8-3.5c-1.3-1.5-2.4-3.2-3.1-5.1c-0.7-1.9-1.1-3.9-1.1-6.1v-0.2
		c0-2.1,0.4-4.2,1.1-6.1c0.7-1.9,1.7-3.6,3.1-5c1.3-1.4,2.9-2.6,4.8-3.4c1.8-0.8,3.9-1.3,6.2-1.3c2.3,0,4.3,0.4,6.2,1.3
		c1.9,0.9,3.5,2,4.8,3.5c1.4,1.5,2.4,3.2,3.1,5.1c0.7,1.9,1.1,4,1.1,6.1v0.2c0,2.1-0.4,4.2-1.1,6.1c-0.7,1.9-1.8,3.6-3.1,5
		c-1.3,1.4-2.9,2.6-4.8,3.4c-1.9,0.8-3.9,1.3-6.2,1.3C32.1,345,30.1,344.6,28.2,343.7L28.2,343.7z M47,357.4
		c3.9-1.6,7.3-3.8,10.2-6.6c2.9-2.8,5.1-6.1,6.7-9.8c1.6-3.8,2.4-7.7,2.4-12v-0.2c0-4.2-0.8-8.2-2.4-11.9c-1.6-3.7-3.8-7-6.6-9.7
		c-2.8-2.8-6.2-5-10.1-6.6c-3.9-1.6-8.1-2.4-12.7-2.4c-4.6,0-8.8,0.8-12.7,2.4c-3.9,1.6-7.3,3.8-10.2,6.6c-2.9,2.8-5.1,6.1-6.7,9.8
		c-1.6,3.8-2.4,7.7-2.4,12v0.2c0,4.2,0.8,8.2,2.4,11.9c1.6,3.7,3.8,7,6.6,9.7c2.8,2.8,6.2,5,10.1,6.6c3.9,1.6,8.1,2.4,12.7,2.4
		C38.9,359.8,43.1,359,47,357.4L47,357.4z M92.4,328.9v-15.7h7.7c3,0,5.3,0.7,7,2c1.7,1.3,2.5,3.3,2.5,5.8v0.2
		c0,2.4-0.8,4.3-2.5,5.7c-1.7,1.4-4,2.1-6.9,2.1H92.4L92.4,328.9z M76,358.7h16.4v-16.9h8.1c3.7,0,7.1-0.5,10.2-1.4
		c3.1-0.9,5.8-2.3,8.1-4.1c2.3-1.8,4-4,5.3-6.7c1.3-2.7,1.9-5.7,1.9-9.2v-0.2c0-3.3-0.6-6.2-1.7-8.8c-1.2-2.6-2.8-4.8-5-6.6
		c-2.1-1.8-4.7-3.1-7.8-4.1c-3-0.9-6.4-1.4-10.2-1.4H76V358.7L76,358.7z M134.2,358.7h48v-14h-31.8v-9.4h28.4v-13h-28.4v-9h31.4v-14
		h-47.6V358.7L134.2,358.7z M191.8,358.7H208v-32.5l25.4,32.5h14.4v-59.3h-16.2v31.3l-24.4-31.3h-15.4V358.7L191.8,358.7z"/>
	<path class="st1" d="M8,546c-0.5-0.2-0.9-0.5-1.3-0.9c-0.4-0.4-0.6-0.9-0.8-1.4c-0.2-0.5-0.3-1.1-0.3-1.8c0-0.9,0.2-1.8,0.5-2.6
		c0.3-0.8,0.8-1.6,1.3-2.2c0.6-0.6,1.2-1.1,1.9-1.5c0.7-0.4,1.5-0.6,2.2-0.6c1.2,0,2.1,0.4,2.8,1.2c0.7,0.8,1.1,1.8,1.1,3.2
		c0,1-0.2,1.9-0.5,2.7c-0.3,0.8-0.7,1.6-1.2,2.2c-0.5,0.6-1.1,1.1-1.8,1.5c-0.7,0.4-1.4,0.5-2.2,0.5C9,546.3,8.5,546.2,8,546L8,546z
		 M13.6,548.9c1.1-0.5,2.1-1.3,2.9-2.2c0.9-0.9,1.5-2.1,2.1-3.4c0.5-1.3,0.8-2.7,0.8-4.3c0-1.1-0.2-2.2-0.5-3.1
		c-0.3-0.9-0.8-1.7-1.3-2.4c-0.6-0.6-1.3-1.1-2.1-1.5c-0.8-0.3-1.6-0.5-2.6-0.5c-1.1,0-2.1,0.2-2.9,0.7c-0.8,0.5-1.6,1.1-2.4,1.9
		l2.3-8.9H6.1l-6.1,24h3.8l0.8-3.1c0.5,1,1.2,1.8,2.1,2.4c0.9,0.7,2,1,3.5,1C11.3,549.7,12.5,549.4,13.6,548.9L13.6,548.9z
		 M26.3,553.6c1.1-0.7,2.1-2,3.2-3.8l10.7-17.9h-4.1l-7.3,12.9l-1.4-12.9h-3.9l2.4,17.4c-0.5,0.8-1,1.3-1.5,1.5
		c-0.4,0.3-0.9,0.4-1.4,0.4c-0.4,0-0.7-0.1-1.1-0.2c-0.4-0.1-0.7-0.3-1-0.5l-2,2.9c0.5,0.4,1.1,0.7,1.7,0.9c0.6,0.2,1.3,0.3,2.1,0.3
		C24.1,554.7,25.3,554.3,26.3,553.6L26.3,553.6z"/>
	<polygon class="st1" points="65.4,512.5 94.2,512.5 94.2,520.1 73.7,520.1 73.7,528.1 91.7,528.1 91.7,535.7 73.7,535.7 
		73.7,550.3 65.4,550.3 65.4,512.5 	"/>
	<polygon class="st1" points="101.6,512.5 109.9,512.5 109.9,550.3 101.6,550.3 101.6,512.5 	"/>
	<polygon class="st1" points="119.3,512.5 127,512.5 144.7,535.8 144.7,512.5 152.9,512.5 152.9,550.3 145.8,550.3 127.5,526.3 
		127.5,550.3 119.3,550.3 119.3,512.5 	"/>
	<path class="st1" d="M160,531.5v-0.1c0-10.7,8.5-19.5,20.1-19.5s20,8.7,20,19.5v0.1c0,10.7-8.5,19.5-20.1,19.5
		C168.4,551,160,542.3,160,531.5L160,531.5z M191.5,531.5v-0.1c0.2-6.3-4.7-11.6-11.1-11.9c-0.1,0-0.3,0-0.4,0
		c-6.7,0-11.3,5.3-11.3,11.8v0.1c-0.2,6.3,4.7,11.7,11.1,11.9c0.1,0,0.3,0,0.4,0C186.8,543.3,191.5,538,191.5,531.5L191.5,531.5z"/>
	<path class="st1" d="M204.4,544.8l4.9-5.9c3.1,2.8,7.1,4.5,11.3,4.6c3.4,0,5.5-1.3,5.5-3.6v-0.1c0-2.1-1.3-3.2-7.6-4.8
		c-7.6-1.9-12.5-4.1-12.5-11.6v-0.1c0-6.8,5.5-11.4,13.2-11.4c5.1-0.1,10.1,1.6,14,4.8l-4.3,6.3c-3.4-2.3-6.6-3.7-9.8-3.7
		c-3.2,0-4.9,1.5-4.9,3.3v0.1c0,2.5,1.6,3.3,8.1,5c7.7,2,12,4.7,12,11.3v0.1c0,7.5-5.7,11.7-13.9,11.7
		C214.6,550.8,208.9,548.7,204.4,544.8L204.4,544.8z"/>
	<path class="st0" d="M257.1,127.3C257.1,57,200.1,0,129.7,0C59.4,0,2.4,57,2.4,127.3c0,38.5,17.1,72.9,44,96.3
		c42.4-14.4,76.2-34.6,83.3-87.9c0,0,33.5,61.9-30.9,115.2c9.9,2.5,20.2,3.8,30.9,3.8C200.1,254.7,257.1,197.7,257.1,127.3"/>
	<path class="st2" d="M129.7,254.7C129.7,254.7,129.7,254.7,129.7,254.7L129.7,254.7C129.7,254.7,129.7,254.7,129.7,254.7
		 M129.8,254.7C129.8,254.7,129.8,254.7,129.8,254.7C129.8,254.7,129.8,254.7,129.8,254.7C129.8,254.7,129.8,254.7,129.8,254.7
		 M129.9,254.7C129.9,254.7,129.9,254.7,129.9,254.7C129.9,254.7,129.9,254.7,129.9,254.7C129.9,254.7,129.9,254.7,129.9,254.7
		 M130,254.7C130,254.7,130,254.7,130,254.7C130,254.7,130,254.7,130,254.7C130,254.7,130,254.7,130,254.7 M130.1,254.7
		C130.1,254.7,130.1,254.7,130.1,254.7C130.1,254.7,130.1,254.7,130.1,254.7 M130.2,254.7C130.2,254.7,130.2,254.7,130.2,254.7
		C130.2,254.7,130.2,254.7,130.2,254.7 M130.3,254.7C130.3,254.7,130.3,254.7,130.3,254.7C130.3,254.7,130.3,254.7,130.3,254.7
		 M130.4,254.7C130.4,254.7,130.4,254.7,130.4,254.7C130.4,254.7,130.4,254.7,130.4,254.7 M130.5,254.7
		C130.5,254.7,130.5,254.7,130.5,254.7C130.5,254.7,130.5,254.7,130.5,254.7 M130.6,254.7C130.6,254.7,130.6,254.7,130.6,254.7
		C130.6,254.7,130.6,254.7,130.6,254.7 M130.7,254.7C130.7,254.7,130.7,254.7,130.7,254.7C130.7,254.7,130.7,254.7,130.7,254.7
		 M130.8,254.7C130.8,254.7,130.8,254.7,130.8,254.7C130.8,254.7,130.8,254.7,130.8,254.7 M130.9,254.7
		C130.9,254.7,130.9,254.7,130.9,254.7C130.9,254.7,130.9,254.7,130.9,254.7 M131,254.7L131,254.7C131,254.7,131,254.7,131,254.7
		 M131.1,254.7L131.1,254.7L131.1,254.7 M111,253.3C111,253.3,111,253.3,111,253.3C111,253.3,111,253.3,111,253.3 M111,253.3
		c0,0-0.1,0-0.1,0C110.9,253.3,111,253.3,111,253.3 M110.9,253.3c-4.1-0.6-8.1-1.4-12-2.4c0,0,0,0,0,0l0,0c0,0,0,0,0,0
		c3.2,0.8,6.5,1.5,9.8,2C109.4,253,110.2,253.2,110.9,253.3 M46.4,223.6C46.4,223.6,46.4,223.6,46.4,223.6
		C46.4,223.6,46.4,223.6,46.4,223.6C46.4,223.6,46.4,223.6,46.4,223.6"/>
	<path class="st3" d="M129.7,254.7c-6.4,0-12.6-0.5-18.7-1.4c0,0,0,0,0,0c0,0,0,0,0,0c0,0-0.1,0-0.1,0c0,0,0,0,0,0
		c-0.7-0.1-1.5-0.2-2.2-0.3C115.5,254.1,122.6,254.7,129.7,254.7L129.7,254.7 M129.8,254.7C129.8,254.7,129.8,254.7,129.8,254.7
		C129.9,254.7,129.8,254.7,129.8,254.7C129.8,254.7,129.8,254.7,129.8,254.7 M129.9,254.7C129.9,254.7,129.9,254.7,129.9,254.7
		C130,254.7,129.9,254.7,129.9,254.7C129.9,254.7,129.9,254.7,129.9,254.7 M130,254.7C130,254.7,130,254.7,130,254.7
		C130.1,254.7,130,254.7,130,254.7C130,254.7,130,254.7,130,254.7 M130.1,254.7c13.6,0,26.7-2.2,39-6.2c33.8-66.7-35.6-116-39.4-116
		c-9.2,53.4-71.7,61.2-104.2,68c6,8.5,12.9,16.2,20.7,23c-22.6-19.6-38.1-47.1-42.5-78.1c27.4,7.8,55.2,13.8,77.9,13.8
		c24.8,0,43.3-7.1,48.1-26.6c26.8,0,72,23.1,87.3,87.6c-22.5,21.2-52.6,34.3-85.9,34.6h0c0,0-0.1,0-0.1,0h0c0,0-0.1,0-0.1,0
		c0,0,0,0,0,0c0,0-0.1,0-0.1,0c0,0,0,0,0,0c0,0,0,0-0.1,0c0,0,0,0,0,0c0,0,0,0-0.1,0c0,0,0,0,0,0c0,0,0,0-0.1,0c0,0,0,0,0,0
		c0,0,0,0-0.1,0c0,0,0,0-0.1,0s0,0,0,0s0,0-0.1,0c0,0,0,0,0,0c0,0,0,0-0.1,0C130.2,254.7,130.2,254.7,130.1,254.7
		C130.1,254.7,130.1,254.7,130.1,254.7C130.1,254.7,130.1,254.7,130.1,254.7 M98.9,250.9L98.9,250.9c56.3-46.7,37.7-99.9,32.2-112.5
		C136.6,151,155.1,204.2,98.9,250.9 M46.4,223.6C46.4,223.6,46.4,223.5,46.4,223.6C46.4,223.6,46.4,223.6,46.4,223.6
		C46.4,223.6,46.4,223.6,46.4,223.6 M46.3,223.5C46.3,223.5,46.3,223.5,46.3,223.5C46.3,223.5,46.3,223.5,46.3,223.5"/>
	<path class="st2" d="M129.7,254.7L129.7,254.7L129.7,254.7C129.8,254.7,129.8,254.7,129.7,254.7
		C129.8,254.7,129.8,254.7,129.7,254.7 M129.9,254.7C129.9,254.7,129.9,254.7,129.9,254.7C129.9,254.7,129.9,254.7,129.9,254.7
		C129.9,254.7,129.9,254.7,129.9,254.7 M130,254.7C130,254.7,130,254.7,130,254.7C130,254.7,130,254.7,130,254.7
		C130,254.7,130,254.7,130,254.7 M130.1,254.7C130.1,254.7,130.1,254.7,130.1,254.7C130.1,254.7,130.1,254.7,130.1,254.7
		 M46.4,223.6L46.4,223.6L46.4,223.6c42.4-14.4,76.2-34.6,83.3-87.9l0,0C122.7,189,88.8,209.2,46.4,223.6"/>
	<path class="st3" d="M129.9,254.7C129.9,254.7,129.9,254.7,129.9,254.7C129.9,254.7,129.9,254.7,129.9,254.7
		C129.9,254.7,129.9,254.7,129.9,254.7 M130,254.7C130,254.7,130,254.7,130,254.7C130,254.7,130,254.7,130,254.7
		C130,254.7,130,254.7,130,254.7 M130.1,254.7C130.1,254.7,130.1,254.7,130.1,254.7C130.1,254.7,130.1,254.7,130.1,254.7
		C130.1,254.7,130.1,254.7,130.1,254.7C130.1,254.7,130.1,254.7,130.1,254.7 M46.4,223.5C46.3,223.5,46.3,223.5,46.4,223.5
		C46.3,223.5,46.3,223.5,46.4,223.5 M46.3,223.4C46.3,223.4,46.3,223.4,46.3,223.4C46.3,223.4,46.3,223.4,46.3,223.4 M131.1,138.4
		c-0.8-1.8-1.3-2.8-1.3-2.8c0,0,0,0,0,0l0,0c0,0,0,0,0,0C129.7,135.7,130.3,136.6,131.1,138.4"/>
	<path class="st4" d="M129.7,254.7L129.7,254.7C129.7,254.7,129.7,254.7,129.7,254.7C129.8,254.7,129.8,254.7,129.7,254.7
		C129.8,254.7,129.8,254.7,129.7,254.7C129.8,254.7,129.8,254.7,129.7,254.7 M129.9,254.7C129.9,254.7,129.9,254.7,129.9,254.7
		C129.9,254.7,129.9,254.7,129.9,254.7C129.9,254.7,129.9,254.7,129.9,254.7 M130,254.7C130,254.7,130,254.7,130,254.7
		C130,254.7,130,254.7,130,254.7C130,254.7,130,254.7,130,254.7 M108.7,252.9c-3.3-0.6-6.6-1.2-9.8-2c0,0,0,0,0,0
		C102.1,251.7,105.4,252.4,108.7,252.9 M46.4,223.6L46.4,223.6C46.4,223.6,46.4,223.6,46.4,223.6c42.4-14.4,76.2-34.6,83.3-87.9l0,0
		C122.7,189,88.8,209.2,46.4,223.6"/>
	<path class="st5" d="M129.7,254.7c-7.2,0-14.2-0.6-21.1-1.7c-3.3-0.6-6.6-1.2-9.8-2c56.3-46.7,37.7-99.9,32.2-112.5
		c-0.8-1.8-1.3-2.8-1.3-2.8c0,0,0,0,0,0l0,0c-7.1,53.3-40.9,73.6-83.3,87.9c0,0-0.1,0-0.1-0.1c0,0,0,0,0,0c0,0,0,0-0.1-0.1
		c0,0,0,0,0,0c-7.8-6.8-14.7-14.5-20.7-23c32.5-6.9,95-14.6,104.2-68c3.7,0,73.1,49.3,39.4,116c-12.3,4-25.4,6.2-39,6.2c0,0,0,0,0,0
		c0,0,0,0,0,0c0,0,0,0,0,0c0,0,0,0,0,0c0,0,0,0,0,0c0,0,0,0,0,0c0,0,0,0,0,0C129.8,254.7,129.8,254.7,129.7,254.7
		C129.8,254.7,129.8,254.7,129.7,254.7"/>
	<path class="st6" d="M151.7,62c0-17.2-22-47.9-22-47.9s-22,30.7-22,47.9c0,17.2,22,49.2,22,64C129.8,111.2,151.7,79.2,151.7,62"/>
	<path class="st6" d="M139.3,107.1c6.5,3,16.5,9.2,16.5,18.8c9.3-16.6-2.1-33.2-7.2-39.5C145.5,93.4,142.1,100.6,139.3,107.1
		L139.3,107.1z"/>
	<path class="st6" d="M120.2,107.1c-6.5,3-16.5,9.2-16.5,18.8c-9.3-16.6,2.1-33.2,7.2-39.5C113.9,93.4,117.4,100.6,120.2,107.1
		L120.2,107.1z"/>
	<path class="st7" d="M143.9,133.5c0-7.8-3.3-14.6-8-17.8c-2.3,4.5-6.1,15.3-6.1,19.8c0-4.6-3.6-15.6-5.7-20.1c-5,3.1-8.4,10-8.4,18
		c0,10.9,11.5,32.3,14.1,32.3C132.4,165.8,143.9,144.4,143.9,133.5L143.9,133.5z"/>
	<path class="st8" d="M138.9,132.2c0-5.1-2.1-9.5-5.2-11.5c-1.5,2.9-4,9.9-4,12.9c0-3-2.3-10.1-3.7-13c-3.2,2-5.5,6.5-5.5,11.7
		c0,7.1,7.4,20.9,9.2,20.9C131.5,153.1,138.9,139.3,138.9,132.2L138.9,132.2z"/>
	<path class="st6" d="M142.2,34.2l-29.2,8.9c-3,6.7-5.2,13.4-5.2,18.8c0,8.4,5.3,20.5,10.7,32.3l26.1-8c3.9-9.1,7.1-17.7,7.1-24.3
		C151.7,54.1,147.2,43.4,142.2,34.2"/>
	<g>
		<defs>
			<path id="SVGID_1_" d="M142.2,34.2l-29.2,8.9c-3,6.7-5.2,13.4-5.2,18.8c0,8.4,5.3,20.5,10.7,32.3l26.1-8
				c3.9-9.1,7.1-17.7,7.1-24.3C151.7,54.1,147.2,43.4,142.2,34.2"/>
		</defs>
		<clipPath id="SVGID_00000055705221659289751510000000442543721717228416_">
			<use xlink:href="#SVGID_1_"  style="overflow:visible;"/>
		</clipPath>
		<polyline style="clip-path:url(#SVGID_00000055705221659289751510000000442543721717228416_);fill:#0586BF;" points="95.3,48.5 
			110.1,96.8 161.4,81.1 146.6,32.8 95.3,48.5 		"/>
	</g>
	<polyline class="st6" points="136.9,46.2 136.9,51.9 122.6,56.5 122.6,50.8 136.9,46.2 136.9,46.2 	"/>
	<polyline class="st6" points="122.6,60.1 122.6,70.2 128.2,70.2 128.2,64 136.9,61.2 136.9,55.5 122.6,60.1 	"/>
	<polygon class="st6" points="117.2,75.8 121.5,75.8 121.5,76.9 118.5,76.9 118.5,78.1 121.1,78.1 121.1,79.2 118.5,79.2 
		118.5,81.4 117.2,81.4 117.2,75.8 	"/>
	<polygon class="st6" points="122.6,75.8 123.8,75.8 123.8,81.4 122.6,81.4 122.6,75.8 	"/>
	<polygon class="st6" points="125.2,75.8 126.4,75.8 129,79.2 129,75.8 130.2,75.8 130.2,81.4 129.1,81.4 126.4,77.8 126.4,81.4 
		125.2,81.4 125.2,75.8 	"/>
	<path class="st6" d="M137.8,80.6l0.7-0.9c0.5,0.4,1,0.7,1.7,0.7c0.5,0,0.8-0.2,0.8-0.5v0c0-0.3-0.2-0.5-1.1-0.7
		c-1.1-0.3-1.9-0.6-1.9-1.7v0c0-1,0.8-1.7,2-1.7c0.8,0,1.5,0.2,2.1,0.7l-0.6,0.9c-0.5-0.3-1-0.6-1.5-0.6c-0.5,0-0.7,0.2-0.7,0.5v0
		c0,0.4,0.2,0.5,1.2,0.7c1.1,0.3,1.8,0.7,1.8,1.7v0c0,1.1-0.8,1.7-2.1,1.7C139.3,81.5,138.5,81.1,137.8,80.6L137.8,80.6z"/>
	<path class="st6" d="M131.2,78.6L131.2,78.6c0-1.6,1.3-2.9,3-2.9c1.7,0,3,1.3,3,2.9v0c0,1.6-1.3,2.9-3,2.9
		C132.5,81.5,131.2,80.2,131.2,78.6L131.2,78.6z M135.9,78.6L135.9,78.6c0-1-0.7-1.7-1.6-1.8l-0.1,0c-1,0-1.7,0.8-1.7,1.7v0
		c0,0.9,0.7,1.7,1.6,1.8l0.1,0C135.2,80.3,135.9,79.6,135.9,78.6L135.9,78.6z"/>
	<polyline class="st10" points="128.1,58.3 122.6,56.5 122.6,56.5 122.6,56.5 122.6,56.5 131.4,53.7 136.9,55.4 136.9,55.4 
		136.9,55.5 136.9,55.5 128.1,58.3 	"/>
</g>
</svg>
