<?xml version="1.0" encoding="UTF-8"?>
<svg id="Layer_1" xmlns="http://www.w3.org/2000/svg" version="1.1" viewBox="0 0 720 310.84">
  <!-- Generator: Adobe Illustrator 29.8.3, SVG Export Plug-In . SVG Version: 2.1.1 Build 3)  -->
  <defs>
    <style>
      .st0 {
        fill: #262e3d;
      }

      .st1 {
        fill: #0f62fe;
      }
    </style>
  </defs>
  <path class="st0" d="M333.124,206.7839c-7.849-2.101-15.044-6.254-20.807-12.009-6.833-6.833-11.302-15.463-12.9319-24.965-1.153-6.664-.8481-13.355.905-19.895,4.282-15.971,16.863-28.554,32.835-32.835,6.531-1.75,13.213-2.057,19.861-.913,2.799.478,5.575,1.221,8.256,2.211,6.326,2.336,11.957,5.943,16.735,10.721,13.933,13.933,34.41,19.419,53.44,14.316,7.768-2.078,14.846-5.741,21.035-10.885,1.291-1.071,2.559-2.227,3.765-3.432,3.336-3.337,6.221-7.079,8.593-11.119-1.695,13.85-6.182,27.349-13.369,39.797-14.048,24.332-36.73,41.737-63.868,49.008-17.81,4.771-36.638,4.771-54.449,0h0Z"/>
  <path class="st0" d="M434.726,30.8087c13.038,13.0379,22.451,29.3423,27.224,47.1513,2.106,7.861,2.106,16.172,0,24.034-2.104,7.86-6.26,15.058-12.019,20.818-1.011,1.011-2.074,1.979-3.158,2.878-5.197,4.32-11.136,7.394-17.657,9.138-15.973,4.284-33.159-.32-44.853-12.015-4.78-4.78-8.386-10.409-10.716-16.731-.986-2.662-1.727-5.427-2.206-8.225-1.153-6.666-.848-13.357.905-19.897,2.51-9.366,2.51-19.2678,0-28.6363-2.508-9.3653-7.459-17.9413-14.318-24.8008-5.689-5.6885-12.397-9.986-19.939-12.7734-1.599-.5919-3.238-1.1131-4.869-1.5479-4.548-1.2202-9.227-1.8471-13.911-1.8804C332.164,2.816,346.226-.0495,360.717.0006c27.955.0969,54.239,11.0378,74.009,30.808h0Z"/>
  <path class="st1" d="M285.972,30.8086c.183-.1829.367-.3639.554-.5466,5.551-5.3714,12.422-9.3028,19.877-11.3698l.405-.108c4.474-1.1958,9.087-1.6317,13.68-1.4658-.325.2307-.696.3646-.987.656-2.366,2.3655-2.605,5.9187-.966,8.6662l-10.241,13.5892c-3.668-2.2119-8.492-1.7634-11.657,1.4019-3.726,3.7262-3.726,9.7678,0,13.4943,3.726,3.7262,9.768,3.7264,13.494.0002,2.993-2.9927,3.539-7.4613,1.726-11.0423l10.754-14.2716c.175.0493.3521.0669.529.103l3.696,26.3003c-1.707.3814-3.335,1.214-4.664,2.5433-3.726,3.7261-3.726,9.7671,0,13.4941,3.726,3.727,9.768,3.726,13.494,0,3.727-3.726,3.727-9.7682.001-13.4948-1.04-1.0401-2.27-1.7592-3.569-2.2186l-3.868-27.52c.4749-.2903.981-.5134,1.391-.9244,2.599-2.599,2.676-6.6486.441-9.4577.251.0628.51.0841.761.1512,1.369.3653,2.74.8019,4.081,1.298,6.333,2.3404,11.963,5.9473,16.738,10.7221,5.757,5.7569,9.912,12.9546,12.017,20.815,2.107,7.8639,2.107,16.1742,0,24.0342-1.338,4.989-3.463,9.631-6.313,13.866.424-2.794-.412-5.743-2.563-7.894-3.596-3.596-9.425-3.596-13.021,0-3.595,3.595-3.595,9.425.001,13.02,2.576,2.576,6.291,3.273,9.517,2.158-.908.889-1.837,1.753-2.79,2.54-5.2,4.322-11.14,7.396-17.666,9.146-9.515,2.55-18.0201,7.573-24.784,14.336-6.353,6.354-11.088,14.281-13.763,23.101.022-.504.18-.978.116-1.496-.627-5.099-5.268-8.726-10.368-8.1-.634.078-1.245.219-1.828.414l-7.758-11.081c.519-.993.845-2.097.698-3.294-.386-3.139-3.242-5.37-6.38-4.985-3.139.385-5.37,3.242-4.985,6.38.385,3.139,3.242,5.371,6.38,4.985.042-.005.074-.032.115-.038l7.693,10.986c-1.545,1.896-2.357,4.383-2.035,7.001.626,5.1,5.268,8.727,10.367,8.101,3.136-.385,5.565-2.372,6.941-4.966-1.596,7.085-1.852,14.296-.608,21.481,1.091,6.363,3.251,12.398,6.38,17.909-11.134-8.389-20.569-19.015-27.748-31.452-13.64-23.624-17.4619-51.024-11.022-77.436.145,3.477,2.216,6.736,5.633,8.186,2.621,1.113,5.449.894,7.807-.294l11.958,11.547c-.787.876-1.471,1.878-1.962,3.035-2.224,5.238-.094,11.153,4.758,13.212,4.85,2.059,10.585-.518,12.808-5.755.694-1.635.919-3.327.814-4.956l10.189-3.508c.447.392.91.774,1.487,1.019,2.911,1.236,6.271-.123,7.507-3.033,1.236-2.911-.122-6.272-3.033-7.507-2.9109-1.236-6.272.122-7.508,3.032-.231.548-.287,1.115-.343,1.677l-9.912,3.413c-.959-1.445-2.282-2.637-3.958-3.348-2.0981-.891-4.349-.871-6.422-.187l-12.599-12.167c.214-.36.439-.711.608-1.108,2.008-4.73-.199-10.192-4.928-12.199-4.283-1.818-9.139-.157-11.514,3.679,4.986-16.6767,14.02-31.9424,26.347-44.2694h0ZM349.07,47.5277c1.957-1.9564,1.957-5.1283,0-7.0846-1.956-1.9567-5.128-1.9564-7.084,0-1.957,1.9564-1.957,5.128,0,7.0845,1.956,1.956,5.1281,1.9565,7.084,0h0ZM291.518,74.0949c-1.957,1.956-1.957,5.129-.001,7.085,1.957,1.956,5.129,1.956,7.085,0,1.956-1.956,1.956-5.129,0-7.085-1.956-1.956-5.128-1.956-7.084,0h0Z"/>
  <path class="st0" d="M511.133,310.284c2.779,0,5.188-.435,7.227-1.306,2.038-.871,3.595-2.141,4.67-3.809,1.074-1.667,1.612-3.631,1.612-5.893,0-1.779-.333-3.335-1.001-4.67-.6669-1.334-1.631-2.427-2.89-3.28-1.261-.852-2.78-1.408-4.559-1.667v.833c2.297-.555,4.114-1.648,5.448-3.28,1.334-1.63,2.001-3.613,2.001-5.948,0-3.15-1.139-5.634-3.4189-7.45-2.2791-1.815-5.5131-2.724-9.701-2.724h-17.9569v39.194h18.5689ZM500.848,293.606h9.173c.889,0,1.676.065,2.363.194.685.131,1.2781.334,1.7791.612.4999.278.917.611,1.2499,1.001.334.389.584.871.751,1.445.167.575.2499,1.214.2499,1.918,0,.667-.0829,1.27-.2499,1.807-.167.538-.4171,1.02-.751,1.445-.3329.427-.75.77-1.2499,1.029-.501.26-1.0941.454-1.7791.584-.687.13-1.4739.194-2.363.194h-9.173v-10.229h0ZM500.848,277.5389h8.172c2.149,0,3.743.399,4.781,1.195,1.037.798,1.5569,2.011,1.5569,3.642,0,1.594-.52,2.789-1.5569,3.585-1.038.798-2.632,1.196-4.781,1.196h-8.172v-9.618h0ZM539.8189,310.284v-15.122h4.17c.778,0,1.4631.075,2.057.2231.592.148,1.139.417,1.64.806.4999.389.917.936,1.251,1.64l6.838,12.453h9.451l-6.338-11.619c-.816-1.557-1.8071-2.705-2.974-3.447-1.1681-.741-2.5301-1.112-4.087-1.112h-2.2231l-.501.89c2.8911,0,5.356-.482,7.394-1.446,2.038-.963,3.595-2.335,4.67-4.114,1.075-1.779,1.613-3.891,1.613-6.338,0-3.78-1.196-6.727-3.5861-8.839-2.391-2.113-5.7539-3.169-10.0909-3.169h-17.9009v39.194h8.6169ZM539.8189,277.8169h7.783c2.261,0,3.975.464,5.143,1.39,1.167.927,1.751,2.298,1.751,4.114,0,1.853-.584,3.243-1.751,4.169-1.168.927-2.882,1.39-5.143,1.39h-7.783v-11.063h0ZM596.025,309.45c2.3719-.926,4.42-2.288,6.1431-4.086,1.724-1.797,3.0389-3.938,3.948-6.421.9069-2.483,1.362-5.244,1.362-8.284,0-3.076-.4641-5.855-1.3901-8.339-.927-2.483-2.243-4.595-3.947-6.338-1.7059-1.741-3.744-3.085-6.116-4.03-2.3719-.945-5.022-1.418-7.95-1.418-2.8911,0-5.532.464-7.922,1.39-2.3911.927-4.4391,2.279-6.1431,4.058-1.706,1.779-3.012,3.911-3.92,6.394-.908,2.483-1.362,5.245-1.362,8.283,0,3.04.463,5.792,1.39,8.256.926,2.465,2.242,4.596,3.9471,6.393,1.705,1.799,3.7429,3.1689,6.116,4.114,2.371.946,5.003,1.418,7.894,1.418,2.928,0,5.578-.464,7.95-1.39h0ZM582.516,302.028c-1.557-1.019-2.744-2.492-3.558-4.419-.816-1.927-1.223-4.244-1.223-6.95,0-2.742.407-5.068,1.223-6.977.814-1.908,2.001-3.363,3.558-4.364,1.556-1.001,3.409-1.501,5.5591-1.501,2.2239,0,4.1049.5,5.6429,1.501,1.538,1.001,2.715,2.465,3.53,4.392.815,1.927,1.2231,4.244,1.2231,6.949,0,2.669-.4171,4.967-1.2511,6.894-.8329,1.9279-2.0199,3.41-3.558,4.448-1.538,1.038-3.3999,1.556-5.5869,1.556-2.1501,0-4.0031-.509-5.5591-1.529h0ZM622.766,310.284v-17.901h.1111l17.0119,17.901h10.451l-20.7921-22.293-.055,3.613,20.014-20.514h-10.341l-16.2889,17.067h-.1111v-17.067h-8.618v39.194h8.618ZM679.1939,310.284v-6.727h-18.569v-9.84h17.29v-6.727h-17.29v-9.173h18.569v-6.727h-26.8519v39.194h26.8519ZM694.593,310.284v-15.122h4.17c.778,0,1.4639.075,2.057.2231.5919.148,1.14.417,1.64.806.5.389.917.936,1.251,1.64l6.838,12.453h9.4509l-6.338-11.619c-.815-1.557-1.807-2.705-2.974-3.447-1.168-.741-2.53-1.112-4.086-1.112h-2.2239l-.5.89c2.8909,0,5.3549-.482,7.3939-1.446,2.038-.963,3.5941-2.335,4.67-4.114,1.074-1.779,1.6121-3.891,1.6121-6.338,0-3.78-1.1951-6.727-3.5861-8.839-2.391-2.113-5.754-3.169-10.09-3.169h-17.902v39.194h8.617ZM694.593,277.8169h7.7841c2.26,0,3.9749.464,5.1419,1.39,1.168.927,1.751,2.298,1.751,4.114,0,1.853-.583,3.243-1.751,4.169-1.167.927-2.8819,1.39-5.1419,1.39h-7.7841v-11.063h0Z"/>
  <path class="st0" d="M181.903,310.284v-15.122h4.17c.778,0,1.464.075,2.057.2231.592.148,1.14.417,1.64.806.5.389.917.936,1.251,1.64l6.838,12.453h9.451l-6.338-11.619c-.815-1.557-1.806-2.705-2.974-3.447-1.167-.741-2.529-1.112-4.086-1.112h-2.224l-.5.89c2.891,0,5.355-.482,7.394-1.446,2.038-.963,3.594-2.335,4.67-4.114,1.074-1.779,1.612-3.891,1.612-6.338,0-3.78-1.195-6.727-3.586-8.839-2.39-2.113-5.754-3.169-10.09-3.169h-17.902v39.194h8.617ZM181.903,277.8169h7.784c2.26,0,3.975.464,5.142,1.39,1.168.927,1.751,2.298,1.751,4.114,0,1.853-.583,3.243-1.751,4.169-1.167.927-2.882,1.39-5.142,1.39h-7.784v-11.063h0ZM238.832,310.284v-6.727h-18.568v-9.84h17.29v-6.727h-17.29v-9.173h18.568v-6.727h-26.852v39.194h26.852ZM268.103,309.3389c2.39-1.0009,4.253-2.427,5.587-4.281,1.334-1.853,2.001-3.983,2.001-6.393,0-2.816-.899-5.087-2.696-6.81-1.798-1.724-4.531-2.975-8.2-3.753l-6.2271-1.334c-1.927-.408-3.271-.946-4.031-1.613-.7599-.667-1.139-1.519-1.139-2.557,0-1.001.278-1.862.834-2.585.556-.723,1.38-1.287,2.474-1.696,1.092-.407,2.418-.611,3.975-.611,2.149,0,4.16.297,6.032.889,1.871.593,3.5479,1.501,5.031,2.724l2.502-6.449c-1.001-.889-2.215-1.667-3.642-2.335-1.427-.667-2.974-1.167-4.642-1.501-1.668-.333-3.391-.5-5.17-.5-3.151,0-5.921.51-8.312,1.529-2.39,1.02-4.252,2.465-5.587,4.336-1.334,1.872-2.001,4.05-2.001,6.533,0,2.928.852,5.291,2.557,7.088,1.705,1.798,4.337,3.085,7.895,3.864l6.282,1.334c1.334.26,2.409.575,3.224.945.815.371,1.408.806,1.779,1.307.37.5.556,1.121.556,1.862,0,1.26-.593,2.298-1.779,3.113-1.186.816-3.113,1.223-5.782,1.223-1.631,0-3.224-.157-4.781-.472-1.556-.315-3.021-.759-4.392-1.334-1.371-.575-2.65-1.251-3.836-2.03l-2.5009,6.727c1.259.89,2.6859,1.659,4.28,2.307,1.593.649,3.354,1.14,5.282,1.474,1.926.333,3.91.5,5.948.5,3.261,0,6.088-.5,8.479-1.501h0ZM307.38,309.45c2.371-.926,4.419-2.288,6.143-4.086,1.723-1.797,3.038-3.938,3.947-6.421.908-2.483,1.362-5.244,1.362-8.284,0-3.076-.464-5.855-1.39-8.339-.927-2.483-2.243-4.595-3.947-6.338-1.705-1.741-3.744-3.085-6.115-4.03-2.373-.945-5.023-1.418-7.95-1.418-2.891,0-5.532.464-7.923,1.39-2.39.927-4.438,2.279-6.143,4.058-1.705,1.779-3.011,3.911-3.919,6.394-.909,2.483-1.362,5.245-1.362,8.283,0,3.04.463,5.792,1.39,8.256.926,2.465,2.242,4.596,3.947,6.393,1.704,1.799,3.743,3.1689,6.115,4.114,2.372.946,5.004,1.418,7.895,1.418,2.927,0,5.577-.464,7.95-1.39h0ZM293.87,302.028c-1.556-1.019-2.743-2.492-3.558-4.419-.816-1.927-1.223-4.244-1.223-6.95,0-2.742.407-5.068,1.223-6.977.815-1.908,2.002-3.363,3.558-4.364,1.557-1.001,3.41-1.501,5.56-1.501,2.223,0,4.104.5,5.642,1.501,1.538,1.001,2.715,2.465,3.531,4.392.815,1.927,1.223,4.244,1.223,6.949,0,2.669-.417,4.967-1.251,6.894-.834,1.9279-2.021,3.41-3.558,4.448-1.539,1.038-3.401,1.556-5.587,1.556-2.15,0-4.003-.509-5.56-1.529h0ZM354.885,306.5869c2.871-2.835,4.308-7.051,4.308-12.648v-22.849h-8.506v22.849c0,3.188-.722,5.588-2.168,7.2-1.445,1.612-3.521,2.418-6.227,2.418-2.743,0-4.836-.806-6.282-2.418-1.445-1.612-2.168-4.012-2.168-7.2v-22.849h-8.617v22.849c0,5.597,1.454,9.813,4.364,12.648,2.909,2.835,7.144,4.253,12.703,4.253,5.523,0,9.72-1.418,12.593-4.253h0ZM375.427,310.284v-15.122h4.169c.779,0,1.464.075,2.057.2231.593.148,1.14.417,1.64.806.501.389.918.936,1.251,1.64l6.838,12.453h9.451l-6.337-11.619c-.816-1.557-1.807-2.705-2.975-3.447-1.167-.741-2.529-1.112-4.086-1.112h-2.224l-.5.89c2.891,0,5.355-.482,7.394-1.446,2.038-.963,3.595-2.335,4.67-4.114s1.612-3.891,1.612-6.338c0-3.78-1.195-6.727-3.586-8.839-2.39-2.113-5.754-3.169-10.09-3.169h-17.901v39.194h8.617ZM375.427,277.8169h7.783c2.26,0,3.975.464,5.142,1.39,1.168.927,1.752,2.298,1.752,4.114,0,1.853-.584,3.243-1.752,4.169-1.167.927-2.882,1.39-5.142,1.39h-7.783v-11.063h0ZM431.966,309.6169c2.409-.815,4.355-1.908,5.838-3.28l-2.724-6.838c-1.632,1.298-3.29,2.251-4.976,2.863-1.687.611-3.457.917-5.309.917-3.707,0-6.515-1.093-8.423-3.28-1.909-2.186-2.863-5.3-2.863-9.34,0-4.003.954-7.097,2.863-9.284,1.908-2.187,4.716-3.28,8.423-3.28,1.852,0,3.622.306,5.309.917,1.686.612,3.344,1.566,4.976,2.863l2.724-6.838c-1.483-1.408-3.429-2.51-5.838-3.308-2.409-.796-4.911-1.195-7.505-1.195-4.189,0-7.793.825-10.813,2.474-3.021,1.65-5.328,3.985-6.922,7.005-1.594,3.021-2.39,6.57-2.39,10.646s.796,7.636,2.39,10.674c1.594,3.0399,3.901,5.384,6.922,7.033,3.02,1.65,6.624,2.474,10.813,2.474,2.594,0,5.096-.408,7.505-1.223h0ZM470.326,310.284v-6.727h-18.568v-9.84h17.29v-6.727h-17.29v-9.173h18.568v-6.727h-26.8521v39.194h26.8521Z"/>
  <path class="st0" d="M27.297,309.45c2.3714-.926,4.4198-2.288,6.1432-4.086,1.7234-1.797,3.0386-3.938,3.9471-6.421.9078-2.483,1.3622-5.244,1.3622-8.284,0-3.076-.4639-5.855-1.3899-8.339-.9269-2.483-2.2429-4.595-3.9472-6.338-1.7052-1.741-3.744-3.085-6.1154-4.03-2.3723-.945-5.0226-1.418-7.95-1.418-2.891,0-5.5317.464-7.9223,1.39-2.3905.927-4.4389,2.279-6.1432,4.058-1.7052,1.779-3.0116,3.911-3.9194,6.394-.9086,2.483-1.3621,5.245-1.3621,8.283,0,3.04.463,5.792,1.3899,8.256.926,2.465,2.242,4.596,3.9472,6.393,1.7043,1.799,3.7431,3.1689,6.1154,4.114,2.3715.946,5.0035,1.418,7.8945,1.418,2.9274,0,5.5777-.464,7.95-1.39h0ZM13.7875,302.028c-1.5566-1.019-2.7432-2.492-3.5581-4.419-.8156-1.927-1.223-4.244-1.223-6.95,0-2.742.4074-5.068,1.223-6.977.8149-1.908,2.0015-3.363,3.5581-4.364,1.5566-1.001,3.4095-1.501,5.5595-1.501,2.2237,0,4.1044.5,5.6428,1.501,1.5375,1.001,2.7146,2.465,3.5303,4.392.8148,1.927,1.223,4.244,1.223,6.949,0,2.669-.4169,4.967-1.2508,6.894-.8339,1.9279-2.0205,3.41-3.5581,4.448-1.5384,1.038-3.4008,1.556-5.5872,1.556-2.15,0-4.0029-.509-5.5595-1.529h0ZM54.0374,310.284v-14.065h9.2843c2.9273,0,5.4113-.501,7.4493-1.501,2.038-1.001,3.586-2.447,4.643-4.337,1.056-1.89,1.584-4.15,1.584-6.782s-.528-4.883-1.584-6.755c-1.057-1.871-2.605-3.298-4.643-4.281-2.038-.981-4.522-1.473-7.4493-1.473h-17.9014v39.194h8.6171ZM54.0374,277.8169h7.8389c2.2237,0,3.9197.4821,5.0867,1.445,1.168.965,1.751,2.41,1.751,4.337,0,1.965-.583,3.438-1.751,4.419-1.167.983-2.863,1.474-5.0867,1.474h-7.8389v-11.675h0ZM109.187,310.284v-6.727h-18.569v-9.84h17.29v-6.727h-17.29v-9.173h18.569v-6.727h-26.853v39.194h26.853ZM123.974,310.284v-26.908h-1.501l21.071,26.908h6.393v-39.194h-8.061v26.852h1.557l-21.071-26.852h-6.393v39.194h8.005Z"/>
</svg>