<?xml version="1.0" encoding="utf-8"?>
<!-- Generator: Adobe Illustrator 26.3.1, SVG Export Plug-In . SVG Version: 6.00 Build 0)  -->
<svg version="1.1" id="Layer_1" xmlns="http://www.w3.org/2000/svg" xmlns:xlink="http://www.w3.org/1999/xlink" x="0px" y="0px"
	 viewBox="0 0 720 262.6" style="enable-background:new 0 0 720 262.6;" xml:space="preserve">
<style type="text/css">
	.st0{fill:#00BCE7;}
</style>
<g>
	<polygon class="st0" points="375.1,0 375.1,262.6 376.6,262.6 376.6,0 375.1,0 	"/>
	<path class="st0" d="M479.3,156.7c2.8-1,5.1-2.4,7-4.4c1.9-2,3.4-4.4,4.5-7.3c1.1-2.9,1.6-6.3,1.6-10.2v-29.5h-9.1v30
		c0,4.8-1.2,8.4-3.5,10.9c-2.3,2.4-5.6,3.6-9.6,3.6c-4.1,0-7.4-1.3-9.7-3.8c-2.3-2.5-3.5-6.2-3.5-11.1v-29.6h-9.1v30
		c0,3.8,0.5,7.1,1.6,9.9c1,2.9,2.5,5.2,4.5,7.2c1.9,1.9,4.3,3.4,7,4.4c2.7,1,5.8,1.5,9.1,1.5C473.5,158.1,476.5,157.7,479.3,156.7
		L479.3,156.7z M530.8,157c2.3-0.7,4.2-1.7,5.8-3c1.6-1.3,2.9-3,3.8-4.9c0.9-1.9,1.4-4.1,1.4-6.5v-0.1c0-2.1-0.4-4-1.1-5.6
		c-0.7-1.6-1.8-3-3.2-4.2c-1.4-1.2-3.1-2.2-5.3-3.1c-2.1-0.8-4.5-1.6-7.3-2.3c-2.5-0.6-4.5-1.2-6.2-1.7c-1.6-0.5-2.9-1.1-3.8-1.7
		c-0.9-0.6-1.6-1.3-1.9-2.1c-0.3-0.8-0.5-1.6-0.5-2.6v-0.1c0-1.7,0.7-3.2,2.2-4.4c1.5-1.2,3.6-1.8,6.2-1.8c2.4,0,4.7,0.5,7.1,1.4
		c2.3,0.9,4.7,2.2,7.1,4l4.9-6.9c-2.7-2.1-5.5-3.8-8.6-4.9c-3-1.1-6.5-1.7-10.3-1.7c-2.6,0-5,0.4-7.1,1.1c-2.2,0.7-4,1.8-5.6,3.1
		c-1.5,1.3-2.8,2.9-3.7,4.8c-0.9,1.9-1.3,3.9-1.3,6.1v0.1c0,2.4,0.4,4.4,1.2,6.1c0.8,1.7,1.9,3.1,3.4,4.3c1.5,1.2,3.3,2.2,5.4,3
		c2.2,0.8,4.6,1.5,7.4,2.2c2.4,0.5,4.4,1.1,5.9,1.6c1.5,0.5,2.7,1.1,3.6,1.8c0.9,0.6,1.5,1.3,1.8,2c0.3,0.7,0.5,1.6,0.5,2.5v0.1
		c0,2-0.8,3.6-2.5,4.8c-1.7,1.2-3.9,1.8-6.7,1.8c-3.3,0-6.2-0.6-8.8-1.7c-2.6-1.2-5.1-2.8-7.7-5l-5.5,6.5c3.1,2.8,6.5,4.9,10.2,6.3
		c3.7,1.4,7.5,2,11.5,2C526,158.1,528.5,157.7,530.8,157L530.8,157z M574.9,157.3h36.4v-8.3H584v-43.8h-9.1V157.3L574.9,157.3z
		 M651.8,157.6c2-0.4,3.9-1,5.5-1.9c1.7-0.8,3.3-1.8,4.7-2.9c1.5-1.1,2.9-2.4,4.2-3.8l-5.9-6c-2.2,2.1-4.5,3.7-6.8,4.9
		c-2.3,1.2-5,1.8-8.2,1.8c-2.5,0-4.8-0.5-6.9-1.5c-2.1-1-3.9-2.3-5.5-4c-1.5-1.7-2.7-3.7-3.6-5.9c-0.8-2.3-1.3-4.6-1.3-7.2v-0.1
		c0-2.5,0.4-4.9,1.3-7.1c0.8-2.2,2-4.2,3.6-5.8c1.5-1.7,3.4-3,5.5-3.9c2.1-1,4.4-1.5,6.9-1.5c3,0,5.6,0.6,8,1.8
		c2.3,1.2,4.5,2.8,6.6,4.7l5.9-6.8c-1.2-1.2-2.6-2.3-3.9-3.3c-1.4-1-2.9-1.8-4.5-2.6c-1.6-0.7-3.4-1.3-5.4-1.7
		c-2-0.4-4.1-0.6-6.5-0.6c-4,0-7.6,0.7-10.9,2.1c-3.3,1.4-6.1,3.3-8.5,5.8c-2.4,2.5-4.3,5.3-5.6,8.6c-1.3,3.2-2,6.7-2,10.4v0.1
		c0,3.7,0.7,7.2,2,10.5c1.3,3.3,3.2,6.1,5.6,8.5c2.4,2.4,5.2,4.3,8.4,5.7c3.2,1.4,6.7,2.1,10.6,2.1
		C647.6,158.2,649.8,158,651.8,157.6L651.8,157.6z M684.9,131.1v-17.6h13.4c3.4,0,6.1,0.7,8,2.2c1.9,1.5,2.8,3.6,2.8,6.5v0.1
		c0,2.7-1,4.8-2.9,6.4c-1.9,1.6-4.6,2.4-7.8,2.4H684.9L684.9,131.1z M675.8,157.3h9.1v-18.1h11.3h0.1l12.8,18.1H720l-14.1-19.7
		c1.8-0.5,3.5-1.2,5-2.1c1.5-0.9,2.8-2,3.9-3.3c1.1-1.3,1.9-2.8,2.6-4.5c0.6-1.7,0.9-3.6,0.9-5.8v-0.1c0-2.3-0.4-4.4-1.1-6.2
		c-0.7-1.9-1.8-3.5-3.2-5c-1.7-1.6-3.8-2.9-6.3-3.8c-2.5-0.9-5.4-1.4-8.7-1.4h-23.2V157.3L675.8,157.3z"/>
	<path class="st0" d="M22.2,260.8h20.5v-56.1H65v-18H0v18h22.2V260.8L22.2,260.8z M75.5,260.8h60v-17.5H95.7v-11.8h35.6v-16.2H95.7
		v-11.2H135v-17.5H75.5V260.8L75.5,260.8z M194.3,261c3.3-0.8,6.2-2,8.9-3.5c2.6-1.5,5-3.2,7.1-5.3c2.1-2,4-4.3,5.8-6.7l-15.5-11
		c-1.1,1.3-2.3,2.6-3.4,3.7c-1.2,1.1-2.4,2-3.7,2.9c-1.3,0.8-2.8,1.4-4.3,1.9c-1.6,0.4-3.3,0.6-5.2,0.6c-2.6,0-5-0.5-7.1-1.5
		c-2.2-1-4-2.4-5.6-4.2c-1.6-1.8-2.8-3.9-3.7-6.3c-0.9-2.4-1.3-5-1.3-7.8v-0.2c0-2.7,0.4-5.2,1.3-7.6c0.9-2.4,2.1-4.5,3.7-6.2
		c1.6-1.8,3.4-3.2,5.6-4.2c2.2-1,4.5-1.5,7.1-1.5c3.6,0,6.7,0.8,9.2,2.3c2.5,1.6,4.9,3.7,7,6.4l15.5-12c-1.6-2.3-3.5-4.3-5.6-6.2
		c-2.1-1.9-4.4-3.5-7-4.9c-2.6-1.4-5.4-2.4-8.5-3.2c-3.1-0.7-6.6-1.1-10.4-1.1c-5.6,0-10.9,1-15.6,3c-4.8,2-8.9,4.7-12.3,8.2
		c-3.5,3.5-6.2,7.6-8.2,12.3c-2,4.7-3,9.7-3,15.1v0.2c0,5.5,1,10.6,3,15.3c2,4.7,4.7,8.8,8.2,12.2c3.4,3.4,7.5,6.1,12.1,8
		c4.7,1.9,9.6,2.9,14.9,2.9C187.4,262.3,191.1,261.9,194.3,261L194.3,261z M226.4,260.8h20.5v-28.2h26.4v28.2h20.5v-74.1h-20.5v27.7
		h-26.4v-27.7h-20.5V260.8L226.4,260.8z"/>
	<path class="st0" d="M7.3,169h8.4v-28.8h21.2L58.3,169h10.3l-22.8-30.3c11.6-2.1,20.1-9.3,20.1-21.6V117c0-5.8-2.1-11-5.7-14.6
		c-4.7-4.7-12-7.4-21.1-7.4H7.3V169L7.3,169z M15.7,132.7v-30.1h22.9c12,0,19,5.5,19,14.6v0.2c0,9.5-7.9,15.2-19.1,15.2H15.7
		L15.7,132.7z M83.9,169H138v-7.6H92.2v-25.9h40.4v-7.6H92.2v-25.3h45.2v-7.6H83.9V169L83.9,169z M189.2,170.3
		c12.5,0,22.9-5.2,29.8-11.3v-29.5h-30.6v7.5h22.6v18.4c-5.1,4.1-12.9,7.4-21.4,7.4c-18,0-29.3-13.1-29.3-30.8v-0.2
		c0-16.5,11.8-30.4,28.2-30.4c10.5,0,16.8,3.5,22.6,8.5l5.4-6.4c-7.4-6.2-15.1-9.8-27.6-9.8c-22.2,0-37.2,18-37.2,38.3v0.2
		C151.5,153.4,165.9,170.3,189.2,170.3L189.2,170.3z"/>
	<path class="st0" d="M33.8,58.6c-2.3-1.1-4.3-2.6-6-4.4c-1.7-1.8-3-4-3.9-6.4c-0.9-2.4-1.4-4.9-1.4-7.6V40c0-2.7,0.4-5.2,1.3-7.6
		c0.9-2.4,2.2-4.5,3.8-6.3c1.7-1.8,3.6-3.2,5.9-4.3c2.3-1.1,4.9-1.6,7.7-1.6c2.8,0,5.4,0.5,7.8,1.6c2.3,1.1,4.4,2.6,6.1,4.4
		c1.7,1.8,3,4,3.9,6.4c0.9,2.4,1.4,4.9,1.4,7.6v0.2c0,2.7-0.5,5.2-1.4,7.6c-0.9,2.4-2.2,4.5-3.8,6.3c-1.6,1.8-3.6,3.2-5.9,4.3
		c-2.3,1.1-4.9,1.6-7.8,1.6C38.7,60.2,36.1,59.7,33.8,58.6L33.8,58.6z M57.3,75.8c4.9-2,9.1-4.8,12.7-8.3c3.6-3.5,6.4-7.6,8.4-12.3
		c2-4.7,3-9.7,3-15V40c0-5.3-1-10.3-3-14.9c-2-4.7-4.8-8.7-8.3-12.2c-3.5-3.5-7.7-6.2-12.6-8.2c-4.9-2-10.2-3-15.9-3s-11,1-15.9,3
		c-4.9,2-9.1,4.8-12.7,8.3c-3.6,3.5-6.4,7.6-8.4,12.3c-2,4.7-3,9.7-3,15v0.2c0,5.3,1,10.3,3,14.9c2,4.7,4.8,8.7,8.3,12.2
		c3.5,3.5,7.7,6.2,12.6,8.2c4.9,2,10.2,3,15.9,3C47.1,78.8,52.4,77.8,57.3,75.8L57.3,75.8z M114.1,40V20.3h9.6
		c3.7,0,6.7,0.8,8.7,2.5c2.1,1.7,3.1,4.1,3.1,7.3v0.2c0,3-1,5.3-3.1,7.1c-2.1,1.7-5,2.6-8.6,2.6H114.1L114.1,40z M93.6,77.3h20.5
		V56.1h10.2c4.6,0,8.8-0.6,12.8-1.7c3.9-1.1,7.3-2.8,10.1-5.1c2.8-2.3,5-5,6.6-8.4c1.6-3.3,2.4-7.2,2.4-11.5v-0.2
		c0-4.1-0.7-7.8-2.2-11c-1.4-3.2-3.5-6-6.2-8.2c-2.7-2.2-5.9-3.9-9.7-5.1c-3.8-1.2-8-1.7-12.7-1.7H93.6V77.3L93.6,77.3z M166.3,77.3
		h60V59.8h-39.8V48.1h35.6V31.9h-35.6V20.6h39.3V3.2h-59.5V77.3L166.3,77.3z M238.4,77.3h20.2V36.6l31.7,40.7h18V3.2h-20.2v39.2
		L257.6,3.2h-19.2V77.3L238.4,77.3z"/>
</g>
</svg>
