<?xml version="1.0" encoding="UTF-8"?>
<svg id="Layer_1" xmlns="http://www.w3.org/2000/svg" version="1.1" viewBox="0 0 720 149.663">
  <!-- Generator: Adobe Illustrator 29.5.1, SVG Export Plug-In . SVG Version: 2.1.0 Build 141)  -->
  <defs>
    <style>
      .st0 {
        fill: #265ce3;
      }

      .st1 {
        fill: #ff3d29;
      }
    </style>
  </defs>
  <path class="st0" d="M11.2247,0h22.4494c6.1994,0,11.2248,5.0253,11.2248,11.2247v22.4494c0,6.1994-5.0254,11.2248-11.2248,11.2248H11.2247c-6.1992,0-11.2247-5.0254-11.2247-11.2248V11.2247C0,5.0253,5.0255,0,11.2247,0h0Z"/>
  <path class="st1" d="M11.2247,52.382h22.4494c6.1994,0,11.2248,5.0253,11.2248,11.2247v22.4493c0,6.199-5.0254,11.225-11.2248,11.225H11.2247c-6.1992,0-11.2247-5.026-11.2247-11.225v-22.4493c0-6.1994,5.0255-11.2247,11.2247-11.2247h0Z"/>
  <path class="st1" d="M11.2247,104.764h22.4494c6.1994,0,11.2248,5.025,11.2248,11.225v22.449c0,6.199-5.0254,11.225-11.2248,11.225H11.2247c-6.1992,0-11.2247-5.026-11.2247-11.225v-22.449c0-6.2,5.0255-11.225,11.2247-11.225h0Z"/>
  <path class="st0" d="M63.6067,0h22.4493c6.199,0,11.225,5.0253,11.225,11.2247v22.4494c0,6.1994-5.026,11.2248-11.225,11.2248h-22.4493c-6.1994,0-11.2247-5.0254-11.2247-11.2248V11.2247c0-6.1994,5.0253-11.2247,11.2247-11.2247h0Z"/>
  <path class="st1" d="M63.6067,52.382h22.4493c6.199,0,11.225,5.0253,11.225,11.2247v22.4493c0,6.199-5.026,11.225-11.225,11.225h-22.4493c-6.1994,0-11.2247-5.026-11.2247-11.225v-22.4493c0-6.1994,5.0253-11.2247,11.2247-11.2247h0Z"/>
  <path class="st1" d="M63.6067,104.764h22.4493c6.199,0,11.225,5.025,11.225,11.225v22.449c0,6.199-5.026,11.225-11.225,11.225h-22.4493c-6.1994,0-11.2247-5.026-11.2247-11.225v-22.449c0-6.2,5.0253-11.225,11.2247-11.225h0Z"/>
  <path class="st0" d="M115.989,0h22.449c6.2,0,11.225,5.0253,11.225,11.2247v22.4494c0,6.1994-5.025,11.2248-11.225,11.2248h-22.449c-6.2,0-11.225-5.0254-11.225-11.2248V11.2247c0-6.1994,5.025-11.2247,11.225-11.2247h0Z"/>
  <path class="st0" d="M115.989,52.382h22.449c6.2,0,11.225,5.0253,11.225,11.2247v22.4493c0,6.199-5.025,11.225-11.225,11.225h-22.449c-6.2,0-11.225-5.026-11.225-11.225v-22.4493c0-6.1994,5.025-11.2247,11.225-11.2247h0Z"/>
  <path class="st0" d="M115.989,104.764h22.449c6.2,0,11.225,5.025,11.225,11.225v22.449c0,6.199-5.025,11.225-11.225,11.225h-22.449c-6.2,0-11.225-5.026-11.225-11.225v-22.449c0-6.2,5.025-11.225,11.225-11.225h0Z"/>
  <path class="st0" d="M691.493,57.2745c-10.103-2.3567-12.907-3.7032-12.907-6.6233,0-2.8043,1.5699-4.8258,8.0809-4.8258,7.969,0,14.928,2.6962,21.884,7.4101l10.55-17.0616c-8.3051-5.8363-17.9571-9.0916-31.3121-9.0916-18.967,0-30.9749,9.9902-30.9749,24.8036,0,15.7151,9.0879,20.8761,28.0559,25.2541,10.55,2.469,13.358,4.263,13.358,7.183,0,3.703-2.469,5.05-10.215,5.05-7.294,0-17.285-3.927-23.0059-7.854l-10.55,17.058c8.193,5.389,20.425,9.539,33.108,9.539,18.856,0,32.435-7.406,32.435-25.363,0-14.705-8.753-20.7646-28.507-25.4785h0Z"/>
  <path class="st0" d="M366.99,47.7616c-16.845,0-27.311,11.8906-27.311,31.0334,0,19.0721,10.674,30.922,27.857,30.922,8.512,0,16.1219-2.133,23.951-6.708l.913-.534-8.604-14.33-.87.453c-5.454,2.83-9.494,3.931-14.405,3.931-4.826,0-7.695-2.389-8.541-7.107h33.448l.102-.93c.114-1.04.114-2.259.114-3.948,0-21.1407-9.466-32.7824-26.6541-32.7824h0ZM359.986,71.074c.783-4.484,2.903-6.667,6.457-6.667,4.429,0,6.427,1.712,7.495,6.667h-13.952Z"/>
  <path class="st0" d="M258.105,39.5019c-2.822-4.0513-6.549-7.342-11.081-9.7844-4.539-2.4386-10.129-3.6762-16.611-3.6762-6.443,0-12.029,1.2356-16.609,3.6742-4.561,2.4365-8.308,5.7294-11.134,9.7864-2.803,4.0206-4.879,8.5265-6.172,13.3954-1.284,4.8466-1.936,9.7947-1.936,14.7047s.652,9.86,1.936,14.708c1.293,4.865,3.369,9.371,6.172,13.392,2.826,4.057,6.571,7.348,11.134,9.786,4.58,2.438,10.166,3.674,16.609,3.674,6.482,0,12.072-1.236,16.613-3.678,4.532-2.443,8.259-5.733,11.079-9.782,2.797-4.013,4.863-8.519,6.141-13.396,1.266-4.848,1.906-9.795,1.906-14.704s-.64-9.854-1.906-14.7027c-1.278-4.8788-3.344-9.3867-6.141-13.3974h0ZM223.151,47.1641c1.92-1.3416,4.363-2.0227,7.262-2.0227,2.867,0,5.299.6565,7.226,1.9493,1.955,1.317,3.537,3.0765,4.699,5.2258,1.193,2.2121,2.062,4.675,2.582,7.3152.524,2.6853.791,5.3663.791,7.9703,0,2.45-.283,5.032-.844,7.674-.555,2.614-1.462,5.077-2.691,7.324-1.203,2.194-2.8,3.996-4.749,5.354-1.898,1.321-4.259,1.994-7.014,1.994-2.836,0-5.248-.657-7.168-1.945-1.962-1.321-3.563-3.095-4.759-5.269-1.23-2.226-2.127-4.685-2.663-7.311-.543-2.661-.818-5.293-.818-7.821,0-2.469.267-5.0649.794-7.7194.515-2.6219,1.392-5.0908,2.607-7.342,1.185-2.1959,2.781-4.0043,4.745-5.3765h0Z"/>
  <path class="st0" d="M319.298,50.9828c-3.704-2.5138-8.176-3.7883-13.289-3.7883-4.174,0-7.575,1.1684-10.148,3.4784v-2.1346h-18.876v82.5667l18.876-8.433v-16.862c.936.804,1.986,1.473,3.138,1.998,1.976.898,4.259,1.354,6.786,1.354,4.936,0,9.344-1.333,13.105-3.967,3.742-2.623,6.694-6.293,8.776-10.921,2.065-4.591,3.113-9.99,3.113-16.042,0-6.342-.987-11.884-2.936-16.4653-1.974-4.6446-4.848-8.2719-8.545-10.7839h0ZM311.903,78.232c0,4.049-.801,7.222-2.379,9.436-1.5229,2.137-3.625,3.177-6.425,3.177-1.872,0-3.554-.306-5.003-.905-1.179-.481-1.945-1.036-2.235-1.615v-20.281c.922-.856,1.907-1.486,2.93-1.872,1.167-.438,2.616-.66,4.308-.66,2.877,0,4.998,1.009,6.48,3.089,1.543,2.157,2.324,5.399,2.324,9.631h0Z"/>
  <path class="st0" d="M438.283,47.1945c-3.484,0-6.634.5834-9.358,1.7351-1.941.8176-3.705,1.9371-5.266,3.3417v-3.733h-18.876v59.2787h18.876v-30.477c0-4.225.709-7.308,2.108-9.165,1.357-1.793,3.511-2.663,6.585-2.663,2.902,0,4.859.819,5.986,2.504,1.204,1.792,1.813,5.005,1.813,9.548v30.253h18.876v-38.537c0-6.7346-1.884-12.1541-5.601-16.1056-3.735-3.9676-8.828-5.9799-15.143-5.9799h0Z"/>
  <path class="st0" d="M502.873,82.188h12.609c-.123,1.227-.58,2.365-1.383,3.462-.987,1.337-2.287,2.439-3.869,3.274-1.575.828-3.287,1.248-5.0859,1.248-2.732,0-5.085-.612-6.993-1.822-1.929-1.224-3.515-2.908-4.714-5.008-1.227-2.153-2.141-4.616-2.7159-7.311-.579-2.747-.8721-5.583-.8721-8.431,0-2.486.269-5.1117.795-7.8029.5181-2.6508,1.378-5.1319,2.5571-7.3788,1.142-2.1856,2.72-3.9902,4.6849-5.3665,1.912-1.3417,4.3551-2.0206,7.2581-2.0206,2.745,0,5.069.8995,7.108,2.7505,2.137,1.9412,4.045,4.2391,5.664,6.8305l.53.8459,17.2651-9.7601-.579-.9256c-1.973-3.146-4.281-6.1611-6.862-8.9626-2.635-2.867-5.856-5.2341-9.571-7.0342-3.7469-1.8147-8.31-2.7343-13.5549-2.7343-6.1121,0-11.499,1.2581-16.005,3.7414-4.481,2.4711-8.2291,5.7924-11.144,9.8762-2.887,4.0432-5.065,8.5553-6.476,13.41-1.4,4.832-2.1119,9.7213-2.1119,14.5311,0,5.184.701,10.298,2.084,15.195,1.39,4.934,3.5431,9.432,6.398,13.371,2.879,3.976,6.626,7.169,11.14,9.494,4.506,2.319,9.93,3.498,16.1151,3.498,5.718,0,10.941-1.256,15.5289-3.731,4.612-2.495,8.3181-6.202,11.014-11.014,2.687-4.791,4.0491-10.729,4.0491-17.636v-13.5793h-32.8631v18.9903h0Z"/>
  <path class="st0" d="M608.44,71.818c2.137-2.597,3.785-5.509,4.902-8.6529,1.1169-3.1275,1.684-6.2308,1.684-9.2197,0-4.7161-.889-9.1301-2.634-13.1181-1.774-4.0614-4.751-7.3583-8.845-9.797-4.0609-2.4201-9.587-3.6474-16.425-3.6474h-39.88v80.4381h19.768v-27.085h13.208l13.702,26.518.289.567h22.114l-14.819-30.437c2.675-1.345,5.0031-3.217,6.936-5.566h0ZM594.584,53.9454c0,1.4723-.232,2.8585-.689,4.1184-.436,1.1866-1.15,2.1124-2.186,2.8322-1.0361.7137-2.5031,1.0744-4.363,1.0744h-20.336v-15.8198h20.336c1.896,0,3.3801.3672,4.4041,1.0929,1.0479.7403,1.754,1.6555,2.165,2.8076.4449,1.2255.6689,2.5342.6689,3.8943h0Z"/>
  <polygon class="st0" points="625.52 107.817 645.2931 107.817 645.2931 27.3851 625.52 27.3851 625.52 107.817 625.52 107.817"/>
</svg>