<?xml version="1.0" encoding="utf-8"?>
<!-- Generator: Adobe Illustrator 24.1.0, SVG Export Plug-In . SVG Version: 6.00 Build 0)  -->
<svg version="1.1" id="Layer_1" xmlns="http://www.w3.org/2000/svg" xmlns:xlink="http://www.w3.org/1999/xlink" x="0px" y="0px"
	 viewBox="0 0 320.04 431.61" style="enable-background:new 0 0 320.04 431.61;" xml:space="preserve">
<style type="text/css">
	.st0{fill:#0091C7;}
	.st1{fill:#DDD631;}
	.st2{fill:#FFFFFF;}
	.st3{fill:#EFEBAE;}
</style>
<g>
	<path class="st0" d="M26.83,409.48v-14.31h10.89c2.8,0,4.97,0.6,6.51,1.8c1.54,1.2,2.31,2.95,2.31,5.27v0.12
		c0,2.19-0.79,3.93-2.37,5.21c-1.58,1.28-3.71,1.92-6.39,1.92H26.83L26.83,409.48z M19.43,430.89h7.4v-14.8h9.25h0.12l10.46,14.8
		h8.79l-11.46-16.07c1.49-0.4,2.86-0.98,4.09-1.73c1.23-0.75,2.3-1.66,3.18-2.73c0.89-1.07,1.59-2.3,2.09-3.7
		c0.51-1.4,0.76-2.96,0.76-4.7v-0.12c0-1.86-0.3-3.56-0.91-5.09c-0.61-1.54-1.48-2.89-2.61-4.06c-1.38-1.33-3.09-2.37-5.15-3.12
		c-2.06-0.75-4.43-1.12-7.1-1.12H19.43V430.89L19.43,430.89z M67.95,412.63c0.32-2.51,1.22-4.54,2.7-6.09
		c1.48-1.56,3.35-2.34,5.61-2.34c1.21,0,2.3,0.22,3.25,0.67c0.95,0.44,1.77,1.04,2.46,1.79c0.69,0.75,1.23,1.64,1.64,2.67
		c0.4,1.03,0.67,2.13,0.79,3.31H67.95L67.95,412.63z M84.71,429.98c2.12-1.09,3.95-2.55,5.49-4.37l-4.31-3.82
		c-1.29,1.25-2.61,2.2-3.94,2.85c-1.33,0.65-2.91,0.97-4.73,0.97c-2.39,0-4.42-0.7-6.1-2.09c-1.68-1.4-2.72-3.4-3.12-6.03h23.53
		c0.04-0.36,0.07-0.72,0.09-1.06c0.02-0.34,0.03-0.68,0.03-1c0-2.3-0.32-4.5-0.97-6.58c-0.65-2.08-1.61-3.91-2.88-5.49
		c-1.27-1.58-2.87-2.83-4.79-3.76c-1.92-0.93-4.15-1.39-6.7-1.39c-2.3,0-4.41,0.43-6.31,1.3c-1.9,0.87-3.55,2.06-4.94,3.58
		c-1.4,1.52-2.48,3.29-3.24,5.31c-0.77,2.02-1.15,4.19-1.15,6.49V415c0,2.47,0.42,4.72,1.27,6.76s2.01,3.79,3.49,5.24
		c1.48,1.46,3.21,2.59,5.22,3.4c2,0.81,4.15,1.21,6.46,1.21C80.05,431.61,82.59,431.07,84.71,429.98L84.71,429.98z M118.83,419.3
		c0,1.01-0.21,1.93-0.64,2.76c-0.42,0.83-1.02,1.54-1.79,2.12c-0.77,0.59-1.67,1.04-2.7,1.36c-1.03,0.32-2.15,0.49-3.37,0.49
		c-1.74,0-3.2-0.4-4.4-1.21c-1.19-0.81-1.79-1.98-1.79-3.52v-0.12c0-1.54,0.65-2.75,1.94-3.64c1.29-0.89,3.09-1.33,5.4-1.33
		c1.42,0,2.76,0.12,4.03,0.36c1.27,0.24,2.37,0.55,3.3,0.91V419.3L118.83,419.3z M125.92,430.89v-18.98c0-4.29-1.15-7.61-3.46-9.98
		c-2.3-2.37-5.84-3.55-10.61-3.55c-2.63,0-4.87,0.24-6.73,0.73c-1.86,0.48-3.68,1.13-5.46,1.94l2,5.88
		c1.45-0.61,2.89-1.09,4.31-1.46c1.41-0.36,3.03-0.54,4.85-0.54c2.55,0,4.5,0.59,5.85,1.76c1.35,1.17,2.03,2.87,2.03,5.09v0.61
		c-1.25-0.4-2.56-0.73-3.91-0.97c-1.36-0.24-3-0.36-4.94-0.36c-1.86,0-3.59,0.21-5.18,0.64c-1.6,0.42-2.97,1.07-4.12,1.94
		c-1.15,0.87-2.05,1.96-2.7,3.28c-0.65,1.31-0.97,2.86-0.97,4.64v0.12c0,1.62,0.31,3.04,0.94,4.27c0.63,1.23,1.45,2.26,2.49,3.09
		c1.03,0.83,2.23,1.46,3.61,1.88c1.37,0.42,2.83,0.64,4.37,0.64c2.43,0,4.49-0.45,6.19-1.33c1.7-0.89,3.09-1.98,4.18-3.27v3.94
		H125.92L125.92,430.89z M146.07,424.46c-1.11-0.48-2.09-1.17-2.93-2.06c-0.85-0.89-1.51-1.97-1.99-3.24
		c-0.48-1.27-0.73-2.68-0.73-4.21v-0.12c0-1.58,0.24-3,0.73-4.28c0.48-1.27,1.15-2.35,1.99-3.24c0.85-0.89,1.82-1.57,2.93-2.03
		c1.11-0.46,2.29-0.7,3.54-0.7c1.21,0,2.38,0.24,3.51,0.73c1.13,0.49,2.11,1.17,2.96,2.06c0.85,0.89,1.52,1.97,2.02,3.24
		c0.5,1.27,0.76,2.68,0.76,4.21v0.12c0,1.54-0.25,2.93-0.76,4.18c-0.5,1.25-1.18,2.33-2.02,3.25c-0.85,0.91-1.83,1.61-2.96,2.09
		c-1.13,0.48-2.3,0.73-3.51,0.73C148.35,425.19,147.18,424.94,146.07,424.46L146.07,424.46z M154.39,429.8
		c1.76-1.17,3.22-2.59,4.4-4.25l-0.06,5.34h7.4v-44.27h-7.4v17.22c-1.17-1.5-2.62-2.81-4.36-3.94c-1.73-1.13-3.91-1.7-6.53-1.7
		c-1.9,0-3.74,0.36-5.54,1.09c-1.8,0.73-3.38,1.8-4.75,3.21c-1.37,1.42-2.47,3.15-3.3,5.22c-0.83,2.06-1.24,4.43-1.24,7.1v0.12
		c0,2.67,0.42,5.03,1.27,7.1c0.85,2.06,1.96,3.8,3.34,5.22c1.37,1.42,2.95,2.49,4.73,3.21c1.78,0.73,3.62,1.09,5.52,1.09
		C150.46,431.55,152.64,430.97,154.39,429.8L154.39,429.8z M175.71,430.89h7.4v-32.02h-7.4V430.89L175.71,430.89z M175.41,393.95
		h7.95v-6.97h-7.95V393.95L175.41,393.95z M192.63,430.89h7.4v-18.03c0-2.5,0.66-4.45,1.98-5.84c1.32-1.39,3.05-2.09,5.17-2.09
		c2.16,0,3.84,0.67,5.02,2.03c1.18,1.35,1.77,3.28,1.77,5.78v18.15h7.4v-20.38c0-3.76-0.99-6.75-2.96-8.98
		c-1.98-2.22-4.78-3.33-8.41-3.33c-1.25,0-2.37,0.15-3.36,0.46c-0.99,0.31-1.89,0.72-2.72,1.25c-0.83,0.53-1.55,1.13-2.18,1.81
		c-0.63,0.67-1.2,1.4-1.72,2.17v-5.02h-7.4V430.89L192.63,430.89z M235.75,412.63c0.32-2.51,1.22-4.54,2.7-6.09
		c1.48-1.56,3.35-2.34,5.61-2.34c1.21,0,2.29,0.22,3.24,0.67c0.95,0.44,1.77,1.04,2.46,1.79c0.69,0.75,1.23,1.64,1.64,2.67
		c0.4,1.03,0.67,2.13,0.79,3.31H235.75L235.75,412.63z M252.52,429.98c2.12-1.09,3.95-2.55,5.49-4.37l-4.31-3.82
		c-1.29,1.25-2.61,2.2-3.94,2.85c-1.33,0.65-2.91,0.97-4.73,0.97c-2.39,0-4.42-0.7-6.1-2.09c-1.68-1.4-2.72-3.4-3.12-6.03h23.53
		c0.04-0.36,0.07-0.72,0.09-1.06c0.02-0.34,0.03-0.68,0.03-1c0-2.3-0.32-4.5-0.97-6.58c-0.65-2.08-1.61-3.91-2.88-5.49
		c-1.27-1.58-2.87-2.83-4.79-3.76c-1.92-0.93-4.15-1.39-6.7-1.39c-2.3,0-4.41,0.43-6.31,1.3c-1.9,0.87-3.55,2.06-4.94,3.58
		c-1.39,1.52-2.48,3.29-3.24,5.31c-0.77,2.02-1.15,4.19-1.15,6.49V415c0,2.47,0.42,4.72,1.27,6.76c0.85,2.04,2.01,3.79,3.49,5.24
		c1.48,1.46,3.21,2.59,5.22,3.4c2,0.81,4.15,1.21,6.46,1.21C247.86,431.61,250.39,431.07,252.52,429.98L252.52,429.98z
		 M282.51,430.86c1.45-0.42,2.72-1.05,3.79-1.88c1.07-0.83,1.91-1.86,2.52-3.12c0.61-1.25,0.91-2.72,0.91-4.42v-0.12
		c0-1.45-0.3-2.68-0.91-3.69c-0.61-1.01-1.39-1.87-2.33-2.57c-0.95-0.71-2.01-1.3-3.18-1.79c-1.17-0.48-2.35-0.91-3.52-1.27
		c-0.93-0.28-1.83-0.57-2.7-0.88c-0.87-0.3-1.64-0.63-2.3-0.97c-0.67-0.34-1.2-0.73-1.61-1.15c-0.4-0.42-0.61-0.92-0.61-1.48v-0.12
		c0-0.93,0.39-1.69,1.18-2.3c0.79-0.6,1.89-0.91,3.3-0.91c1.33,0,2.79,0.27,4.37,0.82c1.58,0.55,3.13,1.28,4.67,2.21l2.91-5.24
		c-1.7-1.14-3.58-2.04-5.64-2.7c-2.06-0.65-4.1-0.98-6.12-0.98c-1.58,0-3.06,0.22-4.46,0.67c-1.39,0.44-2.61,1.09-3.64,1.94
		c-1.03,0.85-1.84,1.88-2.43,3.09c-0.59,1.21-0.88,2.56-0.88,4.05v0.12c0,1.53,0.3,2.82,0.91,3.87c0.61,1.05,1.38,1.93,2.33,2.63
		c0.95,0.71,2.02,1.28,3.21,1.72c1.19,0.44,2.37,0.83,3.55,1.15c0.93,0.28,1.83,0.56,2.7,0.85c0.87,0.28,1.64,0.58,2.3,0.91
		c0.67,0.32,1.19,0.71,1.58,1.15c0.38,0.44,0.58,0.97,0.58,1.57v0.12c0,1.05-0.43,1.89-1.3,2.51c-0.87,0.63-2.09,0.94-3.67,0.94
		c-1.66,0-3.39-0.33-5.18-1c-1.8-0.67-3.57-1.65-5.31-2.94l-3.27,4.98c2.02,1.59,4.21,2.8,6.58,3.62c2.37,0.82,4.7,1.22,7,1.22
		C279.49,431.49,281.05,431.28,282.51,430.86L282.51,430.86z M312.83,430.86c1.46-0.42,2.72-1.05,3.79-1.88
		c1.07-0.83,1.91-1.86,2.52-3.12c0.61-1.25,0.91-2.72,0.91-4.42v-0.12c0-1.45-0.3-2.68-0.91-3.69c-0.61-1.01-1.38-1.87-2.34-2.57
		c-0.95-0.71-2.01-1.3-3.18-1.79c-1.17-0.48-2.35-0.91-3.52-1.27c-0.93-0.28-1.83-0.57-2.7-0.88c-0.87-0.3-1.64-0.63-2.3-0.97
		c-0.67-0.34-1.2-0.73-1.61-1.15c-0.4-0.42-0.61-0.92-0.61-1.48v-0.12c0-0.93,0.4-1.69,1.18-2.3c0.79-0.6,1.89-0.91,3.31-0.91
		c1.33,0,2.79,0.27,4.37,0.82c1.58,0.55,3.13,1.28,4.67,2.21l2.91-5.24c-1.7-1.14-3.58-2.04-5.64-2.7c-2.06-0.65-4.1-0.98-6.12-0.98
		c-1.58,0-3.06,0.22-4.46,0.67c-1.4,0.44-2.61,1.09-3.64,1.94s-1.84,1.88-2.43,3.09c-0.59,1.21-0.88,2.56-0.88,4.05v0.12
		c0,1.53,0.3,2.82,0.91,3.87c0.61,1.05,1.39,1.93,2.34,2.63c0.95,0.71,2.02,1.28,3.21,1.72c1.19,0.44,2.38,0.83,3.55,1.15
		c0.93,0.28,1.83,0.56,2.7,0.85c0.87,0.28,1.64,0.58,2.3,0.91c0.67,0.32,1.19,0.71,1.58,1.15c0.38,0.44,0.58,0.97,0.58,1.57v0.12
		c0,1.05-0.44,1.89-1.3,2.51c-0.87,0.63-2.09,0.94-3.67,0.94c-1.66,0-3.39-0.33-5.18-1c-1.8-0.67-3.57-1.65-5.31-2.94l-3.28,4.98
		c2.02,1.59,4.22,2.8,6.58,3.62c2.37,0.82,4.7,1.22,7,1.22C309.82,431.49,311.37,431.28,312.83,430.86L312.83,430.86z"/>
	<path class="st0" d="M40.47,357.87c1.86-0.57,3.45-1.39,4.77-2.49c1.32-1.09,2.36-2.43,3.1-4c0.74-1.58,1.11-3.36,1.11-5.34v-0.12
		c0-1.74-0.3-3.26-0.88-4.58c-0.59-1.31-1.45-2.47-2.58-3.46c-1.14-0.99-2.56-1.83-4.29-2.52c-1.72-0.69-3.7-1.31-5.93-1.88
		c-2.03-0.48-3.7-0.95-5.02-1.39c-1.32-0.44-2.35-0.92-3.1-1.43c-0.75-0.5-1.27-1.07-1.55-1.7c-0.29-0.63-0.43-1.34-0.43-2.15v-0.12
		c0-1.42,0.61-2.61,1.82-3.58c1.21-0.97,2.91-1.46,5.09-1.46c1.94,0,3.86,0.38,5.76,1.12c1.9,0.75,3.82,1.83,5.76,3.24l4-5.64
		c-2.18-1.74-4.52-3.06-7.01-3.97c-2.49-0.91-5.29-1.37-8.4-1.37c-2.1,0-4.04,0.3-5.82,0.91c-1.78,0.61-3.29,1.45-4.56,2.52
		c-1.26,1.07-2.26,2.37-2.98,3.88c-0.72,1.52-1.08,3.18-1.08,5v0.12c0,1.94,0.31,3.6,0.94,4.97c0.63,1.37,1.54,2.54,2.74,3.49
		c1.2,0.95,2.67,1.76,4.44,2.43c1.76,0.67,3.78,1.26,6.05,1.79c1.99,0.44,3.6,0.89,4.83,1.33c1.24,0.45,2.21,0.93,2.92,1.46
		c0.71,0.53,1.2,1.08,1.46,1.67c0.26,0.59,0.39,1.26,0.39,2.03v0.12c0,1.62-0.68,2.91-2.03,3.88c-1.35,0.97-3.18,1.45-5.49,1.45
		c-2.67,0-5.05-0.47-7.16-1.42c-2.1-0.95-4.18-2.31-6.25-4.09l-4.49,5.34c2.55,2.3,5.32,4.01,8.31,5.12
		c2.99,1.11,6.13,1.67,9.4,1.67C36.57,358.72,38.61,358.44,40.47,357.87L40.47,357.87z M68.85,351.65
		c-1.19-0.55-2.21-1.29-3.07-2.24c-0.86-0.95-1.54-2.04-2.02-3.27c-0.48-1.23-0.72-2.56-0.72-3.97v-0.12c0-1.37,0.22-2.69,0.66-3.94
		c0.44-1.25,1.08-2.34,1.93-3.24c0.84-0.91,1.86-1.64,3.04-2.18c1.18-0.54,2.5-0.82,3.95-0.82c1.45,0,2.76,0.27,3.95,0.82
		c1.18,0.55,2.21,1.28,3.07,2.21c0.86,0.93,1.54,2.02,2.02,3.27c0.48,1.25,0.72,2.59,0.72,4v0.12c0,1.37-0.22,2.68-0.66,3.91
		c-0.44,1.23-1.08,2.32-1.93,3.24c-0.84,0.93-1.86,1.67-3.04,2.21c-1.19,0.55-2.52,0.82-4.01,0.82
		C71.33,352.47,70.03,352.2,68.85,351.65L68.85,351.65z M79.47,357.51c2.1-0.89,3.91-2.09,5.43-3.61c1.52-1.52,2.71-3.28,3.58-5.31
		c0.87-2.02,1.3-4.16,1.3-6.43v-0.12c0-2.3-0.42-4.46-1.27-6.46c-0.85-2-2.03-3.76-3.55-5.28c-1.52-1.52-3.32-2.71-5.4-3.58
		c-2.08-0.87-4.36-1.3-6.82-1.3c-2.47,0-4.74,0.45-6.82,1.33c-2.08,0.89-3.88,2.09-5.4,3.61c-1.52,1.52-2.71,3.29-3.58,5.31
		c-0.87,2.02-1.3,4.18-1.3,6.49v0.12c0,2.26,0.42,4.41,1.27,6.43c0.85,2.02,2.03,3.78,3.55,5.28c1.52,1.5,3.32,2.68,5.4,3.55
		c2.08,0.87,4.34,1.3,6.76,1.3C75.08,358.84,77.37,358.4,79.47,357.51L79.47,357.51z M114.29,357.1c1.57-1.12,2.88-2.46,3.93-4.01
		v5.02h7.4v-32.02h-7.4v18.03c0,2.5-0.66,4.45-1.98,5.84c-1.32,1.39-3.05,2.09-5.17,2.09c-2.17,0-3.84-0.67-5.02-2.03
		c-1.18-1.35-1.77-3.28-1.77-5.78v-18.15h-7.4v20.38c0,3.76,0.99,6.75,2.96,8.98c1.98,2.22,4.78,3.34,8.41,3.34
		C110.7,358.78,112.72,358.22,114.29,357.1L114.29,357.1z M134.84,358.11h7.4v-12.19c0-2.1,0.26-3.95,0.79-5.55
		c0.52-1.6,1.27-2.92,2.24-3.97c0.97-1.05,2.12-1.84,3.46-2.36c1.33-0.53,2.81-0.79,4.43-0.79h0.42v-7.76
		c-2.83-0.12-5.18,0.55-7.04,2c-1.86,1.46-3.3,3.4-4.31,5.82v-7.22h-7.4V358.11L134.84,358.11z M182.44,357.17
		c2.02-1.11,3.82-2.56,5.4-4.34l-4.43-4.37c-1.17,1.17-2.42,2.13-3.73,2.88c-1.31,0.75-2.84,1.12-4.58,1.12
		c-1.42,0-2.71-0.27-3.88-0.82c-1.17-0.55-2.18-1.28-3.03-2.21s-1.51-2.02-1.97-3.27c-0.47-1.25-0.7-2.59-0.7-4v-0.12
		c0-1.37,0.23-2.69,0.7-3.94c0.46-1.25,1.1-2.34,1.91-3.24c0.81-0.91,1.78-1.64,2.91-2.18c1.13-0.54,2.37-0.82,3.7-0.82
		c1.86,0,3.43,0.37,4.7,1.12c1.27,0.75,2.48,1.71,3.61,2.88l4.55-4.91c-1.5-1.66-3.25-2.99-5.25-4c-2-1.01-4.52-1.52-7.55-1.52
		c-2.39,0-4.6,0.45-6.64,1.33c-2.04,0.89-3.81,2.09-5.3,3.61c-1.49,1.52-2.65,3.3-3.49,5.34c-0.83,2.04-1.25,4.19-1.25,6.46v0.12
		c0,2.26,0.42,4.41,1.25,6.43c0.84,2.02,2,3.78,3.49,5.28c1.49,1.5,3.24,2.68,5.27,3.55c2.02,0.87,4.23,1.3,6.61,1.3
		C177.85,358.84,180.42,358.28,182.44,357.17L182.44,357.17z M200.03,339.86c0.32-2.51,1.22-4.54,2.7-6.1
		c1.48-1.56,3.35-2.34,5.61-2.34c1.21,0,2.29,0.22,3.24,0.67c0.95,0.45,1.77,1.04,2.46,1.79c0.69,0.75,1.23,1.64,1.64,2.67
		c0.4,1.03,0.67,2.13,0.79,3.31H200.03L200.03,339.86z M216.8,357.2c2.12-1.09,3.95-2.55,5.49-4.37l-4.31-3.82
		c-1.29,1.25-2.61,2.2-3.94,2.85c-1.33,0.65-2.91,0.97-4.73,0.97c-2.39,0-4.42-0.7-6.1-2.09c-1.68-1.39-2.72-3.41-3.12-6.04h23.53
		c0.04-0.36,0.07-0.72,0.09-1.06c0.02-0.34,0.03-0.68,0.03-1c0-2.3-0.32-4.5-0.97-6.58c-0.65-2.08-1.61-3.91-2.88-5.49
		c-1.27-1.58-2.87-2.83-4.79-3.76c-1.92-0.93-4.15-1.39-6.7-1.39c-2.3,0-4.41,0.43-6.31,1.3c-1.9,0.87-3.55,2.06-4.94,3.58
		c-1.39,1.52-2.48,3.29-3.25,5.31c-0.77,2.02-1.15,4.18-1.15,6.49v0.12c0,2.47,0.42,4.72,1.27,6.76c0.85,2.04,2.01,3.79,3.49,5.25
		c1.48,1.45,3.22,2.59,5.22,3.4c2,0.81,4.15,1.21,6.46,1.21C212.14,358.84,214.68,358.3,216.8,357.2L216.8,357.2z"/>
	<path class="st0" d="M34.73,274.64c-1.34-0.63-2.48-1.46-3.44-2.52c-0.95-1.05-1.69-2.26-2.22-3.64c-0.53-1.37-0.79-2.83-0.79-4.37
		v-0.12c0-1.54,0.25-2.99,0.76-4.37c0.51-1.37,1.24-2.58,2.19-3.61c0.95-1.03,2.09-1.85,3.41-2.46c1.32-0.61,2.79-0.91,4.41-0.91
		c1.62,0,3.1,0.31,4.44,0.94c1.34,0.63,2.49,1.46,3.47,2.52c0.97,1.05,1.72,2.27,2.25,3.64c0.53,1.38,0.79,2.83,0.79,4.37v0.12
		c0,1.54-0.26,2.99-0.79,4.37c-0.53,1.37-1.26,2.58-2.19,3.61c-0.93,1.03-2.07,1.85-3.41,2.46c-1.34,0.61-2.82,0.91-4.44,0.91
		C37.55,275.58,36.07,275.26,34.73,274.64L34.73,274.64z M48.18,284.46c2.79-1.15,5.22-2.73,7.28-4.73c2.06-2,3.67-4.34,4.82-7.03
		c1.15-2.69,1.73-5.55,1.73-8.58v-0.12c0-3.03-0.58-5.88-1.73-8.55c-1.15-2.67-2.74-4.99-4.76-6.97c-2.02-1.98-4.43-3.55-7.22-4.7
		c-2.79-1.15-5.82-1.73-9.1-1.73c-3.28,0-6.31,0.58-9.1,1.73c-2.79,1.15-5.21,2.73-7.28,4.73c-2.06,2-3.67,4.35-4.82,7.04
		c-1.15,2.69-1.73,5.55-1.73,8.58v0.12c0,3.03,0.58,5.88,1.73,8.55c1.15,2.67,2.74,4.99,4.76,6.97c2.02,1.98,4.43,3.55,7.22,4.7
		c2.79,1.15,5.82,1.73,9.1,1.73C42.36,286.19,45.39,285.61,48.18,284.46L48.18,284.46z M82.85,275.88
		c-0.81-0.36-1.51-0.88-2.11-1.55c-0.6-0.67-1.08-1.46-1.42-2.36c-0.34-0.91-0.51-1.91-0.51-3v-0.12c0-1.09,0.17-2.08,0.51-2.97
		c0.34-0.89,0.82-1.67,1.42-2.33c0.6-0.67,1.31-1.18,2.11-1.55c0.8-0.36,1.67-0.55,2.6-0.55c1.89,0,3.48,0.69,4.77,2.06
		c1.29,1.37,1.93,3.15,1.93,5.34v0.12c0,2.22-0.64,4.02-1.93,5.4c-1.29,1.38-2.88,2.06-4.77,2.06
		C84.52,276.42,83.65,276.24,82.85,275.88L82.85,275.88z M67.46,295.04h11.58v-13.7c0.52,0.61,1.11,1.2,1.75,1.79
		c0.65,0.59,1.37,1.09,2.18,1.52c0.81,0.42,1.7,0.77,2.69,1.03c0.99,0.26,2.11,0.39,3.36,0.39c1.93,0,3.78-0.39,5.54-1.18
		c1.75-0.79,3.29-1.92,4.6-3.4c1.31-1.48,2.36-3.27,3.15-5.4c0.79-2.12,1.18-4.52,1.18-7.19v-0.12c0-2.63-0.39-4.99-1.18-7.09
		c-0.79-2.1-1.85-3.88-3.18-5.34c-1.33-1.46-2.87-2.58-4.63-3.37c-1.75-0.79-3.6-1.18-5.54-1.18c-1.21,0-2.31,0.14-3.3,0.42
		c-0.99,0.28-1.88,0.66-2.66,1.12c-0.79,0.46-1.5,1-2.15,1.61c-0.65,0.61-1.25,1.25-1.82,1.94v-4.37H67.46V295.04L67.46,295.04z
		 M118.04,266.24c0.32-1.82,0.97-3.26,1.94-4.34c0.97-1.07,2.22-1.61,3.76-1.61c1.58,0,2.87,0.54,3.88,1.61
		c1.01,1.07,1.62,2.52,1.82,4.34H118.04L118.04,266.24z M133.11,284.31c2.32-1.21,4.27-2.83,5.85-4.85l-6.37-5.28
		c-1.17,1.17-2.34,2.02-3.49,2.55c-1.15,0.53-2.42,0.79-3.79,0.79c-1.82,0-3.35-0.45-4.58-1.33c-1.23-0.89-2.07-2.24-2.52-4.06
		h21.95c0.04-0.4,0.06-0.81,0.06-1.21c0-0.4,0-0.79,0-1.15c0-2.43-0.33-4.72-1-6.88c-0.67-2.16-1.68-4.06-3.03-5.7
		c-1.35-1.64-3.07-2.94-5.15-3.91c-2.08-0.97-4.54-1.45-7.37-1.45c-2.43,0-4.65,0.45-6.67,1.33c-2.02,0.89-3.77,2.11-5.25,3.67
		c-1.48,1.56-2.62,3.38-3.43,5.46c-0.81,2.08-1.21,4.32-1.21,6.7v0.12c0,2.55,0.43,4.87,1.3,6.97c0.87,2.1,2.08,3.89,3.64,5.37
		c1.56,1.48,3.41,2.63,5.55,3.46c2.14,0.83,4.51,1.24,7.1,1.24C127.98,286.13,130.78,285.52,133.11,284.31L133.11,284.31z
		 M145.15,285.34h11.58v-17.77c0-1.82,0.45-3.19,1.35-4.12c0.9-0.93,2.05-1.39,3.44-1.39c1.36,0,2.45,0.47,3.29,1.39
		c0.84,0.93,1.26,2.3,1.26,4.12v17.77h11.58v-21.47c0-3.76-0.99-6.71-2.96-8.85c-1.97-2.14-4.73-3.21-8.26-3.21
		c-1.16,0-2.22,0.15-3.18,0.45c-0.96,0.3-1.84,0.7-2.64,1.18c-0.8,0.49-1.52,1.05-2.16,1.7c-0.64,0.65-1.22,1.31-1.74,2v-4.61
		h-11.58V285.34L145.15,285.34z"/>
	<path class="st1" d="M56.36,176.09c8.38-9.26,5.84-21.72,5.84-21.72l-0.44-0.44l-12.47-12.47l-12.47-12.47l-0.44-0.44
		c0,0-12.46-2.53-21.72,5.84c-9.26,8.38-4.85,16.31-12.57,20.5c-7.72,4.19,8.16,4.19,11.68,0.66c-13.67,11.9-9.26,25.13-13.1,34.52
		c9.13-4.98,21.48-0.57,34.52-13.1c-4.67,2.39-2.39,16.13,0.66,11.68C38.91,184.21,47.98,185.35,56.36,176.09"/>
	<path class="st2" d="M58.57,150.74l-9.29-9.29L40,132.17c0.07,0.01,0.1,0.02,0.1,0.02l0.32,0.32l8.91,8.91l8.91,8.91l0.32,0.32
		C58.56,150.65,58.56,150.68,58.57,150.74"/>
	<path class="st3" d="M14.59,176.15c2.72-6.65-0.35-16,9.11-24.45c-1.36,1.06-4.34,1.62-6.62,1.62c-2.65,0-4.36-0.75-1.48-2.31
		c5.51-2.99,2.36-8.66,8.98-14.65c4.12-3.73,9.13-4.43,12.32-4.43c1.62,0,2.77,0.18,3.1,0.24l9.29,9.29l9.29,9.29
		c0.17,0.98,1.43,9.21-4.19,15.42c-5.99,6.62-12.47,5.8-14.65,8.98c-0.3,0.44-0.59,0.63-0.86,0.63c-1.45,0-2.26-5.62-0.58-8.09
		C29.33,175.54,20.89,172.72,14.59,176.15"/>
	<path class="st0" d="M185.83,28.4l-8.06,6.53l5.54,6.4L185.83,28.4L185.83,28.4z M161.82,45.59l13.5-3.16
		c-2.46-4.18-5.33-8.18-8.64-11.95L161.82,45.59L161.82,45.59z M167.7,25.93l4.97-6.86l-7-0.55L167.7,25.93L167.7,25.93z
		 M146.95,28.03l15.68-10.52c-7.67-3.63-15.68-5.83-23.72-6.83L146.95,28.03L146.95,28.03z M139.82,7.33l5.79-6.17L132.49,0
		L139.82,7.33L139.82,7.33z M135.19,7.89c-6.93-3.06-14.21-5.08-21.61-6.03l4.38,10.32l18.29,1.6l0.05,0.11L135.19,7.89L135.19,7.89
		z M118.28,19.82l-6.15-13.06C90.61,5.44,68.66,12.99,52.2,29.45c-24.12,24.12-29.1,60.06-15.09,89.15l57.3-57.3L83.48,50.36
		l32.65-10.52l-6.41-12.82L118.28,19.82L118.28,19.82z M117.55,38.31l13.16-4.36l-6.77-12.33l-1.66,0.02l-2.87,0.03l-0.02-0.05
		l-5.43,5.98L117.55,38.31L117.55,38.31z M139.76,18.14h-10.75l4.86,14.57l8.5-2.74L139.76,18.14L139.76,18.14z M170.57,56.76
		l-3.43-9.14l0.15-0.15l-6.67,1.2l-3.05,9.47l8.02,4.53L170.57,56.76L170.57,56.76z M175.58,54.25l7.99,3.92
		c-0.54-4.03-1.39-8.04-2.58-11.99l-7.31-0.23L175.58,54.25L175.58,54.25z M130.87,97.75l-57.3,57.3
		c29.09,14.01,65.03,9.04,89.15-15.08c21.88-21.88,27.96-53.45,18.44-80.82l-10.12-0.84l-4.2,8.08l-9.56-5.67l-15.46,47.98
		L130.87,97.75L130.87,97.75z"/>
</g>
</svg>
