<?xml version="1.0" encoding="utf-8"?>
<!-- Generator: Adobe Illustrator 24.1.0, SVG Export Plug-In . SVG Version: 6.00 Build 0)  -->
<svg version="1.1" id="Layer_1" xmlns="http://www.w3.org/2000/svg" xmlns:xlink="http://www.w3.org/1999/xlink" x="0px" y="0px"
	 viewBox="0 0 371.21 539.8" style="enable-background:new 0 0 371.21 539.8;" xml:space="preserve">
<style type="text/css">
	.st0{fill:#0B1F41;}
	.st1{fill:#0586BF;}
	.st2{fill:#5297C9;}
	.st3{fill:#1670A0;}
	.st4{fill:#2089C1;}
	.st5{fill:#0880B7;}
	.st6{fill:#FFFFFF;}
	.st7{fill:#F05323;}
	.st8{fill:#F58220;}
</style>
<g>
	<path class="st0" d="M22.19,539.23h5.82v-14.08h16.04v14.08h5.82v-33.42h-5.82v13.89H28.02v-13.89h-5.82V539.23L22.19,539.23z
		 M75.04,525.96l5.73-13.37l5.78,13.37H75.04L75.04,525.96z M63.44,539.23h6.02l3.44-8.07h15.8l3.39,8.07h6.21l-14.7-33.66h-5.44
		L63.44,539.23L63.44,539.23z M111.85,539.23h5.82v-23.78l18.39,23.78h4.91v-33.42h-5.82v23.11l-17.87-23.11h-5.43V539.23
		L111.85,539.23z M163.21,533.93v-22.82h6.59c1.75,0,3.34,0.29,4.77,0.86c1.43,0.58,2.65,1.37,3.65,2.37c1,1.01,1.78,2.21,2.34,3.62
		c0.56,1.41,0.84,2.92,0.84,4.55v0.1c0,1.63-0.28,3.14-0.84,4.53c-0.56,1.39-1.34,2.59-2.34,3.6c-1,1.01-2.22,1.79-3.65,2.35
		c-1.43,0.56-3.02,0.84-4.77,0.84H163.21L163.21,533.93z M157.39,539.23h12.46c2.61,0,5-0.43,7.18-1.29
		c2.18-0.86,4.06-2.04,5.63-3.53c1.58-1.5,2.79-3.26,3.65-5.3c0.86-2.04,1.29-4.23,1.29-6.59v-0.1c0-2.36-0.43-4.54-1.29-6.56
		c-0.86-2.02-2.08-3.78-3.65-5.28c-1.58-1.5-3.45-2.67-5.63-3.51c-2.18-0.84-4.58-1.27-7.18-1.27h-12.46V539.23L157.39,539.23z
		 M208.38,534.03v-9.17h9.28c2.32,0,4.04,0.39,5.16,1.17c1.13,0.78,1.69,1.89,1.69,3.32v0.1c0,1.53-0.57,2.67-1.71,3.44
		c-1.14,0.76-2.71,1.15-4.71,1.15H208.38L208.38,534.03z M208.38,519.9v-8.88h8.42c1.9,0,3.35,0.38,4.35,1.12
		c1,0.75,1.5,1.79,1.5,3.13v0.1c0,1.53-0.57,2.67-1.71,3.41c-1.14,0.75-2.66,1.12-4.57,1.12H208.38L208.38,519.9z M202.55,539.23
		h15.44c1.84,0,3.53-0.2,5.05-0.6c1.52-0.4,2.83-0.98,3.91-1.74c1.08-0.76,1.91-1.72,2.5-2.86c0.59-1.15,0.88-2.47,0.88-3.96v-0.1
		c0-1.15-0.16-2.15-0.48-3.01c-0.32-0.86-0.77-1.61-1.35-2.24c-0.58-0.64-1.28-1.19-2.09-1.65c-0.81-0.46-1.7-0.87-2.68-1.22
		c0.6-0.32,1.19-0.7,1.77-1.15c0.58-0.44,1.09-0.96,1.52-1.55c0.43-0.59,0.77-1.27,1.04-2.05c0.27-0.78,0.4-1.68,0.4-2.7v-0.1
		c0-2.2-0.75-4.04-2.24-5.54c-1.97-1.97-4.88-2.96-8.72-2.96h-14.96V539.23L202.55,539.23z M256.32,533.45
		c-1.39-0.64-2.59-1.49-3.59-2.55c-1-1.07-1.77-2.32-2.33-3.77c-0.56-1.45-0.83-2.98-0.83-4.61v-0.1c0-1.62,0.28-3.15,0.83-4.58
		c0.55-1.43,1.32-2.68,2.3-3.75c0.98-1.06,2.16-1.91,3.54-2.53c1.38-0.62,2.89-0.93,4.54-0.93c1.65,0,3.17,0.32,4.56,0.96
		c1.39,0.64,2.59,1.49,3.59,2.55c1,1.07,1.77,2.32,2.33,3.77s0.83,2.98,0.83,4.61v0.09c0,1.62-0.28,3.15-0.83,4.58
		c-0.56,1.43-1.32,2.68-2.31,3.75c-0.98,1.07-2.16,1.91-3.54,2.53c-1.38,0.62-2.89,0.93-4.54,0.93
		C259.24,534.41,257.72,534.09,256.32,533.45L256.32,533.45z M267.86,538.42c2.13-0.92,3.98-2.17,5.54-3.75
		c1.56-1.58,2.77-3.41,3.63-5.49c0.86-2.08,1.29-4.3,1.29-6.66v-0.1c0-2.36-0.43-4.58-1.29-6.66c-0.86-2.08-2.05-3.91-3.58-5.47
		c-1.53-1.56-3.36-2.79-5.49-3.7c-2.13-0.91-4.49-1.36-7.07-1.36c-2.58,0-4.93,0.46-7.07,1.38c-2.13,0.92-3.98,2.17-5.54,3.75
		c-1.56,1.57-2.77,3.41-3.63,5.49c-0.86,2.09-1.29,4.3-1.29,6.66v0.09c0,2.36,0.43,4.58,1.29,6.66c0.86,2.09,2.05,3.91,3.58,5.47
		c1.53,1.56,3.36,2.79,5.49,3.7s4.49,1.36,7.07,1.36C263.37,539.8,265.73,539.34,267.86,538.42L267.86,538.42z M304.73,533.45
		c-1.4-0.64-2.59-1.49-3.59-2.55c-1-1.07-1.78-2.32-2.33-3.77c-0.56-1.45-0.83-2.98-0.83-4.61v-0.1c0-1.62,0.28-3.15,0.83-4.58
		c0.55-1.43,1.32-2.68,2.31-3.75c0.98-1.06,2.16-1.91,3.54-2.53c1.38-0.62,2.89-0.93,4.54-0.93c1.65,0,3.17,0.32,4.56,0.96
		c1.39,0.64,2.59,1.49,3.59,2.55c1,1.07,1.77,2.32,2.33,3.77c0.55,1.45,0.83,2.98,0.83,4.61v0.09c0,1.62-0.28,3.15-0.83,4.58
		c-0.55,1.43-1.32,2.68-2.3,3.75c-0.98,1.07-2.16,1.91-3.54,2.53c-1.38,0.62-2.89,0.93-4.54,0.93
		C307.65,534.41,306.13,534.09,304.73,533.45L304.73,533.45z M316.27,538.42c2.13-0.92,3.98-2.17,5.54-3.75
		c1.56-1.58,2.77-3.41,3.63-5.49c0.86-2.08,1.29-4.3,1.29-6.66v-0.1c0-2.36-0.43-4.58-1.29-6.66c-0.86-2.08-2.05-3.91-3.58-5.47
		c-1.53-1.56-3.36-2.79-5.49-3.7c-2.13-0.91-4.49-1.36-7.07-1.36c-2.58,0-4.93,0.46-7.07,1.38c-2.13,0.92-3.98,2.17-5.54,3.75
		c-1.56,1.57-2.77,3.41-3.63,5.49c-0.86,2.09-1.29,4.3-1.29,6.66v0.09c0,2.36,0.43,4.58,1.29,6.66c0.86,2.09,2.05,3.91,3.58,5.47
		c1.53,1.56,3.36,2.79,5.49,3.7c2.13,0.91,4.49,1.36,7.07,1.36C311.78,539.8,314.13,539.34,316.27,538.42L316.27,538.42z
		 M341.66,539.23h5.82v-9.69l5.2-5.35l11.41,15.04h7.11l-14.51-19.05l13.89-14.37h-7.21l-15.9,16.8v-16.8h-5.82V539.23
		L341.66,539.23z"/>
	<path class="st1" d="M52.23,466.3c-2.18-1.02-4.04-2.38-5.59-4.1c-1.55-1.71-2.76-3.69-3.61-5.92c-0.86-2.24-1.29-4.61-1.29-7.11
		v-0.2c0-2.5,0.41-4.87,1.24-7.11c0.82-2.24,2.01-4.2,3.56-5.87c1.55-1.68,3.4-3.01,5.54-4c2.14-0.99,4.54-1.48,7.18-1.48
		c2.64,0,5.05,0.51,7.23,1.53c2.18,1.02,4.06,2.39,5.64,4.1c1.58,1.71,2.8,3.69,3.66,5.92c0.86,2.24,1.29,4.61,1.29,7.11v0.2
		c0,2.5-0.43,4.87-1.29,7.11c-0.86,2.24-2.05,4.19-3.56,5.87c-1.52,1.68-3.36,3.01-5.54,4c-2.18,0.99-4.59,1.48-7.23,1.48
		C56.81,467.83,54.41,467.32,52.23,466.3L52.23,466.3z M74.11,482.29c4.54-1.88,8.49-4.44,11.85-7.7c3.36-3.26,5.97-7.07,7.85-11.45
		c1.88-4.38,2.81-9.03,2.81-13.97v-0.2c0-4.93-0.94-9.57-2.81-13.92c-1.88-4.34-4.46-8.13-7.75-11.35
		c-3.29-3.22-7.21-5.78-11.75-7.65c-4.54-1.88-9.48-2.81-14.81-2.81c-5.33,0-10.27,0.94-14.81,2.81c-4.54,1.88-8.49,4.44-11.85,7.7
		c-3.36,3.26-5.97,7.08-7.85,11.45c-1.88,4.38-2.81,9.03-2.81,13.97v0.2c0,4.94,0.94,9.58,2.81,13.92
		c1.88,4.34,4.46,8.13,7.75,11.35c3.29,3.23,7.21,5.77,11.75,7.65c4.54,1.88,9.48,2.81,14.81,2.81
		C64.64,485.1,69.57,484.17,74.11,482.29L74.11,482.29z M145.18,483.38c3.42-1.02,6.35-2.5,8.79-4.43c2.43-1.94,4.33-4.29,5.68-7.05
		c1.35-2.76,2.02-5.91,2.02-9.46v-0.2c0-3.22-0.59-5.99-1.78-8.33c-1.18-2.33-2.9-4.32-5.13-5.96c-2.24-1.64-4.95-3.04-8.14-4.19
		c-3.19-1.15-6.76-2.15-10.71-3c-2.37-0.52-4.33-1.03-5.87-1.53c-1.55-0.49-2.76-0.98-3.65-1.48c-0.89-0.49-1.51-1.03-1.88-1.63
		c-0.36-0.59-0.54-1.28-0.54-2.07v-0.2c0-1.25,0.57-2.3,1.73-3.15c1.15-0.85,2.88-1.28,5.18-1.28c3.09,0,6.3,0.58,9.62,1.73
		c3.32,1.15,6.56,2.85,9.72,5.08l9.57-13.57c-3.75-3.04-7.95-5.35-12.59-6.9c-4.64-1.56-9.92-2.33-15.84-2.33
		c-4.15,0-7.86,0.54-11.15,1.63c-3.29,1.08-6.11,2.61-8.44,4.58c-2.34,1.97-4.11,4.3-5.33,7c-1.22,2.69-1.83,5.65-1.83,8.87v0.2
		c0,3.55,0.67,6.52,2.02,8.92c1.35,2.4,3.19,4.4,5.53,6.01c2.34,1.61,5.08,2.92,8.24,3.94c3.16,1.02,6.58,1.96,10.27,2.81
		c2.37,0.53,4.29,1.04,5.77,1.53c1.48,0.49,2.67,1,3.55,1.53c0.89,0.53,1.5,1.07,1.83,1.62c0.33,0.56,0.49,1.2,0.49,1.92v0.2
		c0,1.51-0.68,2.68-2.02,3.5c-1.35,0.82-3.31,1.23-5.87,1.23c-8.03,0-15.5-2.76-22.41-8.29l-10.66,12.76
		c4.28,3.84,9.2,6.72,14.76,8.64c5.56,1.92,11.43,2.88,17.62,2.88C137.94,484.91,141.76,484.4,145.18,483.38L145.18,483.38z
		 M170.94,483.72h52.61v-16.78h-33.46v-52.32h-19.15V483.72L170.94,483.72z M275.33,483.92c3.06-0.79,5.82-1.88,8.29-3.26
		c2.47-1.38,4.67-3.03,6.61-4.93c1.94-1.91,3.73-3.98,5.38-6.22l-14.41-10.26c-1.05,1.25-2.12,2.39-3.21,3.4
		c-1.09,1.02-2.24,1.91-3.45,2.67c-1.22,0.76-2.57,1.33-4.05,1.73c-1.48,0.39-3.11,0.59-4.89,0.59c-2.43,0-4.66-0.48-6.66-1.43
		c-2.01-0.95-3.73-2.25-5.18-3.9c-1.45-1.64-2.58-3.6-3.4-5.87c-0.82-2.27-1.23-4.69-1.23-7.26v-0.2c0-2.5,0.41-4.87,1.23-7.11
		c0.82-2.24,1.96-4.18,3.4-5.82c1.45-1.64,3.17-2.94,5.18-3.9c2.01-0.95,4.23-1.43,6.66-1.43c3.36,0,6.22,0.72,8.59,2.17
		c2.37,1.45,4.54,3.42,6.51,5.92l14.41-11.15c-1.52-2.11-3.24-4.05-5.18-5.82c-1.94-1.78-4.11-3.31-6.51-4.59
		c-2.4-1.28-5.05-2.27-7.95-2.96c-2.9-0.69-6.12-1.04-9.67-1.04c-5.26,0-10.12,0.92-14.56,2.76c-4.44,1.84-8.28,4.39-11.5,7.65
		c-3.23,3.26-5.76,7.07-7.6,11.45c-1.84,4.38-2.76,9.06-2.76,14.07v0.2c0,5.13,0.94,9.89,2.81,14.26c1.88,4.38,4.41,8.16,7.6,11.35
		c3.19,3.19,6.96,5.67,11.3,7.45s8.98,2.67,13.92,2.67C268.83,485.1,272.27,484.71,275.33,483.92L275.33,483.92z"/>
	<path class="st0" d="M353.85,176.93C353.85,79.21,274.64,0,176.93,0C79.21,0,0,79.21,0,176.93c0,53.44,23.73,101.31,61.18,133.75
		c58.91-19.95,105.92-48.12,115.75-122.2c0,0,46.49,85.99-42.88,160.11c13.73,3.42,28.09,5.26,42.88,5.26
		C274.64,353.85,353.85,274.64,353.85,176.93"/>
	<path class="st2" d="M176.93,353.85L176.93,353.85C176.93,353.85,176.93,353.85,176.93,353.85
		C176.93,353.85,176.93,353.85,176.93,353.85 M177.05,353.85C177.05,353.85,177.06,353.85,177.05,353.85c0.01,0,0.01,0,0.02,0
		C177.07,353.85,177.06,353.85,177.05,353.85 M177.18,353.85C177.18,353.85,177.18,353.85,177.18,353.85c0.01,0,0.02,0,0.03,0
		C177.2,353.85,177.19,353.85,177.18,353.85 M177.3,353.85c0,0,0.01,0,0.02,0c0.02,0,0.02,0,0.04,0
		C177.33,353.85,177.31,353.85,177.3,353.85 M177.41,353.85c0.02,0,0.06,0,0.08,0C177.46,353.85,177.43,353.85,177.41,353.85
		 M177.56,353.85c0.02,0,0.05,0,0.07,0C177.6,353.85,177.58,353.85,177.56,353.85 M177.7,353.85c0.02,0,0.04,0,0.07,0
		C177.74,353.85,177.72,353.85,177.7,353.85 M177.85,353.85c0.02,0,0.03,0,0.06,0C177.88,353.85,177.87,353.85,177.85,353.85
		 M177.99,353.85c0.02,0,0.04,0,0.05,0C178.03,353.85,178.01,353.85,177.99,353.85 M178.13,353.85c0.01,0,0.03,0,0.04,0
		C178.16,353.85,178.15,353.85,178.13,353.85 M178.28,353.85c0.01,0,0.03,0,0.04,0C178.3,353.85,178.29,353.85,178.28,353.85
		 M178.42,353.85c0.01,0,0.02,0,0.03,0C178.44,353.85,178.43,353.85,178.42,353.85 M178.56,353.85c0.01,0,0.02,0,0.02,0
		C178.58,353.85,178.57,353.85,178.56,353.85 M178.71,353.84L178.71,353.84C178.71,353.84,178.71,353.84,178.71,353.84
		 M154.62,352.45c-6.46-0.82-12.82-1.99-19.05-3.48c5.79,1.39,11.7,2.5,17.7,3.3C153.72,352.33,154.17,352.39,154.62,352.45
		 M61.18,310.68c-0.29-0.25-0.58-0.5-0.87-0.75C60.6,310.17,60.89,310.43,61.18,310.68L61.18,310.68
		C61.18,310.68,61.18,310.68,61.18,310.68C61.18,310.68,61.18,310.68,61.18,310.68 M60.29,309.9c-0.02-0.02-0.05-0.04-0.07-0.06
		C60.24,309.86,60.27,309.88,60.29,309.9 M60.18,309.8c-0.02-0.01-0.03-0.03-0.05-0.04C60.15,309.77,60.17,309.79,60.18,309.8
		 M79.43,304.03c50.12-19.75,88.62-49.24,97.46-115.33C168.05,254.79,129.56,284.28,79.43,304.03"/>
	<path class="st3" d="M176.93,353.85c-7.56,0-15-0.48-22.31-1.41c-0.45-0.06-0.9-0.12-1.35-0.18
		C161.01,353.31,168.9,353.85,176.93,353.85C176.93,353.85,176.93,353.85,176.93,353.85 M177.06,353.85c0.01,0,0.03,0,0.04,0
		c-0.01,0-0.02,0-0.03,0C177.06,353.85,177.06,353.85,177.06,353.85 M177.19,353.85c0.02,0,0.03,0,0.05,0c-0.01,0-0.02,0-0.03,0
		C177.2,353.85,177.19,353.85,177.19,353.85 M177.31,353.85c0.02,0,0.04,0,0.05,0c-0.01,0-0.01,0-0.02,0
		C177.33,353.85,177.33,353.85,177.31,353.85 M177.4,353.85c18.93-0.05,37.14-3.11,54.22-8.66c46.85-92.63-49.34-161.1-54.68-161.22
		c37.24,0.01,100.02,32.13,121.22,121.75c-31.26,29.44-73.22,47.66-119.45,48.12h-0.01c-0.04,0-0.08,0-0.12,0c-0.01,0-0.02,0-0.02,0
		c-0.03,0-0.08,0-0.11,0c-0.01,0-0.02,0-0.03,0c-0.03,0-0.07,0-0.1,0c-0.01,0-0.03,0-0.04,0c-0.03,0-0.07,0-0.1,0
		c-0.01,0-0.03,0-0.04,0c-0.03,0-0.06,0-0.09,0c-0.02,0-0.04,0-0.05,0c-0.03,0-0.06,0-0.08,0c-0.02,0-0.04,0-0.06,0
		c-0.03,0-0.05,0-0.08,0c-0.02,0-0.04,0-0.07,0c-0.02,0-0.05,0-0.07,0c-0.02,0-0.05,0-0.07,0c-0.02,0-0.05,0-0.07,0
		C177.46,353.85,177.43,353.85,177.4,353.85C177.4,353.85,177.41,353.85,177.4,353.85 M61.18,310.68c-0.29-0.25-0.58-0.5-0.86-0.75
		c-0.01-0.01-0.01-0.01-0.02-0.02c-0.02-0.02-0.05-0.04-0.07-0.06c-0.01-0.01-0.02-0.02-0.04-0.03c-0.02-0.01-0.03-0.03-0.05-0.04
		C29.19,282.53,7.87,244.67,1.82,201.89C39.85,212.75,78.57,221,110.05,221c34.45,0,60.21-9.88,66.88-37.02l0,0
		c-12.75,74.2-99.56,84.99-144.75,94.55C40.52,290.38,50.24,301.2,61.18,310.68C61.18,310.68,61.18,310.68,61.18,310.68
		 M189.01,242.6c0-30.26-10.98-52-12.01-53.97C178.03,190.6,189.02,212.33,189.01,242.6"/>
	<path class="st2" d="M176.93,353.85L176.93,353.85L176.93,353.85c0.04,0,0.08,0,0.12,0C177.01,353.85,176.97,353.85,176.93,353.85
		 M177.1,353.85L177.1,353.85c0.03,0,0.05,0,0.08,0C177.15,353.85,177.12,353.85,177.1,353.85 M177.24,353.85c0,0,0.01,0,0.02,0
		c0.01,0,0.03,0,0.04,0C177.28,353.85,177.26,353.85,177.24,353.85 M177.37,353.85c0.01,0,0.02,0,0.02,0
		C177.39,353.85,177.38,353.85,177.37,353.85 M134.04,348.59L134.04,348.59C134.04,348.59,134.04,348.59,134.04,348.59
		C134.04,348.59,134.04,348.59,134.04,348.59 M61.18,310.68L61.18,310.68c6.23-2.11,12.32-4.31,18.25-6.65
		C73.5,306.37,67.41,308.57,61.18,310.68"/>
	<path class="st3" d="M177.1,353.85L177.1,353.85L177.1,353.85C177.1,353.85,177.1,353.85,177.1,353.85 M177.23,353.85
		c0.01,0,0.01,0,0.02,0C177.25,353.85,177.24,353.85,177.23,353.85C177.24,353.85,177.24,353.85,177.23,353.85 M177.37,353.85
		c0.01,0,0.03,0,0.04,0c0,0,0,0-0.01,0C177.39,353.85,177.38,353.85,177.37,353.85C177.37,353.85,177.37,353.85,177.37,353.85
		 M134.04,348.59L134.04,348.59c43.79-36.32,54.97-75.49,54.97-105.99C189.01,273.1,177.84,312.27,134.04,348.59 M176.94,183.97
		c-0.01,0-0.01,0-0.01,0c0,0,0,0,0,0C176.93,183.97,176.94,183.97,176.94,183.97"/>
	<path class="st4" d="M176.93,353.85L176.93,353.85L176.93,353.85c0.04,0,0.09,0,0.13,0c0,0,0,0-0.01,0
		C177.01,353.85,176.97,353.85,176.93,353.85 M177.1,353.85c0.03,0,0.06,0,0.09,0c0,0-0.01,0-0.01,0
		C177.15,353.85,177.13,353.85,177.1,353.85 M177.26,353.85c0.02,0,0.04,0,0.06,0c-0.01,0-0.01,0-0.02,0
		C177.28,353.85,177.27,353.85,177.26,353.85 M153.27,352.27c-6-0.81-11.9-1.92-17.7-3.3c-0.51-0.12-1.02-0.25-1.53-0.37l0,0l0,0
		C140.33,350.16,146.74,351.39,153.27,352.27 M61.18,310.68L61.18,310.68c58.91-19.95,105.92-48.12,115.75-122.2v0
		c-0.01,0.07-0.02,0.14-0.03,0.22c-8.84,66.1-47.34,95.59-97.46,115.33C73.5,306.37,67.41,308.57,61.18,310.68"/>
	<path class="st5" d="M176.93,353.85c-8.02,0-15.92-0.54-23.66-1.58c-6.53-0.88-12.94-2.11-19.23-3.68
		c43.79-36.32,54.97-75.49,54.97-105.99c0-30.26-10.98-52-12.01-53.97c-0.05-0.1-0.08-0.15-0.08-0.15l0,0c0,0,0,0,0,0
		c-9.83,74.08-56.84,102.25-115.75,122.2c-10.94-9.47-20.66-20.3-29.01-32.15c45.19-9.56,132-20.35,144.75-94.55c0,0,0.01,0,0.01,0
		c5.35,0.12,101.54,68.59,54.68,161.22c-17.09,5.55-35.3,8.61-54.22,8.66c-0.01,0-0.03,0-0.04,0c-0.02,0-0.04,0-0.05,0
		c-0.02,0-0.04,0-0.06,0c-0.01,0-0.02,0-0.02,0c-0.02,0-0.03,0-0.05,0c-0.03,0-0.06,0-0.09,0h-0.01c-0.01,0-0.03,0-0.04,0
		C177.02,353.85,176.97,353.85,176.93,353.85"/>
	<path class="st6" d="M207.5,86.08c0-23.9-30.54-66.53-30.54-66.53s-30.54,42.63-30.54,66.53c0,23.9,30.54,68.38,30.54,88.96
		C176.96,154.46,207.5,109.98,207.5,86.08L207.5,86.08z"/>
	<path class="st6" d="M190.24,148.85c9.05,4.18,22.91,12.76,22.91,26.19c12.85-23.08-2.89-46.15-10.07-54.82
		C198.89,129.84,194.13,139.73,190.24,148.85L190.24,148.85z"/>
	<path class="st6" d="M163.62,148.85c-9.04,4.18-22.91,12.76-22.91,26.19c-12.85-23.08,2.89-46.15,10.07-54.82
		C154.96,129.84,159.73,139.73,163.62,148.85L163.62,148.85z"/>
	<path class="st7" d="M196.61,185.48c0-10.9-4.57-20.29-11.18-24.71c-3.21,6.29-8.47,21.26-8.47,27.54c0-6.4-5.03-21.67-7.96-27.88
		c-6.88,4.26-11.69,13.86-11.69,25.05c0,15.14,15.93,44.82,19.65,44.82C180.68,230.3,196.61,200.62,196.61,185.48L196.61,185.48z"/>
	<path class="st8" d="M189.68,183.68c0-7.07-2.97-13.16-7.25-16.03c-2.08,4.08-5.5,13.79-5.5,17.87c0-4.15-3.26-14.06-5.16-18.09
		c-4.47,2.77-7.58,9-7.58,16.25c0,9.82,10.34,29.08,12.75,29.08C179.34,212.76,189.68,193.5,189.68,183.68L189.68,183.68z"/>
</g>
</svg>
