<?xml version="1.0" encoding="UTF-8"?>
<svg id="Layer_1" xmlns="http://www.w3.org/2000/svg" version="1.1" viewBox="0 0 719.9995 229.9085">
  <!-- Generator: Adobe Illustrator 29.5.1, SVG Export Plug-In . SVG Version: 2.1.0 Build 141)  -->
  <defs>
    <style>
      .st0 {
        fill: #0091c7;
      }

      .st1 {
        fill: #00bce7;
      }
    </style>
  </defs>
  <path class="st0" d="M315.1345,170.8986l4.631-11.301,4.63,11.301h-9.261ZM301.3935,185.4865h7.817l3.186-7.816h14.737l3.187,7.816h8.015l-14.936-35.1h-7.07l-14.9359,35.1h0ZM365.3195,185.6616c1.361-.282,2.614-.698,3.759-1.245,1.146-.548,2.199-1.203,3.162-1.967.962-.763,1.892-1.626,2.788-2.589l-4.879-4.929c-1.362,1.262-2.731,2.258-4.108,2.988-1.377.7299-3.062,1.095-5.053,1.095-1.494,0-2.863-.29-4.108-.871-1.244-.581-2.307-1.37-3.186-2.365-.88-.996-1.568-2.158-2.066-3.485-.498-1.328-.747-2.739-.747-4.232v-.1c0-1.494.249-2.895.747-4.207.498-1.311,1.195-2.464,2.091-3.46.896-.996,1.967-1.775,3.211-2.34,1.245-.564,2.597-.847,4.058-.847,1.7589,0,3.343.349,4.755,1.046,1.41.697,2.796,1.66,4.157,2.888l4.879-5.626c-.797-.797-1.66-1.527-2.589-2.191-.93-.664-1.942-1.228-3.037-1.693-1.095-.464-2.315-.829-3.659-1.095-1.345-.265-2.83-.398-4.456-.398-2.689,0-5.146.472-7.369,1.418-2.224.946-4.132,2.241-5.725,3.884-1.594,1.643-2.838,3.552-3.734,5.725-.897,2.175-1.345,4.506-1.345,6.996v.099c0,2.49.448,4.83,1.345,7.02.896,2.191,2.14,4.091,3.734,5.701,1.593,1.61,3.485,2.88,5.675,3.809,2.191.928,4.564,1.394,7.12,1.394,1.693,0,3.219-.142,4.58-.423h0ZM402.7595,185.6616c1.36-.282,2.614-.698,3.759-1.245,1.145-.548,2.198-1.203,3.161-1.967.963-.763,1.892-1.626,2.788-2.589l-4.879-4.929c-1.361,1.262-2.7299,2.258-4.107,2.988-1.378.7299-3.062,1.095-5.054,1.095-1.493,0-2.862-.29-4.107-.871-1.2451-.581-2.307-1.37-3.187-2.365-.879-.996-1.568-2.158-2.066-3.485-.498-1.328-.747-2.739-.747-4.232v-.1c0-1.494.249-2.895.747-4.207.498-1.311,1.195-2.464,2.091-3.46.897-.996,1.967-1.775,3.212-2.34,1.244-.564,2.596-.847,4.057-.847,1.759,0,3.344.349,4.755,1.046,1.41.697,2.796,1.66,4.157,2.888l4.879-5.626c-.796-.797-1.66-1.527-2.588-2.191-.93-.664-1.942-1.228-3.037-1.693-1.096-.464-2.316-.829-3.66-1.095-1.344-.265-2.83-.398-4.456-.398-2.688,0-5.145.472-7.368,1.418-2.225.946-4.133,2.241-5.726,3.884-1.593,1.643-2.838,3.552-3.734,5.725-.896,2.175-1.344,4.506-1.344,6.996v.099c0,2.49.448,4.83,1.344,7.02.896,2.191,2.141,4.091,3.734,5.701,1.593,1.61,3.485,2.88,5.676,3.809,2.19.928,4.563,1.394,7.119,1.394,1.693,0,3.2191-.142,4.581-.423h0ZM419.2885,185.4865h26.486v-6.821h-18.919v-7.318h16.43v-6.821h-16.43v-7.07h18.671v-6.821h-26.238v34.851h0ZM453.3425,185.4865h25.043v-6.92h-17.3759v-27.931h-7.667v34.851h0ZM484.8565,185.4865h26.487v-6.821h-18.9189v-7.318h16.4299v-6.821h-16.4299v-7.07h18.6699v-6.821h-26.238v34.851h0ZM526.5785,167.5635v-10.008h7.6169c1.892,0,3.369.416,4.431,1.245,1.062.83,1.594,2.075,1.594,3.734v.1c0,1.493-.507,2.688-1.5189,3.584-1.0131.897-2.4641,1.345-4.356,1.345h-7.767ZM518.9115,185.4865h7.667v-11.1519h6.024l7.468,11.1519h8.962l-8.514-12.447c2.224-.829,4.0251-2.132,5.402-3.908,1.377-1.775,2.066-4.074,2.066-6.896v-.099c0-3.319-.9949-5.975-2.987-7.966-2.357-2.356-5.742-3.535-10.156-3.535h-15.9319v34.851h0ZM566.3575,170.8986l4.631-11.301,4.6301,11.301h-9.2611ZM552.6165,185.4865h7.817l3.186-7.816h14.7371l3.186,7.816h8.0159l-14.936-35.1h-7.0701l-14.9359,35.1h0ZM603.7475,185.4865h7.667v-27.781h10.605v-7.07h-28.877v7.07h10.6049v27.781h0ZM628.9395,185.4865h7.667v-34.851h-7.667v34.851h0ZM658.7865,178.1435c-1.278-.581-2.39-1.37-3.336-2.365-.946-.996-1.676-2.158-2.19-3.485-.515-1.328-.772-2.739-.772-4.232v-.1c0-1.494.257-2.895.772-4.207.514-1.311,1.2271-2.464,2.141-3.46.912-.996,2.0071-1.775,3.286-2.34,1.2771-.564,2.696-.847,4.256-.847,1.5271,0,2.9381.291,4.2321.872,1.295.581,2.415,1.369,3.361,2.365.946.995,1.676,2.158,2.191,3.485.514,1.328.771,2.738.771,4.232v.099c0,1.494-.257,2.896-.771,4.207-.515,1.312-1.229,2.465-2.141,3.46-.9141.996-2.017,1.776-3.311,2.34-1.2949.565-2.706.847-4.2319.847-1.561,0-2.98-.29-4.2571-.871h0ZM670.3875,184.6655c2.273-.946,4.232-2.241,5.874-3.884,1.644-1.643,2.929-3.551,3.8589-5.725.9291-2.174,1.394-4.506,1.394-6.995v-.1c0-2.489-.457-4.821-1.369-6.995-.913-2.174-2.1909-4.066-3.834-5.676-1.6429-1.609-3.593-2.888-5.85-3.834-2.257-.946-4.73-1.418-7.418-1.418s-5.17.472-7.443,1.418c-2.274.946-4.2321,2.241-5.875,3.884-1.6431,1.643-2.9301,3.552-3.8591,5.725-.929,2.175-1.394,4.506-1.394,6.996v.099c0,2.49.456,4.822,1.369,6.995.913,2.175,2.191,4.067,3.834,5.676,1.6429,1.61,3.592,2.888,5.85,3.834,2.257.946,4.73,1.419,7.418,1.419s5.17-.473,7.444-1.419h0ZM689.0315,185.4865h7.568v-22.155l16.8781,22.155h6.522v-34.851h-7.568v21.4579l-16.33-21.4579h-7.07v34.851h0Z"/>
  <path class="st1" d="M312.4965,132.3806h7.667v-27.782h10.605v-7.07h-28.877v7.07h10.605v27.782h0ZM348.0935,117.7925l4.63-11.302,4.631,11.302h-9.261ZM334.3525,132.3806h7.816l3.187-7.817h14.737l3.186,7.817h8.0161l-14.936-35.101h-7.07l-14.936,35.101h0ZM377.3675,132.3806h25.044v-6.921h-17.376v-27.931h-7.668v34.852h0ZM408.8825,132.3806h26.487v-6.821h-18.919v-7.319h16.43v-6.821h-16.43v-7.07h18.67v-6.821h-26.238v34.852h0ZM442.9365,132.3806h7.568v-22.156l16.878,22.156h6.522v-34.852h-7.568v21.459l-16.33-21.459h-7.07v34.852h0ZM491.0805,132.3806h7.667v-27.782h10.605v-7.07h-28.877v7.07h10.6049v27.782h0Z"/>
  <path class="st0" d="M317.1515,71.9295c-1.278-.58-2.39-1.369-3.336-2.365-.946-.996-1.677-2.157-2.191-3.485-.515-1.327-.771-2.7382-.771-4.2319v-.0995c0-1.4937.256-2.8955.771-4.2071.514-1.3108,1.228-2.4645,2.141-3.4602.913-.9958,2.008-1.7753,3.286-2.34,1.277-.564,2.696-.8464,4.257-.8464,1.526,0,2.937.2909,4.232.8713,1.294.5811,2.415,1.3691,3.361,2.3649.946.9957,1.675,2.158,2.19,3.4851.514,1.3279.772,2.7383.772,4.2319v.0996c0,1.4936-.2581,2.8963-.772,4.2073-.515,1.311-1.228,2.464-2.141,3.46-.913.996-2.016,1.776-3.3109,2.34-1.294.565-2.705.846-4.231.846-1.561,0-2.98-.29-4.257-.871h0ZM328.7515,78.4515c2.273-.946,4.232-2.24,5.875-3.883,1.6429-1.643,2.929-3.551,3.859-5.726.929-2.173,1.394-4.505,1.394-6.9949v-.0995c0-2.4894-.457-4.8209-1.369-6.9952-.914-2.1735-2.191-4.0655-3.834-5.6758-1.643-1.6095-3.593-2.8876-5.85-3.8336-2.258-.946-4.73-1.419-7.418-1.419s-5.171.473-7.444,1.419c-2.274.946-4.232,2.2404-5.875,3.8834-1.643,1.643-2.929,3.5521-3.858,5.7256-.93,2.1743-1.394,4.5058-1.394,6.9951v.0996c0,2.4893.456,4.8213,1.369,6.9953.912,2.174,2.191,4.066,3.834,5.676,1.643,1.61,3.592,2.887,5.85,3.833,2.256.946,4.729,1.419,7.418,1.419s5.169-.473,7.4431-1.419h0ZM355.0635,61.997v-10.6545h5.925c1.924,0,3.443.4481,4.555,1.3442,1.112.8962,1.668,2.2078,1.668,3.9332v.0996c0,1.4936-.531,2.7469-1.593,3.759-1.063,1.0128-2.556,1.5185-4.481,1.5185h-6.074ZM347.3965,79.2735h7.667v-10.456h5.825c1.958,0,3.792-.256,5.502-.771,1.709-.515,3.202-1.286,4.481-2.315,1.277-1.029,2.281-2.307,3.012-3.8341.729-1.5263,1.095-3.3023,1.095-5.3272v-.0996c0-1.7924-.307-3.4268-.921-4.9041-.615-1.4765-1.494-2.7461-2.639-3.8087-1.145-1.0619-2.539-1.8834-4.182-2.4645-1.643-.5804-3.51-.8713-5.601-.8713h-14.239v34.8515h0ZM381.3505,79.2735h26.487v-6.821h-18.919v-7.319h16.43v-6.8208h-16.43v-7.0698h18.671v-6.8209h-26.239v34.8515h0ZM415.4055,79.2735h7.567v-22.1557l16.878,22.1557h6.523v-34.8515h-7.568v21.4585l-16.33-21.4585h-7.07v34.8515h0ZM487.9865,79.0495c1.554-.481,2.892-1.178,4.014-2.091,1.1211-.913,1.995-2.042,2.622-3.386.626-1.344.939-2.879.939-4.605v-.1c0-1.526-.242-2.838-.724-3.933-.482-1.0954-1.198-2.0491-2.146-2.8628-.949-.813-2.114-1.51-3.495-2.0911-1.381-.5803-2.953-1.1031-4.717-1.5683-1.498-.3983-2.738-.7468-3.719-1.0455-.9819-.2988-1.756-.6138-2.322-.946-.566-.3314-.957-.7048-1.173-1.1202-.2159-.4147-.324-.904-.324-1.4688v-.0995c0-.8628.373-1.5847,1.1201-2.1658.747-.5803,1.8669-.8713,3.3609-.8713,1.493,0,2.987.3073,4.481.9211,1.493.6146,3.019,1.4524,4.58,2.5143l3.983-5.7754c-1.7921-1.4267-3.759-2.522-5.9-3.286-2.141-.7631-4.489-1.1451-7.045-1.1451-1.7921,0-3.433.249-4.92.7468-1.488.4979-2.7679,1.212-3.84,2.1409-1.072.9296-1.904,2.0335-2.498,3.3109-.594,1.2781-.89,2.7134-.89,4.3066v.0996c0,1.7262.275,3.17.824,4.3315.549,1.1622,1.322,2.1331,2.321,2.9126.998.7802,2.213,1.436,3.644,1.9666,1.431.5309,3.029,1.0129,4.793,1.4439,1.4641.366,2.653.714,3.569,1.045.915.333,1.631.665,2.146.996.516.332.865.689,1.049,1.071.1831.382.2751.821.2751,1.319v.1c0,1.029-.441,1.834-1.3201,2.414-.8799.581-2.116.872-3.709.872-1.991,0-3.8259-.382-5.501-1.146-1.677-.763-3.311-1.792-4.904-3.086l-4.531,5.426c2.091,1.892,4.414,3.295,6.97,4.208,2.556.912,5.1611,1.369,7.817,1.369,1.892,0,3.6151-.241,5.17-.722h0ZM515.7005,71.9295c-1.2781-.58-2.3901-1.369-3.3361-2.365-.946-.996-1.676-2.157-2.19-3.485-.515-1.327-.772-2.7382-.772-4.2319v-.0995c0-1.4937.257-2.8955.772-4.2071.514-1.3108,1.227-2.4645,2.14-3.4602.913-.9958,2.008-1.7753,3.286-2.34,1.278-.564,2.697-.8464,4.257-.8464,1.527,0,2.938.2909,4.2321.8713,1.295.5811,2.415,1.3691,3.361,2.3649.9459.9957,1.676,2.158,2.191,3.4851.5139,1.3279.7709,2.7383.7709,4.2319v.0996c0,1.4936-.257,2.8963-.7709,4.2073-.5151,1.311-1.229,2.464-2.1411,3.46-.914.996-2.017,1.776-3.3109,2.34-1.295.565-2.7061.846-4.2321.846-1.561,0-2.98-.29-4.257-.871h0ZM527.3015,78.4515c2.2731-.946,4.2311-2.24,5.874-3.883,1.6429-1.643,2.929-3.551,3.859-5.726.929-2.173,1.394-4.505,1.394-6.9949v-.0995c0-2.4894-.457-4.8209-1.369-6.9952-.9131-2.1735-2.191-4.0655-3.834-5.6758-1.643-1.6095-3.593-2.8876-5.85-3.8336-2.257-.946-4.73-1.419-7.418-1.419s-5.17.473-7.4429,1.419c-2.274.946-4.232,2.2404-5.8751,3.8834-1.643,1.643-2.9299,3.5521-3.859,5.7256-.929,2.1743-1.3939,4.5058-1.3939,6.9951v.0996c0,2.4893.4559,4.8213,1.3689,6.9953.9131,2.174,2.191,4.066,3.8341,5.676,1.6429,1.61,3.5919,2.887,5.8499,3.833,2.257.946,4.73,1.419,7.418,1.419s5.1701-.473,7.444-1.419h0ZM566.8065,78.8505c1.892-.648,3.5021-1.626,4.83-2.938,1.327-1.311,2.347-2.945,3.061-4.904.714-1.958,1.071-4.265,1.071-6.92v-19.6665h-7.667v19.9645c0,2.788-.665,4.879-1.992,6.274-1.328,1.394-3.17,2.091-5.5259,2.091s-4.2001-.722-5.527-2.166c-1.3281-1.444-1.9911-3.593-1.9911-6.448v-19.7155h-7.6679v19.9155c0,5.145,1.345,9.011,4.033,11.6,2.689,2.589,6.373,3.883,11.053,3.883,2.323,0,4.431-.323,6.323-.97h0ZM591.9485,61.3498v-10.0073h7.618c1.892,0,3.368.4154,4.431,1.2447,1.062.83,1.593,2.0747,1.593,3.734v.0996c0,1.4936-.506,2.6885-1.518,3.5847-1.0129.8962-2.465,1.3443-4.3569,1.3443h-7.7671ZM584.2815,79.2735h7.667v-11.153h6.0251l7.468,11.153h8.961l-8.513-12.447c2.223-.829,4.024-2.132,5.402-3.9084,1.377-1.7753,2.066-4.074,2.066-6.8956v-.0996c0-3.3186-.996-5.9745-2.9871-7.966-2.357-2.3563-5.743-3.5349-10.157-3.5349h-15.932v34.8515h0ZM641.8845,79.4475c1.361-.282,2.614-.697,3.759-1.245,1.1451-.547,2.199-1.202,3.162-1.966.962-.763,1.892-1.626,2.788-2.589l-4.879-4.929c-1.362,1.262-2.731,2.257-4.108,2.987-1.3771.731-3.062,1.095-5.053,1.095-1.494,0-2.863-.29-4.108-.871-1.244-.58-2.307-1.369-3.186-2.365-.88-.996-1.568-2.157-2.066-3.485-.4979-1.327-.7469-2.7382-.7469-4.2319v-.0995c0-1.4937.249-2.8955.7469-4.2071.498-1.3108,1.195-2.4645,2.091-3.4602.8961-.9958,1.966-1.7753,3.211-2.34,1.2451-.564,2.597-.8464,4.058-.8464,1.759,0,3.343.3485,4.7551,1.0455,1.4099.697,2.7959,1.6601,4.1569,2.8877l4.879-5.626c-.797-.7966-1.6599-1.5263-2.589-2.1907-.9299-.6635-1.9419-1.2275-3.037-1.6927-1.095-.4645-2.315-.8293-3.6589-1.0954-1.345-.2652-2.8301-.3983-4.4561-.3983-2.689,0-5.146.473-7.369,1.419-2.224.946-4.132,2.2404-5.725,3.8834-1.594,1.643-2.838,3.5521-3.735,5.7256-.896,2.1743-1.344,4.5058-1.344,6.9951v.0996c0,2.4893.448,4.8293,1.344,7.0203.897,2.19,2.141,4.091,3.735,5.7,1.593,1.611,3.485,2.88,5.675,3.809,2.1909.929,4.564,1.394,7.1199,1.394,1.693,0,3.2191-.141,4.58-.423h0ZM658.4135,79.2735h26.4869v-6.821h-18.919v-7.319h16.43v-6.8208h-16.43v-7.0698h18.67v-6.8209h-26.2379v34.8515h0Z"/>
  <path class="st0" d="M206.1385,45.6352c6.216,6.9034,21.368,3.3936,33.844-7.8393,12.475-11.2329,18.162-34.6765,16.018-37.0571-2.143-2.3807-26.053.8247-38.528,12.0576-12.475,11.2329-17.55,25.9353-11.334,32.8388h0Z"/>
  <path class="st0" d="M200.6285,50.5958c2.624,2.9136.482,9.1188-4.783,13.8597-5.265,4.741-15.357,6.094-16.261,5.089-.905-1.005,1.495-10.8991,6.761-15.6401,5.265-4.741,11.66-6.2223,14.283-3.3086h0Z"/>
  <path class="st0" d="M205.3065,71.1305c2.365-.847,4.61-2.15,6.592-3.935,8.159-7.3452,8.817-19.9135,1.472-28.0716-7.346-8.1582-19.914-8.8169-28.073-1.4713-1.982,1.7849-3.512,3.8814-4.602,6.1448,7.368-2.6391,15.919-.7701,21.48,5.406,5.561,6.1759,6.526,14.8761,3.131,21.9271h0Z"/>
  <path class="st0" d="M124.9355,116.6885L160.5865,4.4736h-88.711L.0688,229.6875l-.0688.221h88.6795c3.099-48.845,18.169-85.822,36.256-113.22h0Z"/>
  <path class="st1" d="M232.5585,229.9085l-.0699-.221-49.44-155.063c-17.986,24.442-43.586,73.74-40.093,153.274l.638,2.01h88.965ZM178.8275,61.3813l-18.145-56.9077h-88.711l41.722,131.3209c19.755-38.227,46.708-61.718,65.134-74.4132h0Z"/>
</svg>