<?xml version="1.0" encoding="utf-8"?>
<!-- Generator: Adobe Illustrator 24.1.0, SVG Export Plug-In . SVG Version: 6.00 Build 0)  -->
<svg version="1.1" id="Layer_1" xmlns="http://www.w3.org/2000/svg" xmlns:xlink="http://www.w3.org/1999/xlink" x="0px" y="0px"
	 viewBox="0 0 746.91 529.54" style="enable-background:new 0 0 746.91 529.54;" xml:space="preserve">
<style type="text/css">
	.st0{fill:#25282A;}
	.st1{fill:#97999B;}
</style>
<path class="st0" d="M537.34,327.77V0H451.3c40.03,12.45,64.98,45.45,67.06,95.36h-82.08c-0.77-20.29-11.17-29.51-25.05-29.51
	c-8.34-0.34-14.14,6.46-16.19,16.44c-2.05-5.98-6.1-12.82-13.51-17.02c-12.86-7.27-53.18-4.22-67.15-2.81
	c8.42-31.92,30.7-53.08,60.28-62.46H209.57v327.77h210.9c-58.68-0.01-107.43-36.75-110.31-112.55h33.23
	c17.4,0,32.62-2.57,46.13-6.84c-4.23,28.33,15.14,47.91,28.27,47.91c13.49,0,23.89-8.3,23.89-23.52
	c-0.38-52.11-132.17-27.67-131.02-140.64c0-6.55,0.51-12.77,1.41-18.69c8.04-0.23,33.48-0.86,46.96,0.08
	c16.13,1.13,21.76,4.5,28.13,10.5c6.38,6,7.13,10.13,7.13,10.13s0.03,0,0.1,0c3.93,47.02,127.44,28.05,127.44,131.7
	c0,57.18-36.99,101.9-101.33,101.91H537.34L537.34,327.77z"/>
<path class="st1" d="M463.97,105.5c0-3.44-0.14-6.81-0.37-10.15c-0.55-7.86-1.8-15.38-3.63-22.57c-0.22-0.86-0.4-1.73-0.64-2.58
	c-0.46-1.65-1.01-3.26-1.54-4.87c-0.34-1.04-0.66-2.09-1.03-3.12c-0.54-1.49-1.15-2.93-1.76-4.38c-0.46-1.1-0.9-2.2-1.39-3.27
	c-0.62-1.36-1.3-2.68-1.98-4.01c-0.56-1.1-1.12-2.2-1.73-3.28c-0.7-1.26-1.45-2.48-2.21-3.7c-0.67-1.08-1.35-2.16-2.06-3.21
	c-0.78-1.16-1.61-2.29-2.44-3.41c-0.78-1.05-1.58-2.09-2.41-3.11c-0.86-1.06-1.74-2.09-2.64-3.11c-0.9-1.02-1.83-2.01-2.78-2.99
	c-0.93-0.96-1.87-1.91-2.84-2.83c-1.02-0.97-2.08-1.91-3.15-2.84c-0.99-0.86-1.98-1.72-3.02-2.54c-1.16-0.92-2.36-1.8-3.57-2.68
	c-1.05-0.76-2.08-1.52-3.16-2.24c-1.31-0.87-2.67-1.68-4.03-2.5c-1.08-0.65-2.14-1.32-3.26-1.93c-1.49-0.82-3.06-1.58-4.61-2.34
	c-1.08-0.53-2.13-1.09-3.24-1.59c-1.79-0.81-3.67-1.53-5.54-2.26c-0.96-0.38-1.89-0.79-2.87-1.15c-2.9-1.04-5.88-2.01-8.96-2.86
	H209.57v327.77h89.52V215.22h11.08h33.23c4.54,0,8.89-0.22,13.16-0.53c12.04-0.94,22.98-3.15,32.96-6.31
	c-0.01,0.07-0.01,0.14-0.02,0.21c4.91-1.53,9.49-3.38,13.91-5.38c-79.01-26.73-82.64-51.28-88.91-62.54h-15.41V65.65h14.47h32.11
	c27.63,0,43.59,5.87,48.63,26.36c0.01,0.47-0.03,0.92-0.01,1.4c0.03,0.59,0.17,1.12,0.24,1.69c0.01,0.08,0.02,0.16,0.03,0.24
	c2.93,22.51,34.03,29.58,64.81,43.37C462.41,128.12,463.97,116.95,463.97,105.5L463.97,105.5z"/>
<path class="st1" d="M196.73,486.38c15.94-4.86,23.53-17,23.53-30.97c0-19.13-13.36-34.31-39.92-34.31h-36.92h-3.51h-6.47H71.45
	H44.48H1.58H0v107.01h29.75V492h14.72c11.53,0,20.48-2.99,26.97-7.84v43.97h61.99h6.47h23.28v-39.47h3.19l21.25,39.47h33.24
	L196.73,486.38z M133.44,462.4H101.2v-17.46h32.24V462.4z M41.59,468.32H29.75v-23.22h11.84c8.96,0,12.6,4.55,12.6,11.69
	C54.19,463.76,50.55,468.32,41.59,468.32z M101.2,504.29v-19.28h32.24v19.28H101.2z M177.91,468.32h-14.72V446h14.72
	c8.04,0,12.14,4.4,12.14,11.08C190.06,464.37,185.96,468.32,177.91,468.32z"/>
<path class="st0" d="M708.2,445.3h38.71v-23.83h-51.22h-17.23h-14.49l-24.14,77.26l-24.29-77.26h-9.98h-21.9h-6.33h-27.98h-1.77
	h-28.54H431.3h-1.05H308.2h-44.48h-6.93c-4.47-1.1-9.41-1.67-14.74-1.67c-22.62,0-40.07,11.23-40.07,32.18
	c-0.46,37.19,51.46,29.15,51.61,46.3c0,5.01-4.1,7.74-9.41,7.74c-5.46,0-10.17-2.73-10.78-10.78h-31.54l15.81,27.34
	c7.46,4.56,16.92,6.96,27.57,6.96c4.01,0,7.74-0.37,11.19-1.06h37.04v-36.13h14.72c4.33,0,8.29-0.42,11.9-1.2v13.52v23.81h23.81
	h80.78v-0.3c2.06,0.2,4.16,0.3,6.32,0.3c26.87,0,45.99-15.22,51.31-39.1h-32.03c-3.8,7.91-10.93,12.24-19.73,12.24
	c-13.66,0-22.62-10.45-22.62-26.72c0-16.12,8.96-26.57,22.62-26.57c8.8,0,15.94,4.33,19.73,12.24h32.03
	c-1.26-5.66-3.3-10.82-6.03-15.42h14.79v83.33h29.75v-83.33h26.46v59.65h-13.64v23.68h13.64h29.75h13.95V504.8h-13.64v-59.65h14.53
	l28.84,83.33h38.1l19.65-57.01v57.01h68.46v-23.83H708.2v-17.77h31.37c-0.72-3.82-1.14-7.8-1.14-11.98c0-4.12,0.41-8.06,1.12-11.83
	H708.2v-0.32V445.3z M233.7,450.91c0-5.16,3.49-7.74,7.89-7.59c5.46,0,9.56,3.04,9.87,9.71h12.26v15.3
	C249.6,462.12,233.7,459.77,233.7,450.91z M305.31,468.67h-11.84v-23.22h11.84c8.96,0,12.6,4.55,12.6,11.69
	C317.91,464.12,314.27,468.67,305.31,468.67z M343.9,486.88h31.29c-0.72-3.82-1.14-7.8-1.14-11.98c0-4.12,0.41-8.06,1.12-11.83
	h-27.35c0.3-1.94,0.46-3.92,0.46-5.93c0-4.22-0.57-8.2-1.7-11.86h38.89c-4.99,8.28-7.74,18.35-7.74,29.63
	c0,11.35,2.75,21.46,7.76,29.77H343.9V486.88z"/>
</svg>
