<?xml version="1.0" encoding="utf-8"?>
<!-- Generator: Adobe Illustrator 24.1.0, SVG Export Plug-In . SVG Version: 6.00 Build 0)  -->
<svg version="1.1" id="Layer_1" xmlns="http://www.w3.org/2000/svg" xmlns:xlink="http://www.w3.org/1999/xlink" x="0px" y="0px"
	 viewBox="0 0 738.9 538.93" style="enable-background:new 0 0 738.9 538.93;" xml:space="preserve">
<style type="text/css">
	.st0{fill:#0086BF;}
	.st1{fill:#003594;}
	.st2{fill:#00B5E2;}
</style>
<g>
	<path d="M96.2,464.1c9.78-11.88,14.68-28.61,14.68-50.18c0-22.22-4.65-39.15-13.95-50.79c-9.3-11.64-22.81-17.45-40.52-17.45
		c-19.81,0-34.22,7.09-43.24,21.26h-0.72l-2.29-18.72H0v190.72h11.96v-50c0-7.09-0.16-13.61-0.48-19.57l-0.36-10.14h0.85
		c9.26,15.14,23.99,22.71,44.21,22.71C73.07,481.92,86.42,475.98,96.2,464.1L96.2,464.1z M22.28,458.12
		c-6.88-8.78-10.33-23.43-10.33-43.97v-3.86c0-19,3.58-32.71,10.75-41.13c7.17-8.41,18.4-12.62,33.7-12.62
		c27.86,0,41.79,19.29,41.79,57.86c0,17.96-3.68,31.93-11.05,41.91c-7.37,9.99-17.78,14.98-31.22,14.98
		C40.38,471.29,29.17,466.9,22.28,458.12L22.28,458.12z M169.09,291.56h-11.96V479.5h11.96V291.56L169.09,291.56z M296.74,480.16
		c6.28-1.17,13.12-3.36,20.53-6.58v-10.87c-8.7,3.46-15.88,5.72-21.56,6.76c-5.68,1.05-12.26,1.57-19.75,1.57
		c-15.38,0-27.2-4.75-35.45-14.25c-8.26-9.5-12.46-23.27-12.62-41.31h94.57v-9.66c0-18.52-4.47-33.17-13.41-43.96
		c-8.94-10.79-21.14-16.19-36.6-16.19c-17.47,0-31.36,6.3-41.67,18.9c-10.31,12.6-15.46,29.37-15.46,50.31
		c0,21.18,5.33,37.64,16,49.4c10.67,11.76,25.55,17.64,44.63,17.64C283.54,481.92,290.46,481.33,296.74,480.16L296.74,480.16z
		 M299.89,369.17c6.6,8.57,9.9,20.47,9.9,35.69h-81.17c1.29-15.7,5.76-27.72,13.41-36.05c7.65-8.33,17.79-12.5,30.44-12.5
		C284.14,356.3,293.28,360.59,299.89,369.17L299.89,369.17z M353.26,479.5h13.17l41.55-58.58l41.31,58.58h13.89l-48.31-67.52
		l45.05-63.77h-13.17l-38.77,55.32l-39.13-55.32h-13.77l45.78,63.77L353.26,479.5L353.26,479.5z M500.25,348.21v85.76
		c0,31.97,14.94,47.95,44.81,47.95c21.82,0,37-6.84,45.54-20.53h0.72l2.17,18.12h10.15V348.21H591.8v72.47
		c0,17.8-3.68,30.64-11.05,38.53c-7.37,7.89-18.86,11.84-34.48,11.84c-11.68,0-20.29-3-25.85-9c-5.56-6-8.33-15.6-8.33-28.81v-85.03
		H500.25L500.25,348.21z M734.86,429.98c-2.7-4.35-6.74-8.23-12.14-11.65c-5.4-3.42-14.01-7.27-25.85-11.54
		c-14.17-5.07-23.69-9.66-28.57-13.77c-4.87-4.11-7.31-9.58-7.31-16.43c0-6.28,3.14-11.19,9.42-14.74
		c6.28-3.54,14.78-5.31,25.49-5.31c11.03,0,22.99,2.66,35.87,7.97l4.47-10.87c-12.72-5.31-26.17-7.97-40.34-7.97
		c-14.82,0-26.35,2.86-34.6,8.58c-8.25,5.72-12.38,13.49-12.38,23.31c0,6.2,1.35,11.46,4.05,15.76c2.7,4.31,6.7,8.17,12.02,11.6
		c5.32,3.42,14.53,7.51,27.66,12.26c12.24,4.35,21.04,8.78,26.39,13.29c5.35,4.51,8.03,10.07,8.03,16.67
		c0,7.17-3.36,12.9-10.09,17.21c-6.72,4.31-16.57,6.46-29.53,6.46c-14.66,0-28.59-3.3-41.79-9.9v12.92
		c10.31,5.4,24.24,8.09,41.79,8.09c16.43,0,29.11-3.16,38.05-9.48c8.94-6.32,13.41-15.36,13.41-27.11
		C738.9,439.44,737.55,434.33,734.86,429.98L734.86,429.98z"/>
	<path class="st0" d="M624.14,232.52c0,0-66.26-51.06-115.82-51.06c-16.48,0-27.34,0-34.61,0c28.55,29.7,53.19,51.06,66.83,51.06
		H624.14L624.14,232.52z"/>
	<path class="st0" d="M300.7,0.23V0h-1.12C299.91,0,300.34,0.17,300.7,0.23L300.7,0.23z M210.4,0h-11.99h-83.64
		c0,0,66.26,51.06,115.82,51.06c19.95,0,35,0,46.1,0C248.89,21.35,224.71,0,210.4,0L210.4,0z"/>
	<path class="st1" d="M540.52,232.52c-28.43,0-50.23,0-89.19,0C412.38,232.52,257.7,0,210.4,0c-47.3,0,58.2,0,89.19,0
		C330.56,0,495.48,232.52,540.52,232.52L540.52,232.52z"/>
	<path class="st2" d="M265.2,181.46c-7.27,0-18.14,0-34.62,0c-49.56,0-115.82,51.06-115.82,51.06h83.61
		C212.01,232.52,236.65,211.16,265.2,181.46L265.2,181.46z"/>
	<path class="st2" d="M624.14,0H540.5h-11.99c-14.31,0-38.49,21.35-66.29,51.06c11.1,0,26.15,0,46.1,0
		C557.87,51.06,624.14,0,624.14,0L624.14,0z M438.2,0.23c0.36-0.05,0.79-0.23,1.12-0.23h-1.12V0.23L438.2,0.23z"/>
	<path class="st0" d="M198.38,232.52c28.43,0,50.23,0,89.19,0C326.52,232.52,481.21,0,528.51,0c47.3,0-58.2,0-89.18,0
		C408.34,0,243.42,232.52,198.38,232.52L198.38,232.52z"/>
</g>
</svg>
