<?xml version="1.0" encoding="utf-8"?>
<!-- Generator: Adobe Illustrator 24.1.0, SVG Export Plug-In . SVG Version: 6.00 Build 0)  -->
<svg version="1.1" id="Layer_1" xmlns="http://www.w3.org/2000/svg" xmlns:xlink="http://www.w3.org/1999/xlink" x="0px" y="0px"
	 viewBox="0 0 352.69 504" style="enable-background:new 0 0 352.69 504;" xml:space="preserve">
<style type="text/css">
	.st0{fill:#0B1F41;}
	.st1{fill:#0586BF;}
	.st2{fill:#5297C9;}
	.st3{fill:#1670A0;}
	.st4{fill:#2089C1;}
	.st5{fill:#0880B7;}
	.st6{fill:#FFFFFF;}
	.st7{fill:#F05323;}
	.st8{fill:#F58220;}
</style>
<g>
	<path class="st0" d="M29.09,478.96v-18.2h10.32c3.32,0,5.97,0.76,7.94,2.28c1.97,1.52,2.96,3.77,2.96,6.75v0.14
		c0,2.65-0.97,4.81-2.92,6.5c-1.95,1.69-4.61,2.53-7.98,2.53H29.09L29.09,478.96z M20.32,503.14h8.78v-16.19h10.02
		c2.79,0,5.41-0.37,7.86-1.11c2.45-0.74,4.59-1.83,6.42-3.27c1.83-1.44,3.27-3.23,4.33-5.36c1.06-2.13,1.59-4.62,1.59-7.45v-0.14
		c0-2.54-0.44-4.84-1.33-6.91c-0.89-2.06-2.16-3.84-3.81-5.32c-1.65-1.49-3.67-2.63-6.04-3.42c-2.37-0.79-5.02-1.19-7.95-1.19H20.32
		V503.14L20.32,503.14z M97.47,494.43c-2.1-0.96-3.91-2.24-5.41-3.85s-2.67-3.5-3.51-5.68c-0.84-2.18-1.25-4.5-1.25-6.94v-0.14
		c0-2.45,0.42-4.75,1.25-6.91c0.84-2.16,1.99-4.04,3.47-5.65c1.48-1.61,3.26-2.88,5.34-3.81c2.08-0.93,4.36-1.4,6.84-1.4
		c2.48,0,4.77,0.48,6.88,1.44c2.1,0.96,3.9,2.24,5.41,3.85c1.51,1.61,2.68,3.5,3.51,5.68c0.84,2.18,1.26,4.5,1.26,6.94v0.14
		c0,2.45-0.42,4.75-1.26,6.91c-0.84,2.16-1.99,4.04-3.47,5.65c-1.48,1.61-3.26,2.88-5.34,3.81c-2.08,0.94-4.36,1.4-6.84,1.4
		C101.86,495.87,99.57,495.39,97.47,494.43L97.47,494.43z M114.85,501.91c3.21-1.39,5.99-3.27,8.35-5.65
		c2.35-2.37,4.17-5.13,5.47-8.27c1.29-3.14,1.94-6.49,1.94-10.04v-0.14c0-3.55-0.65-6.9-1.94-10.04c-1.3-3.14-3.09-5.89-5.4-8.24
		c-2.3-2.35-5.06-4.21-8.27-5.58c-3.21-1.37-6.76-2.05-10.65-2.05c-3.88,0-7.43,0.7-10.65,2.09c-3.21,1.39-6,3.27-8.35,5.65
		c-2.35,2.37-4.17,5.13-5.47,8.27c-1.3,3.14-1.94,6.49-1.94,10.04v0.14c0,3.55,0.65,6.9,1.94,10.04c1.3,3.14,3.09,5.89,5.4,8.24
		c2.3,2.35,5.06,4.21,8.27,5.58c3.21,1.37,6.76,2.05,10.65,2.05C108.09,504,111.63,503.3,114.85,501.91L114.85,501.91z
		 M153.12,503.14h35.25v-7.99H161.9v-42.38h-8.78V503.14L153.12,503.14z M209.96,503.14h8.78v-50.36h-8.78V503.14L209.96,503.14z
		 M273.95,503.39c1.94-0.41,3.73-1.01,5.36-1.8c1.63-0.79,3.15-1.73,4.57-2.81c1.41-1.08,2.77-2.31,4.07-3.7l-5.68-5.76
		c-2.16,2.02-4.34,3.61-6.55,4.79c-2.21,1.18-4.84,1.76-7.91,1.76c-2.4,0-4.62-0.47-6.66-1.4c-2.04-0.94-3.8-2.22-5.29-3.85
		c-1.49-1.63-2.64-3.54-3.45-5.72c-0.82-2.18-1.22-4.5-1.22-6.94v-0.14c0-2.45,0.41-4.75,1.22-6.91c0.82-2.16,1.97-4.04,3.45-5.65
		c1.49-1.61,3.25-2.88,5.29-3.81c2.04-0.93,4.26-1.4,6.66-1.4c2.88,0,5.44,0.58,7.7,1.73c2.25,1.15,4.39,2.66,6.4,4.53l5.68-6.55
		c-1.2-1.15-2.47-2.21-3.81-3.17c-1.34-0.96-2.81-1.79-4.39-2.48c-1.58-0.7-3.32-1.23-5.22-1.62c-1.9-0.38-3.99-0.57-6.3-0.57
		c-3.84,0-7.34,0.68-10.5,2.05c-3.17,1.37-5.91,3.24-8.22,5.61c-2.32,2.37-4.12,5.13-5.4,8.27c-1.28,3.14-1.92,6.51-1.92,10.11v0.14
		c0,3.6,0.65,6.98,1.96,10.14c1.3,3.17,3.1,5.91,5.4,8.24c2.29,2.33,5,4.16,8.11,5.5c3.12,1.34,6.52,2.01,10.22,2.01
		C269.86,504,272.01,503.79,273.95,503.39L273.95,503.39z M323.77,503.14h8.92v-20.07l20-30.29h-10.14l-14.25,22.3l-14.1-22.3
		h-10.43l20,30.5V503.14L323.77,503.14z"/>
	<path class="st1" d="M19.42,424.65h19.03v-24.53h32.47v-15.89H38.45v-11.58h35.91v-16.68H19.42V424.65L19.42,424.65z
		 M110.49,407.34c-2.16-1.01-4.02-2.37-5.56-4.07c-1.54-1.7-2.74-3.66-3.59-5.89c-0.85-2.22-1.28-4.58-1.28-7.06v-0.2
		c0-2.48,0.41-4.84,1.23-7.06c0.82-2.22,2-4.17,3.54-5.84c1.54-1.67,3.38-2.99,5.51-3.97c2.13-0.98,4.51-1.47,7.13-1.47
		c2.62,0,5.02,0.51,7.18,1.52c2.17,1.01,4.03,2.37,5.61,4.07c1.57,1.7,2.79,3.66,3.64,5.89c0.85,2.23,1.28,4.58,1.28,7.06v0.2
		c0,2.49-0.43,4.84-1.28,7.06c-0.85,2.22-2.03,4.17-3.54,5.84c-1.51,1.67-3.35,2.99-5.51,3.97c-2.16,0.98-4.56,1.47-7.18,1.47
		C115.05,408.86,112.65,408.35,110.49,407.34L110.49,407.34z M132.24,423.23c4.51-1.86,8.44-4.42,11.77-7.65
		c3.34-3.24,5.94-7.03,7.8-11.38c1.86-4.35,2.8-8.98,2.8-13.88v-0.2c0-4.91-0.93-9.52-2.8-13.83c-1.86-4.32-4.43-8.08-7.7-11.28
		c-3.27-3.2-7.16-5.74-11.67-7.6c-4.51-1.86-9.42-2.8-14.72-2.8c-5.3,0-10.2,0.93-14.72,2.8c-4.51,1.86-8.44,4.41-11.77,7.65
		c-3.33,3.24-5.93,7.03-7.8,11.38c-1.86,4.35-2.8,8.98-2.8,13.88v0.2c0,4.9,0.93,9.52,2.8,13.83c1.86,4.32,4.43,8.08,7.7,11.28
		c3.27,3.2,7.16,5.74,11.68,7.6c4.51,1.86,9.42,2.8,14.72,2.8C122.82,426.03,127.73,425.09,132.24,423.23L132.24,423.23z
		 M202.87,424.31c3.4-1.01,6.31-2.48,8.73-4.41c2.42-1.93,4.3-4.26,5.64-7c1.34-2.74,2.01-5.88,2.01-9.4v-0.2
		c0-3.2-0.59-5.96-1.77-8.28c-1.18-2.32-2.88-4.29-5.1-5.92c-2.22-1.63-4.92-3.02-8.09-4.16c-3.17-1.14-6.72-2.14-10.65-2.99
		c-2.35-0.52-4.3-1.03-5.84-1.52c-1.54-0.49-2.75-0.98-3.63-1.47c-0.88-0.49-1.51-1.03-1.86-1.62c-0.36-0.59-0.54-1.27-0.54-2.06
		v-0.2c0-1.24,0.57-2.28,1.72-3.13c1.14-0.85,2.86-1.27,5.15-1.27c3.07,0,6.26,0.57,9.56,1.72c3.3,1.14,6.52,2.83,9.66,5.05
		l9.52-13.48c-3.73-3.03-7.9-5.31-12.51-6.86c-4.61-1.55-9.86-2.32-15.74-2.32c-4.12,0-7.82,0.54-11.09,1.62
		c-3.27,1.08-6.07,2.6-8.39,4.55c-2.32,1.96-4.09,4.28-5.3,6.95c-1.21,2.68-1.82,5.62-1.82,8.81v0.19c0,3.53,0.67,6.48,2.01,8.86
		c1.34,2.38,3.17,4.37,5.49,5.97c2.32,1.6,5.05,2.91,8.19,3.92c3.14,1.01,6.54,1.94,10.2,2.79c2.35,0.52,4.27,1.03,5.74,1.52
		c1.47,0.49,2.65,1,3.53,1.52c0.88,0.52,1.49,1.06,1.81,1.62c0.33,0.55,0.49,1.19,0.49,1.91v0.2c0,1.5-0.67,2.66-2.01,3.48
		c-1.34,0.82-3.29,1.22-5.84,1.22c-7.98,0-15.4-2.75-22.27-8.24l-10.6,12.68c4.25,3.82,9.14,6.68,14.67,8.59
		c5.53,1.91,11.36,2.86,17.51,2.86C195.68,425.83,199.47,425.32,202.87,424.31L202.87,424.31z M266.84,424.31
		c3.4-1.01,6.31-2.48,8.73-4.41c2.42-1.93,4.3-4.26,5.64-7c1.34-2.74,2.01-5.88,2.01-9.4v-0.2c0-3.2-0.59-5.96-1.77-8.28
		c-1.18-2.32-2.88-4.29-5.1-5.92c-2.22-1.63-4.92-3.02-8.09-4.16c-3.17-1.14-6.72-2.14-10.64-2.99c-2.35-0.52-4.3-1.03-5.84-1.52
		c-1.54-0.49-2.75-0.98-3.63-1.47c-0.88-0.49-1.51-1.03-1.86-1.62c-0.36-0.59-0.54-1.27-0.54-2.06v-0.2c0-1.24,0.57-2.28,1.72-3.13
		c1.14-0.85,2.86-1.27,5.15-1.27c3.07,0,6.26,0.57,9.56,1.72c3.3,1.14,6.52,2.83,9.66,5.05l9.52-13.48
		c-3.73-3.03-7.9-5.31-12.51-6.86c-4.61-1.55-9.86-2.32-15.75-2.32c-4.12,0-7.82,0.54-11.09,1.62c-3.27,1.08-6.07,2.6-8.39,4.55
		c-2.32,1.96-4.09,4.28-5.3,6.95c-1.21,2.68-1.82,5.62-1.82,8.81v0.19c0,3.53,0.67,6.48,2.01,8.86c1.34,2.38,3.17,4.37,5.49,5.97
		c2.32,1.6,5.05,2.91,8.19,3.92c3.14,1.01,6.54,1.94,10.2,2.79c2.35,0.52,4.27,1.03,5.74,1.52c1.47,0.49,2.65,1,3.53,1.52
		c0.88,0.52,1.49,1.06,1.81,1.62c0.33,0.55,0.49,1.19,0.49,1.91v0.2c0,1.5-0.67,2.66-2.01,3.48c-1.34,0.82-3.29,1.22-5.84,1.22
		c-7.98,0-15.4-2.75-22.27-8.24l-10.6,12.68c4.25,3.82,9.14,6.68,14.67,8.59c5.53,1.91,11.36,2.86,17.51,2.86
		C259.64,425.83,263.44,425.32,266.84,424.31L266.84,424.31z"/>
	<path class="st0" d="M298.53,149.27C298.53,66.83,231.7,0,149.27,0S0,66.83,0,149.27c0,45.08,20.02,85.47,51.62,112.84
		c49.7-16.83,89.36-40.6,97.65-103.09c0,0,39.22,72.55-36.18,135.08c11.59,2.89,23.7,4.44,36.18,4.44
		C231.7,298.53,298.53,231.7,298.53,149.27"/>
	<path class="st2" d="M149.37,298.53c0.01,0,0.03,0,0.04,0C149.4,298.53,149.38,298.53,149.37,298.53 M149.48,298.53
		c0.02,0,0.03,0,0.05,0C149.51,298.53,149.49,298.53,149.48,298.53 M149.58,298.53c0.02,0,0.04,0,0.06,0
		C149.62,298.53,149.6,298.53,149.58,298.53 M149.67,298.53c0.5,0,1-0.01,1.5-0.01c0.97-0.01,1.93-0.03,2.9-0.06
		C152.6,298.5,151.14,298.53,149.67,298.53 M154.09,298.46c0.02,0,0.06,0,0.08,0C154.14,298.46,154.12,298.46,154.09,298.46
		 M154.22,298.45c0.01,0,0.03,0,0.04,0C154.25,298.45,154.23,298.45,154.22,298.45 M154.35,298.45L154.35,298.45L154.35,298.45
		 M51.62,262.11c-0.03-0.03-0.06-0.06-0.1-0.08C51.55,262.05,51.58,262.08,51.62,262.11 M51.49,262c-0.03-0.02-0.06-0.05-0.08-0.07
		C51.44,261.95,51.46,261.98,51.49,262 M51.4,261.92c-0.17-0.15-0.35-0.3-0.52-0.45c0.1,0.09,0.2,0.17,0.3,0.26
		c0.01,0.01,0.02,0.02,0.04,0.03c0.02,0.01,0.03,0.03,0.05,0.04c0.03,0.02,0.05,0.04,0.08,0.07l0,0
		C51.36,261.88,51.38,261.9,51.4,261.92 M50.88,261.46c-0.03-0.02-0.06-0.05-0.08-0.07C50.82,261.41,50.85,261.44,50.88,261.46
		 M50.78,261.38c-0.02-0.02-0.05-0.04-0.07-0.06C50.73,261.34,50.76,261.36,50.78,261.38 M50.69,261.3
		c-0.01-0.01-0.03-0.03-0.04-0.04C50.66,261.27,50.67,261.28,50.69,261.3"/>
	<path class="st3" d="M151.17,298.52c15.43-0.2,30.28-2.76,44.24-7.29c39.56-78.22-41.76-136.02-46.14-136.02
		c-10.76,62.6-84,71.71-122.12,79.77c6.93,9.84,14.98,18.84,24.03,26.74c-0.1-0.09-0.2-0.17-0.3-0.26c0,0,0,0,0,0
		c-0.03-0.03-0.05-0.05-0.08-0.07c0,0-0.01-0.01-0.01-0.01c-0.02-0.02-0.05-0.04-0.07-0.06c-0.01-0.01-0.02-0.01-0.02-0.02
		c-0.01-0.01-0.03-0.03-0.04-0.04c-26.06-22.97-44.01-54.88-49.11-90.93c32.08,9.16,64.76,16.12,91.31,16.12
		c29.06,0,50.8-8.33,56.42-31.24c31.41,0,84.39,27.1,102.28,102.72c-25.57,24.08-59.61,39.26-97.2,40.52h0c-0.03,0-0.06,0-0.09,0
		c-0.01,0-0.03,0-0.04,0c-0.02,0-0.03,0-0.05,0c-0.03,0-0.06,0-0.08,0c0,0-0.01,0-0.02,0C153.1,298.49,152.14,298.51,151.17,298.52
		 M51.34,261.87L51.34,261.87C51.34,261.86,51.34,261.87,51.34,261.87 M51.26,261.8c-0.02-0.02-0.03-0.03-0.05-0.04
		C51.23,261.77,51.24,261.78,51.26,261.8"/>
	<path class="st2" d="M149.27,298.53c-12.48,0-24.59-1.55-36.18-4.44l0,0C124.67,296.98,136.79,298.53,149.27,298.53
		c0.04,0,0.07,0,0.1,0C149.34,298.53,149.3,298.53,149.27,298.53 M149.41,298.53c0.02,0,0.04,0,0.07,0
		C149.46,298.53,149.43,298.53,149.41,298.53 M149.53,298.53c0.02,0,0.04,0,0.05,0C149.56,298.53,149.54,298.53,149.53,298.53
		 M149.64,298.53c0.01,0,0.02,0,0.03,0C149.66,298.53,149.65,298.53,149.64,298.53 M51.52,262.02c-0.01-0.01-0.02-0.01-0.03-0.02
		C51.5,262.01,51.51,262.02,51.52,262.02 M51.41,261.93c0,0-0.01-0.01-0.01-0.01C51.4,261.92,51.4,261.92,51.41,261.93"/>
	<path class="st4" d="M149.27,298.53c-12.48,0-24.59-1.55-36.18-4.44l0,0C124.67,296.98,136.79,298.53,149.27,298.53
		c0.63,0,1.27,0,1.9-0.01c-0.5,0.01-1,0.01-1.5,0.01c-0.01,0-0.02,0-0.03,0c-0.02,0-0.04,0-0.06,0c-0.02,0-0.04,0-0.05,0
		c-0.02,0-0.03,0-0.05,0c-0.02,0-0.04,0-0.07,0c-0.01,0-0.03,0-0.04,0C149.34,298.53,149.3,298.53,149.27,298.53 M51.62,262.11
		L51.62,262.11c-0.03-0.03-0.06-0.06-0.1-0.08c-0.01-0.01-0.02-0.02-0.03-0.02c-0.03-0.02-0.06-0.05-0.08-0.07
		c0,0-0.01-0.01-0.01-0.01c-0.02-0.02-0.04-0.03-0.06-0.05C51.43,261.95,51.52,262.03,51.62,262.11
		c49.7-16.83,89.36-40.6,97.65-103.09l0,0C140.98,221.51,101.31,245.28,51.62,262.11 M51.34,261.86c-0.03-0.02-0.05-0.04-0.08-0.07
		C51.29,261.82,51.31,261.84,51.34,261.86 M51.21,261.76c-0.01-0.01-0.02-0.02-0.04-0.03C51.19,261.73,51.2,261.75,51.21,261.76"/>
	<path class="st5" d="M149.27,298.53c-12.48,0-24.59-1.55-36.18-4.44c36.97-30.66,46.38-63.72,46.38-89.46
		c-0.01-26.77-10.2-45.62-10.2-45.62l0,0l0,0c-8.29,62.5-47.95,86.27-97.65,103.09c-0.09-0.08-0.18-0.16-0.28-0.24c0,0,0,0,0,0
		c-0.02-0.02-0.05-0.04-0.08-0.07c-0.02-0.01-0.03-0.03-0.05-0.04c-0.01-0.01-0.03-0.02-0.04-0.03c-9.05-7.9-17.1-16.9-24.03-26.74
		c38.13-8.06,111.37-17.17,122.12-79.77c4.38,0,85.71,57.8,46.14,136.02c-13.96,4.54-28.82,7.1-44.24,7.29
		C150.54,298.53,149.9,298.53,149.27,298.53"/>
	<path class="st6" d="M175.06,72.63c0-20.16-25.76-56.13-25.76-56.13s-25.76,35.97-25.76,56.13c0,20.16,25.76,57.69,25.76,75.05
		C149.29,130.31,175.06,92.79,175.06,72.63L175.06,72.63z"/>
	<path class="st6" d="M160.49,125.58c7.63,3.52,19.33,10.76,19.33,22.09c10.84-19.48-2.44-38.94-8.49-46.25
		C167.8,109.54,163.78,117.89,160.49,125.58L160.49,125.58z"/>
	<path class="st6" d="M138.04,125.58c-7.63,3.52-19.33,10.76-19.33,22.09c-10.84-19.48,2.44-38.94,8.49-46.25
		C130.74,109.54,134.76,117.89,138.04,125.58L138.04,125.58z"/>
	<path class="st7" d="M165.87,156.49c0-9.2-3.86-17.12-9.43-20.84c-2.71,5.31-7.14,17.94-7.14,23.23c0-5.4-4.24-18.28-6.72-23.52
		c-5.81,3.6-9.86,11.7-9.86,21.13c0,12.77,13.44,37.81,16.58,37.81C152.43,194.3,165.87,169.26,165.87,156.49L165.87,156.49z"/>
	<path class="st8" d="M160.02,154.96c0-5.97-2.5-11.11-6.12-13.52c-1.76,3.45-4.64,11.64-4.64,15.08c0-3.5-2.75-11.86-4.36-15.26
		c-3.77,2.33-6.4,7.59-6.4,13.71c0,8.29,8.72,24.53,10.76,24.53C151.3,179.5,160.02,163.25,160.02,154.96L160.02,154.96z"/>
</g>
</svg>
