<?xml version="1.0" encoding="utf-8"?>
<!-- Generator: Adobe Illustrator 25.0.0, SVG Export Plug-In . SVG Version: 6.00 Build 0)  -->
<svg version="1.1" id="Layer_1" xmlns="http://www.w3.org/2000/svg" xmlns:xlink="http://www.w3.org/1999/xlink" x="0px" y="0px"
	 viewBox="0 0 720 547.5" style="enable-background:new 0 0 720 547.5;" xml:space="preserve">
<style type="text/css">
	.st0{fill:#1C5E35;}
	.st1{fill:#47AF67;}
</style>
<g>
	<path class="st0" d="M32.2,547.5c6.5,0,10.6-3.9,10.6-8.9c0-4.8-2.9-6.9-6.6-8.4l-4.6-2c-2.4-1.1-5.3-2.2-5.3-5.4
		c0-3,2.5-4.9,6.2-4.9c3,0,5.4,1.2,7.3,3l1.9-2.3c-2.1-2.3-5.4-3.9-9.2-3.9c-5.6,0-9.7,3.5-9.7,8.2c0,4.7,3.5,6.8,6.4,8.1l4.6,2
		c3,1.3,5.4,2.4,5.4,5.8c0,3.3-2.6,5.5-6.9,5.5c-3.4,0-6.6-1.6-8.9-4l-2.2,2.5C23.9,545.7,27.7,547.5,32.2,547.5L32.2,547.5z
		 M56.4,546.9h3.6v-12.8h5.4c6.9,0,11.6-3.1,11.6-9.6c0-6.8-4.7-9.2-11.8-9.2h-8.8V546.9L56.4,546.9z M59.9,531.2v-13h4.7
		c5.8,0,8.7,1.5,8.7,6.3c0,4.7-2.7,6.7-8.5,6.7H59.9L59.9,531.2z M90.7,546.9h18.5v-3H94.2v-12.2h12.1v-3H94.2v-10.5h14.4v-3h-18
		V546.9L90.7,546.9z M134.9,547.5c4.1,0,7.1-1.7,9.6-4.6l-2-2.2c-2.1,2.3-4.4,3.7-7.5,3.7c-6.2,0-10.1-5.2-10.1-13.4
		c0-8.1,4-13.2,10.3-13.2c2.7,0,4.9,1.3,6.6,3.1l2-2.4c-1.8-2-4.8-3.8-8.6-3.8c-8.1,0-13.9,6.3-13.9,16.4
		C121.2,541.4,127.1,547.5,134.9,547.5L134.9,547.5z M157.8,547h3.6v-31.7h-3.6V547L157.8,547z M195,546.9h3.8L188,515.3h-4
		l-10.8,31.7h3.6l3.2-10h11.8L195,546.9L195,546.9z M181,534.1l1.6-5.1c1.2-3.6,2.2-7,3.2-10.8h0.2c1.1,3.7,2.1,7.1,3.3,10.8
		l1.6,5.1H181L181,534.1z M210.7,546.9h17.5v-3h-14v-28.6h-3.6V546.9L210.7,546.9z M258,547h3.6v-31.7H258V547L258,547z
		 M277.6,546.9h3.4v-17.3c0-3.3-0.3-6.5-0.5-9.7h0.2l3.5,6.5l12,20.5h3.7v-31.7h-3.4v17.2c0,3.2,0.3,6.7,0.5,9.9h-0.2l-3.5-6.5
		l-12-20.5h-3.7V546.9L277.6,546.9z M322.5,546.9h3.6v-28.6h9.7v-3h-23v3h9.7V546.9L322.5,546.9z M348.8,546.9h18.5v-3h-14.9v-12.2
		h12.1v-3h-12.1v-10.5h14.4v-3h-18V546.9L348.8,546.9z M402.7,546.9l-8.2-14c4.5-1,7.4-3.9,7.4-8.9c0-6.5-4.5-8.8-10.9-8.8h-9.7
		v31.7h3.6v-13.7h6l7.9,13.7H402.7L402.7,546.9z M384.8,518.2h5.5c5.1,0,7.9,1.5,7.9,5.9c0,4.2-2.8,6.3-7.9,6.3h-5.5V518.2
		L384.8,518.2z M415.6,546.9h18.5v-3h-14.9v-12.2h12.1v-3h-12.1v-10.5h14.4v-3h-18V546.9L415.6,546.9z M456.7,547.5
		c6.5,0,10.6-3.9,10.6-8.9c0-4.8-2.9-6.9-6.6-8.4l-4.6-2c-2.4-1.1-5.3-2.2-5.3-5.4c0-3,2.5-4.9,6.2-4.9c3,0,5.4,1.2,7.3,3l1.9-2.3
		c-2.1-2.3-5.4-3.9-9.2-3.9c-5.6,0-9.7,3.5-9.7,8.2c0,4.7,3.5,6.8,6.4,8.1l4.6,2c3,1.3,5.4,2.4,5.4,5.8c0,3.3-2.6,5.5-6.9,5.5
		c-3.4,0-6.6-1.6-8.9-4l-2.2,2.5C448.5,545.7,452.3,547.5,456.7,547.5L456.7,547.5z M486.6,546.9h3.6v-28.6h9.7v-3h-23v3h9.7V546.9
		L486.6,546.9z M541.9,547.5c4.2,0,7.7-1.5,9.7-3.7v-13.1h-10.2v3h6.9v8.6c-1.4,1.3-3.7,2-6.1,2c-6.8,0-10.8-5.2-10.8-13.4
		c0-8.1,4.2-13.2,10.8-13.2c3.2,0,5.4,1.4,6.9,3.1l2-2.4c-1.8-1.9-4.6-3.8-9-3.8c-8.4,0-14.4,6.3-14.4,16.4
		C527.8,541.4,533.6,547.5,541.9,547.5L541.9,547.5z M588,546.9l-8.2-14c4.5-1,7.4-3.9,7.4-8.9c0-6.5-4.5-8.8-10.9-8.8h-9.7v31.7
		h3.6v-13.7h6l7.9,13.7H588L588,546.9z M570.1,518.2h5.5c5.1,0,7.9,1.5,7.9,5.9c0,4.2-2.8,6.3-7.9,6.3h-5.5V518.2L570.1,518.2z
		 M612.4,547.5c7.9,0,13.4-6.4,13.4-16.5c0-10.1-5.5-16.3-13.4-16.3c-7.9,0-13.4,6.2-13.4,16.3S604.5,547.5,612.4,547.5L612.4,547.5
		z M612.4,544.4c-5.9,0-9.7-5.3-9.7-13.4c0-8.1,3.9-13.2,9.7-13.2c5.8,0,9.7,5.1,9.7,13.2C622.1,539.1,618.3,544.4,612.4,544.4
		L612.4,544.4z M651.1,547.5c6.2,0,11.2-3.3,11.2-13.4v-18.8h-3.4v18.8c0,7.8-3.5,10.3-7.8,10.3c-4.2,0-7.6-2.5-7.6-10.3v-18.8h-3.6
		v18.8C639.9,544.2,644.8,547.5,651.1,547.5L651.1,547.5z M678.2,546.9h3.6v-12.8h5.4c6.9,0,11.6-3.1,11.6-9.6
		c0-6.8-4.7-9.2-11.8-9.2h-8.8V546.9L678.2,546.9z M681.8,531.2v-13h4.7c5.8,0,8.7,1.5,8.7,6.3c0,4.7-2.7,6.7-8.5,6.7H681.8
		L681.8,531.2z"/>
	<path class="st1" d="M38.2,490.1l-11.4-20c5.5-2.3,9.1-6.9,9.1-14.2c0-11.4-8.3-15.1-18.7-15.1H0v49.2h10.3v-18.2h6.5l9.8,18.2
		H38.2L38.2,490.1z M10.3,449.2h6.1c6.2,0,9.5,1.7,9.5,6.9c0,5.1-3.3,7.7-9.5,7.7h-6.1V449.2L10.3,449.2z M74.8,469.8
		c0-10.2-5.3-17.8-15.7-17.8c-8.9,0-17.4,7.5-17.4,19.6c0,12.3,8.1,19.5,18.7,19.5c4.5,0,9.3-1.6,13-4.1l-3.4-6.2
		c-2.7,1.6-5.3,2.5-8.3,2.5c-4.7,0-9.3-2.3-10.4-8.7h23C74.6,473.5,74.8,471.7,74.8,469.8L74.8,469.8z M51.5,467.6
		c1.1-5.6,4.4-7.8,7.8-7.8c4.7,0,6.7,3.1,6.7,7.8H51.5L51.5,467.6z M95.8,506.1c12.6,0,20.5-5.6,20.5-13.2c0-6.6-5-9.4-14-9.4h-6.2
		c-4.2,0-5.7-1.1-5.7-2.9c0-1.4,0.5-2.2,1.5-3c1.7,0.5,3.2,0.8,4.7,0.8c8.1,0,14.5-4.1,14.5-12.6c0-2.1-0.7-4.1-1.6-5.3h6.2v-7.5
		h-13.5c-1.7-0.5-3.6-0.9-5.7-0.9c-7.9,0-15.1,4.7-15.1,13.5c0,4.4,2.3,7.8,5,9.7v0.3c-2.3,1.6-4.1,4.2-4.1,6.9c0,3.1,1.4,5,3.4,6.3
		v0.3c-3.5,2-5.3,4.5-5.3,7.7C80.3,503.2,87.1,506.1,95.8,506.1L95.8,506.1z M96.5,472c-3.1,0-5.5-2.3-5.5-6.6
		c0-4.2,2.3-6.5,5.5-6.5c3.2,0,5.6,2.3,5.6,6.5C102.1,469.7,99.7,472,96.5,472L96.5,472z M97.4,499.7c-5.3,0-8.7-1.7-8.7-4.7
		c0-1.4,0.8-2.8,2.3-4.1c1.3,0.4,2.8,0.5,5.1,0.5h4.3c3.8,0,5.9,0.6,5.9,3.2C106.4,497.4,102.8,499.7,97.4,499.7L97.4,499.7z
		 M133.7,491c5,0,8.6-2.4,11.7-6.2h0.3l0.8,5.3h8.4v-37.3h-10.2v24.9c-2.4,3.2-4.2,4.4-7.2,4.4c-3.5,0-5-1.9-5-7.5v-21.9h-10.2V476
		C122.2,485.4,125.6,491,133.7,491L133.7,491z M174.7,491c2.4,0,4.1-0.4,5.3-0.8l-1.3-7.7c-0.6,0.2-0.9,0.2-1.4,0.2
		c-0.9,0-2-0.8-2-3v-42.5h-10.2v42C165.1,486.3,167.6,491,174.7,491L174.7,491z M195.5,491c4.2,0,7.8-2,11.1-4.8h0.2l0.8,3.9h8.4
		v-21.5c0-11.1-5-16.6-14.5-16.6c-5.9,0-11.1,2.1-15.7,4.9l3.7,6.8c3.5-2,6.7-3.5,10-3.5c4.4,0,6,2.6,6.2,6
		c-14.9,1.6-21.2,5.8-21.2,13.7C184.4,486.2,188.8,491,195.5,491L195.5,491z M198.9,483c-2.8,0-4.6-1.3-4.6-4
		c0-3.1,2.8-5.5,11.4-6.6v7.2C203.5,481.7,201.6,483,198.9,483L198.9,483z M238.3,491c3.4,0,6-0.7,8.1-1.4l-1.7-7.5
		c-1.1,0.4-2.4,0.8-3.7,0.8c-3.1,0-5-1.8-5-6.1V461h9.1v-8.1H236v-9.9h-8.5l-1.2,9.9l-5.7,0.5v7.7h5.2v15.9
		C225.8,485.3,229.2,491,238.3,491L238.3,491z M257.8,447c3.4,0,5.8-2.3,5.8-5.5s-2.4-5.5-5.8-5.5c-3.4,0-5.8,2.3-5.8,5.5
		S254.4,447,257.8,447L257.8,447z M252.6,490.1h10.2v-37.3h-10.2V490.1L252.6,490.1z M288.9,491c9.3,0,18-7.2,18-19.5
		c0-12.4-8.7-19.6-18-19.6c-9.4,0-18,7.2-18,19.6C270.9,483.9,279.4,491,288.9,491L288.9,491z M288.9,482.7c-4.9,0-7.5-4.4-7.5-11.1
		c0-6.8,2.6-11.2,7.5-11.2c4.8,0,7.5,4.4,7.5,11.2C296.3,478.3,293.7,482.7,288.9,482.7L288.9,482.7z M314.8,490.1H325v-25.4
		c2.6-2.6,4.5-3.9,7.5-3.9c3.5,0,5,1.9,5,7.5v21.9h10.3v-23.2c0-9.3-3.5-15-11.5-15c-5.1,0-8.9,2.6-12,5.7h-0.3l-0.8-4.8h-8.4V490.1
		L314.8,490.1z M373.4,490.1h10.3V441h-10.3V490.1L373.4,490.1z M394.8,490.1H405v-25.4c2.6-2.6,4.5-3.9,7.5-3.9c3.5,0,5,1.9,5,7.5
		v21.9h10.3v-23.2c0-9.3-3.5-15-11.5-15c-5.1,0-8.9,2.6-12,5.7h-0.3l-0.8-4.8h-8.4V490.1L394.8,490.1z M437.5,490.1h10.2v-25.4
		c2.6-2.6,4.5-3.9,7.5-3.9c3.5,0,5,1.9,5,7.5v21.9h10.3v-23.2c0-9.3-3.5-15-11.5-15c-5.1,0-8.9,2.6-12,5.7h-0.3l-0.8-4.8h-8.4V490.1
		L437.5,490.1z M496,491c9.3,0,18-7.2,18-19.5c0-12.4-8.7-19.6-18-19.6c-9.4,0-18,7.2-18,19.6C478,483.9,486.6,491,496,491L496,491z
		 M496,482.7c-4.9,0-7.5-4.4-7.5-11.1c0-6.8,2.6-11.2,7.5-11.2c4.8,0,7.5,4.4,7.5,11.2C503.5,478.3,500.9,482.7,496,482.7L496,482.7
		z M529.8,490.1h11.8l12.3-37.3h-9.9l-5.2,18.1c-1,3.7-2,7.5-3,11.4h-0.3c-1-3.8-2-7.7-2.9-11.4l-5.2-18.1h-10.4L529.8,490.1
		L529.8,490.1z M567.8,491c4.2,0,7.8-2,11.1-4.8h0.2l0.8,3.9h8.4v-21.5c0-11.1-5-16.6-14.5-16.6c-5.9,0-11.1,2.1-15.7,4.9l3.7,6.8
		c3.5-2,6.7-3.5,10-3.5c4.4,0,6,2.6,6.2,6c-14.9,1.6-21.2,5.8-21.2,13.7C556.7,486.2,561.1,491,567.8,491L567.8,491z M571.2,483
		c-2.8,0-4.6-1.3-4.6-4c0-3.1,2.8-5.5,11.4-6.6v7.2C575.8,481.7,573.9,483,571.2,483L571.2,483z M610.5,491c3.4,0,6-0.7,8.1-1.4
		l-1.7-7.5c-1.1,0.4-2.4,0.8-3.7,0.8c-3.1,0-5-1.8-5-6.1V461h9.1v-8.1h-9.1v-9.9h-8.5l-1.2,9.9l-5.7,0.5v7.7h5.2v15.9
		C598,485.3,601.5,491,610.5,491L610.5,491z M630,447c3.4,0,5.8-2.3,5.8-5.5s-2.4-5.5-5.8-5.5c-3.4,0-5.8,2.3-5.8,5.5
		S626.7,447,630,447L630,447z M624.9,490.1h10.2v-37.3h-10.2V490.1L624.9,490.1z M661.1,491c9.3,0,18-7.2,18-19.5
		c0-12.4-8.7-19.6-18-19.6c-9.4,0-18,7.2-18,19.6C643.1,483.9,651.7,491,661.1,491L661.1,491z M661.1,482.7c-4.9,0-7.5-4.4-7.5-11.1
		c0-6.8,2.6-11.2,7.5-11.2c4.8,0,7.5,4.4,7.5,11.2C668.6,478.3,665.9,482.7,661.1,482.7L661.1,482.7z M687,490.1h10.2v-25.4
		c2.6-2.6,4.5-3.9,7.5-3.9c3.5,0,5,1.9,5,7.5v21.9H720v-23.2c0-9.3-3.5-15-11.5-15c-5.1,0-8.9,2.6-12,5.7h-0.3l-0.8-4.8H687V490.1
		L687,490.1z"/>
	<path class="st1" d="M539.5,179.5C539.5,80.4,459.1,0,360,0c-0.6,0-1.2,0-1.8,0l59.2,92.1h-31.9c0.3,25.3,2.8,32.9,21.3,48.2
		c45.8,38.7,47.1,102-0.2,140c-15.4-13.2-33.1-24-46.9-34.9c13.6-10.7,23.4-21.6,23.5-34.8c-0.1-11.1-7-20.6-17.3-29.8
		c-2-1.7-4-3.5-6.2-5.2c-29.4-22.3-31.7-56.5-31.4-83.5h-32.1l59.2-92.1c-97.1,2.4-175,81.8-175,179.4c0,69.9,39.9,130.3,98.2,160
		c1.7-20.6,13.1-41.1,34.2-59.2c15.2,12.2,32.8,21.6,46.9,31.2c-5.8,3.9-10.6,7.7-14.4,11.5c-7.3,7.1-8.9,14-9.2,20.8
		c-0.2,4.6,0.3,9.2,2.5,13.9c7,0.8,14.1,1.3,21.3,1.3C459.1,359.1,539.5,278.7,539.5,179.5L539.5,179.5z"/>
	<path class="st0" d="M440.9,339.8c-1.7-20.7-13-41.3-34.2-59.4l0,0l0,0c-9.1-7.7-18.9-14.7-28.3-21.3c-6.6-4.6-12.9-9.1-18.6-13.6
		c-13.6-10.7-23.4-21.6-23.5-34.8c0.1-11.8,11.2-24.8,23.3-35.2c-17.5-13.4-25.3-31-28.7-48.8c-62,43.5-63.5,117.2-18,153.7
		c15.2,12.2,32.8,21.6,46.9,31.2c24.1,16.4,31.2,30.9,21.7,46.2C402.6,355.2,422.6,349,440.9,339.8L440.9,339.8z"/>
</g>
</svg>
