<?xml version="1.0" encoding="utf-8"?>
<!-- Generator: Adobe Illustrator 27.0.0, SVG Export Plug-In . SVG Version: 6.00 Build 0)  -->
<svg version="1.1" id="Layer_1" xmlns="http://www.w3.org/2000/svg" xmlns:xlink="http://www.w3.org/1999/xlink" x="0px" y="0px"
	 viewBox="0 0 709.4 540" style="enable-background:new 0 0 709.4 540;" xml:space="preserve">
<style type="text/css">
	.st0{fill:#F2BD6B;}
	.st1{fill:#CC7C29;}
	.st2{fill:#FDB714;}
	.st3{fill:#404041;}
</style>
<g>
	<polygon class="st0" points="562.1,295.1 578.4,281.7 578.4,75.1 551.7,90.3 551.7,132.4 541.8,138.2 541.8,287.8 562.1,295.1 	"/>
	<polygon class="st1" points="363.9,238.1 547.1,129.7 547.1,92.9 545.3,93.9 544.5,94.4 544.5,94.3 363.9,196.9 363.9,238.1 	"/>
	<polygon class="st0" points="433.9,202 397.2,223.7 397.2,243.4 417.6,250.6 433.9,237.3 433.9,202 	"/>
	<polygon class="st2" points="114.5,129.4 341.2,204.4 594.9,60.4 594.9,40.6 397.8,4.7 114.5,112.8 114.5,129.4 	"/>
	<polygon class="st0" points="160.6,357.8 181.1,341.3 181.1,198.8 166,193.7 166,151.3 134.9,141 134.9,348.7 160.6,357.8 	"/>
	<polygon class="st1" points="170.6,190.4 308.5,236.9 308.5,198.4 170.6,152.8 170.6,190.4 	"/>
	<polygon class="st0" points="338.8,417.4 359.3,400.9 359.3,199.5 341.7,209.4 313.1,199.9 313.1,408.4 338.8,417.4 	"/>
	<path class="st3" d="M599.5,63.1V36.8L398,0.1L397.4,0l-286,109.1l-1.5,0.6v23l20.4,6.8V352l31.2,11l24.2-19.5V200.4l122.8,41.4
		v169.9l31.2,11l24.2-19.5V243.4l28.8-17v20.2l25.8,9.2l20-16.4v-40.2l98.7-58.4V291l25.8,9.2l20-16.4V72.5L599.5,63.1L599.5,63.1z
		 M541.8,138.2l9.9-5.9V90.3l26.8-15.2v206.7l-16.3,13.3l-20.4-7.3V138.2L541.8,138.2z M397.2,223.7l36.7-21.7v35.3l-16.3,13.3
		l-20.4-7.3V223.7L397.2,223.7z M363.9,196.9L544.5,94.3v0.1l0.8-0.5l1.8-1v36.9L363.9,238.1V196.9L363.9,196.9z M313.1,199.9
		l28.7,9.5l17.5-10v201.4l-20.5,16.5l-25.7-9V199.9L313.1,199.9z M170.6,190.4v-37.7l137.9,45.6v38.5L170.6,190.4L170.6,190.4z
		 M134.9,141l31.1,10.3v42.5l15.1,5.1v142.4l-20.5,16.5l-25.7-9.1V141L134.9,141z M594.9,60.4l-253.7,144l-226.8-75v-16.6L397.8,4.7
		l197.1,35.8V60.4L594.9,60.4z"/>
	<path class="st3" d="M27.2,492c2-1.3,3.6-1.9,5.1-1.9c0.7,0,2,0.5,3.8,1.5c1.8,1,3.4,1.5,4.8,1.5c1.9,0,3.4-0.6,4.6-1.7
		c1.2-1.1,1.8-2.5,1.8-4.3c0-2.2-0.9-4-2.6-5.3c-1.7-1.3-4.1-2-7.1-2c-3.3,0-6.3,0.7-9.2,2.2c-2.8,1.5-5.9,4-9.2,7.4v-6.6
		c0-0.6-0.2-1.1-0.7-1.4c-0.5-0.3-1.1-0.5-1.9-0.5H7.2c-2.1,0-3.6,0.4-4.4,1.1c-0.8,0.7-1.2,2-1.2,3.7c0,1.8,0.4,3,1.3,3.8
		c0.9,0.8,2.3,1.1,4.4,1.1h1.9v21.7H5.7c-2.1,0-3.6,0.4-4.5,1.1c-0.9,0.7-1.3,2-1.3,3.7c0,1.8,0.4,3,1.3,3.8
		c0.9,0.8,2.3,1.2,4.4,1.2h25.2c2,0,3.5-0.4,4.3-1.2c0.9-0.8,1.3-2,1.3-3.8c0-1.7-0.4-3-1.3-3.7c-0.9-0.7-2.3-1.1-4.3-1.1H20.3
		v-14.4C22.9,495.2,25.2,493.3,27.2,492L27.2,492z M94.4,504.2c2.7,0,4.4-0.3,5.3-1c0.9-0.7,1.3-1.9,1.3-3.6
		c0-5.5-2.1-10.1-6.4-13.9c-4.3-3.8-9.6-5.7-16.1-5.7c-7.3,0-13.2,2-17.7,6.1c-4.5,4-6.8,9.2-6.8,15.6c0,6.4,2.3,11.6,6.8,15.6
		c4.5,4,10.4,6.1,17.7,6.1c6.2,0,11.3-1,15.5-3c4.2-2,6.3-4.4,6.3-7.2c0-1.3-0.4-2.3-1.1-3.1c-0.7-0.8-1.6-1.2-2.7-1.2
		c-0.8,0-2.9,0.9-6.6,2.7c-3.6,1.8-7.3,2.7-11,2.7s-6.7-0.8-8.9-2.5c-2.2-1.6-3.7-4.1-4.5-7.4H94.4L94.4,504.2z M65.3,497.2
		c0.8-2.9,2.2-5.1,4.2-6.5c2-1.4,4.6-2.2,7.9-2.2c3.4,0,6.1,0.8,8.3,2.3c2.1,1.5,3.4,3.7,3.9,6.4H65.3L65.3,497.2z M138.3,492.4
		c1.9,2.1,2.9,4.8,2.9,8.1c0,3.2-1,5.9-2.9,8c-1.9,2.1-4.4,3.1-7.4,3.1c-2.9,0-5.4-1-7.3-3.1c-1.9-2.1-2.9-4.7-2.9-8
		c0-3.3,1-6,2.9-8.1c1.9-2.1,4.4-3.2,7.3-3.2C133.9,489.3,136.4,490.3,138.3,492.4L138.3,492.4z M136.8,481.1
		c-2-0.8-4.4-1.3-7.1-1.3c-6.2,0-11.4,1.9-15.4,5.8c-4,3.9-6,8.9-6,14.9c0,5.9,1.9,10.6,5.7,14.4c3.8,3.7,8.8,5.6,14.8,5.6
		c2.2,0,4.4-0.3,6.5-0.9c2.1-0.6,4.2-1.5,6.3-2.7v2c0,4.2-0.8,7-2.5,8.6c-1.6,1.6-4.6,2.4-8.9,2.4c-1.9,0-3.9-0.1-6.1-0.4
		c-2.2-0.3-3.5-0.4-3.9-0.4c-1.5,0-2.8,0.4-3.7,1.3c-0.9,0.9-1.4,2.1-1.4,3.5c0,2.1,1.1,3.6,3.4,4.5c2.3,1,5.9,1.4,10.8,1.4
		c7.9,0,13.6-1.5,17.2-4.4c3.6-2.9,5.4-7.7,5.4-14.2v-30.7h0.8c1.6,0,2.8-0.4,3.6-1.2c0.8-0.8,1.2-2.1,1.2-3.7c0-1.7-0.4-3-1.3-3.7
		c-0.8-0.8-2.3-1.1-4.4-1.1h-7.3c-0.9,0-1.5,0.2-2,0.5s-0.7,0.8-0.7,1.4v2.3C140.6,483.3,138.9,482,136.8,481.1L136.8,481.1z
		 M195.3,503.6c0,3-0.8,5.4-2.4,7.2c-1.6,1.8-3.7,2.7-6.1,2.7c-2.3,0-4-0.7-5-2.2c-1-1.5-1.5-4.1-1.5-7.7v-20.7
		c0-0.6-0.2-1.1-0.6-1.4c-0.4-0.3-1-0.5-1.8-0.5h-8.5c-2.1,0-3.6,0.4-4.4,1.1c-0.9,0.7-1.3,2-1.3,3.7c0,1.6,0.4,2.8,1.3,3.7
		c0.8,0.8,2.1,1.2,3.7,1.2h0.8v14.9c0,5.9,1.2,10.4,3.5,13.2c2.3,2.9,5.9,4.3,10.8,4.3c2.8,0,5.3-0.5,7.4-1.6
		c2.1-1.1,3.8-2.7,5.3-4.8v3.4c0,0.6,0.2,1.1,0.7,1.5c0.5,0.4,1.1,0.5,2,0.5h7.6c2.1,0,3.5-0.4,4.4-1.1s1.3-2,1.3-3.8
		c0-1.5-0.4-2.7-1.3-3.6c-0.9-0.8-2.1-1.2-3.7-1.2h-0.7v-29.5c0-0.6-0.2-1.1-0.7-1.4c-0.4-0.3-1.1-0.5-1.9-0.5h-8.5
		c-2.1,0-3.5,0.4-4.4,1.1c-0.8,0.7-1.3,2-1.3,3.7c0,1.6,0.4,2.8,1.2,3.7c0.8,0.8,2,1.2,3.7,1.2h0.7V503.6L195.3,503.6z M249.1,465.7
		c0-0.6-0.2-1.1-0.7-1.4c-0.5-0.3-1.1-0.5-2-0.5h-13.5c-2.1,0-3.5,0.4-4.4,1.2c-0.9,0.8-1.3,2-1.3,3.8c0,1.7,0.4,3,1.3,3.8
		c0.9,0.8,2.3,1.2,4.4,1.2h5v38.7h-9.7c-2.1,0-3.5,0.4-4.3,1.1c-0.8,0.7-1.2,2-1.2,3.7c0,1.8,0.4,3,1.3,3.8c0.9,0.8,2.3,1.2,4.3,1.2
		h30.5c2,0,3.5-0.4,4.3-1.2c0.9-0.8,1.3-2,1.3-3.8c0-1.7-0.4-3-1.3-3.7c-0.8-0.7-2.3-1.1-4.4-1.1h-9.7V465.7L249.1,465.7z
		 M317.2,495.8c0-5.8-1.4-10-4.1-12.4c-2.8-2.4-7.3-3.7-13.7-3.7c-6.1,0-11,0.7-14.5,2.1c-3.6,1.4-5.3,3.3-5.3,5.7
		c0,1.3,0.4,2.4,1.3,3.2c0.9,0.8,2,1.2,3.4,1.2c1.4,0,3.7-0.7,6.8-2.2c3.1-1.5,5.6-2.2,7.6-2.2c2.6,0,4.5,0.7,5.8,2.1
		c1.3,1.4,2,3.4,2,6.1v0.8c-2-0.3-3.8-0.6-5.4-0.7c-1.6-0.1-3.2-0.2-4.6-0.2c-6.5,0-11.5,1.2-15,3.7c-3.6,2.5-5.4,5.9-5.4,10.4
		c0,4.1,1.4,7.4,4.1,9.8c2.8,2.4,6.6,3.6,11.4,3.6c2.9,0,5.7-0.4,8.5-1.3s5.4-2.1,7.9-3.7c0.5,1.5,1.1,2.5,1.8,3.1
		c0.7,0.6,1.9,0.8,3.4,0.8h4.2c2,0,3.5-0.4,4.4-1.1s1.3-2,1.3-3.7c0-1.6-0.4-2.8-1.3-3.6c-0.9-0.8-2.1-1.3-3.7-1.3h-0.7V495.8
		L317.2,495.8z M306.3,510.6c-1.8,1.2-3.6,2.2-5.4,2.8c-1.8,0.6-3.8,0.9-5.9,0.9c-2.2,0-4-0.5-5.2-1.4c-1.2-0.9-1.8-2.2-1.8-3.9
		c0-1.9,0.9-3.4,2.8-4.5c1.9-1.1,4.5-1.6,7.8-1.6c1.1,0,2.2,0.1,3.5,0.2c1.3,0.2,2.6,0.4,4.1,0.7V510.6L306.3,510.6z M359.1,492
		c2-1.3,3.6-1.9,5.1-1.9c0.7,0,2,0.5,3.8,1.5c1.8,1,3.4,1.5,4.8,1.5c1.9,0,3.4-0.6,4.6-1.7c1.2-1.1,1.8-2.5,1.8-4.3
		c0-2.2-0.9-4-2.6-5.3c-1.7-1.3-4.1-2-7.1-2c-3.3,0-6.3,0.7-9.2,2.2c-2.8,1.5-5.9,4-9.2,7.4v-6.6c0-0.6-0.2-1.1-0.7-1.4
		c-0.5-0.3-1.1-0.5-1.9-0.5h-9.6c-2.1,0-3.6,0.4-4.4,1.1c-0.8,0.7-1.2,2-1.2,3.7c0,1.8,0.4,3,1.3,3.8c0.9,0.8,2.3,1.1,4.4,1.1h1.9
		v21.7h-3.4c-2.1,0-3.6,0.4-4.5,1.1c-0.9,0.7-1.3,2-1.3,3.7c0,1.8,0.4,3,1.3,3.8c0.9,0.8,2.3,1.2,4.4,1.2h25.2c2,0,3.5-0.4,4.3-1.2
		c0.9-0.8,1.3-2,1.3-3.8c0-1.7-0.4-3-1.3-3.7c-0.9-0.7-2.3-1.1-4.3-1.1h-10.6v-14.4C354.8,495.2,357.1,493.3,359.1,492L359.1,492z
		 M389.3,497.1c-0.4,0.4-0.5,0.9-0.5,1.5v5.6c0,0.7,0.2,1.3,0.5,1.8c0.3,0.4,0.8,0.7,1.4,0.7H428c0.5,0,1-0.3,1.5-0.8
		c0.5-0.5,0.7-1.1,0.7-1.7v-5.6c0-0.7-0.2-1.2-0.6-1.6c-0.4-0.4-0.9-0.5-1.6-0.5h-37.3C390.1,496.5,389.7,496.7,389.3,497.1
		L389.3,497.1z M461.7,473c0-2.1-0.4-3.5-1.3-4.3c-0.9-0.8-2.3-1.2-4.3-1.2c-2,0-3.4,0.4-4.3,1.2c-0.9,0.8-1.3,2.3-1.3,4.3v10.4
		h-4.2c-2.1,0-3.5,0.4-4.4,1.1c-0.8,0.7-1.3,2-1.3,3.7c0,1.8,0.4,3,1.3,3.8c0.9,0.8,2.3,1.2,4.3,1.2h4.2v11.4v1
		c0,3.9,0.2,6.7,0.6,8.3c0.4,1.7,1.1,3.1,2.1,4.3c1.3,1.5,3.2,2.7,5.5,3.6c2.3,0.8,5.1,1.2,8.1,1.2c5.3,0,10.1-0.9,14.2-2.8
		c4.2-1.9,6.3-4,6.3-6.3c0-1.4-0.4-2.5-1.3-3.5c-0.9-1-1.9-1.4-3.2-1.4c-1.1,0-3.2,0.7-6.4,2c-3.2,1.3-5.9,2-8.3,2
		c-2.5,0-4.2-0.6-5.2-1.8c-1-1.2-1.5-3.4-1.5-6.6v-11.4h13.7c2,0,3.5-0.4,4.4-1.2c0.9-0.8,1.3-2,1.3-3.8c0-1.7-0.4-3-1.3-3.7
		c-0.9-0.7-2.3-1.1-4.4-1.1h-13.7V473L461.7,473z M538.4,495.8c0-5.8-1.4-10-4.1-12.4c-2.8-2.4-7.3-3.7-13.7-3.7
		c-6.1,0-11,0.7-14.5,2.1c-3.6,1.4-5.3,3.3-5.3,5.7c0,1.3,0.4,2.4,1.3,3.2c0.9,0.8,2,1.2,3.4,1.2c1.4,0,3.7-0.7,6.8-2.2
		c3.1-1.5,5.6-2.2,7.6-2.2c2.6,0,4.5,0.7,5.8,2.1c1.3,1.4,2,3.4,2,6.1v0.8c-2-0.3-3.8-0.6-5.4-0.7c-1.6-0.1-3.2-0.2-4.6-0.2
		c-6.5,0-11.5,1.2-15,3.7c-3.6,2.5-5.4,5.9-5.4,10.4c0,4.1,1.4,7.4,4.1,9.8c2.8,2.4,6.6,3.6,11.4,3.6c2.9,0,5.7-0.4,8.5-1.3
		c2.8-0.9,5.4-2.1,7.9-3.7c0.5,1.5,1.1,2.5,1.8,3.1c0.7,0.6,1.9,0.8,3.4,0.8h4.2c2,0,3.5-0.4,4.4-1.1c0.9-0.8,1.3-2,1.3-3.7
		c0-1.6-0.4-2.8-1.3-3.6c-0.9-0.8-2.1-1.3-3.7-1.3h-0.7V495.8L538.4,495.8z M527.6,510.6c-1.8,1.2-3.6,2.2-5.4,2.8
		c-1.8,0.6-3.8,0.9-5.9,0.9c-2.2,0-4-0.5-5.2-1.4c-1.2-0.9-1.8-2.2-1.8-3.9c0-1.9,0.9-3.4,2.8-4.5c1.9-1.1,4.5-1.6,7.8-1.6
		c1.1,0,2.3,0.1,3.5,0.2c1.3,0.2,2.6,0.4,4.1,0.7V510.6L527.6,510.6z M584.6,493.7c1.9,2.2,2.9,5,2.9,8.3c0,3.4-1,6.2-2.9,8.4
		c-1.9,2.2-4.4,3.3-7.4,3.3c-3,0-5.4-1.1-7.3-3.3c-1.9-2.2-2.9-5-2.9-8.4c0-3.4,1-6.1,2.9-8.3c1.9-2.2,4.4-3.3,7.3-3.3
		C580.2,490.4,582.6,491.5,584.6,493.7L584.6,493.7z M567.3,466.7c0-1-0.2-1.8-0.7-2.3c-0.4-0.5-1.1-0.7-2.1-0.7h-8.4
		c-2.1,0-3.5,0.4-4.4,1.2c-0.9,0.8-1.3,2-1.3,3.8c0,1.6,0.4,2.8,1.3,3.7c0.9,0.8,2.1,1.3,3.7,1.3h0.7v38.7h-0.7
		c-1.6,0-2.8,0.4-3.7,1.2c-0.8,0.8-1.2,2-1.2,3.6c0,1.8,0.4,3.1,1.3,3.8s2.3,1.1,4.3,1.1h6.9c0.8,0,1.5-0.2,2-0.5
		c0.5-0.3,0.7-0.8,0.7-1.4v-2.9c1.4,2,3.1,3.5,5.2,4.5c2.1,1,4.7,1.5,7.6,1.5c6.1,0,11.3-2,15.3-5.9c4.1-3.9,6.1-8.8,6.1-14.6
		c0-6.4-2-11.6-6-15.7c-4-4.1-9.1-6.1-15.3-6.1c-2.2,0-4.2,0.4-6.2,1.1c-2,0.7-3.7,1.7-5.1,2.9V466.7L567.3,466.7z M636.2,465.7
		c0-0.6-0.2-1.1-0.7-1.4c-0.5-0.3-1.1-0.5-2-0.5h-13.5c-2.1,0-3.5,0.4-4.4,1.2c-0.9,0.8-1.3,2-1.3,3.8c0,1.7,0.4,3,1.3,3.8
		c0.9,0.8,2.3,1.2,4.4,1.2h5v38.7h-9.7c-2.1,0-3.5,0.4-4.3,1.1c-0.8,0.7-1.2,2-1.2,3.7c0,1.8,0.4,3,1.3,3.8c0.9,0.8,2.3,1.2,4.3,1.2
		h30.5c2,0,3.5-0.4,4.3-1.2c0.9-0.8,1.3-2,1.3-3.8c0-1.7-0.4-3-1.3-3.7c-0.8-0.7-2.3-1.1-4.4-1.1h-9.7V465.7L636.2,465.7z
		 M702.8,504.2c2.7,0,4.4-0.3,5.3-1c0.9-0.7,1.3-1.9,1.3-3.6c0-5.5-2.1-10.1-6.4-13.9c-4.3-3.8-9.6-5.7-16.1-5.7
		c-7.3,0-13.2,2-17.7,6.1c-4.5,4-6.8,9.2-6.8,15.6c0,6.4,2.3,11.6,6.8,15.6c4.5,4,10.4,6.1,17.7,6.1c6.2,0,11.3-1,15.5-3
		c4.2-2,6.3-4.4,6.3-7.2c0-1.3-0.4-2.3-1.1-3.1c-0.7-0.8-1.6-1.2-2.7-1.2c-0.8,0-2.9,0.9-6.6,2.7c-3.6,1.8-7.3,2.7-11,2.7
		c-3.7,0-6.7-0.8-8.9-2.5c-2.2-1.6-3.7-4.1-4.5-7.4H702.8L702.8,504.2z M673.8,497.2c0.8-2.9,2.2-5.1,4.2-6.5c2-1.4,4.6-2.2,7.9-2.2
		c3.4,0,6.1,0.8,8.3,2.3c2.1,1.5,3.4,3.7,3.9,6.4H673.8L673.8,497.2z"/>
</g>
</svg>
