<?xml version="1.0" encoding="UTF-8"?><svg id="Layer_1" xmlns="http://www.w3.org/2000/svg" viewBox="0 0 1626.79 455.37"><defs><style>.cls-1,.cls-2,.cls-3,.cls-4,.cls-5{stroke-width:0px;}.cls-2{fill:#c02f86;}.cls-3{fill:#bfd857;}.cls-4{fill:#89cda7;}.cls-5{fill:#ef509c;}</style></defs><polygon class="cls-5" points="249.1 454.65 249.1 419.92 0 170.82 0 207 248.38 455.37 249.1 454.65 249.1 454.65"/><polygon class="cls-5" points="25.58 258.54 0 232.96 0 455.37 25.58 455.37 25.58 258.54 25.58 258.54"/><polygon class="cls-2" points="229.03 153.46 25.58 .15 25.58 0 25.38 0 25.38 0 25.38 0 0 0 0 145.24 25.58 170.82 25.58 32.18 186.53 153.46 229.03 153.46 229.03 153.46"/><polygon class="cls-2" points="51.15 196.4 249.1 196.4 249.1 170.82 25.58 170.82 51.15 196.4 51.15 196.4"/><polygon class="cls-4" points="206.27 .72 206.27 35.45 455.37 284.55 455.37 248.38 206.99 0 206.27 .72 206.27 .72"/><polygon class="cls-4" points="429.79 196.83 455.37 222.41 455.37 0 429.79 0 429.79 196.83 429.79 196.83"/><polygon class="cls-3" points="226.35 301.91 429.79 455.22 429.79 455.37 429.99 455.37 429.99 455.37 429.99 455.37 455.37 455.37 455.37 310.13 429.79 284.55 429.79 423.19 268.85 301.91 226.35 301.91 226.35 301.91"/><polygon class="cls-3" points="404.22 258.97 206.27 258.97 206.27 284.55 429.79 284.55 404.22 258.97 404.22 258.97"/><path class="cls-1" d="M662.45,365.7V107.91h64.31c14.81,0,27.08,2.52,36.82,7.54,9.74,5.03,17.02,12.13,21.87,21.32,4.84,9.19,7.27,19.91,7.27,32.15s-2.4,22.85-7.2,31.81c-4.8,8.96-12.07,15.86-21.8,20.71-9.74,4.85-21.92,7.27-36.54,7.27h-76.51v23.45h77.2c19.75,0,36.29-3.52,49.64-10.56,13.35-7.04,23.42-16.82,30.24-29.34,6.81-12.52,10.21-26.97,10.21-43.33s-3.41-30.87-10.21-43.54c-6.81-12.66-16.91-22.58-30.3-29.75-13.39-7.18-30.05-10.76-49.98-10.76h-90.63v280.82h25.64ZM731.69,239l68.42,126.7h29.62l-69.11-126.7h-28.93ZM1067.63,269.03c0,14.9-3.31,28.18-9.94,39.83-6.63,11.65-16.02,20.82-28.18,27.49-12.16,6.67-26.37,10.01-42.64,10.01s-30.46-3.34-42.58-10.01c-12.11-6.67-21.51-15.84-28.18-27.49-6.67-11.66-10.01-24.93-10.01-39.83V84.88h-25.64v185.93c0,19.11,4.48,36.16,13.44,51.15,8.96,14.99,21.44,26.83,37.43,35.51,16,8.69,34.51,13.03,55.53,13.03s39.65-4.32,55.6-12.96c15.95-8.64,28.41-20.48,37.37-35.51,8.96-15.04,13.44-32.11,13.44-51.21V84.88h-25.64v184.15h0ZM1361.33,84.88v235.43h-2.19l-166.46-235.43h-24.82v280.82h25.64v-235.16h2.19l165.91,235.16h24.96V84.88h-25.23ZM1626.79,365.7v-23.04h-140v-105.99h128.62v-23.03h-128.62v-105.72h137.26v-23.04h-162.9v280.82h165.64Z"/></svg>