<?xml version="1.0" encoding="utf-8"?>
<!-- Generator: Adobe Illustrator 24.1.2, SVG Export Plug-In . SVG Version: 6.00 Build 0)  -->
<svg version="1.1" id="Layer_1" xmlns="http://www.w3.org/2000/svg" xmlns:xlink="http://www.w3.org/1999/xlink" x="0px" y="0px"
	 viewBox="0 0 800 720" style="enable-background:new 0 0 800 720;" xml:space="preserve">
<style type="text/css">
	.st0{fill:#00599C;}
	.st1{fill:#6D6E71;}
</style>
<g>
	<g>
		<path class="st0" d="M476.72,164.05l-78.54-24.17c-1.14-0.35-2.36-0.35-3.5,0l-78.54,24.17c-2.64,0.8-4.41,3.28-4.29,6.04v45.19
			c0.12,34.06,17.77,65.65,46.7,83.62l34.74,21.33c1.87,1.08,4.17,1.08,6.04,0l34.74-21.33c29.03-17.91,46.77-49.51,46.95-83.62
			v-45.19C481.13,167.33,479.36,164.84,476.72,164.05z"/>
		<path class="st1" d="M504.33,321.28c-13.1,13.97-29.07,25.67-47.67,33.95c-19.59,8.72-40.04,12.84-60.15,12.84
			c-45.32-0.01-88.92-20.98-117.14-57.53c4.86-4.26,7.65-10.4,7.65-16.77c0-3.01-0.62-6.06-1.91-8.96
			c-3.69-8.28-11.83-13.17-20.32-13.15c-3.08,0-6.2,0.64-9.15,1.96c-8.32,3.7-13.3,11.85-13.3,20.4c0,3.01,0.62,6.07,1.92,8.98l0,0
			c3.68,8.25,11.81,13.15,20.31,13.14c1.53,0,3.06-0.15,4.59-0.48c30.31,40.4,77.89,63.62,127.36,63.61
			c21.64,0,43.66-4.43,64.71-13.8c20.58-9.18,38.19-22.24,52.5-37.86C510.11,326.4,506.88,324.23,504.33,321.28z M254.47,298.43
			c-0.65-1.46-0.95-2.95-0.95-4.43c0.01-4.24,2.46-8.32,6.66-10.17c1.53-0.68,3.09-1,4.61-1c4.27,0.02,8.29,2.43,10.1,6.51
			c0.65,1.45,0.94,2.93,0.94,4.42c0,4.21-2.47,8.32-6.69,10.2c-1.49,0.67-3.04,0.98-4.58,0.98
			C260.29,304.93,256.27,302.5,254.47,298.43 M247.89,259.34c1.74-0.78,3.53-1.33,5.33-1.7c-3.29-12.46-4.89-25.07-4.89-37.57
			c0.01-56.71,32.74-110.82,87.89-135.36c12.99-5.79,26.35-9.42,39.74-11.29c3.83,7.79,11.68,12.42,19.93,12.41
			c3.05,0,6.17-0.62,9.13-1.94c8.32-3.74,13.31-11.87,13.31-20.43c0-2.99-0.61-6.04-1.9-8.96c-3.69-8.27-11.83-13.16-20.32-13.15
			c-3.07,0-6.19,0.64-9.15,1.96c-7.91,3.51-12.75,11.05-13.22,19.13c-14.19,2.04-28.35,5.93-42.07,12.05
			c-59.32,26.4-94.55,84.6-94.54,145.58c0,14.06,1.91,28.26,5.79,42.26C244.45,261.18,246.07,260.14,247.89,259.34z M385.8,68.14
			c-0.65-1.45-0.96-2.94-0.96-4.43c0.01-4.23,2.47-8.32,6.66-10.17c1.53-0.69,3.09-0.99,4.61-0.99c4.27,0.01,8.29,2.42,10.11,6.51
			c0.64,1.43,0.93,2.92,0.93,4.41c0,4.22-2.48,8.35-6.68,10.22c-1.49,0.65-3.03,0.97-4.57,0.97
			C391.62,74.63,387.59,72.2,385.8,68.14 M545.01,277.08c6.98-18.12,10.71-37.49,10.7-57.18c0-21.65-4.43-43.66-13.8-64.69
			c-20.99-47.12-62.05-78.97-108.6-90.1c0.38,3.84-0.29,7.64-1.89,11.06c43,10.5,80.87,40.01,100.27,83.59
			c8.72,19.59,12.85,40.03,12.85,60.15c0,18.3-3.47,36.31-9.96,53.15c-0.84-0.09-1.68-0.18-2.53-0.18c-3.07,0-6.19,0.64-9.14,1.96
			c-8.34,3.69-13.32,11.84-13.31,20.39c0,3.02,0.62,6.09,1.92,9h0c3.68,8.23,11.8,13.13,20.31,13.12c3.05,0,6.16-0.62,9.13-1.94
			c8.32-3.73,13.31-11.86,13.31-20.42c0-2.99-0.61-6.05-1.9-8.96C550.7,282.29,548.1,279.3,545.01,277.08z M521.73,299.66
			c-0.66-1.46-0.96-2.95-0.96-4.43c0.01-4.25,2.47-8.32,6.66-10.17c1.53-0.68,3.09-1,4.61-1c4.28,0.02,8.3,2.42,10.11,6.52
			c0.64,1.44,0.94,2.92,0.94,4.41c0,4.22-2.47,8.34-6.68,10.21c-1.49,0.66-3.05,0.97-4.58,0.97
			C527.54,306.14,523.51,303.71,521.73,299.66"/>
	</g>
	<g>
		<path class="st0" d="M125.91,494.92v-2.25c0-13.65-3.93-16.46-23.2-16.46c-22.63,0-27.12,2.8-27.12,17.02
			c0,8.98,2.25,13.1,8.23,14.97c3.18,0.93,4.3,0.93,23.75,2.06c20.95,1.31,28.06,2.62,34.04,6.92c7.67,5.24,10.29,12.53,10.29,28.43
			c0,15.52-2.25,23.94-7.67,29.36c-7.49,7.29-17.02,9.35-43.02,9.35c-22.63,0-30.3-1.31-38.53-6.17c-4.67-2.81-8.6-8.79-9.91-15.34
			c-1.12-5.42-1.31-9.16-1.5-19.08h23.01c0,9.35,0.56,12.53,2.62,15.71c3,5.05,5.99,5.61,25.44,5.61c14.03,0,17.96-0.56,21.51-3.37
			c3.18-2.25,4.49-7.11,4.49-15.71c0-8.23-1.87-12.16-6.92-13.84c-3-1.12-3-1.12-23.75-2.43c-21.32-1.31-25.81-2.06-32.17-5.05
			c-9.91-4.86-13.84-13.84-13.84-31.05c0-14.78,3.18-23.94,9.91-28.81c7.67-5.8,17.39-7.48,40.59-7.48
			c23.38,0,33.48,2.43,39.65,9.35c4.86,5.43,7.11,12.91,7.11,23.76v4.49H125.91z"/>
		<path class="st0" d="M197.18,510.63h58.17v17.59h-58.17v35.16h61.91v19.83h-85.85V458.45h85.3v19.83h-61.35V510.63z"/>
		<path class="st0" d="M380.69,538.69v4.3c0,18.71-1.87,25.62-8.61,31.98c-3.93,3.74-10.48,6.92-17.39,8.23
			c-3.93,0.56-14.97,1.12-26,1.12c-21.51,0-27.31-0.93-35.54-5.61c-10.85-5.8-15.53-15.15-16.84-32.92
			c-0.56-7.11-0.93-22.45-0.93-33.85c0-26,2.43-35.54,10.85-43.58c9.35-8.98,18.71-11.04,49.01-11.04c19.83,0,27.68,1.68,34.04,7.11
			c5.24,4.49,8.42,11.03,9.54,20.2c0.37,3,0.56,6.74,0.75,15.34h-23.75c-0.38-20.01-2.62-22.07-23.94-22.07
			c-15.9,0-22.82,1.31-26.56,4.86c-3.18,3.18-4.49,7.67-4.87,17.21c-0.19,3.18-0.19,3.18-0.19,20.2c0,40.96,1.68,43.58,28.43,43.58
			c24.32,0,28.43-3,28.43-19.83c0-1.12,0-2.81-0.19-5.24H380.69z"/>
		<path class="st0" d="M504.53,458.45v83.05c0,15.34-1.87,23.75-6.55,29.93c-3.74,4.86-9.16,8.61-16.27,10.66
			c-4.86,1.5-14.59,2.24-28.99,2.24c-18.33,0-26.75-0.93-34.04-4.12c-13.47-5.8-17.77-14.77-17.77-37.41v-84.35h23.94v84.35
			c0,18.14,3.74,20.95,28.06,20.95c24.31,0,27.68-2.62,27.68-21.88v-83.42H504.53z"/>
		<path class="st0" d="M531.11,458.45h61.35c30.11,0,40.4,9.35,40.4,37.22c0,24.87-4.3,31.61-22.44,35.16v0.94
			c14.22,0.75,21.32,9.16,21.13,24.32v27.12h-24.13v-22.45c0.38-13.65-5.42-19.45-18.7-19.08h-33.67v41.52h-23.94V458.45z
			 M588.53,521.29c7.48,0,12.35-1.12,15.15-3.74c3.93-3.18,4.87-6.92,4.87-17.58c0-17.58-3-20.95-18.33-20.95h-35.17v42.27H588.53z"
			/>
		<path class="st0" d="M678.89,510.63h58.17v17.59h-58.17v35.16h61.91v19.83h-85.85V458.45h85.3v19.83h-61.35V510.63z"/>
		<path class="st1" d="M69.99,676.74H41.66v-49.2h28.34v8.55h-17.9v10.8h16.66v8.55H52.09v12.69h17.9V676.74z"/>
		<path class="st1" d="M81.98,676.74v-49.2h10.43v40.59h19.96v8.62H81.98z"/>
		<path class="st1" d="M150.97,676.74h-28.34v-49.2h28.34v8.55h-17.9v10.8h16.66v8.55h-16.66v12.69h17.9V676.74z"/>
		<path class="st1" d="M183.86,635.51c-3.93,0-6.97,1.48-9.12,4.43c-2.15,2.95-3.23,7.06-3.23,12.33c0,10.97,4.12,16.46,12.35,16.46
			c3.46,0,7.64-0.87,12.55-2.59v8.75c-4.04,1.68-8.55,2.52-13.53,2.52c-7.16,0-12.63-2.17-16.42-6.51
			c-3.79-4.35-5.69-10.58-5.69-18.7c0-5.12,0.93-9.6,2.79-13.45c1.86-3.85,4.54-6.8,8.03-8.85c3.49-2.06,7.58-3.08,12.26-3.08
			c4.78,0,9.58,1.15,14.4,3.47l-3.37,8.48c-1.84-0.88-3.69-1.64-5.55-2.29C187.48,635.84,185.65,635.51,183.86,635.51z"/>
		<path class="st1" d="M227.58,676.74h-10.43v-40.52h-13.36v-8.68h37.15v8.68h-13.36V676.74z"/>
		<path class="st1" d="M260.67,657.86v18.88h-10.43v-49.2h14.34c6.69,0,11.63,1.22,14.84,3.65c3.21,2.43,4.81,6.13,4.81,11.09
			c0,2.89-0.8,5.47-2.39,7.72c-1.59,2.26-3.85,4.02-6.76,5.3c7.4,11.06,12.23,18.21,14.47,21.44h-11.58l-11.74-18.88H260.67z
			 M260.67,649.38h3.37c3.3,0,5.73-0.55,7.3-1.65c1.57-1.1,2.36-2.83,2.36-5.18c0-2.33-0.8-4-2.41-4.98
			c-1.6-0.99-4.09-1.48-7.45-1.48h-3.16V649.38z"/>
		<path class="st1" d="M342.11,652.07c0,8.14-2.02,14.4-6.06,18.78c-4.04,4.37-9.83,6.56-17.36,6.56s-13.33-2.19-17.36-6.56
			c-4.04-4.37-6.06-10.66-6.06-18.85c0-8.19,2.02-14.44,6.07-18.76c4.05-4.32,9.86-6.48,17.42-6.48c7.56,0,13.34,2.18,17.35,6.53
			C340.11,637.64,342.11,643.9,342.11,652.07z M306.21,652.07c0,5.5,1.04,9.63,3.13,12.42c2.09,2.78,5.21,4.17,9.36,4.17
			c8.32,0,12.49-5.53,12.49-16.59c0-11.08-4.14-16.62-12.42-16.62c-4.15,0-7.28,1.4-9.39,4.19
			C307.26,642.43,306.21,646.58,306.21,652.07z"/>
		<path class="st1" d="M397.68,676.74h-13.26l-21.4-37.22h-0.3c0.43,6.57,0.64,11.26,0.64,14.07v23.15h-9.32v-49.2h13.16
			l21.37,36.85h0.24c-0.34-6.39-0.5-10.91-0.5-13.56v-23.29h9.39V676.74z"/>
		<path class="st1" d="M469.94,676.74l-3.57-11.71h-17.94l-3.57,11.71h-11.24l17.36-49.4h12.75l17.43,49.4H469.94z M463.89,656.28
			c-3.3-10.61-5.15-16.61-5.57-18c-0.41-1.39-0.71-2.49-0.89-3.3c-0.74,2.87-2.86,9.97-6.36,21.3H463.89z"/>
		<path class="st1" d="M529.92,651.67c0,8.1-2.3,14.3-6.92,18.61c-4.61,4.31-11.26,6.46-19.97,6.46H489.1v-49.2h15.45
			c8.03,0,14.27,2.12,18.71,6.36C527.7,638.14,529.92,644.06,529.92,651.67z M519.08,651.94c0-10.57-4.67-15.85-14-15.85h-5.55
			v32.04h4.48C514.06,668.12,519.08,662.73,519.08,651.94z"/>
		<path class="st1" d="M571.96,676.74l-3.57-11.71h-17.94l-3.57,11.71h-11.24l17.36-49.4h12.75l17.43,49.4H571.96z M565.9,656.28
			c-3.3-10.61-5.15-16.61-5.57-18c-0.41-1.39-0.71-2.49-0.89-3.3c-0.74,2.87-2.86,9.97-6.36,21.3H565.9z"/>
		<path class="st1" d="M625.1,642.88c0,5.29-1.65,9.35-4.96,12.15c-3.31,2.8-8.02,4.21-14.12,4.21h-4.48v17.5h-10.43v-49.2h15.72
			c5.97,0,10.5,1.28,13.61,3.86C623.55,633.96,625.1,637.79,625.1,642.88z M601.55,650.69h3.43c3.21,0,5.61-0.63,7.2-1.9
			c1.59-1.26,2.39-3.11,2.39-5.53c0-2.45-0.67-4.25-2-5.42c-1.33-1.17-3.42-1.75-6.27-1.75h-4.74V650.69z"/>
		<path class="st1" d="M655.1,676.74h-10.43v-40.52H631.3v-8.68h37.15v8.68H655.1V676.74z"/>
		<path class="st1" d="M706.09,676.74h-28.34v-49.2h28.34v8.55h-17.9v10.8h16.66v8.55h-16.66v12.69h17.9V676.74z"/>
		<path class="st1" d="M728.5,657.86v18.88h-10.43v-49.2h14.34c6.69,0,11.63,1.22,14.84,3.65c3.21,2.43,4.81,6.13,4.81,11.09
			c0,2.89-0.8,5.47-2.39,7.72c-1.59,2.26-3.85,4.02-6.76,5.3c7.4,11.06,12.23,18.21,14.47,21.44H745.8l-11.74-18.88H728.5z
			 M728.5,649.38h3.37c3.3,0,5.73-0.55,7.3-1.65c1.57-1.1,2.36-2.83,2.36-5.18c0-2.33-0.8-4-2.41-4.98
			c-1.6-0.99-4.09-1.48-7.45-1.48h-3.16V649.38z"/>
	</g>
</g>
</svg>
