<?xml version="1.0" encoding="utf-8"?>
<!-- Generator: Adobe Illustrator 24.1.0, SVG Export Plug-In . SVG Version: 6.00 Build 0)  -->
<svg version="1.1" id="Layer_1" xmlns="http://www.w3.org/2000/svg" xmlns:xlink="http://www.w3.org/1999/xlink" x="0px" y="0px"
	 viewBox="0 0 413.75 540.16" style="enable-background:new 0 0 413.75 540.16;" xml:space="preserve">
<style type="text/css">
	.st0{fill:#041E42;}
	.st1{fill:#0047BB;}
	.st2{clip-path:url(#SVGID_2_);}
	.st3{clip-path:url(#SVGID_7_);}
</style>
<path class="st0" d="M23.15,539.26c5.55-0.03,10.59-1.36,15.1-3.99s8.01-6.28,10.49-10.93c2.48-4.66,3.73-9.93,3.73-15.8v-2.95
	c-0.03-5.82-1.32-11.07-3.86-15.76s-6.08-8.32-10.6-10.89c-4.53-2.57-9.63-3.86-15.3-3.86H2.03v64.19h21.12V539.26z M22.7,487.02
	c4.56,0,8.02,1.57,10.4,4.72c2.38,3.14,3.57,7.82,3.57,14.02v2.78c0,6.23-1.19,10.93-3.57,14.09s-5.79,4.74-10.23,4.74H17.5v-40.34
	L22.7,487.02L22.7,487.02z M101.44,539.26v-0.75c-1.29-2.32-1.97-5.67-2.03-10.05v-21.12c-0.09-5.17-1.9-9.24-5.42-12.21
	c-3.53-2.97-8.33-4.45-14.42-4.45s-11.09,1.44-15.01,4.32c-3.92,2.88-5.89,6.62-5.89,11.23h14.86c0-3.48,1.76-5.23,5.29-5.23
	c3.79,0,5.69,2.2,5.69,6.6v2.53h-4.58c-7.29,0-12.84,1.32-16.66,3.97c-3.82,2.64-5.73,6.55-5.73,11.73c0,4.11,1.57,7.53,4.72,10.25
	c3.14,2.72,6.97,4.08,11.46,4.08c4.91,0,8.73-1.72,11.46-5.16c0.41,1.88,0.88,3.31,1.41,4.28h14.85V539.26z M73.8,528.31
	c-0.91-0.84-1.37-1.93-1.37-3.28c0-4.64,2.59-6.97,7.76-6.97h4.32v7.63c-0.53,1-1.4,1.9-2.62,2.69s-2.76,1.19-4.61,1.19
	C75.87,529.57,74.71,529.15,73.8,528.31L73.8,528.31z M110.08,479.7v11.86H104v10.32h6.08v23.67c0,4.91,1.22,8.57,3.66,10.98
	s6.22,3.61,11.33,3.61c2.91,0,5.7-0.43,8.38-1.28v-10.62c-1,0.18-2.23,0.27-3.7,0.27c-1.91,0-3.19-0.35-3.84-1.06
	c-0.65-0.71-0.97-1.95-0.97-3.75v-21.82h7.85v-10.32h-7.85V479.7L110.08,479.7L110.08,479.7z M180.36,539.26v-0.75
	c-1.29-2.32-1.97-5.67-2.03-10.05v-21.12c-0.09-5.17-1.9-9.24-5.42-12.21c-3.53-2.97-8.33-4.45-14.42-4.45
	c-6.08,0-11.09,1.44-15.01,4.32s-5.89,6.62-5.89,11.23h14.86c0-3.48,1.76-5.23,5.29-5.23c3.79,0,5.69,2.2,5.69,6.6v2.53h-4.58
	c-7.29,0-12.84,1.32-16.67,3.97c-3.82,2.64-5.73,6.55-5.73,11.73c0,4.11,1.57,7.53,4.72,10.25s6.97,4.08,11.46,4.08
	c4.91,0,8.73-1.72,11.46-5.16c0.41,1.88,0.88,3.31,1.41,4.28h14.86V539.26z M152.72,528.31c-0.91-0.84-1.37-1.93-1.37-3.28
	c0-4.64,2.59-6.97,7.76-6.97h4.32v7.63c-0.53,1-1.4,1.9-2.62,2.69s-2.76,1.19-4.61,1.19C154.79,529.57,153.63,529.15,152.72,528.31
	L152.72,528.31z"/>
<path class="st1" d="M37.21,456.8h16.58v-0.66l-13.4-25.92c3.85-1.82,6.68-4.2,8.49-7.13c1.81-2.94,2.71-6.64,2.71-11.1
	c0-6.17-2.15-10.94-6.44-14.31c-4.29-3.38-10.24-5.07-17.85-5.07H2.03v64.19H17.5v-22.7h8.38L37.21,456.8L37.21,456.8z M17.5,404.52
	h9.79c2.91,0,5.11,0.79,6.61,2.36c1.5,1.58,2.25,3.75,2.25,6.52s-0.74,4.93-2.23,6.48c-1.48,1.55-3.7,2.32-6.63,2.32H17.5V404.52
	L17.5,404.52z M94.28,455.42c3.39-1.51,6.02-3.55,7.87-6.11l-6.79-8.02c-2.64,3.29-6.32,4.94-11.02,4.94
	c-2.85,0-5.17-0.76-6.97-2.29c-1.79-1.53-2.95-3.63-3.48-6.31h29.54v-5.77c0-7.43-1.94-13.23-5.82-17.39s-9.17-6.24-15.87-6.24
	c-4.76,0-8.88,1.02-12.34,3.06c-3.47,2.04-6.11,4.93-7.91,8.66c-1.81,3.73-2.71,8.04-2.71,12.92v1.23c0,7,2.26,12.67,6.79,17.04
	c4.53,4.36,10.45,6.55,17.77,6.55C87.23,457.69,90.88,456.93,94.28,455.42L94.28,455.42z M87.07,421.65
	c1.26,1.31,1.87,3.15,1.81,5.53v1.15H73.89c0.82-5.76,3.41-8.64,7.76-8.64C84,419.68,85.81,420.34,87.07,421.65L87.07,421.65z
	 M127.59,456.8v-37.38h9.3V409.1h-9.3v-3.66c0-3.88,2.25-5.82,6.74-5.82c1.53,0,2.75,0.13,3.66,0.4l-0.04-10.93
	c-2.53-0.62-4.85-0.93-6.97-0.93c-5.79,0-10.29,1.5-13.49,4.5s-4.81,7.22-4.81,12.65v3.79h-6.92v10.32h6.92v37.38H127.59
	L127.59,456.8z M175.09,455.42c3.39-1.51,6.02-3.55,7.87-6.11l-6.79-8.02c-2.65,3.29-6.32,4.94-11.02,4.94
	c-2.85,0-5.17-0.76-6.96-2.29c-1.79-1.53-2.95-3.63-3.48-6.31h29.54v-5.77c0-7.43-1.94-13.23-5.82-17.39s-9.17-6.24-15.87-6.24
	c-4.76,0-8.88,1.02-12.34,3.06c-3.47,2.04-6.11,4.93-7.91,8.66c-1.81,3.73-2.71,8.04-2.71,12.92v1.23c0,7,2.26,12.67,6.79,17.04
	c4.52,4.36,10.45,6.55,17.77,6.55C168.04,457.69,171.69,456.93,175.09,455.42L175.09,455.42z M167.88,421.65
	c1.26,1.31,1.87,3.15,1.81,5.53v1.15H154.7c0.82-5.76,3.41-8.64,7.76-8.64C164.81,419.68,166.62,420.34,167.88,421.65L167.88,421.65
	z M219.33,408.75c-1.17-0.35-2.56-0.53-4.14-0.53c-4.47,0-7.95,2.34-10.45,7.01l-0.49-6.13h-13.93v47.7h14.86v-30.2
	c1.32-2.94,4.32-4.41,8.99-4.41l4.89,0.35L219.33,408.75L219.33,408.75z M257.62,455.42c3.39-1.51,6.02-3.55,7.87-6.11l-6.79-8.02
	c-2.65,3.29-6.32,4.94-11.02,4.94c-2.85,0-5.17-0.76-6.97-2.29c-1.79-1.53-2.95-3.63-3.48-6.31h29.54v-5.77
	c0-7.43-1.94-13.23-5.82-17.39s-9.17-6.24-15.87-6.24c-4.76,0-8.88,1.02-12.34,3.06c-3.47,2.04-6.11,4.93-7.91,8.66
	c-1.81,3.73-2.71,8.04-2.71,12.92v1.23c0,7,2.26,12.67,6.79,17.04c4.53,4.36,10.45,6.55,17.77,6.55
	C250.57,457.69,254.22,456.93,257.62,455.42L257.62,455.42z M250.41,421.65c1.26,1.31,1.87,3.15,1.81,5.53v1.15h-14.99
	c0.82-5.76,3.41-8.64,7.76-8.64C247.34,419.68,249.15,420.34,250.41,421.65L250.41,421.65z M272.45,409.1v47.7h14.86v-33.68
	c1.41-2.29,3.57-3.44,6.48-3.44c2.56,0,4.32,0.57,5.29,1.7s1.45,2.9,1.45,5.31v30.11h14.9v-30.73c-0.09-5.97-1.36-10.43-3.81-13.4
	s-6.16-4.45-11.13-4.45c-5.79,0-10.33,2.16-13.62,6.48l-0.48-5.6H272.45L272.45,409.1z M338.36,443.45
	c-1.15-1.85-1.72-5.17-1.72-9.96c0-2.73,0.1-4.88,0.31-6.44c0.65-4.91,2.89-7.36,6.74-7.36c2.03,0,3.64,0.66,4.85,1.98
	c1.2,1.32,1.81,3.22,1.81,5.69h13.93c0-5.88-1.82-10.54-5.47-13.98c-3.64-3.44-8.57-5.16-14.77-5.16c-4.58,0-8.55,0.99-11.9,2.98
	c-3.35,1.98-5.92,4.82-7.69,8.51c-1.78,3.69-2.67,7.94-2.67,12.76v0.62c0,7.7,2,13.73,6,18.08c4,4.35,9.46,6.52,16.4,6.52
	c5.91,0,10.73-1.68,14.48-5.03s5.62-7.64,5.62-12.87h-13.93c0.03,2.03-0.53,3.61-1.67,4.74c-1.15,1.13-2.76,1.7-4.85,1.7
	C341.33,446.22,339.51,445.3,338.36,443.45L338.36,443.45z M404.6,455.42c3.4-1.51,6.02-3.55,7.87-6.11l-6.79-8.02
	c-2.65,3.29-6.32,4.94-11.02,4.94c-2.85,0-5.17-0.76-6.97-2.29c-1.79-1.53-2.95-3.63-3.48-6.31h29.54v-5.77
	c0-7.43-1.94-13.23-5.82-17.39s-9.17-6.24-15.87-6.24c-4.76,0-8.88,1.02-12.34,3.06c-3.47,2.04-6.11,4.93-7.91,8.66
	c-1.81,3.73-2.71,8.04-2.71,12.92v1.23c0,7,2.26,12.67,6.79,17.04c4.53,4.36,10.45,6.55,17.77,6.55
	C397.56,457.69,401.21,456.93,404.6,455.42L404.6,455.42z M397.39,421.65c1.26,1.31,1.87,3.15,1.81,5.53v1.15h-14.99
	c0.82-5.76,3.41-8.64,7.76-8.64C394.32,419.68,396.13,420.34,397.39,421.65L397.39,421.65z"/>
<path class="st0" d="M32.91,361.93c-1.48,1.1-3.5,1.65-6.06,1.65c-4,0-6.89-0.82-8.66-2.45c-1.78-1.63-2.67-4.17-2.67-7.6H0
	c0,4.23,1.06,7.97,3.2,11.22c2.13,3.25,5.3,5.81,9.52,7.67c4.22,1.87,8.93,2.8,14.13,2.8c7.38,0,13.18-1.6,17.41-4.81
	c4.23-3.2,6.35-7.61,6.35-13.23c0-7.02-3.47-12.54-10.4-16.53c-2.85-1.65-6.5-3.18-10.93-4.61c-4.44-1.42-7.54-2.81-9.3-4.14
	c-1.76-1.34-2.65-2.83-2.65-4.48c0-1.88,0.8-3.43,2.4-4.65s3.78-1.83,6.55-1.83c2.73,0,4.9,0.72,6.5,2.16
	c1.6,1.44,2.4,3.47,2.4,6.08h15.43c0-3.91-1.01-7.38-3.04-10.43c-2.03-3.04-4.87-5.39-8.53-7.03c-3.66-1.65-7.8-2.47-12.41-2.47
	c-4.73,0-8.99,0.76-12.78,2.27c-3.79,1.51-6.72,3.63-8.8,6.35c-2.07,2.72-3.11,5.86-3.11,9.41c0,7.14,4.16,12.76,12.48,16.84
	c2.56,1.26,5.85,2.57,9.88,3.92s6.84,2.66,8.44,3.92c1.6,1.26,2.4,3.03,2.4,5.29C35.14,359.28,34.39,360.83,32.91,361.93
	L32.91,361.93z M91.9,372.96c3.39-1.51,6.02-3.55,7.87-6.11l-6.79-8.02c-2.65,3.29-6.32,4.94-11.02,4.94
	c-2.85,0-5.17-0.76-6.96-2.29s-2.95-3.63-3.48-6.3h29.54v-5.78c0-7.43-1.94-13.23-5.82-17.39c-3.88-4.16-9.17-6.24-15.87-6.24
	c-4.76,0-8.88,1.02-12.34,3.06c-3.47,2.04-6.11,4.93-7.91,8.66c-1.81,3.73-2.71,8.04-2.71,12.92v1.23c0,7,2.26,12.68,6.79,17.04
	c4.53,4.36,10.45,6.55,17.77,6.55C84.85,375.23,88.5,374.47,91.9,372.96L91.9,372.96z M84.69,339.19c1.26,1.31,1.87,3.15,1.81,5.53
	v1.15H71.51c0.82-5.76,3.41-8.64,7.76-8.64C81.62,337.22,83.43,337.88,84.69,339.19L84.69,339.19z M121.72,360.99
	c-1.15-1.85-1.72-5.17-1.72-9.96c0-2.73,0.1-4.88,0.31-6.44c0.65-4.91,2.89-7.36,6.75-7.36c2.03,0,3.64,0.66,4.85,1.98
	c1.2,1.32,1.81,3.22,1.81,5.69h13.93c0-5.88-1.82-10.54-5.47-13.97c-3.64-3.44-8.57-5.16-14.77-5.16c-4.58,0-8.55,0.99-11.9,2.98
	c-3.35,1.98-5.91,4.82-7.69,8.51c-1.78,3.69-2.67,7.94-2.67,12.76v0.62c0,7.7,2,13.73,6,18.08c4,4.35,9.46,6.52,16.4,6.52
	c5.91,0,10.73-1.68,14.48-5.03s5.62-7.64,5.62-12.87h-13.93c0.03,2.03-0.53,3.61-1.68,4.74s-2.76,1.7-4.85,1.7
	C124.69,363.76,122.87,362.84,121.72,360.99L121.72,360.99z M182.78,374.34h13.93v-47.7h-14.94v33.46
	c-1.44,2.44-3.87,3.66-7.27,3.66c-3.97,0-5.95-2.04-5.95-6.13v-30.99h-14.86v30.9c0,5.7,1.34,10.07,4.03,13.12
	c2.69,3.04,6.65,4.56,11.88,4.56c5.35,0,9.6-2.01,12.74-6.04L182.78,374.34L182.78,374.34z M233.97,326.29
	c-1.18-0.35-2.56-0.53-4.14-0.53c-4.47,0-7.95,2.34-10.45,7.01l-0.48-6.13h-13.93v47.7h14.86v-30.2c1.32-2.94,4.32-4.41,8.99-4.41
	l4.89,0.35L233.97,326.29L233.97,326.29z M254.73,326.64h-14.9v47.7h14.9V326.64L254.73,326.64z M241.24,319.55
	c1.53,1.35,3.51,2.03,5.95,2.03s4.42-0.68,5.95-2.03s2.29-3.09,2.29-5.2c0-2.12-0.76-3.85-2.29-5.2s-3.51-2.03-5.95-2.03
	s-4.42,0.68-5.95,2.03s-2.29,3.09-2.29,5.2C238.95,316.46,239.71,318.19,241.24,319.55L241.24,319.55z M266.33,314.78v11.86h-6.08
	v10.32h6.08v23.67c0,4.91,1.22,8.57,3.66,10.98s6.22,3.61,11.33,3.61c2.91,0,5.7-0.43,8.38-1.28v-10.62c-1,0.18-2.23,0.26-3.7,0.26
	c-1.91,0-3.19-0.35-3.84-1.06s-0.97-1.95-0.97-3.75v-21.82h7.85v-10.31h-7.85v-11.86H266.33L266.33,314.78z M306.4,326.64h-15.87
	l16.58,48.18l-1.19,3.18c-0.53,1.56-1.35,2.64-2.45,3.24c-1.1,0.6-2.7,0.9-4.78,0.9h-1.94v10.58c2.15,0.59,4.19,0.88,6.13,0.88
	c7,0,11.87-3.09,14.64-9.26l0.84-2.03l19.44-55.68h-15.92l-7.93,26.89L306.4,326.64L306.4,326.64z"/>
<g>
	<g>
		<g>
			<defs>
				<path id="SVGID_1_" d="M209.31,218.27v-8.61c-14.37-8.43-47.62-18.79-72.4-25.84v22.06c0,5.42-1.54,6.97-6.94,6.97H80.32
					c-5.38,0-6.92-1.55-6.92-6.97v-14.79l-17.76-4.84c-32.14-8.82-49.85-14.96-54.64-39.8v71.83c0,35.6,16.94,52.63,52.37,52.63
					h103.58C192.37,270.88,209.31,253.86,209.31,218.27L209.31,218.27z"/>
			</defs>
			<clipPath id="SVGID_2_">
				<use xlink:href="#SVGID_1_"  style="overflow:visible;"/>
			</clipPath>
			<g class="st2">
				<g>
					<defs>
						<rect id="SVGID_3_" x="0.99" y="146.44" width="208.32" height="124.46"/>
					</defs>
					<linearGradient id="SVGID_4_" gradientUnits="userSpaceOnUse" x1="0.9912" y1="208.6695" x2="209.3088" y2="208.6695">
						<stop  offset="0" style="stop-color:#0047BB"/>
						<stop  offset="1" style="stop-color:#041E42"/>
					</linearGradient>
					<use xlink:href="#SVGID_3_"  style="overflow:visible;fill:url(#SVGID_4_);"/>
					<clipPath id="SVGID_5_">
						<use xlink:href="#SVGID_3_"  style="overflow:visible;"/>
					</clipPath>
				</g>
			</g>
		</g>
	</g>
	<path class="st1" d="M189.38,125.31h-0.25v16.87h15.73C201.58,134.74,196.45,129.47,189.38,125.31L189.38,125.31z"/>
	<path class="st1" d="M167.87,120.93h12.5c-3.8-1.55-7.94-2.98-12.5-4.37V120.93L167.87,120.93z"/>
	<path class="st1" d="M163.5,120.93v-5.65c-3.08-0.88-6.25-1.77-9.64-2.67l-7.23-1.95v10.28h16.87V120.93z"/>
	<polygon class="st1" points="142.26,120.93 142.26,109.49 125.39,104.92 125.39,120.93 	"/>
	<path class="st1" d="M99.76,99.68V98l-0.2-0.05c-3.27-0.87-7.51-2-12.39-3.34l-4.29-1.16v6.25h16.87V99.68z"/>
	<path class="st1" d="M78.51,92.17c-5.29-1.51-11-3.16-16.87-4.93v12.44h16.87V92.17L78.51,92.17z"/>
	<path class="st1" d="M57.26,99.68V85.92c-3.29-1.01-6.6-2.05-9.9-3.11h-6.97v16.87H57.26L57.26,99.68z"/>
	<path class="st1" d="M19.14,78.44H34.3c-5.4-1.88-10.52-3.78-15.15-5.66V78.44L19.14,78.44z"/>
	<path class="st1" d="M14.77,78.44v-7.5c-5.42-2.36-9.95-4.65-13.01-6.78v14.27H14.77L14.77,78.44z"/>
	<path class="st1" d="M14.77,125.31H5.93c2.11,5.02,5.04,9.08,8.82,12.44v-12.44H14.77z"/>
	<path class="st1" d="M14.77,104.05H1.89c0.25,6.55,1.08,12.11,2.49,16.87h10.39V104.05L14.77,104.05z"/>
	<polygon class="st1" points="14.77,82.81 1.76,82.81 1.76,99.68 14.77,99.68 	"/>
	<polygon class="st1" points="19.14,99.68 36.01,99.68 36.01,82.81 19.14,82.81 	"/>
	<polygon class="st1" points="36.01,104.05 19.14,104.05 19.14,120.93 36.01,120.93 	"/>
	<path class="st1" d="M19.14,125.31v15.84c0.54,0.36,1.13,0.69,1.69,1.03h15.19v-16.87H19.14L19.14,125.31z"/>
	<path class="st1" d="M36.01,146.55h-6.6c2.08,0.88,4.27,1.73,6.6,2.55V146.55L36.01,146.55z"/>
	<polygon class="st1" points="40.38,120.93 57.26,120.93 57.26,104.05 40.38,104.05 	"/>
	<polygon class="st1" points="57.26,125.31 40.38,125.31 40.38,142.18 57.26,142.18 	"/>
	<path class="st1" d="M40.38,146.55v4.04c5.11,1.65,10.67,3.26,16.82,4.96l0.05,0.02v-9.03H40.38V146.55z"/>
	<polygon class="st1" points="61.64,146.55 61.64,156.78 78.51,161.43 78.51,146.55 	"/>
	<polygon class="st1" points="78.51,125.31 61.64,125.31 61.64,142.18 78.51,142.18 	"/>
	<polygon class="st1" points="61.64,120.93 78.51,120.93 78.51,104.05 61.64,104.05 	"/>
	<polygon class="st1" points="82.88,120.93 99.76,120.93 99.76,104.05 82.88,104.05 	"/>
	<polygon class="st1" points="99.76,125.31 82.88,125.31 82.88,142.18 99.76,142.18 	"/>
	<polygon class="st1" points="82.88,146.55 82.88,162.64 85.73,163.43 99.76,163.43 99.76,146.55 	"/>
	<polygon class="st1" points="121,146.55 104.13,146.55 104.13,163.43 121,163.43 	"/>
	<polygon class="st1" points="104.13,120.93 121,120.93 121,104.05 104.13,104.05 	"/>
	<polygon class="st1" points="121,125.31 104.13,125.31 104.13,142.18 121,142.18 	"/>
	<path class="st1" d="M104.13,167.8v0.7l9.05,2.49c2.14,0.56,4.81,1.28,7.82,2.09v-5.29L104.13,167.8L104.13,167.8z"/>
	<polygon class="st1" points="125.39,142.18 142.26,142.18 142.26,125.31 125.39,125.31 	"/>
	<polygon class="st1" points="142.26,146.55 125.39,146.55 125.39,163.43 142.26,163.43 	"/>
	<path class="st1" d="M125.39,167.8v6.48c5.01,1.37,10.74,2.98,16.87,4.76V167.8H125.39L125.39,167.8z"/>
	<polygon class="st1" points="146.63,142.18 163.5,142.18 163.5,125.31 146.63,125.31 	"/>
	<polygon class="st1" points="163.5,146.55 146.63,146.55 146.63,163.43 163.5,163.43 	"/>
	<path class="st1" d="M146.63,167.8v12.52c4.68,1.37,9.51,2.85,14.35,4.35h2.52V167.8H146.63L146.63,167.8z"/>
	<polygon class="st1" points="184.76,167.8 167.87,167.8 167.87,184.69 184.76,184.69 	"/>
	<polygon class="st1" points="167.87,142.18 184.76,142.18 184.76,125.31 167.87,125.31 	"/>
	<polygon class="st1" points="184.76,146.55 167.87,146.55 167.87,163.43 184.76,163.43 	"/>
	<path class="st1" d="M184.76,189.06h-10.29c3.53,1.19,6.96,2.39,10.28,3.6v-3.6H184.76z"/>
	<path class="st1" d="M189.13,189.06v5.22c6.51,2.47,12.29,4.93,16.87,7.28v-12.5H189.13L189.13,189.06z"/>
	<polygon class="st1" points="206,167.8 189.13,167.8 189.13,184.69 206,184.69 	"/>
	<polygon class="st1" points="189.13,163.43 206,163.43 206,146.55 189.13,146.55 	"/>
	<g>
		<g>
			<defs>
				<path id="SVGID_6_" d="M204.69,112.14V52.63c0-35.6-16.94-52.63-52.37-52.63H54.13C18.7,0,1.76,17.02,1.76,52.63v5.19
					c11.98,8.4,46.18,19.26,72.39,26.81V65.02c0-5.42,1.54-6.97,6.94-6.97h44.29c5.38,0,6.94,1.55,6.94,6.97v12.14l21.57,5.83
					C180.6,90.11,197.23,95.74,204.69,112.14L204.69,112.14z"/>
			</defs>
			<clipPath id="SVGID_7_">
				<use xlink:href="#SVGID_6_"  style="overflow:visible;"/>
			</clipPath>
			<g class="st3">
				<g>
					<defs>
						<rect id="SVGID_8_" x="1.76" width="202.93" height="112.14"/>
					</defs>
					<linearGradient id="SVGID_9_" gradientUnits="userSpaceOnUse" x1="204.6937" y1="56.0685" x2="1.7604" y2="56.0685">
						<stop  offset="0" style="stop-color:#0047BB"/>
						<stop  offset="1" style="stop-color:#041E42"/>
					</linearGradient>
					<use xlink:href="#SVGID_8_"  style="overflow:visible;fill:url(#SVGID_9_);"/>
					<clipPath id="SVGID_10_">
						<use xlink:href="#SVGID_8_"  style="overflow:visible;"/>
					</clipPath>
				</g>
			</g>
		</g>
	</g>
</g>
</svg>
