<?xml version="1.0" encoding="utf-8"?>
<!-- Generator: Adobe Illustrator 26.0.2, SVG Export Plug-In . SVG Version: 6.00 Build 0)  -->
<svg version="1.1" id="Layer_1" xmlns="http://www.w3.org/2000/svg" xmlns:xlink="http://www.w3.org/1999/xlink" x="0px" y="0px"
	 viewBox="0 0 721.8 502.2" style="enable-background:new 0 0 721.8 502.2;" xml:space="preserve">
<style type="text/css">
	.st0{fill:#A7A8A9;}
	.st1{fill:#00B5E2;}
</style>
<g>
	<path class="st0" d="M542.3,180.5c-3.7-13.1-12.9-24.5-18.8-20.6c-10.9-21.3-26.2-40-44.9-54.7L500.6,51c10.5,1,20.9-4.5,25.6-14.6
		c6-12.8,0.4-28-12.4-34c-12.8-6-28-0.4-34,12.4c-4.7,10.1-2.2,21.6,5.3,29l-25.6,48.5c-24.1-14-52.1-22.2-82-22.2H364v215.2h177.1
		v-48C553.7,234.7,546,193.6,542.3,180.5L542.3,180.5z M464.3,191.2c0,0.1,0,0.2,0,0.3c0,5.1-1.1,9.9-2.9,14.3
		c-5.9,14.4-20,24.6-36.5,24.6c-21.8,0-39.4-17.7-39.4-39.4s17.7-39.4,39.4-39.4c21.8,0,39.4,17.7,39.4,39.4
		C464.3,191,464.3,191.1,464.3,191.2L464.3,191.2z"/>
	<path class="st1" d="M179.6,180.5c3.7-13.1,12.9-24.5,18.8-20.6c10.9-21.3,26.2-40,44.9-54.7L221.3,51c-10.5,1-20.9-4.5-25.6-14.6
		c-6-12.8-0.4-28,12.4-34c12.8-6,28-0.4,34,12.4c4.7,10.1,2.2,21.6-5.3,29l25.6,48.5c24.1-14,52.1-22.2,82-22.2h13.6v215.2H180.7
		v-48C168.1,234.7,175.8,193.6,179.6,180.5L179.6,180.5z M257.5,191.2c0,0.1,0,0.2,0,0.3c0,5.1,1.1,9.9,2.9,14.3
		c5.9,14.4,20,24.6,36.5,24.6c21.8,0,39.4-17.7,39.4-39.4s-17.7-39.4-39.4-39.4c-21.8,0-39.4,17.7-39.4,39.4
		C257.5,191,257.5,191.1,257.5,191.2L257.5,191.2z"/>
	<path class="st1" d="M552.6,408.2v-17.2c0-17.2-12.1-26.9-32.8-26.9h-35.7v136.5h35.3c20.7,0,33.9-9.7,33.9-26.9v-22.4
		c0-10.5-4.1-19.7-16-21.6C548.3,428.3,552.6,418,552.6,408.2L552.6,408.2z M506.8,383.7h12.7c6.4,0,10.5,3.3,10.5,10.5V410
		c0,7.2-4.1,10.5-10.5,10.5h-12.7V383.7L506.8,383.7z M530.8,450.1v20.5c0,7.2-4.1,10.5-10.5,10.5h-13.5v-41.5h13.5
		C526.7,439.6,530.8,442.9,530.8,450.1L530.8,450.1z M571.3,391.5v81.9c0,20.7,13.6,28.9,34.3,28.9h1.6c20.7,0,34.3-8.2,34.3-28.9
		v-81.9c0-20.7-13.6-28.9-34.3-28.9h-1.6C585,362.6,571.3,370.6,571.3,391.5L571.3,391.5z M593.9,469.8V395
		c0-9.7,5.1-12.5,12.5-12.5c7.4,0,12.5,2.7,12.5,12.5v74.9c0,9.7-5.1,12.5-12.5,12.5C599,482.3,593.9,479.6,593.9,469.8L593.9,469.8
		z M721.8,364.2h-68.2v19.9h22.8v116.6H699V384.1h22.8V364.2L721.8,364.2z"/>
	<path class="st0" d="M67.5,412.9v-22.2c0-20.3-14.8-28.1-33.5-28.1h-0.4c-18.7,0-33.5,7.8-33.5,28.1v17.9
		c0,14.2,7.6,20.5,20.9,28.1l15.8,9c6.8,3.7,9,7.2,9,14.2v10.7c0,8.4-4.9,12.1-11.7,12.1c-6.8,0-11.7-3.7-11.7-12.1V450H0v23.8
		c0,21.3,13.1,28.5,33.7,28.5h0.4c20.7,0,33.7-7.4,33.7-28.5V454c0-14.6-7.8-20.7-20.9-28.1l-16-9c-6.4-3.7-8.8-6.8-8.8-13.8v-9.4
		c0-8.6,4.9-11.7,11.5-11.7s11.5,3.1,11.5,11.7v19.1H67.5L67.5,412.9z"/>
	<path class="st0" d="M155.8,419V393c0-20.7-13.6-28.9-34.3-28.9H86.2v136.5h22.6v-52.8h12.7C142.1,447.8,155.8,439.6,155.8,419
		L155.8,419z M133.2,415.4c0,9.7-5.1,12.5-12.5,12.5h-11.9v-43.9h11.9c7.4,0,12.5,2.7,12.5,12.5V415.4L133.2,415.4z"/>
	<path class="st0" d="M241.7,417.4V393c0-20.7-13.6-28.9-34.3-28.9h-35.3v136.5h22.6v-54.4h11.3l17.4,54.4h23l-19.5-57.9
		C236.3,438.6,241.7,430.5,241.7,417.4L241.7,417.4z M219.1,414.3c0,9.7-5.1,12.5-12.5,12.5h-11.9v-42.7h11.9
		c7.4,0,12.5,2.7,12.5,12.5V414.3L219.1,414.3z"/>
	<polygon class="st0" points="278.9,500.6 278.9,364.2 256.3,364.2 256.3,455.7 271.8,500.6 278.9,500.6 	"/>
	<polygon class="st0" points="321.8,500.6 321.8,411.9 351.6,500.6 373.1,500.6 373.1,364.2 352.4,364.2 352.4,448.6 323.7,364.2 
		301.1,364.2 301.1,500.6 321.8,500.6 	"/>
	<path class="st0" d="M463.9,430.5H428v19.1h13.3v20.3c0,9.7-5.1,12.5-12.5,12.5c-7.4,0-12.5-2.7-12.5-12.5V395
		c0-9.7,5.1-12.5,12.5-12.5c7.4,0,12.5,2.7,12.5,12.5v16h22.6v-19.5c0-20.3-13.6-28.9-34.3-28.9H428c-20.7,0-34.3,8.6-34.3,28.9
		v81.9c0,21.3,13.6,28.9,34.3,28.9h1.6c20.7,0,34.3-7.8,34.3-28.9V430.5L463.9,430.5z"/>
</g>
</svg>
