<?xml version="1.0" encoding="utf-8"?>
<!-- Generator: Adobe Illustrator 25.4.1, SVG Export Plug-In . SVG Version: 6.00 Build 0)  -->
<svg version="1.1" id="Layer_1" xmlns="http://www.w3.org/2000/svg" xmlns:xlink="http://www.w3.org/1999/xlink" x="0px" y="0px"
	 viewBox="0 0 720.3 807" style="enable-background:new 0 0 720.3 807;" xml:space="preserve">
<style type="text/css">
	.st0{fill:#265EAC;}
	.st1{fill:#F78E20;}
</style>
<g>
	<path class="st0" d="M24.2,806c1.9-0.6,3.5-1.4,4.8-2.5c1.3-1.1,2.4-2.5,3.1-4.1c0.8-1.6,1.1-3.4,1.1-5.4v-0.1
		c0-1.8-0.3-3.3-0.9-4.6c-0.6-1.3-1.5-2.5-2.6-3.5c-1.2-1-2.6-1.9-4.3-2.6c-1.7-0.7-3.8-1.3-6-1.9c-2.1-0.5-3.8-1-5.1-1.4
		c-1.3-0.5-2.4-0.9-3.1-1.4c-0.8-0.5-1.3-1.1-1.6-1.7c-0.3-0.6-0.4-1.4-0.4-2.2v-0.1c0-1.4,0.6-2.6,1.8-3.6c1.2-1,3-1.5,5.2-1.5
		c2,0,3.9,0.4,5.8,1.1c1.9,0.8,3.9,1.9,5.8,3.3l4.1-5.7c-2.2-1.8-4.6-3.1-7.1-4c-2.5-0.9-5.4-1.4-8.5-1.4c-2.1,0-4.1,0.3-5.9,0.9
		c-1.8,0.6-3.3,1.5-4.6,2.6c-1.3,1.1-2.3,2.4-3,3.9c-0.7,1.5-1.1,3.2-1.1,5.1v0.1c0,2,0.3,3.7,1,5c0.6,1.4,1.6,2.6,2.8,3.5
		c1.2,1,2.7,1.8,4.5,2.5c1.8,0.7,3.8,1.3,6.1,1.8c2,0.5,3.6,0.9,4.9,1.4c1.3,0.5,2.2,0.9,3,1.5c0.7,0.5,1.2,1.1,1.5,1.7
		c0.3,0.6,0.4,1.3,0.4,2.1v0.1c0,1.6-0.7,3-2.1,3.9c-1.4,1-3.2,1.5-5.6,1.5c-2.7,0-5.1-0.5-7.3-1.4c-2.1-1-4.2-2.3-6.3-4.2L0,800
		c2.6,2.3,5.4,4.1,8.4,5.2c3,1.1,6.2,1.7,9.5,1.7C20.2,806.9,22.3,806.6,24.2,806L24.2,806z M56,806.4c1.1-0.3,2.1-0.7,3-1.2v-6.1
		c-1.5,0.7-3,1.1-4.6,1.1c-1.3,0-2.3-0.3-3-1c-0.7-0.6-1-1.7-1-3.1v-15.9h8.7v-6.4h-8.7v-8.9h-7.5v8.9h-4.1v6.4h4.1v17.1
		c0,1.8,0.2,3.3,0.7,4.5c0.5,1.2,1.1,2.2,2,2.9c0.8,0.7,1.8,1.3,3,1.6c1.2,0.3,2.4,0.5,3.8,0.5C53.7,806.8,54.9,806.7,56,806.4
		L56,806.4z M66.5,806.3H74v-12.4c0-2.1,0.3-4,0.8-5.6c0.5-1.6,1.3-3,2.3-4c1-1.1,2.2-1.9,3.5-2.4c1.4-0.5,2.8-0.8,4.5-0.8h0.4v-7.9
		c-2.9-0.1-5.2,0.6-7.1,2c-1.9,1.5-3.3,3.4-4.4,5.9v-7.3h-7.5V806.3L66.5,806.3z M109.2,805.2c1.6-1.1,2.9-2.5,4-4.1v5.1h7.5v-32.5
		h-7.5v18.3c0,2.5-0.7,4.5-2,5.9c-1.3,1.4-3.1,2.1-5.2,2.1c-2.2,0-3.9-0.7-5.1-2.1c-1.2-1.4-1.8-3.3-1.8-5.9v-18.4h-7.5v20.7
		c0,3.8,1,6.8,3,9.1c2,2.3,4.8,3.4,8.5,3.4C105.6,806.9,107.6,806.4,109.2,805.2L109.2,805.2z M152.9,805.3c2-1.1,3.9-2.6,5.5-4.4
		l-4.5-4.4c-1.2,1.2-2.4,2.2-3.8,2.9c-1.3,0.8-2.9,1.1-4.6,1.1c-1.4,0-2.7-0.3-3.9-0.8c-1.2-0.6-2.2-1.3-3.1-2.2
		c-0.9-0.9-1.5-2.1-2-3.3c-0.5-1.3-0.7-2.6-0.7-4.1V790c0-1.4,0.2-2.7,0.7-4c0.5-1.3,1.1-2.4,1.9-3.3c0.8-0.9,1.8-1.7,3-2.2
		c1.1-0.6,2.4-0.8,3.8-0.8c1.9,0,3.5,0.4,4.8,1.1c1.3,0.8,2.5,1.7,3.7,2.9l4.6-5c-1.5-1.7-3.3-3-5.3-4.1c-2-1-4.6-1.5-7.7-1.5
		c-2.4,0-4.7,0.5-6.7,1.4c-2.1,0.9-3.9,2.1-5.4,3.7c-1.5,1.5-2.7,3.3-3.5,5.4c-0.8,2.1-1.3,4.3-1.3,6.6v0.1c0,2.3,0.4,4.5,1.3,6.5
		c0.8,2.1,2,3.8,3.5,5.4c1.5,1.5,3.3,2.7,5.3,3.6c2.1,0.9,4.3,1.3,6.7,1.3C148.3,807,150.9,806.4,152.9,805.3L152.9,805.3z
		 M179.8,806.4c1.1-0.3,2.1-0.7,3-1.2v-6.1c-1.5,0.7-3,1.1-4.6,1.1c-1.3,0-2.3-0.3-3-1c-0.7-0.6-1-1.7-1-3.1v-15.9h8.7v-6.4h-8.7
		v-8.9h-7.5v8.9h-4.1v6.4h4.1v17.1c0,1.8,0.2,3.3,0.7,4.5c0.5,1.2,1.1,2.2,2,2.9c0.8,0.7,1.9,1.3,3,1.6c1.2,0.3,2.4,0.5,3.8,0.5
		C177.5,806.8,178.8,806.7,179.8,806.4L179.8,806.4z M207.7,805.2c1.6-1.1,2.9-2.5,4-4.1v5.1h7.5v-32.5h-7.5v18.3
		c0,2.5-0.7,4.5-2,5.9c-1.3,1.4-3.1,2.1-5.2,2.1c-2.2,0-3.9-0.7-5.1-2.1c-1.2-1.4-1.8-3.3-1.8-5.9v-18.4H190v20.7c0,3.8,1,6.8,3,9.1
		c2,2.3,4.8,3.4,8.5,3.4C204.1,806.9,206.1,806.4,207.7,805.2L207.7,805.2z M228.5,806.3h7.5v-12.4c0-2.1,0.3-4,0.8-5.6
		c0.5-1.6,1.3-3,2.3-4c1-1.1,2.2-1.9,3.5-2.4c1.4-0.5,2.8-0.8,4.5-0.8h0.4v-7.9c-2.9-0.1-5.2,0.6-7.1,2c-1.9,1.5-3.3,3.4-4.4,5.9
		v-7.3h-7.5V806.3L228.5,806.3z M259.5,787.8c0.3-2.5,1.2-4.6,2.7-6.2c1.5-1.6,3.4-2.4,5.7-2.4c1.2,0,2.3,0.2,3.3,0.7
		c1,0.5,1.8,1.1,2.5,1.8c0.7,0.8,1.2,1.7,1.7,2.7c0.4,1,0.7,2.2,0.8,3.4H259.5L259.5,787.8z M276.5,805.3c2.2-1.1,4-2.6,5.6-4.4
		l-4.4-3.9c-1.3,1.3-2.6,2.2-4,2.9c-1.4,0.7-3,1-4.8,1c-2.4,0-4.5-0.7-6.2-2.1c-1.7-1.4-2.8-3.5-3.2-6.1h23.9c0-0.4,0.1-0.7,0.1-1.1
		c0-0.3,0-0.7,0-1c0-2.3-0.3-4.6-1-6.7c-0.7-2.1-1.6-4-2.9-5.6c-1.3-1.6-2.9-2.9-4.9-3.8c-1.9-0.9-4.2-1.4-6.8-1.4
		c-2.3,0-4.5,0.4-6.4,1.3c-1.9,0.9-3.6,2.1-5,3.6c-1.4,1.5-2.5,3.3-3.3,5.4c-0.8,2.1-1.2,4.2-1.2,6.6v0.1c0,2.5,0.4,4.8,1.3,6.9
		c0.9,2.1,2,3.8,3.5,5.3c1.5,1.5,3.3,2.6,5.3,3.4c2,0.8,4.2,1.2,6.5,1.2C271.8,807,274.4,806.4,276.5,805.3L276.5,805.3z
		 M302.6,799.7c-1.1-0.5-2.1-1.2-3-2.1c-0.9-0.9-1.5-2-2-3.3c-0.5-1.3-0.7-2.7-0.7-4.3V790c0-1.6,0.2-3,0.7-4.3
		c0.5-1.3,1.2-2.4,2-3.3c0.9-0.9,1.8-1.6,3-2.1c1.1-0.5,2.3-0.7,3.6-0.7c1.2,0,2.4,0.2,3.6,0.7c1.1,0.5,2.1,1.2,3,2.1
		c0.9,0.9,1.5,2,2.1,3.3c0.5,1.3,0.8,2.7,0.8,4.3v0.1c0,1.6-0.3,3-0.8,4.2c-0.5,1.3-1.2,2.4-2.1,3.3c-0.9,0.9-1.9,1.6-3,2.1
		c-1.1,0.5-2.3,0.7-3.6,0.7C305,800.5,303.8,800.2,302.6,799.7L302.6,799.7z M311.1,805.2c1.8-1.2,3.3-2.6,4.5-4.3l-0.1,5.4h7.5
		v-44.9h-7.5v17.5c-1.2-1.5-2.7-2.9-4.4-4c-1.8-1.1-4-1.7-6.6-1.7c-1.9,0-3.8,0.4-5.6,1.1c-1.8,0.7-3.4,1.8-4.8,3.3
		c-1.4,1.4-2.5,3.2-3.3,5.3c-0.8,2.1-1.3,4.5-1.3,7.2v0.1c0,2.7,0.4,5.1,1.3,7.2c0.9,2.1,2,3.9,3.4,5.3c1.4,1.4,3,2.5,4.8,3.3
		c1.8,0.7,3.7,1.1,5.6,1.1C307.1,806.9,309.3,806.3,311.1,805.2L311.1,805.2z M359.1,785.6V770h8.8c2.8,0,5.1,0.6,6.8,1.9
		c1.7,1.3,2.5,3.2,2.5,5.8v0.1c0,2.3-0.8,4.1-2.5,5.6c-1.7,1.4-3.9,2.2-6.8,2.2H359.1L359.1,785.6z M351.6,806.3h7.5v-13.8h8.6
		c2.4,0,4.6-0.3,6.7-1c2.1-0.6,3.9-1.6,5.5-2.8c1.6-1.2,2.8-2.8,3.7-4.6c0.9-1.8,1.4-3.9,1.4-6.4v-0.1c0-2.2-0.4-4.1-1.1-5.9
		c-0.8-1.8-1.8-3.3-3.3-4.6c-1.4-1.3-3.1-2.2-5.2-2.9c-2-0.7-4.3-1-6.8-1h-17V806.3L351.6,806.3z M391.8,806.3h7.5v-12.4
		c0-2.1,0.3-4,0.8-5.6c0.5-1.6,1.3-3,2.3-4c1-1.1,2.2-1.9,3.5-2.4c1.4-0.5,2.8-0.8,4.5-0.8h0.4v-7.9c-2.9-0.1-5.2,0.6-7.1,2
		c-1.9,1.5-3.3,3.4-4.4,5.9v-7.3h-7.5V806.3L391.8,806.3z M428.8,799.7c-1.2-0.6-2.2-1.3-3.1-2.3c-0.9-1-1.6-2.1-2-3.3
		c-0.5-1.2-0.7-2.6-0.7-4V790c0-1.4,0.2-2.7,0.7-4c0.4-1.3,1.1-2.4,2-3.3c0.9-0.9,1.9-1.7,3.1-2.2c1.2-0.6,2.5-0.8,4-0.8
		c1.5,0,2.8,0.3,4,0.8c1.2,0.6,2.2,1.3,3.1,2.2c0.9,0.9,1.6,2.1,2,3.3c0.5,1.3,0.7,2.6,0.7,4.1v0.1c0,1.4-0.2,2.7-0.7,4
		c-0.4,1.3-1.1,2.3-2,3.3c-0.9,0.9-1.9,1.7-3.1,2.2c-1.2,0.6-2.6,0.8-4.1,0.8C431.3,800.5,430,800.3,428.8,799.7L428.8,799.7z
		 M439.6,805.7c2.1-0.9,4-2.1,5.5-3.7c1.5-1.5,2.7-3.3,3.6-5.4c0.9-2.1,1.3-4.2,1.3-6.5V790c0-2.3-0.4-4.5-1.3-6.6
		c-0.9-2-2.1-3.8-3.6-5.3c-1.5-1.5-3.4-2.7-5.5-3.6c-2.1-0.9-4.4-1.3-6.9-1.3c-2.5,0-4.8,0.5-6.9,1.4c-2.1,0.9-3.9,2.1-5.5,3.7
		c-1.5,1.5-2.7,3.3-3.6,5.4c-0.9,2-1.3,4.2-1.3,6.6v0.1c0,2.3,0.4,4.5,1.3,6.5c0.9,2.1,2.1,3.8,3.6,5.4c1.5,1.5,3.4,2.7,5.5,3.6
		c2.1,0.9,4.4,1.3,6.9,1.3C435.1,807,437.5,806.6,439.6,805.7L439.6,805.7z M469.2,799.7c-1.1-0.5-2.1-1.2-3-2.1
		c-0.9-0.9-1.5-2-2-3.3c-0.5-1.3-0.7-2.7-0.7-4.3V790c0-1.6,0.2-3,0.7-4.3c0.5-1.3,1.2-2.4,2-3.3c0.9-0.9,1.8-1.6,3-2.1
		c1.1-0.5,2.3-0.7,3.6-0.7c1.2,0,2.4,0.2,3.6,0.7c1.1,0.5,2.1,1.2,3,2.1c0.9,0.9,1.5,2,2.1,3.3c0.5,1.3,0.8,2.7,0.8,4.3v0.1
		c0,1.6-0.3,3-0.8,4.2c-0.5,1.3-1.2,2.4-2.1,3.3c-0.9,0.9-1.9,1.6-3,2.1c-1.1,0.5-2.3,0.7-3.6,0.7
		C471.5,800.5,470.3,800.2,469.2,799.7L469.2,799.7z M477.6,805.2c1.8-1.2,3.3-2.6,4.5-4.3l-0.1,5.4h7.5v-44.9H482v17.5
		c-1.2-1.5-2.7-2.9-4.4-4c-1.8-1.1-4-1.7-6.6-1.7c-1.9,0-3.8,0.4-5.6,1.1c-1.8,0.7-3.4,1.8-4.8,3.3c-1.4,1.4-2.5,3.2-3.3,5.3
		c-0.8,2.1-1.3,4.5-1.3,7.2v0.1c0,2.7,0.4,5.1,1.3,7.2c0.9,2.1,2,3.9,3.4,5.3c1.4,1.4,3,2.5,4.8,3.3c1.8,0.7,3.7,1.1,5.6,1.1
		C473.6,806.9,475.9,806.3,477.6,805.2L477.6,805.2z M516.1,805.2c1.6-1.1,2.9-2.5,4-4.1v5.1h7.5v-32.5h-7.5v18.3
		c0,2.5-0.7,4.5-2,5.9c-1.3,1.4-3.1,2.1-5.2,2.1c-2.2,0-3.9-0.7-5.1-2.1c-1.2-1.4-1.8-3.3-1.8-5.9v-18.4h-7.5v20.7
		c0,3.8,1,6.8,3,9.1c2,2.3,4.8,3.4,8.5,3.4C512.5,806.9,514.5,806.4,516.1,805.2L516.1,805.2z M559.8,805.3c2.1-1.1,3.9-2.6,5.5-4.4
		l-4.5-4.4c-1.2,1.2-2.5,2.2-3.8,2.9c-1.3,0.8-2.9,1.1-4.6,1.1c-1.4,0-2.7-0.3-3.9-0.8c-1.2-0.6-2.2-1.3-3.1-2.2
		c-0.9-0.9-1.5-2.1-2-3.3c-0.5-1.3-0.7-2.6-0.7-4.1V790c0-1.4,0.2-2.7,0.7-4c0.5-1.3,1.1-2.4,1.9-3.3c0.8-0.9,1.8-1.7,3-2.2
		c1.1-0.6,2.4-0.8,3.8-0.8c1.9,0,3.5,0.4,4.8,1.1c1.3,0.8,2.5,1.7,3.7,2.9l4.6-5c-1.5-1.7-3.3-3-5.3-4.1c-2-1-4.6-1.5-7.7-1.5
		c-2.4,0-4.7,0.5-6.7,1.4c-2.1,0.9-3.9,2.1-5.4,3.7c-1.5,1.5-2.7,3.3-3.5,5.4c-0.8,2.1-1.3,4.3-1.3,6.6v0.1c0,2.3,0.4,4.5,1.3,6.5
		c0.8,2.1,2,3.8,3.5,5.4c1.5,1.5,3.3,2.7,5.3,3.6c2.1,0.9,4.3,1.3,6.7,1.3C555.2,807,557.8,806.4,559.8,805.3L559.8,805.3z
		 M586.7,806.4c1.1-0.3,2.1-0.7,3-1.2v-6.1c-1.5,0.7-3,1.1-4.6,1.1c-1.3,0-2.3-0.3-3-1c-0.7-0.6-1-1.7-1-3.1v-15.9h8.7v-6.4h-8.7
		v-8.9h-7.5v8.9h-4.1v6.4h4.1v17.1c0,1.8,0.2,3.3,0.7,4.5c0.5,1.2,1.1,2.2,2,2.9c0.8,0.7,1.9,1.3,3,1.6c1.2,0.3,2.4,0.5,3.8,0.5
		C584.4,806.8,585.6,806.7,586.7,806.4L586.7,806.4z M613.1,806.2c1.5-0.4,2.8-1.1,3.8-1.9c1.1-0.8,1.9-1.9,2.6-3.2
		c0.6-1.3,0.9-2.8,0.9-4.5v-0.1c0-1.5-0.3-2.7-0.9-3.7c-0.6-1-1.4-1.9-2.4-2.6c-1-0.7-2-1.3-3.2-1.8c-1.2-0.5-2.4-0.9-3.6-1.3
		c-0.9-0.3-1.9-0.6-2.7-0.9c-0.9-0.3-1.7-0.6-2.3-1c-0.7-0.3-1.2-0.7-1.6-1.2c-0.4-0.4-0.6-0.9-0.6-1.5v-0.1c0-0.9,0.4-1.7,1.2-2.3
		c0.8-0.6,1.9-0.9,3.4-0.9c1.4,0,2.8,0.3,4.4,0.8c1.6,0.6,3.2,1.3,4.7,2.2l3-5.3c-1.7-1.2-3.6-2.1-5.7-2.7c-2.1-0.7-4.2-1-6.2-1
		c-1.6,0-3.1,0.2-4.5,0.7c-1.4,0.4-2.6,1.1-3.7,2c-1,0.9-1.9,1.9-2.5,3.1c-0.6,1.2-0.9,2.6-0.9,4.1v0.1c0,1.6,0.3,2.9,0.9,3.9
		c0.6,1.1,1.4,2,2.4,2.7c1,0.7,2.1,1.3,3.3,1.7c1.2,0.5,2.4,0.8,3.6,1.2c0.9,0.3,1.9,0.6,2.7,0.9c0.9,0.3,1.7,0.6,2.3,0.9
		c0.7,0.3,1.2,0.7,1.6,1.2c0.4,0.5,0.6,1,0.6,1.6v0.1c0,1.1-0.4,1.9-1.3,2.5c-0.9,0.6-2.1,1-3.7,1c-1.7,0-3.4-0.3-5.3-1
		c-1.8-0.7-3.6-1.7-5.4-3l-3.3,5.1c2,1.6,4.3,2.8,6.7,3.7c2.4,0.8,4.8,1.2,7.1,1.2C610.1,806.9,611.7,806.7,613.1,806.2L613.1,806.2
		z"/>
	<path class="st1" d="M35.4,709.6c-3.6-1.6-6.7-3.8-9.2-6.6c-2.6-2.7-4.6-6-6-9.7c-1.4-3.7-2.1-7.7-2.1-11.9v-0.2
		c0-4.2,0.7-8.1,2.1-11.8c1.4-3.7,3.4-6.9,5.9-9.7c2.5-2.7,5.6-4.9,9.1-6.5c3.6-1.6,7.4-2.4,11.7-2.4c4.2,0,8.2,0.8,11.8,2.5
		c3.6,1.6,6.7,3.8,9.2,6.6c2.6,2.7,4.6,6,6,9.7c1.4,3.7,2.1,7.7,2.1,11.9v0.2c0,4.2-0.7,8.1-2.1,11.8c-1.4,3.7-3.4,6.9-5.9,9.7
		c-2.5,2.7-5.6,4.9-9.1,6.5c-3.6,1.6-7.5,2.4-11.7,2.4C42.9,712,39,711.2,35.4,709.6L35.4,709.6z M65.1,722.4
		c5.5-2.4,10.2-5.6,14.3-9.7c4-4.1,7.1-8.8,9.3-14.1c2.2-5.4,3.3-11.1,3.3-17.2v-0.2c0-6.1-1.1-11.8-3.3-17.2
		c-2.2-5.4-5.3-10.1-9.2-14.1c-3.9-4-8.7-7.2-14.1-9.5c-5.5-2.3-11.6-3.5-18.2-3.5s-12.7,1.2-18.2,3.6c-5.5,2.4-10.3,5.6-14.3,9.7
		c-4,4.1-7.1,8.8-9.3,14.1C3.1,669.6,2,675.4,2,681.4v0.2c0,6.1,1.1,11.8,3.3,17.2c2.2,5.4,5.3,10.1,9.2,14.1
		c3.9,4,8.7,7.2,14.1,9.5c5.5,2.3,11.6,3.5,18.2,3.5C53.5,725.9,59.6,724.8,65.1,722.4L65.1,722.4z M127.1,711.1v-23.6H151
		c6,0,10.4,1,13.3,3c2.9,2,4.4,4.9,4.4,8.5v0.2c0,3.9-1.5,6.9-4.4,8.9c-2.9,2-7,3-12.1,3H127.1L127.1,711.1z M127.1,674.7v-22.9
		h21.7c4.9,0,8.6,1,11.2,2.9c2.6,1.9,3.9,4.6,3.9,8.1v0.2c0,3.9-1.5,6.9-4.4,8.8c-2.9,1.9-6.9,2.9-11.8,2.9H127.1L127.1,674.7z
		 M112.1,724.5h39.8c4.7,0,9.1-0.5,13-1.5c3.9-1,7.3-2.5,10.1-4.5c2.8-2,4.9-4.4,6.4-7.4c1.5-3,2.3-6.4,2.3-10.2v-0.2
		c0-3-0.4-5.5-1.2-7.7c-0.8-2.2-2-4.1-3.5-5.8c-1.5-1.6-3.3-3.1-5.4-4.2c-2.1-1.2-4.4-2.2-6.9-3.1c1.5-0.8,3.1-1.8,4.6-3
		c1.5-1.1,2.8-2.5,3.9-4c1.1-1.5,2-3.3,2.7-5.3c0.7-2,1-4.3,1-7v-0.2c0-5.7-1.9-10.4-5.8-14.3c-5.1-5.1-12.6-7.6-22.5-7.6h-38.6
		V724.5L112.1,724.5z M233.5,723.8c3.5-1.3,6.6-3.2,9.1-5.7c2.5-2.5,4.5-5.7,5.9-9.5c1.4-3.8,2.1-8.2,2.1-13.4v-56.8h-15.5v56.5
		c0,5.7-1.3,10-3.8,12.7c-2.5,2.7-5.8,4.1-9.9,4.1c-3.7,0-6.9-0.9-9.5-2.6c-2.7-1.8-5.3-4.2-7.8-7.4l-10,10.2
		c2.9,3.9,6.5,7.2,10.9,9.9c4.4,2.7,10,4,16.6,4C226,725.7,230,725.1,233.5,723.8L233.5,723.8z M273.1,724.5h64.3v-13.7h-49.3v-23
		h43.2v-13.7h-43.2V652h48.7v-13.7h-63.7V724.5L273.1,724.5z M408.3,724.9c3.3-0.7,6.4-1.7,9.2-3.1c2.8-1.4,5.4-3,7.8-4.8
		c2.4-1.8,4.7-4,6.9-6.3l-9.7-9.8c-3.7,3.4-7.4,6.2-11.2,8.2c-3.8,2-8.3,3-13.5,3c-4.1,0-7.9-0.8-11.4-2.4c-3.5-1.6-6.5-3.8-9-6.6
		c-2.5-2.8-4.5-6-5.9-9.8c-1.4-3.7-2.1-7.7-2.1-11.9v-0.2c0-4.2,0.7-8.1,2.1-11.8c1.4-3.7,3.4-6.9,5.9-9.7c2.5-2.7,5.6-4.9,9-6.5
		c3.5-1.6,7.3-2.4,11.4-2.4c4.9,0,9.3,1,13.2,3c3.9,2,7.5,4.6,10.9,7.7l9.7-11.2c-2.1-2-4.2-3.8-6.5-5.4c-2.3-1.6-4.8-3.1-7.5-4.2
		c-2.7-1.2-5.7-2.1-8.9-2.8c-3.2-0.7-6.8-1-10.8-1c-6.6,0-12.5,1.2-18,3.5c-5.4,2.3-10.1,5.5-14.1,9.6c-4,4.1-7,8.8-9.2,14.1
		c-2.2,5.4-3.3,11.1-3.3,17.3v0.2c0,6.2,1.1,11.9,3.3,17.3c2.2,5.4,5.3,10.1,9.2,14.1c3.9,4,8.5,7.1,13.9,9.4
		c5.3,2.3,11.2,3.4,17.5,3.4C401.3,725.9,405,725.6,408.3,724.9L408.3,724.9z M470.9,724.5h15.3v-72.1h27.3v-14h-69.9v14h27.3V724.5
		L470.9,724.5z M573.8,724c3.8-1.1,7-2.8,9.7-5c2.7-2.2,4.8-4.9,6.3-8.1c1.5-3.2,2.3-6.8,2.3-10.8v-0.2c0-3.5-0.6-6.6-1.8-9.3
		c-1.2-2.7-2.9-5-5.2-7c-2.3-2-5.2-3.7-8.7-5.1c-3.5-1.4-7.5-2.7-12-3.8c-4.1-1-7.5-1.9-10.2-2.8c-2.7-0.9-4.8-1.9-6.3-2.9
		c-1.5-1-2.6-2.2-3.1-3.4c-0.6-1.3-0.9-2.7-0.9-4.4v-0.2c0-2.9,1.2-5.3,3.7-7.3c2.5-2,5.9-3,10.3-3c3.9,0,7.8,0.8,11.7,2.3
		c3.9,1.5,7.7,3.7,11.7,6.6l8.1-11.4c-4.4-3.5-9.2-6.2-14.2-8.1c-5-1.8-10.7-2.8-17-2.8c-4.3,0-8.2,0.6-11.8,1.8
		c-3.6,1.2-6.7,2.9-9.2,5.1c-2.6,2.2-4.6,4.8-6,7.9c-1.5,3.1-2.2,6.5-2.2,10.1v0.2c0,3.9,0.6,7.3,1.9,10.1c1.3,2.8,3.1,5.1,5.5,7.1
		c2.4,1.9,5.4,3.6,9,4.9c3.6,1.4,7.7,2.6,12.3,3.6c4,0.9,7.3,1.8,9.8,2.7c2.5,0.9,4.5,1.9,5.9,3c1.4,1.1,2.4,2.2,3,3.4
		c0.5,1.2,0.8,2.6,0.8,4.1v0.2c0,3.3-1.4,5.9-4.1,7.9c-2.7,2-6.5,3-11.1,3c-5.4,0-10.3-1-14.5-2.9c-4.3-1.9-8.5-4.7-12.7-8.3
		l-9.1,10.8c5.2,4.7,10.8,8.1,16.9,10.4c6.1,2.3,12.4,3.4,19.1,3.4C565.9,725.7,570,725.1,573.8,724L573.8,724z"/>
	<path class="st0" d="M2.4,601.5h23.9v-30.8h40.7v-19.9H26.2v-14.5h45v-20.9H2.4V601.5L2.4,601.5z M84.3,601.5h24v-86.1h-24V601.5
		L84.3,601.5z M125.7,601.5h23.5v-47.2l36.9,47.2h21v-86.1h-23.5v45.5L148,515.4h-22.3V601.5L125.7,601.5z M255.4,567.6l9.7-24.5
		l9.6,24.5H255.4L255.4,567.6z M217.1,601.5h25.1l6.1-15.4h33.2l6.3,15.4h25.6l-36.7-86.7h-23L217.1,601.5L217.1,601.5z
		 M323.5,601.5H347v-47.2l36.9,47.2h21v-86.1h-23.5v45.5l-35.5-45.5h-22.3V601.5L323.5,601.5z M476.1,601.7c3.8-1,7.3-2.3,10.3-4.1
		s5.8-3.8,8.2-6.2c2.4-2.4,4.7-5,6.7-7.7l-18-12.8c-1.3,1.6-2.6,3-4,4.2c-1.4,1.3-2.8,2.4-4.3,3.3c-1.5,0.9-3.2,1.7-5,2.2
		c-1.8,0.5-3.9,0.7-6.1,0.7c-3,0-5.8-0.6-8.3-1.8c-2.5-1.2-4.7-2.8-6.5-4.9c-1.8-2-3.2-4.5-4.2-7.3c-1-2.8-1.5-5.8-1.5-9v-0.2
		c0-3.1,0.5-6.1,1.5-8.9c1-2.8,2.4-5.2,4.2-7.3c1.8-2,4-3.7,6.5-4.9c2.5-1.2,5.3-1.8,8.3-1.8c4.2,0,7.7,0.9,10.7,2.7
		c3,1.8,5.7,4.3,8.1,7.4l18-13.9c-1.9-2.6-4-5-6.5-7.3c-2.4-2.2-5.1-4.1-8.1-5.7c-3-1.6-6.3-2.8-9.9-3.7c-3.6-0.9-7.6-1.3-12.1-1.3
		c-6.6,0-12.6,1.2-18.1,3.4c-5.5,2.3-10.3,5.5-14.3,9.5c-4,4.1-7.2,8.8-9.5,14.3c-2.3,5.5-3.4,11.3-3.4,17.5v0.2
		c0,6.4,1.2,12.3,3.5,17.8c2.3,5.5,5.5,10.2,9.5,14.1c4,4,8.7,7.1,14.1,9.3c5.4,2.2,11.2,3.3,17.3,3.3
		C468,603.2,472.3,602.7,476.1,601.7L476.1,601.7z M513.8,601.5h24v-86.1h-24V601.5L513.8,601.5z M586.6,567.6l9.7-24.5l9.6,24.5
		H586.6L586.6,567.6z M548.4,601.5h25.1l6.2-15.4h33.2l6.3,15.4h25.6L608,514.8h-23L548.4,601.5L548.4,601.5z M654.7,601.5h65.6
		v-20.9h-41.7v-65.2h-23.9V601.5L654.7,601.5z"/>
	<path class="st1" d="M428.9,187.7c-4.9,0.9-9.9,0.8-14.5-0.4c-5.8,12.1-16.4,24.8-30.7,37.6c-12.6-13.6-28-27.3-45.7-40.5
		c6.4-21.2,10.6-41.3,12.6-59.7c19.1,1.7,35.2,5.7,47,11.9c3-3.8,6.9-6.8,11.4-9c-14.1-8.8-33.8-14.4-57.3-16.6
		c1.3-23.6-1.2-43.9-7.9-59.1c-2.8,4.2-6.4,7.6-10.5,9.9c4.4,12.6,6,29.1,4.8,48.3c-18.5-0.7-39,0.8-60.8,3.9
		c-10.5-19.6-21.8-36.8-33.4-51.4c14.7-12.3,28.9-20.9,41.7-24.9c-0.6-4.8,0-9.7,1.7-14.4c-16.2,3.7-34,13.7-52.2,28.8
		C219.3,34.6,203.2,22,187.7,16c0.9,4.9,0.8,9.9-0.4,14.5c12.1,5.8,24.8,16.4,37.6,30.7c-13.6,12.6-27.3,28-40.5,45.7
		c-21.2-6.4-41.3-10.6-59.7-12.6c1.7-19.1,5.7-35.2,11.9-47c-3.8-3-6.8-6.9-9-11.4c-8.8,14.1-14.4,33.8-16.6,57.3
		c-23.6-1.3-43.9,1.2-59.1,7.9c4.2,2.8,7.6,6.4,9.9,10.5c12.6-4.4,29.1-6,48.3-4.8c-0.7,18.6,0.5,39.1,3.7,61
		c-19.4,10.5-36.7,21.7-51.2,33.2c-12.3-14.7-20.9-28.9-24.9-41.7c-4.8,0.6-9.7,0-14.4-1.7c3.7,16.2,13.7,34,28.8,52.2
		C34.6,225.5,22,241.7,16,257.2c4.9-0.9,9.9-0.8,14.5,0.4c5.8-12.1,16.4-24.8,30.7-37.6c12.6,13.6,28,27.3,45.7,40.5
		c-6.4,21.2-10.6,41.3-12.6,59.7c-19.1-1.7-35.2-5.7-47-11.9c-3,3.8-6.9,6.8-11.4,9c14.1,8.8,33.8,14.4,57.3,16.6
		c-1.3,23.6,1.2,43.9,7.9,59.1c2.8-4.2,6.4-7.6,10.5-9.9c-4.4-12.6-6-29.1-4.8-48.3c18.5,0.7,39-0.8,60.8-3.9
		c10.5,19.6,21.8,36.8,33.4,51.4c-14.7,12.3-28.9,20.9-41.7,24.9c0.6,4.8,0,9.7-1.7,14.4c16.2-3.7,34-13.7,52.2-28.8
		c15.8,17.6,31.9,30.2,47.4,36.2c-0.9-4.9-0.8-9.9,0.4-14.5c-12.1-5.8-24.8-16.4-37.6-30.7c13.6-12.6,27.3-28,40.5-45.7
		c21.2,6.4,41.3,10.6,59.7,12.6c-1.7,19.1-5.7,35.2-11.9,47c3.8,3,6.8,6.9,9,11.4c8.8-14.1,14.4-33.8,16.6-57.3
		c23.6,1.3,43.9-1.2,59.1-7.9c-4.2-2.8-7.6-6.4-9.9-10.5c-12.6,4.4-29.1,6-48.3,4.8c0.7-18.6-0.5-39.1-3.7-61
		c19.4-10.5,36.7-21.7,51.2-33.2c12.3,14.7,20.9,28.9,24.9,41.7c4.8-0.6,9.7,0,14.4,1.7c-3.7-16.2-13.7-34-28.8-52.2
		C410.3,219.3,422.9,203.2,428.9,187.7L428.9,187.7z M269.1,326.1c6.2-8.9,12.3-18.4,18.2-28.3c10.7-4.4,20.9-9.1,30.6-13.9
		c2.5,19,3.5,36.8,3,52.9C305,334.9,287.5,331.3,269.1,326.1L269.1,326.1z M129,175.5c5.6-2.9,11.2-5.7,17.2-8.4
		c-2.4,4.4-4.8,8.8-7,13.4c-2.3,4.6-4.5,9.1-6.6,13.6C131.3,187.8,130.1,181.6,129,175.5L129,175.5z M129.4,237.2
		c1.4,4.8,2.9,9.6,4.5,14.4c1.6,4.8,3.3,9.6,5,14.3c-5.4-3.5-10.7-7.1-15.8-10.7C125,249.3,127.1,243.3,129.4,237.2L129.4,237.2z
		 M151.4,186.6c5-9.9,10.3-19.4,15.7-28.6c9.8-4,20-7.7,30.4-11.1c10.4-3.4,20.8-6.5,31.1-9.2c9.8,4.2,19.7,8.7,29.6,13.7
		c9.9,5,19.4,10.3,28.6,15.7c4,9.8,7.7,20,11.1,30.4c3.4,10.4,6.5,20.8,9.2,31.1c-4.2,9.8-8.7,19.7-13.7,29.6
		c-5,9.9-10.3,19.4-15.7,28.6c-9.8,4-20,7.7-30.4,11.1c-10.4,3.4-20.8,6.5-31.1,9.2c-9.8-4.2-19.7-8.7-29.6-13.7
		c-9.9-5-19.4-10.3-28.6-15.7c-4-9.8-7.7-20-11.1-30.4c-3.4-10.4-6.5-20.8-9.2-31.1C141.9,206.4,146.4,196.5,151.4,186.6
		L151.4,186.6z M305.7,264.4c2.3-4.6,4.5-9.1,6.6-13.6c1.3,6.3,2.5,12.5,3.5,18.6c-5.6,2.9-11.2,5.7-17.2,8.4
		C301,273.4,303.4,269,305.7,264.4L305.7,264.4z M306,178.9c5.4,3.5,10.7,7.1,15.8,10.7c-1.9,5.9-4,11.9-6.3,18
		c-1.4-4.8-2.9-9.6-4.5-14.4C309.4,188.4,307.7,183.7,306,178.9L306,178.9z M255.2,321.8c-5.9-1.9-11.9-4-18-6.3
		c4.8-1.4,9.6-2.9,14.4-4.5c4.8-1.6,9.6-3.3,14.3-5C262.4,311.4,258.8,316.7,255.2,321.8L255.2,321.8z M182.1,328.6
		c10.7-1.9,21.7-4.2,32.9-7c10.6,4.4,21.1,8.4,31.5,11.9c-11.6,15.2-23.6,28.4-35.3,39.5C201.2,360.3,191.4,345.4,182.1,328.6
		L182.1,328.6z M167.1,298.7c4.4,2.4,8.8,4.7,13.4,7c4.6,2.3,9.1,4.5,13.6,6.6c-6.4,1.3-12.6,2.4-18.8,3.5
		C172.5,310.2,169.7,304.5,167.1,298.7L167.1,298.7z M108,321c1.9-16.1,5.5-33.5,10.8-51.9c8.9,6.2,18.4,12.3,28.3,18.2
		c4.4,10.6,9,20.8,13.8,30.5C142,320.3,124.1,321.5,108,321L108,321z M123.3,215.1c-4.4,10.6-8.4,21.1-11.9,31.5
		c-15.2-11.6-28.4-23.6-39.5-35.3c12.7-9.9,27.7-19.6,44.3-28.9C118.1,193,120.5,203.9,123.3,215.1L123.3,215.1z M175.7,118.8
		c-6.2,8.9-12.3,18.4-18.2,28.3c-10.7,4.4-20.9,9.1-30.6,13.9c-2.5-18.9-3.5-36.8-3-52.9C139.9,110,157.4,113.6,175.7,118.8
		L175.7,118.8z M189.7,123.1c5.9,1.9,11.9,4,18,6.3c-4.8,1.4-9.6,2.9-14.4,4.5c-4.8,1.6-9.6,3.3-14.3,5
		C182.5,133.4,186.1,128.2,189.7,123.1L189.7,123.1z M262.7,116.2c-10.7,1.9-21.7,4.2-32.9,7c-10.6-4.4-21.1-8.4-31.5-11.9
		c11.6-15.2,23.6-28.4,35.3-39.5C243.6,84.6,253.5,99.5,262.7,116.2L262.7,116.2z M277.8,146.2c-4.4-2.4-8.8-4.8-13.4-7
		c-4.6-2.3-9.1-4.5-13.6-6.6c6.4-1.3,12.6-2.4,18.8-3.5C272.4,134.7,275.1,140.4,277.8,146.2L277.8,146.2z M336.8,123.8
		c-1.9,16-5.5,33.5-10.8,51.9c-8.9-6.2-18.4-12.3-28.3-18.2c-4.4-10.6-9-20.8-13.8-30.5C302.9,124.5,320.8,123.4,336.8,123.8
		L336.8,123.8z M373,233.7c-12.7,9.9-27.7,19.6-44.3,28.9c-1.9-10.7-4.3-21.6-7.1-32.7c4.4-10.6,8.4-21.1,11.9-31.5
		C348.7,210,361.9,221.9,373,233.7L373,233.7z"/>
	<path class="st0" d="M252.4,258.8c3.7-2.5,6.6-5.5,8.7-8.7c2.1-3.3,3.5-6.8,4-10.6c0.5-3.8,0.1-7.8-1.3-12l-0.1-0.2
		c-1.3-3.8-3.1-6.9-5.4-9.2c-2.3-2.3-5.1-4-8.4-5.1c-3.3-1.1-7.1-1.7-11.3-1.8c-4.2-0.1-8.9,0.1-13.9,0.6c-3,0.3-5.5,0.5-7.6,0.5
		c-2,0-3.7-0.1-4.9-0.3c-1.2-0.2-2.2-0.6-2.9-1.2c-0.7-0.6-1.1-1.3-1.5-2.2l-0.1-0.2c-0.5-1.5-0.2-3,0.8-4.4c1-1.5,2.9-2.6,5.7-3.6
		c3.7-1.2,7.7-1.8,12.1-1.7c4.4,0.1,8.9,0.8,13.5,2.2L246,181c-5.6-2.1-11.5-3.2-17.7-3.3c-6.1,0-12.7,1.1-19.7,3.4
		c-4.9,1.6-9.1,3.7-12.6,6.3c-3.5,2.6-6.2,5.5-8.2,8.8c-2,3.3-3.2,6.7-3.6,10.4c-0.4,3.7,0,7.4,1.3,11.3l0.1,0.2
		c1.4,4.2,3.4,7.5,5.9,9.8c2.5,2.3,5.5,4,8.9,5c3.4,1,7.2,1.5,11.3,1.5c4.2,0,8.6-0.3,13.3-0.7c3-0.3,5.5-0.5,7.5-0.4
		c2,0,3.6,0.1,4.8,0.4c1.3,0.3,2.2,0.7,2.8,1.2c0.6,0.5,1.1,1.2,1.3,2.1l0.1,0.2c0.6,1.8,0.2,3.4-1,4.9c-1.3,1.5-3.4,2.8-6.5,3.8
		c-9.5,3.1-19.5,2.8-29.9-1.1l-7.7,19.3c6.6,2.9,13.6,4.4,20.9,4.5c7.4,0.1,14.7-1.1,22.1-3.5C244.4,263.4,248.8,261.3,252.4,258.8
		L252.4,258.8z"/>
	<path class="st0" d="M214.1,173.4l-3.9-11.9l-16.9,5.6l4.1,12.5c2.8-1.6,5.8-3.1,9.3-4.3C209.2,174.4,211.7,173.9,214.1,173.4
		L214.1,173.4z"/>
	<path class="st0" d="M228.5,273.8l3.5,10.5l16.9-5.6l-3.1-9.5c-1.4,0.6-2.8,1.2-4.3,1.7C237.1,272.4,232.8,273.2,228.5,273.8
		L228.5,273.8z"/>
	<path class="st0" d="M443.8,149.5c-3.8-11.7-16.4-18-28.1-14.1c-11.7,3.8-18,16.4-14.1,28.1c3.8,11.7,16.4,18,28.1,14.1
		C441.3,173.7,447.6,161.1,443.8,149.5L443.8,149.5z"/>
	<path class="st0" d="M337.2,44.2c5.5-11,1.1-24.3-9.8-29.8c-11-5.5-24.3-1.1-29.8,9.8c-5.5,11-1.1,24.3,9.8,29.8
		C318.3,59.5,331.6,55.1,337.2,44.2L337.2,44.2z"/>
	<path class="st0" d="M177.5,15.3c-3.8-11.7-16.4-18-28.1-14.1c-11.7,3.8-18,16.4-14.1,28.1c3.8,11.7,16.4,18,28.1,14.1
		C175,39.5,181.4,26.9,177.5,15.3L177.5,15.3z"/>
	<path class="st0" d="M44.2,107.7c-11-5.5-24.3-1.1-29.8,9.8c-5.5,11-1.1,24.3,9.8,29.8c11,5.5,24.3,1.1,29.8-9.8
		C59.5,126.6,55.1,113.2,44.2,107.7L44.2,107.7z"/>
	<path class="st0" d="M15.3,267.4c-11.7,3.8-18,16.4-14.1,28.1c3.8,11.7,16.4,18,28.1,14.1c11.7-3.8,18-16.4,14.1-28.1
		C39.5,269.8,26.9,263.5,15.3,267.4L15.3,267.4z"/>
	<path class="st0" d="M107.7,400.7c-5.5,11-1.1,24.3,9.8,29.8c11,5.5,24.3,1.1,29.8-9.8c5.5-11,1.1-24.3-9.8-29.8
		C126.6,385.3,113.2,389.7,107.7,400.7L107.7,400.7z"/>
	<path class="st0" d="M267.4,429.6c3.8,11.7,16.4,18,28.1,14.1c11.7-3.8,18-16.4,14.1-28.1c-3.8-11.7-16.4-18-28.1-14.1
		C269.8,405.4,263.5,418,267.4,429.6L267.4,429.6z"/>
	<path class="st0" d="M400.7,337.2c11,5.5,24.3,1.1,29.8-9.8c5.5-11,1.1-24.3-9.8-29.8c-11-5.5-24.3-1.1-29.8,9.8
		C385.3,318.3,389.7,331.6,400.7,337.2L400.7,337.2z"/>
</g>
</svg>
