<svg width="512" height="512" viewBox="0 0 512 512" fill="none" xmlns="http://www.w3.org/2000/svg">
<g filter="url(#filter0_ddd)">
<rect x="36" y="36" width="440" height="440" rx="128" fill="#000028"/>
<rect x="36" y="36" width="440" height="440" rx="128" fill="url(#paint0_linear)"/>
</g>
<g filter="url(#filter1_dd)">
<path d="M355.308 209.412V158.758C355.308 148.381 349.827 138.64 340.941 133.304C327.695 125.341 299.003 112 255.654 112C212.304 112 183.612 125.341 170.367 133.346C161.481 138.64 156 148.381 156 158.758V234.824L313.785 281.412V315.294C313.785 319.868 310.962 323.087 306.145 325.501L255.654 351.294L204.872 325.374C200.346 323.087 197.522 319.868 197.522 315.294V289.882L156 277.176V315.294C156 336.216 167.751 354.005 186.436 363.28L255.654 400L324.581 363.449C343.557 354.005 355.308 336.216 355.308 315.294V251.765L197.522 205.176V166.508C208.817 160.96 228 154.353 255.654 154.353C283.308 154.353 302.491 160.96 313.785 166.508V196.706L355.308 209.412Z" fill="#0098FF"/>
<path d="M355.308 209.412V158.758C355.308 148.381 349.827 138.64 340.941 133.304C327.695 125.341 299.003 112 255.654 112C212.304 112 183.612 125.341 170.367 133.346C161.481 138.64 156 148.381 156 158.758V234.824L313.785 281.412V315.294C313.785 319.868 310.962 323.087 306.145 325.501L255.654 351.294L204.872 325.374C200.346 323.087 197.522 319.868 197.522 315.294V289.882L156 277.176V315.294C156 336.216 167.751 354.005 186.436 363.28L255.654 400L324.581 363.449C343.557 354.005 355.308 336.216 355.308 315.294V251.765L197.522 205.176V166.508C208.817 160.96 228 154.353 255.654 154.353C283.308 154.353 302.491 160.96 313.785 166.508V196.706L355.308 209.412Z" fill="url(#paint1_radial)"/>
</g>
<defs>
<filter id="filter0_ddd" x="12" y="20" width="488" height="488" filterUnits="userSpaceOnUse" color-interpolation-filters="sRGB">
<feFlood flood-opacity="0" result="BackgroundImageFix"/>
<feColorMatrix in="SourceAlpha" type="matrix" values="0 0 0 0 0 0 0 0 0 0 0 0 0 0 0 0 0 0 127 0"/>
<feOffset dy="8"/>
<feGaussianBlur stdDeviation="12"/>
<feColorMatrix type="matrix" values="0 0 0 0 0 0 0 0 0 0 0 0 0 0 0 0 0 0 0.04 0"/>
<feBlend mode="normal" in2="BackgroundImageFix" result="effect1_dropShadow"/>
<feColorMatrix in="SourceAlpha" type="matrix" values="0 0 0 0 0 0 0 0 0 0 0 0 0 0 0 0 0 0 127 0"/>
<feOffset dy="4"/>
<feGaussianBlur stdDeviation="4"/>
<feColorMatrix type="matrix" values="0 0 0 0 0 0 0 0 0 0 0 0 0 0 0 0 0 0 0.16 0"/>
<feBlend mode="normal" in2="effect1_dropShadow" result="effect2_dropShadow"/>
<feColorMatrix in="SourceAlpha" type="matrix" values="0 0 0 0 0 0 0 0 0 0 0 0 0 0 0 0 0 0 127 0"/>
<feOffset dy="2"/>
<feGaussianBlur stdDeviation="2"/>
<feColorMatrix type="matrix" values="0 0 0 0 0 0 0 0 0 0 0 0 0 0 0 0 0 0 0.08 0"/>
<feBlend mode="normal" in2="effect2_dropShadow" result="effect3_dropShadow"/>
<feBlend mode="normal" in="SourceGraphic" in2="effect3_dropShadow" result="shape"/>
</filter>
<filter id="filter1_dd" x="156" y="110" width="199.308" height="292" filterUnits="userSpaceOnUse" color-interpolation-filters="sRGB">
<feFlood flood-opacity="0" result="BackgroundImageFix"/>
<feColorMatrix in="SourceAlpha" type="matrix" values="0 0 0 0 0 0 0 0 0 0 0 0 0 0 0 0 0 0 127 0"/>
<feOffset dy="2"/>
<feColorMatrix type="matrix" values="0 0 0 0 1 0 0 0 0 1 0 0 0 0 1 0 0 0 0.8 0"/>
<feBlend mode="overlay" in2="BackgroundImageFix" result="effect1_dropShadow"/>
<feColorMatrix in="SourceAlpha" type="matrix" values="0 0 0 0 0 0 0 0 0 0 0 0 0 0 0 0 0 0 127 0"/>
<feOffset dy="-2"/>
<feColorMatrix type="matrix" values="0 0 0 0 0 0 0 0 0 0 0 0 0 0 0 0 0 0 0.4 0"/>
<feBlend mode="overlay" in2="effect1_dropShadow" result="effect2_dropShadow"/>
<feBlend mode="normal" in="SourceGraphic" in2="effect2_dropShadow" result="shape"/>
</filter>
<linearGradient id="paint0_linear" x1="256" y1="36" x2="256" y2="476" gradientUnits="userSpaceOnUse">
<stop stop-color="white" stop-opacity="0.2"/>
<stop offset="1" stop-color="white" stop-opacity="0"/>
</linearGradient>
<radialGradient id="paint1_radial" cx="0" cy="0" r="1" gradientUnits="userSpaceOnUse" gradientTransform="translate(256 112) rotate(90) scale(195 250.98)">
<stop stop-color="white" stop-opacity="0.4"/>
<stop offset="1" stop-color="white" stop-opacity="0"/>
</radialGradient>
</defs>
</svg>
