<?xml version="1.0" encoding="utf-8"?>
<!-- Generator: Adobe Illustrator 25.4.1, SVG Export Plug-In . SVG Version: 6.00 Build 0)  -->
<svg version="1.1" id="Layer_1" xmlns="http://www.w3.org/2000/svg" xmlns:xlink="http://www.w3.org/1999/xlink" x="0px" y="0px"
	 viewBox="0 0 722.2 323.1" style="enable-background:new 0 0 722.2 323.1;" xml:space="preserve">
<style type="text/css">
	.st0{fill:#008FFF;}
	.st1{fill:#000029;}
</style>
<g>
	<path class="st0" d="M3.6,323.1H14v-14.4l5.4-5.6l14.6,20h12.4l-20-27.1l19.1-19.9H33L14,296.7v-20.5H3.6V323.1L3.6,323.1z
		 M53.1,323.1h10.3v-47H53.1V323.1L53.1,323.1z M86.2,323.1h10.3v-37.5h14.3v-9.5H71.9v9.5h14.3V323.1L86.2,323.1z"/>
	<path class="st0" d="M3.6,242.5H22c14.8,0,25-10.3,25-23.5v-0.1c0-13.2-10.2-23.4-25-23.4H3.6V242.5L3.6,242.5z M22,204.9
		c8.5,0,14.2,5.8,14.2,14.2v0.1c0,8.3-5.7,14-14.2,14h-8v-28.3H22L22,204.9z M56.1,242.5h35.8v-9.2H66.4v-9.9h22.2v-9.2H66.4v-9.5
		h25.2v-9.2H56.1V242.5L56.1,242.5z M116.1,242.9h9.1l19-47.3h-11.1l-12.3,33.1l-12.3-33.1H97.1L116.1,242.9L116.1,242.9z
		 M151.5,242.5h35.8v-9.2h-25.5v-9.9h22.2v-9.2h-22.2v-9.5H187v-9.2h-35.5V242.5L151.5,242.5z M196.5,242.5h33.8v-9.4h-23.4v-37.6
		h-10.3V242.5L196.5,242.5z M258.2,243.3c14.5,0,25-10.9,25-24.3v-0.1c0-13.4-10.4-24.2-24.9-24.2s-25,10.9-25,24.3v0.1
		C233.3,232.5,243.7,243.3,258.2,243.3L258.2,243.3z M258.4,233.8c-8.3,0-14.2-6.7-14.2-14.8v-0.1c0-8.1,5.8-14.6,14.1-14.6
		c8.3,0,14.2,6.7,14.2,14.8v0.1C272.5,227.2,266.7,233.8,258.4,233.8L258.4,233.8z M292.5,242.5h10.3v-14.1h7.9
		c10.5,0,19-5.6,19-16.5v-0.1c0-9.6-6.8-16.2-18-16.2h-19.2V242.5L292.5,242.5z M302.8,219.2v-14.4h8c5.2,0,8.4,2.5,8.4,7.1v0.1
		c0,4-3,7.1-8.2,7.1H302.8L302.8,219.2z M337.3,242.5h35.8v-9.2h-25.5v-9.9h22.2v-9.2h-22.2v-9.5h25.2v-9.2h-35.5V242.5L337.3,242.5
		z M382.3,242.5h10.3v-15h8.1l10.1,15H423l-11.5-16.8c6-2.2,10.1-7,10.1-14.6V211c0-4.4-1.4-8.1-4-10.7c-3.1-3.1-7.7-4.8-13.7-4.8
		h-21.5V242.5L382.3,242.5z M392.7,218.4v-13.5h10.3c5,0,8.1,2.3,8.1,6.7v0.1c0,4-2.9,6.7-7.9,6.7H392.7L392.7,218.4z"/>
	<path class="st0" d="M16,162.3h9l10.6-30.8l10.6,30.8h9l16-47.3H60.5l-9.7,31.8l-10.5-32h-8.9l-10.5,32l-9.7-31.8H0L16,162.3
		L16,162.3z M99.1,162.7c14.5,0,25-10.9,25-24.3v-0.1c0-13.4-10.4-24.2-24.9-24.2c-14.5,0-25,10.9-25,24.3v0.1
		C74.2,151.9,84.6,162.7,99.1,162.7L99.1,162.7z M99.3,153.2c-8.3,0-14.2-6.7-14.2-14.8v-0.1c0-8.1,5.8-14.6,14.1-14.6
		c8.3,0,14.2,6.7,14.2,14.8v0.1C113.4,146.6,107.6,153.2,99.3,153.2L99.3,153.2z M133.4,161.9h10.3v-15h8.1l10.1,15H174l-11.5-16.8
		c6-2.2,10.1-7,10.1-14.6v-0.1c0-4.4-1.4-8.1-4-10.7c-3.1-3.1-7.7-4.8-13.7-4.8h-21.5V161.9L133.4,161.9z M143.7,137.8v-13.5H154
		c5,0,8.1,2.3,8.1,6.7v0.1c0,4-2.9,6.7-7.9,6.7H143.7L143.7,137.8z M181.9,161.9h10.3v-14.4l5.4-5.6l14.6,20h12.4l-20-27.1
		l19.1-19.9h-12.5l-19.1,20.5v-20.5h-10.3V161.9L181.9,161.9z M231,161.9h10.3v-18.2h22.4v-9.4h-22.4v-10h25.5v-9.4H231V161.9
		L231,161.9z M275,161.9h33.8v-9.4h-23.4v-37.6H275V161.9L275,161.9z M336.7,162.7c14.5,0,25-10.9,25-24.3v-0.1
		c0-13.4-10.4-24.2-24.9-24.2c-14.5,0-25,10.9-25,24.3v0.1C311.8,151.9,322.2,162.7,336.7,162.7L336.7,162.7z M336.9,153.2
		c-8.3,0-14.2-6.7-14.2-14.8v-0.1c0-8.1,5.8-14.6,14.1-14.6c8.3,0,14.2,6.7,14.2,14.8v0.1C351,146.6,345.2,153.2,336.9,153.2
		L336.9,153.2z M380.7,162.3h9l10.6-30.8l10.6,30.8h9l16-47.3h-10.8l-9.7,31.8l-10.5-32H396l-10.5,32l-9.7-31.8h-11.1L380.7,162.3
		L380.7,162.3z"/>
	<path class="st1" d="M37.4,80.6C23.2,80.6,11,76,0,69.1l6.8-10.3c11,7,21,10.4,32.3,10.4c13.2,0,19.4-5.1,19.4-11.1
		c0-17.2-55.9-6.9-55.9-34.2C2.6,10.5,15.9,0,37.4,0c14.5,0,27,5.4,34.4,12.8l-8.4,8.6c-6.3-5.5-16.1-9.9-26.2-9.9
		c-12.5,0-21,4.5-21,11c0,15.9,56.1,7.5,56.1,34.4C72.2,71,57.9,80.6,37.4,80.6L37.4,80.6z M127,47.7v30.2h-13.6V47.6l-33.9-45h15.8
		l25.4,34.8l24.1-34.8h15.6L127,47.7L127,47.7z M255.1,77.9v-59l-3.7,8l-26.7,51h-8.1l-26.3-51l-3.7-8v59h-13V2.6h18.9l25.3,50.6
		l3.5,7.7l3.5-7.7l25-50.6h18.6v75.3H255.1L255.1,77.9z M342.1,25c0-6.2-4.2-10.9-14.5-10.9h-25v24.3h25.5c10.3,0,13.9-5,13.9-11.1
		V25L342.1,25z M326.2,49.5h-23.5v28.4h-13.6V2.6h37.1c20.6,0,29.6,9.3,29.6,22.4v2C355.8,40.1,346.7,49.5,326.2,49.5L326.2,49.5z
		 M429.7,77.9V45.4h-45.3v32.4h-13.6V2.6h13.6v31.9h45.3V2.6h13.6v75.3H429.7L429.7,77.9z M525.2,35.6c0-12.9-8.9-24-25.4-24
		c-16.5,0-25.3,11.1-25.3,24v9.2c0,12.9,8.8,24.2,25.3,24.2c16.5,0,25.4-11.3,25.4-24.2V35.6L525.2,35.6z M499.7,80.6
		c-24.2,0-39-17.2-39-35.6v-9.4c0-18.8,14.8-35.6,39-35.6c24.3,0,39.1,16.8,39.1,35.6V45C538.8,63.4,524,80.6,499.7,80.6L499.7,80.6
		z M617.1,77.9L575,30.3l-5.4-7v54.6h-13.5V2.6h12.5l40.8,47.7l5.5,7V2.6h13.3v75.3H617.1L617.1,77.9z M688.7,47.7v30.2h-13.6V47.6
		l-33.9-45h15.8l25.4,34.8l24.1-34.8h15.6L688.7,47.7L688.7,47.7z"/>
</g>
</svg>
