<?xml version="1.0" encoding="utf-8"?>
<!-- Generator: Adobe Illustrator 25.0.0, SVG Export Plug-In . SVG Version: 6.00 Build 0)  -->
<svg version="1.1" id="Layer_1" xmlns="http://www.w3.org/2000/svg" xmlns:xlink="http://www.w3.org/1999/xlink" x="0px" y="0px"
	 viewBox="0 0 719.7 405.2" style="enable-background:new 0 0 719.7 405.2;" xml:space="preserve">
<style type="text/css">
	.st0{fill:#0099FF;}
	.st1{fill:#000029;}
</style>
<g>
	<path class="st0" d="M494.1,131.4c-2.7-9.5-9.4-17.8-13.7-15c-7.9-15.5-19.1-29.1-32.7-39.8l16.1-39.4c7.6,0.7,15.2-3.2,18.7-10.6
		c4.3-9.3,0.3-20.4-9-24.7c-9.3-4.3-20.4-0.3-24.7,9c-3.4,7.3-1.6,15.7,3.9,21.1l-18.7,35.3C416.3,57,396,51,374.2,51h-9.9v156.6
		h128.9v-34.9C502.4,170.9,496.8,140.9,494.1,131.4L494.1,131.4z M437.3,139.2c0,0.1,0,0.1,0,0.2c0,3.7-0.8,7.2-2.1,10.4
		c-4.3,10.5-14.5,17.9-26.6,17.9c-15.9,0-28.7-12.9-28.7-28.7c0-15.9,12.9-28.7,28.7-28.7c15.9,0,28.7,12.9,28.7,28.7
		C437.3,139,437.3,139.1,437.3,139.2L437.3,139.2z"/>
	<path class="st1" d="M230.1,131.4c2.7-9.5,9.4-17.8,13.7-15c7.9-15.5,19.1-29.1,32.7-39.8l-16.1-39.4c-7.6,0.7-15.2-3.2-18.7-10.6
		c-4.3-9.3-0.3-20.4,9-24.7c9.3-4.3,20.4-0.3,24.7,9c3.4,7.3,1.6,15.7-3.9,21.1l18.7,35.3C307.8,57,328.2,51,350,51h9.9v156.6H230.9
		v-34.9C221.7,170.9,227.4,140.9,230.1,131.4L230.1,131.4z M286.8,139.2c0,0.1,0,0.1,0,0.2c0,3.7,0.8,7.2,2.1,10.4
		c4.3,10.5,14.5,17.9,26.6,17.9c15.9,0,28.7-12.9,28.7-28.7c0-15.9-12.9-28.7-28.7-28.7c-15.9,0-28.7,12.9-28.7,28.7
		C286.8,139,286.8,139.1,286.8,139.2L286.8,139.2z"/>
	<path class="st0" d="M131.9,405.1c4,0,7.2-1.1,9.5-3.4c2.2-2.2,3.4-5.4,3.4-9.7v-23.8h-8.2v23.5c0,4.2-1.9,6-4.9,6
		c-2.5,0-4.6-1.4-6.7-3.6l-5,5.6C122.4,402.6,126.2,405.1,131.9,405.1L131.9,405.1z M156.3,404.6h8.2l3.3-8.2h15.4l3.3,8.2h8.4
		l-15.6-36.7h-7.4L156.3,404.6L156.3,404.6z M170.7,389.4l4.8-11.8l4.8,11.8H170.7L170.7,389.4z M214.7,404.9h7.1l14.7-36.7h-8.6
		l-9.5,25.6l-9.5-25.6H200L214.7,404.9L214.7,404.9z M241.6,404.6h8.2l3.3-8.2h15.4l3.3,8.2h8.4l-15.6-36.7h-7.4L241.6,404.6
		L241.6,404.6z M256,389.4l4.8-11.8l4.8,11.8H256L256,389.4z M325.6,404.6h8v-29h11.1v-7.4h-30.2v7.4h11.1V404.6L325.6,404.6z
		 M374.7,405.2c11.2,0,19.4-8.5,19.4-18.8v-0.1c0-10.4-8.1-18.7-19.3-18.7c-11.2,0-19.4,8.5-19.4,18.8v0.1
		C355.4,396.8,363.5,405.2,374.7,405.2L374.7,405.2z M374.8,397.8c-6.5,0-11-5.2-11-11.5v-0.1c0-6.2,4.5-11.3,10.9-11.3
		c6.5,0,11,5.2,11,11.4v0.1C385.8,392.7,381.3,397.8,374.8,397.8L374.8,397.8z M426.8,405.2c11.2,0,19.4-8.5,19.4-18.8v-0.1
		c0-10.4-8.1-18.7-19.3-18.7c-11.2,0-19.4,8.5-19.4,18.8v0.1C407.5,396.8,415.5,405.2,426.8,405.2L426.8,405.2z M426.9,397.8
		c-6.5,0-11-5.2-11-11.5v-0.1c0-6.2,4.5-11.3,10.9-11.3c6.5,0,11,5.2,11,11.4v0.1C437.8,392.7,433.3,397.8,426.9,397.8L426.9,397.8z
		 M461.1,404.6h26.2v-7.3h-18.2v-29.1h-8V404.6L461.1,404.6z M501.1,404.6h8v-11.1l4.2-4.4l11.3,15.5h9.6l-15.5-21l14.8-15.4h-9.7
		l-14.8,15.9v-15.9h-8V404.6L501.1,404.6z M547.3,404.6h8v-36.4h-8V404.6L547.3,404.6z M580.7,404.6h8v-29h11.1v-7.4h-30.2v7.4h11.1
		V404.6L580.7,404.6z"/>
	<path class="st1" d="M37.3,343.7c-14.2,0-26.4-4.6-37.3-11.5L6.8,322c10.9,7,21,10.4,32.2,10.4c13.2,0,19.4-5.1,19.4-11
		c0-17.1-55.8-6.9-55.8-34.1c0-13.3,13.3-23.8,34.7-23.8c14.4,0,26.9,5.4,34.2,12.7l-8.3,8.6c-6.3-5.5-16-9.9-26.1-9.9
		c-12.5,0-21,4.5-21,10.9c0,15.9,55.9,7.4,55.9,34.2C72,334.1,57.7,343.7,37.3,343.7L37.3,343.7z M126.6,310.9V341h-13.5v-30.2
		L79.3,266h15.8l25.3,34.7l24-34.7H160L126.6,310.9L126.6,310.9z M254.2,341v-58.8l-3.7,8L223.9,341h-8.1l-26.2-50.8l-3.7-8V341h-13
		v-75h18.8l25.2,50.5l3.5,7.7l3.5-7.7l24.9-50.5h18.6v75H254.2L254.2,341z M340.9,288.3c0-6.2-4.2-10.8-14.4-10.8h-24.9v24.2h25.5
		c10.2,0,13.9-5,13.9-11V288.3L340.9,288.3z M325.1,312.7h-23.4V341h-13.5v-75h36.9c20.5,0,29.5,9.2,29.5,22.3v2
		C354.6,303.4,345.6,312.7,325.1,312.7L325.1,312.7z M428.2,341v-32.3h-45.2V341h-13.5v-75h13.5v31.8h45.2V266h13.5v75H428.2
		L428.2,341z M523.4,298.9c0-12.8-8.9-23.9-25.3-23.9c-16.5,0-25.2,11-25.2,23.9v9.1c0,12.8,8.8,24.1,25.2,24.1
		c16.4,0,25.3-11.3,25.3-24.1V298.9L523.4,298.9z M498,343.7c-24.1,0-38.9-17.1-38.9-35.5v-9.4c0-18.7,14.8-35.5,38.9-35.5
		c24.2,0,39,16.8,39,35.5v9.4C537,326.6,522.2,343.7,498,343.7L498,343.7z M615,341l-42-47.4l-5.4-7V341h-13.4v-75h12.5l40.7,47.5
		l5.5,7V266h13.3v75H615L615,341z M686.4,310.9V341h-13.5v-30.2L639,266h15.8l25.3,34.7l24-34.7h15.5L686.4,310.9L686.4,310.9z"/>
</g>
</svg>
