<?xml version="1.0" encoding="utf-8"?>
<!-- Generator: Adobe Illustrator 25.4.1, SVG Export Plug-In . SVG Version: 6.00 Build 0)  -->
<svg version="1.1" id="Layer_1" xmlns="http://www.w3.org/2000/svg" xmlns:xlink="http://www.w3.org/1999/xlink" x="0px" y="0px"
	 viewBox="0 0 726.6 163.7" style="enable-background:new 0 0 726.6 163.7;" xml:space="preserve">
<style type="text/css">
	.st0{fill:#008FFF;}
	.st1{fill:#000029;}
</style>
<g>
	<path class="st0" d="M0,162.9h10.2v-30.7l13.2,20h0.3L37,132.1v30.9h10.3v-47.3H36.1l-12.4,20l-12.4-20H0V162.9L0,162.9z
		 M58.6,162.9h36v-9.2H69v-9.9h22.3v-9.2H69v-9.6h25.3v-9.2H58.6V162.9L58.6,162.9z M103.9,162.9h18.4c14.9,0,25.1-10.3,25.1-23.6
		v-0.1c0-13.3-10.3-23.5-25.1-23.5h-18.4V162.9L103.9,162.9z M122.4,125c8.5,0,14.3,5.9,14.3,14.3v0.1c0,8.4-5.7,14.1-14.3,14.1h-8
		V125H122.4L122.4,125z M157.2,162.9h10.4v-47.3h-10.4V162.9L157.2,162.9z M175.4,162.9H186l4.3-10.6h20l4.3,10.6h10.9l-20.3-47.6
		h-9.6L175.4,162.9L175.4,162.9z M194,143.1l6.3-15.3l6.3,15.3H194L194,143.1z M253.1,162.9h22.5c10.7,0,17.7-4.3,17.7-13v-0.1
		c0-6.4-3.4-9.5-8.8-11.6c3.4-1.9,6.2-4.9,6.2-10.2v-0.1c0-3.2-1.1-5.9-3.2-8c-2.7-2.7-7-4.2-12.4-4.2h-22V162.9L253.1,162.9z
		 M280.3,129.8c0,3.5-2.9,5-7.5,5h-9.6v-10h10.3c4.4,0,6.8,1.8,6.8,4.9V129.8L280.3,129.8z M283,148.5v0.1c0,3.5-2.8,5.1-7.4,5.1
		h-12.4v-10.4h12C280.6,143.4,283,145.4,283,148.5L283,148.5z M301.9,162.9h10.4v-15.1h8.2l10.1,15.1h12.2L331.2,146
		c6-2.2,10.1-7,10.1-14.7v-0.1c0-4.5-1.4-8.2-4.1-10.8c-3.1-3.1-7.8-4.8-13.8-4.8h-21.6V162.9L301.9,162.9z M312.3,138.6V125h10.3
		c5.1,0,8.2,2.3,8.2,6.8v0.1c0,4-2.9,6.7-8,6.7H312.3L312.3,138.6z M351.2,162.9h10.4v-47.3h-10.4V162.9L351.2,162.9z M373.4,162.9
		h18.4c14.9,0,25.1-10.3,25.1-23.6v-0.1c0-13.3-10.3-23.5-25.1-23.5h-18.4V162.9L373.4,162.9z M391.9,125c8.5,0,14.3,5.9,14.3,14.3
		v0.1c0,8.4-5.7,14.1-14.3,14.1h-8V125H391.9L391.9,125z M449,163.7c8.7,0,15.3-3.4,20.2-7.5v-20.5h-20.5v9h10.5v6.8
		c-2.6,1.9-6,2.8-9.8,2.8c-8.4,0-14.3-6.4-14.3-15v-0.1c0-8,6-14.7,13.6-14.7c5.5,0,8.7,1.8,12.4,4.8l6.5-7.9
		c-4.9-4.2-10.1-6.5-18.6-6.5c-14.3,0-24.8,11-24.8,24.5v0.1C424.2,153.4,434.3,163.7,449,163.7L449,163.7z M479.3,162.9h36v-9.2
		h-25.7v-9.9h22.3v-9.2h-22.3v-9.6h25.3v-9.2h-35.7V162.9L479.3,162.9z"/>
	<path class="st1" d="M37.6,81.1C23.3,81.1,11,76.4,0,69.5l6.8-10.3c11,7,21.2,10.5,32.5,10.5c13.3,0,19.6-5.1,19.6-11.1
		c0-17.3-56.3-6.9-56.3-34.5c0-13.4,13.4-24,35-24c14.6,0,27.2,5.5,34.6,12.9l-8.4,8.6c-6.4-5.6-16.1-10-26.4-10
		c-12.6,0-21.2,4.6-21.2,11c0,16,56.4,7.5,56.4,34.6C72.7,71.4,58.2,81.1,37.6,81.1L37.6,81.1z M127.8,48v30.4h-13.6V47.9L80.1,2.6
		H96l25.6,35l24.2-35h15.7L127.8,48L127.8,48z M256.7,78.4V19l-3.8,8.1l-26.8,51.3h-8.2l-26.5-51.3l-3.8-8.1v59.4h-13.1V2.6h19
		L219,53.6l3.5,7.7l3.5-7.7l25.1-50.9H270v75.7H256.7L256.7,78.4z M344.2,25.1c0-6.3-4.2-10.9-14.6-10.9h-25.1v24.5h25.7
		c10.3,0,14-5,14-11.1V25.1L344.2,25.1z M328.2,49.8h-23.7v28.5h-13.6V2.6h37.3c20.7,0,29.8,9.3,29.8,22.5v2
		C358,40.4,348.9,49.8,328.2,49.8L328.2,49.8z M432.3,78.4V45.7h-45.6v32.6h-13.6V2.6h13.6v32.1h45.6V2.6H446v75.7H432.3L432.3,78.4
		z M528.4,35.8c0-13-9-24.1-25.6-24.1c-16.6,0-25.5,11.1-25.5,24.1V45c0,13,8.9,24.3,25.5,24.3c16.6,0,25.6-11.4,25.6-24.3V35.8
		L528.4,35.8z M502.8,81.1c-24.3,0-39.2-17.3-39.2-35.8v-9.4c0-18.9,14.9-35.8,39.2-35.8c24.4,0,39.3,16.9,39.3,35.8v9.4
		C542.1,63.8,527.2,81.1,502.8,81.1L502.8,81.1z M620.9,78.4l-42.4-47.9l-5.5-7v54.9h-13.5V2.6h12.6l41.1,48l5.6,7v-55h13.4v75.7
		H620.9L620.9,78.4z M692.9,48v30.4h-13.6V47.9L645.1,2.6h15.9l25.6,35l24.2-35h15.7L692.9,48L692.9,48z"/>
</g>
</svg>
