<?xml version="1.0" encoding="utf-8"?>
<!-- Generator: Adobe Illustrator 25.0.0, SVG Export Plug-In . SVG Version: 6.00 Build 0)  -->
<svg version="1.1" id="Layer_1" xmlns="http://www.w3.org/2000/svg" xmlns:xlink="http://www.w3.org/1999/xlink" x="0px" y="0px"
	 viewBox="0 0 720 158" style="enable-background:new 0 0 720 158;" xml:space="preserve">
<style type="text/css">
	.st0{fill:#000029;}
	.st1{fill:#008FFF;}
</style>
<g>
	<path class="st0" d="M36.5,78.6c-13.9,0-25.8-4.5-36.5-11.2l6.6-10c10.7,6.8,20.5,10.1,31.5,10.1c12.9,0,19-5,19-10.8
		c0-16.8-54.6-6.7-54.6-33.4c0-13,13-23.3,34-23.3C50.6,0,62.9,5.3,70,12.5l-8.2,8.4c-6.2-5.4-15.7-9.7-25.6-9.7
		c-12.2,0-20.5,4.4-20.5,10.7c0,15.5,54.7,7.3,54.7,33.5C70.5,69.2,56.5,78.6,36.5,78.6L36.5,78.6z M123.9,46.5V76h-13.2V46.4
		L77.6,2.5h15.4l24.8,34l23.5-34h15.2L123.9,46.5L123.9,46.5z M248.9,76V18.4l-3.6,7.8l-26,49.7h-7.9l-25.7-49.7l-3.6-7.8V76h-12.7
		V2.5h18.4l24.7,49.4l3.4,7.5l3.4-7.5l24.4-49.4h18.2V76H248.9L248.9,76z M333.8,24.4c0-6.1-4.1-10.6-14.1-10.6h-24.4v23.7h24.9
		c10,0,13.6-4.9,13.6-10.8V24.4L333.8,24.4z M318.2,48.3h-22.9V76H282V2.5h36.2c20.1,0,28.9,9,28.9,21.8v2
		C347.1,39.1,338.3,48.3,318.2,48.3L318.2,48.3z M419.2,76V44.3H375V76h-13.2V2.5H375v31.1h44.2V2.5h13.2V76H419.2L419.2,76z
		 M512.3,34.7c0-12.6-8.7-23.4-24.8-23.4c-16.1,0-24.7,10.8-24.7,23.4v8.9c0,12.6,8.6,23.6,24.7,23.6c16.1,0,24.8-11,24.8-23.6V34.7
		L512.3,34.7z M487.5,78.6c-23.6,0-38-16.8-38-34.7v-9.2c0-18.3,14.4-34.7,38-34.7c23.7,0,38.2,16.4,38.2,34.7v9.2
		C525.7,61.9,511.2,78.6,487.5,78.6L487.5,78.6z M602.1,76l-41.1-46.4l-5.3-6.8V76h-13.1V2.5h12.2l39.8,46.5l5.4,6.8V2.5h13V76
		H602.1L602.1,76z M671.9,46.5V76h-13.2V46.4L625.6,2.5H641l24.8,34l23.5-34h15.2L671.9,46.5L671.9,46.5z"/>
	<path class="st1" d="M5.7,157.2h9.6v-43.7H5.7V157.2L5.7,157.2z M26.2,157.2h9.5v-27.8l21.2,27.8H65v-43.7h-9.5v26.9l-20.5-26.9
		h-8.9V157.2L26.2,157.2z M85.7,157.2h9.6v-34.8h13.3v-8.9H72.4v8.9h13.3V157.2L85.7,157.2z M115.9,157.2h33.3v-8.5h-23.7v-9.2h20.6
		V131h-20.6v-8.9h23.4v-8.5h-32.9V157.2L115.9,157.2z M178.8,158c8,0,14.2-3.1,18.7-6.9v-19h-19v8.3h9.7v6.2
		c-2.4,1.7-5.6,2.6-9.1,2.6c-7.7,0-13.2-5.9-13.2-13.9v-0.1c0-7.4,5.6-13.6,12.5-13.6c5.1,0,8.1,1.6,11.4,4.4l6-7.3
		c-4.6-3.9-9.3-6-17.2-6c-13.2,0-22.9,10.2-22.9,22.6v0.1C155.8,148.4,165.2,158,178.8,158L178.8,158z M206.7,157.2h9.6v-14h7.6
		l9.4,14h11.2l-10.7-15.6c5.5-2.1,9.4-6.5,9.4-13.5V128c0-4.1-1.3-7.6-3.7-10c-2.9-2.9-7.2-4.4-12.7-4.4h-20V157.2L206.7,157.2z
		 M216.3,134.8v-12.5h9.6c4.7,0,7.6,2.1,7.6,6.2v0.1c0,3.7-2.7,6.2-7.4,6.2H216.3L216.3,134.8z M248,157.2h9.8l4-9.8h18.5l4,9.8h10
		l-18.7-44h-8.9L248,157.2L248,157.2z M265.3,139l5.8-14.2l5.8,14.2H265.3L265.3,139z M305.6,157.2h9.6v-34.8h13.3v-8.9h-36.2v8.9
		h13.3V157.2L305.6,157.2z M336.3,157.2h9.6v-43.7h-9.6V157.2L336.3,157.2z M378.1,158c13.5,0,23.3-10.2,23.3-22.6v-0.1
		c0-12.4-9.7-22.5-23.1-22.5c-13.5,0-23.3,10.2-23.3,22.6v0.1C354.9,147.9,364.6,158,378.1,158L378.1,158z M378.2,149.1
		c-7.7,0-13.2-6.2-13.2-13.7v-0.1c0-7.5,5.4-13.6,13.1-13.6c7.7,0,13.2,6.2,13.2,13.7v0.1C391.3,143,385.9,149.1,378.2,149.1
		L378.2,149.1z M409.9,157.2h9.5v-27.8l21.2,27.8h8.2v-43.7h-9.5v26.9l-20.5-26.9h-8.9V157.2L409.9,157.2z M477.9,157.2h20.8
		c9.9,0,16.3-4,16.3-12v-0.1c0-5.9-3.1-8.8-8.2-10.7c3.1-1.7,5.7-4.5,5.7-9.4v-0.1c0-3-1-5.4-3-7.4c-2.5-2.5-6.4-3.9-11.4-3.9h-20.3
		V157.2L477.9,157.2z M503.1,126.6c0,3.2-2.7,4.6-6.9,4.6h-8.9V122h9.5c4.1,0,6.3,1.6,6.3,4.5V126.6L503.1,126.6z M505.5,144v0.1
		c0,3.2-2.6,4.7-6.8,4.7h-11.4v-9.6h11.1C503.3,139.2,505.5,141,505.5,144L505.5,144z M523,157.2h9.6v-14h7.6l9.4,14h11.2L550,141.6
		c5.5-2.1,9.4-6.5,9.4-13.5V128c0-4.1-1.3-7.6-3.7-10c-2.9-2.9-7.2-4.4-12.7-4.4h-20V157.2L523,157.2z M532.6,134.8v-12.5h9.6
		c4.7,0,7.6,2.1,7.6,6.2v0.1c0,3.7-2.7,6.2-7.4,6.2H532.6L532.6,134.8z M568.5,157.2h9.6v-43.7h-9.6V157.2L568.5,157.2z M589,157.2
		h17c13.7,0,23.2-9.5,23.2-21.8v-0.1c0-12.3-9.5-21.7-23.2-21.7h-17V157.2L589,157.2z M606.1,122.2c7.9,0,13.2,5.4,13.2,13.2v0.1
		c0,7.7-5.3,13-13.2,13h-7.4v-26.3H606.1L606.1,122.2z M658.9,158c8,0,14.2-3.1,18.7-6.9v-19h-19v8.3h9.7v6.2
		c-2.4,1.7-5.6,2.6-9.1,2.6c-7.7,0-13.2-5.9-13.2-13.9v-0.1c0-7.4,5.6-13.6,12.5-13.6c5.1,0,8.1,1.6,11.4,4.4l6-7.3
		c-4.6-3.9-9.3-6-17.2-6c-13.2,0-22.9,10.2-22.9,22.6v0.1C635.9,148.4,645.2,158,658.9,158L658.9,158z M686.8,157.2H720v-8.5h-23.7
		v-9.2h20.6V131h-20.6v-8.9h23.4v-8.5h-32.9V157.2L686.8,157.2z"/>
</g>
</svg>
