<?xml version="1.0" encoding="utf-8"?>
<!-- Generator: Adobe Illustrator 26.0.1, SVG Export Plug-In . SVG Version: 6.00 Build 0)  -->
<svg version="1.1" id="Layer_1" xmlns="http://www.w3.org/2000/svg" xmlns:xlink="http://www.w3.org/1999/xlink" x="0px" y="0px"
	 viewBox="0 0 722.16 162.75" style="enable-background:new 0 0 722.16 162.75;" xml:space="preserve">
<style type="text/css">
	.st0{fill:#000029;}
	.st1{fill:#008FFF;}
</style>
<g>
	<path class="st0" d="M37.41,80.59c-14.24,0-26.45-4.63-37.41-11.53l6.78-10.28c10.96,7.01,21.02,10.4,32.33,10.4
		c13.22,0,19.44-5.09,19.44-11.08c0-17.18-55.95-6.9-55.95-34.25C2.6,10.51,15.94,0,37.41,0c14.47,0,27.01,5.43,34.36,12.77
		l-8.36,8.59c-6.33-5.54-16.05-9.95-26.22-9.95c-12.55,0-21.02,4.52-21.02,10.96c0,15.94,56.06,7.46,56.06,34.36
		C72.23,70.98,57.87,80.59,37.41,80.59L37.41,80.59z M127.05,47.7v30.18h-13.56V47.58L79.58,2.6H95.4l25.43,34.81L144.9,2.6h15.6
		L127.05,47.7L127.05,47.7z M255.11,77.88v-59l-3.73,8.03l-26.67,50.98h-8.14L190.24,26.9l-3.73-8.03v59h-13V2.6h18.88l25.32,50.64
		l3.5,7.69l3.5-7.69L249.69,2.6h18.65v75.28H255.11L255.11,77.88z M342.11,24.98c0-6.22-4.18-10.85-14.47-10.85h-24.98v24.3h25.55
		c10.28,0,13.9-4.98,13.9-11.08V24.98L342.11,24.98z M326.17,49.51h-23.51v28.37H289.1V2.6h37.07c20.57,0,29.61,9.27,29.61,22.38
		v2.03C355.79,40.13,346.74,49.51,326.17,49.51L326.17,49.51z M429.69,77.88V45.44h-45.32v32.44H370.8V2.6h13.56v31.88h45.32V2.6
		h13.56v75.28H429.69L429.69,77.88z M525.16,35.6c0-12.88-8.93-23.96-25.43-23.96c-16.51,0-25.32,11.08-25.32,23.96v9.16
		c0,12.89,8.81,24.19,25.32,24.19c16.5,0,25.43-11.3,25.43-24.19V35.6L525.16,35.6z M499.72,80.59c-24.19,0-39-17.18-39-35.6V35.6
		c0-18.76,14.81-35.6,39-35.6c24.3,0,39.11,16.84,39.11,35.6v9.38C538.83,63.41,524.02,80.59,499.72,80.59L499.72,80.59z
		 M617.14,77.88l-42.16-47.59l-5.43-7.01v54.59H556.1V2.6h12.54l40.81,47.7l5.54,7.01V2.6h13.34v75.28H617.14L617.14,77.88z
		 M688.7,47.7v30.18h-13.57V47.58L641.23,2.6h15.83l25.43,34.81L706.56,2.6h15.6L688.7,47.7L688.7,47.7z"/>
	<path class="st1" d="M36.16,160.57c3.33-1.45,6.21-3.21,8.63-5.27v-20.42H24.38v8.93h10.41v6.76c-2.64,1.89-5.89,2.84-9.74,2.84
		c-2.11,0-4.02-0.37-5.74-1.11c-1.72-0.74-3.22-1.78-4.5-3.13c-1.28-1.35-2.26-2.93-2.95-4.74c-0.69-1.82-1.04-3.8-1.04-5.96v-0.13
		c0-2.02,0.35-3.91,1.04-5.69c0.69-1.77,1.66-3.32,2.89-4.64c1.23-1.32,2.66-2.38,4.3-3.16c1.63-0.79,3.39-1.18,5.27-1.18
		c1.34,0,2.57,0.11,3.69,0.34c1.12,0.22,2.16,0.54,3.12,0.94c0.96,0.4,1.89,0.9,2.79,1.48c0.9,0.58,1.79,1.25,2.69,2.01l6.51-7.86
		c-1.21-1.03-2.46-1.95-3.76-2.75c-1.3-0.81-2.69-1.48-4.16-2.02c-1.48-0.54-3.08-0.95-4.8-1.24c-1.72-0.29-3.64-0.44-5.74-0.44
		c-3.58,0-6.87,0.64-9.87,1.91c-3,1.28-5.6,3.02-7.79,5.24c-2.19,2.22-3.91,4.79-5.14,7.72C0.61,131.94,0,135.09,0,138.44v0.13
		c0,3.49,0.6,6.72,1.81,9.67c1.21,2.96,2.9,5.51,5.07,7.66c2.17,2.15,4.77,3.83,7.79,5.04c3.02,1.21,6.37,1.81,10.04,1.81
		C29.01,162.75,32.83,162.03,36.16,160.57L36.16,160.57z M55.67,161.95H91.4v-9.2H65.88v-9.87h22.16v-9.2H65.88v-9.54h25.18v-9.2
		H55.67V161.95L55.67,161.95z M101.61,161.95h10.21v-29.89l22.77,29.89h8.8v-47.01h-10.21v28.95l-22.03-28.95h-9.54V161.95
		L101.61,161.95z M155.6,161.95h35.73v-9.2h-25.52v-9.87h22.16v-9.2h-22.16v-9.54H191v-9.2H155.6V161.95L155.6,161.95z
		 M211.88,137.77v-13.5h10.27c2.55,0,4.54,0.56,5.98,1.68c1.43,1.12,2.15,2.8,2.15,5.04v0.13c0,2.02-0.68,3.63-2.05,4.84
		c-1.37,1.21-3.32,1.81-5.88,1.81H211.88L211.88,137.77z M201.54,161.95h10.34V146.9h7.99h0.13l10.07,15.04h12.09l-11.48-16.79
		c3-1.12,5.43-2.88,7.29-5.27c1.86-2.39,2.79-5.5,2.79-9.3v-0.13c0-4.48-1.34-8.06-4.03-10.75c-3.18-3.18-7.75-4.77-13.7-4.77
		h-21.49V161.95L201.54,161.95z M265.54,142.27l6.25-15.25l6.25,15.25H265.54L265.54,142.27z M247.01,161.95h10.54l4.3-10.54h19.88
		l4.3,10.54h10.81l-20.15-47.35h-9.54L247.01,161.95L247.01,161.95z M315.98,161.95h10.34v-37.47h14.3v-9.54h-38.95v9.54h14.3
		V161.95L315.98,161.95z M366.71,152.04c-1.73-0.78-3.22-1.85-4.5-3.19c-1.28-1.34-2.26-2.91-2.96-4.7
		c-0.7-1.79-1.04-3.69-1.04-5.71v-0.13c0-2.01,0.35-3.9,1.04-5.67c0.69-1.77,1.66-3.32,2.89-4.67c1.23-1.34,2.71-2.4,4.43-3.16
		c1.72-0.76,3.64-1.14,5.74-1.14c2.06,0,3.96,0.39,5.71,1.18c1.75,0.78,3.26,1.85,4.53,3.19c1.28,1.34,2.26,2.91,2.95,4.7
		c0.69,1.79,1.04,3.69,1.04,5.71v0.13c0,2.02-0.35,3.91-1.04,5.68c-0.7,1.77-1.66,3.32-2.89,4.67c-1.23,1.34-2.72,2.4-4.47,3.16
		c-1.75,0.76-3.65,1.14-5.71,1.14C370.35,153.22,368.44,152.83,366.71,152.04L366.71,152.04z M382.36,160.84
		c3.07-1.28,5.71-3.02,7.93-5.24c2.22-2.22,3.95-4.79,5.2-7.72c1.25-2.93,1.88-6.08,1.88-9.44v-0.13c0-3.36-0.62-6.5-1.85-9.44
		c-1.23-2.93-2.95-5.48-5.17-7.66c-2.22-2.17-4.85-3.9-7.89-5.17c-3.05-1.28-6.38-1.91-10.01-1.91c-3.63,0-6.97,0.64-10.04,1.91
		c-3.07,1.28-5.71,3.02-7.92,5.24c-2.22,2.22-3.95,4.79-5.2,7.72c-1.25,2.93-1.88,6.08-1.88,9.44v0.13c0,3.36,0.62,6.5,1.85,9.44
		c1.23,2.93,2.95,5.48,5.17,7.66c2.22,2.17,4.85,3.89,7.89,5.17c3.04,1.28,6.38,1.91,10.01,1.91
		C375.95,162.75,379.29,162.12,382.36,160.84L382.36,160.84z M417.85,137.77v-13.5h10.28c2.55,0,4.54,0.56,5.98,1.68
		c1.43,1.12,2.15,2.8,2.15,5.04v0.13c0,2.02-0.68,3.63-2.05,4.84c-1.37,1.21-3.32,1.81-5.88,1.81H417.85L417.85,137.77z
		 M407.51,161.95h10.34V146.9h7.99h0.14l10.07,15.04h12.09l-11.48-16.79c3-1.12,5.43-2.88,7.29-5.27c1.86-2.39,2.79-5.5,2.79-9.3
		v-0.13c0-4.48-1.34-8.06-4.03-10.75c-3.18-3.18-7.75-4.77-13.7-4.77h-21.49V161.95L407.51,161.95z"/>
</g>
</svg>
