<?xml version="1.0" encoding="utf-8"?>
<!-- Generator: Adobe Illustrator 25.4.1, SVG Export Plug-In . SVG Version: 6.00 Build 0)  -->
<svg version="1.1" id="Layer_1" xmlns="http://www.w3.org/2000/svg" xmlns:xlink="http://www.w3.org/1999/xlink" x="0px" y="0px"
	 viewBox="0 0 724.3 163.2" style="enable-background:new 0 0 724.3 163.2;" xml:space="preserve">
<style type="text/css">
	.st0{fill:#008EFF;}
	.st1{fill:#000029;}
</style>
<g>
	<path class="st0" d="M5.7,162.4h22.4c10.6,0,17.6-4.3,17.6-12.9v-0.1c0-6.3-3.4-9.5-8.8-11.6c3.4-1.9,6.2-4.8,6.2-10.2v-0.1
		c0-3.2-1.1-5.9-3.2-8c-2.7-2.7-6.9-4.2-12.3-4.2H5.7V162.4L5.7,162.4z M32.8,129.4c0,3.5-2.9,5-7.5,5h-9.6v-10H26
		c4.4,0,6.8,1.8,6.8,4.9V129.4L32.8,129.4z M35.4,148.1v0.1c0,3.5-2.8,5.1-7.3,5.1H15.8V143h12C33.1,143,35.4,144.9,35.4,148.1
		L35.4,148.1z M54.3,162.4h18.4c14.8,0,25.1-10.3,25.1-23.6v-0.1c0-13.3-10.2-23.4-25.1-23.4H54.3V162.4L54.3,162.4z M72.7,124.6
		c8.5,0,14.2,5.9,14.2,14.2v0.1c0,8.4-5.7,14.1-14.2,14.1h-8v-28.4L72.7,124.6L72.7,124.6z M107,162.4h10.4V148l5.5-5.7l14.6,20.1
		H150l-20.1-27.1l19.2-20h-12.5l-19.1,20.6v-20.6H107V162.4L107,162.4z M176.3,162.4h10.4v-14.1h7.9c10.6,0,19.1-5.7,19.1-16.6v-0.1
		c0-9.6-6.8-16.3-18-16.3h-19.3L176.3,162.4L176.3,162.4z M186.7,139.1v-14.4h8c5.2,0,8.4,2.5,8.4,7.1v0.1c0,4-3,7.1-8.2,7.1
		L186.7,139.1L186.7,139.1z M233.9,162.4h10.4v-18.8l18.1-28.4h-11.8l-11.4,18.9L228,115.2h-12.1l18.1,28.6v18.6L233.9,162.4
		L233.9,162.4z M279.9,162.4h10.4v-37.6h14.3v-9.6h-39.1v9.6h14.3v37.6H279.9z M312.5,162.4h10.4v-18.9H342v18.9h10.4v-47.1H342V134
		h-19.1v-18.7h-10.4V162.4L312.5,162.4z M386.6,163.2c14.6,0,25.1-11,25.1-24.4v-0.1c0-13.4-10.4-24.2-25-24.2s-25.1,11-25.1,24.4
		v0.1C361.7,152.4,372.1,163.2,386.6,163.2L386.6,163.2z M386.8,153.7c-8.4,0-14.3-6.7-14.3-14.8v-0.1c0-8.1,5.8-14.7,14.1-14.7
		c8.4,0,14.3,6.7,14.3,14.8v0.1C400.9,147.1,395.1,153.7,386.8,153.7L386.8,153.7z M421,162.4h10.2v-30l22.8,30h8.8v-47.1h-10.2v29
		l-22.1-29H421V162.4L421,162.4z"/>
	<path class="st1" d="M37.5,80.8C23.2,80.8,11,76.2,0,69.3L6.8,59c11,7,21.1,10.4,32.4,10.4c13.3,0,19.5-5.1,19.5-11.1
		c0-17.2-56.1-6.9-56.1-34.4C2.6,10.5,16,0,37.5,0C52,0,64.6,5.4,72,12.8l-8.4,8.6c-6.3-5.6-16.1-10-26.3-10
		c-12.6,0-21.1,4.5-21.1,11c0,16,56.2,7.5,56.2,34.5C72.4,71.2,58,80.8,37.5,80.8L37.5,80.8z M127.4,47.8v30.3h-13.6V47.7l-34-45.1
		h15.9l25.5,34.9l24.1-34.9H161L127.4,47.8L127.4,47.8z M255.9,78.1V18.9l-3.7,8L225.4,78h-8.2l-26.4-51l-3.7-8v59.2h-13V2.6H193
		l25.4,50.8l3.5,7.7l3.5-7.7l25.1-50.8h18.7v75.5H255.9L255.9,78.1z M343.1,25.1c0-6.2-4.2-10.9-14.5-10.9h-25.1v24.4h25.6
		c10.3,0,13.9-5,13.9-11.1v-2.4C343,25.1,343.1,25.1,343.1,25.1z M327.1,49.7h-23.6v28.5H290V2.6h37.2c20.6,0,29.7,9.3,29.7,22.4v2
		C356.9,40.2,347.8,49.7,327.1,49.7L327.1,49.7z M431,78.1V45.6h-45.5v32.5h-13.6V2.6h13.6v32H431v-32h13.6v75.5H431L431,78.1z
		 M526.7,35.7c0-12.9-9-24-25.5-24c-16.6,0-25.4,11.1-25.4,24v9.2c0,12.9,8.8,24.3,25.4,24.3c16.5,0,25.5-11.3,25.5-24.3V35.7
		L526.7,35.7z M501.2,80.8c-24.3,0-39.1-17.2-39.1-35.7v-9.4C462.1,16.9,477,0,501.2,0c24.4,0,39.2,16.9,39.2,35.7v9.4
		C540.4,63.6,525.6,80.8,501.2,80.8L501.2,80.8z M619,78.1l-42.3-47.7l-5.4-7v54.8h-13.5V2.6h12.6l40.9,47.8l5.6,7V2.6h13.4v75.5
		H619L619,78.1z M690.8,47.8v30.3h-13.6V47.7l-34-45.1H659l25.5,34.9l24.1-34.9h15.6L690.8,47.8L690.8,47.8z"/>
</g>
</svg>
