<?xml version="1.0" encoding="utf-8"?>
<!-- Generator: Adobe Illustrator 25.0.0, SVG Export Plug-In . SVG Version: 6.00 Build 0)  -->
<svg version="1.1" id="Layer_1" xmlns="http://www.w3.org/2000/svg" xmlns:xlink="http://www.w3.org/1999/xlink" x="0px" y="0px"
	 viewBox="0 0 729 129.7" style="enable-background:new 0 0 729 129.7;" xml:space="preserve">
<style type="text/css">
	.st0{fill:#000029;}
	.st1{fill:#008FFF;}
</style>
<g>
	<path class="st0" d="M30,64.5c-11.4,0-21.2-3.7-30-9.2l5.4-8.2c8.8,5.6,16.8,8.3,25.9,8.3c10.6,0,15.6-4.1,15.6-8.9
		c0-13.8-44.8-5.5-44.8-27.4C2.1,8.4,12.8,0,30,0c11.6,0,21.6,4.3,27.5,10.2l-6.7,6.9c-5.1-4.4-12.9-8-21-8c-10,0-16.8,3.6-16.8,8.8
		c0,12.8,44.9,6,44.9,27.5C57.8,56.8,46.3,64.5,30,64.5L30,64.5z M101.7,38.2v24.2H90.9V38.1l-27.2-36h12.7L96.8,30L116,2.1h12.5
		L101.7,38.2L101.7,38.2z M204.3,62.4V15.1l-3,6.4l-21.4,40.8h-6.5l-21.1-40.8l-3-6.4v47.2h-10.4V2.1H154l20.3,40.5l2.8,6.2l2.8-6.2
		l20-40.5h14.9v60.3H204.3L204.3,62.4z M273.9,20c0-5-3.3-8.7-11.6-8.7h-20v19.5h20.5c8.2,0,11.1-4,11.1-8.9V20L273.9,20z
		 M261.2,39.6h-18.8v22.7h-10.9V2.1h29.7c16.5,0,23.7,7.4,23.7,17.9v1.6C284.9,32.1,277.7,39.6,261.2,39.6L261.2,39.6z M344.1,62.4
		v-26h-36.3v26h-10.9V2.1h10.9v25.5h36.3V2.1h10.9v60.3H344.1L344.1,62.4z M420.5,28.5c0-10.3-7.2-19.2-20.4-19.2
		c-13.2,0-20.3,8.9-20.3,19.2v7.3c0,10.3,7.1,19.4,20.3,19.4c13.2,0,20.4-9.1,20.4-19.4V28.5L420.5,28.5z M400.2,64.5
		c-19.4,0-31.2-13.8-31.2-28.5v-7.5c0-15,11.9-28.5,31.2-28.5c19.5,0,31.3,13.5,31.3,28.5V36C431.5,50.8,419.6,64.5,400.2,64.5
		L400.2,64.5z M494.2,62.4l-33.8-38.1l-4.3-5.6v43.7h-10.8V2.1h10L488,40.3l4.4,5.6V2.1h10.7v60.3H494.2L494.2,62.4z M551.5,38.2
		v24.2h-10.9V38.1l-27.2-36h12.7L546.5,30l19.3-27.9h12.5L551.5,38.2L551.5,38.2z"/>
	<path class="st1" d="M17.1,129.6c7.7,0,13.2-4,13.2-11.1v-0.1c0-6.2-4.1-8.9-11.4-10.8c-6.2-1.6-7.7-2.4-7.7-4.7v-0.1
		c0-1.7,1.6-3.1,4.6-3.1s6.1,1.3,9.3,3.5l4.1-5.9c-3.6-2.9-8.1-4.6-13.3-4.6c-7.3,0-12.5,4.3-12.5,10.8v0.1c0,7.1,4.7,9.1,11.9,11
		c6,1.5,7.2,2.6,7.2,4.6v0.1c0,2.1-1.9,3.4-5.2,3.4c-4.1,0-7.5-1.7-10.7-4.4l-4.7,5.6C6.1,127.7,11.6,129.6,17.1,129.6L17.1,129.6z
		 M35.3,129.1h26.5v-6.8H46.2l5.8-4.5c6.3-4.9,9.4-7.9,9.4-13.9v-0.1c0-6.7-4.9-11.1-12.3-11.1c-6.4,0-9.8,2.6-13.4,7.4l5.5,4.5
		c2.7-3.3,4.6-4.8,7.3-4.8c2.8,0,4.8,1.6,4.8,4.7c0,3-1.7,4.9-6.2,8.6l-11.9,9.8V129.1L35.3,129.1z M101.1,129.7
		c6.9,0,11-2.5,14.7-6.4l-5-5.1c-2.8,2.6-5.3,4.2-9.4,4.2c-6.1,0-10.4-5.1-10.4-11.3V111c0-6.1,4.4-11.2,10.4-11.2
		c3.6,0,6.4,1.5,9.2,4l5-5.8c-3.3-3.3-7.4-5.5-14.1-5.5c-11,0-18.7,8.3-18.7,18.5v0.1C82.8,121.5,90.6,129.7,101.1,129.7
		L101.1,129.7z M138.5,129.7c11.1,0,19.1-8.3,19.1-18.5V111c0-10.2-7.9-18.4-19-18.4c-11.1,0-19.1,8.3-19.1,18.5v0.1
		C119.5,121.4,127.5,129.7,138.5,129.7L138.5,129.7z M138.6,122.4c-6.4,0-10.9-5.1-10.9-11.3V111c0-6.1,4.4-11.2,10.8-11.2
		c6.4,0,10.9,5.1,10.9,11.3v0.1C149.4,117.4,145,122.4,138.6,122.4L138.6,122.4z M164.7,129.1h7.7v-23.2l10,15.2h0.2l10.1-15.3v23.4
		h7.8V93.2H192l-9.4,15.2l-9.4-15.2h-8.5V129.1L164.7,129.1z M209.1,129.1h7.7v-23.2l10,15.2h0.2l10.1-15.3v23.4h7.8V93.2h-8.5
		l-9.4,15.2l-9.4-15.2h-8.5V129.1L209.1,129.1z M271,129.7c11.1,0,19.1-8.3,19.1-18.5V111c0-10.2-7.9-18.4-19-18.4
		c-11.1,0-19.1,8.3-19.1,18.5v0.1C252,121.4,259.9,129.7,271,129.7L271,129.7z M271.1,122.4c-6.4,0-10.9-5.1-10.9-11.3V111
		c0-6.1,4.4-11.2,10.8-11.2c6.4,0,10.9,5.1,10.9,11.3v0.1C281.8,117.4,277.4,122.4,271.1,122.4L271.1,122.4z M297.1,129.1h7.8v-22.8
		l17.4,22.8h6.7V93.2h-7.8v22.1l-16.8-22.1h-7.3V129.1L297.1,129.1z M369.7,129.7c6.9,0,11-2.5,14.7-6.4l-5-5.1
		c-2.8,2.6-5.3,4.2-9.4,4.2c-6.1,0-10.4-5.1-10.4-11.3V111c0-6.1,4.4-11.2,10.4-11.2c3.6,0,6.4,1.5,9.2,4l5-5.8
		c-3.3-3.3-7.4-5.5-14.1-5.5c-11,0-18.7,8.3-18.7,18.5v0.1C351.3,121.5,359.2,129.7,369.7,129.7L369.7,129.7z M407.1,129.7
		c11.1,0,19.1-8.3,19.1-18.5V111c0-10.2-7.9-18.4-19-18.4c-11.1,0-19.1,8.3-19.1,18.5v0.1C388.1,121.4,396,129.7,407.1,129.7
		L407.1,129.7z M407.2,122.4c-6.4,0-10.9-5.1-10.9-11.3V111c0-6.1,4.4-11.2,10.8-11.2c6.4,0,10.9,5.1,10.9,11.3v0.1
		C418,117.4,413.6,122.4,407.2,122.4L407.2,122.4z M433.2,129.1h7.7v-23.2l10,15.2h0.2l10.1-15.3v23.4h7.8V93.2h-8.5l-9.4,15.2
		l-9.4-15.2h-8.5V129.1L433.2,129.1z M477.7,129.1h7.9v-10.8h6c8,0,14.5-4.3,14.5-12.6v-0.1c0-7.3-5.2-12.4-13.7-12.4h-14.6V129.1
		L477.7,129.1z M485.6,111.3v-11h6.1c3.9,0,6.4,1.9,6.4,5.4v0.1c0,3.1-2.3,5.4-6.3,5.4H485.6L485.6,111.3z M529.3,129.7
		c11.1,0,19.1-8.3,19.1-18.5V111c0-10.2-7.9-18.4-19-18.4c-11.1,0-19.1,8.3-19.1,18.5v0.1C510.3,121.4,518.2,129.7,529.3,129.7
		L529.3,129.7z M529.4,122.4c-6.4,0-10.9-5.1-10.9-11.3V111c0-6.1,4.4-11.2,10.8-11.2c6.4,0,10.9,5.1,10.9,11.3v0.1
		C540.2,117.4,535.8,122.4,529.4,122.4L529.4,122.4z M555.4,129.1h7.8v-22.8l17.4,22.8h6.7V93.2h-7.8v22.1l-16.8-22.1h-7.3V129.1
		L555.4,129.1z M595.9,129.1h27.3v-7h-19.5v-7.5h16.9v-7h-16.9v-7.3h19.2v-7h-27V129.1L595.9,129.1z M630.2,129.1h7.8v-22.8
		l17.4,22.8h6.7V93.2h-7.8v22.1l-16.8-22.1h-7.3V129.1L630.2,129.1z M679,129.1h7.9v-28.6h10.9v-7.3h-29.7v7.3H679V129.1L679,129.1z
		 M715.8,129.6c7.7,0,13.2-4,13.2-11.1v-0.1c0-6.2-4.1-8.9-11.4-10.8c-6.2-1.6-7.7-2.4-7.7-4.7v-0.1c0-1.7,1.6-3.1,4.6-3.1
		c3,0,6.2,1.3,9.3,3.5l4.1-5.9c-3.6-2.9-8.1-4.6-13.3-4.6c-7.3,0-12.5,4.3-12.5,10.8v0.1c0,7.1,4.7,9.1,11.9,11
		c6,1.5,7.2,2.6,7.2,4.6v0.1c0,2.1-1.9,3.4-5.2,3.4c-4.1,0-7.5-1.7-10.7-4.4l-4.7,5.6C704.9,127.7,710.4,129.6,715.8,129.6
		L715.8,129.6z"/>
</g>
</svg>
