<?xml version="1.0" encoding="utf-8"?>
<!-- Generator: Adobe Illustrator 26.0.2, SVG Export Plug-In . SVG Version: 6.00 Build 0)  -->
<svg version="1.1" id="Layer_1" xmlns="http://www.w3.org/2000/svg" xmlns:xlink="http://www.w3.org/1999/xlink" x="0px" y="0px"
	 viewBox="0 0 869.9 263.5" style="enable-background:new 0 0 869.9 263.5;" xml:space="preserve">
<style type="text/css">
	.st0{fill:#A100FF;}
</style>
<g>
	<path class="st0" d="M41.1,189.9v20c0,0.2-0.2,0.4-0.4,0.2c-2.4-3.6-6.3-5.6-11.2-5.6c-7.8,0-13.2,4.5-14.9,11.2
		c-0.7,2.8-0.8,6.1-0.8,10.4c0,4.4,0.2,7.6,0.9,10.4c1.8,6.6,7.1,11,14.8,11c4.9,0,8.8-2.1,11.2-5.7c0.2-0.2,0.4-0.2,0.4,0.2v3.9
		c0,0.6,0.4,1,1,1h2.4c0.6,0,1-0.4,1-1v-56c0-0.6-0.4-1-1-1h-2.4C41.5,189,41.1,189.4,41.1,189.9L41.1,189.9z M40,235.9
		c-1.2,4.4-4.6,7.8-10,7.8c-5.5,0-9.6-3.1-10.8-7.8c-0.7-2.1-1.1-3.8-1.1-9.9c0-6.3,0.5-8.1,1.3-10.1c1.2-4.3,5.1-7.5,10.5-7.5
		c5.3,0,8.9,3.3,9.9,7.6c0.7,2.1,1.1,3.9,1.1,10.1C41,232.2,40.7,234,40,235.9L40,235.9z M73.7,204.5c-8.2,0-14,4-15.1,9.8
		c-0.1,0.5,0.3,0.8,0.9,0.9l2.6,0.3c0.6,0.1,1-0.2,1.2-0.8c0.9-3.9,4.7-6.3,10.3-6.3c7.6,0,10.6,4.2,10.6,10.1v3.7
		c0,0.2-0.2,0.3-0.3,0.3H74c-10.7,0-17.1,5-17.1,13.2c0,8.6,6.7,11.8,13.6,11.8c5.3,0,10.3-1.8,13.3-5.4c0.2-0.2,0.4-0.1,0.4,0.2
		v3.6c0,0.6,0.4,1,1,1h2.4c0.6,0,1-0.4,1-1v-27.5C88.6,210.1,83.7,204.5,73.7,204.5L73.7,204.5z M71.3,243.8c-5.5,0-10-2.6-10-8.2
		c0-6,5.4-9.4,13.2-9.4h9.4c0.2,0,0.3,0.2,0.3,0.3v7.5C84.3,240.5,77.8,243.8,71.3,243.8L71.3,243.8z M119,207.9v-1.7
		c0-0.6-0.4-1-1-1h-9.5c-0.2,0-0.3-0.2-0.3-0.3v-9.3c0-0.6-0.4-1-1-1h-2.3c-0.6,0-1,0.4-1,1v9.3c0,0.2-0.2,0.3-0.3,0.3h-4.8
		c-0.6,0-1,0.4-1,1v1.7c0,0.6,0.4,1,1,1h4.8c0.2,0,0.3,0.2,0.3,0.3v27.2c0.1,8.4,4.8,10.4,11.8,10.4c0.7,0,1.5-0.1,2.3-0.1
		c0.7,0,1-0.4,1-1v-1.9c0-0.6-0.4-1-1-1h-1.7c-5.4,0-8-1.8-8-7.6v-26.1c0-0.2,0.2-0.3,0.3-0.3h9.5C118.5,208.9,119,208.5,119,207.9
		L119,207.9z M145.1,204.5c-8.2,0-14,4-15.1,9.8c-0.1,0.5,0.3,0.8,0.9,0.9l2.6,0.3c0.6,0.1,1-0.2,1.2-0.8c0.9-3.9,4.7-6.3,10.3-6.3
		c7.6,0,10.6,4.2,10.6,10.1v3.7c0,0.2-0.2,0.3-0.3,0.3h-9.9c-10.7,0-17.1,5-17.1,13.2c0,8.6,6.7,11.8,13.6,11.8
		c5.3,0,10.3-1.8,13.3-5.4c0.2-0.2,0.4-0.1,0.4,0.2v3.6c0,0.6,0.4,1,1,1h2.4c0.6,0,1-0.4,1-1v-27.5C160,210.1,155,204.5,145.1,204.5
		L145.1,204.5z M142.7,243.8c-5.5,0-10-2.6-10-8.2c0-6,5.4-9.4,13.2-9.4h9.4c0.2,0,0.3,0.2,0.3,0.3v7.5
		C155.6,240.5,149.2,243.8,142.7,243.8L142.7,243.8z M219.8,218.8h-14.2c-0.2,0-0.3-0.2-0.3-0.3v-14.6c0-0.6-0.4-1-1-1h-1.8
		c-0.6,0-1,0.4-1,1v14.6c0,0.2-0.2,0.3-0.3,0.3H187c-0.6,0-1,0.4-1,1v1.8c0,0.6,0.4,1,1,1h14.1c0.2,0,0.3,0.2,0.3,0.3v13.8
		c0,0.6,0.4,1,1,1h1.8c0.6,0,1-0.4,1-1V223c0-0.2,0.2-0.3,0.3-0.3h14.2c0.6,0,1-0.4,1-1v-1.8C220.8,219.3,220.4,218.8,219.8,218.8
		L219.8,218.8z M261.9,204.5c-8.2,0-14,4-15.1,9.8c-0.1,0.5,0.3,0.8,0.9,0.9l2.6,0.3c0.6,0.1,1-0.2,1.2-0.8
		c0.9-3.9,4.7-6.3,10.3-6.3c7.6,0,10.6,4.2,10.6,10.1v3.7c0,0.2-0.2,0.3-0.3,0.3h-9.9c-10.7,0-17.1,5-17.1,13.2
		c0,8.6,6.7,11.8,13.6,11.8c5.3,0,10.3-1.8,13.3-5.4c0.2-0.2,0.4-0.1,0.4,0.2v3.6c0,0.6,0.4,1,1,1h2.4c0.6,0,1-0.4,1-1v-27.5
		C276.8,210.1,271.8,204.5,261.9,204.5L261.9,204.5z M259.5,243.8c-5.5,0-10-2.6-10-8.2c0-6,5.4-9.4,13.2-9.4h9.4
		c0.2,0,0.3,0.2,0.3,0.3v7.5C272.4,240.5,265.9,243.8,259.5,243.8L259.5,243.8z M306.4,204.6c-5.2,0-9.4,2-11.8,5.6
		c-0.2,0.2-0.3,0.2-0.3-0.2v-3.9c0-0.6-0.4-1-1-1h-2.4c-0.6,0-1,0.4-1,1v39.7c0,0.6,0.4,1,1,1h2.4c0.6,0,1-0.4,1-1v-26.5
		c0-6.5,4.5-10.9,11.2-10.9c6.3,0,10.7,4.6,10.7,11.1v26.3c0,0.6,0.4,1,1,1h2.4c0.6,0,1-0.4,1-1v-27.2
		C320.6,210.2,314.9,204.6,306.4,204.6L306.4,204.6z M348.2,204.5c-8.2,0-14,4-15.1,9.8c-0.1,0.5,0.3,0.8,0.9,0.9l2.6,0.3
		c0.6,0.1,1-0.2,1.2-0.8c0.9-3.9,4.7-6.3,10.3-6.3c7.6,0,10.6,4.2,10.6,10.1v3.7c0,0.2-0.2,0.3-0.3,0.3h-9.9
		c-10.7,0-17.1,5-17.1,13.2c0,8.6,6.7,11.8,13.6,11.8c5.3,0,10.3-1.8,13.3-5.4c0.2-0.2,0.4-0.1,0.4,0.2v3.6c0,0.6,0.4,1,1,1h2.4
		c0.6,0,1-0.4,1-1v-27.5C363.1,210.1,358.2,204.5,348.2,204.5L348.2,204.5z M345.8,243.8c-5.5,0-10-2.6-10-8.2c0-6,5.4-9.4,13.2-9.4
		h9.4c0.2,0,0.3,0.2,0.3,0.3v7.5C358.7,240.5,352.3,243.8,345.8,243.8L345.8,243.8z M377.3,246.9h2.4c0.6,0,1-0.4,1-1v-56
		c0-0.6-0.4-1-1-1h-2.4c-0.6,0-1,0.4-1,1v56C376.3,246.5,376.7,246.9,377.3,246.9L377.3,246.9z M392.8,263.5h0.6
		c7.8,0,10.2-1.9,13.8-12.3l15.6-44.8c0.2-0.7-0.2-1.2-0.8-1.2h-2.6c-0.6,0-0.9,0.3-1.1,0.8l-11.3,34.5c-0.1,0.2-0.4,0.2-0.5,0
		L394.7,206c-0.2-0.5-0.5-0.8-1.1-0.8h-2.5c-0.7,0-1.1,0.4-0.8,1.2l14.1,40.3c0.1,0.1,0.1,0.3,0,0.5c-3.3,10.3-4.8,12.4-11,12.5
		h-0.6c-0.3,0-0.6,0.4-0.6,1v1.8C392.2,263.1,392.4,263.5,392.8,263.5L392.8,263.5z M449.6,207.9v-1.7c0-0.6-0.4-1-1-1h-9.5
		c-0.2,0-0.3-0.2-0.3-0.3v-9.3c0-0.6-0.4-1-1-1h-2.3c-0.6,0-1,0.4-1,1v9.3c0,0.2-0.2,0.3-0.3,0.3h-4.8c-0.6,0-1,0.4-1,1v1.7
		c0,0.6,0.4,1,1,1h4.8c0.2,0,0.3,0.2,0.3,0.3v27.2c0.1,8.4,4.8,10.4,11.8,10.4c0.7,0,1.5-0.1,2.3-0.1c0.7,0,1-0.4,1-1v-1.9
		c0-0.6-0.4-1-1-1h-1.7c-5.4,0-8-1.8-8-7.6v-26.1c0-0.2,0.2-0.3,0.3-0.3h9.5C449.2,208.9,449.6,208.5,449.6,207.9L449.6,207.9z
		 M464.8,196.8c2.2,0,3.8-1.6,3.8-3.6s-1.6-3.6-3.8-3.6c-2.2,0-3.8,1.5-3.8,3.6S462.6,196.8,464.8,196.8L464.8,196.8z M463.6,246.9
		h2.4c0.6,0,1-0.4,1-1v-39.7c0-0.6-0.4-1-1-1h-2.4c-0.6,0-1,0.4-1,1v39.7C462.6,246.5,463.1,246.9,463.6,246.9L463.6,246.9z
		 M497.2,247.6c7.9,0,14.1-4.4,15.6-10.5c0.2-0.5,0.2-1,0.3-1.3c0.1-0.7-0.3-1.1-0.9-1.2l-2.2-0.2c-0.6-0.1-1.1,0.2-1.2,0.7
		l-0.1,0.3c-0.8,4.6-5.4,8.3-11.5,8.3c-6.2,0-10.3-3.6-11.4-8.9c-0.4-1.7-0.7-4.6-0.7-8.8c0-4,0.3-7.1,0.7-8.9
		c1.1-5.1,5.2-8.8,11.4-8.8c6.1,0,10.5,3.7,11.5,8.2c0.1,0.3,0.2,0.7,0.2,1c0.2,0.7,0.6,1,1.2,0.9l2.3-0.3c0.6-0.1,1-0.4,0.9-1.1
		c-0.1-0.6-0.2-1.4-0.5-2.2c-1.5-5.7-7.5-10.4-15.6-10.4c-7.9,0-13.7,4.6-15.5,11.2c-0.7,2.6-1.1,5.5-1.1,10.3
		c0,4.3,0.3,7.6,1.1,10.3C483.5,243,489.2,247.6,497.2,247.6L497.2,247.6z M537.7,247.3c8.9,0,14.8-4.7,14.8-11.6
		c0-7.9-7.7-10-14.7-12.1c-5.9-1.7-10.8-3.3-10.8-8c0-4.4,4.1-7.2,10.3-7.2c6.6,0,10.7,3.3,10.7,7.4v0.5c0,0.3,0.4,0.6,1,0.6h2.2
		c0.6,0,1-0.4,1-1v-0.1c0-6.3-5.9-11-14.8-11c-8.6,0-14.6,4.3-14.6,11.1c0,7.5,7.1,9.8,14.1,11.9c5.8,1.7,11.2,3.1,11.2,8.1
		c0,4.4-4.2,7.8-10.5,7.8c-6.5,0-10.8-3.6-10.8-7.4v-0.9c0-0.5-0.4-0.8-1-0.8h-2.3c-0.6,0-1,0.4-1,1v0.9
		C522.6,242.4,528.6,247.3,537.7,247.3L537.7,247.3z M612.3,215.5c-1.8-6.6-7.1-11-14.8-11c-4.9,0-8.8,2.1-11.2,5.7
		c-0.2,0.2-0.4,0.2-0.4-0.2v-3.9c0-0.6-0.4-1-1-1h-2.4c-0.6,0-1,0.4-1,1v56c0,0.6,0.4,1,1,1h2.4c0.6,0,1-0.4,1-1v-20
		c0-0.2,0.2-0.4,0.4-0.2c2.4,3.6,6.3,5.6,11.2,5.6c7.8,0,13.2-4.5,14.9-11.2c0.7-2.8,0.8-6.1,0.8-10.4
		C613.2,221.6,613,218.3,612.3,215.5L612.3,215.5L612.3,215.5z M607.5,236.1c-1.2,4.3-5.1,7.5-10.5,7.5c-5.3,0-8.9-3.3-9.9-7.6
		c-0.7-2.1-1.1-3.9-1.1-10.1c0-6,0.3-7.9,1-9.8c1.2-4.4,4.6-7.8,10-7.8c5.5,0,9.6,3.1,10.8,7.8c0.7,2.1,1.1,3.8,1.1,9.9
		C608.8,232.3,608.3,234.1,607.5,236.1L607.5,236.1L607.5,236.1z M627,246.9h2.4c0.6,0,1-0.4,1-1v-56c0-0.6-0.4-1-1-1H627
		c-0.6,0-1,0.4-1,1v56C626,246.5,626.4,246.9,627,246.9L627,246.9z M658.6,204.5c-8.2,0-14,4-15.1,9.8c-0.1,0.5,0.3,0.8,0.9,0.9
		l2.6,0.3c0.6,0.1,1-0.2,1.2-0.8c0.9-3.9,4.7-6.3,10.3-6.3c7.6,0,10.6,4.2,10.6,10.1v3.7c0,0.2-0.2,0.3-0.3,0.3h-9.9
		c-10.7,0-17.1,5-17.1,13.2c0,8.6,6.7,11.8,13.6,11.8c5.3,0,10.3-1.8,13.3-5.4c0.2-0.2,0.4-0.1,0.4,0.2v3.6c0,0.6,0.4,1,1,1h2.4
		c0.6,0,1-0.4,1-1v-27.5C673.5,210.1,668.6,204.5,658.6,204.5L658.6,204.5z M656.2,243.8c-5.5,0-10-2.6-10-8.2c0-6,5.4-9.4,13.2-9.4
		h9.4c0.2,0,0.3,0.2,0.3,0.3v7.5C669.1,240.5,662.7,243.8,656.2,243.8L656.2,243.8z M703.8,207.9v-1.7c0-0.6-0.4-1-1-1h-9.5
		c-0.2,0-0.3-0.2-0.3-0.3v-9.3c0-0.6-0.4-1-1-1h-2.3c-0.6,0-1,0.4-1,1v9.3c0,0.2-0.2,0.3-0.3,0.3h-4.8c-0.6,0-1,0.4-1,1v1.7
		c0,0.6,0.4,1,1,1h4.8c0.2,0,0.3,0.2,0.3,0.3v27.2c0.1,8.4,4.8,10.4,11.8,10.4c0.7,0,1.5-0.1,2.3-0.1c0.7,0,1-0.4,1-1v-1.9
		c0-0.6-0.4-1-1-1H701c-5.4,0-8-1.8-8-7.6v-26.1c0-0.2,0.2-0.3,0.3-0.3h9.5C703.4,208.9,703.8,208.5,703.8,207.9L703.8,207.9z
		 M731.4,192.8h1.7c0.6,0,1-0.4,1-1v-1.9c0-0.6-0.4-1-1-1h-2c-9.8,0-12.5,4.3-12.5,13.6v2.3c0,0.2-0.2,0.3-0.3,0.3H713
		c-0.6,0-1,0.4-1,1v2.1c0,0.6,0.4,1,1,1h5.3c0.2,0,0.3,0.2,0.3,0.3v36.3c0,0.6,0.4,1,1,1h2.4c0.6,0,1-0.4,1-1v-36.3
		c0-0.2,0.2-0.3,0.3-0.3h9.5c0.6,0,1-0.4,1-1v-2.1c0-0.6-0.4-1-1-1h-9.5c-0.2,0-0.3-0.2-0.3-0.3v-2.2
		C723,196.1,724.5,192.8,731.4,192.8L731.4,192.8z M756,247.6c7.8,0,13.7-4.5,15.6-11.3c0.7-2.7,0.9-6,0.9-10.4
		c0-4.1-0.2-7.5-0.9-10.3c-1.8-6.7-7.7-11.2-15.6-11.2c-8,0-13.7,4.5-15.6,11.2c-0.7,2.7-0.9,5.9-0.9,10.3c0,4.2,0.2,7.6,1,10.4
		C742.3,243.1,748.1,247.6,756,247.6L756,247.6z M756,243.7c-6.1,0-10.4-3.5-11.6-8.9c-0.4-1.8-0.5-4.8-0.5-8.8c0-3.8,0.1-7,0.5-8.8
		c1.2-5.3,5.5-8.9,11.5-8.9c6,0,10.4,3.6,11.6,8.9c0.4,1.8,0.5,4.7,0.5,8.8c0,3.6-0.1,6.9-0.5,8.8C766.3,240.1,762,243.7,756,243.7
		L756,243.7z M801.2,204.8c-5.1,0-8.8,2.7-11,6.9c-0.1,0.3-0.3,0.2-0.3-0.1v-5.5c0-0.6-0.4-1-1-1h-2.4c-0.6,0-1,0.4-1,1v39.7
		c0,0.6,0.4,1,1,1h2.4c0.6,0,1-0.4,1-1v-24.5c0-6.5,4.5-11.8,10.7-11.9c1.7-0.1,3,0.2,4,0.5c0.7,0.2,1.1,0.1,1.2-0.6l0.7-2.4
		c0.2-0.6,0-1-0.5-1.2C804.8,205.3,803.4,204.8,801.2,204.8L801.2,204.8z M856.6,204.6c-5.7,0-10.4,2.3-12.8,7.2
		c-0.2,0.2-0.3,0.2-0.4-0.1c-2.1-4.5-6.3-7.1-12.1-7.1c-4.9,0-8.9,1.7-11.3,5.3c-0.2,0.2-0.4,0.1-0.4-0.2v-3.6c0-0.6-0.4-1-1-1h-2.4
		c-0.6,0-1,0.4-1,1v39.7c0,0.6,0.4,1,1,1h2.4c0.6,0,1-0.4,1-1v-27c0-6.5,4.1-10.4,10.6-10.4c6,0,10.2,4,10.2,10.6v26.8
		c0,0.6,0.4,1,1,1h2.3c0.6,0,1-0.4,1-1v-27c0-6.5,4.3-10.4,10.7-10.4c6,0,10.3,4,10.3,10.6v26.8c0,0.6,0.4,1,1,1h2.3
		c0.6,0,1-0.4,1-1v-27.7C869.9,209.7,864.6,204.6,856.6,204.6L856.6,204.6z"/>
	<path class="st0" d="M67.8,46V34.5c0-2.1-1.4-3.5-3.5-3.5H40.4c-0.7,0-1.2-0.5-1.2-1.2V3.5c0-2.1-1.4-3.5-3.5-3.5H21.1
		c-2.1,0-3.5,1.4-3.5,3.5v26.3c0,0.7-0.5,1.2-1.2,1.2H3.5C1.4,31,0,32.4,0,34.5V46c0,2.1,1.4,3.5,3.5,3.5h12.9
		c0.7,0,1.2,0.5,1.2,1.2v69.5c0,24.6,14.1,30,35.9,30c3.3,0,6.3-0.2,9.6-0.2c2.3-0.2,3.5-1.6,3.5-3.8V134c0-2.1-1.4-3.5-3.5-3.5
		h-5.6c-12.4,0-18.3-4.9-18.3-18.5V50.7c0-0.7,0.5-1.2,1.2-1.2h23.9C66.4,49.5,67.8,48.1,67.8,46L67.8,46z M147.9,29.8
		c-12.9,0-22.3,6.3-28.6,16c-0.5,0.9-1.2,0.7-1.2-0.5V34.5c0-2.1-1.4-3.5-3.5-3.5H99.1c-2.1,0-3.5,1.4-3.5,3.5v112.4
		c0,2.1,1.4,3.5,3.5,3.5h15.5c2.1,0,3.5-1.4,3.5-3.5V79.6c0-15.7,11-25.8,25.4-26.3c4.5-0.5,8.7,0,11.5,0.9c2.3,0.7,3.8,0.5,4.2-2.1
		l3.3-15.3c0.5-1.9,0-3.5-1.9-4.5C157.5,31,153.5,29.8,147.9,29.8L147.9,29.8z M225.6,29.1c-25.8,0-44.4,12.9-47.2,30.5
		c-0.2,1.6,1.2,2.8,3.3,3.1l16.9,2.1c2.1,0.2,3.3-0.7,4-2.8c2.3-8.2,10.3-13.4,23.5-13.4c16.7,0,24.2,8.5,24.2,21.8v6.1
		c0,0.7-0.5,1.2-1.2,1.2H223c-31,0-48.6,15-48.6,39.2c0,25.1,18.1,35.4,39.2,35.4c14.1,0,26.5-4.5,35.2-12.7
		c0.7-0.7,1.4-0.2,1.4,0.7v6.6c0,2.1,1.4,3.5,3.5,3.5h15.5c2.1,0,3.5-1.4,3.5-3.5V68.8C272.8,45.8,254.9,29.1,225.6,29.1L225.6,29.1
		z M219.2,133.3c-12.4,0-22.3-5.6-22.3-17.6c0-13.1,12-20.4,30.3-20.4h21.8c0.7,0,1.2,0.5,1.2,1.2v13.6
		C250.2,123.9,235.4,133.3,219.2,133.3L219.2,133.3z M350.9,152.3c23.5,0,42.5-12.4,47.9-31.7c0.5-1.6,0.9-3.1,1.2-4.5
		c0.2-2.1-0.9-3.3-3.1-3.8l-15.3-2.6c-2.1-0.2-3.8,1.9-4,3.1v0.2c0,0,0,0.5-0.2,0.9c-2.8,10.8-13.1,18.8-26.8,18.8
		c-13.8,0-23.2-8-26.3-20.2c-1.2-4.7-2.1-11.7-2.1-22.1c0-9.9,0.9-17.6,2.1-22.3c2.8-11.7,12.4-19.7,26.3-19.7
		c14.3,0,24.4,8.7,26.8,18.8l0.7,3.1c0.5,1.9,1.9,2.8,4,2.6l15.3-2.1c2.1-0.2,3.3-1.6,3.1-3.8c-0.2-1.9-0.7-4.2-1.6-6.6
		c-5.2-17.6-23.7-31.5-47.9-31.5C327.2,29.1,309.1,42,303,62c-2.1,7.3-3.5,15.7-3.5,28.4c0,11.3,0.9,20.4,3.5,28.4
		C309.4,139.2,327,152.3,350.9,152.3L350.9,152.3z"/>
</g>
</svg>
