<?xml version="1.0" encoding="utf-8"?>
<!-- Generator: Adobe Illustrator 27.9.0, SVG Export Plug-In . SVG Version: 6.00 Build 0)  -->
<svg version="1.1" id="Layer_1" xmlns="http://www.w3.org/2000/svg" xmlns:xlink="http://www.w3.org/1999/xlink" x="0px" y="0px"
	 viewBox="0 0 720 124.3" style="enable-background:new 0 0 720 124.3;" xml:space="preserve">
<style type="text/css">
	.st0{fill:#00000A;}
	.st1{fill:#00B5E2;}
</style>
<g>
	<path class="st0" d="M33.4,122.7h38.5V38.4h33.4V8.6H0v29.8h33.4V122.7L33.4,122.7z M147.5,43.1v-9.6h-35v89.1h36.8V83.1
		c0-14.2,7.8-19.2,18.9-19.2c2.6,0,4.9,0.2,8.1,0.7V31.9C163.9,31.9,154,35.6,147.5,43.1L147.5,43.1z M246.9,33.5v6
		c-5.4-5.2-12.9-7.7-22.7-7.7c-23.3,0-43,17.4-43,46.1c0,28.7,19.7,46.3,43,46.3c11.1,0,19.1-2.9,24.4-9v7.3h35V33.5H246.9
		L246.9,33.5z M233,95.6c-8.1,0-14.5-6-14.5-17.6c0-11.6,6.4-17.4,14.5-17.4c8.1,0,14.5,5.9,14.5,17.4
		C247.5,89.6,241.2,95.6,233,95.6L233,95.6z M361.8,1.7v37.8c-5.4-5.2-12.9-7.7-22.7-7.7c-23.3,0-43,17.4-43,46.1
		c0,28.7,19.7,46.3,43,46.3c11.1,0,19.1-2.9,24.4-9v7.3h35V1.7H361.8L361.8,1.7z M347.9,95.6c-8.1,0-14.5-6-14.5-17.6
		c0-11.6,6.4-17.4,14.5-17.4c8.1,0,14.5,5.9,14.5,17.4C362.4,89.6,356.1,95.6,347.9,95.6L347.9,95.6z M509.8,78
		c0-30.1-22.7-46.1-49.1-46.1c-28.8,0-50.5,19.1-50.5,46.1c0,26.6,21.2,46.3,53.9,46.3c17.8,0,30.3-4.9,38.9-14.3l-19.2-19.4
		c-5.9,4.4-10.4,6.5-18.6,6.5c-9.1,0-15.3-3.6-17.9-10.4h61.9C509.4,84,509.8,80.6,509.8,78L509.8,78z M461,57
		c7.5,0,12.9,4.4,14.3,11.9h-28.7C448.2,61.4,453.4,57,461,57L461,57z M556.4,43.1v-9.6h-35v89.1h36.8V83.1
		c0-14.2,7.8-19.2,18.9-19.2c2.6,0,4.9,0.2,8.1,0.7V31.9C572.8,31.9,562.9,35.6,556.4,43.1L556.4,43.1z"/>
	<polygon class="st1" points="680.9,50.7 717.4,0 672.9,0 659.5,20.3 680.9,50.7 	"/>
	<polygon class="st0" points="672,60.7 629.3,0 585.4,0 628.1,60.7 583.8,122.5 627.7,122.5 672,60.7 	"/>
	<polygon class="st1" points="659,101.2 672.7,122.5 720,122.5 682,69.2 659,101.2 	"/>
</g>
</svg>
