<?xml version="1.0" encoding="utf-8"?>
<!-- Generator: Adobe Illustrator 24.1.0, SVG Export Plug-In . SVG Version: 6.00 Build 0)  -->
<svg version="1.1" id="Layer_1" xmlns="http://www.w3.org/2000/svg" xmlns:xlink="http://www.w3.org/1999/xlink" x="0px" y="0px"
	 viewBox="0 0 360 538" style="enable-background:new 0 0 360 538;" xml:space="preserve">
<style type="text/css">
	.st0{fill:#4298B5;}
	.st1{fill:#00A9CE;}
	.st2{fill:#2A94B2;}
</style>
<g>
	<path class="st0" d="M31.04,536.88c2.42-0.75,4.5-1.83,6.24-3.25c1.74-1.42,3.1-3.18,4.08-5.27c0.97-2.09,1.46-4.48,1.46-7.16
		v-0.15c0-2.37-0.38-4.41-1.13-6.12c-0.75-1.7-1.86-3.19-3.34-4.45c-1.48-1.27-3.29-2.35-5.44-3.25c-2.15-0.9-4.59-1.72-7.34-2.44
		c-2.33-0.62-4.26-1.16-5.79-1.63c-1.53-0.46-2.73-0.96-3.61-1.47c-0.88-0.51-1.49-1.1-1.82-1.74c-0.34-0.64-0.5-1.41-0.5-2.28
		v-0.15c0-1.34,0.58-2.46,1.74-3.37c1.16-0.9,2.9-1.36,5.23-1.36c2.32,0,4.65,0.48,6.97,1.43c2.32,0.96,4.7,2.26,7.12,3.91l6.2-8.98
		c-2.79-2.22-5.85-3.92-9.18-5.11c-3.33-1.19-6.98-1.78-10.96-1.78c-2.79,0-5.34,0.39-7.65,1.16c-2.31,0.77-4.31,1.89-5.97,3.33
		c-1.67,1.45-2.96,3.16-3.89,5.15c-0.92,1.99-1.38,4.22-1.38,6.7v0.15c0,2.68,0.43,4.93,1.28,6.74c0.85,1.81,2.06,3.32,3.61,4.53
		c1.55,1.21,3.44,2.23,5.67,3.06c2.23,0.83,4.71,1.58,7.46,2.25c2.28,0.57,4.13,1.11,5.55,1.63c1.42,0.52,2.54,1.03,3.34,1.55
		c0.8,0.52,1.35,1.07,1.63,1.67c0.28,0.59,0.43,1.28,0.43,2.05v0.15c0,1.6-0.68,2.85-2.05,3.76c-1.37,0.9-3.29,1.36-5.77,1.36
		c-3.1,0-5.95-0.59-8.56-1.78c-2.61-1.19-5.15-2.79-7.63-4.8L0,529.32c3.25,2.94,6.87,5.12,10.84,6.54
		C14.82,537.29,18.87,538,23,538C25.94,538,28.62,537.62,31.04,536.88L31.04,536.88z M72.33,537.26c1.5-0.44,2.86-1.02,4.1-1.74
		v-9.45c-1.81,1.03-3.74,1.55-5.81,1.55c-2.53,0-3.8-1.35-3.8-4.04v-17.8h9.76v-10.07h-9.76V485.1H55.06v10.61h-4.96v10.07h4.96
		v19.67c0,2.43,0.3,4.43,0.89,6c0.59,1.58,1.42,2.85,2.48,3.83c1.06,0.98,2.32,1.66,3.79,2.05c1.47,0.39,3.11,0.58,4.92,0.58
		C69.11,537.92,70.84,537.7,72.33,537.26L72.33,537.26z M97.12,528.55c-1.19-0.88-1.78-2.12-1.78-3.72v-0.15
		c0-1.86,0.72-3.28,2.17-4.26c1.45-0.98,3.43-1.47,5.96-1.47c1.45,0,2.8,0.14,4.07,0.43c1.26,0.28,2.41,0.66,3.45,1.12v2.09
		c0,2.17-0.84,3.92-2.52,5.27c-1.68,1.34-3.91,2.01-6.7,2.01C99.85,529.87,98.3,529.43,97.12,528.55L97.12,528.55z M105.56,536.57
		c2.01-0.95,3.74-2.23,5.19-3.83v4.49h11.38v-24.09c0-2.79-0.36-5.3-1.08-7.55c-0.72-2.24-1.86-4.14-3.41-5.69
		c-1.5-1.5-3.4-2.65-5.69-3.45c-2.3-0.8-5.07-1.2-8.32-1.2c-3.51,0-6.51,0.31-8.98,0.93c-2.48,0.62-4.85,1.42-7.12,2.4l2.94,8.98
		c1.91-0.72,3.73-1.28,5.46-1.66c1.73-0.39,3.73-0.58,6-0.58c2.94,0,5.16,0.65,6.66,1.94c1.5,1.29,2.24,3.17,2.24,5.65v0.7
		c-1.5-0.52-3.03-0.93-4.61-1.24c-1.57-0.31-3.42-0.46-5.54-0.46c-2.48,0-4.74,0.27-6.78,0.81c-2.04,0.54-3.8,1.36-5.27,2.44
		c-1.47,1.08-2.62,2.45-3.45,4.1c-0.83,1.65-1.24,3.61-1.24,5.89v0.15c0,2.07,0.37,3.89,1.12,5.46c0.75,1.58,1.77,2.9,3.06,3.99
		c1.29,1.08,2.8,1.9,4.53,2.44c1.73,0.54,3.57,0.81,5.54,0.81C101.09,538,103.54,537.52,105.56,536.57L105.56,536.57z
		 M133.44,537.22h11.77v-23.1c0-2.78,0.66-4.88,1.98-6.3c1.32-1.42,3.11-2.13,5.38-2.13c2.27,0,4.03,0.71,5.27,2.13
		c1.24,1.41,1.86,3.51,1.86,6.3v23.1h11.77v-26.87c0-4.8-1.23-8.57-3.68-11.31c-2.45-2.74-5.93-4.1-10.42-4.1
		c-1.5,0-2.84,0.18-4.03,0.55c-1.19,0.36-2.27,0.86-3.25,1.48c-0.98,0.62-1.87,1.34-2.67,2.14c-0.8,0.81-1.54,1.65-2.21,2.54v-5.93
		h-11.77V537.22L133.44,537.22z M198.99,527.2c-1.21-0.54-2.28-1.32-3.21-2.32c-0.93-1.01-1.67-2.22-2.21-3.64
		c-0.54-1.42-0.81-2.98-0.81-4.69v-0.15c0-1.76,0.27-3.33,0.81-4.72c0.54-1.39,1.28-2.6,2.21-3.6c0.93-1.01,2-1.78,3.21-2.32
		c1.21-0.54,2.52-0.81,3.91-0.81c1.39,0,2.7,0.27,3.91,0.81s2.27,1.32,3.18,2.32c0.9,1.01,1.63,2.22,2.17,3.64
		c0.54,1.42,0.81,2.98,0.81,4.69v0.15c0,1.7-0.27,3.27-0.81,4.69c-0.54,1.42-1.27,2.63-2.17,3.64c-0.9,1.01-1.96,1.78-3.18,2.32
		s-2.52,0.81-3.91,0.81C201.51,528.01,200.21,527.74,198.99,527.2L198.99,527.2z M207.59,536.1c2.04-1.26,3.78-2.88,5.23-4.84v5.96
		h11.77v-56.53h-11.77v20.45c-1.39-1.65-3.11-3.1-5.15-4.34c-2.04-1.24-4.63-1.86-7.78-1.86c-2.48,0-4.85,0.46-7.13,1.39
		c-2.27,0.93-4.27,2.31-6,4.14c-1.73,1.83-3.12,4.08-4.18,6.74c-1.06,2.66-1.59,5.72-1.59,9.18v0.15c0,3.46,0.53,6.52,1.59,9.18
		c1.06,2.66,2.46,4.91,4.22,6.74c1.75,1.83,3.77,3.21,6.04,4.14c2.27,0.93,4.62,1.39,7.05,1.39
		C202.98,538,205.55,537.37,207.59,536.1L207.59,536.1z M246.97,528.55c-1.19-0.88-1.78-2.12-1.78-3.72v-0.15
		c0-1.86,0.72-3.28,2.17-4.26c1.45-0.98,3.43-1.47,5.96-1.47c1.45,0,2.8,0.14,4.07,0.43c1.27,0.28,2.41,0.66,3.45,1.12v2.09
		c0,2.17-0.84,3.92-2.52,5.27c-1.68,1.34-3.91,2.01-6.7,2.01C249.71,529.87,248.16,529.43,246.97,528.55L246.97,528.55z
		 M255.41,536.57c2.01-0.95,3.74-2.23,5.19-3.83v4.49h11.38v-24.09c0-2.79-0.36-5.3-1.08-7.55c-0.72-2.24-1.86-4.14-3.41-5.69
		c-1.5-1.5-3.4-2.65-5.69-3.45c-2.3-0.8-5.07-1.2-8.33-1.2c-3.51,0-6.5,0.31-8.98,0.93c-2.48,0.62-4.85,1.42-7.12,2.4l2.94,8.98
		c1.91-0.72,3.73-1.28,5.46-1.66c1.73-0.39,3.73-0.58,6-0.58c2.94,0,5.16,0.65,6.66,1.94c1.5,1.29,2.25,3.17,2.25,5.65v0.7
		c-1.5-0.52-3.03-0.93-4.61-1.24c-1.57-0.31-3.42-0.46-5.54-0.46c-2.48,0-4.74,0.27-6.78,0.81c-2.04,0.54-3.8,1.36-5.27,2.44
		c-1.47,1.08-2.62,2.45-3.45,4.1c-0.83,1.65-1.24,3.61-1.24,5.89v0.15c0,2.07,0.37,3.89,1.12,5.46c0.75,1.58,1.77,2.9,3.06,3.99
		c1.29,1.08,2.8,1.9,4.53,2.44c1.73,0.54,3.57,0.81,5.54,0.81C250.94,538,253.4,537.52,255.41,536.57L255.41,536.57z M283.29,537.22
		h11.77v-15.33c0-5.01,1.12-8.7,3.37-11.08c2.24-2.37,5.33-3.56,9.25-3.56h0.62v-12.31c-3.51-0.15-6.3,0.62-8.36,2.32
		c-2.07,1.7-3.69,3.98-4.88,6.82v-8.36h-11.77V537.22L283.29,537.22z M332.97,527.2c-1.21-0.54-2.28-1.32-3.21-2.32
		c-0.93-1.01-1.67-2.22-2.21-3.64c-0.54-1.42-0.81-2.98-0.81-4.69v-0.15c0-1.76,0.27-3.33,0.81-4.72c0.54-1.39,1.28-2.6,2.21-3.6
		c0.93-1.01,2-1.78,3.21-2.32c1.21-0.54,2.52-0.81,3.91-0.81s2.7,0.27,3.91,0.81c1.21,0.54,2.27,1.32,3.17,2.32
		c0.9,1.01,1.63,2.22,2.17,3.64s0.81,2.98,0.81,4.69v0.15c0,1.7-0.27,3.27-0.81,4.69c-0.54,1.42-1.27,2.63-2.17,3.64
		c-0.9,1.01-1.96,1.78-3.17,2.32c-1.21,0.54-2.52,0.81-3.91,0.81S334.18,527.74,332.97,527.2L332.97,527.2z M341.57,536.1
		c2.04-1.26,3.78-2.88,5.23-4.84v5.96h11.77v-56.53H346.8v20.45c-1.39-1.65-3.11-3.1-5.15-4.34c-2.04-1.24-4.64-1.86-7.78-1.86
		c-2.48,0-4.85,0.46-7.12,1.39c-2.27,0.93-4.27,2.31-6,4.14c-1.73,1.83-3.12,4.08-4.18,6.74c-1.06,2.66-1.59,5.72-1.59,9.18v0.15
		c0,3.46,0.53,6.52,1.59,9.18c1.06,2.66,2.47,4.91,4.22,6.74c1.76,1.83,3.77,3.21,6.04,4.14c2.27,0.93,4.62,1.39,7.05,1.39
		C336.96,538,339.53,537.37,341.57,536.1L341.57,536.1z"/>
	<path class="st1" d="M2.59,459.78h11.77v-35.16l15.1,22.92h0.31l15.26-23.16v35.39h11.77v-54.21H43.95L29.7,428.49l-14.25-22.92
		H2.59V459.78L2.59,459.78z M78.1,435.77c0.47-2.68,1.46-4.83,2.98-6.43c1.52-1.6,3.52-2.4,6-2.4c2.48,0,4.47,0.81,5.96,2.44
		c1.5,1.63,2.43,3.76,2.79,6.39H78.1L78.1,435.77z M98.08,458.66c2.79-1.37,5.16-3.27,7.12-5.69L98.47,447
		c-1.65,1.5-3.25,2.58-4.8,3.25c-1.55,0.67-3.3,1.01-5.27,1.01c-2.63,0-4.84-0.68-6.62-2.05c-1.78-1.37-2.96-3.39-3.52-6.08h28.89
		c0.05-0.57,0.09-1.11,0.12-1.63c0.03-0.52,0.04-1.01,0.04-1.47c0-2.94-0.4-5.77-1.2-8.48c-0.8-2.71-2.04-5.11-3.72-7.2
		c-1.68-2.09-3.78-3.76-6.31-4.99c-2.53-1.24-5.53-1.86-8.98-1.86c-3.05,0-5.82,0.57-8.33,1.7c-2.51,1.14-4.66,2.69-6.47,4.65
		c-1.81,1.96-3.21,4.26-4.22,6.89c-1.01,2.63-1.51,5.42-1.51,8.36v0.16c0,3.2,0.54,6.11,1.63,8.71c1.08,2.61,2.59,4.87,4.53,6.78
		c1.94,1.91,4.23,3.38,6.89,4.41c2.66,1.03,5.54,1.55,8.64,1.55C92.02,460.71,95.3,460.02,98.08,458.66L98.08,458.66z
		 M135.26,459.82c1.5-0.44,2.87-1.02,4.1-1.74v-9.45c-1.81,1.03-3.74,1.55-5.81,1.55c-2.53,0-3.79-1.35-3.79-4.04v-17.8h9.76v-10.07
		h-9.76v-10.61h-11.77v10.61h-4.96v10.07h4.96v19.67c0,2.43,0.3,4.43,0.89,6c0.59,1.58,1.42,2.85,2.48,3.83
		c1.06,0.98,2.32,1.67,3.79,2.05c1.47,0.39,3.11,0.58,4.92,0.58C132.03,460.48,133.76,460.26,135.26,459.82L135.26,459.82z
		 M158.88,451.11c-1.19-0.88-1.78-2.12-1.78-3.72v-0.15c0-1.86,0.72-3.28,2.17-4.26c1.44-0.98,3.43-1.47,5.96-1.47
		c1.44,0,2.8,0.14,4.07,0.43s2.41,0.66,3.45,1.12v2.09c0,2.17-0.84,3.92-2.52,5.27c-1.68,1.34-3.91,2.01-6.7,2.01
		C161.61,452.42,160.06,451.98,158.88,451.11L158.88,451.11z M167.32,459.12c2.01-0.95,3.74-2.23,5.19-3.83v4.49h11.38v-24.09
		c0-2.79-0.36-5.3-1.08-7.55c-0.72-2.25-1.86-4.14-3.41-5.69c-1.5-1.5-3.39-2.64-5.69-3.45c-2.3-0.8-5.07-1.2-8.32-1.2
		c-3.51,0-6.51,0.31-8.98,0.93c-2.48,0.62-4.85,1.42-7.12,2.4l2.94,8.98c1.91-0.72,3.73-1.28,5.46-1.67c1.73-0.39,3.73-0.58,6-0.58
		c2.94,0,5.16,0.65,6.66,1.94c1.5,1.29,2.25,3.18,2.25,5.65v0.7c-1.5-0.52-3.03-0.93-4.61-1.24c-1.58-0.31-3.42-0.47-5.54-0.47
		c-2.48,0-4.74,0.27-6.78,0.81c-2.04,0.54-3.79,1.36-5.27,2.44c-1.47,1.08-2.62,2.45-3.45,4.1c-0.83,1.65-1.24,3.62-1.24,5.89v0.15
		c0,2.07,0.37,3.89,1.12,5.46c0.75,1.57,1.77,2.9,3.06,3.99c1.29,1.08,2.8,1.9,4.53,2.44c1.73,0.54,3.57,0.81,5.54,0.81
		C162.85,460.55,165.3,460.08,167.32,459.12L167.32,459.12z M210.18,449.75c-1.21-0.54-2.28-1.32-3.21-2.32
		c-0.93-1.01-1.66-2.22-2.21-3.64c-0.54-1.42-0.81-2.98-0.81-4.69v-0.15c0-1.76,0.27-3.33,0.81-4.72c0.54-1.39,1.28-2.6,2.21-3.6
		c0.93-1.01,2-1.78,3.21-2.32c1.21-0.54,2.52-0.81,3.91-0.81c1.39,0,2.7,0.27,3.91,0.81c1.21,0.54,2.27,1.32,3.17,2.32
		c0.9,1.01,1.63,2.22,2.17,3.64c0.54,1.42,0.81,2.98,0.81,4.69v0.15c0,1.7-0.27,3.27-0.81,4.69c-0.54,1.42-1.27,2.63-2.17,3.64
		c-0.9,1.01-1.96,1.78-3.17,2.32c-1.21,0.54-2.52,0.81-3.91,0.81C212.7,450.56,211.4,450.29,210.18,449.75L210.18,449.75z
		 M218.78,458.66c2.04-1.27,3.78-2.88,5.23-4.84v5.96h11.77v-56.53h-11.77v20.45c-1.39-1.65-3.11-3.1-5.15-4.34
		c-2.04-1.24-4.64-1.86-7.78-1.86c-2.48,0-4.85,0.46-7.12,1.39c-2.27,0.93-4.27,2.31-6,4.14c-1.73,1.83-3.12,4.08-4.18,6.74
		c-1.06,2.66-1.59,5.72-1.59,9.18v0.15c0,3.46,0.53,6.52,1.59,9.18c1.06,2.66,2.46,4.91,4.22,6.74c1.75,1.83,3.77,3.21,6.04,4.14
		c2.27,0.93,4.62,1.39,7.05,1.39C214.17,460.55,216.74,459.92,218.78,458.66L218.78,458.66z M257,451.11
		c-1.19-0.88-1.78-2.12-1.78-3.72v-0.15c0-1.86,0.72-3.28,2.17-4.26c1.45-0.98,3.43-1.47,5.96-1.47c1.45,0,2.8,0.14,4.07,0.43
		c1.26,0.28,2.41,0.66,3.45,1.12v2.09c0,2.17-0.84,3.92-2.52,5.27c-1.68,1.34-3.91,2.01-6.7,2.01
		C259.73,452.42,258.19,451.98,257,451.11L257,451.11z M265.44,459.12c2.01-0.95,3.74-2.23,5.19-3.83v4.49h11.39v-24.09
		c0-2.79-0.36-5.3-1.09-7.55c-0.72-2.25-1.86-4.14-3.41-5.69c-1.5-1.5-3.4-2.64-5.69-3.45c-2.3-0.8-5.07-1.2-8.33-1.2
		c-3.51,0-6.5,0.31-8.98,0.93c-2.48,0.62-4.85,1.42-7.12,2.4l2.94,8.98c1.91-0.72,3.73-1.28,5.46-1.67c1.73-0.39,3.73-0.58,6-0.58
		c2.94,0,5.16,0.65,6.66,1.94c1.5,1.29,2.25,3.18,2.25,5.65v0.7c-1.5-0.52-3.03-0.93-4.61-1.24c-1.58-0.31-3.42-0.47-5.54-0.47
		c-2.48,0-4.74,0.27-6.78,0.81c-2.04,0.54-3.8,1.36-5.27,2.44c-1.47,1.08-2.62,2.45-3.45,4.1c-0.83,1.65-1.24,3.62-1.24,5.89v0.15
		c0,2.07,0.37,3.89,1.12,5.46c0.75,1.57,1.77,2.9,3.06,3.99c1.29,1.08,2.8,1.9,4.53,2.44c1.73,0.54,3.57,0.81,5.54,0.81
		C260.97,460.55,263.43,460.08,265.44,459.12L265.44,459.12z M311.36,459.82c1.5-0.44,2.86-1.02,4.1-1.74v-9.45
		c-1.81,1.03-3.74,1.55-5.81,1.55c-2.53,0-3.8-1.35-3.8-4.04v-17.8h9.76v-10.07h-9.76v-10.61h-11.77v10.61h-4.96v10.07h4.96v19.67
		c0,2.43,0.3,4.43,0.89,6c0.59,1.58,1.42,2.85,2.48,3.83c1.06,0.98,2.32,1.67,3.79,2.05c1.47,0.39,3.11,0.58,4.92,0.58
		C308.14,460.48,309.87,460.26,311.36,459.82L311.36,459.82z M334.98,451.11c-1.19-0.88-1.78-2.12-1.78-3.72v-0.15
		c0-1.86,0.72-3.28,2.17-4.26c1.44-0.98,3.43-1.47,5.96-1.47c1.45,0,2.8,0.14,4.07,0.43c1.26,0.28,2.41,0.66,3.45,1.12v2.09
		c0,2.17-0.84,3.92-2.52,5.27c-1.68,1.34-3.91,2.01-6.7,2.01C337.72,452.42,336.17,451.98,334.98,451.11L334.98,451.11z
		 M343.43,459.12c2.01-0.95,3.74-2.23,5.19-3.83v4.49H360v-24.09c0-2.79-0.36-5.3-1.08-7.55c-0.72-2.25-1.86-4.14-3.41-5.69
		c-1.5-1.5-3.39-2.64-5.69-3.45c-2.3-0.8-5.07-1.2-8.33-1.2c-3.51,0-6.51,0.31-8.98,0.93c-2.48,0.62-4.85,1.42-7.12,2.4l2.94,8.98
		c1.91-0.72,3.73-1.28,5.46-1.67c1.73-0.39,3.73-0.58,6-0.58c2.94,0,5.16,0.65,6.66,1.94c1.5,1.29,2.25,3.18,2.25,5.65v0.7
		c-1.5-0.52-3.03-0.93-4.61-1.24c-1.57-0.31-3.42-0.47-5.54-0.47c-2.48,0-4.74,0.27-6.78,0.81c-2.04,0.54-3.79,1.36-5.27,2.44
		c-1.47,1.08-2.62,2.45-3.45,4.1c-0.83,1.65-1.24,3.62-1.24,5.89v0.15c0,2.07,0.37,3.89,1.12,5.46c0.75,1.57,1.77,2.9,3.06,3.99
		c1.29,1.08,2.8,1.9,4.53,2.44c1.73,0.54,3.57,0.81,5.54,0.81C338.96,460.55,341.41,460.08,343.43,459.12L343.43,459.12z"/>
	<path class="st2" d="M359.99,180c0-99.41-80.59-180-180-180v299.63l4.32-0.06l0.46,36.54l-4.79,0.06v23.82
		C279.41,359.99,359.99,279.4,359.99,180L359.99,180z M243.89,323.22l-17.83-31.89l24.01-13.42l3.49,6.24l-17.08,9.55l3.62,6.47
		l15.04-8.41l3.49,6.24l-15.04,8.4l3.74,6.7l17.31-9.68l3.49,6.24L243.89,323.22L243.89,323.22z M207.44,295.82
		c1.66-0.4,3.2-0.64,4.64-0.7c1.44-0.06,2.77,0.01,4,0.21c1.23,0.2,2.4,0.52,3.51,0.97c1.11,0.45,2.17,0.97,3.18,1.59l-3.57,6.94
		c-1.69-0.91-3.34-1.55-4.95-1.91c-1.61-0.36-3.31-0.32-5.1,0.12c-1.49,0.36-2.79,0.99-3.92,1.87c-1.13,0.89-2.02,1.95-2.69,3.18
		c-0.67,1.24-1.09,2.58-1.27,4.04c-0.18,1.46-0.09,2.95,0.28,4.47l0.03,0.1c0.37,1.52,0.98,2.9,1.81,4.12
		c0.84,1.23,1.83,2.24,2.97,3.04c1.14,0.79,2.42,1.33,3.83,1.62c1.41,0.28,2.88,0.24,4.4-0.13c2.03-0.49,3.65-1.28,4.88-2.37
		c1.22-1.08,2.37-2.44,3.44-4.06l6.19,3.81c-0.67,1.2-1.41,2.31-2.2,3.33c-0.79,1.02-1.7,1.95-2.73,2.79
		c-1.03,0.84-2.2,1.58-3.52,2.2c-1.32,0.63-2.84,1.15-4.56,1.57c-2.6,0.63-5.14,0.75-7.6,0.35c-2.46-0.4-4.7-1.23-6.73-2.47
		c-2.02-1.24-3.76-2.87-5.22-4.88c-1.46-2.01-2.5-4.28-3.11-6.82l-0.03-0.1c-0.62-2.54-0.74-5.02-0.37-7.46
		c0.37-2.44,1.16-4.69,2.38-6.76c1.21-2.07,2.84-3.86,4.87-5.38C202.31,297.59,204.7,296.49,207.44,295.82L207.44,295.82z
		 M226.8,135.89c10.76,12.23,16.69,27.96,16.69,44.3c0,16.26-5.88,31.94-16.56,44.15c-2.14,2.44-5.13,3.69-8.13,3.69
		c-2.52,0-5.06-0.88-7.11-2.67c-4.49-3.93-4.95-10.75-1.02-15.24c7.23-8.27,11.22-18.9,11.22-29.93c0-11.08-4.01-21.74-11.3-30.03
		c-3.94-4.48-3.5-11.3,0.98-15.24C216.04,130.97,222.86,131.41,226.8,135.89L226.8,135.89z M260.88,103.41
		c18.85,21.03,29.22,48.3,29.22,76.78c0,28.34-10.29,55.51-28.96,76.5c-2.13,2.4-5.1,3.62-8.07,3.62c-2.55,0-5.12-0.9-7.18-2.73
		c-4.45-3.96-4.85-10.79-0.89-15.25c15.15-17.03,23.5-39.1,23.5-62.14c0-23.15-8.42-45.3-23.71-62.37
		c-3.98-4.44-3.6-11.27,0.84-15.25C250.07,98.59,256.89,98.96,260.88,103.41L260.88,103.41z M336.16,180.18
		c0,40.05-15.04,78.27-42.36,107.6c-2.13,2.28-5.01,3.44-7.91,3.44c-2.64,0-5.28-0.96-7.36-2.89c-4.36-4.07-4.61-10.9-0.55-15.26
		c23.58-25.32,36.57-58.31,36.57-92.88c0-34.75-13.11-67.86-36.9-93.23c-4.08-4.35-3.86-11.18,0.49-15.26
		c4.35-4.08,11.18-3.86,15.27,0.49C320.98,101.57,336.16,139.93,336.16,180.18L336.16,180.18z"/>
	<path class="st1" d="M180,299.63V0C80.59,0,0.01,80.59,0.01,180S80.59,359.99,180,359.99v-23.82l-3.25,0.04l-0.46-36.54L180,299.63
		L180,299.63z M129.78,310.32l0.02-0.1c0.56-2.55,1.55-4.83,2.99-6.85c1.44-2.02,3.18-3.69,5.23-5.01c2.05-1.32,4.34-2.21,6.89-2.67
		c2.54-0.46,5.19-0.39,7.94,0.21c2.75,0.6,5.18,1.64,7.28,3.11c2.1,1.47,3.81,3.22,5.14,5.23c1.32,2.02,2.21,4.24,2.66,6.67
		c0.45,2.43,0.4,4.92-0.16,7.47l-0.02,0.1c-0.55,2.55-1.55,4.84-2.99,6.86c-1.44,2.02-3.18,3.69-5.23,5
		c-2.05,1.32-4.34,2.21-6.88,2.67c-2.54,0.46-5.19,0.39-7.94-0.21c-2.75-0.6-5.18-1.64-7.28-3.11c-2.1-1.47-3.81-3.22-5.14-5.23
		c-1.32-2.01-2.21-4.24-2.66-6.67C129.17,315.36,129.22,312.87,129.78,310.32L129.78,310.32z M98.14,313.47l5.06-39.33l7.74,4.33
		l-4.22,27.12l20.9-17.8l7.56,4.23l-30.85,24.91L98.14,313.47L98.14,313.47z M164.04,177.81c-6.43,1.96-11.22,4.08-7.51,12.45
		c0.72,1.62-1.93,5.74-4.06,7.36c-2.68,2.04-6.41,2.7-11.94,4.82c4.08,2.74,6.45,4.35,8.84,5.93c4.22,2.81,6.76,5.68,2.46,10.78
		c-1.4,1.66-1.6,4.95-1.25,7.33c1.29,8.75-1.29,14.06-9.84,15.78c-5.99,1.2-12.44,1.2-18.55,0.52
		c-24.26-2.71-34.96,5.13-38.65,29.45c-1.24,8.21-1.72,16.54-2.6,25.38c-1.18-0.69-2.7-1.29-3.86-2.31
		C0.01,227.89,8.63,105.98,94.23,49.78c6.48-4.25,11.51-5.06,18.25-0.5c25.55,17.27,40.28,40.63,39.13,71.8
		c-0.62,16.86,4.15,30.12,16.37,41.48C175.32,169.38,173.68,174.86,164.04,177.81L164.04,177.81z M138.01,312.01
		c-0.33,1.53-0.39,3.03-0.15,4.51c0.23,1.47,0.72,2.83,1.47,4.06c0.75,1.23,1.71,2.29,2.89,3.17c1.18,0.88,2.57,1.49,4.17,1.84
		c1.56,0.34,3.07,0.37,4.52,0.08c1.45-0.29,2.76-0.84,3.91-1.66c1.16-0.82,2.14-1.84,2.96-3.07c0.82-1.23,1.4-2.61,1.73-4.14
		l0.02-0.1c0.33-1.53,0.38-3.03,0.15-4.51c-0.23-1.47-0.72-2.83-1.47-4.06c-0.75-1.23-1.72-2.29-2.92-3.17
		c-1.2-0.88-2.58-1.5-4.14-1.84c-1.6-0.35-3.12-0.38-4.55-0.08c-1.43,0.29-2.73,0.85-3.89,1.67c-1.16,0.82-2.15,1.84-2.96,3.07
		c-0.82,1.23-1.4,2.61-1.73,4.14L138.01,312.01L138.01,312.01z"/>
</g>
</svg>
