<svg width="276" height="290" viewBox="0 0 276 290" fill="none" xmlns="http://www.w3.org/2000/svg">
<g clip-path="url(#clip0_2_38)">
<path d="M250.057 100.217L225.314 48.9117L215.386 44.1744L154.457 142.31L245.657 197.316L265.432 165.201L250.057 100.217Z" fill="url(#paint0_linear_2_38)"/>
<path d="M267.373 160.284C262.953 167.013 256.947 172.867 249.448 177.161C241.024 181.989 231.817 184.293 222.733 184.293C205.458 184.293 188.63 175.995 178.438 161.018L98.9337 25.1964L98.8931 25.2668C83.8132 0.886376 51.7736 -7.29071 26.6439 7.12228C1.11787 21.7465 -7.58048 54.0928 7.20469 79.3482L115.07 263.639C119.877 271.857 126.594 278.294 134.327 282.76C134.388 282.8 134.449 282.84 134.51 282.88C134.54 282.9 134.581 282.92 134.611 282.941C138.208 284.992 142.029 286.592 145.982 287.768C146.277 287.859 146.582 287.949 146.876 288.03C148.299 288.422 149.732 288.774 151.185 289.056C151.459 289.106 151.734 289.136 152.008 289.187C153.176 289.388 154.355 289.559 155.534 289.679C156.001 289.73 156.469 289.78 156.936 289.81C158.288 289.921 159.639 289.991 161.001 290.001C161.072 290.001 161.143 290.001 161.204 290.001C161.225 290.001 161.235 290.001 161.255 290.001C161.275 290.001 161.285 290.001 161.306 290.001C162.779 290.001 164.263 289.921 165.736 289.8C166.072 289.77 166.407 289.74 166.752 289.7C168.195 289.549 169.638 289.358 171.081 289.096C171.102 289.096 171.122 289.096 171.142 289.096C172.727 288.804 174.313 288.422 175.878 287.98C175.979 287.949 176.071 287.919 176.172 287.889C178.448 287.235 180.694 286.421 182.909 285.445C182.95 285.425 183.001 285.405 183.042 285.385C184.728 284.64 186.395 283.826 188.031 282.89C189.687 281.945 191.262 280.919 192.766 279.823C194.077 278.877 195.337 277.871 196.567 276.805C198.06 275.498 199.473 274.13 200.784 272.692C201.769 271.615 202.714 270.489 203.619 269.322C203.914 268.94 204.188 268.548 204.462 268.166C205.082 267.321 205.671 266.456 206.241 265.571C206.535 265.108 206.83 264.655 207.114 264.193C207.226 264.012 207.348 263.841 207.45 263.66L267.942 160.314H267.353L267.373 160.284Z" fill="url(#paint1_linear_2_38)"/>
<path d="M268.724 105.829L264.152 98.105L244.408 61.7657L235.252 46.3771C233.524 42.2835 229.45 39.3969 224.674 39.3969C218.343 39.3969 213.221 44.4761 213.221 50.7321C213.221 52.8544 213.841 54.8056 214.868 56.5054L214.746 56.5859L250.311 116.521C254.6 123.853 255.748 132.392 253.543 140.58C251.338 148.767 246.054 155.606 238.646 159.861C233.768 162.657 228.23 164.135 222.641 164.135C211.22 164.135 200.58 158.07 194.87 148.314L143.746 62.0775H143.848L122.255 25.1951L122.214 25.2655C121.838 24.652 121.401 24.0988 121.005 23.5054L120.395 22.4694C120.395 22.4694 120.344 22.4996 120.324 22.5197C110.183 8.22738 93.9646 0.251448 77.2284 0.0603475V0H49.6294V0.140811C68.906 -1.18683 88.1826 7.94576 98.893 25.2655L98.9336 25.1951L178.428 161.027C188.62 175.993 205.458 184.301 222.723 184.301C231.807 184.301 241.014 182.008 249.438 177.17C256.937 172.876 262.932 167.012 267.363 160.293H267.952L267.749 160.635C270.584 156.179 272.758 151.271 274.161 146.041C277.829 132.402 275.919 118.16 268.704 105.839L268.724 105.829Z" fill="#F37880"/>
<g opacity="0.86">
<path d="M214.736 56.5959L250.301 116.531C254.59 123.863 255.738 132.402 253.533 140.59C252.191 145.578 249.692 150.064 246.277 153.776C250.748 149.732 253.97 144.512 255.565 138.578C257.77 130.391 256.622 121.852 252.334 114.519L216.768 54.5843L216.89 54.5039C215.864 52.8041 215.244 50.8528 215.244 48.7306C215.244 46.1156 216.148 43.7117 217.652 41.7906C214.949 43.8626 213.211 47.1012 213.211 50.7422C213.211 52.8644 213.831 54.8157 214.858 56.5154L214.736 56.5959Z" fill="white"/>
<path d="M267.789 160.575L267.759 160.625C267.759 160.625 267.779 160.585 267.799 160.565C267.799 160.565 267.799 160.565 267.799 160.575H267.789Z" fill="white"/>
<path d="M251.48 175.159C243.056 179.986 233.85 182.29 224.765 182.29C207.49 182.29 190.663 173.992 180.471 159.016L100.966 23.1835L100.925 23.2539C93.6394 11.4761 82.4006 3.50016 69.8917 0H49.6294V0.140811C68.906 -1.18683 88.1826 7.94576 98.893 25.2655L98.9336 25.1951L178.428 161.027C188.62 175.993 205.458 184.301 222.723 184.301C231.807 184.301 241.014 182.008 249.438 177.17C253.929 174.595 257.861 171.457 261.266 167.917C258.349 170.643 255.087 173.087 251.47 175.159H251.48Z" fill="white"/>
</g>
</g>
<defs>
<linearGradient id="paint0_linear_2_38" x1="154.457" y1="120.745" x2="265.432" y2="120.745" gradientUnits="userSpaceOnUse">
<stop stop-color="#4906A5"/>
<stop offset="1" stop-color="#D3423A"/>
</linearGradient>
<linearGradient id="paint1_linear_2_38" x1="9.62333e-05" y1="145.006" x2="267.962" y2="145.006" gradientUnits="userSpaceOnUse">
<stop stop-color="#7C06A5"/>
<stop offset="1" stop-color="#D3423A"/>
</linearGradient>
<clipPath id="clip0_2_38">
<rect width="276" height="290" fill="white"/>
</clipPath>
</defs>
</svg>
