<?xml version="1.0" encoding="utf-8"?>
<!-- Generator: Adobe Illustrator 27.5.0, SVG Export Plug-In . SVG Version: 6.00 Build 0)  -->
<svg version="1.2" baseProfile="tiny" id="Layer_1" xmlns="http://www.w3.org/2000/svg" xmlns:xlink="http://www.w3.org/1999/xlink"
	 x="0px" y="0px" viewBox="0 0 720 473" overflow="visible" xml:space="preserve">
<g>
	<path fill="#0091C7" d="M221.5,10.7L438.7,12l21.3,22.8l-1.2,64.5l-51,39.9l-24.2,18.9h30.7h22.1l22.3,25.1v66.6H244L222.6,226
		l-0.3-68.4l47.5-36.6l24.7-19h-31.1h-20.2l-21-24.7L221.5,10.7L221.5,10.7z M210.8,0l0.9,81.2l26.6,31.4h25.1l-51.7,39.7l0.3,77.7
		l27.2,30.4h230.1v-81.2l-28.1-31.7h-26.9l55-43l1.4-73.8L443.3,1.5L210.8,0L210.8,0z"/>
	<path fill="#0091C7" d="M142.9,473h109.5v-34.9h-67.7v-13.8h62.2v-30.7h-62.2v-12.9h66.8v-34.9H142.9V473L142.9,473z M266.4,473
		h42.2v-58.8l47.3,58.8h37.8V345.7h-42.2v56.2l-45.3-56.2h-39.8V473L266.4,473z M411.1,473h42.6V345.7h-42.6V473L411.1,473z
		 M503.7,473h42.6v-91.3h37.5v-36H466.3v36h37.5V473L503.7,473z M595.9,473h42.6v-45.7h38.9V473H720V345.7h-42.6v44.9h-38.9v-44.9
		h-42.6V473L595.9,473z"/>
	<polygon fill="#0091C7" points="9.7,473 126.2,473 126.2,442.4 116.4,431.4 71.3,431.4 126.3,388.4 126.9,356.1 117.8,346.4 
		0,345.7 0.3,376.3 9.4,387 53.8,387 0.4,428.1 0.5,462.7 9.7,473 	"/>
</g>
</svg>
