<?xml version="1.0" standalone="no"?>
<!DOCTYPE svg PUBLIC "-//W3C//DTD SVG 20010904//EN"
 "http://www.w3.org/TR/2001/REC-SVG-20010904/DTD/svg10.dtd">
<svg version="1.0" xmlns="http://www.w3.org/2000/svg"
 width="825.000000pt" height="830.000000pt" viewBox="0 0 825.000000 830.000000"
 preserveAspectRatio="xMidYMid meet">

<g transform="translate(0.000000,830.000000) scale(0.100000,-0.100000)"
fill="#00b5e2" stroke="none">
<path d="M15 7983 c3 -169 10 -751 16 -1293 8 -731 13 -988 22 -1000 7 -8 198
-232 425 -497 l413 -483 396 -2 395 -3 -822 -630 -822 -630 6 -460 c3 -253 9
-791 12 -1195 3 -404 9 -758 13 -786 7 -49 18 -62 427 -527 l419 -476 3648 -1
3647 0 0 1294 0 1293 -411 464 c-227 255 -429 483 -451 507 l-40 44 -421 -9
c-232 -5 -423 -8 -425 -7 -2 1 391 314 872 695 l876 692 1 131 c0 72 6 601 13
1175 l12 1045 -423 466 -424 467 -1212 6 c-667 4 -2130 9 -3252 12 -1122 3
-2237 8 -2478 11 l-438 6 6 -309z m5812 -30 l1422 -6 337 -371 337 -370 -7
-646 c-3 -355 -9 -823 -13 -1041 l-6 -396 -1179 -933 c-648 -513 -1178 -933
-1176 -934 3 -2 1044 18 1416 27 l213 6 364 -411 365 -411 0 -1073 0 -1074
-3424 0 -3425 0 -329 373 c-180 204 -332 379 -337 387 -9 15 -37 2198 -29
2212 2 3 511 395 1130 870 l1125 863 -794 5 -794 5 -335 391 -335 391 -6 459
c-4 253 -10 738 -13 1078 l-7 619 2039 -6 c1121 -4 2679 -10 3461 -14z"/>
</g>
</svg>
