<svg xmlns="http://www.w3.org/2000/svg" role="img" viewBox="-1.02 41.98 312.78 78.78"><title>Adaptive Financial Consulting Limited logo</title><path d="M7 59h8v1H7zm8 0h1v1h-1zm86 5h1v1h-1zm142 1h1v3h-1zm0 3h1v1h-1zm31 7h1v1h-1zM89 76h1v1h-1zm7 0h1v1h-1zm28 0h1v1h-1zm150 0h1v1h-1zm23 0h1v1h-1zm-105 1h1v1h-1zm51 0h1v25h-1zm-136 1h1v1h-1zm148 0h1v1h-1zm12 0h1v1h-1zm-105 1h1v1h-1zm15 0h1v1h-1zm21 0h1v1h-1zm75 0h1v1h-1zm-153 1h1v1h-1zm74 0h1v1h-1zm107 0h1v1h-1zm-174 1h1v1h-1zm129 0h1v1h-1zm10 0h1v1h-1zm29 0h1v1h-1zm-11 1h1v1h-1zm-113 1h1v1h-1zm20 0h1v1h-1zm20 0h1v1h-1zM93 84h1v1h-1zm9 0h1v1h-1zm163 0h1v1h-1zm-147 1h1v1h-1zm72 1h1v1h-1zm-79 2h1v1h-1zm-27 1h1v1h-1zm9 0h9v1h-9zm9 0h1v1h-1zm54 0h1v1h-1zm96 0h1v1h-1zm-85 1h1v1h-1zm-5 1h1v1h-1zm43 0h1v1h-1zm-34 1h1v1h-1zm34 0h1v1h-1zm-87 1h1v1h-1zm-5 1h1v1h-1zm155 0h1v1h-1zm-57 1h1v1h-1zm72 0h1v1h-1zm-80 2h1v1h-1zm64 0h1v1h-1zm-160 1h1v1h-1zm21 0h1v1h-1zm65 0h1v1h-1zm-58 1h1v1h-1zm33 0h1v1h-1zm111 0h1v1h-1zm-199 1h1v1h-1zm83 0h1v1h-1zm3 0h1v1h-1zm-50 2h1v1h-1zm24 0h1v1h-1zm103 0h1v1h-1zm-208 1h1v1h-1zm74 0h1v1h-1zm86 0h1v1h-1zm36 0h1v1h-1zm-102 1h2v1h-2zm2 0h1v1h-1zm29 0h2v1h-2zm2 0h1v1h-1zm28 0h1v8h-1zm9 0h2v1h-2zm2 0h1v1h-1zm87 0h1v1h-1zm1 0h2v1h-2zm2 0h1v1h-1zm-260 6h1v1h-1zm159 2h1v1h-1z" fill="#004784"/><path d="M46 58h1v45h-1zm94 6h1v1h-1zm-48 4h1v1h-1zm162 7h1v1h-1zm-154 3h1v1h-1zm108 0h1v1h-1zM88 79h1v1h-1zm126 0h1v1h-1zm17 0h1v1h-1zm-123 1h1v1h-1zm-7 1h1v1h-1zm53 2h4v1h-4zm4 0h1v1h-1zm119 0h1v1h-1zm-20 1h1v1h-1zm46 0h1v1h-1zM92 87h1v1h-1zm74 0h1v1h-1zm-12 3h1v1h-1zm150 0h1v1h-1zm-151 1h1v1h-1zm57 7h1v1h-1zm68 0h1v1h-1zm-157 2h1v1h-1zm1 1h1v1h-1zm1 1h1v1h-1zm159 0h1v1h-1zm-236 1h1v1h-1zm94 0h1v1h-1zm6 0h1v1h-1zm21 0h1v1h-1zm90 0h1v1h-1zm27 0h1v1h-1zm-125 1h1v1h-1zm43 0h1v1h-1zm-12 9h1v1h-1z" fill="#004381"/><path d="M91 69h1v1h-1zm15 4h1v1h-1zm-9 2h1v1h-1zm2 2h1v1h-1zm37 4h1v1h-1zm129 1h1v1h-1zm-140 6h1v1h-1zm-13 1h1v1h-1zm3 8h1v1h-1zm44 0h1v1h-1zm43 0h1v1h-1zm-41 2h1v1h-1zm-39 3h1v1h-1z" fill="#a0b3c6"/><path d="M49 48h1v1h-1zM5 60h1v45H5zm125 14h1v1h-1zm35 0h1v1h-1zm1 0h1v1h-1zm33 0h1v1h-1zm91 0h1v1h-1zm-136 4h1v1h-1zm-54 1h1v1h-1zm100 1h1v1h-1zm65 3h1v1h-1zm-95 2h1v1h-1zm113 1h1v1h-1zm-114 4h1v1h-1zm-86 1h1v1h-1zm56 2h1v1h-1zm137 1h1v1h-1zm-125 1h1v1h-1zM49 96h1v1h-1zm84 3h1v1h-1zm96 5h1v1h-1zM5 105h1v1H5z" fill="#53739f"/><path d="M47 58h1v38h-1zm58 11h1v1h-1zm-16 4h1v1h-1zm83 1h1v1h-1zm-18 3h1v1h-1zm121 0h1v1h-1zm-146 4h1v1h-1zm119 0h1v1h-1zm47 2h1v1h-1zm-45 4h1v1h-1zm13 0h1v1h-1zm-59 2h1v1h-1zm0 1h1v1h-1zm56 0h1v1h-1zm-122 4h1v1h-1zm-91 2h1v8h-1zm160 7h1v1h-1zm-160 1h1v1h-1zm71 0h1v1h-1zm40 1h1v1h-1zm129 0h1v1h-1z" fill="#f9fcfe"/><path d="M197 74h1v1h-1zm-70 8h1v1h-1zm144 5h1v1h-1zm-154 1h1v1h-1zm0 1h1v1h-1zm153 1h1v1h-1zm-18 1h1v1h-1zm-91 1h1v1h-1z" fill="#879db4"/><path d="M50 48h9v1h-9zm9 0h1v1h-1zm44 18h1v1h-1zm116 0h1v1h-1zm6 0h1v1h-1zM91 70h1v1h-1zm86 8h1v1h-1zm110 2h1v1h-1zm-97 10h1v1h-1zm-66 13h1v1h-1z" fill="#416594"/><path d="M35 57h1v1h-1zm67 7h1v1h-1zm44 0h1v1h-1zm97 5h1v1h-1zm4 6h1v1h-1zm56 21h1v1h-1zm-38 7h1v1h-1z" fill="#003b7d"/><path fill="#859bbc" d="M93 64h1v1h-1z"/><path fill="#00417b" d="M94 64h1v1h-1z"/><path d="M139 65h1v11h-1zm29 9h1v1h-1zm33 0h1v1h-1zm91 0h1v1h-1zm-153 2h1v1h-1zm25 3h1v1h-1zm54 1h1v1h-1zm60 0h1v1h-1zM94 83h1v1h-1zm156 2h1v1h-1zm-111 1h1v1h-1zm-55 2h1v1h-1zm142 8h1v1h-1zm-15 1h1v1h-1zm-10 1h1v1h-1zm-113 2h1v1h-1zm83 2h1v1h-1zm124 2h1v1h-1zm-264 7h1v1h-1z" fill="#758db0"/><path d="M197 80h1v1h-1zm63 11h1v1h-1z" fill="#c8d2e1"/><path d="M35 56h11v1H35zm11 0h1v1h-1zm48 7h8v1h-8zm8 0h1v1h-1zm38 0h6v1h-6zm6 0h1v1h-1zm90 0h7v1h-7zm7 0h1v1h-1zm-139 4h1v1h-1zm-14 4h1v1h-1zm36 3h1v1h-1zm160 0h1v1h-1zm-179 1h1v1h-1zm137 0h1v1h-1zm-52 1h1v1h-1zm74 2h1v1h-1zM87 79h1v1h-1zm75 1h1v1h-1zm51 0h1v1h-1zm19 0h1v1h-1zm25 1h1v1h-1zm20 0h1v1h-1zm-107 1h1v1h-1zm32 0h1v1h-1zm-92 1h1v1h-1zm82 0h1v1h-1zm84 0h1v1h-1zm-138 1h1v1h-1zm-21 1h1v1h-1zm-24 2h1v1h-1zm182 0h1v1h-1zm-162 4h1v1h-1zm149 0h1v1h-1zm8 0h1v1h-1zm5 1h1v1h-1zm-158 1h1v1h-1zm74 0h1v1h-1zm-65 1h1v1h-1zm44 0h1v1h-1zm99 0h1v1h-1zm-16 1h1v1h-1zm-125 2h1v1h-1zm41 0h1v1h-1zm99 0h1v1h-1zm27 0h1v1h-1zm-189 1h1v1h-1zm105 0h1v1h-1zm43 0h1v1h-1zm49 0h1v1h-1zm-187 1h1v1h-1zm151 1h1v1h-1zm-128 2h1v1h-1zm40 0h1v1h-1zm-56 1h1v1h-1zm70 0h1v1h-1zm89 0h1v1h-1zm-195 1h1v1h-1zm60 0h1v1h-1zm-18 1h2v1h-2zm2 0h1v1h-1zm29 0h1v1h-1zm39 0h1v1h-1zm1 0h1v1h-1zm89 0h2v1h-2zm2 0h1v1h-1z" fill="#d8dfe7"/><path d="M20 64h1v45h-1zm86 10h1v1h-1zm19 1h1v1h-1zm-37 3h1v1h-1zm212 0h1v1h-1zm-137 1h1v1h-1zm103 1h1v1h-1zm-157 2h1v1h-1zm174 9h1v1h-1zM60 96h1v1h-1zm55 2h1v1h-1zm171 0h1v1h-1zm-178 4h1v1h-1zm28 1h1v1h-1zm-116 6h1v1h-1z" fill="#396194"/><path d="M17 60h1v45h-1zm73 12h1v1h-1zm104 3h1v1h-1zm-87 1h1v1h-1zm58 3h1v1h-1zm-37 2h1v1h-1zm42 0h1v1h-1zm-60 3h1v1h-1zm162 0h1v1h-1zm24 0h1v1h-1zm-92 1h1v1h-1zm8 0h1v1h-1zm-87 2h1v1h-1zm14 5h1v1h-1zm121 0h1v1h-1zm-48 2h1v1h-1zm-9 2h1v1h-1zm25 2h1v1h-1zm-61 1h1v1h-1zm-14 3h1v1h-1zm71 2h1v1h-1zm-207 1h1v1h-1zm3 6h1v1h-1z" fill="#8097b6"/><path d="M51 49h8v1h-8zm8 0h1v1h-1zm-9 1h1v44h-1zM21 64h9v1h-9zm9 0h1v1h-1zm-9 1h1v43h-1zm73 0h1v1h-1zm7 0h1v1h-1zm136 0h1v3h-1zm-17 2h4v1h-4zm4 0h1v1h-1zm13 1h1v1h-1zM92 70h1v1h-1zm4 4h1v1h-1zm9 0h1v1h-1zm25 1h1v1h-1zm35 0h1v1h-1zm1 0h1v1h-1zm33 0h1v1h-1zm1 0h1v1h-1zm90 0h1v1h-1zm1 0h1v1h-1zm-191 1h1v1h-1zm33 0h1v1h-1zm36 0h1v1h-1zm27 0h1v1h-1zm1 0h1v1h-1zm98 0h1v1h-1zM95 77h1v1h-1zm11 0h1v1h-1zm51 0h1v1h-1zm26 0h1v35h-1zm6 0h1v1h-1zm4 0h1v1h-1zm44 0h1v25h-1zm46 0h1v1h-1zM89 78h1v1h-1zm12 0h1v1h-1zm39 0h1v1h-1zm22 0h1v1h-1zm1 0h1v1h-1zm5 0h1v1h-1zm21 0h1v1h-1zm3 0h1v1h-1zm23 0h1v1h-1zm1 0h1v1h-1zm10 0h4v1h-4zm4 0h1v1h-1zm59 0h2v1h-2zm2 0h1v1h-1zm-190 1h1v1h-1zm28 0h1v1h-1zm6 0h1v1h-1zm3 0h1v1h-1zm1 0h1v1h-1zm51 0h1v1h-1zm1 0h1v1h-1zm9 0h1v1h-1zm87 0h1v1h-1zm6 0h1v1h-1zm6 0h1v1h-1zM94 80h1v1h-1zm33 0h1v1h-1zm66 0h1v1h-1zm15 0h1v1h-1zm47 0h1v1h-1zm30 0h1v1h-1zm15 0h1v1h-1zm-198 1h1v1h-1zm18 0h1v1h-1zm39 0h1v1h-1zm44 0h1v1h-1zm1 0h1v1h-1zm46 0h1v1h-1zM88 82h1v1h-1zm14 0h1v1h-1zm6 0h1v1h-1zm-21 1h1v1h-1zm38 0h1v1h-1zm141 0h1v1h-1zm12 0h1v1h-1zm19 0h1v1h-1zm-157 1h1v1h-1zm64 0h1v1h-1zm-95 1h1v1h-1zm97 0h1v2h-1zm71 0h1v1h-1zm5 0h1v1h-1zM86 86h1v2h-1zm38 0h1v1h-1zm47 0h1v1h-1zm99 0h1v1h-1zm12 0h1v1h-1zm-178 1h1v1h-1zm85 0h1v3h-1zm17 0h1v3h-1zm5 0h1v1h-1zm41 0h1v1h-1zm31 0h1v1h-1zM86 88h1v1h-1zm6 0h1v1h-1zm12 0h1v1h-1zm6 0h1v1h-1zm54 0h1v1h-1zm1 0h1v1h-1zm46 0h1v1h-1zm-108 1h1v1h-1zm166 0h1v1h-1zm-158 1h1v1h-1zm44 0h1v1h-1zm8 0h1v1h-1zm26 0h1v1h-1zm17 0h1v1h-1zm46 0h1v1h-1zm6 0h1v1h-1zm26 0h1v1h-1zm1 0h1v1h-1zM84 91h1v1h-1zm27 0h1v1h-1zm49 0h1v1h-1zm108 1h1v1h-1zm14 0h1v1h-1zm-170 1h1v1h-1zm12 0h1v1h-1zm16 0h1v1h-1zm18 0h1v1h-1zm105 0h1v1h-1zm14 0h1v1h-1zm5 0h1v1h-1zM50 94h1v1h-1zm33 0h1v1h-1zm36 0h1v1h-1zm158 0h1v1h-1zM51 95h8v1h-8zm8 0h1v1h-1zm60 0h1v1h-1zm-12 1h1v1h-1zm32 0h1v1h-1zm1 0h1v1h-1zm50 0h1v1h-1zm65 0h1v1h-1zm6 0h1v1h-1zm17 0h1v1h-1zm5 0h1v1h-1zM82 97h1v1h-1zm38 0h1v1h-1zm32 0h1v1h-1zm73 0h1v2h-1zm71 0h1v1h-1zm1 0h1v2h-1zm-127 1h1v1h-1zm22 0h1v1h-1zm35 0h1v1h-1zM87 99h1v1h-1zm41 0h1v1h-1zm8 0h1v1h-1zm23 0h1v1h-1zm31 0h1v1h-1zm35 0h1v1h-1zm75 0h1v1h-1zm-170 1h3v1h-3zm3 0h1v1h-1zm57 0h1v1h-1zm6 0h3v1h-3zm3 0h1v1h-1zm21 0h1v1h-1zm68 0h4v1h-4zm4 0h1v1h-1zm7 0h1v1h-1zm1 0h1v1h-1zm-177 1h1v1h-1zm41 0h1v2h-1zm1 0h1v1h-1zm4 0h1v1h-1zm24 0h1v1h-1zm13 0h1v1h-1zm-126 1h1v1h-1zm6 0h1v1h-1zm23 0h1v1h-1zm15 0h1v1h-1zm31 0h1v1h-1zm22 0h1v1h-1zm60 0h1v1h-1zm20 0h1v1h-1zm26 0h1v1h-1zm-247 1h9v1h-9zm9 0h1v1h-1zm82 0h1v1h-1zm1 0h1v1h-1zm5 0h1v1h-1zm24 0h2v1h-2zm2 0h1v1h-1zm4 0h1v1h-1zm1 0h1v1h-1zm33 0h1v1h-1zm1 0h1v1h-1zm5 0h1v1h-1zm89 0h1v1h-1zm1 0h1v1h-1zm4 0h1v1h-1zM7 106h8v1H7zm8 0h1v1h-1zm6 2h1v1h-1zm162 4h1v1h-1z" fill="#23548b"/><path d="M34 58h1v46h-1zm113 7h1v37h-1zm-58 9h1v1h-1zm35 1h1v1h-1zm54 4h1v1h-1zm39 1h1v1h-1zm10 0h1v1h-1zm21 0h1v1h-1zM95 81h1v1h-1zm31 3h1v1h-1zm86 0h1v1h-1zm-21 1h1v1h-1zm-89 1h1v1h-1zm184 0h9v1h-9zm9 0h1v1h-1zm-36 2h1v1h-1zm-107 3h1v1h-1zm52 2h1v1h-1zm-34 2h1v1h-1zm-81 3h1v1h-1zm143 0h1v1h-1zm-14 1h1v1h-1zm-27 2h1v1h-1zm-44 1h1v1h-1zm-113 2h1v1h-1zm-2 7h1v1h-1z" fill="#b8c4d5"/><path d="M243 64h1v1h-1zm-84 19h1v1h-1zM46 104h1v1h-1z" fill="#00367a"/><path d="M103 65h1v1h-1zm115 2h1v7h-1zm0 7h1v1h-1zm69 0h1v1h-1zm-5 2h1v1h-1zM88 77h1v1h-1zm214 3h1v1h-1zm-193 1h1v1h-1zm109 1h1v16h-1zm-79 9h1v1h-1zm-78 5h1v1h-1zm157 2h1v1h-1zm11 0h1v1h-1zm1 0h1v1h-1zm-64 6h1v1h-1zm13 0h1v1h-1zm-144 1h1v1h-1zm11 0h1v1h-1zm-29 2h1v1h-1z" fill="#a2b1c8"/><path d="M80 99h1v1h-1zm219 3h1v1h-1zm-116 12h6v1h-6zm6 0h1v1h-1z" fill="#476b9e"/><g fill="#fff"><path d="M0 0h309v47H0zm309 0h1v162h-1zM0 47h309v1H0zm0 1h48v7H0zm48 0h1v114h-1zm14 0h247v13H62zM0 55h48v1H0zm0 1h32v2H0zm32 0h1v5h-1zm15 0h1v1h-1zm-14 1h1v105h-1z"/><path d="M0 58h33v1H0zm0 1h4v103H0zm4 0h1v103H4zm14 0h15v2H18zm0 2h15v1H18zm44 0h247v1H62zm-44 1h1v100h-1zm1 0h1v100h-1zm43 0h182v1H62zm182 0h65v1h-65zM62 63h30v4H62zm30 0h1v2h-1zm11 0h35v1h-35zm35 0h1v13h-1zm10 0h87v2h-87zm87 0h1v99h-1zm10 0h64v10h-64zm-140 1h33v4h-33zm-13 1h1v1h-1z"/><path d="M104 65h34v1h-34zm44 0h87v1h-87zm-44 1h34v1h-34zm44 0h69v7h-69zm69 0h1v8h-1zm10 0h8v8h-8zM62 67h29v3H62zm29 0h1v1h-1zm14 1h33v1h-33zm1 1h32v2h-32zm-44 1h28v2H62zm28 0h1v1h-1zm16 1h32v1h-32zm130 0h73v2h-73zM62 72h27v3H62zm27 0h1v1h-1zm18 0h31v1h-31zm0 1h31v1h-31zm41 0h69v1h-69zm88 0h73v1h-73zm-129 1h18v1h-18zm18 0h1v1h-1zm10 0h3v1h-3zm13 0h11v1h-11zm11 0h1v1h-1zm14 0h8v1h-8zm8 0h13v1h-13zm13 0h1v1h-1zm10 0h13v1h-13zm13 0h1v1h-1zm10 0h48v1h-48zm48 0h10v1h-10zm10 0h1v1h-1zm11 0h2v1h-2zm2 0h11v1h-11zM62 75h26v3H62zm26 0h1v1h-1zm20 0h13v2h-13zm13 0h2v1h-2zm2 0h1v1h-1zm14 0h1v1h-1zm11 0h8v1h-8zm8 0h1v1h-1zm19 0h6v1h-6zm6 0h1v87h-1zm10 0h1v1h-1zm1 0h1v1h-1zm15 0h5v1h-5zm5 0h1v7h-1zm21 0h2v87h-2zm12 0h1v87h-1zm11 0h10v2h-10zm10 0h1v2h-1zm10 0h6v1h-6zm6 0h1v1h-1zm16 0h11v1h-11zM98 76h1v11h-1zm23 0h1v1h-1zm17 0h1v1h-1zm10 0h7v1h-7zm7 0h1v1h-1z"/><path d="M177 76h5v1h-5zm5 0h1v1h-1zm9 0h1v1h-1zm17 0h4v1h-4zm38 0h1v86h-1zm30 0h5v1h-5zm5 0h1v1h-1zm18 0h10v1h-10zM97 77h1v10h-1zm11 0h12v1h-12zm12 0h1v1h-1zm28 0h5v2h-5zm5 0h1v1h-1zm25 0h3v1h-3zm31 0h3v1h-3zm47 0h10v1h-10zm10 0h1v1h-1zm10 0h3v2h-3zm3 0h1v1h-1zm22 0h8v1h-8zM62 78h25v2H62zm25 0h1v1h-1zm22 0h10v1h-10zm10 0h1v1h-1zm34 0h1v1h-1zm25 0h3v1h-3zm32 0h2v1h-2zm47 0h8v2h-8zm8 0h1v2h-1z"/><path d="M275 78h3v2h-3zm27 0h7v1h-7zM99 79h1v8h-1zm10 0h8v1h-8zm8 0h2v2h-2zm2 0h1v1h-1zm29 0h4v12h-4zm4 0h1v1h-1zm27 0h2v21h-2zm32 0h1v1h-1zm36 0h1v83h-1zm31 0h1v1h-1zm24 0h7v1h-7zM62 80h24v3H62zm24 0h1v1h-1zm10 0h3v7h-3z"/><path d="M110 80h8v2h-8zm53 0h4v5h-4zm4 0h1v5h-1zm44 0h1v1h-1zm46 0h8v1h-8zm8 0h1v1h-1zm9 0h3v2h-3zm3 0h1v1h-1zm26 0h6v1h-6zm-185 1h1v1h-1zm12 0h5v16h-5zm5 0h1v16h-1z"/><path d="M162 81h7v4h-7zm7 0h1v3h-1zm26 0h5v15h-5zm5 0h1v15h-1zm13 0h4v6h-4zm4 0h1v81h-1zm10 0h8v15h-8zm31 0h6v2h-6zm6 0h1v2h-1zm23 0h6v4h-6zm6 0h1v4h-1zm11 0h5v2h-5zm-204 1h1v5h-1zm10 0h7v1h-7zm7 0h1v2h-1zm11 0h8v14h-8zm8 0h1v15h-1z"/><path d="M161 82h8v3h-8zm33 0h7v14h-7zm7 0h1v15h-1zm11 0h5v1h-5zm36 0h1v80h-1zm26 0h2v3h-2zm2 0h1v1h-1zm10 0h8v3h-8zm8 0h1v3h-1zM62 83h23v3H62zm23 0h1v1h-1zm10 0h5v4h-5zm16 0h6v1h-6zm16 0h10v9h-10zm10 0h1v12h-1zm65 0h1v13h-1zm56 0h6v1h-6zm6 0h1v1h-1z"/><path d="M273 83h2v79h-2zm12 0h9v2h-9zm19 0h5v1h-5zm-193 1h6v1h-6zm6 0h1v1h-1zm52 0h1v1h-1zm23 0h11v11h-11zm11 0h1v10h-1zm56 0h4v2h-4zm4 0h1v2h-1zm32 0h1v1h-1zm10 0h4v3h-4zM94 85h7v2h-7zm7 0h1v2h-1zm11 0h4v2h-4zm4 0h1v13h-1zm22 0h1v8h-1zm14 0h16v1h-16zm16 0h1v1h-1zm81 0h1v77h-1zm26 0h1v1h-1zm9 0h11v1h-11zm11 0h1v1h-1zM62 86h22v2H62zm22 0h1v1h-1zm42 0h12v6h-12zm26 0h13v1h-13zm13 0h1v1h-1zm94 0h4v1h-4zm4 0h1v1h-1z"/><path d="M272 86h2v2h-2zM94 87h7v1h-7zm7 0h1v1h-1zm11 0h4v1h-4zm40 0h6v1h-6zm6 0h1v1h-1zm55 0h4v1h-4zm47 0h2v2h-2zm2 0h1v3h-1zm43 0h4v1h-4zM62 88h21v3H62zm21 0h1v1h-1zm30 0h3v2h-3zm39 0h3v1h-3zm3 0h1v1h-1zm36 0h12v3h-12zm23 0h3v74h-3zm36 0h1v74h-1zm22 0h2v74h-2zm34 0h3v74h-3zm-154 1h1v1h-1zm1 0h1v1h-1zm107 0h2v1h-2z"/><path d="M271 89h3v73h-3zm-158 1h3v1h-3zm39 0h1v1h-1zm109 0h1v3h-1zm1 0h1v1h-1zM62 91h20v3H62zm20 0h1v1h-1zm32 0h2v2h-2zm34 0h3v71h-3zm3 0h1v1h-1zm18 0h1v5h-1zm22 0h12v1h-12zm60 0h1v71h-1zm-125 1h12v1h-12zm37 0h6v5h-6zm50 0h4v70h-4z"/><path d="M270 92h4v2h-4zm14 0h25v1h-25zm-170 1h2v1h-2zm12 0h12v1h-12zm12 0h1v1h-1zm23 0h8v4h-8zm91 0h1v69h-1zm9 0h1v1h-1zm23 0h25v1h-25zM62 94h19v2H62zm19 0h1v1h-1zm34 0h1v1h-1zm12 0h10v1h-10z"/><path d="M160 94h9v3h-9zm43 0h1v1h-1zm67 0h5v68h-5zm5 0h1v68h-1zm10 0h24v1h-24zm-170 1h2v1h-2zm2 0h1v2h-1zm10 0h10v1h-10zm10 0h1v1h-1zm55 0h10v1h-10z"/><path d="M269 95h6v67h-6zm16 0h11v1h-11zm11 0h1v1h-1zm9 0h4v67h-4zM62 96h18v3H62zm18 0h1v1h-1zm11 0h14v66H91zm14 0h1v66h-1zm23 0h8v1h-8zm41 0h1v1h-1zm24 0h9v1h-9zm9 0h1v1h-1zm25 0h8v1h-8zm26 0h1v66h-1zm33 0h9v1h-9zm9 0h1v1h-1z"/><path d="M49 97h30v5H49zm41 0h1v65h-1zm27 0h1v4h-1zm12 0h7v1h-7zm7 0h1v1h-1zm24 0h8v1h-8zm8 0h1v1h-1zm26 0h1v1h-1zm1 0h3v1h-3zm3 0h1v1h-1zm3 0h1v1h-1zm11 0h5v65h-5zm16 0h7v1h-7zm48 0h1v65h-1zm10 0h8v1h-8zm8 0h1v1h-1zm10 0h5v65h-5z"/><path d="M116 98h2v1h-2zm2 0h1v5h-1zm13 0h3v1h-3zm3 0h1v1h-1zm27 0h6v1h-6zm6 0h1v1h-1zm29 0h3v1h-3zm3 0h1v1h-1zm69 0h8v4h-8zm21 0h3v1h-3zm3 0h1v1h-1zM79 99h1v1h-1zm27 0h1v63h-1zm105 0h6v63h-6zm43 0h1v63h-1zm23 0h1v63h-1zm26 0h6v63h-6zm-214 1h17v62H89zm30 0h1v62h-1zm60 0h2v1h-2zm99 0h1v62h-1z"/><path d="M117 101h3v1h-3zm3 0h1v61h-1zm31 0h1v61h-1zm29 0h1v61h-1zm30 0h8v61h-8zm8 0h1v61h-1zm49 0h12v1h-12zm12 0h1v61h-1zm23 0h7v61h-7zm-253 1h29v2H49zm29 0h1v1h-1zm10 0h19v60H88zm19 0h1v60h-1zm14 0h1v60h-1zm31 0h1v60h-1z"/><path d="M209 102h9v60h-9zm46 0h1v60h-1zm12 0h11v60h-11zm13 0h1v60h-1zm21 0h8v60h-8zm-183 1h4v1h-4zm4 0h1v59h-1zm16 0h1v59h-1zm15 0h1v59h-1zm17 0h1v59h-1zm22 0h1v59h-1z"/><path d="M208 103h11v59h-11zm11 0h1v59h-1zm62 0h1v59h-1zm18 0h1v59h-1zm1 0h9v59h-9zm-251 1h28v58H49zm28 0h1v58h-1zm46 0h1v58h-1zm1 0h1v58h-1zm12 0h2v58h-2zm18 0h1v58h-1zm14 0h2v58h-2zm25 0h1v58h-1zm1 0h1v58h-1z"/><path d="M206 104h15v58h-15zm15 0h1v58h-1zm45 0h17v58h-17zm17 0h1v58h-1zm14 0h12v58h-12zm-250 1h29v57H47zm31 0h39v57H78zm39 0h10v57h-10zm10 0h1v57h-1zm6 0h24v57h-24zm24 0h1v57h-1zm7 0h17v57h-17zm31 0h2v57h-2zm2 0h1v57h-1z"/><path d="M203 105h79v57h-79zm81 0h2v57h-2zm2 0h1v57h-1zm8 0h15v57h-15zm-260 1h147v56H34z"/><path d="M198 106h111v56H198zM5 108h14v54H5zm15 4h161v50H20z"/><path d="M182 115h127v47H182zM0 162h309v1H0zm309 0h1v1h-1z"/></g><path d="M200 74h1v1h-1zm91 0h1v1h-1zm-44 2h1v1h-1zm-108 2h1v1h-1zm-38 4h1v1h-1zm24 4h1v1h-1zm133 0h1v1h-1zm-95 1h1v1h-1zM89 97h1v1h-1zm108 2h1v1h-1zm93 0h1v1h-1zm1 0h1v1h-1zm-72 2h1v1h-1zm61 0h1v1h-1zm-115 3h1v1h-1z" fill="#597aa5"/><path d="M92 67h1v1h-1zm13 4h1v1h-1zm24 3h1v1h-1zm38 0h1v1h-1zm31 0h1v1h-1zm91 0h1v1h-1zm-116 1h1v1h-1zm17 0h1v1h-1zm-67 1h1v1h-1zm52 0h1v1h-1zm15 0h1v2h-1zm0 2h1v1h-1zm-82 1h1v1h-1zm59 0h1v1h-1zm81 0h1v1h-1zM95 80h1v1h-1zm131 0h1v1h-1zm-15 2h1v1h-1zm-73 1h1v1h-1zm53 1h1v1h-1zm-89 1h1v1h-1zm162 1h1v1h-1zm40 0h1v1h-1zm-193 1h1v1h-1zm-8 1h1v1h-1zm61 3h1v1h-1zm121 0h18v1h-18zm18 0h1v1h-1zm-20 1h1v1h-1zm-169 3h1v1h-1zm56 1h1v1h-1zm107 1h1v1h-1zm8 0h1v1h-1zm-153 2h1v1h-1zm-15 4h1v1h-1zm17 1h1v1h-1zm62 0h1v1h-1zm34 0h1v1h-1zM6 107h10v1H6zm10 0h1v1h-1z" fill="#6280a6"/><path d="M92 66h1v1h-1zm13 4h1v1h-1zm28 4h1v1h-1zm28 0h1v1h-1zm35 0h1v1h-1zm98 0h1v1h-1zm-39 1h1v1h-1zm12 0h1v1h-1zm-130 1h1v1h-1zm138 0h1v1h-1zm-167 2h1v1h-1zm23 2h2v1h-2zm2 0h1v1h-1zm156 0h2v1h-2zm2 0h1v1h-1zm-90 1h1v1h-1zm10 0h1v1h-1zm-93 1h1v1h-1zm131 1h1v1h-1zm-138 3h1v1h-1zm93 0h1v1h-1zm46 0h1v1h-1zm34 0h1v1h-1zm1 0h1v1h-1zm-125 1h1v1h-1zm-4 1h1v1h-1zm107 0h1v1h-1zm-109 1h1v1h-1zm121 0h1v1h-1zm0 1h1v1h-1zm-161 4h1v1h-1zm98 1h1v1h-1zm-85 1h1v1h-1zm160 2h1v1h-1zm-167 2h1v1h-1zm-32 1h1v1h-1zm29 1h1v1h-1zm75 0h1v1h-1zm-114 1h1v1h-1zm57 1h1v1h-1zm60 0h1v1h-1zm37 0h1v1h-1zm64 0h1v1h-1z" fill="#c0ccdb"/><path d="M135 80h1v1h-1zm158 0h1v1h-1z" fill="#355e89"/><path d="M17 59h1v1h-1zm87 9h1v1h-1zm24 6h1v1h-1zm35 0h1v1h-1zm125 0h1v1h-1zm-153 1h1v1h-1zm132 1h1v1h-1zm-128 1h1v1h-1zm135 1h1v1h-1zm-108 1h1v1h-1zm-79 1h1v1h-1zm186 1h1v1h-1zm22 1h1v1h-1zm-133 5h1v1h-1zm-5 1h1v1h-1zm94 0h1v1h-1zm12 1h1v1h-1zm-112 5h1v1h-1zm53 0h1v1h-1zM90 95h1v1h-1zm61 3h1v1h-1zm43 0h1v1h-1zm16 1h1v1h-1zm92 0h1v1h-1zm-215 4h1v1h-1zm119 0h1v1h-1zm-189 3h1v1h-1zm-12 1h1v1H5zm16 4h9v1h-9zm9 0h1v1h-1z" fill="#7b94b3"/><path d="M60 50h1v44h-1zM21 63h1v1h-1zm81 2h1v1h-1zm123 2h1v1h-1zm-6 1h1v6h-1zM91 72h1v1h-1zm8 2h1v1h-1zm120 0h1v1h-1zm6 0h1v1h-1zM96 75h1v1h-1zm74 0h1v1h-1zm32 0h1v1h-1zm85 0h1v1h-1zm6 0h1v1h-1zm-39 1h1v1h-1zm30 0h1v1h-1zM89 77h1v1h-1zm66 1h1v1h-1zm76 0h1v1h-1zm42 0h1v1h-1zm-104 1h1v1h-1zm27 0h1v1h-1zm3 0h1v1h-1zm68 0h1v1h-1zm21 0h1v1h-1zM88 80h1v1h-1zm13 0h1v1h-1zm27 0h1v1h-1zm151 0h1v1h-1zm-60 1h1v16h-1zm-41 1h1v1h-1zm-85 1h1v1h-1zm111 0h1v1h-1zm46 1h1v1h-1zm21 0h1v1h-1zm26 0h1v2h-1zm-107 1h1v1h-1zm67 0h1v1h-1zm46 0h1v1h-1zm-6 1h1v1h-1zm-132 1h1v1h-1zm-41 1h1v1h-1zm37 0h1v1h-1zm51 0h1v1h-1zm92 0h1v1h-1zm-193 1h1v1h-1zm59 0h1v1h-1zm-4 1h1v1h-1zm103 0h1v1h-1zm-145 1h1v1h-1zm37 0h1v1h-1zm92 0h1v1h-1zm-141 1h1v1h-1zm28 0h1v1h-1zm12 0h1v1h-1zm38 0h1v2h-1zM83 93h1v1h-1zm185 0h1v1h-1zM60 94h1v1h-1zm45 0h1v1h-1zm13 0h1v1h-1zm72 0h1v1h-1zm21 0h1v1h-1zm-105 1h1v1h-1zm33 0h1v1h-1zm32 0h1v1h-1zm54 0h1v1h-1zm42 1h1v1h-1zm32 0h3v1h-3zm3 0h1v1h-1zm-195 1h1v1h-1zm7 0h1v1h-1zm44 0h1v1h-1zm61 0h1v1h-1zm36 0h1v1h-1zm29 0h1v1h-1zm-164 1h1v1h-1zm17 0h1v1h-1zm41 0h1v1h-1zm-49 1h1v1h-1zm80 0h1v1h-1zm20 0h1v1h-1zm37 0h1v1h-1zm28 0h1v1h-1zm-186 1h1v1h-1zm56 0h1v1h-1zm92 0h1v1h-1zm24 0h1v1h-1zm-112 2h1v1h-1zm-88 1h1v1h-1zm76 0h1v1h-1zm10 0h1v1h-1zm71 0h1v1h-1zm27 0h1v1h-1zm-228 1h8v1h-8zm8 0h1v1h-1zm83 0h1v1h-1zm-106 6h1v1h-1z" fill="#144e89"/><path d="M32 63h1v1h-1zm194 11h1v1h-1zm40 5h1v1h-1zm18 4h1v1h-1zm-167 7h1v1h-1zm48 1h1v1h-1zm-83 2h1v1h-1zm187 0h1v1h-1zm-110 1h1v1h-1zm67 1h1v1h-1zm-120 2h1v1h-1zm148 0h1v1h-1zm-23 1h1v1h-1zm36 1h1v1h-1zm11 0h1v1h-1zm-199 5h1v1h-1zm7 0h1v1h-1zm23 0h1v1h-1zm8 0h1v1h-1zm23 0h1v1h-1zm6 0h1v1h-1zm26 0h1v1h-1zm6 0h1v1h-1zm65 0h1v1h-1zm14 0h1v1h-1z" fill="#8ea3bd"/><path d="M171 74h1v1h-1zm32 0h1v1h-1zm-29 1h1v1h-1zm33 1h1v1h-1zm-69 1h1v1h-1zm118 1h1v1h-1zm18 1h1v1h-1zm-76 1h1v1h-1zm75 2h1v1h-1zm12 0h1v1h-1zm-125 1h1v1h-1zm-66 1h1v1h-1zm210 0h1v1h-1zm-32 1h1v1h-1zm24 0h1v1h-1zm-129 1h1v1h-1zm-83 1h1v1h-1zm187 1h1v1h-1zm4 0h1v1h-1zm-24 1h1v1h-1zm-84 2h1v1h-1zm108 0h1v1h-1zm-23 1h1v1h-1zm-92 1h1v1h-1zm-79 2h1v1h-1zm78 0h1v1h-1zm145 0h1v1h-1zm-145 1h1v1h-1zm-24 2h1v1h-1zm31 1h1v1h-1zm-28 3h1v1h-1zm32 0h1v1h-1zm-31 1h1v1h-1zm-14 1h1v1h-1zm36 1h1v1h-1z" fill="#cad4e1"/><path d="M50 49h1v1h-1zM16 60h1v45h-1zm77 7h1v1h-1zm10 1h1v1h-1zm1 1h1v2h-1zm0 2h1v1h-1zm24 4h1v1h-1zm3 0h1v1h-1zm1 0h1v1h-1zm31 0h1v1h-1zm1 0h1v1h-1zm3 0h1v1h-1zm1 0h1v1h-1zm17 0h3v1h-3zm3 0h1v1h-1zm9 0h1v1h-1zm1 0h1v1h-1zm3 0h1v1h-1zm3 0h1v1h-1zm11 0h1v1h-1zm1 0h1v1h-1zm10 0h4v1h-4zm4 0h1v1h-1zm8 0h4v1h-4zm4 0h1v1h-1zm6 0h5v1h-5zm5 0h1v1h-1zm16 0h4v1h-4zm4 0h1v1h-1zm16 0h1v1h-1zm3 0h1v1h-1zm-167 1h1v1h-1zm9 0h1v1h-1zm39 0h1v1h-1zm21 0h1v1h-1zm102 0h1v1h-1zm-156 1h1v1h-1zm35 0h1v1h-1zm-38 1h1v1h-1zm27 0h3v1h-3zm3 0h1v1h-1zm9 0h1v1h-1zm105 0h1v1h-1zm-174 1h1v1h-1zm54 0h1v1h-1zm34 0h1v1h-1zm23 0h1v1h-1zm31 0h1v1h-1zm6 0h1v1h-1zm25 0h1v1h-1zm-126 1h1v1h-1zm6 0h1v1h-1zm17 0h1v1h-1zm42 0h1v1h-1zm54 0h1v1h-1zm-102 1h1v1h-1zm6 0h1v1h-1zm15 0h1v1h-1zm80 0h1v2h-1zm-119 1h1v1h-1zm97 0h1v1h-1zm46 0h1v1h-1zm-177 1h1v1h-1zm20 0h1v1h-1zm39 0h1v14h-1zm94 0h1v1h-1zm5 1h1v1h-1zM93 85h1v1h-1zm10 0h1v1h-1zm108 0h1v1h-1zm40 0h1v1h-1zM92 86h1v1h-1zm48 0h1v1h-1zm29 0h1v1h-1zm88 0h1v1h-1zm14 0h1v1h-1zm-161 1h1v1h-1zm8 0h1v4h-1zm6 0h1v1h-1zm44 0h1v1h-1zm102 0h1v2h-1zm-108 1h1v1h-1zm1 0h1v1h-1zm89 0h1v1h-1zm-95 1h1v1h-1zm48 0h1v1h-1zm59 0h1v2h-1zm6 0h1v1h-1zm-106 1h1v1h-1zm1 0h1v1h-1zm40 0h1v1h-1zm54 0h1v1h-1zm44 0h1v1h-1zm-185 1h1v1h-1zm146 0h1v1h-1zm-140 1h1v1h-1zm-34 2h1v1h-1zm62 0h1v1h-1zm6 0h1v1h-1zm47 0h1v1h-1zm49 0h1v1h-1zM50 95h1v1h-1zm63 0h1v1h-1zm12 0h1v1h-1zm79 0h1v1h-1zm0 1h1v1h-1zm21 0h1v1h-1zM88 97h1v2h-1zm50 0h1v1h-1zm40 0h1v1h-1zm32 0h1v1h-1zm92 0h1v1h-1zm-188 1h1v1h-1zm38 0h1v2h-1zm17 0h1v1h-1zm57 0h1v1h-1zm40 0h1v1h-1zm30 0h1v1h-1zM88 99h1v1h-1zm32 0h1v1h-1zm74 0h1v1h-1zm34 0h1v1h-1zm60 0h1v1h-1zm-136 1h1v1h-1zm39 0h1v1h-1zm17 0h1v1h-1zm-92 1h1v1h-1zm22 0h1v1h-1zm161 0h1v1h-1zm1 0h1v1h-1zm-128 1h1v1h-1zm48 0h1v1h-1zm1 0h1v1h-1zm-87 1h1v1h-1zm31 0h1v1h-1zm59 0h1v1h-1zm5 0h1v1h-1zm1 0h1v1h-1zm65 0h1v1h-1zm-279 2h1v1h-1zm6 5h8v1h-8zm8 0h1v1h-1zm153 3h1v1h-1z" fill="#1b5089"/><path d="M33 56h1v1h-1zm71 8h1v1h-1zm78 13h1v37h-1zm11 6h1v1h-1zm-33 1h1v1h-1zm145 4h1v1h-1zm-54 2h1v1h-1zm-52 7h1v1h-1zm1 0h1v1h-1zm-18 17h1v1h-1z" fill="#fffffa"/><path d="M36 57h9v1h-9zm9 0h1v1h-1zm50 7h5v1h-5zm5 0h1v1h-1zm41 0h4v1h-4zm4 0h1v1h-1zm92 0h5v1h-5zm5 0h1v1h-1zm-139 3h1v1h-1zm-12 4h1v1h-1zm8 4h1v1h-1zm7 0h1v1h-1zm97 0h1v1h-1zm11 0h1v1h-1zm72 0h1v1h-1zm-43 1h1v1h-1zm-106 1h1v1h-1zm33 3h1v1h-1zm132 1h1v1h-1zm-99 1h1v1h-1zm-94 1h1v1h-1zm30 1h1v1h-1zm137 2h1v1h-1zM85 87h1v1h-1zm179 0h1v1h-1zm12 0h1v1h-1zm-108 3h1v1h-1zm-56 1h1v1h-1zm147 0h1v1h-1zm-6 1h1v1h-1zm-82 1h1v1h-1zm-46 1h1v1h-1zm14 0h1v1h-1zm32 0h1v1h-1zm83 1h1v1h-1zm-140 1h1v1h-1zm163 0h1v1h-1zm-107 1h1v1h-1zm32 1h1v1h-1zm53 0h1v1h-1zm40 0h1v1h-1zm-180 1h1v1h-1zm116 0h1v1h-1zm-53 1h1v1h-1zm41 0h1v1h-1zm47 0h1v1h-1zm-113 1h1v1h-1zm25 0h1v1h-1zm14 0h1v1h-1zm-38 1h1v1h-1zm-68 1h1v1h-1zm49 0h1v1h-1zm-7 1h1v1h-1zm4 0h1v1h-1zm26 0h1v1h-1zm5 0h1v1h-1zm35 0h1v1h-1zm89 0h1v1h-1zm5 0h1v1h-1z" fill="#004682"/><path fill="#00307a" d="M46 57h1v1h-1z"/><path d="M244 64h1v5h-1zm0 5h1v1h-1zm53 6h1v1h-1zm-53 1h1v27h-1zm-34 3h1v1h-1zm-16 2h1v1h-1zm71 0h1v1h-1zm-95 3h1v1h-1zm-76 4h6v1h-6zm6 0h1v1h-1zm-18 4h1v1h-1zm80 0h1v1h-1zm134 4h1v1h-1zm-19 2h1v1h-1zm-115 1h1v1h-1zm-83 1h1v1h-1zm28 1h1v1h-1zm102 0h1v1h-1zm46 0h1v1h-1zm-47 1h1v1h-1zm-71 1h1v1h-1zm107 0h1v1h-1zm22 0h1v1h-1zm-127 1h1v1h-1zm32 0h1v1h-1zm113 0h1v1h-1zm-250 1h1v1h-1zm128 0h1v1h-1zm39 0h1v1h-1zm91 0h1v1h-1z" fill="#dde4e9"/><path fill="#d3e2e5" d="M168 98h1v1h-1z"/><path d="M60 48h1v1h-1zm-11 1h1v46h-1zm187 16h1v3h-1zm0 3h1v1h-1zm-77 7h1v1h-1zm77 1h1v26h-1zm43 3h1v1h-1zm-101 2h1v1h-1zm15 0h1v1h-1zm-41 2h1v1h-1zm12 4h1v1h-1zm140 0h1v1h-1zm-42 6h1v1h-1zm21 0h1v1h-1zM49 95h1v1h-1zm57 1h1v1h-1zm30 2h1v1h-1zm131 0h1v1h-1zm-160 1h1v1h-1zm89 0h1v1h-1zm3 0h1v1h-1zm93 0h1v1h-1zm-26 2h1v1h-1zm-30 1h1v1h-1zm20 0h1v1h-1zm-62 1h1v1h-1zm-174 7h1v1h-1z" fill="#366191"/><path d="M35 58h1v44h-1zm111 7h1v37h-1zm-53 1h1v1h-1zm126 1h1v1h-1zM92 69h1v1h-1zm145 0h5v1h-5zm5 0h1v1h-1zm-137 3h1v1h-1zm0 1h1v1h-1zm22 2h1v1h-1zm6 0h1v1h-1zm1 0h1v1h-1zm27 0h1v1h-1zm11 0h1v1h-1zm17 0h1v1h-1zm7 0h1v1h-1zm98 0h1v1h-1zm1 0h1v1h-1zm-159 1h1v1h-1zm22 0h1v1h-1zm56 0h1v2h-1zm69 0h1v1h-1zm-127 1h1v1h-1zm92 0h1v1h-1zm7 0h1v1h-1zm43 0h1v1h-1zM95 78h1v1h-1zm119 0h1v1h-1zM95 79h1v1h-1zm36 0h3v1h-3zm3 0h1v1h-1zm63 0h1v1h-1zm18 0h1v1h-1zm1 0h1v1h-1zm11 0h3v1h-3zm3 0h1v1h-1zm59 0h2v1h-2zm2 0h1v1h-1zm-5 1h1v1h-1zm8 0h1v1h-1zM87 81h1v1h-1zm7 0h1v1h-1zm14 0h1v1h-1zm45 0h1v1h-1zm96 0h1v1h-1zM87 82h1v1h-1zm7 0h1v1h-1zm32 0h1v1h-1zm45 0h1v1h-1zm131 0h1v1h-1zm-200 1h1v1h-1zm148 0h1v1h-1zm33 0h1v1h-1zm-158 1h1v1h-1zm86 0h1v1h-1zm72 0h1v1h-1zm-158 1h1v1h-1zm-22 1h1v1h-1zm15 0h1v1h-1zm87 0h1v2h-1zm-38 1h1v1h-1zm91 0h1v1h-1zm26 0h12v1h-12zm12 0h1v1h-1zm-156 1h1v3h-1zm20 0h1v1h-1zm45 0h1v1h-1zm59 0h1v1h-1zm12 0h1v3h-1zm-152 1h1v1h-1zm88 0h1v2h-1zm92 0h1v1h-1zM84 90h1v1h-1zm40 0h1v1h-1zm16 1h1v1h-1zm72 0h1v1h-1zm57 0h1v1h-1zm7 0h1v2h-1zm-158 1h1v1h-1zm42 0h1v1h-1zm-8 1h1v1h-1zm53 0h1v1h-1zm71 0h1v1h-1zM91 94h13v1H91zm13 0h1v1h-1zm158 0h1v1h-1zm21 0h1v1h-1zM60 95h1v1h-1zm98 0h1v1h-1zm119 0h1v1h-1zM89 96h1v1h-1zm30 0h1v1h-1zm39 0h1v1h-1zm33 0h1v1h-1zm20 0h1v1h-1zm87 0h1v1h-1zM81 97h1v1h-1zm38 0h1v1h-1zm8 0h1v1h-1zm92 1h1v1h-1zm66 0h1v1h-1zm-155 1h1v1h-1zm65 0h1v1h-1zm24 0h1v1h-1zm68 0h1v1h-1zm6 0h1v1h-1zm-132 1h1v1h-1zm47 1h1v1h-1zm73 0h1v1h-1zm-246 1h1v1h-1zm111 0h1v1h-1zm23 0h1v1h-1zm9 0h1v1h-1zm120 0h1v1h-1zm-182 1h1v1h-1zm107 0h1v1h-1zm73 0h1v1h-1zm-99 1h1v1h-1zm-181 2h1v1h-1zm15 3h1v1h-1z" fill="#0c4b87"/><path d="M20 63h1v1h-1zm205 12h1v1h-1zM90 76h1v1h-1zm42 0h1v1h-1zm38 0h1v1h-1zm1 0h1v1h-1zm24 0h1v1h-1zm-19 1h1v1h-1zm18 0h1v1h-1zm73 0h1v1h-1zm-129 1h1v1h-1zm55 0h1v1h-1zm24 0h1v1h-1zm1 0h1v1h-1zm7 0h1v1h-1zm-89 1h1v1h-1zm72 0h1v1h-1zm17 0h1v1h-1zm-88 1h1v1h-1zm65 0h1v1h-1zm7 0h1v1h-1zm63 0h1v1h-1zM88 81h1v1h-1zm50 0h1v1h-1zm163 0h1v1h-1zm-4 1h1v1h-1zm4 0h1v1h-1zm-161 1h1v1h-1zm70 0h1v1h-1zm46 0h1v1h-1zm-85 2h1v1h-1zm-86 1h1v1h-1zm24 0h1v1h-1zm46 3h1v1h-1zm1 1h1v1h-1zm3 2h1v1h-1zm53 0h1v1h-1zm57 0h1v1h-1zm-144 1h1v1h-1zm-43 1h1v1h-1zm109 1h1v1h-1zm-20 2h1v1h-1zm127 0h3v1h-3zm3 0h1v1h-1zm-142 1h1v1h-1zm142 0h1v2h-1zM81 99h1v1h-1zm40 0h1v1h-1zm13 0h1v1h-1zm3 0h1v2h-1zm32 0h1v1h-1zm22 0h1v1h-1zm94 0h1v1h-1zm10 0h1v1h-1zm4 0h1v1h-1zm-90 1h1v1h-1zm92 0h1v1h-1zm-192 1h1v1h-1zm28 0h1v1h-1zm17 0h1v1h-1zm13 0h1v1h-1zm1 0h1v1h-1zm-1 1h1v1h-1zm130 0h1v1h-1zm-137 1h1v1h-1zm1 0h1v1h-1zm-139 6h8v1h-8zm8 0h1v1h-1z" fill="#26578b"/><path d="M126 75h1v1h-1zm117 0h1v1h-1zm25 0h1v1h-1zm-61 2h1v1h-1zm41 1h1v1h-1zm-39 1h1v1h-1zm69 2h1v1h-1zm-125 2h1v1h-1zm-67 1h1v1h-1zm73 4h1v1h-1zm-76 4h1v1h-1zm214 4h1v1h-1zm5 2h1v1h-1zm-46 3h1v1h-1zm-119 1h1v1h-1zm56 0h1v1h-1zm-114 1h1v1h-1zm93 0h1v1h-1zm6 0h1v1h-1zm27 0h1v1h-1zm17 0h1v1h-1zm21 0h1v1h-1zm-208 1h1v1h-1zm258 0h1v1h-1z" fill="#004283"/><path d="M47 57h1v1h-1zm148 17h1v1h-1zm-13 1h1v1h-1zm24 0h1v1h-1zm-38 5h1v1h-1zm-82 1h1v1h-1zm9 1h1v1h-1zm6 2h1v1h-1zm58 0h1v1h-1zm90 0h1v1h-1zm-138 1h1v1h-1zm-9 2h1v1h-1zm111 1h1v1h-1zm92 1h1v2h-1zm-92 2h1v1h-1zm92 0h1v1h-1zm-20 5h1v1h-1zm3 2h1v1h-1zM89 99h1v1h-1zm75 0h1v1h-1zm-13 1h1v1h-1zm59 0h1v1h-1zm92 0h1v1h-1z" fill="#f6fcfc"/><g fill="#27568c"><path d="M51 50h8v44h-8zm8 0h1v44h-1zm-23 8h9v44h-9zm9 0h1v44h-1zM7 60h8v45H7zm8 0h1v45h-1zm221 4h1v1h-1zM22 65h8v43h-8zm8 0h1v43h-1zm65 0h5v6h-5zm5 0h1v10h-1zm41 0h4v37h-4zm4 0h1v37h-1zm93 0h4v3h-4zm4 0h1v3h-1z"/><path d="M94 66h7v5h-7zm7 0h1v11h-1zm1 1h1v13h-1z"/><path d="M93 68h9v3h-9zm127 0h4v31h-4zm4 0h1v34h-1zm14 0h4v1h-4zm4 0h1v1h-1zm-139 1h1v13h-1zm-11 2h11v1H92zm0 1h5v1h-5z"/><path d="M97 72h7v1h-7zm7 0h1v14h-1zm-13 1h5v3h-5zm5 0h8v1h-8z"/><path d="M100 75h5v1h-5zm5 0h1v18h-1zm114 0h5v4h-5zM91 76h4v3h-4zm4 0h1v1h-1zm31 0h5v1h-5zm5 0h1v2h-1zm29 0h8v1h-8zm8 0h1v1h-1zm4 0h1v25h-1zm11 0h5v1h-5zm5 0h1v36h-1zm10 0h6v1h-6zm6 0h2v4h-2zm2 0h1v8h-1zm9 0h1v1h-1z"/><path d="M216 76h9v1h-9zm9 0h5v1h-5zm5 0h1v1h-1zm8 0h4v26h-4zm4 0h1v26h-1zm7 0h4v2h-4zm4 0h1v14h-1zm16 0h4v3h-4zm4 0h1v1h-1zm12 0h9v1h-9zm9 0h1v3h-1zM90 77h4v5h-4zm11 0h4v1h-4zm21 0h14v1h-14zm14 0h1v1h-1zm22 0h16v1h-16zm16 0h1v25h-1zm10 0h4v35h-4zm11 0h10v1h-10zm20 0h15v1h-15zm15 0h1v1h-1zm24 0h1v15h-1z"/><path d="M268 77h3v6h-3zm5 0h1v1h-1zm11 0h13v1h-13zm13 0h1v4h-1zm-191 1h1v16h-1zm15 0h8v1h-8zm8 0h4v1h-4zm4 0h3v1h-3zm3 0h1v1h-1zm20 0h5v1h-5zm5 0h1v1h-1zm8 0h6v1h-6zm6 0h1v24h-1zm19 0h4v1h-4zm4 0h9v1h-9zm9 0h1v22h-1zm42 0h5v1h-5zm33 0h4v1h-4zm4 0h2v1h-2zm2 0h1v1h-1z"/><path d="M292 78h6v1h-6zm6 0h1v11h-1zM89 79h5v3h-5zm5 0h1v1h-1zm28 0h6v1h-6zm6 0h1v1h-1zm9 0h1v1h-1zm3 0h5v3h-5zm15 0h5v1h-5zm5 0h1v1h-1zm10 0h6v1h-6zm6 0h1v23h-1zm13 0h1v7h-1zm3 0h2v1h-2zm2 0h1v1h-1zm7 0h6v1h-6zm18 0h5v1h-5zm31 0h4v1h-4zm21 0h1v3h-1zm1 0h1v1h-1zm9 0h5v1h-5zm5 0h1v1h-1zm8 0h4v1h-4zm-192 1h5v1h-5zm5 0h1v1h-1zm14 0h5v2h-5zm5 0h1v1h-1z"/><path d="M138 80h7v1h-7zm17 0h4v2h-4zm4 0h1v1h-1zm12 0h5v1h-5zm19 0h2v1h-2zm2 0h1v1h-1zm11 0h4v1h-4zm47 0h4v1h-4zm6 0h1v1h-1zm24 0h4v2h-4zm4 0h1v1h-1zm11 0h4v1h-4zm4 0h1v9h-1zm-192 1h1v14h-1zm19 0h1v1h-1zm13 0h6v1h-6z"/><path d="M154 81h4v1h-4zm19 0h3v21h-3zm17 0h1v2h-1zm1 0h1v1h-1zm14 0h4v3h-4zm4 0h1v17h-1zm42 0h4v3h-4zm4 0h1v14h-1zm12 0h4v2h-4zm12 0h5v1h-5zm5 0h1v1h-1zm12 0h4v1h-4zm4 0h1v8h-1zM89 82h4v3h-4zm4 0h1v1h-1zm10 0h3v2h-3zm17 0h5v3h-5zm5 0h1v1h-1zm14 0h6v1h-6zm15 0h4v1h-4zm4 0h1v1h-1zm19 0h1v19h-1z"/><path d="M204 82h5v1h-5zm67 0h1v1h-1zm8 0h4v2h-4zm4 0h1v1h-1zM88 83h4v3h-4zm20 0h1v15h-1zm82 0h1v1h-1zm77 0h3v5h-3zm3 0h1v2h-1zm31 0h2v6h-2zm2 0h1v1h-1z"/><path d="M87 84h5v2h-5zm16 0h5v1h-5zm16 0h5v9h-5zm86 0h5v1h-5zm5 0h1v1h-1zm41 0h5v1h-5zm5 0h1v12h-1zm10 0h3v5h-3zm12 0h4v11h-4zm4 0h1v1h-1zM92 85h1v1h-1zm32 0h1v1h-1zm15 0h6v1h-6zm69 0h2v13h-2zm2 0h1v7h-1zm42 0h4v1h-4zm18 0h1v1h-1zM87 86h4v7h-4zm4 0h1v7h-1zm13 0h4v1h-4zm85 0h1v1h-1zm63 0h4v1h-4z"/><path d="M277 86h4v6h-4zm-168 1h1v13h-1zm60 0h8v1h-8zm88 0h1v14h-1zm8 0h4v2h-4zm17 0h1v4h-1zm15 0h5v2h-5zm-139 1h1v4h-1zm8 0h11v1h-11zm103 0h1v1h-1z"/><path d="M283 88h20v1h-20zm20 0h1v1h-1zM85 89h7v4h-7zm7 0h1v4h-1zm12 0h6v4h-6zm6 0h1v13h-1zm49 0h9v1h-9zm9 0h1v1h-1zm3 0h6v1h-6zm40 0h1v3h-1zm54 0h3v5h-3zm3 0h1v2h-1zm15 0h20v1h-20zm20 0h1v1h-1z"/><path d="M93 90h17v3H93zm64 0h5v1h-5zm5 0h1v1h-1zm91 0h4v1h-4zm30 0h1v1h-1zm-129 1h5v1h-5zm5 0h1v1h-1zm30 0h1v21h-1zm1 0h1v1h-1zm16 0h5v1h-5zm52 0h1v11h-1zm10 0h1v1h-1zm14 0h1v1h-1z"/><path d="M84 92h27v1H84zm27 0h1v10h-1zm42 0h5v8h-5zm5 0h1v1h-1zm48 0h5v4h-5zm5 0h1v1h-1zm43 0h4v1h-4zm10 0h3v2h-3zm13 0h4v1h-4zM84 93h27v1H84zm35 0h4v1h-4zm4 0h1v7h-1zm130 0h7v1h-7zm7 0h1v9h-1zM51 94h8v1h-8zm8 0h1v1h-1zm25 0h5v2h-5zm5 0h1v1h-1z"/><path d="M106 94h6v1h-6zm6 0h1v8h-1zm8 0h4v2h-4zm4 0h1v7h-1zm16 0h5v1h-5zm119 0h1v8h-1zm4 0h4v1h-4zm4 0h1v1h-1zm15 0h1v7h-1zM83 95h5v3h-5zm24 0h5v1h-5zm33 0h5v1h-5zm65 0h5v3h-5z"/><path d="M255 95h10v1h-10zm10 0h2v2h-2zm2 0h1v1h-1zm11 0h4v1h-4zM88 96h1v1h-1zm25 0h1v6h-1zm7 0h5v1h-5zm5 0h1v6h-1zm85 0h1v1h-1zm46 0h4v2h-4zm6 0h3v6h-3zm17 0h3v2h-3z"/><path d="M121 97h5v1h-5zm5 0h1v5h-1zm13 0h6v1h-6zm51 0h1v1h-1zm1 0h1v1h-1zm13 0h5v2h-5zm57 0h5v3h-5zm5 0h1v1h-1zm17 0h1v4h-1zM82 98h5v3h-5zm5 0h1v1h-1zm21 0h5v1h-5z"/><path d="M121 98h6v1h-6zm6 0h1v4h-1zm11 0h7v1h-7zm20 0h1v4h-1zm13 0h6v2h-6zm19 0h1v1h-1zm1 0h1v1h-1zm12 0h6v1h-6zm6 0h1v1h-1zm47 0h9v1h-9zm23 0h5v1h-5zm5 0h1v4h-1zm14 0h2v1h-2zm2 0h1v1h-1zm-186 1h1v3h-1zm8 0h5v1h-5zm16 0h1v1h-1zm1 0h6v1h-6zm21 0h1v3h-1z"/><path d="M170 99h7v1h-7zm22 0h1v1h-1zm1 0h1v1h-1zm9 0h6v1h-6zm6 0h1v1h-1zm12 0h4v1h-4zm6 0h1v3h-1zm1 0h1v3h-1zm53 0h4v1h-4zm16 0h2v1h-2zm2 0h1v2h-1zm-217 1h5v2h-5zm28 0h5v1h-5zm13 0h7v1h-7zm7 0h1v3h-1zm5 0h3v1h-3zm5 0h6v1h-6zm14 0h7v1h-7zm15 0h9v1h-9zm24 0h3v1h-3zm3 0h1v2h-1zm5 0h7v1h-7zm7 0h1v2h-1z"/><path d="M221 100h9v1h-9zm9 0h1v2h-1zm31 0h4v2h-4zm4 0h1v1h-1zm16 0h6v1h-6zm6 0h1v3h-1zm6 0h5v1h-5zm-207 1h1v1h-1zm29 0h1v1h-1zm9 0h12v1h-12zm12 0h1v1h-1zm19 0h8v1h-8zm8 0h1v1h-1zm3 0h1v1h-1zm6 0h5v1h-5zm5 0h1v1h-1zm17 0h11v1h-11zm11 0h1v1h-1zm16 0h9v1h-9z"/><path d="M257 101h7v1h-7zm25 0h14v1h-14zm14 0h2v1h-2zm2 0h1v1h-1zm-262 1h9v1h-9zm9 0h1v1h-1zm36 0h4v1h-4zm4 0h1v1h-1zm25 0h5v1h-5zm5 0h1v1h-1zm10 0h10v1h-10zm10 0h1v1h-1zm6 0h4v1h-4zm4 0h1v1h-1zm11 0h10v1h-10zm10 0h1v1h-1zm7 0h3v1h-3zm3 0h1v1h-1zm19 0h10v1h-10zm10 0h2v1h-2zm2 0h1v1h-1zm15 0h8v1h-8zm8 0h1v1h-1zm8 0h4v1h-4zm4 0h1v1h-1zm16 0h6v1h-6zm6 0h1v1h-1zm20 0h12v1h-12zm12 0h1v1h-1zm-167 1h3v1h-3zm3 0h1v1h-1zm30 0h1v1h-1zm37 0h3v1h-3zm3 0h1v1h-1zm85 0h4v1h-4zm4 0h1v1h-1zm3 0h1v1h-1zm0 1h1v1h-1zM7 105h8v1H7zm8 0h1v1h-1zm7 3h8v1h-8zm8 0h1v1h-1zm154 4h5v1h-5zm5 0h1v1h-1z"/></g><path d="M6 59h1v1H6zm10 0h1v1h-1zm15 4h1v1h-1zm129 12h1v1h-1zm11 0h1v1h-1zm24 0h1v1h-1zm36 0h1v1h-1zm-57 1h1v1h-1zm108 1h1v1h-1zm-65 2h1v1h-1zm-81 1h1v1h-1zm17 0h1v1h-1zm48 0h1v1h-1zm48 0h1v1h-1zm-112 1h1v1h-1zm65 0h1v1h-1zm8 0h1v1h-1zm75 0h1v1h-1zm-166 1h1v1h-1zm19 0h1v1h-1zm33 2h1v1h-1zm94 1h1v1h-1zm6 0h1v1h-1zm-161 1h1v1h-1zm141 0h1v1h-1zm7 2h1v1h-1zm-87 3h1v1h-1zm-89 4h1v1h-1zm44 1h1v1h-1zm66 1h1v1h-1zM81 98h1v1h-1zm119 1h1v1h-1zm-38 1h1v1h-1zm3 0h1v1h-1zm-57 1h1v1h-1zm82 1h1v1h-1zm-65 1h1v1h-1zm30 0h1v1h-1zm35 0h1v1h-1z" fill="#004787"/><path d="M226 67h1v6h-1zm0 6h1v1h-1zm-94 1h1v1h-1zm37 0h1v1h-1zm129 2h1v1h-1zm-42 3h1v1h-1zm-126 1h1v1h-1zm96 1h1v13h-1zm50 3h1v1h-1zM93 86h1v1h-1zm75 0h1v1h-1zm-55 6h1v1h-1zm149 0h1v1h-1zm-36 2h1v1h-1zm27 0h1v1h-1zm45 1h5v1h-5zm5 0h1v1h-1zm-35 1h1v1h-1zm-149 2h1v1h-1zm-3 2h1v1h-1zm-37 1h1v1h-1zm202 1h1v1h-1zm-77 2h1v1h-1z" fill="#8ba0be"/><path d="M243 70h1v1h-1zM98 74h1v1h-1zm115 1h1v1h-1zM96 78h1v1h-1zm117 1h1v1h-1zm-76 3h1v1h-1zm159 4h1v1h-1zm-157 2h1v1h-1zm-14 1h1v1h-1zm0 1h1v1h-1zm45 0h1v1h-1zm-4 1h1v1h-1zm-75 4h13v1H91zm13 0h1v1h-1zm34 0h1v1h-1zm159 0h1v1h-1zm-179 1h1v1h-1zm34 5h1v1h-1zm146 2h1v1h-1z" fill="#a9baca"/><path d="M61 48h1v1h-1zm97 27h1v1h-1zm47 0h1v1h-1zm27 0h1v2h-1zm0 2h1v1h-1zm-98 3h1v1h-1zm154 0h1v1h-1zm15 2h1v1h-1zm-100 1h1v1h-1zm101 2h1v1h-1zm-187 2h1v1h-1zm44 0h1v1h-1zm30 7h1v1h-1zm-62 4h1v1h-1zm103 2h1v2h-1zm0 2h1v1h-1zm-124 1h1v1h-1zm71 0h1v1h-1zm77 0h1v1h-1zm-100 1h1v1h-1zm80 0h1v1h-1zm-204 6h1v1h-1z" fill="#96aec4"/><path d="M34 56h1v1h-1zm113 7h1v1h-1zm-41 9h1v1h-1zm54 2h1v1h-1zm-62 1h1v1h-1zm38 0h1v1h-1zm21 0h1v1h-1zm89 0h1v1h-1zM88 76h1v1h-1zm9 0h1v1h-1zm80 1h1v1h-1zm14 0h1v1h-1zm-92 1h1v1h-1zm180 0h1v1h-1zm-170 2h1v1h-1zm-9 1h1v1h-1zm70 2h1v1h-1zm42 0h1v1h-1zM85 84h1v1h-1zm179 0h1v1h-1zm20 0h1v1h-1zm-118 2h1v1h-1zm25 0h1v1h-1zm-32 1h1v1h-1zm-57 1h1v1h-1zm68 3h1v1h-1zm0 1h1v1h-1zm114 2h1v1h-1zm-169 2h1v1h-1zm161 0h1v1h-1zm28 0h1v1h-1zm-144 2h1v1h-1zm35 0h1v1h-1zm98 0h1v1h-1zm-128 1h1v1h-1zm14 2h1v1h-1zm122 0h1v1h-1zm-82 1h1v1h-1zm81 0h1v1h-1zm-131 1h1v1h-1zm22 0h1v11h-1zm31 1h1v1h-1zm22 0h1v1h-1zm-116 1h1v1h-1zm35 0h1v1h-1zm28 9h1v1h-1z" fill="#e8edf1"/><path d="M5 59h1v1H5zm156 21h1v1h-1zm-35 3h1v1h-1zm131 0h1v1h-1zm19 2h1v1h-1zm7 0h1v1h-1zm-93 4h1v1h-1zm-78 1h1v1h-1zm-62 6h9v1h-9zm9 0h1v1h-1zm72 3h1v1h-1zm158 0h1v1h-1z" fill="#416997"/><path d="M139 64h1v1h-1zm-8 10h1v1h-1zm33 0h1v1h-1zm111 1h1v1h-1zm21 0h1v1h-1zm-41 1h1v1h-1zm-77 4h1v1h-1zm17 0h1v1h-1zm-43 2h1v1h-1zm97 0h1v1h-1zm-131 1h1v1h-1zm141 6h1v1h-1zm25 2h1v1h-1zm-159 1h1v1h-1zm1 3h1v1h-1zm-45 1h1v1h-1zm222 1h1v1h-1zm-135 6h1v1h-1zm53 0h1v1h-1zm-95 1h1v1h-1zm99 0h1v1h-1zm6 0h1v1h-1z" fill="#6b86a9"/><path d="M218 66h1v1h-1zm-91 8h1v1h-1zm43 0h1v1h-1zm38 3h1v1h-1zm-108 3h1v1h-1zm99 0h1v1h-1zm-47 1h1v1h-1zm66 0h1v1h-1zm40 4h1v1h-1zM80 98h1v1h-1zm74 5h1v1h-1zm-118 2h9v1h-9zm9 0h1v1h-1z" fill="#a8b7cc"/><path d="M220 66h4v1h-4zm4 0h1v1h-1zM97 74h1v1h-1zm2 2h1v1h-1zm200 1h1v1h-1zm-108 1h1v1h-1zm19 2h1v1h-1zm67 2h1v1h-1zm-65 4h1v1h-1zm0 7h1v1h-1zm-94 2h1v1h-1zm33 1h1v1h-1zm6 8h1v1h-1zm70 0h1v1h-1zm1 0h1v1h-1zm58 0h1v1h-1zM5 106h1v1H5z" fill="#4d6f9d"/><path d="M284 75h1v1h-1zm-168 29h1v1h-1zm142 0h1v1h-1z" fill="#93a7c4"/><path d="M34 57h1v1h-1zm113 7h1v1h-1zm89 6h6v1h-6zm6 0h1v1h-1zm-29 6h1v2h-1zm34 1h1v1h-1zm-38 1h1v1h-1zm4 0h1v1h-1zm-94 2h1v1h-1zm77 0h1v1h-1zm18 0h2v1h-2zm2 0h1v1h-1zm12 0h3v1h-3zm3 0h1v1h-1zm55 1h1v1h-1zM86 82h1v1h-1zm15 1h1v1h-1zm163 2h1v1h-1zm-147 1h1v1h-1zm22 3h1v1h-1zm-56 1h1v1h-1zm56 0h1v1h-1zm-22 2h1v1h-1zm34 1h1v1h-1zm110 1h1v1h-1zm23 1h1v1h-1zm-91 2h1v1h-1zm-42 2h1v1h-1zm-12 2h1v1h-1zm8 2h1v1h-1zm-69 1h1v1h-1zm145 0h1v1h-1z" fill="#b3c1d2"/><path d="M20 62h12v1H20zm12 0h1v1h-1zm61 1h1v1h-1zm151 0h1v1h-1zM134 74h1v1h-1zm161 0h1v1h-1zm-102 1h1v1h-1zm90 0h1v1h-1zm-161 1h1v1h-1zm158 1h1v1h-1zm20 0h1v1h-1zm-180 1h1v1h-1zm127 0h1v1h-1zm54 0h1v1h-1zm-140 3h1v1h-1zm142 0h1v1h-1zm-110 1h1v1h-1zm-41 2h6v1h-6zm6 0h1v1h-1zm-32 1h1v1h-1zm43 0h1v1h-1zm106 1h1v1h-1zm-84 1h1v1h-1zm68 0h1v1h-1zm-55 1h1v1h-1zM83 89h1v1h-1zm130 0h1v1h-1zm0 1h1v1h-1zm-45 1h1v1h-1zm36 0h1v1h-1zm-53 1h1v1h-1zm40 0h1v1h-1zm84 1h1v1h-1zm-158 1h1v1h-1zm86 1h1v1h-1zM90 96h1v1h-1zm47 0h1v1h-1zm75 0h1v1h-1zM80 97h1v1h-1zm38 0h1v1h-1zm109 0h1v1h-1zm-97 1h1v1h-1zm-11 1h1v1h-1zm44 0h1v1h-1zm57 4h1v1h-1zm-65 1h1v1h-1zm47 1h1v1h-1zm91 0h1v1h-1z" fill="#f7f8f9"/><path d="M139 63h1v1h-1zm-36 1h1v1h-1zm18 13h1v1h-1zm137 7h1v1h-1zm-54 3h1v1h-1zM93 88h1v1h-1zm8 0h1v1h-1zm103 4h1v1h-1zm-34 1h1v1h-1zm30 5h1v1h-1zm18 2h1v1h-1zm-110 4h1v1h-1zm59 0h1v1h-1zm38 0h1v1h-1zm51 0h1v1h-1zm-124 1h1v1h-1zm27 0h1v1h-1zm39 0h1v1h-1zm90 0h1v1h-1z" fill="#e5ebf1"/><path d="M236 69h1v1h-1zm0 6h1v1h-1zm44 3h1v1h-1zm-161 3h1v1h-1zm73 1h1v1h-1zm20 5h1v1h-1zm-22 1h1v1h-1zm-27 3h1v1h-1zm105 4h1v1h-1zm-14 1h1v1h-1zm30 0h1v1h-1zm-29 3h1v1h-1zm-84 2h1v1h-1zm65 2h1v1h-1zm-33 1h1v1h-1zm-13 10h1v1h-1z" fill="#315e94"/><path d="M6 60h1v45H6zm96 6h1v1h-1zm-12 7h1v2h-1zm0 2h1v1h-1zm39 0h1v1h-1zm54 0h1v1h-1zm34 0h1v1h-1zm1 0h1v1h-1zm67 0h1v1h-1zm-126 1h1v1h-1zm30 0h1v1h-1zm48 0h1v1h-1zm11 0h1v1h-1zm26 1h1v1h-1zm-106 2h1v1h-1zm58 0h1v1h-1zm-97 1h1v1h-1zm96 0h1v1h-1zm42 0h1v1h-1zm-107 1h1v1h-1zm31 1h1v1h-1zm19 0h1v1h-1zm68 0h1v1h-1zm-7 1h1v1h-1zm-81 1h1v1h-1zm-80 1h1v1h-1zm60 1h1v1h-1zm41 0h1v1h-1zm54 0h1v1h-1zm38 0h1v1h-1zm-113 1h1v1h-1zm61 0h1v1h-1zm52 0h1v1h-1zm-134 2h1v1h-1zm89 0h1v1h-1zm28 1h16v1h-16zm16 0h1v1h-1zm-189 3h1v1h-1zm98 0h1v1h-1zM89 95h1v1h-1zm63 0h1v1h-1zm38 0h1v1h-1zM82 96h1v1h-1zm56 0h1v1h-1zm14 0h1v1h-1zm19 0h1v1h-1zm-63 3h1v1h-1zm148 0h1v1h-1zm30 0h1v1h-1zm-199 1h1v2h-1zm51 0h1v1h-1zm127 1h1v1h-1zm-186 1h1v1h-1zm8 0h1v1h-1zm49 0h1v1h-1zm58 0h1v1h-1zm-68 1h1v1h-1zm70 0h1v1h-1zm29 0h1v1h-1zm1 0h2v1h-2zm2 0h1v1h-1zm58 0h1v1h-1zM6 105h1v1H6zm15 4h1v1h-1zm163 4h5v1h-5zm5 0h1v1h-1z" fill="#1f5389"/><path d="M61 49h1v46h-1zM32 64h1v45h-1zm194 2h1v1h-1zm-64 8h1v1h-1zm40 0h1v1h-1zm91 0h1v1h-1zm-137 2h1v1h-1zm76 2h1v1h-1zm-79 1h1v1h-1zm79 0h1v1h-1zm-63 1h1v1h-1zm123 0h1v1h-1zm2 1h1v1h-1zm-134 1h1v1h-1zm97 0h1v1h-1zM85 85h1v1h-1zm54 2h1v1h-1zm14 3h1v1h-1zm-36 1h1v1h-1zm8 0h1v1h-1zm-64 4h1v1h-1zm44 0h1v1h-1zm171 0h1v1h-1zm-84 1h1v1h-1zm102 2h1v1h-1zm-62 1h1v1h-1zm-125 1h1v1h-1zm148 0h1v1h-1zm-134 1h1v1h-1zm145 1h1v1h-1zm-95 1h1v1h-1zm61 0h1v1h-1zm-152 1h5v1h-5zm5 0h1v1h-1zm25 0h5v1h-5zm5 0h1v1h-1zm26 0h4v1h-4zm4 0h1v1h-1zm28 0h4v1h-4zm4 0h1v1h-1zm60 0h5v1h-5zm5 0h1v1h-1zm17 0h4v1h-4zm4 0h2v1h-2zm2 0h1v1h-1zm20 0h1v1h-1zm-253 5h1v1h-1z" fill="#95a7c0"/><path d="M91 68h1v1h-1zm153 2h1v1h-1zm-68 6h1v1h-1zm-80 3h1v1h-1zm56 1h1v1h-1zm-40 8h1v1h-1zm79 14h1v1h-1z" fill="#f2f0f4"/><path d="M89 75h1v1h-1zm7 2h1v1h-1zm59 0h1v1h-1zm126 0h1v1h-1zm-161 2h1v1h-1zm181 0h1v1h-1zM86 83h1v1h-1zm218 8h1v1h-1zm-167 6h1v1h-1zm14 0h1v1h-1zm47 2h1v1h-1zm81 1h1v1h-1zm4 3h1v1h-1zm-57 1h1v1h-1z" fill="#55759a"/><path d="M60 49h1v1h-1zM22 63h8v1h-8zm8 0h1v1h-1zm1 1h1v44h-1zm62 1h1v1h-1zm47 0h1v11h-1zm85 3h1v5h-1zm0 5h1v1h-1zm-63 2h1v1h-1zm7 0h1v1h-1zm15 0h1v1h-1zm53 0h1v1h-1zm51 0h1v1h-1zm-182 1h1v1h-1zm29 0h1v1h-1zm5 0h1v1h-1zm17 0h1v1h-1zm36 0h1v1h-1zm38 0h1v1h-1zm37 0h1v1h-1zm-168 1h1v1h-1zm7 0h1v1h-1zm124 0h1v1h-1zm68 1h1v1h-1zm-178 1h1v1h-1zm9 0h1v1h-1zm24 0h1v1h-1zm138 0h1v1h-1zm8 0h1v1h-1zm-75 2h1v13h-1zm-66 1h1v1h-1zm97 0h1v1h-1zm10 0h1v1h-1zm30 1h1v1h-1zm-187 1h1v1h-1zm9 0h1v1h-1zm-32 1h1v1h-1zm119 0h1v1h-1zm-102 2h1v1h-1zm37 0h1v1h-1zm-55 1h1v1h-1zm86 2h1v1h-1zm92 0h1v2h-1zm-4 2h1v1h-1zm4 0h1v1h-1zm-104 1h1v1h-1zm66 1h1v1h-1zm1 3h1v1h-1zm52 0h1v1h-1zm-100 2h1v1h-1zm23 0h1v1h-1zm29 0h1v1h-1zm-115 1h1v1h-1zm52 0h1v1h-1zm64 0h1v2h-1zm-151 1h1v1h-1zm60 0h1v1h-1zm30 0h1v1h-1zm20 0h1v1h-1zm30 0h1v1h-1zm11 1h1v1h-1zm34 0h1v1h-1zm-184 1h4v1h-4zm4 0h1v1h-1zm25 0h5v1h-5zm5 0h1v1h-1zm26 0h4v1h-4zm4 0h1v1h-1zm28 0h4v1h-4zm4 0h1v1h-1zm27 0h1v1h-1zm34 0h4v1h-4zm4 0h1v1h-1zm16 0h5v1h-5zm5 0h1v1h-1zm22 0h1v1h-1zm-240 1h1v1h-1zm88 0h1v1h-1zm31 0h1v1h-1zM6 106h1v1H6zm25 2h1v1h-1z" fill="#154f87"/></svg>