<svg xmlns="http://www.w3.org/2000/svg" role="img" viewBox="-8.25 59.00 416.00 126.75"><title>Armory Inc logo</title><style>svg {enable-background:new 0 0 850.4 1133.9}</style><path fill="none" d="M0 0h400v245H0z" pointer-events="none"/><path fill="#485153" d="M131.41156 119.04602c-1.2794-.59685-4.4339-1.44965-8.69753-1.44965-6.99156 0-10.14681 2.81399-10.14681 8.015 0 5.96886 3.58147 8.10067 8.61221 8.10067 5.37127 0 10.23213-3.41045 10.23213-7.16256zm1.53422 17.13836l-.25558-.08494c-3.15526 4.0073-8.35589 6.395-14.49539 6.395-9.54958 0-15.85934-5.28662-15.85934-16.71244 0-9.63565 6.48002-15.85935 18.41737-15.85935 4.00731 0 7.75904.6818 10.65872 1.62029v-3.83742c0-6.39508-3.06957-8.95311-10.74403-8.95311-5.54228 0-9.54996.8528-14.23944 2.8993l-.93774-8.9531c5.03074-2.21677 10.74328-3.32552 17.13836-3.32552 14.32475 0 19.52613 6.1395 19.52613 19.95234v32.31599h-8.27094l-.93812-5.45704m17.39543 5.45704V90.6521l8.69716-.51153.93774 9.6349h.25596c3.1545-6.65065 8.44157-10.23175 14.75096-10.23175 2.13182 0 4.00768.25558 5.37202.68217l-.68255 10.9996c-1.62028-.5119-3.49502-.8528-5.37164-.8528-7.41776 0-13.13067 5.79786-13.13067 15.43276v25.83597H150.3412m94.04918 0v-33.33905c0-6.13913-3.41083-8.95274-9.03805-8.95274-4.9458 0-8.69753 2.7283-8.69753 8.35589v33.9359H215.8266v-33.9359c0-6.0538-3.58147-8.44158-8.69754-8.44158-3.6664 0-7.33282 1.87624-9.12337 4.68985v37.68763h-10.82897V90.56678l7.75904-.51153 1.87624 5.11607c3.49577-3.58147 8.27094-5.71292 13.216-5.71292 6.65102 0 11.08492 2.3874 13.72827 7.3332 3.23982-5.03074 8.35551-7.3332 14.49463-7.3332 9.97655 0 16.96848 6.13913 16.96848 18.67333v33.50969h-10.82898m41.09914-7.92938c8.4412 0 11.59608-4.093 11.59608-17.5657 0-13.47157-3.15488-17.5642-11.59608-17.5642-8.5269 0-11.76672 4.09263-11.76672 17.5642 0 13.4727 3.32552 17.5657 11.76672 17.5657zm0 9.1233c-15.85935 0-23.0219-7.67402-23.0219-26.689 0-18.9289 7.16255-26.77325 23.0219-26.77325 15.94503 0 22.76595 7.84435 22.76595 26.77326 0 19.01497-6.82092 26.68899-22.76595 26.68899m30.7817-1.19392V90.6521l8.69752-.51153.93737 9.6349h.25596c3.15488-6.65065 8.44195-10.23175 14.75096-10.23175 2.13182 0 4.00768.25558 5.37201.68217l-.68216 10.9996c-1.62029-.5119-3.49578-.8528-5.37164-.8528-7.41852 0-13.13068 5.79786-13.13068 15.43276v25.83597h-10.82935m54.74134.0852l.25633-.7671-22.2548-50.64869h12.44889l12.70446 34.10683 2.30395 6.4804h.25446l1.70635-6.65066 9.97617-33.93657h11.59646l-18.16367 51.50115c-3.74948 10.06145-9.20794 13.81325-17.30862 13.81325-2.98462 0-5.88317-.5116-8.35588-1.62032l.93774-7.92922c1.87587.93797 3.66679 1.27898 5.54228 1.27898 3.66641 0 6.3947-1.27898 8.35588-5.62805"/><path fill="#fff" d="M71.84415 89.90969l-4.3205-1.99374v-8.34354l-21.77096-4.88705-.00038-.00037L23.9808 79.5724v8.34354l-4.32025 1.99374-11.8231 5.45696c-.1517 1.45825-.29323 3.33412-.35636 5.5258-.09284 3.2286-.00599 7.1607.48661 11.54258 3.46603-1.404 7.25188-2.18458 11.22188-2.18458 3.71716 0 7.2731.68367 10.55581 1.92339 5.29115 1.9986 9.86893 5.45022 13.24122 9.8729.90893-.09505 1.83133-.14557 2.76571-.14557 4.89903 0 9.47998 1.34712 13.40534 3.6825.97068.57814 1.90318 1.21353 2.78817 1.90767 3.24244-1.89307 7.011-2.98275 11.03665-2.98275 2.7586 0 5.39634.51453 7.82827 1.44442.41985-1.41523.8049-2.84692 1.14542-4.29994.8109-3.46135 1.33215-6.7805 1.65471-9.87064.73643-7.0619.42023-12.91065.05539-16.41616l-11.8221-5.45658"/><path fill="#18679e" d="M83.61087 111.78243c-.32256 3.09014-.84382 6.4093-1.6547 9.87064-.34053 1.45302-.72558 2.88471-1.14543 4.29994-2.43193-.92989-5.06967-1.44442-7.82827-1.44442-4.02564 0-7.79421 1.08968-11.03665 2.98275-.88499-.69414-1.8175-1.32953-2.78817-1.90767-3.92536-2.33538-8.50631-3.6825-13.40534-3.6825-.93438 0-1.85678.05052-2.76571.14556-3.3723-4.42267-7.95007-7.87429-13.24122-9.87289-3.2827-1.23972-6.83865-1.92339-10.5558-1.92339-3.97 0-7.75586.78058-11.22189 2.18458-.4926-4.38188-.57945-8.31397-.4866-11.54257.06312-2.1917.20464-4.06756.35634-5.52581l11.82311-5.45696 4.32025-1.99374v-8.34353l21.77152-4.88743.00038.00037 21.77095 4.88705v8.34354l4.32051 1.99374 11.8221 5.45658c.36485 3.5055.68105 9.35425-.05538 16.41616m-8.65038-28.6248v-9.53724l-29.2078-6.55673h-.00038l-29.2083 6.55673v9.53723L1.04587 90.31083S-.12834 95.95227.01155 104.6311c.05642 3.49765.32815 7.48924.97453 11.8034.55486 3.70495 1.38775 7.64677 2.60127 11.72106 4.48732 15.06686 14.18524 31.91769 34.30639 45.1094 2.46223 1.61433 5.07452 3.17544 7.85857 4.67005l.00038-.00044c2.78217-1.49344 5.3926-3.05338 7.85296-4.66625 16.76229-10.9883 26.28867-24.51462 31.59744-37.43567.82025-1.99524 1.5432-3.97625 2.17298-5.93107 1.65958-5.15012 2.69612-10.1165 3.31579-14.69222 1.95033-14.39435-.2335-24.89852-.2335-24.89852l-15.49787-7.1532"/><path fill="#64c8e3" d="M29.74538 112.17384c2.58988-1.35647 5.53453-2.12733 8.66064-2.12733 2.393 0 4.67862.45428 6.78162 1.2734 3.2215-4.04734 7.7871-6.80183 12.94732-7.4432-3.47968-1.99973-7.91021-3.20016-12.73776-3.20016-.64513 0-1.28164.02394-1.91142.06548-3.67015-4.16335-8.83954-6.76105-14.57224-6.76105-5.95491 0-11.30496 2.8009-14.99461 7.25013-1.26307-.3596-2.59163-.5643-3.97004-.5643-.8431 0-1.66418.08757-2.4678.22565-.09285 3.2286-.006 7.16069.4866 11.54257 3.46603-1.404 7.25188-2.18458 11.22188-2.18458 3.71716 0 7.2731.68367 10.55581 1.92339"/><path fill="#379cc2" d="M76.99988 110.91765c-.52725 0-1.04813.01946-1.56415.04977-3.68924-4.441-9.03469-7.23516-14.98335-7.23516-.78394 0-1.55667.04977-2.31742.14444-5.16021.64138-9.72583 3.39587-12.94732 7.44322-2.103-.81913-4.38861-1.2734-6.78162-1.2734-3.1261 0-6.07076.77085-8.66064 2.12732 5.29115 1.9986 9.86893 5.45022 13.24122 9.8729.90893-.09505 1.83133-.14557 2.76534-.14557 4.8994 0 9.48035 1.34712 13.40571 3.68288.97068.57776 1.90318 1.21315 2.78817 1.9073 3.24244-1.89308 7.011-2.98276 11.03665-2.98276 2.7586 0 5.39634.51453 7.82827 1.44442.41985-1.41523.8049-2.84692 1.14542-4.29994.8109-3.46135 1.33215-6.7805 1.65471-9.87064-2.05398-.55681-4.28122-.86478-6.61099-.86478"/><path fill="#ced0d3" d="M83.61087 111.78243c-2.05398-.55681-4.28122-.86478-6.61099-.86478-.52725 0-1.04813.01946-1.56415.04977-3.68924-4.441-9.03469-7.23516-14.98335-7.23516-.78394 0-1.55667.04977-2.31742.14444-4.86534.60471-9.20232 3.0879-12.38227 6.76217 3.17995-3.67427 7.51693-6.15746 12.38227-6.76217-3.39399-1.9507-7.6928-3.14066-12.38227-3.1979V74.68535l21.77095 4.88705v8.34354l4.32051 1.99374 11.8221 5.45658c.2032 1.95146.39104 4.62886.39104 7.83725-.00037 2.55541-.12011 5.44798-.44642 8.5789"/><path fill="#ced0d3" d="M45.75269 177.93456v-56.0334c4.89902.00038 9.47998 1.34713 13.40496 3.68289.97068.57776 1.90318 1.21315 2.78817 1.9073 3.24244-1.89308 7.011-2.98276 11.03665-2.98276 2.7586 0 5.39634.51453 7.82827 1.44442.41985-1.41523.8049-2.84692 1.14542-4.29994.8109-3.46135 1.33215-6.7805 1.65471-9.87064.3263-3.13093.44605-6.0235.44642-8.57891 0-3.2084-.18784-5.8858-.39103-7.83725l-11.8221-5.45658-4.32052-1.99374v-8.34353L45.7527 74.68535v-7.6217l29.2078 6.55673v9.53723l15.49787 7.15321s1.04402 5.0214 1.04364 12.8781c0 3.50662-.20805 7.5783-.81014 12.02042-.61967 4.57572-1.6562 9.5421-3.31579 14.69222-.62977 1.95482-1.35273 3.93583-2.17298 5.93107-5.30877 12.92105-14.83515 26.44737-31.59744 37.43567-2.46037 1.61287-5.07079 3.17281-7.85296 4.66625"/><path fill="#3575a8" d="M45.75269 177.93456v-56.0334c4.89902.00038 9.47998 1.34713 13.40496 3.68289.97068.57776 1.90318 1.21315 2.78817 1.9073 3.24244-1.89308 7.011-2.98276 11.03665-2.98276 2.7586 0 5.39634.51453 7.82827 1.44442.41985-1.41523.8049-2.84692 1.14542-4.29994.8109-3.46135 1.33215-6.7805 1.65471-9.87064.3263-3.13093.44605-6.0235.44642-8.57891 0-3.2084-.18784-5.8858-.39103-7.83725l-11.8221-5.45658-4.32052-1.99374v-8.34353L45.7527 74.68535v-7.6217l29.2078 6.55673v9.53723l15.49787 7.15321s1.04402 5.0214 1.04364 12.8781c0 3.50662-.20805 7.5783-.81014 12.02042-.61967 4.57572-1.6562 9.5421-3.31579 14.69222-.62977 1.95482-1.35273 3.93583-2.17298 5.93107-5.30877 12.92105-14.83515 26.44737-31.59744 37.43567-2.46037 1.61287-5.07079 3.17281-7.85296 4.66625"/><path fill="#ced0d3" d="M45.75269 110.63887v-9.96008c4.68947.05725 8.98828 1.2472 12.38227 3.19791-4.86534.60471-9.20232 3.0879-12.38227 6.76217"/><path fill="#7bd0e7" d="M45.75269 110.63887v-9.96008c4.68947.05725 8.98828 1.2472 12.38227 3.19791-4.86534.60471-9.20232 3.0879-12.38227 6.76217"/><path fill="#ced0d3" d="M61.94582 127.49134c-.88499-.69414-1.8175-1.32953-2.78817-1.9073-3.92498-2.33575-8.50594-3.6825-13.40496-3.68287v-11.2623c3.17995-3.67427 7.51693-6.15746 12.38227-6.76217.76075-.09467 1.53348-.14444 2.31742-.14444 5.94866 0 11.2941 2.79415 14.98335 7.23516.51602-.03031 1.0369-.04977 1.56415-.04977 2.32977 0 4.55701.30797 6.611.86478-.32257 3.09014-.84383 6.4093-1.65472 9.87064-.34052 1.45302-.72557 2.88471-1.14542 4.29994-2.43193-.92989-5.06967-1.44442-7.82827-1.44442-4.02564 0-7.79421 1.08968-11.03665 2.98275"/><path fill="#53a7c9" d="M61.94582 127.49134c-.88499-.69414-1.8175-1.32953-2.78817-1.9073-3.92498-2.33575-8.50594-3.6825-13.40496-3.68287v-11.2623c3.17995-3.67427 7.51693-6.15746 12.38227-6.76217.76075-.09467 1.53348-.14444 2.31742-.14444 5.94866 0 11.2941 2.79415 14.98335 7.23516.51602-.03031 1.0369-.04977 1.56415-.04977 2.32977 0 4.55701.30797 6.611.86478-.32257 3.09014-.84383 6.4093-1.65472 9.87064-.34052 1.45302-.72557 2.88471-1.14542 4.29994-2.43193-.92989-5.06967-1.44442-7.82827-1.44442-4.02564 0-7.79421 1.08968-11.03665 2.98275"/></svg>