<svg xmlns="http://www.w3.org/2000/svg" role="img" viewBox="-6.95 46.55 413.66 151.66"><title>Bank of New York Mellon logo</title><style>svg {enable-background:new 0 0 400 245}</style><style/><path id="Wordmark" fill="#58595b" d="M89.35 153.64h4.37v24.45l-19.96-27.3h-9.97v2.85h4.12l1.36 1.94v30.9h-4.36v2.87h12.32v-2.87H72.9V160.5L94.33 190h2.99v-36.35h4.3v-2.85H89.35v2.84zm-46.48 32.39h-4.94v-15.02h4.94c5.14 0 8.46 3.06 8.46 7.81 0 5.31-4.54 7.21-8.46 7.21m-4.94-31.87h4.73c2.51 0 6.71.86 6.71 6.61 0 4.77-3.53 6.92-7.02 6.92h-4.42v-13.53zm11.1 14.83c3.66-1.04 7.08-3.89 7.08-8.45 0-5.92-4.4-9.75-11.22-9.75h-17.7v2.85h4.29v32.82h-4.29v2.88H45.9c7.22 0 12.04-4.11 12.04-10.23 0-6.05-4.35-9.12-8.91-10.12m78.89-15.35h4.93l-8.29 13.67-8.9-13.67h4.47v-2.85h-15.57v2.85h3.47l11.73 18.03v14.79h-4.29v2.88h15.04v-2.88h-4.35v-15.13L137 153.64h3.12v-2.85h-12.2v2.85zm182.57 32.39h-12.71v-32.39h4.29v-2.85h-15.04v2.85h4.32v32.82h-4.32v2.88h26.82v-8.37h-3.36v5.06zm-33.04 0h-12.68v-32.39h4.31v-2.85h-15.06v2.85h4.31v32.82h-4.31v2.88h26.82v-8.37h-3.38v5.06zM186 178.51l-12.98-27.71h-10.76v2.85h4.35v32.82h-4.35v2.88h12.31v-2.88h-4.35v-26.74l14.38 30.72 13.65-30.05v26.07h-4.29v2.88H209v-2.88h-4.31v-32.82H209v-2.85h-10.23L186 178.51zm150.94 7.85c-7.15 0-12.13-6.7-12.13-16.29 0-9.57 5.03-16.24 12.2-16.24 7.01 0 11.91 6.67 11.91 16.24 0 9.58-4.92 16.29-11.98 16.29m0-36.26c-10.58 0-19.2 8.98-19.2 20.03 0 11 8.62 19.96 19.2 19.96 10.51 0 19.05-8.98 19.05-20.02-.01-11.02-8.54-19.97-19.05-19.97m49.66.69v2.85h4.35v24.45l-19.94-27.3h-10v2.85h4.14l1.37 1.94v30.89h-4.35v2.88h12.31v-2.88h-4.36V160.5l21.43 29.5h3.01v-36.35h4.3v-2.85H386.6zm-145.31 35.24h-13.35v-14.62h10.08v4.39h3.38v-12.05h-3.38v4.34h-10.08v-13.93h12.83v4.88h3.32v-9.86h-3.38v1.62H217.2v2.85h4.29v32.82h-4.29v2.88h27.47v-8.37h-3.38v5.05z"/><g id="Icon"><path fill="#b38634" d="M99.55 93.04l-47.2-18.46c-10.14 5.55-18.44 11.97-25.16 18.46 6.73 6.47 15.02 12.89 25.16 18.45l47.2-18.45z"/><path fill="#a7a9ac" d="M1.14 54.56s5 16.25 21.4 33.74c7.27-5.59 16.04-10.68 26.45-15.04L1.14 54.56z"/><path fill="#a89a75" d="M1.14 131.52s5-16.24 21.4-33.74c7.27 5.59 16.04 10.67 26.45 15.04l-47.85 18.7z"/></g></svg>