<svg xmlns="http://www.w3.org/2000/svg" role="img" viewBox="-14.48 -14.48 752.96 190.96"><title>Canon logo</title><style>svg {enable-background:new 0 0 724.3 162.4}</style><path fill="#000029" d="M37.5 80.8C23.2 80.8 11 76.2 0 69.3L6.8 59c11 7 21.1 10.4 32.4 10.4 13.3 0 19.5-5.1 19.5-11.1 0-17.2-56.1-6.9-56.1-34.4C2.6 10.5 16 0 37.5 0 52 0 64.6 5.4 72 12.8l-8.4 8.6c-6.3-5.6-16.1-10-26.3-10-12.6 0-21.1 4.5-21.1 11 0 16 56.2 7.5 56.2 34.5 0 14.3-14.4 23.9-34.9 23.9zm89.9-33v30.3h-13.6V47.7l-34-45.1h15.9l25.5 34.9 24.1-34.9H161l-33.6 45.2zm128.5 30.3V18.9l-3.7 8L225.4 78h-8.2l-26.4-51-3.7-8v59.2h-13V2.6H193l25.4 50.8 3.5 7.7 3.5-7.7 25.1-50.8h18.7v75.5h-13.3zm87.2-53c0-6.2-4.2-10.9-14.5-10.9h-25.1v24.4h25.6c10.3 0 13.9-5 13.9-11.1v-2.4h.1zm-16 24.6h-23.6v28.5H290V2.6h37.2c20.6 0 29.7 9.3 29.7 22.4v2c0 13.2-9.1 22.7-29.8 22.7zM431 78.1V45.6h-45.5v32.5h-13.6V2.6h13.6v32H431v-32h13.6v75.5H431zm95.7-42.4c0-12.9-9-24-25.5-24-16.6 0-25.4 11.1-25.4 24v9.2c0 12.9 8.8 24.3 25.4 24.3 16.5 0 25.5-11.3 25.5-24.3v-9.2zm-25.5 45.1c-24.3 0-39.1-17.2-39.1-35.7v-9.4C462.1 16.9 477 0 501.2 0c24.4 0 39.2 16.9 39.2 35.7v9.4c0 18.5-14.8 35.7-39.2 35.7zM619 78.1l-42.3-47.7-5.4-7v54.8h-13.5V2.6h12.6l40.9 47.8 5.6 7V2.6h13.4v75.5H619zm71.8-30.3v30.3h-13.6V47.7l-34-45.1H659l25.5 34.9 24.1-34.9h15.6l-33.4 45.2z"/><path fill="#008fff" d="M26.4 162.4c8.7 0 13.8-3.1 18.4-8l-6.3-6.4c-3.5 3.2-6.7 5.3-11.8 5.3-7.7 0-13-6.4-13-14.1v-.1c0-7.7 5.5-14 13-14 4.5 0 8 1.9 11.5 5.1l6.3-7.2c-4.2-4.1-9.2-6.9-17.7-6.9C13 116 3.4 126.4 3.4 139.2v.1c0 12.9 9.8 23.1 23 23.1zm22.5-.7H59l4.1-10.1h19l4.1 10.1h10.3l-19.2-45.2h-9.1l-19.3 45.2zm17.7-18.8l6-14.6 6 14.6h-12zm36.8 18.8h9.7v-28.5l21.8 28.5h8.4v-44.9h-9.7v27.6l-21-27.6h-9.1v44.9h-.1zm72.5.7c13.9 0 23.9-10.4 23.9-23.2v-.1c0-12.8-9.9-23.1-23.8-23.1s-23.9 10.4-23.9 23.2v.1c0 12.8 9.9 23.1 23.8 23.1zm.1-9.1c-8 0-13.6-6.4-13.6-14.1v-.1c0-7.7 5.5-14 13.5-14s13.6 6.4 13.6 14.1v.1c0 7.7-5.5 14-13.5 14zm32.6 8.4h9.7v-28.5l21.8 28.5h8.4v-44.9h-9.7v27.6l-21.1-27.6h-9.1v44.9z"/></svg>