<svg xmlns="http://www.w3.org/2000/svg" role="img" viewBox="-1.88 -2.01 81.76 97.76"><title>CatchIT logo</title><style>svg {enable-background:new 0 0 78.1 94}</style><style>.st1{fill:#b9181e}</style><path fill="#1fa3c2" d="M52.4 67.3l-12 8.4c-.8.6-1.9.6-2.7 0l-12-8.4c-11-7.8-17.6-20.4-17.6-33.9V15.9c0-3.5 2.3-6.7 5.6-7.9L35.4.5c2.4-.8 4.9-.8 7.3 0L64.4 8c3.4 1.2 5.6 4.3 5.6 7.9v17.5c0 13.5-6.5 26.1-17.6 33.9z"/><path d="M0 86.9c0-4.2 3.2-7.2 7.5-7.2 2.4 0 4.4.9 5.7 2.5l-2 1.8c-.9-1.1-2.1-1.6-3.5-1.6-2.6 0-4.4 1.8-4.4 4.4 0 2.6 1.8 4.4 4.4 4.4 1.4 0 2.6-.6 3.5-1.6l2.1 1.9C11.9 93.1 9.9 94 7.5 94 3.2 94 0 91 0 86.9zm24.5.8v6.1h-2.9v-1.3c-.6 1-1.7 1.5-3.2 1.5-2.5 0-4-1.4-4-3.2 0-1.9 1.3-3.2 4.6-3.2h2.5c0-1.3-.8-2.1-2.5-2.1-1.1 0-2.3.4-3.1 1l-1.1-2.2c1.2-.8 2.9-1.3 4.6-1.3 3.2 0 5.1 1.5 5.1 4.7zm-3.1 2.7v-1.1h-2.1c-1.4 0-1.9.5-1.9 1.2 0 .8.7 1.3 1.7 1.3 1.1.1 2-.4 2.3-1.4zm12.8 2.9c-.6.5-1.6.7-2.5.7-2.5 0-4-1.3-4-3.8v-4.4H26v-2.4h1.6v-2.6h3.1v2.6h2.7v2.4h-2.7v4.3c0 .9.5 1.4 1.3 1.4.5 0 .9-.1 1.2-.4l1 2.2zm.6-4.8c0-3.2 2.5-5.5 5.9-5.5 2.2 0 4 1 4.8 2.7L43.1 87c-.6-1-1.4-1.5-2.4-1.5-1.6 0-2.8 1.1-2.8 3s1.2 3 2.8 3c1 0 1.8-.4 2.4-1.5l2.4 1.3C44.7 93 43 94 40.7 94c-3.4-.1-5.9-2.3-5.9-5.5zm23.3-.8v6.1H55v-5.6c0-1.7-.8-2.5-2.2-2.5-1.5 0-2.6.9-2.6 2.9v5.3h-3.1V79.1h3.1v5.1c.8-.8 2-1.3 3.4-1.3 2.6.1 4.5 1.5 4.5 4.8zm3-7.8h3.2v13.9h-3.2V79.9zm9.4 2.6H66v-2.6h12.1v2.6h-4.4v11.2h-3.2V82.5z" class="st1"/><path fill="#32b5d2" d="M49.5 59.6l-9.3 6.6c-.6.4-1.5.4-2.1 0l-9.3-6.6c-8.8-6-13.9-15.9-13.9-26.4V19.5c0-2.8 1.8-5.2 4.4-6.1l16.9-5.8C38 7 40 7 41.9 7.6l16.9 5.8c2.6.9 4.4 3.4 4.4 6.1v13.7c0 10.5-5.1 20.4-13.7 26.4z"/><path d="M54.7 24c-1.3-1.2-3.2-1.1-4.4.2L35.6 39.8l-7.8-8.3c-1.2-1.3-3.2-1.3-4.4-.2s-1.3 3.2-.2 4.4l10 10.8c.3.4.8.6 1.2.8h.1c.2.1.3.1.5.1h1c.2 0 .3-.1.5-.1h.1c.4-.2.9-.4 1.2-.8l16.9-18.1c1.3-1.3 1.2-3.3 0-4.4z" class="st1"/></svg>