<svg xmlns="http://www.w3.org/2000/svg" role="img" viewBox="-10.79 -10.79 425.58 561.08"><title>CLA Bot logo</title><style>svg {enable-background:new 0 0 404.16 540}</style><style>.st0{fill:#97999a}.st1{fill:#00b6bc}.st2{fill:#53535a}.st3{fill:#9ed5d9}.st7{fill:#848c8c}.st8{fill:#dde5ed}.st9{fill:#545d63}.st10{fill:#ecf0f4}.st11{fill:#9b9ca0}</style><path d="M249.06 487.05c-6.4 0-11.66 2.01-15.48 6.21v-24.95h-14.91v70.92h14.24v-5.93c3.73 4.49 9.27 6.69 16.15 6.69 14.43 0 25.62-10.32 25.62-26.48 0-16.14-11.19-26.46-25.62-26.46zm-2.58 40.71c-7.46 0-13.1-5.35-13.1-14.24s5.64-14.24 13.1-14.24 13.1 5.35 13.1 14.24c-.01 8.89-5.65 14.24-13.1 14.24zM309.09 540c16.34 0 28.2-10.99 28.2-26.48 0-15.48-11.85-26.48-28.2-26.48s-28.29 10.99-28.29 26.48c-.01 15.49 11.94 26.48 28.29 26.48zm0-12.24c-7.46 0-13.19-5.35-13.19-14.24s5.74-14.24 13.19-14.24c7.45 0 13.1 5.35 13.1 14.24-.01 8.89-5.65 14.24-13.1 14.24zm65.18-1.52c-1.72 1.24-3.92 1.91-6.12 1.91-4.02 0-6.31-2.39-6.31-6.79v-20.93h12.71v-11.47h-12.71v-12.52h-14.91v45.12c0 12.23 6.98 18.45 19.21 18.45 4.49 0 8.98-1.05 12.04-3.25l-3.91-10.52z" class="st0"/><path d="M194.67 524.61c6.5 0 11.95-5.16 11.95-12.14s-5.45-12.04-11.95-12.04c-6.6 0-11.95 5.07-11.95 12.04.01 6.98 5.36 12.14 11.95 12.14z" class="st1"/><path d="M54.65 540c10.8 0 19.31-4.78 23.04-13l-11.57-6.31c-2.77 4.97-6.88 7.07-11.57 7.07-7.55 0-13.48-5.26-13.48-14.24 0-8.99 5.93-14.24 13.48-14.24 4.68 0 8.79 2.2 11.57 7.07l11.57-6.21c-3.73-8.41-12.24-13.09-23.04-13.09-16.73 0-28.68 10.99-28.68 26.48 0 15.48 11.95 26.47 28.68 26.47zm49.7 0c2.58 0 5.16-.38 7.74-1.24l-.67-11.57c-.86.48-2.58.96-4.21.96-4.11 0-6.4-2.39-6.4-6.79v-53.05H85.9v53.91c0 11.47 6.88 17.78 18.45 17.78zm51.42-52.19v5.45c-3.73-4.2-9.08-6.21-15.39-6.21-14.53 0-25.71 10.32-25.71 26.48 0 16.15 11.18 26.48 25.71 26.48 6.88 0 12.33-2.2 16.06-6.69v5.93h14.24v-51.42h-14.91v-.02zm-12.81 39.95c-7.46 0-13.19-5.35-13.19-14.24s5.74-14.24 13.19-14.24c7.36 0 13.1 5.35 13.1 14.24s-5.74 14.24-13.1 14.24zm182.61-160.95v-5.07c0 6.91-5.6 12.51-12.51 12.51H91.11c-6.91 0-12.51-5.6-12.51-12.51v5.07c0 17.28 14.01 31.28 31.28 31.28h184.41c17.27 0 31.28-14 31.28-31.28z" class="st0"/><path d="M78.53 298.52c.18.93.53 1.86.53 2.79.03 17.09.03 34.18 0 51.27 0 1.07-.37 2.14-.57 3.21-7.08-.82-11.38-5.37-11.56-12.4-.1-4.04-.02-8.08-.02-12.8-4.72 0-9.26-.18-13.78.05-4.08.21-6.42-1.51-8.04-5.19-9.05-20.65-18.34-41.21-27.25-61.92-1.1-2.55-1.25-6.11-.44-8.77 5.65-18.64 11.78-37.14 17.46-55.78.97-3.19 1.2-6.94.62-10.23-2.44-13.99-5.32-27.91-8.04-41.85 4.16-.84 8.32-1.68 12.49-2.52 3.3 15.95 6.67 31.9 9.83 47.88.38 1.93 0 4.18-.59 6.12-5.64 18.51-11.33 37-17.21 55.44-1.1 3.44-.89 6.39.5 9.64 6.7 15.6 13.25 31.27 19.85 46.91 3.59 8.52 4.64 9.11 14.51 7.92.01-8.79-.62-18.22 11.71-19.77z" class="st2"/><path d="M27.95 147.88c15.44 0 27.95-12.92 27.95-28.85 0-15.93-12.51-28.85-27.95-28.85C12.51 90.17 0 103.09 0 119.03c0 15.93 12.51 28.85 27.95 28.85" class="st1"/><path d="M34.96 116.62c-5.72 0-10.36-4.66-10.36-10.41S29.24 95.8 34.96 95.8s10.36 4.66 10.36 10.41-4.64 10.41-10.36 10.41" class="st3"/><path d="M325.63 298.52c-.18.93-.53 1.86-.53 2.79-.03 17.09-.03 34.18 0 51.27 0 1.07.37 2.14.57 3.21 7.08-.82 11.38-5.37 11.56-12.4.1-4.04.02-8.08.02-12.8 4.72 0 9.26-.18 13.78.05 4.08.21 6.42-1.51 8.03-5.19 9.05-20.65 18.34-41.21 27.25-61.92 1.1-2.55 1.25-6.11.44-8.77-5.65-18.64-11.78-37.14-17.46-55.78-.97-3.19-1.2-6.94-.62-10.23 2.44-13.99 5.32-27.91 8.04-41.85-4.16-.84-8.32-1.68-12.49-2.52-3.3 15.95-6.67 31.9-9.83 47.88-.38 1.93 0 4.18.59 6.12 5.64 18.51 11.33 37 17.21 55.44 1.1 3.44.89 6.39-.5 9.64-6.7 15.6-13.25 31.27-19.85 46.91-3.59 8.52-4.64 9.11-14.51 7.92 0-8.79.63-18.22-11.7-19.77z" class="st2"/><path d="M376.21 147.88c15.44 0 27.95-12.92 27.95-28.85 0-15.93-12.51-28.85-27.95-28.85s-27.95 12.92-27.95 28.85c0 15.93 12.52 28.85 27.95 28.85" class="st1"/><path d="M383.22 116.62c-5.72 0-10.36-4.66-10.36-10.41s4.64-10.41 10.36-10.41 10.36 4.66 10.36 10.41-4.63 10.41-10.36 10.41" class="st3"/><path fill="#c8c9c6" d="M195.9 94.61c-64.79 0-117.31 52.52-117.31 117.31v149.82c0 6.91 5.6 12.51 12.51 12.51h221.95c6.91 0 12.51-5.6 12.51-12.51V211.92c0-64.79-52.52-117.31-117.31-117.31H195.9"/><path fill="#fbe300" d="M150.54 7.01c3.96 1.62 8.11 2.89 11.82 4.94 4.63 2.56 8.86 5.81 13.33 8.68 4.29 2.76 5.62 2.47 8.43-1.91 1.96-3.05 3.62-6.29 5.56-9.35 1.11-1.76 2.35-3.48 3.79-4.97 5.67-5.86 13.03-5.96 18.23.29 3.36 4.04 5.82 8.83 8.64 13.3 3.24 5.13 4.54 5.4 9.69 2.15 5.54-3.5 10.88-7.41 16.76-10.23 10.43-5.01 17.44-1.83 19.52 9.41 2.02 10.9 8.54 17.38 18.27 20.27 13.33 3.95 26.99 6.8 40.56 9.9 9.15 2.09 18.28 4.19 25.97 9.94 2.77 2.07 5.51 4.41 7.52 7.17.96 1.33.98 4.72-.03 5.73-1.15 1.16-4.93 1.7-5.82.8-13.95-14.16-32.81-14.07-50.36-17.8-9.4-2-18.83-3.89-28.16-6.19-7.93-1.96-12.89-7.47-15.84-14.88-1.44-3.62-2.62-7.35-4.08-10.97-1.56-3.85-2.56-4.14-5.76-1.57-3.15 2.54-6.02 5.43-9.24 7.88-2.98 2.28-6.08 4.53-9.43 6.16-5.82 2.82-10.09 1.85-14.11-3.21-3.29-4.14-6-8.73-9.08-13.04-3.31-4.63-5.13-4.63-8.47.06-2.75 3.86-5.13 8-7.97 11.79-4.91 6.53-9.69 7.81-16.71 3.56-5.44-3.3-10.31-7.59-15.25-11.67-5.38-4.44-6.98-4.51-8.33 2.07-4.26 20.75-19.89 25.59-37.58 28.44-13.21 2.12-26.35 4.73-39.41 7.6C65.56 63 58.84 66.49 53.51 72.2c-2.19 2.35-4.67 2.46-7.06.48-2.53-2.1-1.75-4.48.04-6.61 6.06-7.21 13.92-11.72 22.89-13.92 11.77-2.89 23.74-5.03 35.57-7.7 9-2.03 17.89-4.47 25.4-10.23 4.03-3.09 6.53-7.06 7.6-12.12.68-3.23 1.82-6.46 3.3-9.4 1.76-3.51 5.05-5.04 9.29-5.69z"/><path d="M264.21 113.2c-10.47-2.7-20.9-5.56-31.42-8.05-5.8-1.38-10.22-4.19-12.83-9.62-2.27-6.81-.44-12.94 4.31-17.74 4.79-4.84 10.85-4.77 17.16-2.47 24.37 8.88 48.81 17.57 73.2 26.38 1.82.66 3.6 1.57 5.23 2.62 5.27 3.4 6.82 8.54 4.56 14.58-1.62 4.33-5.89 6.65-11.8 5.65-6.45-1.1-12.82-2.67-19.19-4.19-9.75-2.31-19.48-4.76-29.22-7.16zm-124.26 0c10.47-2.7 20.9-5.56 31.42-8.05 5.8-1.38 10.22-4.19 12.83-9.62 2.27-6.81.44-12.94-4.31-17.74-4.79-4.84-10.85-4.77-17.16-2.47-24.37 8.88-48.81 17.57-73.2 26.38-1.82.66-3.6 1.57-5.23 2.62-5.27 3.4-6.82 8.54-4.56 14.58 1.62 4.33 5.89 6.65 11.8 5.65 6.45-1.1 12.82-2.67 19.19-4.19 9.75-2.31 19.48-4.76 29.22-7.16z" class="st0"/><path fill="#545c63" d="M244.5 296.33l-.21-.02c-.65-.14-1.35-.25-2.27-.25h-.66l-.1-.01c-12.98-.01-25.96 0-38.94 0h-.5c-12.98 0-25.96-.01-38.94 0l-.1.01h-.66c-.92 0-1.61.11-2.27.25l-.21.02c-1.73.42-2.53 1.45-2.65 3.26-.07.82-.06 1.76.07 2.97.82 7.62 4.09 14.86 8.9 21.02 4.34 5.79 9.97 10.39 16.47 13.48.13.06.26.11.39.18 1.83.85 3.73 1.6 5.69 2.2.95.3 1.92.53 2.89.76 1.25.3 2.52.54 3.81.74.58.08 1.14.28 1.73.33 1.73.17 3.44.23 5.13.22 1.69.01 3.4-.05 5.13-.22.59-.06 1.15-.25 1.73-.33 1.29-.19 2.56-.44 3.81-.74.97-.24 1.94-.46 2.89-.76 1.96-.6 3.85-1.35 5.69-2.2.13-.06.26-.11.39-.18 6.51-3.09 12.14-7.69 16.47-13.48 4.81-6.16 8.08-13.4 8.9-21.03.13-1.2.14-2.14.07-2.95-.11-1.81-.91-2.85-2.65-3.27z"/><path d="M274.25 269.09c36.28 0 65.69-29.41 65.69-65.69s-29.41-65.69-65.69-65.69-65.69 29.41-65.69 65.69 29.41 65.69 65.69 65.69" class="st7"/><path d="M274.25 260.42c31.49 0 57.02-25.53 57.02-57.02 0-31.49-25.53-57.02-57.02-57.02-31.49 0-57.02 25.53-57.02 57.02 0 31.49 25.53 57.02 57.02 57.02" class="st8"/><path d="M274.25 236.33c18.19 0 32.93-14.74 32.93-32.93 0-18.19-14.74-32.93-32.93-32.93-18.19 0-32.93 14.74-32.93 32.93 0 18.19 14.75 32.93 32.93 32.93" class="st1"/><path d="M274.25 222.42c10.64 0 19.27-8.52 19.27-19.02s-8.63-19.02-19.27-19.02c-10.64 0-19.27 8.52-19.27 19.02 0 10.51 8.63 19.02 19.27 19.02" class="st9"/><path d="M307.15 202c-.66-15.74-12.36-28.62-27.56-31.1 3.68-3.36 8.57-5.41 13.93-5.41 11.44 0 20.72 9.32 20.72 20.82-.01 6.26-2.75 11.87-7.09 15.69" class="st10"/><path d="M293.52 207.14h-.37c.24-1.21.37-2.46.37-3.74 0-10.5-8.63-19.02-19.27-19.02-.46 0-.91.02-1.36.05.48-5.35 2.97-10.11 6.7-13.52 15.2 2.48 26.9 15.36 27.56 31.1-3.64 3.19-8.41 5.13-13.63 5.13" class="st3"/><path d="M293.15 207.14c-11.27-.2-20.34-9.45-20.34-20.82 0-.64.03-1.27.09-1.89.45-.03.9-.05 1.36-.05 10.64 0 19.27 8.52 19.27 19.02-.01 1.28-.14 2.53-.38 3.74" class="st11"/><path d="M129.91 269.09c36.28 0 65.69-29.41 65.69-65.69s-29.41-65.69-65.69-65.69-65.69 29.41-65.69 65.69 29.41 65.69 65.69 65.69" class="st7"/><path d="M129.91 260.42c31.49 0 57.02-25.53 57.02-57.02 0-31.49-25.53-57.02-57.02-57.02-31.49 0-57.02 25.53-57.02 57.02 0 31.49 25.53 57.02 57.02 57.02" class="st8"/><path d="M129.91 236.33c18.19 0 32.93-14.74 32.93-32.93 0-18.19-14.74-32.93-32.93-32.93-18.19 0-32.93 14.74-32.93 32.93 0 18.19 14.74 32.93 32.93 32.93" class="st1"/><path d="M129.91 222.42c10.64 0 19.27-8.52 19.27-19.02s-8.63-19.02-19.27-19.02c-10.64 0-19.27 8.52-19.27 19.02 0 10.51 8.63 19.02 19.27 19.02" class="st9"/><path d="M162.81 202c-.66-15.74-12.36-28.62-27.56-31.1 3.68-3.36 8.56-5.41 13.93-5.41 11.44 0 20.72 9.32 20.72 20.82-.01 6.26-2.75 11.87-7.09 15.69" class="st10"/><path d="M149.18 207.14h-.37c.24-1.21.37-2.46.37-3.74 0-10.5-8.63-19.02-19.27-19.02-.46 0-.91.02-1.36.05.48-5.35 2.97-10.11 6.7-13.52 15.2 2.48 26.9 15.36 27.56 31.1-3.64 3.19-8.41 5.13-13.63 5.13" class="st3"/><path d="M148.81 207.14c-11.27-.2-20.34-9.45-20.34-20.82 0-.64.03-1.27.09-1.89.45-.03.9-.05 1.36-.05 10.64 0 19.27 8.52 19.27 19.02-.01 1.28-.14 2.53-.38 3.74" class="st11"/></svg>