<svg xmlns="http://www.w3.org/2000/svg" role="img" viewBox="-14.39 -14.39 748.28 586.28"><title>Cloud Service Certification logo</title><style>svg {enable-background:new 0 0 719.74 557.73}</style><style>.st0{fill:#fe5000}.st1{fill:#00c1d4}.st2{fill:#8ad4e1}.st3{fill:#bee5ed}</style><path d="M56.38 537.09c-.91-.65-1.93-.92-3.07-.83-1.14.1-2.06.57-2.77 1.41-1.36 1.56-2.89 2.9-4.58 4.04-1.69 1.14-3.51 2-5.45 2.58-1.95.58-3.96.88-6.04.88-5.91 0-10.97-2.21-15.19-6.62-4.22-4.41-6.33-9.74-6.33-15.97s2.11-11.55 6.33-15.97c4.22-4.41 9.28-6.62 15.19-6.62 6.04 0 11.16 2.24 15.38 6.72.78.85 1.7 1.3 2.77 1.36 1.07.07 2.03-.26 2.87-.97l3.41-2.63c.97-.78 1.49-1.79 1.56-3.02.13-1.23-.23-2.3-1.07-3.21-3.31-3.44-7.11-6.09-11.39-7.93-4.28-1.85-8.8-2.78-13.53-2.78-6.23 0-11.99 1.56-17.28 4.67-5.29 3.12-9.48 7.37-12.56 12.76C1.54 510.35 0 516.22 0 522.58c0 6.36 1.54 12.24 4.62 17.62 3.08 5.39 7.27 9.64 12.56 12.76 5.29 3.11 11.05 4.67 17.28 4.67 4.93 0 9.65-1.02 14.17-3.07 4.51-2.05 8.42-4.95 11.73-8.71.71-.91 1.04-1.95.97-3.12-.13-1.17-.68-2.14-1.66-2.92l-3.29-2.72zm18.89-48.39c-1.17 0-2.16.41-2.97 1.22s-1.22 1.8-1.22 2.97v59.3c0 1.17.4 2.16 1.22 2.97.81.81 1.8 1.22 2.97 1.22h35.15c1.17 0 2.17-.4 3.02-1.22.84-.81 1.27-1.8 1.27-2.97V548c0-1.17-.42-2.17-1.27-3.02-.84-.84-1.85-1.27-3.02-1.27H84.71c-.65 0-.97-.33-.97-.97v-7.11c0-.65.32-.97.97-.97h19.57c1.17 0 2.17-.41 3.02-1.22.84-.81 1.27-1.8 1.27-2.97v-4.19c0-1.17-.42-2.17-1.27-3.02-.84-.84-1.85-1.27-3.02-1.27H84.71c-.65 0-.97-.32-.97-.97v-18.69c0-.65.32-.97.97-.97h25.71c1.17 0 2.17-.42 3.02-1.27.84-.84 1.27-1.85 1.27-3.02v-4.19c0-1.17-.42-2.16-1.27-2.97-.84-.81-1.85-1.22-3.02-1.22H75.27v.01zm53.26 0c-1.17 0-2.16.41-2.97 1.22s-1.22 1.8-1.22 2.97v59.3c0 1.17.4 2.16 1.22 2.97.81.81 1.8 1.22 2.97 1.22h4.19c1.17 0 2.17-.4 3.02-1.22.84-.81 1.27-1.8 1.27-2.97v-10.03c0-.65.32-.97.97-.97h8.08c.39 0 .68.13.88.39l9.25 13.05c.84 1.17 1.98 1.75 3.41 1.75h5.16c1.49 0 2.66-.52 3.51-1.56 1.3-1.69 1.33-3.38.1-5.06l-8.57-12.07c-.33-.59-.23-1.04.29-1.36 3.44-2.47 6.12-5.58 8.03-9.35 1.91-3.76 2.87-7.76 2.87-11.98v-1.27c0-6.88-2.45-12.77-7.35-17.67-4.9-4.9-10.83-7.35-17.77-7.35h-17.34v-.01zm29.79 26.97c0 3.89-1.4 7.24-4.19 10.03-2.79 2.79-6.13 4.19-10.03 4.19h-6.13c-.65 0-.97-.32-.97-.97v-27.94c0-.65.32-.97.97-.97h6.82c3.76 0 6.96 1.33 9.59 3.99s3.94 5.84 3.94 9.54v2.13zm23.56-26.97c-1.17 0-2.16.41-2.97 1.22s-1.22 1.8-1.22 2.97v3.9c0 1.17.4 2.17 1.22 3.02.81.85 1.8 1.27 2.97 1.27h14.61c.65 0 .97.33.97.97v50.14c0 1.17.42 2.16 1.27 2.97.84.81 1.85 1.22 3.02 1.22h4.19c1.17 0 2.16-.4 2.97-1.22.81-.81 1.22-1.8 1.22-2.97v-50.14c0-.65.32-.97.97-.97h14.61c1.17 0 2.17-.42 3.02-1.27.84-.84 1.27-1.85 1.27-3.02v-3.9c0-1.17-.42-2.16-1.27-2.97-.85-.81-1.85-1.22-3.02-1.22h-43.83zm66.8 0c-1.17 0-2.16.41-2.97 1.22s-1.22 1.8-1.22 2.97v59.3c0 1.17.41 2.16 1.22 2.97s1.8 1.22 2.97 1.22h4.28c.71 0 1.39-.18 2.05-.53.65-.36 1.17-.86 1.56-1.51.39-.65.58-1.36.58-2.14v-59.3c0-1.17-.42-2.16-1.27-2.97-.84-.81-1.82-1.22-2.92-1.22h-4.28v-.01zm27.36 0c-1.17 0-2.18.41-3.02 1.22-.85.81-1.27 1.8-1.27 2.97v59.3c0 1.17.42 2.16 1.27 2.97.84.81 1.85 1.22 3.02 1.22h4.09c1.17 0 2.17-.4 3.02-1.22.84-.81 1.27-1.8 1.27-2.97v-16.55c0-.65.32-.97.97-.97h19.57c1.17 0 2.17-.42 3.02-1.27.84-.84 1.27-1.85 1.27-3.02v-4.09c0-1.17-.42-2.17-1.27-3.02-.84-.84-1.85-1.27-3.02-1.27h-19.57c-.65 0-.97-.32-.97-.97v-18.69c0-.65.32-.97.97-.97h25.7c1.17 0 2.17-.42 3.02-1.27.84-.84 1.27-1.85 1.27-3.02v-4.19c0-.71-.19-1.41-.58-2.09-.39-.68-.91-1.2-1.56-1.56-.65-.36-1.36-.54-2.14-.54h-35.06zm58.12 0c-1.17 0-2.16.41-2.97 1.22s-1.22 1.8-1.22 2.97v59.3c0 1.17.4 2.16 1.22 2.97.81.81 1.8 1.22 2.97 1.22h4.28c.71 0 1.4-.18 2.04-.53.65-.36 1.17-.86 1.56-1.51.39-.65.58-1.36.58-2.14v-59.3c0-1.17-.42-2.16-1.27-2.97-.84-.81-1.82-1.22-2.92-1.22h-4.27v-.01zm79.46 48.39c-.91-.65-1.93-.92-3.07-.83-1.14.1-2.06.57-2.78 1.41-1.36 1.56-2.89 2.9-4.58 4.04-1.69 1.14-3.51 2-5.45 2.58-1.95.58-3.96.88-6.04.88-5.91 0-10.97-2.21-15.19-6.62-4.22-4.41-6.33-9.74-6.33-15.97s2.11-11.55 6.33-15.97c4.22-4.41 9.28-6.62 15.19-6.62 6.04 0 11.16 2.24 15.38 6.72.78.85 1.7 1.3 2.77 1.36 1.07.07 2.03-.26 2.87-.97l3.41-2.63c.97-.78 1.49-1.79 1.56-3.02.13-1.23-.23-2.3-1.07-3.21-3.31-3.44-7.11-6.09-11.39-7.93-4.28-1.85-8.8-2.78-13.53-2.78-6.23 0-11.99 1.56-17.28 4.67-5.29 3.12-9.48 7.37-12.56 12.76s-4.62 11.26-4.62 17.62c0 6.36 1.54 12.24 4.62 17.62 3.08 5.39 7.27 9.64 12.56 12.76 5.29 3.11 11.05 4.67 17.28 4.67 4.93 0 9.66-1.02 14.17-3.07s8.42-4.95 11.73-8.71c.71-.91 1.04-1.95.97-3.12-.13-1.17-.68-2.14-1.65-2.92l-3.3-2.72zm45.61-51.22c-.94 0-1.61.42-2 1.27l-28.53 63.1c-.85 1.88-.49 3.54 1.07 4.97.78.78 1.82 1.17 3.12 1.17h4.09c1.95 0 3.31-.91 4.09-2.73l2.82-6.72c.13-.45.42-.68.88-.68h28.92c.39 0 .68.23.88.68l2.82 6.72c.71 1.82 2.08 2.73 4.09 2.73h3.99c1.3 0 2.37-.39 3.21-1.17 1.49-1.43 1.85-3.08 1.07-4.97l-28.53-63.1c-.38-.84-1.05-1.27-1.99-1.27zm-9.1 48.3c-.26 0-.44-.1-.54-.29-.1-.19-.11-.39-.05-.58l9.05-21.13c.13-.26.32-.39.58-.39.26 0 .42.13.49.39l9.15 21.13c.13.2.13.39 0 .58-.13.2-.29.29-.49.29h-18.19zm45.08-45.47c-1.17 0-2.16.41-2.97 1.22s-1.22 1.8-1.22 2.97v3.9c0 1.17.4 2.17 1.22 3.02.81.85 1.8 1.27 2.97 1.27h14.61c.65 0 .97.33.97.97v50.14c0 1.17.42 2.16 1.27 2.97.84.81 1.85 1.22 3.02 1.22h4.19c1.17 0 2.16-.4 2.97-1.22.81-.81 1.22-1.8 1.22-2.97v-50.14c0-.65.32-.97.97-.97h14.6c1.17 0 2.17-.42 3.02-1.27.84-.84 1.27-1.85 1.27-3.02v-3.9c0-1.17-.42-2.16-1.27-2.97-.84-.81-1.85-1.22-3.02-1.22h-43.82zm66.79 0c-1.17 0-2.16.41-2.97 1.22s-1.22 1.8-1.22 2.97v59.3c0 1.17.4 2.16 1.22 2.97.81.81 1.8 1.22 2.97 1.22h4.28c.71 0 1.39-.18 2.04-.53.65-.36 1.17-.86 1.56-1.51.39-.65.58-1.36.58-2.14v-59.3c0-1.17-.42-2.16-1.27-2.97-.84-.81-1.82-1.22-2.92-1.22H562v-.01zm27.8 16.26c-3.15 5.39-4.72 11.26-4.72 17.62 0 6.36 1.57 12.24 4.72 17.62 3.15 5.39 7.42 9.64 12.8 12.76 5.39 3.11 11.25 4.67 17.57 4.67s12.19-1.56 17.57-4.67c5.39-3.12 9.65-7.37 12.8-12.76 3.15-5.39 4.72-11.26 4.72-17.62 0-6.36-1.57-12.23-4.72-17.62-3.15-5.39-7.42-9.64-12.8-12.76-5.39-3.12-11.25-4.67-17.57-4.67s-12.19 1.56-17.57 4.67c-5.38 3.12-9.65 7.37-12.8 12.76zm30.33 40.21c-6.04 0-11.2-2.21-15.48-6.62-4.28-4.41-6.43-9.74-6.43-15.97s2.14-11.55 6.43-15.97c4.28-4.41 9.44-6.62 15.48-6.62s11.21 2.21 15.53 6.62c4.32 4.42 6.47 9.74 6.47 15.97s-2.16 11.55-6.47 15.97c-4.32 4.42-9.49 6.62-15.53 6.62zm91.14-56.38c-1.17 0-2.16.42-2.97 1.27-.81.85-1.22 1.85-1.22 3.02v33.3c0 .39-.21.68-.63.88-.42.2-.76.13-1.02-.19l-37.29-39.34c-.58-.58-1.25-.71-2-.39-.75.33-1.12.88-1.12 1.66v63.09c0 1.17.4 2.18 1.22 3.02.81.84 1.8 1.26 2.97 1.26h4.19c1.17 0 2.17-.42 3.02-1.26.84-.84 1.27-1.85 1.27-3.02V518.6c0-.45.19-.76.58-.92.39-.16.74-.08 1.07.24l37.19 39.24c.39.39.84.59 1.36.59.26 0 .49-.07.68-.2.78-.26 1.17-.81 1.17-1.65v-62.8c0-1.17-.42-2.17-1.27-3.02-.84-.84-1.85-1.27-3.02-1.27h-4.18v-.02z" class="st0"/><path d="M55.24 441.38c-.89-.64-1.89-.91-3.01-.81-1.11.1-2.02.56-2.72 1.38-1.34 1.53-2.83 2.85-4.48 3.96-1.65 1.11-3.43 1.95-5.34 2.53-1.91.57-3.88.86-5.91.86-5.79 0-10.75-2.16-14.88-6.49-4.13-4.32-6.2-9.54-6.2-15.65 0-6.1 2.07-11.32 6.2-15.64 4.13-4.32 9.09-6.49 14.88-6.49 5.91 0 10.94 2.19 15.07 6.58.76.83 1.67 1.27 2.72 1.33 1.05.07 1.99-.25 2.81-.95l3.34-2.58c.95-.76 1.46-1.75 1.53-2.96.13-1.21-.22-2.26-1.05-3.15-3.24-3.37-6.96-5.96-11.16-7.77-4.2-1.81-8.62-2.72-13.26-2.72-6.11 0-11.75 1.53-16.93 4.58s-9.29 7.22-12.31 12.5C1.51 415.18 0 420.94 0 427.17s1.51 11.99 4.53 17.27c3.02 5.28 7.12 9.44 12.31 12.5 5.18 3.05 10.83 4.58 16.93 4.58 4.83 0 9.46-1 13.88-3.01 4.42-2 8.25-4.85 11.5-8.54.7-.89 1.02-1.91.95-3.05-.13-1.14-.67-2.1-1.62-2.86l-3.24-2.68zm28.33 6.49c-.45 0-.81-.14-1.1-.43-.29-.29-.43-.65-.43-1.1v-48.27c0-.57-.11-1.11-.33-1.62-.22-.51-.52-.95-.91-1.34-.38-.38-.83-.67-1.34-.86-.51-.19-1.02-.29-1.53-.29h-4.2c-1.14 0-2.12.4-2.91 1.19-.8.8-1.19 1.77-1.19 2.91v58.1c0 1.14.4 2.12 1.19 2.91.79.8 1.77 1.19 2.91 1.19h32.43c1.15 0 2.11-.4 2.91-1.19.79-.79 1.19-1.76 1.19-2.91v-4.1c0-1.14-.4-2.13-1.19-2.96-.8-.83-1.76-1.24-2.91-1.24H83.57v.01zm40.87-37.97c-3.09 5.28-4.63 11.03-4.63 17.27 0 6.23 1.54 11.99 4.63 17.27 3.08 5.28 7.26 9.44 12.54 12.5 5.28 3.05 11.02 4.58 17.22 4.58s11.94-1.53 17.22-4.58c5.28-3.05 9.46-7.22 12.55-12.5 3.08-5.28 4.63-11.03 4.63-17.27 0-6.23-1.54-11.99-4.63-17.27-3.09-5.28-7.27-9.45-12.55-12.5-5.28-3.05-11.02-4.58-17.22-4.58s-11.94 1.53-17.22 4.58c-5.27 3.06-9.45 7.22-12.54 12.5zm29.72 39.4c-5.91 0-10.97-2.16-15.17-6.49-4.2-4.32-6.3-9.54-6.3-15.65 0-6.1 2.1-11.32 6.3-15.64 4.2-4.32 9.25-6.49 15.17-6.49s10.99 2.16 15.22 6.49 6.34 9.54 6.34 15.64c0 6.11-2.11 11.32-6.34 15.65s-9.3 6.49-15.22 6.49zm87-55.33c-1.15 0-2.13.4-2.96 1.19-.83.8-1.24 1.77-1.24 2.91v39.02c0 3.24-1.14 6.01-3.43 8.3-2.29 2.29-5.06 3.43-8.3 3.43h-3.34c-3.24 0-6.01-1.14-8.3-3.43-2.29-2.29-3.43-5.06-3.43-8.3v-39.02c0-1.15-.41-2.11-1.24-2.91-.83-.79-1.81-1.19-2.96-1.19h-3.72c-1.08 0-2.04.4-2.86 1.19-.83.8-1.24 1.77-1.24 2.91v39.3c0 6.3 2.24 11.69 6.72 16.17 4.48 4.48 9.9 6.73 16.26 6.73h4.87c6.36 0 11.78-2.24 16.27-6.73 4.48-4.48 6.72-9.87 6.72-16.17v-39.3c0-1.15-.41-2.11-1.24-2.91-.83-.79-1.81-1.19-2.96-1.19h-3.62zm26.04 0c-1.08 0-2.04.4-2.86 1.19-.83.8-1.24 1.77-1.24 2.91v58.1c0 1.14.41 2.12 1.24 2.91.83.8 1.78 1.19 2.86 1.19h17.27c5.79 0 11.13-1.42 16.03-4.25s8.76-6.69 11.59-11.59c2.83-4.9 4.24-10.24 4.24-16.03v-2.58c0-5.79-1.42-11.13-4.24-16.03-2.83-4.9-6.69-8.76-11.59-11.59-4.9-2.83-10.24-4.25-16.03-4.25H267.2v.02zm37.02 33.96c0 6.04-2.15 11.21-6.44 15.5-4.29 4.29-9.46 6.44-15.5 6.44h-5.82c-.64 0-.95-.35-.95-1.05v-43.4c0-.7.32-1.05.95-1.05h4.29c6.49 0 12.02 2.29 16.6 6.87 4.58 4.58 6.87 10.11 6.87 16.6v.09zm66.56-6.48c-3.43-1.4-5.88-2.54-7.35-3.44-4.96-2.92-7.03-5.88-6.2-8.87.44-1.4 1.3-2.61 2.58-3.63 1.27-1.02 2.42-1.56 3.43-1.62 2.54-.13 4.53.03 5.96.48 1.43.45 3.07 1.53 4.91 3.24.76.7 1.65 1.07 2.67 1.1 1.02.03 1.94-.24 2.77-.81l2.58-2c1.02-.76 1.56-1.8 1.62-3.1.06-1.3-.38-2.4-1.33-3.29-5.09-4.83-11.45-7.25-19.08-7.25-3.88 0-7.41 1.26-10.59 3.77-3.18 2.51-5.34 5.8-6.49 9.87-.7 2.23-.94 4.36-.72 6.39.22 2.04.64 3.85 1.24 5.44.6 1.59 1.51 3.1 2.72 4.53 1.21 1.43 2.42 2.64 3.62 3.62 1.21.99 2.54 1.89 4.01 2.72 1.97 1.21 4.96 2.64 8.97 4.29 4.58 1.85 7.54 3.37 8.87 4.58 1.34 1.21 1.88 3.02 1.62 5.44-.13 1.65-.62 3.07-1.48 4.24-.86 1.18-1.91 1.99-3.15 2.43-1.24.44-2.29.75-3.15.91-.86.16-1.7.24-2.53.24-5.03 0-9.51-2.29-13.45-6.87-.7-.83-1.59-1.3-2.67-1.43-1.08-.13-2.07.1-2.96.67l-2.48 1.81c-1.02.7-1.59 1.62-1.72 2.77-.19 1.21.06 2.29.76 3.24 1.59 2.1 3.34 3.91 5.25 5.44 1.91 1.53 3.59 2.66 5.06 3.39 1.46.73 3.11 1.29 4.96 1.67 1.84.38 3.19.6 4.05.67.86.06 1.89.1 3.1.1 1.34 0 2.83-.14 4.48-.43 1.65-.29 3.51-.86 5.58-1.72 2.07-.86 3.96-1.92 5.68-3.19 1.72-1.27 3.23-3.02 4.53-5.25 1.3-2.23 2.11-4.77 2.43-7.63.19-1.97.13-3.85-.19-5.63-.32-1.78-.76-3.31-1.34-4.58-.57-1.27-1.42-2.51-2.53-3.72-1.11-1.21-2.13-2.18-3.05-2.91-.92-.73-2.16-1.51-3.72-2.34-1.56-.83-2.75-1.42-3.58-1.77-.83-.35-2-.84-3.53-1.48l-.16-.09zm31.86-27.48c-1.15 0-2.12.4-2.91 1.19-.8.8-1.19 1.77-1.19 2.91v58.1c0 1.14.4 2.12 1.19 2.91.79.8 1.76 1.19 2.91 1.19h34.44c1.14 0 2.13-.4 2.96-1.19.83-.79 1.24-1.76 1.24-2.91v-4.1c0-1.14-.41-2.13-1.24-2.96-.83-.83-1.81-1.24-2.96-1.24H411.9c-.64 0-.95-.32-.95-.95v-6.96c0-.64.32-.95.95-.95h19.17c1.15 0 2.13-.4 2.96-1.19.83-.79 1.24-1.77 1.24-2.91v-4.1c0-1.15-.42-2.13-1.24-2.96-.83-.83-1.81-1.24-2.96-1.24H411.9c-.64 0-.95-.32-.95-.95v-18.32c0-.64.32-.95.95-.95h25.19c1.14 0 2.13-.41 2.96-1.24.83-.83 1.24-1.81 1.24-2.96v-4.1c0-1.15-.41-2.11-1.24-2.91-.83-.79-1.81-1.19-2.96-1.19h-34.45v-.02zm52.19 0c-1.14 0-2.12.4-2.91 1.19-.8.8-1.19 1.77-1.19 2.91v58.1c0 1.14.4 2.12 1.19 2.91.79.8 1.77 1.19 2.91 1.19h4.1c1.14 0 2.13-.4 2.96-1.19.83-.79 1.24-1.76 1.24-2.91v-9.83c0-.63.32-.95.95-.95H472c.38 0 .67.13.86.38l9.06 12.78c.83 1.15 1.94 1.72 3.34 1.72h5.06c1.46 0 2.61-.51 3.43-1.53 1.27-1.65 1.3-3.31.1-4.96l-8.4-11.83c-.32-.57-.22-1.02.29-1.34 3.37-2.42 5.99-5.47 7.87-9.16 1.88-3.69 2.81-7.6 2.81-11.73v-1.24c0-6.74-2.4-12.51-7.2-17.31-4.8-4.8-10.61-7.2-17.41-7.2h-16.98zm29.19 26.43c0 3.82-1.37 7.09-4.1 9.83-2.73 2.74-6.01 4.1-9.83 4.1h-6.01c-.64 0-.95-.32-.95-.95V406c0-.63.32-.95.95-.95h6.68c3.69 0 6.82 1.3 9.4 3.91 2.58 2.61 3.86 5.72 3.86 9.35v2.09zm73.93-26.33c-1.97 0-3.31.89-4.01 2.67l-7.25 17.46-9.73 21.08c-.13.38-.4.57-.81.57-.42 0-.72-.19-.91-.57l-9.63-21.08-7.25-17.46c-.76-1.78-2.13-2.67-4.1-2.67h-3.91c-1.27 0-2.29.38-3.05 1.15-1.53 1.4-1.88 3.05-1.05 4.96l28.24 62.77c.32.7.87 1.05 1.67 1.05.79 0 1.35-.35 1.67-1.05l28.14-62.77c.83-1.91.51-3.56-.95-4.96-.83-.76-1.88-1.15-3.15-1.15h-3.92zm26.8-.1c-1.14 0-2.11.4-2.91 1.19-.8.8-1.19 1.77-1.19 2.91v58.1c0 1.14.4 2.12 1.19 2.91.79.8 1.77 1.19 2.91 1.19h4.2c.7 0 1.37-.17 2-.53.64-.35 1.15-.84 1.53-1.48.38-.63.57-1.34.57-2.1v-58.1c0-1.15-.41-2.11-1.24-2.91-.83-.79-1.78-1.19-2.86-1.19h-4.2v.01zm77.84 47.41c-.89-.64-1.89-.91-3-.81-1.11.1-2.02.56-2.72 1.38-1.34 1.53-2.83 2.85-4.48 3.96-1.66 1.11-3.43 1.95-5.34 2.53-1.91.57-3.88.86-5.92.86-5.79 0-10.75-2.16-14.88-6.49-4.13-4.32-6.2-9.54-6.2-15.65 0-6.1 2.07-11.32 6.2-15.64 4.13-4.32 9.09-6.49 14.88-6.49 5.92 0 10.94 2.19 15.07 6.58.76.83 1.67 1.27 2.72 1.33 1.05.07 1.99-.25 2.81-.95l3.34-2.58c.95-.76 1.46-1.75 1.53-2.96.13-1.21-.22-2.26-1.05-3.15-3.24-3.37-6.96-5.96-11.16-7.77-4.2-1.81-8.62-2.72-13.26-2.72-6.1 0-11.75 1.53-16.93 4.58s-9.29 7.22-12.31 12.5c-3.02 5.28-4.53 11.03-4.53 17.27 0 6.23 1.51 11.99 4.53 17.27 3.02 5.28 7.12 9.44 12.31 12.5 5.18 3.05 10.83 4.58 16.93 4.58 4.83 0 9.46-1 13.88-3.01 4.42-2 8.25-4.85 11.5-8.54.7-.89 1.02-1.91.95-3.05-.13-1.14-.67-2.1-1.62-2.86l-3.25-2.67zm18.51-47.41c-1.15 0-2.11.4-2.91 1.19-.8.8-1.19 1.77-1.19 2.91v58.1c0 1.14.4 2.12 1.19 2.91.79.8 1.76 1.19 2.91 1.19h34.44c1.14 0 2.13-.4 2.96-1.19.83-.79 1.24-1.76 1.24-2.91v-4.1c0-1.14-.41-2.13-1.24-2.96-.83-.83-1.81-1.24-2.96-1.24h-25.19c-.64 0-.95-.32-.95-.95v-6.96c0-.64.32-.95.95-.95h19.18c1.15 0 2.13-.4 2.96-1.19.83-.79 1.24-1.77 1.24-2.91v-4.1c0-1.15-.41-2.13-1.24-2.96-.83-.83-1.81-1.24-2.96-1.24h-19.18c-.64 0-.95-.32-.95-.95v-18.32c0-.64.32-.95.95-.95h25.19c1.14 0 2.13-.41 2.96-1.24.83-.83 1.24-1.81 1.24-2.96v-4.1c0-1.15-.41-2.11-1.24-2.91-.83-.79-1.81-1.19-2.96-1.19H681.1v-.02z" class="st1"/><path d="M473.12 183.03zm3.43 9.44zm6.23 32.01zm129.62 59.34c0-29.97-24.3-54.26-54.26-54.26-2.08 0-4.13.14-6.16.37.21-2.83.34-5.67.34-8.55 0-58.05-41.73-106.17-96.38-115.17v46.04c6.35 8.52 13.29 21.79 11.86 19.03 31.66 12.73 54.09 44.04 54.09 80.73 0 2.14-.1 4.26-.25 6.36 1.51-.17 3.03-.28 4.58-.28 22.31 0 40.39 18.08 40.39 40.39 0 19.6-13.96 35.92-32.47 39.6h24.01c29.95 0 54.25-24.29 54.25-54.26z" class="st2"/><path d="M395.58 130.87c-15.6-7.52-32.36-11.34-49.82-11.34h-9.6c-17.46 0-34.22 3.81-49.82 11.34l-7.35 3.55v-34.36c0-16.55 6.45-32.12 18.15-43.82 11.7-11.71 27.27-18.15 43.82-18.15 34.17 0 61.97 27.8 61.97 61.97v34.36l-7.35-3.55zm-76.67 106.71c-8.84-6.79-14.19-17.43-14.19-28.67 0-19.92 16.21-36.14 36.14-36.14 19.92 0 36.13 16.21 36.13 36.14 0 10.99-4.92 21.18-13.34 28.01 4.4 11.21 8.81 22.41 13.21 33.62l2.75 7h-74.67l2.39-6.82c3.85-11.05 7.71-22.1 11.58-33.14m151.96 95.38v-98.57c0-28.28-9.66-55.88-27.25-77.95V98.91c0-54.54-44.37-98.91-98.9-98.91h-7.5c-54.54 0-98.91 44.37-98.91 98.91v57.53c-17.59 22.06-27.25 49.67-27.25 77.95V338.09h259.82v-5.13h-.01z" class="st0"/><path d="M226 152.25c-17.6 23.61-17.6 23.61 0 0zm0-6.94v-22.36c-2.17-.29-4.37-.46-6.62-.46-25.38 0-46.18 19.47-48.36 44.28-6.75-1.68-13.8-2.58-21.07-2.58-48.02 0-86.95 38.93-86.95 86.95 0 47.72 38.45 86.45 86.06 86.93v.02h49.68-15.32v-.02c-42.29-.43-76.45-34.83-76.45-77.22 0-42.66 34.58-77.24 77.24-77.24 6.46 0 12.72.8 18.71 2.3-12.53-18.79 6.89-41.47 23.08-40.6z" class="st1"/><path d="M226 152.25v-6.94c-16.19-.87-35.61 21.81-23.07 40.59-5.99-1.49-12.26-2.3-18.71-2.3-42.66 0-77.24 34.58-77.24 77.24 0 42.39 34.16 76.79 76.45 77.22v.02h15.32v-.34c-26.43-5.18-46.38-28.42-46.38-56.37 0-28.08 20.15-51.43 46.77-56.46 1.82-26.2 11.14-51.58 26.86-72.66z" class="st2"/><path d="M199.13 224.92c-26.62 5.03-46.77 28.37-46.77 56.46 0 27.95 19.95 51.19 46.38 56.37V234.39c.01-3.17.17-6.32.39-9.47z" class="st3"/><path d="M656.73 277c0-33.74-27.35-61.09-61.09-61.09-2.35 0-4.65.16-6.93.42.24-3.18.38-6.39.38-9.62 0-72.56-57.92-131.38-129.36-131.38-2.12 0-4.22.06-6.31.16 1.63 7.56 2.5 15.38 2.5 23.42v7.3c54.65 9 96.38 57.13 96.38 115.17 0 2.88-.13 5.72-.34 8.55 2.02-.23 4.07-.37 6.16-.37 29.97 0 54.26 24.29 54.26 54.26 0 29.96-24.29 54.25-54.25 54.26h37.5c33.75 0 61.1-27.35 61.1-61.08zm-98.62 61.08z" class="st1"/><path d="M566.6 298.48c0-22.31-18.08-40.39-40.39-40.39-1.55 0-3.08.11-4.58.28.16-2.1.25-4.22.25-6.36 0-36.69-22.43-67.99-54.09-80.73 10.01 19.41 15.39 41.11 15.39 63.11V338.09h50.95c18.51-3.69 32.47-20.01 32.47-39.61z" class="st3"/></svg>