<svg xmlns="http://www.w3.org/2000/svg" role="img" viewBox="-5.36 -5.36 330.46 98.46"><title>Cloud9 Technologies LLC logo</title><g fill="#1e2125"><path d="M76 14h1v1h-1zm1 0h1v1h-1zm1 0h7v1h-7zm7 0h1v1h-1zm1 0h1v1h-1zm1 0h1v1h-1zm1 0h1v1h-1zm205 0h1v1h-1zm1 0h1v1h-1zm1 0h5v1h-5zm5 0h1v1h-1zm1 0h1v1h-1zm1 0h1v1h-1zM72 15h1v1h-1zm1 0h1v1h-1zm1 0h1v1h-1zm1 0h1v1h-1zm1 0h12v2H76zm12 0h1v2h-1zm1 0h1v1h-1zm1 0h1v1h-1zm1 0h1v1h-1zm1 0h1v1h-1zm23 0h1v1h-1zm1 0h2v1h-2zm2 0h1v1h-1zm1 0h1v1h-1zm145 0h1v1h-1zm1 0h2v1h-2zm2 0h1v1h-1zm23 0h1v1h-1zm1 0h1v1h-1zm1 0h1v1h-1zm1 0h9v2h-9zm9 0h1v2h-1zm1 0h1v1h-1zm1 0h1v1h-1zm1 0h1v1h-1zM70 16h1v1h-1zm1 0h1v1h-1z"/><path d="M72 16h20v1H72zm20 0h1v2h-1zm1 0h1v1h-1zm1 0h1v1h-1zm1 0h1v1h-1zm20 0h1v49h-1zm1 0h2v51h-2zm2 0h1v54h-1zm1 0h1v48h-1zm145 0h1v22h-1zm1 0h2v56h-2zm2 0h1v56h-1zm21 0h1v1h-1zm1 0h1v1h-1zm1 0h15v1h-15zm15 0h1v3h-1zm1 0h1v1h-1zm1 0h1v1h-1zM68 17h1v1h-1zm1 0h1v1h-1z"/><path d="M70 17h24v1H70zm24 0h1v2h-1zm1 0h1v1h-1zm1 0h1v1h-1zm1 0h1v1h-1zm190 0h1v1h-1zm1 0h18v1h-18zm18 0h1v3h-1zm1 0h1v1h-1zm1 0h1v1h-1zM66 18h1v1h-1zm1 0h1v1h-1zm1 0h6v1h-6zm6 0h1v1h-1zm1 0h1v1h-1zm1 0h1v1h-1zm1 0h1v1h-1zm1 0h1v1h-1zm1 0h1v1h-1zm5 0h1v1h-1zm1 0h1v1h-1zm1 0h1v1h-1zm1 0h1v1h-1zm1 0h1v1h-1zm1 0h1v1h-1z"/><path d="M90 18h7v1h-7zm7 0h1v3h-1zm1 0h1v1h-1zm1 0h1v1h-1zm186 0h1v1h-1zm1 0h1v1h-1zm1 0h5v1h-5zm5 0h1v1h-1zm1 0h1v1h-1zm1 0h1v1h-1zm1 0h1v1h-1zm1 0h1v1h-1zm1 0h1v1h-1zm1 0h1v1h-1zm1 0h1v1h-1zm1 0h1v1h-1zm1 0h1v1h-1zm1 0h1v1h-1zm1 0h5v1h-5zm5 0h1v3h-1zm1 0h1v1h-1zM65 19h1v1h-1zm1 0h5v1h-5zm5 0h1v1h-1zm1 0h1v1h-1zm1 0h1v1h-1zm1 0h1v1h-1zm16 0h1v1h-1zm1 0h1v1h-1zm1 0h1v1h-1z"/><path d="M93 19h5v1h-5zm5 0h1v2h-1zm1 0h1v1h-1zm1 0h1v1h-1zm184 0h1v1h-1zm1 0h1v1h-1zm1 0h4v1h-4zm4 0h1v1h-1zm1 0h1v1h-1zm1 0h1v1h-1zm11 0h1v1h-1zm1 0h1v1h-1zm1 0h4v1h-4zm4 0h1v4h-1zm1 0h1v1h-1zM63 20h1v1h-1zm1 0h1v1h-1zm1 0h4v1h-4zm4 0h1v1h-1zm1 0h1v1h-1zm1 0h1v1h-1zm22 0h1v1h-1zm1 0h1v1h-1z"/><path d="M95 20h5v1h-5zm5 0h1v3h-1zm1 0h1v1h-1zm183 0h1v1h-1zm1 0h3v1h-3zm3 0h1v1h-1zm1 0h1v1h-1zm1 0h1v1h-1zm14 0h1v1h-1zm1 0h1v1h-1zm1 0h4v1h-4zm4 0h1v4h-1zm1 0h1v1h-1zM62 21h1v1h-1zm1 0h1v1h-1zm1 0h3v1h-3zm3 0h1v1h-1zm1 0h1v1h-1zm1 0h1v1h-1zm26 0h1v1h-1zm1 0h1v1h-1z"/><path d="M97 21h4v1h-4zm4 0h1v1h-1zm1 0h1v1h-1zm181 0h1v1h-1zm1 0h3v1h-3zm3 0h1v1h-1zm1 0h1v1h-1zm1 0h1v1h-1zm17 0h1v1h-1zm1 0h1v1h-1zm1 0h3v1h-3zm3 0h1v5h-1zm1 0h1v1h-1zM61 22h1v1h-1zm1 0h1v1h-1zm1 0h3v1h-3zm3 0h1v1h-1zm1 0h1v1h-1zm1 0h1v1h-1zm29 0h1v1h-1zm1 0h1v1h-1zm1 0h2v1h-2zm2 0h1v1h-1zm1 0h1v1h-1zm180 0h1v1h-1zm1 0h3v2h-3zm3 0h1v1h-1zm1 0h1v1h-1zm20 0h1v1h-1zm1 0h1v1h-1zm4 0h1v1h-1zm1 0h1v1h-1zM60 23h1v1h-1zm1 0h1v1h-1zm1 0h3v1h-3zm3 0h1v1h-1zm1 0h1v1h-1zm32 0h1v1h-1zm1 0h1v1h-1zm1 0h1v1h-1zm1 0h1v1h-1zm181 0h1v1h-1zm4 0h1v1h-1zm1 0h1v1h-1zm21 0h1v1h-1z"/><path d="M309 23h3v1h-3zm3 0h1v5h-1zm1 0h1v1h-1zM59 24h1v1h-1zm1 0h1v1h-1zm1 0h3v1h-3zm3 0h1v1h-1zm1 0h1v1h-1zm35 0h1v1h-1zm181 0h1v1h-1zm1 0h3v2h-3zm3 0h1v1h-1zm1 0h1v1h-1zm23 0h1v1h-1z"/><path d="M310 24h3v1h-3zm3 0h1v6h-1zm1 0h1v1h-1zM59 25h1v1h-1zm1 0h3v1h-3zm3 0h1v1h-1zm1 0h1v1h-1zm217 0h1v1h-1zm4 0h1v1h-1zm25 0h1v1h-1zm4 0h1v1h-1zM58 26h1v1h-1zm1 0h3v1h-3zm3 0h1v1h-1zm1 0h1v1h-1zm218 0h1v1h-1zm1 0h2v16h-2zm2 0h1v1h-1zm1 0h1v1h-1zm25 0h1v1h-1z"/><path d="M311 26h3v1h-3zm3 0h1v17h-1zm1 0h1v1h-1zM57 27h1v1h-1zm1 0h3v2h-3zm3 0h1v1h-1zm1 0h1v1h-1zm218 0h1v1h-1zm1 0h2v12h-2zm3 0h1v1h-1zm27 0h1v1h-1zm4 0h1v1h-1zM57 28h1v1h-1zm4 0h1v1h-1zm1 0h1v1h-1zm218 0h1v1h-1zm4 0h1v1h-1zm27 0h1v1h-1z"/><path d="M312 28h3v1h-3zm3 0h1v27h-1zm1 0h1v1h-1zM56 29h1v1h-1zm1 0h3v2h-3zm3 0h1v1h-1zm1 0h1v1h-1zm219 0h1v1h-1zm4 0h1v1h-1zm28 0h1v1h-1zm4 0h1v1h-1zM56 30h1v1h-1zm4 0h1v1h-1zm220 0h1v1h-1zm4 0h1v1h-1zm28 0h1v1h-1zm1 0h2v1h-2zm3 0h1v1h-1zM55 31h1v1h-1zm1 0h3v2h-3zm3 0h1v1h-1zm1 0h1v1h-1zm86 0h1v1h-1zm1 0h1v1h-1zm1 0h1v1h-1zm1 0h1v1h-1zm1 0h5v2h-5zm5 0h1v2h-1zm1 0h1v1h-1zm1 0h1v1h-1zm1 0h1v1h-1zm1 0h1v1h-1zm85 0h1v1h-1zm1 0h1v1h-1zm1 0h1v1h-1zm1 0h5v2h-5zm5 0h1v2h-1zm1 0h1v1h-1zm1 0h1v1h-1zm1 0h1v1h-1zm25 0h1v1h-1zm4 0h1v1h-1zm29 0h1v1h-1zm3 0h1v21h-1zm1 0h1v1h-1zM55 32h1v1h-1zm4 0h1v1h-1zm85 0h1v1h-1zm1 0h1v1h-1z"/><path d="M146 32h13v1h-13zm13 0h1v2h-1zm1 0h1v1h-1zm1 0h1v1h-1zm1 0h1v1h-1zm23 0h1v29h-1zm1 0h2v31h-2zm2 0h1v36h-1zm1 0h1v28h-1zm27 0h1v21h-1zm1 0h2v40h-2zm2 0h1v40h-1zm22 0h1v1h-1zm1 0h1v1h-1zm1 0h1v1h-1zm1 0h11v1h-11zm11 0h1v2h-1zm1 0h1v1h-1zm1 0h1v1h-1zm23 0h3v2h-3zm33 0h1v1h-1zm4 0h1v1h-1zM54 33h1v1h-1zm1 0h1v1h-1zm1 0h2v4h-2zm2 0h1v1h-1zm1 0h1v1h-1zm83 0h1v1h-1zm1 0h1v1h-1z"/><path d="M144 33h18v1h-18zm18 0h1v2h-1zm1 0h1v1h-1zm1 0h1v1h-1zm76 0h1v1h-1zm1 0h1v1h-1zm1 0h15v1h-15zm15 0h1v2h-1zm1 0h1v1h-1zm1 0h1v1h-1zm54 0h1v1h-1zm4 0h1v1h-1zM54 34h1v1h-1zm1 0h2v20h-2zm3 0h1v1h-1zm82 0h1v1h-1zm1 0h1v1h-1zm1 0h7v1h-7zm7 0h1v1h-1zm1 0h1v1h-1zm1 0h1v1h-1zm1 0h2v1h-2zm2 0h1v1h-1zm1 0h1v1h-1zm1 0h1v1h-1z"/><path d="M157 34h7v1h-7zm7 0h1v3h-1zm1 0h1v1h-1zm73 0h1v1h-1zm1 0h1v1h-1zm1 0h6v1h-6zm6 0h1v1h-1zm1 0h1v1h-1zm1 0h1v1h-1zm1 0h1v1h-1zm1 0h1v1h-1zm1 0h1v1h-1zm1 0h1v1h-1zm1 0h5v1h-5zm5 0h1v2h-1zm1 0h1v1h-1zm1 0h1v1h-1zm20 0h3v1h-3zm33 0h1v1h-1zm4 0h1v1h-1zM54 35h1v1h-1zm4 0h1v1h-1zm81 0h1v1h-1zm1 0h1v1h-1zm1 0h4v1h-4zm4 0h1v1h-1zm1 0h1v1h-1zm1 0h1v1h-1zm1 0h1v1h-1zm10 0h1v1h-1zm1 0h1v1h-1zm1 0h1v1h-1z"/><path d="M161 35h4v1h-4zm4 0h1v3h-1zm1 0h1v1h-1zm1 0h1v1h-1zm70 0h1v1h-1zm1 0h1v1h-1zm1 0h4v1h-4zm4 0h1v1h-1zm1 0h1v1h-1zm1 0h1v1h-1zm1 0h1v1h-1zm8 0h1v1h-1zm1 0h1v1h-1zm1 0h4v1h-4zm4 0h1v3h-1zm1 0h1v1h-1zm19 0h1v1h-1zm4 0h1v1h-1zm33 0h1v1h-1zM54 36h1v1h-1zm4 0h1v1h-1zm80 0h1v1h-1zm1 0h1v1h-1zm1 0h3v1h-3zm3 0h1v1h-1zm1 0h1v1h-1zm1 0h1v1h-1zm1 0h1v1h-1zm14 0h1v1h-1zm1 0h1v1h-1zm1 0h1v1h-1z"/><path d="M163 36h3v1h-3zm3 0h1v3h-1zm1 0h1v1h-1zm1 0h1v1h-1zm68 0h1v1h-1zm1 0h1v1h-1zm1 0h3v1h-3zm3 0h1v1h-1zm1 0h1v1h-1zm1 0h1v1h-1zm13 0h1v1h-1zm1 0h1v1h-1zm1 0h3v1h-3zm3 0h1v3h-1zm1 0h1v1h-1zm18 0h1v1h-1zm4 0h1v1h-1zm33 0h1v11h-1zM53 37h1v1h-1zm1 0h3v13h-3zm3 0h1v1h-1zm80 0h1v1h-1zm1 0h1v1h-1zm1 0h3v1h-3zm3 0h1v1h-1zm1 0h1v1h-1zm1 0h1v1h-1zm18 0h1v1h-1zm1 0h1v1h-1z"/><path d="M164 37h3v1h-3zm3 0h1v3h-1zm1 0h1v1h-1zm1 0h1v1h-1zm67 0h1v1h-1zm1 0h3v1h-3zm3 0h1v1h-1zm1 0h1v1h-1zm1 0h1v1h-1zm15 0h1v1h-1zm1 0h1v1h-1zm1 0h2v1h-2zm3 0h1v1h-1zm1 0h1v1h-1zm17 0h1v1h-1zm4 0h1v1h-1zm34 0h1v1h-1zM53 38h1v1h-1zm4 0h1v1h-1zm79 0h1v1h-1zm1 0h1v1h-1zm1 0h3v1h-3zm3 0h1v1h-1zm1 0h1v1h-1zm22 0h1v1h-1z"/><path d="M165 38h3v1h-3zm3 0h1v3h-1zm1 0h1v1h-1zm1 0h1v1h-1zm65 0h1v1h-1zm1 0h3v1h-3zm3 0h1v1h-1zm1 0h1v1h-1zm19 0h1v1h-1zm1 0h2v1h-2zm2 0h1v3h-1zm1 0h1v1h-1zm1 0h1v1h-1zm16 0h1v1h-1zm4 0h1v1h-1zm29 0h1v1h-1zm5 0h1v7h-1zM53 39h1v1h-1zm4 0h1v1h-1zm78 0h1v1h-1zm1 0h1v1h-1zm1 0h2v2h-2zm2 0h1v1h-1zm1 0h1v1h-1zm1 0h1v1h-1zm24 0h1v1h-1z"/><path d="M166 39h3v1h-3zm3 0h1v4h-1zm1 0h1v1h-1zm64 0h1v1h-1zm1 0h3v2h-3zm3 0h1v1h-1zm1 0h1v1h-1zm21 0h1v1h-1zm1 0h2v1h-2zm2 0h4v5h-4zm17 0h1v1h-1zm1 0h2v1h-2zm3 0h1v1h-1zm29 0h1v1h-1zM53 40h1v1h-1zm4 0h1v1h-1zm78 0h1v1h-1zm1 0h3v1h-3zm3 0h1v1h-1zm1 0h1v1h-1zm26 0h1v1h-1z"/><path d="M167 40h3v1h-3zm3 0h1v5h-1zm1 0h1v1h-1zm63 0h1v1h-1zm4 0h1v1h-1zm1 0h1v1h-1zm21 0h1v1h-1zm1 0h1v1h-1zm20 0h1v1h-1zm3 0h1v5h-1zm1 0h1v1h-1zm28 0h1v1h-1zM53 41h1v1h-1zm4 0h1v1h-1zm77 0h1v1h-1zm1 0h3v2h-3zm3 0h1v1h-1zm1 0h1v1h-1zm28 0h1v1h-1z"/><path d="M168 41h3v1h-3zm3 0h1v22h-1zm1 0h1v1h-1zm61 0h1v1h-1zm1 0h3v2h-3zm3 0h1v1h-1zm1 0h1v1h-1zm23 0h1v1h-1zm1 0h5v1h-5zm19 0h1v1h-1zm4 0h1v1h-1zm27 0h1v1h-1zm1 0h4v2h-4zM53 42h1v3h-1zm4 0h1v3h-1zm77 0h1v1h-1zm4 0h1v1h-1zm30 0h1v1h-1zm4 0h1v1h-1zm61 0h1v1h-1zm4 0h1v1h-1zm25 0h1v1h-1zm19 0h1v1h-1zm1 0h3v1h-3zm3 0h1v4h-1zm1 0h1v1h-1zm25 0h1v1h-1z"/><path d="M312 42h5v1h-5zm-179 1h1v1h-1zm1 0h3v2h-3zm3 0h1v1h-1zm1 0h1v1h-1zm30 0h1v1h-1zm1 0h3v1h-3zm3 0h1v18h-1zm1 0h1v1h-1zm60 0h1v1h-1zm1 0h2v4h-2zm2 0h1v1h-1zm1 0h1v1h-1zm25 0h1v1h-1zm20 0h1v1h-1zm1 0h2v1h-2zm3 0h1v1h-1zm1 0h1v1h-1zm23 0h1v1h-1zm1 0h1v1h-1zm1 0h5v1h-5zm-179 1h1v1h-1zm4 0h1v1h-1zm32 0h1v1h-1zm4 0h1v1h-1zm59 0h1v1h-1z"/><path d="M233 44h2v17h-2zm3 0h1v1h-1zm26 0h1v1h-1zm1 0h4v1h-4zm19 0h1v1h-1zm1 0h3v1h-3zm3 0h1v3h-1zm1 0h1v1h-1zm1 0h1v1h-1zm21 0h1v1h-1zm1 0h1v1h-1zm1 0h2v1h-2zm2 0h4v1h-4zM53 45h1v1h-1zm4 0h1v1h-1zm75 0h1v1h-1zm1 0h3v5h-3zm3 0h1v1h-1zm1 0h1v1h-1zm32 0h1v1h-1zm1 0h2v1h-2zm3 0h1v1h-1zm59 0h1v1h-1zm4 0h1v1h-1zm27 0h1v1h-1zm1 0h3v3h-3zm19 0h1v1h-1z"/><path d="M284 45h3v1h-3zm3 0h1v3h-1zm1 0h1v1h-1zm1 0h1v1h-1zm18 0h1v1h-1zm1 0h1v1h-1zm1 0h3v1h-3zm3 0h1v1h-1zm1 0h1v1h-1zm1 0h1v1h-1zm4 0h1v1h-1zM53 46h1v1h-1zm4 0h1v1h-1zm75 0h1v1h-1zm4 0h1v1h-1zm34 0h1v1h-1zm3 0h1v12h-1zm1 0h1v1h-1zm58 0h1v1h-1zm4 0h1v1h-1zm27 0h1v1h-1zm21 0h1v1h-1z"/><path d="M285 46h3v1h-3zm3 0h1v2h-1zm1 0h1v1h-1zm1 0h1v1h-1zm16 0h1v1h-1zm1 0h1v1h-1zm1 0h3v1h-3zm3 0h1v1h-1zm1 0h1v1h-1zm2 0h1v1h-1zM53 47h1v1h-1zm4 0h1v1h-1zm75 0h1v1h-1zm4 0h1v1h-1zm34 0h1v1h-1zm4 0h1v1h-1zm58 0h3v10h-3zm3 0h1v1h-1zm28 0h1v1h-1zm22 0h1v1h-1z"/><path d="M286 47h4v1h-4zm4 0h1v2h-1zm1 0h1v1h-1zm1 0h1v1h-1zm1 0h1v1h-1zm10 0h1v1h-1zm1 0h1v1h-1zm1 0h1v1h-1zm1 0h4v1h-4zm4 0h1v1h-1zm1 0h1v1h-1zm3 0h3v5h-3zm3 0h1v1h-1zM53 48h1v1h-1zm4 0h1v1h-1zm75 0h1v1h-1zm4 0h1v1h-1zm34 0h1v1h-1zm4 0h1v1h-1zm57 0h1v1h-1zm4 0h1v1h-1zm29 0h3v1h-3zm22 0h1v1h-1z"/><path d="M287 48h6v1h-6zm6 0h1v2h-1zm1 0h1v1h-1zm1 0h1v1h-1zm1 0h4v1h-4zm4 0h1v1h-1zm1 0h1v1h-1zm1 0h1v1h-1zm1 0h6v1h-6zm6 0h1v1h-1zm1 0h1v1h-1zm3 0h1v1h-1zm4 0h1v1h-1zM53 49h1v1h-1zm4 0h1v1h-1zm75 0h3v6h-3zm38 0h1v1h-1zm4 0h1v1h-1zm57 0h1v1h-1zm4 0h1v1h-1zm29 0h1v1h-1zm23 0h1v1h-1zm1 0h1v1h-1z"/><path d="M289 49h18v1h-18zm18 0h1v1h-1zm1 0h1v1h-1zm1 0h1v1h-1zm4 0h1v1h-1zm4 0h1v1h-1zM53 50h1v1h-1zm1 0h2v1h-2zm3 0h1v1h-1zm78 0h1v1h-1zm39 0h1v4h-1zm57 0h1v1h-1zm4 0h1v4h-1zm29 0h1v5h-1zm24 0h1v1h-1zm1 0h1v1h-1zm1 0h1v1h-1zm1 0h14v1h-14zm14 0h1v1h-1zm1 0h1v1h-1zm1 0h1v1h-1zm6 0h1v1h-1zm4 0h1v1h-1zM54 51h1v1h-1zm3 0h1v7h-1zm1 0h1v1h-1zm77 0h1v1h-1zm96 0h1v2h-1zm60 0h1v1h-1zm1 0h1v1h-1zm1 0h1v1h-1zm1 0h7v1h-7zm7 0h1v1h-1zm1 0h1v1h-1zm1 0h1v1h-1zm1 0h1v1h-1zm1 0h1v1h-1zm8 0h1v1h-1zm4 0h1v1h-1zM54 52h1v1h-1zm4 0h1v1h-1zm77 0h1v1h-1zm159 0h1v1h-1zm1 0h5v1h-5zm5 0h1v1h-1zm1 0h1v1h-1zm11 0h1v1h-1zm1 0h3v3h-3zm3 0h1v1h-1zM54 53h1v1h-1zm4 0h1v1h-1zm77 0h1v1h-1zm81 0h1v1h-1zm15 0h1v1h-1zm81 0h1v1h-1zm4 0h1v1h-1zM54 54h1v1h-1z"/><path d="M55 54h3v1h-3zm3 0h1v6h-1zm1 0h1v1h-1zm76 0h1v9h-1zm39 0h1v1h-1zm42 0h1v1h-1zm15 0h1v1h-1zm4 0h1v1h-1zm77 0h1v1h-1zm4 0h1v1h-1zM55 55h1v1h-1zm1 0h2v1h-2zm3 0h1v1h-1zm73 0h3v1h-3zm38 0h1v1h-1zm4 0h1v1h-1zm42 0h3v7h-3zm15 0h1v1h-1zm4 0h1v1h-1zm29 0h1v1h-1zm47 0h1v1h-1zm1 0h1v1h-1zm1 0h2v3h-2zm2 0h1v1h-1zm1 0h1v1h-1zM55 56h1v1h-1zm1 0h2v1h-2zm3 0h1v1h-1zm1 0h1v1h-1zm72 0h1v1h-1zm1 0h2v3h-2zm3 0h1v1h-1zm34 0h1v1h-1zm4 0h1v1h-1zm41 0h1v1h-1zm16 0h1v1h-1zm4 0h1v1h-1zm29 0h1v1h-1zm47 0h1v1h-1z"/><path d="M312 56h2v4h-2zm3 0h1v1h-1zM56 57h1v1h-1zm3 0h1v4h-1zm1 0h1v1h-1zm72 0h1v1h-1zm4 0h1v1h-1zm34 0h1v1h-1zm4 0h1v1h-1zm41 0h1v1h-1zm16 0h1v1h-1zm1 0h2v1h-2zm3 0h1v1h-1zm29 0h3v7h-3zm47 0h1v1h-1zm4 0h1v1h-1zM56 58h1v1h-1zm1 0h2v1h-2zm3 0h1v1h-1zm1 0h1v1h-1zm71 0h1v1h-1zm4 0h1v1h-1zm34 0h1v1h-1zm3 0h1v1h-1zm1 0h1v1h-1zm41 0h1v1h-1zm17 0h1v1h-1zm3 0h1v7h-1zm1 0h1v1h-1zm27 0h1v1h-1zm47 0h1v1h-1z"/><path d="M311 58h3v2h-3zm3 0h1v1h-1zm1 0h1v1h-1zM57 59h1v1h-1zm3 0h1v4h-1zm1 0h1v1h-1zm71 0h1v1h-1zm1 0h3v1h-3zm3 0h1v5h-1zm1 0h1v1h-1zm32 0h1v1h-1zm1 0h2v4h-2zm3 0h1v1h-1zm41 0h1v1h-1zm1 0h4v3h-4zm17 0h1v1h-1zm4 0h1v1h-1zm27 0h1v1h-1zm47 0h1v1h-1zm4 0h1v1h-1zM57 60h1v1h-1z"/><path d="M58 60h3v1h-3zm3 0h1v4h-1zm1 0h1v1h-1zm71 0h1v1h-1zm1 0h2v1h-2zm3 0h1v1h-1zm32 0h1v1h-1zm4 0h1v1h-1zm16 0h1v1h-1zm25 0h1v1h-1zm18 0h1v1h-1zm4 0h1v1h-1zm27 0h1v1h-1zm46 0h1v1h-1zm1 0h3v2h-3zm3 0h1v1h-1zm1 0h1v1h-1zM58 61h1v1h-1zm1 0h2v1h-2zm3 0h1v1h-1zm1 0h1v1h-1zm70 0h1v1h-1zm1 0h3v1h-3zm3 0h1v5h-1zm1 0h1v1h-1zm30 0h1v1h-1zm1 0h3v2h-3zm3 0h1v1h-1zm1 0h1v1h-1zm12 0h1v1h-1zm4 0h1v1h-1zm24 0h1v1h-1zm1 0h1v1h-1zm18 0h1v1h-1zm1 0h2v1h-2zm3 0h1v1h-1zm1 0h1v1h-1zm25 0h1v1h-1zm1 0h4v3h-4zm45 0h1v1h-1zm1 0h1v1h-1zm4 0h1v1h-1zM58 62h1v1h-1zm1 0h1v1h-1zm3 0h1v3h-1zm1 0h1v1h-1zm1 0h1v1h-1zm70 0h1v1h-1zm4 0h1v1h-1zm30 0h1v1h-1zm4 0h1v1h-1zm13 0h1v1h-1zm4 0h1v1h-1zm24 0h1v1h-1zm1 0h5v1h-5zm19 0h1v1h-1zm1 0h2v2h-2zm2 0h1v5h-1zm1 0h1v1h-1zm25 0h1v1h-1zm46 0h1v1h-1zm1 0h3v1h-3zm3 0h1v1h-1zm1 0h1v1h-1zM59 63h1v1h-1z"/><path d="M60 63h3v1h-3zm3 0h1v3h-1zm1 0h1v1h-1zm1 0h1v1h-1zm36 0h1v1h-1zm1 0h1v1h-1zm32 0h1v1h-1zm1 0h3v1h-3zm3 0h1v4h-1zm1 0h1v1h-1zm28 0h1v1h-1zm1 0h3v1h-3zm3 0h1v1h-1zm1 0h1v1h-1zm14 0h2v1h-2zm3 0h1v1h-1zm23 0h1v1h-1zm1 0h1v1h-1zm1 0h1v2h-1zm1 0h4v1h-4zm18 0h1v1h-1zm4 0h1v1h-1zm24 0h1v1h-1zm1 0h1v1h-1zm45 0h1v1h-1zm1 0h3v2h-3zm3 0h1v1h-1zm1 0h1v1h-1zM60 64h1v1h-1z"/><path d="M61 64h3v1h-3zm3 0h1v3h-1zm1 0h1v1h-1zm1 0h1v1h-1zm33 0h1v1h-1zm1 0h1v1h-1zm1 0h1v3h-1zm1 0h1v2h-1zm1 0h1v1h-1zm16 0h1v1h-1zm16 0h1v1h-1zm1 0h2v1h-2zm3 0h1v1h-1zm1 0h1v1h-1zm26 0h1v1h-1zm1 0h1v1h-1zm1 0h2v2h-2zm2 0h1v1h-1zm1 0h1v1h-1zm15 0h1v1h-1zm1 0h2v2h-2zm2 0h1v6h-1zm1 0h1v1h-1zm21 0h1v1h-1zm1 0h1v1h-1zm1 0h1v2h-1zm2 0h1v1h-1zm1 0h1v1h-1zm17 0h1v1h-1zm1 0h3v1h-3zm3 0h1v4h-1zm1 0h1v1h-1zm23 0h1v1h-1zm1 0h5v1h-5zm44 0h1v1h-1zm1 0h1v1h-1zm4 0h1v1h-1zm1 0h1v1h-1zM61 65h1v1h-1z"/><path d="M62 65h3v1h-3zm3 0h1v3h-1zm1 0h1v1h-1zm1 0h1v1h-1zm31 0h1v1h-1zm1 0h1v1h-1zm1 0h3v1h-3zm3 0h1v1h-1zm1 0h1v1h-1zm11 0h1v1h-1zm4 0h1v1h-1zm16 0h1v1h-1zm1 0h1v1h-1zm3 0h1v3h-1zm1 0h1v1h-1zm1 0h1v1h-1zm24 0h1v1h-1zm1 0h1v1h-1zm1 0h2v2h-2zm3 0h1v1h-1zm1 0h1v1h-1zm15 0h1v1h-1zm4 0h1v1h-1zm21 0h1v1h-1zm1 0h2v1h-2zm2 0h1v1h-1zm1 0h1v1h-1zm1 0h1v7h-1zm18 0h1v1h-1zm1 0h3v1h-3zm3 0h1v4h-1zm1 0h1v1h-1zm21 0h1v1h-1zm1 0h2v2h-2zm2 0h4v1h-4zm42 0h1v1h-1zm1 0h1v1h-1zm1 0h3v1h-3zm3 0h1v1h-1zm1 0h1v1h-1zM62 66h1v1h-1z"/><path d="M63 66h4v1h-4zm4 0h1v3h-1zm1 0h1v1h-1zm29 0h1v1h-1zm1 0h4v1h-4zm4 0h1v1h-1zm1 0h1v1h-1zm12 0h1v1h-1zm4 0h1v1h-1zm17 0h1v1h-1zm1 0h3v1h-3zm3 0h1v3h-1zm1 0h1v1h-1zm1 0h1v1h-1zm22 0h1v1h-1zm1 0h1v1h-1zm1 0h3v1h-3zm3 0h1v1h-1zm1 0h1v1h-1zm16 0h1v1h-1zm1 0h2v1h-2zm3 0h1v1h-1zm1 0h1v1h-1zm19 0h1v1h-1zm1 0h2v1h-2zm2 0h1v1h-1zm1 0h1v1h-1zm20 0h1v1h-1zm1 0h1v1h-1zm4 0h1v1h-1zm1 0h1v1h-1zm19 0h1v1h-1zm1 0h1v1h-1zm3 0h1v1h-1zm1 0h1v1h-1zm40 0h1v1h-1zm1 0h1v1h-1zm1 0h3v1h-3zm3 0h1v1h-1zm1 0h1v1h-1zM63 67h1v1h-1z"/><path d="M64 67h4v1h-4zm4 0h1v2h-1zm1 0h1v1h-1zm1 0h1v1h-1zm25 0h1v1h-1zm1 0h1v1h-1zm1 0h4v1h-4zm4 0h1v1h-1zm1 0h1v1h-1zm14 0h3v1h-3zm3 0h1v4h-1zm1 0h1v1h-1zm17 0h1v1h-1zm1 0h3v1h-3zm3 0h1v2h-1zm1 0h1v1h-1zm1 0h1v1h-1zm20 0h1v1h-1zm1 0h1v1h-1zm1 0h3v1h-3zm3 0h1v1h-1zm1 0h1v1h-1zm18 0h1v1h-1zm3 0h1v3h-1zm1 0h1v1h-1zm17 0h1v1h-1zm1 0h1v1h-1zm1 0h2v1h-2zm2 0h1v1h-1zm1 0h1v1h-1zm1 0h1v1h-1zm21 0h1v1h-1zm1 0h3v1h-3zm3 0h1v3h-1zm1 0h1v1h-1zm1 0h1v1h-1zm17 0h1v1h-1zm1 0h1v1h-1zm1 0h2v1h-2zm2 0h1v1h-1zm1 0h1v1h-1zm1 0h1v5h-1zm39 0h1v1h-1zm1 0h4v1h-4zm4 0h1v1h-1zm1 0h1v1h-1zM64 68h1v1h-1z"/><path d="M65 68h5v1h-5zm5 0h1v2h-1zm1 0h1v1h-1zm1 0h1v1h-1zm20 0h1v1h-1zm1 0h1v1h-1zm1 0h1v1h-1zm1 0h4v1h-4zm4 0h1v1h-1zm1 0h1v1h-1zm1 0h1v1h-1zm15 0h1v1h-1zm1 0h2v1h-2zm3 0h1v1h-1zm18 0h1v1h-1zm1 0h4v1h-4zm4 0h1v3h-1zm1 0h1v1h-1zm1 0h1v1h-1zm16 0h1v1h-1zm1 0h1v1h-1zm1 0h4v1h-4zm4 0h1v1h-1zm1 0h1v1h-1zm19 0h1v1h-1zm1 0h3v1h-3zm3 0h1v3h-1zm1 0h1v1h-1zm15 0h1v1h-1zm1 0h1v1h-1zm1 0h2v1h-2zm2 0h1v1h-1zm1 0h1v1h-1zm1 0h1v1h-1zm23 0h1v1h-1zm1 0h3v1h-3zm3 0h1v3h-1zm1 0h1v1h-1zm1 0h1v1h-1zm15 0h1v1h-1zm1 0h3v1h-3zm3 0h1v1h-1zm1 0h1v1h-1zm22 0h1v1h-1zm1 0h1v1h-1zm16 0h1v1h-1zm1 0h1v1h-1zm1 0h4v1h-4zm4 0h1v1h-1zm1 0h1v1h-1zM65 69h1v1h-1zm1 0h1v1h-1z"/><path d="M67 69h5v1h-5zm5 0h1v2h-1zm1 0h1v1h-1zm1 0h1v1h-1zm1 0h1v1h-1zm14 0h1v1h-1zm1 0h1v1h-1zm1 0h1v1h-1zm1 0h1v1h-1zm1 0h5v1h-5zm5 0h1v1h-1zm1 0h1v1h-1zm1 0h1v1h-1zm16 0h1v1h-1zm1 0h3v1h-3zm3 0h1v3h-1zm1 0h1v1h-1zm1 0h1v1h-1zm17 0h1v1h-1zm1 0h5v1h-5zm5 0h1v2h-1zm1 0h1v1h-1zm1 0h1v1h-1zm12 0h1v1h-1zm1 0h1v1h-1zm1 0h4v1h-4zm4 0h1v1h-1zm1 0h1v1h-1zm1 0h1v1h-1zm20 0h1v1h-1zm1 0h1v1h-1zm4 0h1v3h-1zm1 0h1v1h-1zm1 0h1v1h-1zm11 0h1v1h-1zm1 0h1v1h-1zm1 0h3v1h-3zm3 0h1v1h-1zm1 0h1v1h-1zm1 0h1v1h-1zm25 0h1v1h-1zm1 0h4v1h-4zm4 0h1v3h-1zm1 0h1v1h-1zm1 0h1v1h-1zm11 0h1v1h-1zm1 0h1v1h-1zm1 0h3v1h-3zm3 0h1v1h-1zm1 0h1v1h-1zm1 0h1v1h-1zm22 0h2v1h-2zm2 0h1v1h-1zm1 0h1v1h-1zm12 0h1v1h-1zm1 0h1v1h-1zm1 0h5v1h-5zm5 0h1v1h-1zm1 0h1v1h-1zM67 70h1v1h-1zm1 0h1v1h-1z"/><path d="M69 70h6v1h-6zm6 0h1v2h-1zm1 0h1v1h-1zm1 0h1v1h-1zm1 0h1v1h-1zm1 0h6v1h-6zm6 0h1v1h-1zm1 0h1v1h-1zm1 0h1v1h-1zm1 0h1v1h-1zm1 0h7v1h-7zm7 0h1v1h-1zm1 0h1v1h-1zm1 0h1v1h-1zm19 0h1v1h-1zm1 0h4v1h-4zm4 0h1v2h-1zm1 0h1v1h-1zm1 0h1v1h-1zm1 0h1v1h-1zm15 0h1v1h-1zm1 0h1v1h-1zm1 0h5v1h-5zm5 0h1v2h-1zm1 0h1v1h-1zm1 0h1v1h-1zm1 0h1v1h-1zm1 0h4v1h-4zm4 0h1v1h-1zm1 0h1v1h-1zm1 0h1v1h-1zm1 0h1v1h-1zm1 0h5v1h-5zm5 0h1v1h-1zm1 0h1v1h-1zm1 0h1v1h-1zm22 0h1v1h-1zm1 0h5v1h-5zm5 0h1v3h-1zm1 0h1v1h-1zm1 0h1v1h-1zm1 0h4v1h-4zm4 0h1v1h-1zm1 0h1v1h-1zm1 0h1v1h-1zm1 0h1v1h-1zm1 0h4v1h-4zm4 0h1v1h-1zm1 0h1v1h-1zm1 0h1v1h-1zm27 0h1v1h-1zm1 0h5v1h-5zm5 0h1v2h-1zm1 0h1v1h-1zm1 0h1v1h-1zm1 0h1v1h-1zm1 0h3v1h-3zm3 0h1v1h-1zm1 0h1v1h-1zm1 0h1v1h-1zm1 0h1v1h-1zm1 0h4v1h-4zm4 0h1v1h-1zm1 0h1v1h-1zm1 0h1v1h-1zm22 0h1v1h-1zm1 0h3v1h-3zm3 0h1v2h-1zm1 0h1v1h-1zm1 0h1v1h-1zm1 0h1v1h-1zm1 0h4v1h-4zm4 0h1v1h-1zm1 0h1v1h-1zm1 0h1v1h-1zm1 0h1v1h-1zm1 0h5v1h-5zm5 0h1v1h-1zm1 0h1v1h-1zm1 0h1v1h-1zM68 71h1v1h-1zm1 0h1v1h-1zm1 0h1v1h-1z"/><path d="M71 71h23v1H71zm23 0h1v1h-1zm1 0h1v1h-1zm1 0h1v1h-1zm21 0h1v1h-1zm1 0h1v1h-1zm1 0h5v1h-5zm5 0h1v1h-1zm1 0h1v1h-1zm16 0h1v1h-1zm1 0h1v1h-1zm1 0h19v1h-19zm19 0h1v1h-1zm1 0h1v1h-1zm1 0h1v1h-1zm25 0h1v1h-1zm1 0h1v1h-1zm1 0h17v1h-17zm17 0h1v1h-1zm1 0h1v1h-1zm30 0h1v1h-1zm1 0h18v1h-18zm18 0h1v1h-1zm1 0h1v1h-1zm24 0h1v1h-1zm1 0h19v1h-19zm19 0h1v1h-1zm1 0h1v1h-1zm1 0h1v1h-1zM70 72h1v1h-1zm1 0h1v1h-1zm1 0h1v1h-1zm1 0h18v1H73zm18 0h1v1h-1zm1 0h1v1h-1zm1 0h1v1h-1zm1 0h1v1h-1zm24 0h1v1h-1zm1 0h1v1h-1zm1 0h4v1h-4zm4 0h1v1h-1zm1 0h1v1h-1zm18 0h1v1h-1zm1 0h1v1h-1zm1 0h1v1h-1zm1 0h14v1h-14zm14 0h1v1h-1zm1 0h1v1h-1zm1 0h1v1h-1zm1 0h1v1h-1zm27 0h1v1h-1zm1 0h1v1h-1zm1 0h14v1h-14zm14 0h1v1h-1zm1 0h1v1h-1zm1 0h1v1h-1zm8 0h1v1h-1zm1 0h2v1h-2zm2 0h1v1h-1zm21 0h1v1h-1zm1 0h1v1h-1zm1 0h14v1h-14zm14 0h1v1h-1zm1 0h1v1h-1zm1 0h1v1h-1zm6 0h1v1h-1zm1 0h2v1h-2zm2 0h1v1h-1zm16 0h1v1h-1zm1 0h1v1h-1zm1 0h16v1h-16zm16 0h1v1h-1zm1 0h1v1h-1zm1 0h1v1h-1zM73 73h1v1h-1zm1 0h1v1h-1zm1 0h1v1h-1zm1 0h12v1H76zm12 0h1v1h-1zm1 0h1v1h-1zm1 0h1v1h-1zm1 0h1v1h-1zm29 0h1v1h-1zm1 0h1v1h-1zm1 0h2v1h-2zm2 0h1v1h-1zm1 0h1v1h-1zm20 0h1v1h-1zm1 0h1v1h-1zm1 0h1v1h-1zm1 0h9v1h-9zm9 0h1v1h-1zm1 0h1v1h-1zm1 0h1v1h-1zm1 0h1v1h-1zm1 0h1v1h-1zm31 0h1v1h-1zm1 0h1v1h-1zm1 0h9v1h-9zm9 0h1v1h-1zm1 0h1v1h-1zm1 0h1v1h-1zm1 0h1v1h-1zm10 0h1v1h-1zm1 0h2v1h-2zm2 0h1v1h-1zm23 0h1v1h-1zm1 0h1v1h-1zm1 0h1v1h-1zm1 0h8v1h-8zm8 0h1v1h-1zm1 0h1v1h-1zm1 0h1v1h-1zm1 0h1v1h-1zm8 0h1v1h-1zm1 0h2v1h-2zm2 0h1v1h-1zm18 0h1v1h-1zm1 0h1v1h-1zm1 0h1v1h-1zm1 0h10v1h-10zm10 0h1v1h-1zm1 0h1v1h-1zm1 0h1v1h-1zm1 0h1v1h-1zM77 74h1v1h-1zm1 0h1v1h-1zm1 0h1v1h-1zm1 0h4v1h-4zm4 0h1v1h-1zm1 0h1v1h-1zm1 0h1v1h-1zm1 0h1v1h-1zm62 0h1v1h-1zm1 0h1v1h-1zm1 0h4v1h-4zm4 0h1v1h-1zm1 0h1v1h-1zm1 0h1v1h-1zm38 0h1v1h-1zm1 0h1v1h-1zm1 0h4v1h-4zm4 0h1v1h-1zm1 0h1v1h-1zm1 0h1v1h-1zm42 0h1v1h-1zm1 0h1v1h-1zm1 0h4v1h-4zm4 0h1v1h-1zm1 0h1v1h-1zm1 0h1v1h-1zm36 0h1v1h-1zm1 0h1v1h-1zm1 0h4v1h-4zm4 0h1v1h-1zm1 0h1v1h-1zm1 0h1v1h-1z"/></g><g fill="red02f"><path d="M13 1h1v1h-1zm1 0h1v1h-1zm1 0h1v1h-1zm-2 1h1v1h-1zm1 0h2v5h-2zm2 0h1v3h-1zm1 0h1v1h-1zm1 0h1v1h-1zm1 0h1v1h-1zm-7 1h1v1h-1z"/><path d="M13 3h4v2h-4zm4 0h1v1h-1zm1 0h1v1h-1zm1 0h1v1h-1zm-7 1h1v1h-1zm5 0h1v1h-1zm1 0h1v1h-1zm-7 1h1v1h-1zm1 0h4v2h-4zm4 0h1v1h-1zm1 0h1v1h-1zm-7 1h1v1h-1zm1 0h1v1h-1zm5 0h1v1h-1zm1 0h1v1h-1zm-7 1h1v1h-1zm1 0h4v2h-4zm4 0h1v1h-1zm1 0h1v1h-1zM9 8h1v1H9zm1 0h1v1h-1zm5 0h1v1h-1zm1 0h1v1h-1zM9 9h1v1H9zm1 0h4v2h-4zm4 0h1v1h-1zm1 0h1v1h-1zm-7 1h1v1H8zm1 0h1v1H9zm5 0h1v1h-1zm-6 1h1v1H8zm1 0h4v2H9zm4 0h1v1h-1zm1 0h1v1h-1zm-7 1h1v1H7zm1 0h1v1H8zm5 0h1v1h-1zm24 0h1v1h-1zm1 0h1v1h-1zM7 13h1v1H7zm1 0h4v3H8zm4 0h1v1h-1zm1 0h1v1h-1zm24 0h1v1h-1zm1 0h1v7h-1zm1 0h1v5h-1zm1 0h1v1h-1zm1 0h1v1h-1zm1 0h1v1h-1zM7 14h1v1H7zm5 0h1v1h-1zm1 0h1v1h-1zm23 0h1v1h-1z"/><path d="M37 14h4v2h-4zm4 0h1v1h-1zm1 0h1v1h-1zM6 15h1v1H6zm1 0h4v3H7zm5 0h1v1h-1zm24 0h1v1h-1zm5 0h1v1h-1zm1 0h1v1h-1zM6 16h1v1H6zm5 0h1v1h-1zm1 0h1v1h-1zm23 0h1v1h-1zm1 0h4v2h-4zm4 0h1v1h-1zm1 0h1v1h-1zM5 17h1v1H5z"/><path d="M6 17h4v4H6zm5 0h1v1h-1zm23 0h1v1h-1zm1 0h1v1h-1zm5 0h1v1h-1zm1 0h1v1h-1zM5 18h1v1H5zm5 0h1v1h-1zm1 0h1v1h-1zm23 0h1v1h-1zm1 0h4v2h-4zm4 0h1v1h-1zm1 0h1v1h-1zM5 19h1v1H5zm5 0h1v1h-1zm23 0h1v1h-1zm1 0h1v1h-1zm5 0h1v1h-1zM4 20h1v1H4z"/><path d="M5 20h4v5H5zm5 0h1v1h-1zm23 0h1v1h-1zm1 0h4v2h-4zm4 0h1v1h-1zm1 0h1v1h-1zM4 21h1v1H4zm5 0h1v1H9zm1 0h1v1h-1zm23 0h1v1h-1zm5 0h1v1h-1zM4 22h1v1H4zm5 0h1v1H9zm23 0h1v1h-1zm1 0h4v3h-4zm4 0h1v1h-1zm1 0h1v1h-1zM3 23h1v1H3z"/><path d="M4 23h4v7H4zm5 0h1v1H9zm23 0h1v1h-1zm5 0h1v1h-1zM3 24h1v1H3zm6 0h1v1H9zm22 0h1v1h-1zm1 0h4v4h-4zm5 0h1v1h-1zM3 25h1v1H3zm5 0h1v1H8zm1 0h1v1H9zm22 0h1v1h-1zm5 0h1v1h-1zm1 0h1v1h-1zM3 26h1v1H3zm5 0h1v1H8zm22 0h1v1h-1z"/><path d="M31 26h4v6h-4zm5 0h1v1h-1zM3 27h4v30H3zm5 0h1v1H8zm22 0h1v1h-1zm6 0h1v1h-1zM2 28h1v1H2zm6 0h1v1H8zm22 0h1v1h-1zm5 0h1v1h-1zm1 0h1v1h-1zM2 29h1v1H2zm6 0h1v1H8z"/><path d="M30 29h4v26h-4zm5 0h1v1h-1zM2 30h1v1H2zm5 0h1v1H7zm22 0h1v1h-1zm6 0h1v1h-1zM2 31h1v1H2zm5 0h1v1H7zm22 0h1v1h-1zm6 0h1v1h-1zM2 32h1v1H2zm5 0h1v1H7zm22 0h1v1h-1zm5 0h1v1h-1zM2 33h4v19H2zm5 0h1v1H7zm22 0h1v1h-1zm5 0h1v1h-1zM1 34h1v1H1zm6 0h1v1H7z"/><path d="M29 34h4v16h-4zm5 0h1v1h-1zM1 35h1v1H1zm6 0h1v1H7zm21 0h1v1h-1zm6 0h1v1h-1zM1 36h1v1H1zm6 0h1v1H7zm21 0h1v1h-1zm6 0h1v1h-1zM1 37h1v1H1zm6 0h1v1H7zm21 0h1v1h-1zm6 0h1v1h-1zM1 38h1v8H1zm27 0h1v8h-1zm6 0h1v1h-1zM1 46h1v1H1zm27 0h1v1h-1zM1 47h1v1H1zm6 0h1v1H7zm21 0h1v1h-1zm6 0h1v1h-1zM1 48h1v1H1zm6 0h1v1H7zm21 0h1v1h-1zm6 0h1v1h-1zM1 49h1v1H1zm6 0h1v1H7zm21 0h1v1h-1zm6 0h1v1h-1zM1 50h1v1H1zm6 0h1v1H7zm22 0h4v1h-4zm5 0h1v1h-1zM7 51h1v1H7zm22 0h1v1h-1zm5 0h1v1h-1zM2 52h4v1H2zm5 0h1v1H7zm22 0h1v1h-1zm5 0h1v1h-1zM2 53h1v1H2zm5 0h1v1H7zm22 0h1v1h-1zm5 0h1v12h-1zm1 0h1v1h-1zM2 54h1v1H2zm5 0h1v16H7zm22 0h1v1h-1zm6 0h1v1h-1zM2 55h1v1H2zm6 0h1v1H8zm21 0h1v1h-1zm1 0h4v1h-4zm5 0h1v1h-1zM2 56h1v1H2zm6 0h1v1H8zm22 0h1v1h-1zm1 0h3v2h-3zm4 0h1v1h-1zM2 57h1v1H2zm1 0h4v1H3zm5 0h1v1H8zm22 0h1v1h-1zm5 0h1v10h-1zm1 0h1v1h-1zM3 58h1v1H3zm1 0h3v3H4zm4 0h1v1H8zm22 0h1v1h-1z"/><path d="M31 58h4v1h-4zm5 0h1v1h-1zM3 59h1v1H3zm5 0h1v13H8zm1 0h1v1H9zm22 0h1v1h-1zm1 0h3v2h-3zm4 0h1v1h-1zM3 60h1v1H3zm6 0h1v1H9zm22 0h1v1h-1zm5 0h1v9h-1zm1 0h1v1h-1zM3 61h1v1H3zm1 0h4v1H4zm5 0h1v1H9zm22 0h1v1h-1zm1 0h4v1h-4zm5 0h1v1h-1zM4 62h1v1H4zm1 0h3v2H5zm4 0h1v1H9zm23 0h1v1h-1z"/><path d="M33 62h4v1h-4zm4 0h1v8h-1zm1 0h1v1h-1zM4 63h1v1H4zm5 0h1v11H9zm1 0h1v1h-1zm22 0h1v1h-1zm1 0h4v1h-4zm5 0h1v1h-1zM4 64h1v1H4zm1 0h4v1H5zm5 0h1v1h-1zm23 0h1v1h-1zm5 0h1v8h-1zm1 0h1v1h-1zM5 65h1v1H5zm1 0h3v2H6zm4 0h1v1h-1zm23 0h1v1h-1z"/><path d="M34 65h4v1h-4zm5 0h1v1h-1zM5 66h1v1H5zm5 0h1v10h-1zm1 0h1v1h-1zm23 0h1v1h-1zm5 0h1v8h-1zm1 0h1v1h-1zM5 67h1v1H5zm1 0h4v1H6zm5 0h1v1h-1zm23 0h1v1h-1zm1 0h4v1h-4zm5 0h1v1h-1zM6 68h1v1H6zm5 0h1v10h-1zm1 0h1v1h-1zm23 0h1v1h-1zm5 0h1v6h-1zm1 0h1v1h-1zM6 69h1v1H6zm6 0h1v1h-1zm23 0h1v1h-1z"/><path d="M36 69h4v1h-4zm5 0h1v1h-1zm1 0h1v1h-1zM6 70h1v1H6zm1 0h4v1H7zm5 0h1v1h-1zm24 0h1v1h-1zm1 0h4v1h-4zm4 0h1v4h-1zm1 0h1v1h-1zM7 71h1v1H7zm5 0h1v9h-1zm1 0h1v1h-1zm23 0h1v1h-1zm1 0h1v1h-1zm5 0h1v3h-1zm1 0h1v1h-1zM7 72h1v1H7zm1 0h4v1H8zm5 0h1v1h-1zm24 0h1v1h-1z"/><path d="M38 72h4v1h-4zm5 0h1v1h-1zm1 0h1v1h-1zM8 73h1v1H8zm5 0h1v8h-1zm1 0h1v1h-1zm24 0h1v1h-1zm5 0h1v1h-1zm1 0h1v1h-1zM8 74h1v1H8zm1 0h4v1H9zm5 0h1v1h-1zm24 0h1v1h-1zm1 0h3v1h-3zm3 0h1v1h-1zm1 0h1v1h-1zm1 0h1v1h-1zM9 75h1v1H9zm5 0h1v8h-1zm1 0h1v1h-1zm24 0h1v1h-1zm1 0h1v1h-1zm1 0h1v1h-1zM9 76h1v1H9z"/><path d="M10 76h4v1h-4zm5 0h1v1h-1zm-5 1h1v1h-1zm5 0h1v8h-1zm1 0h1v1h-1zm-6 1h1v1h-1zm1 0h4v1h-4zm5 0h1v1h-1zm1 0h1v1h-1zm-6 1h1v1h-1zm5 0h1v6h-1zm1 0h1v1h-1zm-6 1h1v1h-1z"/><path d="M12 80h5v1h-5zm5 0h1v5h-1zm1 0h1v1h-1zm-6 1h1v1h-1zm1 0h4v1h-4zm5 0h1v1h-1zm-6 1h1v1h-1zm1 0h1v1h-1zm5 0h1v3h-1zm1 0h1v1h-1zm-6 1h1v1h-1z"/><path d="M14 83h5v1h-5zm5 0h1v2h-1zm1 0h1v1h-1zm-6 1h1v1h-1zm6 0h1v1h-1zm-6 1h1v1h-1zm1 0h4v1h-4zm4 0h1v1h-1zm1 0h1v1h-1zm1 0h1v1h-1zm-6 1h1v1h-1zm1 0h1v1h-1zm1 0h1v1h-1zm1 0h1v1h-1zm1 0h1v1h-1z"/></g></svg>