<svg xmlns="http://www.w3.org/2000/svg" role="img" viewBox="-14.39 -14.39 748.28 535.78"><title>Cloud Service Certification logo</title><style>svg {enable-background:new 0 0 720 507.29}</style><style>.st0{fill:#f05323}.st1{fill:#19bfd2}.st2{fill:#8ed5e1}.st3{fill:#b4e2ea}.st4{fill:#6ccbdb}</style><path d="M89.19 488.88c-.81-.58-1.72-.83-2.74-.74-1.01.09-1.84.51-2.48 1.26-1.22 1.39-2.58 2.59-4.08 3.6-1.51 1.01-3.13 1.78-4.87 2.3-1.74.52-3.53.78-5.39.78-5.27 0-9.79-1.97-13.55-5.91-3.77-3.94-5.65-8.69-5.65-14.25 0-5.56 1.88-10.31 5.65-14.25 3.76-3.94 8.28-5.91 13.55-5.91 5.39 0 9.96 2 13.73 5.99.7.75 1.52 1.16 2.48 1.22.96.06 1.81-.23 2.56-.87l3.04-2.35c.87-.69 1.33-1.59 1.39-2.69.11-1.1-.2-2.05-.96-2.87-2.95-3.07-6.34-5.43-10.16-7.08-3.82-1.65-7.85-2.48-12.08-2.48-5.56 0-10.7 1.39-15.42 4.17-4.72 2.78-8.46 6.58-11.21 11.38-2.75 4.81-4.13 10.05-4.13 15.73s1.38 10.92 4.13 15.72c2.75 4.81 6.49 8.6 11.21 11.38 4.72 2.78 9.86 4.17 15.42 4.17 4.4 0 8.62-.91 12.64-2.74 4.03-1.82 7.52-4.42 10.47-7.78.64-.81.93-1.74.87-2.78-.12-1.04-.61-1.91-1.48-2.61l-2.94-2.39zm16.85-43.19c-1.04 0-1.93.36-2.65 1.09-.73.72-1.09 1.61-1.09 2.65v52.91c0 1.04.36 1.93 1.09 2.65.72.73 1.61 1.09 2.65 1.09h31.36c1.04 0 1.94-.36 2.69-1.09.75-.72 1.13-1.61 1.13-2.65v-3.74c0-1.04-.38-1.94-1.13-2.69-.75-.75-1.65-1.13-2.69-1.13h-22.94c-.58 0-.87-.29-.87-.87v-6.34c0-.58.29-.87.87-.87h17.46c1.04 0 1.94-.36 2.69-1.09.75-.72 1.13-1.61 1.13-2.65v-3.74c0-1.04-.38-1.94-1.13-2.69-.75-.75-1.65-1.13-2.69-1.13h-17.46c-.58 0-.87-.29-.87-.87v-16.68c0-.58.29-.87.87-.87h22.94c1.04 0 1.94-.38 2.69-1.13.75-.75 1.13-1.65 1.13-2.69v-3.74c0-1.04-.38-1.92-1.13-2.65-.75-.72-1.65-1.09-2.69-1.09h-31.36v.01zm47.52 0c-1.04 0-1.93.36-2.65 1.09-.72.72-1.09 1.61-1.09 2.65v52.91c0 1.04.36 1.93 1.09 2.65.72.73 1.61 1.09 2.65 1.09h3.74c1.04 0 1.94-.36 2.69-1.09.75-.72 1.13-1.61 1.13-2.65v-8.95c0-.58.29-.87.87-.87h7.22c.35 0 .61.12.78.35l8.25 11.64c.75 1.04 1.77 1.56 3.04 1.56h4.6c1.33 0 2.37-.46 3.13-1.39 1.16-1.51 1.19-3.01.09-4.52l-7.65-10.77c-.29-.52-.2-.93.26-1.22 3.07-2.2 5.46-4.98 7.17-8.34 1.71-3.36 2.56-6.92 2.56-10.69v-1.13c0-6.14-2.19-11.39-6.56-15.77-4.37-4.37-9.66-6.56-15.86-6.56h-15.46v.01zm26.59 24.07c0 3.48-1.25 6.46-3.74 8.95-2.49 2.49-5.47 3.74-8.95 3.74h-5.47c-.58 0-.87-.29-.87-.87v-24.93c0-.58.29-.87.87-.87h6.08c3.36 0 6.21 1.19 8.56 3.56 2.35 2.38 3.52 5.21 3.52 8.52v1.9zm21.03-24.07c-1.04 0-1.93.36-2.65 1.09-.73.72-1.09 1.61-1.09 2.65v3.48c0 1.04.36 1.94 1.09 2.69.72.75 1.61 1.13 2.65 1.13h13.03c.58 0 .87.29.87.87v44.74c0 1.04.38 1.93 1.13 2.65.75.73 1.65 1.09 2.69 1.09h3.74c1.04 0 1.93-.36 2.65-1.09.72-.72 1.09-1.61 1.09-2.65V457.6c0-.58.29-.87.87-.87h13.03c1.04 0 1.94-.38 2.69-1.13.75-.75 1.13-1.65 1.13-2.69v-3.48c0-1.04-.38-1.92-1.13-2.65-.75-.72-1.65-1.09-2.69-1.09h-39.1zm59.6 0c-1.04 0-1.93.36-2.65 1.09-.73.72-1.09 1.61-1.09 2.65v52.91c0 1.04.36 1.93 1.09 2.65.72.73 1.61 1.09 2.65 1.09h3.82c.64 0 1.24-.16 1.83-.48.58-.32 1.04-.77 1.39-1.35.35-.58.52-1.22.52-1.91v-52.91c0-1.04-.38-1.92-1.13-2.65-.75-.72-1.62-1.09-2.61-1.09h-3.82zm24.41 0c-1.04 0-1.94.36-2.69 1.09-.75.72-1.13 1.61-1.13 2.65v52.91c0 1.04.38 1.93 1.13 2.65.75.73 1.65 1.09 2.69 1.09h3.65c1.04 0 1.94-.36 2.69-1.09.75-.72 1.13-1.61 1.13-2.65v-14.77c0-.58.29-.87.87-.87h17.46c1.04 0 1.94-.38 2.69-1.13.75-.75 1.13-1.65 1.13-2.69v-3.65c0-1.04-.38-1.94-1.13-2.69-.75-.75-1.65-1.13-2.69-1.13h-17.46c-.58 0-.87-.29-.87-.87v-16.68c0-.58.29-.87.87-.87h22.94c1.04 0 1.94-.38 2.69-1.13.75-.75 1.13-1.65 1.13-2.69v-3.74c0-.64-.17-1.26-.52-1.87-.35-.61-.81-1.07-1.39-1.39-.58-.32-1.22-.48-1.91-.48h-31.28zm51.87 0c-1.04 0-1.93.36-2.65 1.09-.73.72-1.09 1.61-1.09 2.65v52.91c0 1.04.36 1.93 1.09 2.65.72.73 1.61 1.09 2.65 1.09h3.82c.64 0 1.24-.16 1.82-.48.58-.32 1.04-.77 1.39-1.35.35-.58.52-1.22.52-1.91v-52.91c0-1.04-.38-1.92-1.13-2.65-.75-.72-1.62-1.09-2.61-1.09h-3.81zm70.89 43.19c-.81-.58-1.72-.83-2.74-.74-1.01.09-1.84.51-2.48 1.26-1.22 1.39-2.58 2.59-4.08 3.6-1.51 1.01-3.13 1.78-4.87 2.3-1.74.52-3.53.78-5.39.78-5.27 0-9.79-1.97-13.55-5.91-3.77-3.94-5.65-8.69-5.65-14.25 0-5.56 1.88-10.31 5.65-14.25 3.76-3.94 8.28-5.91 13.55-5.91 5.39 0 9.96 2 13.73 5.99.7.75 1.52 1.16 2.48 1.22.95.06 1.81-.23 2.56-.87l3.04-2.35c.87-.69 1.33-1.59 1.39-2.69.12-1.1-.2-2.05-.96-2.87-2.95-3.07-6.34-5.43-10.17-7.08-3.82-1.65-7.85-2.48-12.08-2.48-5.56 0-10.7 1.39-15.42 4.17-4.72 2.78-8.46 6.58-11.21 11.38-2.75 4.81-4.13 10.05-4.13 15.73s1.38 10.92 4.13 15.72c2.75 4.81 6.49 8.6 11.21 11.38 4.72 2.78 9.86 4.17 15.42 4.17 4.4 0 8.62-.91 12.64-2.74 4.03-1.82 7.52-4.42 10.47-7.78.64-.81.93-1.74.87-2.78-.12-1.04-.61-1.91-1.48-2.61l-2.93-2.39zm40.71-45.7c-.84 0-1.43.38-1.78 1.13l-25.46 56.3c-.75 1.68-.43 3.16.96 4.43.7.69 1.62 1.04 2.78 1.04h3.65c1.74 0 2.95-.81 3.65-2.43l2.52-6c.12-.4.38-.61.78-.61h25.8c.35 0 .61.2.78.61l2.52 6c.64 1.62 1.85 2.43 3.65 2.43h3.56c1.16 0 2.11-.35 2.87-1.04 1.33-1.27 1.65-2.75.96-4.43l-25.46-56.3c-.35-.76-.94-1.13-1.78-1.13zm-8.13 43.09c-.23 0-.39-.09-.48-.26-.09-.17-.1-.35-.04-.52l8.08-18.85c.11-.23.29-.35.52-.35.23 0 .38.12.43.35l8.17 18.85c.11.17.11.35 0 .52-.12.17-.26.26-.43.26h-16.25zm40.23-40.58c-1.04 0-1.93.36-2.65 1.09-.72.72-1.09 1.61-1.09 2.65v3.48c0 1.04.36 1.94 1.09 2.69.72.75 1.61 1.13 2.65 1.13h13.03c.58 0 .87.29.87.87v44.74c0 1.04.38 1.93 1.13 2.65.75.73 1.65 1.09 2.69 1.09h3.74c1.04 0 1.93-.36 2.65-1.09.72-.72 1.09-1.61 1.09-2.65V457.6c0-.58.29-.87.87-.87h13.03c1.04 0 1.94-.38 2.69-1.13.75-.75 1.13-1.65 1.13-2.69v-3.48c0-1.04-.38-1.92-1.13-2.65-.75-.72-1.65-1.09-2.69-1.09h-39.1zm59.6 0c-1.04 0-1.93.36-2.65 1.09-.72.72-1.09 1.61-1.09 2.65v52.91c0 1.04.36 1.93 1.09 2.65.72.73 1.61 1.09 2.65 1.09h3.82c.64 0 1.24-.16 1.82-.48.58-.32 1.04-.77 1.39-1.35.35-.58.52-1.22.52-1.91v-52.91c0-1.04-.38-1.92-1.13-2.65-.75-.72-1.62-1.09-2.61-1.09h-3.81zm24.8 14.51c-2.81 4.81-4.21 10.05-4.21 15.73s1.4 10.92 4.21 15.72c2.81 4.81 6.62 8.6 11.43 11.38 4.81 2.78 10.04 4.17 15.68 4.17 5.65 0 10.87-1.39 15.68-4.17 4.81-2.78 8.61-6.57 11.43-11.38 2.81-4.81 4.21-10.05 4.21-15.72 0-5.68-1.41-10.92-4.21-15.73-2.81-4.81-6.62-8.6-11.43-11.38-4.81-2.78-10.04-4.17-15.68-4.17-5.65 0-10.88 1.39-15.68 4.17-4.81 2.78-8.62 6.58-11.43 11.38zm27.07 35.89c-5.39 0-9.99-1.97-13.81-5.91-3.82-3.94-5.74-8.69-5.74-14.25 0-5.56 1.91-10.31 5.74-14.25 3.82-3.94 8.43-5.91 13.81-5.91 5.39 0 10 1.97 13.86 5.91 3.85 3.94 5.78 8.69 5.78 14.25 0 5.56-1.93 10.31-5.78 14.25-3.86 3.94-8.48 5.91-13.86 5.91zm81.32-50.31c-1.04 0-1.93.38-2.65 1.13-.72.75-1.09 1.65-1.09 2.69v29.71c0 .35-.19.61-.56.78-.38.17-.68.12-.91-.17l-33.28-35.1c-.52-.52-1.12-.64-1.78-.35-.67.29-1 .78-1 1.48v56.3c0 1.04.36 1.94 1.09 2.69.72.75 1.61 1.13 2.65 1.13h3.74c1.04 0 1.94-.38 2.69-1.13.75-.75 1.13-1.65 1.13-2.69v-29.89c0-.4.17-.68.52-.83.35-.14.67-.07.96.22l33.19 35.01c.35.35.75.52 1.22.52.23 0 .44-.06.61-.17.69-.23 1.04-.72 1.04-1.48V449.6c0-1.04-.38-1.94-1.13-2.69-.75-.75-1.65-1.13-2.69-1.13h-3.75z" class="st0"/><path d="M50.31 401.99c-.81-.58-1.72-.83-2.74-.74-1.01.09-1.84.51-2.48 1.26-1.22 1.39-2.58 2.59-4.08 3.6-1.51 1.02-3.13 1.78-4.87 2.3-1.74.52-3.53.78-5.39.78-5.27 0-9.79-1.97-13.55-5.91-3.77-3.94-5.65-8.69-5.65-14.25 0-5.56 1.88-10.31 5.65-14.25 3.76-3.94 8.28-5.91 13.55-5.91 5.39 0 9.96 2 13.73 5.99.7.75 1.52 1.16 2.48 1.22.96.06 1.81-.23 2.56-.87l3.04-2.35c.87-.69 1.33-1.59 1.39-2.69.12-1.1-.2-2.05-.96-2.87-2.95-3.07-6.34-5.43-10.17-7.08-3.82-1.65-7.85-2.48-12.08-2.48-5.56 0-10.7 1.39-15.42 4.17-4.72 2.78-8.46 6.57-11.21 11.38C1.38 378.13 0 383.37 0 389.05s1.38 10.92 4.13 15.73c2.75 4.81 6.49 8.6 11.21 11.38 4.72 2.78 9.86 4.17 15.42 4.17 4.4 0 8.61-.91 12.64-2.74 4.03-1.83 7.52-4.42 10.47-7.78.64-.81.93-1.74.87-2.78-.12-1.04-.61-1.91-1.48-2.61l-2.95-2.43zm25.8 5.91c-.41 0-.74-.13-1-.39s-.39-.59-.39-1v-43.96c0-.52-.1-1.01-.3-1.48-.2-.46-.48-.87-.83-1.22s-.75-.61-1.22-.78c-.46-.17-.93-.26-1.39-.26h-3.82c-1.04 0-1.93.36-2.65 1.09-.72.72-1.09 1.61-1.09 2.65v52.91c0 1.04.36 1.93 1.09 2.65.72.73 1.61 1.09 2.65 1.09H96.7c1.04 0 1.93-.36 2.65-1.09.72-.72 1.09-1.61 1.09-2.65v-3.74c0-1.04-.36-1.94-1.09-2.69-.72-.75-1.61-1.13-2.65-1.13H76.11zm37.23-34.58c-2.81 4.81-4.21 10.05-4.21 15.73s1.4 10.92 4.21 15.73c2.81 4.81 6.62 8.6 11.42 11.38 4.81 2.78 10.04 4.17 15.68 4.17 5.65 0 10.87-1.39 15.68-4.17 4.81-2.78 8.62-6.57 11.43-11.38 2.81-4.81 4.21-10.05 4.21-15.73s-1.41-10.92-4.21-15.73c-2.81-4.81-6.62-8.6-11.43-11.38-4.81-2.78-10.04-4.17-15.68-4.17-5.65 0-10.88 1.39-15.68 4.17-4.81 2.78-8.61 6.57-11.42 11.38zm27.06 35.88c-5.39 0-9.99-1.97-13.81-5.91-3.82-3.94-5.74-8.69-5.74-14.25 0-5.56 1.91-10.31 5.74-14.25 3.82-3.94 8.43-5.91 13.81-5.91s10.01 1.97 13.86 5.91c3.85 3.94 5.78 8.69 5.78 14.25 0 5.56-1.93 10.31-5.78 14.25-3.85 3.95-8.47 5.91-13.86 5.91zm79.24-50.39c-1.04 0-1.94.36-2.69 1.09-.75.72-1.13 1.61-1.13 2.65v35.54c0 2.95-1.04 5.47-3.13 7.56-2.08 2.09-4.6 3.13-7.56 3.13h-3.04c-2.95 0-5.47-1.04-7.56-3.13s-3.13-4.6-3.13-7.56v-35.54c0-1.04-.38-1.93-1.13-2.65-.75-.72-1.65-1.09-2.69-1.09h-3.39c-.99 0-1.85.36-2.61 1.09-.75.72-1.13 1.61-1.13 2.65v35.8c0 5.73 2.04 10.64 6.12 14.73 4.08 4.08 9.02 6.12 14.81 6.12h4.43c5.79 0 10.73-2.04 14.81-6.12s6.12-8.99 6.12-14.73v-35.8c0-1.04-.38-1.93-1.13-2.65-.75-.72-1.65-1.09-2.69-1.09h-3.28zm23.71 0c-.99 0-1.85.36-2.61 1.09-.75.72-1.13 1.61-1.13 2.65v52.91c0 1.04.38 1.93 1.13 2.65.75.73 1.62 1.09 2.61 1.09h15.73c5.27 0 10.14-1.29 14.6-3.87 4.46-2.58 7.98-6.09 10.56-10.56 2.58-4.46 3.87-9.33 3.87-14.6v-2.34c0-5.27-1.29-10.14-3.87-14.6-2.58-4.46-6.1-7.98-10.56-10.56-4.46-2.58-9.33-3.87-14.6-3.87h-15.73v.01zm33.72 30.93c0 5.5-1.96 10.21-5.87 14.12-3.91 3.91-8.62 5.86-14.12 5.86h-5.3c-.58 0-.87-.32-.87-.96v-39.53c0-.64.29-.96.87-.96h3.91c5.91 0 10.95 2.09 15.12 6.26s6.26 9.21 6.26 15.12v.09zm74.54-5.91c-3.13-1.27-5.36-2.32-6.69-3.13-4.52-2.66-6.4-5.36-5.65-8.08.4-1.27 1.19-2.37 2.35-3.3 1.16-.93 2.2-1.42 3.13-1.48 2.32-.12 4.13.03 5.43.43 1.3.41 2.79 1.39 4.48 2.95.69.64 1.51.97 2.43 1 .93.03 1.77-.22 2.52-.74l2.35-1.83c.93-.7 1.42-1.64 1.48-2.82.06-1.19-.35-2.19-1.22-3-4.63-4.4-10.43-6.6-17.38-6.6-3.53 0-6.75 1.14-9.64 3.43-2.9 2.29-4.87 5.29-5.91 8.99-.64 2.03-.85 3.97-.65 5.82.2 1.85.58 3.5 1.13 4.95.55 1.45 1.37 2.82 2.48 4.13 1.1 1.3 2.2 2.4 3.3 3.3 1.1.9 2.31 1.72 3.65 2.48 1.79 1.1 4.52 2.4 8.17 3.91 4.17 1.68 6.86 3.07 8.08 4.17 1.22 1.1 1.71 2.75 1.48 4.95-.12 1.51-.57 2.79-1.35 3.87-.78 1.07-1.74 1.81-2.87 2.22-1.13.41-2.08.68-2.87.83-.78.15-1.55.22-2.3.22-4.58 0-8.66-2.08-12.25-6.26-.64-.75-1.45-1.19-2.43-1.3-.98-.11-1.88.09-2.69.61l-2.26 1.65c-.93.64-1.45 1.48-1.56 2.52-.17 1.1.06 2.09.7 2.95 1.45 1.91 3.04 3.56 4.78 4.95 1.74 1.39 3.27 2.42 4.6 3.08 1.33.67 2.84 1.17 4.52 1.52 1.68.35 2.91.55 3.69.61.78.06 1.72.09 2.82.09 1.22 0 2.58-.13 4.08-.39 1.51-.26 3.2-.78 5.08-1.56s3.61-1.75 5.17-2.91c1.56-1.16 2.94-2.75 4.13-4.78 1.19-2.03 1.92-4.34 2.22-6.95.17-1.79.12-3.5-.17-5.13-.29-1.62-.7-3.01-1.22-4.17-.52-1.16-1.29-2.29-2.3-3.39-1.01-1.1-1.94-1.98-2.78-2.65-.84-.67-1.97-1.38-3.39-2.13-1.42-.75-2.51-1.29-3.26-1.61-.75-.32-1.82-.77-3.21-1.35l-.2-.07zm29.02-25.02c-1.04 0-1.93.36-2.65 1.09-.73.72-1.09 1.61-1.09 2.65v52.91c0 1.04.36 1.93 1.09 2.65.72.73 1.61 1.09 2.65 1.09h31.36c1.04 0 1.94-.36 2.69-1.09.75-.72 1.13-1.61 1.13-2.65v-3.74c0-1.04-.38-1.94-1.13-2.69-.75-.75-1.65-1.13-2.69-1.13h-22.94c-.58 0-.87-.29-.87-.87v-6.34c0-.58.29-.87.87-.87h17.46c1.04 0 1.94-.36 2.69-1.09.75-.72 1.13-1.61 1.13-2.65v-3.73c0-1.04-.38-1.94-1.13-2.69-.75-.75-1.65-1.13-2.69-1.13h-17.46c-.58 0-.87-.29-.87-.87v-16.68c0-.58.29-.87.87-.87h22.94c1.04 0 1.94-.38 2.69-1.13.75-.75 1.13-1.65 1.13-2.69v-3.74c0-1.04-.38-1.93-1.13-2.65-.75-.72-1.65-1.09-2.69-1.09h-31.36zm47.52 0c-1.04 0-1.93.36-2.65 1.09-.73.72-1.09 1.61-1.09 2.65v52.91c0 1.04.36 1.93 1.09 2.65.72.73 1.61 1.09 2.65 1.09h3.74c1.04 0 1.94-.36 2.69-1.09.75-.72 1.13-1.61 1.13-2.65v-8.95c0-.58.29-.87.87-.87h7.21c.35 0 .61.12.78.35l8.25 11.64c.75 1.04 1.77 1.56 3.04 1.56h4.61c1.33 0 2.37-.46 3.13-1.39 1.16-1.5 1.19-3.01.09-4.52l-7.65-10.77c-.29-.52-.2-.93.26-1.22 3.07-2.2 5.46-4.98 7.17-8.34 1.71-3.36 2.56-6.92 2.56-10.69v-1.13c0-6.14-2.19-11.4-6.56-15.77-4.37-4.37-9.66-6.56-15.86-6.56h-15.46v.01zm26.59 24.07c0 3.48-1.25 6.46-3.74 8.95-2.49 2.49-5.47 3.74-8.95 3.74h-5.47c-.58 0-.87-.29-.87-.87v-24.94c0-.58.29-.87.87-.87h6.08c3.36 0 6.21 1.19 8.56 3.56 2.35 2.38 3.52 5.21 3.52 8.52v1.91zm67.33-23.98c-1.8 0-3.01.81-3.65 2.43l-6.6 15.9-8.86 19.2c-.12.35-.36.52-.74.52s-.65-.17-.82-.52l-8.78-19.2-6.6-15.9c-.7-1.62-1.94-2.43-3.74-2.43h-3.56c-1.16 0-2.09.35-2.78 1.04-1.39 1.28-1.71 2.78-.96 4.52l25.72 57.17c.29.64.79.96 1.52.96.72 0 1.23-.32 1.52-.96l25.63-57.17c.75-1.74.46-3.24-.87-4.52-.75-.7-1.71-1.04-2.87-1.04h-3.56zm24.42-.09c-1.04 0-1.93.36-2.65 1.09-.72.72-1.09 1.61-1.09 2.65v52.91c0 1.04.36 1.93 1.09 2.65.72.73 1.61 1.09 2.65 1.09h3.82c.64 0 1.24-.16 1.82-.48.58-.32 1.04-.77 1.39-1.35.35-.58.52-1.22.52-1.91v-52.91c0-1.04-.38-1.93-1.13-2.65-.75-.72-1.62-1.09-2.61-1.09h-3.81zm70.89 43.18c-.81-.58-1.72-.83-2.74-.74-1.02.09-1.84.51-2.48 1.26-1.22 1.39-2.58 2.59-4.08 3.6-1.51 1.02-3.13 1.78-4.87 2.3-1.74.52-3.53.78-5.39.78-5.27 0-9.79-1.97-13.55-5.91-3.77-3.94-5.65-8.69-5.65-14.25 0-5.56 1.88-10.31 5.65-14.25 3.76-3.94 8.28-5.91 13.55-5.91 5.39 0 9.96 2 13.73 5.99.7.75 1.52 1.16 2.48 1.22.96.06 1.81-.23 2.56-.87l3.04-2.35c.87-.69 1.33-1.59 1.39-2.69.12-1.1-.2-2.05-.96-2.87-2.95-3.07-6.34-5.43-10.17-7.08-3.82-1.65-7.85-2.48-12.08-2.48-5.56 0-10.7 1.39-15.42 4.17-4.72 2.78-8.46 6.57-11.21 11.38-2.75 4.81-4.13 10.05-4.13 15.73s1.38 10.92 4.13 15.73c2.75 4.81 6.49 8.6 11.21 11.38 4.72 2.78 9.86 4.17 15.42 4.17 4.4 0 8.61-.91 12.64-2.74 4.03-1.83 7.52-4.42 10.47-7.78.64-.81.93-1.74.87-2.78-.12-1.04-.61-1.91-1.48-2.61l-2.93-2.4zm16.86-43.18c-1.04 0-1.93.36-2.65 1.09-.72.72-1.09 1.61-1.09 2.65v52.91c0 1.04.36 1.93 1.09 2.65.72.73 1.61 1.09 2.65 1.09h31.36c1.04 0 1.94-.36 2.69-1.09.75-.72 1.13-1.61 1.13-2.65v-3.74c0-1.04-.38-1.94-1.13-2.69-.75-.75-1.65-1.13-2.69-1.13h-22.94c-.58 0-.87-.29-.87-.87v-6.34c0-.58.29-.87.87-.87h17.46c1.04 0 1.94-.36 2.69-1.09.75-.72 1.13-1.61 1.13-2.65v-3.73c0-1.04-.38-1.94-1.13-2.69-.75-.75-1.65-1.13-2.69-1.13h-17.46c-.58 0-.87-.29-.87-.87v-16.68c0-.58.29-.87.87-.87h22.94c1.04 0 1.94-.38 2.69-1.13.75-.75 1.13-1.65 1.13-2.69v-3.74c0-1.04-.38-1.93-1.13-2.65-.75-.72-1.65-1.09-2.69-1.09h-31.36zm69.16 25.02c-3.13-1.27-5.36-2.32-6.69-3.13-4.52-2.66-6.4-5.36-5.65-8.08.41-1.27 1.19-2.37 2.35-3.3 1.16-.93 2.2-1.42 3.13-1.48 2.32-.12 4.13.03 5.43.43 1.3.41 2.79 1.39 4.47 2.95.7.64 1.51.97 2.43 1 .93.03 1.77-.22 2.52-.74l2.35-1.83c.93-.7 1.42-1.64 1.48-2.82.06-1.19-.35-2.19-1.22-3-4.63-4.4-10.43-6.6-17.38-6.6-3.53 0-6.75 1.14-9.64 3.43-2.9 2.29-4.87 5.29-5.91 8.99-.64 2.03-.85 3.97-.65 5.82.2 1.85.58 3.5 1.13 4.95.55 1.45 1.38 2.82 2.48 4.13 1.1 1.3 2.2 2.4 3.3 3.3 1.1.9 2.32 1.72 3.65 2.48 1.8 1.1 4.52 2.4 8.17 3.91 4.17 1.68 6.86 3.07 8.08 4.17 1.22 1.1 1.71 2.75 1.48 4.95-.12 1.51-.56 2.79-1.35 3.87-.78 1.07-1.74 1.81-2.87 2.22-1.13.41-2.09.68-2.87.83-.78.15-1.55.22-2.3.22-4.58 0-8.66-2.08-12.25-6.26-.64-.75-1.45-1.19-2.43-1.3-.99-.11-1.88.09-2.69.61l-2.26 1.65c-.93.64-1.45 1.48-1.56 2.52-.17 1.1.06 2.09.69 2.95 1.45 1.91 3.04 3.56 4.78 4.95 1.74 1.39 3.27 2.42 4.61 3.08 1.33.67 2.84 1.17 4.52 1.52 1.68.35 2.91.55 3.69.61.78.06 1.72.09 2.82.09 1.22 0 2.58-.13 4.08-.39 1.51-.26 3.2-.78 5.08-1.56s3.61-1.75 5.17-2.91c1.56-1.16 2.94-2.75 4.13-4.78 1.19-2.03 1.93-4.34 2.21-6.95.17-1.79.12-3.5-.17-5.13-.29-1.62-.7-3.01-1.22-4.17-.52-1.16-1.29-2.29-2.3-3.39-1.01-1.1-1.94-1.98-2.78-2.65-.84-.67-1.97-1.38-3.39-2.13-1.42-.75-2.51-1.29-3.26-1.61-.75-.32-1.83-.77-3.22-1.35l-.17-.07z" class="st1"/><path d="M540.57 307.91h-21.86c16.86-3.35 29.58-18.22 29.58-36.07 0-.2 0-.4-.01-.6-.01-.64-.04-1.29-.08-1.92-.01-.14-.02-.27-.03-.41 0-.04-.01-.09-.01-.13-1.55-18.89-17.38-33.73-36.66-33.73-1.41 0-2.8.1-4.17.25.14-1.92.23-3.85.23-5.8 0-32.08-18.82-59.63-45.84-72.05-1.13-.52-2.27-1.01-3.42-1.47.02.03.04.07.05.1v.01c.01.01.01.02.02.03.07.13.1.2.1.2-.03 0-5.72-10.62-10.98-17.67V96.73c49.77 8.2 87.78 52.03 87.78 104.89 0 2.62-.12 5.21-.31 7.79 1.84-.21 3.71-.34 5.61-.34 27.29 0 49.42 22.13 49.42 49.42 0 27.3-22.13 49.42-49.42 49.42" class="st2"/><path d="M392.52 119.19c-14.21-6.85-29.47-10.33-45.37-10.33h-8.74c-15.9 0-31.16 3.47-45.37 10.33l-6.7 3.23V91.13c0-15.08 5.87-29.25 16.53-39.91 10.66-10.66 24.83-16.53 39.91-16.53 31.12 0 56.44 25.32 56.44 56.44V122.42l-6.7-3.23zm-69.82 97.18c-8.06-6.18-12.93-15.87-12.93-26.11 0-18.15 14.76-32.91 32.91-32.91s32.91 14.76 32.91 32.91c0 10.01-4.48 19.29-12.15 25.51 4.01 10.21 8.02 20.41 12.03 30.62l2.51 6.38h-68.01l2.17-6.21c3.51-10.06 7.03-20.13 10.56-30.19m138.4 86.87v-89.77c0-25.76-8.8-50.9-24.82-70.99v-52.4C436.28 40.41 395.87 0 346.2 0h-6.83c-49.67 0-90.08 40.41-90.08 90.08v52.4c-16.02 20.09-24.82 45.23-24.82 70.99v94.44H461.1v-4.67z" class="st0"/><path d="M238.08 138.66c-16.03 21.51-16.03 21.51 0 0m0-6.32v-20.37c-1.97-.27-3.98-.42-6.03-.42-23.12 0-42.06 17.73-44.04 40.33-6.15-1.53-12.57-2.35-19.19-2.35-43.73 0-79.19 35.45-79.19 79.19 0 43.46 35.02 78.73 78.38 79.17v.02h45.25-13.96v-.02c-38.52-.39-69.63-31.72-69.63-70.33 0-38.85 31.49-70.34 70.35-70.34 5.88 0 11.58.73 17.04 2.09-11.41-17.1 6.27-37.76 21.02-36.97" class="st1"/><path d="M213.26 307.91H199.3v-.02c-38.52-.39-69.63-31.72-69.63-70.33 0-38.85 31.49-70.34 70.35-70.34.67 0 1.33.01 1.99.03 5.18.15 10.21.86 15.05 2.06-.85-1.28-1.54-2.58-2.09-3.89-6.56-15.85 8.8-33.1 22.26-33.11h.01c.28 0 .56.01.83.02v6.32c-7.91 10.61-11.91 15.98-12.02 16.13.11-.14 4.05-5.43 11.83-15.86-14.19 19.15-22.62 42.16-24.27 65.93-15.66 2.96-28.87 12.88-36.25 26.43-4.04 7.42-6.34 15.93-6.34 24.99 0 25.45 18.17 46.62 42.24 51.34v.3" class="st2"/><path d="M213.26 307.91H199.3h13.96m-13.96-.02c-38.52-.39-69.63-31.72-69.63-70.33 0 38.62 31.11 69.94 69.63 70.33m17.76-138.58c-4.84-1.2-9.88-1.92-15.05-2.06 5.18.14 10.21.86 15.05 2.06m-2.08-3.88c-6.56-15.85 8.8-33.1 22.26-33.11-13.46.01-28.83 17.25-22.26 33.11m11.08-10.64c.11-.14 4.11-5.52 12.02-16.13-.07.09-.13.17-.2.26-7.77 10.44-11.72 15.73-11.82 15.87m11.19-22.47" class="st1"/><path d="M213.26 307.6c-24.07-4.72-42.24-25.88-42.24-51.34 0-9.05 2.3-17.56 6.34-24.99 7.38-13.55 20.59-23.47 36.25-26.43-.2 2.86-.35 5.74-.35 8.62v94.14" class="st3"/><path d="M213.26 307.6c-24.07-4.72-42.24-25.88-42.24-51.34 0-9.05 2.3-17.56 6.34-24.99-4.04 7.42-6.34 15.93-6.34 24.99 0 25.46 18.17 46.62 42.24 51.34" class="st4"/><path d="M630.37 252.28c0-30.73-24.91-55.64-55.64-55.64-2.14 0-4.24.15-6.31.38.21-2.9.35-5.82.35-8.77 0-66.08-52.75-119.65-117.81-119.65-1.93 0-3.84.06-5.75.15 1.48 6.88 2.28 14.01 2.28 21.33v6.65c49.77 8.2 87.78 52.03 87.78 104.89 0 2.62-.12 5.21-.31 7.79 1.84-.21 3.71-.34 5.61-.34 27.29 0 49.42 22.13 49.42 49.42 0 27.29-22.12 49.41-49.4 49.42h34.15c30.72 0 55.63-24.91 55.63-55.63zm-89.82 55.63z" class="st1"/><path d="M518.7 307.91h-46.4v-94.44c0-19.99-4.87-39.7-13.94-57.34 0-.01-.01-.02-.02-.03v-.01c-.02-.03-.03-.06-.05-.1 1.15.46 2.3.96 3.42 1.47 27.01 12.42 45.84 39.98 45.84 72.05 0 1.95-.09 3.88-.23 5.8 1.37-.16 2.76-.25 4.17-.25 19.29 0 35.11 14.84 36.66 33.73 0 .04.01.09.01.13.01.14.02.27.03.41.04.64.07 1.28.08 1.92 0 .2.01.4.01.6 0 17.84-12.71 32.71-29.58 36.06" class="st3"/><path d="M518.7 307.91c16.86-3.35 29.58-18.22 29.58-36.07 0 17.85-12.71 32.72-29.58 36.07m29.58-36.07c0-.2 0-.4-.01-.6.01.2.01.4.01.6m-.08-2.52c-.01-.14-.02-.27-.03-.41.01.14.02.28.03.41m-.04-.53c-1.55-18.89-17.37-33.73-36.66-33.73-1.41 0-2.8.1-4.17.25 1.37-.16 2.76-.25 4.17-.25 19.28 0 35.1 14.84 36.66 33.73m-40.61-39.28c0-32.07-18.82-59.63-45.84-72.05 27.02 12.42 45.84 39.98 45.84 72.05m-49.19-73.38c0-.01-.01-.02-.02-.03.01.01.02.02.02.03m-.02-.04c-.02-.03-.03-.07-.05-.1.02.04.04.07.05.1" class="st4"/></svg>