<svg xmlns="http://www.w3.org/2000/svg" role="img" viewBox="-14.42 -14.42 749.84 526.84"><title>Compliant Financial Infrastructure logo</title><style>svg {enable-background:new 0 0 721.5 498.7}</style><style>.st0{fill:#fe5000}.st1{fill:#00c1d4}.st2{fill:#8ad4e1}.st3{fill:#bee5ed}</style><path d="M5.9 436.8c-1 0-1.9.4-2.6 1.1-.7.7-1.1 1.6-1.1 2.6v52.7c0 1 .4 1.9 1.1 2.6.7.7 1.6 1.1 2.6 1.1h3.8c.6 0 1.2-.2 1.8-.5.6-.3 1-.8 1.4-1.3.3-.6.5-1.2.5-1.9v-52.7c0-1-.4-1.9-1.1-2.6-.8-.7-1.6-1.1-2.6-1.1H5.9zm61.7.1c-1 0-1.9.4-2.6 1.1-.7.8-1.1 1.6-1.1 2.7v29.6c0 .3-.2.6-.6.8-.4.2-.7.1-.9-.2l-33.2-35c-.5-.5-1.1-.6-1.8-.3s-1 .8-1 1.5v56.1c0 1 .4 1.9 1.1 2.7.7.8 1.6 1.1 2.6 1.1h3.7c1 0 1.9-.4 2.7-1.1.7-.8 1.1-1.6 1.1-2.7v-29.8c0-.4.2-.7.5-.8.3-.1.7-.1 1 .2l33.1 34.9c.3.3.7.5 1.2.5.2 0 .4-.1.6-.2.7-.2 1-.7 1-1.5v-55.8c0-1-.4-1.9-1.1-2.7-.8-.8-1.6-1.1-2.7-1.1h-3.6zm20-.1c-1 0-1.9.4-2.7 1.1-.8.7-1.1 1.6-1.1 2.6v52.7c0 1 .4 1.9 1.1 2.6.8.7 1.6 1.1 2.7 1.1h3.6c1 0 1.9-.4 2.7-1.1.8-.7 1.1-1.6 1.1-2.6v-14.7c0-.6.3-.9.9-.9h17.4c1 0 1.9-.4 2.7-1.1.7-.7 1.1-1.6 1.1-2.7v-3.6c0-1-.4-1.9-1.1-2.7-.8-.7-1.6-1.1-2.7-1.1H95.9c-.6 0-.9-.3-.9-.9v-16.6c0-.6.3-.9.9-.9h22.9c1 0 1.9-.4 2.7-1.1.8-.8 1.1-1.6 1.1-2.7v-3.7c0-.6-.2-1.3-.5-1.9-.3-.6-.8-1.1-1.4-1.4-.6-.3-1.2-.5-1.9-.5H87.6v.1zm47.3 0c-1 0-1.9.4-2.6 1.1-.7.7-1.1 1.6-1.1 2.6v52.7c0 1 .4 1.9 1.1 2.6.7.7 1.6 1.1 2.6 1.1h3.7c1 0 1.9-.4 2.7-1.1.8-.7 1.1-1.6 1.1-2.6v-8.9c0-.6.3-.9.9-.9h7.2c.3 0 .6.1.8.3l8.2 11.6c.8 1 1.8 1.6 3 1.6h4.6c1.3 0 2.4-.5 3.1-1.4 1.2-1.5 1.2-3 .1-4.5l-7.6-10.7c-.3-.5-.2-.9.3-1.2 3.1-2.2 5.4-5 7.1-8.3 1.7-3.3 2.6-6.9 2.6-10.6V459c0-6.1-2.2-11.4-6.5-15.7-4.4-4.4-9.6-6.5-15.8-6.5h-15.5zm26.5 24c0 3.5-1.2 6.4-3.7 8.9s-5.5 3.7-8.9 3.7h-5.5c-.6 0-.9-.3-.9-.9v-24.9c0-.6.3-.9.9-.9h6.1c3.3 0 6.2 1.2 8.5 3.6 2.3 2.4 3.5 5.2 3.5 8.5v2zm47.3-26.5c-.8 0-1.4.4-1.8 1.1l-25.4 56.1c-.8 1.7-.4 3.1 1 4.4.7.7 1.6 1 2.8 1h3.6c1.7 0 2.9-.8 3.6-2.4l2.5-6c.1-.4.4-.6.8-.6h25.7c.3 0 .6.2.8.6l2.5 6c.6 1.6 1.8 2.4 3.6 2.4h3.5c1.2 0 2.1-.3 2.9-1 1.3-1.3 1.6-2.7 1-4.4l-25.4-56.1c-.2-.8-.8-1.1-1.7-1.1zm-8.1 42.9c-.2 0-.4-.1-.5-.3-.1-.2-.1-.3 0-.5l8.1-18.8c.1-.2.3-.3.5-.3s.4.1.4.3l8.1 18.8c.1.2.1.3 0 .5s-.3.3-.4.3h-16.2zm69.5-15.5c-3.1-1.3-5.3-2.3-6.7-3.1-4.5-2.7-6.4-5.3-5.6-8.1.4-1.3 1.2-2.4 2.3-3.3 1.2-.9 2.2-1.4 3.1-1.5 2.3-.1 4.1 0 5.4.4 1.3.4 2.8 1.4 4.5 2.9.7.6 1.5 1 2.4 1 .9 0 1.8-.2 2.5-.7l2.3-1.8c.9-.7 1.4-1.6 1.5-2.8.1-1.2-.3-2.2-1.2-3-4.6-4.4-10.4-6.6-17.3-6.6-3.5 0-6.7 1.1-9.6 3.4-2.9 2.3-4.8 5.3-5.9 9-.6 2-.9 4-.6 5.8.2 1.8.6 3.5 1.1 4.9.5 1.4 1.4 2.8 2.5 4.1 1.1 1.3 2.2 2.4 3.3 3.3 1.1.9 2.3 1.7 3.6 2.5 1.8 1.1 4.5 2.4 8.1 3.9 4.2 1.7 6.8 3.1 8.1 4.2 1.2 1.1 1.7 2.7 1.5 4.9-.1 1.5-.6 2.8-1.3 3.9-.8 1.1-1.7 1.8-2.9 2.2-1.1.4-2.1.7-2.9.8-.8.1-1.5.2-2.3.2-4.6 0-8.6-2.1-12.2-6.2-.6-.8-1.4-1.2-2.4-1.3-1-.1-1.9.1-2.7.6l-2.3 1.6c-.9.6-1.4 1.5-1.6 2.5-.2 1.1.1 2.1.7 2.9 1.4 1.9 3 3.6 4.8 4.9 1.7 1.4 3.3 2.4 4.6 3.1 1.3.7 2.8 1.2 4.5 1.5 1.7.3 2.9.5 3.7.6.8.1 1.7.1 2.8.1 1.2 0 2.6-.1 4.1-.4 1.5-.3 3.2-.8 5.1-1.6 1.9-.8 3.6-1.7 5.2-2.9s2.9-2.7 4.1-4.8c1.2-2 1.9-4.3 2.2-6.9.2-1.8.1-3.5-.2-5.1-.3-1.6-.7-3-1.2-4.2-.5-1.2-1.3-2.3-2.3-3.4-1-1.1-1.9-2-2.8-2.6-.8-.7-2-1.4-3.4-2.1-1.4-.8-2.5-1.3-3.2-1.6-.8-.3-1.8-.8-3.2-1.3l-.2.1zm28.9-24.9c-1 0-1.9.4-2.6 1.1-.7.7-1.1 1.6-1.1 2.6v3.5c0 1 .4 1.9 1.1 2.7.7.8 1.6 1.1 2.6 1.1h13c.6 0 .9.3.9.9v44.6c0 1 .4 1.9 1.1 2.6.8.7 1.6 1.1 2.7 1.1h3.7c1 0 1.9-.4 2.6-1.1.7-.7 1.1-1.6 1.1-2.6v-44.6c0-.6.3-.9.9-.9h13c1 0 1.9-.4 2.7-1.1.7-.7 1.1-1.6 1.1-2.7v-3.5c0-1-.4-1.9-1.1-2.6-.8-.7-1.6-1.1-2.7-1.1h-39zm55.1 0c-1 0-1.9.4-2.6 1.1-.7.7-1.1 1.6-1.1 2.6v52.7c0 1 .4 1.9 1.1 2.6.7.7 1.6 1.1 2.6 1.1h3.7c1 0 1.9-.4 2.7-1.1.7-.7 1.1-1.6 1.1-2.6v-8.9c0-.6.3-.9.9-.9h7.2c.3 0 .6.1.8.3l8.2 11.6c.7 1 1.8 1.6 3 1.6h4.6c1.3 0 2.4-.5 3.1-1.4 1.2-1.5 1.2-3 .1-4.5l-7.6-10.7c-.3-.5-.2-.9.3-1.2 3.1-2.2 5.4-5 7.1-8.3 1.7-3.3 2.6-6.9 2.6-10.6V459c0-6.1-2.2-11.4-6.5-15.7-4.4-4.4-9.6-6.5-15.8-6.5h-15.5zm26.5 24c0 3.5-1.2 6.4-3.7 8.9s-5.5 3.7-8.9 3.7h-5.5c-.6 0-.9-.3-.9-.9v-24.9c0-.6.3-.9.9-.9h6.1c3.3 0 6.2 1.2 8.5 3.6 2.3 2.4 3.5 5.2 3.5 8.5v2zm58.8-24c-1 0-1.9.4-2.7 1.1-.8.7-1.1 1.6-1.1 2.6v35.4c0 2.9-1 5.5-3.1 7.5-2.1 2.1-4.6 3.1-7.5 3.1h-3c-2.9 0-5.5-1-7.5-3.1-2.1-2.1-3.1-4.6-3.1-7.5v-35.4c0-1-.4-1.9-1.1-2.6-.8-.7-1.6-1.1-2.7-1.1h-3.4c-1 0-1.8.4-2.6 1.1-.8.7-1.1 1.6-1.1 2.6v35.7c0 5.7 2 10.6 6.1 14.7s9 6.1 14.8 6.1h4.4c5.8 0 10.7-2 14.8-6.1 4.1-4.1 6.1-9 6.1-14.7v-35.7c0-1-.4-1.9-1.1-2.6-.8-.7-1.6-1.1-2.7-1.1h-3.5zm65.9 43c-.8-.6-1.7-.8-2.7-.7-1 .1-1.8.5-2.5 1.3-1.2 1.4-2.6 2.6-4.1 3.6-1.5 1-3.1 1.8-4.8 2.3-1.7.5-3.5.8-5.4.8-5.3 0-9.8-2-13.5-5.9-3.8-3.9-5.6-8.7-5.6-14.2s1.9-10.3 5.6-14.2c3.8-3.9 8.3-5.9 13.5-5.9 5.4 0 9.9 2 13.7 6 .7.8 1.5 1.2 2.5 1.2 1 .1 1.8-.2 2.6-.9l3-2.3c.9-.7 1.3-1.6 1.4-2.7.1-1.1-.2-2-1-2.9-2.9-3.1-6.3-5.4-10.1-7.1-3.8-1.6-7.8-2.5-12-2.5-5.5 0-10.7 1.4-15.4 4.2-4.7 2.8-8.4 6.6-11.2 11.3-2.7 4.8-4.1 10-4.1 15.7 0 5.7 1.4 10.9 4.1 15.7 2.7 4.8 6.5 8.6 11.2 11.3 4.7 2.8 9.8 4.2 15.4 4.2 4.4 0 8.6-.9 12.6-2.7 4-1.8 7.5-4.4 10.4-7.8.6-.8.9-1.7.9-2.8-.1-1-.6-1.9-1.5-2.6l-3-2.4zm16.8-43c-1 0-1.9.4-2.6 1.1-.7.7-1.1 1.6-1.1 2.6v3.5c0 1 .4 1.9 1.1 2.7.7.8 1.6 1.1 2.6 1.1h13c.6 0 .9.3.9.9v44.6c0 1 .4 1.9 1.1 2.6.7.7 1.6 1.1 2.7 1.1h3.7c1 0 1.9-.4 2.6-1.1.7-.7 1.1-1.6 1.1-2.6v-44.6c0-.6.3-.9.9-.9h13c1 0 1.9-.4 2.7-1.1.7-.7 1.1-1.6 1.1-2.7v-3.5c0-1-.4-1.9-1.1-2.6-.8-.7-1.6-1.1-2.7-1.1h-39zm90.4 0c-1 0-1.9.4-2.7 1.1-.8.7-1.1 1.6-1.1 2.6v35.4c0 2.9-1 5.5-3.1 7.5-2.1 2.1-4.6 3.1-7.5 3.1h-3c-2.9 0-5.5-1-7.5-3.1s-3.1-4.6-3.1-7.5v-35.4c0-1-.4-1.9-1.1-2.6-.8-.7-1.6-1.1-2.7-1.1h-3.4c-1 0-1.8.4-2.6 1.1-.8.7-1.1 1.6-1.1 2.6v35.7c0 5.7 2 10.6 6.1 14.7s9 6.1 14.8 6.1h4.4c5.8 0 10.7-2 14.8-6.1 4.1-4.1 6.1-9 6.1-14.7v-35.7c0-1-.4-1.9-1.1-2.6-.8-.7-1.6-1.1-2.7-1.1h-3.5zm23.8 0c-1 0-1.9.4-2.6 1.1-.7.7-1.1 1.6-1.1 2.6v52.7c0 1 .4 1.9 1.1 2.6.7.7 1.6 1.1 2.6 1.1h3.7c1 0 1.9-.4 2.7-1.1.8-.7 1.1-1.6 1.1-2.6v-8.9c0-.6.3-.9.9-.9h7.2c.3 0 .6.1.8.3l8.2 11.6c.8 1 1.8 1.6 3 1.6h4.6c1.3 0 2.4-.5 3.1-1.4 1.2-1.5 1.2-3 .1-4.5l-7.6-10.7c-.3-.5-.2-.9.3-1.2 3.1-2.2 5.4-5 7.1-8.3 1.7-3.3 2.6-6.9 2.6-10.6V459c0-6.1-2.2-11.4-6.5-15.7-4.4-4.4-9.6-6.5-15.8-6.5h-15.5zm26.5 24c0 3.5-1.2 6.4-3.7 8.9s-5.5 3.7-8.9 3.7h-5.5c-.6 0-.9-.3-.9-.9v-24.9c0-.6.3-.9.9-.9h6.1c3.3 0 6.2 1.2 8.5 3.6 2.3 2.4 3.5 5.2 3.5 8.5v2zm23.6-24c-1 0-1.9.4-2.6 1.1-.7.7-1.1 1.6-1.1 2.6v52.7c0 1 .4 1.9 1.1 2.6.7.7 1.6 1.1 2.6 1.1h31.3c1 0 1.9-.4 2.7-1.1.7-.7 1.1-1.6 1.1-2.6v-3.7c0-1-.4-1.9-1.1-2.7-.8-.8-1.6-1.1-2.7-1.1h-22.9c-.6 0-.9-.3-.9-.9v-6.3c0-.6.3-.9.9-.9h17.4c1 0 1.9-.4 2.7-1.1.7-.7 1.1-1.6 1.1-2.6v-3.7c0-1-.4-1.9-1.1-2.7-.8-.7-1.6-1.1-2.7-1.1h-17.4c-.6 0-.9-.3-.9-.9v-16.6c0-.6.3-.9.9-.9h22.9c1 0 1.9-.4 2.7-1.1.7-.8 1.1-1.6 1.1-2.7v-3.7c0-1-.4-1.9-1.1-2.6-.8-.7-1.6-1.1-2.7-1.1h-31.3z" class="st0"/><path d="M36.7 401.1c-.6-.4-1.3-.6-2-.5-.7.1-1.3.4-1.8.9-.9 1-1.9 1.9-3 2.6-1.1.7-2.3 1.3-3.5 1.7-1.3.4-2.6.6-3.9.6-3.8 0-7.1-1.4-9.9-4.3-2.7-2.9-4.1-6.3-4.1-10.4 0-4.1 1.4-7.5 4.1-10.4 2.7-2.9 6-4.3 9.9-4.3 3.9 0 7.3 1.5 10 4.4.5.6 1.1.8 1.8.9.7 0 1.3-.2 1.9-.6l2.2-1.7c.6-.5 1-1.2 1-2 .1-.8-.1-1.5-.7-2.1-2.2-2.2-4.6-4-7.4-5.2-2.8-1.2-5.7-1.8-8.8-1.8-4.1 0-7.8 1-11.3 3-3.4 2-6.2 4.8-8.2 8.3-2 3.5-3 7.3-3 11.5 0 4.1 1 8 3 11.5s4.7 6.3 8.2 8.3c3.4 2 7.2 3 11.3 3 3.2 0 6.3-.7 9.2-2 2.9-1.3 5.5-3.2 7.6-5.7.5-.6.7-1.3.6-2-.1-.8-.4-1.4-1.1-1.9l-2.1-1.8zm12.6-20.9c-2 3.5-3.1 7.3-3.1 11.5 0 4.1 1 8 3.1 11.5 2 3.5 4.8 6.3 8.3 8.3 3.5 2 7.3 3 11.4 3 4.1 0 7.9-1 11.4-3s6.3-4.8 8.3-8.3c2-3.5 3.1-7.3 3.1-11.5 0-4.1-1-8-3.1-11.5-2-3.5-4.8-6.3-8.3-8.3-3.5-2-7.3-3-11.4-3-4.1 0-7.9 1-11.4 3-3.4 2-6.2 4.8-8.3 8.3zm19.8 26.2c-3.9 0-7.3-1.4-10.1-4.3s-4.2-6.3-4.2-10.4c0-4.1 1.4-7.5 4.2-10.4 2.8-2.9 6.1-4.3 10.1-4.3 3.9 0 7.3 1.4 10.1 4.3s4.2 6.3 4.2 10.4c0 4.1-1.4 7.5-4.2 10.4-2.8 2.9-6.2 4.3-10.1 4.3zm67.9-37.1l-15.8 23.9c-.1.2-.3.3-.5.3s-.4-.1-.5-.3l-15.1-23.8c-.3-.5-.7-.7-1.3-.6-.5.1-.8.5-.9 1l-4.6 40.8c-.1.8.1 1.5.7 2.1.5.6 1.2.9 2 .9h2.5c.7 0 1.3-.2 1.8-.7.5-.5.8-1 .9-1.7l2.2-20c0-.3.1-.5.4-.6.3-.1.5 0 .7.3l10.1 15.7c.3.3.6.5 1 .5s.8-.2 1-.5l10.1-15.7c.2-.3.4-.3.7-.3.3.1.5.2.5.5l2 20c0 .5.2.9.4 1.3.3.4.6.7 1 .9.4.2.8.3 1.3.3h2.6c.8 0 1.5-.3 2.1-.9.5-.6.8-1.3.7-2.1l-3.9-40.8c-.1-.6-.4-1-.9-1.1-.5 0-.9.2-1.2.6zm17.1.3c-.8 0-1.4.3-1.9.8s-.8 1.2-.8 1.9V411c0 .8.3 1.4.8 1.9s1.2.8 1.9.8h2.7c.8 0 1.4-.3 2-.8.5-.5.8-1.2.8-1.9v-6.5c0-.4.2-.6.6-.6h4.4c4.7 0 8.8-1.7 12.1-5 3.3-3.3 5-7.3 5-12.1v-.8c0-4.5-1.6-8.3-4.8-11.5-3.2-3.2-7-4.8-11.6-4.8h-11.2v-.1zm19.4 17.6c0 2.5-.9 4.7-2.7 6.5-1.8 1.8-4 2.7-6.5 2.7h-4c-.4 0-.6-.2-.6-.6v-18.2c0-.4.2-.6.6-.6h4.4c1.6 0 3.1.4 4.4 1.2 1.4.8 2.4 1.8 3.2 3.2.8 1.4 1.2 2.8 1.2 4.4v1.4zm23.7 18.2c-.3 0-.5-.1-.7-.3-.2-.2-.3-.4-.3-.7v-32.1c0-.4-.1-.7-.2-1.1-.1-.3-.3-.6-.6-.9-.3-.3-.5-.4-.9-.6-.3-.1-.7-.2-1-.2h-2.8c-.8 0-1.4.3-1.9.8s-.8 1.2-.8 1.9V411c0 .8.3 1.4.8 1.9s1.2.8 1.9.8h21.6c.8 0 1.4-.3 1.9-.8s.8-1.2.8-1.9v-2.7c0-.8-.3-1.4-.8-2-.5-.5-1.2-.8-1.9-.8h-15.1v-.1zm30-35.8c-.8 0-1.4.3-1.9.8s-.8 1.2-.8 1.9V411c0 .8.3 1.4.8 1.9s1.2.8 1.9.8h2.8c.5 0 .9-.1 1.3-.3.4-.2.8-.6 1-1 .3-.4.4-.9.4-1.4v-38.6c0-.8-.3-1.4-.8-1.9s-1.2-.8-1.9-.8h-2.8v-.1zm35.2-1.8c-.6 0-1 .3-1.3.8l-18.6 41.1c-.5 1.2-.3 2.3.7 3.2.5.5 1.2.8 2 .8h2.7c1.3 0 2.2-.6 2.7-1.8l1.8-4.4c.1-.3.3-.4.6-.4h18.8c.3 0 .4.1.6.4l1.8 4.4c.5 1.2 1.4 1.8 2.7 1.8h2.6c.8 0 1.5-.3 2.1-.8 1-.9 1.2-2 .7-3.2l-18.6-41.1c-.3-.5-.7-.8-1.3-.8zm-6 31.4c-.2 0-.3-.1-.3-.2-.1-.1-.1-.3 0-.4l5.9-13.8c.1-.2.2-.3.4-.3s.3.1.3.3l6 13.8c.1.1.1.3 0 .4-.1.1-.2.2-.3.2h-12zm62.5-29.5c-.8 0-1.4.3-1.9.8s-.8 1.2-.8 2v21.7c0 .3-.1.4-.4.6-.3.1-.5.1-.7-.1L290.8 369c-.4-.4-.8-.5-1.3-.3s-.7.6-.7 1.1v41.1c0 .8.3 1.4.8 2 .5.6 1.2.8 1.9.8h2.7c.8 0 1.4-.3 2-.8.5-.5.8-1.2.8-2v-21.8c0-.3.1-.5.4-.6.3-.1.5-.1.7.2l24.2 25.5c.3.3.5.4.9.4.2 0 .3 0 .4-.1.5-.2.8-.5.8-1.1v-40.9c0-.8-.3-1.4-.8-2-.5-.5-1.2-.8-2-.8h-2.7zm14.5-.1c-.8 0-1.4.3-1.9.8s-.8 1.2-.8 1.9v2.5c0 .8.3 1.4.8 2 .5.6 1.2.8 1.9.8h9.5c.4 0 .6.2.6.6V411c0 .8.3 1.4.8 1.9s1.2.8 2 .8h2.7c.8 0 1.4-.3 1.9-.8s.8-1.2.8-1.9v-32.6c0-.4.2-.6.6-.6h9.5c.8 0 1.4-.3 2-.8.5-.5.8-1.2.8-2v-2.5c0-.8-.3-1.4-.8-1.9-.6-.5-1.2-.8-2-.8h-28.4v-.2zm61.8 0c-.8 0-1.4.3-2 .8-.6.5-.8 1.2-.8 1.9V411c0 .8.3 1.4.8 1.9s1.2.8 2 .8h2.7c.8 0 1.4-.3 2-.8.5-.5.8-1.2.8-1.9v-10.8c0-.4.2-.6.6-.6H414c.8 0 1.4-.3 2-.8.5-.5.8-1.2.8-2v-2.7c0-.8-.3-1.4-.8-2-.5-.5-1.2-.8-2-.8h-12.7c-.4 0-.6-.2-.6-.6v-12.2c0-.4.2-.6.6-.6H418c.8 0 1.4-.3 2-.8.5-.5.8-1.2.8-2v-2.7c0-.5-.1-.9-.4-1.4-.3-.4-.6-.8-1-1-.4-.2-.9-.3-1.4-.3h-22.8v-.1zm37.9 0c-.8 0-1.4.3-1.9.8s-.8 1.2-.8 1.9V411c0 .8.3 1.4.8 1.9s1.2.8 1.9.8h2.8c.5 0 .9-.1 1.3-.3.4-.2.8-.6 1-1 .3-.4.4-.9.4-1.4v-38.6c0-.8-.3-1.4-.8-1.9s-1.2-.8-1.9-.8h-2.8v-.1zm45.1.1c-.8 0-1.4.3-1.9.8s-.8 1.2-.8 2v21.7c0 .3-.1.4-.4.6-.3.1-.5.1-.7-.1L450.1 369c-.4-.4-.8-.5-1.3-.3s-.7.6-.7 1.1v41.1c0 .8.3 1.4.8 2 .5.6 1.2.8 1.9.8h2.7c.8 0 1.4-.3 2-.8.5-.5.8-1.2.8-2v-21.8c0-.3.1-.5.4-.6.3-.1.5-.1.7.2l24.2 25.5c.3.3.5.4.9.4.2 0 .3 0 .4-.1.5-.2.8-.5.8-1.1v-40.9c0-.8-.3-1.4-.8-2-.5-.5-1.2-.8-2-.8h-2.7zm32-1.9c-.6 0-1 .3-1.3.8l-18.6 41.1c-.5 1.2-.3 2.3.7 3.2.5.5 1.2.8 2 .8h2.7c1.3 0 2.2-.6 2.7-1.8l1.8-4.4c.1-.3.3-.4.6-.4h18.8c.3 0 .4.1.6.4l1.8 4.4c.5 1.2 1.4 1.8 2.7 1.8h2.6c.8 0 1.5-.3 2.1-.8 1-.9 1.2-2 .7-3.2l-18.6-41.1c-.3-.5-.7-.8-1.3-.8zm-6 31.4c-.2 0-.3-.1-.3-.2-.1-.1-.1-.3 0-.4l5.9-13.8c.1-.2.2-.3.4-.3s.3.1.3.3l6 13.8c.1.1.1.3 0 .4-.1.1-.2.2-.3.2h-12zm62.5-29.5c-.8 0-1.4.3-1.9.8s-.8 1.2-.8 2v21.7c0 .3-.1.4-.4.6-.3.1-.5.1-.7-.1L538.6 369c-.4-.4-.8-.5-1.3-.3s-.7.6-.7 1.1v41.1c0 .8.3 1.4.8 2 .5.6 1.2.8 1.9.8h2.7c.8 0 1.4-.3 2-.8.5-.5.8-1.2.8-2v-21.8c0-.3.1-.5.4-.6.3-.1.5-.1.7.2l24.2 25.5c.3.3.5.4.9.4.2 0 .3 0 .4-.1.5-.2.8-.5.8-1.1v-40.9c0-.8-.3-1.4-.8-2-.6-.5-1.2-.8-2-.8h-2.7zm48.5 31.4c-.6-.4-1.3-.6-2-.5-.7.1-1.3.4-1.8.9-.9 1-1.9 1.9-3 2.6-1.1.7-2.3 1.3-3.6 1.7-1.3.4-2.6.6-3.9.6-3.8 0-7.1-1.4-9.9-4.3-2.7-2.9-4.1-6.3-4.1-10.4 0-4.1 1.4-7.5 4.1-10.4 2.7-2.9 6-4.3 9.9-4.3 3.9 0 7.3 1.5 10 4.4.5.6 1.1.8 1.8.9.7 0 1.3-.2 1.9-.6l2.2-1.7c.6-.5 1-1.2 1-2 .1-.8-.1-1.5-.7-2.1-2.2-2.2-4.6-4-7.4-5.2-2.8-1.2-5.7-1.8-8.8-1.8-4.1 0-7.8 1-11.2 3-3.4 2-6.2 4.8-8.2 8.3-2 3.5-3 7.3-3 11.5 0 4.1 1 8 3 11.5s4.7 6.3 8.2 8.3c3.4 2 7.2 3 11.2 3 3.2 0 6.3-.7 9.2-2 2.9-1.3 5.5-3.2 7.6-5.7.5-.6.7-1.3.6-2-.1-.8-.4-1.4-1.1-1.9l-2-1.8zm15.5-31.5c-.8 0-1.4.3-1.9.8s-.8 1.2-.8 1.9V411c0 .8.3 1.4.8 1.9s1.2.8 1.9.8h2.8c.5 0 .9-.1 1.3-.3.4-.2.8-.6 1-1 .3-.4.4-.9.4-1.4v-38.6c0-.8-.3-1.4-.8-1.9s-1.2-.8-1.9-.8h-2.8v-.1zm35.1-1.8c-.6 0-1 .3-1.3.8L646 409.7c-.6 1.2-.3 2.3.7 3.2.5.5 1.2.8 2 .8h2.7c1.3 0 2.2-.6 2.7-1.8l1.8-4.4c.1-.3.3-.4.6-.4h18.8c.3 0 .4.1.6.4l1.8 4.4c.5 1.2 1.4 1.8 2.7 1.8h2.6c.8 0 1.5-.3 2.1-.8 1-.9 1.2-2 .7-3.2l-18.6-41.1c-.3-.5-.8-.8-1.4-.8zm-5.9 31.4c-.2 0-.3-.1-.3-.2-.1-.1-.1-.3 0-.4l5.9-13.8c.1-.2.2-.3.4-.3s.3.1.3.3l6 13.8c.1.1.1.3 0 .4-.1.1-.2.2-.3.2h-12zm41.6 6.2c-.3 0-.5-.1-.7-.3-.2-.2-.3-.4-.3-.7v-32.1c0-.4-.1-.7-.2-1.1-.1-.3-.3-.6-.6-.9-.3-.3-.6-.4-.9-.6-.3-.1-.7-.2-1-.2H695c-.8 0-1.4.3-1.9.8s-.8 1.2-.8 1.9V411c0 .8.3 1.4.8 1.9s1.2.8 1.9.8h21.5c.8 0 1.4-.3 1.9-.8s.8-1.2.8-1.9v-2.7c0-.8-.3-1.4-.8-2-.5-.5-1.2-.8-1.9-.8h-15v-.1z" class="st1"/><path d="M462.5 164.6zm3.1 8.4zm5.6 28.8zm116.5 53.4c0-26.9-21.8-48.8-48.8-48.8-1.9 0-3.7.1-5.5.3.2-2.5.3-5.1.3-7.7 0-52.2-37.5-95.5-86.7-103.5v41.4c5.7 7.7 11.9 19.6 10.7 17.1 28.5 11.4 48.6 39.6 48.6 72.6 0 1.9-.1 3.8-.2 5.7 1.4-.2 2.7-.2 4.1-.2 20.1 0 36.3 16.3 36.3 36.3 0 17.6-12.6 32.3-29.2 35.6h21.6c27-.1 48.8-21.9 48.8-48.8z" class="st2"/><path d="M392.8 117.7c-14-6.8-29.1-10.2-44.8-10.2h-8.6c-15.7 0-30.8 3.4-44.8 10.2l-6.6 3.2V90c0-14.9 5.8-28.9 16.3-39.4s24.5-16.3 39.4-16.3c30.7 0 55.7 25 55.7 55.7v30.8l-6.6-3.1zm-68.9 95.9c-8-6.1-12.8-15.7-12.8-25.8 0-17.9 14.6-32.5 32.5-32.5s32.5 14.6 32.5 32.5c0 9.9-4.4 19-12 25.2 4 10.1 7.9 20.1 11.9 30.2l2.5 6.3H311.3l2.1-6.1c3.6-10 7-19.9 10.5-29.8m136.6 85.7v-88.6c0-25.4-8.7-50.2-24.5-70.1V88.9c0-49-39.9-88.9-88.9-88.9h-6.7c-49 0-88.9 39.9-88.9 88.9v51.7c-15.8 19.8-24.5 44.7-24.5 70.1V303.9h233.6v-4.6h-.1z" class="st0"/><path d="M240.4 136.9zm0-6.3v-20.1c-1.9-.3-3.9-.4-5.9-.4-22.8 0-41.5 17.5-43.5 39.8-6.1-1.5-12.4-2.3-18.9-2.3-43.2 0-78.2 35-78.2 78.2 0 42.9 34.6 77.7 77.4 78.2H216h-13.8c-38-.4-68.7-31.3-68.7-69.4 0-38.3 31.1-69.4 69.4-69.4 5.8 0 11.4.7 16.8 2.1-11.3-17.1 6.1-37.5 20.7-36.7z" class="st1"/><path d="M240.4 136.9v-6.2c-14.6-.8-32 19.6-20.7 36.5-5.4-1.3-11-2.1-16.8-2.1-38.3 0-69.4 31.1-69.4 69.4 0 38.1 30.7 69 68.7 69.4H216v-.3c-23.8-4.7-41.7-25.5-41.7-50.7 0-25.2 18.1-46.2 42-50.8 1.6-23.5 9.9-46.3 24.1-65.2z" class="st2"/><path d="M216.2 202.2c-23.9 4.5-42 25.5-42 50.8 0 25.1 17.9 46 41.7 50.7V210.8c0-2.9.1-5.8.3-8.6z" class="st3"/><path d="M627.6 249c0-30.3-24.6-54.9-54.9-54.9-2.1 0-4.2.1-6.2.4.2-2.9.3-5.7.3-8.7 0-65.2-52.1-118.1-116.3-118.1-1.9 0-3.8.1-5.7.1 1.5 6.8 2.2 13.8 2.2 21.1v6.6c49.1 8.1 86.6 51.4 86.6 103.5 0 2.6-.1 5.1-.3 7.7 1.8-.2 3.7-.3 5.5-.3 26.9 0 48.8 21.8 48.8 48.8 0 26.9-21.8 48.8-48.8 48.8h33.7c30.5-.1 55.1-24.6 55.1-55zm-88.7 54.9z" class="st1"/><path d="M546.6 268.3c0-20.1-16.3-36.3-36.3-36.3-1.4 0-2.8.1-4.1.2.1-1.9.2-3.8.2-5.7 0-33-20.2-61.1-48.6-72.6 9 17.4 13.8 37 13.8 56.7V303.8h45.8c16.6-3.2 29.2-17.8 29.2-35.5z" class="st3"/></svg>