<svg xmlns="http://www.w3.org/2000/svg" role="img" viewBox="-9.71 -9.71 504.92 109.42"><title>Cosaic logo</title><style>svg {enable-background:new 0 0 485.613 90.553}</style><g fill="#3b7262"><circle cx="57.764" cy="48.444" r="8"/><circle cx="73.442" cy="27.638" r="10.999"/><circle cx="42.085" cy="69.25" r="6"/><circle cx="34.357" cy="30.806" r="7"/><circle cx="50.035" cy="10" r="9.999"/><circle cx="3" cy="72.418" r="3"/><circle cx="18.678" cy="51.612" r="5"/><circle cx="81.171" cy="66.083" r="8.999"/><circle cx="96.849" cy="45.277" r="11.999"/><circle cx="112.528" cy="24.471" r="8.999"/><circle cx="120.256" cy="62.915" r="10.999"/><circle cx="135.934" cy="42.109" r="8"/><circle cx="151.613" cy="21.303" r="6"/><circle cx="143.663" cy="80.553" r="9.999"/><circle cx="159.341" cy="59.747" r="7"/><circle cx="190.698" cy="18.135" r="3"/><circle cx="175.02" cy="38.941" r="5"/></g><path d="M212.089 47.982c0-18.328 14.569-33.18 32.897-33.18 9.964 0 18.611 4.229 24.345 10.997l-6.203 5.264c-4.324-5.075-10.903-8.365-18.142-8.365-13.629 0-24.344 11.373-24.344 25.284 0 13.817 10.715 25.285 24.344 25.285 7.238 0 13.817-3.29 18.142-8.366l6.203 5.264c-5.733 6.768-14.381 10.997-24.345 10.997-18.327-.001-32.897-14.851-32.897-33.18zM276.1 58.133c0-13.911 10.434-22.746 22.935-22.746 12.502 0 23.029 8.835 23.029 22.746s-10.527 23.028-23.029 23.028c-12.501 0-22.935-9.117-22.935-23.028zm37.786 0c0-9.023-6.768-15.039-14.852-15.039-7.989 0-14.663 6.016-14.663 15.039 0 9.118 6.674 15.321 14.663 15.321 8.084 0 14.852-6.203 14.852-15.321zm16.073 9.023h7.613c.094 3.76 3.384 6.862 8.741 6.862 5.546 0 8.836-2.538 8.836-6.11 0-3.29-2.538-4.981-6.016-5.733l-6.016-1.41c-7.332-1.974-11.562-5.545-11.562-12.595 0-7.237 6.203-12.783 15.039-12.783 7.426 0 15.133 3.947 15.133 12.783h-7.896c-.094-3.384-3.571-5.64-7.05-5.64-4.229 0-7.049 2.537-7.049 5.922 0 3.008 2.819 4.605 5.64 5.264l6.485 1.598c9.117 2.256 11.467 7.707 11.467 12.689 0 8.177-7.896 13.158-17.013 13.158-7.893 0-15.976-4.981-16.352-14.005zm87.32-30.83v43.896h-8.177v-6.955c-2.914 5.075-9.306 7.895-15.604 7.895-12.031 0-21.994-9.117-21.994-22.934 0-13.912 9.869-22.841 21.9-22.841 6.579 0 12.783 2.632 15.697 7.802v-6.862h8.178zm-8.177 21.807c0-9.493-7.708-15.039-14.945-15.039-7.989 0-14.381 6.204-14.381 15.039 0 8.741 6.392 15.321 14.381 15.321 7.895 0 14.945-5.922 14.945-15.321zm17.013-37.974c0-3.102 2.632-5.451 5.733-5.451 3.196 0 5.828 2.35 5.828 5.451s-2.632 5.452-5.828 5.452c-3.102 0-5.733-2.35-5.733-5.452zm1.691 16.167h8.178v43.896h-8.178V36.326zm17.482 21.902c0-13.912 10.998-22.841 23.593-22.841 6.861 0 12.877 2.726 16.731 6.955l-5.17 5.358c-2.726-2.82-6.674-4.606-11.279-4.606-8.647 0-15.603 6.11-15.603 15.134s6.956 15.133 15.603 15.133c4.605 0 8.554-1.786 11.279-4.605l5.17 5.357c-3.854 4.323-9.87 6.955-16.731 6.955-12.595-.001-23.593-8.93-23.593-22.84z" fill="#111920"/></svg>