<svg xmlns="http://www.w3.org/2000/svg" role="img" viewBox="-12.88 -12.88 669.76 385.26"><title>Currency Reference Data logo</title><style>svg {enable-background:new 0 0 644.4 359.8}</style><style>.st0{fill:#041e42}</style><path d="M237.6 341.4c-1.4-1.3-2.1-3-2.1-5.1 0-7.2 4-10.9 12.1-10.9h6.7v11.9c-.8 1.6-2.2 3-4.1 4.2-1.9 1.2-4.3 1.9-7.2 1.9-2.2-.1-4-.7-5.4-2m43.1 17v-1.2c-2-3.6-3.1-8.8-3.2-15.7v-32.9c-.1-8.1-3-14.4-8.5-19s-13-6.9-22.5-6.9-17.3 2.2-23.4 6.7c-6.1 4.5-9.2 10.3-9.2 17.5H237c0-5.4 2.7-8.1 8.2-8.1 5.9 0 8.9 3.4 8.9 10.3v3.9H247c-11.4 0-20 2.1-26 6.2s-8.9 10.2-8.9 18.3c0 6.4 2.5 11.7 7.4 16 4.9 4.2 10.9 6.3 17.9 6.3 7.6 0 13.6-2.7 17.9-8 .6 2.9 1.4 5.2 2.2 6.7h23.2zm-109.5-92.8v18.5h-9.5v16.1h9.5v36.9c0 7.6 1.9 13.3 5.7 17.1 3.8 3.8 9.7 5.6 17.7 5.6 4.5 0 8.9-.7 13.1-2v-16.6c-1.6.3-3.5.4-5.8.4-3 0-5-.5-6-1.6s-1.5-3-1.5-5.8v-34h12.2v-16.1h-12.2v-18.5h-23.2zm-56.5 75.8c-1.4-1.3-2.1-3-2.1-5.1 0-7.2 4-10.9 12.1-10.9h6.7v11.9c-.8 1.6-2.2 3-4.1 4.2-1.9 1.2-4.3 1.9-7.2 1.9-2.2-.1-4-.7-5.4-2m43 17v-1.2c-2-3.6-3.1-8.8-3.2-15.7v-32.9c-.1-8.1-3-14.4-8.5-19s-13-6.9-22.5-6.9-17.3 2.2-23.4 6.7c-6.1 4.5-9.2 10.3-9.2 17.5h23.2c0-5.4 2.7-8.1 8.2-8.1 5.9 0 8.9 3.4 8.9 10.3v3.9h-7.1c-11.4 0-20 2.1-26 6.2s-8.9 10.2-8.9 18.3c0 6.4 2.5 11.7 7.4 16 4.9 4.2 10.9 6.3 17.9 6.3 7.6 0 13.6-2.7 17.9-8 .6 2.9 1.4 5.2 2.2 6.7h23.1zM35 277c7.1 0 12.5 2.4 16.2 7.4 3.7 4.9 5.6 12.2 5.6 21.8v4.3c0 9.7-1.9 17-5.6 21.9-3.7 4.9-9 7.4-15.9 7.4h-8.4V277H35zm.7 81.4c8.7 0 16.5-2.1 23.5-6.2s12.5-9.8 16.4-17c3.9-7.3 5.8-15.5 5.8-24.6V306c0-9.1-2-17.3-6-24.6-4-7.3-9.5-13-16.5-17-7.1-4-15-6-23.8-6H2.8v100h32.9z" class="st0"/><path fill="#0047bb" d="M618.9 175.2c2 2 2.9 4.9 2.8 8.6v1.8h-23.4c1.3-9 5.3-13.5 12.1-13.5 3.7 0 6.5 1 8.5 3.1m11.2 52.6c5.3-2.4 9.4-5.5 12.3-9.5l-10.6-12.5c-4.1 5.1-9.8 7.7-17.2 7.7-4.4 0-8.1-1.2-10.9-3.6-2.8-2.4-4.6-5.7-5.4-9.8h46v-9c0-11.6-3-20.6-9.1-27.1-6-6.5-14.3-9.7-24.7-9.7-7.4 0-13.8 1.6-19.2 4.8-5.4 3.2-9.5 7.7-12.3 13.5-2.8 5.8-4.2 12.5-4.2 20.1v1.9c0 10.9 3.5 19.7 10.6 26.5 7.1 6.8 16.3 10.2 27.7 10.2 6 0 11.7-1.2 17-3.5m-103.2-18.7c-1.8-2.9-2.7-8.1-2.7-15.5 0-4.3.2-7.6.5-10 1-7.6 4.5-11.5 10.5-11.5 3.2 0 5.7 1 7.6 3.1 1.9 2.1 2.8 5 2.8 8.9h21.7c0-9.2-2.8-16.4-8.5-21.8-5.7-5.4-13.4-8-23-8-7.1 0-13.3 1.5-18.5 4.6-5.2 3.1-9.2 7.5-12 13.3-2.8 5.7-4.2 12.4-4.2 19.9v1c0 12 3.1 21.4 9.3 28.2 6.2 6.8 14.7 10.2 25.6 10.2 9.2 0 16.7-2.6 22.6-7.8 5.8-5.2 8.8-11.9 8.8-20.1h-21.7c0 3.2-.8 5.6-2.6 7.4-1.8 1.8-4.3 2.6-7.6 2.6-4-.1-6.8-1.6-8.6-4.5m-102.7-53.5V230h23.1v-52.5c2.2-3.6 5.6-5.4 10.1-5.4 4 0 6.7.9 8.2 2.6 1.5 1.8 2.3 4.5 2.3 8.3v47h23.2v-47.9c-.1-9.3-2.1-16.3-5.9-20.9-3.8-4.6-9.6-6.9-17.3-6.9-9 0-16.1 3.4-21.2 10.1l-.8-8.7h-21.7zm-34.4 19.6c2 2 2.9 4.9 2.8 8.6v1.8h-23.4c1.3-9 5.3-13.5 12.1-13.5 3.8 0 6.6 1 8.5 3.1m11.3 52.6c5.3-2.4 9.4-5.5 12.3-9.5l-10.6-12.5c-4.1 5.1-9.9 7.7-17.2 7.7-4.4 0-8.1-1.2-10.9-3.6-2.8-2.4-4.6-5.7-5.4-9.8h46v-9c0-11.6-3-20.6-9.1-27.1-6-6.5-14.3-9.7-24.7-9.7-7.4 0-13.8 1.6-19.2 4.8-5.4 3.2-9.5 7.7-12.3 13.5-2.8 5.8-4.2 12.5-4.2 20.1v1.9c0 10.9 3.5 19.7 10.6 26.5 7 6.8 16.3 10.2 27.7 10.2 6 0 11.7-1.2 17-3.5m-59.7-72.7c-1.8-.6-4-.8-6.5-.8-7 0-12.4 3.6-16.3 10.9l-.8-9.5h-21.7V230h23.2v-47.1c2.1-4.6 6.7-6.9 14-6.9l7.6.5.5-21.4zm-80.2 20.1c2 2 2.9 4.9 2.8 8.6v1.8h-23.4c1.3-9 5.3-13.5 12.1-13.5 3.8 0 6.6 1 8.5 3.1m11.3 52.6c5.3-2.4 9.4-5.5 12.3-9.5l-10.6-12.5c-4.1 5.1-9.8 7.7-17.2 7.7-4.4 0-8.1-1.2-10.9-3.6-2.8-2.4-4.6-5.7-5.4-9.8h46v-9c0-11.6-3-20.6-9.1-27.1-6-6.5-14.3-9.7-24.7-9.7-7.4 0-13.8 1.6-19.2 4.8-5.4 3.2-9.5 7.7-12.3 13.5-2.8 5.8-4.2 12.5-4.2 20.1v1.9c0 10.9 3.5 19.7 10.6 26.5 7 6.8 16.3 10.2 27.7 10.2 6 0 11.7-1.2 17-3.5m-74 2.2v-58.3H213v-16.1h-14.5v-5.7c0-6 3.5-9.1 10.5-9.1 2.4 0 4.3.2 5.7.6l-.1-17c-3.9-1-7.6-1.4-10.9-1.4-9 0-16 2.3-21 7s-7.5 11.2-7.5 19.7v5.9h-10.8v16.1h10.8V230h23.3zm-63.2-54.8c2 2 2.9 4.9 2.8 8.6v1.8h-23.4c1.3-9 5.3-13.5 12.1-13.5 3.7 0 6.6 1 8.5 3.1m11.3 52.6c5.3-2.4 9.4-5.5 12.3-9.5l-10.6-12.5c-4.1 5.1-9.9 7.7-17.2 7.7-4.4 0-8.1-1.2-10.9-3.6-2.8-2.4-4.6-5.7-5.4-9.8h46v-9c0-11.6-3-20.6-9.1-27.1-6-6.5-14.3-9.7-24.7-9.7-7.4 0-13.8 1.6-19.2 4.8-5.4 3.2-9.5 7.7-12.3 13.5-2.8 5.8-4.2 12.5-4.2 20.1v1.9c0 10.9 3.5 19.7 10.6 26.5 7 6.8 16.3 10.2 27.7 10.2 6 0 11.7-1.2 17-3.5M26.9 148.5h15.2c4.5 0 8 1.2 10.3 3.7 2.3 2.5 3.5 5.8 3.5 10.2 0 4.3-1.2 7.7-3.5 10.1-2.3 2.4-5.8 3.6-10.3 3.6H26.9v-27.6zM57.6 230h25.8v-1l-20.9-40.4c6-2.8 10.4-6.5 13.2-11.1 2.8-4.6 4.2-10.3 4.2-17.3 0-9.6-3.3-17-10-22.3-6.7-5.3-16-7.9-27.8-7.9H2.8v100h24.1v-35.4H40L57.6 230z"/><path d="M525.7 27.1H501l25.8 75.1-1.9 5c-.8 2.4-2.1 4.1-3.8 5.1-1.7.9-4.2 1.4-7.5 1.4h-3v16.5c3.3.9 6.5 1.4 9.5 1.4 10.9 0 18.5-4.8 22.8-14.4l1.3-3.2 30.3-86.8h-24.8L537.5 69l-11.8-41.9zm-68.1 53.5c-1.8-2.9-2.7-8.1-2.7-15.5 0-4.3.2-7.6.5-10 1-7.6 4.5-11.5 10.5-11.5 3.2 0 5.7 1 7.6 3.1 1.9 2.1 2.8 5 2.8 8.9H498c0-9.2-2.8-16.4-8.5-21.8-5.7-5.4-13.3-8-23-8-7.1 0-13.3 1.5-18.5 4.6-5.2 3.1-9.2 7.5-12 13.3-2.8 5.7-4.2 12.4-4.2 19.9v1c0 12 3.1 21.4 9.3 28.2 6.2 6.8 14.7 10.2 25.6 10.2 9.2 0 16.7-2.6 22.6-7.8 5.8-5.2 8.8-11.9 8.8-20.1h-21.7c0 3.2-.8 5.6-2.6 7.4-1.8 1.8-4.3 2.6-7.6 2.6-4-.1-6.8-1.6-8.6-4.5M354.9 27.1v74.3H378V49c2.2-3.6 5.6-5.4 10.1-5.4 4 0 6.7.9 8.2 2.6 1.5 1.8 2.3 4.5 2.3 8.3v46.9h23.2V53.6c-.1-9.3-2.1-16.3-5.9-20.9-3.8-4.6-9.6-6.9-17.3-6.9-9 0-16.1 3.4-21.2 10.1l-.8-8.7h-21.7zm-34.4 19.6c2 2 2.9 4.9 2.8 8.6v1.8H300c1.3-9 5.3-13.5 12.1-13.5 3.6 0 6.5 1 8.4 3.1m11.3 52.6c5.3-2.4 9.4-5.5 12.3-9.5l-10.6-12.5c-4.1 5.1-9.8 7.7-17.2 7.7-4.4 0-8.1-1.2-10.9-3.6-2.8-2.4-4.6-5.7-5.4-9.8h46v-9c0-11.6-3-20.6-9.1-27.1-6-6.5-14.3-9.7-24.7-9.7-7.4 0-13.8 1.6-19.2 4.8-5.4 3.2-9.5 7.7-12.3 13.5-2.8 5.8-4.2 12.5-4.2 20.1v1.9c0 10.9 3.5 19.7 10.6 26.5 7.1 6.8 16.3 10.2 27.7 10.2 6 0 11.7-1.1 17-3.5m-59.7-72.7c-1.8-.6-4-.8-6.5-.8-7 0-12.4 3.6-16.3 10.9l-.8-9.5h-21.7v74.3H250V54.4c2.1-4.6 6.7-6.9 14-6.9l7.6.5.5-21.4zm-53.3 0c-1.8-.6-4-.8-6.5-.8-7 0-12.4 3.6-16.3 10.9l-.8-9.5h-21.7v74.3h23.1V54.4c2.1-4.6 6.7-6.9 14-6.9l7.6.5.6-21.4zM139 101.5h21.7V27.1h-23.3v52.1c-2.2 3.8-6 5.7-11.3 5.7-6.2 0-9.3-3.2-9.3-9.5V27.1H93.7v48.2c0 8.9 2.1 15.7 6.3 20.4 4.2 4.7 10.4 7.1 18.5 7.1 8.3 0 15-3.1 19.9-9.4l.6 8.1zM59.8 67.6c-.2 5.7-1.7 9.8-4.7 12.4-2.9 2.6-7.2 3.9-12.7 3.9-6.6 0-11.2-2.3-13.8-6.9-2.7-4.6-4-12.2-4-22.9V47c.1-9.8 1.6-17 4.4-21.5 2.8-4.5 7.2-6.7 13.2-6.7 5.9 0 10.3 1.3 13.2 4 2.9 2.7 4.4 7 4.6 13.1h24c-1-11.2-5.2-20-12.6-26.4C64 3.2 54.2 0 42.1 0c-8.4 0-15.8 2-22.3 6-6.4 4-11.3 9.7-14.7 17C1.7 30.4 0 39 0 48.8v4.9C0 69.3 3.8 81.4 11.3 90c7.6 8.6 17.9 12.8 31 12.8 8 0 15.1-1.5 21.3-4.4 6.2-2.9 11-7.1 14.5-12.4 3.4-5.3 5.3-11.5 5.6-18.4H59.8z" class="st0"/></svg>