<svg xmlns="http://www.w3.org/2000/svg" role="img" viewBox="-15.07 -15.07 783.64 569.64"><title>Data Helix logo</title><style>svg {enable-background:new 0 0 753.88 540}</style><path fill="#6a6dcd" d="M24.01 516.46v-65.8h18.55c4.88 0 9.36.81 13.41 2.42 4.05 1.61 7.51 3.87 10.37 6.78 2.86 2.91 5.09 6.39 6.7 10.45 1.61 4.05 2.42 8.47 2.42 13.25v.31c0 4.89-.81 9.3-2.42 13.25-1.61 3.95-3.85 7.38-6.7 10.29-2.86 2.91-6.31 5.15-10.37 6.7-4.05 1.56-8.52 2.34-13.41 2.34H24.01v.01zM0 538.13h42.57c8.52 0 16.35-1.4 23.47-4.21 7.12-2.81 13.25-6.65 18.4-11.54 5.14-4.89 9.12-10.65 11.93-17.31 2.81-6.65 4.21-13.82 4.21-21.52v-.31c0-7.69-1.4-14.84-4.21-21.44-2.81-6.6-6.78-12.34-11.93-17.23-5.15-4.88-11.28-8.71-18.4-11.46-7.12-2.75-14.94-4.13-23.47-4.13H0v109.15zm140.95-17.46c-2.39-1.77-3.59-4.26-3.59-7.49v-.31c0-3.74 1.45-6.6 4.37-8.58 2.91-1.97 6.91-2.96 12.01-2.96 2.91 0 5.64.29 8.19.86 2.55.57 4.86 1.32 6.94 2.26v4.21c0 4.37-1.69 7.9-5.07 10.6-3.38 2.7-7.87 4.05-13.49 4.05-3.85.01-6.97-.88-9.36-2.64zm17 16.13c4.05-1.92 7.54-4.49 10.45-7.72v9.04h22.92v-48.49c0-5.61-.73-10.68-2.18-15.2-1.46-4.52-3.74-8.34-6.86-11.46-3.02-3.01-6.84-5.33-11.46-6.94-4.63-1.61-10.21-2.42-16.76-2.42-7.07 0-13.1.62-18.09 1.87s-9.77 2.86-14.34 4.83l5.93 18.09c3.84-1.45 7.51-2.57 10.99-3.35 3.48-.78 7.51-1.17 12.08-1.17 5.92 0 10.39 1.3 13.41 3.9 3.01 2.6 4.52 6.39 4.52 11.38v1.4c-3.02-1.04-6.11-1.87-9.28-2.49-3.17-.62-6.89-.94-11.15-.94-4.99 0-9.54.55-13.64 1.64-4.11 1.09-7.64 2.73-10.6 4.91s-5.28 4.94-6.94 8.26c-1.66 3.33-2.5 7.28-2.5 11.85v.31c0 4.16.75 7.82 2.26 10.99 1.51 3.17 3.56 5.85 6.16 8.03 2.6 2.18 5.64 3.82 9.12 4.91 3.48 1.09 7.2 1.64 11.15 1.64 5.82.02 10.76-.94 14.81-2.87zm92.46 1.41c3.01-.88 5.77-2.05 8.26-3.51v-19.02c-3.64 2.08-7.54 3.12-11.69 3.12-5.09 0-7.64-2.71-7.64-8.14v-35.83h19.65v-20.27h-19.65V433.2h-23.7v21.36h-9.98v20.27h9.98v39.6c0 4.89.6 8.91 1.79 12.08s2.86 5.74 4.99 7.72c2.13 1.98 4.68 3.35 7.64 4.13 2.96.78 6.26 1.17 9.9 1.17 3.95 0 7.43-.44 10.45-1.32zm47.56-17.54c-2.39-1.77-3.59-4.26-3.59-7.49v-.31c0-3.74 1.45-6.6 4.37-8.58 2.91-1.97 6.91-2.96 12.01-2.96 2.91 0 5.64.29 8.19.86 2.55.57 4.86 1.32 6.94 2.26v4.21c0 4.37-1.69 7.9-5.07 10.6-3.38 2.7-7.87 4.05-13.49 4.05-3.86.01-6.97-.88-9.36-2.64zm16.99 16.13c4.05-1.92 7.54-4.49 10.45-7.72v9.04h22.92v-48.49c0-5.61-.73-10.68-2.18-15.2-1.46-4.52-3.74-8.34-6.86-11.46-3.02-3.01-6.84-5.33-11.46-6.94-4.63-1.61-10.21-2.42-16.76-2.42-7.07 0-13.1.62-18.09 1.87s-9.77 2.86-14.34 4.83l5.92 18.09c3.85-1.45 7.51-2.57 10.99-3.35 3.48-.78 7.51-1.17 12.08-1.17 5.93 0 10.39 1.3 13.41 3.9 3.01 2.6 4.52 6.39 4.52 11.38v1.4c-3.02-1.04-6.11-1.87-9.28-2.49-3.17-.62-6.89-.94-11.15-.94-4.99 0-9.54.55-13.64 1.64-4.11 1.09-7.64 2.73-10.6 4.91s-5.28 4.94-6.94 8.26c-1.66 3.33-2.49 7.28-2.49 11.85v.31c0 4.16.75 7.82 2.26 10.99 1.5 3.17 3.56 5.85 6.16 8.03 2.6 2.18 5.64 3.82 9.12 4.91 3.48 1.09 7.2 1.64 11.15 1.64 5.82.02 10.76-.94 14.81-2.87zm56.29 1.33h24.01v-43.81h44.28v43.81h24.01V428.98h-24.01v43.19h-44.28v-43.19h-24.01v109.15zm135.18-48.34c.93-5.4 2.93-9.72 6-12.94 3.06-3.22 7.09-4.83 12.08-4.83s8.99 1.64 12.01 4.91c3.01 3.27 4.89 7.56 5.61 12.86h-35.7zm40.23 46.08c5.61-2.75 10.39-6.57 14.34-11.46l-13.57-12.01c-3.33 3.02-6.55 5.2-9.67 6.55-3.12 1.35-6.65 2.03-10.6 2.03-5.3 0-9.74-1.38-13.33-4.13s-5.95-6.83-7.09-12.24h58.16c.1-1.14.18-2.23.23-3.27.05-1.04.08-2.03.08-2.96 0-5.93-.81-11.62-2.42-17.07-1.61-5.46-4.11-10.29-7.48-14.5-3.38-4.21-7.62-7.56-12.71-10.06-5.09-2.49-11.12-3.74-18.09-3.74-6.13 0-11.72 1.15-16.76 3.43-5.04 2.29-9.38 5.41-13.02 9.36-3.64 3.95-6.47 8.57-8.5 13.88-2.03 5.3-3.04 10.91-3.04 16.84v.31c0 6.45 1.09 12.29 3.27 17.54 2.18 5.25 5.22 9.8 9.12 13.64 3.9 3.85 8.52 6.81 13.88 8.89 5.35 2.08 11.15 3.12 17.39 3.12 7.6-.02 14.2-1.4 19.81-4.15zm37.27 2.26h23.7V424.3h-23.7v113.83zm47.08 0h23.7v-83.58h-23.7v83.58zm-.62-92.78h24.95V424.3h-24.95v21.05zm39.6 92.78h24.79l16.84-26.04 16.84 26.04h25.41l-29.47-42.88 28.22-40.7h-24.79l-15.75 24.32-15.59-24.32h-25.42l28.22 41.16-29.3 42.42zM116.59 0C101.46 0 89.2 12.26 89.2 27.39v100.13c0 15.13 12.26 27.39 27.39 27.39s27.39-12.26 27.39-27.39V27.39C143.98 12.26 131.71 0 116.59 0zm520.7 313.76c15.13 0 27.39-12.26 27.39-27.39V186.24c0-15.13-12.26-27.39-27.39-27.39s-27.39 12.26-27.39 27.39v100.13c0 15.13 12.26 27.39 27.39 27.39zM220.73 9.33c-15.13 0-27.39 12.26-27.39 27.39V84.5c0 15.13 12.26 27.39 27.39 27.39s27.39-12.26 27.39-27.39V36.72c0-15.13-12.27-27.39-27.39-27.39zm312.42 295.1c15.13 0 27.39-12.26 27.39-27.39v-47.78c0-15.13-12.26-27.39-27.39-27.39s-27.39 12.26-27.39 27.39v47.78c0 15.12 12.26 27.39 27.39 27.39zM324.87 55.34c-15.13 0-27.39 12.26-27.39 27.39v28.65c0 15.13 12.26 27.39 27.39 27.39s27.39-12.26 27.39-27.39V82.72c0-15.12-12.27-27.38-27.39-27.38zm104.14 203.08c15.13 0 27.39-12.26 27.39-27.39v-28.65c0-15.13-12.26-27.39-27.39-27.39s-27.39 12.26-27.39 27.39v28.65c0 15.13 12.26 27.39 27.39 27.39z"/><path fill="#97999b" d="M116.59 286.37c15.13 0 27.39-12.26 27.39-27.39s-12.26-27.39-27.39-27.39-27.39 12.26-27.39 27.39 12.26 27.39 27.39 27.39zm520.7-258.98c-15.13 0-27.39 12.26-27.39 27.39s12.26 27.39 27.39 27.39 27.39-12.26 27.39-27.39-12.27-27.39-27.39-27.39zM220.73 313.76c15.13 0 27.39-12.26 27.39-27.39s-12.26-27.39-27.39-27.39-27.39 12.26-27.39 27.39 12.26 27.39 27.39 27.39zM533.15 0c-15.13 0-27.39 12.26-27.39 27.39s12.26 27.39 27.39 27.39 27.39-12.26 27.39-27.39S548.27 0 533.15 0zM324.87 267.99c15.13 0 27.39-12.26 27.39-27.39s-12.26-27.39-27.39-27.39-27.39 12.26-27.39 27.39 12.26 27.39 27.39 27.39zM429.01 45.77c-15.13 0-27.39 12.26-27.39 27.39s12.26 27.39 27.39 27.39 27.39-12.26 27.39-27.39-12.27-27.39-27.39-27.39z"/></svg>