<svg xmlns="http://www.w3.org/2000/svg" role="img" xmlns:xlink="http://www.w3.org/1999/xlink" viewBox="-12.29 -12.29 639.08 564.08"><title>DataHub logo</title><style>svg {enable-background:new 0 0 614.57 540}</style><style>.st0{fill:#1b365d}</style><path d="M401.22 538.9h23.43v-96.19h-23.43v37.68h-36.45v-37.68h-23.43v96.19h23.43v-39.6h36.45v39.6zm115.79-76.46h-23.43v41.52c0 10.41-5.76 16.17-14.8 16.17-8.77 0-14.66-5.76-14.66-16.17v-41.52h-23.29v44.67c0 20.42 11.92 32.61 29.6 32.61 10.28 0 18.5-4.66 23.16-11.24v10.41h23.43v-76.45h-.01zm40.28 10.83V437.5h-23.43v101.4h23.43v-10.69c4.25 6.72 12.33 11.79 23.57 11.79 18.77 0 33.71-15.35 33.71-39.47 0-24.12-14.8-39.19-33.71-39.19-10.96 0-19.32 5.07-23.57 11.93zm33.44 27.26c0 12.2-7.95 19.05-16.85 19.05-8.77 0-16.72-6.71-16.72-18.91s7.95-18.91 16.72-18.91c8.9 0 16.85 6.58 16.85 18.77z" class="st0"/><path fill="#00b5e2" d="M36.04 442.71H0v96.19h36.04c30.7 0 50.43-19.6 50.43-48.1 0-28.63-19.74-48.09-50.43-48.09zm-12.61 75.91v-55.91h11.1c17.68 0 28.09 10.41 28.09 28.09s-10.41 27.82-28.09 27.82h-11.1zm71.53-18.09c0 24.12 14.94 39.47 33.57 39.47 11.37 0 19.46-5.21 23.71-11.92v10.83h23.43v-76.46h-23.43v10.83c-4.11-6.71-12.2-11.92-23.57-11.92-18.77-.02-33.71 15.06-33.71 39.17zm57.28.14c0 12.2-7.81 18.91-16.72 18.91-8.77 0-16.72-6.85-16.72-19.05 0-12.19 7.95-18.77 16.72-18.77 8.91 0 16.72 6.72 16.72 18.91zm44.12 11.65c0 19.87 11.1 26.58 26.99 26.58h11.92v-19.87h-8.36c-5.21 0-7.12-1.92-7.12-6.44V481.9h15.35v-19.46h-15.35V443.8h-23.43v18.64h-9.32v19.46h9.32v30.42zm47.28-11.79c0 24.12 14.94 39.47 33.57 39.47 11.37 0 19.46-5.21 23.71-11.92v10.83h23.43v-76.46h-23.43v10.83c-4.11-6.71-12.2-11.92-23.57-11.92-18.78-.02-33.71 15.06-33.71 39.17zm57.27.14c0 12.2-7.81 18.91-16.72 18.91-8.77 0-16.72-6.85-16.72-19.05 0-12.19 7.95-18.77 16.72-18.77 8.91 0 16.72 6.72 16.72 18.91z"/><g><path d="M490.2 57.45V33.47C490.2 14.97 475.21 0 456.74 0h-298.9c-18.47 0-33.47 14.99-33.47 33.47v163.58L185.59 231c3.79-4.2 9.23-6.87 15.33-6.87 2.57 0 5.03.52 7.32 1.38l63.79-63.79c-.17-1.05-.31-2.1-.31-3.17 0-11.47 9.3-20.76 20.76-20.76s20.76 9.3 20.76 20.76c0 1.26-.17 2.5-.38 3.72l37.71 20.91c3.38-2.41 7.51-3.84 11.97-3.84 3.29 0 6.34.83 9.11 2.19l57.4-63.77-19.76-17.81 80.91-42.5z" class="st0"/><defs><path id="SVGID_1_" d="M124.37 212.16v120.21c0 18.5 14.99 33.47 33.47 33.47h298.9c18.5 0 33.47-14.99 33.47-33.47V64.84l-31.61 79.52-19.79-17.81-57.83 64.24c1.41 2.79 2.26 5.91 2.26 9.25 0 11.47-9.3 20.76-20.76 20.76-11.47 0-20.76-9.3-20.76-20.76 0-2.15.43-4.17 1.03-6.1L306.4 173.8c-3.69 3.38-8.56 5.51-13.97 5.51-5.36 0-10.2-2.1-13.9-5.44l-60.07 60.07c1.98 3.17 3.19 6.91 3.19 10.94 0 11.47-9.3 20.76-20.76 20.76-11.47 0-20.76-9.3-20.76-20.76 0-.57.12-1.12.17-1.69l-55.93-31.03z"/></defs><clipPath id="SVGID_2_"><use overflow="visible" xlink:href="#SVGID_1_"/></clipPath><g clip-path="url(#SVGID_2_)"><defs><path id="SVGID_3_" d="M124.37 64.84h365.84v301H124.37z"/></defs><linearGradient id="SVGID_4_" x1="140.575" x2="473.995" y1="48.629" y2="382.049" gradientUnits="userSpaceOnUse"><stop offset=".202" stop-color="#00b5e2"/><stop offset="1" stop-color="#1b365d"/></linearGradient><use fill="url(#SVGID_4_)" overflow="visible" xlink:href="#SVGID_3_"/><clipPath id="SVGID_5_"><use overflow="visible" xlink:href="#SVGID_3_"/></clipPath></g></g></svg>