<svg xmlns="http://www.w3.org/2000/svg" role="img" xmlns:xlink="http://www.w3.org/1999/xlink" viewBox="-10.79 -10.79 433.58 561.08"><title>Exodus logo</title><style>svg {enable-background:new 0 0 412.38 539.98}</style><style>.st3{fill:#79be70}</style><radialGradient id="SVGID_2_" cx="205.56" cy="369.363" r="147.242" gradientTransform="matrix(1 0 0 -1 0 542.007)" gradientUnits="userSpaceOnUse"><stop offset="0" stop-color="#79be70"/><stop offset=".397" stop-color="#438a4c"/><stop offset=".8" stop-color="#135b2c"/><stop offset="1" stop-color="#00491f"/></radialGradient><path id="SVGID_1_" fill="url(#SVGID_2_)" d="M379.9 327.71V17.57c0-9.7-7.87-17.57-17.57-17.57H48.79c-9.71 0-17.57 7.87-17.57 17.57v310.14c0 9.71 7.87 17.57 17.57 17.57h313.53c9.71.01 17.58-7.86 17.58-17.57zm-91.01-156.15l-89.98 71.65v-43.55h-76.34v-54.03h76.33v-43.55l89.99 69.48z"/><defs><path id="SVGID_3_" d="M379.9 327.71V17.57c0-9.7-7.87-17.57-17.57-17.57H48.79c-9.71 0-17.57 7.87-17.57 17.57v310.14c0 9.71 7.87 17.57 17.57 17.57h313.53c9.71.01 17.58-7.86 17.58-17.57zm-91.01-156.15l-89.98 71.65v-43.55h-76.34v-54.03h76.33v-43.55l89.99 69.48z"/></defs><clipPath id="SVGID_5_"><use overflow="visible" xlink:href="#SVGID_3_"/></clipPath><g clip-path="url(#SVGID_5_)"><radialGradient id="SVGID_6_" cx="205.56" cy="369.363" r="147.242" gradientTransform="matrix(1 0 0 -1 0 542.007)" gradientUnits="userSpaceOnUse"><stop offset="0" stop-color="#79be70"/><stop offset="1" stop-color="#00491f"/></radialGradient><path id="SVGID_4_" fill="url(#SVGID_6_)" d="M31.22 0H379.9v345.29H31.22z"/></g><path d="M328.83 265.33V79.96H224.46v31.9l76.98 59.45-76.98 61.31v32.71zM186.66 137.67v-87.8H82.28v245.55h104.38v-88.11h-72v-69.64z" class="st3"/><path d="M328.83 265.33V79.96H224.45v31.9l76.99 59.45-76.99 61.31v32.71zM186.66 137.66V49.87H82.28v245.55h104.38v-88.1h-72v-69.66z" class="st3"/><path fill="#014900" d="M50.74 439.94H27.02v-19.38H46.4l2.94 8.57h10.57v-22.67H27.02L0 407.05v9.98l8.81 3.52v55.21L0 479.29v9.98h61.32v-23.73H50.74l-2.7 9.63H27.02v-22.32h23.73l-.01-12.91zm83.64-4.11v-9.98l-19.62.59-12.22 20.44-6.11-10.34 3.52-.7v-9.98l-30.42.59v9.4l6.34 1.53 14.21 20.79-12.92 19.38-8.81 2.35v9.4h19.97l12.69-21.03 6.23 10.34-3.64 1.29v9.4h31.95v-9.4l-8.69-2.35-13.27-19.97 13.51-20.2 7.28-1.55zm37.58-11.16c-19.15 0-31.71 12.33-31.71 33.48 0 22.32 10.81 32.3 29.95 32.3 19.03 0 31.36-12.92 31.36-34.06 0-20.21-10.57-31.72-29.6-31.72zm-.59 14.09c8.46 0 11.98 6.23 11.98 18.21 0 14.1-4.11 19.38-12.57 19.38-8.58 0-12.33-5.87-12.33-18.79 0-14.1 4.35-18.8 12.92-18.8zm81.88 50.51l25.02-.82v-9.4l-9.4-2.35v-78.46l-27.02.94v9.4l9.4 2.35v14.92c-2.58-.59-5.99-1.17-8.81-1.17-21.49 0-32.07 12.33-32.07 34.42 0 19.38 7.64 31.36 24.08 31.36 10.1 0 16.09-5.76 17.74-7.4l1.06 6.21zm-2-19.61s-3.88 6.7-11.39 6.7c-7.99 0-11.28-6.34-11.28-18.21 0-11.75 3.52-19.38 13.51-19.38 3.41 0 6.93.7 9.16 1.76v29.13zm31.13-33.83l9.4 2.94v30.66c0 13.16 6.81 21.03 18.56 21.03 11.16 0 20.55-9.4 20.55-9.4l1.17 8.22 24.79-.82v-9.16l-9.4-2.35v-51.1l-27.02.59v9.4l9.4 2.94v30.66s-5.64 6.34-13.27 6.34c-5.29 0-7.17-2.94-7.17-9.4v-40.52l-27.02.59.01 9.38zm91.85 32.89h-10.57v19.15s10.45 2.58 21.61 2.58c16.09 0 27.02-7.64 27.02-21.14 0-20.32-31.36-16.21-31.36-25.72 0-3.88 3.05-5.99 8.1-5.99 4.7 0 8.11 1.17 8.11 1.17l1.76 7.05h9.98l.47-17.62s-11.28-3.52-21.85-3.52c-12.45 0-24.2 5.4-24.2 20.09 0 20.91 31.36 17.38 31.36 27.02 0 3.76-3.17 5.76-9.63 5.76-5.76 0-9.87-1.17-9.87-1.17l-.93-7.66z"/><path d="M.1 534.31h5.34v-15.96l6.85 10.4h.14l6.92-10.51v16.06h5.34v-24.6h-5.83l-6.47 10.4-6.47-10.4H.1v24.61zm34.79-3.94c-.54-.4-.81-.96-.81-1.69v-.07c0-.84.33-1.49.98-1.93.66-.44 1.56-.67 2.71-.67.66 0 1.27.06 1.85.19.57.13 1.1.3 1.56.51v.95c0 .98-.38 1.78-1.14 2.39s-1.77.91-3.04.91c-.87.01-1.57-.19-2.11-.59zm3.83 3.64c.91-.43 1.7-1.01 2.35-1.74v2.04h5.17v-10.93c0-1.27-.16-2.41-.49-3.43s-.84-1.88-1.55-2.58c-.68-.68-1.54-1.2-2.58-1.56s-2.3-.54-3.78-.54c-1.59 0-2.95.14-4.08.42-1.12.28-2.2.64-3.23 1.09l1.34 4.08c.87-.33 1.69-.58 2.48-.76.78-.18 1.69-.26 2.72-.26 1.34 0 2.34.29 3.02.88s1.02 1.44 1.02 2.57v.32c-.68-.23-1.38-.42-2.09-.56-.72-.14-1.55-.21-2.51-.21-1.12 0-2.15.12-3.08.37-.93.25-1.72.61-2.39 1.11-.67.49-1.19 1.11-1.56 1.86-.38.75-.56 1.64-.56 2.67v.07c0 .94.17 1.76.51 2.48.34.71.8 1.32 1.39 1.81s1.27.86 2.06 1.11c.78.25 1.62.37 2.51.37 1.31-.03 2.42-.25 3.33-.68zm20.2-4.26c-.55-.25-1.03-.6-1.44-1.05-.41-.46-.74-1.01-.98-1.65-.25-.64-.37-1.35-.37-2.13v-.07c0-.77.12-1.48.37-2.13.25-.64.57-1.2.98-1.65.41-.46.89-.81 1.44-1.05.55-.25 1.14-.37 1.77-.37s1.22.12 1.78.37c.55.25 1.04.6 1.46 1.05.42.46.76 1.01 1 1.65.25.64.37 1.35.37 2.13v.07c0 .8-.12 1.51-.37 2.14s-.58 1.18-1 1.64-.91.81-1.46 1.05c-.55.25-1.14.37-1.78.37-.63 0-1.22-.12-1.77-.37zm-8.07 10.18h5.34v-8.09c.63.75 1.41 1.41 2.34 1.97s2.1.84 3.53.84c1.12 0 2.2-.21 3.23-.63 1.03-.42 1.94-1.05 2.72-1.88s1.42-1.85 1.9-3.06.72-2.59.72-4.16v-.07c0-1.57-.24-2.96-.72-4.17s-1.12-2.22-1.92-3.06c-.8-.83-1.71-1.46-2.74-1.88s-2.1-.63-3.2-.63c-1.41 0-2.57.29-3.5.86s-1.72 1.31-2.37 2.2v-2.71h-5.34l.01 24.47zm40.25-10.51v-14.83h4.18c1.1 0 2.11.18 3.02.55s1.69.87 2.34 1.53c.64.66 1.15 1.44 1.51 2.35s.55 1.91.55 2.99v.07c0 1.1-.18 2.1-.55 2.99-.36.89-.87 1.66-1.51 2.32-.65.66-1.42 1.16-2.34 1.51-.91.35-1.92.53-3.02.53H91.1v-.01zm-5.42 4.89h9.6c1.92 0 3.69-.32 5.29-.95 1.61-.63 2.99-1.5 4.15-2.6s2.06-2.4 2.69-3.9c.63-1.5.95-3.12.95-4.85v-.07c0-1.73-.32-3.34-.95-4.83s-1.53-2.78-2.69-3.88-2.54-1.96-4.15-2.58c-1.6-.62-3.37-.93-5.29-.93h-9.6v24.59zm34.22-4.61c-.6-.28-1.12-.66-1.56-1.14-.44-.48-.79-1.03-1.02-1.65-.23-.62-.35-1.28-.35-1.99v-.07c0-.7.11-1.36.33-1.99.22-.62.54-1.17.97-1.63.42-.47.93-.84 1.53-1.11.6-.27 1.28-.4 2.06-.4.73 0 1.39.14 2 .42.61.28 1.14.66 1.58 1.14.45.48.78 1.03 1.02 1.65.23.62.35 1.28.35 1.99v.07c0 .7-.11 1.37-.33 1.99s-.55 1.17-.97 1.64c-.42.47-.93.84-1.53 1.11-.6.27-1.28.4-2.06.4-.75-.01-1.42-.15-2.02-.43zm6.03 4.25c1.24-.51 2.32-1.22 3.23-2.11s1.63-1.93 2.14-3.11.77-2.45.77-3.81v-.07c0-1.36-.26-2.63-.77-3.81-.51-1.18-1.22-2.21-2.13-3.09-.9-.88-1.97-1.57-3.22-2.07-1.24-.5-2.59-.76-4.04-.76-1.48 0-2.84.26-4.08.77-1.24.52-2.32 1.22-3.23 2.11s-1.63 1.93-2.14 3.11-.77 2.46-.77 3.81v.07c0 1.36.26 2.63.77 3.81.51 1.18 1.22 2.21 2.13 3.09.9.88 1.97 1.57 3.22 2.07 1.24.5 2.59.76 4.04.76 1.48.01 2.84-.25 4.08-.77zm23.48-.19c1.17-.64 2.21-1.47 3.13-2.48l-3.13-3.16c-.66.61-1.32 1.09-1.99 1.46-.67.36-1.45.54-2.34.54-.73 0-1.38-.13-1.97-.4s-1.09-.64-1.51-1.11-.75-1.02-.97-1.65-.33-1.31-.33-2.04v-.07c0-.7.11-1.36.33-1.99.22-.62.54-1.17.95-1.63.41-.47.89-.84 1.44-1.11.55-.27 1.17-.4 1.85-.4.96 0 1.76.19 2.41.56.64.38 1.27.88 1.88 1.51l3.27-3.52c-.89-.98-1.92-1.76-3.09-2.32s-2.65-.84-4.43-.84c-1.45 0-2.78.26-3.99.77-1.21.52-2.24 1.22-3.11 2.11s-1.55 1.93-2.04 3.13-.74 2.46-.74 3.8v.07c0 1.34.25 2.6.74 3.78.49 1.18 1.17 2.21 2.04 3.09s1.9 1.58 3.11 2.09c1.21.52 2.51.77 3.92.77 1.87.01 3.4-.31 4.57-.96zm14.69.65c.54-.17 1.03-.39 1.48-.67.44-.28.85-.61 1.21-.97.36-.37.7-.75 1-1.15v2.69h5.34v-18.84h-5.34v10.48c0 1.26-.3 2.21-.9 2.86-.6.64-1.41.96-2.44.96s-1.83-.32-2.39-.96-.84-1.6-.84-2.86v-10.48h-5.34v12.2c0 2.18.56 3.89 1.67 5.13s2.69 1.86 4.73 1.86c.67 0 1.28-.09 1.82-.25zm13.81-.1h5.34v-10.48c0-1.26.29-2.22.86-2.86s1.36-.96 2.37-.96 1.78.32 2.32.96c.54.64.81 1.6.81 2.86v10.48h5.34v-10.48c0-1.26.29-2.22.86-2.86s1.36-.96 2.37-.96 1.78.32 2.32.96c.54.64.81 1.6.81 2.86v10.48h5.34v-12.27c0-2.27-.56-3.99-1.69-5.17-1.12-1.17-2.68-1.76-4.68-1.76-1.29 0-2.44.25-3.44.76-1.01.51-1.92 1.26-2.74 2.25-.49-.97-1.19-1.71-2.09-2.23-.9-.52-1.98-.78-3.22-.78-.68 0-1.29.08-1.85.25-.55.17-1.05.39-1.49.67-.45.28-.85.61-1.21.97-.36.37-.7.75-1 1.15v-2.69h-5.34v18.85h.01zm37.72-10.9c.21-1.22.66-2.19 1.35-2.92s1.6-1.09 2.72-1.09 2.03.37 2.71 1.11c.68.74 1.1 1.7 1.26 2.9h-8.04zm9.07 10.39c1.26-.62 2.34-1.48 3.23-2.58l-3.06-2.71c-.75.68-1.48 1.17-2.18 1.48s-1.5.46-2.39.46c-1.2 0-2.2-.31-3.01-.93s-1.34-1.54-1.6-2.76h13.11c.02-.26.04-.5.05-.74.01-.23.02-.46.02-.67 0-1.34-.18-2.62-.55-3.85-.36-1.23-.93-2.32-1.69-3.27-.76-.95-1.72-1.7-2.87-2.27-1.15-.56-2.51-.84-4.08-.84-1.38 0-2.64.26-3.78.77-1.14.52-2.12 1.22-2.93 2.11-.82.89-1.46 1.93-1.92 3.13-.46 1.2-.68 2.46-.68 3.8v.07c0 1.45.25 2.77.74 3.95s1.18 2.21 2.06 3.08 1.92 1.54 3.13 2c1.21.47 2.51.7 3.92.7 1.72 0 3.21-.31 4.48-.93zm8.15.51h5.34v-10.48c0-1.26.3-2.22.9-2.86.6-.64 1.41-.96 2.44-.96s1.83.32 2.39.96.84 1.6.84 2.86v10.48h5.34v-12.2c0-2.18-.56-3.89-1.67-5.13s-2.69-1.86-4.73-1.86c-.68 0-1.29.08-1.83.25-.54.17-1.03.39-1.48.67-.44.28-.85.61-1.21.97-.36.37-.7.75-1 1.15v-2.69h-5.34v18.84h.01zm30.62.01c.68-.2 1.3-.46 1.86-.79v-4.29c-.82.47-1.7.7-2.64.7-1.15 0-1.72-.61-1.72-1.83v-8.08h4.43v-4.57h-4.43v-4.82h-5.34v4.82h-2.25v4.57h2.25v8.93c0 1.1.13 2.01.4 2.72.27.71.64 1.29 1.12 1.74.48.45 1.06.76 1.72.93.67.17 1.41.26 2.23.26.9.01 1.69-.09 2.37-.29zm16.97-.01h5.34v-15.96l6.85 10.4h.14l6.93-10.51v16.06h5.34v-24.6h-5.83l-6.47 10.4-6.47-10.4h-5.84l.01 24.61zm30.2 0h5.34v-18.84h-5.34v18.84zm-.15-20.92h5.62v-4.75h-5.62v4.75zm16.31 13.74c-.87-.8-1.3-1.85-1.3-3.16v-.07c0-.63.12-1.22.35-1.76.23-.54.56-1 .97-1.39s.89-.69 1.44-.9 1.15-.32 1.81-.32 1.27.11 1.83.32 1.05.51 1.46.9.73.85.97 1.39c.23.54.35 1.12.35 1.76v.07c0 .63-.12 1.22-.35 1.76-.23.54-.56 1-.97 1.39s-.9.68-1.46.9-1.17.32-1.83.32c-1.31-.01-2.4-.41-3.27-1.21zm7.4 12.27c1.35-.4 2.47-1.04 3.36-1.93 1.59-1.59 2.39-4.07 2.39-7.42v-14.59h-5.34v2.46c-.73-.8-1.56-1.46-2.49-2-.94-.54-2.13-.81-3.58-.81-1.08 0-2.12.19-3.13.58s-1.9.95-2.67 1.7-1.39 1.67-1.86 2.76c-.47 1.09-.7 2.34-.7 3.74v.07c0 1.41.23 2.65.69 3.74.46 1.09 1.07 2.01 1.85 2.76.77.75 1.66 1.32 2.67 1.7 1.01.39 2.06.58 3.16.58 1.43 0 2.61-.27 3.55-.81s1.8-1.29 2.6-2.25v.91c0 1.69-.44 2.96-1.32 3.83s-2.23 1.3-4.06 1.3c-1.27 0-2.4-.15-3.39-.46-1-.3-1.99-.73-2.97-1.26l-1.83 4.01c1.2.63 2.5 1.12 3.9 1.46 1.41.34 2.88.51 4.43.51 1.81.02 3.39-.18 4.74-.58zm10.53-5.09h5.34v-6.96c0-2.27.51-3.95 1.53-5.03s2.42-1.62 4.2-1.62h.28v-5.59c-1.59-.07-2.86.28-3.8 1.05s-1.68 1.8-2.21 3.09v-3.8h-5.34v18.86zm19.54-3.94c-.54-.4-.81-.96-.81-1.69v-.07c0-.84.33-1.49.98-1.93.66-.44 1.56-.67 2.71-.67.66 0 1.27.06 1.85.19.57.13 1.1.3 1.56.51v.95c0 .98-.38 1.78-1.14 2.39s-1.77.91-3.04.91c-.87.01-1.57-.19-2.11-.59zm3.83 3.64c.91-.43 1.7-1.01 2.36-1.74v2.04h5.17v-10.93c0-1.27-.16-2.41-.49-3.43s-.84-1.88-1.55-2.58c-.68-.68-1.54-1.2-2.58-1.56-1.04-.36-2.3-.54-3.78-.54-1.59 0-2.95.14-4.08.42-1.12.28-2.2.64-3.23 1.09l1.34 4.08c.87-.33 1.69-.58 2.48-.76s1.69-.26 2.72-.26c1.34 0 2.34.29 3.02.88s1.02 1.44 1.02 2.57v.32c-.68-.23-1.38-.42-2.09-.56s-1.55-.21-2.51-.21c-1.12 0-2.15.12-3.08.37s-1.72.61-2.39 1.11c-.67.49-1.19 1.11-1.56 1.86-.38.75-.56 1.64-.56 2.67v.07c0 .94.17 1.76.51 2.48.34.71.8 1.32 1.39 1.81.58.49 1.27.86 2.06 1.11s1.62.37 2.51.37c1.3-.03 2.41-.25 3.32-.68zm20.85.31c.68-.2 1.3-.46 1.86-.79v-4.29c-.82.47-1.7.7-2.64.7-1.15 0-1.72-.61-1.72-1.83v-8.08h4.43v-4.57h-4.43v-4.82h-5.34v4.82h-2.25v4.57h2.25v8.93c0 1.1.13 2.01.4 2.72.27.71.64 1.29 1.12 1.74.48.45 1.06.76 1.72.93.67.17 1.41.26 2.23.26.9.01 1.69-.09 2.37-.29zm10.19-10.91c.21-1.22.66-2.19 1.35-2.92s1.6-1.09 2.72-1.09 2.03.37 2.71 1.11 1.1 1.7 1.27 2.9h-8.05zm9.07 10.39c1.27-.62 2.34-1.48 3.23-2.58l-3.06-2.71c-.75.68-1.48 1.17-2.18 1.48-.7.31-1.5.46-2.39.46-1.19 0-2.2-.31-3.01-.93s-1.34-1.54-1.6-2.76h13.11c.02-.26.04-.5.05-.74s.02-.46.02-.67c0-1.34-.18-2.62-.54-3.85-.36-1.23-.93-2.32-1.69-3.27s-1.72-1.7-2.86-2.27c-1.15-.56-2.51-.84-4.08-.84-1.38 0-2.64.26-3.78.77-1.14.52-2.11 1.22-2.93 2.11s-1.46 1.93-1.91 3.13c-.46 1.2-.69 2.46-.69 3.8v.07c0 1.45.25 2.77.74 3.95s1.18 2.21 2.06 3.08 1.92 1.54 3.13 2c1.21.47 2.51.7 3.92.7 1.7 0 3.19-.31 4.46-.93z" class="st3"/></svg>