<svg xmlns="http://www.w3.org/2000/svg" role="img" viewBox="-10.77 -10.77 538.54 560.04"><title>FDC3 logo</title><style>svg {enable-background:new 0 0 517.2 538.4}</style><path d="M481.7 486.3c22 0 35.5-13.6 35.5-32.2v-.3c0-18.3-13.1-25.3-26.5-27.6l24.9-23.8v-16.3H449v18.6h38.7l-23.5 23.7 3.4 13.8h9c12.1 0 19.3 4.5 19.3 12.5v.3c0 7.3-5.8 12-13.9 12-10 0-17-4.2-23.8-11.8l-14.9 14.2c8.5 9.9 20.7 16.9 38.4 16.9zM0 535.9h25.7v-60H100v-23.3H25.7V412h83.7v-23.3H0v147.2zm163.7-23.3V412h29c7.7 0 14.7 1.3 21 3.8 6.3 2.5 11.7 6 16.1 10.5s7.9 9.8 10.3 16c2.5 6.2 3.7 12.9 3.7 20.1v.4c0 7.2-1.2 13.8-3.7 20-2.5 6.1-5.9 11.4-10.3 15.8s-9.8 7.9-16.1 10.3c-6.3 2.5-13.3 3.7-21 3.7h-29zM138 535.9h54.9c11.5 0 22.1-1.9 31.7-5.7s17.9-9 24.8-15.6c6.9-6.6 12.3-14.4 16.1-23.3s5.7-18.7 5.7-29v-.4c0-10.4-1.9-20-5.7-28.9-3.8-8.9-9.1-16.7-16.1-23.2-6.9-6.6-15.2-11.8-24.8-15.5s-20.2-5.6-31.7-5.6H138v147.2zm251.9.8c5.7-1.2 10.9-3 15.7-5.3 4.8-2.3 9.2-5 13.4-8.2 4.1-3.2 8.1-6.8 11.9-10.8l-16.6-16.8c-6.3 5.9-12.7 10.5-19.1 14-6.5 3.4-14.2 5.2-23.1 5.2-7 0-13.5-1.4-19.5-4.1s-11.1-6.5-15.5-11.2c-4.4-4.8-7.7-10.3-10.1-16.7-2.4-6.4-3.6-13.2-3.6-20.3v-.4c0-7.2 1.2-13.9 3.6-20.2 2.4-6.3 5.8-11.8 10.1-16.5 4.3-4.7 9.5-8.4 15.5-11.2 6-2.7 12.5-4.1 19.5-4.1 8.4 0 15.9 1.7 22.5 5s12.8 7.8 18.7 13.2l16.6-19.1c-3.5-3.4-7.2-6.5-11.1-9.3-3.9-2.8-8.2-5.2-12.8-7.3-4.6-2-9.7-3.6-15.2-4.7s-11.7-1.7-18.4-1.7c-11.2 0-21.5 2-30.7 6s-17.3 9.5-24 16.4-12 15-15.8 24.2c-3.8 9.2-5.6 19-5.6 29.6v.4c0 10.5 1.9 20.4 5.7 29.7 3.8 9.3 9.1 17.3 15.8 24.1 6.7 6.8 14.6 12.2 23.7 16.1 9.1 3.9 19.1 5.9 29.9 5.9 6.6-.1 12.9-.8 18.5-1.9z"/><path fill="#0054a6" d="M291.4 247.5V88.2L163 162.4c.1.7.4 1.3.4 2 0 8-5.4 14.5-12.6 16.7v147.7l140.6-81.3z"/><path fill="#5d93cd" d="M159.5 153.7l126.6-73.1v-.4L145.7 0 5.3 80.2v.4l126.6 73.1c3.2-4.2 8.1-7.1 13.8-7.1 5.7.1 10.6 2.9 13.8 7.1z"/><path d="M128.4 162.4L0 88.2v159.2l140.7 81.2V181c-7.3-2.2-12.6-8.7-12.6-16.7-.1-.7.2-1.2.3-1.9z"/></svg>