<svg xmlns="http://www.w3.org/2000/svg" role="img" viewBox="-4.34 2.91 95.17 212.42"><title>FDC3 Sail logo</title><style>svg {enable-background:new 0 0 88.3 211.3}</style><linearGradient id="SVGID_1_" x1="123.03" x2="7.137" y1="192.404" y2="84.788" gradientTransform="matrix(1 0 0 -1 0 224.613)" gradientUnits="userSpaceOnUse"><stop offset=".581" stop-color="#3ec6f3" stop-opacity="0"/><stop offset="1" stop-color="#3ec6f3"/></linearGradient><path fill="url(#SVGID_1_)" fill-rule="evenodd" d="M88.3 0s-.6 1.4-2 3.9c-5 9-19.8 32.6-51.7 60.5C-6.3 100.2.4 128.9.4 128.9h87.9V0z" clip-rule="evenodd"/><linearGradient id="SVGID_00000062163150134788116350000014238248698772220801_" x1="43.571" x2="43.571" y1="128.919" y2="6.75" gradientUnits="userSpaceOnUse"><stop offset="0" stop-color="#50c9ef"/><stop offset="1" stop-color="#50c9ef" stop-opacity=".6"/></linearGradient><path fill="url(#SVGID_00000062163150134788116350000014238248698772220801_)" d="M.4 128.9c-.3-6.4 1.4-12.7 3.6-18.7 2.3-6 5.4-11.6 8.9-16.9C20 82.7 29.2 73.6 38.4 65c4.7-4.3 9.4-8.5 13.8-13 4.5-4.4 8.7-9.1 12.8-13.9 4.1-4.8 7.9-9.9 11.5-15 3.7-5.1 7.1-10.5 10.1-16l.1.1c-2.9 5.7-6.1 11.1-9.7 16.4-3.5 5.3-7.3 10.4-11.3 15.3-4 4.9-8.3 9.6-12.8 14.1s-9.2 8.8-13.8 13.1c-4.6 4.3-9.2 8.7-13.6 13.3-4.3 4.6-8.4 9.5-12 14.7-3.6 5.2-6.7 10.7-9.1 16.6-2.4 5.8-4.2 12-4.1 18.4l.1-.2z"/><linearGradient id="SVGID_00000032634904339272408050000005866507810053066885_" x1="43.564" x2="43.564" y1="128.919" y2="14.411" gradientUnits="userSpaceOnUse"><stop offset="0" stop-color="#50c9ef"/><stop offset="1" stop-color="#50c9ef" stop-opacity=".6"/></linearGradient><path fill="url(#SVGID_00000032634904339272408050000005866507810053066885_)" d="M.4 128.9c-.2-3 .2-6.1.9-9.1s1.7-5.9 2.9-8.7c2.4-5.7 5.5-11 9.1-16 7.2-10 16.3-18.3 25.4-26.4 4.6-4 9.2-7.9 13.7-12s8.7-8.4 12.7-12.9 7.9-9.2 11.5-14.1c3.7-4.8 7-9.9 10.2-15.1l.1.1C84 20 80.7 25.2 77.2 30.1c-3.5 5-7.3 9.7-11.3 14.3-4 4.6-8.2 9-12.7 13.1-4.4 4.1-9.1 8.1-13.6 12.1-4.6 4-9.1 8-13.4 12.3-4.3 4.3-8.4 8.8-12 13.7-3.6 4.9-6.8 10.1-9.3 15.6-2.4 5.5-4.3 11.5-4.3 17.6l-.2.1z"/><linearGradient id="SVGID_00000150808472305951242530000018079673051139565461_" x1="43.564" x2="43.564" y1="128.919" y2="22.07" gradientUnits="userSpaceOnUse"><stop offset="0" stop-color="#50c9ef"/><stop offset="1" stop-color="#50c9ef" stop-opacity=".6"/></linearGradient><path fill="url(#SVGID_00000150808472305951242530000018079673051139565461_)" d="M.4 128.9c-.2-2.9.2-5.9 1-8.7.7-2.9 1.8-5.6 3-8.3 2.5-5.4 5.7-10.3 9.3-15C21 87.6 30 79.9 39 72.5c4.5-3.7 9.1-7.3 13.5-11s8.6-7.8 12.6-11.9c4-4.2 7.9-8.5 11.5-13.1 3.7-4.5 7.1-9.2 10.2-14.1l.1.1c-2.9 5-6.2 9.9-9.8 14.5-3.5 4.6-7.3 9.1-11.3 13.4-4 4.3-8.2 8.3-12.6 12.1-4.4 3.8-8.9 7.5-13.5 11.2-4.5 3.7-9 7.4-13.3 11.3-4.3 3.9-8.4 8.1-12 12.7-3.7 4.5-6.9 9.4-9.4 14.6C2.5 117.5.5 123.2.6 129l-.2-.1z"/><linearGradient id="SVGID_00000170959401119507838040000005566396642845385654_" x1="43.565" x2="43.565" y1="128.92" y2="29.728" gradientUnits="userSpaceOnUse"><stop offset="0" stop-color="#50c9ef"/><stop offset="1" stop-color="#50c9ef" stop-opacity=".6"/></linearGradient><path fill="url(#SVGID_00000170959401119507838040000005566396642845385654_)" d="M.4 128.9c-.2-2.8.3-5.6 1-8.3.8-2.7 1.9-5.3 3.1-7.9 2.5-5 5.8-9.7 9.5-14 7.3-8.6 16.3-15.6 25.1-22.4 4.5-3.3 9-6.6 13.3-10.1 4.4-3.4 8.5-7.1 12.5-11 4-3.8 7.8-7.9 11.5-12.1 3.7-4.2 7.1-8.6 10.3-13.2l.1.1c-3 4.7-6.3 9.2-9.9 13.5-3.5 4.5-7.3 8.6-11.3 12.5-7.9 8-16.9 14.7-25.8 21.4-8.8 6.7-17.7 13.6-25.1 22-3.7 4.2-7 8.7-9.6 13.6-2.6 4.9-4.7 10.3-4.6 15.9H.4z"/><linearGradient id="SVGID_00000078743004809875201180000008181072435582882992_" x1="43.565" x2="43.565" y1="128.92" y2="37.383" gradientUnits="userSpaceOnUse"><stop offset="0" stop-color="#50c9ef"/><stop offset="1" stop-color="#50c9ef" stop-opacity=".6"/></linearGradient><path fill="url(#SVGID_00000078743004809875201180000008181072435582882992_)" d="M.4 128.9c-.2-2.7.3-5.4 1.1-8 .8-2.6 2-5 3.2-7.4 2.6-4.7 6-9 9.7-13 7.4-7.9 16.2-14.2 25-20.4 4.4-3 8.8-6 13.1-9.2 4.3-3.1 8.4-6.5 12.4-10s7.8-7.2 11.5-11.1c3.7-3.8 7.1-7.9 10.4-12.2l.1.1c-3 4.4-6.4 8.6-10 12.6-3.6 4-7.4 7.8-11.3 11.4-7.8 7.3-16.7 13.4-25.5 19.5s-17.5 12.3-25 20c-3.7 3.8-7.1 8-9.8 12.6-1.3 2.3-2.5 4.7-3.4 7.2-.9 2.5-1.5 5.2-1.4 7.8l-.1.1z"/><g><linearGradient id="SVGID_00000044878790915316622140000002685642720653397408_" x1="43.567" x2="43.567" y1="128.92" y2="45.037" gradientUnits="userSpaceOnUse"><stop offset="0" stop-color="#50c9ef"/><stop offset="1" stop-color="#50c9ef" stop-opacity=".6"/></linearGradient><path fill="url(#SVGID_00000044878790915316622140000002685642720653397408_)" d="M.4 128.9c-.1-1.3 0-2.6.2-3.9.2-1.3.6-2.5 1-3.7.9-2.4 2.1-4.7 3.4-7 2.7-4.4 6.2-8.3 9.9-11.9 7.5-7.2 16.2-12.8 24.8-18.4 4.3-2.7 8.7-5.4 12.9-8.3 4.3-2.8 8.3-5.9 12.3-9 4-3.2 7.8-6.6 11.4-10.1 3.7-3.5 7.2-7.2 10.4-11.2l.1.1c-3 4.1-6.5 8-10 11.6-3.6 3.7-7.4 7.1-11.3 10.4-7.8 6.6-16.5 12.1-25.1 17.6-8.6 5.5-17.3 11.1-24.8 18-3.7 3.5-7.2 7.3-10 11.6-1.4 2.1-2.7 4.4-3.6 6.7-.9 2.4-1.6 4.9-1.5 7.4l-.1.1z"/></g><g><linearGradient id="SVGID_00000124871331452200634090000008068001397229220791_" x1="43.565" x2="43.565" y1="128.92" y2="52.688" gradientUnits="userSpaceOnUse"><stop offset="0" stop-color="#50c9ef"/><stop offset="1" stop-color="#50c9ef" stop-opacity=".6"/></linearGradient><path fill="url(#SVGID_00000124871331452200634090000008068001397229220791_)" d="M.4 128.9c-.2-2.5.4-5 1.4-7.2 1-2.3 2.2-4.4 3.6-6.5 2.9-4.1 6.4-7.6 10.1-10.9 3.7-3.3 7.8-6.1 11.9-8.8 4.1-2.7 8.4-5.2 12.6-7.7 4.3-2.4 8.5-4.8 12.7-7.4 4.2-2.5 8.2-5.3 12.1-8.1 3.9-2.9 7.7-5.9 11.4-9.1 3.7-3.2 7.2-6.6 10.5-10.2l.1.1c-3.1 3.8-6.5 7.3-10.1 10.6-3.6 3.3-7.4 6.5-11.3 9.4-7.8 6-16.3 10.9-24.8 15.8s-17 9.8-24.5 16.1c-3.8 3.1-7.3 6.6-10.2 10.5-1.4 2-2.8 4-3.8 6.3-1 2.2-1.7 4.6-1.7 7.1z"/></g><g><linearGradient id="SVGID_00000057847913712137535500000003596239654786394545_" x1="43.566" x2="43.566" y1="128.92" y2="60.337" gradientUnits="userSpaceOnUse"><stop offset="0" stop-color="#50c9ef"/><stop offset="1" stop-color="#50c9ef" stop-opacity=".6"/></linearGradient><path fill="url(#SVGID_00000057847913712137535500000003596239654786394545_)" d="M.4 128.9c-.2-2.4.5-4.8 1.6-6.9 1.1-2.1 2.4-4.1 3.8-6 3-3.7 6.6-6.9 10.3-9.8 3.7-2.9 7.8-5.4 11.8-7.8 4.1-2.4 8.2-4.6 12.4-6.8 4.2-2.1 8.3-4.2 12.4-6.5 4.1-2.2 8.1-4.7 12-7.2 3.9-2.5 7.7-5.3 11.4-8.1s7.2-5.9 10.6-9.2l.1.1c-3.2 3.5-6.6 6.6-10.2 9.6-3.6 3-7.4 5.8-11.2 8.4-7.7 5.3-16.1 9.7-24.4 14-8.3 4.3-16.7 8.6-24.2 14.2-3.8 2.8-7.4 5.8-10.4 9.4-1.5 1.8-2.9 3.7-4 5.8-1.1 2.1-1.9 4.3-1.8 6.7l-.2.1z"/></g><g><linearGradient id="SVGID_00000011013186336346170120000005450263450465288127_" x1="43.565" x2="43.565" y1="128.921" y2="67.983" gradientUnits="userSpaceOnUse"><stop offset="0" stop-color="#50c9ef"/><stop offset="1" stop-color="#50c9ef" stop-opacity=".6"/></linearGradient><path fill="url(#SVGID_00000011013186336346170120000005450263450465288127_)" d="M.4 128.9c-.2-2.3.7-4.5 1.8-6.5s2.6-3.8 4.1-5.5c3.1-3.3 6.8-6.1 10.5-8.7 3.8-2.6 7.7-4.7 11.8-6.8 4-2.1 8.1-4 12.2-5.9 4.1-1.9 8.2-3.7 12.2-5.6 4-1.9 7.9-4.1 11.8-6.3 3.9-2.2 7.7-4.6 11.3-7.2 3.7-2.5 7.3-5.2 10.7-8.2l.1.1c-3.2 3.1-6.7 6-10.3 8.6-3.6 2.7-7.4 5.1-11.2 7.5-7.7 4.7-15.9 8.5-24 12.2-8.1 3.8-16.3 7.5-23.9 12.3-3.8 2.4-7.4 5.1-10.6 8.3-1.6 1.6-3 3.3-4.2 5.2-1.2 1.9-2.1 4-2 6.3l-.3.2z"/></g><g><path fill="#50c9ef" d="M2 173.8v-21h13.6v3.1H5.9v5.9h7.9v3H5.9v9H2zm16.1 0v-21h7.2c2.5 0 4.5.4 6.1 1.3s2.8 2.1 3.5 3.7c.8 1.6 1.2 3.4 1.2 5.5s-.4 4-1.2 5.5c-.8 1.6-2 2.8-3.5 3.7s-3.6 1.3-6.1 1.3h-7.2zm3.8-3.3h3.2c1.8 0 3.1-.3 4.2-.9 1-.6 1.8-1.4 2.2-2.5.4-1.1.7-2.4.7-3.9s-.2-2.8-.7-3.9c-.4-1.1-1.2-1.9-2.2-2.5-1-.6-2.4-.9-4.2-.9h-3.2v14.6zm26.5 3.7c-2.1 0-3.9-.5-5.5-1.4s-2.7-2.2-3.5-3.8c-.8-1.6-1.2-3.5-1.2-5.7s.4-4 1.2-5.7c.8-1.6 2-2.9 3.5-3.8 1.5-.9 3.3-1.4 5.5-1.4 2.5 0 4.6.6 6.2 1.9 1.6 1.3 2.6 3 3 5.3h-4.2c-.3-1.1-.8-2-1.7-2.7-.9-.6-2-1-3.4-1-1.9 0-3.5.7-4.6 2-1.1 1.3-1.6 3.1-1.6 5.4s.5 4.1 1.6 5.4 2.6 2 4.6 2c1.4 0 2.5-.3 3.4-.9.9-.6 1.4-1.5 1.7-2.5h4.2c-.4 2.2-1.4 3.9-3 5.1-1.6 1.2-3.7 1.8-6.2 1.8zm19 0c-1.4 0-2.6-.2-3.8-.7s-2-1.2-2.7-2.3c-.7-1-1-2.3-1.1-3.8h3.8c0 1 .4 1.9 1 2.6.6.7 1.6 1 2.7 1s2-.3 2.6-.9c.6-.6.9-1.4.9-2.3 0-1.1-.4-1.9-1.2-2.5-.8-.6-1.8-.9-3-.9H65v-3.2h1.6c1 0 1.9-.2 2.5-.7.7-.5 1-1.2 1-2.1 0-.8-.3-1.4-.8-1.9s-1.2-.7-2.1-.7c-1 0-1.7.3-2.3.9s-.9 1.3-.9 2.1h-3.8c.1-1.9.8-3.5 2-4.6 1.3-1.1 2.9-1.7 4.9-1.7 1.4 0 2.7.3 3.6.8 1 .5 1.7 1.2 2.2 2 .5.8.8 1.8.8 2.8 0 1.2-.3 2.2-1 3-.7.8-1.5 1.4-2.4 1.6 1.2.2 2.1.8 2.9 1.7.7.9 1.1 2.1 1.1 3.4 0 1.2-.3 2.2-.8 3.2s-1.4 1.7-2.4 2.3c-.8.6-2.1.9-3.7.9z"/><path fill="#0e0e0e" d="M13.4 211.3c-2.2 0-4.2-.4-5.8-1.1-1.7-.8-3-1.8-4-3.3s-1.5-3.1-1.5-5.2h5.8c.1 1.4.6 2.6 1.5 3.5 1 1 2.3 1.4 4 1.4 1.5 0 2.6-.4 3.5-1.1.9-.7 1.3-1.6 1.3-2.8 0-1.2-.4-2.2-1.1-2.9-.8-.7-1.8-1.2-3-1.7-1.3-.4-2.6-.9-4-1.4-2.3-.8-4.1-1.8-5.3-3.1-1.2-1.3-1.8-2.9-1.8-5 0-1.8.4-3.3 1.3-4.6.9-1.3 2.1-2.3 3.6-3 1.5-.7 3.3-1.1 5.2-1.1 2 0 3.8.4 5.3 1.1 1.5.7 2.7 1.7 3.6 3 .9 1.3 1.3 2.8 1.4 4.6h-5.9c0-1.1-.4-2-1.2-2.8-.8-.8-1.9-1.2-3.3-1.2-1.2 0-2.2.3-3 .9-.8.6-1.2 1.5-1.2 2.7 0 1 .3 1.8.9 2.4.6.6 1.5 1.1 2.6 1.5 1.1.4 2.3.8 3.7 1.3 1.5.5 2.9 1.1 4.1 1.8 1.2.7 2.2 1.6 3 2.7.7 1.1 1.1 2.6 1.1 4.4 0 1.6-.4 3-1.2 4.4-.8 1.3-2 2.4-3.6 3.2-1.8 1-3.7 1.4-6 1.4zm12.8-.5l11-30.1h6.2l11 30.1h-5.8l-2.4-7H34.4l-2.5 7h-5.7zm9.7-11.2h8.7l-4.4-12.5-4.3 12.5zm21.7 11.2v-30.1h5.5v30.1h-5.5zm10.6 0v-30.1h5.5v25.8H87v4.3H68.2z"/></g></svg>