<svg xmlns="http://www.w3.org/2000/svg" role="img" viewBox="-11.31 -10.81 558.62 562.12"><title>Financial Objects logo</title><style>svg {enable-background:new 0 0 536.69 540.62}</style><style>.st0{fill:#f78e20}.st1{fill:#265eac}</style><path d="M26.62 528.44c-2.68-1.22-4.97-2.85-6.89-4.9-1.91-2.04-3.4-4.46-4.47-7.24-1.06-2.78-1.6-5.73-1.6-8.84v-.18c0-3.11.53-6.05 1.6-8.79 1.07-2.75 2.54-5.14 4.42-7.19 1.88-2.05 4.15-3.66 6.8-4.86 2.65-1.19 5.55-1.79 8.71-1.79 3.16 0 6.08.61 8.76 1.83 2.67 1.22 4.97 2.85 6.89 4.9 1.91 2.05 3.4 4.46 4.47 7.24 1.07 2.78 1.6 5.72 1.6 8.84v.18c0 3.11-.53 6.05-1.6 8.79-1.06 2.75-2.54 5.15-4.42 7.19-1.89 2.05-4.15 3.66-6.79 4.86-2.65 1.19-5.55 1.79-8.71 1.79-3.18 0-6.1-.61-8.77-1.83zm22.13 9.53c4.09-1.77 7.63-4.17 10.63-7.19 2.99-3.02 5.31-6.53 6.96-10.53 1.65-4 2.47-8.26 2.47-12.78v-.18c0-4.52-.82-8.78-2.47-12.78-1.65-4-3.94-7.49-6.87-10.49-2.93-2.99-6.44-5.36-10.53-7.1-4.09-1.74-8.61-2.61-13.56-2.61-4.95 0-9.47.89-13.56 2.66s-7.63 4.17-10.63 7.19c-2.99 3.02-5.31 6.54-6.96 10.53-1.65 4-2.47 8.26-2.47 12.78v.18c0 4.52.82 8.78 2.47 12.78 1.65 4 3.94 7.5 6.87 10.49s6.44 5.36 10.53 7.1c4.09 1.74 8.61 2.61 13.56 2.61 4.95-.01 9.47-.89 13.56-2.66zm46.16-8.43v-17.59h17.81c4.44 0 7.75.75 9.91 2.24 2.16 1.5 3.24 3.62 3.24 6.37v.18c0 2.93-1.1 5.13-3.29 6.6-2.19 1.47-5.21 2.2-9.04 2.2H94.91zm0-27.11v-17.04h16.16c3.65 0 6.43.72 8.35 2.15 1.92 1.44 2.88 3.43 2.88 6v.18c0 2.93-1.1 5.11-3.29 6.55-2.19 1.44-5.11 2.15-8.76 2.15H94.91v.01zm-11.17 37.09h29.63c3.54 0 6.77-.38 9.69-1.15 2.93-.76 5.43-1.88 7.5-3.34 2.07-1.46 3.67-3.3 4.8-5.5s1.69-4.73 1.69-7.6v-.18c0-2.2-.3-4.12-.91-5.77-.61-1.65-1.47-3.08-2.59-4.31-1.12-1.22-2.46-2.27-4.01-3.16-1.55-.88-3.26-1.66-5.14-2.34 1.15-.61 2.29-1.34 3.41-2.2 1.12-.86 2.09-1.85 2.91-2.98.82-1.13 1.48-2.44 2-3.94.51-1.5.77-3.22.77-5.18v-.18c0-4.21-1.43-7.75-4.3-10.62-3.78-3.79-9.36-5.68-16.73-5.68H83.74v64.13zm90.41-.5c2.62-.95 4.88-2.37 6.78-4.26 1.89-1.89 3.36-4.24 4.4-7.05 1.04-2.81 1.56-6.14 1.56-9.98V475.4h-11.54v42.04c0 4.28-.93 7.43-2.79 9.48-1.86 2.05-4.32 3.07-7.37 3.07-2.75 0-5.11-.66-7.1-1.97-1.98-1.31-3.92-3.16-5.82-5.54l-7.42 7.6c2.14 2.93 4.86 5.39 8.15 7.37 3.3 1.98 7.42 2.98 12.37 2.98 3.22.01 6.15-.46 8.78-1.41zm29.49.5h47.91v-10.17h-36.73v-17.13h32.15v-10.17h-32.15v-16.49h36.27V475.4h-47.45v64.12zm100.71.32c2.47-.52 4.75-1.28 6.82-2.29 2.08-1.01 4.01-2.2 5.82-3.57 1.8-1.37 3.53-2.95 5.17-4.72l-7.24-7.33c-2.75 2.57-5.53 4.6-8.34 6.09-2.81 1.5-6.17 2.24-10.08 2.24-3.05 0-5.88-.59-8.47-1.79-2.6-1.19-4.84-2.82-6.73-4.9-1.89-2.08-3.36-4.5-4.4-7.28-1.04-2.78-1.56-5.73-1.56-8.84v-.18c0-3.11.52-6.05 1.56-8.79 1.04-2.75 2.5-5.14 4.4-7.19 1.89-2.05 4.14-3.66 6.73-4.86 2.6-1.19 5.42-1.79 8.47-1.79 3.66 0 6.93.73 9.8 2.2 2.87 1.46 5.59 3.39 8.15 5.77l7.24-8.34c-1.53-1.47-3.15-2.81-4.86-4.03-1.71-1.22-3.57-2.27-5.59-3.16-2.01-.88-4.23-1.57-6.64-2.06-2.41-.49-5.08-.73-8.01-.73-4.89 0-9.34.87-13.37 2.61-4.03 1.74-7.52 4.12-10.47 7.14-2.95 3.02-5.24 6.53-6.87 10.53-1.63 4-2.45 8.29-2.45 12.87v.18c0 4.58.83 8.89 2.49 12.92 1.66 4.03 3.95 7.53 6.87 10.49s6.36 5.3 10.33 7.01c3.97 1.71 8.3 2.57 13.01 2.57 3.02.01 5.75-.25 8.22-.77zm46.58-.32h11.36v-53.68h20.34V475.4H330.6v10.44h20.34v53.68h-.01zm76.66-.36c2.8-.85 5.2-2.11 7.2-3.76s3.56-3.66 4.68-6.04c1.12-2.38 1.68-5.07 1.68-8.06v-.18c0-2.62-.45-4.93-1.33-6.92-.89-1.98-2.19-3.72-3.9-5.22-1.71-1.5-3.87-2.76-6.47-3.8-2.6-1.04-5.59-1.98-8.95-2.84-3.06-.73-5.59-1.43-7.58-2.11-1.99-.67-3.55-1.39-4.68-2.15s-1.91-1.62-2.34-2.56c-.43-.95-.64-2.03-.64-3.25v-.18c0-2.14.92-3.94 2.75-5.41 1.83-1.46 4.4-2.2 7.69-2.2 2.93 0 5.83.56 8.7 1.69 2.87 1.13 5.77 2.76 8.7 4.9l6.05-8.52c-3.3-2.62-6.82-4.63-10.58-6s-7.98-2.06-12.69-2.06c-3.18 0-6.1.46-8.78 1.37-2.68.91-4.98 2.18-6.88 3.8-1.91 1.62-3.41 3.57-4.5 5.86-1.09 2.29-1.63 4.81-1.63 7.56v.18c0 2.93.47 5.43 1.42 7.51s2.33 3.83 4.13 5.27c1.81 1.43 4.04 2.66 6.7 3.66 2.66 1.01 5.71 1.91 9.14 2.7 3 .67 5.43 1.34 7.3 2.02 1.87.67 3.34 1.41 4.41 2.2 1.07.8 1.81 1.64 2.2 2.52.4.89.6 1.91.6 3.07v.18c0 2.44-1.02 4.4-3.07 5.86s-4.81 2.2-8.29 2.2c-4.03 0-7.63-.72-10.81-2.15-3.18-1.43-6.32-3.49-9.43-6.18l-6.78 8.06c3.85 3.48 8.03 6.06 12.55 7.74 4.52 1.68 9.25 2.52 14.2 2.52 3.34 0 6.43-.43 9.23-1.28z" class="st0"/><path d="M2.03 447.92H19.8v-22.9h30.32v-14.84H19.8v-10.81h33.52V383.8H2.03v64.12zm61.01 0H80.9V383.8H63.04v64.12zm30.87 0h17.49v-35.17l27.45 35.17h15.6V383.8h-17.49v33.89l-26.44-33.89H93.91v64.12zm96.54-25.19l7.24-18.23 7.14 18.23h-14.38zm-28.49 25.19h18.69l4.58-11.45h24.73l4.67 11.45h19.05l-27.3-64.58h-17.13l-27.29 64.58zm79.24 0h17.5v-35.17l27.45 35.17h15.61V383.8h-17.5v33.89l-26.44-33.89H241.2v64.12zm113.62.19c2.84-.73 5.4-1.74 7.69-3.02s4.34-2.81 6.14-4.58c1.8-1.77 3.46-3.69 4.99-5.77l-13.37-9.53c-.98 1.16-1.97 2.21-2.98 3.16-1.01.95-2.08 1.77-3.21 2.47-1.13.7-2.38 1.24-3.75 1.6-1.37.37-2.89.55-4.54.55-2.26 0-4.32-.44-6.18-1.33-1.86-.88-3.47-2.09-4.81-3.62-1.34-1.52-2.4-3.34-3.16-5.45-.76-2.11-1.15-4.35-1.15-6.73v-.18c0-2.32.38-4.52 1.15-6.6.76-2.07 1.82-3.88 3.16-5.4 1.34-1.53 2.95-2.73 4.81-3.62 1.86-.88 3.92-1.33 6.18-1.33 3.11 0 5.77.67 7.97 2.02 2.2 1.34 4.21 3.17 6.04 5.5l13.37-10.35c-1.41-1.95-3.01-3.76-4.81-5.4-1.8-1.65-3.82-3.07-6.05-4.26s-4.69-2.11-7.37-2.75c-2.69-.64-5.68-.96-8.98-.96-4.89 0-9.39.86-13.51 2.57-4.12 1.71-7.68 4.08-10.67 7.1-2.99 3.02-5.34 6.57-7.05 10.63-1.71 4.06-2.57 8.41-2.57 13.05v.18c0 4.76.87 9.17 2.61 13.24 1.74 4.06 4.09 7.57 7.05 10.53 2.96 2.96 6.46 5.27 10.49 6.92 4.03 1.65 8.34 2.47 12.92 2.47 3.56-.01 6.75-.38 9.59-1.11zm28.08-.19h17.86V383.8H382.9v64.12zm54.22-25.19l7.24-18.23 7.14 18.23h-14.38zm-28.48 25.19h18.69l4.58-11.45h24.73l4.67 11.45h19.05l-27.3-64.58h-17.13l-27.29 64.58zm79.23 0h48.82v-15.57h-31.05V383.8h-17.77v64.12z" class="st1"/><path d="M319.41 139.79c-3.67.71-7.34.62-10.79-.32-4.3 8.98-12.18 18.5-22.88 27.97-9.41-10.12-20.83-20.3-34.03-30.16 4.75-15.78 7.87-30.75 9.41-44.49 14.24 1.24 26.23 4.21 35.03 8.87 2.2-2.81 5.11-5.06 8.48-6.68-10.48-6.59-25.14-10.7-42.67-12.33.98-17.57-.92-32.67-5.88-44.01-2.1 3.09-4.75 5.63-7.86 7.4 3.31 9.39 4.46 21.69 3.58 35.96-13.74-.5-29.07.57-45.28 2.9-7.82-14.58-16.23-27.42-24.88-38.26 10.94-9.19 21.52-15.59 31.03-18.51-.43-3.54.03-7.19 1.28-10.72-12.07 2.75-25.34 10.22-38.88 21.45-11.74-13.12-23.76-22.46-35.29-26.96.71 3.67.62 7.34-.32 10.79 8.98 4.3 18.5 12.18 27.97 22.88-10.12 9.41-20.3 20.83-30.16 34.03-15.78-4.74-30.75-7.87-44.49-9.41 1.25-14.23 4.21-26.23 8.87-35.03-2.81-2.2-5.06-5.11-6.68-8.48-6.59 10.48-10.7 25.14-12.33 42.67-17.57-.98-32.67.91-44.01 5.88 3.1 2.1 5.63 4.75 7.4 7.85 9.39-3.31 21.69-4.46 35.96-3.58-.5 13.83.37 29.11 2.74 45.43-14.47 7.79-27.32 16.13-38.1 24.73-9.19-10.94-15.59-21.52-18.51-31.03-3.54.43-7.19-.03-10.72-1.27 2.75 12.07 10.22 25.33 21.46 38.88C25.74 167.98 16.4 180 11.89 191.53c3.67-.71 7.35-.62 10.79.32 4.3-8.98 12.18-18.5 22.88-27.97 9.41 10.12 20.83 20.3 34.03 30.16-4.75 15.78-7.87 30.75-9.42 44.49-14.23-1.25-26.23-4.21-35.03-8.87-2.2 2.81-5.11 5.06-8.48 6.68 10.48 6.59 25.14 10.7 42.67 12.33-.98 17.57.91 32.68 5.88 44.01 2.1-3.1 4.76-5.63 7.86-7.4-3.31-9.39-4.46-21.7-3.58-35.96 13.74.5 29.07-.57 45.28-2.9 7.83 14.58 16.23 27.42 24.88 38.26-10.94 9.19-21.52 15.59-31.03 18.51.42 3.54-.03 7.19-1.27 10.72 12.07-2.75 25.33-10.22 38.87-21.45 11.74 13.12 23.76 22.46 35.29 26.97-.71-3.67-.62-7.34.32-10.79-8.98-4.3-18.5-12.18-27.97-22.88 10.12-9.41 20.3-20.83 30.16-34.03 15.78 4.75 30.75 7.87 44.49 9.42-1.24 14.23-4.21 26.23-8.87 35.03 2.81 2.2 5.06 5.11 6.68 8.48 6.59-10.48 10.7-25.14 12.33-42.67 17.57.98 32.68-.91 44.01-5.88-3.1-2.1-5.63-4.75-7.4-7.86-9.39 3.31-21.69 4.46-35.96 3.58.5-13.82-.37-29.1-2.74-45.43 14.47-7.79 27.32-16.13 38.1-24.73 9.19 10.94 15.59 21.52 18.51 31.03 3.54-.43 7.19.03 10.72 1.27-2.75-12.07-10.22-25.33-21.45-38.88 13.13-11.74 22.47-23.77 26.97-35.3zM200.43 242.82c4.63-6.65 9.16-13.69 13.56-21.05 7.96-3.27 15.56-6.74 22.83-10.34 1.86 14.11 2.61 27.4 2.26 39.43-11.95-1.46-24.96-4.12-38.65-8.04zM96.1 130.67c4.17-2.13 8.38-4.24 12.79-6.26-1.77 3.28-3.54 6.58-5.25 9.98-1.71 3.4-3.32 6.78-4.9 10.16-.99-4.68-1.88-9.32-2.64-13.88zm.24 45.98c1.07 3.57 2.16 7.15 3.35 10.75 1.19 3.61 2.44 7.14 3.7 10.64-4.02-2.63-7.95-5.29-11.73-7.99 1.44-4.42 3.01-8.89 4.68-13.4zm16.42-37.66c3.72-7.38 7.65-14.46 11.69-21.31 7.32-2.95 14.88-5.72 22.66-8.28 7.77-2.56 15.5-4.83 23.13-6.82 7.33 3.11 14.7 6.46 22.08 10.18 7.38 3.72 14.46 7.65 21.32 11.69 2.94 7.32 5.72 14.88 8.28 22.65s4.83 15.5 6.82 23.14c-3.11 7.33-6.46 14.7-10.18 22.08-3.72 7.38-7.65 14.46-11.69 21.32-7.32 2.95-14.88 5.72-22.65 8.28-7.77 2.56-15.5 4.83-23.14 6.82-7.33-3.11-14.7-6.46-22.08-10.18-7.38-3.72-14.46-7.65-21.31-11.69-2.95-7.32-5.72-14.88-8.28-22.65-2.56-7.77-4.83-15.5-6.82-23.13 3.1-7.35 6.45-14.72 10.17-22.1zm114.91 57.92c1.71-3.4 3.32-6.78 4.9-10.16.99 4.69 1.87 9.32 2.63 13.88-4.17 2.13-8.38 4.24-12.79 6.26 1.79-3.28 3.55-6.58 5.26-9.98zm.24-63.65c4.02 2.63 7.95 5.29 11.73 7.99-1.43 4.42-3 8.9-4.67 13.4-1.07-3.57-2.17-7.15-3.35-10.76-1.2-3.59-2.45-7.12-3.71-10.63zm-37.86 106.38c-4.42-1.43-8.9-3.01-13.4-4.68 3.57-1.07 7.15-2.16 10.76-3.35 3.61-1.19 7.13-2.44 10.64-3.7-2.64 4.02-5.3 7.95-8 11.73zm-54.4 5.1c8-1.43 16.16-3.11 24.52-5.22 7.92 3.3 15.75 6.26 23.43 8.86-8.67 11.3-17.54 21.18-26.29 29.45-7.45-9.49-14.76-20.63-21.66-33.09zm-11.24-22.32c3.28 1.77 6.58 3.54 9.98 5.25 3.4 1.71 6.78 3.32 10.16 4.9-4.74 1-9.38 1.8-14 2.57-2.1-4.11-4.14-8.36-6.14-12.72zm-43.95 16.66c1.44-11.95 4.11-24.96 8.03-38.65 6.65 4.63 13.69 9.16 21.05 13.56 3.25 7.9 6.67 15.49 10.25 22.71-14.03 1.86-27.35 2.73-39.33 2.38zm11.33-78.91c-3.3 7.92-6.26 15.75-8.86 23.42-11.29-8.67-21.18-17.54-29.44-26.29 9.42-7.4 20.65-14.62 33.03-21.49 1.43 7.94 3.18 16.07 5.27 24.36zm39.08-71.68c-4.63 6.65-9.16 13.69-13.56 21.05-7.96 3.27-15.56 6.74-22.82 10.34-1.86-14.11-2.61-27.4-2.26-39.43 11.95 1.45 24.96 4.12 38.64 8.04zm10.39 3.18c4.42 1.43 8.89 3.01 13.4 4.68-3.57 1.07-7.15 2.16-10.75 3.35-3.61 1.19-7.14 2.44-10.64 3.7 2.62-4.02 5.29-7.95 7.99-11.73zm54.4-5.1c-8 1.43-16.16 3.11-24.52 5.22-7.92-3.3-15.75-6.26-23.42-8.86 8.67-11.3 17.54-21.18 26.29-29.45 7.44 9.49 14.75 20.63 21.65 33.09zm11.24 22.32c-3.28-1.77-6.59-3.54-9.98-5.25-3.4-1.71-6.78-3.32-10.15-4.9 4.74-1 9.38-1.8 14-2.57 2.09 4.11 4.13 8.36 6.13 12.72zm43.95-16.67c-1.44 11.95-4.11 24.96-8.03 38.65-6.65-4.63-13.69-9.16-21.05-13.56-3.25-7.9-6.67-15.49-10.25-22.71 14.03-1.85 27.35-2.72 39.33-2.38zm26.96 81.79c-9.42 7.4-20.65 14.62-33.03 21.49-1.43-7.94-3.18-16.07-5.27-24.35 3.3-7.92 6.26-15.75 8.86-23.43 11.29 8.66 21.18 17.54 29.44 26.29z" class="st0"/><path d="M187.99 192.73c2.73-1.9 4.89-4.06 6.48-6.49 1.59-2.42 2.58-5.05 2.97-7.89.39-2.83.07-5.82-.97-8.96l-.06-.17c-.94-2.85-2.27-5.13-4-6.85-1.73-1.72-3.82-2.98-6.28-3.78-2.46-.8-5.27-1.24-8.43-1.33-3.16-.09-6.61.07-10.35.47-2.25.23-4.13.35-5.64.36-1.51.02-2.73-.07-3.66-.24-.93-.18-1.64-.47-2.13-.89-.49-.42-.85-.97-1.08-1.67l-.06-.17c-.36-1.1-.16-2.2.61-3.29.77-1.09 2.17-1.97 4.21-2.65 2.74-.9 5.74-1.33 9.02-1.28 3.28.05 6.64.6 10.09 1.66l4.51-14.79c-4.21-1.6-8.59-2.41-13.15-2.43-4.56-.02-9.46.83-14.7 2.56-3.67 1.21-6.8 2.77-9.39 4.69-2.59 1.92-4.64 4.09-6.13 6.52-1.49 2.42-2.38 5.01-2.68 7.74-.29 2.74.03 5.53.97 8.38l.06.17c1.04 3.14 2.5 5.57 4.39 7.3 1.89 1.73 4.11 2.96 6.64 3.7 2.54.74 5.35 1.1 8.44 1.08 3.09-.02 6.39-.19 9.9-.51 2.25-.23 4.1-.34 5.55-.33 1.45 0 2.65.11 3.59.31.94.21 1.64.51 2.09.9.45.4.79.92 1 1.56l.06.17c.44 1.34.18 2.57-.77 3.69s-2.57 2.05-4.84 2.8c-7.1 2.34-14.52 2.08-22.24-.8l-5.71 14.4c4.9 2.15 10.1 3.26 15.58 3.34 5.48.08 10.96-.79 16.43-2.59 3.72-1.23 6.95-2.79 9.68-4.69zm-28.56-63.61l-2.92-8.86-12.57 4.15 3.07 9.31c2.07-1.22 4.31-2.33 6.92-3.19 1.89-.63 3.69-1.01 5.5-1.41zm10.71 74.77l2.59 7.84 12.57-4.15-2.34-7.09c-1.05.44-2.07.91-3.22 1.29-3.19 1.06-6.4 1.7-9.6 2.11zm160.33-92.58c-2.86-8.68-12.22-13.39-20.89-10.53-8.68 2.86-13.39 12.22-10.53 20.9 2.86 8.68 12.22 13.39 20.9 10.53 8.67-2.87 13.38-12.23 10.52-20.9zM251.09 32.9c4.11-8.16.83-18.11-7.33-22.22-8.16-4.11-18.11-.83-22.22 7.33-4.11 8.16-.83 18.11 7.33 22.22 8.16 4.11 18.11.83 22.22-7.33zM132.2 11.37C129.34 2.69 119.98-2.02 111.31.84c-8.68 2.86-13.39 12.22-10.53 20.9 2.86 8.68 12.22 13.39 20.9 10.53 8.67-2.87 13.38-12.22 10.52-20.9zM32.9 80.21c-8.16-4.11-18.11-.83-22.22 7.33-4.11 8.16-.83 18.11 7.33 22.22 8.16 4.11 18.11.83 22.22-7.33 4.11-8.15.83-18.1-7.33-22.22zm-21.53 118.9C2.69 201.97-2.02 211.32.84 220c2.86 8.68 12.22 13.39 20.9 10.53 8.68-2.86 13.39-12.22 10.53-20.89-2.87-8.68-12.22-13.39-20.9-10.53zm68.84 99.29c-4.11 8.16-.83 18.11 7.33 22.22 8.16 4.11 18.11.83 22.22-7.33 4.11-8.16.83-18.11-7.33-22.22-8.15-4.11-18.1-.83-22.22 7.33zm118.9 21.54c2.86 8.68 12.22 13.39 20.89 10.53 8.68-2.86 13.39-12.22 10.53-20.89-2.86-8.68-12.22-13.39-20.89-10.53-8.68 2.86-13.39 12.21-10.53 20.89zm99.29-68.85c8.16 4.11 18.11.83 22.22-7.33 4.11-8.16.83-18.11-7.33-22.22-8.16-4.11-18.11-.83-22.22 7.33-4.11 8.16-.83 18.11 7.33 22.22z" class="st1"/></svg>