<svg xmlns="http://www.w3.org/2000/svg" role="img" viewBox="-10.79 -10.79 443.58 561.08"><title>FINOS Security Scanning logo</title><style>svg {enable-background:new 0 0 422.1 540}</style><style>.st0{fill:#00b5e3}</style><path d="M32.1 513.7v11.2c0 .2-.2.5-.5.5H17c-.4 0-.5-.2-.5-.5v-11.7H.9v13.6C.9 534.6 6.1 540 14 540h20.4c7.8 0 13.2-5.4 13.2-13.2v-11.7c0-5.4-2-9.6-5.5-13.1L17 477.1c-.4-.4-.5-.6-.5-1.1v-8.6c0-.4.1-.5.5-.5h14.6c.2 0 .5.1.5.5V479h15.6v-13.6c0-7.7-5.4-13.1-13.2-13.1H14c-7.8 0-13.1 5.4-13.1 13.1v9.2c0 5.4 1.9 9.6 5.5 13.1l25.2 24.9c.2.4.5.6.5 1.1zm73.3 13v-13.4H89.9V525c0 .2-.2.5-.5.5H74.8c-.4 0-.5-.2-.5-.5v-57.5c0-.4.1-.5.5-.5h14.6c.2 0 .5.1.5.5V479h15.6v-13.6c0-7.6-5.5-13.1-13.2-13.1H71.8c-7.6 0-13.1 5.5-13.1 13.1v61.3c0 7.7 5.5 13.2 13.1 13.2h20.4c7.7 0 13.2-5.5 13.2-13.2zm46.7 13.1h16.3l-18.7-87.2h-18.8l-18.7 87.2h16.3l2.4-11.8h18.9l2.3 11.8zm-18.5-25.6L140 481l.4-3.1.4 3.1 6.4 33.2h-13.6zm88.5 25.6v-87.2h-15.3V499l-.4-1.9-14.4-44.5h-16.6v87.2h15.3v-52.2l.4 1.7 16.9 50.4h14.1v.1zm57.8 0v-87.2h-15.3V499l-.4-1.9-14.4-44.6h-16.6v87.2h15.3v-52.2l.4 1.7 16.9 50.4h14.1v.2zm26.6 0v-87.2h-15.6v87.2h15.6zm57.8 0v-87.2H349V499l-.4-1.9-14.4-44.6h-16.6v87.2h15.3v-52.2l.4 1.7 16.9 50.4h14.1v.2zm57.8-13v-35h-24.2v14.3h8.6v18.8c0 .2-.2.5-.5.5h-14.6c-.4 0-.5-.2-.5-.5v-57.5c0-.4.1-.5.5-.5H406c.2 0 .5.1.5.5V479h15.6v-13.6c0-7.7-5.4-13.1-13.2-13.1h-20.4c-7.7 0-13.1 5.4-13.1 13.1v61.4c0 7.8 5.4 13.2 13.1 13.2h20.4c7.8 0 13.2-5.4 13.2-13.2zM33.2 408.4V420c0 .3-.3.5-.5.5H17.6c-.4 0-.5-.3-.5-.5v-12.1H1V422c0 8.1 5.4 13.7 13.5 13.7h21.1c8.1 0 13.7-5.5 13.7-13.7v-12.1c0-5.5-2.1-9.9-5.7-13.5l-26-25.8c-.4-.4-.5-.6-.5-1.2v-8.9c0-.4.1-.5.5-.5h15.1c.3 0 .5.1.5.5v12h16.1v-14c0-8-5.5-13.5-13.7-13.5H14.5C6.4 345 1 350.5 1 358.5v9.5c0 5.5 1.9 9.9 5.7 13.5l26 25.8c.2.4.5.6.5 1.1zm69.5 27v-14.8H76.9v-25h19.3v-14.2H76.9V360h25.8v-14.8H60.8v90.2h41.9zm57.3-13.6v-13.9h-16.1V420c0 .3-.3.5-.5.5h-15.1c-.4 0-.5-.3-.5-.5v-59.6c0-.4.1-.5.5-.5h15.1c.3 0 .5.1.5.5v12H160v-14c0-7.9-5.7-13.5-13.7-13.5h-21.1c-7.9 0-13.5 5.7-13.5 13.5v63.4c0 8 5.7 13.7 13.5 13.7h21.1c8 0 13.7-5.7 13.7-13.7zm59.8.2v-76.8h-16.1V420c0 .3-.3.5-.5.5h-15.1c-.4 0-.5-.3-.5-.5v-74.9h-16.1V422c0 8.1 5.4 13.7 13.5 13.7h21.1c8.2-.1 13.7-5.6 13.7-13.7zm61.1 13.4l-10.8-35.7c5.9-1.5 9.5-6.4 9.5-13v-28c0-8-5.5-13.5-13.7-13.5h-34.7v90.2h16.1v-35.2h7.5l9.2 35.2h16.9zM247.4 360H263c.3 0 .5.1.5.5v24.4c0 .4-.3.5-.5.5h-15.6V360zm59.8 75.4v-90.2h-16.1v90.2h16.1zm56.6-75.4v-14.8h-48.3V360h16.1v75.4h16.1V360h16.1zm58.3-14.9h-17.4l-9.8 35.6-.3 1.4-.3-1.4-9.7-35.6h-17.4l19.2 55.4v34.8h16.1v-34.8l19.6-55.4z" class="st0"/><path fill="#0076a5" d="M.9 274.1h36.8v9.6H11.5V294h23.1v9.6h-23v18.8H.9v-48.3zm46.3 0h10.6v48.3H47.2v-48.3zm22.7 0h9.8l22.6 29.7v-29.7h10.4v48.3h-9l-23.4-30.7v30.7H69.9v-48.3zm51.9 24.3v-.1c0-13.7 10.8-25 25.7-25 14.9 0 25.6 11.1 25.6 24.8v.1c0 13.7-10.8 25-25.7 25s-25.6-11.1-25.6-24.8zm40.2 0v-.1c0-8.3-6.1-15.2-14.6-15.2-8.6 0-14.5 6.8-14.5 15v.1c0 8.3 6.1 15.2 14.6 15.2 8.6 0 14.5-6.8 14.5-15zm16.6 16.9l6.3-7.5c4.3 3.6 8.9 5.9 14.4 5.9 4.3 0 7-1.7 7-4.6v-.1c0-2.7-1.7-4.1-9.7-6.1-9.7-2.5-16-5.2-16-14.8v-.1c0-8.8 7-14.6 16.9-14.6 6.5-.1 12.9 2.1 17.9 6.1l-5.5 8c-4.3-3-8.5-4.8-12.6-4.8s-6.2 1.9-6.2 4.2v.1c0 3.2 2.1 4.2 10.4 6.3 9.8 2.5 15.3 6.1 15.3 14.5v.1c0 9.6-7.3 15-17.7 15-7.6.2-14.9-2.6-20.5-7.6z"/><linearGradient id="SVGID_1_" x1="0" x2="102.653" y1="110.954" y2="110.954" gradientUnits="userSpaceOnUse"><stop offset="0" stop-color="#0076a5"/><stop offset="1" stop-color="#00b5e3"/></linearGradient><path fill="url(#SVGID_1_)" d="M102.7 0l-4 2.7c-16.1 10.9-33.4 18-51.2 20.9-12.6 2.1-25.9 2.1-38.5 0l-9-1.5.5 9.2c1.9 34.3 9 66.9 21 97 18.5 46.5 48 71.1 77.1 90.8l4 2.7v-35.4c-23.9-16.6-42.4-34.6-54.9-66C39.3 99.3 34.1 76.5 32 52.6c9.2.9 18.7.6 27.7-1 14.9-2.5 29.3-8.1 42.9-16.7V0h.1z"/><linearGradient id="SVGID_00000080202247050626725150000005116377343730518707_" x1="102.655" x2="205.308" y1="40.134" y2="40.134" gradientUnits="userSpaceOnUse"><stop offset="0" stop-color="#0076a5"/><stop offset="1" stop-color="#00b5e3"/></linearGradient><path fill="url(#SVGID_00000080202247050626725150000005116377343730518707_)" d="M196.3 23.7c-12.6 2.1-25.9 2.1-38.5 0-17.8-2.9-35-10-51.2-20.9l-4-2.7v35.2c13.6 8.6 28 14.2 42.8 16.7 9 1.5 18.5 1.9 27.7 1-.8 9.3-2.1 18.5-3.8 27.4 6.6-3.2 17.7-7.3 30.3-6.9 2.6-13.7 4.3-27.8 5.2-42.1l.5-9.2-9 1.5z"/><linearGradient id="SVGID_00000131350405913050968430000000121952913307707579_" x1="102.655" x2="189.908" y1="155.67" y2="155.67" gradientUnits="userSpaceOnUse"><stop offset="0" stop-color="#0076a5"/><stop offset="1" stop-color="#00b5e3"/></linearGradient><path fill="url(#SVGID_00000131350405913050968430000000121952913307707579_)" d="M183.1 89.4l-50.8 42.8 16.4 6.6c-11.8 20.6-27.3 34.6-46.1 47.7v35.4l4-2.7c24.5-16.5 49.1-36.6 67.4-70.1l15.8 6.4-6.7-66.1z"/><path d="M126.6 65.9v19l-47.9 15.3v-19l47.9-15.3zm-47.9 46.3v33.7h18.6v-20.6l29.3-9.4v-19l-47.9 15.3z" class="st0"/><path fill="#0087bf" d="M126.6 96.8c0-.1 0-.1 0 0l-18.5-6-29.4 9.4v.2l18.4 5.9 29.4-9.4.1-.1z"/></svg>