<svg xmlns="http://www.w3.org/2000/svg" role="img" viewBox="-14.36 -14.36 746.72 189.72"><title>Fugue logo</title><style>svg {enable-background:new 0 0 718.6 161.1}</style><path fill="#000029" d="M37.2 80.2C23 80.2 10.9 75.6 0 68.7l6.7-10.2c10.9 7 20.9 10.3 32.2 10.3 13.2 0 19.3-5.1 19.3-11 0-17.1-55.7-6.9-55.7-34.1C2.6 10.5 15.9 0 37.2 0c14.4 0 26.9 5.4 34.2 12.7l-8.3 8.5c-6.3-5.5-16-9.9-26.1-9.9-12.5 0-20.9 4.5-20.9 10.9 0 15.9 55.8 7.4 55.8 34.2 0 14.2-14.3 23.8-34.7 23.8zm89.2-32.7v30h-13.5V47.3L79.2 2.6h15.7l25.3 34.6 24-34.6h15.5l-33.3 44.9zm127.4 30V18.8l-3.7 8-26.5 50.7h-8.1l-26.2-50.7-3.7-8v58.7h-12.9V2.6h18.8L216.6 53l3.5 7.6 3.5-7.6 24.9-50.4H267v74.9h-13.2zm86.6-52.6c0-6.2-4.2-10.8-14.4-10.8h-24.9v24.2h25.4c10.2 0 13.8-5 13.8-11v-2.4h.1zm-15.9 24.4h-23.4v28.2h-13.5V2.6h36.9c20.5 0 29.5 9.2 29.5 22.3v2c0 13-9 22.4-29.5 22.4zm103 28.2V45.2h-45.1v32.3H369V2.6h13.5v31.7h45.1V2.6H441v74.9h-13.5zm95-42.1c0-12.8-8.9-23.8-25.3-23.8S472 22.6 472 35.4v9.1c0 12.8 8.8 24.1 25.2 24.1s25.3-11.2 25.3-24.1v-9.1zm-25.3 44.8c-24.1 0-38.8-17.1-38.8-35.4v-9.3c0-18.7 14.7-35.4 38.8-35.4 24.2 0 38.9 16.8 38.9 35.4v9.3c0 18.3-14.7 35.4-38.9 35.4zm116.9-2.7l-42-47.3-5.4-7v54.3h-13.4V2.6h12.5L606.4 50l5.5 7V2.6h13.3v74.9h-11.1zm71.2-30v30h-13.5V47.3L638 2.6h15.8l25.3 34.6 24-34.6h15.5l-33.3 44.9z"/><path fill="#008fff" d="M5.3 160.4h9.8v-17.2h21.3v-8.9H15.1v-9.5h24.1v-8.9H5.3v44.5zm60.4.7c12 0 19.5-6.6 19.5-20.1v-25.1h-9.8v25.5c0 7.1-3.6 10.7-9.6 10.7s-9.6-3.8-9.6-11v-25.2h-9.8v25.5c0 13 7.3 19.7 19.3 19.7zm51 0c8.1 0 14.4-3.2 19-7.1v-19.3h-19.3v8.5h9.9v6.4c-2.5 1.8-5.7 2.7-9.2 2.7-7.9 0-13.5-6-13.5-14.1v-.2c0-7.6 5.7-13.9 12.8-13.9 5.2 0 8.2 1.7 11.6 4.5l6.2-7.4c-4.6-3.9-9.5-6.1-17.5-6.1-13.5 0-23.4 10.4-23.4 23v.1c-.1 13.2 9.5 22.9 23.4 22.9zm47 0c12 0 19.5-6.6 19.5-20.1v-25.1h-9.8v25.5c0 7.1-3.6 10.7-9.6 10.7s-9.6-3.8-9.6-11v-25.2h-9.8v25.5c0 13 7.3 19.7 19.3 19.7zm29.5-.7h33.9v-8.7h-24.2v-9.4h21v-8.7h-21v-9h23.9v-8.7h-33.6v44.5z"/></svg>