<svg xmlns="http://www.w3.org/2000/svg" role="img" xmlns:xlink="http://www.w3.org/1999/xlink" viewBox="-14.43 -14.43 750.36 442.86"><title>Git Proxy logo</title><style>svg {enable-background:new 0 0 722 414.5}</style><style>.st1{fill:#00c389}</style><defs><path id="SVGID_1_" d="M438.5 73.4L369.4 4.3c-5.7-5.7-14.9-5.7-20.6 0l-20.5 20.5 26 26c6-2 13-.7 17.8 4.1 4.8 4.8 6.2 11.8 4.1 17.9l.7.7h61.6v-.1zm-94.6-13l-25.6-25.6-67.6 67.6c-5.7 5.7-5.7 14.9 0 20.6l98.6 98.6c5.7 5.7 14.9 5.7 20.6 0l59.7-59.7h-52.5c-.2 4.2-1.8 8.3-5 11.5-6.8 6.8-17.7 6.8-24.5 0-6.8-6.8-6.8-17.7 0-24.5 1.7-1.7 3.6-2.9 5.7-3.8v-62c-2.1-.8-4-2.1-5.7-3.8-.8-.8-1.5-1.7-2.1-2.6-.1-.1-.2-.3-.3-.4-3-4.9-3.5-10.8-1.3-15.9zm46.7 47.7h-23.1v16.1h25.3c-3.4-4.7-4.1-10.8-2.2-16.1zm-6.9-7.7l-16.2-16.2v16.2h16.2zm37 23.8H467l.8-.8c4.1-4.1 5.2-10.1 3.3-15.3H423c2 5.3 1.2 11.4-2.3 16.1zm-48.6 24.6c1.5 1.5 2.7 3.3 3.5 5.2h61.7l22.1-22.1h-91.9v13.6c1.6.9 3.2 1.9 4.6 3.3zm45.3-48.4h48.1l-19.3-19.3h-61.6l16.6 16.6c5.4-1.8 11.5-1 16.2 2.7z"/></defs><linearGradient id="SVGID_2_" x1="246.445" x2="472.156" y1="112.869" y2="112.869" gradientUnits="userSpaceOnUse"><stop offset="0" stop-color="#1e1464"/><stop offset="1" stop-color="#2a2a8b"/></linearGradient><use fill="url(#SVGID_2_)" overflow="visible" xlink:href="#SVGID_1_"/><clipPath id="SVGID_3_"><use overflow="visible" xlink:href="#SVGID_1_"/></clipPath><g clip-path="url(#SVGID_3_)"><defs><path id="SVGID_4_" d="M245-1.4h228.1v228.6H245z"/></defs><linearGradient id="SVGID_5_" x1="245.025" x2="473.145" y1="112.868" y2="112.868" gradientUnits="userSpaceOnUse"><stop offset="0" stop-color="#1e1464"/><stop offset="1" stop-color="#2a2a8b"/></linearGradient><use fill="url(#SVGID_5_)" overflow="visible" xlink:href="#SVGID_4_"/><clipPath id="SVGID_6_"><use overflow="visible" xlink:href="#SVGID_4_"/></clipPath></g><path d="M279.7 73.4h-12.5V39.2h-30.7c-1.6-4.5-5.8-7.7-10.9-7.7-6.4 0-11.6 5.2-11.6 11.6 0 6.4 5.2 11.6 11.6 11.6 5 0 9.3-3.2 10.9-7.7h23v34.2H272l7.7-7.8zm-27 27h-87.1c-1.6-4.5-5.8-7.7-10.9-7.7-6.4 0-11.6 5.2-11.6 11.6 0 6.4 5.2 11.6 11.6 11.6 5 0 9.3-3.2 10.9-7.7h81.7c.7-2.1 1.8-4.1 3.5-5.7l1.9-2.1zm-73.6 87.2c0 6.4 5.2 11.6 11.6 11.6 6.4 0 11.6-5.2 11.6-11.6 0-5-3.2-9.3-7.7-10.9V132h65.2l-7.7-7.7h-65.2v52.5c-4.6 1.5-7.8 5.8-7.8 10.8z" class="st1"/><path d="M215.5 199.2c0 6.4 5.2 11.6 11.6 11.6 6.4 0 11.6-5.2 11.6-11.6 0-5-3.2-9.3-7.7-10.9v-26.5h58.6l-7.7-7.7h-58.6v34.3c-4.5 1.5-7.8 5.7-7.8 10.8zM578.9 50.6c0-6.4-5.2-11.6-11.6-11.6-5 0-9.3 3.2-10.9 7.7h-46v53.7H353.3v7.7h164.9V54.4h38.3c1.6 4.5 5.8 7.7 10.9 7.7 6.4.1 11.5-5.1 11.5-11.5zm-91.1 157.3c0 6.4 5.2 11.6 11.6 11.6 6.4 0 11.6-5.2 11.6-11.6 0-5-3.2-9.3-7.7-10.9v-43H344.1c-1.1 2.5-1.6 5.1-1.5 7.7h152.9V197c-4.5 1.6-7.7 5.9-7.7 10.9zM353.3 132h176.6c1.6 4.5 5.8 7.7 10.9 7.7 6.4 0 11.6-5.2 11.6-11.6 0-6.4-5.2-11.6-11.6-11.6-5 0-9.3 3.2-10.9 7.7H353.3v7.8z" class="st1"/><path d="M485.7 12.7c0-6.4-5.2-11.6-11.6-11.6-6.4 0-11.6 5.2-11.6 11.6 0 5 3.2 9.3 7.7 10.9v49.8H343.8c.8 2.2 2.1 4.2 3.8 5.9.7.7 1.4 1.2 2.2 1.8H478V23.5c4.5-1.6 7.7-5.8 7.7-10.8zM249.3 411.1c0 1 .9 1.9 1.9 1.9h2.7c1.5 0 2.4-.9 2.4-1.9v-35.2h27.1c18.3 0 33.5-15.2 33.5-33.8 0-18.3-15.2-33.4-33.7-33.4h-32.1c-1 0-1.9.9-1.9 1.9v100.5h.1zm7-42v-53.4h26.5c14.8 0 27.1 11.6 27.1 26.2 0 15.1-12.4 27.1-27 27.1h-26.6v.1zm84.5 42c0 1 .9 1.9 1.9 1.9h2.7c1.5 0 2.4-.9 2.4-1.9v-38.3h27.4c1.9 0 3.6 0 5.5-.1l21.6 39.1c.4.9 1 1.3 2.1 1.3h4.6c1.5 0 1.8-1.5 1-2.7l-21.8-38.6c14.2-4 24.6-16.1 24.6-31.2 0-18.2-15.1-31.9-33.2-31.9h-37c-1.2 0-1.9.9-1.9 1.9v100.5h.1zm7.2-44.6v-51h31.3c14.5 0 26.5 10.9 26.5 25 0 14.8-12.1 25.9-26.4 25.9H348v.1zm85.3-5.5c0 30 23.9 53.5 53.7 53.5 30 0 53.8-23.6 53.8-53.5 0-29.8-23.9-53.8-53.8-53.8s-53.7 24-53.7 53.8zm6.5 0c0-26.1 21-47.3 47.1-47.3s47.3 21.2 47.3 47.3c0 26.1-21.2 47-47.3 47-26.1 0-47.1-20.9-47.1-47zm116.3 49.8c-.7 1.2-.3 2.2 1.2 2.2h4.8c.7 0 1.5-.3 1.9-.9l28.8-46.1h.1l29.2 46.1c.4.6 1.2.9 1.9.9h4.8c1.5 0 1.9-1 1.2-2.2l-32.7-51.1 30.7-48.8c.7-1.2.3-2.2-1.2-2.2H622c-.7 0-1.5.3-1.9.9l-27.3 43.8h-.1l-27-43.8c-.4-.6-1.2-.9-1.9-.9H559c-1.5 0-1.9 1-1.2 2.2l30.6 48.8-32.3 51.1zm119.7.3c0 2.4 3.1 1.9 5.1 1.9 1 0 1.9-.9 1.9-1.9v-48.9l38.8-51.3c.9-1.2.3-2.2-1.2-2.2h-4.5c-.7 0-1.5.3-1.9.9L679.4 356l-34-46.4c-.4-.6-1.2-.9-1.9-.9H639c-1.5 0-2.1 1-1.2 2.2l38 51.4v48.8z" class="st1"/><path fill="#2f2a95" d="M0 361c0 29.8 23.9 53.4 53.5 53.4 21.6 0 37-9.7 37-9.7.6-.4 1.2-1.6 1.2-2.4l-.1-40.1c0-1.5-1.2-2.8-2.7-2.8h-30c-1.6 0-2.8 1.2-2.8 2.8V377c0 1.5 1.2 2.7 2.8 2.7h9.4v8.6c-4.5 1.8-8.9 2.4-13.3 2.4-16.3 0-29.5-13.4-29.5-29.7 0-16.4 13.1-30.1 29.4-30.1 7.3 0 13.9 1.9 19.5 7.2 1.2.9 2.8.9 4-.1l11.8-12.5c1.2-1.2 1-3-.3-4-10.1-8.8-23.9-14-36.4-14C23.9 307.3 0 331.2 0 361zm115.1 49.2c0 1.5 1.3 2.8 2.8 2.8h17.9c1.5 0 2.8-1.3 2.8-2.8v-98.7c0-1.5-1.3-2.8-2.8-2.8h-17.9c-1.5 0-2.8 1.3-2.8 2.8v98.7zm65.6 0c0 1.5 1.3 2.8 2.8 2.8h17.9c1.5 0 2.8-1.3 2.8-2.8v-79.6h21.3c1.6 0 2.8-1.3 2.8-2.8v-16.3c0-1.5-1.2-2.8-2.8-2.8h-66.2c-1.6 0-2.8 1.3-2.8 2.8v16.3c0 1.5 1.2 2.8 2.8 2.8h21.3v79.6h.1z"/></svg>