<svg xmlns="http://www.w3.org/2000/svg" role="img" viewBox="-10.82 -10.82 505.14 562.64"><title>Glue logo</title><style>svg {enable-background:new 0 0 483.8 541.4}</style><style>.st0{fill:#d1d1cf}.st1{fill:#7ab0d4}</style><path d="M345.3 126.7l-14.6 14.7h-74.1v74l-14.7 14.7-14.6-14.7-.1-74h-74l-14.6-14.7 14.6-14.6 74.1-.1V38L242 23.3l14.6 14.6V112h74.1l14.6 14.7z" class="st0"/><path d="M288.6 173.2l-18.7.1-27.9-28-27.7 27.5h-18.6v-18.6l27.6-27.6-28.7-28.7V79.3h18.7l28.7 28.6 28.6-28.6 18.7.1V98l-28.7 28.6 28 28v18.6z" class="st0"/><path d="M259.1 31.3l-17.1-17-17.1 17-7.1-7.1L242 0l24.2 24.2-7.1 7.1zM139.8 150.5l-24.2-24.2 24.2-24.3 7.1 7.2-17.1 17.1 17.1 17.1-7.1 7.1zm102.1 102.1l-24.3-24.2 7.2-7.1 17.1 17.1 17.1-17.1 7.1 7.1-24.2 24.2zm102.1-102l-7.1-7.1 17.1-17.1-17.1-17.1 7.1-7.1 24.2 24.2-24.2 24.2zM323.6 77h-31.9V45.1h10.1v21.8h21.8V77z" class="st1"/><path d="M327.8 61.6h-20.7V40.9h6.6V55h14.1v6.6z" class="st0"/><path d="M192.3 77h-31.9V66.9h21.8V45.1h10.1V77z" class="st1"/><path d="M176.9 61.6h-20.7V55h14.1V40.9h6.6v20.7z" class="st0"/><path d="M301.8 207.7h-10.1v-31.9h31.9v10.1h-21.8v21.8z" class="st1"/><path d="M313.7 211.9h-6.6v-20.7h20.7v6.6h-14.1v14.1z" class="st0"/><path d="M192.3 207.7h-10.1v-21.8h-21.8v-10.1h31.9v31.9z" class="st1"/><path d="M176.9 211.9h-6.6v-14.1h-14.1v-6.6h20.7v20.7z" class="st0"/><path d="M66.5 421.7c15 0 29.3 5.8 40.6 15.5 1.3 1.3 1.5 3.3.2 4.7L97 452.7c-1.3 1.3-2.8 1.3-4.3 0-7.2-6.3-16-9.6-25.1-9.6-20.8 0-37.3 17.8-37.3 38.6 0 20.6 16.5 38.1 37.4 38.1 9.3 0 16.5-2.8 19.8-4.2v-14.1H74.1c-1.8 0-3.2-1.3-3.2-3v-13.1c0-1.8 1.3-3.2 3.2-3.2H106c1.7 0 3 1.5 3 3.2V528c0 1.3-.7 2.2-1.3 2.7 0 0-17.1 10.8-41.3 10.8-33.1 0-59.7-26.3-59.7-59.5.1-33.5 26.7-60.3 59.8-60.3zm88.1 4.8c0-1.7 1.3-3.2 3.2-3.2h15.3c1.7 0 3.2 1.5 3.2 3.2v93.3h42.4c1.8 0 3.2 1.5 3.2 3.2v13.6c0 1.7-1.3 3.2-3.2 3.2h-60.9c-1.8 0-3.2-1.5-3.2-3.2V426.5zm103.5 0c0-1.7 1.5-3.2 3.2-3.2h15.8c1.8 0 3.2 1.5 3.2 3.2v68c0 14.1 9.6 25.3 24.1 25.3 14.5 0 24.3-11.1 24.3-25.1v-68.2c0-1.7 1.3-3.2 3.2-3.2h15.8c1.7 0 3.2 1.5 3.2 3.2v69.2c0 25.3-20.1 45.7-46.4 45.7-26.1 0-46.2-20.5-46.2-45.7v-69.2h-.2zm142.4 0c0-1.7 1.3-3.2 3.2-3.2h67.7c1.8 0 3.2 1.5 3.2 3.2v13.6c0 1.7-1.3 3.2-3.2 3.2h-49.2v27.3h41.1c1.7 0 3.2 1.5 3.2 3.2v13.8c0 1.8-1.5 3.2-3.2 3.2h-41.1v29.1h49.2c1.8 0 3.2 1.5 3.2 3.2v13.6c0 1.7-1.3 3.2-3.2 3.2h-67.7c-1.8 0-3.2-1.5-3.2-3.2V426.5z" class="st1"/><path d="M483.8 321.8H0v-2.5h483.8v2.5z" class="st0"/></svg>