<svg xmlns="http://www.w3.org/2000/svg" role="img" viewBox="-1.28 -1.28 66.43 66.43"><title>Goldman Sachs logo</title><path d="M17 6h1v1h-1zm32 7h1v1h-1zM6 14h1v1H6z" fill="#d6e1ee"/><path d="M46 11h1v1h-1zM5 26h1v1H5z" fill="#fdfefe"/><path fill="#e9eff6" d="M25 12h1v1h-1z"/><path d="M25 20h1v1h-1zm0 1h1v1h-1zm-5 4h1v1h-1z" fill="#dee7f1"/><path d="M20 3h1v1h-1zm-1 10h1v1h-1zM4 14h1v1H4zm32 4h1v1h-1zm-18 1h1v1h-1zM5 23h1v1H5zm30 0h1v1h-1zm1 1h1v1h-1zm2 1h1v1h-1z" fill="#7499c6"/><path fill="#83a5cc" d="M30 3h1v1h-1z"/><path d="M7 4h1v1H7zm11 2h1v1h-1zm-6 17h1v1h-1z" fill="#82a4cc"/><path d="M18 7h1v1h-1zm17 14h1v1h-1z" fill="#e6edf5"/><path fill="#96b3d4" d="M41 7h1v1h-1z"/><path d="M11 14h1v1h-1zm20 4h1v1h-1z" fill="#8aa9cf"/><path fill="#dfe7f2" d="M8 23h1v1H8z"/><path d="M3 5h1v1H3zm3 1h1v1H6zm10 1h1v1h-1z" fill="#80a3cb"/><path d="M33 6h1v1h-1zM18 27h1v1h-1z" fill="#a7bfdb"/><path d="M56 6h1v1h-1zm-23 8h1v1h-1z" fill="#acc3dd"/><path d="M57 6h1v1h-1zM5 8h1v1H5zm12 1h1v1h-1zm-4 10h1v1h-1z" fill="#eef3f8"/><path d="M19 7h1v1h-1zM7 13h1v1H7zm38 1h1v1h-1zm-25 5h1v1h-1zM9 20h1v1H9zm4 2h1v1h-1z" fill="#759bc7"/><path d="M47 7h1v1h-1zM36 27h1v1h-1z" fill="#c8d7e9"/><path d="M27 8h1v1h-1zm-4 6h1v1h-1z" fill="#a8bfdb"/><path d="M29 19h1v1h-1zM4 20h1v1H4z" fill="#d7e2ef"/><path d="M23 4h1v9h-1zm0 9h1v1h-1zm5 3h1v1h-1zm-6 8h1v1h-1z" fill="#a4bdda"/><path d="M40 6h1v1h-1zm9 2h1v3h-1zm0 3h1v1h-1z" fill="#adc3dd"/><path fill="#f6f8fb" d="M58 6h1v1h-1z"/><path d="M27 18h1v7h-1zm-7 3h1v1h-1zm20 3h1v1h-1zm-13 1h1v1h-1zm12 0h1v1h-1zm-17 1h1v1h-1z" fill="#edf2f8"/><path fill="#84a5cd" d="M4 21h1v1H4z"/><path fill="#a9c0dc" d="M25 26h1v1h-1z"/><path d="M5 4h1v1H5zm0 3h1v1H5zm34 0h1v1h-1zm-4 2h1v4h-1zm-22 3h1v1h-1zm4 0h1v1h-1zm18 1h1v1h-1zm-13 6h1v1h-1zm14 1h1v1h-1zM9 26h1v1H9z" fill="#f7f9fc"/><path d="M13 6h1v1h-1zm11 5h1v1h-1zm6 7h1v1h-1zm7 2h1v1h-1zm-18 2h1v1h-1zM3 27h1v1H3z" fill="#769bc7"/><path d="M36 7h1v1h-1zm-24 4h1v1h-1z" fill="#8babd0"/><path d="M12 9h1v1h-1zm33 2h1v1h-1zM24 21h1v1h-1z" fill="#8eadd1"/><path d="M15 10h1v1h-1zm-7 1h1v2H8zm0 2h1v1H8zm6 5h1v1h-1z" fill="#7c9fca"/><path d="M46 10h1v1h-1zm-19 1h1v1h-1zm-15 9h1v1h-1zm0 1h1v1h-1z" fill="#a0bad8"/><path d="M3 11h1v1H3zm7 6h1v1h-1zm0 1h1v1h-1z" fill="#cad9ea"/><path fill="#eff3f9" d="M17 11h1v1h-1z"/><path fill="#f3f7fa" d="M4 18h1v1H4z"/><path d="M35 20h1v1h-1zm-20 2h1v1h-1z" fill="#d4e0ee"/><path d="M16 23h1v1h-1zm0 1h1v1h-1zm20 2h1v1h-1z" fill="#e0e8f2"/><path fill="#dce6f1" d="M8 3h1v1H8z"/><path d="M10 3h1v1h-1zM7 27h1v1H7z" fill="#c7d6e8"/><path d="M9 5h1v1H9zm31 9h1v1h-1zm16 0h1v1h-1zM8 17h1v1H8z" fill="#90aed2"/><path fill="#d5e1ee" d="M31 26h1v1h-1z"/><path d="M29 4h1v1h-1zm-4 15h1v1h-1zm6 2h1v4h-1zm0 4h1v1h-1zm-8 2h1v1h-1z" fill="#d3dfed"/><path fill="#f6f9fb" d="M4 5h1v1H4z"/><path fill="#d1ddec" d="M48 6h1v1h-1z"/><path d="M12 10h1v1h-1zm3 17h1v1h-1z" fill="#9bb6d6"/><path d="M6 16h1v1H6zm1 0h1v1H7z" fill="#d2deed"/><path fill="#9eb8d7" d="M53 6h1v1h-1z"/><path d="M25 7h1v1h-1zM6 22h1v1H6zm33 0h1v1h-1zm1 1h1v1h-1zm-22 3h1v1h-1z" fill="#bacde3"/><path d="M51 7h1v1h-1zm-22 5h1v1h-1zm4 10h1v3h-1zm0 3h1v1h-1zM6 27h1v1H6zm16 0h1v1h-1z" fill="#cedbeb"/><path d="M60 7h1v1h-1zM15 8h1v1h-1zm18 11h1v1h-1zm5 2h1v1h-1zm1 0h1v1h-1zM8 24h1v1H8z" fill="#85a6cd"/><path d="M6 13h1v1H6zm7 8h1v1h-1zm20 0h1v1h-1zm-19 6h1v1h-1z" fill="#ccdaea"/><path d="M8 20h1v1H8zm25 7h1v1h-1z" fill="#afc5df"/><path d="M29 3h1v1h-1zm18 6h1v1h-1zm-25 9h1v1h-1zM5 22h1v1H5zm32 4h1v1h-1z" fill="#799dc8"/><path d="M3 8h1v1H3zm5 1h1v1H8zm39 3h1v1h-1z" fill="#ecf1f7"/><path d="M49 12h1v1h-1zm-24 1h1v1h-1zM15 26h1v1h-1z" fill="#b1c6df"/><path fill="#dbe5f0" d="M15 14h1v1h-1z"/><path d="M14 19h1v1h-1zm-5 2h1v1H9z" fill="#e1e9f3"/><path fill="#acc2dd" d="M22 21h1v1h-1z"/><path d="M5 3h1v1H5zm10 8h1v1h-1zm4 12h1v1h-1z" fill="#7fa2cb"/><path d="M49 6h1v1h-1zm-32 4h1v1h-1zM5 21h1v1H5zm9 2h1v1h-1z" fill="#ebf1f7"/><path d="M15 7h1v1h-1zm41 0h1v1h-1zm-27 7h1v1h-1z" fill="#9cb7d7"/><path d="M37 7h1v1h-1zm8 6h1v1h-1z" fill="#a5bdda"/><path fill="#aec4de" d="M36 23h1v1h-1z"/><path d="M20 4h1v1h-1zm24 5h1v4h-1zm0 4h1v1h-1zm-30 7h1v1h-1z" fill="#83a5cd"/><path d="M34 6h1v1h-1zm1 0h1v1h-1zm-14 8h1v1h-1zm1 0h1v1h-1zm8 0h1v1h-1zm4 0h1v1h-1zm1 0h1v1h-1zm3 0h1v1h-1zm1 0h1v1h-1zm3 0h1v1h-1zm1 0h1v1h-1zm7 0h1v1h-1zm1 0h1v1h-1zm3 0h1v1h-1zm1 0h1v1h-1zm3 0h1v1h-1zm1 0h1v1h-1zM33 26h1v1h-1z" fill="#d0ddec"/><path d="M29 8h1v1h-1zm-2 5h1v1h-1zm2 7h1v1h-1z" fill="#cad8e9"/><path d="M6 11h1v1H6zm42 0h1v1h-1zM19 24h1v1h-1z" fill="#749ac6"/><path d="M6 5h1v1H6zm8 17h1v1h-1z" fill="#a6bedb"/><path d="M10 6h1v1h-1zm6 0h1v1h-1zM4 23h1v1H4z" fill="#e0e9f2"/><path d="M3 7h1v1H3zm6 7h1v1H9z" fill="#dce5f1"/><path d="M27 14h1v1h-1zM16 25h1v1h-1zm-2 1h1v1h-1z" fill="#e8eff6"/><path fill="#d5e0ee" d="M48 14h1v1h-1z"/><path d="M8 4h1v1H8zm7 19h1v1h-1zM3 24h1v2H3zm34 0h1v1h-1zM3 26h1v1H3z" fill="#7b9fc9"/><path d="M21 4h1v1h-1zm14 3h1v1h-1zM9 17h1v1H9zm7 2h1v1h-1z" fill="#fdfdfe"/><path d="M14 6h1v1h-1zm32 0h1v1h-1zM27 7h1v1h-1z" fill="#c3d3e7"/><path d="M41 6h1v1h-1zM3 9h1v1H3zm48 0h1v4h-1zm0 4h1v1h-1zM8 16h1v1H8z" fill="#eff3f8"/><path d="M59 7h1v1h-1zm-34 4h1v1h-1zm22 2h1v1h-1zm-27 9h1v1h-1zm1 4h1v1h-1z" fill="#fefeff"/><path d="M6 12h1v1H6zm32 6h1v1h-1zm2 3h1v1h-1z" fill="#8cabd0"/><path d="M13 8h1v1h-1zM4 19h1v1H4zm9 1h1v1h-1zm25 2h1v1h-1z" fill="#fbfcfd"/><path fill="#adc3de" d="M14 14h1v1h-1z"/><path fill="#94b1d3" d="M23 26h1v1h-1z"/><path d="M8 27h1v1H8zm23 0h1v1h-1z" fill="#b2c7df"/><path d="M11 9h1v4h-1zm0 4h1v1h-1zm10 14h1v1h-1z" fill="#99b5d5"/><path d="M4 4h1v1H4zm49 3h1v6h-1zM3 12h1v1H3zm50 1h1v1h-1zm-26 3h1v1h-1zM9 19h1v1H9z" fill="#98b4d5"/><path d="M6 4h1v1H6zm45 4h1v1h-1z" fill="#ebf0f7"/><path d="M10 4h1v1h-1zm12 0h1v9h-1zm8 0h1v9h-1zM5 5h1v1H5zm5 0h1v1h-1zM4 6h1v6H4zm10 1h1v6h-1zm3 0h1v1h-1zm9 0h1v6h-1zm8 0h1v6h-1zm4 0h1v6h-1zm4 0h1v6h-1zm8 0h1v6h-1zm4 0h1v6h-1zm1 0h1v6h-1zm3 0h1v6h-1zM18 8h1v4h-1zm21 0h1v5h-1zm4 0h1v5h-1zm16 0h1v5h-1zM9 9h1v4H9zm1 0h1v4h-1zm3 0h1v2h-1zm12 1h1v1h-1zm-12 1h1v1h-1zm-9 1h1v1H4zm1 0h1v1H5zm13 0h1v1h-1zm28 0h1v1h-1zM5 13h1v1H5zm4 0h1v1H9zm1 0h1v1h-1zm4 0h1v1h-1zm3 0h1v1h-1zm5 0h1v1h-1zm4 0h1v1h-1zm8 0h1v1h-1zm4 0h1v1h-1zm1 0h1v1h-1zm3 0h1v1h-1zm1 0h1v1h-1zm3 0h1v1h-1zm4 0h1v1h-1zm4 0h1v1h-1zm1 0h1v1h-1zm3 0h1v1h-1zm1 0h1v1h-1zM5 17h1v3H5zm23 0h1v9h-1zm11 2h1v1h-1zM5 20h1v1H5zm1 0h1v1H6zm11 0h1v6h-1zm4 0h1v5h-1zm11 0h1v6h-1zM6 21h2v1H6zm2 0h1v1H8zm28 0h1v1h-1zM8 22h1v1H8zm1 0h1v3H9zm27 0h1v1h-1zm1 0h1v1h-1zm-17 1h1v1h-1zm18 0h1v1h-1zm1 0h1v1h-1zM4 24h1v2H4zm6 0h1v1h-1zm3 0h1v2h-1zm26 0h1v1h-1zM9 25h1v1H9zm12 0h1v1h-1zM4 26h1v1H4zm9 0h1v1h-1zm4 0h1v1h-1zm11 0h1v1h-1zm4 0h1v1h-1z" fill="#fff"/><path d="M57 7h1v1h-1zm0 7h1v1h-1z" fill="#8fadd1"/><path d="M40 8h1v1h-1zm4 0h1v1h-1zm-20 2h1v1h-1zm13 8h1v1h-1zM7 23h1v1H7zm2 4h1v1H9z" fill="#81a3cc"/><path fill="#88a9cf" d="M22 3h1v1h-1z"/><path d="M21 5h1v8h-1zm22 2h1v1h-1zm-8 1h1v1h-1zm-14 5h1v1h-1zm3 6h1v1h-1zM7 22h1v1H7z" fill="#f8fafc"/><path d="M27 6h1v1h-1zM5 11h1v1H5z" fill="#f9fbfd"/><path d="M37 6h1v1h-1zm9 1h1v1h-1z" fill="#f2f6fa"/><path d="M59 6h1v1h-1zM10 16h1v1h-1zm8 6h1v3h-1zm0 3h1v1h-1z" fill="#b6cae1"/><path d="M37 8h1v5h-1zm-18 4h1v1h-1zm18 1h1v1h-1z" fill="#95b2d4"/><path d="M47 11h1v1h-1zM7 20h1v1H7zm30 3h1v1h-1z" fill="#f4f7fb"/><path d="M45 12h1v1h-1zM4 17h1v1H4zm25 0h1v1h-1zm0 1h1v1h-1zm0 3h1v4h-1zm0 4h1v1h-1zm-12 2h1v1h-1zm10 0h1v1h-1zm1 0h1v1h-1zm4 0h1v1h-1z" fill="#b4c9e1"/><path d="M15 13h1v1h-1zm7 9h1v1h-1z" fill="#a3bcd9"/><path fill="#8dacd1" d="M29 16h1v1h-1z"/><path fill="#91afd2" d="M6 17h1v1H6z"/><path d="M12 8h1v1h-1zm6 6h1v1h-1zM3 23h1v1H3zm5 2h1v1H8zm-1 1h1v1H7z" fill="#7a9ec9"/><path d="M60 8h1v1h-1zm-16 6h1v1h-1zM20 26h1v1h-1z" fill="#9ab5d6"/><path d="M27 9h1v1h-1zm22 5h1v1h-1zm-27 9h1v1h-1zM6 26h1v1H6zm33 1h1v1h-1z" fill="#9fb9d8"/><path d="M48 9h1v1h-1zM4 27h1v1H4z" fill="#b0c5df"/><path d="M10 14h1v1h-1zm21 0h1v1h-1z" fill="#cddbeb"/><path fill="#9eb9d8" d="M37 14h1v1h-1z"/><path d="M38 24h1v1h-1zM5 25h1v1H5z" fill="#cbd9ea"/><path d="M31 4h1v9h-1zm24 2h1v1h-1zm-26 7h2v1h-2zm2 0h1v1h-1z" fill="#e2eaf3"/><path d="M26 6h1v1h-1zm2 8h1v1h-1zm11 6h1v1h-1zm-29 2h1v1h-1z" fill="#cfdceb"/><path d="M40 7h1v1h-1zM19 8h1v1h-1zm41 1h1v4h-1zm-33 1h1v1h-1zm33 3h1v1h-1zM5 16h1v1H5zm13 4h1v1h-1z" fill="#9db7d7"/><path fill="#89a9cf" d="M46 9h1v1h-1z"/><path fill="#c5d5e7" d="M19 10h1v1h-1z"/><path fill="#87a7ce" d="M16 13h1v1h-1z"/><path d="M37 19h1v1h-1zm-4 1h1v1h-1z" fill="#bdcfe4"/><path fill="#c1d2e6" d="M8 26h1v1H8z"/><path d="M5 27h1v1H5zm8 0h1v1h-1z" fill="#c0d1e5"/><path d="M15 12h1v1h-1zm20 7h1v1h-1z" fill="#87a8ce"/><path d="M5 14h1v1H5zm48 0h1v1h-1zM16 27h1v1h-1z" fill="#a2bbd9"/><path d="M9 3h1v1H9zm20 3h1v1h-1zM8 14h1v1H8z" fill="#d8e3ef"/><path d="M9 4h1v1H9zM6 19h1v1H6zm25 1h1v1h-1z" fill="#dde6f1"/><path d="M50 6h1v1h-1zM9 18h1v1H9zm28 9h1v1h-1z" fill="#d1deec"/><path d="M13 7h1v1h-1zm33 7h1v1h-1zm-25 5h1v1h-1z" fill="#c4d4e7"/><path fill="#7da1ca" d="M7 19h1v1H7z"/><path fill="#eaeff6" d="M40 25h1v1h-1z"/><path d="M51 6h1v1h-1zM40 9h1v4h-1zM8 10h1v1H8zm32 3h1v1h-1zM6 18h1v1H6zm18 0h1v1h-1z" fill="#80a2cb"/><path d="M46 8h1v1h-1zM35 25h1v1h-1zm-19 1h1v1h-1zm19 0h1v1h-1z" fill="#f1f5f9"/><path d="M12 12h1v1h-1zm14 5h1v1h-1zm6 1h1v1h-1z" fill="#779cc8"/><path d="M17 14h1v1h-1zm7 12h1v1h-1z" fill="#c0d1e6"/><path d="M40 19h1v1h-1zm-5 8h1v1h-1z" fill="#b2c7e0"/><path d="M31 3h1v1h-1zM11 4h1v1h-1zm0 1h1v1h-1z" fill="#88a8ce"/><path d="M5 6h1v1H5zm20 3h1v1h-1zm6 10h1v1h-1z" fill="#feffff"/><path fill="#e8eef6" d="M47 6h1v1h-1z"/><path d="M48 10h1v1h-1zm-8 10h1v1h-1zm0 6h1v1h-1z" fill="#b3c7e0"/><path d="M48 13h1v1h-1zM36 25h1v1h-1z" fill="#97b3d5"/><path d="M16 14h1v1h-1zm14 5h1v1h-1zm7 2h1v1h-1z" fill="#dae4f0"/><path fill="#c8d7e8" d="M22 20h1v1h-1z"/><path fill="#becfe4" d="M29 5h1v1h-1z"/><path d="M25 6h1v1h-1zm-1 3h1v1h-1zm2 7h1v1h-1zm-10 2h1v1h-1zm-5 6h1v1h-1z" fill="#789dc8"/><path d="M39 6h1v1h-1zm21 8h1v1h-1zM25 25h1v1h-1z" fill="#a1bad9"/><path d="M43 6h1v1h-1zM33 8h1v5h-1zm0 5h1v1h-1z" fill="#aac1dc"/><path d="M25 8h1v1h-1zM5 10h1v1H5zm27 9h1v1h-1zm-5 7h1v1h-1z" fill="#f0f4f9"/><path fill="#bbcee4" d="M26 14h1v1h-1z"/><path fill="#94b1d4" d="M41 14h1v1h-1z"/><path d="M35 22h1v1h-1zm-6 4h1v1h-1z" fill="#b7cae1"/><path d="M15 9h1v1h-1zm23 17h1v1h-1zm-26 1h1v1h-1z" fill="#7fa1cb"/><path fill="#f2f5fa" d="M16 22h1v1h-1z"/><path d="M36 6h1v1h-1zM18 21h1v1h-1z" fill="#b4c8e0"/><path d="M19 9h1v1h-1zm4 10h1v1h-1zm-9 5h1v1h-1zm0 1h1v1h-1z" fill="#bccee4"/><path fill="#c3d3e6" d="M29 11h1v1h-1z"/><path d="M6 3h1v1H6zm43 4h1v1h-1zm-36 6h1v1h-1z" fill="#b5c9e1"/><path fill="#e7edf5" d="M15 6h1v1h-1z"/><path fill="#f3f6fa" d="M38 6h1v1h-1z"/><path d="M4 13h1v1H4zm13 6h1v1h-1zm21 8h1v1h-1z" fill="#c6d5e8"/><path d="M10 19h1v1h-1zm25 5h1v1h-1z" fill="#b9cce3"/><path d="M15 19h1v1h-1zm23 0h1v1h-1z" fill="#bed0e5"/><path d="M10 23h1v1h-1zm10 1h1v1h-1z" fill="#fcfdfe"/><path fill="#93b1d3" d="M10 26h1v1h-1z"/><path d="M42 6h1v1h-1zM17 8h1v1h-1zm22 18h1v1h-1z" fill="#f5f8fb"/><path d="M29 7h1v1h-1zM3 10h1v1H3zm7 15h1v1h-1z" fill="#e5ecf4"/><path d="M33 7h1v1h-1zm-6 5h1v1h-1z" fill="#aac1dd"/><path fill="#b9cce2" d="M19 11h1v1h-1z"/><path d="M12 19h1v1h-1zm-7 5h1v1H5z" fill="#93b0d3"/><path d="M36 19h1v1h-1zm-23 4h1v1h-1z" fill="#e4ebf4"/><g fill="#7399c6"><path d="M0 0h62v2H0zm62 0h1v62h-1zm1 0h1v62h-1zM0 2h62v1H0zm0 1h4v1H0zm4 0h1v1H4zm8 0h7v1h-7zm7 0h1v3h-1zm5 0h4v1h-4zm4 0h1v2h-1zm4 0h30v2H32zM0 4h3v58H0zm3 0h1v1H3zm9 0h7v1h-7zm12 0h4v1h-4zM7 5h1v3H7zm1 0h1v3H8zm4 0h3v1h-3z"/><path d="M15 5h5v1h-5zm5 0h1v8h-1zm4 0h2v1h-2zm2 0h2v1h-2zm2 0h1v7h-1zm4 0h30v1H32zM9 6h1v2H9zm3 0h1v1h-1zm7 0h1v1h-1zm5 0h1v2h-1zm8 0h1v7h-1zm12 0h1v1h-1zm1 0h1v4h-1zm7 0h1v7h-1zm8 0h2v1h-2z"/><path d="M6 7h6v1H6zm6 0h1v1h-1zm36 0h1v1h-1zm13 0h1v55h-1zM6 8h5v1H6zm5 0h1v1h-1zm5 0h1v4h-1zm8 0h1v1h-1zm12 0h1v5h-1zm12 0h1v1h-1zM6 9h1v1H6zm0 1h1v1H6zm1 0h1v2H7zm38 0h1v1h-1zM7 12h1v1H7zm9 0h1v1h-1zm8 0h1v5h-1zm4 0h1v1h-1zm20 0h1v1h-1zM3 13h1v5H3zm9 0h1v5h-1zm8 0h1v5h-1zm12 0h1v4h-1zm4 0h1v4h-1zm16 0h1v49h-1zm-39 1h1v4h-1zm6 0h1v7h-1z"/><path d="M4 15h58v1H4zm0 1h1v1H4zm7 0h14v1H11zm14 0h1v2h-1zm5 0h32v1H30zM7 17h1v1H7zm4 0h14v1H11zm19 0h32v1H30zM3 18h1v4H3zm4 0h1v1H7zm1 0h1v1H8zm3 0h2v1h-2zm2 0h1v1h-1zm4 0h4v1h-4zm4 0h1v1h-1zm4 0h1v1h-1zm1 0h1v8h-1zm7 0h2v1h-2zm2 0h1v1h-1zm5 0h22v1H40zM8 19h1v1H8zm3 0h1v3h-1zm23 0h1v43h-1zm7 0h21v43H41zm-31 1h1v1h-1zm5 0h1v1h-1zm8 0h1v5h-1zm7 0h1v42h-1zm8 0h1v1h-1zm-24 1h1v1h-1zm1 0h1v1h-1zm4 0h1v1h-1zM3 22h1v1H3zm1 0h1v1H4zm7 0h1v1h-1zm1 0h1v1h-1zm12 0h2v2h-2zM6 23h1v2H6zm1 1h1v1H7zm8 0h1v1h-1zm9 0h2v1h-2zM6 25h1v1H6zm1 0h1v1H7zm4 0h1v37h-1zm4 0h1v1h-1zm4 0h1v37h-1zm4 0h1v1h-1zm14 0h1v1h-1zm-11 1h1v36h-1zm-16 1h1v35h-1zm10 0h1v35h-1zm5 0h1v35h-1z"/><path d="M40 27h22v35H40z"/><path d="M3 28h59v34H3zM0 62h62v1H0zm62 0h1v1h-1zm1 0h1v1h-1zM0 63h62v1H0zm62 0h1v1h-1zm1 0h1v1h-1z"/></g><path d="M11 3h1v1h-1zm10 0h1v1h-1zm35 5h1v1h-1zm1 0h1v5h-1zm0 5h1v1h-1z" fill="#7ea1ca"/><path d="M5 9h1v1H5zm42 5h1v1h-1zm-31 6h1v1h-1z" fill="#eaf0f7"/><path fill="#dfe8f2" d="M7 14h1v1H7z"/><path d="M9 16h1v1H9zm7 5h1v1h-1z" fill="#e7eef5"/><path d="M23 3h1v1h-1zm33 6h1v4h-1zm0 4h1v1h-1zm-17 5h1v1h-1zm-29 3h1v1h-1z" fill="#7da0ca"/><path d="M44 7h1v1h-1zm-16 6h1v1h-1zm-3 1h1v1h-1zm15 8h1v1h-1zm-29 1h1v1h-1zm13 2h1v1h-1z" fill="#759ac7"/><path fill="#bfd1e5" d="M29 10h1v1h-1z"/><path fill="#a3bcda" d="M29 27h1v1h-1z"/><path d="M7 3h1v1H7zm47 3h1v1h-1zM12 24h1v2h-1zm0 2h1v1h-1z" fill="#d4dfed"/><path d="M29 9h1v1h-1zm-5 11h1v1h-1z" fill="#c2d2e6"/><path fill="#d9e3ef" d="M18 13h1v1h-1z"/><path fill="#b8cbe2" d="M3 6h1v1H3z"/><path d="M11 6h1v1h-1zm30 2h1v5h-1zm6 0h1v1h-1zM7 9h1v1H7zm34 4h1v1h-1zm-26 5h1v1h-1zm8 0h1v1h-1z" fill="#86a7ce"/><path d="M47 10h1v1h-1zm-20 7h1v1h-1z" fill="#f5f7fb"/><path d="M20 20h1v1h-1zm2 5h1v1h-1z" fill="#b7cbe2"/><path fill="#a8c0dc" d="M24 27h1v1h-1z"/></svg>