<svg xmlns="http://www.w3.org/2000/svg" role="img" viewBox="-14.39 -14.39 748.28 575.28"><title>Greenkey Discovery SDK logo</title><style>svg {enable-background:new 0 0 720.05 546.69}</style><style>.st0{fill:#58b947}.st1{fill:#484848}</style><path d="M267.55 233.18l-.28.2c-1.62 1.14-26.03 17.92-62.61 24.07l-.34-.06c-1.95-.33-31.07-5.73-61.28-27.24l-.2-.28c-1.14-1.61-17.92-26.02-24.07-62.61l.06-.34c.34-1.95 5.74-31.07 27.24-61.28l.29-.2c1.61-1.14 26.02-17.92 62.6-24.06l.34.05c1.95.34 31.08 5.74 61.29 27.25l.2.29c1.14 1.61 17.92 26.02 24.07 62.59l-.06.35c-.34 1.93-5.73 31.06-27.25 61.27m92.01 12.63c-.21-29.98-6.67-58.6-19.16-85.04-18.51-39.16-46.92-63.39-72.24-78.14 6.53 1.41 13.22 3.27 20.02 5.71 24.68 8.83 46.93 22.91 66.14 41.83l7.37 7.27 14.53-14.75-7.38-7.27c-21.36-21.03-46.15-36.71-73.69-46.57-40.78-14.6-77.99-11.64-106.34-4.18 5.63-3.63 11.67-7.02 18.2-10.12 23.7-11.2 49.4-16.98 76.35-17.18l10.36-.09-.16-20.7-10.35.08c-29.99.23-58.6 6.68-85.04 19.16-39.16 18.52-63.39 46.92-78.14 72.24 1.4-6.53 3.26-13.22 5.7-20.02 8.85-24.68 22.92-46.92 41.84-66.14l7.27-7.37L160.09 0l-7.26 7.37c-21.04 21.36-36.71 46.15-46.58 73.69-14.6 40.77-11.64 77.99-4.18 106.33-3.63-5.62-7.03-11.66-10.11-18.18-11.2-23.71-16.98-49.4-17.19-76.35l-.08-10.36-20.7.16.07 10.34c.24 30 6.68 58.6 19.17 85.04 18.52 39.15 46.92 63.38 72.24 78.15-6.53-1.42-13.22-3.27-20.02-5.71-24.68-8.84-46.94-22.92-66.14-41.84l-7.37-7.27-14.54 14.77 7.37 7.26c21.37 21.04 46.16 36.71 73.69 46.57 40.78 14.6 78 11.65 106.34 4.18-5.63 3.63-11.66 7.03-18.2 10.11-23.7 11.2-49.38 16.99-76.35 17.2l-10.35.07.15 20.71 10.35-.09c30-.23 58.6-6.67 85.04-19.17 39.16-18.51 63.38-46.92 78.15-72.23-1.42 6.54-3.28 13.22-5.71 20.02-8.85 24.68-22.92 46.94-41.84 66.14l-7.27 7.38 14.75 14.53 7.27-7.38c21.04-21.37 36.72-46.15 46.57-73.69 14.6-40.78 11.64-77.99 4.18-106.33 3.63 5.62 7.03 11.66 10.12 18.2 11.2 23.71 16.98 49.39 17.19 76.35l.08 10.35 20.71-.15-.08-10.36z" class="st0"/><path d="M245.81 169.41l-39-60.12-38.99 60.12 38.99 60.12 39-60.12z" class="st0"/><path d="M491.38 222.25c22.13.03 38.52-14.62 38.55-36.03l.02-15.15c.02-21.41-16.31-36.35-38.44-36.39-19.01-.02-38.28 11.25-38.32 36.26l-.02 15.15c-.03 24.78 19.21 36.13 38.21 36.16m-14.06 74.79l.04-19.49 9.62.02c19.73.04 42.83-5.7 42.88-33.84l.01-14.92c-10.6 8.65-24.56 12.96-38.51 12.93-28.87-.05-57.72-19.1-57.67-55.67l.03-15.15c.05-36.57 28.95-55.76 57.83-55.72 13.96.02 27.9 4.37 38.47 13.05v-2.4l.01-.97.01-9.62 19.49.04-.01 9.62-.01.95-.17 117.88c-.02 15.88-5.58 29.59-16.42 38.95-11.08 9.36-26.49 14.38-45.98 14.35l-9.62-.01zm88.39-55.19l.26-173.2 19.49.03-.17 113.55 66.99-66.77 28.15.05-59.03 58.36 61.25 68.17-25.99-.04-48.75-54.69-22.66 22.34-.05 32.24-19.49-.04z" class="st1"/><path fill="#97999b" d="M537.52 525.56c17.22 0 29.46-9.07 29.46-24.36 0-16.77-13.48-20.96-25.49-24.59-12.35-3.74-14.28-6.23-14.28-9.86 0-3.17 2.83-6 8.5-6 7.25 0 10.99 3.51 13.71 9.18l15.3-8.95c-5.78-11.67-15.98-17.9-29.01-17.9-13.71 0-26.63 8.84-26.63 24.13 0 15.18 11.56 20.85 23.34 24.13 11.9 3.29 16.43 5.21 16.43 10.08 0 3.06-2.15 6.46-10.76 6.46-8.95 0-13.82-4.42-16.66-10.99l-15.64 9.06c4.42 11.67 15.07 19.61 31.73 19.61zm69.68-80.9h-31.73v79.31h31.73c21.87 0 38.52-17.22 38.52-39.66 0-22.43-16.65-39.65-38.52-39.65zm0 61.86h-13.6V462.1h13.6c12.46 0 21.08 8.61 21.08 22.21 0 13.6-8.62 22.21-21.08 22.21zm112.85 17.45l-27.87-40.68 26.74-38.64H698.3l-24.25 34.45v-34.45h-18.13v79.31h18.13v-36.71l25.38 36.71h20.62v.01z"/><path d="M31.73 444.66H0v79.31h31.73c21.87 0 38.52-17.22 38.52-39.66 0-22.43-16.66-39.65-38.52-39.65zm0 61.86h-13.6V462.1h13.6c12.46 0 21.07 8.61 21.07 22.21 0 13.6-8.61 22.21-21.07 22.21zm56.65-44.19c5.55 0 10.2-4.65 10.2-10.2 0-5.55-4.65-10.2-10.2-10.2-5.55 0-10.2 4.64-10.2 10.2s4.64 10.2 10.2 10.2zm-8.5 61.64h17v-56.65h-17v56.65zm44.98-40.11c0-2.04 1.81-3.17 4.76-3.17 3.74 0 6.01 2.04 7.59 4.99l14.5-7.82c-4.76-8.04-12.92-12.12-22.09-12.12-11.78 0-22.21 6.23-22.21 18.58 0 19.6 27.87 16.32 27.87 22.55 0 2.27-2.04 3.51-6.12 3.51-4.99 0-8.16-2.38-9.63-6.69l-14.73 8.38c4.42 9.18 13.03 13.48 24.36 13.48 12.24 0 23.57-5.55 23.57-18.58 0-20.96-27.87-16.65-27.87-23.11zm63 41.7c11.1 0 20.74-5.78 25.61-14.62l-14.84-8.5c-1.81 3.96-6.01 6.35-10.99 6.35-7.37 0-12.8-5.33-12.8-13.14 0-7.82 5.44-13.14 12.8-13.14 4.99 0 9.07 2.38 10.99 6.34l14.84-8.61c-4.87-8.72-14.62-14.5-25.61-14.5-17.22 0-30.03 13.03-30.03 29.91 0 16.88 12.81 29.91 30.03 29.91zm58.46 0c16.66 0 30.03-13.03 30.03-29.91 0-16.88-13.37-29.91-30.03-29.91-16.65 0-30.02 13.03-30.02 29.91 0 16.88 13.37 29.91 30.02 29.91zm0-16.55c-7.36 0-13.03-5.33-13.03-13.37s5.67-13.37 13.03-13.37c7.36 0 13.03 5.33 13.03 13.37 0 8.05-5.66 13.37-13.03 13.37zm73.54-41.69l-11.78 35.92-11.78-35.92h-18.81l20.96 56.65h19.26l20.96-56.65h-18.81zm37.96 35.12h40.22c.45-2.15.68-4.42.68-6.8 0-17.11-12.24-29.91-28.78-29.91-17.9 0-30.14 13.03-30.14 29.91 0 16.88 12.01 29.91 31.38 29.91 10.76 0 19.15-3.97 24.7-11.67l-13.6-7.82c-2.27 2.49-6.23 4.31-10.88 4.31-6.22 0-11.43-2.04-13.58-7.93zm-.34-12.69c1.59-5.78 5.89-8.95 12.35-8.95 5.1 0 10.2 2.38 12.01 8.95h-24.36zm67.87-12.35v-10.08h-17v56.65h17v-25.61c0-11.22 9.97-14.05 17-12.92v-19.26c-7.15 0-14.74 3.63-17 11.22zm61.75-10.08l-10.65 34.67-12.58-34.67h-18.69l22.55 54.05c-2.49 6.91-6.23 9.4-14.16 9.4v15.86c15.86.79 25.95-6.35 32.29-24.36l19.38-54.95H487.1z" class="st1"/></svg>