<svg xmlns="http://www.w3.org/2000/svg" role="img" viewBox="-14.40 -14.40 748.80 454.30"><title>Greenkey Automatic Speech Recognition Toolkit logo</title><style>svg {enable-background:new 0 0 720.27 425.79}</style><style>.st1{fill:#484848}.st2{fill:#58b947}</style><path fill="#97999b" d="M311.73 408.55h13.85l-12-20.7c6.2-3.14 10.39-9.42 10.39-16.35 0-10.71-8.62-19.33-19.33-19.33h-22.55v56.38h12.89v-18.53h6.12l10.63 18.53zm-16.76-44.3h9.67c3.54 0 6.44 3.14 6.44 7.25 0 4.11-2.9 7.25-6.44 7.25h-9.67v-14.5zM340 393.24h28.6c.32-1.53.48-3.14.48-4.83 0-12.16-8.7-21.27-20.46-21.27-12.73 0-21.43 9.26-21.43 21.27 0 12 8.54 21.26 22.31 21.26 7.65 0 13.61-2.82 17.56-8.3l-9.67-5.56c-1.61 1.77-4.43 3.06-7.73 3.06-4.43.01-8.13-1.44-9.66-5.63zm-.24-9.02c1.13-4.11 4.19-6.36 8.78-6.36 3.62 0 7.25 1.69 8.54 6.36h-17.32zm55.09 25.46c7.89 0 14.74-4.11 18.2-10.39l-10.55-6.04c-1.29 2.82-4.27 4.51-7.81 4.51-5.24 0-9.1-3.79-9.1-9.34 0-5.56 3.87-9.34 9.1-9.34 3.54 0 6.44 1.69 7.81 4.51l10.55-6.12c-3.46-6.2-10.39-10.31-18.2-10.31-12.24 0-21.35 9.26-21.35 21.27.01 11.98 9.11 21.25 21.35 21.25zm41.57 0c11.84 0 21.35-9.26 21.35-21.26 0-12-9.51-21.27-21.35-21.27-11.84 0-21.35 9.26-21.35 21.27 0 11.99 9.51 21.26 21.35 21.26zm0-11.76c-5.24 0-9.26-3.79-9.26-9.5 0-5.72 4.03-9.51 9.26-9.51 5.24 0 9.26 3.79 9.26 9.51 0 5.71-4.03 9.5-9.26 9.5zm57.75-29.65v4.11c-2.66-3.3-6.52-5.24-11.76-5.24-11.44 0-19.82 9.34-19.82 20.46 0 11.12 8.38 20.46 19.82 20.46 5.24 0 9.1-1.93 11.76-5.24v3.71c0 5.72-3.46 8.62-9.1 8.62-5.32 0-7.65-2.26-9.18-5.07l-10.31 5.96c3.71 6.6 10.71 9.75 19.09 9.75 10.71 0 21.27-5.72 21.27-19.25v-38.26h-11.77v-.01zm-9.75 28.68c-5.72 0-9.75-3.79-9.75-9.34 0-5.56 4.03-9.34 9.75-9.34s9.75 3.79 9.75 9.34-4.03 9.34-9.75 9.34zm53.97-29.8c-5.32 0-9.34 1.93-11.52 4.91v-3.79h-12.08v40.27h12.08v-21.99c0-5.72 3.06-8.3 7.49-8.3 3.87 0 7.01 2.34 7.01 7.33v22.96h12.08v-24.73c0-10.87-6.92-16.66-15.06-16.66zm29.4-2.42c3.95 0 7.25-3.3 7.25-7.25s-3.3-7.25-7.25-7.25-7.25 3.3-7.25 7.25 3.3 7.25 7.25 7.25zm-6.04 43.82h12.08v-40.27h-12.08v40.27zm44.54-28.68v-11.6H598V357l-12.08 3.62v7.65h-6.44v11.6h6.44v14.26c0 11.28 4.59 16.03 20.38 14.42V397.6c-5.32.32-8.3 0-8.3-3.46v-14.26h8.29v-.01zm12.89-15.14c3.95 0 7.25-3.3 7.25-7.25s-3.3-7.25-7.25-7.25-7.25 3.3-7.25 7.25 3.3 7.25 7.25 7.25zm-6.04 43.82h12.08v-40.27h-12.08v40.27zm40.27 1.13c11.84 0 21.35-9.26 21.35-21.26 0-12-9.51-21.27-21.35-21.27-11.84 0-21.35 9.26-21.35 21.27.01 11.99 9.51 21.26 21.35 21.26zm0-11.76c-5.24 0-9.26-3.79-9.26-9.5 0-5.72 4.03-9.51 9.26-9.51 5.24 0 9.26 3.79 9.26 9.51.01 5.71-4.02 9.5-9.26 9.5zm51.8-30.77c-5.32 0-9.34 1.93-11.52 4.91v-3.79h-12.08v40.27h12.08v-21.99c0-5.72 3.06-8.3 7.49-8.3 3.87 0 7.01 2.34 7.01 7.33v22.96h12.08v-24.73c0-10.87-6.93-16.66-15.06-16.66z"/><path d="M22.55 409.68c12.24 0 20.94-6.44 20.94-17.32 0-11.92-9.59-14.9-18.12-17.48-8.78-2.66-10.15-4.43-10.15-7.01 0-2.26 2.01-4.27 6.04-4.27 5.16 0 7.81 2.5 9.75 6.52l10.87-6.36c-4.11-8.3-11.36-12.73-20.62-12.73-9.75 0-18.93 6.28-18.93 17.16 0 10.79 8.22 14.82 16.59 17.16 8.46 2.34 11.68 3.7 11.68 7.17 0 2.17-1.53 4.59-7.65 4.59-6.36 0-9.83-3.14-11.84-7.81L0 395.74c3.14 8.3 10.71 13.94 22.55 13.94zm51.07-42.53c-5.4 0-9.34 1.85-12 4.91v-3.79H49.54v56.39h12.08v-19.9c2.66 3.06 6.6 4.91 12 4.91 10.55 0 19.25-9.26 19.25-21.26 0-12-8.7-21.26-19.25-21.26zm-2.41 31.09c-5.56 0-9.59-3.79-9.59-9.83s4.03-9.83 9.59-9.83 9.58 3.79 9.58 9.83-4.03 9.83-9.58 9.83zm39.3-5h28.6c.32-1.53.48-3.14.48-4.83 0-12.16-8.7-21.27-20.46-21.27-12.73 0-21.43 9.26-21.43 21.27 0 12 8.54 21.26 22.31 21.26 7.65 0 13.61-2.82 17.56-8.3l-9.67-5.56c-1.61 1.77-4.43 3.06-7.73 3.06-4.42.01-8.13-1.44-9.66-5.63zm-.24-9.02c1.13-4.11 4.19-6.36 8.78-6.36 3.62 0 7.25 1.69 8.54 6.36h-17.32zm46.56 9.02h28.6c.32-1.53.48-3.14.48-4.83 0-12.16-8.7-21.27-20.46-21.27-12.73 0-21.43 9.26-21.43 21.27 0 12 8.54 21.26 22.31 21.26 7.65 0 13.61-2.82 17.56-8.3l-9.67-5.56c-1.61 1.77-4.43 3.06-7.73 3.06-4.43.01-8.13-1.44-9.66-5.63zm-.24-9.02c1.13-4.11 4.19-6.36 8.78-6.36 3.62 0 7.25 1.69 8.54 6.36h-17.32zm55.09 25.46c7.89 0 14.74-4.11 18.2-10.39l-10.55-6.04c-1.29 2.82-4.27 4.51-7.81 4.51-5.24 0-9.1-3.79-9.1-9.34 0-5.56 3.87-9.34 9.1-9.34 3.54 0 6.44 1.69 7.81 4.51l10.55-6.12c-3.46-6.2-10.39-10.31-18.2-10.31-12.24 0-21.35 9.26-21.35 21.27.01 11.98 9.11 21.25 21.35 21.25zm46.64-42.53c-5.32 0-9.34 1.93-11.52 4.91v-19.89h-12.08v56.38h12.08v-21.99c0-5.72 3.06-8.3 7.49-8.3 3.87 0 7.01 2.34 7.01 7.33v22.96h12.08v-24.73c0-10.88-6.92-16.67-15.06-16.67z" class="st1"/><path d="M287.32 183.61l-.22.15c-1.28.9-20.5 14.11-49.3 18.95l-.27-.05c-1.53-.26-24.47-4.51-48.26-21.45l-.16-.22c-.9-1.27-14.11-20.49-18.95-49.3l.05-.27c.27-1.53 4.52-24.47 21.45-48.25l.23-.16c1.27-.9 20.49-14.11 49.29-18.95l.27.04c1.53.27 24.47 4.52 48.26 21.46l.15.23c.9 1.27 14.11 20.49 18.95 49.29l-.05.27c-.25 1.53-4.5 24.46-21.44 48.26m72.45 9.94c-.17-23.61-5.25-46.14-15.09-66.96-14.58-30.83-36.95-49.91-56.88-61.53 5.15 1.11 10.41 2.57 15.76 4.5 19.43 6.96 36.96 18.04 52.08 32.93l5.81 5.72 11.44-11.62-5.81-5.72c-16.82-16.56-36.34-28.9-58.02-36.67-32.11-11.5-61.41-9.17-83.73-3.29 4.44-2.86 9.19-5.53 14.33-7.97 18.66-8.82 38.89-13.37 60.12-13.53l8.16-.07-.13-16.3-8.15.06c-23.61.18-46.14 5.26-66.96 15.09-30.83 14.58-49.91 36.95-61.53 56.88 1.11-5.15 2.57-10.41 4.49-15.76 6.96-19.43 18.05-36.95 32.94-52.08l5.72-5.81L202.71 0l-5.72 5.81c-16.57 16.82-28.91 36.34-36.68 58.02-11.49 32.1-9.17 61.41-3.29 83.72-2.86-4.42-5.53-9.18-7.96-14.32-8.82-18.67-13.37-38.89-13.54-60.12l-.06-8.15-16.3.13.05 8.15c.19 23.62 5.26 46.14 15.1 66.96 14.58 30.83 36.95 49.91 56.88 61.53-5.15-1.12-10.41-2.58-15.76-4.5-19.43-6.96-36.96-18.05-52.08-32.94l-5.81-5.72-11.44 11.62 5.8 5.72c16.83 16.57 36.35 28.91 58.02 36.67 32.11 11.5 61.41 9.17 83.73 3.29-4.43 2.86-9.18 5.54-14.33 7.96-18.66 8.82-38.88 13.38-60.12 13.54l-8.15.06.12 16.31 8.15-.07c23.62-.18 46.14-5.25 66.96-15.09 30.84-14.58 49.9-36.94 61.53-56.87-1.12 5.15-2.58 10.41-4.5 15.76-6.97 19.43-18.05 36.96-32.94 52.08l-5.72 5.81 11.62 11.44 5.72-5.81c16.57-16.83 28.91-36.34 36.67-58.02 11.5-32.11 9.17-61.41 3.29-83.72 2.86 4.43 5.54 9.18 7.97 14.33 8.82 18.67 13.37 38.89 13.54 60.12l.06 8.15 16.31-.12-.06-8.18z" class="st2"/><path d="M270.2 133.39l-30.7-47.34-30.71 47.34 30.7 47.34 30.71-47.34z" class="st2"/><path d="M463.56 175c17.43.02 30.33-11.51 30.35-28.37l.02-11.93c.02-16.86-12.84-28.62-30.27-28.65-14.96-.02-30.14 8.86-30.17 28.55l-.01 11.93c-.02 19.51 15.12 28.44 30.08 28.47m-11.07 58.89l.03-15.35 7.58.01c15.53.03 33.73-4.49 33.76-26.65l.01-11.75c-8.34 6.82-19.34 10.2-30.33 10.18-22.73-.04-45.45-15.04-45.41-43.83l.02-11.93c.04-28.79 22.8-43.91 45.53-43.87 10.99.02 21.97 3.44 30.29 10.28v-1.89l.01-.76.01-7.58 15.35.03-.01 7.58v.75l-.13 92.81c-.02 12.5-4.4 23.3-12.93 30.67-8.73 7.37-20.86 11.33-36.21 11.3h-7.57zm69.6-43.46l.2-136.38 15.35.03-.13 89.4 52.75-52.57 22.16.04-46.48 45.95 48.23 53.68-20.47-.03-38.38-43.06-17.84 17.59-.04 25.38-15.35-.03z" class="st1"/></svg>