<svg xmlns="http://www.w3.org/2000/svg" role="img" viewBox="-14.39 -14.39 748.28 487.28"><title>InnerSource Special Interest Group logo</title><style>svg {enable-background:new 0 0 720 458.7}</style><style>.st0{fill:#489fdf}.st1{fill:#004c97}</style><path d="M0 397.8h23.2v-88.9H0v88.9zm40.8 0H64V353c3.5-3.3 5.9-5.2 10.3-5.2 4.6 0 6.8 2.2 6.8 10.9v39.1h23.2v-42.1c0-17-6.2-27.9-21.1-27.9-9.2 0-15.9 4.6-21.3 9.8h-.5l-1.6-8.2h-19v68.4zm78.6 0h23.2V353c3.5-3.3 5.9-5.2 10.3-5.2 4.6 0 6.8 2.2 6.8 10.9v39.1h23.2v-42.1c0-17-6.2-27.9-21.1-27.9-9.2 0-15.9 4.6-21.3 9.8h-.5l-1.6-8.2h-18.9v68.4h-.1zm137-37c0-18.3-9.5-33.1-29.4-33.1-16.5 0-32.4 13.7-32.4 35.8 0 22.7 15.1 35.8 34.9 35.8 7.6 0 17.3-2.7 24.6-7.9l-7.6-13.9c-4.9 2.7-9.2 4.1-13.8 4.1-6.6 0-13.6-2.3-16.1-10.9h38.9c.3-1.7.9-5.8.9-9.9zm-19.7-5.4h-20.1c1.9-7.2 6.3-9.8 10.9-9.8 7-.1 9.2 4.6 9.2 9.8zm73.5-27.6h-.8c-6.6 0-14.2 4.1-19.2 13.4h-.5l-1.6-11.8h-18.9v68.4h23.2v-38c3.2-8.5 9.2-11.5 14-11.5 2.7 0 4.8.5 7 1-2.7-3.9-4.4-8.6-4.4-14.4 0-2.5.5-4.8 1.2-7.1zm36.4 71.6c21.9 0 34.3-13.4 34.3-28.4 0-12.3-6.2-20-17.2-24.3l-10.7-4.2c-8-3.1-13-4.6-13-8.9 0-4 3.5-6 9.2-6 6.5 0 11.6 2.2 17.6 6.4l11.6-14.8c-8.1-8.1-19.2-11.9-29.2-11.9-19.2 0-32.7 12.4-32.7 27.6 0 12.9 8.2 20.9 17.7 24.7l10.9 4.6c7.4 3 11.9 4.4 11.9 8.6 0 4-3 6.3-10 6.3-6.5 0-14.3-3.6-20.5-8.6l-13.2 16.1c9.6 8.7 22.3 12.8 33.3 12.8zm110-35.8c0-22.7-16.2-35.8-33.5-35.8s-33.5 13.1-33.5 35.8c0 22.7 16.2 35.8 33.5 35.8s33.5-13.1 33.5-35.8zm-23.8 0c0 10.4-2.7 17-9.7 17-7 0-9.7-6.6-9.7-17s2.7-17 9.7-17c7 0 9.7 6.6 9.7 17zm56.5 35.8c9.2 0 15.4-4.1 20.8-10.7h.5l1.6 9h18.9v-68.4h-23.2v44c-3 4.4-5.4 6-9.7 6-4.6 0-6.8-2.2-6.8-10.9v-39.1h-23.2v42.1c0 17.1 6.2 28 21.1 28zm57.5-1.6H570v-38c3.2-8.5 9.2-11.5 14-11.5 3 0 5.1.5 7.6 1.1l3.8-20.2c-1.9-.8-4.2-1.4-8.4-1.4-6.6 0-14.2 4.1-19.2 13.4h-.5l-1.6-11.8h-18.9v68.4zm85.7 1.6c7 0 15.7-1.9 22.4-7.9l-8.9-15.3c-3.2 2.5-7 4.4-10.8 4.4-7.3 0-13-6.6-13-17s5.1-17 13.8-17c2.4 0 4.6.8 7.6 3.3l10.8-15c-5.1-4.4-11.6-7.1-19.7-7.1-19.2 0-36.2 13.1-36.2 35.8-.1 22.7 14.8 35.8 34 35.8zm87.5-38.6c0-18.3-9.5-33.1-29.4-33.1-16.5 0-32.4 13.7-32.4 35.8 0 22.7 15.1 35.8 34.9 35.8 7.6 0 17.3-2.7 24.6-7.9l-7.6-13.9c-4.9 2.7-9.2 4.1-13.8 4.1-6.6 0-13.6-2.3-16.1-10.9h38.9c.4-1.7.9-5.8.9-9.9zm-19.7-5.4h-20.1c1.9-7.2 6.3-9.8 10.9-9.8 7-.1 9.2 4.6 9.2 9.8z" class="st0"/><path d="M11.7 458.7c6.9 0 11.3-4.1 11.3-9.4 0-5.1-3.1-7.3-7-9l-4.9-2.2c-2.6-1.1-5.6-2.4-5.6-5.8 0-3.2 2.6-5.2 6.6-5.2 3.2 0 5.7 1.3 7.7 3.2l2-2.4c-2.3-2.4-5.7-4.1-9.8-4.1-5.9 0-10.3 3.7-10.3 8.8 0 5 3.7 7.3 6.8 8.6l4.9 2.2c3.2 1.4 5.7 2.6 5.7 6.2 0 3.5-2.8 5.8-7.4 5.8-3.6 0-7-1.7-9.4-4.3L0 453.7c2.9 3.1 6.9 5 11.7 5zm25.6-.6h3.8v-13.6h5.7c7.4 0 12.3-3.3 12.3-10.2 0-7.3-5-9.8-12.5-9.8h-9.3v33.6zm3.8-16.8v-13.8h5c6.1 0 9.3 1.6 9.3 6.7 0 5-2.9 7.1-9.1 7.1h-5.2zm32.7 16.8h19.6v-3.2H77.6V442h12.9v-3.2H77.6v-11.1h15.3v-3.2H73.8v33.6zm47 .6c4.4 0 7.6-1.8 10.2-4.9l-2.1-2.4c-2.3 2.5-4.7 3.9-8 3.9-6.6 0-10.8-5.5-10.8-14.2s4.3-14 10.9-14c2.9 0 5.2 1.3 7 3.3l2.1-2.5c-1.9-2.1-5.1-4.1-9.1-4.1-8.6 0-14.8 6.7-14.8 17.5.1 10.9 6.3 17.4 14.6 17.4zm24.4-.6h3.8v-33.7h-3.8v33.7zm39.5 0h4l-11.5-33.6H173l-11.5 33.6h3.8l3.4-10.6h12.5l3.5 10.6zm-14.9-13.6l1.7-5.4c1.3-3.8 2.4-7.5 3.4-11.4h.2c1.1 3.9 2.3 7.6 3.5 11.4l1.7 5.4h-10.5zm31.5 13.6h18.6v-3.2H205v-30.4h-3.8v33.6h.1zm50.3 0h3.8v-33.7h-3.8v33.7zm20.8 0h3.6v-18.4c0-3.5-.3-6.9-.5-10.3h.2l3.7 6.9 12.7 21.8h3.9v-33.6h-3.6v18.2c0 3.4.3 7.1.5 10.5h-.2l-3.7-6.9-12.7-21.8h-3.9v33.6zm47.7 0h3.8v-30.4h10.3v-3.2h-24.4v3.2h10.3v30.4zm28 0h19.6v-3.2h-15.8V442h12.9v-3.2h-12.9v-11.1h15.3v-3.2h-19.1v33.6zm57.3 0l-8.8-14.9c4.8-1 7.8-4.1 7.8-9.4 0-6.9-4.8-9.3-11.6-9.3h-10.3v33.6h3.8v-14.5h6.4l8.4 14.5h4.3zm-19-30.6h5.9c5.4 0 8.4 1.6 8.4 6.3 0 4.5-3 6.7-8.4 6.7h-5.9v-13zm32.7 30.6h19.6v-3.2h-15.8V442h12.9v-3.2h-12.9v-11.1h15.3v-3.2h-19.1v33.6zm43.7.6c6.9 0 11.3-4.1 11.3-9.4 0-5.1-3.1-7.3-7-9l-4.9-2.2c-2.6-1.1-5.6-2.4-5.6-5.8 0-3.2 2.6-5.2 6.6-5.2 3.2 0 5.7 1.3 7.7 3.2l2-2.4c-2.3-2.4-5.7-4.1-9.8-4.1-5.9 0-10.3 3.7-10.3 8.8 0 5 3.7 7.3 6.8 8.6l4.9 2.2c3.2 1.4 5.7 2.6 5.7 6.2 0 3.5-2.8 5.8-7.4 5.8-3.6 0-7-1.7-9.4-4.3l-2.3 2.6c2.9 3.1 6.9 5 11.7 5zm31.7-.6h3.8v-30.4h10.3v-3.2h-24.4v3.2h10.3v30.4zm58.8.6c4.5 0 8.1-1.6 10.3-3.9v-13.9h-10.9v3.2h7.4v9.2c-1.4 1.3-3.9 2.2-6.5 2.2-7.3 0-11.4-5.5-11.4-14.2s4.5-14 11.5-14c3.4 0 5.7 1.5 7.4 3.3l2.1-2.5c-1.9-2-4.9-4.1-9.6-4.1-8.9 0-15.3 6.7-15.3 17.5 0 10.7 6.2 17.2 15 17.2zm49-.6l-8.8-14.9c4.8-1 7.8-4.1 7.8-9.4 0-6.9-4.8-9.3-11.6-9.3h-10.3v33.6h3.8v-14.5h6.4l8.4 14.5h4.3zm-19-30.6h5.9c5.4 0 8.4 1.6 8.4 6.3 0 4.5-3 6.7-8.4 6.7h-5.9v-13zm45 31.2c8.4 0 14.2-6.8 14.2-17.6 0-10.7-5.9-17.3-14.2-17.3-8.4 0-14.3 6.6-14.3 17.3 0 10.8 5.9 17.6 14.3 17.6zm0-3.3c-6.3 0-10.4-5.6-10.4-14.2s4.1-14 10.4-14c6.2 0 10.3 5.4 10.3 14s-4.1 14.2-10.3 14.2zm41 3.3c6.6 0 11.9-3.5 11.9-14.2v-20h-3.6v20c0 8.3-3.7 10.9-8.3 10.9-4.5 0-8.1-2.6-8.1-10.9v-20h-3.8v20c0 10.7 5.3 14.2 11.9 14.2zm28.9-.6h3.8v-13.6h5.7c7.4 0 12.3-3.3 12.3-10.2 0-7.3-5-9.8-12.5-9.8h-9.3v33.6zm3.8-16.8v-13.8h5c6.1 0 9.3 1.6 9.3 6.7 0 5-2.9 7.1-9.1 7.1H702zM503.3 114.9V0c-8 7.6-16.5 14.7-25.5 21.2v78l25.5 15.7zm-51.1 5.4v-83c-8.2 4.5-16.8 8.4-25.5 11.9v71.1h25.5zm-51.1 0V57.8c-8.3 2.3-16.9 4.2-25.5 5.6v57h25.5v-.1zm-25.5 49.5v49.7h25.5v-49.7h-25.5zm51.1 0v49.7h25.5v-49.7h-25.5zm51 23.2v26.5h25.5v-42.2L477.7 193z" class="st1"/><path d="M463.7 86.4v29.7H171.4V161h292.3v29.8l84.9-52.2-84.9-52.2z" class="st0"/><path d="M171.4 0v219.5h25.5V21.2c-9-6.5-17.5-13.6-25.5-21.2zm102.1 57.8v161.7H299V63.4c-8.7-1.4-17.2-3.3-25.5-5.6zm-51.1-20.5v182.2H248V49.2c-8.8-3.5-17.4-7.4-25.6-11.9zm102.1 28.8v153.4H350V66.1c-4.2.2-8.5.3-12.8.3-4.2 0-8.4-.1-12.7-.3z" class="st1"/></svg>