<svg xmlns="http://www.w3.org/2000/svg" role="img" viewBox="-14.39 -14.39 748.28 186.28"><title>Integration Bridge logo</title><style>svg {enable-background:new 0 0 720 158}</style><path fill="#000029" d="M36.5 78.6c-13.9 0-25.8-4.5-36.5-11.2l6.6-10c10.7 6.8 20.5 10.1 31.5 10.1 12.9 0 19-5 19-10.8 0-16.8-54.6-6.7-54.6-33.4 0-13 13-23.3 34-23.3C50.6 0 62.9 5.3 70 12.5l-8.2 8.4c-6.2-5.4-15.7-9.7-25.6-9.7-12.2 0-20.5 4.4-20.5 10.7 0 15.5 54.7 7.3 54.7 33.5.1 13.8-13.9 23.2-33.9 23.2zm87.4-32.1V76h-13.2V46.4L77.6 2.5H93l24.8 34 23.5-34h15.2l-32.6 44zm125 29.5V18.4l-3.6 7.8-26 49.7h-7.9l-25.7-49.7-3.6-7.8V76h-12.7V2.5h18.4l24.7 49.4 3.4 7.5 3.4-7.5 24.4-49.4h18.2V76h-13zm84.9-51.6c0-6.1-4.1-10.6-14.1-10.6h-24.4v23.7h24.9c10 0 13.6-4.9 13.6-10.8v-2.3zm-15.6 23.9h-22.9V76H282V2.5h36.2c20.1 0 28.9 9 28.9 21.8v2c0 12.8-8.8 22-28.9 22zm101 27.7V44.3H375V76h-13.2V2.5H375v31.1h44.2V2.5h13.2V76h-13.2zm93.1-41.3c0-12.6-8.7-23.4-24.8-23.4s-24.7 10.8-24.7 23.4v8.9c0 12.6 8.6 23.6 24.7 23.6s24.8-11 24.8-23.6v-8.9zm-24.8 43.9c-23.6 0-38-16.8-38-34.7v-9.2c0-18.3 14.4-34.7 38-34.7 23.7 0 38.2 16.4 38.2 34.7v9.2c0 18-14.5 34.7-38.2 34.7zM602.1 76L561 29.6l-5.3-6.8V76h-13.1V2.5h12.2L594.6 49l5.4 6.8V2.5h13V76h-10.9zm69.8-29.5V76h-13.2V46.4L625.6 2.5H641l24.8 34 23.5-34h15.2l-32.6 44z"/><path fill="#008fff" d="M5.7 157.2h9.6v-43.7H5.7v43.7zm20.5 0h9.5v-27.8l21.2 27.8H65v-43.7h-9.5v26.9L35 113.5h-8.9v43.7h.1zm59.5 0h9.6v-34.8h13.3v-8.9H72.4v8.9h13.3v34.8zm30.2 0h33.3v-8.5h-23.7v-9.2h20.6V131h-20.6v-8.9h23.4v-8.5H116v43.6h-.1zm62.9.8c8 0 14.2-3.1 18.7-6.9v-19h-19v8.3h9.7v6.2c-2.4 1.7-5.6 2.6-9.1 2.6-7.7 0-13.2-5.9-13.2-13.9v-.1c0-7.4 5.6-13.6 12.5-13.6 5.1 0 8.1 1.6 11.4 4.4l6-7.3c-4.6-3.9-9.3-6-17.2-6-13.2 0-22.9 10.2-22.9 22.6v.1c.1 13 9.5 22.6 23.1 22.6zm27.9-.8h9.6v-14h7.6l9.4 14h11.2l-10.7-15.6c5.5-2.1 9.4-6.5 9.4-13.5v-.1c0-4.1-1.3-7.6-3.7-10-2.9-2.9-7.2-4.4-12.7-4.4h-20v43.6h-.1zm9.6-22.4v-12.5h9.6c4.7 0 7.6 2.1 7.6 6.2v.1c0 3.7-2.7 6.2-7.4 6.2h-9.8zm31.7 22.4h9.8l4-9.8h18.5l4 9.8h10l-18.7-44h-8.9l-18.7 44zm17.3-18.2l5.8-14.2 5.8 14.2h-11.6zm40.3 18.2h9.6v-34.8h13.3v-8.9h-36.2v8.9h13.3v34.8zm30.7 0h9.6v-43.7h-9.6v43.7zm41.8.8c13.5 0 23.3-10.2 23.3-22.6v-.1c0-12.4-9.7-22.5-23.1-22.5-13.5 0-23.3 10.2-23.3 22.6v.1c-.1 12.4 9.6 22.5 23.1 22.5zm.1-8.9c-7.7 0-13.2-6.2-13.2-13.7v-.1c0-7.5 5.4-13.6 13.1-13.6 7.7 0 13.2 6.2 13.2 13.7v.1c0 7.5-5.4 13.6-13.1 13.6zm31.7 8.1h9.5v-27.8l21.2 27.8h8.2v-43.7h-9.5v26.9l-20.5-26.9h-8.9v43.7zm68 0h20.8c9.9 0 16.3-4 16.3-12v-.1c0-5.9-3.1-8.8-8.2-10.7 3.1-1.7 5.7-4.5 5.7-9.4v-.1c0-3-1-5.4-3-7.4-2.5-2.5-6.4-3.9-11.4-3.9h-20.3v43.6h.1zm25.2-30.6c0 3.2-2.7 4.6-6.9 4.6h-8.9V122h9.5c4.1 0 6.3 1.6 6.3 4.5v.1zm2.4 17.4v.1c0 3.2-2.6 4.7-6.8 4.7h-11.4v-9.6h11.1c4.9 0 7.1 1.8 7.1 4.8zm17.5 13.2h9.6v-14h7.6l9.4 14h11.2L550 141.6c5.5-2.1 9.4-6.5 9.4-13.5v-.1c0-4.1-1.3-7.6-3.7-10-2.9-2.9-7.2-4.4-12.7-4.4h-20v43.6zm9.6-22.4v-12.5h9.6c4.7 0 7.6 2.1 7.6 6.2v.1c0 3.7-2.7 6.2-7.4 6.2h-9.8zm35.9 22.4h9.6v-43.7h-9.6v43.7zm20.5 0h17c13.7 0 23.2-9.5 23.2-21.8v-.1c0-12.3-9.5-21.7-23.2-21.7h-17v43.6zm17.1-35c7.9 0 13.2 5.4 13.2 13.2v.1c0 7.7-5.3 13-13.2 13h-7.4v-26.3h7.4zm52.8 35.8c8 0 14.2-3.1 18.7-6.9v-19h-19v8.3h9.7v6.2c-2.4 1.7-5.6 2.6-9.1 2.6-7.7 0-13.2-5.9-13.2-13.9v-.1c0-7.4 5.6-13.6 12.5-13.6 5.1 0 8.1 1.6 11.4 4.4l6-7.3c-4.6-3.9-9.3-6-17.2-6-13.2 0-22.9 10.2-22.9 22.6v.1c.1 13 9.4 22.6 23.1 22.6zm27.9-.8H720v-8.5h-23.7v-9.2h20.6V131h-20.6v-8.9h23.4v-8.5h-32.9v43.6z"/></svg>