<svg xmlns="http://www.w3.org/2000/svg" role="img" viewBox="-5.95 -5.95 309.14 84.89"><title>International Swaps and Derivatives Association logo</title><path fill="#0056A0" d="M215.521 0h.24v71.428c0 .271-.141.719 0 .813C215.2 48.64 215.681 24 215.521 0z"/><path fill="#211F1F" d="M215.761 0H216c-.158 23.868.444 48.413-.1 71.894-.003.131.047.347-.14.347.001-24.08.001-48.161.001-72.241z"/><path fill="#0056A0" d="M50.88 73.2h-6.96c-5.172-.508-8.262-3.099-13.2-3.84-1.488.432-.497 3.344-2.16 3.6-.247-5.207-.71-12.709.24-17.52 1.514 3.889 2.871 7.484 6 10.561 4.452 4.375 13.365 7.246 20.64 3.601 6.457-3.235 8.662-13.677 3.36-20.16-8.482-10.373-31.227-11.155-29.04-31.68C30.971 6.394 42.347-1.278 55.68 1.2c1.883.35 4.127 1.748 6.24 1.44 1.882-.274 1.229-1.382 2.88-2.16.428 2.125.24 4.941.24 7.68 0 2.711.583 5.856-.721 7.44C62.47 8.043 57.526 1.788 47.76 2.88 37.346 4.045 32.079 18.805 39.6 27.12c6.229 6.887 20.87 10.115 26.4 18.96 7.628 12.202-2.853 26.601-15.12 27.12zm122.16-72c5.874 16.42 12.215 35.241 18.479 53.041 2.184 6.198 4.104 16.211 11.76 16.799-1.157 1.315-3.448.721-5.279.721-5.396 0-12.695.387-17.521-.479 1.91-1.154 4.807-.205 6.24-1.441 2.922-2.518-.844-10.364-1.92-13.438-1.847-5.272-3.146-9.282-4.32-12.96h-24c-1.333 3.361-2.396 7.462-4.08 12.479-1.835 5.465-5.797 15.123 2.88 15.361-4.403.955-11.517.481-16.319.239.636-1.293 2.573-1.065 3.84-1.92 4.249-2.866 5.968-10.506 7.92-16.319 5.652-16.838 11.559-35.613 17.04-51.361-.021-.34-.04-.68.239-.72 1.682-.002 3.361-.002 5.041-.002zM157.2 40.799c7.279-.158 15.199.32 22.079-.238-4.029-10.691-7.339-22.102-11.52-32.641-3.417 11.061-6.995 21.964-10.559 32.879zM0 1.92c7.274.31 15.735-.626 22.08.48-1.818.801-5.264 1.494-6.48 3.6-1.646 2.854-.96 10.144-.96 15.12v32.4c0 8.458-.86 14.434 4.32 16.561 1.125.461 2.715.459 3.12 1.439-6.88.561-14.8.081-22.08.24v-.961c4.243-.082 6.932-2.202 7.439-6.479.887-7.449 0-17.167 0-27.36 0-10.188.801-19.331 0-27.36C7.002 5.201 4.379 3.013 0 2.88v-.96zm74.64 69.601c.046-1.185 1.774-.69 2.64-.96 5.176-1.607 4.561-7.385 4.561-15.359V22.561c0-5.228.586-13.794-.96-16.56-1.491-2.667-4.052-2.819-6.24-3.6-.039-.279.053-.427.24-.48 17.514.268 33.902-1.502 45.84 3.84 11.097 4.966 19.775 14.453 20.88 28.8 1.329 17.251-6.9 28.191-18.479 33.84-11.849 5.779-31.141 2.68-48.482 3.12zm14.64-18.96c0 5.176-.649 11.833 1.44 14.398 3.412 4.189 20.056 2.93 25.92.721 9.272-3.491 15.783-14.396 16.561-24.961C135.143 16.312 116.962-1 89.28 5.52v47.041z"/><path fill="#211F1F" d="M227.521 23.28c2.572.308 6.384-.624 8.16.479-.8 1.601-4.503.297-6.479.72-.557 1.044-.083 3.117-.239 4.56v.24h4.8c.375 2.295-3.089.751-4.561 1.2-.558 1.204-.082 3.438-.239 5.04 1.842.558 4.718.082 6.96.24-.049.136.063.351 0 .48-.884 1.803-6.259.146-8.4.72-.002-4.559-.002-9.119-.002-13.679z"/><path fill="#0056A0" d="M294.961 24c-2.219-.698-.587 2.454-1.44 3.12-.009-1.374-.438-4.43 1.44-3.12z"/><path fill="#211F1F" d="M252.48 27.12h.721c1.107 2.332.169 6.711.479 9.84-.137-.048-.352.063-.479 0-2.005-.981 0-7.487-.721-9.84zm16.321 0c-.313 3.128.628 7.508-.48 9.84h-.72c.159-3.201-.318-7.039.24-9.84h.96z"/><path fill="#0056A0" d="M293.521 28.32c.56 2.161.081 5.359.24 7.92-.559-2.161-.081-5.359-.24-7.92zm-64.56.72c1.521.157 3.676-.316 4.8.24h-4.8v-.24zm31.68 16.8c.56 2.4.081 5.84.24 8.641-.56-2.402-.081-5.84-.24-8.641zm18.479 5.039c.559 2.082.081 5.199.239 7.682-.557-2.082-.08-5.2-.239-7.682zm-29.519.961c.559 1.762.081 4.559.24 6.721-.559-1.764-.082-4.559-.24-6.721zm-46.561 7.92c5.383-.768 4.817 8.082-.721 6.721-2.958-.729-3.455-6.125.721-6.721zm1.44.481c-5.71-1.576-4.144 8.844.721 5.039 1.884-1.474 1.153-4.524-.721-5.039z"/><path fill="#0056A0" d="M205.2 65.28c-1.31-.052-.915-1.805-2.16-1.92-.541.18-.095 1.346-.239 1.92-1.424-.177-.419-2.781-.721-4.08.979-.547 2.89-.248 3.12.721.08.881-.368 1.23-.96 1.439.354.607.848 1.073.96 1.92zm-2.399-2.401c.79-.008 1.698.1 1.68-.719-.033-.688-1.001-.438-1.68-.48v1.199z"/><path fill="#211F1F" d="M252.961.72v.96c-.402.424-.805-.213-1.682 0-.842.277-.734 1.504-.72 2.64.182.779 2.346-.426 2.16.72.321 1.281-1.406.514-2.16.72v8.64h-1.439V6c-.059-.742-1.976.375-1.681-.72-.349-1.148 1.004-.596 1.681-.72-.12-1.641.104-2.936.721-3.84.726-.265 2.43-.455 3.12 0z"/><path fill="#0056A0" d="M255.841 10.8c-.737-2.26 4.342-.776 6.239-1.2-1.603.558-4.238.082-6.239.24v.96z"/><path fill="#211F1F" d="M255.841 10.8c.528 1.625 1.151 2.546 2.64 2.64 1.663.105 2.575-2.034 3.601-1.2.251 1.337-1.365 2.233-2.159 2.4-2.646.555-5.717-1.196-5.761-5.04-.029-2.676 2.342-7.41 6.479-4.8 1.217.768 1.486 2.327 1.439 4.8-1.897.424-6.976-1.06-6.239 1.2zm4.8-2.88c.081-3.291-5.021-2.898-4.8.24-.403.686 5.565.963 4.8-.24z"/><path fill="#0056A0" d="M255.841 8.16c1.123.556 3.277.083 4.8.24v-.48c.765 1.203-5.203.926-4.8.24zM239.28 28.32c.869 2.251-.545 6.785.721 8.64 1.514-.086.358-2.841.721-4.08.157-1.443-.316-3.516.24-4.56-.629 2.44 1.172 8.618-.721 8.88-1.928.267-.54-7.227-.961-8.88zm8.16 0c-.149 2.89.308 6.386-.239 8.88-.35-.131-1.24.28-1.2-.24 2.666.458.285-7.024 1.439-8.64zm-19.919-5.04v13.68c2.143-.574 7.518 1.083 8.4-.72.063-.129-.049-.344 0-.48 1.679 2.47-6.893 1.275-8.642 1.2.161-4.481-.318-9.6.242-13.68z"/><path fill="#211F1F" d="M297.36 28.32h-2.398c.146 2.414-.302 5.421.239 7.44.397.402 1.408.191 2.159.24v1.2c-1.392-.127-3.506.467-3.6-.959-.159-2.561.318-5.759-.24-7.92-2.185.715-2.185-1.916 0-1.2.854-.667-.777-3.818 1.44-3.12-.25 2.09-.171 3.851 2.398 3.12.002.399.002.799.002 1.199z"/><path fill="#0056A0" d="M273.36 33.12c-.28-.039-.201-.438-.239-.72 1.54-1.18 6.811 1.37 6.479-1.68 1.467 3.309-5.189.568-6.24 2.16v.24z"/><path fill="#211F1F" d="M273.36 33.12c.371 1.81 1.125 2.778 2.642 2.88 1.748.117 2.521-2.008 3.6-1.2.571 1.354-2.223 3.056-4.8 2.4-3.051-.776-4.306-6.842-1.681-9.36 1.921-1.842 6.579-1.448 6.479 2.88.33 3.05-4.939.5-6.479 1.68.037.283-.042.682.239.72zm0-1.92h4.801c.71-4.218-5.357-3.785-4.801 0z"/><path fill="#0056A0" d="M282.721 27.12v9.84h1.2c-2.702 1.623-1.111-8.062-1.2-9.84zm5.519 1.92c.866 2.013-.544 6.303.721 7.92 1.61-.88.29-5.447.72-7.68-.011 1.966 1.173 7.691-.479 7.919-1.973.274-.522-5.972-.962-8.159z"/><path fill="#211F1F" d="M282.721 27.12c.835-.115 1.484-.045 1.2.96.71-.982 6.009-2.402 5.76 1.2-.43 2.233.893 6.8-.72 7.68-1.264-1.617.146-5.907-.721-7.92-.907-1.868-3.344-.354-4.319.48v7.44h-1.2v-9.84z"/><path fill="#0056A0" d="M252.48 27.12c.722 2.353-1.284 8.859.721 9.84.129.063.344-.048.479 0 .04.521-.852.109-1.2.24-.39-2.811-.406-7.272 0-10.08zm16.321 0c-.166 1.684 1.61 11.149-1.2 9.84h.72c1.108-2.332.169-6.711.48-9.84zm-41.28 18.72c.315 4.404-.634 10.074.479 13.681 1.298-.757.721-3.458.721-5.761 0-2.202-.315-7.172.479-6-.433 1.637-.239 3.99-.239 6.24 0 2.141.574 4.729-.721 5.76-1.721-.969-.961-4.238-.961-6.721.001-2.553-.185-5.353.242-7.199zm33.36 10.8c.098 1.385.246 4.079-1.44 2.881h1.2c.153-.888-.311-2.392.24-2.881z"/><path fill="#211F1F" d="M260.881 54.48c2.022-1.417 2.097-4.782 5.52-4.801-.698 1.382-1.894 2.267-2.64 3.601.779 2.42 2.269 4.131 3.12 6.479-3.184.144-2.782-3.297-4.08-5.039-.97.311-1.241 1.318-1.92 1.92-.551.488-.087 1.992-.24 2.881h-1.2c.315-4.404-.634-10.074.48-13.682h.72c.159 2.802-.32 6.24.24 8.641z"/><path fill="#0056A0" d="M279.12 49.68c-.043-1.408-.354-4.346 1.439-3.119h-1.2c-.153.965.314 2.551-.239 3.119z"/><path fill="#211F1F" d="M280.561 46.561v2.88c.248.792 2.523-.444 2.4.72.29 1.33-1.599.482-2.4.721v6.959c.006 1.115 1.855.386 2.4.961.313 1.798-3.112.875-3.602.48v-.721c-.158-2.48.318-5.6-.239-7.682-.545-.174-1.872.434-1.681-.479-.349-1.148 1.004-.597 1.681-.721.553-.567.086-2.153.239-3.119.402.001.801.001 1.202.001zm-30.72 12c-.132.35.28 1.24-.24 1.199-1.121.24-1.342-.418-1.2-1.439-2.087 2.377-6.153 1.719-6.239-1.199-.092-3.117 3.252-3.533 6.239-4.08-.007-1.756-.685-2.226-1.68-2.4-1.786-.313-2.869 2.203-4.08 1.199.276-2.951 6.851-3.439 6.96 0 .158 2.161-.319 4.956.24 6.72zm-1.441-1.682c-.24-.797.531-2.609-.479-2.639-1.737.742-4.134.825-4.32 3.119.937 2.125 3.915.815 4.799-.48zm4.321-7.199h.72c.912-.192.307 1.135.48 1.681.844-.917 1.521-1.999 3.358-1.92v.96c-3.114 1.045-3.779 4.539-3.358 9.12h-.721c-1.108-2.333-.168-6.712-.479-9.841z"/><path fill="#0056A0" d="M252.721 49.68c.313 3.129-.629 7.509.479 9.841h.721c-2.702 1.622-1.111-8.062-1.2-9.841z"/><path fill="#211F1F" d="M269.041 23.04v1.68h-1.44v-1.68h1.44zm-41.52 22.8h2.4c1.002 3.718 2.229 7.211 3.358 10.8 1.322-3.397 2.368-7.071 3.36-10.8h2.64c-.101 3.306.134 7.347 0 11.039-.03.879.593 2.717-.72 2.881-1.28-.061-.688-1.87-.72-2.641-.118-2.875.088-6.808 0-9.84-1.823 3.855-2.045 9.314-4.562 12.479-2.09-3.08-2.801-7.846-4.079-12-.796-1.172-.479 3.799-.479 6 0 2.304.577 5.005-.721 5.762-1.111-3.605-.162-9.275-.477-13.68zM235.2 4.08c-2.1.339-1.782-1.738-3.12-2.16-1.729-.096-3.833-.155-3.84 1.92-.012 3.345 10.925 2.93 7.199 9.12-2.026 3.369-9.519 1.54-8.88-2.16 1.955-.729 1.854 1.959 3.36 2.4 2.081.155 4.411.051 4.318-2.4-.123-3.31-7.186-2.901-7.68-6.24-.787-5.346 9.058-5.444 8.643-.48zm10.561 10.32c-.994.114-1.761.001-1.681-.96-1.109.978-3.599 1.73-5.279.72-2.39-3.758 1.567-6.302 5.279-6.24.104-1.643-.649-2.196-1.439-2.4-1.788-.46-2.805 1.805-4.08 1.2-.469-2.819 6.244-3.321 6.96-.479.128 2.67-.278 5.877.24 8.159zm-2.16-5.28c-1.843.623-4.901 1.088-3.84 3.84 1.462 1.159 3.313-.207 4.319-.96-.251-.869.545-2.784-.479-2.88zm21.599 8.16c.031-1.088.588-1.653.721-2.64-.942-.098-.73-1.35-.721-2.4h1.92c.018 2.337-.105 4.534-1.92 5.04zm-25.92 11.04c-.545-.175-1.871.432-1.68-.48-.349-1.148 1.003-.596 1.68-.72-.041-1.481.2-2.68.721-3.6.495-.475 2.396-.791 3.12-.24V24c.019 1.075-.89-.146-1.681.24-.623.417-.485 1.594-.479 2.64.181.779 2.346-.426 2.159.72.32 1.281-1.405.514-2.159.72-.558 1.044-.083 3.117-.24 4.56-.361 1.239.793 3.994-.721 4.08-1.265-1.855.149-6.389-.72-8.64zm6.72 8.64v-8.4c-.059-.742-1.976.375-1.681-.72-.349-1.148 1.005-.596 1.681-.72-.029-1.389-.076-2.797.479-3.6.425-.383 3.498-1.287 3.12.48.23.954-1.517-.313-1.92.48-.426.454-.175 1.585-.24 2.4.182.779 2.347-.426 2.16.72.321 1.281-1.406.514-2.16.72-1.153 1.616 1.228 9.098-1.439 8.64zm7.681-13.92v1.68h-1.439v-1.68h1.439zm10.32 6.72c-1.797.459-1.441-1.56-3.12-1.68-3.585-.258-4.115 7.504-.48 7.92 1.766.202 1.866-1.222 3.602-1.44.786 1.01-1.197 2.459-1.921 2.64-4.484 1.125-7.334-4.699-4.8-8.64 1.467-2.284 7.001-2.318 6.719 1.2zm12.239 25.199h-6.479c.071 2.369 1.055 3.574 2.88 3.602 1.73.023 2.257-1.919 3.36-1.2.586 1.37-2.201 3.075-4.801 2.399-5.868-1.523-2.323-13.373 3.359-9.84 1.183.734 1.592 2.295 1.681 5.039zm-6.479-1.199h5.04c.424-3.978-5.411-3.929-5.04 0zm21.359-2.16c-.414.904-5.482-2.912-5.04.721.238 1.963 5.566 1.566 5.761 4.319.25 3.575-6.44 4.563-7.44.961.408-1.183 5.725 3.097 6-.479.222-2.847-7.853-1.342-5.52-6.48 1.294-2.022 6.526-1.186 6.239.958z"/><path fill="none" stroke="#000" stroke-miterlimit="10" d="M215.761 0v72.241"/><path fill="none" d="M215.761 0v71.894"/></svg>