<svg xmlns="http://www.w3.org/2000/svg" role="img" viewBox="-4.84 -4.84 251.42 251.42"><title>ITAU BBA USA SECURITIES, INC. logo</title><path d="M75 122h1v16h-1zm0 16h1v1h-1zm0 19h1v20h-1zm0 20h1v1h-1z" fill="#0b3c92"/><path fill="#385f78" d="M130 173h1v1h-1z"/><path d="M182 184h1v1h-1zm-19 2h1v1h-1zm-83 16h1v1h-1z" fill="#f2f408"/><path fill="#14418e" d="M123 190h1v1h-1z"/><path fill="#ecef0c" d="M126 200h1v1h-1z"/><path fill="#65835d" d="M122 202h1v1h-1z"/><path fill="#f6f706" d="M182 202h1v1h-1z"/><path d="M20 123h1v76h-1zm0 76h1v1h-1z" fill="#bdca28"/><path d="M210 124h1v1h-1zm-45 68h1v1h-1z" fill="#bfcc26"/><path fill="#587964" d="M111 140h1v1h-1z"/><path fill="#587a64" d="M56 155h1v1h-1z"/><path fill="#224f84" d="M161 177h1v1h-1z"/><path fill="#87a048" d="M98 196h1v1h-1z"/><path fill="#d0da1c" d="M150 201h1v1h-1z"/><path d="M186 133h1v1h-1zm-48 8h1v1h-1zm5 3h1v1h-1zm3 3h1v1h-1zm-48 1h1v1h-1zm34 11h1v1h-1zm-6 1h1v1h-1zm-16 3h1v1h-1zm15 11h1v1h-1zm-7 2h1v1h-1zm-42 6h1v1h-1zm119 4h1v1h-1zm-68 2h1v1h-1zm35 0h1v1h-1zm-37 1h1v1h-1zm-67 5h1v1h-1zm2 3h1v1h-1zm1 1h1v1h-1z" fill="#0026a3"/><path d="M99 151h1v1h-1zm51 3h1v1h-1zm-45 2h1v1h-1zm95 26h1v1h-1zm-123 2h1v1h-1zm88 10h1v1h-1z" fill="#0025a3"/><path fill="#5d7c62" d="M122 152h1v1h-1z"/><path d="M38 120h1v1h-1zm35 83h1v1h-1z" fill="#17458b"/><path fill="#5a7865" d="M143 145h1v1h-1z"/><path fill="#738f54" d="M182 183h1v1h-1z"/><path fill="#0a3697" d="M128 188h1v1h-1z"/><path fill="#899f48" d="M125 190h1v1h-1z"/><path fill="#0e3b93" d="M58 193h1v1h-1z"/><path d="M102 200h1v1h-1zm90 2h1v1h-1z" fill="#17428e"/><path fill="#214a88" d="M66 201h1v1h-1z"/><path fill="#63815f" d="M125 201h1v1h-1z"/><path d="M22 121h15v1H22zm15 0h1v1h-1zm20 0h16v1H57zm16 0h1v1h-1zm125 0h12v1h-12zm12 0h1v1h-1zm-104 33h1v1h-1zm-48 36h1v1h-1zm3 6h1v1h-1zm62 5h1v1h-1z" fill="#f0f309"/><path d="M193 123h1v1h-1zm-2 3h1v1h-1zm-3 4h1v1h-1zm-68 8h5v1h-5zm5 0h1v1h-1zm-18 2h1v1h-1zm29 0h1v1h-1zm-32 1h1v1h-1zm77 2h1v31h-1zm-65 10h1v1h-1zm1 0h1v1h-1zm-6 1h1v1h-1zm16 0h1v1h-1zm-27 1h1v1h-1zm29 0h1v1h-1zm-26 2h1v1h-1zm24 3h1v1h-1zm-9 1h1v1h-1zm-5 1h1v1h-1zm13 12h1v1h-1zm55 0h1v2h-1zm-60 1h1v1h-1zm60 1h1v1h-1zm-65 1h1v1h-1zm-23 3h1v1h-1zm-17 1h1v1h-1zm108 3h1v1h-1zm1 1h1v1h-1zm12 0h1v1h-1zm-118 1h1v1h-1zm1 0h1v1h-1zm106 0h1v1h-1zm-130 2h1v1h-1zm37 0h1v1h-1zm-36 4h1v1h-1zm147 4h1v1h-1zm-36 2h1v1h-1zm-106 1h1v1h-1zm39 1h1v1h-1zm28 0h1v1h-1zm5 0h1v1h-1zm64 0h1v1h-1zm7 0h1v1h-1zm-9 1h1v1h-1zm-74 2h1v1h-1z" fill="#0027a2"/><path d="M191 125h1v1h-1zm-7 10h1v1h-1zm-75 4h1v1h-1zm-63 3h1v12h-1zm177 0h1v59h-1zm-125 8h1v1h-1zm-52 4h1v1h-1zm105 1h1v1h-1zm1 4h1v1h-1zm-41 4h1v1h-1zm12 12h1v1h-1zm9 0h1v3h-1zm0 3h1v1h-1zm28 3h1v1h-1zm40 0h1v1h-1zm-108 3h1v1h-1zm0 1h1v1h-1zm38 0h1v1h-1zm-75 1h1v1h-1zm33 2h1v12h-1zm-30 7h1v1h-1zm146 3h1v1h-1zm-116 2h1v1h-1zm135 1h1v1h-1z" fill="#00319b"/><path d="M207 129h1v1h-1zm-1 1h1v1h-1zm-64 13h1v1h-1zm-23 18h1v1h-1zm-63 28h1v1h-1z" fill="#002a9f"/><path fill="#3c6275" d="M117 203h1v1h-1z"/><path fill="#5e7e61" d="M114 203h1v1h-1z"/><path fill="#5e7f60" d="M187 133h1v1h-1z"/><path d="M198 136h1v1h-1zm-150 6h1v1h-1zm69 33h1v1h-1z" fill="#dfe513"/><path d="M118 138h1v1h-1zm1 0h1v1h-1zm8 0h1v1h-1zm60 0h9v1h-9zm9 0h1v1h-1zm-85 1h1v1h-1zm22 0h1v1h-1zm-57 1h1v1h-1zm32 0h1v1h-1zm32 2h1v1h-1zm5 4h1v1h-1zm-46 6h1v1h-1zm50 0h1v1h-1zm-31 1h1v1h-1zm4 0h1v1h-1zm-22 1h1v1h-1zm8 1h1v1h-1zm22 1h1v1h-1zm21 2h1v1h-1zm-26 2h1v1h-1zm3 0h1v1h-1zm-21 4h1v1h-1zm20 10h1v1h-1zm-7 1h1v1h-1zm-42 10h1v1h-1zm7 1h1v1h-1zm102 0h1v1h-1zm-72 2h1v1h-1zm-19 7h1v1h-1zm71 2h1v1h-1zm-67 2h1v1h-1zm105 0h1v1h-1zm-140 2h1v1h-1zm107 0h1v1h-1zm-105 1h1v1h-1zm38 0h1v1h-1zm20 0h1v1h-1zm49 0h1v1h-1zm20 0h1v1h-1zm-86 1h1v1h-1zm70 0h1v1h-1zm13 0h1v1h-1zm-77 1h1v1h-1zm1 0h1v1h-1z" fill="#0028a1"/><path fill="#285381" d="M75 155h1v1h-1z"/><path fill="#ccd71e" d="M134 180h1v1h-1z"/><path fill="#1f4989" d="M200 135h1v1h-1z"/><path fill="#63825e" d="M126 139h1v1h-1z"/><path fill="#234e85" d="M134 140h1v1h-1z"/><path d="M192 125h1v1h-1zm19 0h1v1h-1zm-24 6h1v1h-1zm-81 9h1v1h-1zm96 1h1v1h-1zm-105 5h1v1h-1zm29 8h1v1h-1zm-26 2h1v1h-1zm16 5h1v1h-1zm-19 10h1v1h-1zm-2 4h1v1h-1zm66 7h1v1h-1zm-106 2h1v1h-1zm139 2h1v1h-1zm-78 2h1v1h-1zm55 12h1v1h-1zm22 2h1v1h-1zm-7 2h1v1h-1z" fill="#002d9e"/><path fill="#90a643" d="M94 188h1v1h-1z"/><path fill="#7a9351" d="M104 142h1v1h-1z"/><path d="M100 144h1v1h-1zm11 20h1v1h-1z" fill="#c6d023"/><path fill="#123d92" d="M98 171h1v1h-1z"/><path d="M56 180h1v1h-1zm109 13h1v1h-1z" fill="#406673"/><path fill="#52726a" d="M177 202h1v1h-1z"/><path d="M39 123h1v76h-1zm10 32h5v1h-5zm5 0h1v1h-1zm23 0h7v1h-7zm7 0h1v1h-1zm77 23h1v1h-1zM39 199h1v1h-1z" fill="#1e4b87"/><path fill="#426872" d="M81 187h1v1h-1z"/><path d="M212 121h1v1h-1zM57 184h1v1h-1zm5 13h1v1h-1zm42 3h1v1h-1z" fill="#f8f904"/><path fill="#083895" d="M125 153h1v1h-1z"/><path fill="#295381" d="M122 161h1v1h-1z"/><path fill="#8da445" d="M94 180h1v1h-1z"/><path fill="#51716a" d="M197 186h1v1h-1z"/><path d="M131 140h1v1h-1zm-46 1h1v1h-1zm94 0h1v1h-1zm-81 31h1v1h-1z" fill="#b7c52b"/><path fill="#06329a" d="M97 172h1v1h-1z"/><path fill="#fbfb03" d="M133 172h1v1h-1z"/><path fill="#1f4c86" d="M39 200h1v1h-1z"/><path fill="#dee415" d="M72 202h1v1h-1z"/><path d="M55 121h1v1h-1zm139 1h1v1h-1zm-45 29h1v1h-1zm-17 31h1v1h-1z" fill="#002ba0"/><path fill="#204a88" d="M201 134h1v1h-1z"/><path fill="#b2c02f" d="M108 165h1v1h-1z"/><path d="M201 183h1v1h-1zm-89 2h1v1h-1z" fill="#e3e911"/><path fill="#9fb339" d="M132 185h1v1h-1z"/><path fill="#4c706b" d="M116 203h1v1h-1z"/><path d="M112 139h1v1h-1zm20 0h1v1h-1zm49 3h1v1h-1zm-33 8h1v1h-1zm-25 3h1v1h-1zm28 4h1v1h-1z" fill="#0026a2"/><path d="M74 141h1v1h-1zm-18 13h1v1h-1zm55 48h1v1h-1zm7 0h1v1h-1z" fill="#f7f805"/><path d="M47 155h1v1h-1zm155 23h1v1h-1zm-69 2h1v1h-1zm-13 10h2v1h-2zm2 0h1v1h-1z" fill="#013399"/><path fill="#1c438d" d="M55 155h1v1h-1z"/><path fill="#dbe216" d="M57 186h1v1h-1z"/><path d="M209 126h1v1h-1zm-109 43h1v1h-1z" fill="#103b93"/><path d="M124 152h1v1h-1zm5 9h1v1h-1zm61 41h1v1h-1z" fill="#a7b835"/><path fill="#1d4a88" d="M75 179h1v1h-1z"/><path fill="#e9ed0d" d="M134 195h1v1h-1z"/><path d="M137 201h1v1h-1zm83 0h1v1h-1zm-100 1h1v1h-1z" fill="#d0d91c"/><path d="M213 123h1v1h-1zm-79 16h1v1h-1zm69 1h1v1h-1zm-100 1h1v1h-1zm36 0h1v1h-1zm21 1h1v35h-1zm-41 34h1v1h-1zm41 1h1v1h-1zm2 10h1v1h-1zm27 0h1v1h-1zm-19 13h1v1h-1zm-151 1h1v1h-1zm186 0h1v1h-1zm-139 1h1v1h-1zm45 2h1v1h-1zm7 0h1v1h-1zm64 0h1v1h-1z" fill="#002d9d"/><path d="M181 181h1v1h-1zm-81 17h1v1h-1z" fill="#7f984d"/><path fill="#eaee0c" d="M123 191h1v1h-1z"/><path fill="#e8ed0e" d="M74 178h1v1h-1z"/><path fill="#bbc829" d="M94 182h1v1h-1z"/><path fill="#c6d222" d="M206 128h1v1h-1z"/><path fill="#5b7b63" d="M115 177h1v1h-1z"/><path fill="#bcc928" d="M162 182h1v1h-1z"/><path fill="#557866" d="M76 184h1v1h-1z"/><path fill="#0d3895" d="M213 122h1v1h-1z"/><path fill="#3f6574" d="M146 148h1v1h-1z"/><path fill="#718c56" d="M110 164h1v1h-1z"/><path fill="#496e6d" d="M151 164h1v1h-1z"/><path fill="#8ea643" d="M166 194h1v1h-1z"/><path fill="#89a146" d="M127 161h1v1h-1z"/><path d="M115 162h1v1h-1zm-5 41h1v1h-1z" fill="#0d3d92"/><path fill="#012f9b" d="M76 183h1v1h-1z"/><path d="M77 185h1v1h-1zm51 15h1v1h-1z" fill="#143f90"/><path fill="#2b567f" d="M95 192h1v1h-1z"/><path fill="#03329a" d="M87 201h1v1h-1z"/><path d="M74 121h1v1h-1zm75 34h1v1h-1zm34 30h1v1h-1zm-13 13h1v1h-1z" fill="#d4dd1a"/><path fill="#0f3a94" d="M208 127h1v1h-1z"/><path fill="#264d86" d="M132 197h1v1h-1z"/><path fill="#a9b934" d="M124 173h1v1h-1z"/><path fill="#80984d" d="M132 140h1v1h-1z"/><path fill="#355b7b" d="M142 144h1v1h-1z"/><path fill="#3b6177" d="M112 153h1v1h-1z"/><path fill="#5a7866" d="M105 166h1v1h-1z"/><path fill="#f6f806" d="M162 177h1v1h-1z"/><path fill="#68875a" d="M114 178h1v1h-1z"/><path fill="#e4e910" d="M180 179h1v1h-1z"/><path fill="#95aa40" d="M20 201h1v1h-1z"/><path d="M145 148h1v1h-1zm41 54h1v1h-1z" fill="#f8fa04"/><path fill="#c9d321" d="M128 153h1v1h-1z"/><path fill="#607d62" d="M121 174h1v1h-1z"/><path fill="#0023a5" d="M115 178h1v1h-1z"/><path fill="#6b8859" d="M205 196h1v1h-1z"/><path fill="#e8ec0e" d="M176 201h1v1h-1z"/><path fill="#053895" d="M214 120h1v1h-1z"/><path fill="#234f85" d="M106 141h1v1h-1z"/><path d="M96 174h1v1h-1zm88 29h1v1h-1z" fill="#375f78"/><path fill="#a1b23a" d="M186 187h1v1h-1z"/><path d="M83 188h1v1h-1zm-9 14h1v1h-1z" fill="#fdfe01"/><path fill="#abba34" d="M192 188h1v1h-1z"/><path fill="#6a8859" d="M125 139h1v1h-1z"/><path fill="#02309b" d="M98 147h1v1h-1z"/><path d="M133 179h1v1h-1zm17 23h1v1h-1zm-30 1h1v1h-1z" fill="#023498"/><path d="M56 181h1v1h-1zm22 22h1v1h-1z" fill="#3c6375"/><path fill="#597965" d="M61 197h1v1h-1z"/><path d="M182 181h1v1h-1zm-50 2h1v1h-1zm-15 6h1v1h-1z" fill="#0025a4"/><path fill="#a3b438" d="M190 188h1v1h-1z"/><g fill="#ff0"><path d="M21 122h16v78H21zm16 0h1v78h-1zm20 0h16v60H57zm16 0h1v79h-1zm123 0h15v1h-15zm15 0h1v1h-1zm-16 1h15v1h-15zm15 0h1v1h-1zm-15 1h14v1h-14zm14 0h1v1h-1zm-15 1h14v1h-14zm14 0h1v1h-1zm-15 1h14v1h-14zm14 0h1v1h-1zm-14 1h13v1h-13zm13 0h1v1h-1zm-14 1h13v1h-13zm13 0h1v1h-1zm-14 1h13v1h-13zm13 0h1v1h-1zm-13 1h12v1h-12zm12 0h1v1h-1zm-13 1h12v1h-12zm12 0h1v1h-1zm-13 1h12v1h-12zm12 0h1v1h-1zm-13 1h12v1h-12zm12 0h1v1h-1zm-12 1h11v1h-11zm11 0h1v1h-1zm-12 1h11v1h-11zm11 0h1v1h-1zm-12 1h11v1h-11zm11 0h1v1h-1zm-80 4h11v11h-11zm11 0h1v12h-1z"/><path d="M111 141h22v10h-22zm22 0h1v16h-1zm-84 1h36v11H49zm36 0h1v11h-1z"/><path d="M107 142h29v9h-29zm29 0h1v58h-1zm26 0h17v1h-17zm17 0h1v59h-1zm25 0h16v50h-16zm16 0h1v58h-1z"/><path d="M104 143h34v8h-34zm34 0h1v57h-1zm25 0h16v42h-16z"/><path d="M101 144h39v7h-39zm39 0h1v56h-1z"/><path d="M99 145h42v1H99zm42 0h1v55h-1z"/><path d="M100 146h43v3h-43zm43 0h1v54h-1zm1 1h1v53h-1z"/><path d="M100 149h45v1h-45zm45 0h1v51h-1z"/><path d="M142 150h4v50h-4zm4 0h1v50h-1z"/><path d="M101 151h45v1h-45zm0 1h11v1h-11zm11 0h1v1h-1zm15 0h20v1h-20zm20 0h1v48h-1zm-98 1h36v1H49zm36 0h1v1h-1zm17 0h6v1h-6zm6 0h1v1h-1zm21 0h18v1h-18zm-27 1h3v1h-3zm3 0h1v1h-1z"/><path d="M131 154h17v1h-17zm17 0h1v46h-1zm-46 1h1v1h-1zm1 0h1v1h-1zm29 0h16v1h-16z"/><path d="M134 156h15v15h-15zm15 0h1v44h-1z"/><path d="M133 157h16v1h-16zm-10 5h27v9h-27zm27 0h1v38h-1z"/><path d="M117 163h33v8h-33z"/><path d="M112 164h38v7h-38z"/><path d="M110 165h40v6h-40z"/><path d="M107 166h43v5h-43z"/><path d="M105 167h45v4h-45z"/><path d="M104 168h46v3h-46z"/><path d="M102 169h48v2h-48z"/><path d="M101 170h49v1h-49zm-1 1h50v1h-50zm-1 1h31v1H99zm31 0h1v1h-1zm5 0h15v25h-15zm-37 1h24v1H98zm24 0h1v1h-1zm-25 1h21v1H97zm21 0h1v1h-1zm-21 1h19v1H97zm19 0h1v1h-1zm-19 1h18v1H97zm18 0h1v1h-1zm-19 1h17v2H96zm17 0h1v1h-1zm0 1h1v1h-1zm-18 1h17v10H95zm17 0h1v1h-1zm68 1h1v21h-1zm23 0h17v12h-17zm-129 1h1v20h-1zm-17 1h17v1H57z"/><path d="M202 182h18v10h-18zm-144 1h16v6H58zm76 0h16v11h-16zm47 0h1v18h-1zm-106 1h1v18h-1z"/><path d="M201 184h19v8h-19zm-68 1h17v9h-17zm30 0h19v1h-19zm19 0h1v16h-1z"/><path d="M200 185h20v7h-20zm-124 1h1v16h-1zm56 0h18v8h-18zm32 0h19v2h-19zm19 0h1v15h-1z"/><path d="M199 186h21v6h-21zm-122 1h1v15h-1zm35 0h1v15h-1zm72 0h1v15h-1z"/><path d="M197 187h23v5h-23zm-119 1h3v13h-3zm3 0h1v13h-1zm3 0h1v13h-1zm1 0h1v12h-1zm28 0h1v14h-1zm17 0h20v6h-20zm34 0h23v1h-23zm23 0h1v13h-1z"/><path d="M195 188h25v4h-25zm-137 1h27v1H58zm37 0h19v1H95zm19 0h1v13h-1zm15 0h21v5h-21z"/><path d="M165 189h55v2h-55zm-106 1h26v2H59zm37 0h19v1H96zm19 0h1v12h-1zm12 0h23v4h-23z"/><path d="M96 191h22v1H96zm22 0h1v10h-1zm6 0h26v3h-26zm41 0h55v1h-55zm-106 1h26v1H59z"/><path d="M97 192h53v1H97zm69 0h54v1h-54zm-106 1h25v1H60zm37 0h53v1H97zm70 0h36v1h-36zm36 0h1v1h-1zm3 0h14v4h-14zm-146 1h25v1H60zm38 0h52v1H98zm69 0h35v1h-35zm35 0h1v1h-1zm-141 1h24v1H61zm37 0h34v1H98zm34 0h1v1h-1zm36 0h33v1h-33zm33 0h1v1h-1zm-139 1h23v1H62zm37 0h32v1H99zm32 0h1v1h-1zm38 0h31v1h-31zm31 0h1v1h-1zm-137 1h22v1H63zm37 0h30v1h-30zm30 0h1v1h-1zm5 0h15v1h-15zm35 0h29v1h-29zm29 0h1v1h-1zm7 0h14v1h-14zm-142 1h21v1H64zm37 0h28v1h-28zm28 0h1v1h-1zm8 0h13v2h-13zm34 0h27v1h-27zm27 0h1v1h-1zm9 0h13v2h-13zm-142 1h20v1H65zm38 0h24v1h-24zm24 0h1v1h-1zm45 0h24v1h-24zm24 0h1v1h-1zm-175 1h16v1H21zm16 0h1v1h-1zm30 0h18v1H67zm18 0h1v1h-1zm20 0h20v1h-20zm20 0h1v1h-1zm11 0h14v1h-14zm14 0h1v1h-1zm24 0h20v1h-20zm20 0h1v1h-1zm13 0h13v1h-13zm13 0h1v1h-1zm-151 1h15v1H69zm15 0h1v1h-1zm23 0h15v1h-15zm15 0h1v1h-1zm55 0h14v1h-14zm14 0h1v1h-1zm-116 1h3v1h-3zm3 0h1v1h-1zm34 0h5v1h-5zm5 0h1v1h-1zm67 0h1v1h-1z"/></g><path fill="#083995" d="M120 161h1v1h-1z"/><path fill="#bdc72a" d="M132 161h1v1h-1z"/><path fill="#587965" d="M127 173h1v1h-1z"/><path fill="#a7b935" d="M96 193h1v1h-1z"/><path d="M74 122h1v1h-1zm0 33h1v1h-1zm45 47h1v1h-1z" fill="#e5ea10"/><path d="M192 127h1v1h-1zm-42 34h1v1h-1zm-38 19h1v1h-1z" fill="#fbfc03"/><path fill="#486c6e" d="M128 139h1v1h-1z"/><path d="M161 141h1v1h-1zm-81 62h1v1h-1z" fill="#1a4889"/><path d="M86 143h1v9h-1zm0 9h1v1h-1z" fill="#9eb23a"/><path d="M148 151h1v1h-1zm-35 29h1v1h-1z" fill="#3b6276"/><path fill="#30577e" d="M109 164h1v1h-1z"/><path fill="#a0b339" d="M130 198h1v1h-1z"/><path fill="#3f6573" d="M112 203h1v1h-1z"/><path d="M129 140h1v1h-1zm-50 62h1v1h-1zm104 0h1v1h-1z" fill="#fdfd01"/><path fill="#bcc929" d="M96 175h1v1h-1z"/><path fill="#1a458b" d="M200 183h1v1h-1z"/><path d="M56 183h1v1h-1zm26 4h1v1h-1zm103 16h1v1h-1z" fill="#30597c"/><path fill="#123f90" d="M176 202h1v1h-1z"/><path d="M74 120h1v1h-1zm41 19h1v1h-1zm72 64h1v1h-1z" fill="#15448c"/><path d="M21 121h1v1h-1zm176 0h1v1h-1zm6 58h1v1h-1z" fill="#f1f309"/><path d="M191 127h1v1h-1zm-68 34h1v1h-1zm28 1h1v1h-1zm-18 20h1v1h-1z" fill="#365e79"/><path d="M144 146h1v1h-1zm19 42h1v1h-1z" fill="#6c8959"/><path fill="#2b5382" d="M104 201h1v1h-1z"/><path fill="#c6d123" d="M71 202h1v1h-1z"/><path d="M208 129h1v1h-1zm-21 1h1v1h-1zm20 0h1v1h-1zm-1 1h1v1h-1zm-1 1h1v1h-1zm-1 1h1v1h-1zm-1 1h1v1h-1zm-1 1h1v1h-1zm-3 3h1v1h-1zm-69 19h1v1h-1zm-32 12h1v1h-1zm-1 1h1v1h-1zm-19 14h1v1h-1zm125 13h1v1h-1zm-1 1h1v1h-1z" fill="#003499"/><path d="M187 134h1v1h-1zm1 54h1v1h-1zm-69 3h1v1h-1z" fill="#eaee0d"/><path d="M100 153h1v1h-1zm-14 2h1v1h-1z" fill="#13428e"/><path fill="#1a478a" d="M121 161h1v1h-1z"/><path fill="#0024a5" d="M130 186h1v1h-1z"/><path fill="#f9fb03" d="M164 189h1v1h-1z"/><path fill="#c6d122" d="M135 199h1v1h-1z"/><path fill="#355c7b" d="M69 202h1v1h-1z"/><path fill="#5a7965" d="M129 154h1v1h-1z"/><path fill="#91a445" d="M117 190h1v1h-1z"/><path fill="#e5eb10" d="M146 149h1v1h-1z"/><path d="M48 153h1v1h-1zm158 45h1v1h-1z" fill="#d8e017"/><path fill="#eaef0d" d="M95 190h1v1h-1z"/><path fill="#628060" d="M129 199h1v1h-1z"/><path fill="#4c6d6e" d="M172 200h1v1h-1z"/><path fill="#b8c72a" d="M209 125h1v1h-1z"/><path fill="#ced81e" d="M133 158h1v1h-1z"/><path fill="#dde314" d="M221 200h1v1h-1z"/><path d="M180 141h1v1h-1zm-86 38h1v1h-1zm19 24h1v1h-1z" fill="#507369"/><path d="M99 148h1v1h-1zm32 38h1v1h-1z" fill="#749054"/><path d="M120 152h1v1h-1zm61 28h1v1h-1z" fill="#426772"/><path fill="#204c87" d="M113 153h1v1h-1z"/><path fill="#dee514" d="M132 156h1v1h-1z"/><path fill="#67855c" d="M126 173h1v1h-1z"/><path fill="#c2ce24" d="M112 183h1v1h-1z"/><path fill="#dfe613" d="M184 186h1v1h-1z"/><path d="M48 154h1v1h-1zm34 48h1v1h-1zm27 0h1v1h-1z" fill="#ccd61f"/><path d="M128 173h1v1h-1zm-15 13h1v1h-1z" fill="#4b6f6c"/><path d="M134 179h1v1h-1zm59 9h1v1h-1z" fill="#cfd81d"/><path fill="#89a147" d="M129 188h1v1h-1z"/><path fill="#d6df19" d="M59 193h1v1h-1z"/><path fill="#9fb23a" d="M188 132h1v1h-1z"/><path d="M185 137h1v1h-1zM85 187h1v1h-1z" fill="#576"/><path fill="#91a742" d="M221 141h1v1h-1z"/><path fill="#8ba047" d="M140 143h1v1h-1z"/><path fill="#123f91" d="M109 154h1v1h-1z"/><path fill="#8ca246" d="M116 176h1v1h-1z"/><path fill="#01309c" d="M114 187h1v1h-1z"/><path fill="#b9c829" d="M212 122h1v1h-1z"/><path fill="#d6df18" d="M200 134h1v1h-1z"/><path fill="#f3f607" d="M55 154h1v1h-1z"/><path d="M21 120h1v1h-1zm176 0h1v1h-1zm15 0h1v1h-1z" fill="#18478a"/><path fill="#093796" d="M104 156h1v1h-1z"/><path fill="#c7d321" d="M77 186h1v1h-1z"/><path fill="#1a448c" d="M126 201h1v1h-1z"/><path d="M190 127h1v1h-1zm14 5h1v1h-1zm-4 4h1v1h-1zm-87 3h1v1h-1zm-26 3h1v12h-1zm57 3h1v1h-1zm-20 8h1v1h-1zm-37 1h1v1h-1zm27 8h1v1h-1zm38 2h1v36h-1zm-24 10h1v1h-1zm53 3h1v1h-1zm-88 2h1v1h-1zm-7 7h1v1h-1zm43 1h1v1h-1zm61 0h1v1h-1zm1 0h1v1h-1zm-98 2h1v1h-1zm70 1h1v1h-1zm0 1h1v1h-1zm39 6h1v1h-1zm-139 3h1v1h-1zm89 0h1v1h-1zm-69 3h1v1h-1zm1 0h1v1h-1zm93 0h1v1h-1zm-64 1h1v1h-1zm3 0h1v1h-1z" fill="#0029a1"/><path d="M203 141h1v1h-1zm-77 20h1v1h-1z" fill="#779252"/><path fill="#335c7b" d="M122 174h1v1h-1z"/><path d="M161 180h1v1h-1zm20 23h1v1h-1z" fill="#11418f"/><path fill="#001da9" d="M133 197h1v1h-1z"/><path d="M200 198h1v1h-1zm-136 2h1v1h-1z" fill="#0e3995"/><path fill="#94a941" d="M103 200h1v1h-1z"/><path fill="#275182" d="M193 124h1v1h-1z"/><path d="M109 141h1v1h-1zm-9 9h1v1h-1zm50 9h1v1h-1zm-16 19h1v1h-1z" fill="#d6de19"/><path d="M99 149h1v1h-1zm-43 7h1v1h-1z" fill="#3d6474"/><path fill="#537567" d="M118 152h1v1h-1z"/><path fill="#0c3c92" d="M133 181h1v1h-1z"/><path fill="#013299" d="M93 183h1v1h-1z"/><path fill="#093895" d="M106 202h1v1h-1z"/><path fill="#1c468b" d="M202 133h1v1h-1z"/><path fill="#edf10b" d="M115 140h1v1h-1z"/><path fill="#234c86" d="M167 196h1v1h-1z"/><path fill="#ced91d" d="M99 171h1v1h-1z"/><path fill="#113b94" d="M117 176h1v1h-1z"/><path d="M215 121h1v1h-1zm-22 1h1v1h-1zm-79 16h1v1h-1zm31 7h1v1h-1zm-17 10h1v1h-1zm3 3h1v1h-1zm-30 9h1v1h-1zm12 15h1v1h-1zm83 3h1v1h-1zm-67 1h1v1h-1zm64 0h1v1h-1zm-67 2h1v1h-1zm-6 1h2v1h-2zm2 0h1v1h-1zM21 202h17v1H21zm17 0h1v1h-1zm30 1h1v1h-1zm69 0h13v1h-13zm13 0h1v1h-1zm58 0h13v1h-13zm13 0h1v1h-1zm-112 1h1v1h-1zm11 0h1v1h-1z" fill="#00319a"/><path d="M114 140h1v1h-1zm75 62h1v1h-1z" fill="#ced71e"/><path fill="#eff30a" d="M73 202h1v1h-1z"/><path fill="#466b6f" d="M117 139h1v1h-1z"/><path fill="#224d86" d="M139 142h1v1h-1z"/><path fill="#3f6673" d="M150 156h1v1h-1z"/><path fill="#fcfc02" d="M131 172h1v1h-1z"/><path fill="#31597d" d="M183 184h1v1h-1z"/><path fill="#20478a" d="M198 185h1v1h-1z"/><path fill="#12418e" d="M20 120h1v1h-1z"/><path fill="#d2db1b" d="M104 155h1v1h-1z"/><path d="M83 187h1v1h-1zm-9 16h1v1h-1z" fill="#2f587d"/><path fill="#396177" d="M57 189h1v1h-1z"/><path fill="#0e3d91" d="M119 203h1v1h-1z"/><path fill="#eff20a" d="M139 143h1v1h-1z"/><path fill="#2c567e" d="M131 173h1v1h-1z"/><path d="M75 180h1v1h-1zm87 5h1v1h-1z" fill="#355d79"/><path fill="#3d6276" d="M63 199h1v1h-1z"/><path d="M21 119h16v1H21zm16 0h1v1h-1zm20 0h16v1H57zm16 0h1v1h-1zm124 0h15v1h-15zm15 0h1v1h-1zm-75 21h1v1h-1zm15 20h1v1h-1zm8 19h1v1h-1zm-47 4h1v1h-1zm-58 2h1v1h-1zm71 17h1v1h-1z" fill="#002e9c"/><path d="M162 143h1v33h-1zm0 33h1v1h-1zm-84 11h1v1h-1z" fill="#f7f905"/><path fill="#12408f" d="M119 190h1v1h-1z"/><path fill="#235083" d="M98 146h1v1h-1z"/><path fill="#839c4a" d="M100 151h1v1h-1z"/><path d="M127 153h1v1h-1zm-14 10h1v1h-1z" fill="#69865b"/><path fill="#829b4b" d="M133 160h1v1h-1z"/><path fill="#8ba245" d="M180 176h1v1h-1z"/><path fill="#063896" d="M161 181h1v1h-1z"/><path d="M93 185h1v1h-1zm129 16h1v1h-1z" fill="#043697"/><path fill="#d3dc1a" d="M94 185h1v1h-1z"/><path fill="#d7e017" d="M201 196h1v1h-1z"/><path fill="#1c478a" d="M186 134h1v1h-1z"/><path d="M187 137h9v1h-9zm9 0h1v1h-1z" fill="#61805f"/><path d="M121 139h1v1h-1zm29 18h1v1h-1zm-20 30h1v1h-1zm4 10h1v1h-1z" fill="#6d8a58"/><path d="M103 143h1v1h-1zm47 17h1v1h-1zm-84 40h1v1h-1z" fill="#f2f508"/><g fill="#039"><path d="M31 0h1v1h-1zm1 0h1v1h-1zm1 0h1v1h-1zm1 0h1v1h-1zm1 0h1v1h-1zm1 0h1v1h-1zm1 0h1v1h-1zm1 0h1v1h-1zm1 0h163v1H39zm163 0h1v1h-1zm1 0h1v1h-1zm1 0h1v1h-1zm1 0h1v1h-1zm1 0h1v1h-1zm1 0h1v1h-1zm1 0h1v1h-1zm1 0h1v1h-1zm1 0h1v1h-1zM27 1h1v1h-1zm1 0h1v1h-1zm1 0h1v1h-1zm1 0h1v1h-1zm1 0h1v1h-1zm1 0h1v1h-1zm1 0h176v117H33zm176 0h1v117h-1zm1 0h1v1h-1zm1 0h1v1h-1zm1 0h1v1h-1zm1 0h1v1h-1zm1 0h1v1h-1zM25 2h1v1h-1zm1 0h1v1h-1zm1 0h1v1h-1zm1 0h1v1h-1z"/><path d="M29 2h183v116H29zm183 0h1v116h-1zm1 0h1v1h-1zm1 0h1v1h-1zm1 0h1v1h-1zm1 0h1v1h-1zM23 3h1v1h-1zm1 0h1v1h-1zm1 0h1v1h-1z"/><path d="M26 3h190v115H26zm190 0h1v136h-1zm1 0h1v1h-1zm1 0h1v1h-1zm1 0h1v1h-1zM21 4h1v1h-1zm1 0h1v1h-1z"/><path d="M23 4h195v114H23zm195 0h1v135h-1zm1 0h1v1h-1zm1 0h1v1h-1zM19 5h1v1h-1zm1 0h1v1h-1z"/><path d="M21 5h199v113H21zm199 0h1v134h-1zm1 0h1v1h-1zm1 0h1v1h-1zM17 6h1v1h-1zm1 0h1v1h-1zm1 0h1v1h-1z"/><path d="M20 6h201v112H20zm201 0h1v133h-1zm1 0h1v1h-1zm1 0h1v1h-1zm1 0h1v1h-1zM16 7h1v1h-1zm1 0h1v1h-1z"/><path d="M18 7h205v111H18zm205 0h1v133h-1zm1 0h1v1h-1zm1 0h1v1h-1zM15 8h1v1h-1zm1 0h1v1h-1z"/><path d="M17 8h207v110H17zm207 0h1v225h-1zm1 0h1v1h-1zm1 0h1v1h-1zM14 9h1v1h-1z"/><path d="M15 9h211v109H15zm211 0h1v223h-1zm1 0h1v1h-1zm1 0h1v1h-1zM12 10h1v1h-1zm1 0h1v1h-1z"/><path d="M14 10h213v108H14zm213 0h1v221h-1zm1 0h1v1h-1zm1 0h1v1h-1zM11 11h1v1h-1zm1 0h1v1h-1z"/><path d="M13 11h215v107H13zm215 0h1v219h-1zm1 0h1v1h-1zm1 0h1v1h-1zM10 12h1v1h-1zm1 0h1v1h-1z"/><path d="M12 12h217v106H12zm217 0h1v217h-1zm1 0h1v1h-1zm1 0h1v1h-1zM10 13h1v1h-1z"/><path d="M11 13h219v105H11zm219 0h1v215h-1zm1 0h1v1h-1zm1 0h1v1h-1zM9 14h1v1H9z"/><path d="M10 14h221v104H10zm221 0h1v213h-1zm1 0h1v1h-1zm1 0h1v1h-1zM8 15h1v1H8z"/><path d="M9 15h223v103H9zm223 0h1v211h-1zm1 0h1v1h-1zM7 16h1v1H7zm1 0h1v1H8zm225 0h1v1h-1zm1 0h1v1h-1zM6 17h1v1H6zm1 0h1v1H7z"/><path d="M8 17h225v101H8zm225 0h1v208h-1zm1 0h1v1h-1zm1 0h1v1h-1zM6 18h1v1H6z"/><path d="M7 18h227v100H7zm227 0h1v205h-1zm1 0h1v1h-1zM5 19h1v1H5zm1 0h1v1H6zm229 0h1v203h-1zm1 0h1v1h-1zM5 20h1v1H5z"/><path d="M6 20h229v98H6zm230 0h1v1h-1zm1 0h1v1h-1zM4 21h1v1H4zm1 0h1v1H5zm231 0h1v199h-1zm1 0h1v1h-1zM4 22h1v1H4z"/><path d="M5 22h231v96H5zm232 0h1v1h-1zm1 0h1v1h-1zM3 23h1v1H3zm1 0h1v1H4zm233 0h1v195h-1zm1 0h1v1h-1zM3 24h1v1H3z"/><path d="M4 24h233v94H4zm234 0h1v1h-1zm1 0h1v1h-1zM2 25h1v1H2zm1 0h1v1H3zm235 0h1v191h-1zm1 0h1v1h-1zM2 26h1v1H2z"/><path d="M3 26h235v92H3zm236 0h1v1h-1zM1 27h1v1H1zm1 0h1v1H2zm237 0h1v1h-1zm1 0h1v1h-1zM1 28h1v1H1zm1 0h1v1H2zm237 0h1v185h-1zm1 0h1v1h-1zM1 29h1v1H1z"/><path d="M2 29h237v89H2zm238 0h1v1h-1zM1 30h1v1H1zm239 0h1v1h-1zm1 0h1v1h-1zM0 31h1v1H0zm1 0h1v1H1zm239 0h1v1h-1zm1 0h1v1h-1zM0 32h1v1H0zm1 0h1v1H1zm239 0h1v178h-1zm1 0h1v1h-1zM0 33h1v1H0z"/><path d="M1 33h239v85H1zm240 0h1v1h-1zM0 34h1v1H0zm241 0h1v1h-1zM0 35h1v1H0zm241 0h1v1h-1zM0 36h1v1H0zm241 0h1v1h-1zM0 37h1v1H0zm241 0h1v1h-1zM0 38h1v1H0zm241 0h1v1h-1zM0 39h1v1H0zm241 0h1v163h-1zM0 40h1v161H0zm1 78h239v1H1zm0 1h18v1H1zm18 0h1v1h-1zm21 0h15v1H40zm15 0h1v1h-1zm20 0h120v1H75zm120 0h1v1h-1zm20 0h25v1h-25zM1 120h17v89H1zm17 0h1v1h-1zm22 0h14v1H40zm14 0h1v19h-1zm22 0h118v1H76zm118 0h1v1h-1zm23 0h23v19h-23zm-176 1h13v18H41zm36 0h116v2H77zm116 0h1v1h-1z"/><path d="M215 122h25v17h-25zm-138 1h115v1H77zm115 0h1v1h-1z"/><path d="M214 123h26v16h-26zm-137 1h114v2H77zm114 0h1v1h-1z"/><path d="M213 124h27v15h-27z"/><path d="M212 125h28v14h-28zm-135 1h113v1H77zm113 0h1v1h-1z"/><path d="M211 126h29v13h-29zm-134 1h112v2H77zm112 0h1v1h-1z"/><path d="M210 127h30v12h-30z"/><path d="M209 128h31v11h-31zm-132 1h111v1H77zm111 0h1v1h-1zm-111 1h109v3H77zm109 0h1v1h-1z"/><path d="M208 130h32v9h-32zm-22 1h1v1h-1z"/><path d="M207 131h33v8h-33z"/><path d="M206 132h34v7h-34zm-129 1h108v1H77zm108 0h1v1h-1z"/><path d="M205 133h35v6h-35zm-128 1h107v2H77zm107 0h1v1h-1z"/><path d="M204 134h36v5h-36z"/><path d="M203 135h37v4h-37zm-126 1h106v1H77zm106 0h1v45h-1z"/><path d="M201 136h39v3h-39zm-124 1h105v1H77zm105 0h1v41h-1z"/><path d="M200 137h40v2h-40zm-123 1h36v1H77zm36 0h1v1h-1zm19 0h52v1h-52zm52 0h1v45h-1zm-143 1h13v1H41zm13 0h1v1h-1zm23 0h31v1H77zm31 0h1v1h-1zm6 0h1v1h-1z"/><path d="M135 139h105v1H135zm-94 1h6v1h-6zm6 0h1v1h-1zm40 0h17v1H87zm17 0h1v1h-1zm34 0h22v1h-22zm22 0h1v1h-1zm21 0h21v1h-21zm21 0h1v1h-1zm20 0h18v1h-18zm-181 1h4v99h-4zm4 0h1v99h-1zm43 0h13v1H88zm13 0h1v1h-1zm39 0h19v1h-19zm19 0h1v99h-1zm26 0h16v39h-16zm16 0h1v35h-1zm24 0h15v72h-15zm-137 1h11v1H88zm11 0h1v1h-1zm43 0h17v1h-17zm-54 1h9v28h-9zm9 0h1v1h-1zm46 0h16v1h-16zm2 1h14v1h-14zm1 1h13v1h-13zm1 1h12v1h-12zm0 1h12v1h-12zm-50 1h1v21h-1zm51 0h11v1h-11zm1 1h10v1h-10zm0 1h10v1h-10zm-51 1h1v17h-1zm52 0h9v1h-9zm0 1h9v1h-9zm1 1h8v1h-8zm-52 1h1v14h-1zm17 0h8v5h-8zm8 0h1v5h-1zm27 0h8v1h-8zm-105 1h1v85h-1z"/><path d="M111 155h16v4h-16zm16 0h1v4h-1zm25 0h7v3h-7zm-105 1h1v84h-1zm40 0h12v12H87z"/><path d="M108 156h21v3h-21zm21 0h1v3h-1zm-81 1h6v83h-6zm6 0h1v83h-1zm23 0h23v11H77zm23 0h1v10h-1z"/><path d="M105 157h24v2h-24z"/><path d="M103 158h27v1h-27zm27 0h1v1h-1zm22 0h7v1h-7zm-51 1h30v1h-30zm30 0h1v1h-1zm22 0h6v81h-6zm-52 1h18v1h-18zm18 0h1v1h-1zm-18 1h13v1h-13zm13 0h1v1h-1zm-13 1h9v1h-9zm9 0h1v1h-1zm-9 1h6v1h-6zm6 0h1v1h-1zm-6 1h4v1h-4zm4 0h1v1h-1zm-4 1h2v1h-2zm2 0h1v1h-1zm-2 1h1v1h-1zm1 0h1v1h-1zm-2 1h1v1h-1zm-23 1h22v1H77zm22 0h1v1h-1zm-22 1h20v2H77zm20 0h1v1h-1zm-20 2h19v2H77zm19 0h1v1h-1zm-19 2h18v1H77zm18 0h1v1h-1zm-18 1h17v3H77zm17 0h1v1h-1zm30 1h7v9h-7zm7 0h1v8h-1z"/><path d="M120 176h11v8h-11zm81 0h1v1h-1zm-124 1h16v5H77zm16 0h1v1h-1z"/><path d="M118 177h13v7h-13z"/><path d="M117 178h14v6h-14zm65 0h18v1h-18z"/><path d="M116 179h15v5h-15z"/><path d="M115 180h16v4h-16zm70 0h15v2h-15zm15 0h1v1h-1z"/><path d="M183 181h16v1h-16zm-106 1h15v1H77zm15 0h1v1h-1zm93 0h14v1h-14zm14 0h1v1h-1zm-121 1h13v1H78zm13 0h1v57h-1zm40 0h1v1h-1zm29 0h1v57h-1zm24 0h14v1h-14zm14 0h1v1h-1zm-119 1h12v1H79zm36 0h15v1h-15zm15 0h1v1h-1zm55 0h12v1h-12zm12 0h1v1h-1zm-118 1h12v1H79zm36 0h14v1h-14zm14 0h1v1h-1zm57 0h9v1h-9zm9 0h1v1h-1zm-108 1h4v1h-4zm28 0h13v1h-13zm13 0h1v1h-1zm62 0h2v1h-2zm2 0h1v1h-1zm-137 1h1v53h-1z"/><path d="M89 187h3v53h-3zm3 0h1v53h-1zm24 0h11v1h-11zm11 0h1v1h-1zm-10 1h8v1h-8zm8 0h1v1h-1zm36 0h1v52h-1zm1 2h1v50h-1zm-106 1h1v49h-1zm37 0h1v49h-1zm70 2h1v47h-1zm-106 1h1v46h-1zm37 0h1v46h-1zm70 0h1v46h-1zm-69 1h1v45h-1zm-37 1h1v44h-1zm107 0h1v44h-1zm-106 1h1v43h-1zm37 0h1v43h-1zm70 0h1v43h-1zm-106 1h1v42h-1zm37 0h1v42h-1zm70 0h1v42h-1zm36 0h1v42h-1zm-142 1h1v41h-1zm37 0h1v41h-1zm34 0h1v41h-1zm36 0h1v41h-1z"/><path d="M201 199h3v41h-3zm3 0h1v41h-1zm-142 1h1v40h-1zm37 0h1v40h-1zm1 0h1v40h-1zm31 0h2v40h-2zm2 0h1v40h-1zm36 0h1v40h-1z"/><path d="M200 200h4v40h-4zM0 201h1v1H0zm63 0h1v39h-1zm38 0h1v39h-1zm28 0h4v39h-4zm41 0h1v39h-1z"/><path d="M198 201h6v39h-6zM0 202h1v1H0zm18 0h1v32h-1zm1 0h1v33h-1zm20 0h26v38H39zm26 0h1v38h-1zm23 0h15v38H88zm15 0h1v38h-1zm24 0h7v38h-7zm7 0h2v38h-2zm2 0h1v38h-1zm15 0h21v38h-21zm21 0h1v38h-1z"/><path d="M196 202h9v38h-9zm9 0h2v38h-2zm2 0h1v38h-1zm15 0h18v11h-18zm19 0h1v1h-1zM0 203h1v1H0zm66 0h1v37h-1zm1 0h1v37h-1zm15 0h1v37h-1zm4 0h19v37H86zm19 0h1v37h-1zm20 0h10v37h-10zm48 0h1v37h-1zm1 0h1v37h-1zm15 0h1v37h-1z"/><path d="M194 203h12v37h-12zm47 0h1v1h-1zM0 204h1v1H0zm20 0h50v31H20zm50 0h1v36h-1zm13 0h25v36H83zm25 0h1v36h-1zm13 0h57v36h-57zm57 0h1v36h-1z"/><path d="M190 204h50v9h-50zm51 0h1v1h-1zM0 205h1v1H0z"/><path d="M71 205h169v8H71zm170 0h1v1h-1zM0 206h1v1H0zm241 0h1v1h-1zM0 207h1v1H0zm241 0h1v1h-1zM0 208h1v1H0zm241 0h1v1h-1zM0 209h1v1H0z"/><path d="M1 209h239v1H1zm240 0h1v1h-1zM0 210h1v1H0zm1 0h1v1H1zm1 0h238v3H2zm238 0h1v1h-1zm1 0h1v1h-1zM0 211h1v1H0zm1 0h1v1H1zm239 0h1v1h-1zm1 0h1v1h-1zM1 212h1v1H1zm239 0h1v1h-1zM1 213h1v1H1zm1 0h237v1H2zm237 0h1v1h-1zm1 0h1v1h-1zM1 214h1v1H1zm1 0h1v1H2zm1 0h235v2H3zm236 0h1v1h-1zm1 0h1v1h-1zM2 215h1v1H2zm237 0h1v1h-1zm1 0h1v1h-1zM2 216h1v1H2zm1 0h235v1H3zm235 0h1v1h-1zm1 0h1v1h-1zM2 217h1v1H2zm1 0h1v1H3zm1 0h233v1H4zm234 0h1v1h-1zm1 0h1v1h-1zM3 218h1v1H3zm1 0h233v1H4zm233 0h1v1h-1zm1 0h1v1h-1zM3 219h1v1H3zm1 0h1v1H4zm1 0h231v1H5zm232 0h1v1h-1zm1 0h1v1h-1zM4 220h1v1H4zm1 0h231v1H5zm231 0h1v1h-1zm1 0h1v1h-1zM4 221h1v1H4zm1 0h1v1H5zm1 0h229v1H6zm230 0h1v1h-1zm1 0h1v1h-1zM5 222h1v1H5zm1 0h229v1H6zm229 0h1v1h-1zm1 0h1v1h-1zM6 223h1v1H6zm1 0h227v1H7zm227 0h1v1h-1zm1 0h1v1h-1zm1 0h1v1h-1zM6 224h1v1H6zm1 0h1v1H7zm1 0h225v1H8zm226 0h1v1h-1zm1 0h1v1h-1zM7 225h1v1H7zm1 0h1v1H8zm1 0h224v1H9zm224 0h1v1h-1zm1 0h1v1h-1zM8 226h1v1H8zm1 0h223v1H9zm223 0h1v1h-1zm1 0h1v1h-1zM8 227h1v1H8zm1 0h1v1H9zm1 0h221v1H10zm221 0h1v1h-1zm1 0h1v1h-1zm1 0h1v1h-1zM9 228h1v1H9zm1 0h1v1h-1zm1 0h219v1H11zm219 0h1v1h-1zm1 0h1v1h-1zm1 0h1v1h-1zm-222 1h1v1h-1zm1 0h1v1h-1zm1 0h217v1H12zm217 0h1v1h-1zm1 0h1v1h-1zm1 0h1v1h-1zm-220 1h1v1h-1zm1 0h1v1h-1zm1 0h215v1H13zm215 0h1v1h-1zm1 0h1v1h-1zm1 0h1v1h-1zm-218 1h1v1h-1zm1 0h1v1h-1zm1 0h213v1H14zm213 0h1v1h-1zm1 0h1v1h-1zm1 0h1v1h-1zm-216 1h1v1h-1zm1 0h1v1h-1zm1 0h211v1H15zm211 0h1v1h-1zm1 0h1v1h-1zm1 0h1v1h-1zm-214 1h1v1h-1zm1 0h1v1h-1zm1 0h209v1H16zm209 0h1v1h-1zm1 0h1v1h-1zm1 0h1v1h-1zm-211 1h1v1h-1zm1 0h1v1h-1zm1 0h205v1H18zm205 0h1v1h-1zm1 0h1v1h-1zm1 0h1v1h-1zm-208 1h1v1h-1zm1 0h1v1h-1zm1 0h203v1H19zm203 0h1v1h-1zm1 0h1v1h-1zm1 0h1v1h-1zm-205 1h1v1h-1zm1 0h1v1h-1zm1 0h199v1H21zm199 0h1v1h-1zm1 0h1v1h-1zm1 0h1v1h-1zm1 0h1v1h-1zm-203 1h1v1h-1zm1 0h1v1h-1zm1 0h1v1h-1zm1 0h195v1H23zm195 0h1v1h-1zm1 0h1v1h-1zm1 0h1v1h-1zm1 0h1v1h-1zm-199 1h1v1h-1zm1 0h1v1h-1zm1 0h1v1h-1zm1 0h191v1H25zm191 0h1v1h-1zm1 0h1v1h-1zm1 0h1v1h-1zm1 0h1v1h-1zm-195 1h1v1h-1zm1 0h1v1h-1zm1 0h1v1h-1zm1 0h1v1h-1zm1 0h185v1H28zm185 0h1v1h-1zm1 0h1v1h-1zm1 0h1v1h-1zm1 0h1v1h-1zm1 0h1v1h-1zm-190 1h1v1h-1zm1 0h1v1h-1zm1 0h1v1h-1zm1 0h1v1h-1zm1 0h179v1H31zm179 0h1v1h-1zm1 0h1v1h-1zm1 0h1v1h-1zm1 0h1v1h-1zm1 0h1v1h-1zm-184 1h1v1h-1zm1 0h1v1h-1zm1 0h1v1h-1zm1 0h1v1h-1zm1 0h1v1h-1zm1 0h1v1h-1zm1 0h1v1h-1zm1 0h1v1h-1zm1 0h165v1H38zm165 0h1v1h-1zm1 0h1v1h-1zm1 0h1v1h-1zm1 0h1v1h-1zm1 0h1v1h-1zm1 0h1v1h-1zm1 0h1v1h-1zm1 0h1v1h-1zm1 0h1v1h-1z"/></g><path fill="#8fa643" d="M190 129h1v1h-1z"/><path fill="#17458c" d="M137 141h1v1h-1z"/><path d="M134 173h1v1h-1zm46 29h1v1h-1z" fill="#dce315"/><path fill="#8fa543" d="M133 183h1v1h-1z"/><path fill="#456971" d="M118 190h1v1h-1z"/><path fill="#759053" d="M127 200h1v1h-1z"/><path fill="#0c3c93" d="M81 203h1v1h-1z"/><path d="M189 131h1v1h-1zm-66 42h1v1h-1z" fill="#d9e017"/><path d="M142 145h1v1h-1zm-21 17h1v1h-1zm-2 12h1v1h-1zm43 5h1v1h-1z" fill="#f1f408"/><path fill="#7a9550" d="M123 152h1v1h-1z"/><path fill="#97ac3e" d="M86 154h1v1h-1z"/><path fill="#f6f805" d="M63 198h1v1h-1z"/><path fill="#a6b736" d="M171 199h1v1h-1z"/><path fill="#a6b637" d="M108 141h1v1h-1z"/><path d="M221 142h1v1h-1zM74 156h1v1h-1zm0 21h1v1h-1zm12 23h1v1h-1z" fill="#e0e612"/><path fill="#d4dc1a" d="M134 174h1v1h-1z"/><path fill="#1c488a" d="M132 184h1v1h-1z"/><path fill="#bdca27" d="M199 185h1v1h-1z"/><path fill="#3d6177" d="M185 186h1v1h-1z"/><path fill="#426773" d="M124 190h1v1h-1z"/><path fill="#113e91" d="M195 201h1v1h-1z"/><path fill="#0c3995" d="M211 124h1v1h-1z"/><path fill="#d1db1b" d="M201 133h1v1h-1z"/><path fill="#b5c22e" d="M55 141h1v1h-1z"/><path fill="#476c6e" d="M121 152h1v1h-1z"/><path fill="#033399" d="M126 189h1v1h-1z"/><path d="M195 122h1v1h-1zm10 19h14v1h-14zm14 0h1v1h-1zm-16 2h1v32h-1zm0 32h1v1h-1z" fill="#aebe31"/><path d="M161 143h1v33h-1zm0 33h1v1h-1z" fill="#245083"/><path d="M99 146h1v1h-1zm48 5h1v1h-1zm-25 11h1v1h-1zm-6 1h1v1h-1zm-7 2h1v1h-1zm23 7h1v1h-1zm-18 5h1v1h-1zm80 11h1v1h-1zm-98 4h1v1h-1z" fill="#fafb03"/><path d="M162 181h1v1h-1zm-86 4h1v1h-1z" fill="#d8df18"/><path fill="#d1da1c" d="M64 199h1v1h-1z"/><path fill="#476971" d="M107 202h1v1h-1z"/><path d="M113 187h1v1h-1zm87 10h1v1h-1z" fill="#cdd71e"/><path fill="#1f4889" d="M202 196h1v1h-1z"/><path fill="#d5dd1a" d="M173 200h1v1h-1z"/><path fill="#6b865a" d="M196 200h1v1h-1z"/><path fill="#5d7e61" d="M125 161h1v1h-1z"/><path d="M112 184h1v1h-1zm16 5h1v1h-1zm76 4h1v1h-1z" fill="#cbd61f"/><path fill="#053696" d="M87 187h1v1h-1z"/><path fill="#d9e117" d="M197 199h1v1h-1z"/><path d="M38 122h1v1h-1zm110 31h1v1h-1z" fill="#f8f905"/><path d="M133 173h1v1h-1zm-54 30h1v1h-1z" fill="#2e587d"/><path d="M94 181h1v1h-1zm109 13h1v1h-1z" fill="#a8ba34"/><path fill="#3e6474" d="M84 187h1v1h-1z"/><path fill="#587766" d="M101 199h1v1h-1z"/><path fill="#7d964f" d="M67 201h1v1h-1z"/><path fill="#0a3b92" d="M75 121h1v1h-1z"/><path d="M74 140h1v1h-1zm59 21h1v1h-1zm62 39h1v1h-1zm-110 1h1v1h-1zm103 1h1v1h-1z" fill="#e0e613"/><path d="M75 178h1v1h-1zm106 1h1v1h-1z" fill="#0e3e90"/><path d="M188 187h1v1h-1zm16 7h1v1h-1z" fill="#16438d"/><path fill="#022d9d" d="M164 192h1v1h-1z"/><path fill="#083994" d="M180 203h1v1h-1z"/><path fill="#9db03b" d="M191 188h1v1h-1z"/><path fill="#b4c22e" d="M175 201h1v1h-1z"/><path d="M40 121h1v79h-1zm158 17h1v1h-1zm-112 2h1v1h-1zm14 3h1v1h-1zm48 6h1v1h-1zm-38 5h1v1h-1zm3 0h1v1h-1zm15 0h1v1h-1zm-79 2h5v1h-5zm5 0h1v1h-1zm23 0h8v1h-8zm8 0h1v1h-1zm21 0h1v1h-1zm15 4h1v1h-1zm-15 5h1v1h-1zm-6 3h1v1h-1zm17 9h1v1h-1zm43 1h1v1h-1zm-84 1h1v1h-1zm17 7h1v1h-1zm38 13h1v1h-1zm3 0h1v1h-1zm66 0h1v1h-1zm-160 1h1v1h-1zm62 1h1v1h-1zm21 2h1v1h-1zm-43 1h1v1h-1z" fill="#002e9d"/><path fill="#e4ea10" d="M130 140h1v1h-1z"/><path fill="#7e9550" d="M105 155h1v1h-1z"/><path fill="#053399" d="M132 158h1v1h-1z"/><path fill="#577567" d="M198 199h1v1h-1z"/><path d="M75 141h1v1h-1zm128 36h1v1h-1z" fill="#b9c72a"/><path fill="#7a9450" d="M149 154h1v1h-1z"/><path fill="#073995" d="M102 157h1v1h-1z"/><path fill="#476b6f" d="M117 162h1v1h-1z"/><path fill="#fdfd02" d="M134 182h1v1h-1z"/><path d="M141 144h1v1h-1zm-3 57h11v1h-11zm11 0h1v1h-1zm60 0h10v1h-10zm10 0h1v1h-1z" fill="#cfd91d"/><path d="M124 161h1v1h-1zm40 30h1v1h-1z" fill="#446a70"/><path fill="#30567f" d="M103 167h1v1h-1z"/><path d="M202 181h1v1h-1zM22 201h15v1H22zm15 0h1v1h-1z" fill="#c9d420"/><path fill="#113c92" d="M203 195h1v1h-1z"/><path d="M56 123h1v16h-1zm0 16h1v1h-1zm0 18h1v22h-1zm73 16h1v1h-1zm-73 6h1v1h-1zm95 22h1v1h-1zm-75 2h1v1h-1zm1 0h1v1h-1z" fill="#426871"/><path fill="#19428e" d="M204 131h1v1h-1z"/><path fill="#b0c030" d="M162 141h1v1h-1z"/><path d="M48 143h1v9h-1zm173 0h1v56h-1zm-173 9h1v1h-1zm86 23h1v2h-1zm0 2h1v1h-1zm-48 12h1v10h-1zm0 10h1v1h-1zm135 0h1v1h-1z" fill="#d5dd19"/><path fill="#ccd61e" d="M94 183h1v1h-1z"/><path fill="#b7c62b" d="M131 161h1v1h-1z"/><path d="M206 201h1v1h-1zm-24 2h1v1h-1z" fill="#214e85"/><path fill="#1c4a88" d="M39 121h1v1h-1z"/><path d="M56 141h1v1h-1zm56 41h1v1h-1zm-37 1h1v1h-1z" fill="#c9d421"/><path d="M202 179h1v1h-1zM57 190h1v1h-1z" fill="#16458c"/><path fill="#1c418f" d="M133 196h1v1h-1z"/><path d="M39 119h1v1h-1zm175 0h1v1h-1zm-196 2h1v80h-1zm113 17h1v1h-1zm-26 2h1v1h-1zm-7 3h1v1h-1zm-1 1h1v1h-1zm18 10h1v1h-1zm-14 4h1v1h-1zm7 5h1v1h-1zm93 14h1v1h-1zm-41 5h1v1h-1zm-68 4h1v1h-1zm-74 15h1v1h-1zm91 2h1v1h-1z" fill="#003299"/><path d="M126 152h1v1h-1zm40 41h1v1h-1z" fill="#f9fa04"/><path fill="#9db13b" d="M180 177h1v1h-1z"/><path fill="#0d3b93" d="M85 202h1v1h-1z"/><path d="M185 134h1v1h-1zm-69 4h1v1h-1zm-6 1h1v1h-1zm-23 2h1v1h-1zm63 12h1v1h-1zm-95 30h1v1h-1zm144 0h1v1h-1zm-68 1h1v1h-1zm-49 2h1v1h-1zm12 6h1v1h-1zm-8 10h1v1h-1zm99 2h1v1h-1z" fill="#002c9f"/><path fill="#073697" d="M99 150h1v1h-1z"/><path fill="#c6d221" d="M100 170h1v1h-1z"/><path fill="#295382" d="M132 173h1v1h-1z"/><path fill="#496d6d" d="M202 180h1v1h-1z"/><path fill="#386078" d="M56 182h1v1h-1z"/><path fill="#9bae3d" d="M178 202h1v1h-1z"/><path d="M20 121h1v1h-1zm84 46h1v1h-1z" fill="#b2c12f"/><path fill="#3e6573" d="M56 121h1v1h-1z"/><path d="M120 191h2v1h-2zm2 0h1v1h-1zm86 10h1v1h-1z" fill="#d0d91d"/><path fill="#153f90" d="M207 128h1v1h-1z"/><path d="M119 139h1v1h-1zm-33 48h1v1h-1z" fill="#5f7f60"/><path fill="#567766" d="M133 140h1v1h-1z"/><path fill="#b8c52c" d="M135 141h1v1h-1z"/><path d="M116 162h1v1h-1zm78 25h1v1h-1z" fill="#295282"/><path d="M20 119h1v1h-1zm76 53h1v1h-1zm-20 6h1v1h-1zm106 1h1v1h-1zm-84 19h1v1h-1zm-27 5h1v1h-1z" fill="#00309c"/><path d="M190 130h1v1h-1zM74 154h1v1h-1zm22 22h1v1h-1zm-22 4h1v1h-1zm-17 3h1v1h-1zm74 4h1v1h-1zm-49 1h1v1h-1zm-44 12h1v1h-1zm147 2h1v1h-1z" fill="#fefe01"/><path fill="#0a3b93" d="M113 185h1v1h-1z"/><path fill="#01329a" d="M193 187h1v1h-1z"/><path fill="#6c8958" d="M135 200h1v1h-1z"/><path d="M195 121h1v1h-1zm-156 1h1v1h-1z" fill="#1f4b87"/><path d="M211 121h1v1h-1zM57 185h1v1h-1z" fill="#f1f409"/><path d="M194 124h1v1h-1zm-88 18h1v1h-1zm7 10h1v1h-1zm-10 16h1v1h-1z" fill="#f5f706"/><path d="M132 157h1v1h-1zm19 9h1v33h-1zm0 33h1v1h-1z" fill="#517468"/><path fill="#adbe31" d="M203 176h1v1h-1z"/><path d="M199 184h1v1h-1zm-26 17h1v1h-1z" fill="#0b3995"/><path fill="#375d7a" d="M60 196h1v1h-1z"/><path fill="#c4d024" d="M20 200h1v1h-1z"/><path fill="#436971" d="M119 152h1v1h-1z"/><path fill="#fbfc02" d="M185 187h1v1h-1z"/><path fill="#dbe316" d="M106 201h1v1h-1z"/><path fill="#c2cf24" d="M208 126h1v1h-1z"/><path d="M116 140h1v1h-1zm-6 1h1v1h-1zm24 31h1v1h-1zm71 21h1v1h-1z" fill="#fefe00"/><path fill="#718e55" d="M86 141h1v1h-1z"/><path fill="#708d55" d="M101 155h1v1h-1z"/><path fill="#1a438d" d="M99 170h1v1h-1z"/><path d="M111 203h1v1h-1zm7 0h1v1h-1z" fill="#234f84"/><path fill="#bac829" d="M186 135h1v1h-1z"/><path d="M113 140h1v1h-1zm51 50h1v1h-1zm42 9h1v1h-1z" fill="#a4b637"/><path d="M50 141h4v1h-4zm4 0h1v1h-1zm23 0h7v1h-7zm7 0h1v1h-1zm80 0h14v1h-14zm14 0h1v1h-1z" fill="#b6c42c"/><path d="M76 121h1v18h-1zm113 7h1v1h-1zm-59 10h1v1h-1zm-54 1h1v1h-1zm65 3h1v1h-1zm-27 12h1v1h-1zm11 0h1v1h-1zm-39 2h1v1h-1zm-10 1h1v20h-1zm28 0h1v1h-1zm-2 1h1v1h-1zm18 2h1v1h-1zm-5 1h1v1h-1zm18 13h1v1h-1zm-57 3h1v1h-1zm38 4h1v1h-1zm18 0h1v1h-1zm-18 4h1v1h-1zm-57 8h1v1h-1zm108 2h1v1h-1zm-68 2h1v1h-1zm2 2h1v1h-1zm74 3h1v1h-1zm-88 1h1v1h-1zm21 0h1v1h-1zm73 0h1v1h-1zm-107 1h1v1h-1zm9 0h1v1h-1zm29 0h1v1h-1zm9 0h1v1h-1zm61 0h1v1h-1zm8 0h1v1h-1z" fill="#00309b"/><path fill="#b1c02f" d="M119 162h1v1h-1z"/><path fill="#4f706b" d="M84 202h1v1h-1z"/><path d="M75 120h1v1h-1zm0 20h1v1h-1zm26 17h1v1h-1zm36 45h12v1h-12zm12 0h1v1h-1zm59 0h13v1h-13zm13 0h1v1h-1z" fill="#013498"/><path d="M205 129h1v1h-1zm-1 1h1v1h-1zm-2 65h1v1h-1z" fill="#cfd91c"/><path d="M220 141h1v1h-1zm-90 20h1v1h-1z" fill="#aebe30"/><path d="M125 152h1v1h-1zm-5 10h1v1h-1z" fill="#dae116"/><path d="M47 142h1v12h-1zm175 0h1v58h-1zM47 154h1v1h-1zm28 2h1v1h-1zm58 19h1v3h-1zm0 3h1v1h-1zm-20 3h1v1h-1zm-26 7h1v11h-1zm0 11h1v1h-1zm135 1h1v1h-1z" fill="#053796"/><path fill="#204989" d="M131 156h1v1h-1z"/><path fill="#b8c62b" d="M113 179h1v1h-1z"/><path fill="#13408f" d="M182 182h1v1h-1z"/><path fill="#2d5282" d="M78 186h1v1h-1z"/><path d="M38 119h1v1h-1zm36 0h1v1h-1zm122 0h1v1h-1zm17 0h1v1h-1zm-18 1h1v1h-1zm19 2h1v1h-1zm-99 16h1v1h-1zm65 2h1v1h-1zm-20 1h1v1h-1zm-61 12h1v1h-1zm10 2h1v1h-1zm-61 1h1v1h-1zm45 22h1v1h-1zm67 2h1v1h-1zm23 2h1v1h-1zm-22 4h1v1h-1zm27 0h1v1h-1zm-73 1h1v1h-1zm13 0h1v1h-1zm-9 2h1v1h-1zm4 0h1v1h-1zm-67 1h1v1h-1zm37 0h1v1h-1zm40 8h1v1h-1zm-93 3h1v1h-1zm24 0h1v1h-1zm64 0h1v1h-1zm6 0h1v1h-1zm63 0h1v1h-1zm-73 1h1v1h-1zm71 0h1v1h-1zm-19 1h1v1h-1zm16 0h1v1h-1zm-119 1h1v1h-1zm108 0h1v1h-1zm6 0h1v1h-1z" fill="#002f9c"/><path fill="#0b3696" d="M210 125h1v1h-1z"/><path fill="#537667" d="M94 189h1v1h-1z"/><path d="M58 191h1v1h-1zm37 0h1v1h-1z" fill="#a9ba34"/><path fill="#7a9451" d="M65 200h1v1h-1z"/><path fill="#043499" d="M68 202h1v1h-1z"/><path d="M19 121h1v79h-1zm175 0h1v1h-1zm18 3h1v1h-1zm-2 2h1v1h-1zm-1 1h1v1h-1zm-80 11h1v1h-1zm2 1h1v1h-1zm-83 1h1v1h-1zm173 0h1v1h-1zm-119 2h1v1h-1zm5 13h1v1h-1zm15 5h1v1h-1zm30 1h1v1h-1zm-43 2h1v1h-1zm-5 3h1v1h-1zm27 8h1v1h-1zm-38 8h1v1h-1zm-10 4h1v1h-1zm79 3h1v1h-1zm-67 5h1v1h-1zm104 5h1v1h-1zm-180 1h1v1h-1zm85 2h1v1h-1zm71 0h1v1h-1zm-101 2h1v1h-1zm5 0h1v1h-1zm104 0h1v1h-1z" fill="#002c9e"/><path d="M214 121h1v1h-1zM59 195h1v1h-1z" fill="#083498"/><path d="M206 129h1v1h-1zm-18 2h1v1h-1z" fill="#16418f"/><path fill="#769153" d="M112 140h1v1h-1z"/><path d="M136 141h1v1h-1zm-34 27h1v1h-1z" fill="#789153"/><path fill="#bfcc27" d="M106 166h1v1h-1z"/><path fill="#7c974e" d="M192 126h1v1h-1z"/><path fill="#19438d" d="M205 130h1v1h-1z"/><path fill="#224e85" d="M198 137h1v1h-1z"/><path fill="#c2ce25" d="M94 186h1v1h-1z"/><path fill="#bac72a" d="M105 142h1v1h-1z"/><path d="M124 201h1v1h-1zm12 0h1v1h-1z" fill="#c4cf24"/><path d="M196 121h1v1h-1zm3 14h1v1h-1zm-85 17h1v1h-1zm-2 29h1v1h-1z" fill="#dde414"/><path d="M55 122h1v17h-1zm150 9h1v1h-1zm-18 1h1v1h-1zm16 1h1v1h-1zm-19 3h1v1h-1zm15 1h1v1h-1zm-14 1h1v1h-1zm-130 1h1v1h-1zm149 1h16v1h-16zm16 0h1v1h-1zm-18 2h1v34h-1zm-105 3h1v1h-1zm1 4h1v1h-1zm14 5h1v1h-1zm39 2h1v1h-1zm-96 1h1v24h-1zm74 3h1v1h-1zm1 0h1v1h-1zm22 3h1v1h-1zm-56 10h1v1h-1zm-1 1h1v1h-1zm34 0h1v1h-1zm3 0h1v1h-1zm-38 2h1v1h-1zm108 0h1v1h-1zm-20 4h1v1h-1zm-127 1h1v1h-1zm38 0h1v1h-1zm105 3h1v1h-1zm-117 2h1v1h-1zm3 0h1v1h-1zm-28 1h1v1h-1zm37 0h1v1h-1zm25 2h1v1h-1zm6 0h1v1h-1zm-30 2h1v1h-1zm1 2h1v1h-1zm69 0h1v1h-1zm-105 3h1v1h-1zm144 0h1v1h-1zm1 1h1v1h-1zm-72 1h1v1h-1zm-25 5h1v1h-1zm14 0h1v1h-1zm69 0h1v1h-1zm-115 1h3v1h-3zm3 0h1v1h-1zm34 0h1v1h-1zm5 0h1v1h-1z" fill="#002aa0"/><path fill="#03309c" d="M185 135h1v1h-1z"/><path fill="#7c964f" d="M125 173h1v1h-1z"/><path fill="#214a87" d="M119 175h1v1h-1z"/><path fill="#04319a" d="M201 181h1v1h-1z"/><path fill="#164090" d="M170 199h1v1h-1z"/><path fill="#063895" d="M56 120h1v1h-1z"/><path fill="#9aae3d" d="M128 161h1v1h-1z"/><path fill="#00339a" d="M94 193h1v1h-1z"/><path fill="#14438d" d="M135 201h1v1h-1z"/><path fill="#c8d321" d="M179 202h1v1h-1z"/><path fill="#e7ec0f" d="M101 153h1v1h-1z"/><path d="M114 153h1v1h-1zm-42 50h1v1h-1z" fill="#093a94"/><path fill="#64805f" d="M195 187h1v1h-1z"/><path fill="#18478b" d="M57 120h1v1h-1z"/><path fill="#b1c22e" d="M211 123h1v1h-1z"/><path fill="#98ac3e" d="M48 141h1v1h-1z"/><path fill="#9fb13a" d="M120 174h1v1h-1z"/><path fill="#94aa40" d="M115 189h1v1h-1z"/><path fill="#2c577e" d="M163 189h1v1h-1z"/><path fill="#92a842" d="M75 182h1v1h-1z"/><path fill="#c0cc26" d="M189 188h1v1h-1z"/><path fill="#eff309" d="M205 194h1v1h-1z"/><path fill="#f0f30a" d="M135 198h1v1h-1z"/><path fill="#204b87" d="M103 142h1v1h-1z"/><path d="M101 154h1v1h-1zm-7 33h1v1h-1z" fill="#acbd32"/><path fill="#cbd51f" d="M126 190h1v1h-1z"/><path fill="#204c86" d="M213 120h1v1h-1z"/><path fill="#64845c" d="M194 123h1v1h-1z"/><path fill="#6b875a" d="M117 152h1v1h-1z"/><path fill="#1f4c87" d="M85 155h1v1h-1z"/><path fill="#1a488a" d="M151 160h1v1h-1z"/><path fill="#2d577e" d="M183 203h1v1h-1z"/><path d="M74 123h1v16h-1zm0 16h1v1h-1zm0 18h1v19h-1zm41 6h1v1h-1zm-41 13h1v1h-1zm107 6h1v1h-1zm-95 6h1v1h-1zm16 11h1v1h-1z" fill="#e1e712"/><path fill="#416772" d="M189 130h1v1h-1z"/><path d="M199 136h1v1h-1zm-73 17h1v1h-1z" fill="#285083"/><path fill="#66855c" d="M120 139h1v1h-1z"/><path d="M115 152h1v1h-1zm-20 25h1v1h-1z" fill="#b4c32d"/><path fill="#ecf00b" d="M133 184h1v1h-1z"/><path fill="#224c86" d="M96 194h1v1h-1z"/><path fill="#c4d023" d="M167 195h1v1h-1z"/><path fill="#dbe315" d="M132 196h1v1h-1z"/><path fill="#90a444" d="M138 142h1v1h-1z"/><path d="M203 142h1v1h-1zm-23 36h1v1h-1z" fill="#b7c52c"/><path fill="#14418f" d="M147 149h1v1h-1z"/><path fill="#e5eb0f" d="M130 154h1v1h-1z"/><path d="M101 169h1v1h-1zm104 26h1v1h-1z" fill="#abbc33"/><path d="M38 121h1v1h-1zm99 21h1v1h-1zm-3 39h1v1h-1zm64 5h1v1h-1zm-30 10h1v1h-1z" fill="#e6eb0f"/><path d="M86 142h1v1h-1zm48 54h1v1h-1z" fill="#a6b835"/><path fill="#527568" d="M151 165h1v1h-1z"/><path fill="#1d478a" d="M184 185h1v1h-1z"/><path fill="#d4dc1b" d="M68 201h1v1h-1z"/><path fill="#8fa444" d="M86 201h1v1h-1z"/><path fill="#023499" d="M184 137h1v1h-1z"/><path fill="#406574" d="M98 145h1v1h-1z"/><path d="M123 174h1v1h-1zm-67 12h1v1h-1z" fill="#073895"/><path d="M201 182h1v1h-1zM97 195h1v1h-1z" fill="#597b63"/><path fill="#5f8060" d="M59 194h1v1h-1z"/><path fill="#2c5381" d="M169 198h1v1h-1z"/><path d="M102 156h1v1h-1zm101 22h1v1h-1zm-72 19h1v1h-1z" fill="#ced81d"/><path fill="#a3b538" d="M114 163h1v1h-1z"/><path fill="#d6de18" d="M94 184h1v1h-1z"/><path fill="#4e6e6d" d="M187 187h1v1h-1z"/><path fill="#012e9d" d="M99 198h1v1h-1z"/><path fill="#e3e811" d="M128 199h1v1h-1z"/><path fill="#4a6c6e" d="M99 144h1v1h-1z"/><path fill="#799351" d="M111 153h1v1h-1z"/><path d="M48 155h1v1h-1zm113 24h1v1h-1z" fill="#19478a"/><path fill="#1e4988" d="M106 155h1v1h-1z"/><path fill="#255183" d="M101 156h1v1h-1z"/><path fill="#8ba346" d="M97 173h1v1h-1z"/><path fill="#758e55" d="M118 175h1v1h-1z"/><path fill="#718d56" d="M57 188h1v1h-1z"/><path fill="#0a3597" d="M166 195h1v1h-1z"/><path fill="#e7ec0e" d="M169 197h1v1h-1z"/><path d="M38 123h1v76h-1zm96 18h1v1h-1zm-85 13h5v1h-5zm5 0h1v1h-1zm21 0h10v1H75zm10 0h1v1h-1zm77 24h1v1h-1zm-88 1h1v1h-1zm23 15h1v1h-1zm-59 5h1v1h-1z" fill="#f4f607"/><path fill="#5c7b63" d="M108 154h1v1h-1z"/><path fill="#375d79" d="M112 163h1v1h-1z"/><path fill="#5e7b63" d="M80 187h1v1h-1z"/><path fill="#073796" d="M205 198h1v1h-1z"/><path fill="#e4e911" d="M110 202h1v1h-1z"/><path d="M189 129h1v1h-1zm-63 9h1v1h-1zm60 0h1v1h-1zm11 0h1v1h-1zm-92 27h1v1h-1zm-3 2h1v1h-1zm99 13h1v1h-1zm-40 3h1v1h-1zm0 1h1v1h-1zm-47 2h1v1h-1zm13 15h1v1h-1zm-57 2h1v1h-1z" fill="#0028a2"/><path fill="#a0b439" d="M86 153h1v1h-1z"/><path d="M151 163h1v1h-1zm-76 40h1v1h-1z" fill="#3e6574"/><path d="M200 184h1v1h-1zM60 195h1v1h-1z" fill="#cad520"/><path fill="#0b3b93" d="M188 203h1v1h-1z"/><path fill="#093498" d="M212 123h1v1h-1z"/><path d="M186 137h1v1h-1zm11 0h1v1h-1z" fill="#62815e"/><path fill="#718d55" d="M122 139h1v1h-1z"/><path d="M49 141h1v1h-1zm114 0h1v1h-1zm0 46h1v1h-1z" fill="#b6c52c"/><path fill="#597866" d="M107 165h1v1h-1z"/><path fill="#feff00" d="M112 186h1v1h-1z"/><path fill="#022f9c" d="M196 186h1v1h-1z"/><path fill="#92a643" d="M105 201h1v1h-1z"/><path fill="#537468" d="M194 201h1v1h-1z"/><path fill="#738e55" d="M107 141h1v1h-1z"/><path fill="#97ac3f" d="M133 159h1v1h-1z"/><path fill="#2a5580" d="M151 161h1v1h-1z"/><path fill="#5d7d62" d="M191 202h1v1h-1z"/><path d="M196 120h1v1h-1zM94 190h1v1h-1z" fill="#0f3f90"/><path d="M20 122h1v1h-1zm173 3h1v1h-1zm-94 22h1v1h-1zm-61 54h1v1h-1z" fill="#c0cd26"/><path d="M191 128h1v1h-1zM21 201h1v1h-1zm186 0h1v1h-1z" fill="#cad420"/><path fill="#0022a6" d="M55 140h1v1h-1z"/><path fill="#1f478a" d="M130 155h1v1h-1z"/><path fill="#d0db1b" d="M133 195h1v1h-1z"/><path d="M109 140h1v1h-1zm42 19h1v1h-1z" fill="#053697"/><path fill="#4f726a" d="M62 198h1v1h-1z"/><path fill="#c5d123" d="M207 127h1v1h-1z"/><path d="M129 139h1v1h-1zm20 14h1v1h-1z" fill="#2e577e"/><path fill="#e7eb0f" d="M109 153h1v1h-1z"/><path fill="#103c92" d="M197 200h1v1h-1z"/><path fill="#a6b935" d="M213 121h1v1h-1z"/><path fill="#4e726a" d="M100 152h1v1h-1z"/><path fill="#083797" d="M150 155h1v1h-1z"/><path d="M56 119h1v1h-1zm-37 1h1v1h-1zm36 0h1v1h-1zm160 0h1v1h-1zm-29 12h1v1h-1zm-25 8h1v1h-1zm-115 1h1v1h-1zm56 0h1v1h-1zm121 0h1v1h-1zm-123 1h1v1h-1zm44 2h1v1h-1zm2 2h1v1h-1zm-49 1h1v1h-1zm-10 8h1v1h-1zm23 0h1v1h-1zm-3 1h1v1h-1zm4 6h1v1h-1zm-5 2h1v1h-1zm-2 1h1v1h-1zm-10 10h1v1h-1zm22 3h1v1h-1zm85 0h1v1h-1zm-86 1h1v1h-1zm17 0h1v1h-1zm0 1h1v1h-1zm-18 2h1v2h-1zm-37 1h1v1h-1zm15 0h1v1h-1zm21 1h1v1h-1zm1 0h1v1h-1zm75 2h1v1h-1zm-101 1h1v1h-1zm73 0h1v1h-1zm2 5h1v1h-1zm-67 4h1v1h-1zm37 3h1v1h-1zm-3 1h1v1h-1zm69 0h1v1h-1zm-111 1h1v1h-1zm83 0h1v1h-1zm-151 1h1v1h-1zm67 0h1v1h-1zm-67 1h18v1H20zm18 0h1v1h-1zm86 0h1v1h-1zm51 0h1v1h-1zm18 0h1v1h-1zm-122 1h1v1h-1zm108 0h1v1h-1z" fill="#00329a"/><path fill="#1b458b" d="M203 132h1v1h-1z"/><path d="M202 134h1v1h-1zm-1 1h1v1h-1zm-84 3h1v1h-1zm11 0h1v1h-1zm-27 4h1v1h-1zm-2 1h1v1h-1zm48 5h1v1h-1zm-28 5h2v1h-2zm2 0h1v1h-1zm3 7h1v1h-1zm-7 1h1v1h-1zm7 13h1v1h-1zm-10 5h1v1h-1zm0 1h1v1h-1zm78 7h1v1h-1zm-95 9h1v1h-1zm72 3h1v1h-1zm-66 2h1v1h-1z" fill="#0029a0"/><path fill="#466971" d="M101 143h1v1h-1z"/><path fill="#0f4090" d="M94 178h1v1h-1z"/><path fill="#c1cd26" d="M196 187h1v1h-1z"/><path fill="#254c86" d="M201 197h1v1h-1z"/><path fill="#c8d420" d="M203 131h1v1h-1z"/><path fill="#05329a" d="M98 144h1v1h-1z"/><path fill="#7b954f" d="M118 162h1v1h-1z"/><path fill="#002f9d" d="M201 179h1v1h-1z"/><path d="M93 184h1v1h-1zm-6 16h1v1h-1z" fill="#053896"/><path fill="#001fa8" d="M132 160h1v1h-1z"/><path fill="#7d974e" d="M180 175h1v1h-1z"/><path fill="#9bad3d" d="M79 187h1v1h-1z"/><path d="M99 197h1v1h-1zm100 1h1v1h-1zm-91 4h1v1h-1z" fill="#9baf3c"/><path fill="#89a048" d="M70 202h1v1h-1z"/><path d="M22 120h15v1H22zm15 0h1v1h-1zm21 0h15v1H58zm15 0h1v1h-1zm125 0h13v1h-13zm13 0h1v1h-1zM56 185h1v1h-1zm106 1h1v1h-1zm-28 12h1v1h-1zm-95 3h1v1h-1z" fill="#18468b"/><path fill="#adbd32" d="M148 152h1v1h-1z"/><path d="M95 176h1v1h-1zm110 21h1v1h-1z" fill="#3c6475"/><path fill="#123c92" d="M131 198h1v1h-1z"/><path fill="#436970" d="M56 122h1v1h-1z"/><path d="M116 139h1v1h-1zm-6 1h1v1h-1z" fill="#315a7c"/><path fill="#0d3e91" d="M130 139h1v1h-1z"/><path d="M47 141h1v1h-1zm175 0h1v1h-1z" fill="#033697"/><path fill="#b6c42d" d="M102 143h1v1h-1z"/><path fill="#6a875a" d="M145 147h1v1h-1z"/><path fill="#5d7d61" d="M162 184h1v1h-1z"/><path fill="#18418f" d="M116 189h1v1h-1z"/><path fill="#d7e018" d="M202 132h1v1h-1z"/><path d="M161 142h1v1h-1zM56 184h1v1h-1zm130 19h1v1h-1z" fill="#265182"/><path fill="#62825e" d="M75 181h1v1h-1z"/><path fill="#769053" d="M103 156h1v1h-1z"/><path fill="#5b7c62" d="M115 203h1v1h-1z"/><path fill="#577965" d="M127 139h1v1h-1z"/><path d="M123 139h1v1h-1zm1 0h1v1h-1zm56 4h1v31h-1zm0 31h1v1h-1z" fill="#708d56"/><path fill="#759153" d="M180 142h1v1h-1z"/><path d="M55 156h1v1h-1zm76 1h1v1h-1zm52 26h1v1h-1zm21 12h1v1h-1z" fill="#0024a4"/><path fill="#93a841" d="M162 183h1v1h-1z"/><path fill="#8da544" d="M114 188h1v1h-1z"/><path fill="#375c7a" d="M168 197h1v1h-1z"/><path fill="#eef10a" d="M187 202h1v1h-1z"/><path fill="#033597" d="M39 120h1v1h-1z"/><path fill="#0a3c92" d="M75 139h1v1h-1z"/><path fill="#b5c42d" d="M76 141h1v1h-1z"/><path fill="#afbf30" d="M204 141h1v1h-1z"/><path fill="#96ab3f" d="M147 150h1v1h-1z"/><path d="M95 178h1v1h-1zm67 2h1v1h-1zm30 21h1v1h-1zm-11 1h1v1h-1z" fill="#ebef0c"/><path d="M57 187h1v1h-1zm164 14h1v1h-1zm-100 1h1v1h-1z" fill="#adbd31"/><path d="M127 189h1v1h-1zm47 12h1v1h-1z" fill="#51726a"/><path d="M192 124h1v1h-1zm16 4h1v1h-1zM49 140h5v1h-5zm5 0h1v1h-1zm23 0h8v1h-8zm8 0h1v1h-1zm50 0h1v1h-1zm27 0h17v1h-17zm17 0h1v1h-1zm-74 1h1v1h-1zm76 0h1v1h-1zm-66 12h1v1h-1zm-39 3h1v1h-1zm47 4h1v1h-1zm8 0h1v1h-1zm-19 2h1v1h-1zm40 0h1v1h-1zm-44 2h1v1h-1zm-5 2h1v1h-1zm-2 2h1v1h-1zm-2 1h1v1h-1zm-1 1h1v1h-1zm32 4h1v1h-1zm-8 1h1v1h-1zm-28 2h1v1h-1zm108 0h1v1h-1zm-21 1h1v1h-1zm-105 2h1v1h-1zm-21 2h1v1h-1zm76 3h1v1h-1zm30 0h1v1h-1zm-104 6h1v1h-1zm109 5h1v1h-1zm-68 1h1v1h-1zm103 1h1v1h-1zm-71 1h1v1h-1zm22 2h1v1h-1zm-83 2h1v1h-1zm115 1h1v1h-1z" fill="#002b9f"/><path d="M118 139h1v1h-1zm33 61h1v1h-1z" fill="#547666"/><path fill="#3b6275" d="M56 140h1v1h-1z"/><path fill="#c1cc26" d="M110 153h1v1h-1z"/><path d="M107 154h1v1h-1zm86 47h1v1h-1z" fill="#b8c52b"/><path fill="#577964" d="M58 192h1v1h-1z"/><path fill="#6e8b57" d="M206 200h1v1h-1z"/><path fill="#073399" d="M190 128h1v1h-1z"/><path fill="#8ba246" d="M116 152h1v1h-1z"/><path d="M76 155h1v1h-1zm47 47h1v1h-1z" fill="#1d4889"/><path d="M150 158h1v1h-1zm-67 44h1v1h-1z" fill="#a1b439"/><path fill="#799450" d="M185 136h1v1h-1z"/><path fill="#083598" d="M141 143h1v1h-1z"/><path fill="#c9d520" d="M131 155h1v1h-1z"/><path fill="#e2e811" d="M116 190h1v1h-1z"/><path fill="#e2e712" d="M81 202h1v1h-1z"/></svg>