<svg xmlns="http://www.w3.org/2000/svg" role="img" viewBox="-14.39 -14.89 748.28 190.28"><title>JCurl logo</title><style>svg {enable-background:new 0 0 720 161.5}</style><path fill="#000029" d="M37.3 80.3c-14.2 0-26.4-4.6-37.3-11.5l6.8-10.3C17.7 65.6 27.7 69 39 69c13.2 0 19.4-5.1 19.4-11 0-17.1-55.8-6.9-55.8-34.1C2.6 10.5 15.9 0 37.3 0c14.4 0 26.9 5.4 34.3 12.7l-8.3 8.6c-6.3-5.5-16-9.9-26.1-9.9-12.5 0-21 4.5-21 10.9 0 15.9 55.9 7.4 55.9 34.3-.1 14.2-14.4 23.7-34.8 23.7zm89.4-32.7v30.1h-13.5V47.4L79.3 2.6h15.8l25.4 34.7 24-34.7H160l-33.3 45zm127.6 30V18.8l-3.7 8L224 77.6h-8.1l-26.3-50.8-3.7-8v58.8h-13v-75h18.8L217 53.1l3.5 7.7 3.5-7.7 24.9-50.5h18.6v75.1h-13.2v-.1zm86.8-52.7c0-6.2-4.2-10.8-14.4-10.8h-24.9v24.2h25.5c10.3 0 13.9-5 13.9-11v-2.4h-.1zm-15.9 24.5h-23.4v28.3h-13.5V2.6h37c20.5 0 29.5 9.2 29.5 22.3v2c-.1 13.1-9.1 22.5-29.6 22.5zm103.2 28.2V45.3h-45.2v32.3h-13.5v-75h13.5v31.8h45.2V2.6h13.5v75.1h-13.5v-.1zm95.2-42.1c0-12.8-8.9-23.9-25.4-23.9S473 22.6 473 35.5v9.1c0 12.8 8.8 24.1 25.2 24.1 16.5 0 25.4-11.3 25.4-24.1v-9.1zm-25.4 44.8c-24.1 0-38.9-17.1-38.9-35.5v-9.4c0-18.7 14.8-35.5 38.9-35.5 24.2 0 39 16.8 39 35.5v9.4c0 18.4-14.7 35.5-39 35.5zm117.1-2.7l-42-47.4-5.4-7v54.4h-13.4v-75H567l40.7 47.6 5.5 7V2.6h13.3v75.1h-11.2v-.1zm71.3-30v30.1h-13.5V47.4L639.3 2.6h15.8l25.4 34.7 24-34.7H720l-33.4 45z"/><path fill="#008fff" d="M15.5 161.3c4.8 0 8.9-1.4 11.6-4.1 2.7-2.7 4.2-6.6 4.2-11.9v-29.2H21.2v28.8c0 5.2-2.3 7.4-6 7.4-3.1 0-5.6-1.7-8.2-4.5l-6.2 6.9c3.2 3.6 7.7 6.6 14.7 6.6zm46.7.2c8.6 0 13.7-3.1 18.3-8l-6.2-6.3c-3.5 3.2-6.6 5.2-11.7 5.2-7.7 0-12.9-6.4-12.9-14v-.1c0-7.7 5.4-13.9 12.9-13.9 4.5 0 8 1.9 11.4 5l6.2-7.2c-4.1-4.1-9.2-6.9-17.6-6.9-13.7 0-23.3 10.4-23.3 23.1v.1c0 12.8 9.8 23 22.9 23zm44.8-.1c12 0 19.6-6.6 19.6-20.1v-25.2h-9.8v25.6c0 7.1-3.6 10.7-9.6 10.7s-9.6-3.8-9.6-11v-25.3h-9.8v25.5c-.1 13.1 7.2 19.8 19.2 19.8zm29.6-.7h9.8v-14.3h7.7l9.6 14.3h11.5l-10.9-15.9c5.7-2.1 9.6-6.6 9.6-13.8v-.1c0-4.2-1.3-7.7-3.8-10.2-2.9-2.9-7.3-4.5-13-4.5h-20.4v44.5h-.1zm9.8-23v-12.8h9.8c4.8 0 7.7 2.2 7.7 6.4v.1c0 3.8-2.7 6.3-7.5 6.3h-10zm36.3 23h32.1v-8.9h-22.3v-35.7h-9.8v44.6z"/></svg>