<svg xmlns="http://www.w3.org/2000/svg" role="img" viewBox="7.45 15.45 496.60 493.60"><title>JCurl logo</title><g filter="url(#filter0_ddd)"><rect width="440" height="440" x="36" y="36" fill="#000028" rx="128"/><rect width="440" height="440" x="36" y="36" fill="url(#paint0_linear)" rx="128"/></g><g filter="url(#filter1_dd)"><path fill="#0098FF" d="M355.308 209.412v-50.654c0-10.377-5.481-20.118-14.367-25.454C327.695 125.341 299.003 112 255.654 112c-43.35 0-72.042 13.341-85.287 21.346C161.481 138.64 156 148.381 156 158.758v76.066l157.785 46.588v33.882c0 4.574-2.823 7.793-7.64 10.207l-50.491 25.793-50.782-25.92c-4.526-2.287-7.35-5.506-7.35-10.08v-25.412L156 277.176v38.118c0 20.922 11.751 38.711 30.436 47.986L255.654 400l68.927-36.551c18.976-9.444 30.727-27.233 30.727-48.155v-63.529l-157.786-46.589v-38.668c11.295-5.548 30.478-12.155 58.132-12.155 27.654 0 46.837 6.607 58.131 12.155v30.198l41.523 12.706z"/><path fill="url(#paint1_radial)" d="M355.308 209.412v-50.654c0-10.377-5.481-20.118-14.367-25.454C327.695 125.341 299.003 112 255.654 112c-43.35 0-72.042 13.341-85.287 21.346C161.481 138.64 156 148.381 156 158.758v76.066l157.785 46.588v33.882c0 4.574-2.823 7.793-7.64 10.207l-50.491 25.793-50.782-25.92c-4.526-2.287-7.35-5.506-7.35-10.08v-25.412L156 277.176v38.118c0 20.922 11.751 38.711 30.436 47.986L255.654 400l68.927-36.551c18.976-9.444 30.727-27.233 30.727-48.155v-63.529l-157.786-46.589v-38.668c11.295-5.548 30.478-12.155 58.132-12.155 27.654 0 46.837 6.607 58.131 12.155v30.198l41.523 12.706z"/></g><defs><filter id="filter0_ddd" width="488" height="488" x="12" y="20" color-interpolation-filters="sRGB" filterUnits="userSpaceOnUse"><feFlood flood-opacity="0" result="BackgroundImageFix"/><feColorMatrix in="SourceAlpha" values="0 0 0 0 0 0 0 0 0 0 0 0 0 0 0 0 0 0 127 0"/><feOffset dy="8"/><feGaussianBlur stdDeviation="12"/><feColorMatrix values="0 0 0 0 0 0 0 0 0 0 0 0 0 0 0 0 0 0 0.04 0"/><feBlend in2="BackgroundImageFix" result="effect1_dropShadow"/><feColorMatrix in="SourceAlpha" values="0 0 0 0 0 0 0 0 0 0 0 0 0 0 0 0 0 0 127 0"/><feOffset dy="4"/><feGaussianBlur stdDeviation="4"/><feColorMatrix values="0 0 0 0 0 0 0 0 0 0 0 0 0 0 0 0 0 0 0.16 0"/><feBlend in2="effect1_dropShadow" result="effect2_dropShadow"/><feColorMatrix in="SourceAlpha" values="0 0 0 0 0 0 0 0 0 0 0 0 0 0 0 0 0 0 127 0"/><feOffset dy="2"/><feGaussianBlur stdDeviation="2"/><feColorMatrix values="0 0 0 0 0 0 0 0 0 0 0 0 0 0 0 0 0 0 0.08 0"/><feBlend in2="effect2_dropShadow" result="effect3_dropShadow"/><feBlend in="SourceGraphic" in2="effect3_dropShadow" result="shape"/></filter><filter id="filter1_dd" width="199.308" height="292" x="156" y="110" color-interpolation-filters="sRGB" filterUnits="userSpaceOnUse"><feFlood flood-opacity="0" result="BackgroundImageFix"/><feColorMatrix in="SourceAlpha" values="0 0 0 0 0 0 0 0 0 0 0 0 0 0 0 0 0 0 127 0"/><feOffset dy="2"/><feColorMatrix values="0 0 0 0 1 0 0 0 0 1 0 0 0 0 1 0 0 0 0.8 0"/><feBlend in2="BackgroundImageFix" mode="overlay" result="effect1_dropShadow"/><feColorMatrix in="SourceAlpha" values="0 0 0 0 0 0 0 0 0 0 0 0 0 0 0 0 0 0 127 0"/><feOffset dy="-2"/><feColorMatrix values="0 0 0 0 0 0 0 0 0 0 0 0 0 0 0 0 0 0 0.4 0"/><feBlend in2="effect1_dropShadow" mode="overlay" result="effect2_dropShadow"/><feBlend in="SourceGraphic" in2="effect2_dropShadow" result="shape"/></filter><radialGradient id="paint1_radial" cx="0" cy="0" r="1" gradientTransform="matrix(0 195 -250.98 0 256 112)" gradientUnits="userSpaceOnUse"><stop stop-color="#fff" stop-opacity=".4"/><stop offset="1" stop-color="#fff" stop-opacity="0"/></radialGradient><linearGradient id="paint0_linear" x1="256" x2="256" y1="36" y2="476" gradientUnits="userSpaceOnUse"><stop stop-color="#fff" stop-opacity=".2"/><stop offset="1" stop-color="#fff" stop-opacity="0"/></linearGradient></defs></svg>