<svg xmlns="http://www.w3.org/2000/svg" role="img" viewBox="-14.39 -14.39 748.28 184.28"><title>MessageML Utilities logo</title><style>svg {enable-background:new 0 0 720 155.6}</style><path fill="#000029" d="M35.9 77.4C22.3 77.4 10.5 73 0 66.3l6.5-9.9c10.5 6.7 20.2 10 31.1 10 12.7 0 18.7-4.9 18.7-10.6 0-16.5-53.7-6.6-53.7-32.9C2.5 10.1 15.3 0 35.9 0c13.9 0 26 5.2 33 12.3l-8 8.3C54.8 15.2 45.5 11 35.7 11c-12.1 0-20.2 4.3-20.2 10.5 0 15.3 53.9 7.2 53.9 33 0 13.7-13.8 22.9-33.5 22.9zM122 45.8v29h-13V45.7L76.4 2.5h15.2L116 35.9l23.1-33.4h15L122 45.8zm123.1 29V18.1l-3.6 7.7-25.6 49h-7.8l-25.3-49-3.6-7.7v56.7h-12.5V2.5h18.1l24.3 48.6 3.4 7.4 3.4-7.4 24-48.6h17.9v72.3h-12.7zM328.7 24c0-6-4-10.4-13.9-10.4h-24v23.3h24.5c9.9 0 13.4-4.8 13.4-10.6V24zm-15.4 23.6h-22.6v27.3h-13V2.5h35.6c19.8 0 28.4 8.9 28.4 21.5v2c.1 12.5-8.6 21.6-28.4 21.6zm99.5 27.2V43.7h-43.5v31.2h-13V2.5h13v30.6h43.5V2.5h13v72.3h-13zm91.7-40.6c0-12.4-8.6-23-24.4-23-15.9 0-24.3 10.6-24.3 23V43c0 12.4 8.5 23.2 24.3 23.2 15.9 0 24.4-10.9 24.4-23.2v-8.8zm-24.4 43.2c-23.2 0-37.5-16.5-37.5-34.2v-9c0-18 14.2-34.2 37.5-34.2s37.6 16.2 37.6 34.2v9c-.1 17.7-14.3 34.2-37.6 34.2zm112.8-2.6l-40.5-45.7-5.2-6.7v52.4h-12.9V2.5h12.1l39.2 45.8 5.3 6.7V2.5h12.8v72.3h-10.8zm68.7-29v29h-13V45.7L616 2.5h15.2l24.4 33.4 23.1-33.4h15l-32.1 43.3z"/><path fill="#008fff" d="M5.2 154.8h9.3v-27.9l12 18.2h.2l12.1-18.4v28.1h9.4v-43H38L26.7 130l-11.3-18.2H5.2v43zm53.3 0h32.7v-8.4H67.9v-9h20.3V129H67.9v-8.7h23v-8.4H58.5v42.9zm56.5.7c9.3 0 15.8-4.8 15.8-13.3v-.2c0-7.5-4.9-10.6-13.6-12.9-7.4-1.9-9.3-2.8-9.3-5.7v-.1c0-2.1 1.9-3.8 5.5-3.8s7.4 1.6 11.2 4.2l4.9-7.1c-4.4-3.5-9.7-5.5-16-5.5-8.8 0-15 5.2-15 13v.1c0 8.5 5.6 10.9 14.2 13.2 7.2 1.8 8.7 3.1 8.7 5.5v.1c0 2.5-2.3 4.1-6.2 4.1-4.9 0-9-2-12.8-5.2l-5.6 6.7c5.1 4.6 11.6 6.9 18.2 6.9zm38.7 0c9.3 0 15.8-4.8 15.8-13.3v-.2c0-7.5-4.9-10.6-13.6-12.9-7.4-1.9-9.3-2.8-9.3-5.7v-.1c0-2.1 1.9-3.8 5.5-3.8s7.4 1.6 11.2 4.2l4.9-7.1c-4.4-3.5-9.7-5.5-16-5.5-8.8 0-15.1 5.2-15.1 13v.1c0 8.5 5.6 10.9 14.2 13.2 7.2 1.8 8.7 3.1 8.7 5.5v.1c0 2.5-2.3 4.1-6.2 4.1-4.9 0-9-2-12.8-5.2l-5.6 6.7c5.2 4.6 11.8 6.9 18.3 6.9zm19.4-.7h9.6l3.9-9.6h18.2l3.9 9.6h9.9l-18.4-43.3h-8.7l-18.4 43.3zm16.9-18l5.7-13.9 5.7 13.9H190zm53.3 18.8c7.9 0 13.9-3.1 18.4-6.8v-18.7H243v8.2h9.5v6.1c-2.4 1.7-5.5 2.6-8.9 2.6-7.6 0-13-5.8-13-13.6v-.1c0-7.3 5.5-13.4 12.4-13.4 5 0 7.9 1.6 11.2 4.4l6-7.2c-4.5-3.8-9.1-5.9-16.9-5.9-13 0-22.5 10-22.5 22.2v.1c-.1 12.7 9.1 22.1 22.5 22.1zm27.4-.8h32.7v-8.4h-23.3v-9h20.3V129h-20.3v-8.7h23v-8.4h-32.4v42.9zm41.2 0h9.3v-27.9l12 18.2h.2l12.1-18.4v28.1h9.4v-43h-10.2L333.4 130l-11.3-18.2h-10.2v43zm53.3 0h30.9v-8.6h-21.4v-34.4h-9.5v43zm74.4.7c11.6 0 18.9-6.4 18.9-19.4v-24.3H449v24.6c0 6.8-3.5 10.3-9.3 10.3-5.8 0-9.3-3.6-9.3-10.6v-24.3H421v24.6c0 12.7 7.1 19.1 18.6 19.1zm38.6-.7h9.5v-34.3h13.1v-8.7h-35.6v8.7h13.1v34.3h-.1zm30.2 0h9.5v-43h-9.5v43zm20.2 0h30.9v-8.6h-21.4v-34.4h-9.5v43zm38.5 0h9.5v-43h-9.5v43zm30.2 0h9.5v-34.3h13.1v-8.7h-35.6v8.7h13.1v34.3h-.1zm30.2 0h9.5v-43h-9.5v43zm20.2 0h32.7v-8.4h-23.3v-9h20.3V129h-20.3v-8.7h23v-8.4h-32.4v42.9zm56.5.7c9.3 0 15.8-4.8 15.8-13.3v-.2c0-7.5-4.9-10.6-13.6-12.9-7.4-1.9-9.3-2.8-9.3-5.7v-.1c0-2.1 1.9-3.8 5.5-3.8s7.4 1.6 11.2 4.2l4.9-7.1c-4.4-3.5-9.7-5.5-16-5.5-8.8 0-15 5.2-15 13v.1c0 8.5 5.6 10.9 14.2 13.2 7.2 1.8 8.7 3.1 8.7 5.5v.1c0 2.5-2.3 4.1-6.2 4.1-4.9 0-9-2-12.8-5.2l-5.6 6.7c5.1 4.6 11.7 6.9 18.2 6.9z"/></svg>