<svg xmlns="http://www.w3.org/2000/svg" role="img" viewBox="-11.18 -11.18 581.36 543.86"><title>Morphir logo</title><style>svg {enable-background:new 0 0 559.2 521.7}</style><style>.st0{fill:#f26a21}</style><path d="M482 484.6h16.2v-77.9H482v77.9zm8.2-88.2c5.7 0 10.2-4.5 10.2-10.3 0-5.8-4.6-10.3-10.2-10.3-5.8 0-10.4 4.5-10.4 10.3.1 5.7 4.6 10.3 10.4 10.3zm45.6 47.2c0-16.5 7.4-21.5 19.3-21.5h4.1v-16.7c-11.1 0-18.9 4.8-23.5 12.6v-11.3h-16.2v77.9h16.2v-41h.1z" class="st0"/><path fill="#16a2dc" d="M254.8 443.6c0-16.5 7.4-21.5 19.3-21.5h4.1v-16.7c-11.1 0-18.9 4.8-23.5 12.6v-11.3h-16.2v77.9h16.2v-41h.1zm54.6-25.5v-11.5h-16.2v115h16.2v-48.4c5.1 6.1 14.4 12.6 27.3 12.6 20.6 0 36.8-16.5 36.8-40.6 0-24-16.2-39.9-36.8-39.9-12.8.1-22.3 6.3-27.3 12.8zm47.7 27.2c0 16.8-11.7 26.6-23.9 26.6-12.1 0-23.8-9.5-23.8-26.3 0-16.7 11.7-26.2 23.8-26.2 12.2 0 23.9 9.1 23.9 25.9zm32.6 39.3h16.2V441c0-14.3 7.8-21.6 19.8-21.6 11.8 0 19.6 7.4 19.6 21.6v43.6h16.1v-46c0-21.8-13.7-33.2-31.2-33.2-10.1 0-18.9 3.8-24.3 10.3v-35.8h-16.2v104.7zm-167.2-39c0-24.5-17.6-40.2-40-40.2-22.3 0-40 15.7-40 40.2 0 24.5 16.9 40.3 39.3 40.3 22.5 0 40.7-15.9 40.7-40.3zm-63.4 0c0-17.7 11-26.2 23.2-26.2 12.1 0 23.6 8.5 23.6 26.2s-11.9 26.3-24 26.3c-12.3 0-22.8-8.6-22.8-26.3zm-48 39h16.1v-46c0-21.8-13.9-33.2-32.3-33.2-11.4 0-22.5 5.9-27.3 15.4-5.4-10.2-15.8-15.4-28.2-15.4-9.4 0-17.9 3.8-23.2 10.2v-8.9H0v77.9h16.2V441c0-14.3 7.8-21.6 19.8-21.6 11.8 0 19.6 7.4 19.6 21.6v43.6h16.1V441c0-14.3 7.8-21.6 19.8-21.6 11.8 0 19.6 7.4 19.6 21.6v43.6zM365 125.1v76l62.9-36.3v-76L365 125.1zm-170.8 92.3v-76l-62.8 36.3v76l62.8-36.3zm88.2-144.8l65.8 38V38L282.4 0v72.6zm-5.5 194l-65.8-38v72.6l65.8 38v-72.6zM197 118.7l65.8-38-62.9-36.3-65.8 38 62.9 36.3zm165.2 101.8l-65.8 38 62.9 36.3 65.8-38-62.9-36.3z"/><path d="M383.1 97L417 77.5l-33.9-19.6V97zM279.6 246.1l67.5-38.3v-76.5L279.6 93l-67.5 38.3v76.5l67.5 38.3zm-14-76.5c0 8.2-6.6 14.8-14.8 14.8-8.2 0-14.8-6.6-14.8-14.8 0-8.2 6.6-14.8 14.8-14.8 8.2 0 14.8 6.6 14.8 14.8zm28 0c0-8.2 6.6-14.8 14.8-14.8s14.8 6.6 14.8 14.8c0 8.2-6.6 14.8-14.8 14.8s-14.8-6.6-14.8-14.8zM267.1 42.9V3.8l-33.9 19.6 33.9 19.5zM142.3 265l33.9 19.6v-39.1L142.3 265zm-12.6-128.3l33.9-19.6-33.9-19.6v39.2zM326 315.9l-33.9-19.6v39.1l33.9-19.5zm103.5-113.4l-33.9 19.6 33.9 19.6v-39.2z" class="st0"/></svg>