<svg xmlns="http://www.w3.org/2000/svg" role="img" xmlns:xlink="http://www.w3.org/1999/xlink" viewBox="-14.39 -14.39 748.28 297.28"><title>Open Developer Platform logo</title><style>svg {enable-background:new 0 0 720 268.64}</style><style>.st1{fill:#64696f}.st2{fill:#b02e3c}</style><defs><path id="SVGID_1_" d="M268.64 134.33c0-67.43-49.69-123.24-114.44-132.85v52.07h28.58c.56-2.14 2.43-3.75 4.74-3.75 2.76 0 4.99 2.24 4.99 5s-2.23 5-4.99 5c-2.32 0-4.18-1.61-4.74-3.75h-31.07V1.16C146.01.42 140.22 0 134.33 0c-3.95 0-7.83.26-11.69.59v84.17h11.69c27.38 0 49.57 22.19 49.57 49.57 0 27.37-22.19 49.56-49.57 49.56-4.05 0-11.69-.01-11.69-.01v84.17c3.86.33 7.74.59 11.69.59 44.52 0 83.96-21.67 108.4-55.02v-22.7h-56.15v28.38h-38.27c-.57 2.14-2.43 3.75-4.74 3.75-2.76 0-4.99-2.24-4.99-4.99 0-2.76 2.24-4.99 4.99-4.99 2.32 0 4.18 1.61 4.74 3.75h35.77v-28.38h61.14v21.69c13.32-19.46 21.65-42.6 23.15-67.58.04-1.02.04-1.94.04-1.94l-53.77-.01V84.83c-2.14-.57-3.75-2.43-3.75-4.74 0-2.76 2.23-4.99 5-4.99 2.76 0 4.99 2.23 4.99 4.99 0 2.32-1.61 4.18-3.75 4.74v53.28l51.45.02c.02-.03.06-3.28.06-3.8z"/></defs><linearGradient id="SVGID_2_" x1="195.64" x2="195.64" y1="0" y2="268.64" gradientUnits="userSpaceOnUse"><stop offset="0" stop-color="#e54152"/><stop offset=".998" stop-color="#b0313c"/></linearGradient><use fill="url(#SVGID_2_)" overflow="visible" xlink:href="#SVGID_1_"/><clipPath id="SVGID_3_"><use overflow="visible" xlink:href="#SVGID_1_"/></clipPath><g clip-path="url(#SVGID_3_)"><defs><path id="SVGID_4_" d="M122.63.01h146.01v268.64H122.63z"/></defs><clipPath id="SVGID_5_"><use overflow="visible" xlink:href="#SVGID_4_"/></clipPath></g><defs><path id="SVGID_6_" d="M76.1 165.35V13.43c-11.22 5.41-21.57 12.33-30.79 20.49v74.31c2.14.57 3.75 2.43 3.75 4.74 0 2.76-2.24 5-5 5s-5-2.23-5-5c0-2.32 1.61-4.18 3.75-4.74V36.28C16.52 60.76 0 95.56 0 134.33c0 53.29 31.12 99.2 76.1 120.91v-87.39H41.11c-.57 2.14-2.43 3.75-4.74 3.75-2.76 0-5-2.23-5-4.99s2.24-5 5-5c2.32 0 4.18 1.61 4.74 3.75l34.99-.01z"/></defs><linearGradient id="SVGID_7_" x1="38.05" x2="38.05" y1="255.24" y2="13.43" gradientUnits="userSpaceOnUse"><stop offset="0" stop-color="#e54152"/><stop offset=".998" stop-color="#b0313c"/></linearGradient><use fill="url(#SVGID_7_)" overflow="visible" xlink:href="#SVGID_6_"/><clipPath id="SVGID_8_"><use overflow="visible" xlink:href="#SVGID_6_"/></clipPath><path d="M381.63 237.85c0 2.87.8 5.11 2.4 6.71 1.6 1.6 3.79 2.4 6.56 2.4 1.25 0 2.69-.17 4.32-.5s3.04-.75 4.24-1.24l-1.14-5.88c-.71.28-1.47.51-2.28.7-.82.19-1.52.29-2.12.29-1.52 0-2.7-.46-3.54-1.37s-1.26-2.17-1.26-3.77v-49.31h-7.17l-.01 51.97zm43.38 7.34c2.9-1.35 5.31-3.33 7.21-5.93l.16 3.07c.16 1.22.66 2.25 1.51 3.11.84.86 1.97 1.28 3.38 1.28.54 0 1.06-.03 1.55-.08s1.11-.14 1.87-.25v-6.3c-1.52-.05-2.28-.94-2.28-2.65v-17.65c0-5.53-1.56-9.81-4.68-12.85s-7.48-4.56-13.07-4.56c-5.54 0-11.05 1.88-16.54 5.63l2.36 4.73c4.72-3.37 9.23-5.06 13.52-5.06 3.58 0 6.35 1.01 8.31 3.03s2.93 4.79 2.93 8.33v3.48c-1.63-.66-3.5-1.19-5.62-1.58s-4.21-.58-6.27-.58c-2.61 0-5.01.33-7.21.99-2.2.66-4.1 1.58-5.7 2.74s-2.84 2.56-3.71 4.18c-.87 1.63-1.3 3.44-1.3 5.43 0 1.93.37 3.72 1.1 5.35s1.74 3.05 3.01 4.27c1.28 1.22 2.78 2.17 4.52 2.86s3.61 1.04 5.62 1.04c3.31 0 6.42-.68 9.33-2.03zm-11.12-4.11c-1.14-.44-2.13-1.05-2.97-1.82s-1.49-1.68-1.96-2.73c-.46-1.05-.69-2.18-.69-3.4 0-2.49 1.13-4.5 3.38-6.05s5.17-2.32 8.76-2.32c3.75 0 7.36.69 10.83 2.07v6.38c0 1.11-.52 2.18-1.55 3.23-1.14 1.6-2.81 2.89-5.01 3.85-2.2.97-4.58 1.45-7.13 1.45-1.3.01-2.52-.21-3.66-.66zm55.96-2.65c-.44.28-1.24.65-2.4 1.12-1.17.47-2.46.7-3.87.7-1.25 0-2.34-.36-3.26-1.08-.92-.72-1.44-1.88-1.55-3.48v-26.85h9.53v-5.72h-9.53V188.7h-7.17v14.42h-5.78v5.72h5.78v29.09c0 3.1.95 5.37 2.85 6.84 1.9 1.47 4.16 2.2 6.76 2.2 1.14 0 2.24-.1 3.3-.29s2.04-.44 2.93-.75c.9-.3 1.7-.61 2.4-.91s1.27-.57 1.71-.79l-1.7-5.8zm17.83 7.96v-37.55H499v-5.72h-11.32v-1.16c0-3.48.62-6.13 1.87-7.96 1.25-1.82 3.07-2.74 5.46-2.74 1.09 0 2.18.17 3.3.5 1.11.33 2.05.77 2.81 1.33l1.79-5.39c-1.3-.83-2.77-1.48-4.4-1.95s-3.29-.71-4.97-.71c-4.02 0-7.2 1.52-9.53 4.56s-3.5 7.24-3.5 12.6v.91h-5.78v5.72h5.78v37.55h7.17v.01zm44.85-1c2.63-1.22 4.9-2.85 6.8-4.89 1.9-2.04 3.37-4.42 4.4-7.13s1.55-5.55 1.55-8.54c0-3.04-.53-5.91-1.59-8.62-1.06-2.71-2.52-5.08-4.4-7.13-1.87-2.04-4.14-3.67-6.8-4.89s-5.57-1.82-8.72-1.82c-3.15 0-6.04.61-8.68 1.82-2.64 1.22-4.89 2.85-6.76 4.89-1.87 2.05-3.34 4.42-4.4 7.13-1.06 2.71-1.59 5.58-1.59 8.62 0 2.98.52 5.83 1.55 8.54 1.03 2.71 2.49 5.09 4.36 7.13s4.13 3.67 6.76 4.89c2.63 1.22 5.55 1.82 8.76 1.82 3.2.01 6.12-.6 8.76-1.82zm-21.75-26.81c.73-1.96 1.74-3.67 3.01-5.14 1.28-1.46 2.77-2.62 4.48-3.48 1.71-.86 3.54-1.28 5.5-1.28 1.95 0 3.79.41 5.5 1.24s3.22 1.98 4.52 3.44c1.3 1.46 2.32 3.18 3.05 5.14s1.1 4.05 1.1 6.26c0 2.27-.37 4.38-1.1 6.34s-1.75 3.67-3.05 5.14c-1.3 1.46-2.81 2.61-4.52 3.44s-3.54 1.24-5.5 1.24-3.79-.41-5.5-1.24-3.2-1.96-4.48-3.4c-1.28-1.44-2.28-3.12-3.01-5.06-.73-1.93-1.1-4.03-1.1-6.3 0-2.26.36-4.38 1.1-6.34zm65.69-15.7c-.27-.06-.6-.08-.98-.08h-1.38c-2.72.22-5.27 1.26-7.66 3.11-2.39 1.85-4.32 4.27-5.78 7.25v-10.03h-6.68v43.27h7.17v-26.69c1.14-3.15 3.08-5.61 5.82-7.38 2.74-1.77 5.91-2.71 9.49-2.82v-6.63zm71.2 17.65c0-2.6-.22-5-.65-7.21-.43-2.21-1.14-4.13-2.12-5.76s-2.29-2.9-3.95-3.81c-1.66-.91-3.71-1.37-6.15-1.37-7.01 0-12.41 3.51-16.21 10.53-.49-3.09-1.78-5.62-3.87-7.58s-4.93-2.94-8.51-2.94c-3.48 0-6.6.87-9.37 2.61s-5.02 4.21-6.76 7.42v-9.28h-6.52v43.27h7.17V220.3c.98-3.43 2.63-6.18 4.97-8.25 2.33-2.07 4.94-3.11 7.82-3.11 2.82 0 4.94 1.05 6.35 3.15s2.12 5.47 2.12 10.11v24.2h7.17v-26.02c.98-3.37 2.62-6.12 4.93-8.25s4.93-3.19 7.86-3.19c2.82 0 4.95 1.08 6.4 3.23 1.44 2.15 2.16 5.5 2.16 10.03v24.2h7.17l-.01-25.87z" class="st1"/><path d="M345.79 246.39v-18.07h9.45c2.82 0 5.42-.56 7.78-1.7 2.36-1.13 4.37-2.65 6.03-4.56s2.95-4.09 3.87-6.55c.92-2.46 1.38-4.99 1.38-7.58 0-2.49-.49-4.96-1.47-7.42s-2.32-4.64-4.03-6.55c-1.71-1.91-3.76-3.45-6.15-4.64-2.39-1.19-5-1.78-7.82-1.78H329.9v58.85h15.89zm0-44.76h7.98c.98 0 1.95.44 2.93 1.33.98.88 1.47 2.54 1.47 4.97 0 2.38-.42 4.02-1.26 4.93s-1.75 1.37-2.73 1.37h-8.39v-12.6z" class="st2"/><path d="M413.97 163.51c1.96-.55 3.73-1.31 5.33-2.28 1.6-.97 3.01-2.11 4.24-3.44 1.22-1.33 2.18-2.79 2.89-4.39l-6.19-1.74c-.43 1.11-1.07 2.1-1.91 2.98s-1.81 1.63-2.89 2.24c-1.09.61-2.25 1.09-3.5 1.45-1.25.36-2.53.54-3.83.54-1.85 0-3.6-.36-5.25-1.08-1.66-.72-3.14-1.71-4.44-2.98-1.3-1.27-2.36-2.79-3.18-4.56-.81-1.77-1.3-3.73-1.47-5.88h35.27c.05-.27.09-.66.12-1.16s.04-1.05.04-1.66c0-2.87-.5-5.65-1.51-8.33-1-2.68-2.43-5.03-4.28-7.04-1.85-2.02-4.09-3.63-6.72-4.85-2.63-1.21-5.55-1.82-8.76-1.82s-6.14.59-8.8 1.78c-2.66 1.19-4.96 2.8-6.88 4.85-1.93 2.05-3.42 4.42-4.48 7.13s-1.59 5.58-1.59 8.62.53 5.93 1.59 8.66 2.54 5.13 4.44 7.17c1.9 2.05 4.18 3.66 6.84 4.85s5.59 1.78 8.8 1.78c2.13-.02 4.16-.29 6.12-.84zm-20.37-24.54c.16-2.04.64-3.92 1.43-5.64.79-1.71 1.82-3.19 3.1-4.43 1.27-1.24 2.76-2.21 4.44-2.9s3.47-1.04 5.38-1.04c1.9 0 3.69.35 5.38 1.04 1.68.69 3.16 1.64 4.44 2.86 1.28 1.22 2.33 2.69 3.18 4.43.84 1.74 1.34 3.63 1.51 5.68H393.6zm62.4 24.54l16.78-43.26h-6.84l-13.52 36.88-13.44-36.88h-7.41l16.78 43.26H456zm47.33 0c1.95-.55 3.73-1.31 5.34-2.28 1.6-.97 3.01-2.11 4.23-3.44 1.22-1.33 2.19-2.79 2.89-4.39l-6.19-1.74c-.44 1.11-1.07 2.1-1.91 2.98-.84.88-1.81 1.63-2.89 2.24-1.09.61-2.25 1.09-3.5 1.45-1.25.36-2.53.54-3.83.54-1.85 0-3.6-.36-5.25-1.08-1.66-.72-3.14-1.71-4.44-2.98-1.3-1.27-2.36-2.79-3.18-4.56-.81-1.77-1.3-3.73-1.47-5.88h35.27c.05-.27.09-.66.12-1.16.03-.5.04-1.05.04-1.66 0-2.87-.5-5.65-1.51-8.33s-2.43-5.03-4.28-7.04c-1.85-2.02-4.09-3.63-6.72-4.85-2.64-1.21-5.55-1.82-8.76-1.82s-6.14.59-8.8 1.78-4.96 2.8-6.88 4.85c-1.93 2.05-3.42 4.42-4.48 7.13s-1.59 5.58-1.59 8.62.53 5.93 1.59 8.66 2.54 5.13 4.44 7.17c1.9 2.05 4.18 3.66 6.84 4.85 2.66 1.19 5.59 1.78 8.8 1.78 2.13-.02 4.16-.29 6.12-.84zm-20.37-24.54c.16-2.04.64-3.92 1.42-5.64.79-1.71 1.82-3.19 3.1-4.43 1.27-1.24 2.76-2.21 4.44-2.9s3.47-1.04 5.38-1.04c1.9 0 3.69.35 5.38 1.04 1.68.69 3.16 1.64 4.44 2.86 1.28 1.22 2.33 2.69 3.18 4.43.84 1.74 1.34 3.63 1.51 5.68h-28.85zm43.74 16c0 2.87.8 5.11 2.4 6.71 1.6 1.6 3.79 2.4 6.56 2.4 1.25 0 2.69-.17 4.32-.5s3.04-.75 4.24-1.24l-1.14-5.89c-.71.28-1.47.51-2.28.71-.82.19-1.52.29-2.12.29-1.52 0-2.7-.46-3.54-1.37s-1.26-2.17-1.26-3.77v-49.32h-7.17v51.98h-.01zm50.47 7.54c2.63-1.21 4.9-2.85 6.8-4.89 1.9-2.04 3.37-4.42 4.4-7.13s1.55-5.55 1.55-8.54c0-3.04-.53-5.91-1.59-8.62s-2.53-5.08-4.4-7.13c-1.87-2.04-4.14-3.67-6.8-4.89-2.66-1.21-5.57-1.82-8.72-1.82-3.15 0-6.04.61-8.67 1.82-2.64 1.22-4.89 2.85-6.76 4.89-1.87 2.05-3.34 4.42-4.4 7.13s-1.59 5.58-1.59 8.62c0 2.98.52 5.83 1.55 8.54 1.03 2.71 2.48 5.08 4.36 7.13 1.87 2.04 4.13 3.68 6.76 4.89 2.63 1.21 5.55 1.82 8.76 1.82 3.19 0 6.11-.6 8.75-1.82zm-21.75-26.81c.73-1.96 1.74-3.67 3.01-5.14 1.27-1.46 2.77-2.62 4.48-3.48 1.71-.86 3.54-1.29 5.5-1.29s3.79.41 5.5 1.24 3.22 1.98 4.52 3.44c1.3 1.46 2.32 3.18 3.05 5.14.73 1.96 1.1 4.05 1.1 6.26 0 2.27-.37 4.38-1.1 6.34s-1.75 3.68-3.05 5.14c-1.3 1.46-2.81 2.61-4.52 3.44-1.71.83-3.54 1.24-5.5 1.24-1.95 0-3.79-.41-5.5-1.24s-3.21-1.96-4.48-3.4c-1.28-1.44-2.28-3.12-3.01-5.06-.73-1.93-1.1-4.03-1.1-6.3 0-2.25.37-4.37 1.1-6.33zm73.84 26.85c2.33-1.19 4.34-2.79 6.03-4.81 1.68-2.02 2.99-4.39 3.91-7.13s1.39-5.65 1.39-8.74c0-2.93-.5-5.75-1.51-8.45-1.01-2.71-2.4-5.1-4.19-7.17s-3.91-3.72-6.35-4.93-5.13-1.82-8.06-1.82c-3.26 0-6.23.82-8.92 2.45s-4.88 3.77-6.56 6.42v-8.12h-6.35v60.92h7.17v-26.19c1.57 2.71 3.71 4.95 6.39 6.71 2.69 1.77 5.8 2.65 9.33 2.65 2.8-.01 5.38-.6 7.72-1.79zm-14.17-5.3c-1.36-.52-2.63-1.24-3.83-2.15-1.19-.91-2.25-1.99-3.18-3.23-.92-1.24-1.68-2.58-2.28-4.02V135.5c.27-1.33.85-2.58 1.75-3.77s1.95-2.21 3.18-3.07c1.22-.86 2.52-1.55 3.91-2.07 1.38-.52 2.73-.79 4.03-.79 2.06 0 3.98.43 5.74 1.29 1.76.86 3.3 2.02 4.6 3.48 1.3 1.46 2.34 3.18 3.1 5.14.76 1.96 1.14 4.02 1.14 6.18 0 2.04-.33 4.03-.98 5.97-.65 1.93-1.59 3.66-2.81 5.18s-2.69 2.74-4.4 3.65-3.63 1.37-5.74 1.37c-1.47-.02-2.88-.29-4.23-.81zm59.21 6.26c1.95-.55 3.73-1.31 5.34-2.28 1.6-.97 3.01-2.11 4.24-3.44 1.22-1.33 2.19-2.79 2.89-4.39l-6.19-1.74c-.44 1.11-1.07 2.1-1.91 2.98-.84.88-1.81 1.63-2.89 2.24-1.09.61-2.25 1.09-3.5 1.45-1.25.36-2.53.54-3.83.54-1.85 0-3.6-.36-5.25-1.08-1.66-.72-3.14-1.71-4.44-2.98-1.3-1.27-2.36-2.79-3.18-4.56-.81-1.77-1.3-3.73-1.47-5.88h35.27c.05-.27.09-.66.12-1.16.03-.5.04-1.05.04-1.66 0-2.87-.5-5.65-1.51-8.33s-2.43-5.03-4.28-7.04c-1.85-2.02-4.09-3.63-6.72-4.85-2.63-1.21-5.55-1.82-8.76-1.82s-6.14.59-8.8 1.78-4.96 2.8-6.88 4.85c-1.93 2.05-3.42 4.42-4.48 7.13s-1.59 5.58-1.59 8.62.53 5.93 1.59 8.66 2.54 5.13 4.44 7.17c1.9 2.05 4.18 3.66 6.84 4.85 2.66 1.19 5.59 1.78 8.8 1.78 2.12-.02 4.16-.29 6.11-.84zm-20.36-24.54c.16-2.04.64-3.92 1.43-5.64.79-1.71 1.82-3.19 3.09-4.43 1.28-1.24 2.76-2.21 4.44-2.9s3.47-1.04 5.38-1.04c1.9 0 3.69.35 5.38 1.04 1.68.69 3.16 1.64 4.44 2.86 1.27 1.22 2.33 2.69 3.18 4.43.84 1.74 1.34 3.63 1.51 5.68h-28.85zM720 119.99c-.27-.05-.6-.08-.98-.08h-1.38c-2.72.22-5.27 1.26-7.66 3.11-2.39 1.85-4.32 4.27-5.78 7.25v-10.03h-6.68v43.26h7.17v-26.69c1.14-3.15 3.08-5.61 5.82-7.38 2.74-1.77 5.91-2.71 9.49-2.82v-6.62z" class="st1"/><path d="M352.14 163.51c4.4 0 8.39-.7 11.97-2.11s6.65-3.4 9.2-5.97c2.55-2.57 4.52-5.66 5.91-9.28s2.08-7.67 2.08-12.14c0-4.03-.62-7.83-1.87-11.4-1.25-3.56-3.1-6.67-5.54-9.32s-5.49-4.75-9.12-6.3c-3.64-1.55-7.85-2.32-12.63-2.32H329.9v58.85h22.24v-.01zm12.18-23.38c-.57 1.88-1.41 3.51-2.52 4.89s-2.48 2.46-4.11 3.23c-1.63.77-3.48 1.16-5.54 1.16h-6.35v-30.67h6.35c2.01 0 3.83.37 5.46 1.12s3 1.78 4.11 3.11 1.97 2.93 2.57 4.81.9 3.95.9 6.22c-.01 2.21-.3 4.26-.87 6.13z" class="st2"/><path d="M423.66 79.67c2.33-1.19 4.34-2.79 6.03-4.81 1.68-2.02 2.99-4.39 3.91-7.13s1.38-5.65 1.38-8.74c0-2.93-.5-5.75-1.51-8.45-1.01-2.71-2.4-5.1-4.2-7.17-1.79-2.07-3.91-3.72-6.35-4.93s-5.13-1.82-8.06-1.82c-3.26 0-6.23.82-8.92 2.45s-4.88 3.77-6.56 6.42v-8.12h-6.35v60.92h7.17V72.1c1.57 2.71 3.71 4.95 6.39 6.71 2.69 1.77 5.8 2.65 9.33 2.65 2.83-.01 5.41-.6 7.74-1.79zm-14.17-5.3c-1.36-.52-2.63-1.24-3.83-2.15-1.2-.91-2.25-1.99-3.18-3.23-.92-1.24-1.68-2.58-2.28-4.02V52.61c.27-1.33.86-2.58 1.75-3.77.9-1.19 1.95-2.21 3.18-3.07 1.22-.86 2.53-1.55 3.91-2.07 1.39-.52 2.73-.79 4.03-.79 2.06 0 3.98.43 5.74 1.28 1.76.86 3.3 2.02 4.6 3.48 1.3 1.46 2.33 3.18 3.1 5.14.76 1.96 1.14 4.02 1.14 6.17 0 2.04-.32 4.03-.98 5.97-.65 1.93-1.59 3.66-2.81 5.18s-2.69 2.73-4.4 3.65c-1.71.91-3.62 1.37-5.74 1.37-1.46 0-2.87-.26-4.23-.78zm59.22 6.25c1.95-.55 3.73-1.31 5.33-2.28 1.6-.97 3.01-2.11 4.24-3.44 1.22-1.33 2.18-2.79 2.89-4.39l-6.19-1.74c-.43 1.11-1.07 2.1-1.91 2.98-.84.88-1.81 1.63-2.89 2.24-1.09.61-2.25 1.09-3.5 1.45-1.25.36-2.53.54-3.83.54-1.85 0-3.6-.36-5.25-1.08-1.66-.72-3.14-1.71-4.44-2.98-1.3-1.27-2.36-2.79-3.18-4.56s-1.3-3.73-1.47-5.88h35.27c.05-.28.09-.66.12-1.16.03-.5.04-1.05.04-1.66 0-2.87-.5-5.65-1.51-8.33s-2.43-5.03-4.28-7.04c-1.85-2.02-4.09-3.63-6.72-4.85-2.63-1.21-5.55-1.82-8.76-1.82s-6.14.59-8.8 1.78-4.96 2.8-6.88 4.85c-1.93 2.04-3.42 4.42-4.48 7.13s-1.59 5.58-1.59 8.62.53 5.93 1.59 8.66c1.06 2.74 2.54 5.13 4.44 7.17 1.9 2.05 4.18 3.66 6.84 4.85 2.66 1.19 5.59 1.78 8.8 1.78 2.13-.01 4.16-.28 6.12-.84zm-20.37-24.53c.16-2.04.64-3.92 1.43-5.64.79-1.71 1.82-3.19 3.09-4.43 1.28-1.24 2.76-2.21 4.44-2.9s3.47-1.04 5.38-1.04c1.9 0 3.69.35 5.38 1.04 1.68.69 3.16 1.64 4.44 2.86 1.28 1.22 2.33 2.69 3.18 4.43.84 1.74 1.34 3.63 1.51 5.68h-28.85zm80.48-1.32c0-2.6-.2-5-.61-7.21s-1.1-4.13-2.08-5.76-2.28-2.9-3.91-3.81-3.66-1.37-6.11-1.37c-3.75 0-7.21.91-10.39 2.74-3.18 1.82-5.61 4.26-7.29 7.29v-9.28h-6.52v43.26h7.17V54.52c.49-1.66 1.22-3.18 2.2-4.56.98-1.38 2.12-2.57 3.42-3.56s2.69-1.78 4.15-2.36c1.47-.58 2.93-.87 4.4-.87 2.82 0 4.93 1.05 6.31 3.15s2.08 5.47 2.08 10.11v24.2h7.17l.01-25.86z" class="st1"/><path d="M367.82 78.63c3.61-1.66 6.72-3.85 9.33-6.59s4.64-5.88 6.11-9.45c1.47-3.56 2.2-7.28 2.2-11.15 0-3.76-.69-7.43-2.08-11.02-1.38-3.59-3.35-6.8-5.91-9.61-2.55-2.82-5.62-5.08-9.2-6.8-3.58-1.71-7.58-2.57-11.97-2.57-4.29 0-8.24.82-11.85 2.45-3.61 1.63-6.73 3.81-9.37 6.55-2.63 2.74-4.68 5.9-6.15 9.49s-2.2 7.32-2.2 11.19c0 3.81.7 7.51 2.12 11.11 1.41 3.59 3.39 6.78 5.95 9.57 2.55 2.79 5.62 5.04 9.2 6.75 3.58 1.71 7.58 2.57 11.97 2.57 4.29 0 8.24-.83 11.85-2.49zm-24.19-33.02c.52-1.85 1.32-3.51 2.4-4.97 1.09-1.46 2.46-2.64 4.11-3.52 1.66-.88 3.63-1.33 5.91-1.33 2.23 0 4.17.43 5.82 1.28 1.66.86 3.04 1.99 4.15 3.4s1.94 3.04 2.48 4.89.81 3.77.81 5.76c0 1.93-.26 3.84-.77 5.72-.52 1.88-1.3 3.55-2.36 5.01-1.06 1.46-2.43 2.65-4.11 3.56s-3.67 1.37-5.95 1.37-4.25-.44-5.91-1.33c-1.66-.88-3.03-2.04-4.11-3.48-1.09-1.44-1.9-3.08-2.44-4.93s-.81-3.77-.81-5.76c.01-1.93.26-3.82.78-5.67z" class="st2"/></svg>