<svg xmlns="http://www.w3.org/2000/svg" role="img" viewBox="-14.39 -14.39 748.28 291.28"><title>Open Reg Tech US LCR logo</title><style>svg {enable-background:new 0 0 720 262.6}</style><path fill="#00bce7" d="M375.1 0v262.6h1.5V0h-1.5zm104.2 156.7c2.8-1 5.1-2.4 7-4.4 1.9-2 3.4-4.4 4.5-7.3 1.1-2.9 1.6-6.3 1.6-10.2v-29.5h-9.1v30c0 4.8-1.2 8.4-3.5 10.9-2.3 2.4-5.6 3.6-9.6 3.6-4.1 0-7.4-1.3-9.7-3.8-2.3-2.5-3.5-6.2-3.5-11.1v-29.6h-9.1v30c0 3.8.5 7.1 1.6 9.9 1 2.9 2.5 5.2 4.5 7.2 1.9 1.9 4.3 3.4 7 4.4 2.7 1 5.8 1.5 9.1 1.5 3.4-.2 6.4-.6 9.2-1.6zm51.5.3c2.3-.7 4.2-1.7 5.8-3 1.6-1.3 2.9-3 3.8-4.9.9-1.9 1.4-4.1 1.4-6.5v-.1c0-2.1-.4-4-1.1-5.6-.7-1.6-1.8-3-3.2-4.2-1.4-1.2-3.1-2.2-5.3-3.1-2.1-.8-4.5-1.6-7.3-2.3-2.5-.6-4.5-1.2-6.2-1.7-1.6-.5-2.9-1.1-3.8-1.7-.9-.6-1.6-1.3-1.9-2.1-.3-.8-.5-1.6-.5-2.6v-.1c0-1.7.7-3.2 2.2-4.4 1.5-1.2 3.6-1.8 6.2-1.8 2.4 0 4.7.5 7.1 1.4 2.3.9 4.7 2.2 7.1 4l4.9-6.9c-2.7-2.1-5.5-3.8-8.6-4.9-3-1.1-6.5-1.7-10.3-1.7-2.6 0-5 .4-7.1 1.1-2.2.7-4 1.8-5.6 3.1-1.5 1.3-2.8 2.9-3.7 4.8-.9 1.9-1.3 3.9-1.3 6.1v.1c0 2.4.4 4.4 1.2 6.1.8 1.7 1.9 3.1 3.4 4.3 1.5 1.2 3.3 2.2 5.4 3 2.2.8 4.6 1.5 7.4 2.2 2.4.5 4.4 1.1 5.9 1.6s2.7 1.1 3.6 1.8c.9.6 1.5 1.3 1.8 2 .3.7.5 1.6.5 2.5v.1c0 2-.8 3.6-2.5 4.8-1.7 1.2-3.9 1.8-6.7 1.8-3.3 0-6.2-.6-8.8-1.7-2.6-1.2-5.1-2.8-7.7-5l-5.5 6.5c3.1 2.8 6.5 4.9 10.2 6.3 3.7 1.4 7.5 2 11.5 2 2.9-.2 5.4-.6 7.7-1.3zm44.1.3h36.4V149H584v-43.8h-9.1v52.1zm76.9.3c2-.4 3.9-1 5.5-1.9 1.7-.8 3.3-1.8 4.7-2.9 1.5-1.1 2.9-2.4 4.2-3.8l-5.9-6c-2.2 2.1-4.5 3.7-6.8 4.9-2.3 1.2-5 1.8-8.2 1.8-2.5 0-4.8-.5-6.9-1.5-2.1-1-3.9-2.3-5.5-4-1.5-1.7-2.7-3.7-3.6-5.9-.8-2.3-1.3-4.6-1.3-7.2v-.1c0-2.5.4-4.9 1.3-7.1.8-2.2 2-4.2 3.6-5.8 1.5-1.7 3.4-3 5.5-3.9 2.1-1 4.4-1.5 6.9-1.5 3 0 5.6.6 8 1.8 2.3 1.2 4.5 2.8 6.6 4.7l5.9-6.8c-1.2-1.2-2.6-2.3-3.9-3.3-1.4-1-2.9-1.8-4.5-2.6-1.6-.7-3.4-1.3-5.4-1.7-2-.4-4.1-.6-6.5-.6-4 0-7.6.7-10.9 2.1-3.3 1.4-6.1 3.3-8.5 5.8-2.4 2.5-4.3 5.3-5.6 8.6-1.3 3.2-2 6.7-2 10.4v.1c0 3.7.7 7.2 2 10.5s3.2 6.1 5.6 8.5c2.4 2.4 5.2 4.3 8.4 5.7 3.2 1.4 6.7 2.1 10.6 2.1 2.5.2 4.7 0 6.7-.4zm33.1-26.5v-17.6h13.4c3.4 0 6.1.7 8 2.2 1.9 1.5 2.8 3.6 2.8 6.5v.1c0 2.7-1 4.8-2.9 6.4-1.9 1.6-4.6 2.4-7.8 2.4h-13.5zm-9.1 26.2h9.1v-18.1h11.4l12.8 18.1H720l-14.1-19.7c1.8-.5 3.5-1.2 5-2.1 1.5-.9 2.8-2 3.9-3.3 1.1-1.3 1.9-2.8 2.6-4.5.6-1.7.9-3.6.9-5.8v-.1c0-2.3-.4-4.4-1.1-6.2-.7-1.9-1.8-3.5-3.2-5-1.7-1.6-3.8-2.9-6.3-3.8-2.5-.9-5.4-1.4-8.7-1.4h-23.2v51.9zM22.2 260.8h20.5v-56.1H65v-18H0v18h22.2v56.1zm53.3 0h60v-17.5H95.7v-11.8h35.6v-16.2H95.7v-11.2H135v-17.5H75.5v74.2zm118.8.2c3.3-.8 6.2-2 8.9-3.5 2.6-1.5 5-3.2 7.1-5.3 2.1-2 4-4.3 5.8-6.7l-15.5-11c-1.1 1.3-2.3 2.6-3.4 3.7-1.2 1.1-2.4 2-3.7 2.9-1.3.8-2.8 1.4-4.3 1.9-1.6.4-3.3.6-5.2.6-2.6 0-5-.5-7.1-1.5-2.2-1-4-2.4-5.6-4.2-1.6-1.8-2.8-3.9-3.7-6.3-.9-2.4-1.3-5-1.3-7.8v-.2c0-2.7.4-5.2 1.3-7.6.9-2.4 2.1-4.5 3.7-6.2 1.6-1.8 3.4-3.2 5.6-4.2 2.2-1 4.5-1.5 7.1-1.5 3.6 0 6.7.8 9.2 2.3 2.5 1.6 4.9 3.7 7 6.4l15.5-12c-1.6-2.3-3.5-4.3-5.6-6.2-2.1-1.9-4.4-3.5-7-4.9-2.6-1.4-5.4-2.4-8.5-3.2-3.1-.7-6.6-1.1-10.4-1.1-5.6 0-10.9 1-15.6 3-4.8 2-8.9 4.7-12.3 8.2-3.5 3.5-6.2 7.6-8.2 12.3-2 4.7-3 9.7-3 15.1v.2c0 5.5 1 10.6 3 15.3 2 4.7 4.7 8.8 8.2 12.2 3.4 3.4 7.5 6.1 12.1 8 4.7 1.9 9.6 2.9 14.9 2.9 4.1-.3 7.8-.7 11-1.6zm32.1-.2h20.5v-28.2h26.4v28.2h20.5v-74.1h-20.5v27.7h-26.4v-27.7h-20.5v74.1zM7.3 169h8.4v-28.8h21.2L58.3 169h10.3l-22.8-30.3c11.6-2.1 20.1-9.3 20.1-21.6v-.1c0-5.8-2.1-11-5.7-14.6-4.7-4.7-12-7.4-21.1-7.4H7.3v74zm8.4-36.3v-30.1h22.9c12 0 19 5.5 19 14.6v.2c0 9.5-7.9 15.2-19.1 15.2H15.7v.1zM83.9 169H138v-7.6H92.2v-25.9h40.4v-7.6H92.2v-25.3h45.2V95H83.9v74zm105.3 1.3c12.5 0 22.9-5.2 29.8-11.3v-29.5h-30.6v7.5H211v18.4c-5.1 4.1-12.9 7.4-21.4 7.4-18 0-29.3-13.1-29.3-30.8v-.2c0-16.5 11.8-30.4 28.2-30.4 10.5 0 16.8 3.5 22.6 8.5l5.4-6.4c-7.4-6.2-15.1-9.8-27.6-9.8-22.2 0-37.2 18-37.2 38.3v.2c-.2 21.2 14.2 38.1 37.5 38.1zM33.8 58.6c-2.3-1.1-4.3-2.6-6-4.4-1.7-1.8-3-4-3.9-6.4-.9-2.4-1.4-4.9-1.4-7.6V40c0-2.7.4-5.2 1.3-7.6.9-2.4 2.2-4.5 3.8-6.3 1.7-1.8 3.6-3.2 5.9-4.3 2.3-1.1 4.9-1.6 7.7-1.6s5.4.5 7.8 1.6c2.3 1.1 4.4 2.6 6.1 4.4 1.7 1.8 3 4 3.9 6.4.9 2.4 1.4 4.9 1.4 7.6v.2c0 2.7-.5 5.2-1.4 7.6-.9 2.4-2.2 4.5-3.8 6.3-1.6 1.8-3.6 3.2-5.9 4.3-2.3 1.1-4.9 1.6-7.8 1.6-2.8 0-5.4-.5-7.7-1.6zm23.5 17.2c4.9-2 9.1-4.8 12.7-8.3 3.6-3.5 6.4-7.6 8.4-12.3 2-4.7 3-9.7 3-15V40c0-5.3-1-10.3-3-14.9-2-4.7-4.8-8.7-8.3-12.2-3.5-3.5-7.7-6.2-12.6-8.2-4.9-2-10.2-3-15.9-3s-11 1-15.9 3S16.6 9.5 13 13c-3.6 3.5-6.4 7.6-8.4 12.3-2 4.7-3 9.7-3 15v.2c0 5.3 1 10.3 3 14.9 2 4.7 4.8 8.7 8.3 12.2 3.5 3.5 7.7 6.2 12.6 8.2 4.9 2 10.2 3 15.9 3 5.7 0 11-1 15.9-3zM114.1 40V20.3h9.6c3.7 0 6.7.8 8.7 2.5 2.1 1.7 3.1 4.1 3.1 7.3v.2c0 3-1 5.3-3.1 7.1-2.1 1.7-5 2.6-8.6 2.6h-9.7zM93.6 77.3h20.5V56.1h10.2c4.6 0 8.8-.6 12.8-1.7 3.9-1.1 7.3-2.8 10.1-5.1s5-5 6.6-8.4c1.6-3.3 2.4-7.2 2.4-11.5v-.2c0-4.1-.7-7.8-2.2-11-1.4-3.2-3.5-6-6.2-8.2-2.7-2.2-5.9-3.9-9.7-5.1-3.8-1.2-8-1.7-12.7-1.7H93.6v74.1zm72.7 0h60V59.8h-39.8V48.1h35.6V31.9h-35.6V20.6h39.3V3.2h-59.5v74.1zm72.1 0h20.2V36.6l31.7 40.7h18V3.2h-20.2v39.2L257.6 3.2h-19.2v74.1z"/></svg>