<svg xmlns="http://www.w3.org/2000/svg" role="img" viewBox="-9.28 -9.28 482.56 246.06"><title>OpenMAMA logo</title><defs><style>.cls-1{fill:#050013}.cls-2{fill:#f3901d}</style></defs><path d="M96.38 170.62c.85-.32 2.06-.81 3.61-1.45a12.22 12.22 0 0 1 4.72-1 19.7 19.7 0 0 1 14.51 5.77q5.78 5.85 5.77 14.91a21 21 0 0 1-1.44 7.81 21.42 21.42 0 0 1-4.25 6.7 18 18 0 0 1-13.78 6.25 26.23 26.23 0 0 1-6.34-.72 13.49 13.49 0 0 1-1.52-.4l-1.36-.48v19.35h-7.86v-58.43h7.94zm16.83 27.69a13 13 0 0 0 3.5-9.34 12.73 12.73 0 0 0-13-13 6.68 6.68 0 0 0-2.88.6c-.86.4-1.61.73-2.25 1l-1.32.56-1 .4v21.4a8.28 8.28 0 0 0 1.2.56q.64.24 1.44.48a14.41 14.41 0 0 0 5.29.88 11.67 11.67 0 0 0 9.02-3.54zm23.64-8.7a12 12 0 0 0 3.61 8.58 12.39 12.39 0 0 0 9.14 3.68 13.45 13.45 0 0 0 6.89-1.68q.89-.48 1.68-1a16.48 16.48 0 0 0 1.68-1.16c.59-.46 1.26-1 2-1.69s1.65-1.48 2.72-2.44v9.86a34.19 34.19 0 0 1-7.13 4.29 20.38 20.38 0 0 1-8.17 1.56 19.58 19.58 0 0 1-14.75-6q-5.77-6-5.77-15.23a22.85 22.85 0 0 1 1.28-7.69 19.57 19.57 0 0 1 3.93-6.58 17.15 17.15 0 0 1 13.38-5.93 16.83 16.83 0 0 1 13 5.53 17.52 17.52 0 0 1 3.76 6.6 30.92 30.92 0 0 1 1.21 9.34zm1.2-6.33h18a29 29 0 0 0-1-2.81 6.74 6.74 0 0 0-1.34-2.24 8.42 8.42 0 0 0-6.25-2.24 9.21 9.21 0 0 0-7.61 3.52 7.57 7.57 0 0 0-.92 1.77c-.33.74-.61 1.41-.88 2.03zm68.45 1.92v23.73h-7.93v-22.52a16.86 16.86 0 0 0-.57-4.73 11 11 0 0 0-1.44-3.21q-1.85-2.47-5.85-2.48a11 11 0 0 0-3.33.44 7.79 7.79 0 0 0-2.52 1.32 23.75 23.75 0 0 0-3.93 4.33v26.85h-7.85v-40h7.85v3a9.85 9.85 0 0 1 1.17-1c.4-.3.81-.58 1.24-.84a15.17 15.17 0 0 1 22.12 8.22 21.8 21.8 0 0 1 1.04 6.89z" class="cls-1"/><path d="M270.38 150.31v58.62h-8.26v-45l-18.75 23.28-18.84-23.25v45h-8.25v-58.65h7.21l19.88 24.28 19.79-24.28zm39.27-.45l27 59.07h-8.74l-8.64-18.92h-24.13l-8.65 18.92h-8.78l27.05-59.07zm-11.06 32.62h17.23l-8.65-18.92zm99.46-32.17v58.62h-8.25v-45l-18.76 23.28-18.83-23.25v45h-8.26v-58.65h7.22l19.87 24.28 19.8-24.28zm39.27-.45l27 59.07h-8.73l-8.65-18.92h-24.12l-8.66 18.92h-8.82l27.09-59.07zm-11.06 32.62h17.23l-8.65-18.92z" class="cls-2"/><path d="M52.2 217.41a28.35 28.35 0 0 1-27.33-20.93 14.86 14.86 0 0 1-23.39 3.19 38.76 38.76 0 0 0 70.23 9.96 28.2 28.2 0 0 1-19.51 7.78zM25.37 160.8a28.35 28.35 0 0 1 27.34 20.93 14.86 14.86 0 0 1 23.39-3.19 38.76 38.76 0 0 0-70.19-9.95 28.18 28.18 0 0 1 19.46-7.79z" class="cls-1"/><path d="M38.78 174.22a14.77 14.77 0 0 1 9 3A25.36 25.36 0 0 0 0 189.11a12 12 0 0 0 23.9 0 14.9 14.9 0 0 1 14.88-14.89zm0 29.77a14.77 14.77 0 0 1-9-3 25.36 25.36 0 0 0 47.78-11.88 11.95 11.95 0 1 0-23.85 0 14.91 14.91 0 0 1-14.93 14.88z" class="cls-2"/><path d="M252.58 104.53A44.19 44.19 0 0 1 210 71.91a23.19 23.19 0 0 1-20.13 11.71 23.09 23.09 0 0 1-16.32-6.74 60.5 60.5 0 0 0 58.12 44 60.44 60.44 0 0 0 51.26-28.44 44 44 0 0 1-30.35 12.09zm-41.81-88.22a44.17 44.17 0 0 1 42.57 32.61 23.24 23.24 0 0 1 20.14-11.71 23.1 23.1 0 0 1 16.32 6.75 60.5 60.5 0 0 0-58.13-44 60.41 60.41 0 0 0-51.25 28.45 43.91 43.91 0 0 1 30.35-12.1z" class="cls-1"/><path d="M231.71 37.22a23 23 0 0 1 14 4.74 39.52 39.52 0 0 0-34.93-21.06 39.26 39.26 0 0 0-27.95 11.58 39.27 39.27 0 0 0-11.57 27.94 18.63 18.63 0 0 0 18.62 18.61 18.63 18.63 0 0 0 18.61-18.61 23.23 23.23 0 0 1 23.22-23.2zm0 46.4a23.1 23.1 0 0 1-14-4.74 39.57 39.57 0 0 0 34.94 21.07 39.3 39.3 0 0 0 27.95-11.58 39.28 39.28 0 0 0 11.57-27.94 18.64 18.64 0 0 0-18.62-18.62 18.64 18.64 0 0 0-18.61 18.62 23.23 23.23 0 0 1-23.23 23.19z" class="cls-2"/></svg>