<svg xmlns="http://www.w3.org/2000/svg" role="img" xmlns:xlink="http://www.w3.org/1999/xlink" viewBox="-11.09 -11.09 392.68 576.68"><title>Open source readiness logo</title><style>svg {enable-background:new 0 0 370.8 554.7}</style><style>.st0{fill:#0b1f41}.st2{fill:#5297c9}.st3{fill:#1670a0}.st6{fill:#fff}</style><path d="M8.5 472.5v-10.7h8.1c2.1 0 3.7.4 4.8 1.3 1.1.9 1.7 2.2 1.7 3.9v.1c0 1.6-.6 2.9-1.8 3.9-1.2 1-2.8 1.4-4.8 1.4h-8v.1zm-5.5 16h5.5v-11h7l7.8 11h6.5l-8.5-12c1.1-.3 2.1-.7 3-1.3.9-.6 1.7-1.2 2.4-2s1.2-1.7 1.6-2.8c.4-1 .6-2.2.6-3.5v-.1c0-1.4-.2-2.6-.7-3.8-.5-1.1-1.1-2.2-1.9-3-1-1-2.3-1.8-3.8-2.3-1.5-.6-3.3-.8-5.3-.8H3v31.6zm40.1 0h23.6v-5H48.6V475h15.8v-5H48.6v-8.1h17.9v-5H43.1v31.6zM89 475.9l5.4-12.6 5.5 12.6H89zm-11 12.6h5.7l3.3-7.6h14.9l3.2 7.6h5.9l-13.9-31.8H92l-14 31.8zm51.3-5.1v-21.6h6.2c1.7 0 3.2.3 4.5.8 1.4.5 2.5 1.3 3.5 2.2.9 1 1.7 2.1 2.2 3.4.5 1.3.8 2.8.8 4.3v.1c0 1.5-.3 3-.8 4.3-.5 1.3-1.3 2.4-2.2 3.4-.9 1-2.1 1.7-3.5 2.2-1.4.5-2.9.8-4.5.8h-6.2v.1zm-5.5 5.1h11.8c2.5 0 4.7-.4 6.8-1.2 2.1-.8 3.8-1.9 5.3-3.3s2.6-3.1 3.5-5c.8-1.9 1.2-4 1.2-6.2v-.1c0-2.2-.4-4.3-1.2-6.2-.8-1.9-2-3.6-3.5-5s-3.3-2.5-5.3-3.3c-2.1-.8-4.3-1.2-6.8-1.2h-11.8v31.5zm43 0h5.5v-31.6h-5.5v31.6zm21.4 0h5.5V466l17.4 22.5h4.6v-31.6h-5.5v21.9l-16.9-21.9h-5.1v31.6zm43.1 0h23.6v-5h-18.1V475h15.8v-5h-15.8v-8.1h17.9v-5h-23.4v31.6zm53.3-.2c1.4-.4 2.6-1 3.6-1.9 1-.8 1.8-1.8 2.3-3 .6-1.2.8-2.5.8-4v-.1c0-1.3-.2-2.4-.7-3.4-.4-1-1.1-1.8-1.9-2.6-.8-.7-1.9-1.4-3.2-1.9-1.3-.5-2.8-1-4.4-1.4-1.5-.4-2.8-.7-3.7-1-1-.3-1.8-.7-2.3-1.1-.6-.4-.9-.8-1.2-1.3-.2-.5-.3-1-.3-1.6v-.1c0-1.1.5-1.9 1.4-2.7.9-.7 2.2-1.1 3.8-1.1 1.4 0 2.9.3 4.3.8 1.4.6 2.8 1.4 4.3 2.4l3-4.2c-1.6-1.3-3.4-2.3-5.2-3-1.9-.7-3.9-1-6.3-1-1.6 0-3 .2-4.3.7-1.3.5-2.5 1.1-3.4 1.9-.9.8-1.7 1.8-2.2 2.9-.5 1.1-.8 2.4-.8 3.7v.1c0 1.4.2 2.7.7 3.7.5 1 1.1 1.9 2 2.6.9.7 2 1.3 3.3 1.8 1.3.5 2.8.9 4.5 1.3 1.5.3 2.7.7 3.6 1 .9.3 1.6.7 2.2 1.1.5.4.9.8 1.1 1.2.2.4.3.9.3 1.5v.1c0 1.2-.5 2.2-1.5 2.9-1 .7-2.4 1.1-4.1 1.1-2 0-3.8-.4-5.3-1.1-1.6-.7-3.1-1.7-4.7-3l-3.3 4c1.9 1.7 4 3 6.2 3.8 2.2.8 4.6 1.2 7 1.2 1.5.3 3 .1 4.4-.3zm36.3 0c1.4-.4 2.6-1 3.6-1.9 1-.8 1.8-1.8 2.3-3 .6-1.2.8-2.5.8-4v-.1c0-1.3-.2-2.4-.7-3.4-.4-1-1.1-1.8-1.9-2.6-.8-.7-1.9-1.4-3.2-1.9-1.3-.5-2.8-1-4.4-1.4-1.5-.4-2.8-.7-3.7-1-1-.3-1.8-.7-2.3-1.1-.6-.4-.9-.8-1.2-1.3-.2-.5-.3-1-.3-1.6v-.1c0-1.1.5-1.9 1.4-2.7.9-.7 2.2-1.1 3.8-1.1 1.4 0 2.9.3 4.3.8 1.4.6 2.8 1.4 4.3 2.4l3-4.2c-1.6-1.3-3.4-2.3-5.2-3-1.9-.7-3.9-1-6.3-1-1.6 0-3 .2-4.3.7-1.3.5-2.5 1.1-3.4 1.9-.9.8-1.7 1.8-2.2 2.9-.5 1.1-.8 2.4-.8 3.7v.1c0 1.4.2 2.7.7 3.7.5 1 1.1 1.9 2 2.6.9.7 2 1.3 3.3 1.8 1.3.5 2.8.9 4.5 1.3 1.5.3 2.7.7 3.6 1 .9.3 1.6.7 2.2 1.1.5.4.9.8 1.1 1.2.2.4.3.9.3 1.5v.1c0 1.2-.5 2.2-1.5 2.9-1 .7-2.4 1.1-4.1 1.1-2 0-3.8-.4-5.3-1.1-1.6-.7-3.1-1.7-4.6-3l-3.3 4c1.9 1.7 4 3 6.2 3.8 2.2.8 4.6 1.2 7 1.2 1.4.3 2.9.1 4.3-.3zM37.6 437.4c2.9-.9 5.4-2.1 7.5-3.8 2.1-1.7 3.7-3.7 4.9-6 1.2-2.4 1.7-5.1 1.7-8.1v-.2c0-2.8-.5-5.1-1.5-7.1s-2.5-3.7-4.4-5.1c-1.9-1.4-4.2-2.6-7-3.6-2.7-1-5.8-1.8-9.2-2.6-2-.4-3.7-.9-5-1.3-1.3-.4-2.4-.8-3.1-1.3-.8-.4-1.3-.9-1.6-1.4-.3-.5-.5-1.1-.5-1.8v-.2c0-1.1.5-2 1.5-2.7 1-.7 2.5-1.1 4.4-1.1 2.7 0 5.4.5 8.3 1.5 2.8 1 5.6 2.4 8.3 4.4l8.2-11.6c-3.2-2.6-6.8-4.6-10.8-5.9-4-1.3-8.5-2-13.6-2-3.6 0-6.7.5-9.6 1.4-2.8.9-5.2 2.2-7.2 3.9-2 1.7-3.5 3.7-4.6 6-1 2.3-1.6 4.8-1.6 7.6v.2c0 3 .6 5.6 1.7 7.6 1.2 2.1 2.7 3.8 4.7 5.2 2 1.4 4.4 2.5 7.1 3.4 2.7.9 5.6 1.7 8.8 2.4 2 .5 3.7.9 5 1.3 1.3.4 2.3.9 3 1.3.8.5 1.3.9 1.6 1.4.3.5.4 1 .4 1.6v.2c0 1.3-.6 2.3-1.7 3-1.2.7-2.8 1.1-5 1.1-6.9 0-13.3-2.4-19.2-7.1L0 428.8c3.7 3.3 7.9 5.8 12.7 7.4 4.8 1.6 9.8 2.5 15.1 2.5 3.6 0 6.9-.5 9.8-1.3zm47-14.7c-1.9-.9-3.5-2-4.8-3.5-1.3-1.5-2.4-3.2-3.1-5.1-.7-1.9-1.1-4-1.1-6.1v-.2c0-2.1.4-4.2 1.1-6.1.7-1.9 1.7-3.6 3.1-5 1.3-1.4 2.9-2.6 4.8-3.4 1.8-.8 3.9-1.3 6.2-1.3 2.3 0 4.3.4 6.2 1.3 1.9.9 3.5 2 4.8 3.5 1.4 1.5 2.4 3.2 3.1 5.1.7 1.9 1.1 4 1.1 6.1v.2c0 2.1-.4 4.2-1.1 6.1-.7 1.9-1.8 3.6-3.1 5s-2.9 2.6-4.8 3.4c-1.9.8-3.9 1.3-6.2 1.3-2.3 0-4.3-.4-6.2-1.3zm18.8 13.7c3.9-1.6 7.3-3.8 10.2-6.6 2.9-2.8 5.1-6.1 6.7-9.8 1.6-3.8 2.4-7.7 2.4-12v-.2c0-4.2-.8-8.2-2.4-11.9-1.6-3.7-3.8-7-6.6-9.7-2.8-2.8-6.2-5-10.1-6.6-3.9-1.6-8.1-2.4-12.7-2.4s-8.8.8-12.7 2.4c-3.9 1.6-7.3 3.8-10.2 6.6-2.9 2.8-5.1 6.1-6.7 9.8-1.6 3.8-2.4 7.7-2.4 12v.2c0 4.2.8 8.2 2.4 11.9 1.6 3.7 3.8 7 6.6 9.7 2.8 2.8 6.2 5 10.1 6.6 3.9 1.6 8.1 2.4 12.7 2.4 4.5.1 8.8-.8 12.7-2.4zm67.1.8c3.4-1.1 6.3-2.7 8.7-5 2.4-2.2 4.3-5.1 5.6-8.5 1.3-3.5 2-7.6 2-12.4v-32.8H170v33.4c0 4.2-1 7.3-2.9 9.2-2 2-4.6 3-7.9 3-3.3 0-5.9-1-7.9-3.1s-2.9-5.2-2.9-9.5v-32.9h-16.8v33.3c0 4.6.6 8.6 1.9 12.1 1.3 3.4 3.1 6.2 5.5 8.5 2.4 2.2 5.2 3.9 8.6 5 3.4 1.1 7.2 1.6 11.4 1.6 4.3-.3 8.1-.9 11.5-1.9zm43.7-30.3v-14.2H225c2.8 0 4.9.6 6.5 1.7 1.6 1.2 2.4 2.9 2.4 5.3v.2c0 2.1-.8 3.9-2.3 5.1-1.5 1.3-3.7 1.9-6.5 1.9h-10.9zm-16.4 30.8h16.4v-17.9h7.2l11.9 17.9h19L238.1 417c3.7-1.6 6.7-3.9 8.9-6.9 2.2-3 3.3-6.8 3.3-11.3v-.2c0-5.8-1.8-10.4-5.2-13.8-2-2-4.5-3.6-7.7-4.7s-7-1.7-11.6-1.7h-28v59.3zm99.4.1c2.6-.7 5-1.6 7.1-2.8 2.1-1.2 4-2.6 5.7-4.2 1.7-1.6 3.2-3.4 4.6-5.3l-12.4-8.8c-.9 1.1-1.8 2-2.8 2.9-.9.9-1.9 1.6-3 2.3-1 .6-2.2 1.1-3.5 1.5-1.3.3-2.7.5-4.2.5-2.1 0-4-.4-5.7-1.2-1.7-.8-3.2-1.9-4.4-3.3-1.2-1.4-2.2-3.1-2.9-5-.7-1.9-1.1-4-1.1-6.2v-.2c0-2.1.4-4.2 1.1-6.1.7-1.9 1.7-3.6 2.9-5s2.7-2.5 4.4-3.3c1.7-.8 3.6-1.2 5.7-1.2 2.9 0 5.3.6 7.4 1.9 2 1.2 3.9 2.9 5.6 5.1l12.4-9.6c-1.3-1.8-2.8-3.5-4.4-5-1.7-1.5-3.5-2.8-5.6-3.9-2.1-1.1-4.3-1.9-6.8-2.5-2.5-.6-5.2-.9-8.3-.9-4.5 0-8.7.8-12.5 2.4-3.8 1.6-7.1 3.8-9.9 6.6-2.8 2.8-4.9 6.1-6.5 9.8-1.6 3.8-2.4 7.8-2.4 12.1v.2c0 4.4.8 8.5 2.4 12.2 1.6 3.8 3.8 7 6.5 9.7 2.7 2.7 6 4.9 9.7 6.4 3.7 1.5 7.7 2.3 11.9 2.3 3.4-.3 6.4-.7 9-1.4zm25.6-.1h48v-14H339v-9.4h28.4v-13H339v-9h31.4v-14h-47.6v59.4zm-294.6-94c-1.9-.9-3.5-2-4.8-3.5-1.3-1.5-2.4-3.2-3.1-5.1-.7-1.9-1.1-3.9-1.1-6.1v-.2c0-2.1.4-4.2 1.1-6.1.7-1.9 1.7-3.6 3.1-5 1.3-1.4 2.9-2.6 4.8-3.4 1.8-.8 3.9-1.3 6.2-1.3 2.3 0 4.3.4 6.2 1.3 1.9.9 3.5 2 4.8 3.5 1.4 1.5 2.4 3.2 3.1 5.1.7 1.9 1.1 4 1.1 6.1v.2c0 2.1-.4 4.2-1.1 6.1-.7 1.9-1.8 3.6-3.1 5s-2.9 2.6-4.8 3.4c-1.9.8-3.9 1.3-6.2 1.3-2.3 0-4.3-.4-6.2-1.3zM47 357.4c3.9-1.6 7.3-3.8 10.2-6.6 2.9-2.8 5.1-6.1 6.7-9.8 1.6-3.8 2.4-7.7 2.4-12v-.2c0-4.2-.8-8.2-2.4-11.9-1.6-3.7-3.8-7-6.6-9.7-2.8-2.8-6.2-5-10.1-6.6-3.9-1.6-8.1-2.4-12.7-2.4s-8.8.8-12.7 2.4c-3.9 1.6-7.3 3.8-10.2 6.6-2.9 2.8-5.1 6.1-6.7 9.8-1.6 3.8-2.4 7.7-2.4 12v.2c0 4.2.8 8.2 2.4 11.9 1.6 3.7 3.8 7 6.6 9.7 2.8 2.8 6.2 5 10.1 6.6 3.9 1.6 8.1 2.4 12.7 2.4s8.8-.8 12.7-2.4zm45.4-28.5v-15.7h7.7c3 0 5.3.7 7 2 1.7 1.3 2.5 3.3 2.5 5.8v.2c0 2.4-.8 4.3-2.5 5.7-1.7 1.4-4 2.1-6.9 2.1h-7.8v-.1zM76 358.7h16.4v-16.9h8.1c3.7 0 7.1-.5 10.2-1.4 3.1-.9 5.8-2.3 8.1-4.1 2.3-1.8 4-4 5.3-6.7 1.3-2.7 1.9-5.7 1.9-9.2v-.2c0-3.3-.6-6.2-1.7-8.8-1.2-2.6-2.8-4.8-5-6.6-2.1-1.8-4.7-3.1-7.8-4.1-3-.9-6.4-1.4-10.2-1.4H76v59.4zm58.2 0h48v-14h-31.8v-9.4h28.4v-13h-28.4v-9h31.4v-14h-47.6v59.4zm57.6 0H208v-32.5l25.4 32.5h14.4v-59.3h-16.2v31.3l-24.4-31.3h-15.4v59.3z" class="st0"/><path fill="#00bce7" d="M8 546c-.5-.2-.9-.5-1.3-.9s-.6-.9-.8-1.4c-.2-.5-.3-1.1-.3-1.8 0-.9.2-1.8.5-2.6s.8-1.6 1.3-2.2c.6-.6 1.2-1.1 1.9-1.5.7-.4 1.5-.6 2.2-.6 1.2 0 2.1.4 2.8 1.2.7.8 1.1 1.8 1.1 3.2 0 1-.2 1.9-.5 2.7-.3.8-.7 1.6-1.2 2.2-.5.6-1.1 1.1-1.8 1.5-.7.4-1.4.5-2.2.5-.7 0-1.2-.1-1.7-.3zm5.6 2.9c1.1-.5 2.1-1.3 2.9-2.2.9-.9 1.5-2.1 2.1-3.4.5-1.3.8-2.7.8-4.3 0-1.1-.2-2.2-.5-3.1-.3-.9-.8-1.7-1.3-2.4-.6-.6-1.3-1.1-2.1-1.5-.8-.3-1.6-.5-2.6-.5-1.1 0-2.1.2-2.9.7-.8.5-1.6 1.1-2.4 1.9l2.3-8.9H6.1l-6.1 24h3.8l.8-3.1c.5 1 1.2 1.8 2.1 2.4.9.7 2 1 3.5 1 1.1.2 2.3-.1 3.4-.6zm12.7 4.7c1.1-.7 2.1-2 3.2-3.8l10.7-17.9h-4.1l-7.3 12.9-1.4-12.9h-3.9l2.4 17.4c-.5.8-1 1.3-1.5 1.5-.4.3-.9.4-1.4.4-.4 0-.7-.1-1.1-.2-.4-.1-.7-.3-1-.5l-2 2.9c.5.4 1.1.7 1.7.9.6.2 1.3.3 2.1.3 1.4.1 2.6-.3 3.6-1zm39.1-41.1h28.8v7.6H73.7v8h18v7.6h-18v14.6h-8.3v-37.8zm36.2 0h8.3v37.8h-8.3v-37.8zm17.7 0h7.7l17.7 23.3v-23.3h8.2v37.8h-7.1l-18.3-24v24h-8.2v-37.8zm40.7 19v-.1c0-10.7 8.5-19.5 20.1-19.5s20 8.7 20 19.5v.1c0 10.7-8.5 19.5-20.1 19.5-11.6 0-20-8.7-20-19.5zm31.5 0v-.1c.2-6.3-4.7-11.6-11.1-11.9h-.4c-6.7 0-11.3 5.3-11.3 11.8v.1c-.2 6.3 4.7 11.7 11.1 11.9h.4c6.6 0 11.3-5.3 11.3-11.8zm12.9 13.3l4.9-5.9c3.1 2.8 7.1 4.5 11.3 4.6 3.4 0 5.5-1.3 5.5-3.6v-.1c0-2.1-1.3-3.2-7.6-4.8-7.6-1.9-12.5-4.1-12.5-11.6v-.1c0-6.8 5.5-11.4 13.2-11.4 5.1-.1 10.1 1.6 14 4.8l-4.3 6.3c-3.4-2.3-6.6-3.7-9.8-3.7-3.2 0-4.9 1.5-4.9 3.3v.1c0 2.5 1.6 3.3 8.1 5 7.7 2 12 4.7 12 11.3v.1c0 7.5-5.7 11.7-13.9 11.7-5.8 0-11.5-2.1-16-6z"/><path d="M257.1 127.3C257.1 57 200.1 0 129.7 0 59.4 0 2.4 57 2.4 127.3c0 38.5 17.1 72.9 44 96.3 42.4-14.4 76.2-34.6 83.3-87.9 0 0 33.5 61.9-30.9 115.2 9.9 2.5 20.2 3.8 30.9 3.8 70.4 0 127.4-57 127.4-127.4" class="st0"/><path d="M110.99999999999991 253.29999999999998h-.1.1m-.1 0c-4.1-.6-8.1-1.4-12-2.4 3.2.8 6.5 1.5 9.8 2 .7.1 1.5.3 2.2.4m-64.5-29.7" class="st2"/><path d="M129.7 254.7c-6.4 0-12.6-.5-18.7-1.4h-.1c-.7-.1-1.5-.2-2.2-.3 6.8 1.1 13.9 1.7 21 1.7m.1 0c.1 0 0 0 0 0m.1 0c.1 0 0 0 0 0m.1 0c.1 0 0 0 0 0m.1 0c13.6 0 26.7-2.2 39-6.2 33.8-66.7-35.6-116-39.4-116-9.2 53.4-71.7 61.2-104.2 68 6 8.5 12.9 16.2 20.7 23-22.6-19.6-38.1-47.1-42.5-78.1 27.4 7.8 55.2 13.8 77.9 13.8 24.8 0 43.3-7.1 48.1-26.6 26.8 0 72 23.1 87.3 87.6-22.5 21.2-52.6 34.3-85.9 34.6h-.1-.1-.1-.1-.1-.1-.1-.1c-.1 0 0 0 0 0h-.1-.1c.1-.1.1-.1 0-.1m-31.2-3.8c56.3-46.7 37.7-99.9 32.2-112.5 5.5 12.6 24 65.8-32.2 112.5m-52.5-27.3s0-.1 0 0m-.1-.1" class="st3"/><path d="M129.7 254.7c.1 0 .1 0 0 0 .1 0 .1 0 0 0m-83.3-31.1c42.4-14.4 76.2-34.6 83.3-87.9-7 53.3-40.9 73.5-83.3 87.9" class="st2"/><path d="M46.39999999999999 223.5c-.1 0-.1 0 0 0-.1 0-.1 0 0 0m84.7-85.1c-.8-1.8-1.3-2.8-1.3-2.8-.1.1.5 1 1.3 2.8" class="st3"/><path fill="#2089c1" d="M129.7 254.7c.1 0 .1 0 0 0 .1 0 .1 0 0 0 .1 0 .1 0 0 0m-21-1.8c-3.3-.6-6.6-1.2-9.8-2 3.2.8 6.5 1.5 9.8 2m-62.3-29.3c42.4-14.4 76.2-34.6 83.3-87.9-7 53.3-40.9 73.5-83.3 87.9"/><path fill="#0880b7" d="M129.7 254.7c-7.2 0-14.2-.6-21.1-1.7-3.3-.6-6.6-1.2-9.8-2 56.3-46.7 37.7-99.9 32.2-112.5-.8-1.8-1.3-2.8-1.3-2.8-7.1 53.3-40.9 73.6-83.3 87.9 0 0-.1 0-.1-.1l-.1-.1c-7.8-6.8-14.7-14.5-20.7-23 32.5-6.9 95-14.6 104.2-68 3.7 0 73.1 49.3 39.4 116-12.3 4-25.4 6.2-39 6.2-.3.1-.3.1-.4.1.1 0 .1 0 0 0"/><path d="M151.7 62c0-17.2-22-47.9-22-47.9s-22 30.7-22 47.9 22 49.2 22 64c.1-14.8 22-46.8 22-64m-12.4 45.1c6.5 3 16.5 9.2 16.5 18.8 9.3-16.6-2.1-33.2-7.2-39.5-3.1 7-6.5 14.2-9.3 20.7zm-19.1 0c-6.5 3-16.5 9.2-16.5 18.8-9.3-16.6 2.1-33.2 7.2-39.5 3 7 6.5 14.2 9.3 20.7z" class="st6"/><path fill="#f05323" d="M143.9 133.5c0-7.8-3.3-14.6-8-17.8-2.3 4.5-6.1 15.3-6.1 19.8 0-4.6-3.6-15.6-5.7-20.1-5 3.1-8.4 10-8.4 18 0 10.9 11.5 32.3 14.1 32.3 2.6.1 14.1-21.3 14.1-32.2z"/><path fill="#f58220" d="M138.9 132.2c0-5.1-2.1-9.5-5.2-11.5-1.5 2.9-4 9.9-4 12.9 0-3-2.3-10.1-3.7-13-3.2 2-5.5 6.5-5.5 11.7 0 7.1 7.4 20.9 9.2 20.9 1.8-.1 9.2-13.9 9.2-21z"/><path d="M142.2 34.2L113 43.1c-3 6.7-5.2 13.4-5.2 18.8 0 8.4 5.3 20.5 10.7 32.3l26.1-8c3.9-9.1 7.1-17.7 7.1-24.3 0-7.8-4.5-18.5-9.5-27.7" class="st6"/><defs><path id="SVGID_1_" d="M142.2 34.2L113 43.1c-3 6.7-5.2 13.4-5.2 18.8 0 8.4 5.3 20.5 10.7 32.3l26.1-8c3.9-9.1 7.1-17.7 7.1-24.3 0-7.8-4.5-18.5-9.5-27.7"/></defs><clipPath id="SVGID_00000055705221659289751510000000442543721717228416_"><use overflow="visible" xlink:href="#SVGID_1_"/></clipPath><path fill="#0586bf" d="M95.3 48.5l14.8 48.3 51.3-15.7-14.8-48.3-51.3 15.7" clip-path="url(#SVGID_00000055705221659289751510000000442543721717228416_)"/><path d="M136.9 46.2v5.7l-14.3 4.6v-5.7l14.3-4.6m-14.3 13.9v10.1h5.6V64l8.7-2.8v-5.7l-14.3 4.6m-5.4 15.7h4.3v1.1h-3v1.2h2.6v1.1h-2.6v2.2h-1.3v-5.6zm5.4 0h1.2v5.6h-1.2v-5.6zm2.6 0h1.2l2.6 3.4v-3.4h1.2v5.6h-1.1l-2.7-3.6v3.6h-1.2v-5.6zm12.6 4.8l.7-.9c.5.4 1 .7 1.7.7.5 0 .8-.2.8-.5s-.2-.5-1.1-.7c-1.1-.3-1.9-.6-1.9-1.7 0-1 .8-1.7 2-1.7.8 0 1.5.2 2.1.7l-.6.9c-.5-.3-1-.6-1.5-.6s-.7.2-.7.5c0 .4.2.5 1.2.7 1.1.3 1.8.7 1.8 1.7 0 1.1-.8 1.7-2.1 1.7-.9.1-1.7-.3-2.4-.8zm-6.6-2c0-1.6 1.3-2.9 3-2.9s3 1.3 3 2.9c0 1.6-1.3 2.9-3 2.9s-3-1.3-3-2.9zm4.7 0c0-1-.7-1.7-1.6-1.8h-.1c-1 0-1.7.8-1.7 1.7 0 .9.7 1.7 1.6 1.8h.1c1 0 1.7-.7 1.7-1.7z" class="st6"/><path fill="#a7c3e0" d="M128.1 58.3l-5.5-1.8 8.8-2.8 5.5 1.7v.1l-8.8 2.8"/></svg>