<svg xmlns="http://www.w3.org/2000/svg" role="img" viewBox="-70.50 -70.50 3666.00 1193.50"><title>OpenFin React Hooks logo</title><defs><style>.cls-2{fill:#0f0f1f}.cls-7{fill:#534fff}</style></defs><path fill="#524eff" d="M398.4 797.07c-13-1.92-26.38-2.75-39.06-6.08a114.22 114.22 0 0 1-32.68-14.87c-14.1-9-25.11-20.71-35.55-33.31-9.8-11.84-14.51-26-19.85-40.17-8-21.32-5.33-43.77-9.43-65.37-3.2-16.91-8.55-33.31-19.77-47.05a26.88 26.88 0 0 1-3.08-3.79c-6.31-11.51-16.12-19.49-26.18-27.58a115.31 115.31 0 0 0-36.34-20.13 126.13 126.13 0 0 0-39.05-6c-11.18 0-22.77-.81-33.44-3.85-15.42-4.39-30.92-9.64-44.16-19.22a159.72 159.72 0 0 1-36.54-36.3 120.56 120.56 0 0 1-18.13-38.36 126.27 126.27 0 0 1-5-41.22 134.77 134.77 0 0 1 6.93-35.64c2.49-7.45 4.77-14.73 8.69-21.65 11.78-20.75 27-38.41 47.39-50.73 31.69-19.19 66-23.92 102.16-15.54 17.86 4.14 33.56 12.5 48 23.41a124.23 124.23 0 0 1 45.17 64.68 166.39 166.39 0 0 1 7.06 45.93 91 91 0 0 0 5.16 30c3.87 10.79 7.24 21.66 12.85 31.72 7 12.47 16.33 23 26.81 32.47 14.64 13.25 32.05 21.24 50.75 27.53 20.28 6.81 41.12 6.52 60.91 3 24.56-4.44 47.53-15 65.78-33.69 12.19-12.5 21.36-26.4 29.55-41.94 11.84-22.48 13.9-45.69 11.82-69.73-1-11.7-3-24.32-8.44-34.4-8.06-14.86-15.74-30.06-28.39-42.65-14.73-14.66-31.61-24.45-50.21-32.29a84.68 84.68 0 0 0-34.9-7.07c-18.47.41-36.4-2.93-53.93-8.18-6.77-2-13.06-5.86-19.34-9.3-27-14.83-46.64-36.4-58.11-65.12-3.15-7.86-6-15.85-8.76-23.86a23.07 23.07 0 0 1-.85-6.91c-.22-9.33.29-18.71-.6-28-1.21-12.72 3.11-24.32 7.17-35.64 4.6-12.83 10.13-25.56 18.92-36.44 15.9-19.67 34.58-35.59 58.89-43.93 9-3.11 18.11-6.14 27.31-8.73 3.44-1 7.27-.56 10.93-.77 16-.91 31.78 0 46.74 6.29 11.86 5 24.49 8.94 35.05 16 20.07 13.34 36.39 30.64 45.77 53.53 1.29 3.15 4 5.73 5.16 8.9a133.16 133.16 0 0 1 8.55 49.47 118.26 118.26 0 0 0 12 54.59c12.75 26.29 31.73 46.92 58 61.35 21.44 11.77 44 15.21 67.62 16.25 17.25.76 33.62 4.1 49.64 12 10.93 5.36 20.45 12.5 30.69 18.63 5.61 3.35 9.24 9.93 13.94 14.89 13.07 13.83 21.29 30.08 26.47 48.39 4 14.33 7.8 28.46 7.08 43.52-.68 14.27-4.66 27.86-9.43 41-3.72 10.29-8.57 20.63-15 29.38-15.6 21.11-34.43 38.57-60.11 47.45-11.54 4-22.64 8.63-35.23 8.54-6.8-.05-13.62 2.45-20.44 2.46-31 0-57.12 11.84-80.14 31.88a128 128 0 0 0-38.2 57.95c-4.28 13-7 26.25-6.8 39.85.25 14-1.22 27.91-5.27 41.12-3.1 10.12-8.35 19.76-13.77 29-14.72 24.9-36.19 42.88-62.47 54-15.58 6.53-32.44 11.26-50.31 10.33z"/><path d="M1338.28 541.61l-6.2-7.72a8.05 8.05 0 0 0-1.57.63 1.29 1.29 0 0 0-.46.75 21.35 21.35 0 0 0-.3 3v165.86a11 11 0 0 1-.29 2 8.15 8.15 0 0 1-.29 1c-7.65 2.31-52.09 2.34-61.88-.15V274.99c7-3.21 43.92-4.26 58.07-1.41.3 6.27-.09 13 1.14 19.34 1.09 5.66-1.56 12.36 4.36 18.33 5.67-11.08 14.4-18 23.6-24.47 14.17-10 29.52-17.17 46.78-19.36 12.51-1.59 25.17-3.39 37.72-3.09 19.31.45 38.86 3.31 56.13 11.87 15.91 7.87 31.22 17.09 43.45 31.36 12.76 14.89 21.23 31.23 28.3 49.22 11.62 29.58 13.08 59.8 9.41 90.71-1.24 10.49-3 20.93-5.08 31.29-.67 3.36-3.46 6.23-4.61 9.56-4.82 13.91-10.76 27.26-20.16 38.71-5.27 6.42-11.21 12.29-16.85 18.41-4.93 2.93-10.08 5.54-14.74 8.84a96.61 96.61 0 0 1-35.57 16.05c-7 1.53-14.76 1.83-20.89 5.09-7.3 3.9-14.52 3.59-22 3.7-6 .08-12.86 1.69-17.73-.69-10.66-5.21-22.65-4.13-33.16-8.72a254.86 254.86 0 0 1-27.2-13.51c-7.05-4.17-13.34-9.69-19.98-14.61zm127.88-207.84c-.35-.93-.45-2.38-1.1-2.69-12.17-5.91-25-10.22-38.54-9.91a139.42 139.42 0 0 0-32.24 4.31c-4.88 1.29-11.39 2.47-14.36 8.28-11.58 5.3-21.52 12.51-28.25 23.65-5.13 8.48-10.35 16.87-13.67 26.32-4.73 13.43-4.46 27.32-4.57 41.24-.14 18 3.57 34.65 12.35 50.75 9.67 17.73 22.85 30.57 41.53 37.94 19.12 7.54 38.59 8.53 58.68 4.19 21.77-4.71 38-17 50.57-34.72 8.83-12.49 13.19-27.24 14.86-41.91 1.85-16.26 2.1-32.75-2.06-49.35-3.81-15.26-10-28.81-19.54-40.75-6.17-7.7-13.91-14.11-23.66-17.35z" class="cls-2"/><path fill="#0e0e1e" d="M1654.55 541.34c-7.58-9.27-16.56-17.48-21.71-28.56-3.83-8.25-7.37-16.62-11.32-24.81a80 80 0 0 1-6.1-17.25c-4.57-20.16-7.76-40.42-5.64-61 1.45-14.11 2.73-28.68 7.33-41.91 5.87-16.88 12.93-33.55 24-48.23 16.68-22.1 38.15-38 63.86-46.76 23.64-8.07 48.46-11.28 73.78-7.11 13.46 2.21 27.08 3.72 39.45 9.75 15.12 7.35 30.15 14.75 41.66 27.91 9.14 10.46 18.68 20.13 24.6 33.25 7.09 15.72 13.33 31.24 16.73 48.42 4 20.28 1.82 40.35 3.45 61.38-4.23.51-7.75 1.3-11.26 1.3q-103.95.09-207.89.06c-4.2 0-8.41.51-14 .87 1.79 8.07 2.78 15.18 5 21.89 6.74 20.79 20.52 35.66 40.19 44.87 12.88 6 26.92 7.53 40.89 7.4 15-.13 29.67-2 43.41-9.12s23.87-18 32.56-30.42c.91-1.29 1.5-2.81 2.33-4.16s1.8-2.68 3.42-5.08c17.06 8.85 35.79 13.65 54.15 23.1-7.16 11.42-13.38 22-20.3 32.08-3.12 4.54-7.65 8.12-11.54 12.13-4 2.57-8.12 4.9-11.89 7.74a132.33 132.33 0 0 1-61.24 25.32c-2.62.39-5.65.29-7.73 1.61-5.76 3.63-12 3.34-18.24 3.21-10.46-.2-20.81 1-31.07-3.92-6.93-3.31-15.51-3-23.14-5-13.38-3.65-26-8.91-36.87-18-5.08-4.37-11.22-7.38-16.87-10.96zm184.43-141.56c-1.77-7.91-3.65-14.51-4.65-21.24-2.32-15.55-9.15-28.56-20.83-39-6.9-6.16-14.32-11.53-23.07-15a89 89 0 0 0-36.14-5.89c-12.57.47-25.56 1.83-36.61 8.14-15.87 9.07-29 21.24-36.35 38.76-4.55 10.87-5.85 22.39-9.63 34.21z"/><path fill="#0e0d1e" d="M1165.89 291.8c8.18 3.76 13.29 11 19.54 17 14.54 14 23.43 31.1 31.35 49.41 10.12 23.39 13 47.52 12.44 72.48-.32 13.28-3.28 26.08-6.68 38.91a152.08 152.08 0 0 1-21.3 46.16c-9.1 13.53-20.56 24.57-33.72 34.66-17.33 13.29-36.91 19-57.09 25.15-17.17 5.24-34.24 4-51.4 3.71-8.13-.15-16.27-2.78-24.3-4.74-12.54-3-24.83-7-36.21-13.19-21.17-11.5-38.79-27-51.8-47.43-10.93-17.2-17.7-35.75-21.76-55.88-3.88-19.27-4-38.4-2.39-57.55 1.17-14 4.83-27.7 9.54-41.21 5.91-16.93 16.1-31 26.22-45.23a40.89 40.89 0 0 0 4.59-3.27c10.34-9.64 20.92-18.8 33.52-25.61 20.85-11.26 42.72-18.06 66.57-18.33 20-.24 39.87-.39 59.27 5a107.94 107.94 0 0 1 16.19 6.54c9.21 4.35 18.29 8.94 27.42 13.42zm-36.13 209.6l3.84-2.16c.63-1.07 1-2.41 1.94-3.17 11.63-9.9 17.61-23.31 22.38-37.18 4.9-14.24 4.86-29.2 4.56-44.12-.44-22.48-7-42.52-20.91-60.58-12.55-16.23-29.2-24.84-48.34-29.25-17-3.91-33.67-2.84-50.2 4.26-14.23 6.11-27 13.05-36.07 26.27-12.07 17.65-20.59 36.2-19.8 58.13.29 8 0 16 .33 23.92 1 20.91 10 38.57 22.57 54.7 2 2.51 4.06 4.9 6.1 7.34-.29 7.21 6.35 5.76 10 8 .52.76.86 1.78 1.57 2.26 9.54 6.51 20.11 10.75 31.54 11.74 9.53.83 19.2.42 28.79.15 13.1-.36 24.61-5.88 35.56-12.39 2.6-1.55 6.9-3 6.1-7.74z"/><path d="M2229.07 569.9c-11.17 2.82-58.58 2.18-65.86-1v-12.68-152.91a193.47 193.47 0 0 0-.9-21.95c-2.49-21.61-11.21-39.92-31.47-50-19.88-9.89-40.44-11.19-61.87-3.12-10.8 4.07-20.54 9-28.55 17-10.82 10.86-17.53 24.07-18.67 39.38-1.23 16.56-1.84 33.19-1.93 49.79-.26 44.64-.09 89.28-.09 134.71-2.21.74-4.63 2.22-7.06 2.25-18.95.19-37.91.11-56.65.11-2.17-7.73-2.52-288.07-.45-298.46a49.91 49.91 0 0 1 6.38-.85q21.49-.12 43 0c8.21 0 9.69 1.45 10.3 9.58.56 7.46 1.07 14.93 1.76 24.71 2.67-3.1 3.77-4.34 4.82-5.61a84.42 84.42 0 0 1 23.65-20.08c27.27-15.44 56.33-19.77 87.18-14.56 11.18 1.89 22.21 3.68 32.61 8.43 19.75 9 36.37 21.74 46.67 41.25 4.92 9.32 9.74 18.95 12.63 29a118.87 118.87 0 0 1 4.68 31.46c.46 63.3.3 126.6.32 189.9a26.59 26.59 0 0 1-.5 3.65zm479.49-273.61q12.09-9 24.67-17.25c8.55-5.63 17.79-8.51 27.13-10.88a140.8 140.8 0 0 1 83.49 4.25c18.07 6.52 34.08 17.14 45.78 33.95 7.76 11.16 13.94 22.74 17.49 35.45 3.27 11.69 5.45 23.74 5.35 36.2-.35 44.93-.12 89.86-.1 134.79v49.92c0 2.58-.29 5.16-.5 8.8h-22.17c-11 0-22 .1-33 0-8.56-.1-8.94-.6-8.94-9.17V405.6a262.79 262.79 0 0 0-1.46-28.89c-.58-5-2.73-10-4.75-14.73-4.05-9.46-8.83-18.38-17.61-24.67-12.51-9-26.19-13.91-41.64-14.12-22.74-.3-42.52 6.88-58.84 22.93-.84.82-1.16 2.16-1.73 3.26-1.52.4-3.91.34-4.41 1.28-3.07 5.69-5.7 11.61-8.47 17.46-.26 1.9-.51 3.81-.76 5.71-4.9 2.17-3.52 6.41-3.39 10.23l-.63 11.77c-1 4.4-2.8 8.79-2.82 13.19-.19 50.17-.1 100.34-.12 150.51 0 3.49-.28 7-.42 10.37h-62.73V297.74c0-7.31-.11-14.62-.17-21.93 4.2-.69 8.39-1.87 12.61-2q18-.41 36 0c4.55.11 9.08 1.32 13.63 2q.29 11.91.56 23.83c.19 1.92.37 3.84.56 5.77l2.06.46z" class="cls-2"/><path fill="#0d0d1e" d="M2445.71 126.16c0 17.11.06 33.41 0 49.72 0 5.17-3.18 7.91-8.42 6.63-11.92-2.9-23.37-1.93-35.44.39-13.72 2.63-23.72 15.69-26.32 26.92-3.2 13.86-2.25 27.77-2.45 41.7-.08 6 0 11.92 0 19.36 3 .44 6.68 1.41 10.39 1.44 18.95.16 37.9.07 57.71.07.75 3.57 1.9 6.67 1.95 9.79.22 11.64.07 23.3.07 34.95 0 8.24-1.58 9.75-9.65 9.71q-25-.12-50-.08c-9.78 0-10.72 1.24-10.52 10.73.19 9.32 0 18.65 0 28q.09 98.88.14 197.77a60.68 60.68 0 0 1-1 7.71h-63.84V331.41c-3-4.26-6.7-4.85-10.9-4.73-8 .24-16 .38-24 .08-3.39-.13-6.74-1.46-10.22-2.27v-44.05c0-5.52 1.91-7.8 7.6-8 8.65-.27 17.32 0 26-.11 3.57-.05 7.13-.57 11.09-.91 0-14.07.37-27.36-.09-40.63-.65-19.08 1.54-37.67 8.79-55.37 2.27-5.54 6.34-10.32 9.44-15.55 9-15.18 23.13-23.2 38.74-30.37 21-9.63 42.66-8.32 64.47-7.43 5.45.25 10.81 2.64 16.46 4.09z"/><path fill="#6b696d" d="M970.36 795.66c5.77 0 10.72-.05 15.68 0 31.28.31 62.59-.06 93.84 1.16 30.06 1.18 54.57 13.59 66.68 42.52 13.15 31.4 7.25 70.88-25.25 90.79-5.3 3.25-11.16 5.6-17.12 8.54l49.87 109.66c-6.54.2-12.3.44-18.06.52s-11.31 0-17.75 0c-4.34-9.25-8.77-18.49-13-27.81q-15.86-35-31.54-70c-1.54-3.42-3.11-6.28-7.83-6.24-20.93.2-41.87.09-63.72.09v103.52a276.54 276.54 0 0 1-31.8 0zm31.89 117.38a40.25 40.25 0 0 0 4.26.52c22.32 0 44.66.23 67-.1a68.91 68.91 0 0 0 17.61-3c12.26-3.49 21.27-11 25.19-23.46a55 55 0 0 0 2.65-14.57c.42-13.75-2.57-26.43-14-35.54-9-7.13-19.44-9.89-30.74-9.9h-66a59.17 59.17 0 0 0-6 .59z"/><path d="M3521.84 870.69h-32.28c-1.06-4.15-1.95-8.29-3.16-12.33-6.07-20.22-20-31.46-40.48-35.19-18.42-3.37-35.71-1.12-51.28 10-8.83 6.31-14 15-16.17 25.47-3.15 15.26 3.11 28.93 17.19 35.81a81.7 81.7 0 0 0 20.81 6.41c14.38 2.68 28.93 4.39 43.36 6.8 19.15 3.2 36.48 10.28 50.09 24.74 9.42 10 14.61 21.92 16.61 35.51 6.24 42.5-23 71.11-55.93 80.52-29.32 8.37-58.71 8-86.85-4.71-29.45-13.29-45.13-37.09-49.22-68.8-.25-1.93.18-3.95.37-7.33h31.43c3.41 9.4 5.84 18 9.59 26 5.59 11.95 15.06 20 27.62 24.49 19.84 7 39.92 7.6 59.69.73 16-5.57 27.33-15.94 29.4-34.21 1.88-16.59-5.08-29.93-19.1-37.1-7.53-3.85-16.14-6-24.52-7.68-13.68-2.67-27.61-4-41.34-6.39-15.61-2.73-30.18-8.2-42.48-18.59-24.09-20.36-25.59-53.64-14.83-76.61 8.15-17.4 21.64-29.84 38.74-37.39 32.45-14.34 65-13.11 95.85 4.75 20.36 11.76 32.5 30.06 36.8 53.32a47.42 47.42 0 0 1 .68 7 33.73 33.73 0 0 1-.59 4.78zm-976.1 52.4c.27-21.41 1.84-42.57 8.16-63.1 13-42.25 48.47-66.92 89.67-68.3 48.51-1.62 89.63 28.64 99.73 79.93 7 35.52 7.36 71.42-1.22 106.75-9.67 39.78-34.56 65.58-75.25 73.51-50.83 9.91-98.24-16.74-113-66.82a140.8 140.8 0 0 1-5.23-23.28c-1.48-12.83-1.95-25.79-2.86-38.69zm34.7-.67c0 5.32-.54 10.7.11 15.93 1.64 13.11 2.4 26.58 6.1 39.15 7 23.83 23.3 39.19 48.17 43.86 24.1 4.53 44.63-2.56 60.81-21.16 8.06-9.26 11.95-20.52 14.67-32.32 4.39-19 3.92-38.29 3.35-57.51a213.88 213.88 0 0 0-3.89-34.49c-3.37-17.2-11.86-31.73-26.62-41.87-32-22-82.92-11.53-97.07 35.21-5.26 17.38-5.67 35.29-5.63 53.2zm432.24-5.3c-.53 24.9-1.12 44.49-6.47 63.53-11 39.11-35.8 64.25-76.15 71.5-50.62 9.1-97.31-17.35-112.13-68.47-3.9-13.46-5-27.32-6.42-41.22-1.84-17.37-.21-34.47 1-51.63 1.5-21.19 7.24-41.28 19.5-58.93 16.8-24.2 40.7-37.18 69.53-39.88 31.44-2.93 59.27 6.28 81.46 29.63 16 16.82 23.61 37.6 26.72 60.06 1.88 13.45 2.26 27.1 2.96 35.41zm-34.29 6c.44-20.37-.46-40.24-7.68-59.24-5.37-14.13-14.27-25.24-27.61-32.83-29.47-16.75-78.91-9.28-92.85 39.61-6.47 22.68-6.57 46-5.46 69.19.66 13.83 2.53 27.67 7.31 41 10.39 28.91 39.1 45.94 69.4 40.89 28.6-4.77 45-22.36 52.31-49.51 4.34-16.24 5.04-32.82 4.58-49.12z" class="cls-7"/><path fill="#6c6b6f" d="M1230.98 796.22h168.86c.2 2.07.48 3.66.49 5.25.05 8 0 15.93 0 25.06-11.65 1-22.85.37-34 .49-11.33.11-22.66 0-34 0h-66.79c-2.25 7.28-2.79 60.48-.77 74.35h118.21v31.44h-118.65v85.67h135.45v29.92h-168.8z"/><path fill="#112" d="M2570.98 569.04c-8.11 3-47.63 3.91-65.91 1.75V273.95c5.63-1.69 48.49-3.07 57.92-1.71 2.78.4 5.4 1.87 8 2.81z"/><path d="M3175.15 919.94c-5.67 6.35-11 12.15-16.14 18.11-9.76 11.32-19.28 22.85-29.17 34.05-3.73 4.21-5.58 8.51-5.47 14.28.34 17 .12 34 .12 51v11.33a296.23 296.23 0 0 1-31.39-.12V796.28h31.29c.21 21.85.07 43.67.1 65.49v66.9c4.25-4.4 7-7 9.47-9.85q50.36-58.6 100.57-117.32c3.51-4.11 7.21-6.18 12.84-5.93 10.27.46 20.57.13 32.72.13-13.09 18-27.45 33-40.69 48.89-13.39 16.05-27.22 31.74-41.28 48.07 30 51.69 59.86 103.07 90.41 155.69-12.58 1.22-24.06.68-35.46.29-2.14-.08-4.75-3.26-6.13-5.61-11.77-20.07-23.32-40.29-34.92-60.46q-16.15-28.11-32.33-56.21c-1.13-1.96-2.62-3.72-4.54-6.42zm-892.72-123.96h31.19c.48 35 0 69.73.29 105.06h119.48c.89-11.28.27-22.8.38-34.29.11-11.65 0-23.31 0-35v-35.44h31.93v251.91h-31.72V933.55h-119.76v115a261.26 261.26 0 0 1-31.79-.09z" class="cls-7"/><path fill="#6a696c" d="M1536.69 795.98h36.87c29.58 83.51 59.25 167.25 89.24 251.91-11.76 1.86-22.53.64-33.61.93-7-19.94-13.78-39.29-20.63-58.82h-108.49l-20.2 58.34h-31.33c.44-7.36 81.96-240.6 88.15-252.36zm61 162.27l-43-125.52c-6.45 11.16-42.39 118.59-42.38 125.52z"/><path fill="#6b686c" d="M1897.72 875.09h-32.4c-2.62-7.92-4.25-15.84-7.73-22.83-9.3-18.65-25.59-27.47-45.76-29.18-35.13-3-61.49 17.43-69.33 52.49a190.94 190.94 0 0 0-3.94 34.51c-.72 19.59-.74 39.24 3.56 58.55 5.7 25.61 19.65 44.33 45.68 51.77 25.34 7.24 55.45-1.82 68.09-24.67 4.57-8.24 6.8-17.78 10.42-27.61h30.89c1.46 9-1.07 17.35-3.77 25.31-14.1 41.66-51.49 58.65-82.64 60.18-24.54 1.21-46.88-4.73-66.47-19.72-20.64-15.77-31.74-37.36-35.88-62.48-3.85-23.28-5.22-46.68-3-70.39 1.28-13.94 2.41-27.78 6.46-41.19 10.41-34.42 33.33-56.39 68-65 31.75-7.92 61.56-2.65 87.57 18.14 15.67 12.53 24.69 29.31 28.51 48.91.76 4.13 1.1 8.39 1.74 13.21z"/><path fill="#6d6b6e" d="M2042.12 1048.34c-4.23.25-6.83.51-9.43.53-7.62.06-15.23 0-24.22 0 0-25.26-.09-49.74-.11-74.23V827.01h-74v-30.89h182.12v30.75h-74.32z"/><path fill="#101020" d="M2579.98 168.93c2 21.55-21.83 43.32-42.62 42.75-23.35-.63-45.94-21.12-44.26-43.48 1.72-22.79 16.52-42.52 44.22-43.29 20.66-.58 44.66 19.52 42.66 44.02z"/></svg>