<svg xmlns="http://www.w3.org/2000/svg" role="img" viewBox="-10.67 -10.67 554.84 482.84"><title>Open source readiness logo</title><style>svg {enable-background:new 0 0 533.72 462.05}</style><style>.st2{fill:#5297c9}.st3{fill:#1670a0}</style><path fill="#0586bf" d="M115.21 446.15v-10.34h7.86c2.02 0 3.59.43 4.7 1.3 1.11.86 1.67 2.13 1.67 3.8v.09c0 1.58-.57 2.84-1.71 3.76-1.14.92-2.68 1.39-4.61 1.39h-7.91zm-5.35 15.46h5.34v-10.69h6.77l7.56 10.69h6.35L127.6 450c1.08-.29 2.07-.71 2.96-1.25.89-.54 1.66-1.2 2.3-1.97.64-.77 1.15-1.66 1.51-2.67.37-1.01.55-2.14.55-3.39v-.09c0-1.34-.22-2.57-.66-3.68-.44-1.11-1.07-2.09-1.88-2.93-.99-.96-2.23-1.72-3.72-2.26-1.49-.54-3.2-.81-5.12-.81h-13.67v30.66h-.01zm38.85 0h22.91v-4.86h-17.56v-8.19h15.37v-4.86h-15.37v-7.88h17.35v-4.86h-22.69v30.65h-.01zm44.55-12.17l5.26-12.26 5.3 12.26h-10.56zm-10.65 12.17h5.52l3.15-7.4h14.5l3.11 7.4h5.69l-13.49-30.88h-4.99l-13.49 30.88zm49.76-4.86v-20.94h6.04c1.61 0 3.07.26 4.38.79s2.43 1.25 3.35 2.18c.92.92 1.64 2.03 2.15 3.32s.77 2.68.77 4.18v.09c0 1.49-.26 2.88-.77 4.16-.51 1.27-1.23 2.38-2.15 3.3-.92.92-2.04 1.64-3.35 2.15s-2.77.77-4.38.77h-6.04zm-5.34 4.86h11.43c2.39 0 4.59-.39 6.59-1.18 2-.79 3.72-1.87 5.17-3.24 1.45-1.37 2.56-2.99 3.35-4.86s1.18-3.88 1.18-6.04v-.09c0-2.16-.39-4.17-1.18-6.02-.79-1.85-1.9-3.47-3.35-4.84-1.45-1.37-3.17-2.45-5.17-3.22s-4.2-1.16-6.59-1.16h-11.43v30.65zm41.74 0h5.34v-30.66h-5.34v30.66zm20.76 0h5.34V439.8l16.87 21.81h4.5v-30.66h-5.34v21.2l-16.39-21.2h-4.98v30.66zm41.78 0h22.91v-4.86h-17.56v-8.19h15.37v-4.86h-15.37v-7.88H354v-4.86h-22.69v30.65zm51.73-.17c1.34-.41 2.49-1.01 3.44-1.8.95-.79 1.7-1.75 2.24-2.89.54-1.14.8-2.42.8-3.85v-.09c0-1.25-.21-2.36-.64-3.31s-1.05-1.78-1.87-2.5c-.82-.71-1.85-1.32-3.1-1.82-1.24-.5-2.67-.95-4.28-1.36-1.46-.35-2.67-.68-3.62-1.01-.95-.32-1.7-.66-2.24-1.03-.54-.36-.91-.77-1.12-1.23-.21-.45-.31-.97-.31-1.56v-.09c0-1.02.44-1.88 1.31-2.58.88-.7 2.1-1.05 3.68-1.05 1.4 0 2.79.27 4.16.81s2.76 1.32 4.16 2.34l2.89-4.07c-1.58-1.26-3.26-2.21-5.06-2.87-1.8-.66-3.82-.99-6.07-.99-1.52 0-2.92.22-4.2.66-1.28.44-2.38 1.04-3.29 1.82-.91.77-1.63 1.71-2.15 2.8-.52 1.1-.78 2.3-.78 3.61v.09c0 1.4.23 2.6.68 3.59.45.99 1.11 1.83 1.98 2.52.86.69 1.93 1.27 3.2 1.75 1.27.48 2.73.91 4.37 1.29 1.44.32 2.6.64 3.49.96.89.32 1.6.67 2.11 1.05.51.38.86.78 1.05 1.21.19.42.29.91.29 1.47v.09c0 1.17-.49 2.1-1.47 2.8-.98.7-2.3 1.05-3.96 1.05-1.93 0-3.65-.34-5.17-1.03s-3.02-1.67-4.51-2.96l-3.24 3.86c1.84 1.66 3.84 2.9 6 3.7 2.16.8 4.42 1.2 6.79 1.2 1.62.03 3.09-.17 4.44-.58zm35.21 0c1.34-.41 2.49-1.01 3.45-1.8.95-.79 1.7-1.75 2.24-2.89.54-1.14.8-2.42.8-3.85v-.09c0-1.25-.21-2.36-.64-3.31s-1.05-1.78-1.87-2.5c-.82-.71-1.85-1.32-3.1-1.82-1.24-.5-2.67-.95-4.28-1.36-1.46-.35-2.67-.68-3.62-1.01-.95-.32-1.7-.66-2.24-1.03-.54-.36-.91-.77-1.12-1.23-.21-.45-.31-.97-.31-1.56v-.09c0-1.02.44-1.88 1.31-2.58.88-.7 2.1-1.05 3.68-1.05 1.4 0 2.79.27 4.16.81s2.76 1.32 4.16 2.34l2.89-4.07c-1.58-1.26-3.26-2.21-5.06-2.87-1.8-.66-3.82-.99-6.07-.99-1.52 0-2.92.22-4.2.66-1.28.44-2.38 1.04-3.29 1.82-.91.77-1.63 1.71-2.15 2.8-.52 1.1-.78 2.3-.78 3.61v.09c0 1.4.23 2.6.68 3.59.45.99 1.11 1.83 1.98 2.52.86.69 1.93 1.27 3.2 1.75 1.27.48 2.73.91 4.37 1.29 1.43.32 2.6.64 3.49.96.89.32 1.6.67 2.11 1.05.51.38.86.78 1.05 1.21.19.42.28.91.28 1.47v.09c0 1.17-.49 2.1-1.47 2.8-.98.7-2.3 1.05-3.96 1.05-1.93 0-3.65-.34-5.17-1.03s-3.02-1.67-4.51-2.96l-3.24 3.86c1.84 1.66 3.84 2.9 6 3.7 2.16.8 4.42 1.2 6.79 1.2 1.62.03 3.1-.17 4.44-.58z"/><path fill="#0b1f41" d="M24.99 397.84c-1.81-.85-3.36-1.98-4.65-3.41-1.29-1.42-2.29-3.07-3.01-4.93-.71-1.86-1.07-3.83-1.07-5.91v-.16c0-2.08.34-4.05 1.03-5.91.69-1.86 1.67-3.49 2.96-4.89 1.29-1.4 2.83-2.51 4.61-3.33 1.78-.82 3.77-1.23 5.97-1.23 2.2 0 4.2.43 6.01 1.27 1.81.85 3.38 1.98 4.69 3.41 1.32 1.42 2.33 3.07 3.05 4.93.71 1.86 1.07 3.83 1.07 5.91v.16c0 2.08-.36 4.05-1.07 5.91-.71 1.86-1.7 3.49-2.96 4.89-1.26 1.4-2.8 2.51-4.61 3.33-1.81.82-3.82 1.23-6.01 1.23s-4.2-.42-6.01-1.27zm18.21 13.31c3.78-1.56 7.06-3.7 9.85-6.4 2.79-2.71 4.97-5.89 6.53-9.53 1.56-3.64 2.34-7.51 2.34-11.62v-.16c0-4.11-.78-7.97-2.34-11.58-1.56-3.61-3.71-6.76-6.45-9.45-2.74-2.68-6-4.8-9.77-6.36-3.78-1.56-7.88-2.34-12.32-2.34-4.43 0-8.54.78-12.32 2.34-3.78 1.56-7.06 3.69-9.85 6.4-2.79 2.71-4.97 5.89-6.53 9.53C.78 375.61 0 379.49 0 383.59v.16c0 4.11.78 7.97 2.34 11.58 1.56 3.61 3.71 6.76 6.45 9.45 2.74 2.68 6 4.8 9.77 6.36 3.78 1.56 7.88 2.34 12.32 2.34 4.43.01 8.54-.77 12.32-2.33zm46.95-11.62c-1.09-.49-2.04-1.19-2.86-2.09-.82-.9-1.46-1.97-1.92-3.2-.46-1.23-.7-2.59-.7-4.07V390c0-1.48.23-2.82.7-4.02.46-1.2 1.1-2.26 1.92-3.16.82-.9 1.77-1.6 2.86-2.09 1.09-.49 2.26-.74 3.52-.74 2.56 0 4.72.93 6.46 2.79 1.74 1.86 2.62 4.27 2.62 7.23v.17c0 3.01-.87 5.45-2.62 7.31-1.74 1.86-3.9 2.79-6.46 2.79-1.26-.02-2.43-.26-3.52-.75zm-20.84 25.95H85v-18.56c.71.82 1.5 1.63 2.37 2.42.87.79 1.86 1.48 2.95 2.05 1.09.57 2.31 1.04 3.65 1.4 1.34.36 2.85.53 4.55.53 2.62 0 5.12-.53 7.49-1.6 2.38-1.07 4.45-2.6 6.23-4.6 1.77-2 3.2-4.43 4.26-7.31 1.07-2.87 1.6-6.12 1.6-9.73v-.16c0-3.56-.53-6.76-1.6-9.61-1.06-2.85-2.5-5.26-4.3-7.23-1.8-1.97-3.89-3.49-6.27-4.56-2.38-1.07-4.88-1.6-7.49-1.6-1.64 0-3.13.19-4.46.58-1.34.38-2.54.89-3.6 1.52-1.07.63-2.04 1.36-2.91 2.18-.87.82-1.69 1.7-2.46 2.63v-5.91h-15.7v57.56zm68.49-39.01c.44-2.46 1.31-4.42 2.63-5.87 1.31-1.45 3.01-2.18 5.09-2.18 2.14 0 3.89.73 5.26 2.18 1.37 1.45 2.19 3.41 2.46 5.87H137.8zm20.41 24.47c3.15-1.64 5.79-3.83 7.93-6.57l-8.62-7.15c-1.59 1.59-3.16 2.74-4.72 3.45-1.56.71-3.27 1.07-5.13 1.07-2.46 0-4.53-.6-6.2-1.81-1.67-1.2-2.81-3.04-3.41-5.5h29.73c.05-.55.08-1.1.08-1.64v-1.56c0-3.28-.45-6.39-1.36-9.32-.9-2.93-2.27-5.5-4.11-7.72-1.84-2.22-4.16-3.98-6.98-5.3-2.82-1.31-6.15-1.97-9.98-1.97-3.29 0-6.3.6-9.03 1.81-2.74 1.21-5.11 2.86-7.1 4.97-2 2.11-3.55 4.57-4.64 7.39-1.1 2.82-1.64 5.84-1.64 9.07v.16c0 3.45.59 6.6 1.77 9.44 1.18 2.85 2.82 5.27 4.93 7.27s4.61 3.56 7.51 4.68c2.9 1.12 6.1 1.68 9.61 1.68 4.42.01 8.21-.81 11.36-2.45zm16.3 1.4h15.69v-24.06c0-2.46.61-4.32 1.82-5.58 1.22-1.26 2.77-1.89 4.66-1.89 1.84 0 3.32.63 4.46 1.89 1.13 1.26 1.7 3.12 1.7 5.58v24.06h15.69v-29.07c0-5.09-1.34-9.09-4-11.99-2.67-2.9-6.4-4.35-11.19-4.35-1.57 0-3 .21-4.3.62-1.3.41-2.49.95-3.57 1.6-1.08.66-2.05 1.43-2.92 2.3-.87.88-1.65 1.78-2.35 2.71v-6.24h-15.69v44.42zm107.83-.29c2.85-.85 5.28-2.08 7.31-3.69 2.03-1.61 3.6-3.57 4.72-5.86 1.12-2.29 1.68-4.92 1.68-7.87v-.17c0-2.68-.49-4.99-1.48-6.93-.99-1.94-2.41-3.59-4.27-4.96-1.86-1.37-4.12-2.53-6.77-3.48-2.66-.96-5.63-1.79-8.91-2.5-1.97-.44-3.6-.86-4.89-1.27-1.29-.41-2.3-.82-3.04-1.23-.74-.41-1.26-.86-1.56-1.35-.3-.49-.45-1.07-.45-1.72v-.16c0-1.04.48-1.91 1.44-2.62.96-.71 2.4-1.07 4.31-1.07 2.57 0 5.24.48 8.01 1.44 2.76.96 5.46 2.37 8.09 4.23l7.97-11.29c-3.12-2.53-6.61-4.45-10.47-5.74-3.86-1.3-8.25-1.94-13.18-1.94-3.45 0-6.54.45-9.28 1.35-2.74.9-5.08 2.17-7.02 3.81-1.94 1.64-3.42 3.58-4.43 5.82-1.01 2.24-1.52 4.7-1.52 7.38v.16c0 2.95.56 5.43 1.68 7.42 1.12 2 2.65 3.66 4.6 5 1.94 1.34 4.23 2.43 6.86 3.28s5.47 1.63 8.54 2.34c1.97.44 3.57.86 4.81 1.27 1.23.41 2.22.83 2.96 1.27.74.44 1.24.89 1.52 1.35.27.47.41 1 .41 1.6v.16c0 1.26-.56 2.23-1.68 2.91-1.12.68-2.75 1.02-4.89 1.02-6.68 0-12.89-2.3-18.64-6.9l-8.87 10.62c3.56 3.2 7.65 5.59 12.28 7.19 4.63 1.6 9.51 2.4 14.66 2.4 3.48 0 6.65-.42 9.5-1.27zm39.59-12.76c-1.15-.54-2.15-1.26-3-2.16-.85-.9-1.51-1.94-1.97-3.13-.47-1.19-.7-2.47-.7-3.83V390c0-1.3.22-2.55.66-3.75.44-1.19 1.05-2.24 1.85-3.14.79-.9 1.76-1.6 2.91-2.12 1.15-.52 2.44-.77 3.86-.77 1.37 0 2.63.27 3.78.81s2.15 1.26 3 2.16c.85.89 1.51 1.94 1.97 3.14.46 1.19.7 2.47.7 3.83v.16c0 1.3-.22 2.55-.66 3.75-.44 1.2-1.05 2.24-1.85 3.14-.8.9-1.77 1.6-2.92 2.12s-2.44.77-3.86.77c-1.37 0-2.62-.27-3.77-.81zm13.46 12.27c3.01-1.23 5.61-2.9 7.8-5.01 2.19-2.11 3.9-4.57 5.13-7.39 1.23-2.82 1.85-5.82 1.85-8.99V390c0-3.17-.6-6.16-1.81-8.95-1.2-2.79-2.9-5.23-5.09-7.31-2.19-2.08-4.78-3.74-7.76-4.97-2.98-1.23-6.26-1.85-9.81-1.85s-6.84.62-9.85 1.85-5.61 2.9-7.8 5.01c-2.19 2.11-3.9 4.57-5.13 7.39-1.23 2.82-1.85 5.82-1.85 8.99v.16c0 3.18.6 6.16 1.81 8.95 1.2 2.79 2.9 5.24 5.09 7.35 2.19 2.11 4.78 3.76 7.76 4.97 2.98 1.2 6.25 1.81 9.81 1.81 3.56 0 6.84-.61 9.85-1.84zm44.09-.37c2.11-1.42 3.87-3.07 5.27-4.93v6.08h15.69v-44.43h-15.69v24.06c0 2.46-.61 4.33-1.82 5.59-1.22 1.26-2.74 1.89-4.58 1.89-1.89 0-3.41-.63-4.54-1.89-1.14-1.26-1.7-3.12-1.7-5.59v-24.06h-15.69v29.07c0 5.09 1.33 9.09 4 11.99 2.67 2.9 6.4 4.35 11.19 4.35 3.14 0 5.76-.71 7.87-2.13zm29.33 1.15h15.69v-13.8c0-5.14 1.09-8.92 3.29-11.33 2.19-2.41 5.34-3.61 9.44-3.61h1.31v-16.43c-3.72-.16-6.68.66-8.87 2.46-2.19 1.81-3.91 4.22-5.17 7.23v-8.95h-15.69v44.43zm68.58-1.73c3.12-1.86 5.72-4.32 7.8-7.39l-10.43-7.56c-1.26 1.42-2.53 2.55-3.82 3.37-1.29.82-2.86 1.23-4.72 1.23-1.31 0-2.52-.26-3.61-.78-1.1-.52-2.03-1.23-2.79-2.14-.77-.9-1.37-1.97-1.81-3.2-.44-1.23-.66-2.56-.66-3.98V390c0-1.37.22-2.64.66-3.82.44-1.18 1.04-2.22 1.81-3.12.77-.9 1.68-1.61 2.75-2.14 1.07-.52 2.23-.78 3.49-.78 1.92 0 3.5.41 4.76 1.23 1.26.82 2.44 1.97 3.53 3.45l10.59-7.88c-1.92-3.01-4.41-5.42-7.47-7.23-3.07-1.81-6.9-2.71-11.5-2.71-3.5 0-6.72.62-9.65 1.85-2.93 1.23-5.43 2.9-7.51 5.01s-3.71 4.57-4.89 7.39c-1.18 2.82-1.77 5.79-1.77 8.91v.16c0 3.12.59 6.09 1.77 8.91 1.18 2.82 2.79 5.27 4.85 7.35 2.05 2.08 4.5 3.74 7.35 4.97 2.85 1.23 5.94 1.85 9.28 1.85 4.87 0 8.87-.93 11.99-2.79zm26.28-24.14c.44-2.46 1.31-4.42 2.63-5.87 1.31-1.45 3.01-2.18 5.09-2.18 2.14 0 3.89.73 5.26 2.18 1.37 1.45 2.19 3.41 2.46 5.87h-15.44zm20.4 24.47c3.15-1.64 5.79-3.83 7.93-6.57l-8.62-7.15c-1.59 1.59-3.16 2.74-4.72 3.45-1.56.71-3.27 1.07-5.13 1.07-2.46 0-4.53-.6-6.2-1.81-1.67-1.2-2.81-3.04-3.41-5.5h29.73c.05-.55.08-1.1.08-1.64v-1.56c0-3.28-.45-6.39-1.35-9.32-.9-2.93-2.27-5.5-4.11-7.72-1.84-2.22-4.16-3.98-6.98-5.3s-6.15-1.97-9.98-1.97c-3.28 0-6.3.6-9.03 1.81-2.74 1.21-5.1 2.86-7.1 4.97s-3.55 4.57-4.64 7.39c-1.1 2.82-1.64 5.84-1.64 9.07v.16c0 3.45.59 6.6 1.77 9.44 1.18 2.85 2.82 5.27 4.93 7.27s4.61 3.56 7.52 4.68c2.9 1.12 6.1 1.68 9.61 1.68 4.4.01 8.19-.81 11.34-2.45zM419.74 152.87C419.74 68.44 351.29 0 266.86 0c-84.43 0-152.87 68.44-152.87 152.87 0 46.17 20.5 87.54 52.86 115.57 50.9-17.24 91.52-41.58 100.01-105.59 0 0 40.17 74.3-37.05 138.35 11.87 2.95 24.27 4.55 37.05 4.55 84.43 0 152.88-68.45 152.88-152.88"/><path d="M266.97 305.75h0m.11 0h.03-.03m.1 0h.04-.04m.09 0h.07-.07m.13 0h.06-.06m.13 0h.06-.06m.13 0h.05-.05m.12 0h.05-.05m.12 0h.04c-.01-.01-.02 0-.04 0m.13-.01h.04-.04m.12 0h0m.12 0h0m.13 0h.01-.01m-94.83-39.64c47.72-17.14 85.18-42.08 93.29-103.24-8.11 61.16-45.56 86.1-93.29 103.24" class="st2"/><path d="M266.97 305.75h.04-.04c.01 0 .01 0 0 0m.11 0h.04-.04m.11 0h.05-.05m.08 0c16.35-.04 32.08-2.69 46.85-7.48 40.52-80.11-42.77-139.3-47.26-139.3-11.02 64.11-86.03 73.44-125.08 81.7 7.15 10.17 15.48 19.45 24.84 27.59-27.1-23.57-45.79-56.52-51.07-93.8 32.86 9.38 66.32 16.51 93.52 16.51 29.76 0 52.03-8.54 57.78-31.99 32.17 0 86.43 27.75 104.76 105.2-26.99 25.42-63.19 41.15-103.09 41.58H267.35c-.02-.01-.06-.01-.08-.01 0 0 .01 0 0 0m-100.42-37.31c-.03-.03-.07-.06-.1-.09.04.03.07.06.1.09m-.12-.11c-.03-.03-.06-.05-.09-.08.03.03.06.06.09.08m100.13-105.47" class="st3"/><path d="M266.86 305.75h.11-.11m.15 0H267.08h-.07m.12 0h.06-.06m.12 0h.03-.03" class="st2"/><path d="M267.01 305.75h.01-.01m.12 0h.02-.02m.11 0h.03-.03m-31.83-9.4c69.56-62.82 31.53-133.35 31.45-133.5 0 .01 38.18 70.61-31.45 133.5m-68.66-27.99c-.01-.01-.02-.02-.03-.02.01 0 .02.01.03.02m-.11-.1l-.01-.01.01.01" class="st3"/><path fill="#2089c1" d="M266.86 305.75h.11-.11m.16 0H267.08h-.06m.13 0h.04-.04m-24.05-1.85c-.03 0-.05-.01-.08-.01.02 0 .05 0 .08.01m-.08-.02c-4.47-.7-8.88-1.6-13.21-2.68 4.33 1.08 8.74 1.98 13.21 2.68m-76.17-35.44c50.9-17.24 91.52-41.58 100.01-105.59-8.11 61.16-45.57 86.11-93.29 103.24-2.22.81-4.46 1.59-6.72 2.35"/><path fill="#0880b7" d="M266.86 305.75c-8.08 0-16.02-.64-23.76-1.85-.03 0-.05-.01-.08-.01-4.47-.7-8.88-1.6-13.21-2.68 1.94-1.61 3.81-3.23 5.6-4.85 69.63-62.89 31.45-133.5 31.45-133.5-8.49 64.01-49.11 88.35-100.01 105.59-.03-.03-.06-.06-.1-.09-.01-.01-.02-.02-.03-.02-.03-.03-.06-.05-.09-.08l-.01-.01c-9.36-8.14-17.69-17.42-24.84-27.59 39.05-8.26 114.06-17.58 125.08-81.7 4.49 0 87.78 59.2 47.26 139.3-14.76 4.8-30.5 7.44-46.85 7.48h-.26-.05c-.02.01-.06.01-.1.01"/><path fill="#fff" d="M293.27 74.38c0-20.65-26.39-57.49-26.39-57.49S240.5 53.73 240.5 74.38s26.39 59.08 26.39 76.86c0-17.78 26.38-56.21 26.38-76.86zm-14.91 54.24c7.82 3.61 19.8 11.02 19.8 22.63 11.11-19.95-2.5-39.88-8.7-47.37-3.62 8.31-7.74 16.86-11.1 24.74zm-23 0c-7.82 3.61-19.8 11.02-19.8 22.63-11.11-19.95 2.5-39.88 8.7-47.37 3.62 8.31 7.74 16.86 11.1 24.74z"/><path fill="#f05323" d="M283.87 160.27c0-9.42-3.95-17.53-9.66-21.35-2.77 5.44-7.32 18.37-7.32 23.8 0-5.53-4.34-18.72-6.88-24.09-5.95 3.68-10.1 11.98-10.1 21.64 0 13.08 13.77 38.72 16.98 38.72s16.98-25.64 16.98-38.72z"/><path fill="#f58220" d="M277.88 158.71c0-6.11-2.57-11.38-6.27-13.85-1.8 3.53-4.75 11.92-4.75 15.44 0-3.59-2.82-12.15-4.46-15.63-3.86 2.39-6.55 7.77-6.55 14.04 0 8.49 8.93 25.12 11.02 25.12 2.08 0 11.01-16.63 11.01-25.12z"/></svg>