<svg xmlns="http://www.w3.org/2000/svg" role="img" viewBox="-10.79 -10.79 392.58 561.08"><title>OSLC Handbook logo</title><style>svg {enable-background:new 0 0 371.21 539.8}</style><style>.st0{fill:#0b1f41}.st2{fill:#5297c9}.st3{fill:#1670a0}</style><path d="M22.19 539.23h5.82v-14.08h16.04v14.08h5.82v-33.42h-5.82v13.89H28.02v-13.89H22.2v33.42h-.01zm52.85-13.27l5.73-13.37 5.78 13.37H75.04zm-11.6 13.27h6.02l3.44-8.07h15.8l3.39 8.07h6.21l-14.7-33.66h-5.44l-14.72 33.66zm48.41 0h5.82v-23.78l18.39 23.78h4.91v-33.42h-5.82v23.11l-17.87-23.11h-5.43v33.42zm51.36-5.3v-22.82h6.59c1.75 0 3.34.29 4.77.86 1.43.58 2.65 1.37 3.65 2.37 1 1.01 1.78 2.21 2.34 3.62.56 1.41.84 2.92.84 4.55v.1c0 1.63-.28 3.14-.84 4.53-.56 1.39-1.34 2.59-2.34 3.6-1 1.01-2.22 1.79-3.65 2.35-1.43.56-3.02.84-4.77.84h-6.59zm-5.82 5.3h12.46c2.61 0 5-.43 7.18-1.29 2.18-.86 4.06-2.04 5.63-3.53 1.58-1.5 2.79-3.26 3.65-5.3.86-2.04 1.29-4.23 1.29-6.59v-.1c0-2.36-.43-4.54-1.29-6.56-.86-2.02-2.08-3.78-3.65-5.28-1.58-1.5-3.45-2.67-5.63-3.51-2.18-.84-4.58-1.27-7.18-1.27h-12.46v33.43zm50.99-5.2v-9.17h9.28c2.32 0 4.04.39 5.16 1.17 1.13.78 1.69 1.89 1.69 3.32v.1c0 1.53-.57 2.67-1.71 3.44-1.14.76-2.71 1.15-4.71 1.15h-9.71v-.01zm0-14.13v-8.88h8.42c1.9 0 3.35.38 4.35 1.12 1 .75 1.5 1.79 1.5 3.13v.1c0 1.53-.57 2.67-1.71 3.41-1.14.75-2.66 1.12-4.57 1.12h-7.99zm-5.83 19.33h15.44c1.84 0 3.53-.2 5.05-.6 1.52-.4 2.83-.98 3.91-1.74s1.91-1.72 2.5-2.86c.59-1.15.88-2.47.88-3.96v-.1c0-1.15-.16-2.15-.48-3.01-.32-.86-.77-1.61-1.35-2.24-.58-.64-1.28-1.19-2.09-1.65-.81-.46-1.7-.87-2.68-1.22.6-.32 1.19-.7 1.77-1.15.58-.44 1.09-.96 1.52-1.55.43-.59.77-1.27 1.04-2.05.27-.78.4-1.68.4-2.7v-.1c0-2.2-.75-4.04-2.24-5.54-1.97-1.97-4.88-2.96-8.72-2.96h-14.96v33.43h.01zm53.77-5.78c-1.39-.64-2.59-1.49-3.59-2.55-1-1.07-1.77-2.32-2.33-3.77-.56-1.45-.83-2.98-.83-4.61v-.1c0-1.62.28-3.15.83-4.58.55-1.43 1.32-2.68 2.3-3.75.98-1.06 2.16-1.91 3.54-2.53 1.38-.62 2.89-.93 4.54-.93s3.17.32 4.56.96c1.39.64 2.59 1.49 3.59 2.55 1 1.07 1.77 2.32 2.33 3.77s.83 2.98.83 4.61v.09c0 1.62-.28 3.15-.83 4.58-.56 1.43-1.32 2.68-2.31 3.75-.98 1.07-2.16 1.91-3.54 2.53-1.38.62-2.89.93-4.54.93-1.63.01-3.15-.31-4.55-.95zm11.54 4.97c2.13-.92 3.98-2.17 5.54-3.75s2.77-3.41 3.63-5.49c.86-2.08 1.29-4.3 1.29-6.66v-.1c0-2.36-.43-4.58-1.29-6.66-.86-2.08-2.05-3.91-3.58-5.47-1.53-1.56-3.36-2.79-5.49-3.7-2.13-.91-4.49-1.36-7.07-1.36s-4.93.46-7.07 1.38c-2.13.92-3.98 2.17-5.54 3.75-1.56 1.57-2.77 3.41-3.63 5.49-.86 2.09-1.29 4.3-1.29 6.66v.09c0 2.36.43 4.58 1.29 6.66.86 2.09 2.05 3.91 3.58 5.47 1.53 1.56 3.36 2.79 5.49 3.7s4.49 1.36 7.07 1.36c2.58.01 4.94-.45 7.07-1.37zm36.87-4.97c-1.4-.64-2.59-1.49-3.59-2.55-1-1.07-1.78-2.32-2.33-3.77-.56-1.45-.83-2.98-.83-4.61v-.1c0-1.62.28-3.15.83-4.58.55-1.43 1.32-2.68 2.31-3.75.98-1.06 2.16-1.91 3.54-2.53 1.38-.62 2.89-.93 4.54-.93s3.17.32 4.56.96c1.39.64 2.59 1.49 3.59 2.55 1 1.07 1.77 2.32 2.33 3.77.55 1.45.83 2.98.83 4.61v.09c0 1.62-.28 3.15-.83 4.58-.55 1.43-1.32 2.68-2.3 3.75-.98 1.07-2.16 1.91-3.54 2.53-1.38.62-2.89.93-4.54.93-1.65.01-3.17-.31-4.57-.95zm11.54 4.97c2.13-.92 3.98-2.17 5.54-3.75s2.77-3.41 3.63-5.49c.86-2.08 1.29-4.3 1.29-6.66v-.1c0-2.36-.43-4.58-1.29-6.66-.86-2.08-2.05-3.91-3.58-5.47-1.53-1.56-3.36-2.79-5.49-3.7-2.13-.91-4.49-1.36-7.07-1.36s-4.93.46-7.07 1.38c-2.13.92-3.98 2.17-5.54 3.75-1.56 1.57-2.77 3.41-3.63 5.49-.86 2.09-1.29 4.3-1.29 6.66v.09c0 2.36.43 4.58 1.29 6.66.86 2.09 2.05 3.91 3.58 5.47 1.53 1.56 3.36 2.79 5.49 3.7 2.13.91 4.49 1.36 7.07 1.36 2.58.01 4.93-.45 7.07-1.37zm25.39.81h5.82v-9.69l5.2-5.35 11.41 15.04h7.11l-14.51-19.05 13.89-14.37h-7.21l-15.9 16.8v-16.8h-5.82v33.42h.01z" class="st0"/><path fill="#0586bf" d="M52.23 466.3c-2.18-1.02-4.04-2.38-5.59-4.1-1.55-1.71-2.76-3.69-3.61-5.92-.86-2.24-1.29-4.61-1.29-7.11v-.2c0-2.5.41-4.87 1.24-7.11.82-2.24 2.01-4.2 3.56-5.87 1.55-1.68 3.4-3.01 5.54-4 2.14-.99 4.54-1.48 7.18-1.48 2.64 0 5.05.51 7.23 1.53 2.18 1.02 4.06 2.39 5.64 4.1 1.58 1.71 2.8 3.69 3.66 5.92.86 2.24 1.29 4.61 1.29 7.11v.2c0 2.5-.43 4.87-1.29 7.11-.86 2.24-2.05 4.19-3.56 5.87-1.52 1.68-3.36 3.01-5.54 4-2.18.99-4.59 1.48-7.23 1.48-2.65 0-5.05-.51-7.23-1.53zm21.88 15.99c4.54-1.88 8.49-4.44 11.85-7.7 3.36-3.26 5.97-7.07 7.85-11.45 1.88-4.38 2.81-9.03 2.81-13.97v-.2c0-4.93-.94-9.57-2.81-13.92-1.88-4.34-4.46-8.13-7.75-11.35-3.29-3.22-7.21-5.78-11.75-7.65-4.54-1.88-9.48-2.81-14.81-2.81s-10.27.94-14.81 2.81c-4.54 1.88-8.49 4.44-11.85 7.7-3.36 3.26-5.97 7.08-7.85 11.45-1.88 4.38-2.81 9.03-2.81 13.97v.2c0 4.94.94 9.58 2.81 13.92 1.88 4.34 4.46 8.13 7.75 11.35 3.29 3.23 7.21 5.77 11.75 7.65 4.54 1.88 9.48 2.81 14.81 2.81 5.34 0 10.27-.93 14.81-2.81zm71.07 1.09c3.42-1.02 6.35-2.5 8.79-4.43 2.43-1.94 4.33-4.29 5.68-7.05 1.35-2.76 2.02-5.91 2.02-9.46v-.2c0-3.22-.59-5.99-1.78-8.33-1.18-2.33-2.9-4.32-5.13-5.96-2.24-1.64-4.95-3.04-8.14-4.19-3.19-1.15-6.76-2.15-10.71-3-2.37-.52-4.33-1.03-5.87-1.53-1.55-.49-2.76-.98-3.65-1.48-.89-.49-1.51-1.03-1.88-1.63-.36-.59-.54-1.28-.54-2.07v-.2c0-1.25.57-2.3 1.73-3.15 1.15-.85 2.88-1.28 5.18-1.28 3.09 0 6.3.58 9.62 1.73 3.32 1.15 6.56 2.85 9.72 5.08l9.57-13.57c-3.75-3.04-7.95-5.35-12.59-6.9-4.64-1.56-9.92-2.33-15.84-2.33-4.15 0-7.86.54-11.15 1.63-3.29 1.08-6.11 2.61-8.44 4.58-2.34 1.97-4.11 4.3-5.33 7-1.22 2.69-1.83 5.65-1.83 8.87v.2c0 3.55.67 6.52 2.02 8.92 1.35 2.4 3.19 4.4 5.53 6.01 2.34 1.61 5.08 2.92 8.24 3.94s6.58 1.96 10.27 2.81c2.37.53 4.29 1.04 5.77 1.53 1.48.49 2.67 1 3.55 1.53.89.53 1.5 1.07 1.83 1.62.33.56.49 1.2.49 1.92v.2c0 1.51-.68 2.68-2.02 3.5-1.35.82-3.31 1.23-5.87 1.23-8.03 0-15.5-2.76-22.41-8.29l-10.66 12.76c4.28 3.84 9.2 6.72 14.76 8.64 5.56 1.92 11.43 2.88 17.62 2.88 4.21 0 8.03-.51 11.45-1.53zm25.76.34h52.61v-16.78h-33.46v-52.32h-19.15v69.1zm104.39.2c3.06-.79 5.82-1.88 8.29-3.26 2.47-1.38 4.67-3.03 6.61-4.93 1.94-1.91 3.73-3.98 5.38-6.22l-14.41-10.26c-1.05 1.25-2.12 2.39-3.21 3.4-1.09 1.02-2.24 1.91-3.45 2.67-1.22.76-2.57 1.33-4.05 1.73-1.48.39-3.11.59-4.89.59-2.43 0-4.66-.48-6.66-1.43-2.01-.95-3.73-2.25-5.18-3.9-1.45-1.64-2.58-3.6-3.4-5.87-.82-2.27-1.23-4.69-1.23-7.26v-.2c0-2.5.41-4.87 1.23-7.11.82-2.24 1.96-4.18 3.4-5.82 1.45-1.64 3.17-2.94 5.18-3.9 2.01-.95 4.23-1.43 6.66-1.43 3.36 0 6.22.72 8.59 2.17s4.54 3.42 6.51 5.92l14.41-11.15c-1.52-2.11-3.24-4.05-5.18-5.82-1.94-1.78-4.11-3.31-6.51-4.59-2.4-1.28-5.05-2.27-7.95-2.96-2.9-.69-6.12-1.04-9.67-1.04-5.26 0-10.12.92-14.56 2.76-4.44 1.84-8.28 4.39-11.5 7.65-3.23 3.26-5.76 7.07-7.6 11.45-1.84 4.38-2.76 9.06-2.76 14.07v.2c0 5.13.94 9.89 2.81 14.26 1.88 4.38 4.41 8.16 7.6 11.35 3.19 3.19 6.96 5.67 11.3 7.45s8.98 2.67 13.92 2.67c3.82-.01 7.26-.4 10.32-1.19z"/><path d="M353.85 176.93C353.85 79.21 274.64 0 176.93 0 79.21 0 0 79.21 0 176.93c0 53.44 23.73 101.31 61.18 133.75 58.91-19.95 105.92-48.12 115.75-122.2 0 0 46.49 85.99-42.88 160.11 13.73 3.42 28.09 5.26 42.88 5.26 97.71 0 176.92-79.21 176.92-176.92" class="st0"/><path d="M177.05 353.85s.01 0 0 0h0m.13 0h.03-.03m.12 0h.06-.06m.11 0h.08-.08m.15 0h.07-.07m.14 0h.07-.07m.15 0h.06-.06m.14 0h.05-.05m.14 0h.04-.04m.15 0h.04-.04m.14 0h.03-.03m.14 0h0m-23.94-1.4c-6.46-.82-12.82-1.99-19.05-3.48 5.79 1.39 11.7 2.5 17.7 3.3l1.35.18m-93.44-41.77l-.87-.75c.29.24.58.5.87.75m-.89-.78c-.02-.02-.05-.04-.07-.06.02.02.05.04.07.06m-.11-.1c-.02-.01-.03-.03-.05-.04.02.01.04.03.05.04m19.25-5.77c50.12-19.75 88.62-49.24 97.46-115.33-8.84 66.09-47.33 95.58-97.46 115.33" class="st2"/><path d="M176.93 353.85c-7.56 0-15-.48-22.31-1.41l-1.35-.18c7.74 1.05 15.63 1.59 23.66 1.59m.13 0h.04-.04m.13 0h.05-.05m.12 0h.05-.05m.09 0c18.93-.05 37.14-3.11 54.22-8.66 46.85-92.63-49.34-161.1-54.68-161.22 37.24.01 100.02 32.13 121.22 121.75-31.26 29.44-73.22 47.66-119.45 48.12H177.5c-.04.01-.07.01-.1.01 0 0 .01 0 0 0M61.18 310.68c-.29-.25-.58-.5-.86-.75l-.02-.02c-.02-.02-.05-.04-.07-.06-.01-.01-.02-.02-.04-.03-.02-.01-.03-.03-.05-.04-30.95-27.25-52.27-65.11-58.32-107.89C39.85 212.75 78.57 221 110.05 221c34.45 0 60.21-9.88 66.88-37.02-12.75 74.2-99.56 84.99-144.75 94.55 8.34 11.85 18.06 22.67 29 32.15m127.83-68.08c0-30.26-10.98-52-12.01-53.97 1.03 1.97 12.02 23.7 12.01 53.97" class="st3"/><path d="M176.93 353.85h.12-.12m.17 0h.08-.08m.14 0h.06-.06m.13 0h0M61.18 310.68c6.23-2.11 12.32-4.31 18.25-6.65-5.93 2.34-12.02 4.54-18.25 6.65" class="st2"/><path d="M177.23 353.85h0c.01 0 .01 0 0 0m.14 0h.03-.03m-43.33-5.26c43.79-36.32 54.97-75.49 54.97-105.99 0 30.5-11.17 69.67-54.97 105.99m42.9-164.62h-.01.01" class="st3"/><path fill="#2089c1" d="M176.93 353.85H177.05h-.12m.17 0h.08-.08m.16 0h.06-.06m-23.99-1.58c-6-.81-11.9-1.92-17.7-3.3-.51-.12-1.02-.25-1.53-.37 6.29 1.56 12.7 2.79 19.23 3.67m-92.09-41.59c58.91-19.95 105.92-48.12 115.75-122.2-.01.07-.02.14-.03.22-8.84 66.1-47.34 95.59-97.46 115.33-5.94 2.34-12.03 4.54-18.26 6.65"/><path fill="#0880b7" d="M176.93 353.85c-8.02 0-15.92-.54-23.66-1.58-6.53-.88-12.94-2.11-19.23-3.68 43.79-36.32 54.97-75.49 54.97-105.99 0-30.26-10.98-52-12.01-53.97-.05-.1-.08-.15-.08-.15-9.83 74.08-56.84 102.25-115.75 122.2-10.94-9.47-20.66-20.3-29.01-32.15 45.19-9.56 132-20.35 144.75-94.55h.01c5.35.12 101.54 68.59 54.68 161.22-17.09 5.55-35.3 8.61-54.22 8.66H177.02c0-.01-.05-.01-.09-.01"/><path fill="#fff" d="M207.5 86.08c0-23.9-30.54-66.53-30.54-66.53s-30.54 42.63-30.54 66.53 30.54 68.38 30.54 88.96c0-20.58 30.54-65.06 30.54-88.96zm-17.26 62.77c9.05 4.18 22.91 12.76 22.91 26.19 12.85-23.08-2.89-46.15-10.07-54.82-4.19 9.62-8.95 19.51-12.84 28.63zm-26.62 0c-9.04 4.18-22.91 12.76-22.91 26.19-12.85-23.08 2.89-46.15 10.07-54.82 4.18 9.62 8.95 19.51 12.84 28.63z"/><path fill="#f05323" d="M196.61 185.48c0-10.9-4.57-20.29-11.18-24.71-3.21 6.29-8.47 21.26-8.47 27.54 0-6.4-5.03-21.67-7.96-27.88-6.88 4.26-11.69 13.86-11.69 25.05 0 15.14 15.93 44.82 19.65 44.82 3.72 0 19.65-29.68 19.65-44.82z"/><path fill="#f58220" d="M189.68 183.68c0-7.07-2.97-13.16-7.25-16.03-2.08 4.08-5.5 13.79-5.5 17.87 0-4.15-3.26-14.06-5.16-18.09-4.47 2.77-7.58 9-7.58 16.25 0 9.82 10.34 29.08 12.75 29.08 2.4 0 12.74-19.26 12.74-29.08z"/></svg>