<svg xmlns="http://www.w3.org/2000/svg" role="img" viewBox="-14.93 -14.93 776.36 558.86"><title>Perspective logo</title><style>svg {enable-background:new 0 0 746.91 529.54}</style><style>.st0{fill:#25282a}</style><path d="M537.34 327.77V0H451.3c40.03 12.45 64.98 45.45 67.06 95.36h-82.08c-.77-20.29-11.17-29.51-25.05-29.51-8.34-.34-14.14 6.46-16.19 16.44-2.05-5.98-6.1-12.82-13.51-17.02-12.86-7.27-53.18-4.22-67.15-2.81C322.8 30.54 345.08 9.38 374.66 0H209.57v327.77h210.9c-58.68-.01-107.43-36.75-110.31-112.55h33.23c17.4 0 32.62-2.57 46.13-6.84-4.23 28.33 15.14 47.91 28.27 47.91 13.49 0 23.89-8.3 23.89-23.52-.38-52.11-132.17-27.67-131.02-140.64 0-6.55.51-12.77 1.41-18.69 8.04-.23 33.48-.86 46.96.08 16.13 1.13 21.76 4.5 28.13 10.5 6.38 6 7.13 10.13 7.13 10.13h.1c3.93 47.02 127.44 28.05 127.44 131.7 0 57.18-36.99 101.9-101.33 101.91h116.84v.01z" class="st0"/><path fill="#97999b" d="M463.97 105.5c0-3.44-.14-6.81-.37-10.15-.55-7.86-1.8-15.38-3.63-22.57-.22-.86-.4-1.73-.64-2.58-.46-1.65-1.01-3.26-1.54-4.87-.34-1.04-.66-2.09-1.03-3.12-.54-1.49-1.15-2.93-1.76-4.38-.46-1.1-.9-2.2-1.39-3.27-.62-1.36-1.3-2.68-1.98-4.01-.56-1.1-1.12-2.2-1.73-3.28-.7-1.26-1.45-2.48-2.21-3.7-.67-1.08-1.35-2.16-2.06-3.21-.78-1.16-1.61-2.29-2.44-3.41-.78-1.05-1.58-2.09-2.41-3.11-.86-1.06-1.74-2.09-2.64-3.11-.9-1.02-1.83-2.01-2.78-2.99-.93-.96-1.87-1.91-2.84-2.83-1.02-.97-2.08-1.91-3.15-2.84-.99-.86-1.98-1.72-3.02-2.54-1.16-.92-2.36-1.8-3.57-2.68-1.05-.76-2.08-1.52-3.16-2.24-1.31-.87-2.67-1.68-4.03-2.5-1.08-.65-2.14-1.32-3.26-1.93-1.49-.82-3.06-1.58-4.61-2.34-1.08-.53-2.13-1.09-3.24-1.59-1.79-.81-3.67-1.53-5.54-2.26-.96-.38-1.89-.79-2.87-1.15-2.9-1.04-5.88-2.01-8.96-2.86H209.57v327.77h89.52V215.22H343.4c4.54 0 8.89-.22 13.16-.53 12.04-.94 22.98-3.15 32.96-6.31-.01.07-.01.14-.02.21 4.91-1.53 9.49-3.38 13.91-5.38-79.01-26.73-82.64-51.28-88.91-62.54h-15.41V65.65h46.58c27.63 0 43.59 5.87 48.63 26.36.01.47-.03.92-.01 1.4.03.59.17 1.12.24 1.69l.03.24c2.93 22.51 34.03 29.58 64.81 43.37 3.04-10.59 4.6-21.76 4.6-33.21zM196.73 486.38c15.94-4.86 23.53-17 23.53-30.97 0-19.13-13.36-34.31-39.92-34.31H0v107.01h29.75V492h14.72c11.53 0 20.48-2.99 26.97-7.84v43.97H163.18v-39.47h3.19l21.25 39.47h33.24l-24.13-41.75zm-63.29-23.98H101.2v-17.46h32.24v17.46zm-91.85 5.92H29.75V445.1h11.84c8.96 0 12.6 4.55 12.6 11.69 0 6.97-3.64 11.53-12.6 11.53zm59.61 35.97v-19.28h32.24v19.28H101.2zm76.71-35.97h-14.72V446h14.72c8.04 0 12.14 4.4 12.14 11.08.01 7.29-4.09 11.24-12.14 11.24z"/><path d="M708.2 445.3h38.71v-23.83h-82.94l-24.14 77.26-24.29-77.26H256.79c-4.47-1.1-9.41-1.67-14.74-1.67-22.62 0-40.07 11.23-40.07 32.18-.46 37.19 51.46 29.15 51.61 46.3 0 5.01-4.1 7.74-9.41 7.74-5.46 0-10.17-2.73-10.78-10.78h-31.54l15.81 27.34c7.46 4.56 16.92 6.96 27.57 6.96 4.01 0 7.74-.37 11.19-1.06h37.04v-36.13h14.72c4.33 0 8.29-.42 11.9-1.2v37.33h104.59v-.3c2.06.2 4.16.3 6.32.3 26.87 0 45.99-15.22 51.31-39.1h-32.03c-3.8 7.91-10.93 12.24-19.73 12.24-13.66 0-22.62-10.45-22.62-26.72 0-16.12 8.96-26.57 22.62-26.57 8.8 0 15.94 4.33 19.73 12.24h32.03c-1.26-5.66-3.3-10.82-6.03-15.42h14.79v83.33h29.75v-83.33h26.46v59.65h-13.64v23.68h57.34V504.8h-13.64v-59.65h14.53l28.84 83.33h38.1l19.65-57.01v57.01h68.46v-23.83H708.2v-17.77h31.37c-.72-3.82-1.14-7.8-1.14-11.98 0-4.12.41-8.06 1.12-11.83H708.2V445.3zm-474.5 5.61c0-5.16 3.49-7.74 7.89-7.59 5.46 0 9.56 3.04 9.87 9.71h12.26v15.3c-14.12-6.21-30.02-8.56-30.02-17.42zm71.61 17.76h-11.84v-23.22h11.84c8.96 0 12.6 4.55 12.6 11.69 0 6.98-3.64 11.53-12.6 11.53zm38.59 18.21h31.29c-.72-3.82-1.14-7.8-1.14-11.98 0-4.12.41-8.06 1.12-11.83h-27.35c.3-1.94.46-3.92.46-5.93 0-4.22-.57-8.2-1.7-11.86h38.89c-4.99 8.28-7.74 18.35-7.74 29.63 0 11.35 2.75 21.46 7.76 29.77H343.9v-17.8z" class="st0"/></svg>