<svg xmlns="http://www.w3.org/2000/svg" role="img" viewBox="-14.77 -14.77 768.04 568.04"><title>Plexus Interop logo</title><style>svg {enable-background:new 0 0 738.9 538.93}</style><style>.st0{fill:#0086bf}</style><path d="M96.2 464.1c9.78-11.88 14.68-28.61 14.68-50.18 0-22.22-4.65-39.15-13.95-50.79-9.3-11.64-22.81-17.45-40.52-17.45-19.81 0-34.22 7.09-43.24 21.26h-.72l-2.29-18.72H0v190.72h11.96v-50c0-7.09-.16-13.61-.48-19.57l-.36-10.14h.85c9.26 15.14 23.99 22.71 44.21 22.71 16.89-.02 30.24-5.96 40.02-17.84zm-73.92-5.98c-6.88-8.78-10.33-23.43-10.33-43.97v-3.86c0-19 3.58-32.71 10.75-41.13 7.17-8.41 18.4-12.62 33.7-12.62 27.86 0 41.79 19.29 41.79 57.86 0 17.96-3.68 31.93-11.05 41.91-7.37 9.99-17.78 14.98-31.22 14.98-15.54 0-26.75-4.39-33.64-13.17zm146.81-166.56h-11.96V479.5h11.96V291.56zm127.65 188.6c6.28-1.17 13.12-3.36 20.53-6.58v-10.87c-8.7 3.46-15.88 5.72-21.56 6.76-5.68 1.05-12.26 1.57-19.75 1.57-15.38 0-27.2-4.75-35.45-14.25-8.26-9.5-12.46-23.27-12.62-41.31h94.57v-9.66c0-18.52-4.47-33.17-13.41-43.96-8.94-10.79-21.14-16.19-36.6-16.19-17.47 0-31.36 6.3-41.67 18.9-10.31 12.6-15.46 29.37-15.46 50.31 0 21.18 5.33 37.64 16 49.4 10.67 11.76 25.55 17.64 44.63 17.64 7.59 0 14.51-.59 20.79-1.76zm3.15-110.99c6.6 8.57 9.9 20.47 9.9 35.69h-81.17c1.29-15.7 5.76-27.72 13.41-36.05 7.65-8.33 17.79-12.5 30.44-12.5 11.67-.01 20.81 4.28 27.42 12.86zm53.37 110.33h13.17l41.55-58.58 41.31 58.58h13.89l-48.31-67.52 45.05-63.77h-13.17l-38.77 55.32-39.13-55.32h-13.77l45.78 63.77-47.6 67.52zm146.99-131.29v85.76c0 31.97 14.94 47.95 44.81 47.95 21.82 0 37-6.84 45.54-20.53h.72l2.17 18.12h10.15v-131.3H591.8v72.47c0 17.8-3.68 30.64-11.05 38.53-7.37 7.89-18.86 11.84-34.48 11.84-11.68 0-20.29-3-25.85-9-5.56-6-8.33-15.6-8.33-28.81v-85.03h-11.84zm234.61 81.77c-2.7-4.35-6.74-8.23-12.14-11.65s-14.01-7.27-25.85-11.54c-14.17-5.07-23.69-9.66-28.57-13.77-4.87-4.11-7.31-9.58-7.31-16.43 0-6.28 3.14-11.19 9.42-14.74 6.28-3.54 14.78-5.31 25.49-5.31 11.03 0 22.99 2.66 35.87 7.97l4.47-10.87c-12.72-5.31-26.17-7.97-40.34-7.97-14.82 0-26.35 2.86-34.6 8.58-8.25 5.72-12.38 13.49-12.38 23.31 0 6.2 1.35 11.46 4.05 15.76 2.7 4.31 6.7 8.17 12.02 11.6 5.32 3.42 14.53 7.51 27.66 12.26 12.24 4.35 21.04 8.78 26.39 13.29 5.35 4.51 8.03 10.07 8.03 16.67 0 7.17-3.36 12.9-10.09 17.21-6.72 4.31-16.57 6.46-29.53 6.46-14.66 0-28.59-3.3-41.79-9.9v12.92c10.31 5.4 24.24 8.09 41.79 8.09 16.43 0 29.11-3.16 38.05-9.48 8.94-6.32 13.41-15.36 13.41-27.11-.01-5.89-1.36-11-4.05-15.35z"/><path d="M624.14 232.52s-66.26-51.06-115.82-51.06h-34.61c28.55 29.7 53.19 51.06 66.83 51.06h83.6zM300.7.23V0h-1.12c.33 0 .76.17 1.12.23zM210.4 0h-95.63s66.26 51.06 115.82 51.06h46.1C248.89 21.35 224.71 0 210.4 0z" class="st0"/><path fill="#003594" d="M540.52 232.52h-89.19C412.38 232.52 257.7 0 210.4 0h89.19c30.97 0 195.89 232.52 240.93 232.52z"/><path fill="#00b5e2" d="M265.2 181.46h-34.62c-49.56 0-115.82 51.06-115.82 51.06h83.61c13.64 0 38.28-21.36 66.83-51.06zM624.14 0h-95.63c-14.31 0-38.49 21.35-66.29 51.06h46.1C557.87 51.06 624.14 0 624.14 0zM438.2.23c.36-.05.79-.23 1.12-.23h-1.12v.23z"/><path d="M198.38 232.52h89.19C326.52 232.52 481.21 0 528.51 0h-89.18c-30.99 0-195.91 232.52-240.95 232.52z" class="st0"/></svg>