<svg xmlns="http://www.w3.org/2000/svg" role="img" viewBox="-9.57 -9.57 497.64 123.64"><title>RBC Capital Markets, LLC logo</title><path d="M14 2h1v1h-1zM8 7h1v1H8zm39 1h1v9h-1zm106 0h1v1h-1zM15 9h2v1h-2zm2 0h1v1h-1zm-3 1h1v1h-1zm354 0h1v1h-1zM14 11h1v1h-1zm140 1h1v1h-1zM8 13h1v1H8zm-1 2h1v1H7zm10 1h1v1h-1zm14 0h2v1h-2zm2 0h1v1h-1zM5 17h1v1H5zm7 0h1v1h-1zm16 0h2v1h-2zm2 0h1v1h-1zm17 0h1v1h-1zm358 0h1v1h-1zm-252 1h1v1h-1zM9 19h1v1H9zm233 0h1v1h-1zM17 20h1v1h-1zm28 0h1v1h-1zm-29 1h1v1h-1zm12 0h1v1h-1zM8 22h1v2H8zm12 0h1v1h-1zm8 0h1v1h-1zm18 0h1v1h-1zm310 0h1v1h-1zm-113 1h1v1h-1zM8 24h1v1H8zm375 0h1v1h-1zm-232 1h1v1h-1zm89 1h1v1h-1zm65 0h1v1h-1zM9 27h1v1H9zm-6 1h1v1H3zm29 0h1v1h-1zm17 0h1v1h-1zm18 0h1v1h-1zm91 1h1v1h-1zm92 0h1v1h-1zm110 0h1v1h-1zM71 30h1v1h-1zm195 0h1v1h-1zM19 31h1v1h-1zm340 1h1v1h-1zm116 0h1v1h-1zM6 34h1v1H6zm30 0h1v1h-1zm15 0h1v1h-1zm11 0h1v1h-1zm-46 1h1v1h-1zm9 0h1v1h-1zm30 0h1v1h-1zm-7 1h1v1h-1zm4 0h1v1h-1zm-6 1h1v1h-1zm-26 1h1v1h-1zm11 1h1v1h-1zm42 1h1v1h-1zm0 1h1v1h-1zm-59 1h1v1h-1zm44 0h1v1h-1zM8 43h1v1H8zm7 0h1v1h-1zm12 0h1v1h-1zm47 0h1v1h-1zm-45 1h1v1h-1zM3 45h1v1H3zm38 0h1v1h-1zm34 0h1v1h-1zm-38 1h1v1h-1zM4 47h1v1H4zm7 0h1v1h-1zm32 0h1v1h-1zm33 0h1v1h-1zm-25 1h1v2h-1zm6 0h1v1h-1zm1 0h1v1h-1zM5 49h1v1H5zm31 0h1v1h-1zm20 0h1v1h-1zm14 0h1v1h-1zm-55 1h1v1h-1zm5 0h1v1h-1zm31 0h1v1h-1zm5 0h1v1h-1zm21 1h1v2h-1zm-59 1h1v1h-1zm10 0h1v1h-1zm-8 1h1v1h-1zm9 0h1v1h-1zm13 0h1v1h-1zm35 0h1v1h-1zm-67 1h1v1h-1zm49 1h1v1h-1zm1 0h1v1h-1zm-28 1h1v1h-1zm15 0h1v1h-1zm3 0h1v1h-1zm-24 1h1v1h-1zm22 0h1v1h-1zm1 0h1v1h-1zm5 0h1v1h-1zm12 0h1v1h-1zm1 0h1v1h-1zm9 1h1v1h-1zm-37 1h1v1h-1zm20 1h1v1h-1zm-28 1h1v1h-1zm5 0h1v1h-1zm24 0h1v1h-1zm4 1h2v1h-2zm2 0h1v1h-1zm-22 1h1v1h-1zm19 0h2v1h-2zm2 0h1v1h-1zm8 0h1v1h-1zm-13 1h1v1h-1zm-32 2h1v1h-1zm9 2h1v1h-1zm11 2h1v1h-1zm-10 1h1v1h-1zm15 1h1v1h-1zm21 0h1v1h-1zm-21 1h1v1h-1zm-4 1h1v1h-1zm-25 1h1v1h-1zm27 1h1v1h-1zm2 8h1v1h-1zm-11 2h1v1h-1zm48 14h1v1h-1zm-38 3h1v1h-1z" fill="#243581"/><path d="M23 4h1v1h-1zm0 1h1v1h-1zm23 13h1v1h-1zm-17 6h1v1h-1zm4 4h1v1h-1zM9 29h1v1H9zm20 0h1v1h-1zM5 31h1v1H5zm18 2h1v1h-1zm13 0h2v1h-2zm2 0h2v1h-2zm2 0h1v1h-1zm23 0h1v1h-1zm-44 5h1v1h-1zm31 0h1v1h-1zM7 42h1v1H7zm53 0h1v1h-1zm6 1h1v1h-1zm-16 1h1v1h-1zm1 0h1v1h-1zm19 4h1v1h-1zm-56 2h1v1h-1zm57 0h1v1h-1zm-30 3h1v1h-1zm-10 1h1v1h-1zm19 0h1v1h-1zm21 2h1v1h-1zm-33 2h1v1h-1zm25 6h1v1h-1zm-6 1h1v1h-1zm-9 3h1v1h-1zm4 1h1v1h-1z" fill="#082785"/><g fill="#fddf00"><path d="M14 5h6v1h-6zm6 0h1v2h-1zm-7 1h1v1h-1zm1 0h1v1h-1zm5 0h1v1h-1zm-7 1h1v2h-1zm1 0h1v1h-1zm7 0h1v1h-1zm-9 1h1v4h-1zm10 0h1v1h-1zm-9 1h1v1h-1zm9 0h23v1H21zm23 0h1v8h-1zm-17 1h2v1h-2zm2 0h1v1h-1zm13 0h2v1h-2zm-14 1h1v1h-1zm15 0h1v1h-1zm-32 1h1v1h-1zm1 0h1v1h-1zm0 1h1v1h-1zm1 1h1v1h-1zm0 1h2v1h-2zm2 0h1v1h-1zm28 2h1v1h-1zm1 0h1v1h-1zm-2 1h1v1h-1zm1 0h1v1h-1zm-12 1h3v1h-3zm3 0h1v1h-1zm-2 1h1v1h-1zm-1 1h1v2h-1zM5 22h1v1H5zm33 0h1v1h-1zm-7 1h2v1h-2zm2 0h2v2h-2zm2 0h1v1h-1zm4 0h3v2h-3zm3 0h1v3h-1zm-10 1h1v1h-1zm11 0h1v8h-1zm-25 1h1v1h-1zm15 0h1v1h-1zm1 0h1v1h-1z"/><path d="M38 25h5v1h-5zM5 26h1v1H5zm1 0h1v1H6zm12 0h1v1h-1zm16 0h1v1h-1zm8 0h1v1h-1zm-21 3h1v1h-1zm21 0h1v2h-1zm-21 1h1v1h-1zm10 0h1v5h-1z"/><path d="M36 30h7v1h-7zm15 0h14v1H51zm14 0h2v1h-2zm2 0h1v2h-1zM8 31h1v2H8zm17 0h1v1h-1zm5 0h7v1h-7zm7 0h1v1h-1zm4 0h2v1h-2zm8 0h18v1H49z"/><path d="M7 32h2v1H7zm2 0h1v1H9zm16 0h7v1h-7zm7 0h1v5h-1zm11 0h1v1h-1zm1 0h1v3h-1zm5 0h2v1h-2zm2 0h1v1h-1zm14 0h5v1h-5zm5 0h1v1h-1zM8 33h2v1H8zm2 0h1v1h-1zm16 0h6v1h-6zm19 0h2v1h-2zm24 0h2v1h-2zm2 0h1v1h-1zm-61 1h1v1h-1zm1 0h1v2h-1zm18 0h3v1h-3zm16 0h1v1h-1zm1 0h1v1h-1zm25 0h1v1h-1zm1 0h1v3h-1zm-60 1h1v1h-1zm19 0h1v1h-1zm13 0h1v1h-1zm-33 1h2v1h-2zm2 0h1v1h-1zm20 0h1v2h-1zm1 0h1v3h-1zm5 0h3v1h-3zm26 0h1v3h-1zm-52 1h2v1h-2zm2 0h1v2h-1z"/><path d="M32 37h4v1h-4zm4 0h5v3h-5zm5 0h1v1h-1zm30 0h1v3h-1zm1 0h1v1h-1zm-58 1h2v1h-2zm2 0h1v2h-1z"/><path d="M33 38h7v1h-7zm22 0h10v1H55zm15 0h1v7h-1zm-56 1h3v1h-3zm3 0h1v3h-1zm17 0h6v1h-6zm18 0h5v1h-5zm5 0h1v1h-1zm4 0h5v1h-5zm5 0h1v2h-1z"/><path d="M69 39h2v4h-2zm-53 1h3v1h-3zm3 0h1v3h-1zm17 0h4v1h-4zm4 0h1v1h-1zm12 0h3v1h-3zm3 0h1v1h-1zm6 0h2v1h-2zm2 0h1v6h-1z"/><path d="M68 40h3v2h-3zm3 0h1v1h-1zm-53 1h1v1h-1zm22 0h1v1h-1zm1 0h1v1h-1zm9 0h1v1h-1zm5 0h1v2h-1zm1 0h1v1h-1zm5 0h1v1h-1zm1 0h1v1h-1z"/><path d="M66 41h4v1h-4zm-49 1h4v1h-4zm4 0h1v5h-1zm15 0h1v1h-1zm5 0h2v1h-2zm2 0h1v1h-1zm6 0h1v1h-1zm1 0h1v1h-1zm4 0h1v1h-1zm8 0h1v1h-1zm6 0h2v1h-2z"/><path d="M19 43h3v1h-3zm3 0h1v3h-1zm20 0h3v1h-3zm3 0h1v2h-1zm3 0h1v1h-1zm1 0h1v1h-1zm6 0h1v2h-1zm14 0h1v2h-1zM5 44h1v1H5z"/><path d="M20 44h5v1h-5zm5 0h1v2h-1zm19 0h3v1h-3zm3 0h1v3h-1zm17 0h1v3h-1zm7 0h1v2h-1zm-48 1h2v1h-2zm4 0h1v2h-1zm17 0h3v1h-3zm10 0h1v1h-1zm1 0h2v1h-2zm2 0h1v1h-1zm5 0h2v1h-2z"/><path d="M69 45h3v1h-3zm3 0h1v1h-1zm-50 1h6v1h-6zm6 0h1v2h-1zm18 0h1v1h-1zm17 0h2v1h-2zm2 0h1v1h-1zm6 0h2v1h-2zm2 0h1v2h-1zm-52 1h1v1h-1zm5 0h2v1h-2zm21 0h1v1h-1zm17 0h1v1h-1zm-36 1h2v1h-2zm2 0h1v3h-1z"/><path d="M29 49h2v1h-2zm2 0h1v3h-1zm1 1h1v3h-1zm-21 1h1v1h-1zm1 0h1v1h-1z"/><path d="M30 51h4v1h-4zm4 0h2v3h-2zm2 0h1v5h-1zm12 0h1v1h-1zm25 0h1v4h-1zm-62 1h2v1h-2zm2 0h1v1h-1z"/><path d="M31 52h6v1h-6zm6 0h1v3h-1zm27 0h1v1h-1zm-51 1h1v1h-1zm1 0h1v1h-1z"/><path d="M32 53h6v1h-6zm6 0h1v2h-1zm26 0h1v1h-1zm1 0h1v1h-1zm7 0h1v1h-1zm-58 1h2v1h-2zm2 0h1v1h-1zm17 0h5v1h-5zm7 0h1v3h-1zm-24 1h3v1h-3zm3 0h1v3h-1z"/><path d="M35 55h6v1h-6zm6 0h1v2h-1zm32 0h1v1h-1zm-56 1h2v1h-2zm19 0h1v2h-1zm28 0h1v1h-1zm-47 1h4v1h-4zm4 0h1v5h-1zm19 0h2v1h-2zm2 0h2v1h-2zm2 0h1v3h-1z"/><path d="M19 58h3v1h-3zm3 0h1v3h-1zm14 0h1v1h-1zm6 0h3v1h-3zm3 0h1v3h-1z"/><path d="M20 59h5v1h-5zm5 0h1v2h-1zm47 0h1v2h-1zm1 0h1v1h-1zm-50 1h2v1h-2zm4 0h1v2h-1zm17 0h1v1h-1zm27 0h1v1h-1z"/><path d="M22 61h6v1h-6zm6 0h1v1h-1zm17 0h1v1h-1zm1 0h1v1h-1zm25 0h1v1h-1zm1 0h1v1h-1zm-51 1h1v1h-1zm6 0h2v1h-2zm2 0h1v2h-1zm41 0h1v1h-1zm-23 1h1v1h-1zm1 0h1v2h-1zm-19 1h1v1h-1zm1 0h1v1h-1zm19 0h1v1h-1zm-19 1h1v1h-1zm18 0h1v1h-1zm20 0h1v2h-1zm1 0h1v2h-1z"/><path d="M64 66h5v1h-5zm-14 1h1v1h-1zm3 0h1v1h-1zm14 0h3v1h-3zm3 0h1v1h-1zm0 1h1v1h-1zm1 0h1v1h-1zm0 1h1v1h-1zm1 0h1v1h-1zm-36 2h1v1h-1zm15 1h1v1h-1z"/></g><path d="M9 7h1v1H9zm21 9h1v1h-1zM6 17h1v1H6zm40 0h1v1h-1zm-12 4h1v1h-1zm11 1h1v1h-1zM7 23h1v1H7zm29 1h1v1h-1zm0 4h1v1h-1zm11 2h1v1h-1zm16 4h1v1h-1zm-24 1h1v1h-1zM9 36h1v1H9zm11 3h1v1h-1zm-7 1h1v1h-1zm45 0h1v1h-1zm-42 3h1v1h-1zm49 0h1v1h-1zm8 0h1v1h-1zm-36 2h1v1h-1zm15 2h1v1h-1zm5 0h1v1h-1zm18 0h1v1h-1zm-9 1h1v1h-1zm-4 3h1v1h-1zm5 0h1v1h-1zm-57 2h1v1h-1zm4 3h1v1h-1zm34 0h1v1h-1zm5 0h1v1h-1zm18 1h1v1h-1zm-4 1h1v1h-1zm0 3h1v1h-1zm-23 1h1v1h-1zm21 2h1v1h-1zm-37 1h1v1h-1zm32 0h1v1h-1zm-28 3h1v1h-1zm4 0h1v1h-1zm13 2h1v1h-1zm24 2h1v1h-1zm-23 2h1v1h-1z" fill="#314073"/><path d="M13 9h1v1h-1zm0 3h1v1h-1zm0 4h1v1h-1zm16 0h1v1h-1zm12 6h1v1h-1zm1 0h1v1h-1zM4 26h1v1H4zm3 0h1v1H7zm65 6h1v1h-1zm-46 2h1v1h-1zm-12 1h1v1h-1zm33 0h1v1h-1zm11 1h1v1h-1zm1 0h1v1h-1zM6 37h1v1H6zm36 1h1v1h-1zM4 40h1v1H4zm45 5h1v1h-1zm-5 1h1v1h-1zm23 1h2v1h-2zm2 0h1v1h-1zm-12 5h1v1h-1zm-26 1h1v1h-1zm1 1h1v1h-1zm40 1h1v1h-1zm-50 1h1v1h-1zm53 0h1v1h-1zm-55 6h1v1h-1zm27 3h1v1h-1zm8 1h1v2h-1zm-3 2h12v1H52zm12 0h1v1h-1zm6 2h1v1h-1z" fill="#8b8450"/><path d="M7 20h1v1H7zm33 2h1v1h-1zm9 24h1v1h-1zm-26 1h1v1h-1zm49 9h1v1h-1zm-3 6h1v1h-1zm-19 9h1v1h-1z" fill="#b0a04f"/><path d="M195 6h1v1h-1zm7 0h1v1h-1zm24 0h1v1h-1zm7 0h1v1h-1zm176 0h1v1h-1zM193 7h1v1h-1zm42 0h1v1h-1zm52 0h1v1h-1zM180 8h1v1h-1zm112 1h1v1h-1zm157 0h1v1h-1zm-1 1h1v1h-1zm-244 1h1v1h-1zm31 0h1v1h-1zm213 0h1v1h-1zm-215 1h1v1h-1zm221 0h1v1h-1zm0 1h1v1h-1zm-267 1h1v1h-1zm7 0h1v1h-1zm31 0h1v1h-1zm19 0h1v1h-1zm21 0h1v1h-1zm44 0h1v1h-1zm131 0h1v1h-1zm8 0h1v1h-1zm-207 1h1v1h-1zm33 0h1v1h-1zm85 0h1v1h-1zm42 0h1v1h-1zm25 0h1v1h-1zm5 0h1v1h-1zm11 0h1v1h-1zm22 0h1v1h-1zm13 0h1v1h-1zm-317 1h1v1h-1zm115 0h1v1h-1zm14 0h1v2h-1zm15 0h1v1h-1zm15 0h1v1h-1zm56 0h1v1h-1zm32 0h1v1h-1zm18 0h1v1h-1zm18 0h1v1h-1zm-139 1h1v1h-1zm52 0h1v1h-1zm19 0h1v1h-1zm-182 1h1v4h-1zm83 0h1v1h-1zm13 0h1v1h-1zm157 0h1v1h-1zm-287 1h1v1h-1zm257 0h1v1h-1zm32 0h1v1h-1zm14 0h1v2h-1zm-219 1h1v1h-1zm27 0h1v1h-1zm36 0h2v1h-2zm2 0h1v1h-1zm49 0h1v1h-1zm20 0h1v1h-1zm45 0h1v1h-1zm32 0h1v8h-1zm-210 1h1v1h-1zm65 0h1v1h-1zm71 0h1v1h-1zm41 0h1v1h-1zm41 0h1v1h-1zm-306 1h1v1h-1zm27 0h1v1h-1zm10 0h1v1h-1zm151 0h1v1h-1zm-196 1h1v1h-1zm196 0h1v1h-1zm27 1h1v5h-1zm-67 1h1v1h-1zm118 0h1v1h-1zm56 0h1v1h-1zm-239 1h1v1h-1zm7 0h1v1h-1zm-59 1h1v1h-1zm83 0h1v1h-1zm-66 1h1v1h-1zm31 0h1v1h-1zm35 0h1v1h-1zm95 0h1v4h-1zm63 0h1v1h-1zm15 0h1v1h-1zm11 0h1v1h-1zm-302 1h1v1h-1zm36 0h1v1h-1zm31 0h1v1h-1zm36 0h1v1h-1zm11 0h1v1h-1zm54 0h1v1h-1zm33 0h1v1h-1zm18 0h1v1h-1zm20 0h1v1h-1zm75 0h1v1h-1zm-227 1h1v1h-1zm93 0h1v1h-1zm116 0h1v1h-1zm-144 1h1v1h-1zm144 0h1v1h-1zm-123 1h1v1h-1zm8 0h1v2h-1zm32 0h1v1h-1zm-110 1h1v1h-1zm65 0h1v1h-1zm67 0h1v1h-1zm4 0h1v1h-1zm84 0h1v1h-1zm-281 1h1v1h-1zm31 0h1v1h-1zm24 0h1v1h-1zm45 0h1v1h-1zm23 0h1v1h-1zm10 0h1v1h-1zm6 0h1v1h-1zm45 0h1v1h-1zm10 0h2v1h-2zm2 0h1v1h-1zm51 0h1v1h-1zm10 0h1v1h-1zm-186 7h1v1h-1zM45 76h1v1h-1zm-25 1h1v1h-1zm13 0h1v1h-1zm14 0h1v1h-1zm-3 2h1v1h-1zm-23 4h1v3h-1zm37 0h1v3h-1zm-44 3h1v1h-1zm7 0h1v1h-1zm37 0h1v1h-1zm-9 1h1v3h-1zm-31 1h1v1h-1zm31 2h1v1h-1zm-2 3h1v1h-1zm11 0h1v1h-1zm-25 1h1v1h-1zM0 96h1v1H0zm79 0h1v1h-1zm10 0h1v1h-1zM2 98h1v1H2zm75 0h1v1h-1zM5 99h1v1H5zm67 1h1v1h-1zm-62 1h1v1h-1zm59 0h1v1h-1zm15 2h1v1h-1zm-60 1h1v1h-1zm31 0h1v1h-1z" fill="#f6f7fa"/><path d="M196 6h1v1h-1zm5 0h1v1h-1zm26 0h1v1h-1zm5 0h1v1h-1zm54 0h1v1h-1zm39 0h1v1h-1zm85 0h1v1h-1zM155 7h1v1h-1zm49 0h1v1h-1zm20 0h1v1h-1zm12 2h1v1h-1zm-54 1h1v1h-1zm105 0h1v1h-1zm-89 1h1v1h-1zm1 0h1v1h-1zm30 0h1v1h-1zm1 0h1v1h-1zm51 0h1v1h-1zm173 0h1v1h-1zm-271 1h1v1h-1zm100 0h1v1h-1zm72 0h1v1h-1zm93 0h1v1h-1zm-272 1h1v1h-1zm109 0h1v1h-1zm163 0h1v1h-1zm-230 1h1v1h-1zm54 0h1v1h-1zm25 0h1v1h-1zm48 0h1v1h-1zm25 0h1v1h-1zm10 0h1v1h-1zm27 0h1v1h-1zm26 0h1v1h-1zm-250 1h1v1h-1zm106 0h1v1h-1zm17 0h1v1h-1zm71 0h1v1h-1zm69 0h1v2h-1zm-270 1h1v1h-1zm183 0h1v1h-1zm71 0h1v1h-1zm28 0h1v1h-1zm-305 1h1v1h-1zm271 0h1v1h-1zm22 0h1v1h-1zm-206 1h1v1h-1zm232 0h1v1h-1zm-175 1h1v1h-1zm106 0h1v1h-1zm-39 1h1v1h-1zm84 0h1v9h-1zm-266 1h1v1h-1zm63 0h1v1h-1zm65 0h1v1h-1zm41 0h1v1h-1zm30 0h1v1h-1zm91 0h1v1h-1zm-230 1h1v1h-1zm35 0h1v1h-1zm198 0h1v1h-1zm-299 1h1v1h-1zm48 0h1v1h-1zm139 0h1v1h-1zm-19 1h1v1h-1zm8 0h1v1h-1zm69 0h1v1h-1zm-144 1h1v1h-1zm67 0h1v1h-1zm31 0h1v1h-1zm-13 1h1v1h-1zm3 0h1v1h-1zm51 0h1v1h-1zm18 0h1v1h-1zm33 0h1v1h-1zm-249 1h1v1h-1zm27 0h1v1h-1zm120 0h1v1h-1zm-139 1h1v1h-1zm19 0h1v1h-1zm108 0h1v1h-1zm89 0h1v1h-1zm-203 1h1v1h-1zm209 0h1v1h-1zm6 0h1v1h-1zm-271 1h1v1h-1zm53 0h1v1h-1zm62 0h1v1h-1zm3 0h1v1h-1zm154 0h1v1h-1zm3 0h1v1h-1zm4 0h1v1h-1zm-87 1h1v1h-1zm44 0h1v1h-1zm7 0h1v1h-1zm-72 1h1v1h-1zm38 0h1v1h-1zm-157 1h1v1h-1zm6 0h1v1h-1zm32 0h1v1h-1zm33 0h1v1h-1zm80 0h1v1h-1zm-120 1h1v1h-1zm53 0h1v1h-1zM32 76h1v1h-1zm28 0h1v1h-1zm-46 1h1v1h-1zm44 0h1v1h-1zm-25 1h1v15h-1zm11 2h1v1h-1zm15 0h1v1h-1zm-12 2h1v1h-1zm-10 1h1v2h-1zm5 0h1v1h-1zm-28 1h1v1h-1zm23 1h1v1h-1zm8 6h1v1h-1zm4 0h1v1h-1zm-16 2h1v1h-1zm4 0h1v1h-1zm31 0h1v1h-1zm12 0h1v1h-1zm3 0h1v1h-1zm6 0h1v1h-1zm-75 1h1v1h-1zm31 0h1v1h-1zm15 0h1v1h-1zm31 1h1v1h-1zM1 97h1v1H1zm73 2h1v1h-1zm9 0h1v1h-1zm6 0h1v1h-1zm-8 1h1v1h-1zm6 1h1v1h-1zm-68 2h1v1h-1zm41 0h1v1h-1zm28 0h1v1h-1zm-63 1h1v1h-1zm29 0h1v1h-1z" fill="#edeef4"/><path d="M284 6h1v1h-1zm-85 1h1v1h-1zm-33 1h1v1h-1zm186 0h1v1h-1zm-56 2h1v1h-1zm155 0h1v1h-1zm-276 1h1v1h-1zm58 0h1v1h-1zm63 0h1v1h-1zm-108 4h1v1h-1zm56 0h1v1h-1zm7 0h1v1h-1zm58 0h1v1h-1zm7 0h1v1h-1zm71 0h1v1h-1zm12 0h1v1h-1zm-99 1h1v1h-1zm78 0h1v1h-1zm63 0h1v1h-1zm-249 1h1v1h-1zm163 0h1v1h-1zm34 0h1v1h-1zm59 0h1v1h-1zm-273 1h1v1h-1zm-27 1h3v1h-3zm3 0h1v1h-1zm289 1h1v1h-1zm-40 1h1v10h-1zm-51 1h1v1h-1zm35 0h1v1h-1zm51 0h3v1h-3zm3 0h1v1h-1zm-246 1h1v1h-1zm157 0h1v1h-1zm12 3h1v1h-1zm-179 3h1v1h-1zm114 0h1v1h-1zm9 0h1v1h-1zm40 0h1v1h-1zm-149 1h1v1h-1zm31 0h1v1h-1zm143 0h1v2h-1zm-123 1h1v1h-1zm53 0h1v1h-1zm12 0h1v1h-1zm14 0h1v1h-1zm57 0h1v1h-1zm17 0h1v1h-1zm37 0h1v1h-1zm1 0h1v1h-1zm31 0h1v1h-1zm1 0h1v1h-1zm-100 1h1v1h-1zm55 0h1v1h-1zm-164 8h1v1h-1zM63 74h4v1h-4zm4 0h1v1h-1zm-4 4h1v1h-1zm-25 1h1v2h-1zm0 2h1v1h-1zm-19 2h1v1h-1zm34 0h1v1h-1zm-15 4h1v4h-1zm15 0h1v1h-1zm1 3h1v1h-1zm-16 1h1v1h-1zm27 1h2v1h-2zm2 0h1v1h-1zm-18 1h1v1h-1zm15 3h1v1h-1zm1 0h1v1h-1zM3 97h1v1H3zm71 1h1v1h-1zm-62 2h1v1h-1z" fill="#002077"/><path d="M46 8h1v8h-1zm-33 2h1v1h-1zm0 1h1v1h-1zm15 5h1v1h-1zm18 0h1v1h-1zM7 22h1v1H7zm23 3h1v1h-1zM4 28h1v1H4zm36 15h1v1h-1zM8 45h1v1H8zm58 5h1v1h-1zm-19 2h1v1h-1zm13 2h1v1h-1zm1 5h1v1h-1zm7 2h1v1h-1zm-36 2h1v1h-1zm18 0h1v1h-1zm-2 4h1v1h-1zm4 5h1v1h-1z" fill="#454f6a"/><path d="M10 14h1v1h-1zm25 10h1v1h-1zm-4 2h1v1h-1zM4 27h1v1H4zm14 1h1v1h-1zm4 0h1v1h-1zm-12 3h1v1h-1zm36 0h1v1h-1zm-9 5h1v1h-1zM5 37h1v1H5zm46 1h1v1h-1zm6 3h1v1h-1zm-22 1h1v1h-1zM7 44h1v1H7zm59 3h1v1h-1zm9 1h1v1h-1zm-49 1h1v1h-1zm-13 1h1v1h-1zm24 1h1v1h-1zm-21 1h1v1h-1zm3 2h1v1h-1zm27 4h1v1h-1zm-5 1h1v1h-1zm6 0h1v1h-1zm26 8h1v1h-1zm-23 5h1v1h-1z" fill="#76735d"/><path d="M8 18h1v1H8zm11 5h1v1h-1zM9 30h1v1H9zm59 0h1v1h-1zM7 33h1v1H7zm31 3h1v1h-1zm32 0h1v1h-1zm-51 3h1v1h-1zm14 0h1v1h-1zm31 2h1v1h-1zm-19 1h1v1h-1zm16 1h1v1h-1zm-12 1h1v1h-1zm0 5h1v1h-1zm-19 3h1v1h-1zm11 2h1v1h-1zm-8 1h1v1h-1zm32 0h1v1h-1zm-28 2h1v1h-1zm28 11h1v1h-1zm7 5h1v1h-1z" fill="#988f46"/><path d="M26 12h1v1h-1zm14 15h1v1h-1zm1 6h1v1h-1zm-3 9h1v1h-1zm27 0h1v1h-1zm-8 2h1v1h-1zm8 14h1v1h-1z" fill="#001389"/><path d="M80 0h1v92h-1zm117 6h3v1h-3zm3 0h1v1h-1zm28 0h2v1h-2zm2 0h1v1h-1zm181 0h1v1h-1zM178 7h1v1h-1zm168 0h1v1h-1zM192 8h1v1h-1zm44 0h1v1h-1zm-55 1h1v1h-1zm99 0h1v1h-1zm14 0h1v1h-1zm60 0h1v1h-1zm7 0h1v1h-1zm-142 3h1v1h-1zm7 0h1v1h-1zm134 0h1v1h-1zm-5 1h1v1h-1zm-195 1h1v1h-1zm314 0h1v1h-1zm-314 1h1v1h-1zm185 0h1v1h-1zm44 0h1v1h-1zm18 0h1v1h-1zm-153 1h1v1h-1zm116 0h1v1h-1zm0 1h1v1h-1zm-221 1h1v1h-1zm1 0h1v1h-1zm150 0h1v1h-1zm76 0h1v1h-1zm30 0h1v1h-1zm38 0h1v1h-1zm13 0h1v1h-1zm-191 1h1v1h-1zm98 0h1v1h-1zm-6 1h1v1h-1zm81 0h1v1h-1zm-192 1h1v1h-1zm1 0h1v1h-1zm64 0h1v1h-1zm1 0h1v1h-1zm70 0h1v1h-1zm1 0h1v1h-1zm51 0h3v1h-3zm3 0h1v1h-1zm-88 1h1v1h-1zm28 0h1v1h-1zm-185 1h1v1h-1zm48 0h1v1h-1zm36 0h1v1h-1zm186 0h1v1h-1zm-307 1h1v1h-1zm121 0h1v1h-1zm188 1h1v1h-1zm-216 1h1v2h-1zm95 0h1v1h-1zm125 0h1v1h-1zm-311 1h1v1h-1zm186 0h1v2h-1zm79 0h1v1h-1zm-220 1h1v1h-1zm31 0h1v1h-1zm15 0h1v1h-1zm215 0h1v1h-1zm-305 1h1v1h-1zm68 0h1v1h-1zm117 0h1v1h-1zm37 0h1v1h-1zm-176 1h1v1h-1zm15 0h1v1h-1zm80 0h1v1h-1zm31 0h1v1h-1zm52 0h1v1h-1zm54 0h1v1h-1zm1 0h1v1h-1zm6 0h1v1h-1zm13 0h1v1h-1zm13 0h1v1h-1zm-195 1h1v1h-1zm202 0h1v1h-1zm-296 1h1v1h-1zm59 0h1v1h-1zm16 0h1v1h-1zm37 1h1v1h-1zm67 0h1v1h-1zm17 0h1v1h-1zm24 0h1v1h-1zm-199 1h1v1h-1zm232 0h1v1h-1zM64 75h3v1h-3zm3 0h1v1h-1zM9 76h1v1H9zm5 2h1v5h-1zm34 1h1v1h-1zm0 1h1v1h-1zm-5 2h1v1h-1zm-29 1h1v1h-1zm11 0h1v1h-1zm-1 1h1v1h-1zm19 1h1v1h-1zm-29 2h1v6h-1zm31 0h1v1h-1zm14 2h1v1h-1zm-4 1h1v1h-1zm-35 1h1v1h-1zm5 0h1v1h-1zm19 1h1v1h-1zm36 0h1v1h-1zm-66 1h1v1h-1zm28 0h1v1h-1zm28 1h1v1h-1zm-6 1h1v1h-1zm1 0h1v1h-1zm13 2h1v1h-1zm10 1h1v1h-1z" fill="#dfe2ed"/><g fill="#fff"><path d="M81 0h38v92H81zm38 0h1v104h-1zm4 0h355v5H123zm355 0h1v24h-1zM123 5h355v1H123zm0 1h71v1h-71zm71 0h1v1h-1zm9 0h22v1h-22zm22 0h1v1h-1zm9 0h47v1h-47zm47 0h1v1h-1zm6 0h37v1h-37zm37 0h1v98h-1zm7 0h77v1h-77zm77 0h1v98h-1zm7 0h63v2h-63zM123 7h18v97h-18zm18 0h1v97h-1zm15 0h8v1h-8zm8 0h1v97h-1zm15 0h13v1h-13zm13 0h1v1h-1zm13 0h18v1h-18zm18 0h1v1h-1zm13 0h44v1h-44zm44 0h1v1h-1zm8 0h36v1h-36zm43 0h14v14h-14zm14 0h1v6h-1zm9 0h7v1h-7zm7 0h1v1h-1zm9 0h38v6h-38zM157 8h7v1h-7zm24 0h10v1h-10zm10 0h1v1h-1zm15 0h16v1h-16zm16 0h1v1h-1zm15 0h42v5h-42zm42 0h1v96h-1zm9 0h36v1h-36zm66 0h7v1h-7zm7 0h1v1h-1zm54 0h63v1h-63zM159 9h5v1h-5zm23 0h8v1h-8zm8 0h1v1h-1zm16 0h15v1h-15zm15 0h1v1h-1zm67 0h3v5h-3zm3 0h1v5h-1zm7 0h26v4h-26zm57 0h5v2h-5zm5 0h1v2h-1zm55 0h33v4h-33zm33 0h1v1h-1zm7 0h23v4h-23zm-296 1h5v1h-5zm24 0h6v1h-6zm6 0h1v1h-1zm16 0h15v1h-15zm15 0h1v1h-1z"/><path d="M236 10h44v3h-44zm44 0h1v94h-1zm-120 1h4v2h-4zm23 0h5v1h-5zm5 0h1v1h-1zm17 0h14v2h-14zm14 0h1v1h-1zm68 0h4v3h-4zm68 0h5v1h-5zm5 0h1v1h-1zm-212 1h4v5h-4zm4 0h1v5h-1zm19 0h3v5h-3zm3 0h1v5h-1zm10 0h3v92h-3zm3 0h1v1h-1zm9 0h6v16h-6z"/><path d="M202 12h16v15h-16zm25 0h5v16h-5zm5 0h1v17h-1zm3 0h47v1h-47zm47 0h1v1h-1zm3 0h6v1h-6zm71 0h3v4h-3zm3 0h1v2h-1zm-206 1h1v3h-1zm7 0h4v1h-4zm15 0h1v4h-1zm12 0h1v1h-1z"/><path d="M195 13h23v14h-23zm23 0h1v1h-1zm8 0h58v1h-58zm58 0h1v1h-1zm14 0h26v1h-26zm47 0h1v1h-1zm25 0h38v1h-38zm45 0h32v1h-32zm32 0h1v1h-1zm8 0h23v1h-23zm-294 1h3v17h-3zm15 0h1v1h-1zm50 0h17v1h-17zm17 0h1v1h-1zm9 0h8v1h-8zm8 0h1v1h-1zm6 0h1v1h-1zm7 0h7v1h-7zm14 0h4v1h-4zm4 0h1v1h-1zm7 0h10v1h-10zm10 0h1v1h-1zm9 0h7v1h-7zm42 0h1v1h-1zm12 0h8v1h-8zm8 0h1v1h-1zm9 0h9v1h-9zm9 0h1v1h-1zm4 0h1v1h-1zm1 0h1v1h-1zm13 0h17v1h-17zm17 0h1v1h-1zm9 0h6v1h-6zm6 0h1v1h-1zm7 0h12v1h-12zm12 0h1v1h-1zm9 0h3v1h-3zm-299 1h1v1h-1z"/><path d="M194 15h23v11h-23zm31 0h15v10h-15zm15 0h1v1h-1zm14 0h5v1h-5zm5 0h1v89h-1zm16 0h5v1h-5zm12 0h1v89h-1zm1 0h1v89h-1zm14 0h3v1h-3zm3 0h1v1h-1zm14 0h5v1h-5zm52 0h5v1h-5zm5 0h1v1h-1zm14 0h4v1h-4zm4 0h1v89h-1zm21 0h3v2h-3zm3 0h1v1h-1zm9 0h3v2h-3zm3 0h1v1h-1zm13 0h2v1h-2zm2 0h1v89h-1zm14 0h4v3h-4zm4 0h1v1h-1zm-310 1h1v1h-1zm30 0h3v5h-3zm72 0h4v12h-4zm21 0h4v1h-4zm26 0h1v88h-1zm1 0h1v88h-1zm17 0h4v12h-4zm36 0h2v1h-2zm2 0h1v3h-1zm13 0h3v7h-3zm3 0h1v88h-1zm16 0h4v1h-4z"/><path d="M426 16h3v3h-3zm18 0h1v1h-1zm19 0h1v1h-1zm-315 1h4v1h-4zm4 0h1v1h-1zm8 0h4v13h-4zm11 0h4v1h-4zm4 0h1v1h-1zm101 0h4v1h-4zm25 0h2v12h-2zm56 0h1v2h-1zm34 0h4v11h-4zm4 0h1v87h-1zm12 0h1v87h-1zm8 0h2v1h-2zm2 0h1v1h-1z"/><path d="M425 17h4v2h-4zm4 0h1v1h-1zm15 0h1v1h-1zm14 0h4v12h-4zm19 0h1v6h-1zm-295 1h4v2h-4zm42 0h15v4h-15zm53 0h3v3h-3zm27 0h1v6h-1zm71 0h1v6h-1zm40 0h1v2h-1zm1 0h1v1h-1z"/><path d="M424 18h4v10h-4zm12 0h1v2h-1zm1 0h1v2h-1zm25 0h1v1h-1zm8 0h1v2h-1zm1 0h1v2h-1zm-290 1h5v1h-5zm59 0h1v4h-1zm5 0h3v1h-3zm3 0h1v1h-1zm19 0h2v10h-2zm2 0h1v10h-1zm20 0h2v85h-2zm2 0h1v85h-1zm7 0h7v5h-7zm7 0h1v4h-1zm5 0h3v1h-3zm3 0h1v1h-1zm44 0h1v1h-1zm1 0h1v1h-1zm18 0h1v4h-1zm5 0h3v1h-3zm3 0h1v1h-1zm20 0h4v85h-4z"/><path d="M423 19h5v7h-5zm5 0h1v1h-1zm7 0h3v1h-3zm3 0h1v1h-1zm8 0h1v85h-1zm1 0h1v85h-1zm7 0h7v1h-7zm15 0h5v1h-5zm5 0h4v2h-4zm-315 1h5v8h-5zm22 0h5v1h-5zm60 0h1v2h-1zm3 0h4v1h-4zm4 0h1v1h-1zm18 0h3v8h-3zm43 0h4v1h-4zm4 0h1v1h-1zm66 0h5v1h-5zm5 0h1v1h-1zm18 0h6v84h-6zm13 0h1v1h-1zm20 0h3v1h-3zm3 0h1v1h-1zm17 0h6v9h-6z"/><path d="M469 20h9v1h-9zm-311 1h6v5h-6zm25 0h3v1h-3zm59 0h1v1h-1zm1 0h1v1h-1zm27 0h1v5h-1zm7 0h3v1h-3zm29 0h2v1h-2zm2 0h1v1h-1zm23 0h13v8h-13zm13 0h1v1h-1zm33 0h2v1h-2zm2 0h1v1h-1zm43 0h5v3h-5zm51 0h5v1h-5z"/><path d="M157 22h7v3h-7zm67 0h17v1h-17zm17 0h1v1h-1zm37 0h2v82h-2zm28 0h1v1h-1zm45 0h1v82h-1zm13 0h1v82h-1zm13 0h1v1h-1zm44 0h6v1h-6zm41 0h1v7h-1zm14 0h2v1h-2z"/><path d="M156 23h8v1h-8zm15 0h4v5h-4zm4 0h1v5h-1zm65 0h1v1h-1zm65 0h1v1h-1zm66 0h5v1h-5zm5 0h1v1h-1zm45 0h6v1h-6zm56 0h1v1h-1zm-329 1h1v80h-1zm1 0h1v80h-1zm27 0h1v3h-1zm122 0h6v5h-6zm6 0h1v1h-1zm46 0h1v80h-1zm13 0h1v80h-1zm9 0h3v80h-3zm3 0h1v1h-1zm47 0h5v1h-5zm41 0h1v3h-1zm15 0h1v1h-1zm-321 1h7v1h-7zm20 0h1v1h-1zm48 0h14v1h-14zm14 0h1v1h-1zm113 0h1v79h-1zm63 0h1v79h-1zm49 0h1v2h-1zm-314 1h1v78h-1zm8 0h6v1h-6zm19 0h1v1h-1zm17 0h23v1h-23zm31 0h13v1h-13zm13 0h1v78h-1zm9 0h1v3h-1zm1 0h1v3h-1zm22 0h1v1h-1zm7 0h3v78h-3zm34 0h2v3h-2zm2 0h1v3h-1zm69 0h2v3h-2zm2 0h1v3h-1zm39 0h4v1h-4zm12 0h12v1h-12zm30 0h1v2h-1zm1 0h1v2h-1zm-290 1h1v1h-1zm19 0h22v1h-22zm22 0h1v77h-1zm9 0h12v1h-12z"/><path d="M246 27h2v2h-2zm64 0h3v1h-3zm52 0h2v77h-2zm19 0h3v1h-3zm35 0h1v77h-1zm19 0h12v1h-12zm28 0h8v1h-8zm8 0h1v2h-1zm-320 1h1v76h-1zm8 0h5v1h-5zm12 0h4v1h-4zm4 0h1v1h-1zm12 0h1v76h-1zm9 0h6v1h-6zm6 0h1v1h-1zm3 0h13v1h-13zm13 0h1v76h-1zm9 0h6v1h-6zm6 0h1v1h-1zm3 0h2v1h-2zm19 0h4v1h-4zm11 0h3v1h-3zm44 0h3v1h-3zm10 0h4v1h-4zm61 0h3v1h-3zm10 0h4v1h-4zm26 0h1v76h-1zm7 0h3v1h-3zm3 0h1v4h-1zm8 0h6v1h-6zm6 0h1v1h-1zm3 0h3v1h-3z"/><path d="M465 28h7v1h-7zm7 0h1v1h-1zm-275 1h4v1h-4zm4 0h1v1h-1zm4 0h13v1h-13zm23 0h4v1h-4zm4 0h1v1h-1zm4 0h2v1h-2zm10 0h2v1h-2zm2 0h1v1h-1zm8 0h3v1h-3zm11 0h2v1h-2zm2 0h1v1h-1zm29 0h5v1h-5zm13 0h2v1h-2zm2 0h1v1h-1zm8 0h3v1h-3zm10 0h12v1h-12zm12 0h1v75h-1zm39 0h2v1h-2zm2 0h1v1h-1zm8 0h3v1h-3zm33 0h3v1h-3zm3 0h1v75h-1zm8 0h4v1h-4zm4 0h1v1h-1zm4 0h3v1h-3zm11 0h7v1h-7zm7 0h1v1h-1zm5 0h4v1h-4zm4 0h1v1h-1zm-319 1h1v74h-1zm8 0h4v1h-4zm28 0h1v74h-1zm18 0h13v74h-13zm13 0h1v74h-1zm18 0h1v74h-1zm19 0h3v1h-3zm20 0h4v74h-4zm45 0h3v1h-3zm12 0h10v1h-10zm20 0h1v74h-1zm39 0h3v1h-3zm26 0h1v74h-1z"/><path d="M426 30h3v1h-3zm3 0h1v74h-1zm30 0h2v74h-2zm2 0h1v1h-1zm17 0h1v74h-1zm-325 1h1v73h-1zm8 0h3v1h-3zm22 0h6v73h-6zm6 0h1v73h-1zm31 0h1v73h-1zm19 0h1v73h-1zm18 0h2v73h-2zm65 0h2v73h-2zm11 0h10v1h-10zm28 0h3v73h-3zm32 0h2v73h-2zm68 0h1v73h-1zm-299 1h2v72h-2z"/><path d="M182 32h8v72h-8zm8 0h1v72h-1zm31 0h1v72h-1zm54 0h5v72h-5zm29 0h1v72h-1zm30 0h9v72h-9zm41 0h1v72h-1zm44 0h1v72h-1zm8 0h3v72h-3zm3 0h1v72h-1zm18 0h1v72h-1zm29 0h1v72h-1zm-323 1h1v71h-1z"/><path d="M180 33h12v71h-12zm12 0h1v71h-1zm13 0h18v71h-18zm18 0h1v71h-1zm13 0h4v71h-4zm4 0h1v71h-1zm11 0h1v71h-1zm5 0h3v71h-3zm18 0h6v71h-6zm18 0h1v71h-1zm13 0h1v71h-1zm11 0h1v71h-1zm5 0h4v71h-4zm4 0h1v71h-1zm29 0h1v71h-1zm11 0h1v71h-1zm11 0h1v71h-1zm16 0h3v71h-3zm28 0h1v71h-1zm11 0h1v71h-1zm12 0h6v71h-6zm6 0h1v71h-1zm13 0h1v71h-1zm1 0h1v71h-1zm13 0h2v71h-2z"/><path d="M142 34h51v70h-51zm51 0h1v70h-1zm10 0h21v70h-21zm21 0h1v70h-1zm10 0h8v70h-8zm8 0h1v70h-1zm8 0h2v70h-2zm2 0h1v70h-1zm3 0h4v70h-4zm17 0h21v70h-21zm21 0h1v70h-1zm8 0h6v70h-6zm6 0h1v70h-1zm7 0h2v70h-2zm6 0h6v70h-6zm6 0h1v70h-1zm18 0h33v70h-33zm33 0h1v70h-1zm8 0h2v70h-2zm2 0h1v70h-1zm4 0h42v70h-42zm42 0h1v70h-1zm9 0h8v70h-8zm8 0h1v70h-1zm8 0h7v70h-7zm7 0h1v70h-1zm9 0h4v70h-4z"/><path d="M194 35h65v69h-65zm72 0h212v69H266z"/><path d="M260 42h218v62H260zM10 76h12v1H10zm12 0h1v8h-1zm11 0h11v1H33zm11 0h1v2h-1zm17 0h9v1h-9zm9 0h1v2h-1zm-60 1h3v1h-3zm3 0h1v17h-1z"/><path d="M21 77h3v1h-3zm3 0h1v6h-1zm10 0h2v17h-2zm2 0h1v17h-1zm7 0h3v1h-3zm3 0h1v5h-1zm13 0h3v1h-3zm3 0h1v1h-1zm6 0h2v1h-2zm-57 1h2v16h-2z"/><path d="M23 78h2v5h-2zm2 0h1v4h-1zm19 0h3v1h-3zm3 0h1v3h-1zm10 0h3v1h-3zm3 0h1v1h-1zm10 0h1v1h-1zm-25 1h2v3h-2zm11 0h3v3h-3zm3 0h1v1h-1z"/><path d="M44 81h3v1h-3zm3 0h1v1h-1zm8 0h3v8h-3zm-30 1h1v1h-1zm19 0h2v3h-2zm2 0h1v1h-1zm12 0h1v1h-1zm-35 1h1v1h-1zm1 0h1v1h-1z"/><path d="M43 83h2v1h-2zm-23 1h3v1h-3zm3 0h1v1h-1zm15 0h7v1h-7zm-24 1h6v1h-6zm6 0h1v5h-1zm24 0h3v1h-3zm3 0h1v7h-1zm-30 1h3v1h-3z"/><path d="M45 86h3v1h-3zm3 0h1v6h-1zm-30 1h3v1h-3zm3 0h1v5h-1zm25 0h2v5h-2zm12 0h1v5h-1z"/><path d="M19 88h3v1h-3zm3 0h1v5h-1z"/><path d="M19 89h4v1h-4zm4 0h1v5h-1zm32 0h3v1h-3z"/><path d="M20 90h4v1h-4zm4 0h1v4h-1zm32 0h3v1h-3zm3 0h1v3h-1z"/><path d="M56 91h4v1h-4zm4 0h1v2h-1zm-39 1h4v1h-4zm4 0h1v2h-1zm20 0h3v1h-3zm3 0h1v1h-1z"/><path d="M57 92h4v1h-4zm4 0h1v2h-1zm20 0h38v1H81zm-59 1h4v1h-4zm4 0h1v1h-1zm17 0h3v1h-3zm3 0h1v1h-1z"/><path d="M59 93h5v1h-5zm5 0h1v1h-1zm5 0h1v1h-1zm1 0h1v1h-1zm11 0h1v2h-1zm1 0h1v1h-1zm8 0h29v1H90zm-79 1h2v1h-2zm2 0h1v1h-1zm10 0h4v1h-4zm4 0h1v1h-1zm7 0h10v1H34zm10 0h1v1h-1zm17 0h8v1h-8zm8 0h1v1h-1zm11 0h1v10h-1zm11 0h28v1H91zm-10 1h1v1h-1zm11 0h27v9H92zM0 97h1v7H0zm79 0h1v7h-1zm4 0h1v1h-1zM1 98h1v6H1z"/><path d="M78 98h2v6h-2zm5 0h1v1h-1zm6 0h1v1h-1zM2 99h2v5H2zm2 0h1v5H4z"/><path d="M75 99h5v5h-5zm-70 1h2v4H5zm2 0h1v4H7z"/><path d="M73 100h7v4h-7zm13 0h1v1h-1zm-78 1h1v3H8zm1 0h1v3H9z"/><path d="M70 101h11v3H70zm11 0h1v3h-1zm5 0h1v1h-1zm5 0h28v3H91zm-81 1h5v2h-5zm5 0h1v2h-1z"/><path d="M64 102h18v2H64zm18 0h1v2h-1zm8 0h29v2H90zm-74 1h2v1h-2zm2 0h1v1h-1z"/><path d="M61 103h22v1H61zm22 0h1v1h-1zm6 0h30v1H89zm-89 1h23v1H0zm23 0h1v1h-1zm33 0h63v1H56zm63 0h1v1h-1zm4 0h355v1H123zm355 0h1v1h-1z"/></g><path d="M16 4h4v1h-4zm4 0h1v1h-1zM10 8h1v3h-1zm10 2h1v1h-1zm25 0h1v6h-1zm-35 1h1v1h-1zm18 1h1v1h-1zm1 0h1v3h-1zm-2 2h2v1h-2zm2 1h1v1h-1zm16 1h1v1h-1zM7 18h1v1H7zm27 0h6v1h-6zm6 0h1v1h-1zm3 1h1v1h-1zm-10 1h1v1h-1zm2 2h1v1h-1zM5 23h1v2H5zm13 0h1v1h-1zm0 1h1v1h-1zm13 0h1v1h-1zm13 0h1v1h-1zM5 25h1v1H5zm28 1h1v1h-1zM6 27h1v1H6zm14 0h1v2h-1zm0 2h1v1h-1zM8 30h1v1H8zm16 0h1v2h-1zm9 0h1v1h-1zm1 0h1v2h-1zm16 0h1v2h-1zm18 1h1v1h-1zm-44 1h1v1h-1zm10 0h1v1h-1zm1 0h1v1h-1zm7 0h1v1h-1zm30 1h1v1h-1zm-44 1h1v1h-1zm17 1h1v1h-1zm-10 1h1v1h-1zm31 0h1v2h-1zm5 0h1v1h-1zm-14 1h4v1h-4zm4 0h1v1h-1zm-48 1h1v1h-1zm53 0h1v1h-1zm6 0h1v1h-1zm-21 1h1v2h-1zM5 40h1v1H5zm36 0h1v1h-1zm9 0h1v1h-1zm15 0h1v1h-1zm-49 1h1v1h-1zm20 0h1v1h-1zm15 0h1v1h-1zm-29 1h1v1h-1zm22 0h1v1h-1zM5 43h1v1H5zm18 0h1v1h-1zm31 0h1v1h-1zm8 0h1v1h-1zm-43 1h1v1h-1zm29 0h1v1h-1zm6 0h1v1h-1zm8 0h1v1h-1zm10 0h1v1h-1zm-46 1h1v1h-1zm35 0h1v1h-1zm4 0h2v1h-2zm2 0h1v1h-1zm-1 1h4v1h-4zm4 0h1v1h-1zm-45 1h1v1h-1zm21 0h1v1h-1zm8 0h1v1h-1zm-32 1h1v1h-1zm9 0h1v1h-1zm-3 1h1v1h-1zm4 0h1v1h-1zm16 0h1v1h-1zm26 0h1v1h-1zm-63 1h1v1h-1zm18 0h1v1h-1zm19 0h1v1h-1zm-35 1h1v1h-1zm1 1h1v1h-1zm-2 1h1v1h-1zm44 0h1v1h-1zm10 0h2v1h-2zm2 0h1v1h-1zm-51 1h1v1h-1zm17 1h1v1h-1zm-18 1h1v1h-1zm19 0h1v1h-1zm7 0h1v1h-1zm-20 1h1v1h-1zm-3 2h1v1h-1zm44 0h1v1h-1zm-41 3h1v2h-1zm4 0h1v1h-1zm20 0h2v1h-2zm2 0h1v1h-1zm23 0h1v1h-1zm-41 1h1v1h-1zm39 0h1v1h-1zm1 0h1v1h-1zm-48 1h1v1h-1zm11 2h1v1h-1zm27 0h2v1h-2zm2 0h1v1h-1zm8 0h1v1h-1zm-12 1h7v1h-7zm7 0h1v1h-1zm-31 1h1v1h-1zm16 0h1v1h-1zm22 2h1v1h-1z" fill="#ffe500"/><path d="M11 5h1v1h-1zm3 8h1v1h-1zm2 2h1v1h-1zm-8 1h1v1H8zm22 3h1v1h-1zM7 21h1v1H7zm28 0h1v1h-1zM7 25h1v1H7zm-1 7h1v1H6zm16 0h1v1h-1zm-10 1h1v1h-1zm-8 6h1v1H4zm44 1h1v1h-1zm-1 1h1v1h-1zm13 0h1v1h-1zm-39 8h1v1h-1zm1 2h1v1h-1zm29 2h1v1h-1zm11 1h1v1h-1zm3 2h1v1h-1zm4 2h1v1h-1zm0 3h1v1h-1zm3 5h1v1h-1zm1 5h1v1h-1z" fill="#6d6c5e"/><path d="M327 6h1v1h-1zM154 7h1v1h-1zm11 0h1v1h-1zm12 0h1v1h-1zm26 0h1v1h-1zm31 0h1v1h-1zm128 0h1v1h-1zm-32 1h1v21h-1zm124 1h1v1h-1zm0 1h1v1h-1zm-300 4h1v1h-1zm97 0h1v1h-1zm11 0h1v1h-1zm45 1h1v1h-1zm-83 1h1v1h-1zm16 0h1v1h-1zm-59 2h1v1h-1zm183 0h1v1h-1zm105 0h1v1h-1zm-228 1h1v1h-1zm73 0h1v2h-1zm88 0h1v1h-1zm-1 1h1v1h-1zm-87 1h1v1h-1zm56 0h1v1h-1zm-7 1h1v1h-1zm2 1h1v1h-1zm12 0h1v1h-1zm-12 1h1v1h-1zm-117 1h1v1h-1zm65 0h1v1h-1zm71 0h1v1h-1zm-190 2h1v1h-1zm-6 1h1v1h-1zm51 0h1v1h-1zm10 1h1v1h-1zm81 0h1v1h-1zm45 0h1v1h-1zm-222 1h1v1h-1zm93 0h1v1h-1zm125 1h1v1h-1zm59 0h1v1h-1zm28 0h1v1h-1zm-184 1h1v1h-1zm146 0h1v1h-1zm-259 1h1v1h-1zm188 0h1v1h-1zm-153 1h1v1h-1zm5 0h1v1h-1zm31 0h1v1h-1zm35 0h1v1h-1zm51 0h1v1h-1zm117 0h1v1h-1zm4 0h1v1h-1zm28 0h1v1h-1zM25 77h1v1h-1zm35 2h1v1h-1zm10 0h1v1h-1zm-11 2h1v1h-1zm-11 4h1v1h-1zm-2 9h1v1h-1zm13 0h1v1h-1zm25 2h1v1h-1zM3 98h1v1H3zm81 2h1v1h-1zm-2 1h1v1h-1zm-61 2h1v1h-1zm37 0h1v1h-1z" fill="#c0c3d4"/><path d="M410 7h1v1h-1zm-57 2h1v1h-1zm-60 1h1v1h-1zm157 0h1v1h-1zm-165 1h1v1h-1zm-91 1h1v1h-1zm26 0h1v1h-1zm-27 2h1v1h-1zm99 0h1v1h-1zm-40 1h1v1h-1zm144 0h1v1h-1zm-143 1h1v1h-1zm102 0h1v1h-1zm14 1h1v1h-1zm-222 1h1v1h-1zm24 0h3v1h-3zm3 0h1v1h-1zm44 0h1v1h-1zm48 0h1v1h-1zm4 0h1v1h-1zm198 0h1v1h-1zm-281 1h1v1h-1zm105 0h1v1h-1zm171 0h1v1h-1zm-148 1h1v1h-1zm114 0h1v1h-1zm-114 1h1v1h-1zm99 0h2v1h-2zm2 0h1v1h-1zm-140 1h1v1h-1zm86 1h1v1h-1zm16 0h1v1h-1zm87 1h1v1h-1zm-189 1h1v1h-1zm138 0h1v1h-1zm19 0h1v1h-1zm35 0h1v1h-1zm-98 1h1v1h-1zm-21 1h1v1h-1zm-78 1h1v1h-1zm78 0h1v1h-1zm-173 1h1v1h-1zm27 0h1v1h-1zm31 0h1v1h-1zm200 0h1v1h-1zm30 0h1v1h-1zm-305 1h1v1h-1zm38 0h1v1h-1zm31 0h1v1h-1zm82 0h1v1h-1zm133 0h1v2h-1zm-252 1h1v1h-1zm31 0h1v1h-1zm254 0h1v1h-1zm-150 1h1v1h-1zm70 0h1v1h-1zm47 0h1v1h-1zm-248 1h1v1h-1zm31 0h1v1h-1zm208 0h1v1h-1zm32 0h1v1h-1zm-202 7h1v1h-1zm-3 1h1v1h-1zM26 83h1v1h-1zm59 10h2v1h-2zm2 0h1v1h-1zm-3 1h1v1h-1zm5 1h1v1h-1zm-2 2h1v1h-1zM8 99h1v1H8zm82 0h1v1h-1zm-79 1h1v1h-1zm71 0h1v1h-1zm-68 1h1v1h-1zm6 1h1v1h-1zm39 0h1v1h-1zm-33 1h1v1h-1zm96 0h1v1h-1z" fill="#455392"/><path d="M19 8h1v2h-1zm0 2h1v1h-1zM6 18h1v1H6zm35 2h1v1h-1zm-5 3h2v1h-2zm2 0h1v1h-1zM8 29h1v1H8zm21 1h1v1h-1zm9 2h1v1h-1zm-5 1h1v1h-1zm0 1h1v1h-1zm9 0h1v1h-1zm31 4h1v1h-1zm-23 1h1v1h-1zm-35 2h1v1h-1zm52 1h1v1h-1zm-49 2h1v1h-1zm30 2h1v1h-1zm8 0h1v1h-1zm1 0h1v1h-1zm-4 1h1v3h-1zm19 2h1v1h-1zm-19 1h1v1h-1zm22 1h1v2h-1zm-8 1h1v1h-1zm8 1h1v1h-1zm-60 3h1v1h-1zm19 0h1v1h-1zm38 1h1v1h-1zm-54 2h1v1h-1zm8 0h1v1h-1zm38 0h1v1h-1zm-19 3h1v1h-1zm-23 3h1v1h-1zm35 1h1v1h-1zm-7 4h1v1h-1zm21 1h1v1h-1z" fill="#c8b524"/><path d="M30 13h1v2h-1zm0 2h1v1h-1zm14 5h1v1h-1zm-27 1h1v1h-1zm52 9h1v1h-1zm-27 9h1v1h-1zm16 8h1v1h-1zm3 0h1v1h-1zm-28 1h1v1h-1zM7 50h1v1H7zm20 0h1v1h-1zm41 1h1v1h-1zm-17 1h1v1h-1zm3 4h1v1h-1z" fill="#535676"/><path d="M22 7h1v1h-1zm5 6h1v1h-1zm14 4h1v1h-1zM5 20h1v1H5zm0 9h1v1H5zm43 5h1v1h-1zm26 0h1v1h-1zm-34 1h1v1h-1zm34 0h1v1h-1zM6 39h1v1H6zm7 0h1v1h-1zm7 1h1v1h-1zm40 0h1v1h-1zm-50 8h1v1h-1zm-3 1h1v1H7zm46 2h1v1h-1zm10 0h1v1h-1zm-53 1h1v1h-1zm53 3h1v1h-1zm-24 2h1v1h-1z" fill="#cdb831"/><path d="M143 7h9v1h-9zm9 0h1v1h-1zm14 0h9v1h-9zm9 0h1v1h-1zm172 0h5v1h-5zm5 0h1v1h-1zm11 0h5v1h-5zm5 0h1v1h-1zm-71 2h1v1h-1zm49 0h1v1h-1zm23 0h1v1h-1zm-165 1h1v1h-1zm93 0h1v1h-1zm64 0h1v1h-1zm-179 1h1v1h-1zm50 0h1v1h-1zm-62 2h1v3h-1zm18 0h1v1h-1zm6 0h1v1h-1zm88 1h1v1h-1zm28 0h1v1h-1zm50 0h1v1h-1zm113 0h1v1h-1zm-8 1h1v1h-1zm-295 1h1v1h-1zm78 2h1v1h-1zm21 0h1v1h-1zm166 0h1v1h-1zm13 0h1v1h-1zm-142 1h1v1h-1zm45 0h1v1h-1zm34 0h1v1h-1zm49 0h1v1h-1zm34 0h1v1h-1zm-203 1h1v8h-1zm80 0h1v1h-1zm71 0h1v1h-1zm-245 2h3v1h-3zm3 0h1v1h-1zm134 0h1v1h-1zm71 0h1v1h-1zm49 0h1v1h-1zm-76 1h1v1h-1zm-182 1h1v3h-1zm17 1h1v1h-1zm60 0h1v1h-1zm115 0h1v1h-1zm66 0h1v1h-1zm7 0h8v1h-8zm8 0h1v1h-1zm-172 1h1v1h-1zm-101 1h1v1h-1zm205 0h1v1h-1zm-156 1h1v1h-1zm46 0h1v1h-1zm169 0h1v1h-1zm-251 1h1v1h-1zm131 0h1v1h-1zm110 0h1v1h-1zm-70 1h1v1h-1zm37 0h1v1h-1zm45 0h1v1h-1zm32 0h1v1h-1zm-244 3h1v1h-1zm234 0h1v1h-1zm-261 1h3v1h-3zm3 0h1v1h-1zm28 0h3v1h-3zm3 0h1v1h-1zm14 0h2v1h-2zm2 0h1v1h-1zm18 0h1v4h-1zm3 0h1v1h-1zm1 0h1v1h-1zm27 0h2v1h-2zm2 0h1v1h-1zm12 0h1v1h-1zm1 0h1v1h-1zm18 0h1v1h-1zm1 0h1v1h-1zm51 0h1v1h-1zm1 0h1v1h-1zm54 0h2v1h-2zm2 0h1v1h-1zm15 0h2v1h-2zm2 0h1v1h-1zm13 0h3v1h-3zm3 0h1v1h-1zm-206 4h1v1h-1zm-5 3h1v1h-1zM24 76h1v1h-1zm47 0h1v1h-1zm-30 1h1v1h-1zm-15 2h1v1h-1zm-5 3h1v1h-1zm18 1h1v2h-1zm-1 2h3v1h-3zm3 0h1v1h-1zm-18 3h1v1h-1zm31 0h1v1h-1zm16 4h1v1h-1zm-32 1h1v1h-1zm10 0h1v1h-1zm36 0h1v1h-1zm1 1h2v1h-2zm2 0h1v1h-1zm-1 2h1v1h-1zm-5 1h1v1h-1zm-72 3h1v1H9zm61 0h1v1h-1zm19 0h1v1h-1zm-67 3h1v1h-1zm35 0h1v1h-1z" fill="#aaaec6"/><path d="M410 8h1v1h-1zm43 2h1v1h-1zm0 1h1v1h-1zm-157 1h1v2h-1zm0 2h1v1h-1zm1 1h1v1h-1zm83 0h1v1h-1zm17 0h1v1h-1zm77 0h1v1h-1zm-167 1h1v1h-1zm-84 1h1v1h-1zm68 0h1v1h-1zm8 0h1v1h-1zm173 0h1v1h-1zm-54 1h1v1h-1zm-122 1h1v9h-1zm-116 2h1v1h-1zm68 1h1v1h-1zm196 0h1v1h-1zm-221 1h1v1h-1zm143 2h1v1h-1zm-126 2h1v1h-1zm4 0h1v1h-1zm0 1h1v1h-1zm52 0h1v1h-1zm157 1h1v1h-1zM263 40h1v1h-1zM67 78h1v1h-1zm-47 4h1v1h-1zM1 95h1v1H1zm27 8h1v1h-1zm23 0h1v1h-1z" fill="#001d76"/><path d="M451 9h1v1h-1zm-165 2h1v1h-1zm11 0h1v1h-1zm-122 1h1v1h-1zm20 0h1v1h-1zm86 2h1v1h-1zm106 0h1v1h-1zm13 0h1v1h-1zm-182 1h1v1h-1zm100 0h1v1h-1zm-125 2h1v1h-1zm224 1h1v1h-1zm59 0h1v1h-1zm-227 1h1v1h-1zm-7 1h1v1h-1zm136 0h1v1h-1zm50 0h1v1h-1zm-271 1h1v1h-1zm244 0h1v11h-1zm19 1h1v1h-1zm-70 1h1v1h-1zm126 0h1v1h-1zm-299 1h1v1h-1zm63 0h1v1h-1zm-22 2h1v1h-1zm21 1h1v1h-1zm189 0h1v1h-1zm-252 1h1v1h-1zm20 1h1v1h-1zm80 0h1v1h-1zm21 0h1v1h-1zm78 1h1v1h-1zm94 0h1v1h-1zm-287 1h1v1h-1zm8 0h1v1h-1zm202 0h1v1h-1zm-201 1h1v1h-1zm101 0h1v1h-1zm109 0h1v1h-1zm-259 1h1v1h-1zm37 0h1v1h-1zm71 0h1v1h-1zm159 0h1v1h-1zm41 0h1v1h-1zm7 1h1v1h-1zm9 0h1v1h-1zM63 75h1v1h-1zm4 2h1v1h-1zm-57 1h1v1h-1zm11 0h1v1h-1zm16 0h1v4h-1zm18 2h1v1h-1zm-18 2h1v1h-1zm4 1h1v1h-1zm13 1h1v2h-1zm-38 2h1v1h-1zm21 0h1v6h-1zm17 0h1v1h-1zm-32 1h1v1h-1zm23 3h1v1h-1zm-8 2h1v1h-1zm28 1h2v1h-2zm2 0h1v1h-1zm4 0h1v1h-1zm19 1h1v1h-1zm-2 1h1v1h-1zm0 4h1v1h-1zm-80 1h1v1H8zm83 0h1v1h-1zm-79 1h1v1h-1zm8 2h1v1h-1zm39 0h1v1h-1z" fill="#d7d9e3"/><path d="M14 12h1v1h-1zm5 0h1v1h-1zm-4 1h1v1h-1zm10 2h1v1h-1zm-14 1h1v1h-1zm24 0h4v1h-4zm4 0h1v1h-1zm-26 1h1v1h-1zm18 0h1v1h-1zM5 18h1v1H5zm24 1h1v1h-1zM8 20h1v1H8zm-5 2h1v4H3zm43 1h1v1h-1zm-30 2h1v1h-1zM3 26h1v1H3zm27 0h1v1h-1zm-8 1h1v1h-1zm9 0h1v1h-1zm-14 1h1v1h-1zM4 29h1v1H4zm6 1h1v1h-1zm-5 2h1v1H5zm7 0h1v1h-1zm10 1h1v1h-1zm42 0h1v1h-1zm-40 1h1v1h-1zm26 0h1v1h-1zm-13 1h1v1h-1zm12 0h1v1h-1zm9 0h2v1h-2zm2 0h1v1h-1zm-13 1h1v1h-1zm6 0h1v1h-1zM4 37h1v1H4zm25 0h1v1h-1zm16 0h1v1h-1zm6 0h1v1h-1zm-7 1h1v2h-1zM3 40h1v4H3zm41 0h1v1h-1zm3 0h1v1h-1zm-2 1h1v1h-1zm1 0h1v1h-1zm12 0h1v1h-1zm1 0h1v1h-1zm-34 1h1v1h-1zm9 0h1v1h-1zm5 1h1v1h-1zm13 0h1v1h-1zM3 44h1v1H3zm25 0h1v1h-1zm7 0h1v1h-1zM9 46h1v1H9zm22 0h1v1h-1zm44 0h1v1h-1zm-41 2h1v1h-1zm22 0h1v1h-1zm5 0h1v1h-1zm7 0h1v1h-1zm1 0h1v1h-1zm-49 1h1v1h-1zm4 0h1v1h-1zm26 0h1v1h-1zm-26 1h2v1h-2zm2 0h1v1h-1zm11 0h1v1h-1zm9 1h1v1h-1zm9 0h3v1h-3zm3 0h1v1h-1zm-18 1h1v1h-1zm-21 1h1v1h-1zm-7 2h1v1h-1zm32 0h1v1h-1zm3 0h1v1h-1zm-24 1h1v1h-1zm53 0h1v1h-1zm-6 1h1v1h-1zm-36 1h1v1h-1zm13 0h1v1h-1zm14 0h1v1h-1zm-33 1h1v1h-1zm20 0h1v1h-1zm27 0h1v1h-1zm-34 1h1v1h-1zm33 1h1v1h-1zm-12 2h1v1h-1zm4 0h1v1h-1zm-42 1h1v1h-1zm37 0h1v1h-1zm1 0h1v1h-1zm-38 1h1v1h-1zm31 0h1v1h-1zm17 0h1v1h-1zm-25 1h1v1h-1zm-17 1h1v1h-1zm44 0h1v1h-1zm-41 2h1v1h-1zm4 0h1v1h-1zm16 0h12v1H53zm12 0h1v1h-1zm-13 2h1v1h-1zm-17 1h1v1h-1zm3 0h1v1h-1zm11 0h1v1h-1zm21 0h1v1h-1z" fill="#192e83"/><path d="M121 0h1v102h-1zm208 7h1v1h-1zm39 1h1v1h-1zM166 9h1v22h-1zm56 1h1v1h-1zm104 0h1v19h-1zm-150 1h1v1h-1zm274 0h1v1h-1zm-292 1h1v1h-1zm23 0h1v1h-1zm9 0h1v1h-1zm157 0h1v1h-1zm6 0h1v1h-1zm-198 1h1v1h-1zm34 0h1v1h-1zm31 0h1v1h-1zm-31 1h1v1h-1zm179 0h1v1h-1zm-187 1h1v1h-1zm67 0h1v1h-1zm1 0h1v1h-1zm35 0h1v1h-1zm29 0h1v1h-1zm1 0h1v1h-1zm122 0h1v1h-1zm1 0h1v1h-1zm33 0h1v1h-1zm1 0h1v1h-1zm-228 1h1v1h-1zm48 0h1v1h-1zm132 0h1v1h-1zm42 0h1v1h-1zm-246 1h1v1h-1zm91 0h1v1h-1zm53 0h1v1h-1zm18 0h1v1h-1zm23 0h1v1h-1zm38 0h1v1h-1zm32 0h1v1h-1zm-232 1h1v1h-1zm65 0h1v1h-1zm157 0h1v1h-1zm-307 1h1v1h-1zm107 0h1v1h-1zm102 0h1v1h-1zm23 0h1v9h-1zm29 0h1v1h-1zm-146 1h1v1h-1zm171 0h1v1h-1zm-273 1h1v1h-1zm189 0h1v1h-1zm60 0h1v2h-1zm-270 1h1v1h-1zm204 0h1v1h-1zm6 0h1v1h-1zm-177 1h1v1h-1zm197 0h1v1h-1zm40 0h1v1h-1zm-268 1h1v1h-1zm31 0h1v1h-1zm37 0h1v1h-1zm28 0h1v1h-1zm60 0h1v1h-1zm5 0h1v1h-1zm49 0h1v1h-1zm8 0h1v1h-1zm8 0h1v1h-1zm90 0h1v1h-1zm-222 1h1v1h-1zm124 0h1v1h-1zm8 0h1v1h-1zm40 0h1v1h-1zm3 0h1v1h-1zm-264 1h1v1h-1zm67 0h1v1h-1zm52 1h1v1h-1zM23 28h1v1h-1zm159 0h1v1h-1zm42 0h1v1h-1zm165 0h1v1h-1zm-164 1h1v1h-1zm39 0h1v1h-1zm62 0h1v1h-1zm29 0h1v1h-1zm-197 1h1v2h-1zm23 0h1v1h-1zm22 0h1v1h-1zm19 0h1v1h-1zm12 0h1v1h-1zm20 0h1v1h-1zm75 0h1v1h-1zm91 0h1v1h-1zm33 0h1v1h-1zM11 31h1v1h-1zm144 0h1v1h-1zm4 0h1v1h-1zm7 0h1v1h-1zm34 0h1v1h-1zm31 0h1v1h-1zm66 0h1v1h-1zm70 0h1v1h-1zm10 0h1v1h-1zm7 0h1v1h-1zm70 0h1v1h-1zm9 0h1v1h-1zm4 0h1v1h-1zm-322 1h1v1h-1zm12 0h1v1h-1zm1 0h1v1h-1zm9 0h9v1h-9zm9 0h1v1h-1zm18 0h1v1h-1zm79 0h1v1h-1zm11 0h1v1h-1zm62 0h1v1h-1zm1 0h1v1h-1zm10 0h1v1h-1zm1 0h1v1h-1zm10 0h1v1h-1zm1 0h1v1h-1zm29 0h1v1h-1zm1 0h1v1h-1zm13 0h1v1h-1zm10 0h2v1h-2zm2 0h1v1h-1zm39 0h1v1h-1zM65 33h1v1h-1zm231 0h1v1h-1zm16 0h1v1h-1zm19 0h1v1h-1zm52 0h1v1h-1zm6 0h1v1h-1zM36 35h1v1h-1zm39 0h1v1h-1zM25 49h1v1h-1zm7 6h1v1h-1zm1 1h1v1h-1zm9 4h1v1h-1zm7 1h1v1h-1zm0 10h1v1h-1zm21 3h1v1h-1zm-22 2h1v1h-1zm24 0h1v1h-1zm-57 2h1v1h-1zm39 1h1v1h-1zm7 0h1v1h-1zm7 0h1v1h-1zm-7 1h1v1h-1zm-1 3h1v3h-1zm-34 1h1v1h-1zm-1 1h1v1h-1zm35 1h1v1h-1zm-7 3h1v1h-1zm-35 1h1v1h-1zm33 0h1v1h-1zm12 1h1v1h-1zm-34 3h1v1h-1zm29 1h1v1h-1zm-48 1h1v1h-1zm18 0h1v1h-1zm16 0h1v1h-1zM4 97h1v1H4zm3 1h1v1H7zm54 3h1v1h-1zm60 1h1v1h-1z" fill="#1d2f7c"/><path d="M12 4h1v1h-1zm12 3h21v1H24zm21 0h1v1h-1zm-29 7h1v1h-1zm18 3h1v1h-1zm7 11h1v1h-1zm-8 1h1v1h-1zM5 30h1v1H5zm29 4h1v1h-1zm32 17h1v1h-1zm-53 4h1v1h-1zm6 6h1v1h-1zm47 3h1v1h-1zm-32 6h1v1h-1zm2 3h1v1h-1z" fill="#5c6065"/><path d="M202 8h1v1h-1zm24 0h1v1h-1zm-33 1h1v1h-1zm-43 1h1v1h-1zm41 0h1v1h-1zm-39 1h1v1h-1zm29 0h1v1h-1zm21 0h1v1h-1zm145 0h1v1h-1zm21 0h1v2h-1zm0 2h1v1h-1zm-190 1h1v1h-1zm0 1h1v1h-1zm14 0h1v1h-1zm55 0h1v1h-1zm21 0h2v1h-2zm2 0h1v1h-1zm41 0h1v1h-1zm1 0h1v1h-1zm42 0h1v1h-1zm28 0h1v1h-1zm1 0h2v1h-2zm2 0h1v1h-1zm53 0h1v1h-1zm31 0h1v1h-1zm-217 1h1v1h-1zm21 0h1v1h-1zm132 0h1v1h-1zm-217 1h1v1h-1zm86 0h1v1h-1zm145 0h1v1h-1zm4 0h1v1h-1zm-180 1h1v1h-1zm65 0h1v1h-1zm44 0h1v1h-1zm8 0h1v1h-1zm29 0h1v1h-1zm-34 1h1v1h-1zm-80 1h1v1h-1zm87 1h1v1h-1zm-193 1h1v1h-1zm260 0h1v1h-1zm-185 1h1v1h-1zm102 0h1v1h-1zm10 0h1v1h-1zm24 0h1v1h-1zm36 0h1v1h-1zm-228 1h1v1h-1zm54 0h1v1h-1zm4 0h1v1h-1zm65 0h1v1h-1zm164 0h1v1h-1zm-320 1h1v1h-1zm151 0h1v1h-1zm123 0h1v1h-1zm47 0h1v1h-1zm-232 1h1v1h-1zm175 2h1v1h-1zm3 0h1v1h-1zm-201 1h1v1h-1zm-46 1h1v1h-1zm16 0h1v1h-1zm74 0h1v1h-1zm83 0h1v1h-1zm116 0h1v1h-1zm-266 1h1v1h-1zm25 0h1v1h-1zm6 0h1v1h-1zm38 0h1v1h-1zm39 0h1v1h-1zm24 0h1v1h-1zm18 0h1v1h-1zm76 0h1v1h-1zm-280 1h1v1h-1zm12 0h1v1h-1zm21 0h1v1h-1zm72 0h1v1h-1zm5 0h1v1h-1zm18 0h1v1h-1zm11 0h1v1h-1zm128 0h1v1h-1zm40 0h1v1h-1zm14 0h1v1h-1zm-234 1h1v1h-1zm16 0h1v1h-1zm21 0h1v1h-1zm203 0h1v1h-1zM29 52h1v1h-1zm-11 1h1v1h-1zM8 74h1v1H8zm14 0h1v1h-1zm22 0h1v1h-1zm17 0h1v1h-1zm-14 1h1v1h-1zm-20 7h1v1h-1zm-11 1h1v1h-1zm1 0h1v1h-1zm34 5h1v1h-1zm3 3h1v1h-1zm-35 1h1v1h-1zm28 3h1v1h-1zm24 0h1v1h-1zM2 96h1v1H2zm12 0h1v1h-1zm9 0h1v1h-1zm10 0h1v1h-1zm10 0h1v1h-1zm18 0h1v1h-1zm8 0h1v1h-1zm8 0h1v1h-1zm-8 3h1v1h-1zm-51 2h1v1h-1zm6 1h1v1h-1zm31 0h1v1h-1zm-23 1h1v1h-1zm1 0h1v1h-1zm13 0h1v1h-1zm1 0h1v1h-1z" fill="#1b2e7c"/><path d="M41 12h1v1h-1zm0 9h1v1h-1zm1 0h1v1h-1zm7 26h1v1h-1z" fill="#001b88"/><path d="M26 15h1v1h-1zm9 18h1v1h-1zm39 0h1v1h-1zm-45 3h1v1h-1zm-11 2h1v1h-1zm21 4h1v1h-1zm29 16h1v1h-1zm-47 6h1v1h-1zm9 2h1v1h-1z" fill="#535a63"/><path d="M4 22h1v1H4zm19 28h1v1h-1zm30 4h1v1h-1zm-8 3h1v1h-1zm-22 5h1v1h-1zm0 3h1v1h-1z" fill="#968a5e"/><path d="M347 8h1v1h-1zm-176 3h3v1h-3zm3 0h1v1h-1zm110 0h1v1h-1zm-23 4h1v1h-1zm37 0h1v1h-1zm1 0h1v1h-1zm122 0h2v1h-2zm2 0h1v1h-1zm25 0h1v1h-1zm7 0h1v1h-1zm1 0h1v1h-1zm-20 2h1v1h-1zm1 0h1v1h-1zm33 0h1v1h-1zm1 0h1v1h-1zm-248 1h1v4h-1zm-5 2h1v1h-1zm0 1h1v1h-1zm5 1h1v1h-1zm221 1h1v1h-1zm20 0h1v1h-1zm-115 2h1v1h-1zm-166 1h1v1h-1zm92 3h1v1h-1zm-40 3h1v1h-1zm186 0h1v1h-1zM38 78h1v1h-1zm4 14h1v1h-1zm41 9h1v1h-1z" fill="#001474"/><path d="M15 4h1v1h-1zm-4 2h1v1h-1zm3 1h1v1h-1zm8 1h1v1h-1zm23 0h1v1h-1zm-34 6h1v1h-1zm31 3h1v1h-1zM6 21h1v1H6zm0 4h1v1H6zm25 0h1v1h-1zm4 0h1v1h-1zm-3 1h1v1h-1zM5 27h1v1H5zm2 1h1v1H7zm15 1h1v2h-1zM9 31h1v1H9zm13 0h1v1h-1zm-12 1h1v1h-1zm36 0h1v1h-1zm-35 1h1v1h-1zm1 1h1v1h-1zm1 1h1v1h-1zm21 0h1v1h-1zm7 0h1v1h-1zm5 0h1v1h-1zm19 0h1v1h-1zm-29 1h1v1h-1zm8 0h1v1h-1zm12 1h1v1h-1zm6 0h1v1h-1zm-9 1h1v1h-1zM5 39h1v1H5zm55 0h1v1h-1zm12 0h1v1h-1zm-8 1h1v1h-1zm-10 1h1v1h-1zm-7 1h1v1h-1zm17 1h1v1h-1zM6 44h1v1H6zm39 2h1v1h-1zm17 0h1v1h-1zm-36 2h1v1h-1zm46 0h2v1h-2zm2 0h1v1h-1zm-27 1h1v1h-1zm-13 1h1v1h-1zm20 2h1v1h-1zm11 0h1v1h-1zm6 0h1v1h-1zm-55 1h1v1h-1zm2 1h1v1h-1zm20 2h1v1h-1zm-14 2h1v1h-1zm17 0h1v1h-1zm22 0h1v1h-1zm9 0h1v1h-1zm-30 1h1v1h-1zm4 0h1v1h-1zm23 0h1v1h-1zm1 0h1v1h-1zm-23 1h1v1h-1zm23 0h1v1h-1zm-45 2h1v1h-1zm2 1h1v1h-1zm7 4h1v1h-1zm38 0h1v1h-1zm-2 2h1v1h-1zm3 0h1v1h-1zm-1 3h1v1h-1zm-21 1h1v1h-1z" fill="#f4d800"/><g fill="#ffe300"><path d="M13 5h1v1h-1zm8 0h1v2h-1zm-9 1h1v1h-1zm3 0h3v1h-3zm3 0h1v1h-1zm-7 1h1v1h-1zm10 0h1v1h-1zm-1 1h1v1h-1zm0 1h1v1h-1zm1 1h5v1h-5zm5 0h1v1h-1zm4 0h11v1H30zm11 0h1v1h-1zm-12 1h1v1h-1zm-19 1h1v1h-1zm33 0h1v4h-1zm-32 1h1v1h-1zm17 0h1v1h-1zm-16 1h1v1h-1zm31 2h1v1h-1zm-2 2h1v1h-1zm3 0h1v1h-1zm-9 1h4v1h-4zm4 0h3v1h-3zm3 0h1v1h-1zM6 20h1v1H6zm25 0h1v1h-1zm1 1h1v1h-1zm0 1h1v1h-1zm11 1h1v1h-1zm-11 2h1v1h-1zm5 0h1v1h-1zm7 0h1v6h-1zm-25 1h1v2h-1zm16 0h3v1h-3zm3 0h1v1h-1zM6 28h1v2H6zm13 0h1v1h-1zM7 29h1v2H7zm-1 1h1v1H6zm17 0h1v1h-1zm12 0h1v1h-1zm14 0h1v1h-1zM7 31h1v1H7zm16 0h1v1h-1zm3 0h3v1h-3zm3 0h1v1h-1zm9 0h2v1h-2zm2 0h1v1h-1zm4 0h1v1h-1zm4 0h1v2h-1zm-15 1h1v1h-1zm14 0h1v2h-1zm1 1h1v1h-1zm20 0h1v1h-1zM9 34h1v1H9zm34 0h1v2h-1zm4 0h1v1h-1zm23 0h1v1h-1zm3 0h1v1h-1zm-63 1h1v1h-1zm19 0h1v1h-1zm1 0h1v1h-1zm3 0h1v1h-1zm9 0h1v2h-1zm29 0h2v1h-2zm2 0h1v2h-1zm-42 1h1v1h-1zm12 0h1v1h-1zm-31 1h1v1h-1zm30 0h1v1h-1zm31 0h1v1h-1zm-19 1h1v1h-1zm-36 1h1v1h-1zm49 0h1v2h-1zm-52 1h1v1h-1zm20 0h1v1h-1zm21 0h1v1h-1zm-36 1h1v1h-1zm19 0h1v1h-1zm3 0h1v1h-1zm7 0h1v1h-1zm-1 1h1v1h-1zm-30 1h1v1h-1zm29 0h1v1h-1zm24 0h1v1h-1zm-51 2h1v1h-1zm48 0h1v1h-1zm5 0h1v1h-1zM6 46h1v1H6zm1 0h1v2H7zm1 1h1v2H8zm14 0h1v1h-1zm7 0h1v1h-1zm34 0h1v1h-1zm9 0h1v1h-1z"/><path d="M7 48h2v1H7zm2 0h1v2H9zm18 0h1v1h-1zm20 0h1v1h-1zm17 0h1v3h-1z"/><path d="M8 49h2v1H8zm2 0h1v2h-1zm63 0h1v1h-1zM9 50h1v1H9zm24 0h1v1h-1zm40 0h1v1h-1zm1 0h1v4h-1zm-64 1h1v1h-1zm54 0h1v1h-1zm8 1h2v1h-2zm-57 1h1v2h-1zm48 0h1v1h-1zm6 0h2v1h-2zm2 0h1v1h-1zm-32 1h1v2h-1zm35 0h1v2h-1zm-59 1h1v1h-1zm49 0h1v1h-1zm-44 1h1v1h-1zm19 0h1v1h-1zm34 0h1v2h-1zm1 0h1v1h-1zm-56 2h1v1h-1zm5 0h1v1h-1zm50 0h1v1h-1zm-30 1h1v1h-1zm28 0h1v1h-1zm-51 1h1v1h-1zm6 0h1v1h-1zm20 0h1v1h-1zm1 1h1v1h-1zm-19 2h1v1h-1zm3 1h1v1h-1zm37 0h1v1h-1zm1 0h1v1h-1zm-38 1h1v1h-1zm1 0h1v1h-1zm17 0h1v2h-1zm18 0h1v1h-1zm-35 1h1v1h-1zm18 0h1v1h-1zm13 0h1v1h-1zm-30 1h1v1h-1zm16 0h1v1h-1zm17 0h1v1h-1zm5 0h1v1h-1zm-2 1h1v1h-1zm3 0h1v1h-1zm-22 1h1v1h-1zm21 1h1v1h-1z"/></g><path d="M10 6h1v1h-1zm4 2h1v1h-1zm21 9h4v1h-4zm4 0h1v1h-1zm-8 1h1v1h-1zm6 3h1v1h-1zM13 34h1v1h-1zm28 0h1v1h-1zm19 2h1v1h-1zm7 2h1v1h-1zm-45 3h1v1h-1zm22 0h1v1h-1zm-16 4h1v1h-1zm6 4h1v1h-1zm-22 5h1v1h-1zm41 1h1v1h-1zm-18 3h1v1h-1zm2 2h1v1h-1zm24 5h1v1h-1z" fill="#767453"/><path d="M282 6h1v1h-1zm-60 3h1v1h-1zm73 0h1v1h-1zm157 0h1v1h-1zm-231 1h1v1h-1zm228 0h1v1h-1zm-222 1h1v1h-1zm142 0h1v1h-1zm-119 3h1v1h-1zm13 0h1v1h-1zm23 0h1v1h-1zm29 0h1v1h-1zm71 0h1v1h-1zm82 0h1v1h-1zm-244 1h1v1h-1zm41 0h1v1h-1zm135 0h1v1h-1zm32 0h1v1h-1zm-278 1h1v1h-1zm28 0h1v1h-1zm36 0h1v1h-1zm-42 1h1v1h-1zm64 0h1v1h-1zm-88 1h1v1h-1zm94 0h1v1h-1zm65 0h1v1h-1zm66 1h2v1h-2zm2 0h1v1h-1zm60 0h1v1h-1zm-74 1h1v1h-1zm103 0h1v1h-1zm-197 1h1v1h-1zm92 0h2v1h-2zm2 0h1v1h-1zm5 1h1v1h-1zm103 0h1v1h-1zm-103 1h1v1h-1zm-177 2h1v1h-1zm25 0h1v1h-1zm96 0h1v1h-1zm120 0h1v1h-1zm-124 1h1v1h-1zm-152 2h1v1h-1zm118 0h1v1h-1zm85 0h1v1h-1zm14 0h1v1h-1zm-204 1h1v1h-1zm62 0h1v1h-1zm152 0h1v1h-1zm80 0h1v1h-1zm-217 1h1v1h-1zm229 0h1v1h-1zm-185 1h1v1h-1zm152 0h1v1h-1zm18 0h1v1h-1zm-226 1h1v1h-1zm190 0h1v1h-1zm-248 1h1v1h-1zm123 0h1v1h-1zm43 0h1v1h-1zm77 0h1v1h-1zm53 0h1v1h-1zm-212 8h1v1h-1zM69 75h1v1h-1zm-51 2h1v1h-1zm22 0h1v1h-1zm24 0h1v1h-1zm1 0h1v1h-1zm-39 5h1v1h-1zm28 0h1v1h-1zm5 0h1v1h-1zm-13 2h1v1h-1zm-23 1h1v1h-1zm36 2h1v1h-1zm-41 2h1v1h-1zm43 2h1v1h-1zm-12 1h1v1h-1zm19 3h1v1h-1zm16 0h1v1h-1zM6 99h1v1H6zm67 0h1v1h-1zm18 0h1v1h-1zm-8 1h1v1h-1zm7 1h1v1h-1zm-73 1h1v1h-1zm45 0h1v1h-1zm-39 1h1v1h-1zm33 0h1v1h-1zm-8 1h1v1h-1zm72 0h2v1h-2zm2 0h1v1h-1z" fill="#999fbf"/><path d="M330 6h1v1h-1zm23 1h1v1h-1zM205 8h1v1h-1zm18 0h1v1h-1zm64 0h1v1h-1zm0 1h1v1h-1zm122 1h1v22h-1zm-220 1h1v1h-1zm72 3h1v1h-1zm55 0h1v1h-1zm-74 1h1v1h-1zm11 0h1v1h-1zm92 1h1v1h-1zm50 0h1v1h-1zm-213 1h1v1h-1zm163 0h1v1h-1zm-194 1h1v1h-1zm139 0h1v1h-1zm80 0h1v1h-1zm68 0h1v1h-1zm-129 1h1v1h-1zm61 0h1v1h-1zm10 0h1v1h-1zm-222 1h1v1h-1zm193 0h1v1h-1zm34 0h1v1h-1zm49 0h1v1h-1zm-77 1h1v1h-1zm-51 2h1v1h-1zm171 1h1v1h-1zm-327 1h1v1h-1zm225 1h1v1h-1zm-22 1h1v1h-1zm81 0h1v1h-1zm-199 2h1v1h-1zm69 0h1v1h-1zm6 0h1v1h-1zm51 0h1v1h-1zm57 0h1v1h-1zm23 0h1v1h-1zm-70 1h1v1h-1zm11 0h1v1h-1zm-61 1h1v1h-1zm33 0h1v1h-1zm-132 1h1v1h-1zm83 0h1v1h-1zm104 0h1v1h-1zm35 0h1v1h-1zm32 0h1v1h-1zm-281 2h1v1h-1zm31 0h1v1h-1zm17 0h1v1h-1zm28 0h1v1h-1zm29 0h1v1h-1zm8 0h1v1h-1zm5 0h1v1h-1zm19 0h1v1h-1zm47 0h1v1h-1zm5 0h1v1h-1zm56 0h1v1h-1zm-177 7h1v1h-1zM69 78h1v1h-1zm-23 5h1v1h-1zm8 0h1v1h-1zm-37 4h1v1h-1zm37 0h1v1h-1zm-44 7h1v1h-1zm73 2h1v1h-1zm-12 4h1v1h-1zm-4 1h1v1h-1zm-51 1h1v1h-1zm67 0h1v1h-1zm2 1h1v1h-1z" fill="#cdd0df"/><path d="M413 6h1v1h-1zm-88 1h1v2h-1zM193 8h1v1h-1zm221 0h1v1h-1zM165 9h1v23h-1zm160 0h1v1h-1zm-144 1h1v1h-1zm17 0h1v1h-1zm1 0h1v1h-1zm30 0h1v1h-1zm1 0h1v1h-1zm62 1h1v1h-1zm-133 1h1v1h-1zm23 1h1v2h-1zm164 0h1v1h-1zm-158 1h1v1h-1zm31 0h1v1h-1zm5 0h1v1h-1zm-42 1h1v1h-1zm61 0h1v1h-1zm117 0h1v1h-1zm9 0h1v1h-1zm-192 1h1v1h-1zm129 0h1v1h-1zm59 0h1v1h-1zm82 0h1v1h-1zm-82 1h1v1h-1zm82 0h1v1h-1zm-260 1h1v1h-1zm58 0h1v1h-1zm4 0h1v1h-1zm70 0h1v1h-1zm84 0h2v1h-2zm2 0h1v1h-1zm58 0h1v1h-1zm-46 1h1v1h-1zm12 0h1v1h-1zm-250 1h1v1h-1zm184 0h1v1h-1zm-207 1h1v1h-1zm196 0h1v1h-1zm120 1h1v1h-1zm-230 1h1v1h-1zm233 0h1v1h-1zm-325 1h1v1h-1zm195 0h1v1h-1zm31 1h1v1h-1zm91 0h1v1h-1zm-274 1h1v1h-1zm240 0h1v1h-1zm-157 1h1v1h-1zm85 0h1v1h-1zm-178 1h1v1h-1zm11 0h1v1h-1zm229 0h1v1h-1zm6 0h1v1h-1zm-209 1h1v1h-1zm6 0h1v1h-1zm164 0h1v1h-1zm-121 1h1v1h-1zm91 0h1v1h-1zm-206 1h1v1h-1zm51 0h1v1h-1zm220 0h1v1h-1zm-260 1h1v1h-1zm15 0h1v1h-1zm12 0h1v1h-1zm59 0h1v1h-1zm69 0h1v1h-1zm-160 1h1v1h-1zm34 0h1v1h-1zm31 0h1v1h-1zm175 0h1v1h-1zm26 0h1v1h-1zm15 0h1v1h-1zm10 0h1v1h-1zM45 75h1v1h-1zm25 0h1v1h-1zm-12 1h1v1h-1zM9 77h1v1H9zm39 0h1v1h-1zm-5 2h1v1h-1zm17 1h1v1h-1zm-39 1h1v1h-1zm33 0h1v1h-1zm-12 1h1v1h-1zm6 0h1v1h-1zm11 4h1v1h-1zm-42 2h1v1h-1zm8 2h1v1h-1zm19 1h1v1h-1zM0 94h1v1H0zm83 0h1v1h-1zm7 1h1v1h-1zM4 98h1v1H4zm68 1h1v1h-1zm-53 3h1v1h-1zm65 0h1v1h-1z" fill="#5c6597"/><path d="M23 7h1v1h-1zm-7 9h1v1h-1zm25 11h1v1h-1zm-2 1h1v1h-1zm10 20h1v1h-1zm-37 1h1v1h-1zm28 4h1v1h-1zm22 4h1v1h-1zm-26 3h1v1h-1zm10 4h1v1h-1zm-15 3h1v1h-1zm19 6h1v1h-1z" fill="#4e5567"/><path d="M19 11h1v1h-1zm21 6h1v1h-1zm3 3h1v1h-1zm-26 5h1v1h-1zm3 1h1v1h-1zm13 1h1v1h-1zm1 2h1v1h-1zm14 1h1v1h-1zm24 10h1v1h-1zm-22 3h1v1h-1zm17 1h1v1h-1zm3 3h1v1h-1zM6 48h1v1H6zm42 7h1v1h-1zm-23 3h1v1h-1zm49 1h1v1h-1zm-25 3h1v1h-1zm13 0h1v1h-1zm0 3h1v1h-1zm8 0h1v1h-1zm-34 4h1v1h-1zm-1 2h1v1h-1zm2 1h1v1h-1z" fill="#928a48"/><path d="M453 12h1v2h-1zm0 2h1v1h-1zm-181 1h1v1h-1zm131 0h1v1h-1zm17 0h1v1h-1zm13 0h1v1h-1zm21 0h1v1h-1zm2 2h1v1h-1zm-264 1h1v4h-1zm238 0h1v1h-1zm23 1h1v9h-1zm-261 3h1v1h-1zm157 2h1v1h-1zm17 2h1v1h-1zm-57 1h1v1h-1zm168 0h1v1h-1zm-168 1h1v1h-1zm144 0h1v1h-1zm20 0h1v1h-1zm-233 1h1v1h-1zm130 0h1v1h-1zm96 1h1v1h-1zm-287 2h1v1h-1zm25 0h1v1h-1zm196 0h1v1h-1zM54 80h1v1h-1zm10 12h1v1h-1zm4 0h1v1h-1zm-53 9h1v1h-1zm49 0h1v1h-1z" fill="#001975"/><path d="M36 21h1v1h-1zm31 16h1v1h-1zM4 44h1v1H4zm19 5h1v1h-1zm32 3h1v1h-1zm8 9h1v1h-1zm-40 3h1v1h-1zm48 8h1v1h-1zm-34 1h1v1h-1z" fill="#8f8560"/><path d="M285 6h1v1h-1zm43 0h1v1h-1zm86 0h1v1h-1zM195 7h1v1h-1zm7 0h1v1h-1zm24 0h1v1h-1zm-68 3h1v1h-1zm-10 1h2v1h-2zm2 0h1v1h-1zm84 0h1v1h-1zm127 0h1v1h-1zm8 2h1v1h-1zm-123 1h1v1h-1zm22 0h1v1h-1zm15 0h1v1h-1zm99 0h1v1h-1zm3 0h1v1h-1zm19 0h1v1h-1zm31 0h1v1h-1zm3 0h1v1h-1zm-245 1h1v1h-1zm67 0h1v1h-1zm95 0h1v1h-1zm70 0h1v1h-1zm-238 2h1v1h-1zm67 0h1v1h-1zm110 0h1v1h-1zm12 0h1v1h-1zm54 0h1v1h-1zm-79 1h1v1h-1zm8 0h1v1h-1zm-180 1h1v1h-1zm64 0h1v1h-1zm113 0h1v1h-1zm-80 1h1v1h-1zm145 0h1v1h-1zm-251 2h1v1h-1zm12 0h1v1h-1zm62 0h1v1h-1zm65 0h1v1h-1zm36 0h1v1h-1zm7 0h1v1h-1zm-203 1h1v1h-1zm196 0h1v1h-1zm12 0h1v1h-1zm-170 1h1v1h-1zm53 1h1v1h-1zm6 0h1v1h-1zm175 0h1v1h-1zm56 0h1v1h-1zm-232 1h1v1h-1zm108 0h1v1h-1zm-82 1h1v1h-1zm-96 2h1v1h-1zm23 1h1v1h-1zm1 0h1v1h-1zm30 0h1v1h-1zm1 0h1v1h-1zm45 0h1v1h-1zm38 0h1v1h-1zm36 0h1v2h-1zm-113 1h1v1h-1zm108 1h1v1h-1zm5 0h1v1h-1zm-202 1h1v1h-1zm95 0h1v1h-1zm75 0h1v1h-1zm42 0h1v1h-1zm26 0h1v1h-1zm11 0h1v1h-1zm18 0h1v1h-1zm19 0h1v1h-1zM44 75h1v1h-1zm-13 1h1v1h-1zm7 1h1v1h-1zm-17 2h1v1h-1zm29 9h1v2h-1zm-26 1h1v1h-1zm26 1h1v1h-1zm5 1h1v1h-1zm-8 3h1v1h-1zm11 0h1v1h-1zm-44 1h1v1h-1zm19 0h1v1h-1zm49 0h1v1h-1zm5 0h1v1h-1zm1 1h1v1h-1zM2 97h1v1H2zm86 0h3v1h-3zm3 0h1v1h-1zm-81 3h1v1h-1zm59 0h1v1h-1zm-3 1h1v1h-1zm18 0h1v1h-1zm4 0h1v1h-1zm-64 2h1v1h-1zm31 0h1v1h-1zm-23 1h1v1h-1zm1 0h1v1h-1zm13 0h1v1h-1zm1 0h1v1h-1z" fill="#7e87b2"/><path d="M29 22h1v1h-1zm10 5h1v1h-1zm-2 1h1v1h-1zm-13 1h1v1h-1zm47 2h1v1h-1zm-29 2h1v1h-1zm17 7h1v1h-1zm7 2h1v1h-1zm-4 14h1v1h-1zm-35 3h1v1h-1z" fill="#33446d"/><path d="M120 0h1v102h-1zm209 6h1v1h-1zm33 2h1v1h-1zm52 1h1v11h-1zm-122 3h1v1h-1zm0 1h1v1h-1zm62 0h1v1h-1zm95 0h1v1h-1zm0 1h1v1h-1zm-185 1h1v1h-1zm82 1h1v1h-1zm0 1h1v1h-1zm31 1h1v1h-1zm3 0h1v1h-1zm54 0h1v1h-1zm-33 1h1v1h-1zm48 0h1v10h-1zm-157 1h1v9h-1zm94 0h1v1h-1zm28 0h1v1h-1zm19 0h1v1h-1zm30 0h1v1h-1zm-77 1h1v1h-1zm-168 2h1v1h-1zm58 0h1v1h-1zm-35 1h1v1h-1zm35 0h1v1h-1zm77 1h1v1h-1zm-8 1h1v1h-1zm69 0h1v5h-1zm3 0h1v1h-1zm-47 1h1v1h-1zm59 0h1v1h-1zm4 0h1v1h-1zm-79 1h1v1h-1zm-201 1h1v1h-1zm139 0h1v1h-1zm57 0h1v1h-1zm17 0h1v1h-1zm83 0h1v1h-1zm28 0h1v1h-1zm-14 1h1v1h-1zm-164 1h1v1h-1zm92 0h1v1h-1zm23 0h1v1h-1zm-171 2h1v1h-1zm28 0h1v1h-1zm37 0h1v1h-1zm5 0h1v1h-1zm66 0h1v1h-1zm5 0h1v1h-1zm56 0h1v1h-1zm17 0h1v1h-1zM30 75h1v1h-1zM9 78h1v1H9zm61 2h1v1h-1zm-45 4h1v1h-1zm-3 2h1v1h-1zm1 1h1v1h-1zm27 4h1v1h-1zm21 0h1v1h-1zm-39 3h1v1h-1zm47 0h1v1h-1zm-8 5h1v1h-1zm-3 1h1v1h-1zm-3 1h1v1h-1zm55 1h1v1h-1zm-67 1h1v1h-1z" fill="#3c4b8e"/><path d="M22 4h1v1h-1zm-5 18h1v1h-1zm0 1h1v1h-1zm2 1h1v1h-1zm12 13h1v1h-1zm20 9h1v1h-1z" fill="#cbb53e"/><path d="M196 7h1v1h-1zm31 0h1v1h-1zm5 0h1v1h-1zm-67 1h1v1h-1zm39 0h1v1h-1zm20 0h1v1h-1zm11 0h1v1h-1zm46 0h1v1h-1zM157 9h1v1h-1zm124 0h1v1h-1zm15 0h1v1h-1zm153 2h1v1h-1zm-260 1h1v1h-1zm172 0h1v1h-1zm-184 1h1v1h-1zm169 1h1v1h-1zm-38 1h1v1h-1zm9 0h1v1h-1zm33 1h1v1h-1zm19 0h1v1h-1zm8 0h1v1h-1zm12 0h1v1h-1zm-38 1h1v1h-1zm-37 1h1v1h-1zm-64 2h1v1h-1zm106 0h1v1h-1zm-106 1h1v1h-1zm170 0h1v1h-1zm49 0h1v1h-1zm-321 1h1v1h-1zm6 0h1v1h-1zm22 0h1v1h-1zm69 0h1v1h-1zm-58 1h1v1h-1zm-4 1h1v1h-1zm162 1h1v1h-1zm126 1h1v1h-1zm-319 1h1v1h-1zm25 1h1v1h-1zm18 1h1v1h-1zm97 1h1v1h-1zm5 0h1v1h-1zm69 0h1v1h-1zm15 0h1v1h-1zm59 0h1v1h-1zm-20 1h1v1h-1zm-260 1h1v1h-1zm156 0h1v1h-1zm39 0h1v1h-1zm32 0h1v1h-1zm-133 1h1v1h-1zm11 0h1v1h-1zm1 0h1v1h-1zm66 0h1v1h-1zm141 0h1v1h-1zM23 75h1v1h-1zm37 0h1v1h-1zM8 76h1v1H8zm60 2h1v1h-1zm3 0h1v1h-1zm-28 2h1v1h-1zm4 3h1v1h-1zm3 4h1v1h-1zm-7 5h1v1h-1zm20 0h1v1h-1zm-18 3h1v1h-1zm15 0h1v1h-1zm18 1h1v1h-1zm-3 2h1v1h-1zm12 0h1v1h-1zm-27 4h1v1h-1zm-35 1h1v1h-1zm29 0h1v1h-1zm-19 1h9v1h-9zm9 0h1v1h-1z" fill="#536099"/><path d="M10 7h1v1h-1zm17 4h1v1h-1zM7 19h1v1H7zm23 1h1v1h-1zm8 4h1v1h-1zm-4 3h1v1h-1zm3 0h1v1h-1zm-1 2h1v1h-1zm15 0h1v1h-1zm14 0h1v1h-1zM6 31h1v1H6zm41 0h1v1h-1zm-22 2h1v1h-1zm5 3h1v1h-1zm-19 1h1v1h-1zm52 0h1v1h-1zm-28 4h1v1h-1zm21 1h1v1h-1zm8 0h1v1h-1zm-28 1h1v1h-1zm36 0h1v1h-1zm2 4h1v1h-1zm-53 1h1v1h-1zm7 2h1v1h-1zm35 0h1v1h-1zM9 51h1v1H9zm40 0h1v1h-1zm0 1h1v1h-1zm17 0h1v1h-1zm-18 1h1v1h-1zm-5 3h1v1h-1zm23 3h1v1h-1zm-2 1h1v1h-1zm1 0h1v1h-1zm-15 5h1v1h-1zm-17 3h1v1h-1z" fill="#dfc62f"/><path d="M46 7h1v1h-1zM15 8h1v1h-1zm3 1h1v1h-1zm0 1h1v1h-1zm0 11h1v1h-1zm21 0h1v1h-1zm4 0h2v1h-2zm2 0h1v1h-1zm-16 2h1v1h-1zM8 27h1v1H8zm32 1h1v1h-1zm-8 1h1v1h-1zm-16 7h1v1h-1zm36 1h1v1h-1zm-21 1h1v1h-1zm12 0h1v1h-1zm-29 3h1v1h-1zm-7 2h1v1H7zm10 1h1v1h-1zm10 0h1v1h-1zm14 0h1v1h-1zm-12 1h1v1h-1zM6 49h1v1H6zm15 1h1v1h-1zm15 0h1v1h-1zm10 0h1v1h-1zm6 1h1v1h-1zm-32 3h1v1h-1zm22 0h1v1h-1zm-16 4h1v1h-1zm4 3h1v1h-1zm-8 5h1v1h-1zm51 7h1v1h-1z" fill="#2f3d7c"/><path d="M285 7h1v1h-1zM144 8h8v1h-8zm8 0h1v1h-1zm15 0h8v1h-8zm8 0h1v1h-1zm173 0h3v1h-3zm3 0h1v1h-1zm13 0h3v1h-3zm3 0h1v1h-1zM179 9h1v1h-1zm168 0h1v1h-1zm-194 2h1v1h-1zm5 0h1v1h-1zm12 0h1v1h-1zm51 0h1v1h-1zm-52 1h1v5h-1zm185 2h1v1h-1zm-91 1h1v1h-1zm22 0h1v1h-1zm25 0h1v1h-1zm71 0h1v1h-1zm59 0h1v1h-1zm33 0h1v2h-1zm-281 1h1v1h-1zm-23 1h1v1h-1zm78 0h1v1h-1zm1 0h1v1h-1zm13 0h1v22h-1zm116 0h1v1h-1zm58 0h1v1h-1zm29 0h1v1h-1zm9 0h1v1h-1zm-219 2h1v1h-1zm95 0h1v1h-1zm0 1h1v1h-1zm51 0h1v1h-1zm-229 1h3v1h-3zm3 0h1v1h-1zm98 1h1v3h-1zm40 0h2v1h-2zm2 0h1v1h-1zm71 0h1v1h-1zm-216 1h1v5h-1zm9 1h1v1h-1zm175 0h1v1h-1zm82 0h8v1h-8zm8 0h1v1h-1zm-255 1h1v1h-1zm35 0h1v1h-1zm49 0h1v1h-1zm89 0h1v1h-1zm-209 1h1v1h-1zm36 0h1v1h-1zm284 0h1v1h-1zm-96 1h1v1h-1zm42 0h1v1h-1zm55 0h1v1h-1zm-304 1h1v1h-1zm136 0h1v1h-1zm55 0h1v1h-1zm117 0h1v1h-1zm-233 1h1v1h-1zm85 0h1v1h-1zm-127 1h1v1h-1zm112 0h1v1h-1zm71 0h1v1h-1zm50 0h1v1h-1zm-142 1h1v1h-1zm146 0h1v1h-1zm32 0h1v1h-1zm-229 1h1v1h-1zm10 0h1v1h-1zm96 0h1v1h-1zm42 0h1v1h-1zm74 0h1v1h-1zm10 0h1v1h-1zm-276 1h1v1h-1zm1 0h1v1h-1zm30 0h1v1h-1zm1 0h1v1h-1zm15 0h1v1h-1zm1 0h1v1h-1zm23 0h1v1h-1zm28 0h1v1h-1zm13 0h1v1h-1zm1 0h1v1h-1zm19 0h1v1h-1zm51 0h1v1h-1zm1 0h1v1h-1zm55 0h1v1h-1zm1 0h1v1h-1zm16 0h1v1h-1zm15 0h1v1h-1zm1 0h1v1h-1zm-209 6h1v1h-1zM9 74h10v1H9zm10 0h1v1h-1zm13 0h3v1h-3zm3 0h1v1h-1zm3 0h4v1h-4zm4 0h1v1h-1zm20 0h1v1h-1zm6 0h1v1h-1zm-37 3h1v1h-1zm41 0h1v1h-1zm-31 1h1v1h-1zm25 0h1v1h-1zm-6 3h1v1h-1zm-20 1h1v1h-1zm-17 4h1v1h-1zm16 0h2v1h-2zm2 0h1v1h-1zm12 2h1v1h-1zm-36 1h1v1h-1zm8 0h1v1h-1zm14 3h1v1h-1zm1 0h1v1h-1zm-12 1h1v1h-1zm29 1h1v1h-1zm10 2h1v1h-1zm15 1h1v1h-1z" fill="#12287a"/><path d="M286 7h1v1h-1zm-4 4h1v1h-1zm-106 1h1v1h-1zm-22 1h1v1h-1zm93 1h2v1h-2zm2 0h1v1h-1zm21 0h1v1h-1zm14 0h1v1h-1zm28 0h2v1h-2zm2 0h1v1h-1zm69 0h1v1h-1zm86 0h1v1h-1zm-67 1h1v1h-1zm29 1h1v1h-1zm45 1h1v1h-1zm-166 1h1v1h-1zm71 0h1v1h-1zm9 0h1v10h-1zm84 0h1v1h-1zm-109 1h1v1h-1zm79 1h1v1h-1zm-64 2h1v1h-1zm83 0h1v1h-1zm-48 1h1v1h-1zm-53 1h1v1h-1zm-138 2h1v1h-1zm-36 1h1v1h-1zm202 1h1v1h-1zm-201 1h1v1h-1zm76 0h1v1h-1zm89 0h1v1h-1zm30 1h1v1h-1zm70 0h1v1h-1zm-149 1h1v1h-1zm61 0h1v1h-1zm-34 1h1v1h-1zm59 0h1v1h-1zm-248 1h1v1h-1zm129 0h1v1h-1zm42 0h1v1h-1zm5 0h1v1h-1zm8 0h1v1h-1zm61 0h1v1h-1zm22 0h1v1h-1zm55 0h1v1h-1zM22 75h1v1h-1zm25 1h1v1h-1zm-4 5h1v1h-1zm-28 3h2v1h-2zm2 0h1v1h-1zm-7 11h1v1h-1zm18 0h1v1h-1zm41 0h1v1h-1zm16 0h1v1h-1zM1 96h1v1H1zm87 4h1v1h-1zm-70 2h1v1h-1zm43 0h1v1h-1z" fill="#6e75a1"/><path d="M9 8h1v1H9zm0 4h1v1H9zm2 3h1v1h-1zm34 4h1v1h-1zM4 21h1v1H4zm33 3h1v1h-1zm-20 2h1v1h-1zm4 1h1v1h-1zM8 28h1v1H8zm3 4h1v1h-1zm38 2h1v1h-1zm16 0h1v1h-1zm-21 3h1v1h-1zm30 0h1v1h-1zm-31 3h1v1h-1zm3 2h1v1h-1zm26 0h1v1h-1zm-11 2h1v1h-1zm-42 2h1v1h-1zm12 1h1v1h-1zm31 1h1v1h-1zm-16 1h1v1h-1zm-23 2h1v1h-1zm29 1h1v1h-1zm23 5h1v1h-1zm-27 3h1v1h-1zm-21 4h1v1h-1z" fill="#6a6965"/><path d="M15 7h1v1h-1zm28 15h1v1h-1zm-13 2h1v1h-1zM7 27h1v1H7zm28 2h1v1h-1zM8 34h1v1H8zm56 0h1v1h-1zm2 1h1v1h-1zm-50 2h1v1h-1zm27 0h1v1h-1zm-20 5h1v1h-1zm18 1h1v1h-1zM8 46h1v1H8zm21 0h1v1h-1zm23 0h1v1h-1zm-5 4h1v1h-1zm6 2h1v1h-1zm22 2h1v1h-1zm-55 1h1v1h-1zm22 0h1v1h-1zm2 6h1v1h-1zm18 0h1v1h-1zm-32 1h1v1h-1zm41 1h1v1h-1zm-4 1h1v1h-1zm3 0h1v1h-1zm-7 1h1v1h-1zm-14 3h1v1h-1z" fill="#c3b132"/><path d="M198 7h1v1h-1zm31 0h1v1h-1zm1 0h1v1h-1zm99 1h1v20h-1zm34 0h1v1h-1zM156 9h1v1h-1zm36 0h1v1h-1zm31 0h1v1h-1zm71 1h1v1h-1zm-139 4h1v1h-1zm0 1h1v1h-1zm64 0h1v1h-1zm26 0h1v1h-1zm17 0h1v1h-1zm5 0h1v1h-1zm15 0h1v1h-1zm116 0h1v1h-1zm41 0h1v1h-1zm28 0h1v1h-1zm-244 1h1v1h-1zm19 0h1v1h-1zm154 0h1v1h-1zm-128 1h1v1h-1zm30 0h1v1h-1zm8 0h1v1h-1zm12 0h1v1h-1zm42 0h1v1h-1zm36 0h1v1h-1zm42 0h1v1h-1zm17 0h1v1h-1zm14 0h1v1h-1zm-311 1h1v1h-1zm117 0h1v1h-1zm0 1h1v1h-1zm168 0h1v1h-1zm-74 1h1v1h-1zm-20 1h1v1h-1zm20 0h1v1h-1zm71 0h1v1h-1zm28 0h1v1h-1zm-250 1h1v1h-1zm31 0h1v1h-1zm134 0h1v1h-1zm51 0h1v1h-1zm5 0h1v1h-1zm31 0h1v1h-1zm-104 1h1v1h-1zm-174 1h1v1h-1zm31 0h1v1h-1zm143 0h1v1h-1zm-188 1h1v1h-1zm292 0h1v1h-1zm-292 1h1v1h-1zm127 1h1v1h-1zm49 0h1v1h-1zm12 0h1v1h-1zm-126 1h1v1h-1zm89 0h1v1h-1zm16 0h1v1h-1zm-36 1h1v1h-1zm67 0h1v1h-1zm54 0h1v1h-1zm43 0h1v1h-1zm-319 1h1v1h-1zm95 0h1v1h-1zm21 0h1v1h-1zm171 0h1v1h-1zm-195 1h1v1h-1zm65 0h1v1h-1zm71 0h1v1h-1zm-189 1h1v1h-1zm31 0h1v1h-1zm61 0h1v1h-1zm60 0h1v1h-1zm97 0h1v1h-1zm-178 7h1v1h-1zM60 44h1v1h-1zM36 74h1v1h-1zm21 2h1v1h-1zm-1 1h1v1h-1zm-37 1h1v1h-1zm1 0h1v1h-1zm21 4h1v1h-1zm9 4h1v1h-1zm-6 2h1v2h-1zm0 2h1v1h-1zm-3 2h1v1h-1zm-21 1h1v1h-1zm58 2h1v1h-1zm-15 1h1v1h-1zm3 0h1v1h-1zm19 0h1v1h-1zm-9 1h1v1h-1zM5 98h1v1H5zm62 2h1v1h-1zm-51 1h1v1h-1zm47 0h1v1h-1zm-34 2h1v1h-1zm21 0h1v1h-1zm71 0h1v1h-1z" fill="#0b2479"/><path d="M20 11h6v1h-6zm6 0h1v1h-1zm5 0h10v1H31zm10 0h1v1h-1zm-6 9h1v1h-1zm3 0h1v1h-1zm4 0h1v1h-1zm3 4h1v7h-1zm-18 6h1v1h-1zm1 0h1v1h-1zm17 1h1v1h-1zm-6 1h1v1h-1zm18 8h1v1h-1zm-6 2h1v1h-1zm-34 1h1v1h-1zm51 1h1v1h-1zm-6 8h1v1h-1zm-8 3h1v1h-1z" fill="#b1a430"/><path d="M30 11h1v1h-1zm-5 3h1v1h-1zm2 1h1v1h-1zM8 17h1v1H8zm31 3h1v1h-1zM26 30h1v1h-1zm14 2h1v1h-1zm1 7h1v1h-1zm-27 1h1v1h-1zm-8 2h1v1H6zm20 2h1v1h-1zm25 1h1v1h-1zm1 0h1v1h-1zm-20 3h1v1h-1zm-18 3h1v1h-1zm38 2h1v1h-1zm2 1h1v1h-1zm10 4h1v1h-1zm2 10h1v1h-1z" fill="#b8a92b"/><path d="M12 16h1v1h-1zm-4 3h1v1H8zm21 2h1v1h-1zM8 35h1v1H8zm59 0h1v1h-1zm7 10h1v1h-1zM5 47h1v1H5zm6 1h1v1h-1zm60 1h1v1h-1zm-56 2h1v1h-1zm24 1h1v1h-1zm20 2h1v1h-1zm-16 1h1v1h-1zm-9 2h1v1h-1zm26 3h1v1h-1zm3 2h1v1h-1zm-11 4h1v1h-1zm-15 5h1v1h-1z" fill="#3e4971"/><g fill="#273780"><path d="M0 0h77v1H0zm77 0h1v49h-1zM0 1h77v1H0zm0 1h12v1H0zm12 0h1v1h-1zm11 0h54v1H23zM0 3h11v1H0zm11 0h2v1h-2zm2 0h1v1h-1zm11 0h53v2H24zM0 4h10v1H0zm10 0h1v1h-1zM0 5h9v1H0zm9 0h1v1H9zm15 0h53v1H24zM0 6h8v8H0zm8 0h1v1H8zm39 0h30v1H47zm1 1h29v20H48zm236 0h1v3h-1zm-90 1h1v2h-1zm4 0h1v1h-1zm1 0h1v1h-1zm30 0h1v1h-1zm1 0h1v1h-1zm4 0h1v1h-1zm49 0h1v2h-1zm44 0h1v23h-1zm1 0h1v23h-1zm84 0h1v23h-1zM145 9h7v1h-7zm7 0h1v1h-1zm15 0h8v1h-8zm8 0h1v1h-1zm20 0h1v1h-1zm1 0h1v1h-1zm5 0h1v1h-1zm1 0h1v1h-1zm23 0h2v1h-2zm2 0h1v1h-1zm5 0h1v1h-1zm1 0h1v1h-1zm115 0h3v4h-3zm3 0h1v5h-1zm12 0h3v5h-3zm3 0h1v6h-1zM15 10h1v1h-1zm1 0h1v2h-1zm129 0h2v1h-2zm2 0h1v1h-1zm5 0h4v1h-4zm4 0h1v9h-1zm11 0h12v1h-12zm12 0h1v7h-1zm14 0h2v1h-2zm2 0h1v1h-1zm5 0h1v1h-1zm24 0h2v1h-2zm2 0h1v1h-1zm5 0h1v1h-1zm52 0h1v1h-1zm1 0h1v1h-1zM15 11h1v1h-1zm130 0h1v20h-1zm1 0h1v1h-1zm8 0h2v1h-2zm13 0h2v20h-2zm2 0h1v1h-1zm9 0h1v1h-1zm12 0h3v1h-3zm3 0h1v1h-1zm30 0h1v1h-1zm1 0h1v1h-1zm70 0h1v20h-1zm1 0h1v20h-1zm57 0h1v4h-1zm15 0h1v16h-1zm84 0h1v20h-1zm1 0h1v20h-1zM16 12h1v1h-1zm1 0h1v1h-1z"/><path d="M155 12h2v1h-2zm2 0h1v6h-1zm23 0h1v4h-1zm11 0h1v17h-1zm1 0h1v1h-1zm30 0h1v17h-1zm1 0h1v1h-1zM17 13h5v1h-5zm5 0h2v12h-2zm2 0h1v1h-1zm8 0h8v2h-8zm8 0h1v2h-1zm308 0h4v1h-4zM0 14h8v1H0zm8 0h1v1H8zm10 0h4v5h-4zm6 0h1v13h-1zm135 0h1v2h-1zm31 0h1v13h-1zm31 0h1v14h-1zm127 0h1v12h-1zm1 0h4v1h-4zm4 0h1v5h-1zm9 0h5v1h-5zM0 15h6v1H0zm6 0h1v1H6zm3 0h1v1H9zm23 0h8v1h-8zm8 0h1v1h-1z"/><path d="M189 15h2v11h-2zm31 0h2v10h-2zm73 0h3v2h-3zm3 0h1v2h-1zm56 0h1v1h-1zm10 0h2v1h-2zm2 0h3v1h-3zm86 0h3v2h-3zm3 0h1v2h-1zM0 16h5v1H0zm5 0h1v1H5zm5 0h1v12h-1zm149 0h1v1h-1zm21 0h1v2h-1zm65 0h6v1h-6zm6 0h1v2h-1zm11 0h1v23h-1zm1 0h1v23h-1zm4 0h5v1h-5zm5 0h1v2h-1zm12 0h1v15h-1z"/><path d="M292 16h7v1h-7zm7 0h1v1h-1zm11 0h6v1h-6zm6 0h1v3h-1zm64 0h7v1h-7zm7 0h1v2h-1zm11 0h1v15h-1zm5 0h1v1h-1zm1 0h1v1h-1zm17 0h1v1h-1zm1 0h1v1h-1zm11 0h7v1h-7zm7 0h1v1h-1zm14 0h1v1h-1zm1 0h1v1h-1zm12 0h7v1h-7zm7 0h2v1h-2zm2 0h1v1h-1zM0 17h4v2H0zm4 0h1v1H4zm7 0h1v12h-1zm3 0h13v2H14zm13 0h1v11h-1zm150 0h2v1h-2zm2 0h1v1h-1zm63 0h1v1h-1zm1 0h1v1h-1zm7 0h2v1h-2zm2 0h1v14h-1zm12 0h1v1h-1zm7 0h1v1h-1zm22 0h3v1h-3zm3 0h1v1h-1zm11 0h1v1h-1zm1 0h1v1h-1z"/><path d="M315 17h2v2h-2zm2 0h1v14h-1zm37 0h1v6h-1zm7 0h1v4h-1zm1 0h1v1h-1zm16 0h1v1h-1zm1 0h1v1h-1zm7 0h2v1h-2zm2 0h1v14h-1zm13 0h1v1h-1zm19 0h1v1h-1zm1 0h1v2h-1zm12 0h1v1h-1zm17 0h3v1h-3zm3 0h1v1h-1zm13 0h1v6h-1zm1 0h1v1h-1zM12 18h1v12h-1zm1 0h1v14h-1zm15 0h1v2h-1zm19 0h30v9H47zm108 0h2v1h-2zm2 0h1v1h-1zm23 0h1v1h-1zm71 0h1v1h-1zm3 0h1v1h-1zm10 0h1v1h-1zm8 0h1v1h-1zm1 0h1v12h-1zm73 0h2v1h-2zm16 0h1v1h-1zm25 0h1v1h-1zm12 0h1v13h-1zm32 0h1v11h-1zm8 0h2v1h-2zm2 0h1v5h-1zm24 0h1v4h-1zM0 19h3v72H0zm3 0h1v1H3zm11 0h14v1H14zm132 0h1v2h-1zm8 0h2v1h-2zm2 0h1v1h-1zm13 0h1v2h-1zm49 0h4v1h-4zm56 0h1v10h-1zm41 0h2v1h-2zm38 0h1v1h-1zm15 0h1v12h-1zm51 0h2v1h-2zm2 0h1v1h-1zm21 0h1v4h-1z"/><path d="M9 20h7v6H9zm7 0h1v1h-1zm3 0h9v1h-9zm9 0h1v1h-1zm18 0h31v1H46zm101 0h6v1h-6zm6 0h1v1h-1zm17 0h8v1h-8zm8 0h1v1h-1zm9 0h4v1h-4zm32 0h3v2h-3zm128 0h1v11h-1zm13 0h1v6h-1zm59 0h1v1h-1zM20 21h7v1h-7zm126 0h1v1h-1zm3 0h4v1h-4zm4 0h1v5h-1zm16 0h1v1h-1zm8 0h1v1h-1zm1 0h1v1h-1zm183 0h1v1h-1zm69 0h1v5h-1zm37 0h1v2h-1zM21 22h6v1h-6zm130 0h1v1h-1zm1 0h1v2h-1zm27 0h1v2h-1zm1 0h1v8h-1zm39 0h3v1h-3zm32 0h1v3h-1zm65 0h1v3h-1zm71 0h1v2h-1zm30 0h1v1h-1zm15 0h1v2h-1zm8 0h3v1h-3zm3 0h1v1h-1z"/><path d="M465 22h3v1h-3zm3 0h1v1h-1zM21 23h6v1h-6zm130 0h3v1h-3zm3 0h1v4h-1zm27 0h1v6h-1zm66 0h1v1h-1zm1 0h4v1h-4zm64 0h1v1h-1zm1 0h4v1h-4zm41 0h1v1h-1zm1 0h1v4h-1zm28 0h1v1h-1zm1 0h4v1h-4zm29 0h1v1h-1zm4 0h1v1h-1zm16 0h10v1h-10zm10 0h1v1h-1zm23 0h4v1h-4zm4 0h1v1h-1zM25 24h3v4h-3zm3 0h1v4h-1zm124 0h1v1h-1zm27 0h2v1h-2zm64 0h1v7h-1zm1 0h1v1h-1zm4 0h4v1h-4zm61 0h1v1h-1zm1 0h1v1h-1zm3 0h4v1h-4zm43 0h1v6h-1zm28 0h4v1h-4zm36 0h1v1h-1zm12 0h1v1h-1zm38 0h3v1h-3zm3 0h1v2h-1z"/><path d="M22 25h6v1h-6zm161 0h1v1h-1zm37 0h2v1h-2zm22 0h2v6h-2zm2 0h1v1h-1zm7 0h1v1h-1zm56 0h3v1h-3zm3 0h1v1h-1zm6 0h1v1h-1zm41 0h3v4h-3zm21 0h1v6h-1zm1 0h1v1h-1zm7 0h2v3h-2zm33 0h1v1h-1zm53 0h3v1h-3zm3 0h1v5h-1zM9 26h6v1H9zm6 0h1v7h-1zm8 0h6v1h-6zm6 0h1v2h-1zm124 0h1v1h-1zm36 0h2v1h-2zm117 0h2v3h-2zm2 0h1v5h-1zm40 0h1v1h-1zm12 0h1v1h-1zm17 0h1v3h-1zm42 0h2v1h-2zm2 0h1v3h-1zm9 0h1v1h-1zm43 0h2v1h-2z"/><path d="M14 27h2v5h-2zm2 0h1v7h-1zm8 0h6v1h-6zm6 0h1v1h-1zm17 0h30v1H47zm107 0h1v1h-1zm1 0h1v3h-1zm24 0h2v3h-2zm11 0h3v1h-3zm3 0h1v4h-1zm48 0h2v2h-2zm114 0h4v1h-4zm12 0h1v1h-1zm13 0h1v1h-1zm40 0h2v1h-2zm2 0h1v1h-1zm52 0h2v3h-2zm2 0h1v1h-1z"/><path d="M10 28h6v1h-6zm15 0h6v1h-6zm6 0h1v1h-1zm16 0h1v1h-1zm1 0h1v1h-1zm20 0h9v1h-9zm88 0h1v3h-1zm36 0h1v2h-1zm29 0h2v1h-2zm2 0h1v2h-1zm123 0h1v3h-1zm23 0h1v3h-1zm17 0h2v1h-2zm34 0h1v1h-1zM3 29h1v8H3zm8 0h5v1h-5zm7 0h1v7h-1zm52 0h7v1h-7zm108 0h3v1h-3zm3 0h1v1h-1z"/><path d="M191 29h2v1h-2zm31 0h2v1h-2zm2 0h1v2h-1zm17 0h2v1h-2zm31 0h2v1h-2zm2 0h1v1h-1zm32 0h2v1h-2zm51 0h2v2h-2zm2 0h1v1h-1zm18 0h1v1h-1zm10 0h1v1h-1zm44 0h1v2h-1zm1 0h1v1h-1zM12 30h5v1h-5zm5 0h1v5h-1zm55 0h5v1h-5zm83 0h2v1h-2zm2 0h1v1h-1zm12 0h1v1h-1zm8 0h3v1h-3zm3 0h1v1h-1zm12 0h2v1h-2zm2 0h1v1h-1z"/><path d="M223 30h2v1h-2zm2 0h1v1h-1zm20 0h1v2h-1zm5 0h3v1h-3zm3 0h1v1h-1zm11 0h1v2h-1zm7 0h2v1h-2zm2 0h1v1h-1zm32 0h3v1h-3zm10 0h2v1h-2zm41 0h2v1h-2zm20 0h3v1h-3zm3 0h1v1h-1zm8 0h3v1h-3zm3 0h1v1h-1zm42 0h1v1h-1zm1 0h1v1h-1zm39 0h3v1h-3zm3 0h1v1h-1zM4 31h1v5H4zm16 0h1v6h-1zm54 0h3v1h-3zm71 0h1v1h-1zm11 0h1v1h-1zm1 0h1v1h-1zm10 0h12v1h-12zm12 0h1v1h-1zm14 0h3v1h-3zm3 0h1v2h-1zm5 0h2v1h-2zm2 0h1v1h-1zm21 0h3v1h-3zm3 0h1v2h-1zm5 0h2v1h-2zm2 0h1v1h-1zm8 0h2v1h-2zm2 0h1v2h-1zm8 0h1v1h-1zm1 0h1v1h-1zm12 0h1v1h-1zm5 0h2v1h-2zm2 0h1v1h-1zm12 0h1v1h-1zm10 0h2v1h-2zm2 0h1v1h-1zm11 0h2v1h-2zm2 0h1v1h-1zm5 0h1v1h-1zm3 0h1v1h-1zm10 0h2v1h-2zm2 0h1v1h-1zm17 0h1v1h-1zm1 0h1v1h-1zm10 0h1v1h-1zm1 0h1v1h-1zm10 0h1v1h-1zm1 0h1v1h-1zm9 0h2v1h-2zm2 0h1v1h-1zm5 0h1v1h-1zm3 0h1v1h-1zm1 0h1v1h-1zm9 0h1v1h-1zm1 0h1v1h-1zm13 0h1v1h-1zm10 0h1v1h-1zm1 0h1v1h-1zm8 0h4v1h-4zm4 0h1v1h-1zm7 0h1v1h-1zm9 0h2v1h-2zm2 0h1v1h-1zm12 0h1v1h-1zm1 0h1v1h-1zm7 0h1v1h-1zm1 0h1v1h-1zM13 32h6v1h-6zm6 0h1v5h-1zm56 0h2v1h-2zm68 0h1v1h-1zm54 0h3v1h-3zm3 0h1v1h-1zm28 0h3v1h-3zm3 0h1v1h-1zm14 0h2v1h-2zm2 0h1v1h-1zm3 0h1v1h-1zm14 0h1v1h-1zm4 0h2v1h-2zm2 0h1v1h-1zm39 0h2v1h-2zm2 0h1v1h-1zm18 0h1v1h-1zm1 0h1v1h-1zm51 0h1v1h-1zm1 0h1v1h-1zm28 0h1v1h-1zm27 0h2v1h-2zm2 0h1v1h-1zm14 0h1v1h-1zm1 0h1v1h-1zm13 0h4v1h-4zm4 0h1v1h-1z"/><path d="M15 33h5v1h-5zm61 0h1v1h-1zm120 0h1v1h-1zm31 0h1v1h-1zm17 0h1v1h-1zm26 0h1v1h-1zm29 0h1v1h-1zm157 0h1v1h-1zm11 0h1v1h-1zM5 34h1v2H5zm11 0h6v1h-6zm6 0h1v5h-1zm15 0h1v1h-1zm1 0h1v1h-1zm14 0h9v1h-9zm9 0h1v1h-1zM6 35h1v1H6z"/><path d="M17 35h7v1h-7zm7 0h1v5h-1zm26 0h3v1h-3zm3 0h1v1h-1zM4 36h1v1H4zm1 0h1v1H5z"/><path d="M18 36h8v1h-8zm8 0h1v5h-1zm23 0h2v1h-2zm2 0h1v1h-1zm3 0h1v1h-1zm22 0h1v10h-1zM3 37h1v1H3zm4 0h1v1H7zm1 0h1v5H8z"/><path d="M19 37h9v1h-9zm9 0h1v6h-1zm19 0h3v1h-3zm3 0h1v1h-1zM9 38h1v6H9z"/><path d="M21 38h8v1h-8zm8 0h1v5h-1zm16 0h3v1h-3zm3 0h1v1h-1zm27 0h2v6h-2zm-65 1h1v6h-1z"/><path d="M22 39h8v1h-8zm8 0h1v5h-1zm15 0h2v1h-2zm2 0h1v1h-1zm215 0h1v1h-1zm1 0h1v1h-1zM11 40h1v6h-1z"/><path d="M23 40h8v1h-8zm8 0h1v5h-1zm15 0h1v1h-1zm28 0h3v2h-3zm-62 1h1v6h-1z"/><path d="M25 41h7v1h-7zm7 0h1v5h-1zM8 42h5v1H8zm5 0h1v6h-1z"/><path d="M27 42h6v1h-6zm6 0h1v4h-1zm26 0h1v1h-1zm15 0h3v1h-3zm-60 1h1v6h-1zm14 0h5v1h-5zm30 0h1v1h-1zm1 0h1v1h-1z"/><path d="M9 44h6v1H9zm6 0h1v5h-1zm15 0h4v1h-4zm4 0h1v3h-1zm5 0h1v6h-1zm36 0h2v1h-2z"/><path d="M10 45h6v1h-6zm6 0h1v5h-1zm15 0h3v1h-3zm9 0h1v6h-1zM3 46h1v49H3z"/><path d="M11 46h6v1h-6zm6 0h1v4h-1zm15 0h3v1h-3zm3 0h1v1h-1zm3 0h3v3h-3zm3 0h1v6h-1zm35 0h1v1h-1zm-64 1h5v1h-5z"/><path d="M34 47h8v1h-8zm8 0h1v5h-1zm8 0h1v1h-1zM4 48h1v48H4zm9 0h5v1h-5zm5 0h1v3h-1z"/><path d="M36 48h7v1h-7zm7 0h1v5h-1zm-29 1h5v1h-5zm5 0h1v3h-1z"/><path d="M37 49h7v1h-7zm7 0h1v5h-1zm13 0h3v1h-3zm3 0h1v1h-1zm8 0h1v1h-1zm1 0h1v1h-1zm8 0h1v1h-1zM5 50h1v46H5zm11 0h3v1h-3zm23 0h5v1h-5zm18 0h3v1h-3zm3 0h1v1h-1zM6 51h1v23H6zm12 0h2v1h-2zm2 0h1v1h-1zm5 0h1v5h-1zm1 0h1v5h-1z"/><path d="M38 51h7v1h-7zm7 0h1v4h-1zm16 0h1v1h-1zM7 52h1v21H7zm12 0h2v1h-2zm2 0h1v1h-1zm3 0h3v3h-3zm3 0h1v5h-1zm14 0h4v1h-4zM8 53h1v20H8z"/><path d="M21 53h7v1h-7zm7 0h1v5h-1zm15 0h3v1h-3zm3 0h1v3h-1zM9 54h1v19H9z"/><path d="M22 54h7v1h-7zm7 0h1v4h-1zm15 0h2v1h-2zm-34 1h1v18h-1zm1 0h1v18h-1z"/><path d="M24 55h6v1h-6zm6 0h1v4h-1zm15 0h1v1h-1zm6 0h1v7h-1zm6 0h1v9h-1zm1 0h1v9h-1zm-46 1h1v17h-1z"/><path d="M25 56h6v1h-6zm6 0h1v4h-1zm15 0h1v1h-1zm9 0h5v2h-5zm5 0h1v1h-1zm7 0h3v1h-3zm3 0h1v1h-1zm7 0h1v39h-1zm-64 1h1v16h-1z"/><path d="M27 57h5v1h-5zm5 0h1v4h-1zm15 0h1v1h-1zm3 0h2v3h-2zm2 0h1v6h-1zm8 0h1v1h-1zm-46 1h2v15h-2zm2 0h1v15h-1z"/><path d="M28 58h5v1h-5zm5 0h1v4h-1zm15 0h11v1H48zm11 0h1v1h-1zm-42 1h1v14h-1zm13 0h3v1h-3zm10 0h1v14h-1zm9 0h9v1h-9zm27 0h1v36h-1zm-58 1h1v13h-1z"/><path d="M29 60h5v1h-5zm5 0h1v3h-1zm5 0h1v13h-1zm11 0h8v1h-8z"/><path d="M32 61h3v1h-3zm3 0h1v3h-1zm3 0h3v9h-3zm3 0h1v12h-1zm12 0h6v3h-6zm6 0h1v2h-1zm16 0h2v6h-2z"/><path d="M33 62h9v1h-9zm9 0h1v11h-1zm9 0h8v1h-8zm-26 1h1v11h-1z"/><path d="M34 63h9v1h-9zm9 0h1v10h-1zm9 0h8v1h-8zm8 0h1v1h-1zm14 0h3v3h-3zm-55 1h1v9h-1z"/><path d="M35 64h9v1h-9zm9 0h1v9h-1zm9 0h5v1h-5zm5 0h1v1h-1zm15 0h4v1h-4zm-52 1h1v8h-1zm5 0h1v10h-1z"/><path d="M36 65h9v1h-9zm9 0h1v8h-1zm28 0h4v1h-4zm-53 1h1v7h-1zm7 0h1v10h-1zm10 0h8v1h-8zm37 0h3v1h-3z"/><path d="M24 67h5v6h-5zm5 0h1v7h-1zm8 0h9v1h-9zm9 0h1v6h-1zm29 0h2v28h-2z"/><path d="M22 68h8v5h-8zm8 0h1v5h-1zm17 0h1v6h-1zm-16 1h1v4h-1zm1 1h1v3h-1zm6 0h9v1h-9zm16 0h13v3H54zm13 0h1v3h-1zm-19 1h1v3h-1zm20 0h2v2h-2zm2 0h1v1h-1zm-37 1h1v1h-1zM7 73h27v1H7zm27 0h1v1h-1z"/><path d="M39 73h9v1h-9zm15 0h15v1H54zm15 0h1v1h-1zM6 74h1v23H6zm19 0h4v1h-4zm4 0h1v18h-1zm18 0h1v1h-1zm1 0h1v1h-1zm4 0h7v1h-7zm7 0h1v1h-1zm12 0h1v1h-1zm1 0h5v1h-5zm-46 1h2v1h-2zm2 0h1v3h-1zm21 0h1v1h-1zm1 0h1v3h-1zm3 0h4v1h-4zm4 0h2v1h-2zm2 0h1v1h-1zm14 0h4v15h-4z"/><path d="M27 76h2v1h-2zm25 0h4v1h-4zm4 0h1v1h-1zM7 77h1v20H7zm44 0h4v1h-4zm4 0h1v1h-1zm-27 1h2v1h-2zm2 0h1v24h-1zm20 0h3v1h-3zm3 0h1v2h-1zm-38 1h4v1h-4zm4 0h1v3h-1zm20 0h2v2h-2zm2 0h1v2h-1zm10 0h2v5h-2zm12 0h4v11h-4zm4 0h1v12h-1zm5 0h5v10h-5zm-57 1h4v1h-4zm38 0h1v1h-1z"/><path d="M62 80h6v9h-6zm6 0h1v11h-1zm-53 1h4v1h-4zm12 0h3v1h-3zm12 0h2v1h-2zm2 0h1v1h-1zm9 0h2v3h-2zm19 0h8v8h-8zm-54 1h4v1h-4zm4 0h1v1h-1zm9 0h2v9h-2z"/><path d="M61 82h16v5H61zm-34 2h3v6h-3zm23 0h2v1h-2zm2 0h1v1h-1z"/><path d="M26 85h4v4h-4z"/><path d="M25 86h5v2h-5zm26 0h1v1h-1zm-12 1h3v4h-3zm3 0h1v4h-1zm10 0h1v15h-1zm9 0h16v1H61zm-46 1h1v5h-1zm10 0h5v1h-5zm18 0h1v1h-1zm-17 1h4v1h-4zm17 0h1v1h-1zm19 0h15v1H62zm-45 1h1v10h-1zm10 0h3v1h-3zm36 0h7v1h-7zm7 0h1v1h-1zm3 0h4v1h-4zM0 91h7v1H0zm28 0h2v1h-2zm11 0h3v1h-3zm3 0h1v1h-1zm11 0h1v10h-1zm11 0h4v1h-4zm4 0h1v1h-1zm6 0h3v4h-3zM1 92h6v1H1zm17 0h1v8h-1zm11 0h1v1h-1z"/><path d="M51 92h2v10h-2zM2 93h5v2H2zm13 0h4v1h-4zm4 0h1v7h-1zm35 0h1v8h-1z"/><path d="M50 94h6v7h-6zm6 0h1v7h-1zm16 0h5v1h-5zM2 95h5v1H2zm13 0h5v5h-5zm5 0h1v5h-1zm9 0h2v7h-2zm2 0h1v7h-1z"/><path d="M48 95h9v6h-9zm9 0h1v6h-1zm15 0h5v1h-5zm5 0h1v1h-1zM4 96h4v1H4zm4 0h1v1H8zm13 0h1v5h-1zm11 0h1v6h-1z"/><path d="M47 96h11v5H47zm11 0h1v6h-1zm13 0h4v1h-4zm4 0h1v1h-1z"/><path d="M6 97h68v1H6zm68 0h1v1h-1zM9 98h61v1H9zm61 0h1v1h-1zm15 0h1v2h-1zm-73 1h55v1H12zm55 0h1v1h-1zm-52 1h49v1H15zm49 0h1v1h-1zm21 0h1v2h-1zm-64 1h37v1H21zm7 1h24v1H28zm24 0h1v1h-1zm6 0h1v1h-1zm27 0h1v1h-1zm-58 1h1v1h-1z"/></g><path d="M78 0h1v94h-1zM13 2h1v1h-1zm33 4h1v1h-1zm1 1h1v1h-1zm150 1h1v1h-1zm3 0h1v1h-1zm3 0h1v2h-1zm22 0h1v1h-1zm3 0h1v1h-1zm3 0h1v1h-1zm180 0h1v23h-1zM144 9h1v22h-1zm9 0h1v1h-1zm1 0h1v1h-1zm22 0h1v1h-1zm1 0h1v3h-1zm20 0h1v1h-1zm3 0h1v1h-1zm28 0h1v1h-1zm3 0h1v1h-1zm54 0h1v1h-1zm77 0h1v1h-1zm5 0h1v1h-1zm1 0h1v1h-1zm42 0h1v1h-1zM17 10h1v1h-1zm175 0h1v1h-1zm11 0h1v1h-1zm20 0h1v1h-1zm10 0h1v1h-1zm1 0h1v1h-1zm118 0h1v1h-1zm15 0h1v1h-1zM17 11h1v1h-1zm140 0h1v1h-1zm23 0h1v1h-1zm42 0h1v1h-1zM15 12h1v1h-1zm3 0h1v1h-1zm159 0h1v1h-1zm1 0h1v1h-1zm272 0h1v2h-1zm-260 1h3v1h-3zm3 0h1v1h-1zm28 0h2v1h-2zm2 0h1v1h-1zm130 0h1v1h-1zm9 0h1v1h-1zm-204 1h1v2h-1zm292 0h1v1h-1zm-101 1h2v1h-2zm2 0h1v1h-1zm98 0h1v2h-1zM9 16h1v1H9zm16 0h1v1h-1zm133 0h1v1h-1zm86 0h1v1h-1zm20 0h1v1h-1zm19 0h1v15h-1zm26 0h1v1h-1zm43 0h1v1h-1zm9 0h2v1h-2zm2 0h1v1h-1zm34 0h1v2h-1zm59 0h1v1h-1zm10 0h1v1h-1zm-222 1h1v1h-1zm26 0h1v1h-1zm3 0h1v1h-1zm19 0h1v1h-1zm17 0h1v1h-1zm38 0h1v2h-1zm52 0h1v1h-1zm3 0h1v1h-1zm30 0h1v2h-1zm7 0h2v1h-2zm2 0h1v1h-1zm8 0h1v1h-1zm16 0h1v1h-1zM4 18h1v2H4zm25 0h1v1h-1zm140 0h1v1h-1zm8 0h1v1h-1zm1 0h1v1h-1zm75 0h1v11h-1zm21 0h1v1h-1zm19 0h1v1h-1zm75 0h1v1h-1zm29 0h1v1h-1zm3 0h1v1h-1zm19 0h3v1h-3zm3 0h1v1h-1zm28 0h1v11h-1zm-297 1h1v1h-1zm17 0h1v1h-1zm5 0h2v1h-2zm2 0h1v1h-1zm74 0h2v1h-2zm21 0h1v1h-1zm74 0h1v1h-1zm1 0h1v1h-1zm15 0h1v1h-1zm7 0h1v1h-1zm17 0h1v1h-1zm1 0h1v2h-1zm45 0h1v1h-1zm1 0h1v1h-1zM3 20h1v1H3zm1 0h1v1H4zm14 0h1v1h-1zm136 0h1v1h-1zm1 0h1v1h-1zm161 0h1v1h-1zm37 0h1v1h-1zm65 0h1v3h-1zM46 21h1v1h-1zm101 0h1v1h-1zm41 0h1v1h-1zm167 0h1v1h-1zm32 0h1v1h-1zm42 0h1v1h-1zm14 0h1v1h-1zm-297 1h1v1h-1zm4 0h1v1h-1zm28 0h1v1h-1zm177 0h1v1h-1zm6 0h1v1h-1zm25 0h1v1h-1zm27 0h1v1h-1zM28 23h1v1h-1zm191 0h1v1h-1zm27 0h1v1h-1zm65 0h1v1h-1zm50 0h1v1h-1zm21 0h1v1h-1zm36 0h1v2h-1zm53 0h1v1h-1zM21 24h1v1h-1zm224 0h1v1h-1zm63 0h1v1h-1zm46 0h1v1h-1zm5 0h1v1h-1zm20 0h2v1h-2zm2 0h1v1h-1zm38 0h1v1h-1zm14 0h1v1h-1zm36 0h1v1h-1zm5 0h1v1h-1zm-322 1h1v1h-1zm27 0h1v1h-1zm3 0h1v2h-1zm198 0h1v1h-1zm38 0h1v1h-1zm14 0h1v1h-1zM22 26h1v1h-1zm133 0h1v1h-1zm24 0h1v1h-1zm41 0h1v2h-1zm21 0h1v1h-1zm10 0h2v1h-2zm65 0h1v3h-1zm30 0h1v1h-1zm33 0h1v3h-1zm50 0h1v1h-1zM23 27h1v1h-1zm159 0h1v1h-1zm41 0h1v1h-1zm28 0h2v1h-2zm95 0h1v1h-1zm23 0h1v1h-1zm50 0h1v1h-1zm-266 1h1v1h-1zm1 0h1v1h-1zm35 0h1v1h-1zm1 0h1v1h-1zm30 0h1v1h-1zm31 0h2v1h-2zm129 0h1v1h-1zm52 0h1v1h-1zm1 0h1v1h-1zm43 0h1v1h-1zM10 29h1v1h-1zm7 0h1v1h-1zm50 0h1v1h-1zm90 0h1v1h-1zm94 0h2v1h-2zm2 0h1v1h-1zm63 0h1v1h-1zm63 0h1v1h-1zm41 0h2v1h-2zm2 0h1v1h-1zm28 0h1v1h-1zM11 30h1v1h-1zm165 0h1v1h-1zm68 0h1v1h-1zm74 0h1v3h-1zm1 0h1v1h-1zm67 0h1v1h-1zm35 0h2v1h-2zm2 0h1v1h-1zM12 31h1v1h-1zm61 0h1v1h-1zm71 0h1v1h-1zm105 0h1v1h-1zm1 0h1v1h-1zm4 0h1v1h-1zm12 0h1v1h-1zm17 0h1v1h-1zm32 0h1v1h-1zm41 0h1v1h-1zm30 0h1v1h-1zm25 0h1v1h-1zm30 0h1v1h-1zm23 0h1v1h-1zm8 0h1v1h-1zm-271 1h1v1h-1zm31 0h1v1h-1zm16 0h1v1h-1zm5 0h1v1h-1zm14 0h1v1h-1zm28 0h1v1h-1zm1 0h2v1h-2zm2 0h1v1h-1zm14 0h1v1h-1zm16 0h1v1h-1zm52 0h1v1h-1zm3 0h1v1h-1zm6 0h1v1h-1zm43 0h1v1h-1zm3 0h1v1h-1zm17 0h1v1h-1zm3 0h1v1h-1zm11 0h1v1h-1zm6 0h1v1h-1zM5 33h1v1H5zm9 0h1v1h-1zm7 0h1v1h-1zm243 0h1v1h-1zm45 0h1v1h-1zm9 0h1v1h-1zM15 34h1v1h-1zm8 0h1v1h-1zm53 0h2v1h-2zm-22 1h1v1h-1zm22 0h2v1h-2zM3 38h1v1H3zm1 0h1v1H4zm28 2h1v1h-1zm13 0h1v1h-1zm-19 2h1v1h-1zm0 1h1v1h-1zm8 0h1v1h-1zm1 2h1v1h-1zm3 0h1v1h-1zm-28 1h1v1h-1zm26 0h1v1h-1zm6 0h1v1h-1zm-24 1h1v1h-1zm1 1h1v1h-1zm16 0h1v1h-1zm9 0h1v1h-1zm-6 2h1v1h-1zm7 0h1v1h-1zm32 0h1v1h-1zm-60 1h1v1h-1zm13 3h1v1h-1zm47 0h1v1h-1zm-54 1h1v1h-1zm8 0h1v1h-1zm24 0h1v1h-1zm1 0h1v1h-1zm21 0h1v1h-1zm-25 1h1v1h-1zm1 1h1v1h-1zm-14 1h1v1h-1zm21 0h1v1h-1zm-31 1h1v1h-1zm5 0h1v1h-1zm25 0h1v1h-1zm16 1h1v1h-1zm-25 1h1v1h-1zm11 0h1v2h-1zm-1 1h1v1h-1zm14 0h1v1h-1zm-55 1h1v1h-1zm42 0h1v1h-1zm-9 1h1v1h-1zm7 0h1v1h-1zm-39 1h1v1h-1zm15 0h1v1h-1zm-11 1h1v1h-1zm11 0h1v1h-1zm1 0h1v1h-1zm10 0h1v1h-1zm-24 1h1v1h-1zm1 0h1v1h-1zm30 3h1v1h-1zm-20 1h1v1h-1zm20 0h1v1h-1zm-19 1h1v1h-1zm40 1h1v1h-1zM7 74h1v2H7zm17 0h1v1h-1zm6 0h1v1h-1zm16 0h1v1h-1zm-21 1h1v1h-1zm23 0h1v1h-1zm4 0h1v1h-1zm20 0h1v1h-1zM7 76h1v1H7zm42 0h1v1h-1zm-22 1h1v2h-1zm3 0h1v1h-1zm24 1h1v1h-1zM8 79h1v16H8zm19 0h1v1h-1zm1 0h1v1h-1zm22 0h1v1h-1zm21 0h1v1h-1zm-43 1h1v1h-1zm22 0h1v1h-1zm21 0h1v1h-1zm-10 1h1v1h-1zm-12 2h1v2h-1zm0 2h1v1h-1zm1 0h2v1h-2zm2 0h1v1h-1zm-28 1h1v1h-1zm28 0h1v1h-1zm9 2h1v1h-1zm-45 1h1v6h-1zm27 1h1v1h-1zm10 0h1v1h-1zm9 0h1v1h-1zm9 0h1v1h-1zm1 0h1v1h-1zm-21 1h1v1h-1zm18 0h1v1h-1zm4 0h1v3h-1zM0 92h1v1H0zm28 0h1v1h-1zm26 0h1v1h-1zM1 93h1v1H1zm28 0h1v1h-1zm21 0h1v1h-1zm-30 1h1v1h-1zm1 0h1v1h-1zm27 0h1v1h-1zm1 0h1v1h-1zm29 0h1v1h-1zM8 95h1v1H8zm-5 1h1v1H3zm6 0h1v1H9zm37 0h1v1h-1zm13 0h1v1h-1zm17 0h1v1h-1zM5 97h1v1H5zm3 1h1v1H8zm60 1h1v1h-1zm-48 2h1v1h-1zm39 0h1v1h-1zm-33 1h1v1h-1zm1 0h1v1h-1zm26 0h1v1h-1z" fill="#25357f"/><path d="M23 6h1v1h-1zm-9 3h1v1h-1zm17 3h1v1h-1zm1 5h1v1h-1zm2 11h1v1h-1zm17 0h14v1H51zm14 0h1v1h-1zm-35 1h1v1h-1zm16 1h1v1h-1zm6 3h10v1H52zm10 0h1v1h-1zm6 3h1v1h-1zm1 0h1v1h-1zM7 39h1v1H7zm16 2h1v1h-1zm-13 6h1v1h-1zm10 1h1v1h-1zm25 0h1v1h-1zm5 3h1v1h-1zm8 3h1v1h-1zm11 1h1v1h-1zm1 0h1v1h-1zm-50 8h1v1h-1zm4 0h1v1h-1zm10 2h1v1h-1zm24 0h1v1h-1zm-29 1h1v1h-1zm38 3h1v1h-1z" fill="#002585"/><path d="M414 7h1v1h-1zm-61 1h1v1h-1zm-67 2h1v1h-1zm39 0h1v19h-1zm-122 1h1v1h-1zm-21 1h1v1h-1zm164 0h1v1h-1zm8 0h1v1h-1zm-85 2h1v1h-1zm100 0h1v1h-1zm15 0h1v1h-1zm21 0h1v1h-1zm31 0h1v1h-1zm1 0h1v1h-1zm33 0h1v1h-1zm1 0h1v1h-1zm-181 1h1v2h-1zm98 0h1v1h-1zm-147 1h1v2h-1zm159 0h1v1h-1zm1 0h1v1h-1zm23 0h1v1h-1zm-206 1h1v1h-1zm72 0h1v1h-1zm60 0h1v1h-1zm107 0h1v1h-1zm-216 1h1v1h-1zm124 0h1v1h-1zm-100 1h1v1h-1zm6 1h1v1h-1zm-90 1h1v1h-1zm-4 2h1v1h-1zm181 0h1v1h-1zm-140 1h1v1h-1zm152 0h1v1h-1zm-214 1h1v1h-1zm149 0h1v1h-1zm65 0h1v1h-1zm-151 2h1v1h-1zm6 1h1v1h-1zm193 0h1v1h-1zm-248 1h1v1h-1zm155 0h1v1h-1zm-143 1h1v1h-1zm18 0h1v1h-1zm31 0h1v1h-1zm99 0h1v1h-1zm137 0h1v1h-1zm-91 1h1v1h-1zm-10 1h1v1h-1zm-222 1h2v1h-2zm2 0h1v1h-1zm10 0h3v1h-3zm3 0h1v1h-1zm7 0h10v1h-10zm10 0h1v1h-1zm73 0h1v1h-1zm33 0h3v1h-3zm3 0h1v1h-1zm9 0h1v1h-1zm13 0h1v1h-1zm38 0h3v1h-3zm3 0h1v1h-1zm8 0h2v1h-2zm2 0h1v1h-1zm9 0h3v1h-3zm3 0h1v1h-1zm8 0h1v1h-1zm19 0h2v1h-2zm2 0h1v1h-1zm12 0h2v1h-2zm2 0h1v1h-1zm9 0h3v1h-3zm3 0h1v1h-1zM55 79h1v1h-1zm-35 4h1v1h-1zm39 0h1v2h-1zm-12 1h1v1h-1zm12 1h1v1h-1zm-5 4h1v1h-1zm-34 3h1v1h-1zm24 3h1v1h-1zm42 0h1v1h-1zm-9 2h1v1h-1zm14 1h1v1h-1zM7 99h1v1H7zm80 1h1v1h-1zm-53 4h1v1h-1zm11 0h1v1h-1z" fill="#6c73a0"/><path d="M286 8h1v1h-1zM180 9h1v1h-1zm106 0h1v1h-1zm-89 1h1v1h-1zm31 0h1v1h-1zm125 0h1v1h-1zm-206 1h1v1h-1zm302 1h1v1h-1zm26 3h1v1h-1zm-18 1h1v1h-1zm-303 1h1v1h-1zm16 1h1v1h-1zm74 0h1v1h-1zm48 0h1v1h-1zm17 0h1v1h-1zm134 0h1v1h-1zm6 0h1v1h-1zm26 0h1v1h-1zm-116 1h1v1h-1zm4 0h1v1h-1zm-206 1h1v1h-1zm-2 1h1v1h-1zm201 0h1v1h-1zm88 0h1v1h-1zm-257 1h1v1h-1zm227 0h1v1h-1zm0 1h1v1h-1zm-57 1h1v1h-1zm59 0h1v1h-1zm-166 2h1v2h-1zm227 0h1v1h-1zm-253 1h1v1h-1zm26 1h1v1h-1zm116 0h1v1h-1zm53 1h1v1h-1zm-215 1h1v1h-1zm17 0h1v1h-1zm14 0h1v1h-1zm189 0h1v1h-1zm6 0h1v1h-1zm-110 1h1v1h-1zm35 0h1v1h-1zm100 0h1v1h-1zm1 0h1v1h-1zm-163 1h1v1h-1zm13 0h1v1h-1zm80 0h1v1h-1zm28 0h1v1h-1zm-166 1h1v1h-1zm52 0h1v1h-1zM46 75h1v1h-1zm25 0h1v1h-1zm-46 1h1v1h-1zM9 79h1v15H9zm23 0h1v14h-1zm-8 6h1v1h-1zm29 0h1v1h-1zm-21 8h1v1h-1zM9 94h1v1H9zm111 9h1v1h-1z" fill="#364488"/><path d="M283 11h1v1h-1zm8 4h1v1h-1zm9 0h1v1h-1zm124 0h1v1h-1zm33 0h1v1h-1zm-13 9h1v1h-1zm-95 2h1v1h-1zM42 78h1v1h-1zm-4 4h1v1h-1zm0 4h1v1h-1zm0 6h1v1h-1z" fill="#000671"/><path d="M15 3h1v1h-1zm5 22h1v1h-1zm49 10h1v1h-1zm-13 1h1v1h-1zm6 0h2v1h-2zm2 0h1v1h-1zm-43 4h1v1h-1zm41 9h1v1h-1zm-41 6h1v1h-1zm23 1h1v1h-1zm-20 1h1v1h-1zm29 9h1v1h-1zm-4 3h1v1h-1z" fill="#5d5e6f"/><path d="M22 3h1v1h-1zm16 18h1v1h-1zm29 13h1v1h-1zm-57 3h1v1h-1zm7 0h1v1h-1zm52 0h1v1h-1zm-20 2h1v1h-1zm-25 3h1v1h-1zm35 5h1v1h-1zm1 0h1v1h-1zm6 2h1v1h-1zm3 2h2v1h-2zm2 0h1v1h-1z" fill="#555870"/><path d="M22 5h1v1h-1zm0 1h1v1h-1zm-6 1h2v1h-2zm2 0h1v1h-1zm-4 9h1v1h-1zm1 0h1v1h-1zm3 6h1v1h-1zm15 0h1v1h-1zm-16 2h1v1h-1zm2 5h1v1h-1zm4 0h1v1h-1zm27 0h1v1h-1zm-30 1h1v1h-1zm48 4h1v1h-1zm-40 1h1v1h-1zm17 1h1v1h-1zm9 1h1v1h-1zm15 1h1v1h-1zM6 40h1v1H6zm28 0h1v1h-1zm3 1h1v1h-1zm0 3h1v1h-1zM5 46h1v1H5zm45 0h1v1h-1zm-15 4h1v1h-1zm26 2h1v1h-1zm-50 1h1v1h-1zm57 1h1v1h-1zm-52 3h1v1h-1zm45 3h1v1h-1zm11 2h1v1h-1zm-38 4h1v1h-1zm14 0h1v1h-1zm21 3h1v1h-1z" fill="#b8a83d"/><path d="M153 7h1v1h-1zm23 0h1v1h-1zm18 0h1v1h-1zm31 0h1v1h-1zm121 1h1v1h-1zm-111 2h1v1h-1zm-34 1h1v1h-1zm-31 1h1v1h-1zm55 1h1v1h-1zm20 1h1v1h-1zm22 0h1v1h-1zm172 0h1v1h-1zm28 0h1v1h-1zm-89 1h1v1h-1zm-185 1h1v1h-1zm112 0h1v1h-1zm71 0h1v1h-1zm-206 1h1v1h-1zm90 0h1v23h-1zm130 0h1v1h-1zm16 0h1v1h-1zm-247 1h1v1h-1zm88 0h1v1h-1zm21 0h1v1h-1zm23 0h1v1h-1zm7 0h1v1h-1zm1 0h1v1h-1zm13 0h1v1h-1zm33 0h1v1h-1zm84 0h1v1h-1zm25 0h2v1h-2zm2 0h1v1h-1zm17 0h1v1h-1zm-197 1h1v1h-1zm69 0h1v1h-1zm5 0h1v1h-1zm-170 1h1v1h-1zm170 0h1v1h-1zm35 1h1v1h-1zm43 0h1v1h-1zm-273 1h1v1h-1zm88 0h1v1h-1zm28 0h1v3h-1zm86 0h1v1h-1zm-202 1h1v1h-1zm15 0h1v1h-1zm23 1h1v1h-1zm183 0h1v1h-1zm-105 1h1v1h-1zm41 0h1v1h-1zm71 0h1v1h-1zm-226 1h1v1h-1zm228 0h1v2h-1zm37 0h1v1h-1zm6 0h1v1h-1zm42 0h1v1h-1zm-293 1h1v1h-1zm127 0h1v1h-1zm113 0h1v1h-1zm55 0h1v1h-1zm-302 1h1v1h-1zm215 0h1v1h-1zm-140 1h1v1h-1zm198 0h1v1h-1zm-4 1h1v1h-1zm-279 1h1v1h-1zm96 0h1v1h-1zm45 0h1v1h-1zm24 0h1v1h-1zm35 1h1v1h-1zm71 0h1v1h-1zm-238 1h1v1h-1zm88 0h1v1h-1zm90 0h1v1h-1zm71 0h1v1h-1zm-215 1h1v1h-1zm17 0h1v1h-1zm26 0h1v1h-1zm29 0h1v1h-1zm10 0h1v1h-1zm3 0h1v1h-1zm19 0h1v1h-1zm49 0h1v1h-1zm3 0h1v1h-1zm73 0h1v1h-1zm-196 6h1v1h-1zm5 0h1v1h-1zM9 75h10v1H9zm10 0h1v2h-1zm13 0h10v1H32zm10 0h1v1h-1zm20 0h1v1h-1zm6 0h1v1h-1zm-9 1h1v1h-1zm-40 1h1v1h-1zm52 0h1v1h-1zm-28 1h1v1h-1zm5 0h1v1h-1zm13 0h1v1h-1zm-35 3h1v1h-1zm14 2h1v1h-1zm2 2h1v1h-1zm-27 1h1v1h-1zm29 0h1v1h-1zm1 2h1v1h-1zm14 0h1v1h-1zm-40 2h1v1h-1zm41 0h1v1h-1zm-34 2h1v1h-1zm30 0h1v1h-1zm-17 1h2v1h-2zm2 0h1v1h-1zM0 95h1v1H0zm63 0h1v1h-1zm4 0h1v1h-1zm24 1h1v1h-1zm-7 1h2v1h-2zm2 0h1v1h-1zm-10 1h1v1h-1zm8 0h1v1h-1zm-3 1h1v1h-1zm3 0h1v1h-1zm5 3h1v1h-1zm-3 1h1v1h-1zm-56 1h1v1h-1zm19 0h1v1h-1z" fill="#b7bdd5"/><path d="M5 19h1v1H5zm19 14h1v1h-1zm32 11h1v1h-1zm10 0h1v1h-1zm-11 4h1v1h-1zM28 60h1v1h-1zm45 1h1v1h-1z" fill="#717055"/><path d="M25 13h1v1h-1zm28 24h1v1h-1zm0 5h1v1h-1zm-28 1h1v1h-1zm-2 5h1v1h-1zm24 3h1v1h-1zm9 1h1v1h-1zm14 6h1v1h-1zm-47 5h1v1h-1zm28 3h1v1h-1zm-16 1h1v1h-1z" fill="#8b8262"/><path d="M11 4h1v1h-1zm-1 1h1v1h-1zM8 9h1v2H8zm0 2h1v1H8zm12 1h4v1h-4zm4 0h1v1h-1zm8 0h8v1h-8zm8 0h1v1h-1zm1 1h1v3h-1zm-31 2h1v1h-1zm17 1h1v1h-1zm13 0h1v1h-1zm1 0h1v1h-1zm-12 4h1v1h-1zm-13 2h1v2h-1zm4 1h1v1h-1zm-4 1h1v1h-1zm30 0h1v5h-1zM8 26h1v1H8zm9 1h1v1h-1zm33 1h1v1h-1zm16 0h1v1h-1zm-40 1h2v1h-2zm2 0h1v1h-1zm18 0h2v1h-2zm2 0h1v1h-1zm20 0h1v1h-1zm4 2h1v1h-1zm1 1h1v1h-1zm-38 2h1v1h-1zm-20 1h1v1h-1zm23 0h1v1h-1zm-10 1h1v1h-1zm47 0h1v1h-1zm-7 1h1v1h-1zm6 1h1v1h-1zm-31 1h1v1h-1zm5 0h1v1h-1zM7 40h1v1H7zm15 0h1v1h-1zM7 41h1v1H7zm8 1h1v1h-1zm23 1h1v1h-1zm22 0h1v1h-1zM8 44h1v1H8zm30 0h1v1h-1zm14 0h1v1h-1zm22 0h1v1h-1zm-42 3h1v1h-1zM5 48h1v1H5zm62 0h1v1h-1zm-54 1h1v1h-1zm37 1h1v1h-1zm9 1h1v1h-1zm1 0h1v1h-1zm-13 2h1v1h-1zm0 1h1v1h-1zm-25 1h1v1h-1zm28 0h1v1h-1zm17 0h1v1h-1zm1 0h1v1h-1zm-23 1h1v1h-1zm1 1h1v1h-1zm-8 2h1v1h-1zm27 2h1v1h-1zm-34 1h1v1h-1zm19 0h1v1h-1zm18 0h1v1h-1zm-23 1h1v1h-1zm-19 1h1v1h-1zm38 0h1v1h-1zm-8 1h1v1h-1zm3 0h1v1h-1zm7 4h1v1h-1zm3 1h1v1h-1zm5 0h1v1h-1z" fill="#102a84"/><path d="M13 4h1v1h-1zm29 9h1v2h-1zm0 2h1v1h-1zm-6 5h1v1h-1zm1 0h1v1h-1zm-4 1h1v1h-1zm11 1h1v1h-1zm-6 5h1v1h-1zm12 6h1v1h-1zm14 2h1v1h-1zm6 0h1v1h-1zm-55 1h1v1h-1zm59 0h1v1h-1zm-42 2h1v1h-1zm21 3h1v1h-1zm3 2h1v1h-1zm12 0h1v1h-1zm-18 2h1v1h-1zm24 1h1v1h-1zm-19 1h1v1h-1zm-6 3h1v1h-1zm23 0h1v1h-1zm3 0h1v1h-1zm-37 2h1v1h-1zm11 3h1v1h-1zm22 3h1v1h-1zm-34 1h1v1h-1zm31 4h1v1h-1zm-12 3h1v1h-1zm17 4h1v1h-1z" fill="#a99d36"/><path d="M21 4h1v1h-1zm24 5h1v1h-1zm-19 5h1v1h-1zm19 3h1v1h-1zm-12 1h1v1h-1zM6 19h1v1H6zm30 3h1v1h-1zm1 0h1v1h-1zm2 4h1v1h-1zm-7 4h1v1h-1zm4 2h1v1h-1zm-22 4h1v1h-1zm-9 5h1v1H5zm0 1h1v1H5zm38 2h1v1h-1zm15 1h2v1h-2zm2 0h1v1h-1zM6 47h1v1H6zm42 1h1v1h-1zm6 0h1v2h-1zm-32 1h1v1h-1zm32 1h1v1h-1zm3 3h5v1h-5zm5 0h1v1h-1zm-3 13h1v1h-1zm-5 1h3v1h-3zm3 0h1v1h-1zm11 1h1v1h-1zm-33 1h1v1h-1zm16 1h1v1h-1zm0 1h1v1h-1zm21 0h1v1h-1z" fill="#ffeb00"/><path d="M330 7h1v1h-1zm79 0h1v2h-1zM142 8h1v24h-1zm227 0h1v1h-1zm40 1h1v1h-1zm-55 1h1v1h-1zm-195 1h1v1h-1zm61 0h1v1h-1zm140 2h1v1h-1zm-5 1h1v1h-1zm43 0h1v1h-1zm5 0h1v1h-1zm-249 1h1v1h-1zm241 0h1v1h-1zm82 1h1v1h-1zm-118 1h1v1h-1zm104 0h1v1h-1zm-40 1h1v1h-1zm24 0h1v1h-1zm-267 1h1v1h-1zm64 0h1v1h-1zm26 0h1v1h-1zm100 1h1v1h-1zm-121 1h1v1h-1zm101 0h1v1h-1zm84 0h1v1h-1zm5 0h1v1h-1zm31 0h1v1h-1zm4 1h1v1h-1zm-291 1h1v1h-1zm237 0h1v1h-1zm-196 1h1v1h-1zm81 0h1v1h-1zm159 0h1v1h-1zm-150 2h1v2h-1zm-89 1h1v1h-1zm89 1h1v1h-1zm-110 1h1v1h-1zm268 0h1v1h-1zm-161 1h1v1h-1zm114 0h1v1h-1zm-204 1h1v1h-1zm-79 1h1v1h-1zm12 0h1v1h-1zm222 0h1v1h-1zm73 0h1v1h-1zm-201 2h1v1h-1zm5 0h1v1h-1zm42 0h1v1h-1zm33 0h1v1h-1zm124 0h1v1h-1zm20 0h1v1h-1zM46 76h1v1h-1zm17 1h1v1h-1zm-53 2h1v14h-1zm16 1h1v1h-1zm-7 4h1v1h-1zm3 1h1v1h-1zm40 7h1v1h-1zm9 0h1v1h-1zm-61 1h1v1h-1zm12 1h1v1h-1zm44 1h1v1h-1zm15 1h1v1h-1zm5 3h1v1h-1zm-23 3h1v1h-1zm24 1h1v1h-1zm-58 1h1v1h-1zm21 0h1v1h-1z" fill="#c8cbdc"/><path d="M155 8h1v1h-1zm23 0h1v1h-1zm-31 4h1v5h-1zm78 0h1v1h-1zm60 2h1v1h-1zm61 1h1v1h-1zm-28 1h1v1h-1zm101 0h1v1h-1zm-272 1h1v1h-1zm238 1h1v1h-1zm-66 1h1v8h-1zm-43 2h1v1h-1zm157 0h1v1h-1zm30 0h1v1h-1zm-316 2h1v9h-1zm160 0h1v1h-1zm107 1h1v1h-1zm-138 2h1v1h-1zm-119 1h1v1h-1zm162 0h1v2h-1zm0 2h1v1h-1zm123 0h1v1h-1zm-252 1h1v1h-1zm-9 1h1v1h-1zm93 0h1v1h-1zm-127 1h1v1h-1zm94 0h1v1h-1zm14 0h1v1h-1zm-53 1h1v1h-1zm31 0h1v1h-1zM21 80h1v1h-1zm22 6h1v1h-1zm17 3h1v1h-1zm-41 2h1v1h-1zm7 0h1v1h-1zm63 3h1v1h-1zm-67 1h1v1h-1zm48 0h1v1h-1zm13 0h1v1h-1zm5 7h1v1h-1z" fill="#4c568f"/><path d="M25 12h1v1h-1zm15 9h1v1h-1zm-15 8h1v1h-1zm6 0h1v1h-1zm35 5h1v1h-1zm2 4h1v1h-1zm-36 1h1v1h-1zm20 3h1v1h-1zm6 2h1v1h-1zm1 0h1v1h-1zm-17 1h1v1h-1zm-18 3h1v1h-1zm26 4h1v1h-1zm0 1h1v1h-1zm-39 1h1v1h-1zm41 0h1v1h-1zm3 0h2v1h-2zm2 0h1v1h-1zm9 1h1v1h-1zm5 0h1v1h-1zm-7 6h1v1h-1zm7 4h1v1h-1zm3 4h1v1h-1zm-37 1h1v1h-1z" fill="#001e87"/><path d="M27 12h1v1h-1zm7 21h1v1h-1zm2 11h1v1h-1zm7 1h1v1h-1zM24 62h1v1h-1z" fill="#827e4b"/><path d="M45 23h1v1h-1zm-24 8h1v1h-1zm49 0h1v1h-1zm-4 2h1v1h-1zm-50 9h1v1h-1zm21 0h1v1h-1zm28 2h1v1h-1zm8 0h1v1h-1zM9 47h1v1H9zm11 0h1v1h-1zm5 1h1v1h-1zm4 3h1v1h-1zm43 0h1v1h-1zm3 4h1v1h-1zm-35 3h1v1h-1zm10 6h1v1h-1zm-21 1h1v1h-1z" fill="#a19642"/><path d="M79 0h1v92h-1zm247 7h2v1h-2zm2 0h1v1h-1zM195 8h1v1h-1zm38 0h1v1h-1zm-85 2h1v1h-1zm1 0h1v1h-1zm8 0h1v1h-1zm23 0h1v1h-1zm16 0h1v1h-1zm31 0h1v1h-1zm58 0h1v1h-1zm62 0h1v1h-1zm-54 1h1v1h-1zm60 0h1v1h-1zm-107 4h1v1h-1zm37 0h1v1h-1zm121 0h1v1h-1zm31 0h1v1h-1zm33 0h1v1h-1zm4 0h1v1h-1zm-291 1h1v1h-1zm104 0h1v15h-1zm32 0h1v1h-1zm85 0h1v1h-1zm-135 1h1v1h-1zm164 0h1v1h-1zm44 0h1v1h-1zm-296 1h1v1h-1zm200 0h1v1h-1zm-227 1h1v1h-1zm200 0h1v1h-1zm-196 1h1v1h-1zm210 0h1v1h-1zm54 0h1v1h-1zm-245 1h1v1h-1zm97 0h1v1h-1zm-91 1h1v1h-1zm165 0h1v1h-1zm70 0h1v1h-1zm48 0h1v1h-1zm-314 1h1v1h-1zm203 0h1v1h-1zm16 0h1v1h-1zm104 0h1v1h-1zm-91 1h1v1h-1zm84 0h1v1h-1zm-274 1h1v1h-1zm277 0h1v1h-1zM21 26h1v1h-1zm333 0h1v1h-1zm-165 1h1v1h-1zm83 0h1v1h-1zm-115 1h1v1h-1zm118 0h1v1h-1zm95 0h1v1h-1zm-180 1h1v1h-1zm64 0h1v1h-1zm169 0h1v1h-1zm-252 1h3v1h-3zm3 0h1v1h-1zm100 0h1v1h-1zm52 0h1v1h-1zm116 0h1v1h-1zm34 0h1v1h-1zm-296 1h1v1h-1zm12 0h1v1h-1zm7 0h1v1h-1zm5 0h1v1h-1zm26 0h1v1h-1zm55 0h1v1h-1zm28 0h1v1h-1zm46 0h1v1h-1zm-213 1h1v1h-1zm57 0h1v1h-1zm31 0h1v1h-1zm48 0h1v1h-1zm12 0h1v1h-1zm13 0h1v1h-1zm7 0h1v1h-1zm17 0h1v1h-1zm54 0h1v1h-1zm12 0h1v1h-1zm16 0h1v1h-1zm20 0h1v1h-1zm24 0h1v1h-1zm-260 1h1v1h-1zm3 0h1v1h-1zm28 0h1v1h-1zm101 0h1v1h-1zm124 0h1v1h-1zm15 0h1v1h-1zM14 34h1v1h-1zm12 1h1v1h-1zm37 0h1v1h-1zm-30 5h1v1h-1zm229 0h1v1h-1zM4 46h1v1H4zm61 11h1v1h-1zm-30 2h1v1h-1zM21 74h1v1h-1zm16 0h1v1h-1zm6 0h1v1h-1zm26 0h1v1h-1zM8 77h1v1H8zm31 1h1v1h-1zm1 0h1v1h-1zm9 0h1v1h-1zm16 0h1v1h-1zm-45 1h1v1h-1zm29 2h1v1h-1zm-31 2h1v1h-1zm42 4h1v1h-1zm-44 1h1v1h-1zm44 0h1v1h-1zm-9 1h1v1h-1zm-25 1h1v1h-1zm35 0h1v1h-1zm-18 1h1v1h-1zm7 1h1v1h-1zm29 0h1v1h-1zm-23 1h1v1h-1zm-45 3h2v1h-2zm2 0h1v1h-1zm11 0h3v1h-3zm3 0h1v1h-1zm7 0h8v1h-8zm8 0h1v1h-1zm26 0h1v1h-1zm22 0h1v1h-1zM9 99h1v1H9zm1 0h1v1h-1zm60 0h1v1h-1zm17 0h1v1h-1zm-74 1h1v1h-1zm53 0h1v1h-1zm-44 2h1v1h-1zm35 0h1v1h-1zm30 0h1v1h-1zm-39 1h1v1h-1z" fill="#1a2d7c"/><path d="M122 0h1v102h-1zm79 7h1v1h-1zm252 2h1v1h-1zm-302 2h1v1h-1zm228 4h1v1h-1zm68 0h1v1h-1zm-83 1h1v1h-1zm-205 1h1v1h-1zm141 0h1v1h-1zm6 1h1v1h-1zm-148 1h1v1h-1zm238 0h1v12h-1zm-86 3h1v1h-1zm71 0h1v1h-1zm68 8h1v1h-1zm-53 1h1v1h-1zm-173 1h1v1h-1zM32 78h1v1h-1zm56 16h1v1h-1zm34 8h1v1h-1z" fill="#4f5c98"/><path d="M283 6h1v1h-1zm-1 1h1v1h-1zm129 0h2v1h-2zm2 0h1v1h-1zm-212 3h1v1h-1zm31 0h1v1h-1zm50 0h1v1h-1zm13 0h1v1h-1zm157 0h1v1h-1zm-257 1h1v1h-1zm31 0h1v1h-1zm135 3h1v1h-1zm-138 1h1v1h-1zm27 0h1v1h-1zm21 0h1v1h-1zm44 0h1v1h-1zm71 0h1v1h-1zm19 0h1v1h-1zm29 0h1v1h-1zm-279 1h1v1h-1zm33 0h1v1h-1zm31 0h1v1h-1zm42 0h1v1h-1zm127 0h1v1h-1zm44 0h1v1h-1zm-186 1h1v1h-1zm7 0h1v1h-1zm16 0h1v1h-1zm28 0h1v1h-1zm14 0h2v1h-2zm2 0h1v1h-1zm69 0h2v1h-2zm2 0h1v1h-1zm70 0h1v1h-1zm-278 1h1v1h-1zm120 0h1v1h-1zm53 0h1v1h-1zm6 0h1v1h-1zm8 0h1v1h-1zm90 0h1v1h-1zm-146 1h1v1h-1zm133 0h1v1h-1zm27 0h1v1h-1zm-213 1h1v8h-1zm10 0h1v8h-1zm82 0h1v1h-1zm121 0h1v1h-1zm-121 1h1v1h-1zm20 0h1v1h-1zm-119 1h1v1h-1zm119 0h1v1h-1zm3 0h1v1h-1zm60 1h1v1h-1zm0 1h1v1h-1zm5 0h1v1h-1zm-215 1h1v1h-1zm22 0h1v1h-1zm-22 1h1v1h-1zm53 0h1v1h-1zm37 0h1v1h-1zm-131 1h1v1h-1zm76 1h1v1h-1zm10 0h1v1h-1zm112 0h1v1h-1zm-105 1h1v1h-1zm-39 1h1v1h-1zm1 0h1v1h-1zm112 0h1v1h-1zm10 0h1v1h-1zm110 0h1v1h-1zm-230 1h1v1h-1zm6 0h1v1h-1zm7 0h1v1h-1zm20 0h1v1h-1zm77 0h1v1h-1zm91 0h1v2h-1zm14 0h1v1h-1zm18 0h1v1h-1zm-309 1h1v1h-1zm7 0h1v1h-1zm12 0h1v1h-1zm122 0h1v1h-1zm17 0h2v1h-2zm2 0h1v1h-1zm8 0h1v1h-1zm29 0h1v1h-1zm11 0h1v1h-1zm21 0h1v1h-1zm-90 1h1v1h-1zm138 0h1v1h-1zm19 0h1v1h-1zm-191 1h1v4h-1zM46 36h1v1h-1zm218 2h1v1h-1zM74 60h1v1h-1zM20 74h1v1h-1zm11 0h1v1h-1zm-15 4h2v1h-2zm2 0h1v1h-1zm46 0h1v1h-1zm-15 1h1v1h-1zm0 1h1v1h-1zm-7 1h1v1h-1zm-3 1h1v1h-1zm14 0h1v1h-1zm7 0h1v1h-1zm-45 5h1v1h-1zm47 4h1v1h-1zm8 0h1v1h-1zm9 2h1v1h-1zm-17 3h1v1h-1zM6 98h1v1H6zm67 0h1v1h-1zm13 0h1v1h-1zm-4 1h1v1h-1zm-65 2h1v1h-1zm45 0h1v1h-1zm27 0h1v1h-1zm-66 1h1v1h-1zm33 0h1v1h-1zm-26 1h1v1h-1zm1 0h1v1h-1zm18 0h1v1h-1z" fill="#13297a"/><path d="M412 6h1v1h-1zM281 7h1v1h-1zM156 8h1v1h-1zm35 1h1v1h-1zm-1 1h1v1h-1zm102 0h1v1h-1zm77 0h1v1h-1zm-15 1h1v1h-1zm-201 1h1v1h-1zm66 1h1v1h-1zm52 1h1v1h-1zm110 0h1v1h-1zm53 0h1v1h-1zm-153 1h1v17h-1zm138 0h1v1h-1zm39 0h1v1h-1zm18 0h1v1h-1zm-289 1h1v1h-1zm73 0h1v1h-1zm15 1h1v1h-1zm44 0h1v1h-1zm124 0h1v1h-1zm-146 1h1v1h-1zm16 0h1v1h-1zm37 0h1v1h-1zm6 0h1v1h-1zm26 0h2v1h-2zm2 0h1v1h-1zm38 1h1v1h-1zm22 0h1v1h-1zm-99 2h1v1h-1zm13 0h1v1h-1zm7 1h1v1h-1zm63 1h1v1h-1zm0 1h1v1h-1zm-204 1h1v1h-1zm25 0h1v1h-1zm195 0h1v1h-1zm22 0h1v1h-1zm-85 1h1v1h-1zm-229 2h1v1h-1zm152 0h1v1h-1zm-102 1h1v1h-1zm68 0h1v1h-1zm159 0h1v1h-1zm-161 1h1v1h-1zm52 0h1v1h-1zm24 0h1v1h-1zm75 0h1v1h-1zm52 0h1v1h-1zm-139 1h1v1h-1zm12 0h1v1h-1zm-63 1h1v1h-1zm90 0h1v1h-1zm87 0h1v1h-1zm4 0h1v1h-1zm-307 1h1v1h-1zm131 0h1v1h-1zm69 0h1v1h-1zm11 0h1v1h-1zm98 0h1v1h-1zm-199 6h1v1h-1zM20 75h1v1h-1zm11 0h1v1h-1zm35 2h1v1h-1zm-10 1h1v1h-1zm-8 3h1v1h-1zm-10 2h1v1h-1zm11 3h1v1h-1zm-4 3h1v1h-1zm-18 4h1v1h-1zm30 0h1v1h-1zm5 2h1v1h-1zm19 3h1v1h-1zm-50 6h1v1h-1z" fill="#a4aac7"/><path d="M16 8h1v1h-1zm1 0h1v1h-1zm1 3h1v1h-1zm14 16h1v1h-1zm3 1h1v1h-1zm16 5h1v1h-1zM7 38h1v1H7zm60 5h1v1h-1zm-31 2h1v1h-1zm15 2h1v1h-1zm25 3h1v1h-1zm-14 5h1v1h-1zm11 7h1v1h-1z" fill="#203678"/><path d="M14 3h1v1h-1zm16 9h1v1h-1zM7 16h1v1H7zm12 6h1v1h-1zM7 24h1v1H7zm31 4h1v1h-1zm-11 7h1v1h-1zm28 1h1v1h-1zm-44 2h1v1h-1zm62 1h1v1h-1zm-39 2h1v1h-1zm23 1h1v1h-1zM4 45h1v1H4zm26 1h1v1h-1zm25 3h1v1h-1zm7 1h1v1h-1zM9 52h1v1H9zm52 2h1v1h-1zm-12 2h1v1h-1zm-6 5h1v1h-1zm-10 3h1v1h-1zm18 1h1v1h-1zm17 4h1v1h-1zm-17 6h1v1h-1z" fill="#464d73"/><path d="M16 3h5v1h-5zm5 0h1v1h-1zm36 33h1v1h-1zm4 0h1v1h-1zm10 12h1v1h-1zm-9 10h1v1h-1zm-8 8h1v1h-1zm17 7h1v1h-1z" fill="#6b686e"/><path d="M197 7h1v1h-1zm3 0h1v1h-1zm28 0h1v1h-1zm3 0h1v1h-1zm-77 1h1v1h-1zm23 0h1v1h-1zm-34 1h1v22h-1zm61 0h1v1h-1zm31 0h1v1h-1zm175 1h1v21h-1zm-251 3h1v1h-1zm65 0h1v1h-1zm137 0h1v1h-1zm-95 2h1v1h-1zm85 1h1v1h-1zm9 0h1v1h-1zm-179 1h1v1h-1zm219 0h1v1h-1zm-31 1h1v1h-1zm27 0h1v1h-1zm6 0h1v1h-1zm-224 1h1v1h-1zm72 0h1v1h-1zm21 0h1v1h-1zm81 1h1v1h-1zm-198 1h1v1h-1zm33 0h1v1h-1zm-40 1h1v1h-1zm99 0h1v1h-1zm65 0h1v1h-1zm51 0h1v1h-1zm20 0h1v1h-1zm89 0h1v1h-1zm3 1h1v1h-1zm-168 1h1v1h-1zm52 0h1v1h-1zm118 0h1v1h-1zm-226 1h1v1h-1zm65 0h1v3h-1zm66 0h1v1h-1zm-198 2h1v1h-1zm162 0h1v1h-1zm-30 1h1v1h-1zm-75 2h1v1h-1zm-97 1h1v1h-1zm112 0h1v1h-1zm43 0h1v1h-1zm33 0h1v1h-1zm79 0h1v1h-1zm-95 1h1v1h-1zm135 0h1v1h-1zm-249 1h1v1h-1zm31 0h1v1h-1zm21 0h1v1h-1zm14 0h1v1h-1zm28 0h1v1h-1zm33 0h1v1h-1zm107 0h1v1h-1zm4 0h1v1h-1zm13 0h1v1h-1zm20 0h1v1h-1zM55 50h1v1h-1zM26 77h1v1h-1zm43 2h1v1h-1zm-42 1h1v1h-1zm21 4h1v1h-1zm5 2h1v1h-1zm-37 1h1v1h-1zm56 4h1v2h-1zm-17 1h1v1h-1zm14 0h1v1h-1zM0 93h1v1H0zm72 0h1v1h-1zm-57 1h1v1h-1zm-6 1h1v1H9zm23 0h1v1h-1zm14 0h1v1h-1zm13 0h1v1h-1zm28 1h1v1h-1zm-66 6h1v1h-1zm65 0h1v1h-1z" fill="#2e3e85"/><path d="M233 7h1v1h-1zm-54 1h1v1h-1zm102 2h1v1h-1zm65 0h1v1h-1zm-150 1h1v1h-1zm150 0h1v1h-1zm23 1h1v1h-1zm-192 2h1v1h-1zm87 0h1v1h-1zm47 0h1v1h-1zm88 0h1v1h-1zm7 0h1v2h-1zm66 0h1v1h-1zm-295 1h1v1h-1zm96 0h1v1h-1zm13 0h1v17h-1zm15 0h1v1h-1zm140 0h1v1h-1zm-167 1h1v1h-1zm132 0h1v1h-1zm36 0h1v1h-1zm22 0h1v1h-1zm-159 1h1v1h-1zm113 0h1v1h-1zm-151 1h1v1h-1zm41 1h1v1h-1zm-133 3h1v1h-1zm183 0h1v1h-1zm57 0h1v1h-1zm-104 3h1v1h-1zm71 0h1v1h-1zm3 0h1v1h-1zm31 0h1v1h-1zm-265 1h1v1h-1zm21 3h2v1h-2zm2 0h1v1h-1zm289 0h1v1h-1zm-208 1h1v1h-1zm12 0h1v1h-1zm58 0h1v1h-1zm-85 1h1v1h-1zm120 0h1v1h-1zm89 0h1v1h-1zm-244 1h1v1h-1zm81 0h1v1h-1zm15 0h1v1h-1zm-136 1h1v1h-1zm12 0h1v1h-1zm26 0h1v1h-1zm31 0h1v1h-1zm18 0h1v1h-1zm138 0h1v1h-1zM8 75h1v1H8zm13 0h1v1h-1zm22 0h1v1h-1zm18 0h1v1h-1zm-46 2h2v1h-2zm2 0h1v1h-1zm15 0h1v1h-1zm7 0h1v1h-1zm18 0h1v1h-1zm-31 1h1v1h-1zm-8 6h1v1h-1zm3 9h1v1h-1zm67 0h1v1h-1zm-60 1h1v1h-1zm43 0h1v1h-1zm-60 1h2v1h-2zm2 0h1v1h-1zm10 0h4v1h-4zm4 0h1v1h-1zm7 0h9v1h-9zm9 0h1v1h-1zm18 0h1v1h-1zm18 0h1v1h-1zm11 3h1v1h-1zm-77 3h1v1h-1z" fill="#888eb0"/><path d="M18 8h1v1h-1zm-9 5h1v1H9zm24 4h1v1h-1zm16 12h1v1h-1zm-30 1h1v1h-1zM7 34h1v1H7zm18 0h1v1h-1zm23 1h1v1h-1zm-18 2h1v1h-1zm-18 2h1v1h-1zm60 2h1v1h-1zm-54 4h1v1h-1zm38 2h1v1h-1zm-4 1h1v2h-1zm0 2h1v1h-1zm24 1h1v3h-1zm0 3h1v1h-1zm-38 3h1v1h-1zm37 1h1v1h-1zm-15 1h1v1h-1zm6 2h1v1h-1zm1 2h1v1h-1zm5 0h1v1h-1zm-1 1h1v1h-1zm-48 2h1v1h-1zm51 2h1v1h-1zm-22 5h1v1h-1z" fill="#2f3f77"/><path d="M9 9h1v2H9zm0 2h1v1H9zm33 1h1v1h-1zm24 17h1v1h-1zm-31 6h1v1h-1zM6 41h1v1H6zm32 0h1v1h-1zm27 0h1v1h-1zm-28 2h1v1h-1zm5 1h1v1h-1zm11 0h1v1h-1zm-8 3h1v1h-1zm-28 6h1v1h-1zm31 1h1v1h-1zm18 0h1v1h-1zm1 0h1v1h-1zm-50 4h1v1h-1zm20 0h1v1h-1zm25 1h1v1h-1zm-33 2h1v1h-1zm-3 2h1v1h-1z" fill="#a0963c"/><path d="M15 2h7v1h-7zm7 0h1v1h-1zm1 1h1v1h-1zM9 6h1v1H9zm15 0h21v1H24zm21 0h1v1h-1zM8 8h1v1H8zm135 0h1v1h-1zM8 12h1v1H8zm8 1h1v1h-1zm15 0h1v2h-1zM9 14h1v1H9zm8 0h1v1h-1zm-9 1h1v1H8zm9 0h1v1h-1zm14 0h1v1h-1zm435 0h1v1h-1zM6 16h1v1H6zm20 0h1v1h-1zm8 0h1v1h-1zM9 17h1v1H9zm0 1h1v1H9zm21 0h1v1h-1zm16 1h1v1h-1zM3 21h1v1H3zm5 0h1v1H8zm11 0h1v1h-1zm136 3h1v1h-1zM8 25h1v1H8zm13 0h1v1h-1zm8 0h1v1h-1zm-13 1h1v1h-1zm360 0h1v1h-1zM3 27h1v1H3zm6 1h1v1H9zm15 0h1v1h-1zm45 1h1v1h-1zM4 30h1v1H4zm66 0h1v1h-1zm131 0h1v1h-1zm256 1h1v1h-1zM74 32h1v1h-1zm81 0h1v1h-1zM6 33h1v1H6zm7 0h1v1h-1zm62 0h1v1h-1zm-36 1h1v1h-1zM7 35h1v1H7zm49 0h1v1h-1zm1 0h1v1h-1zm4 0h1v1h-1zm1 0h1v1h-1zM6 36h2v1H6zm2 0h1v1H8zm9 0h1v1h-1zm10 0h1v1h-1zM9 37h1v1H9zm9 0h1v1h-1zm57 0h1v1h-1zm-65 1h1v1h-1zm20 0h1v1h-1zm19 0h1v1h-1zM3 39h1v1H3zm8 0h1v1h-1zm10 0h1v1h-1zm53 0h1v1h-1zm-62 1h1v1h-1zm1 1h1v1h-1zm11 0h1v1h-1zm9 0h1v1h-1zm40 1h1v1h-1zm-16 1h1v1h-1zm-41 1h1v1h-1zm24 0h1v1h-1zM9 45h1v1H9zm8 0h1v1h-1zm13 0h1v1h-1zm-12 1h1v1h-1zm1 1h1v1h-1zm14 0h1v1h-1zm11 0h1v1h-1zm-32 1h1v1h-1zm38 0h1v1h-1zm9 0h1v1h-1zm1 0h1v1h-1zm16 0h1v1h-1zm-31 1h1v1h-1zm16 0h1v1h-1zm6 0h1v1h-1zm9 0h1v1h-1zM6 50h1v1H6zm55 0h1v1h-1zm6 0h3v1h-3zm3 0h1v1h-1zM7 51h1v1H7zm9 0h1v1h-1zm5 0h1v1h-1zm3 0h1v1h-1zm3 0h1v1h-1zm24 0h1v1h-1zM8 52h1v1H8zm9 0h1v1h-1zm5 0h1v1h-1zm1 0h1v1h-1zm23 0h1v1h-1zM9 53h1v1H9zm12 1h1v1h-1zm22 0h1v1h-1zm8 0h1v1h-1zm1 1h1v1h-1zm9 0h1v2h-1zm-48 1h1v1h-1zm11 0h1v1h-1zm42 0h1v1h-1zm-52 1h1v1h-1zm1 0h1v1h-1zm10 0h1v1h-1zm8 0h1v1h-1zm28 0h1v1h-1zm7 0h1v1h-1zm1 0h1v1h-1zm7 0h1v1h-1zm-49 1h1v1h-1zm8 2h1v1h-1zm3 0h1v1h-1zm11 0h1v1h-1zm-12 1h1v1h-1zm5 0h1v1h-1zm-23 1h1v1h-1zm13 0h1v1h-1zm11 0h1v1h-1zm24 0h1v1h-1zm-34 1h1v1h-1zm18 0h1v1h-1zm-31 1h1v1h-1zm14 0h1v1h-1zm11 0h1v1h-1zm27 0h1v1h-1zm-45 1h1v1h-1zm19 0h1v1h-1zm6 0h2v1h-2zm2 0h1v1h-1zm19 1h1v1h-1zm-37 1h1v1h-1zm11 0h1v1h-1zm-16 1h1v1h-1zm1 1h1v1h-1zm16 0h1v1h-1zm-15 1h1v1h-1zm19 0h1v1h-1zm16 0h1v1h-1zm-34 1h1v1h-1zm40 0h1v1h-1zm-39 2h1v1h-1zm3 0h1v1h-1zm11 0h1v1h-1zm21 0h1v1h-1zm-8 5h1v1h-1zm-18 9h1v1h-1zm38 11h1v1h-1z" fill="#203282"/><path d="M14 4h1v1h-1zm28 7h1v1h-1zm-29 2h1v1h-1zm-1 2h1v1h-1zm-5 2h1v1H7zm25 1h1v1h-1zm13 0h1v1h-1zm-11 2h1v1h-1zm6 0h1v1h-1zm0 6h1v1h-1zm-22 1h1v1h-1zm17 0h1v1h-1zm1 0h1v1h-1zM5 28h1v1H5zm32 1h1v1h-1zm3 0h1v1h-1zm1 0h1v1h-1zm-11 1h1v1h-1zm-7 2h1v1h-1zm29 0h12v1H52zm12 0h1v1h-1zm7 0h1v1h-1zm-44 2h1v1h-1zm-17 2h1v1h-1zm57 0h1v1h-1zm-12 1h1v1h-1zm9 0h1v1h-1zm-12 1h1v1h-1zm6 1h1v1h-1zm1 0h1v1h-1zm2 3h1v1h-1zm-15 1h1v1h-1zM5 45h2v1H5zm2 0h1v1H7zm12 0h1v1h-1zm34 0h1v1h-1zm5 1h1v1h-1zm-34 1h1v1h-1zm6 0h1v1h-1zm18 0h1v1h-1zm23 0h1v1h-1zm-44 2h1v1h-1zm6 0h1v1h-1zm30 0h2v1h-2zm2 0h1v2h-1zM8 50h1v1H8zm14 0h1v1h-1zm32 1h1v1h-1zm11 0h1v1h-1zm3 1h1v1h-1zm-29 1h1v1h-1zm10 0h1v1h-1zm14 1h2v1h-2zm2 0h1v1h-1zm-28 2h1v1h-1zm-14 1h1v1h-1zm12 0h1v1h-1zm28 0h1v1h-1zm-27 2h1v1h-1zm31 0h1v1h-1zm-24 1h1v1h-1zm19 0h1v1h-1zm4 0h1v1h-1zm1 0h1v1h-1zm-19 1h1v1h-1zm-17 2h1v1h-1zm15 0h1v1h-1zm19 2h1v1h-1zm6 1h1v1h-1zm-20 1h1v1h-1zm1 0h1v1h-1zm-17 1h1v1h-1zm-1 1h1v1h-1zm2 1h1v1h-1z" fill="#dcc50b"/><path d="M12 5h1v1h-1zm7 2h1v1h-1zm-6 1h1v1h-1zm10 0h21v1H23zm21 0h1v1h-1zm-32 2h1v1h-1zm0 1h1v1h-1zm2 3h1v1h-1zm14 1h1v1h-1zm16 4h1v1h-1zM5 21h1v1H5zm25 0h1v2h-1zM6 22h1v2H6zm28 0h1v2h-1zm-4 1h1v1h-1zm14 0h1v1h-1zM6 24h1v1H6zm13 1h1v1h-1zm17 0h1v1h-1zm5 1h1v1h-1zm1 1h1v1h-1zm-21 1h1v1h-1zm21 0h1v1h-1zm-4 1h1v1h-1zm1 0h1v1h-1zm-14 1h1v1h-1zm44 1h1v1h-1zm-32 1h1v1h-1zm4 0h1v1h-1zm4 0h1v1h-1zm-2 1h1v1h-1zm6 0h1v1h-1zm18 0h1v1h-1zm6 0h1v1h-1zm-4 1h1v1h-1zM9 35h1v1H9zm61 2h1v1h-1zM6 38h1v1H6zm6 0h1v1h-1zm5 0h1v1h-1zm24 0h1v1h-1zm27 1h1v1h-1zm-26 1h1v1h-1zm7 0h1v1h-1zm-28 1h1v1h-1zm22 0h1v1h-1zm5 0h1v1h-1zm4 0h1v1h-1zm-12 1h1v1h-1zm31 0h1v1h-1zM6 43h1v1H6zm18 0h1v1h-1zm24 2h1v1h-1zm-28 1h1v1h-1zm33 0h2v1h-2zm2 0h1v1h-1zm4 0h2v1h-2zm2 0h1v1h-1zm2 2h1v1h-1zm-51 2h1v1h-1zm36 2h1v1h-1zm15 0h1v1h-1zm6 0h1v1h-1zm1 0h1v1h-1zm-17 1h2v1h-2zm2 0h1v1h-1zm-42 1h1v1h-1zm59 0h1v1h-1zm-51 2h1v1h-1zm43 1h1v1h-1zm10 0h1v1h-1zm-6 2h1v1h-1zm-5 1h1v1h-1zm5 0h1v1h-1zm1 0h1v1h-1zm4 0h1v1h-1zm-53 1h1v1h-1zm50 0h1v1h-1zm-21 2h1v1h-1zm-2 1h1v1h-1zm19 1h1v1h-1zm-35 1h1v1h-1zm27 0h1v1h-1zm-7 2h1v1h-1zm16 0h1v1h-1zm6 0h1v1h-1zm-22 1h1v1h-1zm-16 1h1v1h-1zm16 4h1v1h-1z" fill="#ebd112"/><path d="M231 6h1v1h-1zm95 0h1v1h-1zM142 7h1v1h-1zm227 0h1v1h-1zm-89 1h1v1h-1zM158 9h1v1h-1zm47 0h1v1h-1zm88 0h1v1h-1zm157 0h1v1h-1zm-253 2h1v1h-1zm3 0h1v1h-1zm28 0h1v1h-1zm3 0h1v1h-1zm-43 1h1v1h-1zm46 0h1v1h-1zm50 0h1v1h-1zm13 0h1v1h-1zm-114 1h1v1h-1zm103 0h1v1h-1zm11 0h1v1h-1zm-114 1h1v1h-1zm4 1h1v1h-1zm183 0h1v1h-1zm-69 1h1v1h-1zm117 0h1v1h-1zm-194 1h1v1h-1zm-76 1h1v1h-1zm157 0h1v1h-1zm-56 2h1v1h-1zm48 0h1v8h-1zm-51 1h1v1h-1zm65 0h1v1h-1zm71 0h1v1h-1zm89 0h1v1h-1zm-164 1h1v1h-1zm108 2h1v1h-1zm-50 1h1v1h-1zm-178 1h1v1h-1zm117 0h1v1h-1zm164 0h1v1h-1zm10 0h1v3h-1zm-327 1h1v1h-1zm44 1h1v1h-1zm102 0h1v1h-1zm166 0h1v1h-1zm-28 1h1v1h-1zm43 0h1v1h-1zm-289 1h1v1h-1zm58 0h1v1h-1zm52 0h1v1h-1zm5 0h1v1h-1zm8 0h1v1h-1zm49 0h1v1h-1zm95 0h1v1h-1zm-295 2h1v1h-1zm160 0h1v1h-1zm-117 1h1v1h-1zm111 0h1v1h-1zm11 0h1v1h-1zm106 0h1v1h-1zm-199 1h1v1h-1zm21 0h1v1h-1zm219 0h1v1h-1zm-209 7h1v1h-1zM23 76h1v1h-1zm14 1h1v1h-1zm5 0h1v1h-1zm40 17h1v1h-1zm-71 7h1v1h-1zm57 0h1v1h-1zm-42 3h2v1h-2zm2 0h1v1h-1zm23 0h2v1h-2zm2 0h1v1h-1z" fill="#e6e7ed"/><path d="M283 7h1v1h-1zM176 8h1v1h-1zm20 0h1v1h-1zm5 0h1v1h-1zm26 0h1v1h-1zm5 0h1v1h-1zm50 0h1v1h-1zm3 0h1v1h-1zm41 0h1v1h-1zm87 0h1v13h-1zM155 9h1v1h-1zm23 0h1v1h-1zm20 0h1v1h-1zm1 0h1v1h-1zm25 0h1v1h-1zm5 0h1v1h-1zm1 0h1v1h-1zm4 0h1v1h-1zm48 0h1v1h-1zm44 0h1v1h-1zm26 0h1v1h-1zm-201 1h1v1h-1zm51 0h1v1h-1zm160 0h1v2h-1zm-168 1h1v1h-1zm31 0h1v1h-1zm-79 1h1v6h-1zm47 0h1v1h-1zm28 0h1v1h-1zm3 0h1v1h-1zm69 0h1v2h-1zm69 0h1v1h-1zm-204 1h1v1h-1zm20 0h1v1h-1zm3 0h1v1h-1zm166 0h1v3h-1zm-166 1h1v1h-1zm11 0h1v1h-1zm28 0h1v1h-1zm3 0h1v1h-1zm70 0h1v1h-1zm-1 1h1v1h-1zm69 0h1v1h-1zm7 0h1v2h-1zm-190 1h1v1h-1zm87 0h1v2h-1zm1 0h1v1h-1zm16 0h1v15h-1zm26 0h1v1h-1zm39 0h2v1h-2zm2 0h1v1h-1zm5 0h1v1h-1zm12 0h2v1h-2zm13 0h1v1h-1zm20 0h1v1h-1zm21 0h1v1h-1zm28 0h1v1h-1zm-293 1h1v1h-1zm3 0h1v1h-1zm87 0h1v1h-1zm4 0h1v1h-1zm17 0h1v1h-1zm48 0h1v1h-1zm35 0h1v1h-1zm3 0h1v1h-1zm14 0h2v1h-2zm2 0h1v1h-1zm12 0h1v1h-1zm5 0h1v1h-1zm18 0h1v1h-1zm19 0h1v1h-1zm12 0h1v1h-1zm34 0h1v1h-1zm-322 1h1v1h-1zm8 0h1v1h-1zm34 0h1v1h-1zm31 0h1v1h-1zm31 0h1v1h-1zm15 0h1v1h-1zm6 0h1v1h-1zm47 0h1v11h-1zm48 0h1v1h-1zm12 0h1v1h-1zm8 0h1v1h-1zm15 0h1v1h-1zm32 0h1v1h-1zm9 0h1v1h-1zm25 0h1v1h-1zm-320 1h1v1h-1zm24 0h3v1h-3zm3 0h1v1h-1zm14 0h1v1h-1zm105 0h1v11h-1zm67 0h1v1h-1zm37 0h1v12h-1zm3 0h1v1h-1zm30 0h1v1h-1zm34 0h1v2h-1zm-213 1h1v1h-1zm104 0h1v1h-1zm4 0h1v1h-1zm3 0h1v1h-1zm55 0h1v1h-1zm13 0h2v1h-2zm2 0h1v1h-1zm-284 1h1v1h-1zm28 0h1v1h-1zm3 0h1v1h-1zm72 0h1v1h-1zm24 0h1v5h-1zm41 0h2v1h-2zm37 0h1v1h-1zm60 0h1v1h-1zm4 0h1v1h-1zm15 0h1v1h-1zm32 0h1v1h-1zm-287 1h1v1h-1zm11 0h1v1h-1zm62 0h1v1h-1zm65 0h1v1h-1zm118 0h1v1h-1zm36 0h1v1h-1zm-323 1h1v8h-1zm32 0h1v1h-1zm10 0h1v1h-1zm57 0h1v1h-1zm63 0h2v1h-2zm2 0h1v1h-1zm49 0h1v1h-1zm22 0h1v1h-1zm84 0h1v1h-1zm7 0h1v1h-1zM20 24h1v1h-1zm326 0h1v1h-1zm32 0h1v1h-1zm35 0h1v7h-1zm4 0h1v1h-1zm51 0h1v1h-1zm-122 1h1v1h-1zm8 0h1v1h-1zm117 0h1v1h-1zm-279 1h1v1h-1zm83 0h1v1h-1zm94 0h1v1h-1zm11 0h1v1h-1zm38 0h1v1h-1zm14 0h1v1h-1zm44 0h1v1h-1zm-323 1h1v1h-1zm3 0h1v1h-1zm192 0h1v2h-1zm12 0h1v1h-1zm70 0h2v1h-2zm2 0h1v1h-1zm-254 1h1v1h-1zm94 0h1v1h-1zm83 0h1v1h-1zm12 0h1v2h-1zm63 0h1v1h-1zm-276 1h1v1h-1zm15 0h1v1h-1zm8 0h1v1h-1zm17 0h1v1h-1zm121 0h1v1h-1zm3 0h1v1h-1zm30 0h1v1h-1zm32 0h1v1h-1zm6 0h1v1h-1zm3 0h1v1h-1zm44 0h1v1h-1zm43 0h1v1h-1zm-306 1h1v1h-1zm25 0h1v2h-1zm31 0h1v2h-1zm15 0h1v1h-1zm52 0h1v1h-1zm3 0h1v1h-1zm13 0h1v1h-1zm50 0h1v1h-1zm8 0h1v1h-1zm13 0h1v1h-1zm54 0h1v2h-1zm16 0h1v1h-1zm-304 1h1v1h-1zm51 0h1v1h-1zm31 0h1v1h-1zm23 0h1v1h-1zm18 0h1v1h-1zm4 0h1v1h-1zm9 0h1v1h-1zm28 0h1v1h-1zm6 0h1v1h-1zm3 0h1v1h-1zm62 0h1v1h-1zm6 0h1v1h-1zm3 0h1v1h-1zm7 0h1v1h-1zm16 0h1v1h-1zm8 0h1v1h-1zm19 0h1v1h-1zm35 0h1v1h-1zM21 32h1v1h-1zm174 0h1v1h-1zm7 0h1v1h-1zm23 0h1v1h-1zm1 0h1v1h-1zm7 0h1v1h-1zm10 0h1v1h-1zm22 0h1v1h-1zm1 0h1v1h-1zm5 0h1v1h-1zm28 0h1v1h-1zm9 0h1v1h-1zm5 0h1v1h-1zm64 0h2v1h-2zm2 0h1v1h-1zm5 0h1v1h-1zm50 0h1v1h-1zm6 0h1v1h-1zm1 0h1v1h-1zm15 0h1v1h-1zm17 0h1v1h-1zm-93 1h1v1h-1zM40 34h1v1h-1zm35 0h1v1h-1zm-7 1h1v1h-1zm-33 8h1v1h-1zm16 0h1v1h-1zm-8 3h1v1h-1zm-8 3h1v1h-1zM8 51h1v1H8zm20 0h1v1h-1zm2 2h1v1h-1zm46 2h1v1h-1zm-10 3h1v1h-1zm-15 6h1v1h-1zM23 74h1v1h-1zm22 0h1v1h-1zm15 0h1v1h-1zm-34 2h1v1h-1zm4 0h1v1h-1zm19 1h1v1h-1zM8 78h1v1H8zm23 0h1v16h-1zm24 0h1v1h-1zm17 0h1v1h-1zm-30 1h1v1h-1zm20 0h1v1h-1zm-42 1h1v1h-1zm22 0h1v1h-1zm27 0h1v1h-1zm-49 1h1v1h-1zm33 0h1v1h-1zm-4 1h1v1h-1zm-34 1h1v1h-1zm12 0h1v1h-1zm21 0h1v1h-1zm-24 4h1v1h-1zm19 0h1v1h-1zm8 0h1v1h-1zm-27 1h1v1h-1zm37 1h1v1h-1zm-43 2h1v1h-1zm9 0h1v1h-1zm0 1h1v1h-1zm28 1h1v1h-1zM1 94h1v1H1zm30 0h1v1h-1zm-10 1h1v1h-1zm1 1h1v1h-1zm23 0h1v1h-1zm15 0h1v1h-1zm10 0h1v1h-1zm12 0h1v1h-1zm-7 1h1v1h-1zm-4 1h1v1h-1zm1 0h1v1h-1zm-61 1h1v1h-1zm3 1h1v1h-1zm51 0h1v1h-1zm-46 1h1v1h-1zm41 0h1v1h-1zm-35 1h1v1h-1zm29 0h1v1h-1zm-20 1h3v1h-3zm3 0h3v1h-3zm3 0h3v1h-3zm3 0h2v1h-2zm2 0h1v1h-1z" fill="#22337e"/><path d="M10 13h1v1h-1zm5 1h1v1h-1zm27 2h1v1h-1zm-3 6h1v1h-1zm13 7h12v1H52zm12 0h1v1h-1zM5 38h1v1H5zm66 3h1v1h-1zm-6 6h1v1h-1zm-19 1h1v1h-1zm19 0h1v1h-1zm-54 1h1v1h-1zm4 3h1v1h-1zm34 2h1v1h-1zm20 0h2v1h-2zm2 0h1v1h-1zm-57 1h1v1h-1zm49 1h1v1h-1zm11 2h1v1h-1zm-9 1h1v1h-1zm-46 1h1v1h-1zm2 3h1v1h-1zm7 1h1v1h-1zm4 0h1v1h-1zm1 1h1v1h-1zm31 0h1v1h-1zm-32 2h1v1h-1zm4 5h1v1h-1z" fill="#dcc331"/><path d="M26 13h1v1h-1zM4 23h1v2H4zm0 2h1v1H4zm0 16h1v2H4zm0 2h1v1H4zm49 0h1v1h-1zm9 4h1v1h-1zm13 2h1v1h-1zm-17 3h2v1h-2zm2 0h1v1h-1z" fill="#a49656"/></svg>