<svg xmlns="http://www.w3.org/2000/svg" role="img" viewBox="-10.07 -10.07 372.64 523.64"><title>Reference FOSS Policy logo</title><style>svg {enable-background:new 0 0 352.69 504}</style><style>.st0{fill:#0b1f41}.st2{fill:#5297c9}</style><path d="M29.09 478.96v-18.2h10.32c3.32 0 5.97.76 7.94 2.28 1.97 1.52 2.96 3.77 2.96 6.75v.14c0 2.65-.97 4.81-2.92 6.5-1.95 1.69-4.61 2.53-7.98 2.53H29.09zm-8.77 24.18h8.78v-16.19h10.02c2.79 0 5.41-.37 7.86-1.11 2.45-.74 4.59-1.83 6.42-3.27s3.27-3.23 4.33-5.36c1.06-2.13 1.59-4.62 1.59-7.45v-.14c0-2.54-.44-4.84-1.33-6.91-.89-2.06-2.16-3.84-3.81-5.32-1.65-1.49-3.67-2.63-6.04-3.42s-5.02-1.19-7.95-1.19H20.32v50.36zm77.15-8.71c-2.1-.96-3.91-2.24-5.41-3.85s-2.67-3.5-3.51-5.68c-.84-2.18-1.25-4.5-1.25-6.94v-.14c0-2.45.42-4.75 1.25-6.91.84-2.16 1.99-4.04 3.47-5.65 1.48-1.61 3.26-2.88 5.34-3.81 2.08-.93 4.36-1.4 6.84-1.4 2.48 0 4.77.48 6.88 1.44 2.1.96 3.9 2.24 5.41 3.85 1.51 1.61 2.68 3.5 3.51 5.68.84 2.18 1.26 4.5 1.26 6.94v.14c0 2.45-.42 4.75-1.26 6.91-.84 2.16-1.99 4.04-3.47 5.65-1.48 1.61-3.26 2.88-5.34 3.81-2.08.94-4.36 1.4-6.84 1.4-2.49 0-4.78-.48-6.88-1.44zm17.38 7.48c3.21-1.39 5.99-3.27 8.35-5.65 2.35-2.37 4.17-5.13 5.47-8.27 1.29-3.14 1.94-6.49 1.94-10.04v-.14c0-3.55-.65-6.9-1.94-10.04-1.3-3.14-3.09-5.89-5.4-8.24-2.3-2.35-5.06-4.21-8.27-5.58s-6.76-2.05-10.65-2.05c-3.88 0-7.43.7-10.65 2.09-3.21 1.39-6 3.27-8.35 5.65-2.35 2.37-4.17 5.13-5.47 8.27-1.3 3.14-1.94 6.49-1.94 10.04v.14c0 3.55.65 6.9 1.94 10.04 1.3 3.14 3.09 5.89 5.4 8.24 2.3 2.35 5.06 4.21 8.27 5.58s6.76 2.05 10.65 2.05c3.89 0 7.43-.7 10.65-2.09zm38.27 1.23h35.25v-7.99H161.9v-42.38h-8.78v50.37zm56.84 0h8.78v-50.36h-8.78v50.36zm63.99.25c1.94-.41 3.73-1.01 5.36-1.8 1.63-.79 3.15-1.73 4.57-2.81 1.41-1.08 2.77-2.31 4.07-3.7l-5.68-5.76c-2.16 2.02-4.34 3.61-6.55 4.79-2.21 1.18-4.84 1.76-7.91 1.76-2.4 0-4.62-.47-6.66-1.4-2.04-.94-3.8-2.22-5.29-3.85-1.49-1.63-2.64-3.54-3.45-5.72-.82-2.18-1.22-4.5-1.22-6.94v-.14c0-2.45.41-4.75 1.22-6.91.82-2.16 1.97-4.04 3.45-5.65 1.49-1.61 3.25-2.88 5.29-3.81 2.04-.93 4.26-1.4 6.66-1.4 2.88 0 5.44.58 7.7 1.73 2.25 1.15 4.39 2.66 6.4 4.53l5.68-6.55c-1.2-1.15-2.47-2.21-3.81-3.17-1.34-.96-2.81-1.79-4.39-2.48-1.58-.7-3.32-1.23-5.22-1.62-1.9-.38-3.99-.57-6.3-.57-3.84 0-7.34.68-10.5 2.05-3.17 1.37-5.91 3.24-8.22 5.61-2.32 2.37-4.12 5.13-5.4 8.27-1.28 3.14-1.92 6.51-1.92 10.11v.14c0 3.6.65 6.98 1.96 10.14 1.3 3.17 3.1 5.91 5.4 8.24 2.29 2.33 5 4.16 8.11 5.5 3.12 1.34 6.52 2.01 10.22 2.01 2.34.01 4.49-.2 6.43-.6zm49.82-.25h8.92v-20.07l20-30.29h-10.14l-14.25 22.3-14.1-22.3h-10.43l20 30.5v19.86z" class="st0"/><path fill="#0586bf" d="M19.42 424.65h19.03v-24.53h32.47v-15.89H38.45v-11.58h35.91v-16.68H19.42v68.68zm91.07-17.31c-2.16-1.01-4.02-2.37-5.56-4.07-1.54-1.7-2.74-3.66-3.59-5.89-.85-2.22-1.28-4.58-1.28-7.06v-.2c0-2.48.41-4.84 1.23-7.06.82-2.22 2-4.17 3.54-5.84s3.38-2.99 5.51-3.97 4.51-1.47 7.13-1.47 5.02.51 7.18 1.52c2.17 1.01 4.03 2.37 5.61 4.07 1.57 1.7 2.79 3.66 3.64 5.89.85 2.23 1.28 4.58 1.28 7.06v.2c0 2.49-.43 4.84-1.28 7.06-.85 2.22-2.03 4.17-3.54 5.84-1.51 1.67-3.35 2.99-5.51 3.97-2.16.98-4.56 1.47-7.18 1.47s-5.02-.51-7.18-1.52zm21.75 15.89c4.51-1.86 8.44-4.42 11.77-7.65 3.34-3.24 5.94-7.03 7.8-11.38 1.86-4.35 2.8-8.98 2.8-13.88v-.2c0-4.91-.93-9.52-2.8-13.83-1.86-4.32-4.43-8.08-7.7-11.28-3.27-3.2-7.16-5.74-11.67-7.6-4.51-1.86-9.42-2.8-14.72-2.8-5.3 0-10.2.93-14.72 2.8-4.51 1.86-8.44 4.41-11.77 7.65s-5.93 7.03-7.8 11.38c-1.86 4.35-2.8 8.98-2.8 13.88v.2c0 4.9.93 9.52 2.8 13.83 1.86 4.32 4.43 8.08 7.7 11.28 3.27 3.2 7.16 5.74 11.68 7.6 4.51 1.86 9.42 2.8 14.72 2.8 5.29 0 10.2-.94 14.71-2.8zm70.63 1.08c3.4-1.01 6.31-2.48 8.73-4.41 2.42-1.93 4.3-4.26 5.64-7 1.34-2.74 2.01-5.88 2.01-9.4v-.2c0-3.2-.59-5.96-1.77-8.28-1.18-2.32-2.88-4.29-5.1-5.92-2.22-1.63-4.92-3.02-8.09-4.16-3.17-1.14-6.72-2.14-10.65-2.99-2.35-.52-4.3-1.03-5.84-1.52s-2.75-.98-3.63-1.47c-.88-.49-1.51-1.03-1.86-1.62-.36-.59-.54-1.27-.54-2.06v-.2c0-1.24.57-2.28 1.72-3.13 1.14-.85 2.86-1.27 5.15-1.27 3.07 0 6.26.57 9.56 1.72 3.3 1.14 6.52 2.83 9.66 5.05l9.52-13.48c-3.73-3.03-7.9-5.31-12.51-6.86-4.61-1.55-9.86-2.32-15.74-2.32-4.12 0-7.82.54-11.09 1.62-3.27 1.08-6.07 2.6-8.39 4.55-2.32 1.96-4.09 4.28-5.3 6.95-1.21 2.68-1.82 5.62-1.82 8.81v.19c0 3.53.67 6.48 2.01 8.86 1.34 2.38 3.17 4.37 5.49 5.97 2.32 1.6 5.05 2.91 8.19 3.92 3.14 1.01 6.54 1.94 10.2 2.79 2.35.52 4.27 1.03 5.74 1.52 1.47.49 2.65 1 3.53 1.52.88.52 1.49 1.06 1.81 1.62.33.55.49 1.19.49 1.91v.2c0 1.5-.67 2.66-2.01 3.48-1.34.82-3.29 1.22-5.84 1.22-7.98 0-15.4-2.75-22.27-8.24l-10.6 12.68c4.25 3.82 9.14 6.68 14.67 8.59 5.53 1.91 11.36 2.86 17.51 2.86 4.23.02 8.02-.49 11.42-1.5zm63.97 0c3.4-1.01 6.31-2.48 8.73-4.41 2.42-1.93 4.3-4.26 5.64-7 1.34-2.74 2.01-5.88 2.01-9.4v-.2c0-3.2-.59-5.96-1.77-8.28-1.18-2.32-2.88-4.29-5.1-5.92-2.22-1.63-4.92-3.02-8.09-4.16-3.17-1.14-6.72-2.14-10.64-2.99-2.35-.52-4.3-1.03-5.84-1.52s-2.75-.98-3.63-1.47c-.88-.49-1.51-1.03-1.86-1.62-.36-.59-.54-1.27-.54-2.06v-.2c0-1.24.57-2.28 1.72-3.13 1.14-.85 2.86-1.27 5.15-1.27 3.07 0 6.26.57 9.56 1.72 3.3 1.14 6.52 2.83 9.66 5.05l9.52-13.48c-3.73-3.03-7.9-5.31-12.51-6.86-4.61-1.55-9.86-2.32-15.75-2.32-4.12 0-7.82.54-11.09 1.62-3.27 1.08-6.07 2.6-8.39 4.55-2.32 1.96-4.09 4.28-5.3 6.95-1.21 2.68-1.82 5.62-1.82 8.81v.19c0 3.53.67 6.48 2.01 8.86 1.34 2.38 3.17 4.37 5.49 5.97 2.32 1.6 5.05 2.91 8.19 3.92 3.14 1.01 6.54 1.94 10.2 2.79 2.35.52 4.27 1.03 5.74 1.52 1.47.49 2.65 1 3.53 1.52.88.52 1.49 1.06 1.81 1.62.33.55.49 1.19.49 1.91v.2c0 1.5-.67 2.66-2.01 3.48-1.34.82-3.29 1.22-5.84 1.22-7.98 0-15.4-2.75-22.27-8.24l-10.6 12.68c4.25 3.82 9.14 6.68 14.67 8.59 5.53 1.91 11.36 2.86 17.51 2.86 4.22.02 8.02-.49 11.42-1.5z"/><path d="M298.53 149.27C298.53 66.83 231.7 0 149.27 0S0 66.83 0 149.27c0 45.08 20.02 85.47 51.62 112.84 49.7-16.83 89.36-40.6 97.65-103.09 0 0 39.22 72.55-36.18 135.08 11.59 2.89 23.7 4.44 36.18 4.44 82.43-.01 149.26-66.84 149.26-149.27" class="st0"/><path d="M149.37 298.53h.04-.04m.11 0h.05-.05m.1 0h.06-.06m.09 0c.5 0 1-.01 1.5-.01.97-.01 1.93-.03 2.9-.06-1.47.04-2.93.07-4.4.07m4.42-.07h.08-.08m.13-.01h.04-.04M51.62 262.11c-.03-.03-.06-.06-.1-.08.03.02.06.05.1.08m-.13-.11c-.03-.02-.06-.05-.08-.07.03.02.05.05.08.07m-.09-.08c-.17-.15-.35-.3-.52-.45.1.09.2.17.3.26.01.01.02.02.04.03.02.01.03.03.05.04.03.02.05.04.08.07l.05.05m-.52-.46c-.03-.02-.06-.05-.08-.07.02.02.05.05.08.07m-.1-.08c-.02-.02-.05-.04-.07-.06.02.02.05.04.07.06m-.09-.08l-.04-.04.04.04" class="st2"/><path fill="#1670a0" d="M151.17 298.52c15.43-.2 30.28-2.76 44.24-7.29 39.56-78.22-41.76-136.02-46.14-136.02-10.76 62.6-84 71.71-122.12 79.77 6.93 9.84 14.98 18.84 24.03 26.74-.1-.09-.2-.17-.3-.26-.03-.03-.05-.05-.08-.07l-.01-.01c-.02-.02-.05-.04-.07-.06-.01-.01-.02-.01-.02-.02l-.04-.04C24.6 238.29 6.65 206.38 1.55 170.33c32.08 9.16 64.76 16.12 91.31 16.12 29.06 0 50.8-8.33 56.42-31.24 31.41 0 84.39 27.1 102.28 102.72-25.57 24.08-59.61 39.26-97.2 40.52h-.26-.02c-.98.04-1.94.06-2.91.07m-99.83-36.65c0-.01 0 0 0 0m-.08-.07c-.02-.02-.03-.03-.05-.04.02.01.03.02.05.04"/><path d="M149.27 298.53c-12.48 0-24.59-1.55-36.18-4.44 11.58 2.89 23.7 4.44 36.18 4.44h.1-.1m.14 0h.07-.07m.12 0h.05-.05m.11 0h.03-.03m-98.12-36.51c-.01-.01-.02-.01-.03-.02.01.01.02.02.03.02m-.11-.09l-.01-.01.01.01" class="st2"/><path fill="#2089c1" d="M149.27 298.53c-12.48 0-24.59-1.55-36.18-4.44 11.58 2.89 23.7 4.44 36.18 4.44.63 0 1.27 0 1.9-.01-.5.01-1 .01-1.5.01h-.4m-97.65-36.42c-.03-.03-.06-.06-.1-.08-.01-.01-.02-.02-.03-.02-.03-.02-.06-.05-.08-.07l-.01-.01c-.02-.02-.04-.03-.06-.05.09.07.18.15.28.23 49.7-16.83 89.36-40.6 97.65-103.09-8.29 62.49-47.96 86.26-97.65 103.09m-.28-.25c-.03-.02-.05-.04-.08-.07.03.03.05.05.08.07m-.13-.1c-.01-.01-.02-.02-.04-.03.02 0 .03.02.04.03"/><path fill="#0880b7" d="M149.27 298.53c-12.48 0-24.59-1.55-36.18-4.44 36.97-30.66 46.38-63.72 46.38-89.46-.01-26.77-10.2-45.62-10.2-45.62-8.29 62.5-47.95 86.27-97.65 103.09-.09-.08-.18-.16-.28-.24-.02-.02-.05-.04-.08-.07-.02-.01-.03-.03-.05-.04-.01-.01-.03-.02-.04-.03-9.05-7.9-17.1-16.9-24.03-26.74 38.13-8.06 111.37-17.17 122.12-79.77 4.38 0 85.71 57.8 46.14 136.02-13.96 4.54-28.82 7.1-44.24 7.29-.62.01-1.26.01-1.89.01"/><path fill="#fff" d="M175.06 72.63c0-20.16-25.76-56.13-25.76-56.13s-25.76 35.97-25.76 56.13c0 20.16 25.76 57.69 25.76 75.05-.01-17.37 25.76-54.89 25.76-75.05zm-14.57 52.95c7.63 3.52 19.33 10.76 19.33 22.09 10.84-19.48-2.44-38.94-8.49-46.25-3.53 8.12-7.55 16.47-10.84 24.16zm-22.45 0c-7.63 3.52-19.33 10.76-19.33 22.09-10.84-19.48 2.44-38.94 8.49-46.25 3.54 8.12 7.56 16.47 10.84 24.16z"/><path fill="#f05323" d="M165.87 156.49c0-9.2-3.86-17.12-9.43-20.84-2.71 5.31-7.14 17.94-7.14 23.23 0-5.4-4.24-18.28-6.72-23.52-5.81 3.6-9.86 11.7-9.86 21.13 0 12.77 13.44 37.81 16.58 37.81 3.13 0 16.57-25.04 16.57-37.81z"/><path fill="#f58220" d="M160.02 154.96c0-5.97-2.5-11.11-6.12-13.52-1.76 3.45-4.64 11.64-4.64 15.08 0-3.5-2.75-11.86-4.36-15.26-3.77 2.33-6.4 7.59-6.4 13.71 0 8.29 8.72 24.53 10.76 24.53 2.04 0 10.76-16.25 10.76-24.54z"/></svg>