<svg xmlns="http://www.w3.org/2000/svg" role="img" viewBox="-14.40 -14.40 748.80 167.80"><title>REST API Specification logo</title><style>svg {enable-background:new 0 0 720 139.4}</style><path fill="#000029" d="M32.2 69.3c-12.3 0-22.8-4-32.2-9.9l5.8-8.8c9.4 6 18.1 8.9 27.8 8.9 11.4 0 16.7-4.4 16.7-9.5 0-14.8-48.1-5.9-48.1-29.5C2.2 9 13.7 0 32.2 0c12.4 0 23.2 4.7 29.6 11l-7.2 7.4C49.1 13.6 40.8 9.8 32 9.8c-10.8 0-18.1 3.9-18.1 9.4 0 13.7 48.2 6.4 48.2 29.6 0 12.3-12.3 20.5-29.9 20.5zM109.3 41v26H97.7V40.9L68.5 2.2h13.6l21.9 30 20.7-30h13.4L109.3 41zm110.2 26V16.2l-3.2 6.9-23 43.9h-7l-22.7-43.9-3.2-6.9V67h-11.2V2.2h16.2l21.8 43.6 3 6.6 3-6.6 21.5-43.6h16V67h-11.2zm74.9-45.5c0-5.3-3.6-9.3-12.5-9.3h-21.5v20.9h22c8.9 0 12-4.3 12-9.5v-2.1zm-13.7 21.1h-20.2V67h-11.7V2.2h31.9c17.7 0 25.5 8 25.5 19.3v1.8c0 11.2-7.8 19.3-25.5 19.3zm89 24.4V39.1h-39V67H319V2.2h11.7v27.4h39V2.2h11.7V67h-11.7zm82.2-36.4c0-11.1-7.7-20.6-21.9-20.6s-21.8 9.5-21.8 20.6v7.9c0 11.1 7.6 20.8 21.8 20.8 14.2 0 21.9-9.7 21.9-20.8v-7.9zM430 69.3c-20.8 0-33.6-14.8-33.6-30.6v-8.1C396.5 14.5 409.2 0 430 0c20.9 0 33.7 14.5 33.7 30.6v8.1c0 15.9-12.8 30.6-33.7 30.6zM531.1 67l-36.3-40.9-4.7-6v47h-11.6V2.2h10.8l35.1 41 4.8 6v-47h11.5V67h-9.6zm61.5-26v26H581V40.9L551.8 2.2h13.6l21.9 30 20.7-30h13.4L592.6 41z"/><path fill="#008fff" d="M4.6 138.7h8.5v-12.3h6.7l8.3 12.3H38l-9.4-13.8c4.9-1.8 8.2-5.7 8.2-11.9v-.1c0-3.6-1.2-6.7-3.3-8.8-2.5-2.5-6.3-3.9-11.2-3.9H4.6v38.5zm8.5-19.8v-11.1h8.4c4.1 0 6.7 1.9 6.7 5.5v.1c0 3.2-2.4 5.5-6.5 5.5h-8.6zm31.3 19.8h29.3v-7.5H52.8v-8.1H71v-7.5H52.8v-7.8h20.6v-7.5h-29v38.4zm50.6.5c8.3 0 14.1-4.3 14.1-11.9v-.1c0-6.7-4.4-9.5-12.2-11.6-6.7-1.7-8.3-2.5-8.3-5.1v-.1c0-1.9 1.7-3.4 5-3.4s6.6 1.4 10 3.8l4.4-6.4c-3.9-3.1-8.7-4.9-14.3-4.9-7.9 0-13.5 4.6-13.5 11.6v.1c0 7.7 5 9.8 12.8 11.8 6.4 1.7 7.8 2.8 7.8 4.9v.1c0 2.3-2.1 3.6-5.6 3.6-4.4 0-8-1.8-11.5-4.7l-5 6c4.6 4.3 10.5 6.3 16.3 6.3zm29.7-.5h8.5V108h11.7v-7.8H113v7.8h11.7v30.7zm39.9 0h8.6l3.5-8.6H193l3.5 8.6h8.9l-16.5-38.8h-7.8l-16.5 38.8zm15.2-16.1l5.1-12.5 5.1 12.5h-10.2zm31.5 16.1h8.5v-11.6h6.4c8.6 0 15.6-4.6 15.6-13.5v-.1c0-7.9-5.6-13.3-14.7-13.3h-15.7v38.5h-.1zm8.5-19.1v-11.8h6.6c4.2 0 6.9 2 6.9 5.8v.1c0 3.3-2.5 5.8-6.7 5.8h-6.8v.1zm28.7 19.1h8.5v-38.5h-8.5v38.5zm48.3.5c8.3 0 14.1-4.3 14.1-11.9v-.1c0-6.7-4.4-9.5-12.2-11.6-6.7-1.7-8.3-2.5-8.3-5.1v-.1c0-1.9 1.7-3.4 5-3.4 3.2 0 6.6 1.4 10 3.8l4.4-6.4c-3.9-3.1-8.7-4.9-14.3-4.9-7.9 0-13.5 4.6-13.5 11.6v.1c0 7.7 5 9.8 12.8 11.8 6.4 1.7 7.8 2.8 7.8 4.9v.1c0 2.3-2.1 3.6-5.6 3.6-4.4 0-8-1.8-11.5-4.7l-5 6c4.6 4.3 10.5 6.3 16.3 6.3zm21.5-.5h8.5v-11.6h6.4c8.6 0 15.6-4.6 15.6-13.5v-.1c0-7.9-5.6-13.3-14.7-13.3h-15.7v38.5h-.1zm8.5-19.1v-11.8h6.6c4.2 0 6.9 2 6.9 5.8v.1c0 3.3-2.5 5.8-6.7 5.8h-6.8v.1zm28.3 19.1h29.3v-7.5h-20.9v-8.1h18.2v-7.5h-18.2v-7.8h20.6v-7.5H355v38.4h.1zm54.9.7c7.4 0 11.8-2.6 15.8-6.9l-5.4-5.4c-3 2.8-5.7 4.5-10.1 4.5-6.6 0-11.2-5.5-11.2-12.1v-.1c0-6.6 4.7-12 11.2-12 3.9 0 6.9 1.7 9.9 4.3l5.4-6.2c-3.6-3.5-7.9-5.9-15.2-5.9-11.8 0-20.1 9-20.1 19.9v.1c0 11 8.4 19.8 19.7 19.8zm23-.7h8.5v-38.5H433v38.5zm18.1 0h8.5v-14.9H478v-7.7h-18.4v-8.2h20.9v-7.7h-29.3v38.5h-.1zm36.5 0h8.5v-38.5h-8.5v38.5zm36.1.7c7.4 0 11.8-2.6 15.8-6.9l-5.4-5.4c-3 2.8-5.7 4.5-10.1 4.5-6.6 0-11.2-5.5-11.2-12.1v-.1c0-6.6 4.7-12 11.2-12 3.9 0 6.9 1.7 9.9 4.3l5.4-6.2c-3.6-3.5-7.9-5.9-15.2-5.9-11.8 0-20.1 9-20.1 19.9v.1c0 11 8.4 19.8 19.7 19.8zm19.3-.7h8.6l3.5-8.6h16.3l3.5 8.6h8.9l-16.5-38.8h-7.8L543 138.7zm15.2-16.1l5.1-12.5 5.1 12.5h-10.2zm35.6 16.1h8.5V108H614v-7.8h-31.9v7.8h11.7v30.7zm27.1 0h8.5v-38.5h-8.5v38.5zm36.8.7c11.9 0 20.5-9 20.5-19.9v-.1c0-11-8.5-19.8-20.4-19.8-11.9 0-20.5 9-20.5 19.9v.1c0 10.9 8.5 19.8 20.4 19.8zm.1-7.9c-6.8 0-11.7-5.5-11.7-12.1v-.1c0-6.6 4.7-12 11.6-12 6.8 0 11.7 5.5 11.7 12.1v.1c0 6.6-4.8 12-11.6 12zm28 7.2h8.4v-24.5l18.7 24.5h7.2v-38.5h-8.4v23.7l-18.1-23.7h-7.8v38.5z"/></svg>