<svg xmlns="http://www.w3.org/2000/svg" role="img" viewBox="-14.57 -14.57 757.64 158.64"><title>S2 Common Components logo</title><style>svg {enable-background:new 0 0 729 129.7}</style><path fill="#000029" d="M30 64.5c-11.4 0-21.2-3.7-30-9.2l5.4-8.2c8.8 5.6 16.8 8.3 25.9 8.3 10.6 0 15.6-4.1 15.6-8.9 0-13.8-44.8-5.5-44.8-27.4C2.1 8.4 12.8 0 30 0c11.6 0 21.6 4.3 27.5 10.2l-6.7 6.9c-5.1-4.4-12.9-8-21-8-10 0-16.8 3.6-16.8 8.8 0 12.8 44.9 6 44.9 27.5-.1 11.4-11.6 19.1-27.9 19.1zm71.7-26.3v24.2H90.9V38.1l-27.2-36h12.7L96.8 30 116 2.1h12.5l-26.8 36.1zm102.6 24.2V15.1l-3 6.4-21.4 40.8h-6.5l-21.1-40.8-3-6.4v47.2h-10.4V2.1H154l20.3 40.5 2.8 6.2 2.8-6.2 20-40.5h14.9v60.3h-10.5zM273.9 20c0-5-3.3-8.7-11.6-8.7h-20v19.5h20.5c8.2 0 11.1-4 11.1-8.9V20zm-12.7 19.6h-18.8v22.7h-10.9V2.1h29.7c16.5 0 23.7 7.4 23.7 17.9v1.6c0 10.5-7.2 18-23.7 18zm82.9 22.8v-26h-36.3v26h-10.9V2.1h10.9v25.5h36.3V2.1H355v60.3h-10.9zm76.4-33.9c0-10.3-7.2-19.2-20.4-19.2s-20.3 8.9-20.3 19.2v7.3c0 10.3 7.1 19.4 20.3 19.4 13.2 0 20.4-9.1 20.4-19.4v-7.3zm-20.3 36C380.8 64.5 369 50.7 369 36v-7.5c0-15 11.9-28.5 31.2-28.5 19.5 0 31.3 13.5 31.3 28.5V36c0 14.8-11.9 28.5-31.3 28.5zm94-2.1l-33.8-38.1-4.3-5.6v43.7h-10.8V2.1h10L488 40.3l4.4 5.6V2.1h10.7v60.3h-8.9zm57.3-24.2v24.2h-10.9V38.1l-27.2-36h12.7L546.5 30l19.3-27.9h12.5l-26.8 36.1z"/><path fill="#008fff" d="M17.1 129.6c7.7 0 13.2-4 13.2-11.1v-.1c0-6.2-4.1-8.9-11.4-10.8-6.2-1.6-7.7-2.4-7.7-4.7v-.1c0-1.7 1.6-3.1 4.6-3.1s6.1 1.3 9.3 3.5l4.1-5.9c-3.6-2.9-8.1-4.6-13.3-4.6-7.3 0-12.5 4.3-12.5 10.8v.1c0 7.1 4.7 9.1 11.9 11 6 1.5 7.2 2.6 7.2 4.6v.1c0 2.1-1.9 3.4-5.2 3.4-4.1 0-7.5-1.7-10.7-4.4l-4.7 5.6c4.2 3.8 9.7 5.7 15.2 5.7zm18.2-.5h26.5v-6.8H46.2l5.8-4.5c6.3-4.9 9.4-7.9 9.4-13.9v-.1c0-6.7-4.9-11.1-12.3-11.1-6.4 0-9.8 2.6-13.4 7.4l5.5 4.5c2.7-3.3 4.6-4.8 7.3-4.8 2.8 0 4.8 1.6 4.8 4.7 0 3-1.7 4.9-6.2 8.6l-11.9 9.8v6.2h.1zm65.8.6c6.9 0 11-2.5 14.7-6.4l-5-5.1c-2.8 2.6-5.3 4.2-9.4 4.2-6.1 0-10.4-5.1-10.4-11.3v-.1c0-6.1 4.4-11.2 10.4-11.2 3.6 0 6.4 1.5 9.2 4l5-5.8c-3.3-3.3-7.4-5.5-14.1-5.5-11 0-18.7 8.3-18.7 18.5v.1c0 10.4 7.8 18.6 18.3 18.6zm37.4 0c11.1 0 19.1-8.3 19.1-18.5v-.2c0-10.2-7.9-18.4-19-18.4s-19.1 8.3-19.1 18.5v.1c0 10.2 8 18.5 19 18.5zm.1-7.3c-6.4 0-10.9-5.1-10.9-11.3v-.1c0-6.1 4.4-11.2 10.8-11.2s10.9 5.1 10.9 11.3v.1c0 6.2-4.4 11.2-10.8 11.2zm26.1 6.7h7.7v-23.2l10 15.2h.2l10.1-15.3v23.4h7.8v-36H192l-9.4 15.2-9.4-15.2h-8.5v35.9zm44.4 0h7.7v-23.2l10 15.2h.2l10.1-15.3v23.4h7.8v-36h-8.5l-9.4 15.2-9.4-15.2h-8.5v35.9zm61.9.6c11.1 0 19.1-8.3 19.1-18.5v-.2c0-10.2-7.9-18.4-19-18.4s-19.1 8.3-19.1 18.5v.1c0 10.2 7.9 18.5 19 18.5zm.1-7.3c-6.4 0-10.9-5.1-10.9-11.3v-.1c0-6.1 4.4-11.2 10.8-11.2s10.9 5.1 10.9 11.3v.1c-.1 6.2-4.5 11.2-10.8 11.2zm26 6.7h7.8v-22.8l17.4 22.8h6.7V93.2h-7.8v22.1l-16.8-22.1h-7.3v35.9zm72.6.6c6.9 0 11-2.5 14.7-6.4l-5-5.1c-2.8 2.6-5.3 4.2-9.4 4.2-6.1 0-10.4-5.1-10.4-11.3v-.1c0-6.1 4.4-11.2 10.4-11.2 3.6 0 6.4 1.5 9.2 4l5-5.8c-3.3-3.3-7.4-5.5-14.1-5.5-11 0-18.7 8.3-18.7 18.5v.1c-.1 10.4 7.8 18.6 18.3 18.6zm37.4 0c11.1 0 19.1-8.3 19.1-18.5v-.2c0-10.2-7.9-18.4-19-18.4s-19.1 8.3-19.1 18.5v.1c0 10.2 7.9 18.5 19 18.5zm.1-7.3c-6.4 0-10.9-5.1-10.9-11.3v-.1c0-6.1 4.4-11.2 10.8-11.2s10.9 5.1 10.9 11.3v.1c0 6.2-4.4 11.2-10.8 11.2zm26 6.7h7.7v-23.2l10 15.2h.2l10.1-15.3v23.4h7.8v-36h-8.5l-9.4 15.2-9.4-15.2h-8.5v35.9zm44.5 0h7.9v-10.8h6c8 0 14.5-4.3 14.5-12.6v-.1c0-7.3-5.2-12.4-13.7-12.4h-14.6v35.9h-.1zm7.9-17.8v-11h6.1c3.9 0 6.4 1.9 6.4 5.4v.1c0 3.1-2.3 5.4-6.3 5.4h-6.2v.1zm43.7 18.4c11.1 0 19.1-8.3 19.1-18.5v-.2c0-10.2-7.9-18.4-19-18.4s-19.1 8.3-19.1 18.5v.1c0 10.2 7.9 18.5 19 18.5zm.1-7.3c-6.4 0-10.9-5.1-10.9-11.3v-.1c0-6.1 4.4-11.2 10.8-11.2s10.9 5.1 10.9 11.3v.1c0 6.2-4.4 11.2-10.8 11.2zm26 6.7h7.8v-22.8l17.4 22.8h6.7V93.2h-7.8v22.1l-16.8-22.1h-7.3v35.9zm40.5 0h27.3v-7h-19.5v-7.5h16.9v-7h-16.9v-7.3h19.2v-7h-27v35.8zm34.3 0h7.8v-22.8l17.4 22.8h6.7V93.2h-7.8v22.1l-16.8-22.1h-7.3v35.9zm48.8 0h7.9v-28.6h10.9v-7.3h-29.7v7.3H679v28.6zm36.8.5c7.7 0 13.2-4 13.2-11.1v-.1c0-6.2-4.1-8.9-11.4-10.8-6.2-1.6-7.7-2.4-7.7-4.7v-.1c0-1.7 1.6-3.1 4.6-3.1 3 0 6.2 1.3 9.3 3.5l4.1-5.9c-3.6-2.9-8.1-4.6-13.3-4.6-7.3 0-12.5 4.3-12.5 10.8v.1c0 7.1 4.7 9.1 11.9 11 6 1.5 7.2 2.6 7.2 4.6v.1c0 2.1-1.9 3.4-5.2 3.4-4.1 0-7.5-1.7-10.7-4.4l-4.7 5.6c4.3 3.8 9.8 5.7 15.2 5.7z"/></svg>