<svg xmlns="http://www.w3.org/2000/svg" role="img" viewBox="27.19 26.69 744.12 664.62"><title>Secure Electron Adapter logo</title><style>svg {enable-background:new 0 0 800 720}</style><style>.st0{fill:#00599c}.st1{fill:#6d6e71}</style><path d="M476.72 164.05l-78.54-24.17c-1.14-.35-2.36-.35-3.5 0l-78.54 24.17c-2.64.8-4.41 3.28-4.29 6.04v45.19c.12 34.06 17.77 65.65 46.7 83.62l34.74 21.33c1.87 1.08 4.17 1.08 6.04 0l34.74-21.33c29.03-17.91 46.77-49.51 46.95-83.62v-45.19c.11-2.76-1.66-5.25-4.3-6.04z" class="st0"/><path d="M504.33 321.28c-13.1 13.97-29.07 25.67-47.67 33.95-19.59 8.72-40.04 12.84-60.15 12.84-45.32-.01-88.92-20.98-117.14-57.53 4.86-4.26 7.65-10.4 7.65-16.77 0-3.01-.62-6.06-1.91-8.96-3.69-8.28-11.83-13.17-20.32-13.15-3.08 0-6.2.64-9.15 1.96-8.32 3.7-13.3 11.85-13.3 20.4 0 3.01.62 6.07 1.92 8.98 3.68 8.25 11.81 13.15 20.31 13.14 1.53 0 3.06-.15 4.59-.48 30.31 40.4 77.89 63.62 127.36 63.61 21.64 0 43.66-4.43 64.71-13.8 20.58-9.18 38.19-22.24 52.5-37.86-3.62-1.21-6.85-3.38-9.4-6.33zm-249.86-22.85c-.65-1.46-.95-2.95-.95-4.43.01-4.24 2.46-8.32 6.66-10.17 1.53-.68 3.09-1 4.61-1 4.27.02 8.29 2.43 10.1 6.51.65 1.45.94 2.93.94 4.42 0 4.21-2.47 8.32-6.69 10.2-1.49.67-3.04.98-4.58.98-4.27-.01-8.29-2.44-10.09-6.51m-6.58-39.09c1.74-.78 3.53-1.33 5.33-1.7-3.29-12.46-4.89-25.07-4.89-37.57.01-56.71 32.74-110.82 87.89-135.36 12.99-5.79 26.35-9.42 39.74-11.29 3.83 7.79 11.68 12.42 19.93 12.41 3.05 0 6.17-.62 9.13-1.94 8.32-3.74 13.31-11.87 13.31-20.43 0-2.99-.61-6.04-1.9-8.96-3.69-8.27-11.83-13.16-20.32-13.15-3.07 0-6.19.64-9.15 1.96-7.91 3.51-12.75 11.05-13.22 19.13-14.19 2.04-28.35 5.93-42.07 12.05-59.32 26.4-94.55 84.6-94.54 145.58 0 14.06 1.91 28.26 5.79 42.26 1.53-1.15 3.15-2.19 4.97-2.99zM385.8 68.14c-.65-1.45-.96-2.94-.96-4.43.01-4.23 2.47-8.32 6.66-10.17 1.53-.69 3.09-.99 4.61-.99 4.27.01 8.29 2.42 10.11 6.51.64 1.43.93 2.92.93 4.41 0 4.22-2.48 8.35-6.68 10.22-1.49.65-3.03.97-4.57.97-4.28-.03-8.31-2.46-10.1-6.52m159.21 208.94c6.98-18.12 10.71-37.49 10.7-57.18 0-21.65-4.43-43.66-13.8-64.69-20.99-47.12-62.05-78.97-108.6-90.1.38 3.84-.29 7.64-1.89 11.06 43 10.5 80.87 40.01 100.27 83.59 8.72 19.59 12.85 40.03 12.85 60.15 0 18.3-3.47 36.31-9.96 53.15-.84-.09-1.68-.18-2.53-.18-3.07 0-6.19.64-9.14 1.96-8.34 3.69-13.32 11.84-13.31 20.39 0 3.02.62 6.09 1.92 9 3.68 8.23 11.8 13.13 20.31 13.12 3.05 0 6.16-.62 9.13-1.94 8.32-3.73 13.31-11.86 13.31-20.42 0-2.99-.61-6.05-1.9-8.96-1.67-3.74-4.27-6.73-7.36-8.95zm-23.28 22.58c-.66-1.46-.96-2.95-.96-4.43.01-4.25 2.47-8.32 6.66-10.17 1.53-.68 3.09-1 4.61-1 4.28.02 8.3 2.42 10.11 6.52.64 1.44.94 2.92.94 4.41 0 4.22-2.47 8.34-6.68 10.21-1.49.66-3.05.97-4.58.97-4.29-.03-8.32-2.46-10.1-6.51" class="st1"/><g><path d="M125.91 494.92v-2.25c0-13.65-3.93-16.46-23.2-16.46-22.63 0-27.12 2.8-27.12 17.02 0 8.98 2.25 13.1 8.23 14.97 3.18.93 4.3.93 23.75 2.06 20.95 1.31 28.06 2.62 34.04 6.92 7.67 5.24 10.29 12.53 10.29 28.43 0 15.52-2.25 23.94-7.67 29.36-7.49 7.29-17.02 9.35-43.02 9.35-22.63 0-30.3-1.31-38.53-6.17-4.67-2.81-8.6-8.79-9.91-15.34-1.12-5.42-1.31-9.16-1.5-19.08h23.01c0 9.35.56 12.53 2.62 15.71 3 5.05 5.99 5.61 25.44 5.61 14.03 0 17.96-.56 21.51-3.37 3.18-2.25 4.49-7.11 4.49-15.71 0-8.23-1.87-12.16-6.92-13.84-3-1.12-3-1.12-23.75-2.43-21.32-1.31-25.81-2.06-32.17-5.05-9.91-4.86-13.84-13.84-13.84-31.05 0-14.78 3.18-23.94 9.91-28.81 7.67-5.8 17.39-7.48 40.59-7.48 23.38 0 33.48 2.43 39.65 9.35 4.86 5.43 7.11 12.91 7.11 23.76v4.49h-23.01zm71.27 15.71h58.17v17.59h-58.17v35.16h61.91v19.83h-85.85V458.45h85.3v19.83h-61.35v32.35zm183.51 28.06v4.3c0 18.71-1.87 25.62-8.61 31.98-3.93 3.74-10.48 6.92-17.39 8.23-3.93.56-14.97 1.12-26 1.12-21.51 0-27.31-.93-35.54-5.61-10.85-5.8-15.53-15.15-16.84-32.92-.56-7.11-.93-22.45-.93-33.85 0-26 2.43-35.54 10.85-43.58 9.35-8.98 18.71-11.04 49.01-11.04 19.83 0 27.68 1.68 34.04 7.11 5.24 4.49 8.42 11.03 9.54 20.2.37 3 .56 6.74.75 15.34h-23.75c-.38-20.01-2.62-22.07-23.94-22.07-15.9 0-22.82 1.31-26.56 4.86-3.18 3.18-4.49 7.67-4.87 17.21-.19 3.18-.19 3.18-.19 20.2 0 40.96 1.68 43.58 28.43 43.58 24.32 0 28.43-3 28.43-19.83 0-1.12 0-2.81-.19-5.24h23.76zm123.84-80.24v83.05c0 15.34-1.87 23.75-6.55 29.93-3.74 4.86-9.16 8.61-16.27 10.66-4.86 1.5-14.59 2.24-28.99 2.24-18.33 0-26.75-.93-34.04-4.12-13.47-5.8-17.77-14.77-17.77-37.41v-84.35h23.94v84.35c0 18.14 3.74 20.95 28.06 20.95 24.31 0 27.68-2.62 27.68-21.88v-83.42h23.94zm26.58 0h61.35c30.11 0 40.4 9.35 40.4 37.22 0 24.87-4.3 31.61-22.44 35.16v.94c14.22.75 21.32 9.16 21.13 24.32v27.12h-24.13v-22.45c.38-13.65-5.42-19.45-18.7-19.08h-33.67v41.52h-23.94V458.45zm57.42 62.84c7.48 0 12.35-1.12 15.15-3.74 3.93-3.18 4.87-6.92 4.87-17.58 0-17.58-3-20.95-18.33-20.95h-35.17v42.27h33.48zm90.36-10.66h58.17v17.59h-58.17v35.16h61.91v19.83h-85.85V458.45h85.3v19.83H678.9v32.35z" class="st0"/><path d="M69.99 676.74H41.66v-49.2H70v8.55H52.1v10.8h16.66v8.55H52.09v12.69h17.9v8.61zm11.99 0v-49.2h10.43v40.59h19.96v8.62H81.98zm68.99 0h-28.34v-49.2h28.34v8.55h-17.9v10.8h16.66v8.55h-16.66v12.69h17.9v8.61zm32.89-41.23c-3.93 0-6.97 1.48-9.12 4.43-2.15 2.95-3.23 7.06-3.23 12.33 0 10.97 4.12 16.46 12.35 16.46 3.46 0 7.64-.87 12.55-2.59v8.75c-4.04 1.68-8.55 2.52-13.53 2.52-7.16 0-12.63-2.17-16.42-6.51-3.79-4.35-5.69-10.58-5.69-18.7 0-5.12.93-9.6 2.79-13.45 1.86-3.85 4.54-6.8 8.03-8.85 3.49-2.06 7.58-3.08 12.26-3.08 4.78 0 9.58 1.15 14.4 3.47l-3.37 8.48c-1.84-.88-3.69-1.64-5.55-2.29-1.85-.64-3.68-.97-5.47-.97zm43.72 41.23h-10.43v-40.52h-13.36v-8.68h37.15v8.68h-13.36v40.52zm33.09-18.88v18.88h-10.43v-49.2h14.34c6.69 0 11.63 1.22 14.84 3.65 3.21 2.43 4.81 6.13 4.81 11.09 0 2.89-.8 5.47-2.39 7.72-1.59 2.26-3.85 4.02-6.76 5.3 7.4 11.06 12.23 18.21 14.47 21.44h-11.58l-11.74-18.88h-5.56zm0-8.48h3.37c3.3 0 5.73-.55 7.3-1.65 1.57-1.1 2.36-2.83 2.36-5.18 0-2.33-.8-4-2.41-4.98-1.6-.99-4.09-1.48-7.45-1.48h-3.16v13.29zm81.44 2.69c0 8.14-2.02 14.4-6.06 18.78-4.04 4.37-9.83 6.56-17.36 6.56s-13.33-2.19-17.36-6.56c-4.04-4.37-6.06-10.66-6.06-18.85 0-8.19 2.02-14.44 6.07-18.76 4.05-4.32 9.86-6.48 17.42-6.48 7.56 0 13.34 2.18 17.35 6.53 4 4.35 6 10.61 6 18.78zm-35.9 0c0 5.5 1.04 9.63 3.13 12.42 2.09 2.78 5.21 4.17 9.36 4.17 8.32 0 12.49-5.53 12.49-16.59 0-11.08-4.14-16.62-12.42-16.62-4.15 0-7.28 1.4-9.39 4.19-2.12 2.79-3.17 6.94-3.17 12.43zm91.47 24.67h-13.26l-21.4-37.22h-.3c.43 6.57.64 11.26.64 14.07v23.15h-9.32v-49.2h13.16l21.37 36.85h.24c-.34-6.39-.5-10.91-.5-13.56v-23.29h9.39v49.2zm72.26 0l-3.57-11.71h-17.94l-3.57 11.71h-11.24l17.36-49.4h12.75l17.43 49.4h-11.22zm-6.05-20.46c-3.3-10.61-5.15-16.61-5.57-18-.41-1.39-.71-2.49-.89-3.3-.74 2.87-2.86 9.97-6.36 21.3h12.82zm66.03-4.61c0 8.1-2.3 14.3-6.92 18.61-4.61 4.31-11.26 6.46-19.97 6.46H489.1v-49.2h15.45c8.03 0 14.27 2.12 18.71 6.36 4.44 4.24 6.66 10.16 6.66 17.77zm-10.84.27c0-10.57-4.67-15.85-14-15.85h-5.55v32.04h4.48c10.05-.01 15.07-5.4 15.07-16.19zm52.88 24.8l-3.57-11.71h-17.94l-3.57 11.71h-11.24l17.36-49.4h12.75l17.43 49.4h-11.22zm-6.06-20.46c-3.3-10.61-5.15-16.61-5.57-18-.41-1.39-.71-2.49-.89-3.3-.74 2.87-2.86 9.97-6.36 21.3h12.82zm59.2-13.4c0 5.29-1.65 9.35-4.96 12.15-3.31 2.8-8.02 4.21-14.12 4.21h-4.48v17.5h-10.43v-49.2h15.72c5.97 0 10.5 1.28 13.61 3.86 3.11 2.56 4.66 6.39 4.66 11.48zm-23.55 7.81h3.43c3.21 0 5.61-.63 7.2-1.9 1.59-1.26 2.39-3.11 2.39-5.53 0-2.45-.67-4.25-2-5.42s-3.42-1.75-6.27-1.75h-4.74v14.6zm53.55 26.05h-10.43v-40.52H631.3v-8.68h37.15v8.68H655.1v40.52zm50.99 0h-28.34v-49.2h28.34v8.55h-17.9v10.8h16.66v8.55h-16.66v12.69h17.9v8.61zm22.41-18.88v18.88h-10.43v-49.2h14.34c6.69 0 11.63 1.22 14.84 3.65 3.21 2.43 4.81 6.13 4.81 11.09 0 2.89-.8 5.47-2.39 7.72-1.59 2.26-3.85 4.02-6.76 5.3 7.4 11.06 12.23 18.21 14.47 21.44H745.8l-11.74-18.88h-5.56zm0-8.48h3.37c3.3 0 5.73-.55 7.3-1.65 1.57-1.1 2.36-2.83 2.36-5.18 0-2.33-.8-4-2.41-4.98-1.6-.99-4.09-1.48-7.45-1.48h-3.16v13.29z" class="st1"/></g></svg>