<svg xmlns="http://www.w3.org/2000/svg" role="img" xmlns:xlink="http://www.w3.org/1999/xlink" viewBox="-10.80 -10.80 435.10 561.60"><title>Security Reference Data logo</title><style>svg {enable-background:new 0 0 413.75 540.16}</style><style>.st0{fill:#041e42}.st1{fill:#0047bb}</style><path d="M23.15 539.26c5.55-.03 10.59-1.36 15.1-3.99s8.01-6.28 10.49-10.93c2.48-4.66 3.73-9.93 3.73-15.8v-2.95c-.03-5.82-1.32-11.07-3.86-15.76s-6.08-8.32-10.6-10.89c-4.53-2.57-9.63-3.86-15.3-3.86H2.03v64.19h21.12v-.01zm-.45-52.24c4.56 0 8.02 1.57 10.4 4.72 2.38 3.14 3.57 7.82 3.57 14.02v2.78c0 6.23-1.19 10.93-3.57 14.09s-5.79 4.74-10.23 4.74H17.5v-40.34l5.2-.01zm78.74 52.24v-.75c-1.29-2.32-1.97-5.67-2.03-10.05v-21.12c-.09-5.17-1.9-9.24-5.42-12.21-3.53-2.97-8.33-4.45-14.42-4.45s-11.09 1.44-15.01 4.32c-3.92 2.88-5.89 6.62-5.89 11.23h14.86c0-3.48 1.76-5.23 5.29-5.23 3.79 0 5.69 2.2 5.69 6.6v2.53h-4.58c-7.29 0-12.84 1.32-16.66 3.97-3.82 2.64-5.73 6.55-5.73 11.73 0 4.11 1.57 7.53 4.72 10.25 3.14 2.72 6.97 4.08 11.46 4.08 4.91 0 8.73-1.72 11.46-5.16.41 1.88.88 3.31 1.41 4.28h14.85v-.02zM73.8 528.31c-.91-.84-1.37-1.93-1.37-3.28 0-4.64 2.59-6.97 7.76-6.97h4.32v7.63c-.53 1-1.4 1.9-2.62 2.69s-2.76 1.19-4.61 1.19c-1.41 0-2.57-.42-3.48-1.26zm36.28-48.61v11.86H104v10.32h6.08v23.67c0 4.91 1.22 8.57 3.66 10.98s6.22 3.61 11.33 3.61c2.91 0 5.7-.43 8.38-1.28v-10.62c-1 .18-2.23.27-3.7.27-1.91 0-3.19-.35-3.84-1.06-.65-.71-.97-1.95-.97-3.75v-21.82h7.85v-10.32h-7.85V479.7h-14.86zm70.28 59.56v-.75c-1.29-2.32-1.97-5.67-2.03-10.05v-21.12c-.09-5.17-1.9-9.24-5.42-12.21-3.53-2.97-8.33-4.45-14.42-4.45-6.08 0-11.09 1.44-15.01 4.32s-5.89 6.62-5.89 11.23h14.86c0-3.48 1.76-5.23 5.29-5.23 3.79 0 5.69 2.2 5.69 6.6v2.53h-4.58c-7.29 0-12.84 1.32-16.67 3.97-3.82 2.64-5.73 6.55-5.73 11.73 0 4.11 1.57 7.53 4.72 10.25s6.97 4.08 11.46 4.08c4.91 0 8.73-1.72 11.46-5.16.41 1.88.88 3.31 1.41 4.28h14.86v-.02zm-27.64-10.95c-.91-.84-1.37-1.93-1.37-3.28 0-4.64 2.59-6.97 7.76-6.97h4.32v7.63c-.53 1-1.4 1.9-2.62 2.69s-2.76 1.19-4.61 1.19c-1.41 0-2.57-.42-3.48-1.26z" class="st0"/><path d="M37.21 456.8h16.58v-.66l-13.4-25.92c3.85-1.82 6.68-4.2 8.49-7.13 1.81-2.94 2.71-6.64 2.71-11.1 0-6.17-2.15-10.94-6.44-14.31-4.29-3.38-10.24-5.07-17.85-5.07H2.03v64.19H17.5v-22.7h8.38l11.33 22.7zM17.5 404.52h9.79c2.91 0 5.11.79 6.61 2.36 1.5 1.58 2.25 3.75 2.25 6.52s-.74 4.93-2.23 6.48c-1.48 1.55-3.7 2.32-6.63 2.32H17.5v-17.68zm76.78 50.9c3.39-1.51 6.02-3.55 7.87-6.11l-6.79-8.02c-2.64 3.29-6.32 4.94-11.02 4.94-2.85 0-5.17-.76-6.97-2.29-1.79-1.53-2.95-3.63-3.48-6.31h29.54v-5.77c0-7.43-1.94-13.23-5.82-17.39s-9.17-6.24-15.87-6.24c-4.76 0-8.88 1.02-12.34 3.06-3.47 2.04-6.11 4.93-7.91 8.66-1.81 3.73-2.71 8.04-2.71 12.92v1.23c0 7 2.26 12.67 6.79 17.04 4.53 4.36 10.45 6.55 17.77 6.55 3.89 0 7.54-.76 10.94-2.27zm-7.21-33.77c1.26 1.31 1.87 3.15 1.81 5.53v1.15H73.89c.82-5.76 3.41-8.64 7.76-8.64 2.35-.01 4.16.65 5.42 1.96zm40.52 35.15v-37.38h9.3V409.1h-9.3v-3.66c0-3.88 2.25-5.82 6.74-5.82 1.53 0 2.75.13 3.66.4l-.04-10.93c-2.53-.62-4.85-.93-6.97-.93-5.79 0-10.29 1.5-13.49 4.5s-4.81 7.22-4.81 12.65v3.79h-6.92v10.32h6.92v37.38h14.91zm47.5-1.38c3.39-1.51 6.02-3.55 7.87-6.11l-6.79-8.02c-2.65 3.29-6.32 4.94-11.02 4.94-2.85 0-5.17-.76-6.96-2.29s-2.95-3.63-3.48-6.31h29.54v-5.77c0-7.43-1.94-13.23-5.82-17.39s-9.17-6.24-15.87-6.24c-4.76 0-8.88 1.02-12.34 3.06-3.47 2.04-6.11 4.93-7.91 8.66-1.81 3.73-2.71 8.04-2.71 12.92v1.23c0 7 2.26 12.67 6.79 17.04 4.52 4.36 10.45 6.55 17.77 6.55 3.88 0 7.53-.76 10.93-2.27zm-7.21-33.77c1.26 1.31 1.87 3.15 1.81 5.53v1.15H154.7c.82-5.76 3.41-8.64 7.76-8.64 2.35-.01 4.16.65 5.42 1.96zm51.45-12.9c-1.17-.35-2.56-.53-4.14-.53-4.47 0-7.95 2.34-10.45 7.01l-.49-6.13h-13.93v47.7h14.86v-30.2c1.32-2.94 4.32-4.41 8.99-4.41l4.89.35.27-13.79zm38.29 46.67c3.39-1.51 6.02-3.55 7.87-6.11l-6.79-8.02c-2.65 3.29-6.32 4.94-11.02 4.94-2.85 0-5.17-.76-6.97-2.29-1.79-1.53-2.95-3.63-3.48-6.31h29.54v-5.77c0-7.43-1.94-13.23-5.82-17.39s-9.17-6.24-15.87-6.24c-4.76 0-8.88 1.02-12.34 3.06-3.47 2.04-6.11 4.93-7.91 8.66-1.81 3.73-2.71 8.04-2.71 12.92v1.23c0 7 2.26 12.67 6.79 17.04 4.53 4.36 10.45 6.55 17.77 6.55 3.89 0 7.54-.76 10.94-2.27zm-7.21-33.77c1.26 1.31 1.87 3.15 1.81 5.53v1.15h-14.99c.82-5.76 3.41-8.64 7.76-8.64 2.35-.01 4.16.65 5.42 1.96zm22.04-12.55v47.7h14.86v-33.68c1.41-2.29 3.57-3.44 6.48-3.44 2.56 0 4.32.57 5.29 1.7s1.45 2.9 1.45 5.31v30.11h14.9v-30.73c-.09-5.97-1.36-10.43-3.81-13.4s-6.16-4.45-11.13-4.45c-5.79 0-10.33 2.16-13.62 6.48l-.48-5.6h-13.94zm65.91 34.35c-1.15-1.85-1.72-5.17-1.72-9.96 0-2.73.1-4.88.31-6.44.65-4.91 2.89-7.36 6.74-7.36 2.03 0 3.64.66 4.85 1.98 1.2 1.32 1.81 3.22 1.81 5.69h13.93c0-5.88-1.82-10.54-5.47-13.98-3.64-3.44-8.57-5.16-14.77-5.16-4.58 0-8.55.99-11.9 2.98-3.35 1.98-5.92 4.82-7.69 8.51-1.78 3.69-2.67 7.94-2.67 12.76v.62c0 7.7 2 13.73 6 18.08 4 4.35 9.46 6.52 16.4 6.52 5.91 0 10.73-1.68 14.48-5.03s5.62-7.64 5.62-12.87h-13.93c.03 2.03-.53 3.61-1.67 4.74-1.15 1.13-2.76 1.7-4.85 1.7-2.5-.01-4.32-.93-5.47-2.78zm66.24 11.97c3.4-1.51 6.02-3.55 7.87-6.11l-6.79-8.02c-2.65 3.29-6.32 4.94-11.02 4.94-2.85 0-5.17-.76-6.97-2.29-1.79-1.53-2.95-3.63-3.48-6.31h29.54v-5.77c0-7.43-1.94-13.23-5.82-17.39s-9.17-6.24-15.87-6.24c-4.76 0-8.88 1.02-12.34 3.06-3.47 2.04-6.11 4.93-7.91 8.66-1.81 3.73-2.71 8.04-2.71 12.92v1.23c0 7 2.26 12.67 6.79 17.04 4.53 4.36 10.45 6.55 17.77 6.55 3.9 0 7.55-.76 10.94-2.27zm-7.21-33.77c1.26 1.31 1.87 3.15 1.81 5.53v1.15h-14.99c.82-5.76 3.41-8.64 7.76-8.64 2.35-.01 4.16.65 5.42 1.96z" class="st1"/><path d="M32.91 361.93c-1.48 1.1-3.5 1.65-6.06 1.65-4 0-6.89-.82-8.66-2.45-1.78-1.63-2.67-4.17-2.67-7.6H0c0 4.23 1.06 7.97 3.2 11.22 2.13 3.25 5.3 5.81 9.52 7.67 4.22 1.87 8.93 2.8 14.13 2.8 7.38 0 13.18-1.6 17.41-4.81 4.23-3.2 6.35-7.61 6.35-13.23 0-7.02-3.47-12.54-10.4-16.53-2.85-1.65-6.5-3.18-10.93-4.61-4.44-1.42-7.54-2.81-9.3-4.14-1.76-1.34-2.65-2.83-2.65-4.48 0-1.88.8-3.43 2.4-4.65s3.78-1.83 6.55-1.83c2.73 0 4.9.72 6.5 2.16 1.6 1.44 2.4 3.47 2.4 6.08h15.43c0-3.91-1.01-7.38-3.04-10.43-2.03-3.04-4.87-5.39-8.53-7.03-3.66-1.65-7.8-2.47-12.41-2.47-4.73 0-8.99.76-12.78 2.27-3.79 1.51-6.72 3.63-8.8 6.35-2.07 2.72-3.11 5.86-3.11 9.41 0 7.14 4.16 12.76 12.48 16.84 2.56 1.26 5.85 2.57 9.88 3.92s6.84 2.66 8.44 3.92c1.6 1.26 2.4 3.03 2.4 5.29 0 2.03-.75 3.58-2.23 4.68zm58.99 11.03c3.39-1.51 6.02-3.55 7.87-6.11l-6.79-8.02c-2.65 3.29-6.32 4.94-11.02 4.94-2.85 0-5.17-.76-6.96-2.29s-2.95-3.63-3.48-6.3h29.54v-5.78c0-7.43-1.94-13.23-5.82-17.39-3.88-4.16-9.17-6.24-15.87-6.24-4.76 0-8.88 1.02-12.34 3.06-3.47 2.04-6.11 4.93-7.91 8.66-1.81 3.73-2.71 8.04-2.71 12.92v1.23c0 7 2.26 12.68 6.79 17.04 4.53 4.36 10.45 6.55 17.77 6.55 3.88 0 7.53-.76 10.93-2.27zm-7.21-33.77c1.26 1.31 1.87 3.15 1.81 5.53v1.15H71.51c.82-5.76 3.41-8.64 7.76-8.64 2.35-.01 4.16.65 5.42 1.96zm37.03 21.8c-1.15-1.85-1.72-5.17-1.72-9.96 0-2.73.1-4.88.31-6.44.65-4.91 2.89-7.36 6.75-7.36 2.03 0 3.64.66 4.85 1.98 1.2 1.32 1.81 3.22 1.81 5.69h13.93c0-5.88-1.82-10.54-5.47-13.97-3.64-3.44-8.57-5.16-14.77-5.16-4.58 0-8.55.99-11.9 2.98-3.35 1.98-5.91 4.82-7.69 8.51-1.78 3.69-2.67 7.94-2.67 12.76v.62c0 7.7 2 13.73 6 18.08 4 4.35 9.46 6.52 16.4 6.52 5.91 0 10.73-1.68 14.48-5.03s5.62-7.64 5.62-12.87h-13.93c.03 2.03-.53 3.61-1.68 4.74s-2.76 1.7-4.85 1.7c-2.5-.02-4.32-.94-5.47-2.79zm61.06 13.35h13.93v-47.7h-14.94v33.46c-1.44 2.44-3.87 3.66-7.27 3.66-3.97 0-5.95-2.04-5.95-6.13v-30.99h-14.86v30.9c0 5.7 1.34 10.07 4.03 13.12 2.69 3.04 6.65 4.56 11.88 4.56 5.35 0 9.6-2.01 12.74-6.04l.44 5.16zm51.19-48.05c-1.18-.35-2.56-.53-4.14-.53-4.47 0-7.95 2.34-10.45 7.01l-.48-6.13h-13.93v47.7h14.86v-30.2c1.32-2.94 4.32-4.41 8.99-4.41l4.89.35.26-13.79zm20.76.35h-14.9v47.7h14.9v-47.7zm-13.49-7.09c1.53 1.35 3.51 2.03 5.95 2.03s4.42-.68 5.95-2.03 2.29-3.09 2.29-5.2c0-2.12-.76-3.85-2.29-5.2s-3.51-2.03-5.95-2.03-4.42.68-5.95 2.03-2.29 3.09-2.29 5.2c0 2.11.76 3.84 2.29 5.2zm25.09-4.77v11.86h-6.08v10.32h6.08v23.67c0 4.91 1.22 8.57 3.66 10.98s6.22 3.61 11.33 3.61c2.91 0 5.7-.43 8.38-1.28v-10.62c-1 .18-2.23.26-3.7.26-1.91 0-3.19-.35-3.84-1.06s-.97-1.95-.97-3.75v-21.82h7.85v-10.31h-7.85v-11.86h-14.86zm40.07 11.86h-15.87l16.58 48.18-1.19 3.18c-.53 1.56-1.35 2.64-2.45 3.24-1.1.6-2.7.9-4.78.9h-1.94v10.58c2.15.59 4.19.88 6.13.88 7 0 11.87-3.09 14.64-9.26l.84-2.03 19.44-55.68h-15.92l-7.93 26.89-7.55-26.88z" class="st0"/><defs><path id="SVGID_1_" d="M209.31 218.27v-8.61c-14.37-8.43-47.62-18.79-72.4-25.84v22.06c0 5.42-1.54 6.97-6.94 6.97H80.32c-5.38 0-6.92-1.55-6.92-6.97v-14.79l-17.76-4.84C23.5 177.43 5.79 171.29 1 146.45v71.83c0 35.6 16.94 52.63 52.37 52.63h103.58c35.42-.03 52.36-17.05 52.36-52.64z"/></defs><clipPath id="SVGID_2_"><use overflow="visible" xlink:href="#SVGID_1_"/></clipPath><g clip-path="url(#SVGID_2_)"><defs><path id="SVGID_3_" d="M.99 146.44h208.32V270.9H.99z"/></defs><linearGradient id="SVGID_4_" x1=".991" x2="209.309" y1="208.669" y2="208.669" gradientUnits="userSpaceOnUse"><stop offset="0" stop-color="#0047bb"/><stop offset="1" stop-color="#041e42"/></linearGradient><use fill="url(#SVGID_4_)" overflow="visible" xlink:href="#SVGID_3_"/><clipPath id="SVGID_5_"><use overflow="visible" xlink:href="#SVGID_3_"/></clipPath></g><path d="M189.38 125.31h-.25v16.87h15.73c-3.28-7.44-8.41-12.71-15.48-16.87zm-21.51-4.38h12.5c-3.8-1.55-7.94-2.98-12.5-4.37v4.37zm-4.37 0v-5.65c-3.08-.88-6.25-1.77-9.64-2.67l-7.23-1.95v10.28h16.87v-.01zm-21.24 0v-11.44l-16.87-4.57v16.01zm-42.5-21.25V98l-.2-.05c-3.27-.87-7.51-2-12.39-3.34l-4.29-1.16v6.25h16.87v-.02zm-21.25-7.51c-5.29-1.51-11-3.16-16.87-4.93v12.44h16.87v-7.51zm-21.25 7.51V85.92c-3.29-1.01-6.6-2.05-9.9-3.11h-6.97v16.87h16.87zM19.14 78.44H34.3c-5.4-1.88-10.52-3.78-15.15-5.66v5.66h-.01zm-4.37 0v-7.5c-5.42-2.36-9.95-4.65-13.01-6.78v14.27h13.01v.01zm0 46.87H5.93c2.11 5.02 5.04 9.08 8.82 12.44v-12.44h.02zm0-21.26H1.89c.25 6.55 1.08 12.11 2.49 16.87h10.39v-16.87zm0-21.24H1.76v16.87h13.01zm4.37 16.87h16.87V82.81H19.14zm16.87 4.37H19.14v16.88h16.87zm-16.87 21.26v15.84c.54.36 1.13.69 1.69 1.03h15.19v-16.87H19.14zm16.87 21.24h-6.6c2.08.88 4.27 1.73 6.6 2.55v-2.55zm4.37-25.62h16.88v-16.88H40.38zm16.88 4.38H40.38v16.87h16.88zm-16.88 21.24v4.04c5.11 1.65 10.67 3.26 16.82 4.96l.05.02v-9.03H40.38v.01zm21.26 0v10.23l16.87 4.65v-14.88zm16.87-21.24H61.64v16.87h16.87zm-16.87-4.38h16.87v-16.88H61.64zm21.24 0h16.88v-16.88H82.88zm16.88 4.38H82.88v16.87h16.88zm-16.88 21.24v16.09l2.85.79h14.03v-16.88zm38.12 0h-16.87v16.88H121zm-16.87-25.62H121v-16.88h-16.87zm16.87 4.38h-16.87v16.87H121zm-16.87 42.49v.7l9.05 2.49c2.14.56 4.81 1.28 7.82 2.09v-5.29l-16.87.01zm21.26-25.62h16.87v-16.87h-16.87zm16.87 4.37h-16.87v16.88h16.87zm-16.87 21.25v6.48c5.01 1.37 10.74 2.98 16.87 4.76V167.8h-16.87zm21.24-25.62h16.87v-16.87h-16.87zm16.87 4.37h-16.87v16.88h16.87zm-16.87 21.25v12.52c4.68 1.37 9.51 2.85 14.35 4.35h2.52V167.8h-16.87zm38.13 0h-16.89v16.89h16.89zm-16.89-25.62h16.89v-16.87h-16.89zm16.89 4.37h-16.89v16.88h16.89zm0 42.51h-10.29c3.53 1.19 6.96 2.39 10.28 3.6v-3.6h.01zm4.37 0v5.22c6.51 2.47 12.29 4.93 16.87 7.28v-12.5h-16.87zM206 167.8h-16.87v16.89H206zm-16.87-4.37H206v-16.88h-16.87z" class="st1"/><g><defs><path id="SVGID_6_" d="M204.69 112.14V52.63c0-35.6-16.94-52.63-52.37-52.63H54.13C18.7 0 1.76 17.02 1.76 52.63v5.19c11.98 8.4 46.18 19.26 72.39 26.81V65.02c0-5.42 1.54-6.97 6.94-6.97h44.29c5.38 0 6.94 1.55 6.94 6.97v12.14l21.57 5.83c26.71 7.12 43.34 12.75 50.8 29.15z"/></defs><clipPath id="SVGID_7_"><use overflow="visible" xlink:href="#SVGID_6_"/></clipPath><g clip-path="url(#SVGID_7_)"><defs><path id="SVGID_8_" d="M1.76 0h202.93v112.14H1.76z"/></defs><linearGradient id="SVGID_9_" x1="204.694" x2="1.76" y1="56.069" y2="56.069" gradientUnits="userSpaceOnUse"><stop offset="0" stop-color="#0047bb"/><stop offset="1" stop-color="#041e42"/></linearGradient><use fill="url(#SVGID_9_)" overflow="visible" xlink:href="#SVGID_8_"/><clipPath id="SVGID_10_"><use overflow="visible" xlink:href="#SVGID_8_"/></clipPath></g></g></svg>