<svg xmlns="http://www.w3.org/2000/svg" role="img" viewBox="-14.39 -14.39 748.28 433.78"><title>Spring Bot logo</title><style>svg {enable-background:new 0 0 719.7 405.2}</style><style>.st0{fill:#09f}.st1{fill:#000029}</style><path d="M494.1 131.4c-2.7-9.5-9.4-17.8-13.7-15-7.9-15.5-19.1-29.1-32.7-39.8l16.1-39.4c7.6.7 15.2-3.2 18.7-10.6 4.3-9.3.3-20.4-9-24.7-9.3-4.3-20.4-.3-24.7 9-3.4 7.3-1.6 15.7 3.9 21.1L434 67.3C416.3 57 396 51 374.2 51h-9.9v156.6h128.9v-34.9c9.2-1.8 3.6-31.8.9-41.3zm-56.8 7.8v.2c0 3.7-.8 7.2-2.1 10.4-4.3 10.5-14.5 17.9-26.6 17.9-15.9 0-28.7-12.9-28.7-28.7 0-15.9 12.9-28.7 28.7-28.7 15.9 0 28.7 12.9 28.7 28.7v.2z" class="st0"/><path d="M230.1 131.4c2.7-9.5 9.4-17.8 13.7-15 7.9-15.5 19.1-29.1 32.7-39.8l-16.1-39.4c-7.6.7-15.2-3.2-18.7-10.6-4.3-9.3-.3-20.4 9-24.7 9.3-4.3 20.4-.3 24.7 9 3.4 7.3 1.6 15.7-3.9 21.1l18.7 35.3C307.8 57 328.2 51 350 51h9.9v156.6h-129v-34.9c-9.2-1.8-3.5-31.8-.8-41.3zm56.7 7.8v.2c0 3.7.8 7.2 2.1 10.4 4.3 10.5 14.5 17.9 26.6 17.9 15.9 0 28.7-12.9 28.7-28.7 0-15.9-12.9-28.7-28.7-28.7-15.9 0-28.7 12.9-28.7 28.7v.2z" class="st1"/><path d="M131.9 405.1c4 0 7.2-1.1 9.5-3.4 2.2-2.2 3.4-5.4 3.4-9.7v-23.8h-8.2v23.5c0 4.2-1.9 6-4.9 6-2.5 0-4.6-1.4-6.7-3.6l-5 5.6c2.4 2.9 6.2 5.4 11.9 5.4zm24.4-.5h8.2l3.3-8.2h15.4l3.3 8.2h8.4l-15.6-36.7h-7.4l-15.6 36.7zm14.4-15.2l4.8-11.8 4.8 11.8h-9.6zm44 15.5h7.1l14.7-36.7h-8.6l-9.5 25.6-9.5-25.6H200l14.7 36.7zm26.9-.3h8.2l3.3-8.2h15.4l3.3 8.2h8.4l-15.6-36.7h-7.4l-15.6 36.7zm14.4-15.2l4.8-11.8 4.8 11.8H256zm69.6 15.2h8v-29h11.1v-7.4h-30.2v7.4h11.1v29zm49.1.6c11.2 0 19.4-8.5 19.4-18.8v-.1c0-10.4-8.1-18.7-19.3-18.7-11.2 0-19.4 8.5-19.4 18.8v.1c0 10.3 8.1 18.7 19.3 18.7zm.1-7.4c-6.5 0-11-5.2-11-11.5v-.1c0-6.2 4.5-11.3 10.9-11.3 6.5 0 11 5.2 11 11.4v.1c.1 6.3-4.4 11.4-10.9 11.4zm52 7.4c11.2 0 19.4-8.5 19.4-18.8v-.1c0-10.4-8.1-18.7-19.3-18.7-11.2 0-19.4 8.5-19.4 18.8v.1c0 10.3 8 18.7 19.3 18.7zm.1-7.4c-6.5 0-11-5.2-11-11.5v-.1c0-6.2 4.5-11.3 10.9-11.3 6.5 0 11 5.2 11 11.4v.1c0 6.3-4.5 11.4-10.9 11.4zm34.2 6.8h26.2v-7.3h-18.2v-29.1h-8v36.4zm40 0h8v-11.1l4.2-4.4 11.3 15.5h9.6l-15.5-21 14.8-15.4h-9.7L509 384.1v-15.9h-8v36.4h.1zm46.2 0h8v-36.4h-8v36.4zm33.4 0h8v-29h11.1v-7.4h-30.2v7.4h11.1v29z" class="st0"/><path d="M37.3 343.7c-14.2 0-26.4-4.6-37.3-11.5L6.8 322c10.9 7 21 10.4 32.2 10.4 13.2 0 19.4-5.1 19.4-11 0-17.1-55.8-6.9-55.8-34.1 0-13.3 13.3-23.8 34.7-23.8 14.4 0 26.9 5.4 34.2 12.7l-8.3 8.6c-6.3-5.5-16-9.9-26.1-9.9-12.5 0-21 4.5-21 10.9 0 15.9 55.9 7.4 55.9 34.2 0 14.1-14.3 23.7-34.7 23.7zm89.3-32.8V341h-13.5v-30.2L79.3 266h15.8l25.3 34.7 24-34.7H160l-33.4 44.9zM254.2 341v-58.8l-3.7 8-26.6 50.8h-8.1l-26.2-50.8-3.7-8V341h-13v-75h18.8l25.2 50.5 3.5 7.7 3.5-7.7 24.9-50.5h18.6v75h-13.2zm86.7-52.7c0-6.2-4.2-10.8-14.4-10.8h-24.9v24.2h25.5c10.2 0 13.9-5 13.9-11v-2.4h-.1zm-15.8 24.4h-23.4V341h-13.5v-75h36.9c20.5 0 29.5 9.2 29.5 22.3v2c0 13.1-9 22.4-29.5 22.4zM428.2 341v-32.3H383V341h-13.5v-75H383v31.8h45.2V266h13.5v75h-13.5zm95.2-42.1c0-12.8-8.9-23.9-25.3-23.9-16.5 0-25.2 11-25.2 23.9v9.1c0 12.8 8.8 24.1 25.2 24.1s25.3-11.3 25.3-24.1v-9.1zM498 343.7c-24.1 0-38.9-17.1-38.9-35.5v-9.4c0-18.7 14.8-35.5 38.9-35.5 24.2 0 39 16.8 39 35.5v9.4c0 18.4-14.8 35.5-39 35.5zm117-2.7l-42-47.4-5.4-7V341h-13.4v-75h12.5l40.7 47.5 5.5 7V266h13.3v75H615zm71.4-30.1V341h-13.5v-30.2L639 266h15.8l25.3 34.7 24-34.7h15.5l-33.2 44.9z" class="st1"/></svg>