<svg xmlns="http://www.w3.org/2000/svg" role="img" viewBox="-14.43 -14.43 750.36 530.86"><title>Spring Bot logo</title><style>svg {enable-background:new 0 0 721.8 502.2}</style><style>.st0{fill:#a7a8a9}</style><path d="M542.3 180.5c-3.7-13.1-12.9-24.5-18.8-20.6-10.9-21.3-26.2-40-44.9-54.7l22-54.2c10.5 1 20.9-4.5 25.6-14.6 6-12.8.4-28-12.4-34s-28-.4-34 12.4c-4.7 10.1-2.2 21.6 5.3 29l-25.6 48.5c-24.1-14-52.1-22.2-82-22.2H364v215.2h177.1v-48c12.6-2.6 4.9-43.7 1.2-56.8zm-78 10.7v.3c0 5.1-1.1 9.9-2.9 14.3-5.9 14.4-20 24.6-36.5 24.6-21.8 0-39.4-17.7-39.4-39.4s17.7-39.4 39.4-39.4c21.8 0 39.4 17.7 39.4 39.4v.2z" class="st0"/><path fill="#00b5e2" d="M179.6 180.5c3.7-13.1 12.9-24.5 18.8-20.6 10.9-21.3 26.2-40 44.9-54.7l-22-54.2c-10.5 1-20.9-4.5-25.6-14.6-6-12.8-.4-28 12.4-34s28-.4 34 12.4c4.7 10.1 2.2 21.6-5.3 29l25.6 48.5c24.1-14 52.1-22.2 82-22.2H358v215.2H180.7v-48c-12.6-2.6-4.9-43.7-1.1-56.8zm77.9 10.7v.3c0 5.1 1.1 9.9 2.9 14.3 5.9 14.4 20 24.6 36.5 24.6 21.8 0 39.4-17.7 39.4-39.4s-17.7-39.4-39.4-39.4c-21.8 0-39.4 17.7-39.4 39.4v.2zm295.1 217V391c0-17.2-12.1-26.9-32.8-26.9h-35.7v136.5h35.3c20.7 0 33.9-9.7 33.9-26.9v-22.4c0-10.5-4.1-19.7-16-21.6 11-1.4 15.3-11.7 15.3-21.5zm-45.8-24.5h12.7c6.4 0 10.5 3.3 10.5 10.5V410c0 7.2-4.1 10.5-10.5 10.5h-12.7v-36.8zm24 66.4v20.5c0 7.2-4.1 10.5-10.5 10.5h-13.5v-41.5h13.5c6.4 0 10.5 3.3 10.5 10.5zm40.5-58.6v81.9c0 20.7 13.6 28.9 34.3 28.9h1.6c20.7 0 34.3-8.2 34.3-28.9v-81.9c0-20.7-13.6-28.9-34.3-28.9h-1.6c-20.6 0-34.3 8-34.3 28.9zm22.6 78.3V395c0-9.7 5.1-12.5 12.5-12.5s12.5 2.7 12.5 12.5v74.9c0 9.7-5.1 12.5-12.5 12.5-7.4-.1-12.5-2.8-12.5-12.6zm127.9-105.6h-68.2v19.9h22.8v116.6H699V384.1h22.8v-19.9z"/><path d="M67.5 412.9v-22.2c0-20.3-14.8-28.1-33.5-28.1h-.4c-18.7 0-33.5 7.8-33.5 28.1v17.9c0 14.2 7.6 20.5 20.9 28.1l15.8 9c6.8 3.7 9 7.2 9 14.2v10.7c0 8.4-4.9 12.1-11.7 12.1-6.8 0-11.7-3.7-11.7-12.1V450H0v23.8c0 21.3 13.1 28.5 33.7 28.5h.4c20.7 0 33.7-7.4 33.7-28.5V454c0-14.6-7.8-20.7-20.9-28.1l-16-9c-6.4-3.7-8.8-6.8-8.8-13.8v-9.4c0-8.6 4.9-11.7 11.5-11.7s11.5 3.1 11.5 11.7v19.1h22.4v.1zm88.3 6.1v-26c0-20.7-13.6-28.9-34.3-28.9H86.2v136.5h22.6v-52.8h12.7c20.6 0 34.3-8.2 34.3-28.8zm-22.6-3.6c0 9.7-5.1 12.5-12.5 12.5h-11.9V384h11.9c7.4 0 12.5 2.7 12.5 12.5v18.9zm108.5 2V393c0-20.7-13.6-28.9-34.3-28.9h-35.3v136.5h22.6v-54.4H206l17.4 54.4h23l-19.5-57.9c9.4-4.1 14.8-12.2 14.8-25.3zm-22.6-3.1c0 9.7-5.1 12.5-12.5 12.5h-11.9v-42.7h11.9c7.4 0 12.5 2.7 12.5 12.5v17.7zm59.8 86.3V364.2h-22.6v91.5l15.5 44.9h7.1zm42.9 0v-88.7l29.8 88.7h21.5V364.2h-20.7v84.4l-28.7-84.4h-22.6v136.4h20.7zm142.1-70.1H428v19.1h13.3v20.3c0 9.7-5.1 12.5-12.5 12.5s-12.5-2.7-12.5-12.5V395c0-9.7 5.1-12.5 12.5-12.5s12.5 2.7 12.5 12.5v16h22.6v-19.5c0-20.3-13.6-28.9-34.3-28.9H428c-20.7 0-34.3 8.6-34.3 28.9v81.9c0 21.3 13.6 28.9 34.3 28.9h1.6c20.7 0 34.3-7.8 34.3-28.9v-42.9z" class="st0"/></svg>