<svg xmlns="http://www.w3.org/2000/svg" role="img" viewBox="-16.14 -16.14 752.28 839.28"><title>Structured Products logo</title><style>svg {enable-background:new 0 0 720.3 807}</style><style>.st0{fill:#265eac}.st1{fill:#f78e20}</style><path d="M24.2 806c1.9-.6 3.5-1.4 4.8-2.5 1.3-1.1 2.4-2.5 3.1-4.1.8-1.6 1.1-3.4 1.1-5.4v-.1c0-1.8-.3-3.3-.9-4.6-.6-1.3-1.5-2.5-2.6-3.5-1.2-1-2.6-1.9-4.3-2.6-1.7-.7-3.8-1.3-6-1.9-2.1-.5-3.8-1-5.1-1.4-1.3-.5-2.4-.9-3.1-1.4-.8-.5-1.3-1.1-1.6-1.7-.3-.6-.4-1.4-.4-2.2v-.1c0-1.4.6-2.6 1.8-3.6 1.2-1 3-1.5 5.2-1.5 2 0 3.9.4 5.8 1.1 1.9.8 3.9 1.9 5.8 3.3l4.1-5.7c-2.2-1.8-4.6-3.1-7.1-4-2.5-.9-5.4-1.4-8.5-1.4-2.1 0-4.1.3-5.9.9-1.8.6-3.3 1.5-4.6 2.6-1.3 1.1-2.3 2.4-3 3.9-.7 1.5-1.1 3.2-1.1 5.1v.1c0 2 .3 3.7 1 5 .6 1.4 1.6 2.6 2.8 3.5 1.2 1 2.7 1.8 4.5 2.5 1.8.7 3.8 1.3 6.1 1.8 2 .5 3.6.9 4.9 1.4 1.3.5 2.2.9 3 1.5.7.5 1.2 1.1 1.5 1.7.3.6.4 1.3.4 2.1v.1c0 1.6-.7 3-2.1 3.9-1.4 1-3.2 1.5-5.6 1.5-2.7 0-5.1-.5-7.3-1.4-2.1-1-4.2-2.3-6.3-4.2L0 800c2.6 2.3 5.4 4.1 8.4 5.2 3 1.1 6.2 1.7 9.5 1.7 2.3 0 4.4-.3 6.3-.9zm31.8.4c1.1-.3 2.1-.7 3-1.2v-6.1c-1.5.7-3 1.1-4.6 1.1-1.3 0-2.3-.3-3-1-.7-.6-1-1.7-1-3.1v-15.9h8.7v-6.4h-8.7v-8.9h-7.5v8.9h-4.1v6.4h4.1v17.1c0 1.8.2 3.3.7 4.5.5 1.2 1.1 2.2 2 2.9.8.7 1.8 1.3 3 1.6 1.2.3 2.4.5 3.8.5 1.3 0 2.5-.1 3.6-.4zm10.5-.1H74v-12.4c0-2.1.3-4 .8-5.6.5-1.6 1.3-3 2.3-4 1-1.1 2.2-1.9 3.5-2.4 1.4-.5 2.8-.8 4.5-.8h.4v-7.9c-2.9-.1-5.2.6-7.1 2-1.9 1.5-3.3 3.4-4.4 5.9v-7.3h-7.5v32.5zm42.7-1.1c1.6-1.1 2.9-2.5 4-4.1v5.1h7.5v-32.5h-7.5V792c0 2.5-.7 4.5-2 5.9-1.3 1.4-3.1 2.1-5.2 2.1-2.2 0-3.9-.7-5.1-2.1-1.2-1.4-1.8-3.3-1.8-5.9v-18.4h-7.5v20.7c0 3.8 1 6.8 3 9.1s4.8 3.4 8.5 3.4c2.5.1 4.5-.4 6.1-1.6zm43.7.1c2-1.1 3.9-2.6 5.5-4.4l-4.5-4.4c-1.2 1.2-2.4 2.2-3.8 2.9-1.3.8-2.9 1.1-4.6 1.1-1.4 0-2.7-.3-3.9-.8-1.2-.6-2.2-1.3-3.1-2.2-.9-.9-1.5-2.1-2-3.3-.5-1.3-.7-2.6-.7-4.1v-.1c0-1.4.2-2.7.7-4 .5-1.3 1.1-2.4 1.9-3.3.8-.9 1.8-1.7 3-2.2 1.1-.6 2.4-.8 3.8-.8 1.9 0 3.5.4 4.8 1.1 1.3.8 2.5 1.7 3.7 2.9l4.6-5c-1.5-1.7-3.3-3-5.3-4.1-2-1-4.6-1.5-7.7-1.5-2.4 0-4.7.5-6.7 1.4-2.1.9-3.9 2.1-5.4 3.7-1.5 1.5-2.7 3.3-3.5 5.4-.8 2.1-1.3 4.3-1.3 6.6v.1c0 2.3.4 4.5 1.3 6.5.8 2.1 2 3.8 3.5 5.4 1.5 1.5 3.3 2.7 5.3 3.6 2.1.9 4.3 1.3 6.7 1.3 3.1-.1 5.7-.7 7.7-1.8zm26.9 1.1c1.1-.3 2.1-.7 3-1.2v-6.1c-1.5.7-3 1.1-4.6 1.1-1.3 0-2.3-.3-3-1-.7-.6-1-1.7-1-3.1v-15.9h8.7v-6.4h-8.7v-8.9h-7.5v8.9h-4.1v6.4h4.1v17.1c0 1.8.2 3.3.7 4.5.5 1.2 1.1 2.2 2 2.9.8.7 1.9 1.3 3 1.6 1.2.3 2.4.5 3.8.5 1.3 0 2.6-.1 3.6-.4zm27.9-1.2c1.6-1.1 2.9-2.5 4-4.1v5.1h7.5v-32.5h-7.5V792c0 2.5-.7 4.5-2 5.9-1.3 1.4-3.1 2.1-5.2 2.1-2.2 0-3.9-.7-5.1-2.1-1.2-1.4-1.8-3.3-1.8-5.9v-18.4H190v20.7c0 3.8 1 6.8 3 9.1s4.8 3.4 8.5 3.4c2.6.1 4.6-.4 6.2-1.6zm20.8 1.1h7.5v-12.4c0-2.1.3-4 .8-5.6.5-1.6 1.3-3 2.3-4 1-1.1 2.2-1.9 3.5-2.4 1.4-.5 2.8-.8 4.5-.8h.4v-7.9c-2.9-.1-5.2.6-7.1 2-1.9 1.5-3.3 3.4-4.4 5.9v-7.3h-7.5v32.5zm31-18.5c.3-2.5 1.2-4.6 2.7-6.2 1.5-1.6 3.4-2.4 5.7-2.4 1.2 0 2.3.2 3.3.7 1 .5 1.8 1.1 2.5 1.8.7.8 1.2 1.7 1.7 2.7.4 1 .7 2.2.8 3.4h-16.7zm17 17.5c2.2-1.1 4-2.6 5.6-4.4l-4.4-3.9c-1.3 1.3-2.6 2.2-4 2.9-1.4.7-3 1-4.8 1-2.4 0-4.5-.7-6.2-2.1-1.7-1.4-2.8-3.5-3.2-6.1h23.9c0-.4.1-.7.1-1.1v-1c0-2.3-.3-4.6-1-6.7-.7-2.1-1.6-4-2.9-5.6-1.3-1.6-2.9-2.9-4.9-3.8-1.9-.9-4.2-1.4-6.8-1.4-2.3 0-4.5.4-6.4 1.3-1.9.9-3.6 2.1-5 3.6s-2.5 3.3-3.3 5.4c-.8 2.1-1.2 4.2-1.2 6.6v.1c0 2.5.4 4.8 1.3 6.9.9 2.1 2 3.8 3.5 5.3s3.3 2.6 5.3 3.4c2 .8 4.2 1.2 6.5 1.2 3.2.1 5.8-.5 7.9-1.6zm26.1-5.6c-1.1-.5-2.1-1.2-3-2.1-.9-.9-1.5-2-2-3.3-.5-1.3-.7-2.7-.7-4.3 0-1.6.2-3 .7-4.3.5-1.3 1.2-2.4 2-3.3.9-.9 1.8-1.6 3-2.1 1.1-.5 2.3-.7 3.6-.7 1.2 0 2.4.2 3.6.7 1.1.5 2.1 1.2 3 2.1.9.9 1.5 2 2.1 3.3.5 1.3.8 2.7.8 4.3v.1c0 1.6-.3 3-.8 4.2-.5 1.3-1.2 2.4-2.1 3.3-.9.9-1.9 1.6-3 2.1s-2.3.7-3.6.7c-1.2.1-2.4-.2-3.6-.7zm8.5 5.5c1.8-1.2 3.3-2.6 4.5-4.3l-.1 5.4h7.5v-44.9h-7.5v17.5c-1.2-1.5-2.7-2.9-4.4-4-1.8-1.1-4-1.7-6.6-1.7-1.9 0-3.8.4-5.6 1.1-1.8.7-3.4 1.8-4.8 3.3-1.4 1.4-2.5 3.2-3.3 5.3-.8 2.1-1.3 4.5-1.3 7.2v.1c0 2.7.4 5.1 1.3 7.2.9 2.1 2 3.9 3.4 5.3s3 2.5 4.8 3.3c1.8.7 3.7 1.1 5.6 1.1 2.5-.2 4.7-.8 6.5-1.9zm48-19.6V770h8.8c2.8 0 5.1.6 6.8 1.9 1.7 1.3 2.5 3.2 2.5 5.8v.1c0 2.3-.8 4.1-2.5 5.6-1.7 1.4-3.9 2.2-6.8 2.2h-8.8zm-7.5 20.7h7.5v-13.8h8.6c2.4 0 4.6-.3 6.7-1 2.1-.6 3.9-1.6 5.5-2.8 1.6-1.2 2.8-2.8 3.7-4.6.9-1.8 1.4-3.9 1.4-6.4v-.1c0-2.2-.4-4.1-1.1-5.9-.8-1.8-1.8-3.3-3.3-4.6-1.4-1.3-3.1-2.2-5.2-2.9-2-.7-4.3-1-6.8-1h-17v43.1zm40.2 0h7.5v-12.4c0-2.1.3-4 .8-5.6.5-1.6 1.3-3 2.3-4 1-1.1 2.2-1.9 3.5-2.4 1.4-.5 2.8-.8 4.5-.8h.4v-7.9c-2.9-.1-5.2.6-7.1 2-1.9 1.5-3.3 3.4-4.4 5.9v-7.3h-7.5v32.5zm37-6.6c-1.2-.6-2.2-1.3-3.1-2.3-.9-1-1.6-2.1-2-3.3-.5-1.2-.7-2.6-.7-4v-.1c0-1.4.2-2.7.7-4 .4-1.3 1.1-2.4 2-3.3.9-.9 1.9-1.7 3.1-2.2 1.2-.6 2.5-.8 4-.8s2.8.3 4 .8c1.2.6 2.2 1.3 3.1 2.2.9.9 1.6 2.1 2 3.3.5 1.3.7 2.6.7 4.1v.1c0 1.4-.2 2.7-.7 4-.4 1.3-1.1 2.3-2 3.3-.9.9-1.9 1.7-3.1 2.2-1.2.6-2.6.8-4.1.8-1.4 0-2.7-.2-3.9-.8zm10.8 6c2.1-.9 4-2.1 5.5-3.7 1.5-1.5 2.7-3.3 3.6-5.4.9-2.1 1.3-4.2 1.3-6.5v-.1c0-2.3-.4-4.5-1.3-6.6-.9-2-2.1-3.8-3.6-5.3s-3.4-2.7-5.5-3.6c-2.1-.9-4.4-1.3-6.9-1.3s-4.8.5-6.9 1.4c-2.1.9-3.9 2.1-5.5 3.7-1.5 1.5-2.7 3.3-3.6 5.4-.9 2-1.3 4.2-1.3 6.6v.1c0 2.3.4 4.5 1.3 6.5.9 2.1 2.1 3.8 3.6 5.4 1.5 1.5 3.4 2.7 5.5 3.6 2.1.9 4.4 1.3 6.9 1.3 2.4-.2 4.8-.6 6.9-1.5zm29.6-6c-1.1-.5-2.1-1.2-3-2.1-.9-.9-1.5-2-2-3.3-.5-1.3-.7-2.7-.7-4.3 0-1.6.2-3 .7-4.3.5-1.3 1.2-2.4 2-3.3.9-.9 1.8-1.6 3-2.1 1.1-.5 2.3-.7 3.6-.7 1.2 0 2.4.2 3.6.7 1.1.5 2.1 1.2 3 2.1.9.9 1.5 2 2.1 3.3.5 1.3.8 2.7.8 4.3v.1c0 1.6-.3 3-.8 4.2-.5 1.3-1.2 2.4-2.1 3.3-.9.9-1.9 1.6-3 2.1s-2.3.7-3.6.7c-1.3.1-2.5-.2-3.6-.7zm8.4 5.5c1.8-1.2 3.3-2.6 4.5-4.3l-.1 5.4h7.5v-44.9H482v17.5c-1.2-1.5-2.7-2.9-4.4-4-1.8-1.1-4-1.7-6.6-1.7-1.9 0-3.8.4-5.6 1.1-1.8.7-3.4 1.8-4.8 3.3-1.4 1.4-2.5 3.2-3.3 5.3-.8 2.1-1.3 4.5-1.3 7.2v.1c0 2.7.4 5.1 1.3 7.2.9 2.1 2 3.9 3.4 5.3s3 2.5 4.8 3.3c1.8.7 3.7 1.1 5.6 1.1 2.5-.2 4.8-.8 6.5-1.9zm38.5 0c1.6-1.1 2.9-2.5 4-4.1v5.1h7.5v-32.5h-7.5V792c0 2.5-.7 4.5-2 5.9-1.3 1.4-3.1 2.1-5.2 2.1-2.2 0-3.9-.7-5.1-2.1-1.2-1.4-1.8-3.3-1.8-5.9v-18.4h-7.5v20.7c0 3.8 1 6.8 3 9.1s4.8 3.4 8.5 3.4c2.5.1 4.5-.4 6.1-1.6zm43.7.1c2.1-1.1 3.9-2.6 5.5-4.4l-4.5-4.4c-1.2 1.2-2.5 2.2-3.8 2.9-1.3.8-2.9 1.1-4.6 1.1-1.4 0-2.7-.3-3.9-.8-1.2-.6-2.2-1.3-3.1-2.2-.9-.9-1.5-2.1-2-3.3-.5-1.3-.7-2.6-.7-4.1v-.1c0-1.4.2-2.7.7-4 .5-1.3 1.1-2.4 1.9-3.3.8-.9 1.8-1.7 3-2.2 1.1-.6 2.4-.8 3.8-.8 1.9 0 3.5.4 4.8 1.1 1.3.8 2.5 1.7 3.7 2.9l4.6-5c-1.5-1.7-3.3-3-5.3-4.1-2-1-4.6-1.5-7.7-1.5-2.4 0-4.7.5-6.7 1.4-2.1.9-3.9 2.1-5.4 3.7-1.5 1.5-2.7 3.3-3.5 5.4-.8 2.1-1.3 4.3-1.3 6.6v.1c0 2.3.4 4.5 1.3 6.5.8 2.1 2 3.8 3.5 5.4 1.5 1.5 3.3 2.7 5.3 3.6 2.1.9 4.3 1.3 6.7 1.3 3.1-.1 5.7-.7 7.7-1.8zm26.9 1.1c1.1-.3 2.1-.7 3-1.2v-6.1c-1.5.7-3 1.1-4.6 1.1-1.3 0-2.3-.3-3-1-.7-.6-1-1.7-1-3.1v-15.9h8.7v-6.4h-8.7v-8.9h-7.5v8.9h-4.1v6.4h4.1v17.1c0 1.8.2 3.3.7 4.5.5 1.2 1.1 2.2 2 2.9.8.7 1.9 1.3 3 1.6 1.2.3 2.4.5 3.8.5 1.3 0 2.5-.1 3.6-.4zm26.4-.2c1.5-.4 2.8-1.1 3.8-1.9 1.1-.8 1.9-1.9 2.6-3.2.6-1.3.9-2.8.9-4.5v-.1c0-1.5-.3-2.7-.9-3.7-.6-1-1.4-1.9-2.4-2.6-1-.7-2-1.3-3.2-1.8-1.2-.5-2.4-.9-3.6-1.3-.9-.3-1.9-.6-2.7-.9-.9-.3-1.7-.6-2.3-1-.7-.3-1.2-.7-1.6-1.2-.4-.4-.6-.9-.6-1.5v-.1c0-.9.4-1.7 1.2-2.3.8-.6 1.9-.9 3.4-.9 1.4 0 2.8.3 4.4.8 1.6.6 3.2 1.3 4.7 2.2l3-5.3c-1.7-1.2-3.6-2.1-5.7-2.7-2.1-.7-4.2-1-6.2-1-1.6 0-3.1.2-4.5.7-1.4.4-2.6 1.1-3.7 2-1 .9-1.9 1.9-2.5 3.1-.6 1.2-.9 2.6-.9 4.1v.1c0 1.6.3 2.9.9 3.9.6 1.1 1.4 2 2.4 2.7 1 .7 2.1 1.3 3.3 1.7 1.2.5 2.4.8 3.6 1.2.9.3 1.9.6 2.7.9.9.3 1.7.6 2.3.9.7.3 1.2.7 1.6 1.2.4.5.6 1 .6 1.6v.1c0 1.1-.4 1.9-1.3 2.5-.9.6-2.1 1-3.7 1-1.7 0-3.4-.3-5.3-1-1.8-.7-3.6-1.7-5.4-3l-3.3 5.1c2 1.6 4.3 2.8 6.7 3.7 2.4.8 4.8 1.2 7.1 1.2 1.6 0 3.2-.2 4.6-.7z" class="st0"/><path d="M35.4 709.6c-3.6-1.6-6.7-3.8-9.2-6.6-2.6-2.7-4.6-6-6-9.7-1.4-3.7-2.1-7.7-2.1-11.9v-.2c0-4.2.7-8.1 2.1-11.8 1.4-3.7 3.4-6.9 5.9-9.7 2.5-2.7 5.6-4.9 9.1-6.5 3.6-1.6 7.4-2.4 11.7-2.4 4.2 0 8.2.8 11.8 2.5 3.6 1.6 6.7 3.8 9.2 6.6 2.6 2.7 4.6 6 6 9.7 1.4 3.7 2.1 7.7 2.1 11.9v.2c0 4.2-.7 8.1-2.1 11.8-1.4 3.7-3.4 6.9-5.9 9.7-2.5 2.7-5.6 4.9-9.1 6.5-3.6 1.6-7.5 2.4-11.7 2.4-4.3-.1-8.2-.9-11.8-2.5zm29.7 12.8c5.5-2.4 10.2-5.6 14.3-9.7 4-4.1 7.1-8.8 9.3-14.1 2.2-5.4 3.3-11.1 3.3-17.2v-.2c0-6.1-1.1-11.8-3.3-17.2-2.2-5.4-5.3-10.1-9.2-14.1-3.9-4-8.7-7.2-14.1-9.5-5.5-2.3-11.6-3.5-18.2-3.5s-12.7 1.2-18.2 3.6c-5.5 2.4-10.3 5.6-14.3 9.7s-7.1 8.8-9.3 14.1C3.1 669.6 2 675.4 2 681.4v.2c0 6.1 1.1 11.8 3.3 17.2 2.2 5.4 5.3 10.1 9.2 14.1 3.9 4 8.7 7.2 14.1 9.5 5.5 2.3 11.6 3.5 18.2 3.5 6.7 0 12.8-1.1 18.3-3.5zm62-11.3v-23.6H151c6 0 10.4 1 13.3 3 2.9 2 4.4 4.9 4.4 8.5v.2c0 3.9-1.5 6.9-4.4 8.9-2.9 2-7 3-12.1 3h-25.1zm0-36.4v-22.9h21.7c4.9 0 8.6 1 11.2 2.9 2.6 1.9 3.9 4.6 3.9 8.1v.2c0 3.9-1.5 6.9-4.4 8.8-2.9 1.9-6.9 2.9-11.8 2.9h-20.6zm-15 49.8h39.8c4.7 0 9.1-.5 13-1.5 3.9-1 7.3-2.5 10.1-4.5s4.9-4.4 6.4-7.4 2.3-6.4 2.3-10.2v-.2c0-3-.4-5.5-1.2-7.7-.8-2.2-2-4.1-3.5-5.8-1.5-1.6-3.3-3.1-5.4-4.2-2.1-1.2-4.4-2.2-6.9-3.1 1.5-.8 3.1-1.8 4.6-3 1.5-1.1 2.8-2.5 3.9-4s2-3.3 2.7-5.3c.7-2 1-4.3 1-7v-.2c0-5.7-1.9-10.4-5.8-14.3-5.1-5.1-12.6-7.6-22.5-7.6H112v86h.1zm121.4-.7c3.5-1.3 6.6-3.2 9.1-5.7s4.5-5.7 5.9-9.5c1.4-3.8 2.1-8.2 2.1-13.4v-56.8h-15.5v56.5c0 5.7-1.3 10-3.8 12.7-2.5 2.7-5.8 4.1-9.9 4.1-3.7 0-6.9-.9-9.5-2.6-2.7-1.8-5.3-4.2-7.8-7.4l-10 10.2c2.9 3.9 6.5 7.2 10.9 9.9s10 4 16.6 4c4.4-.1 8.4-.7 11.9-2zm39.6.7h64.3v-13.7h-49.3v-23h43.2v-13.7h-43.2V652h48.7v-13.7h-63.7v86.2zm135.2.4c3.3-.7 6.4-1.7 9.2-3.1 2.8-1.4 5.4-3 7.8-4.8 2.4-1.8 4.7-4 6.9-6.3l-9.7-9.8c-3.7 3.4-7.4 6.2-11.2 8.2-3.8 2-8.3 3-13.5 3-4.1 0-7.9-.8-11.4-2.4-3.5-1.6-6.5-3.8-9-6.6s-4.5-6-5.9-9.8c-1.4-3.7-2.1-7.7-2.1-11.9v-.2c0-4.2.7-8.1 2.1-11.8 1.4-3.7 3.4-6.9 5.9-9.7 2.5-2.7 5.6-4.9 9-6.5 3.5-1.6 7.3-2.4 11.4-2.4 4.9 0 9.3 1 13.2 3 3.9 2 7.5 4.6 10.9 7.7l9.7-11.2c-2.1-2-4.2-3.8-6.5-5.4-2.3-1.6-4.8-3.1-7.5-4.2-2.7-1.2-5.7-2.1-8.9-2.8-3.2-.7-6.8-1-10.8-1-6.6 0-12.5 1.2-18 3.5-5.4 2.3-10.1 5.5-14.1 9.6s-7 8.8-9.2 14.1c-2.2 5.4-3.3 11.1-3.3 17.3v.2c0 6.2 1.1 11.9 3.3 17.3 2.2 5.4 5.3 10.1 9.2 14.1 3.9 4 8.5 7.1 13.9 9.4 5.3 2.3 11.2 3.4 17.5 3.4 4.1.1 7.8-.2 11.1-.9zm62.6-.4h15.3v-72.1h27.3v-14h-69.9v14h27.3v72.1zm102.9-.5c3.8-1.1 7-2.8 9.7-5 2.7-2.2 4.8-4.9 6.3-8.1 1.5-3.2 2.3-6.8 2.3-10.8v-.2c0-3.5-.6-6.6-1.8-9.3-1.2-2.7-2.9-5-5.2-7-2.3-2-5.2-3.7-8.7-5.1-3.5-1.4-7.5-2.7-12-3.8-4.1-1-7.5-1.9-10.2-2.8-2.7-.9-4.8-1.9-6.3-2.9s-2.6-2.2-3.1-3.4c-.6-1.3-.9-2.7-.9-4.4v-.2c0-2.9 1.2-5.3 3.7-7.3s5.9-3 10.3-3c3.9 0 7.8.8 11.7 2.3 3.9 1.5 7.7 3.7 11.7 6.6l8.1-11.4c-4.4-3.5-9.2-6.2-14.2-8.1-5-1.8-10.7-2.8-17-2.8-4.3 0-8.2.6-11.8 1.8-3.6 1.2-6.7 2.9-9.2 5.1-2.6 2.2-4.6 4.8-6 7.9-1.5 3.1-2.2 6.5-2.2 10.1v.2c0 3.9.6 7.3 1.9 10.1 1.3 2.8 3.1 5.1 5.5 7.1 2.4 1.9 5.4 3.6 9 4.9 3.6 1.4 7.7 2.6 12.3 3.6 4 .9 7.3 1.8 9.8 2.7 2.5.9 4.5 1.9 5.9 3 1.4 1.1 2.4 2.2 3 3.4.5 1.2.8 2.6.8 4.1v.2c0 3.3-1.4 5.9-4.1 7.9-2.7 2-6.5 3-11.1 3-5.4 0-10.3-1-14.5-2.9-4.3-1.9-8.5-4.7-12.7-8.3l-9.1 10.8c5.2 4.7 10.8 8.1 16.9 10.4 6.1 2.3 12.4 3.4 19.1 3.4 4.2-.1 8.3-.7 12.1-1.8z" class="st1"/><path d="M2.4 601.5h23.9v-30.8H67v-19.9H26.2v-14.5h45v-20.9H2.4v86.1zm81.9 0h24v-86.1h-24v86.1zm41.4 0h23.5v-47.2l36.9 47.2h21v-86.1h-23.5v45.5L148 515.4h-22.3v86.1zm129.7-33.9l9.7-24.5 9.6 24.5h-19.3zm-38.3 33.9h25.1l6.1-15.4h33.2l6.3 15.4h25.6l-36.7-86.7h-23l-36.6 86.7zm106.4 0H347v-47.2l36.9 47.2h21v-86.1h-23.5v45.5l-35.5-45.5h-22.3v86.1h-.1zm152.6.2c3.8-1 7.3-2.3 10.3-4.1s5.8-3.8 8.2-6.2c2.4-2.4 4.7-5 6.7-7.7l-18-12.8c-1.3 1.6-2.6 3-4 4.2-1.4 1.3-2.8 2.4-4.3 3.3-1.5.9-3.2 1.7-5 2.2-1.8.5-3.9.7-6.1.7-3 0-5.8-.6-8.3-1.8-2.5-1.2-4.7-2.8-6.5-4.9-1.8-2-3.2-4.5-4.2-7.3s-1.5-5.8-1.5-9v-.2c0-3.1.5-6.1 1.5-8.9 1-2.8 2.4-5.2 4.2-7.3 1.8-2 4-3.7 6.5-4.9 2.5-1.2 5.3-1.8 8.3-1.8 4.2 0 7.7.9 10.7 2.7 3 1.8 5.7 4.3 8.1 7.4l18-13.9c-1.9-2.6-4-5-6.5-7.3-2.4-2.2-5.1-4.1-8.1-5.7-3-1.6-6.3-2.8-9.9-3.7-3.6-.9-7.6-1.3-12.1-1.3-6.6 0-12.6 1.2-18.1 3.4-5.5 2.3-10.3 5.5-14.3 9.5-4 4.1-7.2 8.8-9.5 14.3s-3.4 11.3-3.4 17.5v.2c0 6.4 1.2 12.3 3.5 17.8s5.5 10.2 9.5 14.1c4 4 8.7 7.1 14.1 9.3 5.4 2.2 11.2 3.3 17.3 3.3 4.8.4 9.1-.1 12.9-1.1zm37.7-.2h24v-86.1h-24v86.1zm72.8-33.9l9.7-24.5 9.6 24.5h-19.3zm-38.2 33.9h25.1l6.2-15.4h33.2l6.3 15.4h25.6L608 514.8h-23l-36.6 86.7zm106.3 0h65.6v-20.9h-41.7v-65.2h-23.9v86.1z" class="st0"/><path d="M428.9 187.7c-4.9.9-9.9.8-14.5-.4-5.8 12.1-16.4 24.8-30.7 37.6-12.6-13.6-28-27.3-45.7-40.5 6.4-21.2 10.6-41.3 12.6-59.7 19.1 1.7 35.2 5.7 47 11.9 3-3.8 6.9-6.8 11.4-9-14.1-8.8-33.8-14.4-57.3-16.6 1.3-23.6-1.2-43.9-7.9-59.1-2.8 4.2-6.4 7.6-10.5 9.9 4.4 12.6 6 29.1 4.8 48.3-18.5-.7-39 .8-60.8 3.9-10.5-19.6-21.8-36.8-33.4-51.4 14.7-12.3 28.9-20.9 41.7-24.9-.6-4.8 0-9.7 1.7-14.4-16.2 3.7-34 13.7-52.2 28.8C219.3 34.6 203.2 22 187.7 16c.9 4.9.8 9.9-.4 14.5 12.1 5.8 24.8 16.4 37.6 30.7-13.6 12.6-27.3 28-40.5 45.7-21.2-6.4-41.3-10.6-59.7-12.6 1.7-19.1 5.7-35.2 11.9-47-3.8-3-6.8-6.9-9-11.4-8.8 14.1-14.4 33.8-16.6 57.3-23.6-1.3-43.9 1.2-59.1 7.9 4.2 2.8 7.6 6.4 9.9 10.5 12.6-4.4 29.1-6 48.3-4.8-.7 18.6.5 39.1 3.7 61-19.4 10.5-36.7 21.7-51.2 33.2-12.3-14.7-20.9-28.9-24.9-41.7-4.8.6-9.7 0-14.4-1.7 3.7 16.2 13.7 34 28.8 52.2C34.6 225.5 22 241.7 16 257.2c4.9-.9 9.9-.8 14.5.4 5.8-12.1 16.4-24.8 30.7-37.6 12.6 13.6 28 27.3 45.7 40.5-6.4 21.2-10.6 41.3-12.6 59.7-19.1-1.7-35.2-5.7-47-11.9-3 3.8-6.9 6.8-11.4 9 14.1 8.8 33.8 14.4 57.3 16.6-1.3 23.6 1.2 43.9 7.9 59.1 2.8-4.2 6.4-7.6 10.5-9.9-4.4-12.6-6-29.1-4.8-48.3 18.5.7 39-.8 60.8-3.9 10.5 19.6 21.8 36.8 33.4 51.4-14.7 12.3-28.9 20.9-41.7 24.9.6 4.8 0 9.7-1.7 14.4 16.2-3.7 34-13.7 52.2-28.8 15.8 17.6 31.9 30.2 47.4 36.2-.9-4.9-.8-9.9.4-14.5-12.1-5.8-24.8-16.4-37.6-30.7 13.6-12.6 27.3-28 40.5-45.7 21.2 6.4 41.3 10.6 59.7 12.6-1.7 19.1-5.7 35.2-11.9 47 3.8 3 6.8 6.9 9 11.4 8.8-14.1 14.4-33.8 16.6-57.3 23.6 1.3 43.9-1.2 59.1-7.9-4.2-2.8-7.6-6.4-9.9-10.5-12.6 4.4-29.1 6-48.3 4.8.7-18.6-.5-39.1-3.7-61 19.4-10.5 36.7-21.7 51.2-33.2 12.3 14.7 20.9 28.9 24.9 41.7 4.8-.6 9.7 0 14.4 1.7-3.7-16.2-13.7-34-28.8-52.2 17.5-15.9 30.1-32 36.1-47.5zM269.1 326.1c6.2-8.9 12.3-18.4 18.2-28.3 10.7-4.4 20.9-9.1 30.6-13.9 2.5 19 3.5 36.8 3 52.9-15.9-1.9-33.4-5.5-51.8-10.7zM129 175.5c5.6-2.9 11.2-5.7 17.2-8.4-2.4 4.4-4.8 8.8-7 13.4-2.3 4.6-4.5 9.1-6.6 13.6-1.3-6.3-2.5-12.5-3.6-18.6zm.4 61.7c1.4 4.8 2.9 9.6 4.5 14.4 1.6 4.8 3.3 9.6 5 14.3-5.4-3.5-10.7-7.1-15.8-10.7 1.9-5.9 4-11.9 6.3-18zm22-50.6c5-9.9 10.3-19.4 15.7-28.6 9.8-4 20-7.7 30.4-11.1 10.4-3.4 20.8-6.5 31.1-9.2 9.8 4.2 19.7 8.7 29.6 13.7 9.9 5 19.4 10.3 28.6 15.7 4 9.8 7.7 20 11.1 30.4 3.4 10.4 6.5 20.8 9.2 31.1-4.2 9.8-8.7 19.7-13.7 29.6-5 9.9-10.3 19.4-15.7 28.6-9.8 4-20 7.7-30.4 11.1-10.4 3.4-20.8 6.5-31.1 9.2-9.8-4.2-19.7-8.7-29.6-13.7-9.9-5-19.4-10.3-28.6-15.7-4-9.8-7.7-20-11.1-30.4-3.4-10.4-6.5-20.8-9.2-31.1 4.2-9.8 8.7-19.7 13.7-29.6zm154.3 77.8c2.3-4.6 4.5-9.1 6.6-13.6 1.3 6.3 2.5 12.5 3.5 18.6-5.6 2.9-11.2 5.7-17.2 8.4 2.4-4.4 4.8-8.8 7.1-13.4zm.3-85.5c5.4 3.5 10.7 7.1 15.8 10.7-1.9 5.9-4 11.9-6.3 18-1.4-4.8-2.9-9.6-4.5-14.4-1.6-4.8-3.3-9.5-5-14.3zm-50.8 142.9c-5.9-1.9-11.9-4-18-6.3 4.8-1.4 9.6-2.9 14.4-4.5 4.8-1.6 9.6-3.3 14.3-5-3.5 5.4-7.1 10.7-10.7 15.8zm-73.1 6.8c10.7-1.9 21.7-4.2 32.9-7 10.6 4.4 21.1 8.4 31.5 11.9-11.6 15.2-23.6 28.4-35.3 39.5-10-12.7-19.8-27.6-29.1-44.4zm-15-29.9c4.4 2.4 8.8 4.7 13.4 7s9.1 4.5 13.6 6.6c-6.4 1.3-12.6 2.4-18.8 3.5-2.8-5.6-5.6-11.3-8.2-17.1zM108 321c1.9-16.1 5.5-33.5 10.8-51.9 8.9 6.2 18.4 12.3 28.3 18.2 4.4 10.6 9 20.8 13.8 30.5-18.9 2.5-36.8 3.7-52.9 3.2zm15.3-105.9c-4.4 10.6-8.4 21.1-11.9 31.5C96.2 235 83 223 71.9 211.3c12.7-9.9 27.7-19.6 44.3-28.9 1.9 10.6 4.3 21.5 7.1 32.7zm52.4-96.3c-6.2 8.9-12.3 18.4-18.2 28.3-10.7 4.4-20.9 9.1-30.6 13.9-2.5-18.9-3.5-36.8-3-52.9 16 1.9 33.5 5.5 51.8 10.7zm14 4.3c5.9 1.9 11.9 4 18 6.3-4.8 1.4-9.6 2.9-14.4 4.5-4.8 1.6-9.6 3.3-14.3 5 3.5-5.5 7.1-10.7 10.7-15.8zm73-6.9c-10.7 1.9-21.7 4.2-32.9 7-10.6-4.4-21.1-8.4-31.5-11.9 11.6-15.2 23.6-28.4 35.3-39.5 10 12.8 19.9 27.7 29.1 44.4zm15.1 30c-4.4-2.4-8.8-4.8-13.4-7-4.6-2.3-9.1-4.5-13.6-6.6 6.4-1.3 12.6-2.4 18.8-3.5 2.8 5.6 5.5 11.3 8.2 17.1zm59-22.4c-1.9 16-5.5 33.5-10.8 51.9-8.9-6.2-18.4-12.3-28.3-18.2-4.4-10.6-9-20.8-13.8-30.5 19-2.5 36.9-3.6 52.9-3.2zM373 233.7c-12.7 9.9-27.7 19.6-44.3 28.9-1.9-10.7-4.3-21.6-7.1-32.7 4.4-10.6 8.4-21.1 11.9-31.5 15.2 11.6 28.4 23.5 39.5 35.3z" class="st1"/><path d="M252.4 258.8c3.7-2.5 6.6-5.5 8.7-8.7 2.1-3.3 3.5-6.8 4-10.6s.1-7.8-1.3-12l-.1-.2c-1.3-3.8-3.1-6.9-5.4-9.2-2.3-2.3-5.1-4-8.4-5.1-3.3-1.1-7.1-1.7-11.3-1.8-4.2-.1-8.9.1-13.9.6-3 .3-5.5.5-7.6.5-2 0-3.7-.1-4.9-.3-1.2-.2-2.2-.6-2.9-1.2-.7-.6-1.1-1.3-1.5-2.2l-.1-.2c-.5-1.5-.2-3 .8-4.4 1-1.5 2.9-2.6 5.7-3.6 3.7-1.2 7.7-1.8 12.1-1.7 4.4.1 8.9.8 13.5 2.2L246 181c-5.6-2.1-11.5-3.2-17.7-3.3-6.1 0-12.7 1.1-19.7 3.4-4.9 1.6-9.1 3.7-12.6 6.3-3.5 2.6-6.2 5.5-8.2 8.8-2 3.3-3.2 6.7-3.6 10.4-.4 3.7 0 7.4 1.3 11.3l.1.2c1.4 4.2 3.4 7.5 5.9 9.8 2.5 2.3 5.5 4 8.9 5 3.4 1 7.2 1.5 11.3 1.5 4.2 0 8.6-.3 13.3-.7 3-.3 5.5-.5 7.5-.4 2 0 3.6.1 4.8.4 1.3.3 2.2.7 2.8 1.2.6.5 1.1 1.2 1.3 2.1l.1.2c.6 1.8.2 3.4-1 4.9-1.3 1.5-3.4 2.8-6.5 3.8-9.5 3.1-19.5 2.8-29.9-1.1l-7.7 19.3c6.6 2.9 13.6 4.4 20.9 4.5 7.4.1 14.7-1.1 22.1-3.5 5-1.7 9.4-3.8 13-6.3zm-38.3-85.4l-3.9-11.9-16.9 5.6 4.1 12.5c2.8-1.6 5.8-3.1 9.3-4.3 2.5-.9 5-1.4 7.4-1.9zm14.4 100.4l3.5 10.5 16.9-5.6-3.1-9.5c-1.4.6-2.8 1.2-4.3 1.7-4.4 1.5-8.7 2.3-13 2.9zm215.3-124.3c-3.8-11.7-16.4-18-28.1-14.1-11.7 3.8-18 16.4-14.1 28.1 3.8 11.7 16.4 18 28.1 14.1 11.6-3.9 17.9-16.5 14.1-28.1zM337.2 44.2c5.5-11 1.1-24.3-9.8-29.8-11-5.5-24.3-1.1-29.8 9.8-5.5 11-1.1 24.3 9.8 29.8s24.2 1.1 29.8-9.8zM177.5 15.3c-3.8-11.7-16.4-18-28.1-14.1-11.7 3.8-18 16.4-14.1 28.1 3.8 11.7 16.4 18 28.1 14.1 11.6-3.9 18-16.5 14.1-28.1zM44.2 107.7c-11-5.5-24.3-1.1-29.8 9.8-5.5 11-1.1 24.3 9.8 29.8 11 5.5 24.3 1.1 29.8-9.8s1.1-24.3-9.8-29.8zM15.3 267.4c-11.7 3.8-18 16.4-14.1 28.1 3.8 11.7 16.4 18 28.1 14.1 11.7-3.8 18-16.4 14.1-28.1-3.9-11.7-16.5-18-28.1-14.1zm92.4 133.3c-5.5 11-1.1 24.3 9.8 29.8 11 5.5 24.3 1.1 29.8-9.8 5.5-11 1.1-24.3-9.8-29.8-10.9-5.6-24.3-1.2-29.8 9.8zm159.7 28.9c3.8 11.7 16.4 18 28.1 14.1 11.7-3.8 18-16.4 14.1-28.1-3.8-11.7-16.4-18-28.1-14.1-11.7 3.9-18 16.5-14.1 28.1zm133.3-92.4c11 5.5 24.3 1.1 29.8-9.8 5.5-11 1.1-24.3-9.8-29.8-11-5.5-24.3-1.1-29.8 9.8-5.6 10.9-1.2 24.2 9.8 29.8z" class="st0"/></svg>