<svg xmlns="http://www.w3.org/2000/svg" role="img" viewBox="-14.44 -14.44 750.88 191.38"><title>Symphony Generator logo</title><style>svg {enable-background:new 0 0 722.16 162.75}</style><path fill="#000029" d="M37.41 80.59c-14.24 0-26.45-4.63-37.41-11.53l6.78-10.28c10.96 7.01 21.02 10.4 32.33 10.4 13.22 0 19.44-5.09 19.44-11.08 0-17.18-55.95-6.9-55.95-34.25C2.6 10.51 15.94 0 37.41 0c14.47 0 27.01 5.43 34.36 12.77l-8.36 8.59c-6.33-5.54-16.05-9.95-26.22-9.95-12.55 0-21.02 4.52-21.02 10.96 0 15.94 56.06 7.46 56.06 34.36 0 14.25-14.36 23.86-34.82 23.86zm89.64-32.89v30.18h-13.56v-30.3L79.58 2.6H95.4l25.43 34.81L144.9 2.6h15.6l-33.45 45.1zm128.06 30.18v-59l-3.73 8.03-26.67 50.98h-8.14L190.24 26.9l-3.73-8.03v59h-13V2.6h18.88l25.32 50.64 3.5 7.69 3.5-7.69L249.69 2.6h18.65v75.28h-13.23zm87-52.9c0-6.22-4.18-10.85-14.47-10.85h-24.98v24.3h25.55c10.28 0 13.9-4.98 13.9-11.08v-2.37zm-15.94 24.53h-23.51v28.37H289.1V2.6h37.07c20.57 0 29.61 9.27 29.61 22.38v2.03c.01 13.12-9.04 22.5-29.61 22.5zm103.52 28.37V45.44h-45.32v32.44H370.8V2.6h13.56v31.88h45.32V2.6h13.56v75.28h-13.55zm95.47-42.28c0-12.88-8.93-23.96-25.43-23.96-16.51 0-25.32 11.08-25.32 23.96v9.16c0 12.89 8.81 24.19 25.32 24.19 16.5 0 25.43-11.3 25.43-24.19V35.6zm-25.44 44.99c-24.19 0-39-17.18-39-35.6V35.6c0-18.76 14.81-35.6 39-35.6 24.3 0 39.11 16.84 39.11 35.6v9.38c0 18.43-14.81 35.61-39.11 35.61zm117.42-2.71l-42.16-47.59-5.43-7.01v54.59H556.1V2.6h12.54l40.81 47.7 5.54 7.01V2.6h13.34v75.28h-11.19zM688.7 47.7v30.18h-13.57v-30.3L641.23 2.6h15.83l25.43 34.81L706.56 2.6h15.6L688.7 47.7z"/><path fill="#008fff" d="M36.16 160.57c3.33-1.45 6.21-3.21 8.63-5.27v-20.42H24.38v8.93h10.41v6.76c-2.64 1.89-5.89 2.84-9.74 2.84-2.11 0-4.02-.37-5.74-1.11-1.72-.74-3.22-1.78-4.5-3.13-1.28-1.35-2.26-2.93-2.95-4.74-.69-1.82-1.04-3.8-1.04-5.96v-.13c0-2.02.35-3.91 1.04-5.69.69-1.77 1.66-3.32 2.89-4.64 1.23-1.32 2.66-2.38 4.3-3.16 1.63-.79 3.39-1.18 5.27-1.18 1.34 0 2.57.11 3.69.34 1.12.22 2.16.54 3.12.94.96.4 1.89.9 2.79 1.48.9.58 1.79 1.25 2.69 2.01l6.51-7.86c-1.21-1.03-2.46-1.95-3.76-2.75-1.3-.81-2.69-1.48-4.16-2.02-1.48-.54-3.08-.95-4.8-1.24-1.72-.29-3.64-.44-5.74-.44-3.58 0-6.87.64-9.87 1.91-3 1.28-5.6 3.02-7.79 5.24-2.19 2.22-3.91 4.79-5.14 7.72C.61 131.94 0 135.09 0 138.44v.13c0 3.49.6 6.72 1.81 9.67 1.21 2.96 2.9 5.51 5.07 7.66 2.17 2.15 4.77 3.83 7.79 5.04 3.02 1.21 6.37 1.81 10.04 1.81 4.3 0 8.12-.72 11.45-2.18zm19.51 1.38H91.4v-9.2H65.88v-9.87h22.16v-9.2H65.88v-9.54h25.18v-9.2H55.67v47.01zm45.94 0h10.21v-29.89l22.77 29.89h8.8v-47.01h-10.21v28.95l-22.03-28.95h-9.54v47.01zm53.99 0h35.73v-9.2h-25.52v-9.87h22.16v-9.2h-22.16v-9.54H191v-9.2h-35.4v47.01zm56.28-24.18v-13.5h10.27c2.55 0 4.54.56 5.98 1.68 1.43 1.12 2.15 2.8 2.15 5.04v.13c0 2.02-.68 3.63-2.05 4.84-1.37 1.21-3.32 1.81-5.88 1.81h-10.47zm-10.34 24.18h10.34V146.9H220l10.07 15.04h12.09l-11.48-16.79c3-1.12 5.43-2.88 7.29-5.27 1.86-2.39 2.79-5.5 2.79-9.3v-.13c0-4.48-1.34-8.06-4.03-10.75-3.18-3.18-7.75-4.77-13.7-4.77h-21.49v47.02zm64-19.68l6.25-15.25 6.25 15.25h-12.5zm-18.53 19.68h10.54l4.3-10.54h19.88l4.3 10.54h10.81l-20.15-47.35h-9.54l-20.14 47.35zm68.97 0h10.34v-37.47h14.3v-9.54h-38.95v9.54h14.3v37.47h.01zm50.73-9.91c-1.73-.78-3.22-1.85-4.5-3.19-1.28-1.34-2.26-2.91-2.96-4.7-.7-1.79-1.04-3.69-1.04-5.71v-.13c0-2.01.35-3.9 1.04-5.67.69-1.77 1.66-3.32 2.89-4.67 1.23-1.34 2.71-2.4 4.43-3.16 1.72-.76 3.64-1.14 5.74-1.14 2.06 0 3.96.39 5.71 1.18 1.75.78 3.26 1.85 4.53 3.19 1.28 1.34 2.26 2.91 2.95 4.7.69 1.79 1.04 3.69 1.04 5.71v.13c0 2.02-.35 3.91-1.04 5.68-.7 1.77-1.66 3.32-2.89 4.67-1.23 1.34-2.72 2.4-4.47 3.16-1.75.76-3.65 1.14-5.71 1.14-2.08-.01-3.99-.4-5.72-1.19zm15.65 8.8c3.07-1.28 5.71-3.02 7.93-5.24 2.22-2.22 3.95-4.79 5.2-7.72 1.25-2.93 1.88-6.08 1.88-9.44v-.13c0-3.36-.62-6.5-1.85-9.44-1.23-2.93-2.95-5.48-5.17-7.66-2.22-2.17-4.85-3.9-7.89-5.17-3.05-1.28-6.38-1.91-10.01-1.91s-6.97.64-10.04 1.91c-3.07 1.28-5.71 3.02-7.92 5.24-2.22 2.22-3.95 4.79-5.2 7.72-1.25 2.93-1.88 6.08-1.88 9.44v.13c0 3.36.62 6.5 1.85 9.44 1.23 2.93 2.95 5.48 5.17 7.66 2.22 2.17 4.85 3.89 7.89 5.17 3.04 1.28 6.38 1.91 10.01 1.91 3.62 0 6.96-.63 10.03-1.91zm35.49-23.07v-13.5h10.28c2.55 0 4.54.56 5.98 1.68 1.43 1.12 2.15 2.8 2.15 5.04v.13c0 2.02-.68 3.63-2.05 4.84-1.37 1.21-3.32 1.81-5.88 1.81h-10.48zm-10.34 24.18h10.34V146.9h8.13l10.07 15.04h12.09l-11.48-16.79c3-1.12 5.43-2.88 7.29-5.27 1.86-2.39 2.79-5.5 2.79-9.3v-.13c0-4.48-1.34-8.06-4.03-10.75-3.18-3.18-7.75-4.77-13.7-4.77h-21.49v47.02h-.01z"/></svg>