<svg xmlns="http://www.w3.org/2000/svg" role="img" viewBox="-14.36 -14.36 746.72 189.22"><title>Symphony BDK Java logo</title><style>svg {enable-background:new 0 0 718.6 161}</style><path fill="#000029" d="M37.2 80.2C23 80.2 10.9 75.6 0 68.7l6.7-10.2c10.9 7 20.9 10.3 32.2 10.3 13.2 0 19.3-5.1 19.3-11 0-17.1-55.7-6.9-55.7-34.1C2.6 10.5 15.9 0 37.2 0c14.4 0 26.9 5.4 34.2 12.7l-8.3 8.5c-6.3-5.5-16-9.9-26.1-9.9-12.5 0-20.9 4.5-20.9 10.9 0 15.9 55.8 7.4 55.8 34.2 0 14.2-14.3 23.8-34.7 23.8zm89.2-32.7v30h-13.5V47.3L79.2 2.6h15.7l25.3 34.6 24-34.6h15.5l-33.3 44.9zm127.4 30V18.8l-3.7 8-26.5 50.7h-8.1l-26.2-50.7-3.7-8v58.7h-12.9V2.6h18.8L216.6 53l3.5 7.6 3.5-7.6 24.9-50.4H267v74.9h-13.2zm86.6-52.6c0-6.2-4.2-10.8-14.4-10.8h-24.9v24.2h25.4c10.2 0 13.8-5 13.8-11v-2.4h.1zm-15.9 24.4h-23.4v28.2h-13.5V2.6h36.9c20.5 0 29.5 9.2 29.5 22.3v2c0 13-9 22.4-29.5 22.4zm103 28.2V45.2h-45.1v32.3H369V2.6h13.5v31.7h45.1V2.6H441v74.9h-13.5zm95-42.1c0-12.8-8.9-23.8-25.3-23.8S472 22.6 472 35.4v9.1c0 12.8 8.8 24.1 25.2 24.1s25.3-11.2 25.3-24.1v-9.1zm-25.3 44.8c-24.1 0-38.8-17.1-38.8-35.4v-9.3c0-18.7 14.7-35.4 38.8-35.4 24.2 0 38.9 16.8 38.9 35.4v9.3c0 18.3-14.7 35.4-38.9 35.4zm116.9-2.7l-42-47.3-5.4-7v54.3h-13.4V2.6h12.5L606.4 50l5.5 7V2.6h13.3v74.9h-11.1zm71.2-30v30h-13.5V47.3L638 2.6h15.8l25.3 34.6 24-34.6h15.5l-33.3 44.9z"/><path fill="#008fff" d="M5.3 160.4h21.2c10.1 0 16.7-4.1 16.7-12.2v-.2c0-6-3.2-9-8.3-10.9 3.2-1.8 5.8-4.6 5.8-9.6v-.1c0-3.1-1-5.5-3.1-7.6-2.5-2.5-6.5-3.9-11.6-3.9H5.3v44.5zM31 129.1c0 3.3-2.7 4.7-7.1 4.7h-9v-9.4h9.7c4.1 0 6.4 1.7 6.4 4.6v.1zm2.5 17.7v.1c0 3.3-2.6 4.8-6.9 4.8H14.9V142h11.3c5.1 0 7.3 1.8 7.3 4.8zm17.8 13.6h17.4c14 0 23.7-9.7 23.7-22.3v-.1c0-12.5-9.7-22.1-23.7-22.1H51.3v44.5zm17.4-35.7c8 0 13.4 5.5 13.4 13.4v.1c0 7.9-5.4 13.3-13.4 13.3h-7.6v-26.9h7.6v.1zm32.4 35.7h9.8v-13.6l5.2-5.3 13.8 19h11.8l-19-25.6 18.1-18.9H129l-18.1 19.5V116h-9.8v44.4zm75.6.6c4.8 0 8.8-1.4 11.6-4.1 2.7-2.7 4.2-6.6 4.2-11.9v-29.1h-10v28.7c0 5.2-2.3 7.4-6 7.4-3.1 0-5.6-1.7-8.1-4.5l-6.2 6.9c3 3.6 7.6 6.6 14.5 6.6zm20.4-.6h10l4.1-10H230l4.1 10h10.2l-19.1-44.9h-9l-19.1 44.9zm17.6-18.7l5.9-14.4 5.9 14.4h-11.8zm44.3 19h8.7l18-44.9h-10.6l-11.6 31.4-11.6-31.4H241l18 44.9zm23.4-.3h10l4.1-10h18.8l4.1 10h10.2l-19.1-44.9h-9l-19.1 44.9zm17.5-18.7l5.9-14.4 5.9 14.4h-11.8z"/></svg>