<svg xmlns="http://www.w3.org/2000/svg" role="img" viewBox="-4.49 -4.49 233.74 48.74"><title>Symphony Communication Services LLC logo</title><path fill="#6fc5ff" d="M22 10h1v1h-1z"/><path fill="#1a1a3d" d="M55 29h1v1h-1z"/><path d="M69 12h1v1h-1zm51 0h1v1h-1zm20 0h1v1h-1zm-88 1h1v1h-1zm20 0h1v1h-1zm59 0h1v1h-1zm78 0h1v1h-1zm-77 1h1v1h-1zm1 0h1v1h-1zm76 0h1v1h-1zm-18 3h1v1h-1zm-94 1h1v1h-1zm115 0h1v1h-1zm-106 1h1v1h-1zm85 0h1v1h-1zM55 20h1v1h-1zm99 1h1v1h-1zm61 1h1v5h-1zm-115 2h1v1h-1zm-37 1h1v1h-1zm-1 1h1v1h-1zm-11 1h1v1h-1zm164 0h1v1h-1z" fill="#000021"/><path d="M72 16h1v1h-1zm3 4h1v1h-1z" fill="#040426"/><path fill="#89899c" d="M100 21h1v1h-1z"/><path fill="#a0d8ff" d="M21 23h1v1h-1z"/><path fill="#47b4ff" d="M4 2h1v1H4z"/><path fill="#3c3c5a" d="M113 11h1v1h-1z"/><path fill="#272747" d="M68 11h1v1h-1z"/><path fill="#191939" d="M208 14h1v1h-1z"/><path fill="#dcf1ff" d="M22 17h1v1h-1z"/><path fill="#eeedf0" d="M100 20h1v1h-1z"/><path fill="#d4d4da" d="M198 22h1v1h-1z"/><path fill="#77c8ff" d="M22 24h1v1h-1z"/><path fill="#38afff" d="M1 4h1v1H1z"/><path fill="#fcfcfd" d="M118 10h1v1h-1z"/><path d="M102 29h1v1h-1zm52 0h1v1h-1zm46 0h1v1h-1z" fill="#9191a1"/><path fill="#a5a5b1" d="M174 29h1v1h-1z"/><path d="M26 13h1v1h-1zm-9 9h1v1h-1zm4 14h1v1h-1z" fill="#c0e5ff"/><path fill="#aeaebb" d="M176 22h1v1h-1z"/><g fill="#0098ff"><path d="M18 1h1v1h-1zm-8 1h5v2h-5zm5 0h2v2h-2zm2 0h1v2h-1z"/><path d="M6 3h16v1H6zm16 0h1v2h-1zM4 4h3v1H4zm3 0h13v1H7z"/><path d="M20 4h4v1h-4zm4 0h1v5h-1zM2 5h1v1H2zm3 0h1v1H5zm1 0h1v1H6zm16 0h1v1h-1z"/><path d="M23 5h2v1h-2zm2 0h1v2h-1zM3 6h2v1H3zm2 0h1v1H5zm18 0h2v1h-2zM3 7h1v8H3zm1 0h1v1H4zm21 0h1v3h-1zM2 8h1v7H2zm3 1h1v1H5zm19 0h1v1h-1zM5 10h1v1H5zm-1 3h1v3H4zm1 1h1v2H5z"/><path d="M2 15h3v1H2zm2 1h1v1H4zm1 0h1v1H5zm2 1h3v1H7zm3 0h4v1h-4zm4 0h1v2h-1z"/><path d="M12 18h5v1h-5zm5 0h1v1h-1zm-3 1h1v1h-1zm5 0h1v1h-1zm1 0h1v1h-1zm2 1h2v1h-2zm2 0h1v7h-1zm-2 1h1v1h-1z"/><path d="M23 21h3v1h-3zm3 0h1v1h-1zm-3 1h1v1h-1zm2 3h1v5h-1zM3 26h1v4H3zm2 1h1v1H5zm19 0h1v5h-1zM5 30h1v3H5z"/><path d="M23 30h2v2h-2zm2 0h1v1h-1zM4 31h2v1H4zm2 0h1v2H6zm15 0h1v2h-1z"/><path d="M22 31h2v1h-2zM4 32h4v1H4zm4 0h1v2H8zm11 0h2v1h-2zm4 0h1v1h-1zm1 0h1v1h-1z"/><path d="M5 33h5v1H5zm5 0h1v2h-1zm8 0h4v1h-4zm4 0h1v1h-1zM7 34h3v1H7zm8 0h1v3h-1zm1 0h2v1h-2zm2 0h2v1h-2zm2 0h1v1h-1zm-10 1h2v1h-2z"/><path d="M12 35h6v1h-6zm6 0h1v1h-1zm-7 1h5v1h-5zm5 0h1v1h-1zm-3 1h2v1h-2zm2 0h1v1h-1z"/></g><path d="M86 10h1v1h-1zm-19 1h1v1h-1zm40 2h1v1h-1zm-1 2h1v1h-1zm32 13h1v1h-1z" fill="#e4e4e8"/><path fill="#484863" d="M167 13h1v1h-1z"/><path fill="#2b2b4d" d="M93 15h1v1h-1z"/><path d="M122 15h1v1h-1zm-43 7h1v1h-1z" fill="#d4d4db"/><path d="M201 15h1v3h-1zm-69 1h1v1h-1zm69 2h1v1h-1zm0 8h1v1h-1z" fill="#0c0c33"/><path fill="#393958" d="M108 18h1v1h-1z"/><path fill="#56bbff" d="M4 24h1v1H4z"/><path d="M70 12h1v1h-1zm104 0h1v1h-1zm34 0h1v1h-1zM63 13h1v1h-1zm103 0h1v1h-1zm34 0h1v10h-1zM50 14h1v1h-1zm1 0h1v1h-1zm21 0h1v1h-1zm8 2h1v1h-1zm16 0h1v1h-1zm90 0h1v1h-1zm-90 1h1v1h-1zm11 0h1v1h-1zm83 0h1v1h-1zm28 0h1v1h-1zm-77 1h1v1h-1zm-44 1h1v1h-1zm47 0h1v1h-1zm-65 1h1v1h-1zm19 0h1v1h-1zm117 0h1v1h-1zM61 21h1v1h-1zm37 0h1v1h-1zm8 0h1v1h-1zm-44 1h1v1h-1zm37 0h1v1h-1zm63 0h1v1h-1zm38 1h1v1h-1zm-36 2h1v1h-1zm13 0h1v1h-1zm-13 1h1v1h-1zm2 1h1v1h-1zm8 0h1v1h-1z" fill="#002"/><path d="M55 13h1v1h-1zm6 1h1v1h-1z" fill="#ccccd4"/><path fill="#707087" d="M65 25h1v1h-1z"/><path fill="#595970" d="M60 29h1v1h-1z"/><path fill="#6a6a7f" d="M60 19h1v1h-1z"/><path fill="#1c1b3e" d="M99 20h1v1h-1z"/><path fill="#1c1c40" d="M97 21h1v1h-1z"/><path fill="#a1a0b0" d="M163 27h1v1h-1z"/><path fill="#090929" d="M85 11h1v1h-1z"/><path fill="#78788c" d="M52 14h1v1h-1z"/><path fill="#2ea9ff" d="M2 17h1v1H2z"/><path d="M194 18h1v1h-1zM75 29h1v1h-1z" fill="#ececef"/><path fill="#66c0ff" d="M24 34h1v1h-1z"/><path fill="#abddff" d="M17 38h1v1h-1z"/><path d="M19 6h1v1h-1zM6 29h1v1H6z" fill="#3bafff"/><path fill="#818196" d="M69 13h1v1h-1z"/><path d="M131 14h1v1h-1zM49 25h1v1h-1z" fill="#343453"/><path fill="#b5b4c0" d="M125 19h1v1h-1z"/><path d="M126 22h1v1h-1zm1 0h1v1h-1z" fill="#9392a3"/><path fill="#31314e" d="M52 11h1v1h-1z"/><path d="M130 14h1v1h-1zm-24 9h1v1h-1zm89 2h1v1h-1zm-73 3h1v1h-1z" fill="#d0d0d7"/><path fill="#4cb7ff" d="M5 18h1v1H5z"/><path fill="#1d1d41" d="M96 19h1v1h-1z"/><path d="M126 19h1v1h-1zm30 10h1v1h-1z" fill="#b5b5c0"/><path fill="#addeff" d="M28 20h1v1h-1z"/><path fill="#0a9bff" d="M20 22h1v1h-1z"/><path fill="#b1e0ff" d="M28 27h1v1h-1z"/><path fill="#060625" d="M223 11h1v1h-1z"/><path fill="#202041" d="M83 15h1v1h-1z"/><path fill="#5e5d76" d="M187 17h1v1h-1z"/><path fill="#bebdc7" d="M51 25h1v1h-1z"/><path fill="#69697f" d="M131 11h1v1h-1z"/><path d="M156 11h1v1h-1zM65 23h1v1h-1z" fill="#53536e"/><path fill="#696980" d="M184 12h1v1h-1z"/><path fill="#3d3d5a" d="M53 13h1v1h-1z"/><path fill="#c7c7d0" d="M218 14h1v1h-1z"/><path fill="#8f8f9f" d="M53 17h1v1h-1z"/><path fill="#3a3a54" d="M50 25h1v1h-1z"/><path fill="#9999a9" d="M173 26h1v1h-1z"/><path d="M139 11h1v1h-1zm-34 8h1v1h-1z" fill="#19193d"/><path d="M165 11h1v1h-1zm2 15h1v1h-1z" fill="#878798"/><path fill="#292948" d="M223 12h1v1h-1z"/><path fill="#41405e" d="M210 17h1v1h-1z"/><path d="M19 22h1v1h-1zm-1 15h1v1h-1z" fill="#3eb0ff"/><path fill="#cfecff" d="M6 27h1v1H6z"/><path fill="#a6a6b3" d="M52 29h1v1h-1z"/><path fill="#636378" d="M167 29h1v1h-1z"/><path fill="#fdfdfe" d="M202 10h1v1h-1z"/><path fill="#0c0c25" d="M154 11h1v1h-1z"/><path fill="#3a3a59" d="M107 20h1v1h-1z"/><path fill="#05052d" d="M54 27h1v1h-1z"/><path fill="#3cb0ff" d="M15 0h1v1h-1z"/><path fill="#c6e8ff" d="M13 6h1v1h-1z"/><path d="M0 8h1v6H0zm0 6h1v1H0zm0 11h1v2H0zm0 2h1v1H0zm1 4h1v1H1z" fill="#34adff"/><path d="M154 12h1v1h-1zm53 0h1v1h-1zM50 13h1v1h-1zm0 5h1v1h-1zm83 1h1v1h-1zm-1 1h1v1h-1zm8 8h1v1h-1z" fill="#000018"/><path d="M129 13h1v1h-1zm42 14h1v1h-1z" fill="#313151"/><path fill="#5d5d77" d="M189 13h1v1h-1z"/><path d="M78 17h1v1h-1zm102 0h1v1h-1zm38 3h1v1h-1z" fill="#e7e7eb"/><path d="M59 21h1v1h-1zm42 4h1v1h-1zm38 3h1v1h-1z" fill="#010129"/><path fill="#c4e7ff" d="M19 0h1v1h-1z"/><path d="M26 3h1v1h-1zM0 5h1v1H0z" fill="#7bcaff"/><path fill="#089aff" d="M15 16h1v1h-1z"/><path fill="#0697ff" d="M3 33h1v1H3z"/><path fill="#090930" d="M201 12h1v1h-1z"/><path fill="#2ba9ff" d="M0 16h1v1H0z"/><path fill="#e0e0e4" d="M118 11h1v1h-1z"/><path d="M82 16h1v1h-1zm23 7h1v1h-1z" fill="#050527"/><path fill="#818195" d="M72 17h1v1h-1z"/><path fill="#232345" d="M216 18h1v1h-1z"/><path d="M215 19h1v1h-1zm1 4h1v1h-1zm0 1h1v1h-1zm0 1h1v2h-1zm0 2h1v1h-1z" fill="#29294a"/><path fill="#00000f" d="M154 28h1v1h-1z"/><path d="M10 1h1v1h-1zm2 0h3v1h-3zm3 0h1v1h-1zM9 2h1v1H9zm9 0h1v1h-1zm1 0h1v1h-1zM5 3h1v1H5zM3 4h1v1H3zm0 1h1v1H3zm1 0h1v1H4zm3 0h1v1H7zm7 0h1v1h-1zm7 0h1v1h-1zM1 6h1v9H1zm1 0h1v1H2zm24 0h1v5h-1zM2 7h1v1H2zm2 1h1v4H4zm1 0h1v1H5zm19 2h2v1h-2zM5 11h1v1H5zm-1 1h1v1H4zm1 0h1v1H5zm-4 3h1v1H1zm5 0h1v1H6zm1 0h1v1H7zm-4 1h1v1H3zm3 0h3v1H6zm3 0h2v1H9zm2 0h1v2h-1zm-1 2h1v1h-1zm1 0h1v1h-1zm7 0h1v2h-1zm-3 1h2v1h-2zm2 0h1v1h-1zm4 0h1v2h-1zm4 0h1v1h-1zm-8 1h1v1h-1zm1 0h2v1h-2zm2 0h1v1h-1zm5 0h1v4h-1zm-4 1h1v1h-1zm5 1h1v1h-1zm0 1h1v6h-1zm-1 1h1v1h-1zM1 25h1v3H1zm1 0h1v3H2zm2 1h1v1H4zm1 0h1v1H5zm-1 1h1v3H4zm-3 1h1v1H1zm1 0h1v2H2zm24 1h1v1h-1zM2 30h2v1H2zm2 0h1v1H4zm-1 1h1v1H3zm22 0h1v1h-1zm-3 1h1v1h-1zm-5 1h1v1h-1zm6 0h1v1h-1zm-12 1h2v1h-2zm2 0h1v1h-1zm8 0h1v1h-1zM9 35h1v1H9zm10 0h1v1h-1zm-2 1h1v1h-1zm2 0h1v1h-1z" fill="#0097ff"/><path fill="#62beff" d="M21 1h1v1h-1z"/><path d="M24 12h1v1h-1zm-9 9h1v1h-1z" fill="#5fbeff"/><path d="M92 13h1v1h-1zm18 0h1v1h-1zm1 0h1v1h-1zm75 0h1v2h-1zm1 0h1v1h-1zm-95 1h1v1h-1zm19 0h1v1h-1zm76 0h1v1h-1zm-1 1h1v1h-1zm-45 4h1v1h-1zm13 0h1v1h-1zm25 0h1v1h-1zm-38 1h1v1h-1zm38 0h1v1h-1zm-58 1h1v1h-1zm-45 1h1v1h-1zm0 1h1v3h-1zm0 3h1v1h-1zm123 0h1v1h-1zM76 27h1v1h-1z" fill="#000028"/><path fill="#76768c" d="M107 14h1v1h-1z"/><path fill="#9a9aa9" d="M166 14h1v1h-1z"/><path fill="#5e5e78" d="M78 18h1v1h-1z"/><path fill="#41b1ff" d="M12 20h1v1h-1z"/><path fill="#36adff" d="M13 0h1v1h-1z"/><path d="M167 11h1v1h-1zm6 0h1v1h-1zM53 12h1v1h-1zm1 0h1v1h-1zm40 0h1v1h-1zm36 0h1v1h-1zm-68 1h1v1h-1zm29 0h1v8h-1zm64 0h1v14h-1zm21 0h1v1h-1zM49 15h1v1h-1zm128 1h1v1h-1zm-70 2h1v1h-1zm25 0h1v1h-1zm54 0h1v8h-1zM53 19h2v1h-2zm2 0h1v1h-1zm2 0h1v1h-1zm106 0h1v1h-1zM58 20h1v1h-1zm48 0h1v1h-1zm57 0h1v1h-1zm-72 1h1v5h-1zm71 2h1v1h-1zm1 0h1v2h-1zm-99 1h1v1h-1zm99 1h1v1h-1zm-72 1h1v1h-1zm9 0h1v1h-1zm75 0h1v1h-1zm11 0h1v1h-1zM52 27h1v1h-1zm9 0h1v1h-1zm94 0h1v1h-1zm10 0h1v1h-1zm10 0h1v1h-1zM54 28h1v1h-1zm112 0h1v1h-1z" fill="#00001e"/><path d="M84 14h1v1h-1zm9 2h1v1h-1zm125 3h1v1h-1z" fill="#4e4e6a"/><path fill="#9a9aaa" d="M213 28h1v1h-1z"/><path d="M205 10h1v1h-1zM99 18h1v1h-1z" fill="#efeff1"/><path d="M110 11h1v1h-1zm10 0h1v1h-1zm20 0h1v1h-1z" fill="#0c0c2e"/><path fill="#e5f4ff" d="M8 0h1v1H8z"/><path fill="#52526d" d="M171 10h1v1h-1z"/><path fill="#727286" d="M172 10h1v1h-1z"/><path d="M1 17h1v1H1zm21 11h1v1h-1z" fill="#6dc4ff"/><path d="M0 24h1v1H0zm26 8h1v1h-1z" fill="#2caaff"/><path d="M142 26h1v1h-1zm0 1h1v1h-1z" fill="#b2b3bf"/><path d="M59 27h1v1h-1zm109 2h1v1h-1z" fill="#262648"/><path d="M20 1h1v1h-1zM8 36h1v1H8z" fill="#27a7ff"/><path fill="#7b7a8e" d="M168 10h1v1h-1z"/><path fill="#c2c2cb" d="M184 29h1v1h-1z"/><path fill="#a7dcff" d="M19 30h1v1h-1z"/><path fill="#8b8b9e" d="M110 28h1v1h-1z"/><path fill="#272748" d="M113 28h1v1h-1z"/><path fill="#1d1d40" d="M216 28h1v1h-1z"/><path d="M83 10h1v1h-1zm104 0h1v1h-1z" fill="#f6f6f8"/><path fill="#7bc9ff" d="M24 18h1v1h-1z"/><path d="M119 11h1v1h-1zm-23 3h1v1h-1zm2 4h1v1h-1zm2 4h1v1h-1z" fill="#1b1b3e"/><path fill="#adadbb" d="M73 13h1v1h-1z"/><path fill="#89889b" d="M99 19h1v1h-1z"/><path fill="#000029" d="M154 20h1v1h-1z"/><path fill="#1ea4ff" d="M8 1h1v1H8z"/><path fill="#494966" d="M57 10h1v1h-1z"/><path fill="#e4f4ff" d="M1 3h1v1H1z"/><path d="M113 13h1v2h-1zm0 2h1v3h-1zm0 3h1v2h-1zm0 2h1v1h-1zm0 5h1v1h-1zm0 1h1v1h-1z" fill="#333252"/><path fill="#fcfcfc" d="M165 16h1v1h-1z"/><path fill="#9c9cac" d="M119 29h1v1h-1z"/><path d="M58 12h1v1h-1zm111 0h2v1h-2zm2 0h1v1h-1zm-78 1h1v1h-1zm1 0h1v1h-1zm27 0h1v1h-1zm-28 1h1v1h-1zm16 0h1v1h-1zm79 0h1v1h-1zm-9 4h1v1h-1zm-47 1h1v1h-1zm45 0h1v1h-1zm0 1h1v1h-1zm37 0h1v1h-1zM77 21h1v1h-1zm100 0h1v1h-1zm-99 1h1v1h-1zm0 1h1v3h-1zm121 2h1v1h-1zM78 26h1v1h-1zm23 0h1v1h-1zm1 0h1v1h-1zm-24 1h1v1h-1zm123 1h1v1h-1z" fill="#000027"/><path fill="#b9b9c5" d="M83 16h1v1h-1z"/><path d="M56 13h1v1h-1zm1 0h1v1h-1zm61 0h1v3h-1zm0 3h1v5h-1zm0 5h1v6h-1zm4 2h1v1h-1zm-4 4h1v1h-1zm-61 3h1v1h-1z" fill="#dedee3"/><path d="M94 15h1v1h-1zm-18 3h1v1h-1zm1 1h1v1h-1zm84 3h1v1h-1zm-63 1h1v1h-1z" fill="#242446"/><path d="M110 18h1v1h-1zm13 4h1v1h-1zm-3 7h1v1h-1zm20 0h1v1h-1z" fill="#9494a4"/><path fill="#29294c" d="M162 25h1v1h-1z"/><path fill="#111234" d="M61 11h1v1h-1z"/><path fill="#302f4f" d="M113 12h1v1h-1z"/><path d="M184 13h1v13h-1zm0 13h1v1h-1zm0 1h1v1h-1z" fill="#6b6b82"/><path fill="#7a798e" d="M190 14h1v1h-1z"/><path d="M9 0h1v1H9zm19 7h1v1h-1z" fill="#b0dfff"/><path fill="#8ed1ff" d="M10 0h1v1h-1z"/><path fill="#17173b" d="M106 17h1v1h-1z"/><path fill="#119dff" d="M13 20h1v1h-1z"/><path fill="#acacb8" d="M166 29h1v1h-1z"/><path fill="#010122" d="M209 12h1v1h-1z"/><path d="M81 13h1v1h-1zm28 4h1v1h-1zm-49 9h1v1h-1z" fill="#bebec8"/><path d="M49 18h1v1h-1zm82 0h1v1h-1z" fill="#77778c"/><path d="M93 18h1v2h-1zm0 2h1v4h-1zm0 4h1v1h-1zm0 1h1v1h-1z" fill="#3e3e5d"/><path fill="#575770" d="M130 19h1v1h-1z"/><path fill="#d9d9de" d="M104 27h1v1h-1z"/><path fill="#76768a" d="M50 28h1v1h-1z"/><path d="M93 28h1v1h-1zm-39 1h1v1h-1z" fill="#343454"/><path fill="#119fff" d="M19 1h1v1h-1z"/><path fill="#f9f9fa" d="M142 10h1v1h-1z"/><path d="M153 17h1v1h-1zm0 5h1v1h-1z" fill="#6d6d84"/><path fill="#c7e8ff" d="M28 13h1v1h-1z"/><path d="M48 15h1v1h-1zm4 1h1v1h-1zm83 1h1v1h-1zm-80 4h1v1h-1zm87 1h1v1h-1z" fill="#bcbcc7"/><path fill="#0c0c24" d="M185 11h1v1h-1z"/><path fill="#0398ff" d="M3 17h1v1H3z"/><path fill="#8f8fa2" d="M64 27h1v1h-1z"/><path fill="#00000c" d="M111 28h1v1h-1z"/><path fill="#cae9ff" d="M11 31h1v1h-1z"/><path d="M24 3h1v1h-1zm-1 5h1v2h-1zm0 2h1v1h-1zM7 14h1v1H7zm-6 2h1v1H1zm16 1h1v1h-1zm-9 1h1v1H8zm3 1h1v1h-1zm7 2h1v1h-1zM1 24h1v1H1zm22 0h1v2h-1zm0 2h1v2h-1zm0 2h1v1h-1zm-12 9h1v1h-1z" fill="#0091ff"/><path d="M71 11h1v1h-1zm117 1h1v1h-1z" fill="#3f3f5c"/><path fill="#8b8b9d" d="M50 19h1v1h-1z"/><path fill="#dcf0ff" d="M20 23h1v1h-1z"/><path fill="#d0d0d8" d="M65 26h1v1h-1z"/><path fill="#000015" d="M215 28h1v1h-1z"/><path fill="#ededef" d="M122 29h1v1h-1z"/><path d="M17 31h1v1h-1zm-2 1h1v1h-1z" fill="#adf"/><path fill="#0b9dff" d="M27 5h1v1h-1z"/><path d="M132 11h1v1h-1zm66 1h1v1h-1z" fill="#c4c4cd"/><path fill="#04042a" d="M61 13h1v1h-1z"/><path fill="#4e4e6b" d="M211 14h1v1h-1z"/><path d="M3 18h1v1H3zm3 8h1v1H6z" fill="#cdebff"/><path fill="#040427" d="M164 24h1v1h-1z"/><path fill="#afafbd" d="M197 27h1v1h-1z"/><path fill="#000013" d="M92 28h1v1h-1z"/><path fill="#18a1ff" d="M8 6h1v1H8z"/><path d="M199 11h1v1h-1zm2 3h1v1h-1zM54 18h1v1h-1zm147 1h1v2h-1zm0 2h1v2h-1zm0 2h1v2h-1zm0 2h1v1h-1z" fill="#0d0d33"/><path fill="#2a2949" d="M193 18h1v1h-1z"/><path fill="#9595a5" d="M121 29h1v1h-1z"/><path d="M92 12h1v1h-1zm1 0h1v1h-1zm17 0h1v1h-1zm1 0h1v1h-1zm10 0h1v1h-1zm65 0h1v1h-1zM51 13h1v1h-1zm32 0h1v1h-1zm49 0h1v1h-1zm32 1h1v1h-1zm-43 1h1v3h-1zm13 0h1v1h-1zm76 0h1v1h-1zm-76 2h1v1h-1zm-13 1h1v1h-1zm0 1h1v1h-1zm57 0h1v3h-1zM76 20h2v1h-2zm2 0h1v1h-1zm52 1h1v1h-1zm-53 1h1v5h-1zm101 0h1v1h-1zm-57 1h1v3h-1zm79 2h1v1h-1zm-79 1h1v1h-1zm79 0h1v1h-1zM77 27h1v1h-1z" fill="#000025"/><path fill="#333353" d="M188 16h1v1h-1z"/><path fill="#575872" d="M221 15h1v1h-1z"/><path fill="#35acff" d="M22 23h1v1h-1z"/><path fill="#dddde2" d="M170 30h1v1h-1z"/><path d="M6 2h1v1H6zm15 0h1v1h-1zM4 3h1v1H4zm20 8h1v1h-1zm-14 4h1v1h-1zm4 1h1v1h-1zM4 17h1v1H4zm16 1h1v1h-1zm4 1h1v1h-1zm-3 3h1v1h-1zM4 25h1v1H4zm4 6h1v1H8zm2 1h1v1h-1zm15 0h1v1h-1zm-13 1h1v1h-1zm-7 1h1v1H5zm17 0h1v1h-1zm-2 1h1v1h-1zm-7 3h1v1h-1z" fill="#0092ff"/><path fill="#7e7e92" d="M64 12h1v1h-1z"/><path fill="#04042c" d="M199 24h1v1h-1z"/><path fill="#b1b1bd" d="M68 12h1v1h-1z"/><path fill="#0f1035" d="M51 15h1v1h-1z"/><path fill="#ededf1" d="M224 12h1v1h-1z"/><path d="M209 16h1v1h-1zM79 21h1v1h-1z" fill="#78788d"/><path fill="#0c0c29" d="M208 11h1v1h-1z"/><path fill="#dad9e0" d="M163 12h1v1h-1z"/><path d="M60 13h1v1h-1zm93 5h1v1h-1z" fill="#4f4f6a"/><path fill="#7e7e93" d="M219 13h1v1h-1z"/><path fill="#4db6ff" d="M2 3h1v1H2z"/><path d="M221 10h1v1h-1zm-86 4h1v1h-1zm-39 7h1v1h-1z" fill="#efeff2"/><path d="M176 17h1v1h-1zm-12 1h1v1h-1zm-35 4h1v1h-1z" fill="#a1a1b0"/><path d="M192 17h1v1h-1zm-26 9h1v1h-1z" fill="#141436"/><path fill="#28a8ff" d="M14 33h1v1h-1z"/><path d="M90 11h1v1h-1zm75 4h1v1h-1zm-71 1h1v1h-1zm49 5h1v1h-1zm34 6h1v1h-1z" fill="#8f8fa1"/><path d="M92 11h1v1h-1zm19 0h1v1h-1zm10 0h3v1h-3zm3 0h3v1h-3zm3 0h1v1h-1zm-8 1h1v1h-1zm82 1h1v1h-1zm0 14h1v1h-1z" fill="#0c0c32"/><path d="M93 26h1v1h-1zm-37 1h1v1h-1zm37 0h1v1h-1z" fill="#3e3e5c"/><path d="M16 32h1v1h-1zm0 6h1v1h-1z" fill="#3aaeff"/><path fill="#9292a3" d="M128 22h1v1h-1z"/><path fill="#17173a" d="M178 25h1v1h-1z"/><path fill="#e3e3e8" d="M49 28h1v1h-1z"/><path fill="#0197ff" d="M21 35h1v1h-1z"/><path d="M142 13h1v3h-1zm0 3h1v1h-1zm-14 3h1v1h-1zm83 0h1v1h-1zm-69 4h1v2h-1zm0 2h1v1h-1z" fill="#b3b3bf"/><path fill="#1c1c3c" d="M80 19h1v1h-1z"/><path d="M70 11h1v1h-1zm14 0h1v1h-1z" fill="#0c0c2b"/><path fill="#aedeff" d="M28 12h1v1h-1z"/><path fill="#2a2a4b" d="M59 19h1v1h-1z"/><path fill="#89cfff" d="M6 1h1v1H6z"/><path d="M119 10h1v1h-1zm10 0h1v1h-1zm10 0h1v1h-1zm35 0h1v1h-1zm27 0h1v1h-1zm20 6h1v1h-1zM79 29h1v1h-1z" fill="#ebebee"/><path fill="#171738" d="M52 17h1v1h-1z"/><path fill="#1ca2ff" d="M12 38h1v1h-1z"/><path fill="#616179" d="M55 10h1v1h-1z"/><path fill="#f5f5f7" d="M90 10h1v1h-1z"/><path fill="#63637c" d="M176 23h1v1h-1z"/><path d="M92 29h1v1h-1zm63 0h1v1h-1zm31 0h1v1h-1z" fill="#9292a2"/><path fill="#20a5ff" d="M27 30h1v1h-1z"/><path d="M139 12h1v1h-1zm29 15h1v1h-1z" fill="#0a0a31"/><path fill="#848498" d="M105 18h1v1h-1z"/><path d="M220 12h1v1h-1zm-13 1h1v1h-1zm-74 7h1v1h-1zm61 3h1v1h-1zm-24 4h1v1h-1z" fill="#3d3d5b"/><path fill="#9797a6" d="M59 13h1v1h-1z"/><path fill="#87879b" d="M212 15h1v1h-1z"/><path d="M161 17h1v1h-1zm18 6h1v1h-1zM62 25h1v1h-1z" fill="#2f2f4f"/><path fill="#008eff" d="M23 11h1v1h-1z"/><path d="M60 11h1v1h-1zm24 1h1v1h-1zm82 0h1v1h-1zm-54 1h1v14h-1zm29 0h1v1h-1zm0 1h1v3h-1zm-69 1h1v1h-1zm10 0h1v1h-1zm80 0h1v1h-1zm1 1h1v1h-1zm-83 1h1v1h-1zm28 0h1v1h-1zm33 0h1v1h-1zm21 0h1v1h-1zm-87 1h1v1h-1zm142 0h1v1h-1zM75 19h1v1h-1zm4 0h1v1h-1zm28 0h1v1h-1zm-46 1h1v1h-1zm70 0h1v1h-1zm11 0h1v1h-1zm74 0h1v1h-1zM62 21h1v1h-1zm14 0h1v1h-1zm2 0h1v1h-1zm27 0h1v1h-1zm109 0h1v1h-1zm-73 1h1v3h-1zm-42 1h1v1h-1zm79 0h1v1h-1zm-75 1h1v1h-1zm38 1h1v1h-1zm35 0h1v1h-1zm21 0h1v1h-1zm-56 1h1v1h-1zm24 0h1v1h-1zm12 0h1v1h-1zm-65 1h1v1h-1zm29 0h1v1h-1z" fill="#000020"/><path fill="#171838" d="M211 18h1v1h-1z"/><path fill="#48b4ff" d="M6 7h1v1H6z"/><path d="M22 8h1v1h-1zm0 19h1v1h-1z" fill="#73c6ff"/><path d="M93 11h1v1h-1zm35 0h1v1h-1z" fill="#0c0c31"/><path d="M23 12h1v1h-1zm-2 17h1v1h-1z" fill="#a8dcff"/><path d="M65 13h1v1h-1zm-8 5h1v1h-1zm36 11h1v1h-1z" fill="#b0b0bc"/><path d="M14 15h1v1h-1zM7 36h1v1H7z" fill="#98d5ff"/><path d="M192 21h1v1h-1zM62 24h1v1h-1z" fill="#63627b"/><path fill="#dbdbe1" d="M61 23h1v1h-1z"/><path d="M26 4h1v1h-1zm1 8h1v1h-1z" fill="#008fff"/><path fill="#6bc3ff" d="M18 6h1v1h-1z"/><path fill="#4f4f6b" d="M57 27h1v1h-1z"/><path d="M7 30h1v1H7zm4 2h1v1h-1z" fill="#0498ff"/><path fill="#c7c6d0" d="M220 17h1v1h-1z"/><path fill="#1e1e40" d="M74 19h1v1h-1z"/><path fill="#c6e7ff" d="M10 20h1v1h-1z"/><path fill="#141437" d="M196 25h1v1h-1z"/><path fill="#1ea2ff" d="M10 37h1v1h-1z"/><path fill="#17173c" d="M201 11h1v1h-1z"/><path fill="#7b7b90" d="M82 12h1v1h-1z"/><path fill="#cacad3" d="M130 22h1v1h-1z"/><path fill="#9fd8ff" d="M5 24h1v1H5z"/><path fill="#79798f" d="M48 26h1v1h-1z"/><path fill="#d8d8dd" d="M213 29h1v1h-1z"/><path fill="#5abbff" d="M10 31h1v1h-1z"/><path d="M123 13h1v1h-1zm5 0h1v1h-1z" fill="#454562"/><path fill="#8e8ea0" d="M52 20h1v1h-1z"/><path d="M153 13h1v3h-1zm0 3h1v1h-1zm0 7h1v2h-1zm0 2h1v1h-1zm0 1h1v1h-1zm0 1h1v1h-1z" fill="#686880"/><path d="M129 19h1v1h-1zm-31 5h1v1h-1z" fill="#9d9dac"/><path fill="#85cdff" d="M27 31h1v1h-1z"/><path fill="#31314f" d="M130 11h1v1h-1z"/><path d="M22 12h1v1h-1zM10 38h1v1h-1z" fill="#ecf7ff"/><path fill="#dadae0" d="M170 13h1v1h-1z"/><path fill="#9090a1" d="M97 22h1v1h-1z"/><path fill="#a9a9b5" d="M167 10h1v1h-1z"/><path d="M224 10h1v1h-1zm-86 1h1v1h-1zm-61 7h1v1h-1zm102 7h1v1h-1zm-76 4h1v1h-1zm66 1h1v1h-1z" fill="#e6e6ea"/><path fill="#121233" d="M175 14h1v1h-1z"/><path fill="#3db1ff" d="M23 18h1v1h-1z"/><path fill="#5f5f79" d="M195 20h1v1h-1z"/><path d="M2 4h1v1H2zm25 16h1v1h-1zm-1 11h1v1h-1zm-2 2h1v1h-1z" fill="#0090ff"/><path d="M53 11h1v1h-1zm67 2h1v1h-1zm20 0h1v6h-1zm25 0h1v1h-1zm56 0h1v1h-1zm-100 1h1v1h-1zm-71 1h1v2h-1zm83 0h1v1h-1zm-60 1h1v1h-1zm61 0h1v1h-1zm56 0h1v1h-1zm21 0h1v1h-1zM50 17h1v1h-1zm24 0h1v1h-1zm104 0h1v1h-1zm-45 1h1v1h-1zm44 0h1v1h-1zm14 0h1v1h-1zm-51 1h1v8h-1zm2 0h1v1h-1zm71 0h1v1h-1zm3 0h1v1h-1zm-96 1h7v1h-7zm7 0h1v1h-1zm-7 1h1v1h-1zm0 1h1v1h-1zm77 2h1v1h-1zm3 0h1v1h-1zm-97 1h1v1h-1zm-52 1h1v1h-1zm125 0h1v1h-1zm-74 1h1v1h-1zm19 0h1v1h-1zm19 0h1v1h-1zm59 0h1v1h-1zm1 0h1v1h-1z" fill="#000024"/><path fill="#3aafff" d="M0 6h1v1H0z"/><path fill="#66667e" d="M153 12h1v1h-1z"/><path d="M178 13h1v1h-1zm-56 1h1v1h-1z" fill="#d3d3da"/><path d="M58 18h1v1h-1zm1 4h1v1h-1zm116 2h1v1h-1z" fill="#d6d6dc"/><path fill="#b9e3ff" d="M1 32h1v1H1z"/><path fill="#d1ecff" d="M5 1h1v1H5z"/><path fill="#19a0ff" d="M23 2h1v1h-1z"/><path fill="#acddff" d="M15 39h1v1h-1z"/><path d="M110 17h1v1h-1zm103 7h1v2h-1zm0 2h1v1h-1zm0 1h1v1h-1z" fill="#9f9fae"/><path fill="#40405c" d="M52 26h1v1h-1z"/><path fill="#a2d9ff" d="M22 1h1v1h-1z"/><path fill="#0b0b2c" d="M206 11h1v1h-1z"/><path fill="#63c0ff" d="M8 19h1v1H8z"/><path fill="#a6a6b5" d="M63 28h1v1h-1z"/><path fill="#55546f" d="M169 10h1v1h-1z"/><path fill="#78788e" d="M133 12h1v1h-1z"/><path fill="#020223" d="M212 19h1v1h-1z"/><path fill="#333351" d="M165 28h1v1h-1z"/><path fill="#daf0ff" d="M25 2h1v1h-1z"/><path d="M49 14h1v1h-1zm130 3h1v1h-1zm18 6h1v1h-1zM56 29h1v1h-1z" fill="#121237"/><path fill="#696981" d="M80 15h1v1h-1z"/><path d="M109 15h1v1h-1zm25 3h1v1h-1z" fill="#08082f"/><path fill="#323252" d="M113 21h1v1h-1z"/><path fill="#6b6b83" d="M224 11h1v1h-1z"/><path d="M202 12h1v15h-1zm-97 5h1v1h-1zm97 10h1v1h-1z" fill="#eaeaee"/><path fill="#494a65" d="M70 14h1v1h-1z"/><path d="M65 22h1v1h-1zm48 7h1v1h-1zm86 0h1v1h-1z" fill="#aaaab7"/><path fill="#1f1f40" d="M174 26h1v1h-1z"/><path fill="#6fc4ff" d="M24 2h1v1h-1z"/><path fill="#09092b" d="M222 13h1v1h-1z"/><path fill="#494a66" d="M176 16h1v1h-1z"/><path d="M219 14h1v1h-1zM75 17h1v1h-1z" fill="#040425"/><path d="M209 15h1v1h-1zm8 2h1v1h-1zm-21 5h1v1h-1z" fill="#010123"/><path d="M67 10h1v1h-1zm-2 2h1v1h-1z" fill="#f4f4f6"/><path d="M85 13h1v1h-1zm37 6h1v1h-1zm-26 1h1v1h-1zm5 3h1v1h-1z" fill="#8d8d9f"/><path fill="#224" d="M217 20h1v1h-1z"/><path fill="#7dcaff" d="M18 22h1v1h-1z"/><path fill="#62617b" d="M104 26h1v1h-1z"/><path fill="#272749" d="M59 29h1v1h-1z"/><path fill="#21a3ff" d="M22 7h1v1h-1z"/><path d="M56 10h1v1h-1zm100 3h1v13h-1zm-83 5h1v1h-1zm120 4h1v1h-1zm-37 4h1v1h-1zm0 1h1v1h-1z" fill="#4b4b67"/><path d="M6 12h1v1H6zm9 3h1v1h-1z" fill="#d3edff"/><path fill="#74c5ff" d="M17 0h1v1h-1z"/><path fill="#7f7f93" d="M179 24h1v1h-1z"/><path d="M191 16h1v1h-1zm21 0h1v1h-1z" fill="#08082a"/><path d="M176 18h1v1h-1zm-23 11h1v1h-1z" fill="#c2c2cc"/><path d="M166 10h1v1h-1zm-70 2h1v1h-1zm118 5h1v1h-1zm-80 3h1v1h-1z" fill="#eeeef1"/><path d="M106 16h1v1h-1zm106 4h1v1h-1z" fill="#77778d"/><path fill="#222242" d="M79 17h1v1h-1z"/><path fill="#242442" d="M131 21h1v1h-1z"/><path fill="#2d2d4f" d="M100 27h1v1h-1z"/><path fill="#94d4ff" d="M2 33h1v1H2z"/><path d="M14 6h1v1h-1zm-1 26h1v1h-1z" fill="#caeaff"/><path d="M172 11h1v1h-1zM71 12h1v1h-1zm60 0h1v1h-1zm34 0h1v1h-1zm10 0h1v1h-1zm12 0h1v1h-1zm-2 1h1v14h-1zM81 15h1v1h-1zm129 1h1v1h-1zm-56 1h1v1h-1zm0 5h1v1h-1zm40 0h1v1h-1zm20 0h1v5h-1zm-29 5h1v1h-1zm29 0h1v1h-1zM56 28h1v1h-1z" fill="#00001a"/><path d="M91 11h1v1h-1zm64 0h1v1h-1z" fill="#0c0c28"/><path d="M72 12h1v1h-1zm145 4h1v1h-1z" fill="#6f6f86"/><path fill="#ccccd5" d="M177 12h1v1h-1z"/><path d="M63 15h1v1h-1zm11 5h1v1h-1z" fill="#babac5"/><path fill="#c3c3cd" d="M135 15h1v1h-1z"/><path fill="#838396" d="M60 22h1v1h-1z"/><path fill="#484765" d="M170 10h1v1h-1z"/><path d="M83 11h1v1h-1zm96 5h1v1h-1z" fill="#3f3f5d"/><path fill="#67c1ff" d="M1 23h1v1H1z"/><path d="M22 35h1v1h-1zm-2 1h1v1h-1z" fill="#4eb6ff"/><path d="M110 16h1v1h-1zm14 6h1v1h-1zm1 0h1v1h-1zm-13 7h1v1h-1zm29 0h1v1h-1zm74 0h1v1h-1z" fill="#9393a3"/><path fill="#1ca3ff" d="M19 17h1v1h-1z"/><path d="M131 17h1v1h-1zm49 4h1v1h-1z" fill="#d7d7dd"/><path d="M90 12h1v1h-1zm7 3h1v1h-1zm1 2h1v1h-1z" fill="#88889b"/><path fill="#9b9bab" d="M179 15h1v1h-1z"/><path fill="#e2e2e7" d="M162 13h1v1h-1z"/><path fill="#b1b1be" d="M189 18h1v1h-1z"/><path fill="#b3b3bd" d="M61 19h1v1h-1z"/><path fill="#131336" d="M54 20h1v1h-1z"/><path fill="#7a7a90" d="M191 20h1v1h-1z"/><path fill="#57bbff" d="M12 32h1v1h-1z"/><path d="M51 11h1v1h-1zm162 11h1v1h-1z" fill="#a1a0af"/><path d="M56 11h2v1h-2zm2 0h1v1h-1zm111 0h2v1h-2zm2 0h1v1h-1zM51 12h1v1h-1zm9 0h2v1h-2zm2 0h1v1h-1zm22 1h1v1h-1zm80 0h1v1h-1zm-93 1h1v1h-1zm12 0h1v1h-1zm94 0h1v1h-1zm12 0h1v1h-1zM73 15h1v1h-1zm105 0h1v1h-1zM49 16h1v1h-1zm25 0h1v1h-1zm88 0h1v1h-1zm-89 1h1v1h-1zm104 0h1v1h-1zM74 18h1v1h-1zm32 0h1v1h-1zm112 0h1v1h-1zm-25 1h1v1h-1zm24 0h1v1h-1zm-88 1h1v1h-1zm1 0h1v1h-1zm13 0h9v1h-9zm9 0h1v1h-1zm61 0h1v1h-1zm-18 1h1v1h-1zm-97 1h1v1h-1zm-34 1h1v1h-1zm36 0h1v1h-1zm95 0h1v1h-1zM63 24h1v1h-1zm-2 4h1v1h-1zm15 0h1v1h-1zm93 0h2v1h-2zm2 0h2v1h-2zm2 0h1v1h-1z" fill="#00001c"/><path fill="#0f0f30" d="M189 17h1v1h-1z"/><path fill="#61617a" d="M142 21h1v1h-1z"/><path fill="#696a81" d="M103 28h1v1h-1z"/><path fill="#30304d" d="M175 28h1v1h-1z"/><path d="M70 10h1v1h-1zm116 0h1v1h-1z" fill="#e9e9eb"/><path fill="#8a8a9d" d="M95 11h1v1h-1z"/><path fill="#1ba2ff" d="M3 24h1v1H3z"/><path fill="#07082e" d="M198 24h1v1h-1z"/><path fill="#20203e" d="M166 11h1v1h-1z"/><path d="M52 12h1v1h-1zm7 0h1v1h-1zm109 0h1v1h-1zm4 0h1v1h-1zm28 0h1v1h-1zM82 14h1v1h-1zm108 1h1v1h-1zm29 0h1v1h-1zM92 16h1v11h-1zm16 0h1v1h-1zm81 0h1v1h-1zm30 0h1v1h-1zm-7 1h1v1h-1zm-58 1h1v1h-1zm9 0h1v1h-1zM59 20h1v1h-1zm63 1h1v1h-1zm7 0h1v1h-1zm34 0h1v1h-1zm-59 2h1v1h-1zm92 1h1v1h-1zm-96 1h1v1h-1zm-50 1h1v1h-1zm12 1h1v1h-1zm1 0h1v1h-1zm29 0h1v1h-1zm9 0h1v1h-1zm72 0h1v1h-1zM52 28h1v1h-1zm116 0h1v1h-1z" fill="#00001f"/><path fill="#ebf7ff" d="M3 23h1v1H3z"/><path fill="#cbeaff" d="M9 30h1v1H9z"/><path fill="#0d9bff" d="M25 3h1v1h-1z"/><path fill="#a9a9b6" d="M174 14h1v1h-1z"/><path d="M49 17h1v1h-1zm83 0h1v1h-1z" fill="#08082d"/><path fill="#858599" d="M142 18h1v1h-1z"/><path fill="#282849" d="M58 21h1v1h-1z"/><path fill="#131331" d="M49 27h1v1h-1z"/><path d="M7 7h1v1H7zm0 12h1v1H7z" fill="#aadcff"/><path d="M131 15h1v1h-1zm82 1h1v1h-1z" fill="#c1c1cb"/><path fill="#b6e2ff" d="M11 14h1v1h-1z"/><path fill="#d9d9df" d="M48 17h1v1h-1z"/><path d="M95 18h1v1h-1zm49 3h6v1h-6zm6 0h1v1h-1z" fill="#8c8c9e"/><path fill="#858498" d="M75 21h1v1h-1z"/><path fill="#d6d6dd" d="M75 22h1v1h-1z"/><path fill="#0598ff" d="M9 31h1v1H9z"/><path d="M14 0h1v1h-1zM0 7h1v1H0zm0 8h1v1H0zm16 1h1v1h-1z" fill="#33acff"/><path d="M85 12h1v1h-1zm-3 1h1v1h-1z" fill="#030325"/><path d="M124 13h3v1h-3zm3 0h1v1h-1z" fill="#444360"/><path fill="#119eff" d="M6 18h1v1H6z"/><path d="M26 19h1v1h-1zm-10 2h1v1h-1z" fill="#23a5ff"/><path fill="#32abff" d="M0 28h1v1H0z"/><path fill="#cbcbd3" d="M79 28h1v1h-1z"/><path d="M221 11h1v1h-1zm-44 2h1v1h-1z" fill="#181838"/><path d="M56 12h1v1h-1zm1 0h1v1h-1z" fill="#06062d"/><path d="M90 13h1v14h-1zm74 9h1v1h-1zm-74 5h1v1h-1z" fill="#8a8a9c"/><path fill="#1b1a3c" d="M210 13h1v1h-1z"/><path d="M211 13h1v1h-1zm-17 11h1v1h-1zM56 30h1v1h-1z" fill="#e1e1e6"/><path fill="#c6c6d0" d="M223 13h1v1h-1z"/><path fill="#9191a2" d="M110 19h1v1h-1z"/><path fill="#212141" d="M195 24h1v1h-1z"/><path d="M112 11h1v1h-1zm29 0h1v1h-1z" fill="#0c0c2a"/><path fill="#b2b2bf" d="M210 12h1v1h-1z"/><path fill="#9090a0" d="M111 29h1v1h-1z"/><path fill="#dff2ff" d="M26 33h1v1h-1z"/><path fill="#2e2d4f" d="M99 25h1v1h-1z"/><path fill="#88889c" d="M198 28h1v1h-1z"/><path fill="#aeaebc" d="M208 15h1v1h-1z"/><path d="M187 18h1v1h-1zm0 1h1v7h-1zm0 7h1v1h-1zm0 1h1v1h-1z" fill="#51516c"/><path d="M190 19h1v1h-1zm-51 10h1v1h-1z" fill="#9c9cab"/><path fill="#34acff" d="M20 30h1v1h-1z"/><path d="M153 10h1v1h-1zm64 5h1v1h-1zm-24 8h1v1h-1z" fill="#f2f2f4"/><path fill="#9998a8" d="M172 13h1v1h-1z"/><path fill="#eaf6ff" d="M12 14h1v1h-1z"/><path fill="#e3f4ff" d="M6 19h1v1H6z"/><path fill="#9bd6ff" d="M5 35h1v1H5z"/><path d="M108 11h1v1h-1zm-35 8h1v1h-1zm8 0h1v1h-1zm91 7h1v1h-1z" fill="#e3e3e7"/><path d="M209 11h1v1h-1zm-45 6h1v1h-1z" fill="#79798e"/><path fill="#c7e9ff" d="M7 29h1v1H7z"/><path d="M69 10h1v1h-1zm16 0h1v1h-1zm7 0h2v1h-2zm2 0h1v1h-1zm26 0h1v1h-1zm1 0h7v1h-7zm7 0h1v1h-1zm12 0h1v1h-1zm67 0h1v1h-1zm16 0h1v1h-1zm-47 1h1v1h-1zm26 17h1v1h-1z" fill="#e9e9ed"/><path fill="#41415e" d="M53 20h1v1h-1z"/><path fill="#3b3b5a" d="M55 18h1v1h-1z"/><path fill="#15153a" d="M58 29h1v1h-1z"/><path fill="#f1faff" d="M28 30h1v1h-1z"/><path fill="#151537" d="M174 11h1v1h-1z"/><path d="M139 15h1v1h-1zm0 12h1v1h-1z" fill="#0e0e33"/><path d="M165 14h1v1h-1zM51 16h1v1h-1z" fill="#060629"/><path fill="#0a0a2e" d="M176 24h1v1h-1z"/><path d="M16 6h1v1h-1zM0 17h1v1H0zm19 20h1v1h-1z" fill="#b6e1ff"/><path fill="#555570" d="M162 14h1v1h-1z"/><path fill="#999aaa" d="M103 22h1v1h-1z"/><path fill="#4c4c68" d="M161 23h1v1h-1z"/><path fill="#03032a" d="M119 28h1v1h-1z"/><path d="M81 18h1v1h-1zm25 4h1v1h-1z" fill="#4d4d69"/><path fill="#f2f1f4" d="M95 19h1v1h-1z"/><path d="M207 11h1v1h-1zM103 27h1v1h-1z" fill="#0b0b2f"/><path d="M142 12h1v1h-1zm-34 7h1v1h-1z" fill="#b2b2be"/><path d="M54 13h1v1h-1zm168 1h1v1h-1z" fill="#9393a4"/><path fill="#4a4a66" d="M173 13h1v1h-1z"/><path fill="#161637" d="M51 19h1v1h-1z"/><path fill="#9190a1" d="M53 26h1v1h-1z"/><path d="M54 11h1v1h-1zm5 0h1v1h-1zm109 0h1v1h-1zm-59 1h1v1h-1zm24 1h1v1h-1zm30 1h1v1h-1zm-52 3h1v10h-1zm-48 4h1v1h-1zm115 3h1v1h-1zM64 25h1v1h-1zm47 2h1v1h-1zm-54 1h1v1h-1zm1 0h1v1h-1zm19 0h1v1h-1zm44 0h1v1h-1z" fill="#000019"/><path fill="#6f6f85" d="M153 11h1v1h-1z"/><path fill="#9e9dab" d="M61 29h1v1h-1z"/><path fill="#9191a0" d="M214 29h1v1h-1z"/><path d="M134 13h1v1h-1zm18 8h1v1h-1z" fill="#8f8fa0"/><path d="M163 13h1v1h-1zm50 4h1v1h-1z" fill="#262646"/><path d="M97 14h1v1h-1zm1 2h1v1h-1zm3 6h1v1h-1z" fill="#ededf0"/><path d="M198 15h1v3h-1zm0 3h1v2h-1zm-22 2h1v1h-1zm22 0h1v1h-1z" fill="#c5c5ce"/><path fill="#86ceff" d="M11 20h1v1h-1z"/><path d="M91 28h1v1h-1zm11 0h1v1h-1z" fill="#001"/><path fill="#0c0c2f" d="M222 11h1v1h-1z"/><path d="M50 12h1v1h-1zm164 6h1v1h-1zm-80 1h1v1h-1zm19 9h1v1h-1z" fill="#606079"/><path fill="#42b2ff" d="M6 13h1v1H6z"/><path d="M198 13h1v1h-1zm0 1h1v1h-1z" fill="#c5c5cd"/><path fill="#b5b4c1" d="M124 19h1v1h-1z"/><path fill="#b3dfff" d="M2 23h1v1H2z"/><path fill="#1aa1ff" d="M22 29h1v1h-1z"/><path fill="#56566d" d="M173 29h1v1h-1z"/><path d="M28 8h1v3h-1zm0 3h1v1h-1zm0 10h1v5h-1zm0 5h1v1h-1z" fill="#b2e0ff"/><path d="M69 11h1v1h-1zm147 10h1v1h-1z" fill="#0a0a2a"/><path fill="#151539" d="M169 29h1v1h-1z"/><path fill="#28274a" d="M172 29h1v1h-1z"/><path fill="#089bff" d="M13 33h1v1h-1z"/><path fill="#0297ff" d="M23 34h1v1h-1z"/><path fill="#92d2ff" d="M9 37h1v1H9z"/><path fill="#a8a8b5" d="M60 10h1v1h-1z"/><path d="M138 12h1v3h-1zm-90 2h1v1h-1zm26 0h1v1h-1zm-4 1h1v1h-1zm68 0h1v12h-1zm-87 5h1v1h-1zm87 7h1v1h-1zm33 3h1v1h-1z" fill="#e5e5e9"/><path d="M55 11h1v1h-1zm28 1h1v1h-1zm8 0h1v1h-1zm32 0h5v1h-5zm5 0h1v1h-1zm27 0h1v1h-1zm66 0h1v1h-1zm1 0h1v1h-1zM70 13h1v1h-1zm25 0h1v1h-1zm59 0h1v1h-1zm34 0h1v1h-1zm32 0h1v2h-1zm-112 1h1v1h-1zm46 0h1v2h-1zm56 0h1v1h-1zM96 15h1v1h-1zm115 0h1v1h-1zm9 0h1v1h-1zM95 16h1v1h-1zm12 0h1v1h-1zm4 0h1v1h-1zm43 0h1v1h-1zm64 0h1v1h-1zM81 17h1v1h-1zm16 0h1v1h-1zm-18 1h1v1h-1zm1 0h1v1h-1zm16 0h1v1h-1zm117 0h1v1h-1zM52 19h1v1h-1zm46 0h1v1h-1zm-38 1h1v1h-1zm37 0h1v1h-1zm8 0h1v1h-1zm87 0h2v1h-2zm2 0h1v1h-1zm-95 1h1v1h-1zm94 0h1v1h-1zM64 22h1v1h-1zm90 1h1v4h-1zm-50 1h1v1h-1zm58 0h1v1h-1zm-59 2h1v1h-1zm-53 1h1v1h-1zm104 0h1v1h-1zM53 28h1v1h-1zm6 0h1v1h-1zm1 0h1v1h-1zm18 0h1v1h-1zm89 0h1v1h-1zm32 0h1v1h-1z" fill="#00001b"/><path fill="#93d4ff" d="M7 13h1v1H7z"/><path fill="#1ba1ff" d="M12 15h1v1h-1z"/><path d="M122 18h1v1h-1zm-4 10h1v1h-1z" fill="#dcdce1"/><path d="M161 24h1v1h-1zm-62 2h1v1h-1z" fill="#a2a2b1"/><path fill="#bce4ff" d="M28 6h1v1h-1z"/><path d="M156 10h1v1h-1zm-76 4h1v1h-1z" fill="#f0f0f2"/><path fill="#9e9eaf" d="M191 15h1v1h-1z"/><path fill="#c8c8d1" d="M164 28h1v1h-1z"/><path d="M25 33h1v1h-1zM6 35h1v1H6z" fill="#2ca8ff"/><path d="M21 7h1v1h-1zM4 18h1v1H4z" fill="#8dd0ff"/><path d="M87 10h1v1h-1zm16 11h1v1h-1zm99 8h1v1h-1z" fill="#f7f7f8"/><path fill="#0f0f35" d="M129 11h1v1h-1z"/><path d="M81 14h1v1h-1zm135 8h1v1h-1z" fill="#2a2a4c"/><path fill="#242444" d="M220 16h1v1h-1z"/><path d="M110 20h1v7h-1zm0 7h1v1h-1z" fill="#9191a3"/><path fill="#ccebff" d="M6 28h1v1H6z"/><path fill="#9e9eae" d="M101 29h1v1h-1z"/><path d="M16 0h1v1h-1zM9 6h1v1H9z" fill="#4fb8ff"/><path d="M11 1h1v1h-1zm5 0h1v1h-1zm1 0h1v1h-1zM8 2h1v1H8zm17 2h1v1h-1zM8 5h1v1H8zm12 0h1v1h-1zM5 7h1v1H5zm0 6h1v1H5zm3 2h1v1H8zm-2 2h1v1H6zm9 0h1v1h-1zm3 0h1v1h-1zm-5 2h1v1h-1zm9 0h1v1h-1zm-5 2h1v1h-1zm3 0h1v1h-1zM3 25h1v1H3zm2 3h1v1H5zm-4 1h1v1H1zm22 0h1v1h-1zm4 0h1v1h-1zm-5 1h1v1h-1zM7 31h1v1H7zm2 1h1v1H9zm2 1h1v1h-1z" fill="#0096ff"/><path fill="#848396" d="M90 28h1v1h-1z"/><path fill="#9495a5" d="M77 29h1v1h-1z"/><path fill="#51516a" d="M62 14h1v1h-1z"/><path fill="#9d9dad" d="M63 20h1v1h-1z"/><path fill="#565671" d="M105 24h1v1h-1z"/><path fill="#41415f" d="M156 28h1v1h-1z"/><path fill="#9b9baa" d="M201 29h1v1h-1z"/><path d="M13 15h1v1h-1zM0 29h1v1H0z" fill="#52b9ff"/><path fill="#e4e4e9" d="M135 18h1v1h-1z"/><path fill="#202042" d="M62 23h1v1h-1z"/><path fill="#323253" d="M164 16h1v1h-1z"/><path fill="#383857" d="M153 21h1v1h-1z"/><path d="M25 12h1v1h-1zM9 19h1v1H9z" fill="#25a6ff"/><path fill="#e9f6ff" d="M25 34h1v1h-1z"/><path d="M8 7h1v1H8zm4 32h1v1h-1z" fill="#eaf7ff"/><path fill="#89899a" d="M56 21h1v1h-1z"/><path fill="#020226" d="M131 19h1v1h-1z"/><path fill="#77778b" d="M132 21h1v1h-1z"/><path d="M151 21h1v1h-1zm47 2h1v1h-1z" fill="#8d8c9e"/><path fill="#bbbcc6" d="M196 26h1v1h-1z"/><path fill="#0b0a2c" d="M164 27h1v1h-1z"/><path fill="#5f5f76" d="M62 11h1v1h-1z"/><path fill="#464663" d="M74 15h1v1h-1z"/><path d="M7 2h1v1H7zm15 0h1v1h-1zM9 5h1v1H9zm1 0h1v1h-1zm7 0h1v1h-1zm1 0h1v1h-1zM6 6h1v1H6zm15 0h1v1h-1zm-8 10h1v1h-1zm-8 1h1v1H5zm2 1h1v1H7zm14 0h1v1h-1zm-9 1h1v1h-1zm11 0h1v1h-1zm-9 1h1v1h-1zm1 0h1v1h-1zm4 1h1v1h-1zM5 25h1v1H5zm16 5h1v1h-1zM2 31h1v1H2zm17 0h1v1h-1zm1 0h1v1h-1zm-2 1h1v1h-1zm-2 1h1v1h-1zm-9 2h1v1H7zm2 1h1v1H9zm9 0h1v1h-1zm-2 1h1v1h-1zm-2 1h1v1h-1z" fill="#0093ff"/><path fill="#a0a0af" d="M213 23h1v1h-1z"/><path fill="#212143" d="M104 21h1v1h-1z"/><path d="M155 28h1v1h-1zm31 0h1v1h-1z" fill="#000012"/><path d="M216 17h1v1h-1zM80 20h1v1h-1zm27 1h1v1h-1z" fill="#b7b7c2"/><path fill="#50506c" d="M57 21h1v1h-1z"/><path fill="#c8c8d0" d="M198 11h1v1h-1z"/><path fill="#cfcfd6" d="M220 11h1v1h-1z"/><path d="M119 13h1v13h-1zm0 13h1v1h-1zm0 1h1v1h-1zm-62 2h1v1h-1zm113 0h1v1h-1z" fill="#101035"/><path d="M207 14h1v1h-1zm-76 2h1v1h-1zm37 10h1v1h-1z" fill="#dfdfe4"/><path fill="#2b2b4c" d="M218 15h1v1h-1z"/><path d="M79 16h1v1h-1zm118 6h1v1h-1zm-55 6h1v1h-1zm34 0h1v1h-1z" fill="#afafbc"/><path d="M3 2h1v1H3zm25 26h1v1h-1z" fill="#b5e1ff"/><path d="M184 11h1v1h-1zM56 18h1v1h-1zm8 3h1v1h-1z" fill="#727288"/><path d="M142 17h1v1h-1zm75 4h1v1h-1z" fill="#bbbbc6"/><path d="M79 23h1v4h-1zm0 4h1v1h-1zm-4 1h1v1h-1z" fill="#cdcdd5"/><path fill="#c4c4ce" d="M162 26h1v1h-1z"/><path fill="#59bbff" d="M8 30h1v1H8z"/><path d="M199 10h1v1h-1zM87 11h1v1h-1z" fill="#eaeaed"/><path d="M132 12h1v1h-1zm44 3h1v1h-1zm22 12h1v1h-1z" fill="#030324"/><path d="M71 16h1v1h-1zm121 0h1v1h-1z" fill="#b9b9c4"/><path fill="#9cd7ff" d="M21 17h1v1h-1z"/><path d="M164 21h1v1h-1zm14 5h1v1h-1zm-78 2h1v1h-1z" fill="#a3a3b2"/><path fill="#a5a5b2" d="M173 10h1v1h-1z"/><path fill="#b8e2ff" d="M18 16h1v1h-1z"/><path fill="#37adff" d="M18 31h1v1h-1z"/><path fill="#111135" d="M108 13h1v1h-1z"/><path fill="#40405e" d="M110 15h1v1h-1z"/><path fill="#e2e1e6" d="M188 11h1v1h-1z"/><path d="M164 23h1v1h-1zM58 27h1v1h-1zm129 1h1v1h-1z" fill="#474764"/><path d="M20 2h1v1h-1zm3 1h1v1h-1zM1 5h1v1H1zm12 0h1v1h-1zm13 0h1v1h-1zm-4 1h1v1h-1zm5 0h1v5h-1zm-4 1h1v1h-1zm2 4h2v1h-2zm2 0h1v1h-1zm-1 1h1v1h-1zm-15 3h1v1h-1zm1 1h1v1h-1zm-3 2h1v1H9zm10 0h1v1h-1zm-3 2h1v1h-1zm11 1h1v7h-1zm-5 1h1v1h-1zm5 6h1v1h-1zm-1 2h1v1h-1zM3 32h1v1H3zm12 1h1v1h-1zm-1 1h1v1h-1zm-4 2h1v1h-1zm2 1h1v1h-1z" fill="#0095ff"/><path fill="#72c5ff" d="M22 9h1v1h-1z"/><path d="M93 17h1v1h-1zm-32 9h1v1h-1z" fill="#444461"/><path d="M78 19h1v1h-1zm136 0h1v1h-1zm-112 6h1v1h-1z" fill="#02022a"/><path fill="#e5e5e8" d="M68 10h1v1h-1z"/><path fill="#9595a6" d="M168 13h1v1h-1z"/><path d="M86 12h1v1h-1zm57 6h1v1h-1zm1 0h2v1h-2zm2 0h5v1h-5zm5 0h1v1h-1zm1 0h1v1h-1zm13 6h1v1h-1z" fill="#bfbfc9"/><path fill="#74748a" d="M206 12h1v1h-1z"/><path fill="#5d5d76" d="M161 16h1v1h-1z"/><path d="M101 28h1v1h-1zm19 0h1v1h-1zm80 0h1v1h-1z" fill="#000017"/><path fill="#63bfff" d="M11 0h1v1h-1z"/><path d="M5 2h1v1H5zm5 17h1v1h-1zM1 30h1v1H1z" fill="#0298ff"/><path fill="#06062c" d="M130 13h1v1h-1z"/><path fill="#e2e2e6" d="M54 21h1v1h-1z"/><path fill="#44b1ff" d="M14 39h1v1h-1z"/><path fill="#49b5ff" d="M7 1h1v1H7z"/><path fill="#7ccaff" d="M27 4h1v1h-1z"/><path d="M219 17h1v1h-1zm-56 9h1v1h-1z" fill="#070728"/><path fill="#c0e6ff" d="M3 34h1v1H3z"/><path fill="#eeeef0" d="M113 10h1v1h-1z"/><path fill="#e8e8ea" d="M206 10h1v1h-1z"/><path d="M27 13h1v1h-1zm-17 1h1v1h-1z" fill="#72c6ff"/><path fill="#2f2f4e" d="M175 25h1v1h-1z"/><path fill="#101036" d="M172 27h1v1h-1z"/><path fill="#9091a0" d="M185 29h1v1h-1z"/><path fill="#78c8ff" d="M10 6h1v1h-1z"/><path fill="#070828" d="M63 12h1v1h-1z"/><path d="M109 13h1v1h-1zm65 0h1v1h-1zm1 0h1v1h-1zm-80 1h1v1h-1zm25 0h1v5h-1zm56 0h1v1h-1zm-84 1h1v1h-1zm3 0h1v1h-1zm13 0h1v1h-1zm3 0h1v1h-1zm-30 1h1v1h-1zm52 0h1v1h-1zm-82 1h1v1h-1zm82 0h1v1h-1zm-82 1h1v1h-1zm1 0h1v1h-1zm110 0h1v3h-1zm-86 1h1v1h-1zm44 0h1v1h-1zm23 0h1v1h-1zm2 0h3v1h-3zm3 0h1v1h-1zm1 0h2v1h-2zm2 0h1v1h-1zm1 0h1v1h-1zm-24 1h1v1h-1zm25 0h1v1h-1zm-12 1h1v1h-1zm21 0h1v1h-1zm-99 2h1v1h-1zm57 0h1v4h-1zm76 0h1v1h-1zM63 26h1v1h-1zm135 0h1v1h-1zm-78 1h1v1h-1z" fill="#000023"/><path fill="#353555" d="M122 13h1v1h-1z"/><path fill="#121235" d="M107 15h1v1h-1z"/><path fill="#050528" d="M104 25h1v1h-1z"/><path fill="#f8f8f9" d="M161 25h1v1h-1z"/><path fill="#0c0c27" d="M94 11h1v1h-1z"/><path fill="#75758b" d="M108 12h1v1h-1z"/><path d="M14 21h1v1h-1zM0 30h1v1H0z" fill="#a4daff"/><path fill="#e6f5ff" d="M28 5h1v1h-1z"/><path d="M6 9h1v2H6zm0 2h1v1H6zm2 2h1v1H8zm20 16h1v1h-1z" fill="#ceebff"/><path d="M164 19h1v1h-1zm0 1h1v1h-1zm52 9h1v1h-1z" fill="#a6a6b4"/><path fill="#848497" d="M48 27h1v1h-1z"/><path fill="#fdfdfd" d="M138 10h1v1h-1z"/><path d="M54 17h1v1h-1zm156 1h1v1h-1zm-30 4h1v1h-1zm-6 3h1v1h-1zm-32 4h1v1h-1z" fill="#e0e0e5"/><path d="M55 12h1v1h-1zm144 0h1v1h-1zM71 13h1v1h-1zm23 1h1v1h-1zm16 0h1v1h-1zm53 1h1v1h-1zm14 0h1v1h-1zm10 0h2v1h-2zm2 0h1v1h-1zm-11 3h1v1h-1zm-25 1h1v1h-1zm39 0h1v1h-1zm-13 2h1v1h-1zm15 0h1v1h-1zm21 0h1v1h-1zM63 22h1v1h-1zm58 0h1v1h-1zm74 0h1v1h-1zm-18 2h1v1h-1zm21 1h1v1h-1zM60 27h1v1h-1z" fill="#000026"/><path fill="#1a193d" d="M95 12h1v1h-1z"/><path fill="#e9e8ec" d="M215 18h1v1h-1z"/><path fill="#0b0a2f" d="M58 19h1v1h-1z"/><path d="M134 14h1v1h-1zm-37 2h1v1h-1zm64 5h1v1h-1z" fill="#1a1a3e"/><path fill="#19193c" d="M95 17h1v1h-1z"/><path fill="#30304e" d="M187 11h1v1h-1z"/><path d="M84 10h1v1h-1zm7 0h1v1h-1zm19 0h2v1h-2zm2 0h1v1h-1zm29 0h1v1h-1zm13 0h1v1h-1zm1 0h1v1h-1zm30 0h1v1h-1zm15 0h1v1h-1zm8 0h1v1h-1zm14 0h1v1h-1z" fill="#e9e9ec"/><path d="M184 10h1v1h-1zm-51 11h1v1h-1z" fill="#f3f3f5"/><path fill="#32324f" d="M164 12h1v1h-1z"/><path fill="#303051" d="M178 14h1v1h-1z"/><path fill="#edf8ff" d="M23 1h1v1h-1z"/><path d="M3 3h1v1H3zm8 2h1v1h-1zm1 0h1v1h-1zm3 0h1v1h-1zm1 0h1v1h-1zm3 0h1v1h-1zM7 6h1v1H7zm-1 8h1v1H6zm3 1h1v1H9zm-7 1h1v1H2zm14 1h1v1h-1zm10 3h1v1h-1zm-3 3h1v1h-1zM2 24h1v1H2zm3 5h1v1H5zm1 1h1v1H6zm11 2h1v1h-1zM4 33h1v1H4zm2 1h1v1H6zm2 1h1v1H8zm9 2h1v1h-1zm-2 1h1v1h-1z" fill="#0094ff"/><path d="M199 15h1v3h-1zm0 3h1v2h-1zm0 2h1v1h-1z" fill="#020229"/><path fill="#d1d1d8" d="M188 17h1v1h-1z"/><path fill="#cbebff" d="M6 25h1v1H6z"/><path fill="#f5f5f6" d="M138 29h1v1h-1z"/><path fill="#1d1e40" d="M109 11h1v1h-1z"/><path d="M132 15h1v1h-1zm58 3h1v1h-1z" fill="#020225"/><path fill="#010022" d="M176 27h1v1h-1z"/><path fill="#95d4ff" d="M17 6h1v1h-1z"/><path d="M199 13h1v1h-1zm0 1h1v1h-1zm0 7h1v1h-1zm0 1h1v1h-1z" fill="#020129"/><path d="M139 13h1v1h-1zm0 1h1v1h-1zm0 2h1v1h-1zm0 1h1v9h-1zm0 9h1v1h-1z" fill="#0e0e34"/><path d="M19 16h1v1h-1zM6 24h1v1H6z" fill="#f2faff"/><path fill="#07072b" d="M64 26h1v1h-1z"/><path d="M112 28h1v1h-1zm29 0h1v1h-1z" fill="#000014"/><path d="M54 10h1v1h-1zm42 3h1v1h-1zm-21 3h1v1h-1zm144 2h1v1h-1z" fill="#87879a"/><path d="M185 12h1v1h-1zM64 13h1v1h-1zM49 26h1v1h-1z" fill="#000016"/><path d="M9 14h1v1H9zM4 34h1v1H4z" fill="#31abff"/><path fill="#7ecbff" d="M17 16h1v1h-1z"/><path d="M64 14h1v1h-1zm58 8h1v1h-1z" fill="#76768b"/><path d="M76 29h1v1h-1zm2 0h1v1h-1z" fill="#9696a6"/><path fill="#f1f1f3" d="M118 29h1v1h-1z"/><path fill="#0195ff" d="M2 32h1v1H2z"/><path fill="#86cdff" d="M11 38h1v1h-1z"/><path fill="#c0c0c8" d="M53 10h1v1h-1z"/><path fill="#79c9ff" d="M22 11h1v1h-1z"/><path fill="#212140" d="M165 25h1v1h-1z"/><path fill="#d1d1d9" d="M166 25h1v1h-1z"/><path d="M169 13h1v1h-1zm2 0h1v1h-1zM75 23h1v4h-1zm30 2h1v1h-1zm-30 2h1v1h-1z" fill="#cfcfd7"/><path fill="#434361" d="M213 21h1v1h-1z"/><path d="M15 6h1v1h-1zm10 12h1v1h-1z" fill="#c2e7ff"/><path d="M186 11h1v1h-1zm14 0h1v1h-1z" fill="#0c0c2c"/><path d="M205 11h1v1h-1zm-44 4h1v1h-1zM48 16h1v1h-1z" fill="#b8b8c3"/><path fill="#dedee2" d="M118 12h1v1h-1z"/><path fill="#87889b" d="M49 13h1v1h-1z"/><path d="M9 1h1v1H9zm11 5h1v1h-1zm2 12h1v1h-1z" fill="#0a9cff"/><path fill="#a5dbff" d="M11 6h1v1h-1z"/><path d="M161 18h1v2h-1zm0 2h1v1h-1z" fill="#1b1b3f"/><path fill="#29294b" d="M101 24h1v1h-1z"/><path fill="#9292a1" d="M91 29h1v1h-1z"/><path fill="#f1f9ff" d="M27 32h1v1h-1z"/><path d="M20 7h1v1h-1zm8 12h1v1h-1z" fill="#def2ff"/><path d="M86 11h1v1h-1zm83 16h1v1h-1z" fill="#303050"/><path fill="#63637b" d="M184 28h1v1h-1z"/><path fill="#e8f6ff" d="M0 4h1v1H0z"/><path d="M156 12h1v1h-1zm-47 4h1v1h-1z" fill="#484865"/><path fill="#7d7d91" d="M59 10h1v1h-1z"/><path d="M109 10h1v1h-1zm-15 7h1v1h-1z" fill="#f0f0f3"/><path d="M63 11h1v1h-1zm27 18h1v1h-1z" fill="#ceced6"/><path d="M142 11h1v1h-1zm-19 8h1v1h-1zm64 10h1v1h-1z" fill="#b6b6c2"/><path fill="#ababb9" d="M175 15h1v1h-1z"/><path d="M180 18h1v1h-1zm0 1h1v1h-1zm0 1h1v1h-1zM54 26h1v1h-1z" fill="#d8d8de"/><path fill="#d4eeff" d="M6 8h1v1H6z"/><path fill="#595972" d="M58 10h1v1h-1z"/><path fill="#474863" d="M194 19h1v1h-1z"/><path fill="#09092a" d="M197 26h1v1h-1z"/><path fill="#141438" d="M171 29h1v1h-1z"/><path fill="#83cdff" d="M13 39h1v1h-1z"/><path d="M198 10h1v1h-1zm-9 2h1v1h-1z" fill="#fafafb"/><path d="M22 25h1v1h-1zm0 1h1v1h-1z" fill="#71c6ff"/><path d="M112 12h1v1h-1zm10 0h1v1h-1zm7 0h1v1h-1zm12 0h1v1h-1zm26 0h1v1h-1zm6 0h1v1h-1zm35 1h1v1h-1zM63 14h1v1h-1zm158 0h1v1h-1zm-57 1h1v1h-1zm14 1h1v1h-1zm-15 1h1v1h-1zm23 0h1v1h-1zm25 0h1v1h-1zM53 18h1v1h-1zm139 0h1v1h-1zM56 19h1v1h-1zm0 1h1v1h-1zm1 0h1v1h-1zm3 1h1v1h-1zm63 0h5v1h-5zm5 0h1v1h-1zm-24 1h1v1h-1zm1 0h1v1h-1zm58 0h1v1h-1zm14 0h1v1h-1zm0 1h1v1h-1zm-78 1h1v1h-1zm-46 3h1v1h-1zm38 0h1v1h-1zm76 0h1v1h-1zm19 0h1v1h-1zM55 28h1v1h-1zm119 0h1v1h-1z" fill="#00001d"/><path fill="#1b1b3c" d="M71 15h1v1h-1z"/><path fill="#bdbdc8" d="M76 17h1v1h-1z"/><path fill="#5cbdff" d="M0 23h1v1H0z"/><path fill="#474664" d="M65 24h1v1h-1z"/><path d="M12 6h1v1h-1zm11 29h1v1h-1z" fill="#c2e6ff"/><path d="M202 11h1v1h-1zM84 15h1v1h-1zm20 4h1v1h-1zm-55 5h1v1h-1zm2 5h1v1h-1z" fill="#ebebef"/><path d="M62 20h1v1h-1zm0 8h1v1h-1z" fill="#2a2a47"/><path d="M179 22h1v1h-1zm20 1h1v1h-1z" fill="#0a0a30"/><path d="M103 23h1v1h-1zm-48 4h1v1h-1z" fill="#252547"/><path fill="#1a1a3a" d="M51 28h1v1h-1z"/><path fill="#95d5ff" d="M18 0h1v1h-1z"/><path fill="#222240" d="M176 12h1v1h-1z"/><path fill="#b6b5c1" d="M127 19h1v1h-1z"/><path d="M104 20h1v1h-1zm-2 4h1v1h-1z" fill="#858598"/><path d="M61 10h1v1h-1zm-3 20h1v1h-1z" fill="#e8e8eb"/><path fill="#5ebeff" d="M20 17h1v1h-1z"/><path fill="#b4b4c0" d="M135 16h1v1h-1z"/><path fill="#61beff" d="M27 19h1v1h-1z"/><path fill="#e0f2ff" d="M13 21h1v1h-1z"/><path d="M113 22h1v2h-1zm0 2h1v1h-1zm0 3h1v1h-1z" fill="#333352"/><path d="M185 28h1v1h-1zm29 0h1v1h-1z" fill="#00000e"/><path fill="#66667c" d="M53 29h1v1h-1z"/><path fill="#0499ff" d="M8 14h1v1H8z"/><path d="M73 14h1v1h-1zm-12 8h1v1h-1z" fill="#181839"/><path d="M58 13h1v1h-1zm64 3h1v1h-1zm0 1h1v1h-1zm0 7h1v3h-1zm0 3h1v1h-1zm-12 2h1v1h-1z" fill="#d2d2d9"/><path fill="#403f5d" d="M187 16h1v1h-1z"/><path d="M82 17h1v1h-1zm114 4h1v1h-1z" fill="#828296"/><path fill="#d0d0d9" d="M193 17h1v1h-1z"/><path d="M176 19h1v1h-1zm0 2h1v1h-1zm22 0h1v1h-1z" fill="#c6c6cf"/><path fill="#48b5ff" d="M12 0h1v1h-1z"/><path fill="#6b6b80" d="M175 11h1v1h-1z"/></svg>