<svg xmlns="http://www.w3.org/2000/svg" role="img" viewBox="-14.52 -14.52 755.04 192.54"><title>Symphony Media Bridge logo</title><style>svg {enable-background:new 0 0 726.6 163.7}</style><path fill="#008fff" d="M0 162.9h10.2v-30.7l13.2 20h.3L37 132.1V163h10.3v-47.3H36.1l-12.4 20-12.4-20H0v47.2zm58.6 0h36v-9.2H69v-9.9h22.3v-9.2H69V125h25.3v-9.2H58.6v47.1zm45.3 0h18.4c14.9 0 25.1-10.3 25.1-23.6v-.1c0-13.3-10.3-23.5-25.1-23.5h-18.4v47.2zm18.5-37.9c8.5 0 14.3 5.9 14.3 14.3v.1c0 8.4-5.7 14.1-14.3 14.1h-8V125h8zm34.8 37.9h10.4v-47.3h-10.4v47.3zm18.2 0H186l4.3-10.6h20l4.3 10.6h10.9l-20.3-47.6h-9.6l-20.2 47.6zm18.6-19.8l6.3-15.3 6.3 15.3H194zm59.1 19.8h22.5c10.7 0 17.7-4.3 17.7-13v-.1c0-6.4-3.4-9.5-8.8-11.6 3.4-1.9 6.2-4.9 6.2-10.2v-.1c0-3.2-1.1-5.9-3.2-8-2.7-2.7-7-4.2-12.4-4.2h-22v47.2zm27.2-33.1c0 3.5-2.9 5-7.5 5h-9.6v-10h10.3c4.4 0 6.8 1.8 6.8 4.9v.1zm2.7 18.7v.1c0 3.5-2.8 5.1-7.4 5.1h-12.4v-10.4h12c5.4.1 7.8 2.1 7.8 5.2zm18.9 14.4h10.4v-15.1h8.2l10.1 15.1h12.2L331.2 146c6-2.2 10.1-7 10.1-14.7v-.1c0-4.5-1.4-8.2-4.1-10.8-3.1-3.1-7.8-4.8-13.8-4.8h-21.6v47.3h.1zm10.4-24.3V125h10.3c5.1 0 8.2 2.3 8.2 6.8v.1c0 4-2.9 6.7-8 6.7h-10.5zm38.9 24.3h10.4v-47.3h-10.4v47.3zm22.2 0h18.4c14.9 0 25.1-10.3 25.1-23.6v-.1c0-13.3-10.3-23.5-25.1-23.5h-18.4v47.2zm18.5-37.9c8.5 0 14.3 5.9 14.3 14.3v.1c0 8.4-5.7 14.1-14.3 14.1h-8V125h8zm57.1 38.7c8.7 0 15.3-3.4 20.2-7.5v-20.5h-20.5v9h10.5v6.8c-2.6 1.9-6 2.8-9.8 2.8-8.4 0-14.3-6.4-14.3-15v-.1c0-8 6-14.7 13.6-14.7 5.5 0 8.7 1.8 12.4 4.8l6.5-7.9c-4.9-4.2-10.1-6.5-18.6-6.5-14.3 0-24.8 11-24.8 24.5v.1c0 13.9 10.1 24.2 24.8 24.2zm30.3-.8h36v-9.2h-25.7v-9.9h22.3v-9.2h-22.3V125h25.3v-9.2h-35.7v47.1h.1z"/><path fill="#000029" d="M37.6 81.1C23.3 81.1 11 76.4 0 69.5l6.8-10.3c11 7 21.2 10.5 32.5 10.5 13.3 0 19.6-5.1 19.6-11.1 0-17.3-56.3-6.9-56.3-34.5 0-13.4 13.4-24 35-24C52.2.1 64.8 5.6 72.2 13l-8.4 8.6c-6.4-5.6-16.1-10-26.4-10-12.6 0-21.2 4.6-21.2 11 0 16 56.4 7.5 56.4 34.6.1 14.2-14.4 23.9-35 23.9zM127.8 48v30.4h-13.6V47.9L80.1 2.6H96l25.6 35 24.2-35h15.7L127.8 48zm128.9 30.4V19l-3.8 8.1-26.8 51.3h-8.2l-26.5-51.3-3.8-8.1v59.4h-13.1V2.6h19l25.5 51 3.5 7.7 3.5-7.7 25.1-50.9H270v75.7h-13.3zm87.5-53.3c0-6.3-4.2-10.9-14.6-10.9h-25.1v24.5h25.7c10.3 0 14-5 14-11.1v-2.5zm-16 24.7h-23.7v28.5h-13.6V2.6h37.3c20.7 0 29.8 9.3 29.8 22.5v2c0 13.3-9.1 22.7-29.8 22.7zm104.1 28.6V45.7h-45.6v32.6h-13.6V2.6h13.6v32.1h45.6V2.6H446v75.7h-13.7v.1zm96.1-42.6c0-13-9-24.1-25.6-24.1s-25.5 11.1-25.5 24.1V45c0 13 8.9 24.3 25.5 24.3s25.6-11.4 25.6-24.3v-9.2zm-25.6 45.3c-24.3 0-39.2-17.3-39.2-35.8v-9.4C463.6 17 478.5.1 502.8.1c24.4 0 39.3 16.9 39.3 35.8v9.4c0 18.5-14.9 35.8-39.3 35.8zm118.1-2.7l-42.4-47.9-5.5-7v54.9h-13.5V2.6h12.6l41.1 48 5.6 7v-55h13.4v75.7h-11.3v.1zm72-30.4v30.4h-13.6V47.9L645.1 2.6H661l25.6 35 24.2-35h15.7L692.9 48z"/></svg>