<svg xmlns="http://www.w3.org/2000/svg" role="img" viewBox="-14.48 -14.48 752.96 191.96"><title>Symphony BDK Python logo</title><style>svg {enable-background:new 0 0 724.3 163.2}</style><path fill="#008eff" d="M5.7 162.4h22.4c10.6 0 17.6-4.3 17.6-12.9v-.1c0-6.3-3.4-9.5-8.8-11.6 3.4-1.9 6.2-4.8 6.2-10.2v-.1c0-3.2-1.1-5.9-3.2-8-2.7-2.7-6.9-4.2-12.3-4.2H5.7v47.1zm27.1-33c0 3.5-2.9 5-7.5 5h-9.6v-10H26c4.4 0 6.8 1.8 6.8 4.9v.1zm2.6 18.7v.1c0 3.5-2.8 5.1-7.3 5.1H15.8V143h12c5.3 0 7.6 1.9 7.6 5.1zm18.9 14.3h18.4c14.8 0 25.1-10.3 25.1-23.6v-.1c0-13.3-10.2-23.4-25.1-23.4H54.3v47.1zm18.4-37.8c8.5 0 14.2 5.9 14.2 14.2v.1c0 8.4-5.7 14.1-14.2 14.1h-8v-28.4h8zm34.3 37.8h10.4V148l5.5-5.7 14.6 20.1H150l-20.1-27.1 19.2-20h-12.5l-19.1 20.6v-20.6H107v47.1zm69.3 0h10.4v-14.1h7.9c10.6 0 19.1-5.7 19.1-16.6v-.1c0-9.6-6.8-16.3-18-16.3h-19.3l-.1 47.1zm10.4-23.3v-14.4h8c5.2 0 8.4 2.5 8.4 7.1v.1c0 4-3 7.1-8.2 7.1l-8.2.1zm47.2 23.3h10.4v-18.8l18.1-28.4h-11.8l-11.4 18.9-11.2-18.9h-12.1l18.1 28.6v18.6h-.1zm46 0h10.4v-37.6h14.3v-9.6h-39.1v9.6h14.3v37.6h.1zm32.6 0h10.4v-18.9H342v18.9h10.4v-47.1H342V134h-19.1v-18.7h-10.4v47.1zm74.1.8c14.6 0 25.1-11 25.1-24.4v-.1c0-13.4-10.4-24.2-25-24.2s-25.1 11-25.1 24.4v.1c.1 13.4 10.5 24.2 25 24.2zm.2-9.5c-8.4 0-14.3-6.7-14.3-14.8v-.1c0-8.1 5.8-14.7 14.1-14.7 8.4 0 14.3 6.7 14.3 14.8v.1c0 8.1-5.8 14.7-14.1 14.7zm34.2 8.7h10.2v-30l22.8 30h8.8v-47.1h-10.2v29l-22.1-29H421v47.1z"/><path fill="#000029" d="M37.5 80.8C23.2 80.8 11 76.2 0 69.3L6.8 59c11 7 21.1 10.4 32.4 10.4 13.3 0 19.5-5.1 19.5-11.1 0-17.2-56.1-6.9-56.1-34.4C2.6 10.5 16 0 37.5 0 52 0 64.6 5.4 72 12.8l-8.4 8.6c-6.3-5.6-16.1-10-26.3-10-12.6 0-21.1 4.5-21.1 11 0 16 56.2 7.5 56.2 34.5 0 14.3-14.4 23.9-34.9 23.9zm89.9-33v30.3h-13.6V47.7l-34-45.1h15.9l25.5 34.9 24.1-34.9H161l-33.6 45.2zm128.5 30.3V18.9l-3.7 8L225.4 78h-8.2l-26.4-51-3.7-8v59.2h-13V2.6H193l25.4 50.8 3.5 7.7 3.5-7.7 25.1-50.8h18.7v75.5h-13.3zm87.2-53c0-6.2-4.2-10.9-14.5-10.9h-25.1v24.4h25.6c10.3 0 13.9-5 13.9-11.1v-2.4h.1zm-16 24.6h-23.6v28.5H290V2.6h37.2c20.6 0 29.7 9.3 29.7 22.4v2c0 13.2-9.1 22.7-29.8 22.7zM431 78.1V45.6h-45.5v32.5h-13.6V2.6h13.6v32H431v-32h13.6v75.5H431zm95.7-42.4c0-12.9-9-24-25.5-24-16.6 0-25.4 11.1-25.4 24v9.2c0 12.9 8.8 24.3 25.4 24.3 16.5 0 25.5-11.3 25.5-24.3v-9.2zm-25.5 45.1c-24.3 0-39.1-17.2-39.1-35.7v-9.4C462.1 16.9 477 0 501.2 0c24.4 0 39.2 16.9 39.2 35.7v9.4c0 18.5-14.8 35.7-39.2 35.7zM619 78.1l-42.3-47.7-5.4-7v54.8h-13.5V2.6h12.6l40.9 47.8 5.6 7V2.6h13.4v75.5H619zm71.8-30.3v30.3h-13.6V47.7l-34-45.1H659l25.5 34.9 24.1-34.9h15.6l-33.4 45.2z"/></svg>