<svg xmlns="http://www.w3.org/2000/svg" role="img" viewBox="-14.43 -14.43 750.36 351.86"><title>Symphony WDK logo</title><style>svg {enable-background:new 0 0 722.2 323.1}</style><path fill="#008fff" d="M3.6 323.1H14v-14.4l5.4-5.6 14.6 20h12.4l-20-27.1 19.1-19.9H33l-19 20.6v-20.5H3.6v46.9zm49.5 0h10.3v-47H53.1v47zm33.1 0h10.3v-37.5h14.3v-9.5H71.9v9.5h14.3v37.5zM3.6 242.5H22c14.8 0 25-10.3 25-23.5v-.1c0-13.2-10.2-23.4-25-23.4H3.6v47zM22 204.9c8.5 0 14.2 5.8 14.2 14.2v.1c0 8.3-5.7 14-14.2 14h-8v-28.3h8zm34.1 37.6h35.8v-9.2H66.4v-9.9h22.2v-9.2H66.4v-9.5h25.2v-9.2H56.1v47zm60 .4h9.1l19-47.3h-11.1l-12.3 33.1-12.3-33.1H97.1l19 47.3zm35.4-.4h35.8v-9.2h-25.5v-9.9H184v-9.2h-22.2v-9.5H187v-9.2h-35.5v47zm45 0h33.8v-9.4h-23.4v-37.6h-10.3v47h-.1zm61.7.8c14.5 0 25-10.9 25-24.3v-.1c0-13.4-10.4-24.2-24.9-24.2s-25 10.9-25 24.3v.1c0 13.4 10.4 24.2 24.9 24.2zm.2-9.5c-8.3 0-14.2-6.7-14.2-14.8v-.1c0-8.1 5.8-14.6 14.1-14.6s14.2 6.7 14.2 14.8v.1c0 8-5.8 14.6-14.1 14.6zm34.1 8.7h10.3v-14.1h7.9c10.5 0 19-5.6 19-16.5v-.1c0-9.6-6.8-16.2-18-16.2h-19.2v46.9zm10.3-23.3v-14.4h8c5.2 0 8.4 2.5 8.4 7.1v.1c0 4-3 7.1-8.2 7.1h-8.2v.1zm34.5 23.3h35.8v-9.2h-25.5v-9.9h22.2v-9.2h-22.2v-9.5h25.2v-9.2h-35.5v47zm45 0h10.3v-15h8.1l10.1 15H423l-11.5-16.8c6-2.2 10.1-7 10.1-14.6v-.1c0-4.4-1.4-8.1-4-10.7-3.1-3.1-7.7-4.8-13.7-4.8h-21.5v47h-.1zm10.4-24.1v-13.5H403c5 0 8.1 2.3 8.1 6.7v.1c0 4-2.9 6.7-7.9 6.7h-10.5zM16 162.3h9l10.6-30.8 10.6 30.8h9l16-47.3H60.5l-9.7 31.8-10.5-32h-8.9l-10.5 32-9.7-31.8H0l16 47.3zm83.1.4c14.5 0 25-10.9 25-24.3v-.1c0-13.4-10.4-24.2-24.9-24.2-14.5 0-25 10.9-25 24.3v.1c0 13.4 10.4 24.2 24.9 24.2zm.2-9.5c-8.3 0-14.2-6.7-14.2-14.8v-.1c0-8.1 5.8-14.6 14.1-14.6s14.2 6.7 14.2 14.8v.1c0 8-5.8 14.6-14.1 14.6zm34.1 8.7h10.3v-15h8.1l10.1 15H174l-11.5-16.8c6-2.2 10.1-7 10.1-14.6v-.1c0-4.4-1.4-8.1-4-10.7-3.1-3.1-7.7-4.8-13.7-4.8h-21.5v47zm10.3-24.1v-13.5H154c5 0 8.1 2.3 8.1 6.7v.1c0 4-2.9 6.7-7.9 6.7h-10.5zm38.2 24.1h10.3v-14.4l5.4-5.6 14.6 20h12.4l-20-27.1 19.1-19.9h-12.5l-19.1 20.5v-20.5h-10.3v47h.1zm49.1 0h10.3v-18.2h22.4v-9.4h-22.4v-10h25.5v-9.4H231v47zm44 0h33.8v-9.4h-23.4v-37.6H275v47zm61.7.8c14.5 0 25-10.9 25-24.3v-.1c0-13.4-10.4-24.2-24.9-24.2-14.5 0-25 10.9-25 24.3v.1c0 13.4 10.4 24.2 24.9 24.2zm.2-9.5c-8.3 0-14.2-6.7-14.2-14.8v-.1c0-8.1 5.8-14.6 14.1-14.6s14.2 6.7 14.2 14.8v.1c0 8-5.8 14.6-14.1 14.6zm43.8 9.1h9l10.6-30.8 10.6 30.8h9l16-47.3h-10.8l-9.7 31.8-10.5-32H396l-10.5 32-9.7-31.8h-11.1l16 47.3z"/><path fill="#000029" d="M37.4 80.6C23.2 80.6 11 76 0 69.1l6.8-10.3c11 7 21 10.4 32.3 10.4 13.2 0 19.4-5.1 19.4-11.1 0-17.2-55.9-6.9-55.9-34.2C2.6 10.5 15.9 0 37.4 0c14.5 0 27 5.4 34.4 12.8l-8.4 8.6c-6.3-5.5-16.1-9.9-26.2-9.9-12.5 0-21 4.5-21 11 0 15.9 56.1 7.5 56.1 34.4-.1 14.1-14.4 23.7-34.9 23.7zM127 47.7v30.2h-13.6V47.6l-33.9-45h15.8l25.4 34.8 24.1-34.8h15.6L127 47.7zm128.1 30.2v-59l-3.7 8-26.7 51h-8.1l-26.3-51-3.7-8v59h-13V2.6h18.9l25.3 50.6 3.5 7.7 3.5-7.7 25-50.6h18.6v75.3h-13.3zm87-52.9c0-6.2-4.2-10.9-14.5-10.9h-25v24.3h25.5c10.3 0 13.9-5 13.9-11.1V25h.1zm-15.9 24.5h-23.5v28.4h-13.6V2.6h37.1c20.6 0 29.6 9.3 29.6 22.4v2c0 13.1-9.1 22.5-29.6 22.5zm103.5 28.4V45.4h-45.3v32.4h-13.6V2.6h13.6v31.9h45.3V2.6h13.6v75.3h-13.6zm95.5-42.3c0-12.9-8.9-24-25.4-24s-25.3 11.1-25.3 24v9.2c0 12.9 8.8 24.2 25.3 24.2s25.4-11.3 25.4-24.2v-9.2zm-25.5 45c-24.2 0-39-17.2-39-35.6v-9.4c0-18.8 14.8-35.6 39-35.6 24.3 0 39.1 16.8 39.1 35.6V45c0 18.4-14.8 35.6-39.1 35.6zm117.4-2.7L575 30.3l-5.4-7v54.6h-13.5V2.6h12.5l40.8 47.7 5.5 7V2.6h13.3v75.3h-11.1zm71.6-30.2v30.2h-13.6V47.6l-33.9-45H657l25.4 34.8 24.1-34.8h15.6l-33.4 45.1z"/></svg>