<svg xmlns="http://www.w3.org/2000/svg" role="img" viewBox="-4.16 -4.16 216.06 68.06"><title>Tick42 logo</title><path d="M32 34h1v1h-1zm-9 5h1v1h-1z" fill="#70a341"/><path d="M47 36h1v1h-1zm-23 3h2v1h-2zm2 0h1v1h-1zm-3 1h1v1h-1z" fill="#6ca142"/><path fill="#6a9e3d" d="M14 41h1v1h-1z"/><path fill="#8cb438" d="M24 41h1v1h-1z"/><path d="M6 18h1v7H6zm0 7h1v1H6z" fill="#73a444"/><path fill="#659c39" d="M16 23h1v1h-1z"/><path fill="#639c38" d="M16 30h1v1h-1z"/><path fill="#609945" d="M33 35h1v1h-1z"/><path fill="#6ca042" d="M44 37h1v1h-1z"/><path d="M41 39h1v1h-1zm0 1h1v1h-1z" fill="#619945"/><path fill="#cedc87" d="M14 43h1v1h-1z"/><path fill="#d5de27" d="M46 46h1v1h-1z"/><path d="M36 32h1v1h-1zm7 6h1v1h-1zm-1 1h1v1h-1z" fill="#5e9846"/><path fill="#c9d826" d="M47 35h1v1h-1z"/><path fill="#98bc60" d="M1 13h1v1H1z"/><path fill="#d5de26" d="M46 14h1v1h-1z"/><path d="M3 15h1v1H3zm10 26h1v1h-1z" fill="#5c9633"/><path fill="#e8eb98" d="M42 15h1v1h-1z"/><path fill="#dee320" d="M36 28h1v1h-1z"/><path d="M27 32h1v1h-1zm10 10h1v1h-1z" fill="#d2dd23"/><path fill="#acc72f" d="M41 41h1v1h-1z"/><path fill="#e7ec9e" d="M38 17h1v1h-1z"/><path d="M39 18h1v1h-1zm-7 4h1v1h-1z" fill="#d1dc12"/><path d="M14 32h1v1h-1zM0 34h1v1H0z" fill="#699e3c"/><path fill="#e8ec9a" d="M3 37h1v1H3z"/><path d="M43 46h1v1h-1zm-1 2h1v1h-1z" fill="#d4de26"/><path d="M5 14h1v1H5zm5 14h1v1h-1zm-8 9h1v1H2zm4 2h1v1H6z" fill="#f9f6a6"/><path fill="#b8ce76" d="M17 21h1v1h-1z"/><path fill="#6ea141" d="M33 33h1v1h-1z"/><path fill="#92b637" d="M46 36h1v1h-1z"/><path fill="#84af3b" d="M37 32h1v1h-1z"/><path fill="#dfe41f" d="M37 35h1v1h-1z"/><path fill="#c2d57e" d="M15 20h1v1h-1z"/><path fill="#e5ea91" d="M27 23h1v1h-1z"/><path fill="#d9e38f" d="M23 24h1v1h-1z"/><path d="M21 25h1v1h-1zm-7 8h1v1h-1z" fill="#6a9f3e"/><path fill="#ebed9d" d="M11 28h1v1h-1z"/><path fill="#89b354" d="M9 29h1v1H9z"/><path fill="#b0c82e" d="M33 36h1v1h-1z"/><path fill="#6a9f43" d="M26 38h1v1h-1z"/><path fill="#e2e61e" d="M47 39h1v1h-1z"/><path fill="#7ca93d" d="M42 40h1v1h-1z"/><path fill="#f9f6a5" d="M13 43h1v1h-1z"/><path fill="#eeef9f" d="M18 21h1v1h-1z"/><path d="M43 36h1v1h-1zm-12 2h1v1h-1z" fill="#e4e71e"/><path fill="#d1dc24" d="M40 42h1v1h-1z"/><path fill="#e9eca3" d="M44 13h1v1h-1z"/><path fill="#6ca03f" d="M15 33h1v1h-1z"/><path d="M35 33h1v1h-1zm-10 4h1v1h-1z" fill="#6da141"/><path fill="#bbd079" d="M2 36h1v1H2z"/><path fill="#71a440" d="M28 38h1v1h-1z"/><path fill="#619946" d="M23 59h1v1h-1z"/><path fill="#d8e28e" d="M2 13h1v1H2z"/><path fill="#91b65a" d="M15 22h1v1h-1z"/><path fill="#639a38" d="M21 24h1v1h-1z"/><path fill="#c6d680" d="M10 29h1v1h-1z"/><path fill="#dbe220" d="M30 39h1v1h-1z"/><path fill="#82ad4e" d="M15 43h1v1h-1z"/><path fill="#d6e02d" d="M49 12h1v1h-1z"/><path fill="#e5e989" d="M31 21h1v1h-1z"/><path fill="#639a45" d="M35 34h1v1h-1z"/><path d="M34 36h1v1h-1zm2 5h1v1h-1zm0 1h1v1h-1zm6 0h1v1h-1zm-2 1h1v1h-1z" fill="#dae121"/><path fill="#d8e021" d="M34 37h1v1h-1z"/><path fill="#aec82e" d="M43 40h1v1h-1z"/><path fill="#e7eb96" d="M46 11h1v1h-1z"/><path fill="#efef9e" d="M8 17h1v1H8z"/><path d="M38 19h1v1h-1zm-2 1h1v1h-1z" fill="#d2dd15"/><path fill="#e3e896" d="M7 27h1v1H7z"/><path fill="#e2e71f" d="M33 37h1v1h-1z"/><path d="M15 45h1v6h-1zm0 6h1v1h-1zm0 2h1v1h-1z" fill="#9fc064"/><path fill="#dfe76c" d="M41 16h1v1h-1z"/><path fill="#e1e771" d="M39 17h1v1h-1z"/><path fill="#e1e895" d="M16 20h1v1h-1z"/><path d="M16 24h1v5h-1zm0 5h1v1h-1zm-1 13h1v1h-1z" fill="#649c39"/><path fill="#bed22a" d="M44 36h1v1h-1z"/><path fill="#5d9735" d="M11 40h1v1h-1z"/><path fill="#d7df31" d="M45 47h1v1h-1z"/><path fill="#86af52" d="M15 54h1v1h-1z"/><path d="M45 13h1v1h-1zm-2 1h1v1h-1zm-2 1h1v1h-1z" fill="#eaedae"/><path fill="#d3de1c" d="M29 24h1v1h-1z"/><path fill="#7ba94a" d="M3 36h1v1H3z"/><path fill="#d7e122" d="M42 41h1v1h-1z"/><path fill="#d2dd24" d="M37 43h1v1h-1z"/><path fill="#fffaac" d="M14 44h1v1h-1z"/><path fill="#95b836" d="M43 37h1v1h-1z"/><path fill="#dde421" d="M38 38h1v1h-1z"/><path d="M2 11h1v1H2zm5 3h1v1H7zm3 13h1v1h-1zM0 37h1v1H0zm5 3h1v1H5zm2 1h1v1H7zm2 1h1v1H9z" fill="#e6ea98"/><path fill="#ebeeb4" d="M47 12h1v1h-1z"/><path fill="#7caa4a" d="M6 16h1v1H6z"/><path d="M8 16h1v1H8zm10 4h1v1h-1z" fill="#edef9d"/><path fill="#dfe520" d="M37 28h1v1h-1z"/><path fill="#7ba93e" d="M32 36h1v1h-1z"/><path fill="#dee693" d="M12 42h1v1h-1z"/><path fill="#659b39" d="M14 42h1v1h-1z"/><path fill="#b4cb2d" d="M47 38h1v1h-1z"/><path fill="#609937" d="M9 39h1v1H9z"/><path d="M39 16h1v1h-1zm-7 4h1v1h-1z" fill="#eaedac"/><path fill="#e1e995" d="M7 26h1v1H7z"/><path d="M34 29h1v1h-1zm-2 1h1v1h-1zm-6 3h1v1h-1zm0 1h1v1h-1zm11 6h1v1h-1z" fill="#dbe221"/><path fill="#77a73f" d="M34 31h1v1h-1z"/><path fill="#8ab238" d="M36 34h1v1h-1z"/><path fill="#dae122" d="M49 34h1v1h-1z"/><path fill="#8ab254" d="M1 35h1v1H1z"/><path fill="#b6cc2c" d="M49 37h1v1h-1z"/><path d="M6 14h1v1H6zm10 5h1v1h-1zM3 38h1v1H3z" fill="#eff09f"/><path fill="#e9eca0" d="M40 15h1v1h-1z"/><path fill="#eaedaa" d="M37 17h1v1h-1z"/><path fill="#d3de1a" d="M35 20h1v1h-1z"/><path fill="#d8e01a" d="M25 26h1v1h-1z"/><path fill="#629a44" d="M35 31h1v1h-1z"/><path fill="#5d9747" d="M40 40h1v1h-1z"/><path d="M39 31h1v1h-1zm9 8h1v1h-1zm-11 2h1v1h-1z" fill="#d8e022"/><path fill="#d5de28" d="M47 46h1v1h-1z"/><path d="M4 13h1v1H4zm16 9h1v1h-1zM9 28h1v1H9zm3 15h1v1h-1z" fill="#f2f2a1"/><path d="M1 14h1v1H1zm5 23h1v1H6z" fill="#5d9734"/><path fill="#e6ea96" d="M44 14h1v1h-1z"/><path fill="#a7c46a" d="M5 15h1v1H5z"/><path fill="#e7eb95" d="M25 24h1v1h-1z"/><path d="M8 28h1v1H8zm1 12h1v1H9z" fill="#bfd37c"/><path fill="#6aa03e" d="M7 37h1v1H7z"/><path fill="#faf6a7" d="M1 12h1v1H1z"/><path d="M46 12h1v1h-1zm-17 9h1v1h-1z" fill="#e9eda5"/><path fill="#e8eb99" d="M5 13h1v1H5z"/><path fill="#e8eb9c" d="M34 18h1v1h-1z"/><path fill="#84af50" d="M7 28h1v1H7z"/><path d="M25 33h1v1h-1zm3 0h1v1h-1zm-3 26h1v1h-1z" fill="#d7e022"/><path fill="#dde591" d="M4 14h1v1H4z"/><path fill="#d2dd19" d="M44 16h1v1h-1z"/><path d="M41 18h1v1h-1zm-2 1h1v1h-1zm-2 1h1v1h-1zm-8 3h1v1h-1z" fill="#d4de21"/><path fill="#83ae50" d="M15 21h1v1h-1z"/><path fill="#e7ec98" d="M24 23h1v1h-1z"/><path fill="#5d9847" d="M47 37h1v1h-1z"/><path d="M43 16h1v1h-1zm-13 7h1v1h-1zm13 26h1v1h-1z" fill="#d1dc10"/><path fill="#e6ea97" d="M14 20h1v1h-1z"/><path d="M15 23h1v6h-1zm0 6h1v1h-1z" fill="#90b65a"/><path fill="#f3f2a1" d="M23 23h1v1h-1z"/><path fill="#fff9aa" d="M8 27h1v1H8z"/><path fill="#aec72e" d="M37 29h1v1h-1z"/><path fill="#d9e222" d="M38 33h1v1h-1z"/><path d="M48 34h1v1h-1zm-4 1h1v1h-1zm-4 2h1v1h-1z" fill="#dee420"/><path fill="#eef09f" d="M10 42h1v1h-1z"/><path fill="#eeee9e" d="M13 29h1v1h-1z"/><path fill="#87b152" d="M11 30h1v1h-1z"/><path fill="#f8f5a5" d="M7 40h1v1H7z"/><path fill="#d7e037" d="M38 18h1v1h-1z"/><path fill="#b1ca5f" d="M24 25h1v1h-1z"/><path fill="#83af2b" d="M24 26h1v1h-1z"/><path fill="#569348" d="M39 41h1v1h-1z"/><path fill="#629a38" d="M16 44h1v1h-1z"/><path fill="#dbe34f" d="M44 48h1v1h-1z"/><path fill="#d2dd16" d="M40 18h1v1h-1z"/><path d="M34 32h1v1h-1zm-2 1h1v1h-1zm-7 3h1v1h-1z" fill="#669d44"/><path fill="#659c44" d="M30 34h1v1h-1z"/><path fill="#6ba042" d="M42 38h1v1h-1z"/><path fill="#c8d727" d="M38 39h1v1h-1z"/><path fill="#d6e030" d="M44 47h1v1h-1z"/><path fill="#d0dd88" d="M7 39h1v1H7z"/><path fill="#dae222" d="M25 42h1v1h-1z"/><path d="M7 15h1v1H7zM1 37h1v1H1zm9 4h1v1h-1z" fill="#ecee9c"/><path d="M5 18h1v9H5zm0 9h1v1H5zm0 9h1v1H5zm2 2h1v1H7zm5 2h1v1h-1z" fill="#679d3b"/><path fill="#d4de1f" d="M33 22h1v1h-1z"/><path d="M6 29h1v1H6zm7 4h1v1h-1zm-5 4h1v1H8zm4 4h1v1h-1z" fill="#70a242"/><path d="M32 32h1v1h-1zm8 9h1v1h-1z" fill="#76a63f"/><path d="M41 37h1v1h-1zm-16 4h1v1h-1z" fill="#e2e61f"/><path fill="#d2dc14" d="M34 21h1v1h-1z"/><path fill="#f6f5a4" d="M21 22h1v1h-1z"/><path fill="#e5e98b" d="M29 22h1v1h-1z"/><path fill="#6da03f" d="M10 31h1v1h-1z"/><path fill="#99bc35" d="M39 39h1v1h-1z"/><path fill="#fbf7a8" d="M11 42h1v1h-1z"/><path fill="#c1d47d" d="M19 22h1v1h-1z"/><path d="M19 23h1v1h-1zM9 30h1v1H9z" fill="#5f9835"/><path fill="#5e9733" d="M20 24h1v1h-1z"/><path fill="#dee560" d="M26 24h1v1h-1z"/><path d="M22 26h1v1h-1zm12 7h1v1h-1zm-10 3h1v1h-1z" fill="#71a341"/><path fill="#559248" d="M36 31h1v1h-1z"/><path fill="#e0e693" d="M5 38h1v1H5z"/><path d="M24 42h1v1h-1zm0 16h1v1h-1z" fill="#90b637"/><path fill="#e6eb93" d="M46 13h1v1h-1z"/><path d="M17 23h1v1h-1zm-9 7h1v1H8zm-6 4h1v1H2zm7 4h1v1H9z" fill="#6da140"/><path d="M24 27h1v6h-1zm0 6h1v1h-1zm0 10h1v14h-1zm0 14h1v1h-1z" fill="#8eb538"/><path fill="#609836" d="M8 29h1v1H8z"/><path fill="#d4dd23" d="M38 29h1v1h-1z"/><path fill="#d7df23" d="M36 36h1v1h-1z"/><path fill="#dfe420" d="M36 35h1v1h-1z"/><path d="M43 35h1v1h-1zm-2 1h1v1h-1zm7 10h1v1h-1zm-8 3h1v1h-1zm0 1h1v1h-1z" fill="#d4de22"/><path fill="#e1e795" d="M6 15h1v1H6z"/><path fill="#f6f4a3" d="M22 23h1v1h-1z"/><path d="M22 25h1v1h-1zM4 36h1v1H4z" fill="#5d9733"/><path d="M36 30h1v1h-1zm-3 2h1v1h-1z" fill="#609846"/><path d="M33 34h1v1h-1zm-9 6h1v1h-1z" fill="#6ea142"/><path fill="#81ac3c" d="M26 35h1v1h-1z"/><path fill="#e3e71e" d="M45 40h1v1h-1z"/><path fill="#b1ca72" d="M11 41h1v1h-1z"/><path d="M2 15h1v1H2zm14 28h1v1h-1z" fill="#689e3c"/><path fill="#e8ec9e" d="M38 16h1v1h-1z"/><path d="M48 38h1v1h-1zm2 0h1v1h-1zm-4 1h1v1h-1z" fill="#dce321"/><path fill="#eaee9c" d="M8 41h1v1H8z"/><path d="M17 54h1v1h-1zm0 1h1v1h-1z" fill="#6ea240"/><path d="M38 32h1v1h-1zm1 0h1v1h-1zm0 1h1v1h-1z" fill="#d8e122"/><path fill="#d5df27" d="M48 13h1v1h-1z"/><path d="M29 32h1v1h-1zm-2 1h1v1h-1z" fill="#e4e81f"/><path d="M31 34h1v1h-1zm-4 2h1v1h-1z" fill="#6fa141"/><path d="M7 18h1v7H7zm0 7h1v1H7z" fill="#dde692"/><path fill="#5c9734" d="M2 35h1v1H2z"/><path d="M27 35h1v1h-1zm5 0h1v1h-1z" fill="#629b45"/><path fill="#dce32e" d="M25 25h1v1h-1z"/><path fill="#91b65b" d="M15 30h1v1h-1z"/><path d="M39 30h1v1h-1zm-1 1h1v1h-1zM25 58h1v1h-1z" fill="#d9e122"/><path fill="#679e44" d="M28 37h1v1h-1z"/><path fill="#9fbf64" d="M6 38h1v1H6z"/><path fill="#85af3b" d="M37 31h1v1h-1z"/><path fill="#d8e121" d="M38 34h1v1h-1z"/><path fill="#c6d628" d="M42 37h1v1h-1z"/><path fill="#87b13a" d="M24 59h1v1h-1z"/><path fill="#83ae4f" d="M18 22h1v1h-1z"/><path fill="#d3dd11" d="M26 25h1v1h-1z"/><path fill="#f7f5a5" d="M12 29h1v1h-1z"/><path d="M39 34h1v1h-1zm-12 7h1v1h-1zm11 2h1v1h-1z" fill="#d5df23"/><path fill="#b7cd2c" d="M35 35h1v1h-1z"/><path fill="#669c43" d="M26 36h1v1h-1z"/><path fill="#6ba03e" d="M0 33h1v1H0z"/><path fill="#aec72f" d="M27 34h1v1h-1z"/><path d="M46 10h1v1h-1zm-2 2h1v1h-1zm1 0h1v1h-1zm-3 1h1v1h-1zm1 0h1v1h-1zm-3 1h1v1h-1zm1 0h1v1h-1zm-6 3h1v1h-1zm-2 1h1v1h-1zm-2 1h1v1h-1zm-5 3h1v1h-1z" fill="#e7eb98"/><path fill="#d2de1b" d="M48 14h1v1h-1z"/><path d="M18 24h1v1h-1zm2 1h1v1h-1zm-9 7h1v1h-1zM1 33h1v1H1zm15 0h1v1h-1zM3 34h1v1H3zm10 6h1v1h-1zm2 1h1v1h-1zm1 1h1v1h-1z" fill="#70a342"/><path fill="#d4df26" d="M27 24h1v1h-1z"/><path d="M27 25h1v1h-1zm18 21h1v1h-1z" fill="#d3dd1a"/><path fill="#d3dd24" d="M32 31h1v1h-1z"/><path fill="#5c9747" d="M45 37h1v1h-1z"/><path fill="#dfe664" d="M43 15h1v1h-1z"/><path fill="#d8e123" d="M38 30h1v1h-1z"/><path fill="#acc52f" d="M29 33h1v1h-1z"/><path d="M16 45h1v6h-1zm0 6h1v2h-1zm0 2h1v1h-1z" fill="#639a39"/><path fill="#eaeca9" d="M47 11h1v1h-1z"/><path fill="#e8ec9c" d="M36 17h1v1h-1z"/><path fill="#e8eca2" d="M25 23h1v1h-1z"/><path d="M19 24h1v1h-1zm-7 8h1v1h-1z" fill="#6ca13f"/><path fill="#a7c430" d="M33 31h1v1h-1z"/><path d="M24 34h1v1h-1zm0 1h1v1h-1zm14 7h1v1h-1z" fill="#91b637"/><path d="M3 12h1v1H3zm29 7h1v1h-1z" fill="#e8eb9a"/><path d="M49 13h1v1h-1zm-14 8h1v1h-1z" fill="#d4de20"/><path fill="#589430" d="M5 16h1v1H5z"/><path d="M25 27h1v5h-1zm0 5h1v1h-1zm0 11h1v14h-1zm0 14h1v1h-1z" fill="#d9e022"/><path fill="#c6d627" d="M48 35h1v1h-1z"/><path fill="#99bb35" d="M45 36h1v1h-1z"/><path d="M31 36h1v1h-1zm-2 1h1v1h-1z" fill="#5f9846"/><path fill="#a4c031" d="M29 38h1v1h-1z"/><path fill="#f1f1a0" d="M1 11h1v1H1z"/><path fill="#e9eca1" d="M42 14h1v1h-1z"/><path fill="#d2dc15" d="M37 19h1v1h-1z"/><path d="M35 29h1v1h-1zm-6 10h1v1h-1z" fill="#e5e81e"/><path fill="#e3e81f" d="M31 31h1v1h-1z"/><path d="M34 35h1v1h-1zm12 3h1v1h-1z" fill="#81ad3c"/><path fill="#e4e61e" d="M27 40h1v1h-1z"/><path fill="#529249" d="M46 37h1v1h-1z"/><path fill="#669d3b" d="M4 16h1v1H4z"/><path fill="#e3e996" d="M7 16h1v1H7z"/><path fill="#eaeda7" d="M31 20h1v1h-1z"/><path fill="#c2d329" d="M36 29h1v1h-1z"/><path fill="#c4d57f" d="M12 30h1v1h-1z"/><path fill="#75a645" d="M15 32h1v1h-1z"/><path d="M45 15h1v1h-1zm-17 9h1v1h-1z" fill="#d1dc0f"/><path fill="#d9e13f" d="M36 19h1v1h-1z"/><path d="M1 15h1v1H1zm3 2h1v1H4zm2 10h1v1H6zm16 0h1v6h-1zM5 29h1v1H5zm4 2h1v1H9zm13 2h1v2h-1zm0 2h1v1h-1zm8 0h1v1h-1zm-2 1h1v1h-1zm-2 1h1v1h-1zm1 0h1v1h-1zm-17 1h1v1h-1zm15 0h1v1h-1zm-3 3h1v15h-1zm0 15h1v1h-1zm0 1h1v1h-1zm0 1h1v1h-1z" fill="#70a241"/><g fill="#424242"><path d="M63 16h1v1h-1zm1 0h1v1h-1zm1 0h1v1h-1zm1 0h3v1h-3zm3 0h1v1h-1zm1 0h1v1h-1zm1 0h1v1h-1zm1 0h1v1h-1zm1 0h1v1h-1zm19 0h1v1h-1zm1 0h1v1h-1zm1 0h1v1h-1zm21 0h1v1h-1zm1 0h1v1h-1zm1 0h1v1h-1zm1 0h2v1h-2zm2 0h1v1h-1zm1 0h1v1h-1zm1 0h1v1h-1zm21 0h1v1h-1zm1 0h1v1h-1zm1 0h1v1h-1zm1 0h1v1h-1zm4 0h1v1h-1zm1 0h1v1h-1zm1 0h1v1h-1zm1 0h1v1h-1zm23 0h1v1h-1zm1 0h1v1h-1zm1 0h1v1h-1zm21 0h1v1h-1zm1 0h1v1h-1zm1 0h1v1h-1zm1 0h2v1h-2zm2 0h1v1h-1zm1 0h1v1h-1zm1 0h1v1h-1zM63 17h1v1h-1zm1 0h1v1h-1zm1 0h1v1h-1zm1 0h1v1h-1zm1 0h1v1h-1zm1 0h1v1h-1zm1 0h1v1h-1zm1 0h1v1h-1zm1 0h1v1h-1zm1 0h1v1h-1zm1 0h1v1h-1zm19 0h1v1h-1zm1 0h1v22h-1zm1 0h1v1h-1zm20 0h1v1h-1zm1 0h1v1h-1zm1 0h1v1h-1zm1 0h3v1h-3zm3 0h1v1h-1zm1 0h1v1h-1zm1 0h1v1h-1zm1 0h1v1h-1zm20 0h1v1h-1zm1 0h1v1h-1zm1 0h1v1h-1zm1 0h1v1h-1zm4 0h1v1h-1zm1 0h1v1h-1zm1 0h1v1h-1zm1 0h1v1h-1zm22 0h1v1h-1zm1 0h1v1h-1zm1 0h1v1h-1zm1 0h1v1h-1zm20 0h1v1h-1zm1 0h1v1h-1zm1 0h1v1h-1zm1 0h3v1h-3zm3 0h1v1h-1zm1 0h1v1h-1zm1 0h1v1h-1zm1 0h1v1h-1zM63 18h1v1h-1zm1 0h1v1h-1zm1 0h1v1h-1zm1 0h1v1h-1zm1 0h1v1h-1zm1 0h1v21h-1zm1 0h1v1h-1zm1 0h1v1h-1zm1 0h1v1h-1zm1 0h1v1h-1zm1 0h1v1h-1zm19 0h1v1h-1zm2 0h1v1h-1zm20 0h1v1h-1zm1 0h1v20h-1zm1 0h1v1h-1zm1 0h1v1h-1zm1 0h2v1h-2zm2 0h1v1h-1zm1 0h1v1h-1zm1 0h1v1h-1zm1 0h1v1h-1zm1 0h1v1h-1zm19 0h1v1h-1zm1 0h1v1h-1zm1 0h1v1h-1zm1 0h1v1h-1zm3 0h1v1h-1zm1 0h1v1h-1zm1 0h1v1h-1zm1 0h1v1h-1zm23 0h1v1h-1zm1 0h1v1h-1zm1 0h1v1h-1zm1 0h1v1h-1zm19 0h1v2h-1zm1 0h1v1h-1zm1 0h1v1h-1zm1 0h1v1h-1zm1 0h1v1h-1zm1 0h1v1h-1zm1 0h1v1h-1zm1 0h1v1h-1zm1 0h1v1h-1zm1 0h1v6h-1zm1 0h1v1h-1zM64 19h1v1h-1zm2 0h1v1h-1zm1 0h1v19h-1zm2 0h1v1h-1zm2 0h1v1h-1zm1 0h1v1h-1zm20 0h1v18h-1zm2 0h1v18h-1zm19 0h1v1h-1zm1 0h1v1h-1zm2 0h1v16h-1zm3 0h1v1h-1zm2 0h1v1h-1zm1 0h1v1h-1zm1 0h1v1h-1zm1 0h1v1h-1zm19 0h1v7h-1zm1 0h1v3h-1zm1 0h1v2h-1zm1 0h1v1h-1zm3 0h1v1h-1zm1 0h1v1h-1zm1 0h1v1h-1zm1 0h1v1h-1zm22 0h1v1h-1zm1 0h1v1h-1zm1 0h1v1h-1zm1 0h1v1h-1zm21 0h1v1h-1zm1 0h1v1h-1zm1 0h1v1h-1zm1 0h1v1h-1zm2 0h1v1h-1zm1 0h1v4h-1zm1 0h1v1h-1zm2 0h1v1h-1zM66 20h1v1h-1zm3 0h1v1h-1zm44 0h1v16h-1zm1 0h1v16h-1zm7 0h1v1h-1zm1 0h1v1h-1zm1 0h1v1h-1zm1 0h1v1h-1zm22 0h1v1h-1zm2 0h1v1h-1zm1 0h1v1h-1zm1 0h1v1h-1zm1 0h1v1h-1zm23 0h1v1h-1zm1 0h1v1h-1zm1 0h1v1h-1zm1 0h1v1h-1zm20 0h1v1h-1zm1 0h1v1h-1zm1 0h1v1h-1zm1 0h1v1h-1zm5 0h1v1h-1zm2 0h1v1h-1zM66 21h1v16h-1zm3 0h1v16h-1zm76 0h1v1h-1zm1 0h1v1h-1zm2 0h1v1h-1zm1 0h1v1h-1zm1 0h1v1h-1zm1 0h1v1h-1zm23 0h1v1h-1zm1 0h1v1h-1zm1 0h1v1h-1zm1 0h1v1h-1zm28 0h1v1h-1zm2 0h1v1h-1zm-63 1h1v1h-1zm1 0h1v1h-1zm1 0h1v1h-1zm1 0h1v1h-1zm1 0h1v1h-1zm1 0h1v1h-1zm1 0h1v1h-1zm23 0h1v1h-1zm1 0h1v1h-1zm1 0h1v1h-1zm1 0h1v1h-1zm29 0h1v1h-1zm2 0h1v1h-1zm-63 1h1v2h-1zm1 0h1v1h-1zm1 0h1v1h-1zm1 0h1v1h-1zm1 0h1v1h-1zm1 0h1v1h-1zm1 0h1v1h-1zm23 0h1v1h-1zm1 0h1v1h-1zm1 0h1v1h-1zm1 0h1v1h-1zm28 0h1v1h-1zm1 0h1v1h-1zm2 0h1v1h-1zm-62 1h1v1h-1zm1 0h1v1h-1zm1 0h1v1h-1zm1 0h1v1h-1zm1 0h1v1h-1zm24 0h1v1h-1zm1 0h1v1h-1zm1 0h1v1h-1zm1 0h1v1h-1zm28 0h1v1h-1zm1 0h1v1h-1zm1 0h1v1h-1zm1 0h1v1h-1zm-63 1h1v1h-1zm1 0h1v1h-1zm1 0h1v1h-1zm1 0h1v1h-1zm1 0h1v1h-1zm1 0h1v1h-1zm23 0h1v1h-1zm1 0h1v1h-1zm1 0h1v1h-1zm1 0h1v1h-1zm29 0h1v1h-1zm1 0h1v1h-1zm1 0h1v1h-1zm1 0h1v1h-1zm-64 1h1v1h-1zm1 0h1v1h-1zm1 0h1v1h-1zm1 0h1v1h-1zm1 0h1v1h-1zm1 0h1v1h-1zm1 0h1v1h-1zm23 0h1v1h-1zm1 0h1v1h-1zm1 0h1v1h-1zm1 0h1v1h-1zm28 0h1v1h-1zm1 0h1v1h-1zm1 0h1v1h-1zm1 0h1v1h-1zm-63 1h1v1h-1zm1 0h1v1h-1zm1 0h1v1h-1zm1 0h1v1h-1zm1 0h1v1h-1zm1 0h1v1h-1zm24 0h1v1h-1zm1 0h1v1h-1zm1 0h1v1h-1zm1 0h1v1h-1zm28 0h1v1h-1zm1 0h1v1h-1zm1 0h1v1h-1zm1 0h1v1h-1zm-63 1h1v1h-1zm1 0h1v1h-1zm1 0h1v1h-1zm1 0h1v1h-1zm1 0h1v1h-1zm1 0h1v1h-1zm23 0h1v1h-1zm1 0h1v1h-1zm1 0h1v1h-1zm1 0h1v1h-1zm28 0h1v1h-1zm1 0h1v1h-1zm1 0h1v1h-1zm1 0h1v1h-1zm1 0h1v1h-1zm-63 1h1v8h-1zm1 0h1v1h-1zm1 0h1v1h-1zm1 0h1v1h-1zm1 0h1v1h-1zm1 0h1v1h-1zm23 0h1v1h-1zm1 0h1v1h-1zm1 0h1v1h-1zm1 0h1v1h-1zm28 0h1v1h-1zm1 0h1v1h-1zm1 0h1v1h-1zm1 0h1v1h-1zm-61 1h1v1h-1zm1 0h1v1h-1zm1 0h1v1h-1zm1 0h1v1h-1zm1 0h1v1h-1zm1 0h1v1h-1zm22 0h1v1h-1zm1 0h1v2h-1zm1 0h1v1h-1zm28 0h1v1h-1zm1 0h1v1h-1zm1 0h1v1h-1zm1 0h1v1h-1zm-60 1h1v1h-1zm1 0h1v1h-1zm1 0h1v1h-1zm1 0h1v1h-1zm1 0h1v1h-1zm1 0h1v1h-1zm21 0h1v1h-1z"/><path d="M171 31h2v1h-2zm2 0h1v1h-1zm28 0h1v1h-1zm1 0h1v1h-1zm1 0h1v1h-1zm1 0h1v1h-1zm-60 1h1v1h-1zm1 0h1v1h-1zm1 0h1v1h-1zm1 0h1v1h-1zm1 0h1v1h-1zm1 0h1v1h-1zm1 0h1v1h-1zm20 0h1v1h-1zm1 0h1v1h-1zm1 0h1v1h-1zm1 0h1v1h-1zm1 0h1v1h-1zm1 0h1v1h-1zm1 0h1v1h-1zm1 0h2v1h-2zm2 0h1v1h-1zm1 0h1v1h-1zm1 0h1v1h-1zm1 0h1v1h-1zm18 0h1v1h-1zm1 0h1v1h-1zm1 0h1v1h-1zm1 0h1v1h-1zm1 0h1v1h-1zm-60 1h1v4h-1zm1 0h1v5h-1zm1 0h1v1h-1zm1 0h1v1h-1zm1 0h1v1h-1zm1 0h1v1h-1zm1 0h1v1h-1zm20 0h1v1h-1zm1 0h1v1h-1zm1 0h1v1h-1zm1 0h1v1h-1zm1 0h6v1h-6zm6 0h1v1h-1zm1 0h1v1h-1zm1 0h1v1h-1zm18 0h1v1h-1zm1 0h1v1h-1zm1 0h1v1h-1zm1 0h1v1h-1zm-57 1h1v1h-1zm2 0h1v1h-1zm1 0h1v1h-1zm1 0h1v1h-1zm1 0h1v1h-1zm19 0h1v1h-1zm1 0h1v1h-1zm1 0h1v1h-1zm1 0h1v1h-1zm1 0h1v1h-1zm1 0h1v1h-1zm1 0h1v1h-1zm1 0h1v1h-1zm1 0h1v5h-1zm1 0h1v1h-1zm1 0h1v1h-1zm1 0h1v1h-1zm1 0h1v1h-1zm17 0h1v1h-1zm1 0h1v1h-1zm1 0h1v1h-1zm1 0h1v1h-1zm1 0h1v1h-1zm-87 1h1v1h-1zm30 0h1v2h-1zm2 0h1v1h-1zm1 0h1v1h-1zm1 0h1v1h-1zm1 0h1v1h-1zm25 0h1v1h-1zm1 0h1v1h-1zm2 0h1v1h-1zm20 0h1v1h-1zm1 0h1v1h-1zm1 0h1v1h-1zm1 0h1v1h-1zm-89 1h1v1h-1zm1 0h1v1h-1zm2 0h1v1h-1zm5 0h1v1h-1zm1 0h1v1h-1zm1 0h1v1h-1zm1 0h1v1h-1zm25 0h1v1h-1zm1 0h1v1h-1zm1 0h1v1h-1zm1 0h1v1h-1zm24 0h1v1h-1zm1 0h1v1h-1zm2 0h1v1h-1zm19 0h1v1h-1zm1 0h1v1h-1zm1 0h1v1h-1zm1 0h1v1h-1zM66 37h1v1h-1zm3 0h1v1h-1zm23 0h1v1h-1zm2 0h1v1h-1zm19 0h1v1h-1zm1 0h1v1h-1zm2 0h1v1h-1zm5 0h1v1h-1zm1 0h1v1h-1zm1 0h1v1h-1zm1 0h1v1h-1zm19 0h1v1h-1zm1 0h1v1h-1zm2 0h1v1h-1zm3 0h1v1h-1zm1 0h1v1h-1zm1 0h1v1h-1zm1 0h1v1h-1zm24 0h1v1h-1zm1 0h1v1h-1zm2 0h1v1h-1zm19 0h1v1h-1zm1 0h1v1h-1zm1 0h1v1h-1zm1 0h1v1h-1zM66 38h1v1h-1zm1 0h1v1h-1zm2 0h1v1h-1zm23 0h1v1h-1zm2 0h1v1h-1zm20 0h1v1h-1zm1 0h1v1h-1zm1 0h1v1h-1zm1 0h2v1h-2zm2 0h1v1h-1zm1 0h1v1h-1zm1 0h1v1h-1zm1 0h1v1h-1zm1 0h1v1h-1zm1 0h1v1h-1zm19 0h1v1h-1zm1 0h1v1h-1zm1 0h1v1h-1zm1 0h1v1h-1zm4 0h1v1h-1zm1 0h1v1h-1zm1 0h1v1h-1zm1 0h1v1h-1zm23 0h1v1h-1zm1 0h1v1h-1zm2 0h1v1h-1zm18 0h1v1h-1zm1 0h1v1h-1zm1 0h1v1h-1zm1 0h1v1h-1zm1 0h1v1h-1zm1 0h1v1h-1zm1 0h2v1h-2zm2 0h1v1h-1zm1 0h1v1h-1zm1 0h1v1h-1zM66 39h1v1h-1zm1 0h1v1h-1zm1 0h1v1h-1zm1 0h1v1h-1zm23 0h1v1h-1zm1 0h1v1h-1zm1 0h1v1h-1zm20 0h1v1h-1zm1 0h1v1h-1zm1 0h5v1h-5zm5 0h1v1h-1zm1 0h1v1h-1zm1 0h1v1h-1zm20 0h1v1h-1zm1 0h1v1h-1zm1 0h1v1h-1zm1 0h1v1h-1zm4 0h1v1h-1zm1 0h1v1h-1zm1 0h1v1h-1zm1 0h1v1h-1zm23 0h1v1h-1zm1 0h1v1h-1zm1 0h1v1h-1zm1 0h1v1h-1zm18 0h1v1h-1zm1 0h1v1h-1zm1 0h1v1h-1zm1 0h1v1h-1zm1 0h5v1h-5zm5 0h1v1h-1zm1 0h1v1h-1zM66 40h1v1h-1zm1 0h1v1h-1zm1 0h1v1h-1zm1 0h1v1h-1zm23 0h1v1h-1zm1 0h1v1h-1zm1 0h1v1h-1zm21 0h1v1h-1zm1 0h1v1h-1zm1 0h1v1h-1zm1 0h2v1h-2zm2 0h1v1h-1zm1 0h1v1h-1zm1 0h1v1h-1zm21 0h1v1h-1zm1 0h1v1h-1zm1 0h1v1h-1zm1 0h1v1h-1zm5 0h1v1h-1zm1 0h1v1h-1zm1 0h1v1h-1zm1 0h1v1h-1zm22 0h1v1h-1zm1 0h1v1h-1zm1 0h1v1h-1zm1 0h1v1h-1zm19 0h1v1h-1zm1 0h1v1h-1zm1 0h1v1h-1zm1 0h4v1h-4zm4 0h1v1h-1zm1 0h1v1h-1zm1 0h1v1h-1z"/></g><path fill="#dbe591" d="M7 17h1v1H7z"/><path d="M13 21h1v7h-1zm0 7h1v1h-1z" fill="#ebed9c"/><path fill="#d4de1e" d="M31 22h1v1h-1z"/><path fill="#a6c231" d="M35 30h1v1h-1z"/><path d="M16 32h1v1h-1zm15 3h1v1h-1zm9 4h1v1h-1zm-23 4h1v1h-1z" fill="#6ea241"/><path fill="#d7e023" d="M32 37h1v1h-1z"/><path d="M4 12h1v1H4zm2 1h1v1H6zm7 6h1v1h-1zm1 0h1v1h-1zm5 1h1v1h-1zm4 2h1v1h-1zm-11 6h1v1h-1zM3 39h1v1H3zm8 4h1v1h-1z" fill="#e6eb99"/><path fill="#dce457" d="M47 13h1v1h-1z"/><path d="M47 14h1v1h-1zm-6 3h1v1h-1z" fill="#d1dc11"/><path fill="#dbe24d" d="M32 21h1v1h-1z"/><path d="M26 27h1v5h-1zm13 2h1v1h-1zm-13 3h1v1h-1zm20 2h1v1h-1zm-20 8h1v15h-1zm12 2h1v1h-1zM26 57h1v1h-1zm0 1h1v1h-1zm0 1h1v1h-1z" fill="#d6df22"/><path fill="#f0f1a0" d="M11 29h1v1h-1z"/><path fill="#fbf7a7" d="M4 38h1v1H4z"/><path fill="#649b44" d="M45 38h1v1h-1z"/><path fill="#b5cb2d" d="M45 39h1v1h-1z"/><path fill="#a6c469" d="M15 44h1v1h-1z"/><path fill="#d0dc0e" d="M43 48h1v1h-1z"/><path d="M48 11h1v1h-1zm-9 4h1v1h-1zm-2 1h1v1h-1z" fill="#e7eb97"/><path fill="#649b45" d="M23 35h1v1h-1z"/><path d="M46 35h1v1h-1zm-11 1h1v1h-1z" fill="#e0e520"/><path fill="#649c45" d="M30 36h1v1h-1z"/><path fill="#cad926" d="M40 38h1v1h-1z"/><path fill="#f4f3a2" d="M5 39h1v1H5z"/><path fill="#d2dd17" d="M42 17h1v1h-1z"/><path fill="#5a9440" d="M23 26h1v1h-1z"/><path fill="#fdf9aa" d="M14 30h1v1h-1z"/><path fill="#609845" d="M23 34h1v1h-1z"/><path d="M42 36h1v1h-1zm7 2h1v1h-1zm-23 3h1v1h-1zm13 2h1v1h-1z" fill="#e0e51f"/><path d="M5 17h1v1H5zm11 37h1v1h-1z" fill="#669c3a"/><path d="M35 18h1v1h-1zm-2 1h1v1h-1zm1 0h1v1h-1z" fill="#eaeda9"/><path fill="#e1e776" d="M37 18h1v1h-1z"/><path fill="#5e9834" d="M11 31h1v1h-1z"/><path d="M30 31h1v1h-1zm-2 1h1v1h-1zm4 6h1v1h-1zm5 1h1v1h-1zm-1 1h1v1h-1zm10 0h1v1h-1zm-2 1h1v1h-1z" fill="#d9e121"/><path fill="#629b39" d="M10 39h1v1h-1z"/><path fill="#6ba13e" d="M2 14h1v1H2z"/><g fill="#6fa241"><path d="M0 15h1v17H0zm4 0h1v1H4zm-3 1h2v16H1zm2 0h1v17H3zm1 2h1v17H4zm12 3h1v1h-1zm2 4h1v29h-1zm1 0h1v30h-1zm1 1h1v29h-1zm1 0h1v30h-1zM5 30h2v4H5zm2 0h1v6H7zm1 1h1v5H8zm-8 1h1v1H0z"/><path d="M1 32h9v1H1zm9 0h1v5h-1zm7 0h4v10h-4zm18 0h1v1h-1z"/><path d="M2 33h10v1H2zm10 0h1v6h-1z"/><path d="M5 34h16v1H5zm-1 1h17v1H4zm25 0h1v1h-1zM6 36h17v1H6zm17 0h1v2h-1zM9 37h14v1H9zm2 1h13v1H11zm13 0h1v1h-1zm-13 1h11v1H11zm11 0h1v1h-1zm-8 1h8v1h-8zm8 0h1v1h-1zm-6 1h5v1h-5zm1 1h4v1h-4zm1 12h3v1h-3zm0 1h1v1h-1zm1 0h2v1h-2zm-1 1h1v1h-1zm1 0h1v1h-1zm1 0h1v1h-1zm1 0h1v1h-1zm-1 1h1v1h-1zm1 0h1v1h-1z"/></g><path fill="#5d9634" d="M17 22h1v1h-1z"/><path fill="#97ba5e" d="M22 24h1v1h-1z"/><path fill="#9cbd62" d="M13 42h1v1h-1z"/><path fill="#d3dd1d" d="M43 47h1v1h-1z"/><path fill="#e4e986" d="M48 12h1v1h-1z"/><path fill="#d5de2a" d="M44 15h1v1h-1z"/><path d="M15 19h1v1h-1zM8 40h1v1H8zm6 5h1v7h-1zm0 7h1v1h-1zm0 1h1v1h-1z" fill="#f3f2a2"/><path fill="#eaedab" d="M30 21h1v1h-1z"/><path fill="#52914a" d="M36 33h1v1h-1z"/><path fill="#7dab4b" d="M10 40h1v1h-1z"/><path fill="#d4df23" d="M30 38h1v1h-1z"/><path fill="#9cbd34" d="M27 39h1v1h-1z"/><path fill="#a1c065" d="M3 14h1v1H3z"/><path fill="#d7e034" d="M40 17h1v1h-1z"/><path fill="#75a545" d="M6 26h1v1H6z"/><path fill="#609946" d="M31 33h1v1h-1z"/><path fill="#e9ea1d" d="M25 34h1v1h-1z"/><path fill="#6da142" d="M24 37h1v1h-1z"/><path fill="#96b935" d="M41 38h1v1h-1z"/><path d="M8 18h1v8H8zm6 3h1v1h-1zm-6 5h1v1H8zM1 36h1v1H1z" fill="#eeef9e"/><path fill="#d3de1d" d="M33 21h1v1h-1z"/><path fill="#dce351" d="M30 22h1v1h-1z"/><path fill="#f4f2a8" d="M24 24h1v1h-1z"/><path fill="#659d43" d="M28 35h1v1h-1z"/><path d="M27 38h1v1h-1zm17 0h1v1h-1z" fill="#5e9845"/><path fill="#dde55d" d="M45 14h1v1h-1z"/><path fill="#d2dd1a" d="M46 15h1v1h-1z"/><path d="M21 21h1v1h-1zm-9 23h1v1h-1z" fill="#e6eb98"/><path fill="#d6df23" d="M26 26h1v1h-1z"/><path fill="#6fa341" d="M29 36h1v1h-1z"/><path d="M30 32h1v1h-1zm15 2h1v1h-1zm-9 5h1v1h-1zm1 5h1v1h-1z" fill="#d5de23"/><path fill="#a6c331" d="M31 32h1v1h-1z"/><path fill="#e3e880" d="M35 19h1v1h-1z"/><path fill="#e4e885" d="M33 20h1v1h-1z"/><path d="M28 22h1v1h-1zm-2 1h1v1h-1z" fill="#eaedad"/><path d="M33 29h1v1h-1zm-2 1h1v1h-1zm-2 1h1v1h-1zm13 4h1v1h-1zm-5 1h1v1h-1zm3 0h1v1h-1zm9 3h1v1h-1zm-2 1h1v1h-1z" fill="#d3de23"/><path d="M13 30h1v1h-1zM0 36h1v1H0z" fill="#f7f5a4"/><path fill="#669d3a" d="M16 31h1v1h-1z"/><path fill="#86af3a" d="M38 40h1v1h-1z"/><path d="M29 34h1v1h-1zm5 0h1v1h-1zm-11 7h1v1h-1zm0 1h1v1h-1zm0 16h1v1h-1z" fill="#619a45"/><path d="M45 35h1v1h-1zm-2 6h1v1h-1zm-2 1h1v1h-1z" fill="#e3e71f"/><g fill="#e7eb99"><path d="M22 0h1v1h-1zm1 0h1v1h-1zm1 0h1v1h-1zm1 0h1v1h-1zm1 0h1v1h-1zm1 0h1v1h-1zm-7 1h1v1h-1zm1 0h1v1h-1zm1 0h1v1h-1zm1 0h2v20h-2zm2 0h1v21h-1zm1 0h1v1h-1zm1 0h1v1h-1zm1 0h1v1h-1zm1 0h1v1h-1zM18 2h1v1h-1zm1 0h1v1h-1zm1 0h1v1h-1z"/><path d="M21 2h6v18h-6zm6 0h1v18h-1zm1 0h1v1h-1zm1 0h1v1h-1zm1 0h1v1h-1zM16 3h1v1h-1zm1 0h1v1h-1zm1 0h1v1h-1z"/><path d="M19 3h10v16H19zm10 0h1v16h-1zm1 0h1v1h-1zm1 0h1v1h-1zm1 0h1v1h-1zM14 4h1v1h-1zm1 0h1v1h-1zm1 0h1v1h-1zm1 0h1v1h-1z"/><path d="M18 4h13v15H18zm13 0h1v14h-1zm1 0h1v1h-1zm1 0h1v1h-1zm1 0h1v1h-1zM12 5h1v1h-1zm1 0h1v1h-1zm1 0h1v1h-1zm1 0h1v1h-1z"/><path d="M16 5h17v13H16zm17 0h1v12h-1zm1 0h1v1h-1zm1 0h1v1h-1zm1 0h1v1h-1zM11 6h1v1h-1zm1 0h1v1h-1zm1 0h1v1h-1z"/><path d="M14 6h21v11H14zm21 0h1v10h-1zm1 0h1v1h-1zm1 0h1v1h-1zm1 0h1v1h-1zM9 7h1v1H9zm1 0h1v1h-1zm1 0h1v1h-1z"/><path d="M12 7h25v9H12zm25 0h1v8h-1zm1 0h1v1h-1zm1 0h1v1h-1zm1 0h1v1h-1zM7 8h1v1H7zm1 0h1v1H8zm1 0h1v1H9z"/><path d="M10 8h29v7H10zm29 0h1v6h-1zm1 0h1v1h-1zm1 0h1v1h-1zm1 0h1v1h-1zM5 9h1v1H5zm1 0h1v1H6zm1 0h1v1H7z"/><path d="M8 9h33v4H8zm33 0h1v4h-1zm1 0h1v1h-1zm1 0h1v1h-1zm1 0h1v1h-1zM3 10h1v1H3zm1 0h1v1H4zm1 0h1v1H5z"/><path d="M6 10h37v2H6zm37 0h1v2h-1zm1 0h1v1h-1zm1 0h1v1h-1zM3 11h1v1H3z"/><path d="M4 11h41v1H4zm41 0h1v1h-1zM5 12h38v1H5zm38 0h1v1h-1zM7 13h34v1H7zm34 0h1v1h-1zM8 14h31v1H8zm31 0h1v1h-1zM8 15h30v1H8zm30 0h1v1h-1zM9 16h27v1H9zm27 0h1v1h-1zM9 17h25v1H9zm25 0h1v1h-1zM9 18h23v1H9zm23 0h1v1h-1zM9 19h3v7H9zm3 0h1v8h-1zm6 0h12v1H18zm12 0h1v1h-1zm-10 1h8v1h-8zm8 0h2v1h-2zm2 0h1v1h-1zm-8 1h4v1h-4zm4 0h2v1h-2zm2 0h1v1h-1zm-4 1h1v1h-1zm1 0h1v1h-1zM9 26h3v1H9zm2 1h1v1h-1zm1 0h1v1h-1zM0 38h1v4H0zm1 0h1v6H1zm1 0h1v7H2zm2 1h1v7H4zm-1 1h1v5H3zm2 1h1v5H5zm1 0h1v6H6zm-6 1h1v1H0zm7 0h1v6H7zm1 0h1v6H8zm-8 1h1v1H0zm9 0h1v6H9zm1 0h1v6h-1z"/><path d="M0 44h11v1H0zm11 0h1v6h-1zM0 45h1v1H0zm1 0h1v1H1z"/><path d="M2 45h10v1H2zm10 0h1v5h-1zM1 46h1v1H1zm1 0h1v1H2zm1 0h1v1H3zm1 0h8v1H4zm-1 1h1v1H3zm1 0h1v1H4zm1 0h1v1H5zm1 0h6v1H6zm-1 1h1v1H5zm1 0h1v1H6zm1 0h5v1H7zm-1 1h1v1H6zm1 0h1v1H7zm1 0h1v1H8zm1 0h3v1H9zm-1 1h1v1H8zm1 0h1v1H9zm1 0h1v1h-1zm1 0h1v1h-1zm1 0h1v1h-1zm-2 1h1v1h-1zm1 0h1v1h-1zm1 0h1v1h-1zm-1 1h1v1h-1zm1 0h1v1h-1z"/></g><path d="M3 13h1v1H3zm14 7h1v1h-1zM9 41h1v1H9z" fill="#faf7a7"/><g fill="#d4de23"><path d="M49 14h1v18h-1zm-2 1h1v18h-1zm1 0h1v18h-1z"/><path d="M45 16h3v17h-3z"/><path d="M43 17h5v16h-5z"/><path d="M42 18h6v15h-6z"/><path d="M40 19h8v14h-8z"/><path d="M39 20h9v7h-9z"/><path d="M37 21h11v6H37z"/><path d="M35 22h13v5H35z"/><path d="M33 23h15v4H33z"/><path d="M31 24h17v3H31z"/><path d="M28 25h20v2H28z"/><path d="M27 26h21v1H27zm0 1h21v1H27zm0 1h6v1h-6zm6 0h2v1h-2zm2 0h1v1h-1zm3 0h10v1H38zm-11 1h5v1h-5zm5 0h1v1h-1zm-5 1h3v1h-3zm3 0h1v1h-1zm4 0h1v1h-1zm-7 1h1v1h-1zm1 0h1v1h-1zm21 1h1v1h-1zm-9 1h8v1h-8zm8 0h1v1h-1zm1 0h1v1h-1zm1 0h1v1h-1zm-10 1h4v1h-4zm4 0h1v1h-1zm-6 1h3v1h-3zm3 0h1v1h-1zm-3 1h1v1h-1zm1 0h1v1h-1zm-4 1h4v1h-4zm4 0h1v1h-1zm-6 1h3v2h-3zm3 0h1v1h-1z"/><path d="M31 39h4v13h-4z"/><path d="M29 40h6v12h-6zm6 0h1v12h-1zm13 0h1v4h-1zm1 0h1v2h-1z"/><path d="M28 41h6v12h-6zm18 0h2v4h-2z"/><path d="M27 42h8v10h-8zm17 0h4v3h-4zm5 0h1v1h-1zm-13 1h1v8h-1z"/><path d="M41 43h7v2h-7zm8 0h1v1h-1zm1 0h1v1h-1z"/><path d="M39 44h9v1h-9zm9 0h1v1h-1zm1 0h1v1h-1zm-12 1h10v1H37zm10 0h1v1h-1zm1 0h1v1h-1zm1 0h1v1h-1zm-12 1h5v1h-5zm5 0h1v1h-1zm-5 1h5v1h-5zm5 0h1v1h-1zm-5 1h3v1h-3zm3 0h1v1h-1zm-3 1h2v1h-2zm2 0h1v1h-1zm-2 1h1v1h-1zm1 0h1v1h-1zm1 0h1v1h-1zm-3 1h1v1h-1zm1 0h1v1h-1zm1 0h1v1h-1zm1 0h1v1h-1zm-12 1h8v1h-8zm8 0h1v1h-1zm1 0h1v1h-1zm1 0h1v1h-1zm-10 1h6v1h-6zm6 0h1v1h-1zm1 0h1v1h-1zm1 0h1v1h-1zm1 0h1v1h-1zm-9 1h4v1h-4zm4 0h1v1h-1zm1 0h1v1h-1zm1 0h1v1h-1zm1 0h1v1h-1zm-7 1h2v1h-2zm2 0h1v1h-1zm1 0h1v1h-1zm1 0h1v1h-1zm1 0h1v1h-1zm-5 1h1v1h-1zm1 0h1v1h-1zm1 0h1v1h-1zm1 0h1v1h-1zm1 0h1v1h-1zm-4 1h1v1h-1zm1 0h1v1h-1zm1 0h1v1h-1zm-2 1h1v1h-1z"/></g><path d="M14 22h1v7h-1zm0 7h1v1h-1z" fill="#eff09e"/><path fill="#699f3e" d="M6 28h1v1H6z"/><path d="M33 30h1v1h-1zm6 8h1v1h-1z" fill="#e4e81e"/><path fill="#cfda25" d="M28 39h1v1h-1z"/><path fill="#94b837" d="M25 40h1v1h-1z"/><path fill="#d4de25" d="M46 47h1v1h-1z"/><path fill="#a0c165" d="M15 52h1v1h-1z"/><path fill="#639b38" d="M3 35h1v1H3z"/><path fill="#5a9546" d="M39 40h1v1h-1z"/><path fill="#8ab255" d="M20 23h1v1h-1z"/><path fill="#ecee9d" d="M9 27h1v1H9z"/><path d="M12 31h1v1h-1zM1 34h1v1H1zm7 4h1v1H8z" fill="#609936"/><path fill="#91b75a" d="M13 31h1v1h-1z"/><path fill="#5e9835" d="M13 32h1v1h-1z"/><path d="M47 34h1v1h-1zm-19 6h1v1h-1z" fill="#dde320"/><path fill="#dbe321" d="M44 40h1v1h-1z"/><path fill="#c2d429" d="M37 34h1v1h-1z"/><path fill="#71a443" d="M5 37h1v1H5z"/><path d="M0 13h1v1H0zm17 11h1v7h-1zM5 28h1v1H5zm12 3h1v1h-1zm0 13h1v9h-1zm0 9h1v1h-1z" fill="#6ea140"/><path fill="#e7ea98" d="M17 19h1v1h-1z"/><path fill="#eaed9c" d="M20 21h1v1h-1z"/><path fill="#589431" d="M16 22h1v1h-1z"/><path fill="#ccdb86" d="M21 23h1v1h-1z"/><path d="M37 30h1v1h-1zm-7 3h1v1h-1zm0 4h1v1h-1z" fill="#79a83e"/><path d="M37 38h1v1h-1zm8 3h1v1h-1zm-2 1h1v1h-1z" fill="#d3dd23"/><path fill="#8bb456" d="M8 39h1v1H8z"/><path fill="#d1de89" d="M14 31h1v1h-1z"/><path fill="#aac530" d="M31 37h1v1h-1z"/><path fill="#82ae3b" d="M44 39h1v1h-1z"/><path fill="#e8eb9d" d="M40 16h1v1h-1z"/><path d="M13 20h1v1h-1zm9 2h1v1h-1zM6 40h1v1H6z" fill="#e9ec9a"/><path fill="#639b45" d="M43 39h1v1h-1z"/><path fill="#d3dd1e" d="M44 46h1v1h-1z"/><path fill="#d6df2e" d="M42 16h1v1h-1z"/><path d="M38 20h1v1h-1zm-2 1h1v1h-1zm-2 1h1v1h-1zm-2 1h1v1h-1zm-2 1h1v1h-1zm11 24h1v1h-1zm0 1h1v1h-1zm0 1h1v1h-1z" fill="#d4de24"/><path fill="#dde458" d="M28 23h1v1h-1z"/><path d="M0 14h1v1H0zm6 3h1v1H6z" fill="#6b9f3e"/><path d="M36 18h1v1h-1zm-9 4h1v1h-1z" fill="#e9eca4"/><path fill="#689f47" d="M23 25h1v1h-1z"/><path d="M23 27h1v6h-1zm0 6h1v1h-1zm0 10h1v14h-1zm0 14h1v1h-1z" fill="#629a45"/><path fill="#80ad3c" d="M37 33h1v1h-1z"/><path fill="#9ebe33" d="M39 42h1v1h-1z"/><path fill="#c5d680" d="M0 12h1v1H0z"/><path d="M28 34h1v1h-1zm10 7h1v1h-1z" fill="#7caa3d"/><path fill="#cddb85" d="M0 35h1v1H0z"/><path fill="#87b139" d="M48 37h1v1h-1z"/><path d="M13 44h1v7h-1zm0 7h1v1h-1zm0 1h1v1h-1zm0 1h1v1h-1z" fill="#eaed9b"/><path fill="#dae247" d="M34 20h1v1h-1z"/><path fill="#f8f5a6" d="M19 21h1v1h-1z"/><path fill="#d4de1d" d="M31 23h1v1h-1z"/><path fill="#afc971" d="M4 37h1v1H4z"/><path fill="#c9d726" d="M26 40h1v1h-1z"/><path fill="#f4f3a3" d="M2 12h1v1H2z"/><path d="M18 23h1v1h-1zM7 29h1v1H7zm3 1h1v1h-1z" fill="#619937"/><path fill="#94b95c" d="M15 31h1v1h-1z"/><path fill="#b9ce2c" d="M25 35h1v1h-1z"/><path fill="#d4de29" d="M42 49h1v1h-1z"/></svg>