<svg xmlns="http://www.w3.org/2000/svg" role="img" xmlns:xlink="http://www.w3.org/1999/xlink" viewBox="-3.98 62.52 206.70 36.45"><title>TimeBase CE logo</title><defs><linearGradient id="a" x1="544.94" x2="561.97" y1="-1348.25" y2="-1344.17" gradientTransform="rotate(31.52 -1944.441 -1209.158)" gradientUnits="userSpaceOnUse" xlink:href="#%D0%91%D0%B5%D0%B7%D1%8B%D0%BC%D1%8F%D0%BD%D0%BD%D1%8B%D0%B9_%D0%B3%D1%80%D0%B0%D0%B4%D0%B8%D0%B5%D0%BD%D1%82_4"/><linearGradient id="b" x1="7.78" x2="56.89" y1="14.87" y2="63.99" gradientTransform="translate(221.1 -57.335)" gradientUnits="userSpaceOnUse" xlink:href="#%D0%91%D0%B5%D0%B7%D1%8B%D0%BC%D1%8F%D0%BD%D0%BD%D1%8B%D0%B9_%D0%B3%D1%80%D0%B0%D0%B4%D0%B8%D0%B5%D0%BD%D1%82_7"/></defs><g data-name="Layer 2"><g data-name="Слой 1"><path fill="url(#a)" d="M254.51929-12.8053a8.29 8.29 0 0 1 6.95-14.93 9 9 0 1 0-.76 15.94 8.27 8.27 0 0 1-6.19-1.01z" transform="translate(-158.231 41.892)"/><path fill="url(#b)" d="M263.26929 6.8947a32.49 32.49 0 0 1-32.49-32.48c0-15.4 13.31-27 27.69-30.33-19.27.32-37.37 14.72-37.37 34.05a35.38 35.38 0 0 0 64.93 19.45 32.35 32.35 0 0 1-22.76 9.31z" transform="translate(-158.231 41.892)"/><path fill="url(#%D0%91%D0%B5%D0%B7%D1%8B%D0%BC%D1%8F%D0%BD%D0%BD%D1%8B%D0%B9_%D0%B3%D1%80%D0%B0%D0%B4%D0%B8%D0%B5%D0%BD%D1%82_2)" d="M241.09929-47.0253a32.49 32.49 0 0 1 27.5 58.4 35.37 35.37 0 1 0-46.07-42.3 32.35 32.35 0 0 1 18.57-16.1z" transform="translate(-158.231 41.892)"/><path fill="url(#%D0%91%D0%B5%D0%B7%D1%8B%D0%BC%D1%8F%D0%BD%D0%BD%D1%8B%D0%B9_%D0%B3%D1%80%D0%B0%D0%B4%D0%B8%D0%B5%D0%BD%D1%82_7-2)" d="M240.86929-14.8153a19.26 19.26 0 0 1 16.4-21.75c9-1.27 17.5 5.42 20.65 13.59-1.82-11.29-12.28-20.56-23.64-18.97a21 21 0 0 0-6.07 39.73 19.21 19.21 0 0 1-7.34-12.6z" transform="translate(-158.231 41.892)"/><path fill="url(#%D0%91%D0%B5%D0%B7%D1%8B%D0%BC%D1%8F%D0%BD%D0%BD%D1%8B%D0%B9_%D0%B3%D1%80%D0%B0%D0%B4%D0%B8%D0%B5%D0%BD%D1%82_7-3)" d="M261.46929-25.9553a8.29 8.29 0 0 1-11.37 11.93 9 9 0 1 0 5.81-14.86 8.3 8.3 0 0 1 5.56 2.93z" transform="translate(-158.231 41.892)"/><path fill="url(#%D0%91%D0%B5%D0%B7%D1%8B%D0%BC%D1%8F%D0%BD%D0%BD%D1%8B%D0%B9_%D0%B3%D1%80%D0%B0%D0%B4%D0%B8%D0%B5%D0%BD%D1%82_4-2)" d="M270.70929-32.2553a19.27 19.27 0 0 1-32 21 21 21 0 1 0 21.02-30.59 19.21 19.21 0 0 1 10.98 9.59z" transform="translate(-158.231 41.892)"/><path d="M9.36901 71.06841H.00021v-4.4408h23.9848v4.4408h-9.3688v23.828h-5.2472zm17.9592.5712a2.5256 2.5256 0 0 1-.8288-1.9432 2.5424 2.5424 0 0 1 .8288-1.932 2.8952 2.8952 0 0 1 2.0608-.7784 2.968 2.968 0 0 1 2.0608.7448 2.38 2.38 0 0 1 .8288 1.8592 2.7216 2.7216 0 0 1-.812 2.0048 2.8 2.8 0 0 1-2.0776.812 2.8952 2.8952 0 0 1-2.0608-.7672zm-.2184 3.9592h4.5192v19.2976h-4.5192zm44.4696-.1456q2.3856 2.3632 2.3856 7.084v12.3592h-5.04v-11.7096c0-1.8872-.4144-3.304-1.2488-4.2616a4.508 4.508 0 0 0-3.5952-1.4336 5.264 5.264 0 0 0-4.0768 1.68q-1.5344 1.68-1.5344 4.788v10.9368h-5.04v-11.7096c0-1.8872-.4144-3.304-1.2488-4.2616a4.508 4.508 0 0 0-3.5952-1.4336 5.2584 5.2584 0 0 0-4.0992 1.68q-1.512 1.68-1.512 4.8048v10.92h-5.04v-21.5656h4.8048v2.744a7.8736 7.8736 0 0 1 3.0296-2.24 10.3376 10.3376 0 0 1 4.0376-.7672 9.7496 9.7496 0 0 1 4.3008.9072 6.9552 6.9552 0 0 1 2.968 2.688 9.0048 9.0048 0 0 1 3.4328-2.6488 11.1552 11.1552 0 0 1 4.6424-.9464q4.0488.0224 6.4288 2.3856zm29.2376 10.276h-16.9232a5.8744 5.8744 0 0 0 2.3128 3.7744 7.6104 7.6104 0 0 0 4.6648 1.3944 7.84 7.84 0 0 0 5.8576-2.3408l2.7048 3.108a9.1056 9.1056 0 0 1-3.6792 2.6264 14.56 14.56 0 0 1-11.228-.5152 10.2144 10.2144 0 0 1-4.1832-3.92 11.1552 11.1552 0 0 1-1.4728-5.712 11.2896 11.2896 0 0 1 1.4336-5.6784 10.2144 10.2144 0 0 1 3.976-3.92 11.6368 11.6368 0 0 1 5.7344-1.4112 11.2952 11.2952 0 0 1 5.6336 1.3944 9.8336 9.8336 0 0 1 3.8752 3.92 11.8832 11.8832 0 0 1 1.372 5.8072c0 .3304-.028.8288-.0784 1.4728zm-14.924-7.168a6.0704 6.0704 0 0 0-2.0384 3.8136h12.236a5.936 5.936 0 0 0-1.9768-3.7912 6.0312 6.0312 0 0 0-4.1216-1.456 6.0928 6.0928 0 0 0-4.0992 1.4336zm43.2488 4.1608a6.9048 6.9048 0 0 1 1.5176 4.62 6.5016 6.5016 0 0 1-2.688 5.6q-2.688 1.9544-7.9352 1.9544h-13.0032v-28.2688h12.2136q4.7208 0 7.3304 1.8984a6.2552 6.2552 0 0 1 2.604 5.3704 6.72 6.72 0 0 1-1.1536 3.976 6.8712 6.8712 0 0 1-3.1808 2.464 7.4816 7.4816 0 0 1 4.2952 2.3856zm-19.1184-13.6304v10.2592h9.0048q3.4272 0 5.292-1.316a4.3736 4.3736 0 0 0 1.8536-3.8136 4.3904 4.3904 0 0 0-1.8536-3.8192q-1.8648-1.3104-5.292-1.3104zm15.708 22.0472q1.9152-1.2824 1.9152-4.0376 0-5.292-7.672-5.2864h-9.9512v10.64h9.9736q3.7968-.0224 5.7344-1.316zm24.9536-15.568q2.24 2.0832 2.24 6.16v13.1656h-2.744v-3.3096a6.5688 6.5688 0 0 1-2.8504 2.5816 9.9232 9.9232 0 0 1-4.48.9296q-3.5504 0-5.6504-1.68a5.4768 5.4768 0 0 1-2.1-4.48 5.4208 5.4208 0 0 1 1.96-4.3624q1.9544-1.68 6.2384-1.68h6.72v-1.288q0-2.7384-1.5344-4.1776t-4.48-1.4336a11.4464 11.4464 0 0 0-3.8808.6664 9.7272 9.7272 0 0 0-3.1864 1.8368l-1.2936-2.1392a11.5024 11.5024 0 0 1 3.8752-2.1224 15.0808 15.0808 0 0 1 4.7656-.7448q4.1776 0 6.4008 2.0776zm-3.2312 16.156a6.636 6.636 0 0 0 2.5928-3.2144v-3.472h-6.664q-5.4488 0-5.4488 3.7968a3.4776 3.4776 0 0 0 1.4112 2.9288 6.4512 6.4512 0 0 0 3.9816 1.0696 7.5488 7.5488 0 0 0 4.1272-1.1088zm13.9944 2.6096a10.5504 10.5504 0 0 1-3.696-1.876l1.2936-2.24a10.9928 10.9928 0 0 0 3.36 1.7192 13.4008 13.4008 0 0 0 4.2.6664c1.9376 0 3.36-.3024 4.3008-.9072a2.8952 2.8952 0 0 0 1.3944-2.5648 2.3016 2.3016 0 0 0-.7672-1.8368 5.04 5.04 0 0 0-1.9376-1.0136 27.9384 27.9384 0 0 0-3.108-.6664 35.1624 35.1624 0 0 1-4.1608-.9856 6.1208 6.1208 0 0 1-2.6824-1.7192 4.7544 4.7544 0 0 1-1.12-3.36 5.2416 5.2416 0 0 1 2.24-4.3624q2.24-1.68 6.16-1.68a16.0608 16.0608 0 0 1 4.1216.56 11.4016 11.4016 0 0 1 3.388 1.4336l-1.2488 2.3016a10.7408 10.7408 0 0 0-6.2608-1.8144q-2.744 0-4.1384.9688a2.968 2.968 0 0 0-1.3944 2.5424 2.5032 2.5032 0 0 0 .7896 1.9376 4.7152 4.7152 0 0 0 1.96 1.0696 32.0936 32.0936 0 0 0 3.2256.7112 36.0696 36.0696 0 0 1 4.0824.9688 5.9528 5.9528 0 0 1 2.6208 1.68 4.5584 4.5584 0 0 1 1.092 3.2312 5.1352 5.1352 0 0 1-2.324 4.424q-2.3184 1.6408-6.44 1.6352a16.128 16.128 0 0 1-4.9504-.8232zm37.492-9.1728h-17.7632a7.56 7.56 0 0 0 2.5424 5.348 8.4392 8.4392 0 0 0 5.8128 2.044 9.072 9.072 0 0 0 3.6344-.7112 7.952 7.952 0 0 0 2.8672-2.0776l1.6128 1.8592a9.0888 9.0888 0 0 1-3.5336 2.5816 11.9392 11.9392 0 0 1-4.6648.8904 11.76 11.76 0 0 1-5.8016-1.3944 9.996 9.996 0 0 1-3.92-3.8472 10.9872 10.9872 0 0 1-1.4168-5.6 11.396 11.396 0 0 1 1.3496-5.6 9.8 9.8 0 0 1 3.7184-3.836 10.388 10.388 0 0 1 5.3088-1.3272 10.2592 10.2592 0 0 1 5.2864 1.372 9.772 9.772 0 0 1 3.6736 3.8192 11.5192 11.5192 0 0 1 1.3328 5.6zm-15.4056-7.2464a7.6832 7.6832 0 0 0-2.3576 5.1072h15.0584a7.6608 7.6608 0 0 0-2.3632-5.1072 7.7952 7.7952 0 0 0-10.3376 0z"/></g></g></svg>