<svg xmlns="http://www.w3.org/2000/svg" role="img" viewBox="-17.39 -17.39 904.28 297.78"><title>TRAC d.a.p. logo</title><style>svg {enable-background:new 0 0 869.9 263.5}</style><path fill="#a100ff" d="M41.1 189.9v20c0 .2-.2.4-.4.2-2.4-3.6-6.3-5.6-11.2-5.6-7.8 0-13.2 4.5-14.9 11.2-.7 2.8-.8 6.1-.8 10.4 0 4.4.2 7.6.9 10.4 1.8 6.6 7.1 11 14.8 11 4.9 0 8.8-2.1 11.2-5.7.2-.2.4-.2.4.2v3.9c0 .6.4 1 1 1h2.4c.6 0 1-.4 1-1v-56c0-.6-.4-1-1-1h-2.4c-.6.1-1 .5-1 1zm-1.1 46c-1.2 4.4-4.6 7.8-10 7.8-5.5 0-9.6-3.1-10.8-7.8-.7-2.1-1.1-3.8-1.1-9.9 0-6.3.5-8.1 1.3-10.1 1.2-4.3 5.1-7.5 10.5-7.5 5.3 0 8.9 3.3 9.9 7.6.7 2.1 1.1 3.9 1.1 10.1.1 6.1-.2 7.9-.9 9.8zm33.7-31.4c-8.2 0-14 4-15.1 9.8-.1.5.3.8.9.9l2.6.3c.6.1 1-.2 1.2-.8.9-3.9 4.7-6.3 10.3-6.3 7.6 0 10.6 4.2 10.6 10.1v3.7c0 .2-.2.3-.3.3H74c-10.7 0-17.1 5-17.1 13.2 0 8.6 6.7 11.8 13.6 11.8 5.3 0 10.3-1.8 13.3-5.4.2-.2.4-.1.4.2v3.6c0 .6.4 1 1 1h2.4c.6 0 1-.4 1-1v-27.5c0-8.3-4.9-13.9-14.9-13.9zm-2.4 39.3c-5.5 0-10-2.6-10-8.2 0-6 5.4-9.4 13.2-9.4h9.4c.2 0 .3.2.3.3v7.5c.1 6.5-6.4 9.8-12.9 9.8zm47.7-35.9v-1.7c0-.6-.4-1-1-1h-9.5c-.2 0-.3-.2-.3-.3v-9.3c0-.6-.4-1-1-1h-2.3c-.6 0-1 .4-1 1v9.3c0 .2-.2.3-.3.3h-4.8c-.6 0-1 .4-1 1v1.7c0 .6.4 1 1 1h4.8c.2 0 .3.2.3.3v27.2c.1 8.4 4.8 10.4 11.8 10.4.7 0 1.5-.1 2.3-.1.7 0 1-.4 1-1v-1.9c0-.6-.4-1-1-1h-1.7c-5.4 0-8-1.8-8-7.6v-26.1c0-.2.2-.3.3-.3h9.5c.4.1.9-.3.9-.9zm26.1-3.4c-8.2 0-14 4-15.1 9.8-.1.5.3.8.9.9l2.6.3c.6.1 1-.2 1.2-.8.9-3.9 4.7-6.3 10.3-6.3 7.6 0 10.6 4.2 10.6 10.1v3.7c0 .2-.2.3-.3.3h-9.9c-10.7 0-17.1 5-17.1 13.2 0 8.6 6.7 11.8 13.6 11.8 5.3 0 10.3-1.8 13.3-5.4.2-.2.4-.1.4.2v3.6c0 .6.4 1 1 1h2.4c.6 0 1-.4 1-1v-27.5c0-8.3-5-13.9-14.9-13.9zm-2.4 39.3c-5.5 0-10-2.6-10-8.2 0-6 5.4-9.4 13.2-9.4h9.4c.2 0 .3.2.3.3v7.5c0 6.5-6.4 9.8-12.9 9.8zm77.1-25h-14.2c-.2 0-.3-.2-.3-.3v-14.6c0-.6-.4-1-1-1h-1.8c-.6 0-1 .4-1 1v14.6c0 .2-.2.3-.3.3H187c-.6 0-1 .4-1 1v1.8c0 .6.4 1 1 1h14.1c.2 0 .3.2.3.3v13.8c0 .6.4 1 1 1h1.8c.6 0 1-.4 1-1V223c0-.2.2-.3.3-.3h14.2c.6 0 1-.4 1-1v-1.8c.1-.6-.3-1.1-.9-1.1zm42.1-14.3c-8.2 0-14 4-15.1 9.8-.1.5.3.8.9.9l2.6.3c.6.1 1-.2 1.2-.8.9-3.9 4.7-6.3 10.3-6.3 7.6 0 10.6 4.2 10.6 10.1v3.7c0 .2-.2.3-.3.3h-9.9c-10.7 0-17.1 5-17.1 13.2 0 8.6 6.7 11.8 13.6 11.8 5.3 0 10.3-1.8 13.3-5.4.2-.2.4-.1.4.2v3.6c0 .6.4 1 1 1h2.4c.6 0 1-.4 1-1v-27.5c0-8.3-5-13.9-14.9-13.9zm-2.4 39.3c-5.5 0-10-2.6-10-8.2 0-6 5.4-9.4 13.2-9.4h9.4c.2 0 .3.2.3.3v7.5c0 6.5-6.5 9.8-12.9 9.8zm46.9-39.2c-5.2 0-9.4 2-11.8 5.6-.2.2-.3.2-.3-.2v-3.9c0-.6-.4-1-1-1h-2.4c-.6 0-1 .4-1 1v39.7c0 .6.4 1 1 1h2.4c.6 0 1-.4 1-1v-26.5c0-6.5 4.5-10.9 11.2-10.9 6.3 0 10.7 4.6 10.7 11.1v26.3c0 .6.4 1 1 1h2.4c.6 0 1-.4 1-1v-27.2c0-8.4-5.7-14-14.2-14zm41.8-.1c-8.2 0-14 4-15.1 9.8-.1.5.3.8.9.9l2.6.3c.6.1 1-.2 1.2-.8.9-3.9 4.7-6.3 10.3-6.3 7.6 0 10.6 4.2 10.6 10.1v3.7c0 .2-.2.3-.3.3h-9.9c-10.7 0-17.1 5-17.1 13.2 0 8.6 6.7 11.8 13.6 11.8 5.3 0 10.3-1.8 13.3-5.4.2-.2.4-.1.4.2v3.6c0 .6.4 1 1 1h2.4c.6 0 1-.4 1-1v-27.5c0-8.3-4.9-13.9-14.9-13.9zm-2.4 39.3c-5.5 0-10-2.6-10-8.2 0-6 5.4-9.4 13.2-9.4h9.4c.2 0 .3.2.3.3v7.5c0 6.5-6.4 9.8-12.9 9.8zm31.5 3.1h2.4c.6 0 1-.4 1-1v-56c0-.6-.4-1-1-1h-2.4c-.6 0-1 .4-1 1v56c0 .6.4 1 1 1zm15.5 16.6h.6c7.8 0 10.2-1.9 13.8-12.3l15.6-44.8c.2-.7-.2-1.2-.8-1.2h-2.6c-.6 0-.9.3-1.1.8L407 240.5c-.1.2-.4.2-.5 0L394.7 206c-.2-.5-.5-.8-1.1-.8h-2.5c-.7 0-1.1.4-.8 1.2l14.1 40.3c.1.1.1.3 0 .5-3.3 10.3-4.8 12.4-11 12.5h-.6c-.3 0-.6.4-.6 1v1.8c0 .6.2 1 .6 1zm56.8-55.6v-1.7c0-.6-.4-1-1-1h-9.5c-.2 0-.3-.2-.3-.3v-9.3c0-.6-.4-1-1-1h-2.3c-.6 0-1 .4-1 1v9.3c0 .2-.2.3-.3.3h-4.8c-.6 0-1 .4-1 1v1.7c0 .6.4 1 1 1h4.8c.2 0 .3.2.3.3v27.2c.1 8.4 4.8 10.4 11.8 10.4.7 0 1.5-.1 2.3-.1.7 0 1-.4 1-1v-1.9c0-.6-.4-1-1-1h-1.7c-5.4 0-8-1.8-8-7.6v-26.1c0-.2.2-.3.3-.3h9.5c.5.1.9-.3.9-.9zm15.2-11.1c2.2 0 3.8-1.6 3.8-3.6s-1.6-3.6-3.8-3.6c-2.2 0-3.8 1.5-3.8 3.6s1.6 3.6 3.8 3.6zm-1.2 50.1h2.4c.6 0 1-.4 1-1v-39.7c0-.6-.4-1-1-1h-2.4c-.6 0-1 .4-1 1v39.7c0 .6.5 1 1 1zm33.6.7c7.9 0 14.1-4.4 15.6-10.5.2-.5.2-1 .3-1.3.1-.7-.3-1.1-.9-1.2l-2.2-.2c-.6-.1-1.1.2-1.2.7l-.1.3c-.8 4.6-5.4 8.3-11.5 8.3-6.2 0-10.3-3.6-11.4-8.9-.4-1.7-.7-4.6-.7-8.8 0-4 .3-7.1.7-8.9 1.1-5.1 5.2-8.8 11.4-8.8 6.1 0 10.5 3.7 11.5 8.2.1.3.2.7.2 1 .2.7.6 1 1.2.9l2.3-.3c.6-.1 1-.4.9-1.1-.1-.6-.2-1.4-.5-2.2-1.5-5.7-7.5-10.4-15.6-10.4-7.9 0-13.7 4.6-15.5 11.2-.7 2.6-1.1 5.5-1.1 10.3 0 4.3.3 7.6 1.1 10.3 1.8 6.8 7.5 11.4 15.5 11.4zm40.5-.3c8.9 0 14.8-4.7 14.8-11.6 0-7.9-7.7-10-14.7-12.1-5.9-1.7-10.8-3.3-10.8-8 0-4.4 4.1-7.2 10.3-7.2 6.6 0 10.7 3.3 10.7 7.4v.5c0 .3.4.6 1 .6h2.2c.6 0 1-.4 1-1v-.1c0-6.3-5.9-11-14.8-11-8.6 0-14.6 4.3-14.6 11.1 0 7.5 7.1 9.8 14.1 11.9 5.8 1.7 11.2 3.1 11.2 8.1 0 4.4-4.2 7.8-10.5 7.8-6.5 0-10.8-3.6-10.8-7.4v-.9c0-.5-.4-.8-1-.8h-2.3c-.6 0-1 .4-1 1v.9c.1 5.9 6.1 10.8 15.2 10.8zm74.6-31.8c-1.8-6.6-7.1-11-14.8-11-4.9 0-8.8 2.1-11.2 5.7-.2.2-.4.2-.4-.2v-3.9c0-.6-.4-1-1-1h-2.4c-.6 0-1 .4-1 1v56c0 .6.4 1 1 1h2.4c.6 0 1-.4 1-1v-20c0-.2.2-.4.4-.2 2.4 3.6 6.3 5.6 11.2 5.6 7.8 0 13.2-4.5 14.9-11.2.7-2.8.8-6.1.8-10.4 0-4.3-.2-7.6-.9-10.4zm-4.8 20.6c-1.2 4.3-5.1 7.5-10.5 7.5-5.3 0-8.9-3.3-9.9-7.6-.7-2.1-1.1-3.9-1.1-10.1 0-6 .3-7.9 1-9.8 1.2-4.4 4.6-7.8 10-7.8 5.5 0 9.6 3.1 10.8 7.8.7 2.1 1.1 3.8 1.1 9.9-.1 6.3-.6 8.1-1.4 10.1zm19.5 10.8h2.4c.6 0 1-.4 1-1v-56c0-.6-.4-1-1-1H627c-.6 0-1 .4-1 1v56c0 .6.4 1 1 1zm31.6-42.4c-8.2 0-14 4-15.1 9.8-.1.5.3.8.9.9l2.6.3c.6.1 1-.2 1.2-.8.9-3.9 4.7-6.3 10.3-6.3 7.6 0 10.6 4.2 10.6 10.1v3.7c0 .2-.2.3-.3.3h-9.9c-10.7 0-17.1 5-17.1 13.2 0 8.6 6.7 11.8 13.6 11.8 5.3 0 10.3-1.8 13.3-5.4.2-.2.4-.1.4.2v3.6c0 .6.4 1 1 1h2.4c.6 0 1-.4 1-1v-27.5c0-8.3-4.9-13.9-14.9-13.9zm-2.4 39.3c-5.5 0-10-2.6-10-8.2 0-6 5.4-9.4 13.2-9.4h9.4c.2 0 .3.2.3.3v7.5c0 6.5-6.4 9.8-12.9 9.8zm47.6-35.9v-1.7c0-.6-.4-1-1-1h-9.5c-.2 0-.3-.2-.3-.3v-9.3c0-.6-.4-1-1-1h-2.3c-.6 0-1 .4-1 1v9.3c0 .2-.2.3-.3.3h-4.8c-.6 0-1 .4-1 1v1.7c0 .6.4 1 1 1h4.8c.2 0 .3.2.3.3v27.2c.1 8.4 4.8 10.4 11.8 10.4.7 0 1.5-.1 2.3-.1.7 0 1-.4 1-1v-1.9c0-.6-.4-1-1-1H701c-5.4 0-8-1.8-8-7.6v-26.1c0-.2.2-.3.3-.3h9.5c.6.1 1-.3 1-.9zm27.6-15.1h1.7c.6 0 1-.4 1-1v-1.9c0-.6-.4-1-1-1h-2c-9.8 0-12.5 4.3-12.5 13.6v2.3c0 .2-.2.3-.3.3H713c-.6 0-1 .4-1 1v2.1c0 .6.4 1 1 1h5.3c.2 0 .3.2.3.3v36.3c0 .6.4 1 1 1h2.4c.6 0 1-.4 1-1v-36.3c0-.2.2-.3.3-.3h9.5c.6 0 1-.4 1-1v-2.1c0-.6-.4-1-1-1h-9.5c-.2 0-.3-.2-.3-.3v-2.2c0-6.5 1.5-9.8 8.4-9.8zm24.6 54.8c7.8 0 13.7-4.5 15.6-11.3.7-2.7.9-6 .9-10.4 0-4.1-.2-7.5-.9-10.3-1.8-6.7-7.7-11.2-15.6-11.2-8 0-13.7 4.5-15.6 11.2-.7 2.7-.9 5.9-.9 10.3 0 4.2.2 7.6 1 10.4 1.8 6.8 7.6 11.3 15.5 11.3zm0-3.9c-6.1 0-10.4-3.5-11.6-8.9-.4-1.8-.5-4.8-.5-8.8 0-3.8.1-7 .5-8.8 1.2-5.3 5.5-8.9 11.5-8.9s10.4 3.6 11.6 8.9c.4 1.8.5 4.7.5 8.8 0 3.6-.1 6.9-.5 8.8-1.2 5.3-5.5 8.9-11.5 8.9zm45.2-38.9c-5.1 0-8.8 2.7-11 6.9-.1.3-.3.2-.3-.1v-5.5c0-.6-.4-1-1-1h-2.4c-.6 0-1 .4-1 1v39.7c0 .6.4 1 1 1h2.4c.6 0 1-.4 1-1v-24.5c0-6.5 4.5-11.8 10.7-11.9 1.7-.1 3 .2 4 .5.7.2 1.1.1 1.2-.6l.7-2.4c.2-.6 0-1-.5-1.2-1.2-.4-2.6-.9-4.8-.9zm55.4-.2c-5.7 0-10.4 2.3-12.8 7.2-.2.2-.3.2-.4-.1-2.1-4.5-6.3-7.1-12.1-7.1-4.9 0-8.9 1.7-11.3 5.3-.2.2-.4.1-.4-.2v-3.6c0-.6-.4-1-1-1h-2.4c-.6 0-1 .4-1 1v39.7c0 .6.4 1 1 1h2.4c.6 0 1-.4 1-1v-27c0-6.5 4.1-10.4 10.6-10.4 6 0 10.2 4 10.2 10.6v26.8c0 .6.4 1 1 1h2.3c.6 0 1-.4 1-1v-27c0-6.5 4.3-10.4 10.7-10.4 6 0 10.3 4 10.3 10.6v26.8c0 .6.4 1 1 1h2.3c.6 0 1-.4 1-1v-27.7c-.1-8.4-5.4-13.5-13.4-13.5zM67.8 46V34.5c0-2.1-1.4-3.5-3.5-3.5H40.4c-.7 0-1.2-.5-1.2-1.2V3.5c0-2.1-1.4-3.5-3.5-3.5H21.1c-2.1 0-3.5 1.4-3.5 3.5v26.3c0 .7-.5 1.2-1.2 1.2H3.5C1.4 31 0 32.4 0 34.5V46c0 2.1 1.4 3.5 3.5 3.5h12.9c.7 0 1.2.5 1.2 1.2v69.5c0 24.6 14.1 30 35.9 30 3.3 0 6.3-.2 9.6-.2 2.3-.2 3.5-1.6 3.5-3.8V134c0-2.1-1.4-3.5-3.5-3.5h-5.6c-12.4 0-18.3-4.9-18.3-18.5V50.7c0-.7.5-1.2 1.2-1.2h23.9c2.1 0 3.5-1.4 3.5-3.5zm80.1-16.2c-12.9 0-22.3 6.3-28.6 16-.5.9-1.2.7-1.2-.5V34.5c0-2.1-1.4-3.5-3.5-3.5H99.1c-2.1 0-3.5 1.4-3.5 3.5v112.4c0 2.1 1.4 3.5 3.5 3.5h15.5c2.1 0 3.5-1.4 3.5-3.5V79.6c0-15.7 11-25.8 25.4-26.3 4.5-.5 8.7 0 11.5.9 2.3.7 3.8.5 4.2-2.1l3.3-15.3c.5-1.9 0-3.5-1.9-4.5-3.1-1.3-7.1-2.5-12.7-2.5zm77.7-.7c-25.8 0-44.4 12.9-47.2 30.5-.2 1.6 1.2 2.8 3.3 3.1l16.9 2.1c2.1.2 3.3-.7 4-2.8 2.3-8.2 10.3-13.4 23.5-13.4 16.7 0 24.2 8.5 24.2 21.8v6.1c0 .7-.5 1.2-1.2 1.2H223c-31 0-48.6 15-48.6 39.2 0 25.1 18.1 35.4 39.2 35.4 14.1 0 26.5-4.5 35.2-12.7.7-.7 1.4-.2 1.4.7v6.6c0 2.1 1.4 3.5 3.5 3.5h15.5c2.1 0 3.5-1.4 3.5-3.5V68.8c.1-23-17.8-39.7-47.1-39.7zm-6.4 104.2c-12.4 0-22.3-5.6-22.3-17.6 0-13.1 12-20.4 30.3-20.4H249c.7 0 1.2.5 1.2 1.2v13.6c0 13.8-14.8 23.2-31 23.2zm131.7 19c23.5 0 42.5-12.4 47.9-31.7.5-1.6.9-3.1 1.2-4.5.2-2.1-.9-3.3-3.1-3.8l-15.3-2.6c-2.1-.2-3.8 1.9-4 3.1v.2s0 .5-.2.9c-2.8 10.8-13.1 18.8-26.8 18.8-13.8 0-23.2-8-26.3-20.2-1.2-4.7-2.1-11.7-2.1-22.1 0-9.9.9-17.6 2.1-22.3 2.8-11.7 12.4-19.7 26.3-19.7 14.3 0 24.4 8.7 26.8 18.8l.7 3.1c.5 1.9 1.9 2.8 4 2.6l15.3-2.1c2.1-.2 3.3-1.6 3.1-3.8-.2-1.9-.7-4.2-1.6-6.6-5.2-17.6-23.7-31.5-47.9-31.5-23.8.2-41.9 13.1-48 33.1-2.1 7.3-3.5 15.7-3.5 28.4 0 11.3.9 20.4 3.5 28.4 6.4 20.4 24 33.5 47.9 33.5z"/></svg>