<svg xmlns="http://www.w3.org/2000/svg" role="img" viewBox="-8.81 -8.81 458.38 131.38"><title>Tradeweb Markets LLC logo</title><path d="M26 18h1v1h-1zm12 0h1v1h-1zm-19 6h1v1h-1zm15 4h1v1h-1zm-20 2h1v1h-1zm5 7h1v1h-1zm22 2h1v1h-1zm-5 3h1v1h-1zm9 3h1v2h-1zm0 2h1v1h-1zm-27 3h1v1h-1zm18 0h1v1h-1zm-4 4h1v1h-1zm-4 4h1v1h-1zm-1 7h1v1h-1z" fill="#97dbed"/><path d="M25 20h1v1h-1zm12 0h1v1h-1zm1 0h1v1h-1zM9 22h1v1H9zm23 1h1v1h-1zm-9 1h5v1h-5zm5 0h1v1h-1zm4 0h1v1h-1zm-12 1h1v1h-1zm7 0h1v1h-1zm6 0h1v1h-1zm1 1h1v1h-1zm-13 1h1v1h-1zm-6 1h2v1h-2zm2 0h1v1h-1zm22 0h1v1h-1zm-25 1h1v1h-1zm29 0h1v1h-1zm-27 1h2v1h-2zm2 0h1v1h-1zm29 5h1v1h-1zm-7 1h1v1h-1zm8 0h1v1h-1zm-30 1h1v1h-1zm-4 2h2v1h-2zm2 0h1v1h-1zm27 0h1v1h-1zm1 0h1v1h-1zm-31 1h1v1h-1zm24 3h1v1h-1zm-5 5h1v1h-1zm5 1h1v1h-1zm3 0h1v1h-1zm11 0h1v1h-1zm-35 4h1v1h-1z" fill="#11b7de"/><path d="M289 69h1v1h-1zm61 0h1v1h-1zm-203 5h1v1h-1zm39 37h1v1h-1z" fill="#001e6d"/><path d="M281 69h1v1h-1zm40 0h1v1h-1zm-141 1h1v1h-1zm92 0h1v1h-1zm161 2h1v1h-1zm-291 2h1v1h-1zm65 1h1v1h-1zm-50 1h1v1h-1zm254 0h1v1h-1zm-275 1h1v1h-1zm49 0h1v1h-1zm84 0h1v1h-1zm-134 1h1v1h-1zm254 0h1v1h-1zm-195 1h1v1h-1zm114 0h1v1h-1zm11 6h1v1h-1zm120 0h1v1h-1zm-213 1h1v1h-1zm46 0h1v1h-1zm40 0h1v1h-1zm26 0h1v1h-1zm53 1h1v1h-1zm40 1h1v1h-1zm-300 3h1v19h-1zm33 1h1v1h-1zm164 0h1v1h-1zm111 2h1v1h-1zm-142 2h1v1h-1zm12 0h1v1h-1zm129 3h1v1h-1zm-214 1h1v1h-1zm18 0h1v1h-1zm49 0h1v1h-1zm-87 2h1v1h-1zm127 0h1v1h-1zm-54 2h1v6h-1zm159 0h1v1h-1zm-229 1h1v1h-1zm86 1h1v1h-1zm13 0h1v1h-1zm51 1h1v1h-1zm1 1h1v1h-1zm-227 2h1v1h-1zm146 0h1v1h-1zm-25 1h1v1h-1zm-151 1h5v1h-5zm5 0h1v1h-1zm19 0h5v1h-5zm5 0h1v1h-1zm51 0h4v1h-4zm4 0h1v1h-1zm42 0h7v1h-7zm7 0h1v1h-1zm38 0h1v1h-1zm24 0h7v1h-7zm7 0h1v1h-1zm26 0h6v1h-6zm6 0h1v1h-1zm64 0h4v1h-4zm4 0h1v1h-1zm-138 1h1v1h-1zm1 0h1v1h-1zm110 0h1v1h-1zm43 0h1v1h-1zm3 0h1v1h-1z" fill="#5a709a"/><g fill="#1b417e"><path d="M26 30h1v1h-1zm1 0h2v1h-2zm2 0h1v1h-1zm-4 1h1v1h-1zm1 0h2v1h-2zm2 0h3v1h-3zm3 0h1v1h-1zm1 1h1v2h-1zm-9 1h1v3h-1zm1 0h1v1h-1zm9 0h1v1h-1zm-1 1h1v1h-1zm1 0h1v1h-1zm-11 2h2v1h-2zm2 0h1v2h-1zm-1 3h1v1h-1zm9 0h1v1h-1zm1 0h1v1h-1zm-9 1h1v1h-1zm1 1h1v1h-1zm6 0h1v1h-1zm197 8h1v24h-1zm175 0h1v24h-1zM82 58h17v1H82zm17 0h1v1h-1zm10 0h16v1h-16zm16 0h1v1h-1zm-24 2h1v3h-1zm5 0h1v50h-1zm-5 3h1v1h-1zm38 6h2v1h-2zm2 0h5v1h-5zm5 0h1v1h-1zm17 0h11v1h-11zm11 0h1v1h-1zm33 0h9v1h-9zm9 0h1v1h-1zm40 0h4v1h-4zm4 0h1v1h-1zm5 0h1v1h-1zm1 0h1v1h-1zm101 0h10v1h-10zm10 0h1v1h-1zm38 0h6v1h-6zm6 0h4v1h-4zm4 0h1v1h-1zm-300 1h1v40h-1zm12 0h1v1h-1zm67 0h1v2h-1zm49 0h1v1h-1zm58 0h2v1h-2zm2 0h1v2h-1zm7 0h1v1h-1zm1 0h1v1h-1zm23 0h1v3h-1zm1 0h1v3h-1zm4 0h1v1h-1zm31 0h1v1h-1zm32 0h1v3h-1zm-254 1h1v3h-1zm45 0h1v2h-1zm70 0h1v2h-1zm10 0h2v1h-2zm2 0h1v2h-1zm77 0h1v2h-1zm19 0h1v2h-1zm1 0h1v1h-1zm29 0h1v3h-1zm19 0h1v1h-1zm-295 1h1v4h-1zm1 0h1v3h-1zm21 0h1v2h-1zm23 0h1v1h-1z"/><path d="M201 72h3v1h-3zm3 0h1v1h-1zm46 0h1v2h-1zm1 0h1v4h-1zm21 0h1v1h-1zm17 0h1v6h-1zm23 0h1v1h-1zm1 0h1v1h-1zm47 0h2v1h-2zm22 0h1v1h-1zm1 0h1v1h-1zm27 0h2v2h-2zm-276 1h1v4h-1zm3 0h1v1h-1zm1 0h3v1h-3zm3 0h1v1h-1zm5 0h1v1h-1zm15 0h1v1h-1zm12 0h2v1h-2zm2 0h1v1h-1zm5 0h1v1h-1zm20 0h3v1h-3zm3 0h1v1h-1zm5 0h1v1h-1zm10 0h2v1h-2zm2 0h1v1h-1zm8 0h1v3h-1z"/><path d="M248 73h4v1h-4zm4 0h1v2h-1zm4 0h1v1h-1zm9 0h1v1h-1zm7 0h1v1h-1zm1 0h1v1h-1zm11 0h1v1h-1zm1 0h1v3h-1zm27 0h1v1h-1zm32 0h1v1h-1zm1 0h1v2h-1zm14 0h3v1h-3zm3 0h1v1h-1zm5 0h1v1h-1zm16 0h1v1h-1zm1 0h1v1h-1zm19 0h1v1h-1zm5 0h1v1h-1zm1 0h3v1h-3zm3 0h1v1h-1zm19 0h1v1h-1zm-298 1h5v1h-5zm5 0h1v1h-1zm8 0h1v1h-1zm11 0h1v1h-1zm1 0h1v1h-1zm17 0h1v1h-1zm45 0h1v1h-1zm1 0h1v1h-1zm6 0h1v1h-1z"/><path d="M250 74h4v1h-4zm4 0h1v1h-1zm11 0h1v1h-1zm3 0h1v1h-1zm1 0h2v1h-2zm2 0h1v1h-1zm13 0h1v1h-1zm31 0h2v1h-2zm2 0h1v1h-1zm4 0h1v6h-1zm25 0h1v5h-1zm1 0h1v1h-1zm11 0h1v2h-1zm6 0h1v1h-1zm1 0h1v1h-1zm13 0h2v1h-2zm2 0h1v1h-1zm4 0h1v3h-1zm1 0h1v2h-1zm19 0h1v1h-1zm4 0h3v1h-3zm3 0h1v1h-1zm15 0h1v1h-1zm-296 1h2v1h-2zm2 0h4v1h-4zm4 0h1v1h-1zm20 0h1v1h-1zm20 0h1v1h-1zm28 0h1v1h-1zm1 0h1v1h-1zm20 0h1v5h-1zm27 0h1v1h-1zm17 0h2v1h-2zm2 0h1v2h-1zm4 0h1v5h-1zm15 0h1v1h-1zm24 0h1v1h-1z"/><path d="M345 75h2v1h-2zm2 0h1v1h-1zm16 0h1v1h-1zm17 0h1v1h-1zm27 0h3v1h-3zm3 0h1v1h-1zm15 0h1v1h-1zm9 0h1v5h-1zm-303 1h4v1h-4zm4 0h1v1h-1zm42 0h1v1h-1zm6 0h1v1h-1zm14 0h1v2h-1zm7 0h1v1h-1zm18 0h1v1h-1zm4 0h2v1h-2zm20 0h1v4h-1zm5 0h1v1h-1zm19 0h1v1h-1zm15 0h1v1h-1zm63 0h1v1h-1zm9 0h1v1h-1zm1 0h1v1h-1zm27 0h1v1h-1zm21 0h3v1h-3zm3 0h1v1h-1zm-275 1h1v1h-1zm44 0h1v1h-1zm1 0h1v2h-1zm4 0h1v1h-1zm20 0h1v1h-1zm21 0h1v1h-1zm21 0h1v3h-1zm5 0h1v1h-1zm21 0h1v1h-1zm5 0h1v2h-1zm42 0h4v1h-4zm4 0h1v1h-1zm34 0h1v1h-1zm5 0h1v1h-1zm21 0h2v1h-2zm2 0h1v2h-1zm22 0h2v1h-2zm2 0h1v2h-1zm-224 1h1v8h-1zm12 0h1v2h-1zm1 0h1v1h-1zm27 0h1v1h-1zm26 0h1v1h-1zm39 0h1v1h-1zm1 0h1v2h-1zm29 0h3v1h-3zm3 0h1v1h-1zm33 0h1v1h-1zm5 0h1v1h-1zm1 0h1v1h-1zm21 0h1v1h-1zm1 0h1v1h-1zm23 0h1v2h-1zm1 0h1v1h-1zm28 0h1v2h-1zm-256 1h1v1h-1zm22 0h1v1h-1z"/><path d="M244 79h2v1h-2zm32 0h1v1h-1zm43 0h2v2h-2zm27 0h1v1h-1zm9 0h1v1h-1zm5 0h1v1h-1zm23 0h1v1h-1zm1 0h1v2h-1zm4 0h1v5h-1zm20 0h1v1h-1zm28 0h1v1h-1zm-241 1h1v1h-1zm1 0h1v1h-1zm5 0h1v1h-1zm24 0h1v1h-1zm20 0h1v1h-1zm1 0h1v1h-1zm3 0h1v1h-1zm41 0h1v1h-1zm1 0h1v1h-1zm18 0h1v3h-1zm12 0h2v1h-2zm2 0h1v1h-1zm18 0h1v7h-1zm65 0h1v1h-1zm28 0h2v1h-2zm2 0h1v1h-1zm-305 1h1v2h-1zm112 0h1v4h-1zm4 0h1v6h-1zm31 0h1v1h-1zm9 0h1v1h-1zm1 0h1v5h-1zm22 0h2v4h-2zm2 0h1v1h-1zm7 0h1v1h-1zm1 0h1v3h-1zm64 0h1v2h-1zm-201 1h1v2h-1zm43 0h1v1h-1zm47 0h1v1h-1zm39 0h1v1h-1zm33 0h1v1h-1zm14 0h1v1h-1zm73 0h1v2h-1zm1 0h1v2h-1zm-302 1h1v1h-1zm161 0h1v1h-1z"/><path d="M308 83h3v1h-3zm16 0h1v1h-1zm60 0h1v1h-1zm5 0h1v4h-1zm16 0h1v1h-1zm-222 1h1v1h-1zm17 0h1v1h-1zm27 0h1v1h-1zm1 0h1v1h-1zm92 0h1v1h-1zm22 0h1v7h-1zm1 0h1v1h-1zm45 0h1v1h-1zm44 0h1v1h-1zm1 0h1v2h-1zm-248 1h1v1h-1zm43 0h1v2h-1zm14 0h1v7h-1zm1 0h1v2h-1zm31 0h1v2h-1zm36 0h1v3h-1zm1 0h1v1h-1zm32 0h1v2h-1zm-213 1h1v1h-1zm49 0h1v1h-1zm5 0h1v1h-1zm1 0h1v22h-1zm103 0h1v1h-1zm5 0h1v5h-1zm13 0h1v1h-1zm1 0h1v1h-1zm77 0h1v1h-1zm49 0h1v11h-1zm-303 1h1v1h-1zm33 0h3v1h-3zm3 0h6v1h-6zm6 0h5v1h-5zm5 0h2v1h-2zm2 0h1v1h-1zm4 0h1v21h-1zm45 0h1v1h-1zm15 0h1v1h-1zm4 0h1v1h-1zm1 0h1v1h-1zm25 0h1v1h-1zm1 0h1v1h-1zm51 0h1v3h-1z"/><path d="M339 87h4v1h-4zm4 0h1v1h-1zm16 0h1v1h-1zm29 0h1v1h-1zm1 0h1v1h-1zm50 0h1v1h-1zm-241 1h1v2h-1zm1 0h1v1h-1zm80 0h1v1h-1zm10 0h1v2h-1zm21 0h1v1h-1zm94 0h1v1h-1zm1 0h1v1h-1zm33 0h1v1h-1zm-281 1h1v1h-1zm42 0h1v1h-1zm80 0h1v1h-1zm125 0h1v1h-1zm34 0h1v2h-1zm-282 1h2v1h-2zm2 0h1v1h-1zm9 0h1v1h-1zm31 0h1v4h-1zm91 0h1v1h-1zm5 0h1v2h-1zm31 0h1v1h-1zm1 0h1v1h-1zm12 0h1v3h-1zm51 0h1v1h-1zm-235 1h1v3h-1zm5 0h2v1h-2zm2 0h2v1h-2zm2 0h1v1h-1zm65 0h1v1h-1zm19 0h1v2h-1zm44 0h3v1h-3zm15 0h3v1h-3zm3 0h1v1h-1zm14 0h1v2h-1zm19 0h1v1h-1zm14 0h3v1h-3zm3 0h1v1h-1zm79 0h1v1h-1zm-285 1h1v2h-1zm6 0h1v1h-1zm1 0h1v1h-1zm39 0h1v2h-1zm29 0h1v1h-1zm14 0h1v1h-1zm50 0h2v1h-2zm2 0h1v1h-1zm12 0h2v3h-2zm2 0h1v3h-1zm48 0h1v2h-1zm-197 1h2v1h-2zm2 0h1v1h-1zm86 0h1v4h-1z"/><path d="M305 93h2v1h-2zm18 0h1v1h-1zm4 0h1v1h-1zm11 0h1v2h-1zm66 0h1v1h-1zm-251 1h1v1h-1zm1 0h1v1h-1zm44 0h1v1h-1zm1 0h1v1h-1zm92 0h1v2h-1zm4 0h1v1h-1zm10 0h3v1h-3zm19 0h1v1h-1zm13 0h1v3h-1zm19 0h2v1h-2zm2 0h1v1h-1zm74 0h1v3h-1zm-281 1h1v6h-1zm4 0h2v2h-2zm2 0h1v1h-1zm36 0h1v1h-1zm35 0h1v2h-1zm78 0h2v2h-2zm2 0h1v1h-1zm16 0h1v2h-1zm14 0h2v2h-2zm2 0h1v1h-1zm97 0h1v3h-1zm-210 1h1v1h-1zm64 0h1v1h-1zm1 0h1v3h-1zm12 0h2v1h-2zm-149 1h1v3h-1zm1 0h1v1h-1zm71 0h1v1h-1zm1 0h1v1h-1zm19 0h1v1h-1zm1 0h1v1h-1zm48 0h1v6h-1zm8 0h3v1h-3zm3 0h1v1h-1zm16 0h1v1h-1zm1 0h1v1h-1zm4 0h1v4h-1zm7 0h4v1h-4zm4 0h1v3h-1zm20 0h1v1h-1zm46 0h1v1h-1zm27 0h1v1h-1zm1 0h1v1h-1zm-277 1h1v1h-1zm39 0h1v1h-1zm1 0h1v1h-1zm47 0h1v1h-1zm5 0h1v1h-1zm59 0h1v1h-1zm47 0h1v1h-1zm1 0h1v4h-1zm82 0h1v1h-1zm-242 1h1v1h-1zm1 0h1v3h-1zm5 0h1v4h-1zm1 0h1v5h-1zm41 0h1v1h-1zm6 0h1v1h-1zm43 0h1v1h-1zm62 0h1v1h-1zm-199 1h1v4h-1zm24 0h1v5h-1zm124 0h1v4h-1zm26 0h1v2h-1zm10 0h1v1h-1zm21 0h1v1h-1zm46 0h1v4h-1zm24 0h1v2h-1zm-279 1h1v2h-1zm5 0h1v3h-1zm150 0h1v1h-1zm22 0h1v3h-1zm32 0h1v1h-1zm1 0h1v1h-1zm75 0h1v1h-1zm-258 1h1v2h-1zm18 0h1v1h-1zm48 0h1v1h-1zm53 0h1v1h-1zm32 0h1v2h-1zm26 0h1v1h-1zm52 0h1v4h-1zm-256 1h1v1h-1zm7 0h1v2h-1z"/><path d="M201 103h2v1h-2zm2 0h1v1h-1zm21 0h1v3h-1zm21 0h1v1h-1zm1 0h1v2h-1zm50 0h1v1h-1zm30 0h2v1h-2zm4 0h1v1h-1zm78 0h1v4h-1zm21 0h1v1h-1zm5 0h1v2h-1zm1 0h1v1h-1zm-280 1h2v1h-2zm2 0h1v1h-1zm19 0h3v1h-3zm21 0h1v1h-1zm5 0h1v1h-1zm1 0h1v1h-1z"/><path d="M223 104h2v2h-2zm2 0h1v1h-1zm27 0h1v1h-1zm1 0h1v1h-1zm41 0h1v1h-1zm1 0h1v1h-1zm7 0h1v1h-1zm1 0h1v1h-1zm24 0h3v1h-3zm3 0h1v1h-1zm4 0h1v1h-1zm22 0h1v1h-1zm7 0h1v1h-1zm43 0h3v1h-3zm3 0h1v1h-1zm19 0h1v1h-1zm1 0h1v1h-1zm-276 1h1v1h-1zm1 0h1v3h-1zm4 0h1v1h-1zm19 0h2v1h-2zm2 0h1v1h-1zm19 0h2v1h-2zm2 0h1v2h-1z"/><path d="M220 105h6v1h-6zm6 0h2v1h-2zm2 0h1v1h-1zm18 0h4v1h-4zm8 0h1v3h-1zm40 0h1v1h-1zm1 0h1v1h-1zm9 0h1v1h-1zm23 0h1v1h-1zm6 0h1v1h-1zm24 0h2v1h-2zm2 0h1v2h-1zm6 0h1v1h-1zm21 0h1v1h-1zm16 0h3v1h-3zm3 0h5v1h-5zm5 0h1v1h-1zm20 0h4v1h-4zm4 0h1v1h-1zm-275 1h1v2h-1zm18 0h1v1h-1zm22 0h1v1h-1zm6 0h1v2h-1zm1 0h1v1h-1zm15 0h3v1h-3zm3 0h1v1h-1zm3 0h1v1h-1zm1 0h1v4h-1zm19 0h2v1h-2zm2 0h1v2h-1zm6 0h1v2h-1zm19 0h1v3h-1zm30 0h1v1h-1zm23 0h1v1h-1zm8 0h2v2h-2zm2 0h1v1h-1zm47 0h1v2h-1zm19 0h1v2h-1zm1 0h1v1h-1zm3 0h1v1h-1zm18 0h1v2h-1zm1 0h1v2h-1zm4 0h1v2h-1zm3 0h1v1h-1zm-273 1h1v1h-1zm1 0h1v1h-1zm11 0h2v1h-2zm2 0h1v2h-1zm26 0h1v1h-1z"/><path d="M204 107h4v1h-4zm4 0h1v1h-1zm11 0h4v1h-4zm4 0h1v1h-1zm25 0h1v1h-1zm8 0h1v1h-1zm1 0h1v1h-1zm14 0h1v1h-1zm88 0h1v1h-1zm23 0h2v1h-2zm26 0h1v1h-1zm1 0h1v1h-1zm3 0h1v3h-1zm12 0h2v1h-2zm-270 1h1v1h-1zm1 0h1v1h-1zm6 0h4v1h-4zm4 0h5v1h-5zm5 0h5v1h-5zm5 0h1v1h-1zm8 0h3v2h-3zm3 0h1v1h-1zm15 0h1v1h-1zm3 0h1v2h-1zm1 0h6v1h-6zm6 0h1v1h-1zm4 0h5v1h-5zm5 0h2v1h-2zm2 0h1v1h-1zm27 0h1v1h-1zm5 0h8v1h-8zm8 0h1v1h-1zm4 0h9v1h-9zm9 0h1v1h-1zm20 0h1v1h-1zm8 0h1v1h-1zm32 0h1v2h-1zm1 0h1v2h-1zm31 0h2v1h-2zm2 0h2v1h-2zm2 0h1v1h-1zm5 0h5v1h-5zm5 0h3v1h-3zm3 0h1v1h-1zm19 0h1v2h-1zm6 0h1v1h-1z"/><path d="M410 108h7v1h-7zm7 0h1v1h-1zm3 0h2v1h-2zm2 0h4v1h-4zm4 0h1v1h-1zm4 0h1v1h-1zm1 0h1v1h-1zm-276 1h3v1h-3zm3 0h1v1h-1zm15 0h1v1h-1zm1 0h1v1h-1zm28 0h1v1h-1zm1 0h1v1h-1zm16 0h2v1h-2zm2 0h1v1h-1zm6 0h1v1h-1zm24 0h2v1h-2zm2 0h1v1h-1zm21 0h1v1h-1zm1 0h1v1h-1zm28 0h1v1h-1zm60 0h1v1h-1zm1 0h2v1h-2zm2 0h1v1h-1zm19 0h1v1h-1zm1 0h1v1h-1zm24 0h2v1h-2zm18 0h1v1h-1zm1 0h1v1h-1zm-323 1h1v1h-1zm19 0h1v1h-1zm48 0h1v1h-1zm10 0h2v1h-2zm2 0h1v1h-1zm19 0h1v1h-1zm15 0h1v1h-1zm8 0h1v1h-1zm1 0h1v1h-1zm43 0h2v1h-2zm2 0h1v1h-1zm55 0h1v1h-1zm7 0h1v1h-1zm1 0h1v1h-1zm28 0h2v1h-2zm2 0h1v1h-1zm19 0h1v1h-1zm18 0h1v1h-1zm9 0h1v1h-1zm15 0h1v1h-1zm1 0h1v1h-1zm-172 1h1v1h-1zm126 0h1v1h-1zm44 0h1v1h-1zm-44 1h1v1h-1z"/></g><path d="M21 32h1v1h-1zm-1 4h1v1h-1zm180 34h1v1h-1zm49 0h1v1h-1zm123 4h1v1h-1zm-187 1h1v1h-1zm93 1h1v1h-1zm86 1h1v1h-1zm-178 1h1v1h-1zm195 2h1v1h-1zm-20 2h1v1h-1zm-35 1h1v1h-1zm56 1h1v1h-1zm24 4h1v1h-1zm0 1h1v1h-1zm-125 3h1v1h-1zm125 0h1v1h-1zm-118 1h1v1h-1zm-139 2h1v1h-1zm184 5h1v1h-1zm19 0h1v1h-1zm76 0h1v1h-1zm-206 2h1v1h-1zm110 1h1v1h-1zm-25 2h1v1h-1zm32 2h1v1h-1zm-13 3h1v1h-1zm-70 3h1v1h-1zm170 0h1v1h-1z" fill="#f2f4f7"/><path d="M35 37h1v1h-1zm47 15h43v1H82zm43 0h1v1h-1zm37 16h1v1h-1zm93 0h1v1h-1zm123 0h1v1h-1zm48 0h1v1h-1zm-206 1h1v1h-1zm50 0h1v1h-1zm93 0h1v1h-1zm-2 1h1v1h-1zm-71 1h1v1h-1zm-8 1h1v1h-1zm104 1h1v1h-1zm19 0h1v1h-1zm-260 1h1v1h-1zm27 0h1v1h-1zm-13 1h1v1h-1zm156 1h1v1h-1zm8 0h1v1h-1zm-128 1h1v1h-1zm215 0h1v1h-1zm-233 1h1v1h-1zm115 0h1v1h-1zm117 0h1v1h-1zm-85 1h1v1h-1zm-53 1h1v1h-1zm76 0h1v1h-1zm82 0h1v1h-1zm-251 1h1v1h-1zm168 2h1v1h-1zm-74 1h1v1h-1zm134 0h1v1h-1zm-23 1h1v1h-1zm-38 1h1v1h-1zm86 1h1v1h-1zm-104 2h1v1h-1zm-196 1h1v1h-1zm173 2h1v1h-1zm127 0h1v1h-1zm-271 2h1v1h-1zm41 1h1v1h-1zm40 1h1v1h-1zm94 0h1v1h-1zm-110 2h1v1h-1zm182 1h1v1h-1zm-230 2h1v1h-1zm147 0h1v1h-1zm-47 2h1v1h-1zm-118 1h1v1h-1zm274 4h1v1h-1zm-128 1h1v1h-1zm-83 1h1v1h-1zm28 0h1v1h-1zm-119 1h1v1h-1zm144 0h1v1h-1zm-175 1h1v1h-1zm7 0h1v1h-1zm17 0h1v1h-1zm56 0h1v1h-1zm6 0h1v1h-1zm69 0h1v1h-1zm73 0h1v1h-1zm8 0h1v1h-1zm62 0h1v1h-1zm6 0h1v1h-1zm-238 1h1v1h-1zm44 0h1v1h-1z" fill="#4e6592"/><path d="M144 67h1v1h-1zm23 0h1v1h-1zm3 0h1v1h-1zm40 0h1v1h-1zm209 0h1v1h-1zm-295 1h5v1h-5zm5 0h1v1h-1zm153 0h7v1h-7zm7 0h1v1h-1zm24 0h6v1h-6zm6 0h1v1h-1zm25 0h6v1h-6zm6 0h1v1h-1zm77 0h1v1h-1zm-269 1h1v1h-1zm123 1h1v1h-1zm-127 1h1v1h-1zm205 0h1v1h-1zm49 0h1v1h-1zm-161 1h1v1h-1zm160 0h1v1h-1zm-161 1h1v1h-1zm-115 1h1v1h-1zm17 0h1v1h-1zm23 0h1v1h-1zm13 0h1v1h-1zm26 0h1v1h-1zm6 0h1v1h-1zm-62 1h1v1h-1zm123 0h1v1h-1zm100 0h1v1h-1zm36 0h1v1h-1zm11 0h1v1h-1zm-218 1h1v1h-1zm-30 1h1v1h-1zm116 0h1v1h-1zm32 1h1v1h-1zm66 2h1v1h-1zm18 0h1v1h-1zm-137 1h1v1h-1zm136 1h1v1h-1zm-229 1h1v1h-1zm182 1h1v1h-1zm-193 1h1v1h-1zm152 1h1v1h-1zm32 0h1v1h-1zm-193 1h1v1h-1zm154 0h1v1h-1zm33 0h1v1h-1zm-25 2h1v1h-1zm-16 2h1v1h-1zm-54 1h30v1h-30zm30 0h1v1h-1zm81 0h30v1h-30zm30 0h1v1h-1zm-40 1h1v1h-1zm-54 2h1v1h-1zm38 0h1v1h-1zm25 0h1v1h-1zm46 0h1v1h-1zm24 1h1v1h-1zm9 0h1v1h-1zm-214 1h1v1h-1zm84 0h1v1h-1zm-116 1h1v1h-1zm245 2h1v1h-1zm-107 1h1v1h-1zm-155 1h1v1h-1zm123 0h1v1h-1zm25 0h1v1h-1zm-175 1h1v1h-1zm94 0h1v1h-1zm49 1h1v1h-1zm119 0h1v1h-1zm-56 1h1v1h-1zm-138 1h1v1h-1zm153 0h1v1h-1zm-191 2h1v1h-1zm97 3h1v1h-1zm-153 1h1v1h-1zm282 0h1v1h-1zm-190 1h1v1h-1zm164 0h1v1h-1zm45 0h1v1h-1z" fill="#a4adc3"/><path d="M29 2h1v1h-1zm30 2h1v1h-1zM31 7h1v1h-1zm1 0h1v1h-1zm30 2h1v1h-1zm-13 4h1v1h-1zm3 1h1v1h-1zm-21 1h1v1h-1zm19 0h1v1h-1zm-26 3h1v1h-1zm18 1h1v1h-1zM9 21h1v1H9zm1 0h1v1h-1zm2 5h1v1h-1zm15 1h1v1h-1zm-14 1h1v1h-1zm41 0h1v1h-1zm-8 1h1v1h-1zm25 3h1v1h-1zm0 1h1v1h-1zm17 1h1v1h-1zm-14 2h1v1h-1zm-17 1h1v1h-1zM5 38h1v1H5zm32 3h1v1h-1zM2 42h1v1H2zm7 1h1v1H9zm-5 1h1v1H4zm41 0h1v1h-1zM3 46h1v1H3zm29 1h1v1h-1zm13 1h1v1h-1zm1 6h1v1h-1zm-13 4h1v1h-1zm1 1h1v1h-1zm36 6h1v1h-1zm-60 3h1v1h-1zm54 1h1v1h-1zM8 71h1v1H8zm21 1h1v1h-1zm8 2h1v1h-1zm-3 2h1v1h-1zm-1 5h1v1h-1zm5 4h1v1h-1zm4 4h1v1h-1z" fill="#d0ecf7"/><path d="M27 18h1v1h-1zm3 3h1v1h-1zm-9 9h1v1h-1zm17 6h1v1h-1zm10 1h1v1h-1zm-34 4h1v1h-1zm8 6h1v1h-1zm-7 2h1v1h-1zm2 1h1v1h-1zm38 4h1v1h-1z" fill="#bae7f3"/><path d="M27 29h1v1h-1zm147 39h1v1h-1zm42 0h1v1h-1zm50 0h1v1h-1zm111 0h1v1h-1zm48 0h1v1h-1zm-295 1h1v1h-1zm181 2h1v1h-1zm97 1h1v1h-1zm-253 5h1v1h-1zm129 0h1v1h-1zm1 3h1v1h-1zm55 0h1v1h-1zm-91 2h1v1h-1zm103 2h1v1h-1zm-152 5h1v2h-1zm0 2h1v1h-1zm152 4h1v1h-1zm-49 1h1v1h-1zm-11 6h1v1h-1zm144 1h1v1h-1zm-110 3h1v1h-1zm-115 1h1v1h-1zm50 0h1v1h-1zm5 0h1v1h-1zm106 0h1v1h-1zm5 0h1v1h-1zm39 0h1v1h-1zm5 0h1v1h-1zm-268 2h1v1h-1zm234 1h1v1h-1z" fill="#002771"/><path d="M28 29h1v1h-1zm376 19h1v1h-1zM126 59h1v1h-1zm14 9h1v1h-1zm23 0h1v1h-1zm1 0h1v1h-1zm9 0h1v1h-1zm83 0h1v1h-1zm1 0h1v1h-1zm119 0h1v1h-1zm39 0h1v1h-1zm1 0h1v1h-1zm-256 1h1v1h-1zm17 0h1v1h-1zm27 0h1v1h-1zm65 0h1v1h-1zm13 0h1v1h-1zm38 0h1v1h-1zm44 0h1v1h-1zm16 0h1v1h-1zm-178 1h1v1h-1zm158 1h1v1h-1zm-161 1h1v1h-1zm49 0h1v1h-1zm111 0h1v1h-1zm-193 1h2v1h-2zm2 0h1v1h-1zm44 0h1v1h-1zm48 0h1v1h-1zm111 0h1v1h-1zm1 0h1v1h-1zm46 0h1v1h-1zm1 0h1v1h-1zm-246 1h1v1h-1zm35 0h1v1h-1zm148 1h1v1h-1zm-201 1h1v1h-1zm41 0h1v1h-1zm9 0h1v1h-1zm231 1h1v1h-1zm-55 1h1v1h-1zm-103 1h1v1h-1zm40 1h1v1h-1zm6 0h1v1h-1zm-99 1h1v1h-1zm88 0h1v1h-1zm5 0h1v1h-1zm88 2h1v1h-1zm-165 4h1v6h-1zm53 0h1v1h-1zm-94 1h1v1h-1zm88 1h1v1h-1zm49 2h1v1h-1zm-185 1h1v1h-1zm137 0h1v1h-1zm-48 1h1v1h-1zm7 0h1v1h-1zm74 0h1v1h-1zm20 1h1v1h-1zm-33 1h1v1h-1zm122 0h1v1h-1zm-134 3h1v1h-1zm56 1h1v1h-1zm-129 2h1v1h-1zm-29 1h1v1h-1zm-19 1h1v1h-1zm149 0h1v1h-1zm84 0h1v1h-1zm-259 1h1v1h-1zm104 0h1v1h-1zm102 1h1v1h-1zm-110 1h1v1h-1zm92 0h1v1h-1zm96 0h1v1h-1zm-266 1h1v1h-1zm30 0h1v1h-1zm18 0h1v1h-1zm31 0h1v1h-1zm13 0h1v1h-1zm7 0h1v1h-1zm104 0h1v1h-1zm7 0h1v1h-1zm-130 1h1v1h-1zm57 0h1v1h-1zm-105 1h1v1h-1zm127 0h1v1h-1zm33 0h1v1h-1zm-253 2h1v1h-1zm112 0h1v1h-1zm85 0h1v1h-1zm94 0h1v1h-1zm-228 1h1v1h-1zm197 0h1v1h-1zm14 0h1v1h-1z" fill="#002c73"/><path d="M227 48h1v1h-1zm171 0h1v1h-1zM147 68h1v1h-1z" fill="#001a6d"/><path d="M27 9h1v1h-1zm4 1h1v1h-1zm6 8h1v1h-1zm-14 1h1v1h-1zm-1 1h1v1h-1zM7 23h1v1H7zm5 2h1v1h-1zm30 0h1v1h-1zm-9 2h1v1h-1zm9 2h1v1h-1zm11 0h1v1h-1zm-42 7h1v1h-1zm34 3h1v1h-1zm-7 2h1v1h-1zm-21 1h1v1h-1zm-9 1h1v1H8zm36 0h1v1h-1zm-30 2h1v1h-1zm40 5h1v1h-1zm-16 1h1v1h-1zm3 0h1v1h-1zm-28 7h2v1h-2zm2 0h1v1h-1zm17 0h1v1h-1zm-5 1h1v1h-1zm-1 2h1v2h-1zm0 2h1v1h-1zm8 1h1v1h-1zm-5 2h1v1h-1z" fill="#67cce8"/><g fill="#11b7df"><path d="M26 10h1v1h-1zm4 0h1v1h-1zm1 1h1v2h-1zm0 2h1v1h-1zm-5 1h1v1h-1zm1 1h2v1h-2zm2 0h1v1h-1zm13 0h1v2h-1zm7 0h1v2h-1zm-7 2h1v1h-1zm7 0h1v1h-1zm-26 3h1v3h-1zm1 0h1v1h-1zm3 0h1v3h-1zm1 0h1v3h-1zm7 0h1v8h-1zm1 0h1v7h-1zm3 0h1v7h-1zm1 0h1v6h-1z"/><path d="M24 21h4v2h-4zm9 0h7v3h-7zm-23 1h1v1h-1zm31 0h1v2h-1zm-18 1h5v1h-5zm5 0h1v1h-1zm5 1h8v1h-8zm8 0h1v1h-1zm-24 1h1v2h-1zm1 0h1v4h-1zm6 0h2v1h-2zm2 0h1v1h-1zm8 0h6v1h-6zM8 26h1v1H8zm1 0h1v1H9z"/><path d="M15 26h5v1h-5zm5 0h1v1h-1zm17 0h3v1h-3zm3 0h1v1h-1zm-26 1h6v1h-6zm6 0h1v2h-1zm16 0h3v1h-3zm3 0h1v1h-1z"/><path d="M19 28h2v1h-2zm2 0h1v1h-1zm14 0h1v1h-1zm-20 1h3v1h-3zm3 0h2v1h-2zm2 0h1v1h-1zm34 0h1v1h-1zm-35 1h1v1h-1zm23 0h3v7h-3zm3 0h1v8h-1z"/><path d="M41 31h2v7h-2zm5 0h1v6h-1zm6 0h1v3h-1z"/><path d="M40 32h7v2h-7zm7 0h1v2h-1zm-34 2h1v1h-1zm1 0h2v4h-2zm2 0h1v4h-1zm23 0h9v1h-9zm13 0h1v1h-1z"/><path d="M13 35h4v2h-4zm4 0h1v4h-1zm22 0h7v1h-7zm14 0h1v1h-1z"/><path d="M12 36h6v1h-6zm6 0h1v1h-1zm29 0h1v1h-1zm10 0h1v1h-1zm-45 1h5v1h-5zm28 0h6v1h-6zm6 0h1v1h-1zm-34 1h5v1h-5zm29 0h2v1h-2zm2 0h2v1h-2zm2 0h1v1h-1zM9 39h1v1H9zm4 0h1v1h-1zm4 0h1v1h-1zm1 0h1v1h-1zM5 40h1v1H5zm0 1h1v1H5zm4 1h1v1H9zm29 0h2v1h-2zm2 0h1v6h-1zm-23 1h2v1h-2zm2 0h1v1h-1z"/><path d="M38 43h4v5h-4zm4 0h1v3h-1zm-26 1h4v4h-4zm4 0h1v5h-1zm16 0h1v4h-1z"/><path d="M37 44h6v2h-6zm6 0h1v1h-1zm-28 1h1v2h-1zm28 0h1v3h-1zm-17 1h2v1h-2zm2 0h1v1h-1zm9 0h5v2h-5zm5 0h1v3h-1zm-27 1h5v1h-5zm11 0h5v5h-5zm5 0h1v6h-1zm-15 1h5v1h-5zm5 0h1v1h-1z"/><path d="M25 48h2v6h-2zm11 0h7v1h-7zm7 0h1v1h-1zm-23 1h1v1h-1z"/><path d="M24 49h7v3h-7zm14 0h1v1h-1zm1 0h1v1h-1zm11 0h1v1h-1zm-18 1h1v1h-1zm5 0h4v1h-4zm4 0h1v1h-1zm7 0h1v1h-1zm-16 1h1v1h-1zm15 0h1v1h-1zm7 0h1v1h-1zm-31 1h8v1h-8zm-11 1h1v1h-1zm15 0h2v1h-2zm2 0h2v1h-2zm2 0h1v1h-1zm-6 1h2v1h-2zm2 0h3v1h-3zm3 0h1v1h-1zm17 0h1v1h-1zm-17 1h1v1h-1zm-18 2h1v1h-1zm4 0h1v1h-1zm14 1h1v1h-1zm1 0h1v1h-1zm-3 1h1v1h-1zm-1 1h1v1h-1zm0 4h1v1h-1zm1 1h1v1h-1z"/></g><path d="M45 12h1v1h-1zm-5 7h1v1h-1zm-29 3h1v1h-1zm31 0h1v1h-1zM7 25h1v1H7zm21 1h1v1h-1zm12 4h1v1h-1zm-1 1h1v1h-1zm-28 6h1v1h-1zm28 0h1v1h-1zM6 38h1v1H6zm35 3h1v1h-1zM5 42h1v1H5zm38 0h1v1h-1zm-29 4h1v1h-1zm16 0h1v1h-1zm14 3h1v1h-1zm-1 1h1v1h-1zm-28 2h1v1h-1zm10 3h1v1h-1zm6 11h1v1h-1z" fill="#49c5e5"/><path d="M24 29h1v1h-1zm183 38h1v1h-1zm-70 1h1v1h-1zm116 0h1v1h-1zm127 0h1v1h-1zm-223 1h1v1h-1zm273 0h1v1h-1zm-149 2h1v1h-1zm-98 1h1v1h-1zm93 1h1v1h-1zm-16 1h1v1h-1zm-87 1h1v1h-1zm-35 1h1v1h-1zm145 1h1v1h-1zm80 1h1v1h-1zm27 1h1v1h-1zm19 0h1v1h-1zm-138 3h1v1h-1zm9 0h1v1h-1zm67 0h1v1h-1zm35 1h1v1h-1zm-218 2h1v1h-1zm-32 2h1v1h-1zm205 0h1v1h-1zm69 0h1v1h-1zm-205 2h1v2h-1zm80 1h1v1h-1zm15 0h1v1h-1zm32 0h1v1h-1zm-127 1h1v1h-1zm80 0h1v1h-1zm-131 2h1v1h-1zm153 0h1v1h-1zm-111 2h1v1h-1zm142 2h1v1h-1zm-11 3h1v1h-1zm115 1h1v1h-1zm-244 1h1v1h-1zm106 1h1v1h-1zm126 0h1v1h-1zm-265 2h1v1h-1zm11 0h1v1h-1zm241 0h1v1h-1zm-244 1h1v1h-1zm28 1h1v1h-1zm109 1h1v1h-1zm-130 2h1v1h-1zm47 0h1v1h-1zm26 0h1v1h-1zm-95 1h1v1h-1zm123 0h1v1h-1zm-90 1h1v1h-1zm66 0h1v1h-1zm-94 1h1v1h-1zm256 0h1v1h-1z" fill="#e2e7ed"/><path d="M30 2h2v1h-2zm2 0h1v1h-1zm-2 4h2v1h-2zm2 0h1v1h-1zm20 2h1v1h-1zm-1 1h1v1h-1zm0 3h1v1h-1zm5 0h1v1h-1zm-4 1h1v1h-1zm3 0h1v1h-1zm11 16h1v1h-1zm1 0h1v1h-1zm2 1h1v1h-1zm1 1h1v3h-1zm0 3h1v1h-1zm-6 1h1v1h-1zm5 0h1v1h-1zM1 43h1v2H1zm1 0h1v1H2zm5 0h1v1H7zm-4 1h1v1H3zm-2 1h1v1H1zm59 12h1v1h-1zm1 0h1v1h-1zm1 1h1v1h-1zm-6 1h1v2h-1zm0 2h1v1h-1zm-46 1h1v1h-1zm3 0h1v2h-1zm44 0h1v1h-1zm5 0h1v1h-1zm-4 1h3v1h-3zm3 0h1v1h-1zm-48 1h1v1h-1zm-2 1h1v1h-1zm1 0h1v1h-1zm23 4h1v1h-1zm1 1h1v1h-1zm-6 1h1v2h-1zm0 2h1v1h-1zm1 1h1v1h-1zm5 0h1v1h-1zm-4 1h2v1h-2zm2 0h1v1h-1z" fill="#4fbfe5"/><path d="M23 30h1v1h-1zm7 13h1v1h-1zm367 5h1v63h-1zm-171 1h1v24h-1zM80 52h1v1h-1zm28 8h1v51h-1zm64 7h1v1h-1zm86 0h1v1h-1zm6 0h1v1h-1zm105 0h1v1h-1zm6 0h1v1h-1zm48 0h1v1h-1zm-244 2h1v1h-1zm23 0h1v1h-1zm160 0h1v1h-1zm-40 2h1v1h-1zm-124 1h1v1h-1zm28 1h1v1h-1zm65 0h1v1h-1zm83 1h1v1h-1zm42 0h1v1h-1zm5 0h1v1h-1zm-155 1h1v1h-1zm83 0h1v1h-1zm6 0h1v1h-1zm-180 1h1v1h-1zm-21 1h1v1h-1zm283 0h1v1h-1zm-89 1h1v1h-1zm80 1h1v1h-1zm-235 2h1v1h-1zm31 0h1v1h-1zm83 0h1v1h-1zm18 0h1v1h-1zm27 0h1v1h-1zm-72 2h1v1h-1zm38 0h1v1h-1zm73 1h1v1h-1zm39 0h1v1h-1zm-238 3h1v1h-1zm34 2h1v3h-1zm-34 3h1v1h-1zm9 0h1v1h-1zm25 0h1v1h-1zm84 2h1v1h-1zm41 0h1v1h-1zm-62 1h1v1h-1zm33 1h1v1h-1zm-120 1h1v1h-1zm39 1h1v1h-1zm166 0h1v1h-1zm-165 3h1v1h-1zm10 0h1v1h-1zm114 3h1v1h-1zm-147 1h1v1h-1zm38 0h1v1h-1zm-87 1h1v1h-1zm98 0h1v1h-1zm-70 2h1v1h-1zm1 1h1v1h-1zm139 0h1v1h-1zm-185 1h1v1h-1zm-45 1h1v1h-1zm279 0h1v1h-1zm10 0h1v1h-1zm-178 1h1v1h-1zm209 0h1v1h-1zm-268 1h1v1h-1zm220 0h1v1h-1zm36 0h1v1h-1z" fill="#bac2d4"/><path d="M21 38h1v1h-1zm1 2h1v1h-1zm11 1h1v1h-1zm381 27h1v1h-1zm-162 1h1v1h-1zm-51 1h1v1h-1zm49 0h1v1h-1zm182 1h1v1h-1zm2 2h1v1h-1zm-177 1h1v1h-1zm-61 1h1v1h-1zm23 0h1v1h-1zm49 1h1v1h-1zm80 1h1v1h-1zm-8 2h1v1h-1zm-154 3h1v1h-1zm55 1h1v1h-1zm-109 1h1v1h-1zm162 1h1v1h-1zm-132 1h1v1h-1zm7 5h1v1h-1zm-10 4h1v1h-1zm131 2h1v1h-1zm-141 1h1v3h-1zm174 0h1v1h-1zm-174 3h1v1h-1zm288 1h1v1h-1zm-145 1h1v1h-1zm7 0h1v1h-1zm68 2h1v1h-1zm-196 1h1v1h-1zm263 1h1v1h-1zm-97 4h1v1h-1zm49 0h1v1h-1zm-168 1h1v1h-1zm77 0h1v1h-1zm132 0h1v1h-1zm-264 1h1v1h-1zm4 0h1v1h-1zm42 0h1v1h-1zm4 0h1v1h-1zm48 0h1v1h-1zm110 0h1v1h-1zm1 0h1v1h-1zm5 0h1v1h-1z" fill="#60759e"/><path d="M57 13h2v1h-2zm-5 3h1v1h-1zm1 0h2v1h-2zm2 0h1v1h-1zm24 12h1v1h-1zm1 0h1v1h-1zm-60 9h1v1h-1zm32 9h1v1h-1zm28 3h1v1h-1zm-14 8h1v1h-1zm-1 4h1v1h-1zm-49 1h1v1h-1zm1 0h1v1h-1zm48 0h1v1h-1zm-9 1h1v1h-1zm369 4h1v1h-1zm-290 2h1v1h-1zm175 1h1v1h-1zm-66 1h1v1h-1zm162 0h1v1h-1zm-222 2h1v1h-1zM30 75h1v1h-1zm346 0h1v1h-1zm47 0h1v1h-1zm-286 2h1v1h-1zm289 0h1v1h-1zM40 78h1v1h-1zm229 0h1v1h-1zm70 2h1v1h-1zm-55 1h1v1h-1zm124 0h1v1h-1zm-184 1h1v1h-1zm70 0h1v1h-1zm-44 1h1v1h-1zm-10 1h1v1h-1zm200 2h1v1h-1zm-159 1h1v1h-1zm5 0h1v1h-1zm144 0h1v1h-1zm-118 2h1v1h-1zm24 1h1v1h-1zm70 0h1v1h-1zm34 3h1v1h-1zm-215 2h1v1h-1zm118 0h1v1h-1zm-184 1h1v1h-1zm33 0h1v1h-1zm110 0h1v1h-1zm49 0h1v1h-1zm-42 3h1v1h-1zm22 0h1v1h-1zm78 2h1v1h-1zm-167 1h1v1h-1zm181 0h2v1h-2zm2 0h1v1h-1zm-57 1h1v1h-1zm1 0h1v1h-1zm-126 1h1v1h-1zm13 0h1v1h-1zm125 1h1v1h-1zm53 3h1v1h-1zm-247 3h1v1h-1zm14 0h1v1h-1zm162 1h1v1h-1zm-158 1h1v1h-1zm161 0h1v1h-1zm16 0h1v1h-1zm32 0h1v1h-1z" fill="#fffeff"/><g fill="#1b427d"><path d="M32 30h1v1h-1zm-9 2h8v1h-8zm8 0h1v8h-1zm-6 1h6v7h-6z"/><path d="M24 34h7v1h-7zm0 1h9v1h-9zm9 0h1v3h-1zm-1 1h1v2h-1z"/><path d="M23 37h10v1H23zm0 1h10v1H23zm10 0h1v1h-1zm-9 1h7v1h-7zm1 1h6v1h-6zm6 0h1v1h-1zm-5 1h4v1h-4zm4 0h1v1h-1zm199 8h3v22h-3zm3 0h1v61h-1zm167 0h3v61h-3zm3 0h1v26h-1zM82 54h43v3H82zm43 0h1v3h-1zm-43 3h43v1H82zm43 0h1v1h-1zm-25 1h8v1h-8zm8 0h1v1h-1zm-26 1h3v1h-3zm3 0h1v1h-1zm14 0h7v1h-7zm7 0h2v1h-2zm2 0h1v1h-1zm-6 1h3v50h-3zm3 0h1v50h-1z"/><path d="M101 64h4v46h-4zm116 4h1v4h-1zm45 1h2v3h-2zm2 0h1v3h-1zm-138 1h3v40h-3zm3 0h1v40h-1zm9 0h8v2h-8zm8 0h1v2h-1zm14 0h17v2h-17zm17 0h1v5h-1z"/><path d="M205 70h14v2h-14zm14 0h1v3h-1zm35 0h15v2h-15zm15 0h1v3h-1zm14 0h5v1h-5zm5 0h1v10h-1zm26 0h5v3h-5zm5 0h1v6h-1zm27 0h2v3h-2zm2 0h1v3h-1zm16 0h15v2h-15zm15 0h1v3h-1zm34 0h15v2h-15zm15 0h1v6h-1zm-292 1h10v1h-10zm23 0h20v1h-20zm20 0h1v5h-1zm41 0h1v1h-1zm1 0h2v2h-2zm2 0h1v5h-1zm6 0h3v17h-3zm22 0h1v1h-1z"/><path d="M252 71h19v1h-19zm19 0h1v2h-1zm15 0h2v9h-2zm26 0h8v1h-8zm8 0h1v5h-1zm43 0h17v1h-17zm17 0h1v2h-1zm49 0h1v6h-1zm-292 1h9v1h-9zm9 0h1v1h-1zm13 0h20v1h-20zm46 0h16v1h-16zm47 0h18v1h-18zm18 0h1v2h-1z"/><path d="M284 72h4v1h-4zm79 0h17v1h-17zm46 0h1v1h-1zm4 0h17v1h-17zm17 0h1v4h-1zm-271 1h1v1h-1zm1 0h1v1h-1zm16 0h3v1h-3zm5 0h1v37h-1zm23 0h1v1h-1zm1 0h2v1h-2zm2 0h1v1h-1zm14 0h2v1h-2zm33 0h1v1h-1zm1 0h1v1h-1zm11 0h3v1h-3zm3 0h2v1h-2zm2 0h1v1h-1zm39 0h1v1h-1zm3 0h7v1h-7zm33 0h2v1h-2zm2 0h1v1h-1zm15 0h1v1h-1zm1 0h2v1h-2zm2 0h1v1h-1zm10 0h4v1h-4zm4 0h2v1h-2zm2 0h1v3h-1zm31 0h1v1h-1zm1 0h1v1h-1zm9 0h2v1h-2zm2 0h5v1h-5zm7 0h1v7h-1zm-276 1h1v1h-1z"/><path d="M176 74h6v1h-6zm6 0h1v36h-1zm17 0h5v2h-5zm5 0h2v1h-2zm2 0h1v1h-1zm16 0h2v1h-2zm2 0h1v2h-1zm23 0h2v6h-2zm2 0h1v5h-1zm23 0h2v5h-2zm2 0h1v6h-1zm37 0h2v6h-2zm2 0h1v4h-1zm5 0h2v2h-2zm25 0h2v9h-2zm16 0h4v2h-4zm4 0h1v1h-1zm18 0h2v2h-2zm2 0h1v3h-1zm20 0h1v30h-1zm24 0h6v1h-6zm6 0h1v6h-1zm-256 1h5v1h-5zm7 0h1v1h-1z"/><path d="M198 75h5v1h-5zm24 0h2v1h-2zm5 0h5v8h-5zm23 0h1v1h-1zm66 0h4v1h-4zm70 0h1v15h-1zm16 0h3v12h-3zm3 0h1v7h-1zm7 0h1v1h-1zm15 0h6v1h-6zm-297 1h1v9h-1zm48 0h4v1h-4zm20 0h5v2h-5zm5 0h1v1h-1zm20 0h2v1h-2zm27 0h1v1h-1zm27 0h1v1h-1zm13 0h1v1h-1zm28 0h2v1h-2zm2 0h1v1h-1zm25 0h1v5h-1zm14 0h3v1h-3zm3 0h1v1h-1zm19 0h2v1h-2zm47 0h5v1h-5zm-297 1h2v3h-2zm2 0h1v2h-1zm47 0h2v29h-2z"/><path d="M226 77h6v4h-6zm59 0h3v1h-3zm25 0h3v3h-3zm32 0h3v6h-3zm15 0h3v4h-3zm3 0h1v1h-1zm25 0h2v13h-2zm2 0h1v13h-1zm42 0h4v1h-4zm6 0h1v1h-1zm-252 1h1v3h-1zm15 0h4v1h-4zm4 0h1v1h-1zm68 0h4v1h-4zm43 0h1v1h-1zm4 0h1v1h-1z"/><path d="M356 78h3v7h-3zm72 0h5v1h-5zm-295 1h1v1h-1zm64 0h3v8h-3zm3 0h1v4h-1zm49 0h1v1h-1zm23 0h2v1h-2zm5 0h1v11h-1zm12 0h1v8h-1zm3 0h1v1h-1zm30 0h1v11h-1zm108 0h3v1h-3zm-299 1h1v1h-1zm1 0h1v1h-1zm112 0h1v21h-1zm3 0h1v1h-1zm1 0h1v2h-1zm25 0h1v1h-1zm1 0h2v2h-2zm2 0h1v10h-1zm10 0h3v1h-3zm24 0h2v1h-2zm2 0h1v1h-1z"/><path d="M353 80h6v1h-6zm78 0h2v1h-2zm2 0h1v1h-1zm-250 1h1v1h-1zm12 0h5v6h-5zm31 0h6v1h-6zm19 0h1v20h-1zm1 0h1v20h-1zm27 0h4v1h-4zm17 0h1v11h-1zm1 0h1v9h-1zm30 0h2v6h-2zm2 0h1v9h-1zm22 0h1v1h-1zm9 0h5v4h-5zm5 0h1v1h-1zm48 0h1v1h-1zm24 0h1v1h-1zm3 0h2v21h-2zm2 0h1v19h-1zm-188 1h1v1h-1zm26 0h4v2h-4zm4 0h1v8h-1zm82 0h1v1h-1zm45 0h1v1h-1zm32 0h1v2h-1zm-237 1h1v1h-1zm27 0h5v1h-5zm22 0h1v1h-1z"/><path d="M287 83h4v1h-4zm55 0h2v1h-2zm2 0h1v2h-1zm8 0h6v1h-6zm-159 1h6v1h-6zm81 0h4v1h-4zm18 0h1v6h-1zm16 0h1v6h-1zm1 0h1v6h-1zm15 0h1v3h-1zm29 0h5v6h-5zm84 0h1v2h-1zm-307 1h1v1h-1zm53 0h1v1h-1zm3 0h1v1h-1zm8 0h5v2h-5zm81 0h3v5h-3zm69 0h1v1h-1zm14 0h1v5h-1zm30 0h1v1h-1zm44 0h4v1h-4zm-249 1h1v1h-1zm254 0h1v3h-1zm-253 1h1v21h-1zm10 0h5v1h-5zm5 0h1v1h-1zm88 0h5v1h-5z"/><path d="M307 87h2v3h-2zm14 0h3v1h-3zm3 0h1v4h-1zm60 0h3v3h-3zm18 0h2v17h-2zm2 0h1v1h-1zm-244 1h22v1h-22zm34 0h3v7h-3zm3 0h1v5h-1zm31 0h4v1h-4zm15 0h35v2h-35zm96 0h2v5h-2zm2 0h2v1h-2zm2 0h1v1h-1z"/><path d="M359 88h29v2h-29zm29 0h1v2h-1zm-233 1h1v5h-1zm3 0h24v1h-24zm70 0h4v1h-4zm113 0h1v5h-1zm96 0h1v2h-1zm-278 1h7v1h-7zm7 0h1v1h-1zm13 0h3v1h-3zm20 0h1v1h-1zm29 0h4v1h-4zm15 0h36v1h-36zm36 0h1v1h-1zm12 0h1v1h-1zm1 0h1v1h-1zm14 0h3v1h-3zm3 0h1v1h-1zm13 0h2v1h-2zm31 0h35v1h-35zm35 0h1v1h-1zm3 0h1v1h-1zm-235 1h2v3h-2zm2 0h1v3h-1zm41 0h1v1h-1zm30 0h3v1h-3zm14 0h3v2h-3zm5 0h1v1h-1zm73 0h1v1h-1zm3 0h2v2h-2zm2 0h1v11h-1zm27 0h2v5h-2zm2 0h1v6h-1zm82 0h1v3h-1zm-208 1h3v18h-3zm61 0h1v1h-1zm20 0h1v1h-1zm95 0h1v1h-1zm-208 1h1v6h-1z"/><path d="M228 93h4v1h-4zm14 0h4v1h-4zm49 0h1v1h-1zm1 0h2v2h-2zm2 0h1v10h-1zm30 0h2v1h-2zm15 0h2v1h-2zm-187 1h1v11h-1zm3 0h3v1h-3zm3 0h1v1h-1zm70 0h4v1h-4zm14 0h4v1h-4zm83 0h2v6h-2zm2 0h1v7h-1zm12 0h2v1h-2zm2 0h1v1h-1zm63 0h1v10h-1zm33 0h1v1h-1zm-284 1h1v9h-1zm1 0h1v9h-1zm40 0h5v1h-5zm5 0h1v9h-1zm44 0h3v2h-3z"/><path d="M292 95h3v1h-3zm3 0h1v8h-1zm10 0h1v1h-1zm51 0h2v8h-2zm2 0h1v10h-1zm-163 1h5v1h-5zm5 0h1v8h-1zm90 0h1v1h-1zm3 0h2v6h-2zm47 0h1v1h-1z"/><path d="M353 96h5v1h-5zm-158 1h5v1h-5zm48 0h3v1h-3zm97 0h1v1h-1zm14 0h4v1h-4zm-156 1h2v6h-2zm29 0h5v6h-5zm20 0h1v6h-1zm57 0h2v3h-2zm2 0h1v2h-1zm30 0h3v4h-3zm23 0h1v6h-1zm46 0h1v6h-1zm26 0h5v4h-5z"/><path d="M197 99h3v4h-3zm29 0h6v5h-6zm22 0h1v5h-1zm55 0h3v1h-3zm-54 1h1v4h-1zm57 0h1v1h-1zm19 0h2v1h-2zm28 0h1v1h-1zm83 0h1v1h-1z"/><path d="M225 101h7v2h-7zm19 0h6v1h-6zm6 0h1v1h-1zm47 0h1v1h-1zm7 0h1v1h-1zm1 0h1v1h-1zm22 0h1v1h-1zm8 0h3v3h-3zm-112 1h1v1h-1zm27 0h1v2h-1zm43 0h2v1h-2zm33 0h2v1h-2zm12 0h1v2h-1zm22 0h1v6h-1zm1 0h1v6h-1zm68 0h6v1h-6zm6 0h1v1h-1zm-238 1h3v1h-3zm28 0h7v1h-7zm26 0h1v5h-1zm43 0h1v1h-1zm1 0h1v1h-1z"/><path d="M356 103h6v1h-6zm6 0h1v6h-1zm65 0h1v6h-1zm3 0h3v1h-3zm3 0h1v1h-1zm-282 1h3v1h-3zm3 0h1v1h-1zm44 0h3v1h-3zm3 0h1v3h-1zm3 0h1v2h-1zm22 0h6v1h-6zm21 0h3v1h-3zm3 0h1v4h-1zm85 0h3v1h-3zm3 0h1v1h-1zm19 0h5v1h-5zm45 0h3v1h-3zm3 0h1v1h-1zm25 0h3v1h-3zm3 0h1v1h-1zm-281 1h1v1h-1zm3 0h2v2h-2zm2 0h1v3h-1zm18 0h1v2h-1zm27 0h1v3h-1z"/><path d="M203 105h2v1h-2zm2 0h1v1h-1zm47 0h1v3h-1zm1 0h1v3h-1zm43 0h7v5h-7zm7 0h1v2h-1zm25 0h3v4h-3zm3 0h1v5h-1zm3 0h1v5h-1zm1 0h2v1h-2zm2 0h1v1h-1zm26 0h1v3h-1zm1 0h1v3h-1zm64 0h1v3h-1zm1 0h1v3h-1zm-276 1h5v1h-5zm5 0h1v2h-1zm16 0h2v1h-2zm6 0h2v1h-2zm23 0h1v2h-1zm1 0h1v1h-1zm22 0h1v1h-1z"/><path d="M295 106h8v1h-8zm37 0h2v4h-2zm33 0h1v3h-1zm1 0h1v2h-1zm15 0h1v1h-1zm4 0h1v2h-1zm1 0h1v2h-1zm16 0h1v4h-1zm7 0h1v1h-1zm1 0h1v1h-1zm21 0h1v1h-1zm1 0h1v1h-1zm-277 1h3v1h-3zm20 0h1v1h-1zm26 0h2v1h-2zm13 0h1v4h-1zm58 0h1v1h-1zm31 0h1v1h-1zm1 0h1v1h-1zm34 0h1v1h-1zm73 0h1v1h-1zm20 0h1v1h-1zm-275 1h2v1h-2zm2 0h2v1h-2zm2 0h1v3h-1zm42 0h1v1h-1zm1 0h1v1h-1zm9 0h1v3h-1zm15 0h5v1h-5zm23 0h3v1h-3zm3 0h1v1h-1zm51 0h1v1h-1z"/><path d="M360 108h6v1h-6zm6 0h1v1h-1zm6 0h1v3h-1zm13 0h1v1h-1zm1 0h1v1h-1zm42 0h1v1h-1zm1 0h1v1h-1zm-270 1h13v1h-13zm13 0h1v1h-1zm33 0h13v1h-13zm13 0h1v1h-1zm36 0h17v1h-17zm17 0h2v1h-2zm2 0h1v1h-1zm55 0h7v1h-7zm34 0h1v1h-1z"/><path d="M367 109h17v1h-17zm17 0h1v1h-1zm29 0h14v1h-14zm14 0h1v1h-1zm-326 1h4v1h-4zm4 0h1v1h-1zm21 0h3v1h-3zm3 0h1v1h-1zm28 0h15v1h-15zm15 0h1v1h-1zm9 0h1v1h-1zm1 0h1v1h-1zm23 0h13v1h-13zm13 0h1v1h-1zm11 0h3v1h-3zm3 0h1v1h-1zm22 0h16v1h-16zm16 0h1v1h-1zm26 0h7v1h-7zm7 0h1v1h-1zm26 0h5v1h-5zm5 0h1v1h-1zm3 0h1v1h-1zm30 0h17v1h-17zm17 0h1v1h-1zm15 0h3v1h-3zm3 0h1v1h-1zm11 0h13v1h-13zm13 0h1v1h-1zm-267 1h11v1h-11zm11 0h1v1h-1zm36 0h11v1h-11zm11 0h1v1h-1zm40 0h14v1h-14zm14 0h1v1h-1zm96 0h14v1h-14zm14 0h1v1h-1zm34 0h10v1h-10zm10 0h1v1h-1z"/></g><path d="M34 31h1v1h-1zm371 16h1v1h-1zm-278 5h1v7h-1zm0 7h1v1h-1zm46 8h1v1h-1zm84 0h1v1h-1zm8 0h1v1h-1zm111 0h1v1h-1zm48 0h1v1h-1zm-247 1h1v1h-1zm27 0h1v1h-1zm15 0h1v1h-1zm92 0h1v1h-1zm10 0h1v1h-1zm43 0h1v1h-1zm-233 1h1v3h-1zm120 0h1v1h-1zm39 0h1v1h-1zm-108 2h1v1h-1zm128 0h1v1h-1zm-179 1h1v1h-1zm144 0h1v1h-1zm-78 1h1v1h-1zm-32 1h1v1h-1zm94 0h1v1h-1zm50 0h1v1h-1zm14 0h1v1h-1zm18 0h1v1h-1zm29 0h1v1h-1zm3 0h1v1h-1zm44 0h1v1h-1zm3 0h1v1h-1zm-212 1h1v1h-1zm180 0h1v1h-1zm48 0h1v1h-1zm-144 1h1v1h-1zm24 1h1v1h-1zm-162 1h1v1h-1zm161 0h1v1h-1zm123 1h1v1h-1zm-153 4h1v1h-1zm-60 1h1v1h-1zm113 0h1v1h-1zm-146 1h1v1h-1zm168 0h1v1h-1zm-228 1h1v1h-1zm108 0h1v1h-1zm0 1h1v1h-1zm55 0h1v1h-1zm10 0h1v1h-1zm22 0h1v1h-1zm-15 1h1v1h-1zm8 2h1v1h-1zm24 1h1v1h-1zm-178 1h1v1h-1zm74 0h1v1h-1zm0 1h1v1h-1zm81 0h1v1h-1zm-129 1h1v1h-1zm105 0h1v1h-1zm46 0h1v1h-1zm63 0h1v1h-1zm24 1h1v1h-1zm-88 2h1v1h-1zm-118 2h1v1h-1zm139 2h1v1h-1zm-110 1h1v1h-1zm-78 1h1v1h-1zm262 0h1v1h-1zm-288 1h1v1h-1zm95 1h1v1h-1zm27 0h1v1h-1zm97 0h1v1h-1zm-158 1h1v1h-1zm50 0h1v1h-1zm118 0h1v1h-1zm-152 1h1v1h-1zm79 4h1v1h-1zm-35 2h1v1h-1z" fill="#d2d9e5"/><path d="M373 67h1v1h-1zm-119 1h1v1h-1zm58 0h1v1h-1zm8 0h1v1h-1zm59 0h1v1h-1zm-97 5h1v1h-1zm1 3h1v1h-1zm-5 1h1v1h-1zm37 0h1v1h-1zm-129 3h1v1h-1zm-8 2h1v1h-1zm-46 3h1v1h-1zm259 0h1v1h-1zm15 0h1v1h-1zm-245 1h1v1h-1zm190 1h1v5h-1zm-24 1h1v1h-1zm-174 2h1v1h-1zm191 0h1v1h-1zm7 2h1v1h-1zm-173 5h1v1h-1zm184 3h1v1h-1zm-86 3h1v1h-1zm-126 3h1v1h-1zm95 0h1v1h-1zm190 0h1v1h-1zm-142 1h1v1h-1zm-20 5h1v1h-1zm-112 1h1v1h-1zm107 0h1v1h-1zm149 0h1v1h-1z" fill="#9ba3ba"/><g fill="#5bc3e6"><path d="M33 2h1v2h-1zm-3 1h2v2h-2zm2 0h1v2h-1zm1 1h1v2h-1zm29 0h1v1h-1zM30 5h2v1h-2zm2 0h1v1h-1zm1 1h1v1h-1zm20 2h1v5h-1zm1 0h2v4h-2zm2 0h1v3h-1zm4 0h2v1h-2zm2 0h1v1h-1z"/><path d="M52 9h4v3h-4z"/><path d="M51 10h5v1h-5zm-26 1h1v1h-1zm26 0h5v1h-5zm5 0h1v1h-1zm-10 1h1v1h-1zm6 0h3v1h-3zm3 0h1v1h-1zm-2 1h1v1h-1zm1 0h1v1h-1zm-5 5h1v1h-1zm-4 2h1v1h-1zm1 0h1v1h-1zm-34 4h1v1h-1zm52 6h4v4h-4zm4 0h1v6h-1zm1 1h1v3h-1z"/><path d="M63 32h6v1h-6zm-48 1h1v1h-1zm48 0h6v1h-6zm1 1h5v1h-5zm5 0h1v1h-1zm-4 1h3v1h-3zm-7 1h1v1h-1zm8 0h2v1h-2zm2 0h1v1h-1zM3 43h1v1H3zm-1 1h1v1H2zm0 1h1v1H2zm11 7h1v1h-1zm4 2h1v2h-1zm30 1h1v1h-1zm-30 1h1v1h-1zm40 1h2v4h-2zm2 0h1v5h-1zm1 1h1v4h-1zm1 0h1v4h-1zm1 1h1v2h-1zm1 0h1v2h-1zm-29 1h1v1h-1zm-23 1h1v3h-1zm1 0h1v3h-1z"/><path d="M57 61h6v1h-6zm6 0h1v1h-1zm-5 1h3v1h-3zm3 0h1v1h-1zm-51 1h3v1h-3zm0 1h2v1h-2zm2 0h1v1h-1zm-2 1h1v1h-1zm3 0h1v1h-1zm56 0h1v1h-1zm1 2h1v1h-1zm0 1h1v1h-1zm-39 1h3v4h-3zm3 0h1v5h-1zm31 0h1v1h-1z"/><path d="M30 70h5v1h-5zm5 0h1v5h-1zm33 0h1v1h-1zM9 71h2v1H9zm2 0h1v1h-1zm25 0h1v2h-1zm1 0h1v1h-1zm0 1h1v1h-1z"/><path d="M31 73h5v1h-5zm5 0h1v1h-1zm-4 1h3v1h-3zm3 1h1v1h-1zm-1 4h1v1h-1z"/></g><g fill="#73c9e8"><path d="M29 3h1v2h-1zm5 0h1v1h-1zm0 1h1v1h-1zm26 0h1v3h-1zm1 0h1v4h-1zM29 5h1v1h-1z"/><path d="M59 5h4v2h-4zm4 0h1v2h-1zM53 7h1v1h-1zm1 0h1v1h-1zm5 0h4v1h-4zm4 0h1v1h-1zM51 8h1v1h-1zm6 2h1v1h-1zm11 19h1v1h-1zm7 2h3v5h-3zm3 0h1v5h-1z"/><path d="M74 32h5v3h-5zm5 0h1v3h-1zm5 1h1v1h-1zm-10 2h5v1h-5zm5 0h1v1h-1zm-14 1h1v1h-1zm10 0h3v1h-3zm3 0h1v1h-1zM0 44h1v1H0zm62 13h1v1h-1zm3 8h3v3h-3zm3 0h1v4h-1zm1 1h1v3h-1zm1 0h1v1h-1zm-37 2h1v1h-1z"/><path d="M65 68h4v1h-4zM9 69h2v1H9zm2 0h1v1h-1zm25 0h1v1h-1zm30 0h3v1h-3zm3 0h1v1h-1zM9 70h2v1H9zm2 0h1v1h-1zm55 0h1v1h-1zm1 0h1v1h-1zm6 2h1v1h-1zm-36 1h1v1h-1zm38 0h1v1h-1zm-40 5h3v4h-3zm3 0h1v4h-1zm1 1h1v3h-1z"/><path d="M34 80h5v1h-5zm0 1h5v1h-5zm1 1h4v1h-4zm4 0h1v1h-1zm-3 1h1v1h-1zm1 0h1v1h-1z"/></g><path d="M62 3h1v1h-1zm-4 2h1v1h-1zm-2 2h1v1h-1zM29 8h1v1h-1zm28 0h1v1h-1zM31 9h1v1h-1zm1 5h1v1h-1zm9 0h1v1h-1zm-11 2h1v1h-1zm2 4h1v1h-1zm11 3h1v1h-1zm0 1h1v1h-1zm-4 6h1v1h-1zm21 0h1v1h-1zm3 0h1v1h-1zm-47 2h1v1h-1zm19 0h1v1h-1zm52 0h1v1h-1zm-51 3h1v1h-1zm0 1h1v1h-1zM8 37h1v1H8zm14 4h1v1h-1zm9 2h1v1h-1zm375 5h1v22h-1zM44 50h1v1h-1zm-21 4h1v1h-1zm32 1h1v1h-1zm-25 1h1v1h-1zm0 1h1v1h-1zm1 0h1v1h-1zm-4 1h1v1h-1zm28 3h1v1h-1zm10 3h1v1h-1zm-1 1h1v1h-1zm-51 1h1v1h-1zm161 1h1v1h-1zm92 0h1v1h-1zm101 0h1v1h-1zM9 68h1v1H9zm281 0h1v1h-1zm120 1h1v1h-1zm-137 1h1v1h-1zm49 0h1v1h-1zm29 0h1v1h-1zm55 0h1v1h-1zM68 71h1v1h-1zm6 0h1v1h-1zm58 1h1v1h-1zm191 1h1v1h-1zm18 0h1v1h-1zm46 0h1v1h-1zm-220 1h1v1h-1zm94 0h1v1h-1zM35 76h1v1h-1zm232 0h1v1h-1zM74 77h1v1h-1zm205 1h1v1h-1zm-144 1h1v1h-1zm42 1h1v1h-1zm148 0h1v1h-1zm114 1h1v1h-1zM40 82h1v1h-1zm274 0h1v1h-1zm77 0h1v1h-1zM37 84h2v1h-2zm2 0h1v1h-1zm246 0h1v1h-1zm-60 1h1v1h-1zM37 86h1v1h-1zm6 0h1v2h-1zm284 0h1v1h-1zm103 0h1v1h-1zm10 1h1v5h-1zM43 88h1v1h-1zm112 0h1v1h-1zm251 3h1v1h-1zm-95 1h1v1h-1zm129 0h1v1h-1zm-143 1h1v1h-1zm32 0h1v1h-1zm101 0h1v1h-1zm0 1h1v1h-1zm-190 1h1v1h-1zm90 1h1v1h-1zm12 2h1v1h-1zm-165 1h1v1h-1zm124 0h1v1h-1zm40 2h1v1h-1zm-50 1h1v1h-1zm17 0h1v1h-1zm-87 1h1v1h-1zm165 0h1v1h-1zm-226 1h1v1h-1zm113 0h1v1h-1zm-77 2h1v1h-1zm220 0h1v1h-1zm-266 1h1v1h-1zm76 2h1v3h-1zm207 0h1v1h-1zm-45 2h1v1h-1zm-168 1h1v1h-1zm6 0h1v1h-1zm79 0h1v1h-1zm-88 1h1v1h-1zm54 0h1v1h-1z" fill="#f4f7f9"/><path d="M41 16h1v1h-1zm-9 10h1v1h-1zm-7 1h1v1h-1zm16 2h1v1h-1zm6 1h1v1h-1zm-27 1h1v1h-1zm35 6h1v1h-1zm-13 4h1v1h-1zm-7 2h1v1h-1zm-12 5h1v1h-1zm10 1h2v1h-2zm2 0h1v1h-1zm7 2h1v1h-1zm-30 1h1v1h-1zm17 4h1v1h-1z" fill="#a9e2f1"/><path d="M22 32h1v1h-1zm12 7h1v1h-1zm-10 2h1v1h-1zm2 1h1v1h-1zm4 0h1v1h-1zm204 6h1v1h-1zm164 1h1v61h-1zM107 60h1v50h-1zm37 8h1v1h-1zm1 0h1v1h-1zm21 0h1v1h-1zm5 0h1v1h-1zm43 0h1v1h-1zm45 0h1v1h-1zm4 0h1v1h-1zm106 0h1v1h-1zm1 0h1v1h-1zm4 0h1v1h-1zm1 0h1v1h-1zm48 0h1v1h-1zm-286 1h1v1h-1zm10 0h1v1h-1zm106 0h1v1h-1zm96 0h1v1h-1zm78 0h1v1h-1zm-297 1h1v3h-1zm6 0h1v1h-1zm22 0h1v1h-1zm63 0h1v1h-1zm30 0h1v1h-1zm31 0h1v1h-1zm129 0h1v1h-1zm-90 1h1v1h-1zm62 0h1v1h-1zm-253 2h1v1h-1zm34 0h1v1h-1zm6 0h1v1h-1zm28 0h1v1h-1zm60 0h1v1h-1zm5 0h1v1h-1zm95 0h1v1h-1zm11 0h1v1h-1zm5 0h1v1h-1zm42 0h1v1h-1zm5 0h1v1h-1zm-261 1h1v1h-1zm197 0h1v1h-1zm9 0h1v1h-1zm47 0h1v1h-1zm11 0h1v1h-1zm-269 1h1v1h-1zm3 0h1v1h-1zm17 0h1v1h-1zm31 0h1v1h-1zm39 0h1v1h-1zm9 0h1v1h-1zm94 0h1v1h-1zm-95 1h1v1h-1zm38 0h1v1h-1zm-114 1h1v1h-1zm100 0h1v1h-1zm40 0h1v1h-1zm-114 1h1v1h-1zm20 0h1v1h-1zm100 0h1v1h-1zm24 0h1v1h-1zm7 0h1v1h-1zm-176 1h1v1h-1zm65 0h1v1h-1zm186 0h1v1h-1zm-137 1h1v1h-1zm97 0h1v1h-1zm-117 1h1v1h-1zm36 0h1v1h-1zm16 0h1v1h-1zm36 0h1v1h-1zm-228 1h1v1h-1zm69 0h1v1h-1zm145 0h1v1h-1zm-39 1h1v1h-1zm18 1h1v1h-1zm20 0h1v1h-1zm-6 1h1v1h-1zm6 0h1v1h-1zm45 0h1v1h-1zm-259 1h1v1h-1zm45 0h1v1h-1zm1 0h1v1h-1zm16 0h1v4h-1zm94 0h1v1h-1zm7 0h1v1h-1zm111 0h1v1h-1zm-99 1h1v1h-1zm5 0h1v1h-1zm27 0h1v1h-1zm-27 1h1v1h-1zm-155 1h1v1h-1zm37 1h1v1h-1zm95 0h1v1h-1zm39 0h1v1h-1zm-162 1h2v1h-2zm2 0h1v1h-1zm112 0h1v1h-1zm26 0h1v1h-1zm84 0h1v1h-1zm1 0h1v1h-1zm-227 1h1v1h-1zm16 0h1v4h-1zm125 1h1v1h-1zm24 0h1v1h-1zm24 0h1v1h-1zm-193 1h1v1h-1zm137 0h1v1h-1zm56 0h1v1h-1zm-16 1h1v1h-1zm-157 1h1v1h-1zm144 0h1v1h-1zm-97 1h1v1h-1zm65 1h1v1h-1zm17 0h1v1h-1zm52 0h1v1h-1zm46 0h1v1h-1zm-115 1h1v1h-1zm-113 1h1v1h-1zm124 0h1v1h-1zm28 0h1v1h-1zm10 0h1v1h-1zm21 0h1v1h-1zm-69 1h1v1h-1zm15 0h1v1h-1zm23 0h1v1h-1zm32 0h1v1h-1zm-205 1h1v1h-1zm168 0h1v1h-1zm83 0h1v1h-1zm-204 1h1v1h-1zm102 1h1v1h-1zm59 0h1v1h-1zm-159 1h1v1h-1zm49 0h1v1h-1zm38 0h1v1h-1zm142 0h1v1h-1zm-216 1h1v1h-1zm52 0h1v1h-1zm86 0h1v1h-1zm25 0h1v1h-1zm-212 1h1v1h-1zm98 0h1v1h-1zm37 0h1v1h-1zm117 0h1v1h-1zm-223 1h1v1h-1zm25 0h1v1h-1zm135 0h1v1h-1zm49 0h1v1h-1zm-71 1h1v1h-1zm94 0h1v1h-1zm-324 1h1v1h-1zm67 0h1v1h-1zm28 0h1v1h-1zm160 0h1v1h-1zm36 0h1v1h-1zm-274 1h1v1h-1zm56 0h1v1h-1zm73 0h1v1h-1zm131 0h1v1h-1zm20 0h1v1h-1zm-244 1h1v1h-1zm9 0h1v1h-1zm38 0h1v1h-1zm49 0h2v1h-2zm2 0h1v1h-1zm122 0h1v1h-1zm36 0h1v1h-1zm10 0h1v1h-1z" fill="#003376"/><path d="M35 34h1v1h-1zm276 35h1v1h-1zm70 0h1v1h-1zm-159 1h1v1h-1zm128 1h1v1h-1zm-196 1h1v1h-1zm188 0h1v1h-1zm-117 1h1v1h-1zm132 0h1v1h-1zm-8 1h1v1h-1zm-175 1h1v1h-1zm216 6h1v1h-1zm-72 1h1v1h-1zm7 0h1v1h-1zm-12 1h1v1h-1zm47 0h1v1h-1zm-111 1h1v2h-1zm31 1h1v1h-1zm-31 1h1v1h-1zm88 3h1v1h-1zm94 0h1v2h-1zm-254 2h1v1h-1zm254 0h1v1h-1zm-121 2h1v1h-1zm-84 1h1v1h-1zm63 0h1v1h-1zm14 1h1v1h-1zm26 0h1v1h-1zm31 1h1v1h-1zm46 0h1v1h-1zm-213 1h1v1h-1zm-15 1h1v1h-1zm24 0h1v1h-1zm100 0h1v1h-1zm-51 2h1v1h-1zm103 3h1v1h-1zm-15 2h1v1h-1zm73 0h1v1h-1zm-250 1h1v1h-1zm47 0h1v1h-1zm147 0h1v1h-1zm24 0h1v1h-1zm34 0h1v1h-1zm-235 1h1v1h-1zm159 1h1v1h-1zm69 0h1v1h-1zm-252 3h1v1h-1zm172 0h1v1h-1zm84 0h1v1h-1zm-107 1h1v1h-1zm79 0h1v1h-1zm-221 1h1v1h-1zm98 0h1v1h-1zm158 0h1v1h-1z" fill="#6a7da2"/><path d="M25 30h1v1h-1zm6 0h1v1h-1zm-9 3h1v1h-1zm1 7h1v1h-1zm8 2h1v1h-1zm69 18h1v2h-1zm0 2h1v1h-1zm41 6h1v1h-1zm1 0h1v1h-1zm25 0h1v1h-1zm3 0h1v1h-1zm39 0h1v1h-1zm1 0h1v1h-1zm3 0h1v1h-1zm49 0h1v1h-1zm111 0h1v1h-1zm45 0h1v1h-1zm1 0h1v1h-1zm3 0h1v1h-1zm-297 1h4v1h-4zm4 0h1v1h-1zm125 0h1v1h-1zm14 0h1v1h-1zm15 0h5v1h-5zm5 0h1v1h-1zm25 0h6v1h-6zm6 0h1v1h-1zm26 0h3v1h-3zm3 0h1v1h-1zm17 0h1v1h-1zm14 0h1v1h-1zm-232 1h1v3h-1zm142 0h1v1h-1zm-133 1h1v1h-1zm276 1h1v1h-1zm-299 1h1v1h-1zm14 0h1v1h-1zm24 0h1v1h-1zm39 0h1v1h-1zm6 0h1v1h-1zm11 0h1v1h-1zm56 0h1v1h-1zm150 0h1v1h-1zm-294 1h1v1h-1zm183 0h1v1h-1zm54 0h1v1h-1zm1 0h1v1h-1zm9 0h1v1h-1zm-64 1h1v1h-1zm-101 1h1v1h-1zm48 0h1v1h-1zm15 0h1v1h-1zm71 0h1v1h-1zm55 0h1v1h-1zm-275 1h1v1h-1zm87 0h1v1h-1zm69 0h1v1h-1zm23 0h1v1h-1zm9 0h1v1h-1zm-72 1h1v1h-1zm63 0h1v1h-1zm27 0h1v1h-1zm-117 1h1v1h-1zm61 0h1v1h-1zm69 0h1v1h-1zm28 0h1v1h-1zm55 0h1v1h-1zm-252 1h1v1h-1zm17 0h1v1h-1zm180 0h1v1h-1zm25 0h1v1h-1zm-213 1h1v1h-1zm-15 1h1v2h-1zm227 0h1v1h-1zm-23 1h1v1h-1zm55 0h1v1h-1zm-259 1h1v1h-1zm160 0h1v1h-1zm51 0h1v1h-1zm-259 1h1v1h-1zm62 0h1v1h-1zm119 0h1v1h-1zm47 0h1v1h-1zm46 0h1v1h-1zm-238 1h1v1h-1zm185 0h1v5h-1zm-191 1h1v1h-1zm39 0h1v1h-1zm126 0h1v1h-1zm0 1h1v1h-1zm18 0h1v1h-1zm-64 2h1v1h-1zm25 0h1v1h-1zm16 0h1v1h-1zm22 0h1v1h-1zm-93 1h28v1h-28zm28 0h1v1h-1zm32 0h1v1h-1zm17 0h1v1h-1zm25 0h1v1h-1zm9 0h27v1h-27zm27 0h1v1h-1zm-226 1h1v1h-1zm38 1h1v1h-1zm27 0h1v1h-1zm178 0h1v2h-1zm-254 1h1v1h-1zm42 0h1v1h-1zm55 0h1v1h-1zm56 0h1v1h-1zm-8 1h1v1h-1zm109 0h1v1h-1zm-179 1h1v1h-1zm115 0h1v1h-1zm90 0h1v1h-1zm7 0h1v1h-1zm-259 1h1v1h-1zm118 0h1v1h-1zm11 0h1v1h-1zm21 0h1v1h-1zm-135 1h1v1h-1zm113 2h1v1h-1zm-112 1h1v1h-1zm234 0h1v1h-1zm-131 1h1v1h-1zm36 0h1v1h-1zm94 0h1v1h-1zm-278 1h1v1h-1zm46 1h1v1h-1zm135 0h2v1h-2zm2 0h1v1h-1zm-136 1h1v1h-1zm188 0h1v1h-1zm-177 1h1v1h-1zm64 0h1v1h-1zm96 0h1v1h-1zm56 0h1v1h-1zm-207 1h1v1h-1zm141 0h1v1h-1zm12 0h1v1h-1zm9 0h1v1h-1zm54 0h1v1h-1zm-46 2h1v1h-1zm-233 1h1v1h-1zm141 0h1v1h-1zm9 0h1v1h-1zm106 0h1v1h-1zm-253 1h1v1h-1zm15 0h1v1h-1zm32 0h1v1h-1zm69 0h1v1h-1zm1 0h1v1h-1zm62 0h1v1h-1zm-119 1h1v1h-1zm52 0h2v1h-2zm2 0h1v1h-1zm98 0h1v1h-1zm10 0h1v1h-1z" fill="#003577"/><path d="M24 31h1v1h-1zm8 0h1v1h-1zm1 1h1v1h-1zm-11 2h1v1h-1zm0 1h1v1h-1zm12 0h1v2h-1zm0 2h1v1h-1zm199 12h1v61h-1zm171 0h1v24h-1zM82 53h43v1H82zm43 0h1v1h-1zm50 16h1v1h-1zm31 0h1v1h-1zm61 0h1v1h-1zm111 0h1v1h-1zm-219 1h1v1h-1zm19 0h1v1h-1zm42 0h1v1h-1zm50 0h1v1h-1zm73 0h1v1h-1zm20 0h1v1h-1zm-206 1h1v1h-1zm132 0h1v1h-1zm72 0h1v1h-1zm49 0h1v1h-1zm-210 1h1v1h-1zm49 0h1v1h-1zm-107 1h1v1h-1zm3 0h1v1h-1zm17 0h1v1h-1zm10 0h1v1h-1zm27 0h1v1h-1zm10 0h1v1h-1zm8 0h1v1h-1zm57 0h1v1h-1zm47 0h1v1h-1zm22 0h1v1h-1zm61 0h1v1h-1zm-274 1h1v1h-1zm11 0h1v1h-1zm18 0h1v1h-1zm39 0h1v1h-1zm27 0h1v1h-1zm42 0h1v1h-1zm140 0h1v1h-1zm5 0h1v1h-1zm-229 1h1v1h-1zm63 0h1v1h-1zm7 0h1v1h-1zm31 0h1v1h-1zm81 0h1v1h-1zm14 0h1v1h-1zm27 0h1v1h-1zm-161 1h1v1h-1zm7 0h1v1h-1zm58 0h1v1h-1zm4 0h1v1h-1zm28 0h1v1h-1zm5 0h1v1h-1zm9 0h1v1h-1zm-133 1h1v1h-1zm124 0h1v1h-1zm34 0h1v1h-1zm-203 1h1v1h-1zm66 0h1v1h-1zm41 0h1v1h-1zm6 0h1v1h-1zm27 0h1v1h-1zm118 0h1v1h-1zm-123 1h1v1h-1zm76 0h1v1h-1zm18 0h1v1h-1zm-228 1h1v1h-1zm64 0h1v1h-1zm29 0h1v1h-1zm74 0h1v1h-1zm84 0h1v1h-1zm-298 1h1v1h-1zm69 0h1v1h-1zm236 0h1v1h-1zm-145 1h1v1h-1zm32 0h1v1h-1zm65 0h1v1h-1zm-204 1h1v1h-1zm9 0h1v1h-1zm54 0h1v1h-1zm25 0h1v1h-1zm67 0h1v1h-1zm5 0h1v1h-1zm-160 1h1v1h-1zm57 0h1v1h-1zm45 0h1v1h-1zm97 0h1v1h-1zm21 0h1v1h-1zm-178 1h1v1h-1zm157 0h1v1h-1zm-59 1h1v1h-1zm34 0h1v1h-1zm-228 1h1v1h-1zm31 0h1v1h-1zm24 0h1v20h-1zm86 0h1v1h-1zm7 0h1v1h-1zm104 0h1v1h-1zm55 0h1v1h-1zm-308 1h1v2h-1zm27 0h2v1h-2zm2 0h1v1h-1zm162 0h1v1h-1zm69 0h1v2h-1zm-96 1h1v1h-1zm12 0h1v1h-1zm4 0h1v1h-1zm16 0h1v1h-1zm17 0h1v1h-1zm-213 1h1v1h-1zm38 0h1v1h-1zm1 0h1v1h-1zm8 0h1v1h-1zm1 0h1v1h-1zm212 0h1v1h-1zm14 0h1v2h-1zm-240 1h1v1h-1zm15 0h1v1h-1zm143 0h1v1h-1zm117 0h1v1h-1zm-278 1h1v1h-1zm148 0h1v1h-1zm18 0h1v1h-1zm15 0h1v1h-1zm62 0h1v1h-1zm34 0h1v1h-1zm-286 1h1v1h-1zm143 0h1v1h-1zm137 0h1v1h-1zm-109 1h1v1h-1zm-123 1h1v1h-1zm42 0h1v1h-1zm99 0h1v1h-1zm-184 1h1v1h-1zm37 0h1v1h-1zm48 0h1v1h-1zm6 0h1v1h-1zm48 0h1v1h-1zm32 0h1v1h-1zm8 0h1v1h-1zm17 1h1v1h-1zm78 0h1v1h-1zm-205 1h1v1h-1zm114 0h1v1h-1zm-190 1h1v1h-1zm29 0h1v1h-1zm128 0h1v1h-1zm53 0h1v1h-1zm-210 1h1v1h-1zm45 0h1v1h-1zm102 0h1v1h-1zm27 0h1v1h-1zm11 0h1v1h-1zm94 0h1v1h-1zm-251 1h1v1h-1zm25 0h1v1h-1zm122 0h1v1h-1zm14 0h1v1h-1zm-115 1h1v1h-1zm27 0h1v1h-1zm111 0h1v1h-1zm-110 1h1v1h-1zm41 0h1v1h-1zm135 0h1v1h-1zm-183 1h1v1h-1zm81 0h1v1h-1zm38 0h1v1h-1zm62 0h1v1h-1zm-275 1h1v1h-1zm124 0h1v1h-1zm31 0h1v1h-1zm26 0h1v1h-1zm52 0h1v1h-1zm42 0h1v1h-1zm-248 1h1v1h-1zm1 0h1v1h-1zm19 0h1v1h-1zm22 0h1v1h-1zm5 0h1v1h-1zm31 0h1v1h-1zm17 0h1v1h-1zm3 0h1v2h-1zm29 0h1v1h-1zm101 0h1v1h-1zm-254 1h1v1h-1zm25 0h1v1h-1zm3 0h1v1h-1zm6 0h1v1h-1zm13 0h1v1h-1zm19 0h1v1h-1zm40 0h1v1h-1zm4 0h1v1h-1zm8 0h1v1h-1zm57 0h1v1h-1zm54 0h1v1h-1zm42 0h1v1h-1zm-223 1h1v1h-1zm13 0h1v1h-1zm10 0h1v1h-1zm40 0h2v1h-2zm2 0h1v1h-1zm11 0h1v1h-1zm97 0h2v1h-2zm2 0h1v1h-1zm43 0h1v1h-1zm1 0h1v1h-1zm-265 1h1v1h-1zm21 0h1v1h-1zm26 0h1v1h-1zm160 0h1v1h-1zm-128 1h1v1h-1zm42 0h1v1h-1zm-173 1h4v1h-4zm4 0h1v1h-1zm20 0h3v1h-3zm3 0h1v1h-1zm29 0h1v1h-1zm13 0h1v1h-1zm10 0h2v1h-2zm2 0h2v1h-2zm2 0h1v1h-1zm20 0h1v1h-1zm13 0h1v1h-1zm12 0h2v1h-2zm2 0h1v1h-1zm23 0h1v1h-1zm41 0h7v1h-7zm7 0h1v1h-1zm26 0h5v1h-5zm5 0h1v1h-1zm32 0h1v1h-1zm17 0h1v1h-1zm16 0h3v1h-3zm3 0h1v1h-1zm12 0h1v1h-1zm-251 1h4v1h-4zm4 0h1v1h-1zm43 0h3v1h-3zm3 0h1v1h-1zm48 0h2v1h-2zm2 0h3v1h-3zm3 0h1v1h-1zm107 0h3v1h-3zm3 0h1v1h-1zm42 0h4v1h-4zm4 0h1v1h-1z" fill="#123e7b"/><g fill="#89d0eb"><path d="M34 5h1v1h-1zm-4 4h1v1h-1zm27 2h1v1h-1zm-10 1h1v1h-1zm9 1h1v1h-1zm29 20h1v3h-1zm1 0h1v3h-1z"/><path d="M84 34h3v2h-3zm3 0h1v2h-1zm-35 1h1v1h-1z"/><path d="M83 35h4v1h-4zm-30 1h1v1h-1zm31 0h3v1h-3zm3 0h1v1h-1zM2 46h1v1H2zm54 12h1v1h-1zM9 63h1v1H9zm48 0h1v1h-1zm7 4h1v1h-1zm10 5h1v4h-1zm-2 1h2v2h-2zm3 1h1v1h-1zm-44 1h1v1h-1z"/><path d="M72 75h3v1h-3zm3 0h1v1h-1zm-2 1h1v1h-1zm1 0h1v1h-1zm-38 1h1v1h-1zm1 0h1v1h-1zm2 1h1v1h-1zm-5 4h1v1h-1zm4 1h1v1h-1zm1 2h2v3h-2zm2 0h1v4h-1z"/><path d="M38 86h4v2h-4zm4 0h1v2h-1zm-4 2h4v1h-4zm4 0h1v1h-1zm-2 1h1v1h-1zm1 0h1v1h-1z"/></g><path d="M52 7h1v1h-1zm7 1h1v1h-1zm-2 4h1v1h-1zm-25 1h1v1h-1zm-4 3h1v1h-1zm49 14h1v1h-1zm-17 1h1v1h-1zm19 0h1v1h-1zm6 1h1v1h-1zm-5 1h1v1h-1zm-62 1h1v1h-1zm42 0h1v1h-1zm20 0h1v1h-1zm-10 1h1v1h-1zm9 1h1v1h-1zm4 0h1v1h-1zM46 52h1v1h-1zm3 5h1v1h-1zm3 0h1v1h-1zm-26 3h1v1h-1zm-13 1h1v1h-1zm-4 1h1v1H9zm54 0h1v1h-1zm-4 2h1v1h-1zm1 0h1v1h-1zm6 0h1v1h-1zm-54 6h1v1h-1zm25 0h1v1h-1zm38 2h1v1h-1zm0 4h1v1h-1zm-37 1h1v1h-1zm2 3h1v1h-1z" fill="#b3e0f2"/><path d="M55 7h1v1h-1zm8 1h1v1h-1zm-13 2h1v1h-1zm0 1h1v1h-1zm3 3h1v1h-1zm32 23h1v1h-1zm1 0h1v1h-1zM1 46h1v1H1zm54 6h1v1h-1zm0 1h1v1h-1zm8 5h1v1h-1zm-53 3h1v1h-1zm4 3h1v1h-1zm54 0h1v1h-1zm-4 2h1v1h-1zm-32 2h1v1h-1zm39 5h1v2h-1zm0 2h1v1h-1zm-37 3h1v1h-1z" fill="#9fd8ef"/><path d="M32 21h1v1h-1zm-2 2h1v1h-1zm11 4h1v1h-1zm-26 4h1v1h-1zm1 2h1v1h-1zm22 0h1v2h-1zm-26 1h1v1h-1zm26 1h1v1h-1zm-27 3h1v1h-1zm3 9h1v1h-1zm33 3h1v1h-1zm-24 3h1v1h-1zm27 4h1v1h-1z" fill="#7ed4eb"/><path d="M34 2h1v1h-1zm27 1h1v1h-1zm3 2h1v2h-1zM29 6h1v1h-1zm29 0h1v1h-1zm6 1h1v1h-1zm-4 2h1v1h-1zm-17 3h1v1h-1zm5 0h1v1h-1zm-21 4h1v1h-1zm23 1h1v1h-1zm-21 2h1v1h-1zm20 0h1v1h-1zm-28 2h1v1h-1zM7 22h1v1H7zm14 2h1v1h-1zm-7 1h1v1h-1zm-6 2h1v1H8zm3 0h2v1h-2zm2 0h1v1h-1zm11 0h1v1h-1zm35 2h1v1h-1zm19 1h1v1h-1zm-27 1h1v1h-1zm29 1h1v1h-1zm4 0h1v1h-1zm-67 1h1v1h-1zm32 0h1v2h-1zm0 2h1v1h-1zm31 0h1v1h-1zm-16 1h1v1h-1zM7 37h1v1H7zm47 0h1v1h-1zm33 0h1v1h-1zm-69 3h1v1h-1zM1 42h1v1H1zm9 0h1v1h-1zm10 0h1v1h-1zm7 3h1v1h-1zm1 0h1v1h-1zm6 0h1v2h-1zm-3 1h1v1h-1zm3 1h1v1h-1zm-20 1h1v1h-1zm35 0h1v1h-1zm3 0h1v1h-1zm-31 1h1v1h-1zm25 2h1v1h-1zm-20 5h1v1h-1zm28 0h1v1h-1zm1 4h1v1h-1zm-20 1h1v2h-1zm0 2h1v1h-1zm23 1h1v1h-1zm3 0h1v1h-1zm8 0h1v1h-1zM9 65h1v1H9zm3 4h1v1h-1zm18 0h1v1h-1zm-1 2h1v1h-1zm38 0h1v1h-1zm9 2h1v2h-1zm0 2h1v1h-1zm-44 1h1v1h-1zm41 1h1v1h-1zm-40 2h1v1h-1zm6 4h1v1h-1zm1 1h1v1h-1zm-3 3h1v1h-1zm1 2h1v1h-1z" fill="#e1f3fa"/><path d="M24 19h1v1h-1zm1 0h2v1h-2zm2 0h1v1h-1zm8 0h4v1h-4zm4 0h1v1h-1zm-13 1h1v1h-1zm8 0h1v1h-1zm-12 1h1v1h-1zm7 0h1v3h-1zm12 0h1v1h-1zm-19 1h1v2h-1zm0 2h1v1h-1zm7 0h1v1h-1zm-14 1h1v1h-1zm1 0h1v1h-1zm3 0h1v1h-1zm4 0h1v1h-1zm5 0h1v1h-1zm13 0h1v1h-1zm-17 1h3v1h-3zm3 0h1v1h-1zm6 0h1v1h-1zm8 0h1v1h-1zm-7 1h1v1h-1zm6 0h1v1h-1zm-26 1h1v1h-1zm22 0h2v1h-2zm2 0h1v1h-1zm-23 2h1v1h-1zm5 0h1v1h-1zm21 0h1v1h-1zm5 0h1v1h-1zm-30 1h3v1h-3zm3 0h1v1h-1zm21 0h1v1h-1zm7 0h1v1h-1zm-8 1h1v1h-1zm0 1h1v1h-1zm9 0h1v2h-1zm-31 1h1v1h-1zm-5 1h1v1h-1zm6 0h1v1h-1zm30 0h1v1h-1zm-9 1h1v1h-1zm8 1h1v1h-1zm-29 1h1v1h-1zm28 0h1v1h-1zm-34 1h1v1h-1zm2 1h2v1h-2zm2 0h1v1h-1zm21 2h1v1h-1zm4 0h1v1h-1zm1 0h1v1h-1zm-26 1h1v1h-1zm4 0h1v1h-1zm16 0h1v1h-1zm7 0h1v1h-1zm-28 1h1v1h-1zm6 0h1v1h-1zm23 0h1v2h-1zm-23 1h1v2h-1zm14 0h1v2h-1zm-6 1h1v1h-1zm15 0h1v2h-1zm-23 1h1v1h-1zm4 0h1v1h-1zm10 0h1v1h-1zm-20 1h1v1h-1zm9 0h1v1h-1zm20 0h1v1h-1zm-28 1h3v1h-3zm3 0h1v1h-1zm13 0h1v1h-1zm4 0h1v1h-1zm5 0h2v1h-2zm2 0h1v1h-1zm-20 1h1v1h-1zm19 0h1v1h-1zm-19 1h1v1h-1zm9 1h1v1h-1zm-8 1h1v1h-1zm8 0h1v1h-1zm-1 1h1v1h-1zm-5 1h1v1h-1zm1 0h2v1h-2zm2 0h1v1h-1z" fill="#00b3de"/><path d="M25 29h1v1h-1zm10 9h1v1h-1zm-1 2h1v1h-1zm-10 2h1v1h-1zm119 25h1v1h-1zm25 0h1v1h-1zm1 0h1v1h-1zm42 0h1v1h-1zm209 0h1v1h-1zm-282 1h1v1h-1zm80 0h1v1h-1zm-95 1h1v42h-1zm31 5h1v1h-1zm202 0h1v1h-1zm-217 1h1v1h-1zm65 3h1v1h-1zm46 3h1v1h-1zm43 0h1v1h-1zm137 2h1v1h-1zm9 1h1v1h-1zm-271 1h6v1h-6zm6 0h1v1h-1zm98 0h1v1h-1zm-46 2h1v1h-1zm79 1h1v1h-1zm16 4h1v1h-1zm-171 2h1v1h-1zm-1 3h1v1h-1zm279 4h1v1h-1zm-40 2h1v1h-1zm-182 1h1v1h-1zm66 1h1v1h-1zm-26 2h1v1h-1zm1 1h1v1h-1zm-124 3h1v1h-1zm255 2h1v1h-1z" fill="#8394b3"/><path d="M29 29h1v1h-1zm-6 2h1v1h-1zm103 22h1v1h-1zm81 15h1v1h-1zm160 0h1v1h-1zm-243 1h1v1h-1zm95 0h1v1h-1zm190 2h1v1h-1zm-196 2h1v1h-1zm34 0h1v1h-1zm14 0h1v1h-1zm126 2h1v1h-1zm48 0h1v1h-1zm-231 2h1v1h-1zm137 0h1v1h-1zm-146 1h1v1h-1zm-10 1h1v1h-1zm94 3h1v1h-1zm-78 1h1v1h-1zm230 2h1v1h-1zm-267 1h1v1h-1zm275 3h1v1h-1zm-285 1h1v1h-1zm285 0h1v1h-1zm-159 1h1v1h-1zm111 0h1v1h-1zm-39 5h1v1h-1zm-103 1h1v1h-1zm181 1h1v1h-1zm-205 1h1v1h-1zm73 2h1v1h-1zm36 0h1v1h-1zm-58 3h1v1h-1zm111 0h1v1h-1zm23 0h1v1h-1zm-246 3h1v1h-1zm5 0h1v1h-1zm240 2h1v1h-1zm-223 1h1v1h-1zm109 1h1v1h-1zm-136 1h1v1h-1zm47 0h1v1h-1zm209 0h1v1h-1z" fill="#002a72"/><g fill="#fff"><path d="M0 0h440v1H0zm440 0h1v85h-1zM0 1h29v6H0zm29 0h1v1h-1zm5 0h406v1H34zm1 1h405v1H35zm0 1h25v1H35zm25 0h1v1h-1zm3 0h377v1H63zM35 4h23v2H35zm23 0h1v1h-1zm6 0h376v1H64zm1 1h375v1H65zM35 6h22v1H35zm22 0h1v1h-1zm8 0h375v21H65zM0 7h30v1H0zm30 0h1v1h-1zm3 0h18v1H33zm18 0h1v1h-1zm6 0h1v1h-1zM0 8h27v1H0zm27 0h1v1h-1zm3 0h20v1H30zm20 0h1v1h-1zm8 0h1v20h-1z"/><path d="M64 8h376v19H64zM0 9h25v2H0zm25 0h1v1h-1zm7 0h17v1H32zm17 0h1v3h-1zm10 0h1v3h-1z"/><path d="M63 9h377v18H63zm-31 1h17v1H32z"/><path d="M60 10h380v17H60zM0 11h24v6H0zm24 0h1v6h-1zm9 0h8v1h-8zm8 0h8v1h-8zm-8 1h9v1h-9zm9 0h1v1h-1zm7 0h1v1h-1z"/><path d="M59 12h381v15H59zm-26 1h8v1h-8zm8 0h1v1h-1zm9 0h1v1h-1zm-17 1h7v3h-7zm7 0h1v4h-1zm10 0h1v1h-1zm1 0h1v16h-1z"/><path d="M56 14h384v13H56zm-31 1h1v2h-1zm7 0h1v4h-1z"/><path d="M52 15h388v1H52zm-26 1h1v1h-1zm5 0h9v1h-9zM0 17h40v1H0zm52 0h1v12h-1zm1 0h387v10H53zM0 18h20v2H0zm20 0h3v1h-3zm3 0h1v1h-1zm5 0h6v1h-6zm6 0h1v1h-1zm6 0h1v1h-1zm1 0h1v1h-1z"/><path d="M50 18h390v9H50zm-30 1h2v1h-2zm2 0h1v1h-1zm8 0h2v1h-2zm2 0h1v1h-1zm9 0h1v1h-1zM0 20h21v1H0zm21 0h1v1h-1zm9 0h1v1h-1zm1 0h1v2h-1zm11 0h1v1h-1z"/><path d="M49 20h391v7H49zM0 21h8v1H0zm8 0h1v1H8zm3 0h7v1h-7zm7 0h2v2h-2zm2 0h1v3h-1z"/><path d="M43 21h397v1H43zM0 22h6v12H0zm6 0h1v15H6zm7 0h7v1h-7zm18 0h1v1h-1zm12 0h397v1H43zm-30 1h7v1h-7zm31 0h396v4H44zm-31 1h1v2h-1zm1 0h1v1h-1zm6 0h1v1h-1zm1 1h1v1h-1zm9 0h1v3h-1zm1 0h1v3h-1z"/><path d="M43 25h397v2H43zm-30 1h1v1h-1zm-6 1h1v9H7zm15 0h1v3h-1zm1 0h1v2h-1zm5 0h4v1h-4zm4 0h1v1h-1zm10 0h398v1H42zM8 28h4v1H8zm4 0h1v5h-1zm12 0h2v1h-2zm2 0h1v1h-1zm4 0h3v1h-3zm3 0h1v1h-1zm8 0h6v1h-6zm6 0h6v1h-6zm6 0h1v1h-1zm5 0h3v1h-3zm3 0h17v1H61zm17 0h1v1h-1zm3 0h359v3H81zM8 29h4v5H8zm15 0h1v1h-1zm10 0h2v1h-2zm2 0h1v2h-1zm4 0h1v1h-1zm1 0h1v1h-1zm7 0h5v1h-5zm5 0h1v1h-1zm8 0h3v1h-3zm3 0h1v1h-1z"/><path d="M70 29h370v1H70zm-57 1h1v2h-1zm9 0h1v1h-1zm12 0h4v1h-4zm4 0h1v1h-1zm10 0h3v1h-3zm3 0h1v1h-1zm10 0h1v25h-1zm1 0h1v26h-1zm9 0h3v1h-3zm3 0h1v1h-1zm5 0h361v1H79zm-65 1h1v1h-1zm7 0h1v1h-1zm14 0h3v1h-3zm3 0h1v1h-1zm11 0h1v1h-1zm1 0h1v16h-1zm21 0h2v1h-2zm2 0h1v1h-1zm7 0h360v1H80zm-67 1h2v1h-2zm2 0h1v1h-1zm4 0h1v2h-1zm1 0h1v2h-1zm16 0h1v2h-1zm1 0h1v8h-1zm12 0h1v1h-1zm23 0h1v39h-1zm9 0h2v4h-2zm2 0h1v1h-1zm5 0h352v1H88zm-76 1h1v1h-1z"/><path d="M18 33h2v1h-2zm70 0h352v1H88zM0 34h11v2H0zm11 0h1v1h-1zm8 0h1v1h-1zm1 0h1v1h-1zm16 0h1v1h-1zm35 0h1v29h-1zm18 0h351v12H89zm-38 1h1v12h-1zm9 0h2v20h-2zM0 36h10v1H0zm10 0h1v2h-1z"/><path d="M49 36h3v8h-3zm3 0h1v9h-1zm11 0h1v21h-1zm7 0h3v27h-3zm3 0h1v31h-1zm7 0h2v1h-2zm2 0h1v15h-1zM0 37h3v4H0zm3 0h3v1H3zm3 0h1v1H6zm3 0h1v1H9zm27 0h2v3h-2zm2 0h1v3h-1zm15 0h1v11h-1z"/><path d="M58 37h7v18h-7zm7 0h1v21h-1zm3 0h6v26h-6zm6 0h1v33h-1zm5 0h1v76h-1zm1 0h3v11h-3zm3 0h1v14h-1zm5 0h352v9H88zM3 38h1v4H3zm1 0h1v1H4zm6 0h1v1h-1zm10 0h1v3h-1z"/><path d="M48 38h31v6H48zm36 0h356v8H84zm-65 1h1v2h-1zm20 0h1v1h-1zm1 0h1v1h-1z"/><path d="M47 39h393v5H47zm-36 1h1v12h-1zm10 0h1v2h-1z"/><path d="M35 40h405v1H35zM0 41h3v1H0zm12 0h1v10h-1zm5 0h4v1h-4zm17 0h2v1h-2zm2 0h1v1h-1zm7 0h397v1H43zM0 42h1v1H0zm3 0h1v1H3zm1 0h1v1H4zm9 0h2v1h-2zm2 0h1v1h-1zm6 0h2v1h-2zm2 0h1v5h-1zm10 0h2v2h-2zm2 0h1v1h-1zm9 0h396v1H44zM4 43h1v1H4z"/><path d="M10 43h4v8h-4zm4 0h1v1h-1zm8 0h2v1h-2zm2 0h1v3h-1zm8 0h2v3h-2zm13 0h395v1H45z"/><path d="M5 44h8v7H5zm20 0h9v1h-9zm9 0h1v1h-1zm12 0h394v1H46zm-21 1h1v1h-1zm1 0h1v1h-1zm4 0h3v1h-3zm16 0h2v4h-2zm2 0h392v1H48zM0 46h1v67H0z"/><path d="M4 46h9v5H4zm20 0h1v1h-1zm8 0h1v1h-1zm1 0h1v2h-1zm15 0h3v1h-3zm6 0h386v1H54z"/><path d="M1 47h12v4H1zm22 0h1v1h-1zm25 0h177v1H48zm177 0h1v24h-1zm10 0h161v19H235zm161 0h1v66h-1zm10 0h1v1h-1zm1 0h33v19h-33zM22 48h1v1h-1zm11 0h1v1h-1zm1 0h1v10h-1zm14 0h1v1h-1zm5 0h172v1H53zm-39 1h1v1h-1zm8 0h1v1h-1zm23 0h2v1h-2zm2 0h1v1h-1zm7 0h25v1H54zm27 0h144v2H81zm-67 1h1v1h-1zm1 0h1v1h-1zm5 0h1v1h-1zm1 0h1v3h-1zm14 0h1v10h-1zm10 0h1v35h-1zm1 0h1v1h-1z"/><path d="M55 50h170v1H55zM1 51h12v1H1zm12 0h8v1h-8zm23 0h1v17h-1zm7 0h2v34h-2zm13 0h169v1H56zM1 52h10v2H1zm10 0h1v1h-1zm6 0h2v1h-2zm2 0h3v1h-3zm3 0h1v61h-1zm15 0h2v17h-2z"/><path d="M39 52h6v25h-6zm17 0h21v3H56zm21 0h2v18h-2zm51 0h97v14h-97zM18 53h4v60h-4zM1 54h9v7H1zm9 0h1v6h-1z"/><path d="M33 54h12v3H33zm-10 1h1v58h-1z"/><path d="M32 55h14v2H32zm14 0h1v58h-1zm10 0h23v1H56zm-32 1h1v57h-1zm1 0h1v57h-1z"/><path d="M31 56h15v1H31zm24 0h2v1h-2zm2 0h1v1h-1zm5 0h17v1H62zm-36 1h3v1h-3zm3 0h1v1h-1zm3 0h16v1H32zm16 0h1v56h-1zm5 0h2v56h-2zm2 0h1v1h-1zm8 0h2v1h-2zm4 0h12v6H67zm-56 1h1v2h-1zm6 0h9v3h-9zm9 0h1v1h-1z"/><path d="M34 58h21v1H34zm21 0h1v1h-1zm9 0h1v6h-1zm1 0h14v2H65zm-53 1h1v1h-1zm1 0h13v1H13zm13 0h1v1h-1zm21 0h7v54h-7zm-37 1h15v1H10z"/><path d="M35 60h19v1H35zm30 0h33v1H65zm33 0h1v53h-1zm11 0h116v6H109zM1 61h8v5H1zm8 0h1v1H9zm5 0h11v1H14zm52 0h32v2H66zm-51 1h1v51h-1zm40 0h1v51h-1zm-39 1h9v50h-9zm47 0h35v1H63z"/><path d="M35 64h22v3H35zm22 0h1v49h-1zm5 0h2v7h-2zm2 0h1v1h-1zm6 0h28v1H70zm-44 1h1v48h-1z"/><path d="M58 65h5v48h-5zm13 0h27v1H71zM1 66h8v2H1zm8 0h1v1H9zm5 0h13v47H14zm13 0h1v47h-1z"/><path d="M34 66h29v1H34zm37 0h27v1H71zm38 0h116v1H109zm126 0h161v1H235zm172 0h33v1h-33zM9 67h54v1H9zm64 0h25v2H73zm36 0h22v1h-22zm22 0h8v1h-8zm8 0h1v1h-1zm9 0h9v1h-9zm9 0h6v1h-6zm6 0h1v1h-1zm12 0h31v1h-31zm31 0h1v1h-1zm11 0h2v1h-2zm2 0h6v1h-6zm16 0h21v1h-21zm21 0h1v1h-1zm11 0h56v1h-56zm56 0h43v1h-43zm43 0h1v1h-1zm11 0h19v1h-19zm30 0h8v1h-8zm8 0h1v1h-1zm11 0h14v1h-14zM1 68h7v45H1zm7 0h1v1H8zm4 0h18v1H12zm18 0h1v1h-1zm6 0h27v1H36zm35 0h1v3h-1zm38 0h13v45h-13zm13 0h1v45h-1zm10 0h4v1h-4zm4 0h1v1h-1zm13 0h6v2h-6zm6 0h4v1h-4zm4 0h1v1h-1zm19 0h25v1h-25zm25 0h1v1h-1zm17 0h5v1h-5zm15 0h17v1h-17zm17 0h1v1h-1zm18 0h10v1h-10zm10 0h1v13h-1zm11 0h19v3h-19zm19 0h1v1h-1zm12 0h20v1h-20zm20 0h1v1h-1zm10 0h11v1h-11zm11 0h1v1h-1zm18 0h15v1h-15zm26 0h4v1h-4zm4 0h1v1h-1zm18 0h2v1h-2zm2 0h9v1h-9zM13 69h16v4H13zm16 0h1v1h-1zm8 0h26v1H37zm36 0h25v1H73zm59 0h2v1h-2zm2 0h1v1h-1zm21 0h1v1h-1zm1 0h1v1h-1zm24 0h21v1h-21zm21 0h1v1h-1zm21 0h3v1h-3zm13 0h15v1h-15zm15 0h1v1h-1zm22 0h8v1h-8zm38 0h1v1h-1zm12 0h20v1h-20zm20 0h1v1h-1zm10 0h9v1h-9zm9 0h1v1h-1zm22 0h13v1h-13zm24 0h2v1h-2zm2 0h1v1h-1zm22 0h9v1h-9zM29 70h1v1h-1zm9 0h26v1H38zm26 0h1v43h-1z"/><path d="M70 70h5v1h-5zm5 0h23v1H75zm57 0h1v1h-1zm1 0h1v1h-1zm16 0h5v8h-5zm5 0h1v1h-1zm28 0h17v1h-17zm17 0h1v1h-1zm24 0h2v1h-2zm12 0h9v6h-9zm9 0h4v1h-4zm4 0h1v1h-1zm26 0h6v1h-6zm49 0h18v1h-18zm18 0h1v2h-1zm11 0h7v1h-7zm7 0h1v1h-1zm25 0h12v1h-12zm23 0h1v1h-1zm1 0h1v1h-1zm24 0h8v1h-8zM38 71h28v5H38zm28 0h1v42h-1zm3 0h3v1h-3zm3 0h1v1h-1zm3 0h1v1h-1zm1 0h22v1H76zm56 0h1v1h-1zm51 0h15v1h-15zm15 0h1v1h-1zm27 0h1v1h-1zm20 0h2v1h-2zm2 0h1v1h-1zm28 0h5v1h-5zm16 0h18v1h-18zm18 0h1v2h-1zm14 0h16v1h-16zm16 0h2v5h-2zm12 0h7v1h-7zm7 0h1v1h-1zm28 0h10v1h-10zm21 0h1v1h-1zm26 0h7v1h-7zM8 72h1v41H8zm4 0h16v41H12zm55 0h3v41h-3zm3 0h1v6h-1zm6 0h22v1H76zm108 0h13v1h-13zm13 0h1v1h-1zm47 0h2v1h-2zm2 0h1v1h-1zm30 0h5v1h-5zm5 0h1v14h-1zm11 0h17v3h-17zm31 0h15v1h-15z"/><path d="M338 72h3v4h-3zm3 0h1v1h-1zm10 0h6v1h-6zm6 0h1v1h-1zm30 0h9v1h-9zm19 0h1v1h-1zm28 0h6v1h-6zM9 73h19v40H9zm19 0h1v40h-1zm49 0h21v40H77zm108 0h11v1h-11zm11 0h1v1h-1zm48 0h1v1h-1zm1 0h1v1h-1zm32 0h4v1h-4zm32 0h1v1h-1z"/><path d="M324 73h16v3h-16zm27 0h5v1h-5zm5 0h1v1h-1zm32 0h8v1h-8zm47 0h5v1h-5zM29 74h1v39h-1zm156 0h10v1h-10zm10 0h1v1h-1zm49 0h1v1h-1zm33 0h4v1h-4zm73 0h2v9h-2zm2 0h3v1h-3zm3 0h1v1h-1zm33 0h2v1h-2zm2 0h6v4h-6zm46 0h4v1h-4zM37 75h33v1H37zm104 0h5v38h-5zm5 0h1v38h-1zm16 0h10v9h-10zm10 0h1v9h-1zm14 0h9v2h-9zm9 0h1v1h-1zm14 0h8v30h-8zm8 0h1v30h-1zm40 0h8v10h-8zm8 0h1v10h-1zm13 0h4v1h-4zm4 0h1v2h-1zm10 0h16v1h-16zm16 0h1v1h-1zm44 0h2v2h-2zm2 0h1v1h-1zm13 0h8v10h-8zm8 0h1v10h-1z"/><path d="M389 75h7v1h-7zm25 0h8v30h-8zm8 0h1v30h-1zm15 0h3v1h-3zM30 76h1v37h-1zm1 0h1v37h-1zm5 0h34v1H36zm40 0h22v37H76zm63 0h3v37h-3zm8 0h6v2h-6zm12 0h10v8h-10zm14 0h1v8h-1zm1 0h1v8h-1zm33 0h12v28h-12zm12 0h1v28h-1zm16 0h8v2h-8zm8 0h1v1h-1zm12 0h11v9h-11zm11 0h1v9h-1zm13 0h3v1h-3zm14 0h15v2h-15zm15 0h1v1h-1zm16 0h16v1h-16zm16 0h1v1h-1zm26 0h7v9h-7zm10 0h1v9h-1zm1 0h1v9h-1zm12 0h7v1h-7z"/><path d="M413 76h11v25h-11zm11 0h1v28h-1zm13 0h3v1h-3zM32 77h2v1h-2zm2 0h1v1h-1zm5 0h33v1H39zm33 0h1v36h-1zm3 0h23v36H75zm63 0h15v1h-15zm19 0h18v7h-18zm18 0h1v7h-1zm11 0h8v1h-8zm8 0h1v1h-1zm12 0h14v1h-14zm14 0h1v1h-1zm34 0h14v8h-14zm14 0h1v8h-1zm11 0h3v1h-3zm3 0h1v36h-1zm43 0h14v1h-14zm14 0h1v2h-1zm10 0h4v2h-4zm4 0h1v1h-1zm12 0h13v8h-13zm13 0h1v8h-1z"/><path d="M411 77h14v1h-14zm14 0h1v24h-1zm13 0h2v1h-2zM32 78h1v35h-1zm1 0h1v1h-1zm8 0h29v5H41zm29 0h28v35H70zm66 0h17v12h-17zm17 0h1v11h-1zm3 0h20v6h-20zm20 0h1v6h-1zm11 0h6v5h-6zm6 0h1v1h-1zm12 0h16v24h-16zm16 0h1v24h-1zm14 0h7v2h-7zm7 0h1v1h-1zm11 0h15v7h-15zm30 0h1v35h-1zm10 0h14v1h-14zm14 0h1v1h-1zm9 0h1v35h-1zm9 0h14v1h-14zm39 0h15v7h-15zm15 0h1v7h-1zm11 0h6v1h-6z"/><path d="M410 78h16v23h-16zm16 0h1v24h-1zm12 0h2v1h-2zm-284 1h22v5h-22zm39 0h1v1h-1zm11 0h1v21h-1zm18 0h1v20h-1zm30 0h17v6h-17zm17 0h1v1h-1zm25 0h13v2h-13zm13 0h1v1h-1zm8 0h1v34h-1zm10 0h1v1h-1zm1 0h13v3h-13zm13 0h1v1h-1zm10 0h3v4h-3zm3 0h1v1h-1zm11 0h15v6h-15zm17 0h1v6h-1zm11 0h5v2h-5zm36 0h1v22h-1zm12 0h1v1h-1z"/><path d="M135 80h41v2h-41zm88 0h1v20h-1zm12 0h6v3h-6zm6 0h1v1h-1zm28 0h1v5h-1zm1 0h1v5h-1zm78 0h3v3h-3zm14 0h18v5h-18zm47 0h19v20h-19zm19 0h1v19h-1zm11 0h1v1h-1z"/><path d="M134 81h43v1h-43zm43 0h1v3h-1zm26 0h20v3h-20zm48 0h17v4h-17zm29 0h3v1h-3zm14 0h12v1h-12zm12 0h1v2h-1zm11 0h1v6h-1zm64 0h1v4h-1zm10 0h5v1h-5zM33 82h1v31h-1zm101 0h43v2h-43zm150 0h1v31h-1zm11 0h11v4h-11zm31 0h12v1h-12zm12 0h1v1h-1zm54 0h4v3h-4zm16 0h21v17h-21zm21 0h1v15h-1zM40 83h58v1H40zm147 0h5v15h-5zm5 0h1v1h-1zm32 0h1v15h-1zm11 0h5v30h-5zm5 0h1v1h-1zm31 0h1v2h-1zm35 0h1v1h-1zm8 0h3v30h-3zm13 0h11v2h-11zm11 0h1v1h-1zm9 0h4v1h-4zm4 0h1v1h-1zm10 0h20v2h-20zM34 84h1v29h-1zm1 0h1v29h-1zm7 0h56v1H42zm91 0h44v1h-44zm44 0h1v1h-1zm25 0h22v8h-22z"/><path d="M250 84h21v1h-21zm97 0h3v1h-3zm3 0h1v29h-1zm57 0h22v13h-22zM36 85h1v28h-1zm1 0h1v1h-1zm6 0h55v1H43zm90 0h30v1h-30zm30 0h1v1h-1zm87 0h21v1h-21zm21 0h1v1h-1zm14 0h1v28h-1zm33 0h1v3h-1zm9 0h10v1h-10zm10 0h1v1h-1zm10 0h1v28h-1zm1 0h2v28h-2zm13 0h21v1h-21zm21 0h1v1h-1zm10 0h4v28h-4zm48 0h1v1h-1zM44 86h54v27H44zm89 0h26v1h-26zm26 0h1v1h-1zm66 0h1v8h-1zm56 0h4v1h-4zm14 0h10v1h-10zm10 0h1v1h-1zm8 0h5v1h-5zm15 0h9v3h-9zm9 0h1v1h-1zm9 0h1v27h-1zm-213 1h23v1h-23zm23 0h1v1h-1zm140 0h8v2h-8zm8 0h1v2h-1zm9 0h5v26h-5zM37 88h1v25h-1zm95 0h22v1h-22zm22 0h1v1h-1zm132 0h1v25h-1zm32 0h1v25h-1zm1 0h1v25h-1zm111 0h1v4h-1z"/><path d="M43 89h55v24H43zm89 0h21v1h-21zm21 0h1v1h-1zm143 0h8v1h-8zm8 0h1v1h-1zm24 0h8v1h-8zm8 0h1v1h-1zm9 0h5v24h-5zM38 90h1v23h-1z"/><path d="M39 90h59v23H39zm93 0h20v1h-20zm20 0h1v1h-1zm135 0h1v23h-1zm10 0h6v2h-6zm6 0h1v2h-1zm9 0h7v3h-7zm17 0h6v1h-6zm6 0h1v3h-1zm-203 1h19v1h-19zm19 0h1v1h-1zm169 0h1v22h-1zm9 0h6v1h-6zm-197 1h18v2h-18zm18 0h1v1h-1zm17 0h10v9h-10zm10 0h1v6h-1zm25 0h23v2h-23zm95 0h6v1h-6zm6 0h1v1h-1zm26 0h6v1h-6zm15 0h6v21h-6zm86 0h1v1h-1z"/><path d="M164 93h5v13h-5zm86 0h37v3h-37zm48 0h4v3h-4zm4 0h1v2h-1zm9 0h9v20h-9zm19 0h5v2h-5zm5 0h1v1h-1zm26 0h35v3h-35zm-229 1h17v13h-17zm17 0h1v1h-1z"/><path d="M162 94h15v7h-15zm40 0h23v2h-23zm23 0h1v1h-1zm63 0h1v19h-1zm33 0h1v19h-1zm119 0h1v19h-1z"/><path d="M160 95h17v6h-17zm142 0h1v1h-1zm28 0h4v1h-4zm4 0h1v1h-1zm-132 1h22v1h-22zm38 0h1v17h-1zm10 0h38v1h-38zm48 0h3v1h-3zm3 0h1v2h-1zm9 0h11v17h-11zm21 0h3v2h-3zm3 0h1v1h-1zm9 0h7v17h-7zm18 0h35v1h-35z"/><path d="M159 97h18v4h-18zm33 0h1v3h-1zm11 0h21v1h-21zm48 0h38v1h-38zm38 0h1v16h-1zm10 0h2v3h-2zm52 0h1v16h-1zm11 0h34v2h-34zm45 0h22v1h-22zm22 0h1v1h-1zm-252 1h1v1h-1zm10 0h5v12h-5zm16 0h21v1h-21zm21 0h1v1h-1zm27 0h38v1h-38zm50 0h1v1h-1zm21 0h1v15h-1zm9 0h2v1h-2zm2 0h1v1h-1z"/><path d="M158 99h18v1h-18zm64 0h1v2h-1zm30 0h37v1h-37zm80 0h1v3h-1zm1 0h1v1h-1zm9 0h9v14h-9zm20 0h34v1h-34zm46 0h20v1h-20zm20 0h1v1h-1zm11 0h1v14h-1zm-281 1h18v1h-18zm34 0h1v13h-1zm1 0h1v13h-1zm11 0h17v1h-17zm19 0h1v1h-1zm18 0h1v13h-1zm11 0h38v1h-38zm38 0h1v13h-1zm9 0h1v1h-1zm1 0h1v2h-1zm9 0h13v2h-13zm54 0h33v1h-33zm46 0h18v1h-18zm-250 1h17v1h-17zm17 0h1v1h-1zm46 0h1v1h-1zm31 0h37v1h-37zm70 0h1v12h-1zm29 0h1v12h-1zm12 0h32v1h-32zm46 0h17v1h-17zm17 0h1v1h-1zm-268 1h16v1h-16zm16 0h1v1h-1zm30 0h16v1h-16zm16 0h1v1h-1zm33 0h22v1h-22zm22 0h14v1h-14zm24 0h1v1h-1zm9 0h14v11h-14zm23 0h1v1h-1z"/><path d="M341 102h11v11h-11zm24 0h22v1h-22zm22 0h9v1h-9zm23 0h12v1h-12zm16 0h1v1h-1zm12 0h2v11h-2zm-278 1h14v1h-14zm14 0h1v1h-1zm20 0h1v4h-1zm12 0h14v1h-14zm14 0h1v1h-1zm22 0h1v10h-1zm13 0h1v1h-1zm1 0h19v1h-19zm19 0h1v1h-1zm3 0h13v10h-13zm13 0h1v10h-1zm17 0h15v10h-15zm45 0h1v2h-1zm13 0h1v1h-1zm1 0h1v1h-1zm3 0h15v1h-15zm15 0h1v1h-1zm4 0h7v10h-7zm22 0h14v1h-14zm14 0h1v1h-1zm-264 1h12v1h-12zm12 0h1v1h-1zm34 0h12v1h-12zm12 0h1v1h-1zm38 0h15v1h-15zm15 0h1v1h-1zm52 0h1v9h-1z"/><path d="M340 104h13v9h-13zm27 0h16v1h-16zm16 0h1v1h-1zm29 0h12v1h-12zm12 0h1v1h-1zm13 0h3v9h-3zm-288 1h1v8h-1zm13 0h9v1h-9zm9 0h1v1h-1zm24 0h1v8h-1zm14 0h9v1h-9zm9 0h1v1h-1zm25 0h1v8h-1zm15 0h12v1h-12zm12 0h1v1h-1zm83 0h1v8h-1zm1 0h1v8h-1zm15 0h11v1h-11zm11 0h1v1h-1zm34 0h9v1h-9zm9 0h1v1h-1zm-259 1h4v1h-4zm4 0h1v1h-1zm43 0h4v1h-4zm4 0h1v1h-1zm29 0h1v7h-1zm17 0h5v1h-5zm5 0h1v1h-1zm26 0h1v7h-1zm15 0h17v7h-17zm48 0h1v7h-1zm17 0h5v1h-5zm5 0h1v1h-1zm40 0h3v1h-3zm3 0h1v1h-1z"/><path d="M436 106h4v7h-4zm-304 1h17v6h-17zm62 0h2v6h-2zm2 0h1v6h-1zm49 0h1v6h-1zm80 0h1v6h-1zm31 0h1v6h-1z"/><path d="M435 107h5v6h-5zm-285 1h1v5h-1zm47 0h1v5h-1zm29 0h1v1h-1zm20 0h1v5h-1zm93 0h18v5h-18zm18 0h1v5h-1zm49 0h1v5h-1zm-255 1h1v4h-1zm27 0h1v4h-1zm20 0h1v4h-1zm27 0h1v4h-1zm22 0h1v4h-1zm46 0h1v4h-1zm13 0h19v4h-19zm52 0h1v4h-1zm49 0h1v4h-1z"/><path d="M434 109h6v4h-6zm-282 1h1v3h-1zm25 0h1v2h-1zm10 0h12v1h-12zm12 0h1v3h-1zm25 0h1v3h-1zm24 0h1v3h-1zm111 0h1v3h-1zm49 0h1v3h-1z"/><path d="M432 110h8v3h-8zm-279 1h1v2h-1zm22 0h3v1h-3zm13 0h12v2h-12zm12 0h1v2h-1zm22 0h3v2h-3zm27 0h1v2h-1zm1 0h1v2h-1zm76 0h1v2h-1zm12 0h23v2h-23zm23 0h1v2h-1zm48 0h1v2h-1z"/><path d="M431 111h9v2h-9zm-277 1h1v1h-1zm1 0h1v1h-1zm19 0h4v1h-4zm27 0h1v1h-1zm1 0h1v1h-1zm19 0h4v1h-4zm30 0h1v1h-1zm1 0h1v1h-1zm23 0h19v1h-19zm19 0h1v1h-1zm68 0h1v1h-1zm24 0h10v1h-10zm24 0h1v1h-1zm1 0h1v1h-1z"/><path d="M429 112h11v1h-11zM0 113h158v1H0zm158 0h1v1h-1zm13 0h5v1h-5zm5 0h28v1h-28zm28 0h1v1h-1zm14 0h37v1h-37zm37 0h1v1h-1zm17 0h93v1h-93zm93 0h1v1h-1zm18 0h30v1h-30zm30 0h1v1h-1zm14 0h13v1h-13zm13 0h1v1h-1z"/></g><path d="M26 9h1v1h-1zm-1 1h1v1h-1zm7 1h1v1h-1zm18 1h1v1h-1zm-8 1h1v1h-1zm13 1h1v1h-1zm-14 3h1v1h-1zm-6 1h1v1h-1zm4 0h1v1h-1zM7 26h1v1H7zm35 0h1v1h-1zm-6 3h2v1h-2zm2 0h1v1h-1zm31 0h1v1h-1zm-21 2h1v1h-1zm26 0h1v1h-1zm-57 1h1v1h-1zm1 0h1v1h-1zm68 0h1v1h-1zm-73 1h1v1h-1zm60 0h1v1h-1zm10 0h1v1h-1zm-10 1h1v1h-1zm-62 1h1v1h-1zm77 0h1v1h-1zm-12 2h1v1h-1zm-66 2h1v1h-1zm36 0h1v1h-1zM4 41h1v1H4zm12 0h1v1h-1zm0 1h1v1h-1zm-2 2h1v1h-1zm23 7h1v1h-1zm18 0h1v1h-1zm-44 6h1v1h-1zm6 0h1v1h-1zm-1 1h1v1h-1zm10 6h1v1h-1zm14 15h1v1h-1zm-7 1h1v1h-1z" fill="#caebf5"/><path d="M57 9h1v1h-1zM9 27h1v1H9zm1 0h1v1h-1zm16 0h1v1h-1zm14 1h1v1h-1zm-21 8h1v1h-1zm37 1h1v1h-1zm-41 4h1v1h-1zm6 2h1v1h-1zm1 2h1v1h-1zm0 1h1v1h-1zm3 0h1v1h-1zm-14 7h1v1h-1zm16 3h1v1h-1z" fill="#a5e0f1"/><path d="M26 29h1v1h-1zm-2 1h1v1h-1zm10 4h1v1h-1zm-12 4h1v1h-1zm140 31h1v1h-1zm14 0h1v1h-1zm79 0h1v1h-1zm159 0h1v1h-1zm12 0h1v1h-1zm-269 1h1v1h-1zm46 0h1v1h-1zm49 0h1v1h-1zm98 0h1v1h-1zm31 0h1v1h-1zm-247 1h1v1h-1zm47 0h1v1h-1zm19 0h1v1h-1zm1 0h1v1h-1zm49 0h1v1h-1zm22 0h1v1h-1zm77 0h1v1h-1zm-215 1h1v1h-1zm21 0h1v1h-1zm119 0h1v1h-1zm9 0h1v1h-1zm60 0h1v1h-1zm41 0h1v1h-1zm-241 1h1v1h-1zm1 0h1v1h-1zm38 0h1v1h-1zm75 0h1v1h-1zm111 0h1v1h-1zm7 0h1v1h-1zm10 0h1v1h-1zm30 0h1v1h-1zm7 0h1v1h-1zm-290 1h1v1h-1zm75 0h1v1h-1zm68 0h1v1h-1zm15 0h1v1h-1zm-153 1h1v1h-1zm20 0h1v1h-1zm111 0h1v1h-1zm74 0h1v1h-1zm22 0h1v1h-1zm14 0h1v1h-1zm48 0h1v1h-1zm-104 1h1v1h-1zm41 0h1v1h-1zm17 0h1v1h-1zm7 0h1v1h-1zm40 0h1v1h-1zm8 0h1v1h-1zm-251 1h1v1h-1zm12 0h1v1h-1zm113 0h1v2h-1zm53 0h1v1h-1zm66 0h1v1h-1zm-66 1h1v1h-1zm26 0h1v1h-1zm-254 1h1v1h-1zm61 0h1v1h-1zm7 0h1v1h-1zm48 0h1v1h-1zm59 0h1v1h-1zm9 0h1v1h-1zm5 0h1v1h-1zm18 0h1v1h-1zm-91 1h1v1h-1zm28 0h1v1h-1zm30 0h1v1h-1zm5 0h1v1h-1zm124 0h1v1h-1zm-258 1h1v1h-1zm63 0h1v2h-1zm7 0h1v1h-1zm43 0h1v1h-1zm91 0h1v1h-1zm6 0h1v1h-1zm-204 1h1v1h-1zm9 0h1v1h-1zm78 0h1v1h-1zm14 0h1v1h-1zm33 0h1v1h-1zm21 0h1v1h-1zm13 0h1v1h-1zm77 0h1v1h-1zm-298 1h1v1h-1zm110 0h1v1h-1zm70 0h1v1h-1zm47 0h1v1h-1zm-228 1h1v1h-1zm142 0h1v2h-1zm6 0h1v1h-1zm-100 1h1v1h-1zm21 0h1v1h-1zm41 0h1v1h-1zm38 0h1v1h-1zm14 0h1v1h-1zm14 0h1v1h-1zm13 0h1v2h-1zm118 0h1v1h-1zm-260 1h1v1h-1zm49 0h1v1h-1zm46 0h1v1h-1zm38 0h1v1h-1zm28 0h1v1h-1zm5 0h1v1h-1zm46 0h1v1h-1zm-141 1h1v1h-1zm71 0h1v1h-1zm40 0h1v1h-1zm30 0h1v1h-1zm42 0h1v1h-1zm0 1h1v4h-1zm-152 1h1v1h-1zm58 0h1v1h-1zm-168 1h1v1h-1zm1 0h1v1h-1zm3 0h2v1h-2zm2 0h1v1h-1zm134 0h1v1h-1zm-180 1h1v19h-1zm119 0h1v1h-1zm40 0h1v1h-1zm16 1h1v1h-1zm32 0h1v1h-1zm22 0h1v1h-1zm73 0h1v1h-1zm-281 1h1v1h-1zm158 0h1v1h-1zm-82 1h1v1h-1zm95 0h1v1h-1zm116 0h1v1h-1zm-190 1h1v1h-1zm56 0h1v1h-1zm19 0h1v1h-1zm5 0h1v1h-1zm110 0h1v1h-1zm-130 1h1v1h-1zm51 0h1v1h-1zm46 0h1v1h-1zm-211 1h1v1h-1zm97 0h1v1h-1zm-141 1h1v1h-1zm7 0h1v1h-1zm22 0h1v1h-1zm22 0h1v1h-1zm48 0h1v1h-1zm54 0h1v1h-1zm21 0h1v1h-1zm29 0h1v1h-1zm-111 1h1v1h-1zm8 0h1v1h-1zm47 0h1v1h-1zm38 0h1v1h-1zm71 0h1v1h-1zm31 0h1v2h-1zm-212 1h1v1h-1zm18 0h1v1h-1zm7 0h1v1h-1zm42 0h1v1h-1zm-142 1h1v1h-1zm7 0h1v1h-1zm280 0h1v1h-1zm-287 1h1v1h-1zm53 0h1v1h-1zm127 0h1v1h-1zm106 0h1v1h-1zm-240 1h1v1h-1zm27 0h1v1h-1zm75 0h1v1h-1zm65 0h1v1h-1zm-141 1h1v1h-1zm79 0h1v1h-1zm134 0h1v1h-1zm-159 1h1v1h-1zm62 0h1v1h-1zm87 0h1v1h-1zm-265 1h1v1h-1zm12 0h1v1h-1zm35 0h1v1h-1zm87 0h1v2h-1zm73 0h1v1h-1zm45 0h1v1h-1zm-250 1h1v1h-1zm9 0h1v1h-1zm38 0h1v1h-1zm16 0h1v1h-1zm44 0h1v1h-1zm107 0h1v1h-1zm4 0h1v1h-1zm34 0h1v1h-1zm3 0h1v1h-1zm-123 1h1v1h-1zm-108 1h1v1h-1zm36 0h1v1h-1zm28 0h1v1h-1zm26 0h1v1h-1zm19 0h1v1h-1zm9 0h1v1h-1zm100 0h1v1h-1zm-274 1h1v1h-1zm25 0h1v1h-1zm97 0h1v1h-1zm134 0h1v1h-1zm18 0h1v1h-1zm25 0h1v1h-1zm-328 1h1v1h-1zm24 0h1v1h-1zm102 0h2v1h-2zm2 0h1v1h-1zm4 0h1v1h-1zm39 0h1v1h-1zm63 0h1v1h-1zm50 0h1v1h-1zm18 0h1v1h-1zm24 0h1v1h-1zm-265 1h1v1h-1zm6 0h1v1h-1zm40 0h1v1h-1zm1 0h1v1h-1zm5 0h1v1h-1zm46 0h1v1h-1zm7 0h1v1h-1zm103 0h2v1h-2zm2 0h1v1h-1zm5 0h1v1h-1zm1 0h1v1h-1zm45 0h1v1h-1z" fill="#0d3a7a"/><path d="M32 12h1v1h-1zm-7 2h1v1h-1zm0 4h1v1h-1zm17 3h1v1h-1zm13 7h1v1h-1zM9 38h1v1H9zm24 14h1v1h-1zm13 1h1v1h-1zm-15 2h1v1h-1zm-3 1h1v1h-1z" fill="#9fddf0"/><path d="M31 29h1v1h-1zm181 38h1v1h-1zm159 0h1v1h-1zm1 0h1v1h-1zm49 0h1v1h-1zm-245 1h1v1h-1zm92 0h1v1h-1zm-132 1h1v1h-1zm275 0h1v1h-1zm-28 1h1v1h-1zm-73 2h1v1h-1zm-147 2h1v1h-1zm178 1h1v1h-1zm-155 6h1v1h-1zm99 1h1v1h-1zm-60 1h1v1h-1zm-50 2h1v1h-1zm75 1h21v1h-21zm21 0h1v1h-1zm90 0h21v1h-21zm21 0h1v1h-1zm-226 2h1v1h-1zm139 0h1v1h-1zm16 2h1v1h-1zm-140 1h1v1h-1zm3 0h1v1h-1zm1 0h1v1h-1zm161 1h1v1h-1zm-135 2h1v1h-1zm129 4h1v1h-1zm-127 2h1v1h-1zm98 1h1v1h-1zm108 1h1v1h-1zm-213 3h1v1h-1zm129 0h1v1h-1zm81 2h1v1h-1zm-80 1h1v1h-1zm79 1h1v2h-1zm0 2h1v1h-1zm-151 1h1v1h-1zm111 0h1v1h-1zm-197 1h1v1h-1zm202 0h1v1h-1z" fill="#8a96b2"/><path d="M34 38h1v1h-1zm-7 4h2v1h-2zm2 0h1v1h-1zm52 12h1v3h-1zm0 3h1v2h-1zm0 2h1v1h-1zm19 4h1v47h-1zm43 5h1v1h-1zm25 0h1v1h-1zm1 0h1v1h-1zm42 0h1v1h-1zm1 0h1v1h-1zm48 0h1v1h-1zm1 0h1v1h-1zm110 0h1v1h-1zm1 0h1v1h-1zm48 0h1v1h-1zm1 0h1v1h-1zm-283 1h1v1h-1zm23 0h1v1h-1zm44 0h1v1h-1zm13 0h1v1h-1zm210 0h1v1h-1zm-304 1h1v40h-1zm258 0h1v1h-1zm47 0h1v1h-1zm-294 1h1v1h-1zm45 0h1v1h-1zm69 0h1v1h-1zm33 0h1v1h-1zm29 1h1v1h-1zm10 0h1v1h-1zm-166 1h1v1h-1zm8 0h1v1h-1zm61 0h1v1h-1zm40 0h1v1h-1zm-109 1h1v1h-1zm19 0h1v1h-1zm45 0h1v1h-1zm36 0h1v1h-1zm28 0h1v1h-1zm65 0h1v1h-1zm19 0h1v1h-1zm56 0h1v1h-1zm-285 1h1v1h-1zm59 0h1v1h-1zm113 0h1v1h-1zm101 0h1v1h-1zm-275 1h1v1h-1zm181 0h1v1h-1zm-65 1h1v1h-1zm18 0h1v1h-1zm85 0h1v1h-1zm54 0h1v1h-1zm-275 1h1v1h-1zm109 0h1v1h-1zm104 1h1v1h-1zm-153 1h1v1h-1zm-9 1h1v1h-1zm123 1h1v1h-1zm5 0h1v1h-1zm-87 1h1v1h-1zm205 0h1v1h-1zm-183 1h1v2h-1zm71 0h1v1h-1zm40 0h1v1h-1zm79 0h1v1h-1zm-151 1h1v1h-1zm38 0h1v1h-1zm-162 1h1v1h-1zm5 0h5v1h-5zm5 0h2v1h-2zm2 0h1v1h-1zm25 0h1v1h-1zm48 0h1v1h-1zm-21 1h1v1h-1zm23 0h21v1h-21zm21 0h1v1h-1zm73 0h1v1h-1zm17 0h21v1h-21zm21 0h1v1h-1zm-94 1h1v1h-1zm6 0h1v1h-1zm12 0h1v1h-1zm133 0h1v1h-1zm-118 1h1v1h-1zm-149 1h1v1h-1zm1 0h1v1h-1zm122 0h1v2h-1zm42 0h1v1h-1zm23 1h1v1h-1zm-112 1h1v1h-1zm47 0h1v1h-1zm27 0h1v1h-1zm30 0h1v1h-1zm-10 1h1v1h-1zm17 0h1v2h-1zm-159 1h1v1h-1zm41 0h1v1h-1zm49 0h1v1h-1zm141 0h1v1h-1zm-281 1h1v2h-1zm8 0h1v1h-1zm201 0h1v1h-1zm-209 2h1v1h-1zm92 0h1v1h-1zm87 1h1v1h-1zm11 1h1v1h-1zm90 0h1v1h-1zm-128 2h1v1h-1zm52 0h1v1h-1zm-111 1h1v1h-1zm9 0h1v1h-1zm87 0h1v2h-1zm15 0h1v1h-1zm-48 1h1v1h-1zm49 0h1v1h-1zm-16 1h1v1h-1zm-180 1h1v1h-1zm167 0h1v1h-1zm61 0h1v3h-1zm-226 1h1v1h-1zm12 0h1v1h-1zm210 0h1v1h-1zm30 0h1v1h-1zm-154 1h1v1h-1zm145 0h1v1h-1zm16 0h1v1h-1zm-240 1h1v2h-1zm147 0h1v1h-1zm10 0h1v1h-1zm50 0h1v1h-1zm17 0h1v1h-1zm28 0h1v1h-1zm-256 1h1v1h-1zm-76 1h1v1h-1zm24 0h1v1h-1zm56 0h1v1h-1zm231 0h1v1h-1zm-281 1h1v1h-1zm124 0h1v1h-1zm74 0h1v1h-1zm37 0h1v1h-1zm47 0h1v1h-1zm1 0h1v1h-1zm-252 1h1v1h-1zm54 0h1v1h-1zm44 0h1v1h-1zm9 0h1v1h-1zm149 0h1v1h-1zm7 0h1v1h-1z" fill="#053879"/><path d="M21 37h1v1h-1zm112 35h1v1h-1zm189 1h1v1h-1zm-160 1h1v1h-1zm64 0h1v1h-1zm50 0h1v1h-1zm129 0h1v1h-1zm-41 2h1v1h-1zm15 0h1v1h-1zm-16 1h1v1h-1zm74 1h1v1h-1zm-76 2h1v1h-1zm-159 1h1v1h-1zm236 0h1v1h-1zm-252 2h1v1h-1zm0 1h1v1h-1zm100 0h1v1h-1zm-6 2h1v1h-1zm103 0h1v1h-1zm56 0h1v1h-1zm-308 3h1v1h-1zm164 0h1v1h-1zm96 0h1v1h-1zm-223 2h1v1h-1zm237 0h1v1h-1zm26 2h1v1h-1zm8 0h1v1h-1zm-97 2h1v1h-1zm-184 1h1v1h-1zm35 0h1v1h-1zm148 2h1v1h-1zm-163 1h1v1h-1zm183 0h1v1h-1zm-117 5h1v1h-1zm31 0h1v1h-1zm-57 2h1v1h-1zm40 0h1v1h-1zm5 1h1v1h-1zm1 0h1v1h-1zm154 0h1v1h-1zm-198 4h1v1h-1zm194 1h1v1h-1zm-249 1h1v1h-1zm46 0h1v1h-1zm52 0h1v1h-1zm1 0h1v1h-1zm156 0h1v1h-1zm1 0h1v1h-1z" fill="#37578c"/><g fill="#39bde3"><path d="M28 9h1v5h-1z"/><path d="M27 10h2v4h-2zm2 0h1v4h-1z"/><path d="M26 11h4v2h-4zm4 0h1v4h-1z"/><path d="M25 12h6v1h-6zm0 1h5v1h-5zm18 0h5v6h-5zm5 0h1v6h-1zm-21 1h4v1h-4zm4 0h1v1h-1z"/><path d="M42 14h7v1h-7zm7 0h1v1h-1zm-19 1h1v1h-1zm12 3h6v1h-6zm-14 1h1v1h-1zm15 0h5v1h-5zm5 0h1v1h-1zm-19 1h1v1h-1zm4 0h1v1h-1zM8 22h1v3H8zm24 0h1v1h-1zM9 23h2v2H9zm2 0h1v3h-1zm31 0h1v1h-1z"/><path d="M7 24h4v1H7zm10 0h1v1h-1zm1 0h1v1h-1zm24 0h1v1h-1zM8 25h3v1H8zm21 0h1v1h-1zm3 0h1v1h-1zm-22 1h1v1h-1zm1 0h1v1h-1zm3 0h1v1h-1zm30 3h1v1h-1zm11 0h1v6h-1zm1 0h2v6h-2zm2 0h1v6h-1z"/><path d="M53 30h6v4h-6zm6 0h1v3h-1zm-11 2h1v1h-1zm11 1h1v2h-1zm-6 1h5v1h-5zm1 1h5v1h-5zm5 0h1v1h-1zm-5 1h2v1h-2zm2 0h1v1h-1zM7 38h1v4H7zm1 0h1v4H8zm32 0h1v1h-1z"/><path d="M5 39h3v1H5zm37 0h1v1h-1zM6 40h3v2H6zm3 0h1v1H9zm8 0h1v1h-1zm-8 1h1v1H9zm30 0h1v1h-1zm1 0h1v1h-1zM6 42h2v1H6zm2 0h1v1H8zm27 2h1v1h-1zM3 45h1v1H3zm32 3h1v1h-1zm-12 1h1v1h-1zm26 0h1v6h-1zm3 0h1v6h-1z"/><path d="M50 50h3v5h-3zm3 0h1v6h-1zm-13 1h1v1h-1z"/><path d="M48 51h5v4h-5zm-34 1h1v5h-1z"/><path d="M47 52h7v1h-7zm7 0h1v1h-1zm-41 1h2v4h-2zm2 0h1v4h-1zm32 0h7v1h-7zm7 0h1v2h-1z"/><path d="M11 54h5v2h-5zm5 0h1v2h-1zm8 0h1v1h-1zm24 1h6v1h-6zm6 0h1v1h-1zm-43 1h5v1h-5zm5 0h1v1h-1zm32 0h3v1h-3zm3 0h2v1h-2zm2 0h1v1h-1zm-40 1h2v1h-2zm2 0h1v1h-1zm14 1h1v7h-1zm1 1h3v6h-3zm3 0h1v6h-1z"/><path d="M28 60h5v4h-5z"/><path d="M27 61h7v2h-7zm7 0h1v2h-1zm-7 2h7v1h-7zm7 0h1v1h-1zm-6 1h5v1h-5zm1 1h4v1h-4zm4 0h1v1h-1zm-3 1h1v1h-1z"/></g><path d="M30 30h1v1h-1zm-8 7h1v1h-1zm10 3h1v1h-1zm174 28h1v1h-1zm55 1h1v1h-1zm105 0h1v1h-1zm46 0h1v1h-1zm18 1h1v1h-1zm-228 1h1v1h-1zm-46 1h1v1h-1zm25 0h1v1h-1zm250 0h1v1h-1zm-275 1h1v1h-1zm97 0h1v1h-1zm22 0h1v1h-1zm36 0h1v1h-1zm38 0h1v1h-1zm-35 1h1v1h-1zm111 0h1v1h-1zm-204 1h1v1h-1zm5 0h1v1h-1zm89 0h1v1h-1zm42 0h1v1h-1zm-81 1h1v1h-1zm-25 1h1v1h-1zm39 0h1v1h-1zm-13 1h1v1h-1zm14 1h1v1h-1zm69 1h1v1h-1zm23 0h1v1h-1zm-97 1h1v1h-1zm120 0h1v1h-1zm26 0h1v1h-1zm1 0h1v1h-1zm-146 1h1v1h-1zm144 0h1v1h-1zm-91 2h1v2h-1zm-154 2h1v1h-1zm93 0h1v1h-1zm61 0h1v1h-1zm48 0h1v1h-1zm44 0h1v1h-1zm6 0h1v1h-1zm-158 2h1v1h-1zm109 0h1v1h-1zm0 1h1v1h-1zm-98 3h1v1h-1zm66 0h1v1h-1zm1 0h1v1h-1zm81 0h1v1h-1zm-149 1h1v1h-1zm47 0h1v1h-1zm20 0h1v1h-1zm1 0h1v1h-1zm80 0h1v1h-1zm-211 2h1v1h-1zm-71 4h1v1h-1zm173 0h1v1h-1zm-173 1h1v1h-1zm198 0h1v1h-1zm53 1h1v1h-1zm-162 1h1v1h-1zm1 0h1v1h-1zm56 0h2v1h-2zm2 0h2v2h-2zm2 0h1v1h-1zm-149 1h1v1h-1zm20 0h1v1h-1zm120 0h1v1h-1zm5 0h1v1h-1zm32 0h1v1h-1zm-38 1h2v1h-2zm2 0h1v1h-1zm6 0h1v1h-1zm1 0h1v1h-1zm81 0h1v1h-1zm-210 1h1v3h-1zm129 0h1v1h-1zm-153 1h1v1h-1zm123 0h1v1h-1zm83 0h1v1h-1zm53 0h1v1h-1zm-258 1h1v1h-1zm59 0h1v1h-1zm12 0h1v1h-1zm41 0h1v1h-1zm8 0h2v1h-2zm2 0h1v1h-1zm20 0h1v1h-1zm42 0h1v1h-1zm30 0h2v1h-2zm2 0h1v1h-1zm41 0h1v1h-1zm3 0h1v1h-1zm19 0h1v1h-1zm-279 1h1v1h-1zm23 0h1v1h-1zm254 1h1v1h-1zm-274 1h1v1h-1zm47 0h1v1h-1zm17 0h1v1h-1zm33 0h1v1h-1zm21 0h1v1h-1zm89 0h1v1h-1zm-190 1h1v1h-1zm30 0h1v1h-1zm31 0h1v1h-1z" fill="#1b407f"/><path d="M33 30h1v1h-1zm-12 9h1v1h-1zm206 8h7v1h-7zm7 0h1v1h-1zm164 0h6v1h-6zm6 0h1v1h-1zM140 67h1v1h-1zm6 0h1v1h-1zm69 0h1v1h-1zm153 0h1v1h-1zm-245 1h1v1h-1zm220 0h1v1h-1zm8 0h1v1h-1zm-130 1h1v1h-1zm50 0h1v1h-1zm138 1h1v1h-1zm-210 1h1v1h-1zm207 2h1v1h-1zm-195 1h1v1h-1zm4 0h1v1h-1zm-57 2h1v1h-1zm37 0h1v1h-1zm26 1h1v1h-1zm32 0h1v1h-1zm136 0h1v1h-1zm-195 1h1v1h-1zm-8 1h1v1h-1zm84 0h1v1h-1zm9 0h1v1h-1zm35 2h1v1h-1zm-8 3h1v1h-1zm20 0h1v1h-1zm-161 1h1v1h-1zm121 1h1v1h-1zm-85 2h1v1h-1zm39 0h1v3h-1zm-86 1h1v1h-1zm133 0h1v1h-1zm-47 2h1v1h-1zm71 0h1v1h-1zm25 0h1v1h-1zm-48 1h1v1h-1zm-39 1h1v1h-1zm111 1h1v1h-1zm-30 3h1v1h-1zm109 0h1v1h-1zm-87 2h1v1h-1zm-51 1h1v1h-1zm40 0h1v1h-1zm67 0h1v1h-1zm-100 1h1v1h-1zm119 1h1v1h-1zm-173 1h1v1h-1zm86 0h1v1h-1zm42 2h1v1h-1zm-219 1h1v1h-1zm252 0h1v1h-1zm-238 3h1v1h-1zm47 0h1v1h-1zm102 0h1v1h-1zm34 1h1v1h-1zm-109 1h1v1h-1zm179 0h1v1h-1zm-322 1h1v1h-1zm219 0h1v1h-1zm37 0h1v1h-1zm33 0h1v1h-1zm-181 1h1v1h-1zm41 0h1v1h-1z" fill="#c7cedc"/><path d="M21 34h1v1h-1zm14 1h1v1h-1zm-12 6h1v1h-1zm382 8h1v23h-1zM81 52h1v1h-1zm45 0h1v1h-1zm33 17h1v1h-1zm19 0h1v1h-1zm25 0h1v1h-1zm140 0h1v1h-1zm-208 1h1v1h-1zm249 1h1v1h-1zm21 1h1v1h-1zm-222 1h1v1h-1zm26 1h1v1h-1zm8 0h1v1h-1zm66 1h1v1h-1zm-146 1h1v1h-1zm107 0h1v1h-1zm65 0h1v1h-1zm32 0h1v1h-1zm47 0h1v1h-1zm38 0h1v1h-1zm10 0h1v1h-1zm-9 1h1v1h-1zm-224 2h1v1h-1zm39 1h1v1h-1zm43 1h1v1h-1zm8 1h1v1h-1zm-100 1h1v1h-1zm48 1h1v1h-1zm85 2h1v1h-1zm-167 1h1v1h-1zm161 1h1v1h-1zm71 0h1v1h-1zm-86 1h1v1h-1zm6 0h1v1h-1zm33 0h1v1h-1zm61 1h1v1h-1zm-227 1h1v1h-1zm48 4h1v1h-1zm126 2h1v1h-1zm78 0h1v1h-1zm-122 2h1v1h-1zm22 0h1v1h-1zm78 2h1v1h-1zm-107 1h1v1h-1zm-79 1h1v1h-1zm111 0h1v1h-1zm-112 1h1v1h-1zm-61 1h1v1h-1zm96 0h1v1h-1zm113 1h1v1h-1zm54 0h1v1h-1zm-210 1h1v1h-1zm161 0h1v1h-1zm-80 2h1v1h-1zm138 0h1v1h-1zm-69 2h1v1h-1zm66 0h1v1h-1zm-265 2h1v1h-1zm48 0h1v1h-1zm50 0h1v1h-1zm111 0h2v1h-2zm2 0h1v1h-1z" fill="#405d8f"/><path d="M21 33h1v1h-1zm11 9h1v1h-1zm67 18h1v51h-1zm43 7h1v1h-1zm118 0h2v1h-2zm2 0h1v1h-1zm-132 1h1v1h-1zm31 0h1v1h-1zm120 0h1v1h-1zm84 0h1v1h-1zm-75 2h1v1h-1zm-26 4h1v1h-1zm171 0h1v1h-1zm-126 1h1v1h-1zm14 0h1v1h-1zm43 0h1v1h-1zm-50 1h1v1h-1zm-93 3h1v1h-1zm61 0h1v1h-1zm97 0h1v1h-1zm-101 5h1v1h-1zm58 1h1v1h-1zm-137 1h1v1h-1zm-49 5h1v1h-1zm20 0h1v1h-1zm1 0h1v1h-1zm187 1h1v1h-1zm-198 1h1v1h-1zm64 0h1v1h-1zm117 0h1v1h-1zm-94 1h1v1h-1zm93 2h1v1h-1zm87 3h1v1h-1zm-121 1h1v1h-1zm-114 1h1v1h-1zm139 1h1v1h-1zm-78 2h1v1h-1zm130 0h1v1h-1zm3 0h1v6h-1zm-129 2h1v1h-1zm146 1h1v1h-1zm0 1h1v1h-1zm-226 1h1v2h-1zm115 1h1v1h-1zm11 0h1v1h-1zm83 0h1v1h-1zm-289 1h1v1h-1zm75 0h1v1h-1zm5 0h1v1h-1zm23 0h1v1h-1zm-30 1h1v1h-1zm32 0h1v1h-1zm209 0h1v1h-1zm-205 1h1v1h-1zm51 0h1v1h-1z" fill="#92a1bd"/><path d="M31 1h1v1h-1zm1 0h1v1h-1zm31 3h1v1h-1zM50 9h1v1h-1zm11 0h1v1h-1zm-20 6h1v1h-1zm-12 1h1v1h-1zm21 0h1v1h-1zm-29 6h1v1h-1zm0 1h1v1h-1zm9 1h1v1h-1zm27 4h1v1h-1zm13 2h1v1h-1zm6 0h1v1h-1zm-38 2h1v1h-1zm13 0h1v1h-1zm0 1h1v1h-1zm18 3h1v1h-1zm8 1h1v1h-1zm7 0h1v1h-1zm-65 1h1v1h-1zM4 40h1v1H4zm8 0h1v1h-1zM0 43h1v1H0zm50 5h1v1h-1zm1 0h1v1h-1zm-32 2h1v1h-1zm-3 2h1v1h-1zm1 1h1v1h-1zm41 3h1v1h-1zm3 0h1v1h-1zm-49 2h1v1h-1zm2 4h1v1h-1zm-3 4h1v1h-1zm1 0h1v1h-1zm16 0h1v1h-1zm7 2h1v1h-1zM8 70h1v1H8zm57 0h1v1h-1zm-53 1h1v1h-1zm-3 1h2v1H9zm2 0h1v1h-1zm25 3h1v1h-1zm-3 1h1v1h-1zm2 1h1v1h-1zm5 4h1v1h-1zm2 4h1v1h-1z" fill="#bee6f4"/><path d="M30 29h1v1h-1zm-9 6h1v1h-1zm213 14h1v61h-1zM86 59h12v1H86zm12 0h1v1h-1zm11 0h14v1h-14zm14 0h2v1h-2zm2 0h1v1h-1zm166 16h1v1h-1zm-67 5h1v1h-1zm55 1h1v1h-1zm-54 1h1v1h-1zm100 1h1v1h-1zm-124 1h1v1h-1zm88 9h1v1h-1zm47 0h1v1h-1zm-87 3h1v1h-1zm189 2h1v1h-1zm-136 1h1v1h-1zm-4 1h1v1h-1zm-133 7h2v1h-2zm2 0h1v1h-1zm206 0h1v1h-1zm-139 3h1v1h-1z" fill="#1b4583"/><path d="M22 31h1v1h-1zm143 36h1v1h-1zm43 0h1v1h-1zm209 0h1v1h-1zm-66 2h1v1h-1zm-103 2h1v1h-1zm94 0h1v1h-1zm8 1h1v1h-1zm-180 2h1v1h-1zm93 0h1v1h-1zm-9 2h1v1h-1zm-32 2h1v1h-1zm30 0h1v1h-1zm-75 1h1v1h-1zm26 1h1v1h-1zm90 0h1v1h-1zm24 0h1v1h-1zm22 1h1v1h-1zm90 0h1v1h-1zm-47 1h1v1h-1zm-31 3h1v1h-1zm-159 1h1v1h-1zm214 0h1v1h-1zm-214 7h1v1h-1zm137 1h1v1h-1zm-180 2h1v1h-1zm153 1h1v1h-1zm-4 1h1v1h-1zm36 0h1v1h-1zm-157 2h1v1h-1zm46 1h1v1h-1zm-49 3h1v1h-1zm133 0h1v1h-1zm32 2h1v1h-1zm-188 2h1v1h-1zm74 0h1v1h-1zm112 4h1v1h-1zm31 1h1v1h-1zm57 0h1v1h-1z" fill="#bfc8d7"/><path d="M34 32h1v1h-1zm-13 4h1v1h-1zm14 0h1v1h-1zm370 12h1v1h-1zM175 68h1v1h-1zm92 0h1v1h-1zm99 0h1v1h-1zm44 2h1v1h-1zm-186 2h1v1h-1zm161 0h1v1h-1zm-43 1h1v1h-1zm-145 1h1v1h-1zm209 0h1v1h-1zm-139 1h1v1h-1zm113 2h1v1h-1zm-102 1h1v1h-1zm6 0h1v1h-1zm30 1h1v1h-1zm-136 1h1v1h-1zm-45 1h1v1h-1zm257 1h1v1h-1zm-118 1h1v1h-1zm67 0h1v1h-1zm44 1h1v1h-1zm-157 1h1v1h-1zm205 1h1v1h-1zm-151 1h1v1h-1zm-149 1h1v1h-1zm274 1h1v1h-1zm-62 3h1v1h-1zm-47 1h1v1h-1zm-55 2h1v1h-1zm88 1h1v1h-1zm31 1h1v1h-1zm-203 2h1v1h-1zm0 1h1v1h-1zm37 0h1v1h-1zm140 0h1v1h-1zm6 1h1v1h-1zm-33 1h1v1h-1zm56 0h1v1h-1zm1 1h1v1h-1zm-65 1h1v1h-1zm26 0h1v1h-1zm-175 1h1v1h-1zm123 0h1v1h-1zm-76 1h1v1h-1zm73 0h1v1h-1zm135 0h1v1h-1zm-254 1h1v1h-1zm27 0h1v1h-1zm49 0h1v1h-1zm99 0h1v1h-1zm49 0h1v1h-1zm44 0h1v1h-1zm-244 3h1v1h-1zm26 0h1v1h-1zm126 0h1v1h-1zm34 0h1v1h-1zm-203 2h1v1h-1zm13 0h1v1h-1zm34 0h1v1h-1zm161 0h1v1h-1z" fill="#2d4f87"/><path d="M30 1h1v1h-1zm3 0h1v1h-1zm1 5h1v1h-1zm24 1h1v1h-1zM28 8h1v1h-1zm5 11h1v1h-1zm10 1h1v1h-1zm5 0h1v1h-1zm-36 2h1v1h-1zm19 1h1v1h-1zm-16 1h1v1h-1zm16 0h1v1h-1zm-2 2h1v1h-1zm-16 3h1v1h-1zm51 0h1v1h-1zm11 1h1v1h-1zm-2 2h1v1h-1zm-22 2h1v1h-1zm-32 1h1v1h-1zm44 0h1v1h-1zm10 0h1v1h-1zm-14 1h1v1h-1zm29 0h1v1h-1zm-22 1h1v1h-1zm1 0h1v1h-1zm8 0h1v1h-1zm3 0h1v1h-1zm-39 1h1v1h-1zM4 39h1v1H4zm7 0h1v1h-1zm2 2h1v1h-1zm-8 2h1v1H5zm17 1h1v1h-1zM4 45h1v1H4zm25 0h1v1h-1zm-13 5h1v1h-1zm6 0h1v1h-1zm0 1h1v1h-1zm11 2h1v1h-1zm-9 2h1v1h-1zm23 1h1v1h-1zm9 1h1v1h-1zm-1 2h1v1h-1zm-41 6h1v1h-1zm20 0h1v1h-1zm-24 1h1v1h-1zm23 0h1v1h-1zm38 1h1v1h-1zm-60 1h1v1h-1zm20 0h1v1h-1zM8 69h1v1H8zm65 2h1v1h-1zm-2 1h1v1h-1zm-42 1h1v1h-1zm42 3h1v1h-1zm-37 7h1v1h-1zm2 1h1v1h-1zm5 0h1v1h-1z" fill="#ebf8fb"/><path d="M33 31h1v1h-1zm1 2h1v1h-1zm-12 6h1v1h-1zm11 1h1v1h-1zm-1 1h1v1h-1zm-7 1h1v1h-1zm203 6h5v1h-5zm5 0h1v1h-1zm166 0h4v1h-4zm4 0h1v1h-1zm-176 1h1v23h-1zM81 53h1v1h-1zm45 1h1v4h-1zm0 4h1v1h-1zm13 10h1v1h-1zm7 0h1v1h-1zm19 0h1v1h-1zm7 0h1v1h-1zm36 0h1v1h-1zm7 0h1v1h-1zm43 0h1v1h-1zm6 0h1v1h-1zm1 0h1v1h-1zm103 0h1v1h-1zm49 0h1v1h-1zm7 0h1v1h-1zm-112 1h1v1h-1zm32 0h1v1h-1zm69 0h1v1h-1zm-234 1h1v1h-1zm92 0h1v1h-1zm91 0h1v1h-1zm-207 1h1v1h-1zm188 0h1v1h-1zm88 0h1v1h-1zm-249 1h1v1h-1zm45 0h1v1h-1zm63 0h1v1h-1zm59 0h1v1h-1zm-184 1h1v1h-1zm4 0h1v1h-1zm42 0h1v1h-1zm3 0h1v1h-1zm1 0h1v1h-1zm44 0h1v1h-1zm3 0h1v1h-1zm28 0h1v1h-1zm80 0h1v1h-1zm3 0h1v1h-1zm34 0h1v1h-1zm10 0h1v1h-1zm3 0h1v1h-1zm-280 1h1v1h-1zm21 0h1v1h-1zm22 0h1v1h-1zm35 0h1v1h-1zm28 0h1v1h-1zm10 0h1v1h-1zm10 0h1v1h-1zm44 0h1v1h-1zm32 0h1v1h-1zm72 0h1v1h-1zm20 0h1v1h-1zm-214 1h1v1h-1zm56 0h1v1h-1zm-120 1h1v1h-1zm20 0h1v1h-1zm8 0h1v1h-1zm60 1h1v1h-1zm144 0h1v1h-1zm-203 1h1v1h-1zm86 1h1v1h-1zm90 0h1v1h-1zm-228 1h1v1h-1zm207 1h1v1h-1zm6 0h1v1h-1zm7 0h1v1h-1zm77 0h1v1h-1zm-47 1h1v1h-1zm55 0h1v1h-1zm-159 1h1v1h-1zm7 0h1v1h-1zm7 0h1v1h-1zm26 0h1v1h-1zm71 0h1v1h-1zm-164 1h1v1h-1zm67 0h1v1h-1zm14 0h1v1h-1zm5 0h1v1h-1zm119 0h1v1h-1zm-79 1h1v1h-1zm-187 1h1v1h-1zm1 0h1v1h-1zm75 0h1v1h-1zm-81 1h1v1h-1zm245 0h1v1h-1zm-178 1h1v4h-1zm111 0h1v1h-1zm-185 3h1v1h-1zm40 0h1v2h-1zm150 0h1v1h-1zm-143 1h1v1h-1zm27 0h1v1h-1zm-34 1h1v1h-1zm116 1h1v1h-1zm19 0h1v1h-1zm8 0h1v1h-1zm-46 1h1v1h-1zm-89 1h1v1h-1zm-44 1h1v1h-1zm44 0h1v1h-1zm102 0h1v1h-1zm38 0h1v1h-1zm65 0h1v1h-1zm32 0h1v1h-1zm-196 1h1v1h-1zm93 0h1v1h-1zm-141 1h1v1h-1zm130 0h1v1h-1zm83 1h1v1h-1zm-164 1h1v1h-1zm8 0h1v1h-1zm-74 1h1v1h-1zm67 1h1v1h-1zm9 0h1v1h-1zm48 0h1v1h-1zm30 0h1v1h-1zm-156 1h1v1h-1zm30 0h1v1h-1zm88 0h1v1h-1zm62 0h1v1h-1zm-181 1h1v1h-1zm71 0h1v1h-1zm29 0h1v1h-1zm92 0h1v1h-1zm45 0h1v1h-1zm-260 1h1v1h-1zm106 0h1v1h-1zm-94 1h1v1h-1zm47 0h1v1h-1zm5 0h1v1h-1zm192 0h1v1h-1zm8 0h1v1h-1zm-263 1h1v1h-1zm25 0h1v1h-1zm46 1h1v1h-1zm26 0h1v1h-1zm-28 1h1v1h-1zm30 0h1v1h-1zm25 0h1v1h-1zm154 0h1v1h-1zm-330 1h1v1h-1zm56 0h1v1h-1zm208 0h1v1h-1zm64 0h1v1h-1zm-212 1h1v1h-1zm152 0h1v1h-1zm57 0h1v1h-1z" fill="#003075"/><path d="M35 33h1v1h-1zm-9 10h1v1h-1zm200 5h1v1h-1zM80 53h1v6h-1zm0 6h1v1h-1zm61 8h1v1h-1zm4 0h1v1h-1zm21 0h1v1h-1zm5 0h1v1h-1zm38 0h1v1h-1zm4 0h1v1h-1zm1 0h1v1h-1zm45 0h1v1h-1zm4 0h1v1h-1zm107 0h1v1h-1zm4 0h1v1h-1zm44 0h1v1h-1zm4 0h1v1h-1zm-274 1h1v5h-1zm265 0h1v1h-1zm18 2h1v1h-1zm-283 3h1v1h-1zm16 1h1v1h-1zm81 0h1v1h-1zm13 0h1v1h-1zm111 0h1v1h-1zm-209 1h1v1h-1zm-6 1h1v1h-1zm31 0h1v1h-1zm35 0h1v1h-1zm-64 1h1v1h-1zm49 0h1v1h-1zm38 0h1v1h-1zm65 1h1v1h-1zm32 0h1v1h-1zm-98 1h1v1h-1zm120 0h1v1h-1zm-228 1h1v1h-1zm213 1h1v1h-1zm14 0h1v1h-1zm-228 1h1v1h-1zm69 0h1v1h-1zm39 0h1v1h-1zm198 1h1v1h-1zm-261 1h1v1h-1zm116 0h1v1h-1zm19 0h1v1h-1zm33 0h1v1h-1zm-180 1h1v1h-1zm10 0h1v1h-1zm1 0h1v1h-1zm24 2h1v1h-1zm-9 1h1v3h-1zm34 0h1v1h-1zm111 0h1v1h-1zm-145 3h1v1h-1zm104 0h1v1h-1zm32 0h1v1h-1zm-177 1h1v1h-1zm14 0h1v1h-1zm13 0h1v4h-1zm23 1h1v1h-1zm102 1h1v1h-1zm-125 2h1v1h-1zm-20 1h1v1h-1zm132 1h1v1h-1zm71 0h1v1h-1zm-38 1h1v1h-1zm-32 2h1v1h-1zm-133 1h1v1h-1zm252 1h1v1h-1zm-136 1h1v1h-1zm150 1h1v1h-1zm-45 1h1v1h-1zm43 0h1v1h-1zm-116 1h1v1h-1zm-154 2h1v1h-1zm96 0h1v1h-1zm161 1h1v1h-1zm-188 1h1v1h-1zm141 0h1v1h-1zm-263 1h1v1h-1zm80 0h1v1h-1zm205 0h1v1h-1zm-215 1h1v1h-1zm38 0h1v1h-1zm51 0h1v1h-1zm11 0h1v1h-1zm100 0h1v1h-1z" fill="#adb8cc"/><path d="M35 39h1v1h-1zm129 28h1v1h-1zm252 0h1v1h-1zm-256 1h1v1h-1zm109 0h1v1h-1zm113 1h1v1h-1zm-22 1h1v1h-1zm-86 1h1v1h-1zm-143 2h1v1h-1zm35 1h1v1h-1zm3 0h1v1h-1zm43 0h2v1h-2zm2 0h1v1h-1zm48 0h1v1h-1zm20 0h1v1h-1zm-142 1h1v1h-1zm7 0h1v1h-1zm1 0h1v1h-1zm70 0h1v1h-1zm26 0h1v1h-1zm121 1h1v1h-1zm13 0h1v1h-1zm-70 1h1v1h-1zm16 0h1v1h-1zm-169 1h1v1h-1zm198 0h1v1h-1zm27 0h1v1h-1zm-96 2h1v1h-1zm-43 1h1v1h-1zm9 1h1v1h-1zm189 0h1v1h-1zm-145 1h1v1h-1zm97 0h1v1h-1zm-151 2h1v1h-1zm106 0h1v1h-1zm-186 1h1v1h-1zm159 1h1v1h-1zm26 1h1v1h-1zm-41 2h1v1h-1zm56 3h1v1h-1zm-120 1h1v1h-1zm95 0h1v1h-1zm16 1h1v1h-1zm-126 1h1v1h-1zm25 1h1v1h-1zm-92 1h1v1h-1zm151 0h1v1h-1zm-116 1h1v1h-1zm138 1h1v1h-1zm-173 1h1v1h-1zm46 0h1v1h-1zm95 0h1v1h-1zm34 0h1v1h-1zm20 1h1v1h-1zm-29 1h1v1h-1zm41 0h1v1h-1zm-170 1h1v1h-1zm230 0h1v1h-1zm-217 1h1v1h-1zm228 0h1v1h-1zm-220 1h1v1h-1zm51 0h1v1h-1zm58 0h1v1h-1zm46 0h1v1h-1zm-193 2h1v1h-1zm115 0h1v1h-1zm-93 2h1v1h-1zm94 1h1v1h-1zm-138 1h1v1h-1zm118 0h1v1h-1zm138 0h1v1h-1zm-242 1h1v1h-1zm36 0h1v1h-1zm175 0h1v1h-1z" fill="#e0e4ec"/><path d="M27 43h2v1h-2zm2 0h1v1h-1zm176 25h1v1h-1zm224 1h1v1h-1zm-273 1h1v1h-1zm166 2h1v1h-1zm36 0h1v1h-1zm-226 1h1v1h-1zm22 0h1v1h-1zm-11 1h1v1h-1zm1 0h1v1h-1zm147 0h1v1h-1zm77 0h1v1h-1zm7 0h1v1h-1zm12 0h1v1h-1zm28 0h1v1h-1zm7 0h1v1h-1zm-167 1h1v1h-1zm99 2h1v1h-1zm-103 2h1v1h-1zm66 0h1v1h-1zm36 0h1v1h-1zm-74 1h1v1h-1zm35 0h1v1h-1zm124 0h1v1h-1zm-56 1h1v1h-1zm-189 1h1v1h-1zm114 0h1v1h-1zm32 0h1v1h-1zm13 0h1v1h-1zm-174 3h1v1h-1zm23 0h1v1h-1zm85 0h1v1h-1zm20 0h1v1h-1zm20 0h1v1h-1zm34 1h1v1h-1zm31 0h1v1h-1zm-104 2h1v1h-1zm-117 3h1v1h-1zm6 0h1v1h-1zm112 0h1v1h-1zm-39 1h1v1h-1zm47 0h1v1h-1zm-47 3h1v1h-1zm73 0h1v1h-1zm117 0h1v1h-1zm-198 2h1v1h-1zm9 1h1v1h-1zm102 0h1v1h-1zm-54 1h1v1h-1zm36 0h1v1h-1zm7 0h1v1h-1zm12 2h1v1h-1zm-204 1h1v1h-1zm191 0h1v1h-1zm-145 1h1v1h-1zm10 0h1v1h-1zm102 0h1v1h-1zm80 0h1v1h-1zm-87 1h1v1h-1zm-127 1h1v1h-1zm210 0h1v1h-1zm-114 1h1v1h-1zm90 3h1v1h-1zm49 0h1v1h-1zm23 1h1v1h-1zm-300 2h1v1h-1zm26 0h1v1h-1zm57 1h1v1h-1zm53 0h1v1h-1zm156 0h1v1h-1z" fill="#7c8dae"/><path d="M29 9h1v1h-1zm5 10h1v1h-1zm7 1h1v1h-1zm-20 9h1v1h-1zm-3 13h1v1h-1zm21 9h1v1h-1z" fill="#45c4e4"/><path d="M44 12h1v1h-1zm-18 3h1v1h-1zm4 7h1v1h-1zm-18 1h1v1h-1zm4 1h1v1h-1zm6 1h1v1h-1zm-1 1h2v1h-2zm2 0h1v1h-1zm22 3h1v1h-1zm7 1h1v1h-1zm8 2h1v1h-1zm-46 1h1v1h-1zm46 0h1v1h-1zm-50 7h1v1h-1zm9 2h1v1h-1zM6 43h1v1H6zm9 0h1v1h-1zm9 4h1v1h-1zm29 2h1v1h-1zm-20 1h1v1h-1zm0 1h1v1h-1zm18 6h1v1h-1zM34 68h1v1h-1z" fill="#77d1eb"/><path d="M51 13h1v1h-1zm3 1h1v1h-1zm-18 4h1v1h-1zm8 2h1v1h-1zm3 0h1v1h-1zm9 8h1v1h-1zm9 1h1v1h-1zm-2 2h1v1h-1zm24 2h1v1h-1zm-24 1h1v1h-1zm20 0h1v1h-1zm-36 4h1v1h-1zm-37 3h1v1h-1zM0 45h1v1H0zm48 4h1v1h-1zm11 7h1v1h-1zm1 0h1v1h-1zm-4 6h1v1h-1zm-42 1h1v1h-1zm48 0h1v1h-1zM9 64h1v1H9zm58 0h1v1h-1zm-35 2h1v1h-1zm32 2h1v1h-1zm6 1h1v1h-1zm-1 1h1v1h-1zm3 2h1v1h-1zm-42 2h1v1h-1zm42 2h1v1h-1zm-37 7h1v1h-1zm4 6h1v1h-1z" fill="#92d3ec"/><path d="M27 28h2v1h-2zm2 0h1v1h-1zm3 1h1v1h-1zm-12 6h1v1h-1zm5 8h1v1h-1zm201 4h1v1h-1zm171 0h1v1h-1zM147 67h1v1h-1zm69 0h1v1h-1zm-85 1h1v1h-1zm281 0h1v1h-1zm16 0h1v1h-1zm-294 2h1v1h-1zm21 0h1v1h-1zm26 0h1v1h-1zm161 0h1v1h-1zm-209 1h1v1h-1zm91 0h1v1h-1zm161 0h1v1h-1zm-160 1h1v1h-1zm66 0h1v1h-1zm95 0h1v1h-1zm-36 1h1v1h-1zm-182 1h1v1h-1zm28 0h1v1h-1zm175 0h1v1h-1zm47 0h1v1h-1zm1 0h1v1h-1zm-258 1h1v1h-1zm95 0h1v1h-1zm93 1h1v1h-1zm5 0h1v1h-1zm58 0h1v1h-1zm13 0h1v1h-1zm-85 1h1v1h-1zm39 0h1v1h-1zm48 1h1v1h-1zm-134 1h1v1h-1zm55 0h1v1h-1zm-155 1h1v1h-1zm58 0h1v1h-1zm56 0h1v1h-1zm45 0h1v1h-1zm-219 3h1v1h-1zm69 0h1v1h-1zm205 0h1v1h-1zm-215 1h1v1h-1zm126 0h1v1h-1zm33 0h1v1h-1zm-38 1h1v1h-1zm117 0h1v1h-1zm-273 2h1v1h-1zm124 1h1v1h-1zm0 1h1v1h-1zm-118 4h1v1h-1zm243 0h1v1h-1zm-245 1h1v1h-1zm149 1h1v1h-1zm-21 1h1v1h-1zm9 1h1v1h-1zm24 0h1v1h-1zm39 0h1v1h-1zm68 1h1v1h-1zm10 0h1v1h-1zm-236 1h1v1h-1zm38 0h1v1h-1zm10 0h1v1h-1zm39 0h1v1h-1zm74 3h1v1h-1zm-205 1h1v1h-1zm61 1h1v1h-1zm134 0h1v1h-1zm30 0h1v1h-1zm-92 1h1v1h-1zm129 1h1v1h-1zm-83 4h1v1h-1zm72 1h1v1h-1zm-237 1h1v1h-1zm30 0h1v1h-1zm182 0h1v1h-1zm-18 1h1v1h-1z" fill="#eff1f5"/></svg>