<svg xmlns="http://www.w3.org/2000/svg" role="img" viewBox="-7.48 -7.48 388.70 149.70"><title>UBS logo</title><path d="M46 6h1v1h-1zm4 0h1v1h-1zm-4 3h1v1h-1zm4 0h1v1h-1zm-1 5h1v1h-1zm56 9h1v1h-1zm-57 2h1v1h-1zm-30 7h1v1h-1zm4 0h1v1h-1zm24 1h1v1h-1zm4 0h1v1h-1zm-37 5h1v1h-1zm8 3h1v1h-1zm80 0h1v1h-1zm9 1h1v1h-1zm-72 3h1v1h-1zm46 0h1v1h-1zm-5 2h1v1h-1zm-53 3h1v1h-1zm23 2h1v1h-1zm-21 3h1v1h-1zm8 12h1v1h-1zm78 6h1v1h-1zM3 78h1v1H3zm8 4h1v1h-1zm31 0h1v1h-1zm70 1h1v1h-1zm10 3h1v1h-1zM10 87h1v1h-1zm-5 2h1v2H5zm0 2h1v1H5zm9 0h1v1h-1zm40 0h1v1h-1zm34 0h1v1h-1zm-70 4h1v1h-1zm64 2h1v1h-1zm38 2h1v1h-1zm-40 2h1v1h-1zm-39 15h1v1h-1z" fill="#989797"/><path d="M339 20h3v1h-3zm3 0h1v1h-1zm7 0h3v1h-3zm3 0h1v1h-1zm-205 1h1v1h-1zm34 0h1v1h-1zm1 0h1v3h-1zm20 0h1v1h-1zm24 0h1v3h-1zm8 0h1v3h-1zm1 0h1v1h-1zm41 0h4v1h-4zm4 0h1v1h-1zm55 0h1v1h-1zm21 0h1v1h-1zm1 0h1v1h-1zm-73 1h1v1h-1zm48 0h1v1h-1zm28 0h1v1h-1zm-73 1h1v1h-1zm43 0h1v1h-1zm33 0h1v1h-1zm-181 1h1v1h-1zm44 0h1v1h-1zm8 0h1v1h-1zm55 0h1v1h-1zm39 0h1v1h-1zm11 0h1v1h-1zm1 0h1v1h-1zm9 0h1v1h-1zm1 0h1v1h-1zm15 0h1v1h-1zm-93 1h1v1h-1zm1 0h1v1h-1zm18 0h1v1h-1zm46 0h1v1h-1zm30 0h1v1h-1zm-211 1h1v58h-1zm55 0h1v61h-1zm65 0h1v1h-1zm16 0h1v1h-1zm33 0h1v1h-1zm10 0h1v1h-1zm-11 1h1v1h-1zm32 0h1v1h-1zm-77 1h1v1h-1zm44 0h1v1h-1zm34 0h1v1h-1zm-77 1h1v1h-1zm42 0h1v1h-1zm36 0h1v1h-1zm-62 1h1v1h-1zm1 1h1v1h-1zm33 0h1v1h-1zm-48 1h1v1h-1zm38 0h1v1h-1zm40 0h1v1h-1zm-62 1h1v1h-1zm31 0h1v1h-1zm-46 1h1v1h-1zm36 0h1v1h-1zm10 0h1v1h-1zm32 0h1v1h-1zm-62 2h1v1h-1zm0 1h1v1h-1zm19 0h1v1h-1zm44 0h1v1h-1zm-78 1h1v1h-1zm44 0h1v3h-1zm-44 1h1v1h-1zm33 2h1v8h-1zm11 0h1v1h-1zm35 0h1v2h-1zm0 2h1v1h-1zm5 0h1v1h-1zm-39 1h1v1h-1zm39 0h1v1h-1zm-84 2h1v1h-1zm15 0h1v1h-1zm31 0h1v1h-1zm-46 1h1v1h-1zm14 2h1v1h-1zm19 0h1v1h-1zm-34 1h1v1h-1zm0 1h1v1h-1zm14 0h1v1h-1zm38 0h1v1h-1zm-39 1h1v1h-1zm-14 1h1v1h-1zm36 0h1v1h-1zm1 2h1v1h-1zm24 0h1v1h-1zm-63 1h1v1h-1zm12 0h1v1h-1zm54 0h1v1h-1zm-67 1h1v1h-1zm12 0h1v1h-1zm29 0h1v1h-1zm28 0h1v1h-1zm1 0h1v1h-1zm-71 1h1v1h-1zm11 0h1v1h-1zm62 0h1v1h-1zm-75 1h1v1h-1zm11 0h1v1h-1zm34 0h1v1h-1zm33 0h1v1h-1zm-80 1h1v1h-1zm11 0h1v1h-1zm37 0h1v1h-1zm34 0h1v1h-1zm-96 1h10v1h-10zm10 0h1v1h-1zm12 0h1v1h-1zm1 0h1v1h-1zm75 0h1v1h-1zm2 1h1v1h-1zm-76 2h1v1h-1zm1 0h1v1h-1zm41 0h1v1h-1zm37 0h1v1h-1zm-91 1h2v1h-2zm2 0h1v1h-1zm14 0h1v1h-1zm39 0h1v1h-1zm37 0h1v1h-1zm-87 1h1v1h-1zm52 0h1v1h-1zm36 0h1v1h-1zm-86 1h1v1h-1zm51 0h1v1h-1zm36 0h1v1h-1zm-72 1h1v1h-1zm38 0h1v1h-1zm35 0h1v1h-1zm-85 1h1v1h-1zm52 0h1v1h-1zm34 0h1v1h-1zm-85 1h1v1h-1zm54 0h1v1h-1zm2 1h1v1h-1zm30 0h1v1h-1zm-27 1h1v1h-1zm28 0h1v1h-1zm-85 1h1v1h-1zm14 0h1v1h-1zm46 0h1v1h-1zm-45 1h1v1h-1zm47 0h1v1h-1zm-61 1h1v1h-1zm15 1h1v1h-1zm52 1h1v1h-1zm19 0h1v1h-1zm0 1h1v1h-1zm-70 1h1v1h-1zm1 3h1v7h-1zm55 0h1v1h-1zm-202 2h1v1h-1zm165 0h1v2h-1zm-104 1h1v3h-1zm104 1h1v1h-1zm39 0h1v7h-1zm-188 1h1v2h-1zm39 0h1v1h-1zm6 1h1v1h-1zm-45 1h1v1h-1zm131 0h1v1h-1zm-146 1h1v1h-1zm0 1h1v1h-1zm53 0h1v1h-1zm77 0h1v1h-1zm35 0h1v1h-1zm-112 1h1v1h-1zm77 0h1v1h-1zm30 0h1v12h-1zm55 0h1v1h-1zm-199 1h1v1h-1zm43 0h1v1h-1zm86 0h1v1h-1zm58 0h1v1h-1zm-144 1h1v1h-1zm86 0h1v1h-1zm21 0h1v1h-1zm-165 1h1v1h-1zm51 0h1v1h-1zm77 0h1v1h-1zm85 0h1v1h-1zm-197 1h1v1h-1zm41 0h1v1h-1zm86 0h1v1h-1zm-93 1h1v1h-1zm7 0h1v1h-1zm109 0h1v1h-1zm35 0h1v1h-1zm-200 1h1v1h-1zm16 0h1v1h-1zm125 0h1v1h-1zm-93 1h1v1h-1zm7 0h1v1h-1zm70 0h1v1h-1zm74 0h1v1h-1zm11 0h1v1h-1zm-209 1h1v1h-1zm16 0h1v1h-1zm150 0h1v1h-1zm-165 1h1v1h-1zm16 0h1v1h-1zm36 0h1v1h-1zm85 0h1v1h-1zm59 0h1v1h-1zm11 0h1v1h-1zm-190 1h1v1h-1zm34 0h1v1h-1zm85 0h1v1h-1zm59 0h1v1h-1zm11 0h1v1h-1zm-188 1h1v1h-1zm24 0h1v1h-1zm77 0h1v1h-1zm16 0h1v1h-1zm70 0h1v1h-1zm-203 1h1v1h-1zm116 0h1v1h-1zm38 0h1v2h-1zm13 0h1v1h-1zm35 0h1v1h-1zm-183 1h1v1h-1zm17 0h1v1h-1zm78 0h1v1h-1zm16 0h1v1h-1zm60 0h1v1h-1zm11 0h1v1h-1zm-179 1h2v1h-2zm2 0h1v1h-1zm7 0h2v1h-2zm2 0h1v1h-1zm77 0h1v1h-1zm1 0h1v1h-1zm43 0h1v1h-1zm34 0h1v1h-1zm-184 1h1v1h-1zm40 0h1v1h-1zm27 0h1v1h-1zm56 0h1v1h-1zm29 0h1v1h-1zm17 0h1v1h-1zm1 0h1v1h-1zm11 0h1v1h-1zm1 0h1v1h-1zm12 0h1v1h-1zm-192 1h1v1h-1zm118 0h1v1h-1zm34 0h1v1h-1zm38 0h1v1h-1zm-188 1h1v1h-1zm32 0h1v1h-1zm81 0h1v1h-1zm40 0h1v1h-1zm1 0h1v1h-1zm32 0h1v1h-1zm-183 1h1v1h-1zm1 0h1v1h-1zm25 0h1v1h-1zm1 0h1v1h-1zm33 0h1v1h-1zm44 0h2v1h-2zm2 0h1v1h-1zm48 0h1v1h-1zm1 0h1v1h-1zm25 0h1v1h-1zm-175 1h2v1h-2zm2 0h1v1h-1zm13 0h2v1h-2zm2 0h1v1h-1zm137 0h3v1h-3zm3 0h1v1h-1zm12 0h2v1h-2zm2 0h1v1h-1z" fill="#ec0000"/><path d="M104 22h1v1h-1zm-78 3h1v1h-1zm70 0h1v1h-1zm12 14h1v1h-1zm-84 1h1v1h-1zm74 0h1v1h-1zm-87 1h1v1h-1zm95 4h1v1h-1zm-17 6h1v1h-1zm-4 1h1v1h-1zm-51 3h1v1h-1zm19 13h1v1h-1zm57 3h1v1h-1zm-35 2h1v1h-1zm40 1h1v1h-1zm-71 2h1v1h-1zm55 1h1v1h-1zM6 84h1v1H6zm76 2h1v1h-1zm-56 3h1v1h-1zm8 2h1v1h-1zm88 0h1v1h-1zm-46 5h1v1h-1zM2 99h1v1H2zm93 0h1v1h-1zm-28 1h1v1h-1zm-18 1h1v1h-1zm41 0h1v1h-1zm-4 3h1v1h-1zm-40 1h1v1h-1zm-42 2h1v1H4zm78 2h1v1h-1zm-16 1h1v1h-1zm-17 10h1v1h-1zm1 1h1v1h-1zm26 3h1v1h-1z" fill="#5a5858"/><path d="M27 27h1v1h-1zm31 3h1v1h-1zm-26 1h1v1h-1zm65 9h1v1h-1zm8 0h1v1h-1zM86 50h1v1h-1zm-60 2h1v1h-1zm5 0h1v1h-1zm60 0h1v1h-1zM64 66h1v1h-1zm-52 6h1v1h-1zm24 1h1v1h-1zm76 0h1v1h-1zM6 75h1v1H6zm11 0h1v1h-1zm7 2h1v1h-1zm14 2h1v1h-1zm3 0h1v1h-1zm39 1h1v1h-1zm-67 4h1v1h-1zm70 2h1v1h-1zm38 2h1v2h-1zM13 89h1v1h-1zm51 0h1v1h-1zm57 1h1v1h-1zm-98 1h1v1h-1zm12 0h1v1h-1zm17 2h1v1h-1zm48 7h1v1h-1zm-8 4h1v1h-1zm-64 1h1v1h-1zm17 0h1v1h-1zm-19 1h1v1h-1zm5 1h1v1h-1zm50 3h1v1h-1zm-31 4h1v1h-1zm22 8h1v1h-1zm-14 2h1v1h-1zm12 3h1v1h-1z" fill="#1b1618"/><g fill="#fff"><path d="M0 0h57v4H0zm57 0h1v8h-1zm8 0h308v18H65zm308 0h1v77h-1zM0 4h57v1H0zm0 1h41v14H0zm41 0h1v31h-1zm6 0h2v3h-2zm2 0h1v3h-1zm6 0h2v3h-2zm-8 3h2v1h-2zm2 0h1v1h-1zm6 0h2v1h-2zm2 0h1v1h-1zm-9 7h2v1h-2zm2 0h1v1h-1zm-4 1h4v1h-4zm4 0h1v1h-1zm-7 1h5v1h-5zm5 0h1v1h-1zm-6 1h3v1h-3zm3 0h1v1h-1zm20 0h308v1H65z"/><path d="M0 19h43v1H0zm43 0h1v3h-1zm22 0h274v1H65zm274 0h1v1h-1zm13 0h21v1h-21zM0 20h19v1H0zm19 0h23v1H19zm23 0h1v2h-1zm23 0h36v1H65zm36 0h44v1h-44zm44 0h1v114h-1zm38 0h17v83h-17zm17 0h1v83h-1zm28 0h5v114h-5zm5 0h1v85h-1zm47 0h54v1h-54zm54 0h1v1h-1zm23 0h16v1h-16zM0 21h18v1H0zm18 0h1v1h-1z"/><path d="M23 21h22v1H23zm22 0h1v2h-1zm20 0h34v1H65zm34 0h1v1h-1zm5 0h41v1h-41zm181 0h46v1h-46zm46 0h1v1h-1zm30 0h12v1h-12zM0 22h17v1H0zm17 0h1v1h-1z"/><path d="M24 22h23v1H24zm23 0h1v2h-1zm18 0h33v1H65zm33 0h1v1h-1zm7 0h40v1h-40zm183 0h41v1h-41zm41 0h1v1h-1zm35 0h9v1h-9zM0 23h16v10H0zm16 0h1v1h-1zm9 0h16v1H25z"/><path d="M45 23h5v1h-5zm5 0h1v2h-1zm15 0h32v1H65zm32 0h1v1h-1zm9 0h39v1h-39zm184 0h37v1h-37zm37 0h1v1h-1zm39 0h7v1h-7zM26 24h15v1H26zm21 0h3v1h-3zm18 0h31v1H65zm31 0h1v1h-1zm11 0h38v9h-38zm185 0h34v1h-34zm34 0h1v1h-1zm42 0h5v1h-5zM27 25h14v1H27zm23 0h1v1h-1zm15 0h30v1H65zm30 0h1v1h-1zm198 0h31v1h-31zm31 0h1v1h-1zm16 0h9v27h-9zm9 0h1v31h-1zm20 0h4v43h-4zM29 26h12v1H29zm36 0h28v1H65zm28 0h1v1h-1zm53 0h9v108h-9zm9 0h1v1h-1zm18 0h37v61h-37zm37 0h1v57h-1zm9 0h23v79h-23zm23 0h1v79h-1zm18 0h12v33h-12zm12 0h1v33h-1zm22 0h29v1h-29zm29 0h1v1h-1z"/><path d="M337 26h15v25h-15zm15 0h1v31h-1zM16 27h1v5h-1zm1 0h1v4h-1zm13 0h11v1H30zm35 0h27v1H65zm27 0h1v1h-1zm13 0h49v4h-49zm168 0h2v31h-2zm2 0h1v31h-1zm20 0h27v1h-27zm27 0h1v1h-1z"/><path d="M336 27h18v23h-18zm18 0h1v30h-1zM18 28h1v3h-1zm13 0h10v1H31zm34 0h26v1H65zm26 0h1v1h-1zm13 0h50v3h-50zm172 0h1v29h-1zm1 0h1v29h-1zm19 0h25v1h-25zm25 0h1v1h-1z"/><path d="M334 28h21v21h-21zm21 0h1v30h-1zM19 29h1v3h-1zm13 0h9v1h-9zm33 0h25v1H65zm25 0h1v1h-1zm13 0h51v2h-51zm175 0h1v27h-1zm19 0h23v1h-23zm23 0h1v1h-1z"/><path d="M333 29h23v19h-23zm23 0h1v29h-1zM20 30h1v3h-1zm14 0h7v1h-7zm31 0h23v1H65zm23 0h1v1h-1zm13 0h53v1h-53zm178 0h1v25h-1zm19 0h22v1h-22zm22 0h1v1h-1z"/><path d="M332 30h25v17h-25zm25 0h1v29h-1zM17 31h5v1h-5zm5 0h1v1h-1zm13 0h6v1h-6zm12 0h2v10h-2zm2 0h1v11h-1zm6 0h2v16h-2zm2 0h1v18h-1zm8 0h22v1H65zm22 0h1v1h-1zm13 0h54v1h-54zm180 0h1v23h-1zm19 0h20v1h-20zm20 0h1v1h-1zm39 0h1v28h-1zM16 32h1v1h-1zm3 0h2v1h-2zm2 0h1v1h-1zm15 0h5v1h-5zm29 0h21v1H65zm21 0h1v1h-1zm15 0h2v1h-2zm2 0h1v1h-1zm3 0h48v1h-48zm193 0h19v1h-19zm19 0h1v1h-1z"/><path d="M331 32h27v13h-27zM0 33h15v4H0zm15 0h1v6h-1zm5 0h1v1h-1zm17 0h4v1h-4zm28 0h20v1H65zm20 0h1v1h-1zm17 0h1v1h-1zm5 0h47v4h-47zm174 0h1v19h-1zm19 0h18v2h-18zm18 0h1v1h-1zm41 0h1v27h-1zM38 34h3v1h-3zm27 0h19v1H65zm19 0h1v1h-1z"/><path d="M330 34h29v9h-29zM40 35h17v1H40zm25 0h17v1H65zm17 0h1v1h-1zm200 0h1v15h-1zm18 0h17v1h-17zm17 0h1v1h-1zm43 0h1v25h-1zM16 36h1v2h-1zm25 0h16v1H41zm24 0h16v1H65zm16 0h1v1h-1zm25 0h48v1h-48zm195 0h16v5h-16zm16 0h1v1h-1z"/><path d="M0 37h17v1H0zm17 0h1v1h-1zm25 0h15v1H42zm23 0h15v1H65zm15 0h1v1h-1zm25 0h49v1h-49zM0 38h11v1H0zm11 0h1v1h-1zm3 0h2v1h-2zm2 0h1v1h-1zm27 0h14v1H43zm22 0h14v1H65zm14 0h1v1h-1zm27 0h2v1h-2zm2 0h1v1h-1zm3 0h43v1h-43zm250 0h1v23h-1zM0 39h10v32H0zm10 0h1v1h-1zm5 0h1v1h-1zm30 0h12v1H45zm20 0h12v1H65zm12 0h1v1h-1zm30 0h1v1h-1zm5 0h42v1h-42zm171 0h1v7h-1zM22 40h1v6h-1zm1 0h1v3h-1zm23 0h11v1H46zm19 0h11v1H65zm11 0h1v1h-1zm23 0h1v3h-1zm1 0h1v6h-1zm13 0h41v31h-41zm-66 1h10v1H47zm18 0h10v1H65zm10 0h1v1h-1zm226 0h15v32h-15zm15 0h1v1h-1zM10 42h1v29h-1zm1 0h1v28h-1zm37 0h9v1h-9zm17 0h9v1h-9zm9 0h1v1h-1z"/><path d="M111 42h43v28h-43zm-99 1h1v27h-1zm9 0h2v3h-2zm2 0h1v1h-1zm27 0h7v1h-7zm15 0h7v1h-7zm7 0h1v1h-1zm27 0h2v1h-2zm2 0h1v25h-1z"/><path d="M110 43h44v27h-44zm220 0h32v1h-32zm32 0h1v19h-1zM13 44h1v25h-1zm38 0h6v1h-6zm14 0h6v1h-6zm6 0h1v1h-1z"/><path d="M109 44h45v25h-45zm-95 1h1v24h-1zm1 0h1v24h-1zm24 0h1v3h-1zm13 0h5v1h-5zm13 0h5v1h-5zm5 0h1v1h-1zm13 0h1v3h-1z"/><path d="M107 45h47v24h-47zm224 0h31v1h-31zM16 46h1v23h-1zm4 0h2v22h-2zm2 0h1v1h-1zm6 0h2v1h-2zm2 0h1v1h-1zm8 0h3v1h-3zm3 0h1v22h-1zm12 0h4v1h-4zm12 0h4v1h-4zm4 0h1v1h-1zm12 0h3v2h-3zm3 0h1v1h-1zm8 0h2v1h-2zm2 0h1v2h-1zm6 0h2v1h-2zm2 0h1v22h-1z"/><path d="M106 46h48v23h-48zm177 0h1v1h-1zm80 0h10v16h-10zM17 47h1v22h-1zm10 0h3v1h-3zm3 0h1v1h-1zm8 0h4v1h-4zm4 0h1v21h-1zm12 0h3v1h-3zm11 0h3v1h-3zm3 0h1v1h-1zm12 0h4v1h-4zm4 0h1v1h-1zm8 0h3v1h-3zm3 0h1v2h-1z"/><path d="M105 47h49v22h-49zm195 0h15v25h-15zm32 0h41v1h-41zM18 48h3v20h-3zm7 0h3v1h-3zm3 0h1v1h-1zm11 0h4v1h-4zm4 0h1v19h-1zm13 0h1v1h-1zm9 0h1v1h-1zm1 0h1v1h-1zm13 0h4v19h-4zm4 0h1v1h-1zm11 0h3v1h-3zm3 0h1v2h-1z"/><path d="M103 48h51v20h-51zm230 0h40v1h-40zM23 49h3v1h-3zm3 0h1v1h-1zm14 0h4v18h-4zm4 0h1v17h-1zm13 0h1v1h-1zm8 0h1v1h-1zm13 0h4v17h-4zm17 0h4v1h-4z"/><path d="M99 49h55v19H99zm217 0h1v33h-1zm18 0h39v1h-39zM22 50h3v1h-3zm3 0h1v1h-1zm20 0h1v15h-1zm32 0h5v15h-5z"/><path d="M97 50h57v1H97zm185 0h1v1h-1zm17 0h17v21h-17zm37 0h37v1h-37zM22 51h1v18h-1zm1 0h1v18h-1zm11 0h1v3h-1zm12 0h1v13h-1zm1 0h1v13h-1zm28 0h7v13h-7zm13 0h1v3h-1zm249 0h36v1h-36z"/><path d="M33 52h3v1h-3zm3 0h1v14h-1zm3 0h9v12h-9zm9 0h1v11h-1zm26 0h9v11h-9zm9 0h1v16h-1zm3 0h3v2h-3zm3 0h1v1h-1zm192 0h1v1h-1zm17 0h18v17h-18zm41 0h34v1h-34zM24 53h1v16h-1z"/><path d="M33 53h16v1H33zm16 0h1v9h-1zm24 0h16v1H73zm16 0h1v1h-1zm9 0h56v15H98zm199 0h19v16h-19zm44 0h32v1h-32zM25 54h1v15h-1zm1 0h1v16h-1z"/><path d="M34 54h16v1H34zm16 0h1v7h-1zm22 0h16v1H72zm16 0h1v1h-1zm8 0h58v14H96zm184 0h1v1h-1zm16 0h21v14h-21zm21 0h1v28h-1zm27 0h29v1h-29zM27 55h1v15h-1z"/><path d="M37 55h14v6H37zm14 0h1v5h-1zm19 0h16v5H70zm16 0h1v11h-1zm9 0h59v13H95zm184 0h1v1h-1zm16 0h22v12h-22zm51 0h27v1h-27zM28 56h1v14h-1z"/><path d="M35 56h18v4H35zm18 0h1v3h-1zm16 0h17v3H69zm25 0h60v12H94zm184 0h1v1h-1zm16 0h24v10h-24zm24 0h1v26h-1zm31 0h24v1h-24zM29 57h1v14h-1zm25 0h1v1h-1z"/><path d="M68 57h19v1H68zm19 0h1v9h-1zm6 0h61v11H93zm183 0h1v1h-1zm1 0h1v1h-1zm16 0h25v9h-25zm59 0h21v1h-21zM30 58h1v13h-1zm1 0h1v14h-1zm3 0h20v1H34zm20 0h1v1h-1z"/><path d="M68 58h20v1H68zm20 0h1v9h-1zm3 0h63v10H91zm182 0h2v1h-2zm2 0h1v1h-1zm17 0h27v7h-27zm27 0h1v24h-1zm36 0h18v1h-18zM32 59h21v1H32zm21 0h1v1h-1z"/><path d="M69 59h85v1H69zm191 0h13v1h-13zm13 0h1v1h-1zm17 0h29v5h-29zm67 0h16v1h-16zM32 60h20v1H32zm20 0h1v1h-1zm18 0h84v1H70z"/><path d="M288 60h32v3h-32zm32 0h1v22h-1zm39 0h14v1h-14zM32 61h18v1H32zm18 0h1v1h-1zm22 0h82v1H72z"/><path d="M286 61h35v2h-35zm35 0h1v21h-1zm40 0h12v1h-12zM32 62h17v1H32zm17 0h1v1h-1zm24 0h81v1H73z"/><path d="M283 62h39v1h-39zm39 0h1v20h-1zm40 0h11v1h-11zM32 63h16v1H32zm16 0h1v1h-1zm26 0h80v1H74z"/><path d="M285 63h38v1h-38zm38 0h1v27h-1zm41 0h9v1h-9zM32 64h15v1H32zm15 0h1v1h-1zm28 0h79v1H75z"/><path d="M289 64h35v1h-35zm35 0h1v30h-1zm41 0h8v1h-8zM32 65h13v1H32zm13 0h1v1h-1zm32 0h77v1H77z"/><path d="M291 65h34v1h-34zm34 0h1v31h-1zm41 0h7v1h-7zM32 66h12v1H32zm12 0h1v1h-1zm13 0h1v15h-1zm8 0h1v15h-1zm13 0h76v1H78zm182 0h12v39h-12zm12 0h1v39h-1z"/><path d="M293 66h33v1h-33zm33 0h1v32h-1zm41 0h6v1h-6zM32 67h2v1h-2zm2 0h1v1h-1zm4 0h5v1h-5zm5 0h1v1h-1zm13 0h1v14h-1zm10 0h1v14h-1zm13 0h5v1h-5zm5 0h1v1h-1zm4 0h66v1H88zm185 0h3v37h-3zm3 0h1v37h-1z"/><path d="M295 67h33v1h-33zm33 0h1v33h-1zm40 0h5v1h-5zM18 68h15v1H18zm15 0h1v1h-1zm6 0h3v1h-3zm3 0h1v1h-1zm12 0h3v13h-3zm13 0h1v13h-1zm1 0h1v13h-1zm12 0h3v1h-3zm3 0h1v1h-1zm6 0h65v1H89zm188 0h1v35h-1zm1 0h1v35h-1z"/><path d="M296 68h33v1h-33zm33 0h1v33h-1zm40 0h4v1h-4zM13 69h4v1h-4zm4 0h1v1h-1zm5 0h10v1H22zm10 0h1v4h-1zm8 0h1v1h-1zm13 0h4v12h-4zm16 0h1v12h-1zm13 0h1v1h-1zm8 0h10v1H90zm10 0h1v1h-1zm5 0h49v1h-49zm174 0h1v33h-1zm1 0h1v32h-1z"/><path d="M297 69h34v1h-34zm34 0h1v34h-1zm39 0h3v1h-3zM11 70h1v1h-1zm1 0h1v1h-1zm14 0h6v1h-6zm26 0h5v11h-5zm18 0h1v13h-1zm20 0h6v1h-6zm6 0h1v1h-1zm14 0h44v1h-44zm171 0h1v31h-1z"/><path d="M327 70h6v29h-6zm6 0h1v34h-1zm37 0h3v1h-3zM0 71h10v1H0zm10 0h1v1h-1zm19 0h3v1h-3zm22 0h6v10h-6zm20 0h1v20h-1zm19 0h3v1h-3zm3 0h1v1h-1zm19 0h42v1h-42zm170 0h1v29h-1z"/><path d="M299 71h37v1h-37zm37 0h1v34h-1zm35 0h2v1h-2zM0 72h8v1H0zm8 0h1v1H8zm23 0h2v1h-2zm2 0h1v1h-1zm17 0h7v9h-7zm22 0h1v20h-1zm17 0h2v1h-2zm2 0h1v1h-1zm23 0h40v1h-40zm169 0h1v26h-1z"/><path d="M300 72h38v1h-38zm38 0h1v34h-1zm33 0h2v1h-2zM0 73h7v1H0zm7 0h1v1H7zm25 0h2v1h-2zm2 0h1v1h-1zm14 0h9v8h-9zm25 0h1v19h-1zm1 0h1v20h-1zm14 0h2v1h-2zm2 0h1v1h-1zm25 0h39v1h-39z"/><path d="M301 73h40v1h-40zm40 0h1v33h-1zm31 0h1v1h-1zM0 74h5v1H0zm5 0h1v1H5zm29 0h1v1h-1zm13 0h10v4H47zm28 0h1v4h-1zm13 0h1v1h-1zm28 0h38v1h-38zm168 0h1v23h-1z"/><path d="M302 74h42v1h-42zm42 0h1v32h-1zm28 0h1v1h-1zM0 75h4v2H0zm4 0h1v1H4zm42 0h11v2H46zm30 0h1v2h-1zm41 0h37v1h-37z"/><path d="M302 75h45v1h-45zm45 0h1v31h-1zM17 76h2v9h-2zm2 0h1v10h-1zm26 0h12v1H45zm32 0h1v1h-1zm26 0h2v9h-2zm2 0h1v9h-1zm13 0h36v1h-36zm167 0h1v19h-1z"/><path d="M303 76h46v2h-46zm46 0h1v29h-1zM0 77h3v1H0zm3 0h1v1H3zm11 0h7v5h-7zm7 0h1v8h-1zm25 0h11v1H46zm30 0h1v1h-1zm24 0h8v7h-8zm8 0h1v2h-1zm11 0h35v1h-35zm231 0h1v28h-1zm1 0h1v27h-1zm22 0h1v1h-1zM0 78h2v2H0zm2 0h1v1H2z"/><path d="M12 78h10v1H12zm10 0h1v6h-1zm25 0h10v1H47zm28 0h1v1h-1zm24 0h11v1H99zm11 0h1v2h-1zm10 0h34v1h-34zm183 0h49v1h-49zm49 0h1v26h-1z"/><path d="M11 79h12v1H11zm12 0h1v4h-1zm76 0h12v1H99zm12 0h1v2h-1zm9 0h34v1h-34zm184 0h50v3h-50zm50 0h1v23h-1zM0 80h1v3H0zm1 0h1v1H1zm9 0h2v1h-2zm2 0h11v1H12zm70 0h1v3h-1zm16 0h9v2h-9z"/><path d="M110 80h2v1h-2zm2 0h1v2h-1zm9 0h33v1h-33zm165 0h1v11h-1zm69 0h1v21h-1zM9 81h2v1H9zm2 0h1v1h-1zm28 0h1v1h-1zm1 0h1v3h-1zm7 0h10v1H47zm10 0h1v1h-1zm8 0h10v1H65zm10 0h1v13h-1zm8 0h1v1h-1z"/><path d="M111 81h2v1h-2zm2 0h1v2h-1zm8 0h33v1h-33zm235 0h1v19h-1zM8 82h2v1H8zm2 0h1v1h-1zm4 0h9v1h-9zm27 0h1v6h-1zm5 0h6v9h-6zm6 0h1v1h-1zm24 0h1v13h-1zm5 0h1v5h-1zm17 0h9v1h-9z"/><path d="M112 82h2v1h-2zm2 0h1v13h-1zm8 0h33v1h-33zm33 0h1v52h-1zm149 0h52v1h-52zM0 83h1v1H0zm8 0h1v12H8zm1 0h1v1H9zm6 0h8v1h-8zm8 0h1v1h-1zm19 0h10v8H42zm10 0h1v1h-1zm18 0h8v1h-8zm8 0h4v4h-4zm4 0h1v1h-1zm17 0h8v1h-8zm14 0h1v1h-1zm9 0h33v1h-33zm88 0h1v1h-1zm95 0h10v51h-10zm10 0h1v51h-1zm19 0h23v17h-23zm23 0h1v15h-1zM7 84h1v12H7zm8 0h7v1h-7zm7 0h1v1h-1z"/><path d="M40 84h11v1H40zm37 0h4v12h-4zm22 0h8v1h-8zm8 0h1v1h-1zm8 0h1v12h-1zm8 0h32v50h-32zm235 0h1v12h-1zM16 85h5v1h-5zm5 0h1v1h-1zm80 0h5v1h-5zm5 0h1v1h-1zM6 86h2v8H6zm13 0h1v1h-1zm84 0h1v1h-1zm10 0h2v8h-2zM9 87h1v7H9zm43 0h1v4h-1z"/><path d="M70 87h11v4H70zm11 0h1v1h-1zm35 0h1v6h-1zm57 0h36v1h-36zm36 0h1v4h-1zM10 88h1v6h-1zm31 0h11v1H41zm71 0h4v6h-4zm62 0h35v4h-35zm185 0h1v3h-1zM28 89h2v9h-2zm2 0h1v12h-1zm23 0h4v1h-4zm4 0h1v1h-1z"/><path d="M65 89h15v1H65zm26 0h3v9h-3zm3 0h1v9h-1zm17 0h5v5h-5zm107 0h24v16h-24zM11 90h1v4h-1zm15 0h6v7h-6zm6 0h1v9h-1zm21 0h2v1h-2zm2 0h1v1h-1zm12 0h13v1H67z"/><path d="M90 90h6v8h-6zm6 0h1v7h-1zm14 0h6v4h-6zm194 0h11v44h-11zm19 0h36v1h-36zM12 91h1v4h-1zm1 0h1v5h-1zm12 0h8v5h-8zm8 0h1v7h-1zm9 0h10v1H42zm10 0h1v1h-1zm18 0h10v1H70z"/><path d="M89 91h8v6h-8zm8 0h1v5h-1zm12 0h7v3h-7zm100 0h1v1h-1zm77 0h1v1h-1zm73 0h1v1h-1zM14 92h1v6h-1zm1 0h1v12h-1zm27 0h8v1h-8zm8 0h1v1h-1zm22 0h8v1h-8z"/><path d="M88 92h9v4h-9zm19 0h9v2h-9zm49 0h1v42h-1zm18 0h34v1h-34zm34 0h1v2h-1zM16 93h1v11h-1zm1 0h1v11h-1zm17 0h1v2h-1zm8 0h6v1h-6zm6 0h1v1h-1zm26 0h6v1h-6z"/><path d="M105 93h11v1h-11zm11 0h1v1h-1zm59 0h33v2h-33zm198 0h1v41h-1zM6 94h11v1H6zm18 0h10v1H24zm17 0h6v1h-6zm6 0h1v1h-1zm28 0h5v1h-5zm30 0h10v1h-10zm103 0h1v1h-1zm9 0h25v11h-25zm86 0h12v40h-12zm21 0h34v1h-34zM8 95h1v1H8zm4 0h5v1h-5zm22 0h1v1h-1zm7 0h5v1h-5zm5 0h1v1h-1zm30 0h5v1h-5zm5 0h1v7h-1zm24 0h5v1h-5zm5 0h1v1h-1zm4 0h1v1h-1zm61 0h32v1h-32zm32 0h1v1h-1zm78 0h1v1h-1zM0 96h1v5H0zm7 0h1v1H7zm6 0h4v1h-4zm12 0h8v1h-8zm16 0h4v1h-4zm4 0h1v1h-1zm32 0h4v1h-4zm11 0h9v1h-9zm9 0h1v1h-1zm8 0h4v2h-4zm4 0h1v1h-1zm6 0h1v1h-1zm7 0h35v5h-35zm35 0h1v38h-1zm19 0h31v1h-31zm31 0h1v1h-1zm118 0h33v1h-33zm33 0h1v1h-1zm14 0h1v38h-1zM18 97h1v7h-1zm8 0h7v1h-7zm15 0h3v1h-3zm3 0h1v1h-1zm34 0h3v1h-3zm11 0h7v1h-7zm7 0h1v1h-1z"/><path d="M104 97h4v7h-4zm72 0h30v1h-30zm30 0h1v1h-1zm10 0h26v8h-26zm68 0h1v1h-1zm18 0h13v37h-13zM14 98h4v1h-4zm13 0h6v1h-6zm6 0h1v1h-1zm7 0h3v2h-3zm3 0h1v1h-1zm36 0h2v1h-2zm10 0h6v1h-6zm6 0h1v1h-1zm13 0h1v1h-1zm13 0h37v2h-37zm37 0h1v36h-1zm19 0h29v1h-29zm29 0h1v1h-1zm77 0h1v1h-1zm43 0h31v1h-31zm31 0h1v1h-1zm14 0h2v36h-2zM1 99h1v1H1zm18 0h1v6h-1zm12 0h1v1h-1zm1 0h1v1h-1zm48 0h2v1h-2zm2 0h1v5h-1zm8 0h2v1h-2zm2 0h1v3h-1z"/><path d="M103 99h4v5h-4zm74 0h28v1h-28zm28 0h1v1h-1zm96 0h14v35h-14zm26 0h29v1h-29zM1 100h1v1H1zm28 0h2v1h-2zm2 0h1v1h-1zm9 0h2v2h-2zm2 0h1v1h-1zm38 0h2v1h-2zm10 0h3v1h-3zm3 0h1v2h-1z"/><path d="M102 100h5v4h-5zm18 0h39v1h-39zm39 0h1v34h-1zm19 0h26v1h-26zm26 0h1v1h-1zm11 0h27v5h-27zm67 0h1v1h-1zm18 0h15v34h-15zm28 0h28v1h-28zm28 0h1v1h-1zm14 0h3v34h-3zM0 101h1v1H0zm13 0h7v2h-7zm7 0h1v4h-1zm8 0h2v1h-2zm2 0h1v1h-1zm9 0h2v4h-2zm12 0h4v9h-4zm4 0h1v8h-1zm12 0h4v8h-4zm4 0h1v8h-1zm12 0h1v33h-1zm8 0h3v1h-3zm3 0h1v2h-1zm14 0h1v2h-1zm14 0h37v1h-37zm57 0h24v1h-24zm24 0h1v1h-1zm77 0h1v1h-1zm1 0h1v1h-1zm48 0h26v1h-26zm26 0h1v1h-1z"/><path d="M12 102h9v1h-9zm9 0h1v3h-1zm5 0h3v1h-3zm3 0h1v1h-1zm12 0h1v1h-1zm8 0h7v6h-7zm7 0h1v7h-1zm10 0h7v7h-7zm7 0h1v6h-1zm8 0h2v1h-2zm11 0h3v1h-3zm3 0h1v1h-1zm5 0h10v1h-10zm10 0h1v1h-1zm50 0h1v32h-1zm20 0h22v1h-22zm22 0h1v1h-1zm12 0h28v3h-28zm65 0h1v1h-1zm20 0h17v32h-17zm17 0h1v32h-1zm14 0h24v1h-24zm24 0h1v1h-1zm15 0h4v32h-4z"/><path d="M13 103h10v1H13zm10 0h5v1h-5zm5 0h1v1h-1zm10 0h2v31h-2zm10 0h9v5h-9zm9 0h1v5h-1zm8 0h9v5h-9zm9 0h1v14h-1zm10 0h1v31h-1zm10 0h3v1h-3zm3 0h12v1H97zm12 0h1v1h-1zm52 0h1v31h-1zm20 0h20v1h-20zm20 0h1v1h-1zm12 0h29v2h-29zm64 0h1v1h-1zm1 0h1v1h-1zm20 0h18v31h-18zm33 0h22v1h-22zm22 0h1v1h-1zm15 0h5v31h-5zm-353 1h11v1H15zm11 0h1v1h-1z"/><path d="M37 104h3v30h-3zm45 0h3v1h-3zm3 0h1v30h-1zm11 0h11v1H96zm11 0h1v1h-1zm76 0h15v1h-15zm15 0h1v1h-1zm75 0h3v1h-3zm3 0h1v1h-1zm21 0h19v30h-19zm35 0h20v1h-20zm20 0h1v1h-1zm15 0h6v30h-6zM0 105h1v29H0zm19 0h4v1h-4zm4 0h1v1h-1z"/><path d="M36 105h4v29h-4zm4 0h1v1h-1zm7 0h10v3H47zm28 0h1v10h-1zm11 0h1v29h-1zm13 0h4v1h-4zm4 0h1v1h-1zm19 0h40v29h-40zm40 0h1v29h-1zm25 0h7v1h-7zm7 0h1v1h-1zm18 0h30v1h-30zm30 0h1v1h-1zm18 0h12v1h-12zm12 0h1v1h-1zm23 0h21v29h-21zm39 0h16v1h-16zm16 0h1v1h-1zm16 0h7v29h-7zM7 106h1v28H7z"/><path d="M35 106h4v28h-4zm52 0h1v28h-1zm28 0h1v28h-1zm48 0h1v28h-1zm48 0h21v28h-21zm83 0h22v28h-22zm43 0h11v1h-11zm11 0h1v1h-1zm17 0h8v28h-8zM1 107h1v27H1zm4 0h3v27H5zm3 0h1v27H8z"/><path d="M34 107h5v27h-5zm54 0h1v27h-1zm26 0h2v27h-2zm2 0h1v27h-1zm5 0h44v27h-44zm44 0h1v27h-1zm44 0h23v27h-23zm83 0h24v27h-24zm71 0h10v27h-10zM2 108h7v26H2zm7 0h1v26H9z"/><path d="M33 108h6v26h-6zm13 0h11v1H46zm11 0h1v1h-1zm8 0h11v1H65zm11 0h1v4h-1zm13 0h1v26h-1zm24 0h53v26h-53zm53 0h1v26h-1zm42 0h24v26h-24zm82 0h28v26h-28zm28 0h1v26h-1zm44 0h11v26h-11zm-352 1h1v25h-1zm1 0h1v25h-1z"/><path d="M31 109h8v25h-8zm15 0h2v3h-2zm2 0h8v1h-8zm8 0h1v1h-1zm10 0h6v1h-6zm6 0h4v1h-4zm18 0h1v25h-1zm1 0h1v25h-1zm20 0h57v25h-57zm57 0h1v25h-1zm38 0h26v25h-26zm82 0h33v25h-33zm33 0h1v25h-1zm39 0h13v25h-13zm-348 1h1v24h-1zm1 0h1v24h-1z"/><path d="M29 110h10v24H29zm19 0h1v7h-1zm3 0h3v1h-3zm3 0h1v1h-1zm14 0h2v1h-2zm2 0h1v1h-1zm22 0h1v24h-1zm1 0h1v24h-1zm16 0h61v24h-61zm61 0h1v24h-1zm34 0h28v24h-28zm81 0h39v24h-39zm39 0h1v24h-1zm34 0h15v24h-15zm-344 1h2v23h-2zm2 0h1v23h-1z"/><path d="M26 111h13v23H26zm68 0h2v23h-2zm2 0h1v23h-1zm10 0h67v23h-67zm67 0h1v23h-1zm28 0h31v23h-31zm79 0h47v23h-47zm47 0h1v23h-1zm28 0h18v23h-18z"/><path d="M17 112h22v22H17zm29 0h2v1h-2zm30 0h1v1h-1zm21 0h81v22H97zm81 0h1v22h-1zm19 0h136v22H197zm136 0h1v22h-1zm17 0h23v22h-23zm-303 1h1v2h-1zm14 0h1v6h-1z"/><path d="M179 113h194v21H179zm-117 1h1v5h-1zm-22 1h1v19h-1zm7 0h1v1h-1z"/><path d="M59 115h4v4h-4zm4 0h1v4h-1zm12 0h1v1h-1zm-26 1h1v3h-1zm1 0h1v4h-1z"/><path d="M57 116h8v3h-8zm8 0h1v8h-1zm7 0h2v2h-2zm10 0h291v18H82z"/><path d="M48 117h26v1H48zm26 0h1v1h-1zm-33 1h1v16h-1zm10 0h22v1H51zm22 0h1v1h-1zm8 0h292v16H81zm-32 1h23v1H49zm23 0h1v1h-1zm-30 1h1v14h-1zm8 0h8v1h-8zm8 0h1v1h-1zm6 0h7v1h-7zm7 0h1v1h-1z"/><path d="M80 120h293v14H80zm-29 1h6v1h-6zm6 0h1v3h-1zm9 0h4v1h-4zm4 0h1v1h-1zm-27 1h1v12h-1zm10 0h4v1h-4zm13 0h3v1h-3zm3 0h1v1h-1z"/><path d="M79 122h294v12H79zm-35 1h1v11h-1zm11 0h2v1h-2zm11 0h1v1h-1zm1 0h1v1h-1z"/><path d="M78 123h295v11H78zm-33 1h1v10h-1zm12 0h1v1h-1zm8 0h1v1h-1z"/><path d="M77 124h296v10H77zm-31 1h1v9h-1z"/><path d="M76 125h297v9H76zm-29 1h1v8h-1z"/><path d="M75 126h298v8H75zm-27 1h1v7h-1z"/><path d="M74 127h299v7H74zm-25 1h1v6h-1zm1 0h1v6h-1z"/><path d="M72 128h301v6H72zm-21 1h1v5h-1zm1 0h1v5h-1z"/><path d="M70 129h303v5H70zm-17 1h2v4h-2zm2 0h1v4h-1z"/><path d="M67 130h306v4H67zm-11 1h1v3h-1zm1 0h1v3h-1z"/><path d="M65 131h308v3H65zm-65 3h57v1H0zm57 0h1v1h-1zm8 0h308v1H65zm308 0h1v1h-1z"/></g><path d="M278 20h1v1h-1zm78 0h1v1h-1zm-31 5h1v1h-1zm4 14h1v1h-1zm0 1h1v1h-1zm-13 4h1v1h-1zm-16 2h1v1h-1zm-17 1h1v1h-1zm33 0h1v1h-1zm4 12h1v1h-1zm36 0h1v1h-1zm7 4h1v1h-1zm-18 11h1v1h-1zm28 4h1v1h-1zm-51 7h1v1h-1zm-18 2h1v1h-1zm-95 5h1v1h-1zm8 1h1v1h-1zm85 3h1v1h-1zm14 0h1v1h-1zm42 1h1v1h-1zm-57 1h1v1h-1zm26 2h1v1h-1zm3 3h1v1h-1zm34 3h1v1h-1zm-47 1h1v1h-1zm2 1h1v1h-1zm42 0h1v1h-1zm-166 4h1v1h-1zm140 0h1v1h-1zm14 0h1v1h-1z" fill="#fbddde"/><path d="M338 21h1v1h-1zm15 0h1v1h-1zm-206 1h1v1h-1zm55 0h1v1h-1zm79 0h1v1h-1zm53 0h1v1h-1zm-187 1h1v1h-1zm55 0h1v1h-1zm129 0h1v1h-1zm10 0h1v1h-1zm7 0h1v1h-1zm13 0h1v1h-1zm-213 1h7v1h-7zm7 0h1v1h-1zm18 0h8v1h-8zm8 0h1v1h-1zm22 0h7v1h-7zm7 0h1v1h-1zm9 0h6v1h-6zm6 0h1v1h-1zm10 0h7v1h-7zm7 0h1v1h-1zm18 0h11v1h-11zm11 0h1v1h-1zm17 0h1v1h-1zm41 0h1v1h-1zm35 0h1v1h-1zm-208 1h1v1h-1zm55 0h1v1h-1zm64 0h1v1h-1zm15 0h1v1h-1zm-32 1h1v34h-1zm19 0h1v1h-1zm45 4h1v1h-1zm8 0h1v1h-1zm30 1h1v1h-1zm-31 1h1v1h-1zm-46 1h1v1h-1zm78 0h1v1h-1zm-63 2h1v1h-1zm64 0h1v1h-1zm-43 1h1v1h-1zm48 0h1v4h-1zm-5 2h1v1h-1zm-44 2h1v1h-1zm49 0h1v1h-1zm-82 1h1v3h-1zm14 0h1v1h-1zm0 1h1v1h-1zm-14 2h1v1h-1zm45 3h1v1h-1zm-12 3h1v1h-1zm16 0h1v1h-1zm-51 2h1v1h-1zm36 2h1v1h-1zm25 2h1v1h-1zm-54 1h1v1h-1zm31 1h1v1h-1zm-35 1h1v1h-1zm66 0h1v1h-1zm-94 1h1v1h-1zm1 1h1v1h-1zm14 0h1v1h-1zm7 0h1v1h-1zm77 0h1v1h-1zm-76 3h1v1h-1zm81 0h1v1h-1zm-86 1h1v1h-1zm10 0h1v1h-1zm42 0h1v1h-1zm-70 1h1v39h-1zm31 0h1v1h-1zm-9 1h1v1h-1zm88 3h1v1h-1zm-27 1h1v1h-1zm-56 1h1v1h-1zm59 0h1v1h-1zm-58 2h1v1h-1zm68 3h1v1h-1zm-66 4h1v1h-1zm14 0h1v1h-1zm70 1h1v1h-1zm-54 2h2v1h-2zm2 0h1v1h-1zm-149 1h1v1h-1zm-14 1h1v1h-1zm14 0h1v1h-1zm201 2h1v1h-1zm-161 2h1v1h-1zm5 0h1v1h-1zm72 0h1v1h-1zm34 0h1v1h-1zm-20 1h1v1h-1zm-92 3h1v1h-1zm-37 1h1v1h-1zm-14 1h1v1h-1zm164 0h1v1h-1zm36 0h1v1h-1zm11 0h1v2h-1zm-46 2h1v1h-1zm46 0h1v1h-1zm-86 2h1v1h-1zm14 0h1v1h-1zm-92 1h1v1h-1zm121 1h1v1h-1zm-165 1h1v1h-1zm1 0h1v1h-1zm41 0h1v1h-1zm77 0h1v1h-1zm14 0h1v1h-1zm33 0h1v1h-1zm27 0h1v1h-1zm1 0h1v1h-1zm-192 1h1v1h-1zm46 0h1v1h-1zm1 0h1v1h-1zm84 0h1v1h-1zm60 0h1v1h-1zm-174 1h1v1h-1zm28 0h1v1h-1zm49 0h1v1h-1zm20 0h1v1h-1zm85 0h1v1h-1zm-119 1h1v1h-1zm-55 1h3v1h-3zm3 0h1v1h-1zm51 0h1v1h-1zm28 0h1v1h-1zm17 0h1v1h-1zm72 0h1v1h-1zm-22 1h1v1h-1zm9 0h1v1h-1zm-174 1h1v1h-1zm108 0h1v1h-1zm46 0h1v1h-1zm28 0h1v1h-1zm-23 1h1v1h-1zm19 0h1v1h-1z" fill="#ed121c"/><path d="M155 27h1v54h-1zm180 0h1v1h-1zm-37 4h1v1h-1zm1 2h1v1h-1zm19 1h1v1h-1zm-2 8h1v1h-1zm46 0h1v1h-1zm-32 2h1v1h-1zm-32 7h1v1h-1zm-22 7h1v1h-1zm78 0h1v1h-1zm-24 10h1v1h-1zm-32 2h1v1h-1zm36 0h1v1h-1zm5 2h1v1h-1zm3 1h1v1h-1zm-41 1h1v1h-1zm-146 7h1v1h-1zm202 1h1v1h-1zm-53 1h1v1h-1zm18 0h1v1h-1zm-112 1h1v1h-1zm8 4h1v1h-1zm86 1h1v1h-1zm-97 8h1v1h-1zm150 2h1v1h-1zm-152 1h1v1h-1zm111 0h1v1h-1zm-112 1h1v1h-1zm112 0h1v1h-1zm12 0h1v1h-1zm41 0h1v1h-1zm-40 1h1v1h-1zm-130 2h1v1h-1zm13 0h1v1h-1zm-17 1h1v1h-1zm156 0h1v1h-1zm-187 1h1v1h-1zm7 4h1v1h-1zm3 1h1v1h-1zm154 0h1v1h-1zm-149 1h1v1h-1zm17 0h1v1h-1zm138 0h1v1h-1z" fill="#fef5f5"/><path d="M58 0h1v1h-1zm6 0h1v1h-1zM51 15h1v1h-1zm0 1h1v1h-1zm0 8h1v1h-1zm-16 8h1v1h-1zm52 0h1v1h-1zm4 14h1v1h-1zM57 65h1v1h-1zm-17 5h1v1h-1zm42 0h1v1h-1zm26 0h1v1h-1zm-87 6h1v1h-1zm80 0h1v1h-1zm10 2h1v1h-1zM8 81h1v1H8zm105 3h1v1h-1zM9 85h1v1H9zm8 7h1v1h-1zm1 0h1v1h-1zM0 94h1v1H0zm74 0h1v1h-1zm40 2h1v1h-1zm7 1h1v1h-1zm-27 2h1v1h-1zm-66 1h1v1h-1zm25 0h1v1h-1zm16 0h1v1h-1zm39 4h1v1h-1zm14 0h1v1h-1zm-82 4h1v1h-1zm-28 1h1v1h-1zm80 0h1v1h-1zm10 2h1v1h-1zm-53 4h1v1h-1zm24 0h1v1h-1zm8 2h1v1h-1z" fill="#b1b0b0"/><path d="M60 0h2v1h-2zm2 0h1v1h-1zM18 22h1v1h-1zm-1 4h1v1h-1zm15 4h1v1h-1zm58 0h1v1h-1zM21 40h1v1h-1zm80 0h1v1h-1zm6 0h1v1h-1zm-66 5h1v1h-1zm40 0h1v1h-1zm-42 5h1v1h-1zm-13 3h1v1h-1zm65 4h1v1h-1zM7 74h1v1H7zm71 2h1v1h-1zm-55 1h1v1h-1zm-7 9h1v1h-1zm24 1h1v1h-1zm52 1h1v1h-1zM0 91h1v1H0zm55 0h1v1h-1zm52 0h1v1h-1zm5 4h1v1h-1zM7 97h1v1H7zm108 0h1v1h-1zm-92 5h1v1h-1zm88 0h1v1h-1zm-19 1h1v1h-1zm-79 1h1v1h-1zm68 0h1v1h-1zm-73 2h1v1H8zm21 3h1v1h-1zm80 0h1v1h-1zm-3 1h1v1h-1zm-57 1h1v2h-1zm5 0h1v1h-1zm14 0h1v1h-1zm5 0h1v2h-1zm-24 2h1v1h-1zm24 0h1v1h-1zm-14 1h1v1h-1zm-18 1h1v1h-1zm35 0h1v1h-1zm-14 19h1v1h-1z" fill="#3a3738"/><path d="M19 28h1v1h-1zm28 2h2v1h-2zm2 0h1v1h-1zm6 0h2v1h-2zm2 0h1v1h-1zm43 2h1v1h-1zm-54 9h1v1h-1zm-7 3h1v1h-1zm44 0h1v1h-1zm-45 4h1v1h-1zm46 0h1v1h-1zm-27 2h1v1h-1zm8 0h1v1h-1zm-41 1h1v1h-1zm74 0h1v1h-1zm-66 2h1v1h-1zm58 0h1v1h-1zm4 2h1v1h-1zm-39 2h1v1h-1zm12 0h1v1h-1zm-2 8h1v1h-1zm-27 3h1v1h-1zm-24 2h1v1h-1zm57 0h1v1h-1zm5 11h1v1h-1zm45 1h1v1h-1zm-6 1h1v1h-1zM0 85h1v1H0zm9 10h1v1H9zm101 1h1v1h-1zm-76 1h1v1h-1zm10 1h1v1h-1zm-11 1h1v1h-1zm21 1h1v1h-1zm14 0h1v1h-1zm13 3h1v1h-1zm-56 2h1v1h-1zm-5 6h2v1h-2zm2 0h1v1h-1zm18 0h1v1h-1zm60 0h1v1h-1zm1 0h1v1h-1zm-43 4h1v1h-1zm6 0h1v1h-1zm-11 1h1v1h-1zm1 0h1v1h-1zm14 0h1v1h-1zm1 0h1v1h-1zm5 2h1v1h-1zm0 8h1v1h-1z" fill="#aaa9a9"/><path d="M48 18h1v1h-1zm-21 8h1v1h-1zm68 0h1v1h-1zm6 3h1v1h-1zm1 5h1v1h-1zM15 44h1v1h-1zm92 0h1v1h-1zm-84 2h1v1h-1zm76 0h1v1h-1zm-45 2h1v1h-1zm14 0h1v1h-1zm-10 2h1v1h-1zm-27 7h1v1h-1zm27 8h1v1h-1zm48 5h1v1h-1zm-87 5h1v1h-1zm84 0h1v1h-1zM5 76h1v1H5zm34 3h1v1h-1zm59 5h1v1h-1zm10 0h1v1h-1zm-2 2h1v1h-1zm-37 1h1v1h-1zM0 89h1v1H0zm0 1h1v1H0zm13 0h1v1h-1zm74 6h1v1h-1zm-62 2h1v1h-1zm9 0h1v1h-1zm-21 2h1v1h-1zm88 0h1v1h-1zm-99 1h1v1H2zm24 0h1v1h-1zm6 0h1v1h-1zm68 0h1v1h-1zm-69 1h1v1h-1zm-26 4h1v1H5zm15 0h1v1h-1zm80 0h2v1h-2zm2 0h1v1h-1zm-91 2h1v1h-1zm80 0h1v1h-1zm-14 1h1v2h-1zm16 0h1v1h-1zm-20 1h1v1h-1zm23 0h1v1h-1zm-19 1h1v1h-1zm-27 4h1v1h-1zm22 0h1v1h-1zm0 6h1v1h-1z" fill="#242021"/><path d="M348 19h1v1h-1zm7 1h1v1h-1zm-72 1h1v1h-1zm84 3h1v1h-1zm-149 2h1v1h-1zm135 0h1v1h-1zm-110 1h1v77h-1zm54 3h1v1h-1zm20 8h1v1h-1zm12 4h1v1h-1zm-46 6h1v1h-1zm34 4h1v1h-1zm21 0h1v1h-1zm2 1h1v1h-1zm-48 4h1v1h-1zm-5 3h1v1h-1zm77 4h1v1h-1zm-74 1h1v1h-1zm50 7h1v1h-1zm10 4h1v1h-1zm-132 7h1v1h-1zm104 4h1v1h-1zm-6 2h1v1h-1zm-99 3h1v1h-1zm142 2h1v1h-1zm12 3h1v1h-1zm-211 4h1v1h-1zm119 2h1v1h-1zm88 0h1v1h-1zm-124 1h1v1h-1zm90 1h1v1h-1zm-57 6h1v1h-1zm77 0h1v1h-1zm-16 1h1v1h-1z" fill="#f7afb0"/><path d="M341 19h1v1h-1zm9 0h1v1h-1zm-22 4h1v1h-1zm22 2h1v1h-1zm-21 13h1v1h-1zm0 3h1v1h-1zm33 0h1v1h-1zm-46 4h1v1h-1zm0 1h1v1h-1zm19 4h1v1h-1zm16 7h1v1h-1zm-81 3h1v1h-1zm88 0h1v1h-1zm-73 1h1v1h-1zm-3 1h1v1h-1zm2 1h1v1h-1zm20 22h1v1h-1zm-94 1h1v1h-1zm8 0h1v1h-1zm86 0h1v1h-1zm-131 3h1v1h-1zm186 4h1v1h-1zm-43 1h1v1h-1zm0 1h1v1h-1zm56 0h1v1h-1zm-166 4h1v1h-1zm92 3h1v1h-1zm-1 1h1v1h-1zm-101 2h1v1h-1zm140 1h1v1h-1zm-167 3h1v1h-1zm118 0h1v1h-1zm72 0h1v1h-1zm-81 2h1v1h-1zm51 0h1v1h-1z" fill="#fad3d4"/><path d="M358 22h1v1h-1zm-16 1h1v1h-1zm5 0h1v1h-1zm-21 2h1v1h-1zm8 1h1v1h-1zm33 8h1v1h-1zm-39 1h1v1h-1zm39 0h1v1h-1zm-68 5h1v1h-1zm0 3h1v1h-1zm29 0h1v1h-1zm37 1h2v1h-2zm2 0h1v1h-1zm-83 1h1v1h-1zm15 2h1v1h-1zm-15 2h1v1h-1zm49 1h1v1h-1zm14 7h1v1h-1zm-70 2h1v1h-1zm82 3h1v1h-1zm-21 8h1v1h-1zm-41 1h1v1h-1zm54 5h1v1h-1zm7 5h1v1h-1zm14 0h1v1h-1zm-84 1h1v1h-1zm-117 2h1v1h-1zm-14 3h1v1h-1zm164 2h1v1h-1zm51 0h1v1h-1zm-214 4h1v1h-1zm164 0h1v1h-1zm-35 1h1v1h-1zm13 3h1v1h-1zm-125 2h1v1h-1zm193 1h1v1h-1zm-203 5h1v1h-1zm33 1h1v1h-1zm120 0h1v1h-1zm-150 1h1v1h-1zm102 0h1v1h-1zm-100 1h1v1h-1zm153 0h1v1h-1zm35 0h1v1h-1zm-156 1h1v1h-1zm-25 1h1v1h-1zm21 0h1v1h-1zm-20 1h1v1h-1z" fill="#ed111b"/><path d="M347 24h1v1h-1zm-201 1h1v1h-1zm209 2h1v1h-1zm13 7h1v1h-1zm-39 9h1v1h-1zm27 37h1v1h-1zm17 1h1v1h-1zm-201 3h1v1h-1zm114 10h1v1h-1zm-72 6h1v1h-1zm56 6h1v1h-1z" fill="#f16c6f"/><path d="M64 2h1v47h-1zM47 20h1v1h-1zm-2 5h1v1h-1zm45 6h1v1h-1zm11 3h1v1h-1zm-76 6h1v1h-1zm18 0h1v1h-1zm36 0h1v1h-1zm23 3h1v1h-1zm-61 1h1v1h-1zm40 0h1v1h-1zm-17 5h1v1h-1zm27 7h1v1h-1zM64 67h1v14h-1zm-20 8h1v1h-1zM6 76h1v1H6zm17 0h1v1h-1zm41 5h1v1h-1zM6 82h1v1H6zm52 0h1v1h-1zm41 4h1v1h-1zm12 0h1v1h-1zm-99 2h1v1h-1zm52 2h1v1h-1zm57 1h1v1h-1zM1 92h1v1H1zm3 1h1v1H4zm66 0h1v1h-1zm16 0h1v1h-1zm-3 3h1v1h-1zm37 0h1v1h-1zm-18 1h1v1h-1zm-35 2h1v1h-1zm17 0h1v1h-1zm-40 1h1v1h-1zm-21 1h1v1h-1zm9 1h1v1h-1zm14 1h1v1h-1zm74 2h1v1h-1zm-98 1h1v1h-1zm59 3h1v1h-1zm-1 7h1v1h-1zm-37 2h1v1h-1zm30 2h1v1h-1zm0 1h1v1h-1zm-9 2h1v1h-1zm8 3h1v1h-1zm-8 4h1v2h-1zm0 2h1v1h-1z" fill="#1b1617"/><path d="M46 7h1v1h-1zm4 0h1v1h-1zm-4 1h1v1h-1zm4 0h1v1h-1zm-6 8h1v1h-1zm3 2h1v1h-1zM30 28h1v1h-1zm62 0h1v1h-1zm-46 3h1v1h-1zm4 0h1v1h-1zm-4 1h1v1h-1zm4 0h1v1h-1zm26 9h1v1h-1zm-49 5h1v1h-1zm4 0h1v1h-1zm64 0h1v1h-1zm1 4h1v1h-1zm-23 2h1v1h-1zm16 6h1v1h-1zm-5 10h1v1h-1zm-53 5h1v1h-1zm60 0h1v1h-1zm-45 1h1v1h-1zm36 11h1v1h-1zm19 1h1v1h-1zm-11 3h1v1h-1zm-57 1h1v1h-1zm65 2h1v1h-1zm24 1h1v1h-1zm-98 3h1v1h-1zm28 4h1v1h-1zm18 0h1v1h-1zm4 2h1v1h-1zm-62 1h1v1h-1zm-12 1h1v1H0zm33 3h1v1h-1zm25 0h1v1h-1zm6 0h1v1h-1zm-24 2h1v1h-1zm0 1h1v1h-1zm42 3h1v1h-1zm-6 1h1v1h-1zm4 5h1v1h-1z" fill="#a1a0a0"/><path d="M327 24h1v1h-1zm-126 1h1v1h-1zm77 3h1v1h-1zm55 0h1v1h-1zm-14 5h1v1h-1zm49 0h1v1h-1zm-68 6h1v1h-1zm62 0h1v1h-1zm-79 10h1v1h-1zm15 1h1v1h-1zm19 1h1v1h-1zm-37 4h1v1h-1zm13 1h1v1h-1zm54 0h1v1h-1zm8 3h1v1h-1zm-71 2h1v1h-1zm41 3h1v1h-1zm-42 7h1v1h-1zm18 4h1v1h-1zm71 1h1v1h-1zm-85 6h1v1h-1zm0 7h1v1h-1zm36 4h1v1h-1zm-107 2h1v1h-1zm141 5h1v1h-1zm-5 5h1v1h-1zm0 6h1v1h-1zm-11 1h2v1h-2zm2 0h1v1h-1z" fill="#f26f72"/><path d="M54 9h1v1h-1zm-5 8h1v1h-1zm52 16h1v1h-1zm-84 5h1v1h-1zm5 1h1v1h-1zm78 0h1v1h-1zm-90 1h1v1h-1zm35 0h1v1h-1zm32 0h1v1h-1zm35 0h1v1h-1zm-14 1h1v1h-1zm-75 3h1v1h-1zm76 0h1v1h-1zm-79 1h1v1h-1zm82 0h1v1h-1zm-65 2h1v1h-1zm48 0h1v1h-1zm-61 5h1v1h-1zm14 0h1v1h-1zm60 0h1v1h-1zm-5 4h1v1h-1zM56 66h1v1h-1zm32 2h1v1h-1zm-55 1h1v1h-1zm6 0h1v1h-1zm44 0h1v1h-1zm-11 2h1v1h-1zm39 0h1v1h-1zM9 72h1v1H9zm36 3h1v1h-1zm-33 6h1v1h-1zm29 0h1v1h-1zm-17 1h1v1h-1zm21 0h1v1h-1zm20 0h3v1h-3zm3 0h1v1h-1zm-16 2h1v1h-1zm64 2h1v1h-1zm-62 2h2v1h-2zm2 0h1v1h-1zm10 0h2v1h-2zm2 0h1v1h-1zm13 1h1v1h-1zm-24 1h1v1h-1zm32 0h1v1h-1zm-73 2h1v1h-1zm18 0h1v1h-1zm17 0h1v1h-1zm30 1h1v1h-1zm17 0h1v1h-1zm6 1h1v1h-1zm12 0h1v1h-1zm-12 1h1v1h-1zm-7 2h1v1h-1zm12 0h1v1h-1zm-6 1h1v1h-1zM2 100h1v1H2zm54 1h1v1h-1zm10 0h1v1h-1zm-9 1h1v1h-1zm8 0h1v1h-1zm-24 1h1v1h-1zm-24 2h1v1h-1zm41 0h1v1h-1zm6 0h1v1h-1zm-6 1h1v1h-1zm6 0h1v1h-1zm26 2h1v1h-1zm22 0h1v1h-1zm-98 2h1v1h-1zm80 0h1v1h-1zm-76 1h1v1h-1zm6 0h1v1h-1zm74 0h1v1h-1zm-58 2h1v1h-1zm35 3h1v1h-1zm-33 3h1v1h-1zm18 1h1v1h-1zm1 0h1v1h-1zm18 1h1v1h-1zm-9 1h1v1h-1z" fill="#cfcfcf"/><path d="M284 21h1v1h-1zm3 1h1v1h-1zm4 2h1v1h-1zm-18 2h1v1h-1zm48 3h1v1h-1zm40 8h1v1h-1zm-78 1h1v1h-1zm33 5h1v1h-1zm-55 17h8v1h-8zm8 0h1v1h-1zm19 4h1v1h-1zm39 2h1v1h-1zm-50 1h1v1h-1zm76 11h1v1h-1zm-49 6h1v1h-1zm-86 3h1v1h-1zm-10 8h1v1h-1zm108 2h1v1h-1zm-113 5h1v1h-1zm93 2h1v1h-1zm-129 4h1v1h-1zm13 4h1v1h-1z" fill="#fce1e2"/><path d="M259 26h1v1h-1zm109 10h1v1h-1zm-68 4h1v1h-1zm64 5h3v1h-3zm3 0h1v1h-1zm-8 16h1v1h-1zm-100 5h1v1h-1zm40 6h1v1h-1zm74 16h1v1h-1zM176 99h1v1h-1zm22 6h1v1h-1zm61 0h1v1h-1zm64 4h1v1h-1zm35 0h1v1h-1zm-181 2h1v1h-1zm21 0h1v1h-1z" fill="#f0595d"/><path d="M59 0h1v1h-1zm4 0h1v1h-1zM50 17h1v1h-1zm-7 6h1v1h-1zm7 3h1v1h-1zm-32 1h1v1h-1zm13 2h1v1h-1zm60 0h1v1h-1zm-41 1h1v1h-1zm-34 3h1v1h-1zm-2 6h1v1h-1zm33 3h1v1h-1zm28 0h1v1h-1zm-45 3h1v1h-1zm-11 2h1v1h-1zm73 1h1v1h-1zm-53 1h1v1h-1zm44 0h1v1h-1zm-35 2h1v1h-1zm26 0h1v1h-1zm21 3h1v1h-1zm12 16h1v1h-1zm-78 2h1v1h-1zm64 0h1v1h-1zm-46 1h1v1h-1zm-33 3h1v1h-1zm-2 1h1v1h-1zm33 0h1v1h-1zm73 0h1v1h-1zm4 10h1v1h-1zm-11 1h1v1h-1zm6 1h1v2h-1zm0 2h1v1h-1zm-42 4h1v1h-1zm12 0h1v1h-1zM8 96h1v1H8zm38 0h1v1h-1zm52 0h1v1h-1zm-10 2h1v1h-1zm-61 1h1v1h-1zm44 1h1v1h-1zm-59 1h1v1h-1zm26 0h1v1h-1zm61 1h1v1h-1zm-24 1h1v1h-1zm35 0h1v1h-1zm-34 2h1v1h-1zm20 0h1v1h-1zm-62 1h1v1h-1zm48 2h1v1h-1zm-17 1h1v1h-1zm7 1h1v1h-1zm-3 13h1v1h-1zm-23 1h1v1h-1zm29 1h1v1h-1z" fill="#727071"/><path d="M58 2h1v6h-1zm0 6h1v1h-1zM45 9h1v1h-1zm6 0h1v1h-1zm-5 1h1v1h-1zm4 0h1v1h-1zm-1 11h1v1h-1zm2 1h1v1h-1zm-4 3h1v1h-1zm-21 1h1v1h-1zm70 0h1v1h-1zm-42 3h1v1h-1zm46 0h1v1h-1zm-47 1h1v1h-1zm5 2h1v17h-1zm-16 7h1v1h-1zm38 0h1v1h-1zm28 1h1v1h-1zm-89 4h1v1h-1zm30 0h1v1h-1zm54 0h1v1h-1zm-79 1h1v1h-1zm18 0h1v1h-1zm56 0h1v1h-1zm-52 4h1v1h-1zm12 0h1v1h-1zm-30 1h1v1h-1zm4 1h1v1h-1zm58 0h1v1h-1zm7 0h1v1h-1zm-65 6h1v1h-1zm24 1h1v1h-1zm2 8h1v15h-1zm-5 1h1v1h-1zm-14 3h1v1h-1zm-15 1h1v1h-1zm25 0h1v1h-1zm49 0h1v1h-1zm-71 1h1v1h-1zm48 0h1v1h-1zm20 0h1v1h-1zm-9 1h1v1h-1zm29 2h1v1h-1zm-81 1h1v1h-1zm54 0h1v1h-1zm28 0h1v1h-1zm-18 1h1v1h-1zm-73 2h1v1h-1zm33 2h1v1h-1zm57 0h1v1h-1zM2 82h1v1H2zm23 1h1v1h-1zm92 2h1v1h-1zm-96 2h1v1h-1zm76 2h1v1h-1zm-30 2h1v1h-1zm1 1h1v1h-1zm49 3h1v1h-1zM2 97h1v1H2zm6 0h1v1H8zm4 1h1v2h-1zm89 1h1v1h-1zm-89 1h1v1h-1zm61 0h1v1h-1zm-48 1h1v1h-1zm64 0h1v1h-1zm2 2h1v1h-1zm20 0h1v1h-1zm-69 1h1v1h-1zm45 0h1v1h-1zm22 0h1v1h-1zm1 0h1v1h-1zm-22 1h1v1h-1zm6 0h1v1h-1zm-91 1h1v1H3zm1 0h1v1H4zm12 0h1v1h-1zm90 0h1v1h-1zm11 0h1v1h-1zm-102 3h1v1h-1zm12 0h1v1h-1zm37 0h1v1h-1zm31 0h1v1h-1zm12 0h1v1h-1zm-61 8h1v1h-1zm2 3h1v1h-1zm2 2h1v1h-1zm14 0h1v1h-1zm-6 1h1v1h-1zm-5 1h1v1h-1zm1 4h1v1h-1zm14 0h1v1h-1zm-13 1h1v1h-1zm12 0h1v1h-1zm-9 3h1v1h-1zm5 1h1v1h-1z" fill="#140d0f"/><path d="M42 5h1v1h-1zM16 26h1v1h-1zm12 0h1v1h-1zm66 0h1v1h-1zm12 0h1v1h-1zM16 39h1v1h-1zm92 5h1v1h-1zm-17 3h1v1h-1zm-62 1h1v1h-1zm26 0h1v1h-1zm-33 1h1v1h-1zm13 2h1v1h-1zm52 0h1v1h-1zM55 67h1v1h-1zm-37 2h1v1h-1zm71 0h1v1h-1zm-76 1h1v1h-1zm15 1h1v1h-1zm45 1h1v1h-1zM2 79h1v1H2zm79 2h1v1h-1zm29 0h1v1h-1zm-88 4h1v1h-1zm59 3h1v1h-1zm-70 1h1v1h-1zm30 0h1v1h-1zm-29 1h1v1h-1zm94 2h1v1h-1zm-65 1h1v1h-1zm32 0h1v1h-1zm31 0h1v1h-1zm-72 7h1v1h-1zm77 1h1v1h-1zm-79 1h1v1h-1zm66 0h1v1h-1zm-14 3h1v1h-1zm16 0h1v1h-1zm-97 1h1v1H1zm39 0h1v1h-1zm6 1h1v1h-1zm9 3h1v1h-1zm-9 3h1v1h-1zm-3 8h1v1h-1zm6 6h1v1h-1zm24 0h1v1h-1z" fill="#eaeaea"/><path d="M54 6h1v2h-1zm0 2h1v1h-1zM23 22h1v1h-1zm25 0h1v1h-1zm51 0h1v1h-1zm-55 1h1v1h-1zm-24 6h1v1h-1zm14 2h1v1h-1zm20 0h1v2h-1zm34 0h1v1h-1zm-34 2h1v1h-1zm-8 1h1v1h-1zm4 0h1v1h-1zm55 4h1v1h-1zm-84 4h1v1h-1zm80 0h1v1h-1zm-51 2h1v1h-1zm22 0h1v1h-1zm-50 3h1v1h-1zm9 0h1v1h-1zm14 2h1v1h-1zm32 0h1v1h-1zm11 8h1v1h-1zm-37 4h1v1h-1zm-1 10h1v1h-1zm39 0h1v1h-1zm-79 8h1v1h-1zm-1 1h1v1H9zm74 0h1v1h-1zm-59 1h1v1h-1zm15 1h1v1h-1zm14 0h1v1h-1zM7 83h1v1H7zm7 0h1v1h-1zM0 84h1v1H0zm70 0h1v1h-1zm-50 2h1v1h-1zm32 0h1v1h-1zm5 2h1v1h-1zm8 0h1v1h-1zm-38 1h1v1h-1zm14 1h1v2h-1zm25 0h1v1h-1zm3 1h1v1h-1zm-28 1h1v1h-1zm57 2h1v1h-1zm15 1h1v1h-1zm-25 2h1v1h-1zm1 2h1v1h-1zm-69 1h1v1h-1zm19 0h1v1h-1zm45 2h1v1h-1zm38 0h1v1h-1zm-95 2h1v1h-1zm-3 1h1v1h-1zm92 1h1v1h-1zm-88 4h1v1h-1zm80 0h1v1h-1zm-4 1h1v1h-1zm-28 2h1v1h-1zm-5 3h1v1h-1zm-23 2h1v1h-1zm14 2h1v1h-1zm-9 9h1v1h-1zm16 0h1v1h-1zm-13 1h1v1h-1zm10 0h1v1h-1zm-8 4h1v1h-1zm6 0h1v1h-1z" fill="#dedede"/><path d="M337 20h1v1h-1zm-58 9h1v1h-1zm89 2h1v1h-1zm-68 13h1v1h-1zm63 1h1v1h-1zm-27 6h1v1h-1zm30 15h1v1h-1zm-85 3h1v1h-1zm65 5h1v1h-1zm-44 3h1v1h-1zm-130 6h1v1h-1zm187 2h1v1h-1zm-203 3h1v1h-1zm54 1h1v1h-1zm-2 7h1v1h-1zm92 3h1v1h-1zm-116 6h1v1h-1zm50 1h1v1h-1zm-1 2h1v1h-1zm0 1h1v1h-1zm49 1h1v1h-1zm63 2h1v1h-1z" fill="#f38486"/><path d="M46 5h1v1h-1zm4 0h1v1h-1zM16 24h1v1h-1zm86 5h1v1h-1zm-60 5h1v1h-1zm-3 1h1v1h-1zm44 0h1v1h-1zm-69 9h1v1h-1zm86 3h1v1h-1zm-33 1h1v1h-1zm-16 6h1v1h-1zm20 0h1v1h-1zm-41 3h1v1h-1zm41 4h1v1h-1zm-25 4h1v1h-1zm30 0h1v1h-1zm-9 2h1v1h-1zm-48 2h1v1h-1zm1 0h1v1h-1zm21 0h1v1h-1zm40 0h1v1h-1zm21 0h1v1h-1zm1 0h1v1h-1zm-9 2h1v1h-1zm19 1h1v1h-1zM1 81h1v1H1zm22 3h1v1h-1zm59 0h1v1h-1zm31 1h1v1h-1zm-43 1h1v1h-1zm32 0h1v1h-1zm-49 2h1v1h-1zm16 0h1v1h-1zm-16 3h1v1h-1zm28 3h1v1h-1zM0 95h1v1H0zm24 0h1v1h-1zm-12 1h1v1h-1zm22 0h1v1h-1zM1 98h1v1H1zm25 0h1v1h-1zm56 0h1v1h-1zm-39 1h1v1h-1zm50 0h1v1h-1zm-92 2h1v1H1zm26 0h1v1h-1zm-5 1h1v1h-1zm71 1h1v1h-1zm-46 1h1v1h-1zm-41 2h1v1H6zm26 2h1v1h-1zm35 2h1v1h-1zm-16 6h1v1h-1zm5 0h1v1h-1zm10 0h1v1h-1zm-25 1h1v1h-1zm32 2h1v1h-1zm-21 3h1v1h-1z" fill="#e5e5e5"/><path d="M45 7h1v1h-1zm6 0h1v1h-1zm-6 1h1v1h-1zm6 0h1v1h-1zm-2 5h1v1h-1zm-5 2h1v1h-1zm8 1h1v1h-1zm-5 3h1v1h-1zm56 3h1v1h-1zm-85 1h1v1h-1zm-1 2h1v1h-1zm1 1h1v1h-1zm30 0h1v1h-1zm56 0h1v1h-1zm-83 3h1v1h-1zm26 0h2v1h-2zm2 0h1v1h-1zm6 0h2v1h-2zm2 0h1v1h-1zm-26 1h1v1h-1zm60 0h1v1h-1zm8 0h1v1h-1zm-66 1h1v1h-1zm12 0h1v1h-1zm6 0h1v1h-1zm38 0h1v1h-1zm-66 1h1v1h-1zm22 0h1v1h-1zm6 0h1v1h-1zm-34 1h1v1h-1zm88 6h1v1h-1zm-91 1h1v1h-1zm6 1h1v1h-1zm82 0h1v1h-1zm-55 2h1v1h-1zm28 0h1v1h-1zm23 0h1v1h-1zm-25 1h1v1h-1zm7 1h1v1h-1zm15 0h1v1h-1zm-70 1h1v1h-1zm7 0h1v1h-1zm58 0h1v1h-1zm7 0h1v1h-1zm-64 4h2v1h-2zm2 0h1v1h-1zm13 0h1v1h-1zm26 0h1v1h-1zm13 0h2v1h-2zm2 0h1v1h-1zm5 0h1v1h-1zm-69 1h1v1h-1zm1 0h1v1h-1zm11 0h1v1h-1zm48 0h1v1h-1zm-58 2h1v1h-1zm4 0h1v1h-1zm60 0h1v1h-1zm4 0h1v1h-1zm-41 2h1v1h-1zm14 0h1v1h-1zm21 0h1v1h-1zm-33 2h1v1h-1zm10 0h1v1h-1zm24 0h1v1h-1zM70 68h1v1h-1zm13 2h1v1h-1zm-69 1h1v1h-1zm33 1h1v1h-1zM8 74h1v1H8zm13 1h1v1h-1zm57 0h1v1h-1zm-56 1h1v1h-1zm22 1h1v1h-1zm73 0h1v1h-1zm2 2h1v1h-1zm0 1h1v1h-1zm-4 2h1v1h-1zm1 2h1v1h-1zM1 85h1v1H1zm13 0h1v1h-1zm69 0h1v1h-1zm-68 1h1v1h-1zm106 0h1v1h-1zm-68 1h1v1h-1zm48 0h1v1h-1zm-11 1h1v1h-1zm20 0h1v1h-1zM4 89h1v2H4zm105 0h1v1h-1zM4 91h1v1H4zm14 0h1v1h-1zm69 0h1v1h-1zm-68 1h1v3h-1zm35 0h1v1h-1zm45 0h1v1h-1zm4 0h1v1h-1zm18 1h1v1h-1zM1 94h1v1H1zm18 1h1v1h-1zm4 1h1v1h-1zm-11 1h1v1h-1zm23 0h1v1h-1zm41 0h1v1h-1zm7 0h1v1h-1zm-63 1h1v1h-1zm0 1h1v1h-1zm32 0h2v1h-2zm2 0h1v1h-1zm14 0h2v1h-2zm2 0h1v1h-1zm49 0h1v1h-1zm-40 2h1v1h-1zm20 0h1v1h-1zm-52 1h1v1h-1zm43 0h1v1h-1zm-10 1h1v1h-1zm-78 3h1v1H2zm7 0h1v1H9zm16 0h1v1h-1zm34 1h1v1h-1zm4 0h1v1h-1zm18 0h1v1h-1zm-40 2h1v2h-1zm-21 1h2v1h-2zm2 0h1v1h-1zm43 0h1v1h-1zm35 0h2v1h-2zm2 0h1v1h-1zm-61 1h1v1h-1zm9 0h1v1h-1zm22 0h1v1h-1zm9 2h1v1h-1zm-4 1h1v1h-1zm-24 1h1v1h-1zm1 0h1v1h-1zm14 0h1v1h-1zm1 0h1v1h-1zm-27 1h1v1h-1zm7 5h1v1h-1zm9 1h1v1h-1zm18 1h1v1h-1zm-1 1h1v1h-1zm-16 9h1v1h-1z" fill="#0e0508"/><path d="M55 9h1v1h-1zm1 0h1v1h-1zm-6 5h1v1h-1zm-5 2h1v1h-1zm-3 1h1v1h-1zm4 1h1v1h-1zm60 6h1v1h-1zm-57 1h1v1h-1zm40 5h1v1h-1zm-35 4h1v1h-1zm-10 5h1v1h-1zm34 0h1v1h-1zm-38 6h1v1h-1zm42 0h1v1h-1zm-58 3h1v1h-1zm69 0h1v1h-1zm5 0h1v1h-1zm-59 3h1v1h-1zm44 0h1v1h-1zm-58 2h1v1h-1zm62 2h1v1h-1zm-53 2h1v1h-1zm58 0h1v1h-1zm-5 10h1v1h-1zm14 2h1v1h-1zm3 0h1v1h-1zm5 1h1v1h-1zm-79 2h1v1h-1zm62 0h1v1h-1zM5 75h1v1H5zm8 2h1v1h-1zm96 0h1v1h-1zm-86 1h1v1h-1zm52 2h1v1h-1zm33 0h1v2h-1zm-39 2h1v1h-1zm39 0h1v1h-1zm14 2h1v1h-1zm-18 2h1v1h-1zm-73 3h1v1h-1zm-7 4h1v1h-1zm25 0h1v1h-1zm-38 2h1v1h-1zm14 2h1v1h-1zm-11 3h1v1h-1zm36 1h1v1h-1zm51 0h1v1h-1zm-26 3h1v1h-1zm-57 1h1v1h-1zm86 0h1v1h-1zm17 1h1v1h-1zm-45 1h1v1h-1zm21 4h1v1h-1zm-50 5h1v1h-1zm12 4h1v1h-1zm12 1h1v1h-1zm-3 2h1v1h-1z" fill="#f1f1f1"/><path d="M343 20h1v1h-1zm1 0h1v1h-1zm3 0h1v1h-1zm1 0h1v1h-1zm7 1h1v1h-1zm-72 1h1v1h-1zm76 0h1v1h-1zm-85 3h1v1h-1zm-57 1h1v57h-1zm27 0h1v79h-1zm88 2h1v1h-1zm-48 9h1v1h-1zm34 1h1v1h-1zm45 2h1v1h-1zm-35 2h1v1h-1zm-29 3h1v1h-1zm-15 3h1v1h-1zm34 4h1v1h-1zm-23 1h1v1h-1zm45 1h1v1h-1zm1 0h1v1h-1zm-48 1h1v1h-1zm68 8h1v1h-1zm-78 1h1v1h-1zm-2 4h1v1h-1zm14 1h1v1h-1zm45 2h1v1h-1zm3 1h1v1h-1zm5 2h1v1h-1zm8 5h1v1h-1zm16 0h1v1h-1zm-155 4h1v1h-1zm142 0h1v1h-1zm-42 1h1v1h-1zm42 0h1v1h-1zm-38 3h1v1h-1zm-104 2h1v1h-1zm100 0h1v1h-1zm-145 1h1v1h-1zm145 0h1v1h-1zm-160 2h1v1h-1zm59 0h1v1h-1zm71 1h1v1h-1zm-129 1h1v1h-1zm15 0h1v1h-1zm187 0h1v1h-1zm-74 2h1v1h-1zm-127 1h1v1h-1zm21 7h1v1h-1zm20 1h1v1h-1zm44 0h1v1h-1zm32 0h1v1h-1zm-110 1h1v1h-1zm125 0h1v1h-1zm-2 1h1v1h-1zm-84 1h1v1h-1zm136 0h1v1h-1zm1 0h2v1h-2zm2 0h1v1h-1zm-172 1h1v1h-1zm111 0h1v1h-1zm-7 1h1v1h-1zm77 0h1v1h-1zm-170 1h1v1h-1zm9 0h1v1h-1zm1 0h1v1h-1zm144 0h1v1h-1zm10 0h1v1h-1z" fill="#ec000a"/><path d="M19 21h2v1h-2zm2 0h1v1h-1zm26 0h1v1h-1zm54 0h1v1h-1zm-56 3h1v1h-1zm-23 6h1v1h-1zm-5 2h1v1h-1zm88 0h1v1h-1zm-2 1h1v1h-1zm-66 1h1v1h-1zm48 0h1v1h-1zm21 6h1v1h-1zm-16 7h1v1h-1zm-58 5h1v1h-1zm21 3h1v1h-1zm16 0h1v1h-1zm-16 5h1v1h-1zm16 8h1v1h-1zm-46 2h1v1h-1zm-11 1h1v1h-1zm100 1h1v1h-1zm5 4h1v1h-1zM4 77h1v1H4zm25 11h1v1h-1zm93 2h1v1h-1zm-98 1h1v1h-1zm93 1h1v1h-1zM5 93h1v1H5zm77 3h1v1h-1zm39 0h1v1h-1zm-74 7h1v1h-1zm75 0h1v1h-1zm-70 8h1v1h-1zm18 0h1v1h-1zm-28 7h1v1h-1zm16 3h1v1h-1zm6 0h1v1h-1zm8 6h1v1h-1zm-12 7h1v1h-1z" fill="#4b494a"/><path d="M148 21h32v1h-32zm32 0h1v1h-1zm23 0h22v1h-22zm22 0h1v1h-1zm11 0h39v1h-39zm39 0h1v1h-1zm61 0h1v1h-1zm17 4h1v1h-1zm-70 10h1v1h-1zm45 2h1v1h-1zm17 19h1v1h-1zm-74 5h1v1h-1zm19 5h1v1h-1zm-3 12h1v2h-1zm15 0h1v1h-1zm-15 2h1v1h-1zm-70 4h1v1h-1zm100 7h1v1h-1zm55 0h1v1h-1zm-50 1h1v1h-1zm1 3h1v1h-1zm2 4h1v1h-1zm29 5h1v1h-1zm-21 2h1v1h-1zm-11 2h1v1h-1zm-45 2h1v1h-1zm-95 1h1v1h-1z" fill="#ec0004"/><path d="M60 1h1v1h-1zM48 13h1v1h-1zm0 6h1v1h-1zm-26 4h1v1h-1zm78 0h1v1h-1zm-5 4h1v1h-1zm-74 1h1v1h-1zm80 0h1v1h-1zm-68 4h1v1h-1zm56 0h1v1h-1zm-51 3h1v1h-1zm46 0h1v1h-1zm-46 1h1v1h-1zm46 0h1v1h-1zm-61 2h1v1h-1zm76 0h1v1h-1zm5 1h1v1h-1zm-87 1h1v1h-1zm3 0h1v1h-1zm82 0h1v1h-1zm-87 1h1v2h-1zm1 0h1v1h-1zm90 0h1v1h-1zm1 0h1v2h-1zm-92 2h1v1h-1zm4 0h1v1h-1zm1 0h1v1h-1zm83 0h1v1h-1zm4 0h1v1h-1zm-79 1h1v1h-1zm66 0h1v1h-1zm-45 1h1v1h-1zm24 0h1v1h-1zm-49 1h1v1h-1zm74 0h1v1h-1zm-66 2h1v1h-1zm14 0h1v1h-1zm30 0h1v1h-1zm14 0h1v1h-1zm-36 1h1v1h-1zm14 0h1v1h-1zm-32 1h1v1h-1zm16 3h1v1h-1zm18 0h1v1h-1zm-18 1h1v1h-1zm18 0h1v1h-1zm-39 2h1v1h-1zm58 0h1v1h-1zm-37 5h1v1h-1zm18 0h1v1h-1zm-18 1h1v1h-1zm18 0h1v1h-1zm-23 3h1v1h-1zm0 1h1v1h-1zm7 0h1v1h-1zm14 0h1v1h-1zm-52 4h1v1h-1zm26 0h1v1h-1zm7 0h1v1h-1zm-33 1h1v1h-1zm7 0h1v1h-1zm51 0h1v1h-1zm25 0h1v1h-1zm7 0h1v1h-1zm-96 2h1v1h-1zm8 1h1v1h-1zm1 0h1v1h-1zm84 0h1v1h-1zm1 0h1v1h-1zm-4 1h1v1h-1zm5 0h1v1h-1zm-72 1h1v1h-1zm56 0h1v1h-1zM9 78h1v1H9zm30 0h1v1h-1zm1 0h1v1h-1zm57 0h1v1h-1zm-60 2h1v1h-1zm47 0h1v1h-1zm-40 1h1v1h-1zm34 0h1v1h-1zm-14 1h1v1h-1zm14 0h1v1h-1zm6 1h1v1h-1zm36 0h1v1h-1zm-23 1h1v1h-1zm12 0h1v1h-1zm-86 1h1v1h-1zm1 0h1v1h-1zm-1 1h1v1h-1zM1 87h1v1H1zm3 0h1v1H4zm12 0h1v1h-1zm13 0h1v1h-1zm1 0h1v1h-1zm9 0h1v1h-1zm53 0h1v1h-1zm1 0h1v1h-1zm13 0h1v1h-1zm-42 1h1v1h-1zm32 0h1v1h-1zm22 0h1v1h-1zm-11 2h1v1h-1zM1 91h1v1H1zm98 0h1v1h-1zm-44 1h1v1h-1zm63 0h1v1h-1zm-79 3h1v1h-1zM1 96h1v1H1zm1 0h1v1H2zm84 0h1v1h-1zm-75 1h1v1h-1zm105 0h1v1h-1zm-92 1h1v1h-1zm11 0h1v1h-1zm75 0h1v2h-1zm-89 1h1v1h-1zm4 0h1v1h-1zm1 1h1v1h-1zm52 0h1v1h-1zm10 0h1v1h-1zm22 0h1v1h-1zM3 101h1v1H3zm30 0h1v1h-1zm52 0h1v1h-1zm12 0h1v1h-1zm-95 1h1v1H2zm41 0h1v1h-1zm-12 1h1v1h-1zm49 1h1v1h-1zm-75 1h1v1H5zm8 0h1v1h-1zm28 0h1v1h-1zm1 0h1v1h-1zm67 0h1v1h-1zm8 0h1v1h-1zm-106 2h1v1h-1zm9 0h1v1h-1zm1 0h1v1h-1zm70 0h1v1h-1zm9 0h2v1h-2zm2 0h1v1h-1zm9 0h1v1h-1zm-98 1h1v1h-1zm16 0h1v1h-1zm34 0h1v1h-1zm1 0h1v1h-1zm29 0h1v1h-1zm16 0h1v1h-1zm-93 1h1v1h-1zm10 0h1v1h-1zm18 0h1v2h-1zm34 0h1v2h-1zm18 0h1v1h-1zm10 0h1v1h-1zm-57 1h1v1h-1zm-5 1h1v1h-1zm34 0h1v1h-1zm-28 1h2v1h-2zm2 0h2v1h-2zm2 0h1v1h-1zm14 0h2v1h-2zm2 0h2v1h-2zm2 0h1v1h-1zm-22 1h1v1h-1zm22 0h1v1h-1zm-15 1h1v1h-1zm8 0h1v1h-1zm-23 1h1v1h-1zm35 0h1v1h-1zm-1 2h1v1h-1zm-29 2h1v1h-1zm27 1h1v1h-1zm4 0h1v1h-1zm-27 3h1v1h-1zm1 4h1v1h-1zm8 6h2v1h-2zm2 0h1v1h-1z" fill="#1f1a1b"/><path d="M340 19h1v1h-1zm11 0h1v1h-1zm-124 1h1v1h-1zm52 0h1v1h-1zm56 0h1v1h-1zm-3 1h1v1h-1zm28 0h1v1h-1zm3 1h1v1h-1zm-44 10h1v1h-1zm-19 4h1v1h-1zm17 1h1v1h-1zm14 9h1v1h-1zm-15 2h1v1h-1zm-17 1h1v1h-1zm18 4h1v1h-1zm26 1h1v1h-1zm-52 4h1v1h-1zm-17 1h1v1h-1zm-14 1h1v1h-1zm100 1h1v1h-1zm-87 5h1v1h-1zm6 2h1v1h-1zm53 1h1v1h-1zm37 0h1v1h-1zm-67 7h1v1h-1zm-16 3h1v1h-1zm36 5h1v1h-1zm-112 1h1v1h-1zm149 2h1v1h-1zm-186 1h1v1h-1zm131 0h1v1h-1zm-148 3h1v1h-1zm167 0h1v1h-1zm-37 1h1v1h-1zm73 0h1v1h-1zm14 0h1v1h-1zm-199 1h1v1h-1zm-17 2h1v1h-1zm18 1h1v1h-1zm1 2h1v1h-1zm140 0h1v1h-1zm-101 1h1v1h-1zm68 0h1v1h-1zm33 0h1v1h-1zm-102 2h1v1h-1zm85 0h1v1h-1zm-19 1h1v1h-1zm75 0h1v1h-1zm-1 1h1v1h-1zm-192 1h1v1h-1zm1 1h1v1h-1zm23 0h1v1h-1zm25 0h1v1h-1zm62 0h1v1h-1zm-63 1h1v1h-1zm74 4h1v1h-1zm73 0h1v1h-1zm-78 1h1v1h-1zm75 0h1v1h-1z" fill="#fdeaea"/><path d="M58 1h1v1h-1zm6 0h1v1h-1zM43 6h2v1h-2zm2 0h1v1h-1zm6 0h2v1h-2zm2 0h1v3h-1zM43 7h1v9h-1zm10 2h1v1h-1zm-6 1h2v1h-2zm2 0h1v1h-1zm5 0h3v1h-3zm3 0h1v1h-1zm-7 3h1v1h-1zm2 1h1v1h-1zm-7 1h1v1h-1zm7 0h1v1h-1zm-9 1h1v1h-1zm8 1h1v1h-1zm-2 1h1v1h-1zm-3 1h1v1h-1zm-1 1h1v1h-1zm1 0h1v1h-1zm2 1h1v1h-1zm54 0h1v1h-1zm-52 1h1v1h-1zm-27 1h1v1h-1zm76 0h1v1h-1zm5 0h1v1h-1zm-87 1h1v1h-1zm7 0h1v1h-1zm19 0h1v9h-1zm1 0h1v1h-1zm8 0h1v1h-1zm46 0h1v1h-1zm7 0h1v1h-1zm-80 1h1v1h-1zm21 0h1v1h-1zm6 0h1v1h-1zm45 0h1v1h-1zm8 0h1v1h-1zm-56 1h1v1h-1zm-30 1h1v1h-1zm9 0h1v1h-1zm66 0h1v1h-1zm9 0h1v1h-1zm-83 1h1v1h-1zm9 0h1v1h-1zm64 0h1v1h-1zm9 0h1v1h-1zm-72 1h1v1h-1zm62 0h1v1h-1zm-39 2h1v2h-1zm-19 1h1v1h-1zm54 0h1v1h-1zm11 0h1v1h-1zm-81 1h1v1h-1zm4 0h1v1h-1zm13 0h1v1h-1zm8 0h2v1h-2zm2 0h1v1h-1zm6 0h2v1h-2zm2 0h1v1h-1zm34 0h1v1h-1zm13 0h1v1h-1zm4 0h1v1h-1zm1 0h1v2h-1zm-89 1h1v1h-1zm20 0h1v1h-1zm50 0h1v1h-1zm20 0h1v1h-1zm-89 1h1v1h-1zm88 0h1v1h-1zm-87 1h1v2h-1zm21 0h1v1h-1zm44 0h1v1h-1zm21 0h1v2h-1zm-64 1h1v1h-1zm42 0h1v1h-1zm-64 1h1v1h-1zm4 0h1v1h-1zm19 0h1v1h-1zm40 0h1v1h-1zm19 0h1v1h-1zm4 0h1v1h-1zm-92 1h1v2h-1zm1 0h1v1h-1zm4 0h1v1h-1zm4 0h1v1h-1zm80 0h1v1h-1zm8 0h1v1h-1zm1 0h1v2h-1zm-99 1h1v1h-1zm33 0h1v1h-1zm34 0h1v1h-1zm33 0h1v1h-1zm-99 1h1v1h-1zm13 0h1v1h-1zm20 0h1v1h-1zm32 0h1v1h-1zm20 0h1v1h-1zm13 0h1v1h-1zm-97 1h1v1h-1zm7 0h1v1h-1zm26 0h1v1h-1zm30 0h1v1h-1zm26 0h1v1h-1zm7 0h1v1h-1zm-95 1h1v1h-1zm10 0h1v1h-1zm84 0h1v1h-1zm-84 1h1v1h-1zm5 0h1v1h-1zm9 0h1v1h-1zm46 0h1v1h-1zm9 0h1v1h-1zm5 0h1v1h-1zm-81 1h2v1h-2zm2 0h1v1h-1zm8 0h1v1h-1zm4 0h1v1h-1zm6 0h1v1h-1zm13 0h1v1h-1zm22 0h1v1h-1zm13 0h1v1h-1zm6 0h1v1h-1zm12 0h2v1h-2zm2 0h1v1h-1zm-87 1h1v1h-1zm1 0h1v1h-1zm7 0h1v1h-1zm17 0h1v1h-1zm8 0h1v1h-1zm20 0h1v1h-1zm8 0h1v1h-1zm17 0h1v1h-1zm7 0h1v1h-1zm1 0h1v1h-1zm-81 1h1v1h-1zm1 0h1v1h-1zm12 0h1v1h-1zm8 0h1v1h-1zm8 0h1v1h-1zm18 0h1v1h-1zm8 0h1v1h-1zm8 0h1v1h-1zm12 0h1v1h-1zm1 0h1v1h-1zm-68 1h1v1h-1zm6 0h1v1h-1zm8 0h1v1h-1zm32 0h1v1h-1zm8 0h1v1h-1zm6 0h1v1h-1zm-62 1h1v1h-1zm9 0h1v2h-1zm17 0h1v1h-1zm12 0h1v1h-1zm17 0h1v2h-1zm9 0h1v1h-1zm-66 1h1v1h-1zm29 0h1v1h-1zm10 0h1v1h-1zm29 0h1v1h-1zm-57 1h1v1h-1zm11 0h1v1h-1zm24 0h1v1h-1zm11 0h1v1h-1zm12 0h1v1h-1zm-71 1h1v1h-1zm25 0h1v1h-1zm22 0h1v1h-1zm25 0h1v1h-1zm-46 1h1v1h-1zm20 0h1v1h-1zm-43 1h1v1h-1zm4 0h1v1h-1zm58 0h1v1h-1zm4 0h1v1h-1zm-65 1h1v1h-1zm4 0h1v2h-1zm60 0h1v1h-1zm-63 1h1v1h-1zm25 0h1v1h-1zm12 0h1v1h-1zm25 0h1v1h-1zm-59 1h1v1h-1zm56 0h1v1h-1zm-34 2h1v1h-1zm12 0h1v1h-1zm-13 1h1v1h-1zm14 0h1v1h-1zm-17 2h1v1h-1zm20 0h1v1h-1zm-21 1h1v1h-1zm22 0h1v1h-1zm-23 1h1v1h-1zm24 0h1v1h-1zm-17 1h1v1h-1zm10 0h1v1h-1zm-20 1h1v1h-1zm9 0h1v1h-1zm12 0h1v1h-1zm9 0h1v1h-1zm-31 1h1v1h-1zm32 0h1v1h-1zm-42 1h2v1h-2zm2 0h1v1h-1zm7 0h1v1h-1zm8 0h1v1h-1zm26 0h1v1h-1zm7 0h2v1h-2zm2 0h1v1h-1zm-53 1h1v2h-1zm4 0h1v1h-1zm13 0h1v1h-1zm20 0h1v1h-1zm13 0h1v1h-1zm4 0h1v2h-1zm-71 1h5v1h-5zm5 0h1v1h-1zm19 0h1v1h-1zm9 0h1v1h-1zm22 0h1v1h-1zm9 0h1v1h-1zm19 0h5v1h-5zm5 0h1v1h-1zm-92 1h1v1h-1zm12 0h1v1h-1zm1 0h1v1h-1zm8 0h1v1h-1zm39 0h1v1h-1zm15 0h1v1h-1zm8 0h1v1h-1zm1 0h1v1h-1zm11 0h1v1h-1zm1 0h1v1h-1zm-98 1h1v1h-1zm17 0h1v1h-1zm7 0h1v1h-1zm52 0h1v1h-1zm7 0h1v1h-1zm17 0h1v1h-1zM9 73h1v1H9zm21 0h1v1h-1zm16 0h1v1h-1zm30 0h1v1h-1zm16 0h1v1h-1zm21 0h1v1h-1zm-82 1h1v1h-1zm5 0h1v1h-1zm9 0h1v1h-1zm32 0h1v1h-1zm9 0h1v1h-1zm5 0h1v1h-1zm23 0h1v1h-1zm-99 1h1v1h-1zm1 0h1v1h-1zm4 0h1v1h-1zm15 0h1v1h-1zm52 0h1v1h-1zm14 0h1v1h-1zm1 0h1v1h-1zm4 0h1v1h-1zm1 0h1v1h-1zm-94 1h1v1h-1zm96 0h1v1h-1zm-98 1h1v1h-1zm100 0h1v1h-1zM4 78h1v1H4zm6 0h1v1h-1zm14 0h1v1h-1zm21 0h1v1h-1zm32 0h1v1h-1zm35 0h1v1h-1zm6 0h1v1h-1zM3 79h1v1H3zm6 0h1v1H9zm37 0h1v1h-1zm30 0h1v1h-1zm7 0h1v1h-1zm14 0h1v1h-1zm16 0h1v1h-1zM8 80h1v1H8zm17 0h1v2h-1zm16 0h1v1h-1zm5 0h1v1h-1zm30 0h1v1h-1zm21 0h1v3h-1zm17 0h1v1h-1zM2 81h1v1H2zm5 0h1v1H7zm6 0h1v2h-1zm29 0h1v1h-1zm3 0h1v1h-1zm32 0h1v1h-1zm3 0h1v1h-1zm29 0h1v2h-1zm11 0h1v1h-1zM12 82h1v1h-1zm13 0h1v1h-1zm13 0h1v1h-1zm5 0h1v1h-1zm36 0h1v1h-1zm5 0h1v1h-1zm26 0h1v1h-1zm10 0h1v1h-1zM1 83h1v1H1zm5 0h1v1H6zm5 0h2v1h-2zm2 0h1v1h-1zm40 0h4v1h-4zm4 0h1v1h-1zm8 0h3v1h-3zm3 0h1v1h-1zm29 0h1v1h-1zm12 0h2v1h-2zm2 0h1v1h-1zm5 0h1v1h-1zM1 84h1v1H1zm9 0h1v2h-1zm14 0h1v1h-1zm15 0h1v1h-1zm14 0h1v2h-1zm16 0h1v2h-1zm14 0h1v1h-1zm29 0h1v1h-1zm9 0h1v1h-1zM5 85h1v1H5zm34 0h1v1h-1zm73 0h1v1h-1zm9 0h1v1h-1zM5 86h1v1H5zm5 0h1v1h-1zm12 0h1v1h-1zm31 0h1v1h-1zm16 0h1v1h-1zm31 0h1v1h-1zm17 0h1v1h-1zM11 87h1v1h-1zm6 0h3v1h-3zm3 0h1v1h-1zm34 0h3v1h-3zm3 0h1v1h-1zm8 0h3v1h-3zm3 0h1v1h-1zm14 0h1v8h-1zm20 0h3v1h-3zm3 0h1v1h-1zm6 0h1v1h-1zm6 0h1v1h-1zm-90 1h1v1h-1zm4 0h1v1h-1zm9 0h1v6h-1zm51 0h1v1h-1zm3 0h1v1h-1zm1 0h1v1h-1zm-83 1h1v1h-1zm13 0h1v1h-1zm8 0h1v1h-1zm56 0h1v1h-1zm-75 1h1v1h-1zm10 0h1v1h-1zm10 0h1v1h-1zm54 0h1v1h-1zm20 0h1v1h-1zm-93 1h2v1h-2zm2 0h1v1h-1zm39 0h1v1h-1zm1 0h1v1h-1zm8 0h1v1h-1zm1 0h1v1h-1zm38 0h2v1h-2zm2 0h1v1h-1zm-83 1h1v3h-1zm12 0h1v1h-1zm18 0h1v1h-1zm16 0h1v1h-1zm18 0h1v1h-1zm-52 1h1v3h-1zm16 0h1v1h-1zm20 0h1v1h-1zm28 0h1v2h-1zm4 0h1v3h-1zm14 0h1v1h-1zM5 94h1v1H5zm35 0h1v1h-1zm9 0h1v1h-1zm24 0h1v1h-1zm44 0h1v1h-1zm4 0h1v1h-1zM1 95h1v1H1zm4 0h1v1H5zm18 0h1v1h-1zm25 0h1v1h-1zm26 0h1v1h-1zm8 0h1v1h-1zm17 0h1v1h-1zm22 0h1v1h-1zM9 96h2v1H9zm2 0h1v1h-1zm8 0h1v1h-1zm16 0h1v1h-1zm12 0h1v1h-1zm28 0h1v1h-1zm28 0h1v1h-1zm8 0h2v1h-2zm2 0h1v1h-1zm3 0h1v1h-1zm-97 1h1v1h-1zm5 0h1v1h-1zm15 0h1v1h-1zm7 0h1v1h-1zm41 0h1v1h-1zm11 0h1v1h-1zm12 0h1v1h-1zm4 0h1v1h-1zm6 0h1v1h-1zM2 98h1v1H2zm37 0h1v1h-1zm6 0h1v1h-1zm32 0h1v1h-1zm6 0h1v1h-1zm14 0h1v1h-1zm5 0h1v1h-1zm18 0h1v1h-1zM13 99h1v1h-1zm13 0h1v1h-1zm8 0h1v1h-1zm10 0h1v1h-1zm34 0h1v1h-1zm10 0h1v1h-1zm8 0h1v2h-1zm13 0h1v1h-1zM3 100h1v1H3zm18 0h1v1h-1zm6 0h1v1h-1zm6 0h1v1h-1zm5 0h1v1h-1zm12 0h1v1h-1zm6 0h1v1h-1zm10 0h1v1h-1zm6 0h1v1h-1zm12 0h1v1h-1zm11 0h1v1h-1zm14 0h1v1h-1zm10 0h1v1h-1zm-108 1h1v2h-1zm11 0h1v1h-1zm21 0h1v1h-1zm5 0h1v1h-1zm9 0h1v1h-1zm8 0h1v1h-1zm9 0h1v1h-1zm22 0h1v1h-1zm-95 1h1v2H1zm23 0h1v1h-1zm13 0h1v1h-1zm21 0h1v1h-1zm6 0h1v1h-1zm11 0h1v1h-1zm5 0h1v1h-1zm5 0h1v1h-1zm13 0h1v1h-1zm-87 1h1v1h-1zm19 0h1v1h-1zm6 0h1v1h-1zm6 0h1v1h-1zm44 0h1v1h-1zm-85 1h1v1H1zm11 0h1v1h-1zm17 0h1v1h-1zm6 0h1v1h-1zm11 0h1v1h-1zm13 0h1v2h-1zm4 0h1v2h-1zm13 0h1v1h-1zm17 0h1v1h-1zm28 0h1v1h-1zM6 105h1v1H6zm8 0h1v1h-1zm13 0h1v1h-1zm7 0h1v1h-1zm47 0h1v1h-1zm14 0h1v1h-1zm12 0h1v1h-1zm1 0h1v1h-1zm8 0h1v1h-1zm-99 1h2v1h-2zm2 0h1v1h-1zm4 0h1v1h-1zm1 0h1v1h-1zm9 0h1v1h-1zm8 0h1v2h-1zm4 0h1v2h-1zm14 0h1v1h-1zm4 0h1v1h-1zm14 0h1v2h-1zm4 0h1v1h-1zm8 0h1v1h-1zm8 0h2v1h-2zm2 0h1v1h-1zm4 0h2v1h-2zm2 0h1v1h-1zm8 0h1v1h-1zm-103 1h1v1h-1zm22 0h1v1h-1zm58 0h1v1h-1zm22 0h1v1h-1zm-100 1h1v1h-1zm18 0h1v1h-1zm11 0h1v1h-1zm4 0h1v1h-1zm32 0h1v1h-1zm15 0h1v1h-1zm18 0h1v1h-1zm-96 1h1v1h-1zm14 0h1v1h-1zm66 0h1v1h-1zm14 0h1v1h-1zm-91 1h2v1h-2zm2 0h1v1h-1zm4 0h2v1h-2zm2 0h1v1h-1zm32 0h1v1h-1zm40 0h2v1h-2zm2 0h1v1h-1zm4 0h2v1h-2zm2 0h1v1h-1zm-54 1h1v1h-1zm4 0h1v1h-1zm12 0h1v1h-1zm4 0h1v1h-1zm-30 1h1v2h-1zm4 0h1v2h-1zm32 0h1v1h-1zm0 1h1v1h-1zm-36 1h1v1h-1zm4 0h1v1h-1zm13 0h1v1h-1zm6 0h1v1h-1zm17 0h1v1h-1zm-30 1h1v1h-1zm1 0h1v1h-1zm3 0h1v1h-1zm1 0h1v1h-1zm10 0h1v1h-1zm1 0h1v1h-1zm3 0h1v1h-1zm1 0h1v1h-1zm10 0h1v1h-1zm-35 1h1v1h-1zm30 0h1v1h-1zm-34 1h1v1h-1zm38 0h1v1h-1zm-33 1h1v1h-1zm28 0h1v1h-1zm5 0h1v1h-1zm-37 1h1v1h-1zm31 0h1v1h-1zm-30 2h1v1h-1zm15 0h4v1h-4zm4 0h1v1h-1zm15 0h1v1h-1zm-33 1h1v1h-1zm26 0h1v1h-1zm6 0h1v1h-1zm-31 1h1v1h-1zm6 0h1v1h-1zm18 0h1v1h-1zm-23 1h1v1h-1zm7 0h1v1h-1zm14 0h1v1h-1zm-20 1h1v1h-1zm8 0h1v1h-1zm1 0h1v1h-1zm8 0h1v1h-1zm1 0h1v1h-1zm8 0h1v1h-1zm-25 1h1v1h-1zm24 0h1v1h-1zm-22 1h1v1h-1zm20 0h1v1h-1zm-18 1h1v1h-1zm16 0h1v1h-1zm-13 1h1v1h-1zm1 0h1v1h-1zm8 0h1v1h-1zm1 0h1v1h-1zm-8 4h1v1h-1zm6 0h1v1h-1z"/><path d="M59 1h1v1h-1zm4 0h1v1h-1zm-5 8h1v1h-1zm-8 9h1v1h-1zm-31 4h1v1h-1zm81 0h1v1h-1zm-48 1h1v1h-1zm0 3h1v1h-1zm-2 1h1v1h-1zm1 0h1v1h-1zm7 4h1v1h-1zm-21 4h1v1h-1zm48 0h1v1h-1zm-66 2h1v1h-1zm5 2h1v1h-1zm74 0h1v1h-1zm-73 3h1v1h-1zm72 0h1v1h-1zm-81 2h1v1h-1zm14 0h1v1h-1zm10 0h1v1h-1zm42 0h1v1h-1zm10 0h1v1h-1zm14 0h1v1h-1zm-53 4h1v1h-1zm16 0h1v1h-1zm7 1h1v1h-1zm16 0h1v1h-1zm-39 5h1v1h-1zm16 0h1v1h-1zm-3 4h1v1h-1zm-13 3h1v1h-1zm16 0h1v1h-1zm-21 4h1v1h-1zm59 6h1v1h-1zm-78 2h1v1h-1zm64 0h1v1h-1zm-79 2h1v1h-1zm18 0h1v1h-1zm58 0h1v1h-1zm18 0h1v1h-1zm-96 1h1v1h-1zm98 0h1v1h-1zM5 77h1v1H5zm73 0h1v1h-1zm3 2h1v1h-1zM3 80h1v1H3zm34 1h1v1h-1zm1 2h1v1h-1zm70 2h1v1h-1zM1 86h1v1H1zm38 0h1v1h-1zm68 0h1v1h-1zm14 1h1v1h-1zM4 88h1v1H4zm24 0h1v1h-1zm4 0h1v1h-1zm26 1h1v1h-1zm0 1h1v1h-1zm40 0h1v1h-1zM4 92h1v1H4zm117 0h1v1h-1zM1 93h1v1H1zm49 1h1v1h-1zm36 0h1v1h-1zm-47 2h1v1h-1zm60 0h1v1h-1zM6 97h1v1H6zm81 1h1v1h-1zm-49 1h1v1h-1zm-1 2h1v1h-1zm83 1h1v1h-1zm1 0h1v1h-1zm-45 1h1v1h-1zm45 0h1v1h-1zm-44 2h1v1h-1zm19 1h1v1h-1zm-15 2h1v1h-1zm0 4h1v1h-1zm-18 1h1v1h-1zm6 11h1v1h-1zm-14 1h1v1h-1zm12 0h1v1h-1zm-9 6h1v1h-1z" fill="#161012"/><path d="M345 20h1v1h-1zm1 0h1v1h-1zm-13 2h1v1h-1zm29 1h1v1h-1zm-26 2h1v1h-1zm-165 1h1v55h-1zm196 0h1v2h-1zm-34 1h1v1h-1zm34 1h1v1h-1zm-8 2h1v1h-1zm-38 1h1v1h-1zm-23 3h1v1h-1zm21 1h1v1h-1zm9 1h1v1h-1zm34 0h1v1h-1zm-63 2h1v1h-1zm30 7h1v1h-1zm7 7h1v1h-1zm1 0h1v1h-1zm-43 2h1v1h-1zm59 5h1v1h-1zm-30 2h1v1h-1zm2 2h1v1h-1zm-50 2h1v1h-1zm12 0h1v1h-1zm4 1h1v1h-1zm44 3h1v1h-1zm-51 2h1v1h-1zm86 2h1v1h-1zm-84 3h1v1h-1zm66 0h1v1h-1zm5 4h1v1h-1zm-186 1h1v1h-1zm117 3h1v3h-1zm29 2h1v2h-1zm-29 1h1v1h-1zm-77 1h1v1h-1zm106 0h1v1h-1zm-160 1h1v1h-1zm146 1h1v1h-1zm-93 3h1v1h-1zm-50 6h1v1h-1zm139 0h1v1h-1zm-135 6h1v1h-1zm19 0h1v1h-1zm27 0h1v1h-1zm-13 1h1v1h-1zm75 0h1v1h-1zm62 0h1v1h-1zm-128 2h1v1h-1zm134 0h1v1h-1zm5 0h1v1h-1zm11 1h1v1h-1zm-180 1h1v1h-1zm23 0h1v1h-1zm75 0h1v1h-1zm1 0h1v1h-1zm55 0h1v1h-1zm-146 1h1v1h-1zm7 0h1v1h-1zm147 0h1v1h-1zm8 0h1v1h-1z" fill="#ec000e"/><path d="M334 21h1v1h-1zm27 1h1v1h-1zm-20 2h1v1h-1zm-169 1h1v1h-1zm99 0h1v1h-1zm23 2h1v1h-1zm24 9h1v1h-1zm50 4h1v1h-1zm-5 4h1v1h-1zm-32 3h1v1h-1zm-11 11h1v1h-1zm-34 2h1v1h-1zm12 11h1v1h-1zm56 7h1v1h-1zm19 5h1v1h-1zm-201 3h1v1h-1zm199 10h1v1h-1zm-46 2h1v1h-1zm-42 2h1v1h-1zm-78 1h1v1h-1zm76 1h1v1h-1zm-3 2h1v1h-1zm-90 2h1v1h-1zm71 0h1v1h-1zm29 2h1v1h-1zm67 2h1v1h-1z" fill="#ee3036"/><path d="M358 21h1v1h-1zm-16 3h1v1h-1zm-46 5h1v1h-1zm36 0h1v1h-1zm-52 1h1v1h-1zm49 5h1v1h-1zm39 0h1v1h-1zm-68 8h1v1h-1zm22 18h1v1h-1zm-41 2h1v1h-1zm57 8h1v1h-1zm17 8h1v1h-1zm-199 8h1v1h-1zm166 2h1v1h-1zm-165 4h1v1h-1zm137 12h1v1h-1zm-51 1h1v1h-1zm-35 1h1v1h-1zm-38 2h1v1h-1zm32 1h1v1h-1z" fill="#f16266"/><path d="M201 22h1v2h-1zm130 0h1v1h-1zm-130 2h1v1h-1zm92 2h1v1h-1zm-34 1h1v32h-1zm101 6h1v1h-1zm-65 21h1v1h-1zm-1 1h1v1h-1zm50 0h1v1h-1zm-67 3h1v1h-1zm-18 1h1v1h-1zm98 1h1v1h-1zm-98 7h1v37h-1zm82 5h1v1h-1zM172 85h1v1h-1zm131 6h1v1h-1zm-2 6h1v1h-1zm68 3h1v1h-1zm-208 2h1v1h-1zm98 2h1v1h-1zm59 3h1v1h-1zm29 0h1v1h-1zm-179 1h1v1h-1z" fill="#f05559"/><path d="M54 5h1v1h-1zm-7 4h2v1h-2zm2 0h1v1h-1zm8 0h1v1h-1zM22 21h1v1h-1zm78 0h1v1h-1zm-79 9h1v1h-1zm12 0h1v1h-1zm73 9h1v1h-1zm-96 2h1v1h-1zm102 0h1v1h-1zm-63 2h1v1h-1zm24 0h1v1h-1zm-47 4h1v1h-1zm70 0h1v1h-1zm-69 2h1v1h-1zm19 1h1v1h-1zm30 0h1v1h-1zm21 3h1v1h-1zm-62 2h1v1h-1zm17 0h1v1h-1zm35 1h1v1h-1zM35 67h1v1h-1zm-14 2h1v1h-1zm28 3h1v1h-1zM6 74h1v1H6zm27 0h1v1h-1zm56 0h1v1h-1zM4 76h1v1H4zm12 0h1v1h-1zm4 0h1v1h-1zm82 0h1v1h-1zm4 0h1v1h-1zm-84 1h1v1h-1zm17 3h1v1h-1zm1 0h1v1h-1zm7 0h1v1h-1zm62 0h1v1h-1zm-9 5h1v1h-1zM9 86h1v1H9zm9 0h1v1h-1zm38 4h1v1h-1zm66 5h1v1h-1zm-18 1h1v1h-1zm-91 1h1v1h-1zm1 2h1v1h-1zm15 0h1v1h-1zm2 2h1v1h-1zm41 0h1v1h-1zm49 0h1v1h-1zm-83 1h1v1h-1zm57 2h1v1h-1zm-93 3h1v1H2zm115 0h1v1h-1zm3 0h1v1h-1zm-49 3h1v1h-1zm-54 1h1v1h-1zm8 0h1v1h-1zm80 0h1v1h-1zm-65 3h1v1h-1zm20 0h1v1h-1zm22 1h1v1h-1zm-19 5h1v1h-1zm9 0h1v1h-1zm-18 3h1v1h-1z" fill="#f7f7f7"/><path d="M42 6h1v9h-1zm0 9h1v1h-1zm2 4h1v1h-1zm-2 5h1v9h-1zm-21 9h1v1h-1zm21 0h1v1h-1zm-2 3h1v1h-1zm42 0h1v1h-1zm-69 7h1v1h-1zm96 0h1v1h-1zm-65 5h1v1h-1zm34 0h1v1h-1zM55 58h1v1h-1zm12 0h1v1h-1zm10 8h1v1h-1zm-43 2h1v1h-1zm-23 3h1v1h-1zm22 0h1v1h-1zm-22 7h1v1h-1zm108 0h1v1h-1zm-72 1h1v1h-1zm28 0h1v1h-1zm23 0h1v1h-1zm-52 2h1v1h-1zm8 1h2v1h-2zm2 0h1v1h-1zm21 0h1v1h-1zm21 1h1v1h-1zM6 85h1v1H6zm34 0h1v1h-1zm12 0h1v1h-1zm70 0h1v1h-1zM17 86h1v1h-1zm64 4h1v2h-1zm27 1h1v1h-1zm-27 1h1v1h-1zm-63 1h1v1h-1zm0 3h1v1h-1zm22 1h1v1h-1zm68 2h1v1h-1zm-25 1h1v1h-1zm-41 1h1v1h-1zm-42 1h1v1H0zm29 1h1v1h-1zm-15 1h1v1h-1zm62 2h1v1h-1zm-46 3h1v1h-1zm73 2h1v1h-1zm-48 5h1v1h-1zm12 0h1v1h-1z" fill="#c2c1c1"/><path d="M46 14h2v1h-2zm2 0h1v1h-1zm-27 8h1v1h-1zm1 0h1v1h-1zm79 0h1v1h-1zm-79 7h1v1h-1zm24 0h1v1h-1zm4 0h1v1h-1zm-27 1h1v1h-1zm22 0h1v1h-1zm6 0h1v1h-1zm-32 4h2v1h-2zm2 0h1v1h-1zm82 0h1v1h-1zM48 44h1v1h-1zm26 0h1v1h-1zm-46 1h1v1h-1zm66 0h1v1h-1zm-58 1h1v1h-1zm50 0h1v1h-1zm-56 3h1v1h-1zm17 0h1v1h-1zm28 0h1v1h-1zm21 3h1v1h-1zm-8 4h1v1h-1zM15 71h1v1h-1zm33 0h1v1h-1zm62 1h1v1h-1zM7 75h1v1H7zm-2 9h1v1H5zm93 1h1v1h-1zm-72 3h1v1h-1zm32 0h1v1h-1zm60 1h1v2h-1zm-20 2h1v1h-1zm20 0h1v1h-1zm-46 3h1v1h-1zm14 1h1v1h-1zM5 96h1v1H5zm-2 3h1v1H3zm48 0h1v1h-1zm4 0h1v1h-1zm16 0h1v1h-1zm-22 1h1v1h-1zm30 0h1v1h-1zm32 1h1v1h-1zm8 0h1v1h-1zm-60 2h1v1h-1zm4 0h1v1h-1zm-55 2h1v1H8zm106 0h1v1h-1zm4 1h2v1h-2zm2 0h1v1h-1zm-64 5h1v1h-1zm10 0h1v1h-1zm15 0h1v1h-1zm-22 2h1v1h-1zm13 1h1v1h-1zm-27 1h1v1h-1zm-1 5h1v1h-1zm6 6h1v1h-1zm8 4h1v1h-1z" fill="#1a1516"/><path d="M46 15h1v1h-1zm-1 4h1v1h-1zm1 11h1v1h-1zm54 0h1v1h-1zm-84 5h1v1h-1zm90 0h1v1h-1zm-64 3h1v1h-1zm38 0h1v1h-1zm31 3h1v1h-1zm-74 5h1v1h-1zm5 0h1v1h-1zm38 0h1v1h-1zm5 0h1v1h-1zm18 1h1v1h-1zm-80 1h1v1h-1zm7 0h1v1h-1zm69 0h1v1h-1zm-66 3h1v1h-1zm-6 3h1v1h-1zm63 4h1v1h-1zM15 70h1v1h-1zm74 0h1v1h-1zm21 7h1v1h-1zm-28 2h1v1h-1zM2 80h1v1H2zm8 3h1v1h-1zm-1 1h1v1H9zm100 6h1v1h-1zM0 92h1v1H0zm50 1h1v1h-1zM6 96h1v1H6zm71 1h1v1h-1zm25 2h1v1h-1zm-51 1h1v1h-1zm4 0h1v1h-1zm-30 2h1v1h-1zm66 0h1v1h-1zm-33 1h1v1h-1zm6 0h1v1h-1zm-29 2h1v1h-1zm-32 2h1v1H3zm53 3h1v1h-1zm-3 1h1v1h-1zm16 0h1v1h-1zm13 0h1v1h-1zm-36 4h1v1h-1zm31 8h1v1h-1z" fill="#646263"/><path d="M343 19h1v1h-1zm-161 1h1v1h-1zm44 0h1v1h-1zm8 0h1v1h-1zm102 0h1v1h-1zm-93 6h1v1h-1zm81 0h1v1h-1zm-41 11h1v1h-1zm14 15h1v1h-1zm21 3h1v1h-1zm27 0h1v1h-1zm23 13h1v1h-1zm5 11h1v1h-1zm-155 5h1v1h-1zm98 6h1v1h-1zm7 2h1v1h-1zm-37 1h1v1h-1zm38 2h1v1h-1zm-142 9h1v1h-1zm61 1h1v1h-1zm122 0h1v1h-1zm-132 1h1v1h-1zm109 1h2v1h-2zm2 0h1v1h-1zm-137 1h1v1h-1zm115 1h1v1h-1zm-39 1h1v1h-1zm-50 1h1v1h-1zm-51 1h1v1h-1zm11 0h1v1h-1z" fill="#f8b8b9"/><path d="M344 19h1v1h-1zm1 0h2v1h-2zm2 0h1v1h-1zm12 2h1v1h-1zm-187 5h1v1h-1zm102 0h1v1h-1zm-56 1h1v55h-1zm105 0h1v1h-1zm39 13h1v1h-1zm-62 5h1v1h-1zm19 12h1v1h-1zm-36 6h1v1h-1zm43 2h1v1h-1zm44 6h1v1h-1zm-70 2h1v1h-1zm43 0h1v1h-1zm5 2h1v1h-1zm-130 7h1v1h-1zm140 1h1v1h-1zm-148 5h1v1h-1zm106 0h1v1h-1zm-143 2h1v1h-1zm-16 4h1v1h-1zm17 0h1v1h-1zm111 2h1v1h-1zm-127 1h1v1h-1zm19 3h1v1h-1zm23 4h1v1h-1zm166 0h1v1h-1zm-25 3h1v1h-1zm-52 1h1v1h-1zm-117 2h1v1h-1zm11 2h1v1h-1zm9 0h1v1h-1zm155 0h1v1h-1z" fill="#f6a9ab"/><path d="M333 21h1v1h-1zm29 1h1v1h-1zm6 3h1v2h-1zm-32 1h1v1h-1zm-164 1h1v53h-1zm196 0h1v1h-1zm-12 1h1v1h-1zm1 1h1v1h-1zm-58 5h1v1h-1zm19 1h1v1h-1zm11 1h1v1h-1zm32 0h1v1h-1zm-8 22h1v1h-1zm-66 6h1v1h-1zm5 2h1v1h-1zm37 1h1v1h-1zm42 6h1v1h-1zm-199 7h1v1h-1zm115 5h1v1h-1zm0 1h1v1h-1zm29 1h1v1h-1zm-160 2h1v1h-1zm217 1h1v1h-1zm-164 3h1v1h-1zm75 5h1v1h-1zm42 1h1v1h-1zm-113 3h1v1h-1zm-11 1h1v1h-1zm-5 2h1v1h-1zm148 2h1v1h-1zm-140 2h1v1h-1zm70 2h1v1h-1zm55 0h1v1h-1zm-146 1h1v1h-1zm7 0h1v1h-1zm147 0h1v1h-1z" fill="#f6a2a4"/><path d="M286 22h1v1h-1zm6 3h1v1h-1zm76 3h1v1h-1zm0 1h1v1h-1zm-68 9h1v1h-1zm30 7h1v1h-1zm-31 3h1v1h-1zm43 6h1v1h-1zm-63 2h1v1h-1zm-1 1h1v1h-1zm-6 3h1v1h-1zm49 0h1v1h-1zm-40 2h1v1h-1zm80 0h1v1h-1zm-86 4h1v1h-1zm92 1h1v1h-1zm-85 3h1v1h-1zm53 0h1v1h-1zm17 7h1v1h-1zm-49 3h1v1h-1zm70 0h1v1h-1zm-201 1h1v1h-1zm144 2h1v3h-1zm-29 1h1v1h-1zm29 2h1v1h-1zm-29 1h1v1h-1zm35 1h1v1h-1zm-19 4h1v1h-1zm-144 7h1v1h-1zm21 4h1v1h-1zm151 1h1v1h-1zm-71 2h1v1h-1zm31 1h1v1h-1zm49 0h1v1h-1zm16 3h1v1h-1zm-180 1h1v1h-1zm23 0h1v1h-1zm35 0h40v1h-40zm40 0h1v1h-1zm-89 1h1v1h-1zm5 0h1v1h-1zm156 0h1v1h-1z" fill="#f49193"/><path d="M25 24h1v1h-1zm72 0h1v1h-1zm-46 2h1v1h-1zm3 4h1v1h-1zm50 2h1v1h-1zm-63 5h1v1h-1zm40 0h1v1h-1zm28 1h1v1h-1zm-97 4h1v1h-1zm11 3h1v1h-1zm76 0h1v1h-1zm-82 1h1v1h-1zm88 0h1v1h-1zm-80 1h1v1h-1zm18 0h1v1h-1zm-21 1h1v1h-1zm78 0h1v1h-1zm-6 1h1v1h-1zm-61 5h1v1h-1zm4 13h1v1h-1zm7 0h1v1h-1zm34 0h1v1h-1zm8 0h1v1h-1zm-34 2h1v1h-1zm-28 1h1v1h-1zm10 2h1v1h-1zm53 1h1v1h-1zm-53 2h1v1h-1zm54 0h1v1h-1zm-42 3h1v1h-1zm74 2h1v1h-1zm-4 5h1v1h-1zm-95 1h1v1h-1zm-3 8h1v1h-1zm98 1h1v1h-1zM1 97h1v1H1zm77 1h1v1h-1zm7 5h1v1h-1zm9 1h1v1h-1zm-78 1h1v1h-1zm66 2h1v1h-1zm-67 3h1v1h-1zm12 0h1v1h-1zm80 0h1v1h-1zm-29 12h1v1h-1zm-25 1h1v1h-1zm6 11h1v1h-1z" fill="#908f8f"/><path d="M44 20h1v1h-1zm5 2h1v1h-1zm2 1h1v1h-1zm55 2h1v1h-1zM17 36h1v1h-1zm88 0h1v1h-1zm-93 2h1v1h-1zm98 0h1v1h-1zm-90 6h1v1h-1zm82 0h1v1h-1zm-50 2h1v1h-1zm18 0h1v1h-1zm27 1h1v1h-1zm-69 2h1v1h-1zm26 10h1v1h-1zm14 0h1v1h-1zm-19 4h1v1h-1zm24 0h1v1h-1zm12 4h1v1h-1zm13 3h1v1h-1zm-71 1h1v1h-1zm68 0h1v1h-1zm-19 3h1v1h-1zm-52 5h1v1h-1zM1 82h1v1H1zm23 1h1v1h-1zm1 7h1v1h-1zm43 1h1v1h-1zM0 93h1v1H0zm47 2h1v1h-1zm-28 3h1v1h-1zm22 6h1v1h-1zm65 1h1v1h-1zm-17 2h1v1h-1zm24 0h1v1h-1zm-63 3h1v1h-1zm45 0h1v1h-1zm-48 7h1v1h-1zm-2 6h1v1h-1zm2 2h1v1h-1zm7 4h1v1h-1zm14 0h1v1h-1zm-5 5h1v1h-1z" fill="#848383"/><path d="M337 21h1v1h-1zm17 0h1v1h-1zm-72 1h1v1h-1zm4 1h1v1h-1zm57 0h3v1h-3zm3 0h1v1h-1zm-199 1h1v1h-1zm55 0h1v1h-1zm136 0h1v1h-1zm13 0h1v1h-1zm-24 1h1v1h-1zm25 0h1v1h-1zm2 1h1v1h-1zm1 0h1v1h-1zm-77 1h1v1h-1zm15 0h1v1h-1zm1 1h1v1h-1zm1 1h1v1h-1zm36 0h1v1h-1zm36 0h1v4h-1zm-70 3h1v1h-1zm23 1h1v1h-1zm47 0h1v1h-1zm-83 3h1v1h-1zm15 3h1v1h-1zm19 0h1v1h-1zm45 0h1v1h-1zm5 3h1v1h-1zm-69 2h1v1h-1zm65 0h1v1h-1zm-66 4h1v1h-1zm33 0h1v1h-1zm1 1h1v1h-1zm-35 1h1v1h-1zm21 1h1v1h-1zm-37 4h1v1h-1zm61 0h1v1h-1zm-23 1h1v1h-1zm31 2h1v1h-1zm-75 2h1v1h-1zm9 0h1v1h-1zm71 0h1v1h-1zm-83 1h1v1h-1zm9 0h1v1h-1zm43 1h1v1h-1zm-42 2h1v1h-1zm-11 1h1v1h-1zm7 1h1v1h-1zm53 1h1v1h-1zm2 1h1v1h-1zm-37 2h1v1h-1zm40 0h1v1h-1zm-38 2h1v1h-1zm48 1h1v1h-1zm25 1h1v2h-1zm-71 1h1v1h-1zm71 1h1v1h-1zm-84 1h1v1h-1zm14 0h1v1h-1zm54 1h1v1h-1zm-53 2h1v1h-1zm70 0h1v1h-1zm-201 2h1v1h-1zm0 1h1v1h-1zm117 0h1v1h-1zm29 2h1v1h-1zm43 0h1v1h-1zm-203 3h1v1h-1zm131 0h1v1h-1zm33 0h1v1h-1zm-110 1h1v1h-1zm77 0h1v1h-1zm84 1h1v1h-1zm-200 1h1v1h-1zm44 0h1v1h-1zm86 1h1v1h-1zm69 2h1v1h-1zm-156 1h1v1h-1zm86 0h1v1h-1zm59 0h1v1h-1zm-151 1h1v1h-1zm-35 1h1v1h-1zm34 1h1v1h-1zm6 0h1v1h-1zm145 0h1v1h-1zm-153 2h1v1h-1zm7 0h1v1h-1zm145 0h1v1h-1zm-75 1h1v1h-1zm44 0h1v1h-1zm-165 1h1v1h-1zm120 0h1v1h-1zm-71 1h1v1h-1zm118 0h1v1h-1zm-35 1h1v1h-1zm-110 2h1v1h-1zm24 0h1v1h-1zm67 0h1v1h-1zm17 0h1v1h-1zm60 0h1v1h-1zm-117 1h7v1h-7zm7 0h1v1h-1zm18 0h9v1h-9zm9 0h1v1h-1zm51 0h1v1h-1zm15 0h1v1h-1zm15 0h1v1h-1zm-116 1h1v1h-1zm52 0h1v1h-1zm53 0h1v1h-1zm7 0h1v1h-1zm-142 1h1v1h-1zm30 0h1v1h-1zm48 0h1v1h-1zm44 0h1v1h-1zm-91 1h38v1h-38zm38 0h1v1h-1zm58 0h1v1h-1zm21 0h1v1h-1zm-167 1h5v1h-5zm5 0h1v1h-1zm7 0h1v1h-1zm142 0h2v1h-2zm2 0h4v1h-4zm4 0h1v1h-1z" fill="#ed0916"/><path d="M277 20h1v1h-1zm53 2h1v1h-1zm-41 1h1v1h-1zm-62 2h1v1h-1zm112 0h1v1h-1zm-63 2h1v1h-1zm55 4h1v1h-1zm28 1h1v1h-1zm1 2h1v1h-1zm-86 32h1v1h-1zm20 1h1v1h-1zm-10 6h1v1h-1zm19 6h1v1h-1zm19 7h1v1h-1zm-19 7h1v1h-1zm13 0h1v1h-1zm9 4h1v1h-1zm-147 4h1v1h-1zm178 0h1v1h-1zm12 1h1v1h-1zm-15 2h1v1h-1zm-4 2h1v1h-1zm-149 5h1v1h-1zm-19 1h1v1h-1zm13 0h1v1h-1z" fill="#f9cacb"/><path d="M354 20h1v1h-1zm-72 1h1v1h-1zm61 3h1v1h-1zm3 0h1v1h-1zm-8 1h1v1h-1zm20 5h1v1h-1zm-60 2h1v1h-1zm70 0h1v1h-1zm-85 4h1v1h-1zm34 3h1v1h-1zm-21 14h1v1h-1zm54 4h1v1h-1zm-72 10h1v1h-1zm17 1h1v1h-1zm36 0h1v1h-1zm2 1h1v1h-1zm-47 8h1v1h-1zm87 12h1v1h-1zm-200 2h1v1h-1zm44 0h1v1h-1zm85 4h1v1h-1zm57 0h1v1h-1zm-184 2h1v1h-1zm32 1h1v1h-1zm8 0h1v1h-1zm143 0h1v1h-1zm-83 7h1v1h-1zm-6 1h1v1h-1zm81 0h1v1h-1zm-117 1h1v1h-1zm106 0h1v1h-1zm23 0h1v1h-1zm-42 1h1v1h-1zm-87 2h1v1h-1zm98 1h1v1h-1zm9 1h1v1h-1zm4 0h1v1h-1z" fill="#f37c7f"/><path d="M103 21h1v1h-1zm-4 10h1v1h-1zm-80 2h1v1h-1zm-4 7h1v1h-1zm1 5h1v1h-1zm37 2h1v1h-1zm16 0h1v1h-1zm-32 5h1v1h-1zm32 8h1v1h-1zm-21 4h1v1h-1zm26 0h1v1h-1zm-31 4h1v1h-1zm36 0h1v1h-1zm-44 5h1v1h-1zm-3 1h1v1h-1zm58 0h1v1h-1zm-13 3h1v1h-1zm-37 2h1v1h-1zM7 82h1v1H7zm7 2h1v1h-1zm93 1h1v1h-1zM0 87h1v1H0zm122 1h1v1h-1zm-25 2h1v1h-1zm-45 2h1v1h-1zm20 1h1v1h-1zm15 0h1v1h-1zm-77 2h1v1h-1zm93 2h1v1h-1zm17 4h1v1h-1zm-92 3h1v1h-1zm60 2h1v1h-1zm-6 4h1v1h-1zm-1 6h1v1h-1zm-38 4h1v1h-1zm7 7h1v1h-1z" fill="#575556"/><path d="M17 23h1v1h-1zm-1 2h1v1h-1zm88 2h1v1h-1zm-68 6h1v1h-1zm50 0h1v1h-1zm20 0h1v1h-1zm-82 9h1v1h-1zm74 0h1v1h-1zm-6 3h1v1h-1zm-3 9h1v1h-1zm-35 2h1v1h-1zm14 0h1v1h-1zm2 13h1v1h-1zM8 73h1v1H8zm100 3h1v1h-1zm-32 2h1v1h-1zm-38 3h1v1h-1zm76 0h1v1h-1zm-75 2h1v1h-1zm-24 2h1v1h-1zM0 86h1v1H0zm40 0h1v1h-1zM5 88h1v1H5zm27 1h1v1h-1zM5 92h1v1H5zm117 0h1v1h-1zm-35 2h1v1h-1zm-47 2h1v1h-1zm5 1h1v1h-1zm-32 1h1v1h-1zm26 1h1v1h-1zm55 1h1v1h-1zm-21 1h1v1h-1zm-25 1h1v1h-1zm-12 2h1v1h-1zm-27 3h1v1H9zm110 0h1v1h-1zm-62 2h1v1h-1zm25 3h1v1h-1zm-27 12h1v1h-1zm12 0h1v1h-1z" fill="#7d7c7c"/><g fill="#231f20"><path d="M61 1h1v111h-1zm1 0h1v110h-1z"/><path d="M59 2h4v100h-4zm4 0h1v100h-1zM44 7h1v7h-1zm8 0h1v6h-1zm-7 3h1v4h-1z"/><path d="M51 10h2v2h-2zm2 0h1v19h-1zm5 0h5v19h-5z"/><path d="M46 11h17v1H46zm0 1h17v1H46zm0 1h1v1h-1zm1 0h1v1h-1zm5 0h11v1H52zm-8 1h1v1h-1zm1 0h1v1h-1zm9 0h9v14h-9z"/><path d="M52 17h11v5H52z"/><path d="M51 18h12v3H51z"/><path d="M49 19h14v1H49zm-1 1h15v1H48zm2 1h13v1H50zm-30 1h1v5h-1zm32 0h11v1H52zm50 0h1v5h-1z"/><path d="M19 23h2v3h-2zm2 0h1v4h-1zm80 0h2v4h-2zm2 0h1v3h-1z"/><path d="M18 24h5v1h-5zm5 0h1v5h-1zm76 0h5v2h-5zm5 0h1v1h-1z"/><path d="M18 25h6v1h-6zm6 0h1v5h-1zm20 0h1v7h-1zm54 0h6v1h-6zm6 0h1v1h-1z"/><path d="M19 26h6v1h-6zm6 0h1v13h-1zm20 0h2v2h-2zm2 0h1v2h-1zm50 0h6v1h-6zm6 0h1v1h-1z"/><path d="M20 27h6v1h-6zm6 0h1v18h-1zm22 0h1v1h-1zm1 0h1v1h-1zm3 0h11v1H52zm44 0h6v1h-6zm6 0h1v1h-1z"/><path d="M22 28h6v1h-6zm6 0h1v15h-1zm17 0h18v1H45zm49 0h6v1h-6zm6 0h1v1h-1z"/><path d="M23 29h6v1h-6zm6 0h1v14h-1zm16 0h1v1h-1zm6 0h2v1h-2zm2 0h1v1h-1zm5 0h5v1h-5zm35 0h6v1h-6zm6 0h1v1h-1z"/><path d="M24 30h6v8h-6zm6 0h1v13h-1zm22 0h1v2h-1zm40 0h6v9h-6zm6 0h1v8h-1zm-67 1h1v13h-1z"/><path d="M91 31h6v12h-6zm-59 1h1v13h-1zm12 0h1v1h-1zm8 0h1v1h-1z"/><path d="M90 32h8v7h-8zm-67 1h11v4H23zm11 0h1v15h-1z"/><path d="M88 33h11v5H88zm11 0h1v4h-1zm-82 1h1v1h-1zm1 0h1v1h-1zm4 0h13v3H22zm13 0h1v15h-1z"/><path d="M87 34h13v3H87zm13 0h1v3h-1zm4 0h1v1h-1zm-86 1h1v1h-1zm1 0h17v1H19zm17 0h1v10h-1z"/><path d="M86 35h18v1H86zm18 0h1v1h-1zm-85 1h18v1H19zm18 0h1v8h-1zm48 0h18v1H85zm18 0h1v6h-1z"/><path d="M20 37h19v1H20zm19 0h1v5h-1zm44 0h19v1H83zm19 0h1v2h-1zm-83 1h2v1h-2zm2 0h1v1h-1z"/><path d="M24 38h16v1H24zm16 0h1v5h-1zm42 0h16v1H82zm16 0h1v1h-1zm3 0h2v1h-2zm-83 1h2v3h-2zm2 0h1v1h-1z"/><path d="M25 39h16v1H25zm16 0h1v4h-1zm40 0h16v3H81zm16 0h1v1h-1zm5 0h1v1h-1zm-89 1h1v1h-1z"/><path d="M27 40h15v2H27zm15 0h1v4h-1zm38 0h16v2H80zm24 0h1v5h-1zm5 0h1v1h-1zm-96 1h1v1h-1zm1 0h1v1h-1zm3 0h2v3h-2zm26 0h1v4h-1zm1 0h1v5h-1z"/><path d="M78 41h18v1H78zm27 0h1v3h-1zm3 0h1v1h-1zm1 0h1v1h-1zm-95 1h5v1h-5zm5 0h1v1h-1zm8 0h18v1H27zm18 0h1v5h-1zm32 0h19v1H77z"/><path d="M103 42h5v1h-5zm5 0h1v1h-1zm-92 1h2v1h-2zm9 0h13v1H25zm13 0h8v1h-8zm8 0h1v4h-1zm30 0h6v1h-6zm6 0h15v1H82zm15 0h1v2h-1zm9 0h1v1h-1zm-89 1h1v1h-1zm1 0h1v1h-1zm7 0h2v1h-2zm2 0h1v1h-1zm4 0h6v1h-6zm6 0h1v1h-1z"/><path d="M42 44h5v1h-5zm5 0h1v4h-1zm28 0h5v1h-5zm5 0h1v1h-1zm5 0h6v1h-6zm6 0h1v1h-1zm4 0h2v1h-2zm10 0h1v1h-1zm-80 1h1v1h-1zm1 0h1v1h-1zm6 0h4v1h-4zm4 0h1v1h-1z"/><path d="M43 45h5v1h-5zm5 0h1v4h-1zm26 0h5v1h-5zm5 0h1v1h-1zm7 0h4v1h-4zm4 0h1v1h-1zm6 0h1v1h-1zm1 0h1v1h-1zm-64 1h2v2h-2z"/><path d="M44 46h6v1h-6zm6 0h1v5h-1zm22 0h6v1h-6zm6 0h1v1h-1zm9 0h2v2h-2zm2 0h1v3h-1z"/><path d="M45 47h6v1h-6zm6 0h1v5h-1zm20 0h6v1h-6zm6 0h1v1h-1zm-44 1h3v1h-3zm3 0h1v1h-1z"/><path d="M47 48h5v1h-5zm5 0h1v4h-1zm18 0h5v1h-5zm5 0h1v1h-1zm11 0h3v1h-3zm-55 1h2v1h-2zm2 0h4v1h-4zm4 0h1v1h-1z"/><path d="M48 49h5v1h-5zm5 0h1v4h-1zm16 0h5v1h-5zm5 0h1v1h-1zm11 0h2v1h-2zm2 0h4v1h-4zm4 0h1v2h-1zm-62 1h3v1h-3zm3 0h1v1h-1zm5 0h1v1h-1z"/><path d="M49 50h6v1h-6zm6 0h1v5h-1zm12 0h6v1h-6zm6 0h1v1h-1zm12 0h1v1h-1zm5 0h3v1h-3zm3 0h1v4h-1zm-66 1h4v1h-4zm4 0h1v1h-1z"/><path d="M50 51h6v1h-6zm6 0h8v5h-8zm8 0h8v1h-8zm8 0h1v1h-1zm19 0h4v1h-4zm4 0h1v1h-1zm-68 1h3v1h-3zm3 0h1v3h-1z"/><path d="M51 52h20v1H51zm20 0h1v1h-1zm21 0h3v1h-3zm3 0h1v1h-1zm-67 1h2v1h-2zm25 0h16v1H53zm16 0h1v1h-1zm23 0h2v1h-2zm2 0h1v1h-1zm-65 1h2v1h-2zm2 0h1v1h-1zm23 0h14v1H54zm14 0h1v1h-1zm23 0h2v1h-2zm2 0h1v1h-1zm-63 1h2v1h-2zm2 0h1v1h-1zm23 0h12v1H55zm12 0h1v1h-1zm23 0h2v1h-2zm2 0h1v1h-1zm-60 1h1v1h-1zm24 0h10v1H56zm10 0h1v1h-1zm24 0h1v1h-1zm-33 1h8v6h-8zm8 0h1v6h-1z"/><path d="M56 59h10v4H56zm10 0h1v5h-1z"/><path d="M55 60h12v3H55zm12 0h1v5h-1z"/><path d="M54 61h14v2H54zm14 0h1v4h-1z"/><path d="M53 62h16v1H53zm16 0h1v4h-1z"/><path d="M51 63h20v1H51zm20 0h1v5h-1zm-21 1h6v1h-6zm6 0h8v1h-8z"/><path d="M64 64h8v1h-8zm8 0h1v5h-1zm-23 1h6v1h-6zm6 0h1v1h-1z"/><path d="M67 65h6v1h-6zm6 0h2v5h-2zm2 0h1v6h-1zm-27 1h5v1h-5zm5 0h1v1h-1z"/><path d="M69 66h5v1h-5zm-23 1h6v1h-6zm6 0h1v1h-1zm16 0h8v1h-8zm8 0h1v5h-1zm-31 1h6v1h-6zm6 0h1v1h-1z"/><path d="M71 68h6v1h-6zm6 0h1v5h-1zm-42 1h2v2h-2zm2 0h1v10h-1zm5 0h8v1h-8zm8 0h1v1h-1z"/><path d="M72 69h6v1h-6zm6 0h2v5h-2zm2 0h1v10h-1zm5 0h2v3h-2zm2 0h1v2h-1zm-49 1h1v8h-1zm5 0h5v1h-5zm5 0h1v1h-1z"/><path d="M73 70h6v1h-6zm11 0h3v2h-3zm-67 1h5v2h-5zm5 0h1v4h-1zm13 0h4v1h-4zm4 0h8v1h-8zm8 0h1v1h-1zm28 0h6v1h-6z"/><path d="M81 71h6v1h-6zm6 0h1v1h-1zm13 0h5v2h-5zm5 0h1v3h-1zm-92 1h13v1H13zm13 0h1v15h-1zm10 0h10v1H36zm10 0h1v1h-1zm30 0h10v1H76zm10 0h1v1h-1z"/><path d="M96 72h13v1H96zm13 0h1v3h-1zm-98 1h17v1H11zm17 0h1v14h-1zm11 0h6v1h-6zm6 0h1v1h-1zm32 0h8v1h-8zm8 0h1v7h-1z"/><path d="M94 73h17v1H94zm17 0h1v3h-1zM9 74h8v1H9zm8 0h1v1h-1zm3 0h10v1H20zm10 0h1v12h-1zm9 0h5v1h-5zm5 0h1v1h-1zm34 0h7v1h-7zm14 0h10v1H92zm10 0h1v1h-1z"/><path d="M105 74h8v1h-8zm8 0h1v4h-1zM8 75h5v1H8zm5 0h1v1h-1zm9 0h9v1h-9zm9 0h1v12h-1zm5 0h7v2h-7zm7 0h1v6h-1zm36 0h7v2h-7zm7 0h1v17h-1zm5 0h8v1h-8zm8 0h1v1h-1z"/><path d="M109 75h5v1h-5zm5 0h1v4h-1zM7 76h4v1H7zm4 0h1v1h-1zm13 0h8v1h-8zm8 0h1v11h-1zm3 0h7v1h-7zm52 0h1v14h-1zm3 0h8v1h-8zm8 0h2v1h-2zm2 0h1v1h-1z"/><path d="M111 76h4v1h-4zm4 0h1v4h-1zM6 77h4v1H6zm4 0h1v1h-1zm15 0h18v1H25zm54 0h18v1H79zm18 0h1v1h-1z"/><path d="M112 77h4v1h-4zm4 0h1v5h-1zM5 78h3v2H5zm3 0h1v1H8zm17 0h13v1H25zm13 0h1v1h-1zm3 0h3v1h-3zm3 0h1v2h-1zm34 0h3v1h-3zm3 0h15v1H81zm15 0h1v9h-1z"/><path d="M113 78h4v1h-4zm4 0h1v6h-1zM4 79h4v1H4zm4 0h1v1H8zm19 0h10v7H27zm10 0h1v1h-1zm5 0h3v1h-3zm3 0h1v1h-1zm32 0h3v1h-3zm3 0h1v1h-1zm4 0h12v1H84z"/><path d="M114 79h4v1h-4zm4 0h1v8h-1zM4 80h3v1H4zm3 0h1v1H7zm35 0h3v1h-3zm3 0h1v1h-1zm32 0h2v1h-2zm2 0h1v1h-1zm6 0h11v6H85zm30 0h3v1h-3zM3 81h3v2H3zm3 0h1v1H6zm37 0h1v1h-1zm36 0h1v1h-1zm40 0h1v17h-1zm-82 1h1v18h-1z"/><path d="M116 82h3v1h-3zM2 83h3v3H2zm3 0h1v1H5zm53 0h6v4h-6zm6 0h1v4h-1zm-53 1h1v2h-1zm1 0h1v3h-1zm13 0h13v2H25zm13 0h1v14h-1z"/><path d="M54 84h14v2H54zm14 0h1v2h-1zm16 0h12v2H84zm26 0h1v3h-1zm1 0h1v1h-1zm6 0h3v1h-3zm3 0h1v11h-1zM13 85h1v3h-1zm84 0h1v3h-1z"/><path d="M109 85h2v2h-2zm2 0h1v1h-1zM2 86h2v9H2zm2 0h1v1H4zm7 0h3v1h-3zm3 0h1v3h-1zm10 0h14v1H24zm30 0h14v1H54zm14 0h1v1h-1zm16 0h14v1H84zm14 0h1v3h-1z"/><path d="M108 86h2v2h-2zm-96 1h3v1h-3zm3 0h1v3h-1zm7 0h6v1h-6zm6 0h1v1h-1zm3 0h7v1h-7zm27 0h6v1h-6zm6 0h1v1h-1zm19 0h8v1h-8zm8 0h1v1h-1zm3 0h6v1h-6zm6 0h1v12h-1z"/><path d="M107 87h3v1h-3zm3 0h1v1h-1zm8 0h2v1h-2zM1 88h2v2H1zm12 0h12v1H13zm12 0h1v1h-1zm8 0h6v1h-6zm6 0h1v6h-1zm44 0h6v1h-6zm6 0h1v1h-1zm8 0h12v1H97zm12 0h1v1h-1zm-95 1h10v1H14zm10 0h1v1h-1zm10 0h5v1h-5zm49 0h5v1h-5zm5 0h1v1h-1zm10 0h10v1H98zm10 0h1v1h-1zM1 90h2v1H1zm14 0h8v1h-8zm8 0h1v1h-1zm12 0h4v1h-4zm48 0h4v2h-4zm4 0h1v1h-1zm12 0h7v1h-7zm7 0h1v1h-1zm-87 1h3v1h-3zm3 0h1v9h-1zm14 0h3v7h-3zm22 0h6v10h-6zm6 0h1v10h-1zm37 0h2v5h-2zm2 0h1v1h-1zm-83 1h2v5h-2z"/><path d="M56 92h11v7H56zm11 0h1v6h-1zm16 0h3v3h-3zm3 0h1v1h-1z"/><path d="M53 93h16v5H53zm16 0h1v5h-1zm49 0h2v5h-2zM4 94h1v11H4zm35 0h1v1h-1z"/><path d="M51 94h20v4H51zm20 0h1v4h-1zM2 95h2v1H2z"/><path d="M49 95h24v3H49zm24 0h1v4h-1zm10 0h2v1h-2zm2 0h1v5h-1zm35 0h1v1h-1zM3 96h1v2H3z"/><path d="M48 96h26v2H48zm26 0h1v4h-1zm10 0h1v2h-1zm17 0h1v2h-1zm1 0h1v1h-1zm15 0h2v8h-2zM5 97h1v7H5zm4 0h1v8H9zm1 0h1v4h-1zm10 0h3v1h-3zm3 0h1v3h-1z"/><path d="M47 97h28v1H47zm28 0h1v4h-1zm11 0h1v5h-1zm13 0h2v2h-2zm12 0h2v3h-2zm2 0h1v8h-1zM3 98h3v1H3zm3 0h5v3H6zm5 0h1v2h-1zm10 0h2v1h-2zm15 0h2v2h-2zm2 0h1v1h-1z"/><path d="M46 98h30v1H46zm30 0h1v4h-1zm8 0h2v1h-2zm14 0h3v1h-3zm3 0h1v1h-1zm13 0h5v5h-5zm5 0h1v1h-1zm-95 1h1v2h-1zm11 0h2v3h-2zm10 0h5v1h-5zm5 0h1v1h-1zm6 0h10v1H56zm10 0h1v1h-1z"/><path d="M72 99h5v1h-5zm5 0h1v5h-1zm10 0h1v4h-1zm10 0h3v1h-3zm3 0h1v1h-1zm-89 1h1v1h-1zm11 0h3v1h-3zm3 0h1v1h-1zm9 0h3v2h-3zm3 0h1v1h-1zm8 0h3v1h-3zm3 0h1v1h-1zm9 0h8v1h-8zm8 0h1v1h-1zm9 0h3v1h-3zm11 0h2v1h-2zm12 0h2v1h-2zm2 0h1v1h-1zm12 0h7v1h-7zM6 101h4v2H6zm4 0h1v5h-1zm14 0h1v1h-1zm20 0h3v1h-3zm3 0h1v1h-1zm11 0h6v1h-6zm6 0h1v1h-1z"/><path d="M75 101h3v1h-3zm3 0h1v7h-1zm10 0h1v3h-1zm10 0h1v1h-1zm14 0h6v2h-6zM3 102h6v1H3zm30 0h3v1h-3zm3 0h1v1h-1zm8 0h2v2h-2zm2 0h1v1h-1zm13 0h4v1h-4zm4 0h1v1h-1z"/><path d="M76 102h3v1h-3zm3 0h1v16h-1zm7 0h3v1h-3zm3 0h1v3h-1zm30 0h1v3h-1zM2 103h8v1H2zm30 0h3v1h-3zm3 0h1v1h-1zm8 0h2v5h-2zm17 0h2v8h-2z"/><path d="M87 103h3v1h-3zm3 0h1v3h-1zm22 0h8v1h-8zm8 0h1v1h-1zM2 104h4v1H2zm4 0h5v1H6zm5 0h1v2h-1zm19 0h4v1h-4zm4 0h1v1h-1zm11 0h1v1h-1zm32 0h2v1h-2z"/><path d="M88 104h3v1h-3zm3 0h1v2h-1zm20 0h3v1h-3zm3 0h6v1h-6zm6 0h1v1h-1zM1 105h3v1H1zm3 0h1v1H4zm5 0h3v1H9zm3 0h1v2h-1zm3 0h1v3h-1zm14 0h4v1h-4zm4 0h1v1h-1zm47 0h1v10h-1z"/><path d="M89 105h4v1h-4zm4 0h1v2h-1zm17 0h3v1h-3zm3 0h1v1h-1zm5 0h1v1h-1zm1 0h1v1h-1zm-109 1h4v1h-4zm4 0h1v2h-1zm13 0h5v1h-5zm5 0h1v1h-1zm10 0h2v8h-2z"/><path d="M90 106h5v1h-5zm5 0h1v2h-1zm12 0h5v1h-5zm5 0h1v1h-1zm-100 1h7v1h-7zm7 0h1v2h-1zm3 0h8v1h-8zm8 0h1v1h-1z"/><path d="M92 107h7v1h-7zm7 0h1v2h-1zm4 0h7v1h-7zm7 0h1v1h-1zm-96 1h14v1H14zm14 0h1v1h-1zm16 0h1v1h-1zm14 0h4v3h-4zm20 0h2v1h-2z"/><path d="M94 108h14v1H94zm14 0h1v1h-1zm-91 1h8v1h-8zm8 0h1v1h-1zm38 0h1v3h-1zm34 0h8v1h-8zm8 0h1v1h-1zm-41 1h1v3h-1z"/><path d="M57 111h8v1h-8zm8 0h1v2h-1zm-21 1h1v7h-1zm11 0h4v1h-4zm4 0h2v1h-2z"/><path d="M61 112h6v1h-6zm6 0h1v2h-1zm11 0h2v6h-2zm-27 1h7v1h-7zm7 0h1v1h-1z"/><path d="M64 113h7v1h-7zm7 0h1v1h-1zm-29 1h2v1h-2zm9 0h5v1h-5zm5 0h1v1h-1zm10 0h5v1h-5zm5 0h1v1h-1zm-28 1h1v2h-1zm14 0h1v1h-1zm8 0h1v1h-1zm15 0h1v1h-1zm-35 1h1v5h-1zm32 0h2v3h-2zm-34 1h2v1h-2zm3 1h1v4h-1z"/><path d="M76 118h3v1h-3zm3 0h1v2h-1zm-35 1h2v1h-2zm31 0h3v2h-3zm3 0h1v1h-1zm-31 1h1v3h-1zm32 0h1v1h-1z"/><path d="M45 121h3v1h-3zm3 0h1v3h-1zm26 0h3v1h-3zm3 0h1v1h-1z"/><path d="M46 122h3v1h-3zm3 0h1v3h-1zm10 0h4v10h-4zm4 0h1v10h-1zm10 0h3v1h-3zm3 0h1v1h-1z"/><path d="M47 123h3v1h-3zm3 0h1v2h-1zm21 0h4v1h-4zm4 0h1v1h-1z"/><path d="M48 124h4v1h-4zm4 0h1v2h-1zm12 0h1v5h-1zm6 0h4v1h-4zm4 0h1v1h-1z"/><path d="M49 125h5v1h-5zm5 0h1v2h-1zm4 0h6v4h-6zm10 0h5v1h-5zm5 0h1v1h-1z"/><path d="M51 126h20v1H51zm20 0h1v1h-1zm-18 1h16v1H53zm16 0h1v1h-1zm-14 1h12v1H55zm12 0h1v1h-1zm-9 1h6v1h-6zm6 0h1v1h-1zm-5 3h4v1h-4zm4 0h1v1h-1zm-2 2h1v1h-1z"/></g><path d="M51 14h1v1h-1zm-9 2h1v1h-1zm4 5h1v1h-1zm-22 2h1v1h-1zm18 0h1v1h-1zm56 0h1v1h-1zm-52 1h1v1h-1zm5 1h1v1h-1zm52 3h1v1h-1zm-60 6h2v1h-2zm2 0h1v1h-1zm6 0h2v1h-2zm2 0h1v1h-1zm-42 5h1v1h-1zm100 0h1v1h-1zm-82 6h1v1h-1zm22 0h1v1h-1zm20 0h1v1h-1zm22 0h1v1h-1zm-75 2h1v1h-1zm86 0h1v1h-1zM50 62h1v1h-1zm22 0h1v1h-1zm-27 4h1v1h-1zm6 4h1v1h-1zm37 2h1v1h-1zm-53 2h1v1h-1zm42 1h1v1h-1zm36 5h1v1h-1zm-33 2h1v1h-1zm3 0h1v1h-1zm25 1h1v1h-1zm-3 3h1v1h-1zm-40 4h1v1h-1zm-17 4h1v1h-1zm-20 5h1v1h-1zm67 2h1v1h-1zm-58 2h1v1h-1zm21 1h1v1h-1zm6 0h1v1h-1zm33 1h1v1h-1zm-51 1h1v1h-1zm36 0h1v1h-1zm28 3h1v1h-1zm-91 2h1v1h-1zm4 0h1v1h-1zm76 0h1v1h-1zm-59 1h1v1h-1zm6 2h1v1h-1zm6 2h1v1h-1zm18 0h1v1h-1zm-26 6h1v1h-1zm4 4h1v1h-1zm9 4h1v1h-1zm8 0h1v1h-1z" fill="#b9b8b8"/><path d="M342 19h1v1h-1zm7 0h1v1h-1zm-203 1h1v1h-1zm55 0h1v1h-1zm26 2h1v2h-1zm0 2h1v1h-1zm54 8h1v1h-1zm49 1h1v1h-1zm-49 20h1v1h-1zm67 3h1v1h-1zm-11 15h1v1h-1zm-52 4h1v1h-1zm87 0h1v1h-1zM218 85h1v1h-1zm141 1h1v1h-1zm-149 1h1v1h-1zm-54 3h1v1h-1zm217 1h1v1h-1zm-57 1h1v1h-1zm-137 10h1v1h-1zm146 8h1v1h-1zm-150 1h1v1h-1zm161 1h1v1h-1zm12 0h1v1h-1z" fill="#f9c6c7"/><path d="M353 20h1v1h-1zm-207 1h1v1h-1zm135 0h1v1h-1zm48 2h1v1h-1zm19 1h1v1h-1zm-166 1h1v1h-1zm36 0h1v1h-1zm8 0h1v1h-1zm8 0h1v1h-1zm9 0h1v1h-1zm32 1h1v1h-1zm20 2h1v1h-1zm4 7h1v1h-1zm69 4h1v1h-1zm-51 1h1v1h-1zm-33 1h1v1h-1zm0 3h1v1h-1zm-2 8h1v1h-1zm-2 11h1v1h-1zm9 2h1v1h-1zm-13 1h1v1h-1zm52 0h1v1h-1zm-32 3h1v1h-1zm73 1h1v1h-1zm-25 3h1v1h-1zm-23 10h1v1h-1zm-165 3h1v1h-1zm217 1h1v1h-1zm-164 7h1v1h-1zm-51 2h1v1h-1zm166 0h1v1h-1zm-42 5h1v1h-1zm-117 5h1v1h-1zm27 0h1v1h-1zm146 1h1v1h-1zm-57 3h1v1h-1zm46 0h1v1h-1zm5 1h1v1h-1z" fill="#ee3b40"/><path d="M344 24h1v1h-1zm1 0h1v1h-1zm6 1h1v1h-1zm17 5h1v1h-1zm-48 1h1v1h-1zm-45 28h1v1h-1zm7 4h1v1h-1zm83 2h1v1h-1zM172 82h1v1h-1zm115 1h1v1h-1zm0 5h1v1h-1zm85 6h1v1h-1zm-137 12h7v1h-7zm7 0h1v1h-1zm19 0h7v1h-7zm7 0h1v1h-1zm67 0h1v1h-1zm-169 1h1v1h-1zm180 0h1v1h-1zm-60 2h1v1h-1zm40 1h1v1h-1zm-140 2h3v1h-3zm3 0h1v1h-1zm150 0h1v1h-1z" fill="#f4898b"/><path d="M259 25h1v1h-1zm18 2h1v1h-1zm44 3h1v1h-1zm10 0h1v1h-1zm28 1h1v1h-1zm2 4h1v1h-1zm-44 15h1v1h-1zm35 8h1v1h-1zm10 5h1v1h-1zm-102 2h9v1h-9zm9 0h1v1h-1zm28 5h1v1h-1zm-13 2h1v1h-1zm89 12h1v2h-1zm0 2h1v1h-1zm-200 6h1v1h-1zm126 8h1v1h-1zm29 2h1v1h-1zm-147 2h1v1h-1zm12 2h1v1h-1zm16 0h1v1h-1zm76 3h1v1h-1zm66 2h1v1h-1z" fill="#ed2129"/><path d="M43 5h2v1h-2zm2 0h1v1h-1zm6 0h2v1h-2zm2 0h1v1h-1zm-6 10h1v1h-1zM29 27h1v1h-1zm64 0h1v1h-1zM24 41h1v1h-1zm32 8h1v1h-1zm10 0h1v1h-1zm18 3h1v1h-1zm-34 1h1v1h-1zm22 0h1v1h-1zm-43 3h1v1h-1zm4 2h1v1h-1zm33 8h1v1h-1zm-41 4h1v1h-1zm72 0h1v1h-1zm-10 4h1v1h-1zm-72 2h1v1h-1zm92 0h1v1h-1zm5 3h1v1h-1zm-88 1h1v1h-1zm33 2h1v1h-1zm54 0h1v1h-1zm-41 3h1v1h-1zm42 2h1v1h-1zm-17 2h1v1h-1zm-71 3h1v1h-1zm47 0h1v1h-1zm33 0h1v1h-1zm1 0h1v1h-1zm17 2h1v1h-1zM6 95h1v1H6zm92 0h1v1h-1zm13 0h1v1h-1zm-15 3h1v1h-1zm-17 1h1v1h-1zm29 1h1v1h-1zm-87 1h1v1h-1zm84 4h1v1h-1zm-65 2h1v1h-1zm-30 1h1v1h-1zm72 6h1v1h-1zm-26 10h1v1h-1zm10 0h1v1h-1zm-15 4h1v1h-1zm20 0h1v1h-1z" fill="#c9c8c9"/><path d="M51 13h1v1h-1zM23 31h1v1h-1zm0 8h1v1h-1zm20 0h1v1h-1zm36 0h1v1h-1zm20 0h1v1h-1zm-83 1h1v1h-1zm16 7h1v1h-1zm32 3h1v1h-1zm19 0h1v1h-1zm-47 1h1v1h-1zm50 0h1v1h-1zM64 65h1v1h-1zm-10 2h1v1h-1zm-21 3h1v1h-1zm-23 2h1v1h-1zm64 0h1v1h-1zm-41 3h1v1h-1zm56 0h1v1h-1zm9 3h1v1h-1zm-17 2h1v1h-1zm3 1h1v1h-1zm-40 1h1v1h-1zm25 1h1v1h-1zM0 88h1v1H0zm11 0h1v1h-1zm19 0h1v1h-1zm66 1h1v1h-1zm-56 6h1v1h-1zm69 3h1v1h-1zm-20 2h1v1h-1zm21 1h1v1h-1zm-68 1h1v1h-1zm55 0h1v1h-1zm-97 1h1v1H0zm7 2h1v1H7zm108 0h1v1h-1zm6 0h1v1h-1zm-100 1h1v1h-1zm90 2h1v1h-1zm-98 1h1v1h-1zm32 0h1v2h-1zm-29 1h1v1h-1zm10 0h1v1h-1zm19 1h1v1h-1zm15 2h1v1h-1zm-11 1h1v1h-1zm24 0h1v1h-1zm-25 5h1v1h-1zm3 3h1v1h-1z" fill="#343132"/><path d="M147 20h34v1h-34zm34 0h1v1h-1zm21 0h23v1h-23zm23 0h1v1h-1zm10 0h41v1h-41zm41 0h1v1h-1zm-49 1h1v1h-1zm138 2h1v1h-1zm-43 5h1v1h-1zm-40 6h1v1h-1zm18 3h1v1h-1zm29 0h1v1h-1zm-47 14h1v1h-1zm7 8h1v1h-1zm-18 1h1v1h-1zm15 18h1v1h-1zm30 13h1v1h-1zm-100 5h1v1h-1zm154 3h1v1h-1zm-93 5h1v1h-1zm-92 1h1v1h-1zm89 0h1v1h-1zm19 1h1v1h-1zm-90 4h1v1h-1zm74 1h1v1h-1z" fill="#f8bcbd"/><path d="M338 20h1v1h-1zm-137 1h1v1h-1zm-55 1h1v2h-1zm142 1h1v1h-1zm76 0h1v1h-1zm-218 1h1v1h-1zm144 0h1v1h-1zm-143 1h8v1h-8zm8 0h1v1h-1zm18 0h8v1h-8zm8 0h1v1h-1zm21 0h8v1h-8zm8 0h1v1h-1zm9 0h6v1h-6zm6 0h1v1h-1zm10 0h7v1h-7zm7 0h1v1h-1zm18 0h10v1h-10zm10 0h1v1h-1zm64 2h1v1h-1zm-4 5h1v1h-1zm-48 1h1v1h-1zm86 4h1v1h-1zm0 1h1v1h-1zm-68 3h1v1h-1zm-16 1h1v1h-1zm16 0h1v1h-1zm-16 1h1v1h-1zm84 2h1v1h-1zm-36 3h1v1h-1zm1 1h1v1h-1zm-15 5h1v1h-1zm-28 4h1v1h-1zm-31 2h1v1h-1zm14 0h1v1h-1zm7 2h1v1h-1zm43 0h1v1h-1zm1 1h1v1h-1zm-38 1h1v1h-1zm-6 4h1v1h-1zm5 6h1v1h-1zm2 7h1v1h-1zm16 0h1v1h-1zm54 0h1v1h-1zm16 1h1v1h-1zm-56 1h3v1h-3zm3 0h1v1h-1zm-110 7h1v1h-1zm7 0h1v1h-1zm70 0h1v1h-1zm-113 5h1v1h-1zm38 8h1v1h-1zm-23 3h2v1h-2zm2 0h1v1h-1zm80 0h1v1h-1zm89 2h1v1h-1zm-187 2h1v1h-1z" fill="#ef4b50"/><g fill="#ed1c24"><path d="M339 21h13v1h-13zm13 0h1v3h-1zm-204 1h33v1h-33zm33 0h1v1h-1zm22 0h22v1h-22zm22 0h1v1h-1zm10 0h45v1h-45zm45 0h1v6h-1zm5 0h1v18h-1z"/><path d="M335 22h22v1h-22zm22 0h1v5h-1zm-209 1h33v1h-33zm33 0h1v1h-1zm22 0h22v1h-22zm22 0h1v1h-1zm10 0h50v1h-50zm97 0h8v1h-8zm8 0h1v1h-1z"/><path d="M349 23h11v1h-11zm11 0h1v7h-1zm-204 1h16v1h-16zm16 0h1v1h-1zm39 0h7v1h-7zm7 0h1v1h-1zm25 0h16v1h-16zm16 0h1v1h-1zm13 0h15v1h-15zm15 0h1v34h-1zm43 0h7v1h-7zm7 0h1v1h-1z"/><path d="M352 24h11v1h-11zm11 0h1v14h-1zm3 0h1v19h-1zm-209 1h14v60h-14zm14 0h1v1h-1zm41 0h5v64h-5zm5 0h1v1h-1zm27 0h14v1h-14zm14 0h1v1h-1zm18 0h13v1h-13zm13 0h1v32h-1zm39 0h7v1h-7zm7 0h1v1h-1z"/><path d="M354 25h12v1h-12zm-109 1h12v83h-12zm12 0h1v83h-1zm21 0h13v1h-13zm13 0h1v30h-1zm35 0h7v1h-7zm7 0h1v1h-1zm23 0h10v1h-10z"/><path d="M279 27h13v1h-13zm13 0h1v28h-1zm33 0h7v1h-7zm7 0h1v1h-1zm25 0h9v1h-9z"/><path d="M280 28h13v1h-13zm13 0h1v26h-1zm31 0h7v1h-7zm7 0h1v1h-1zm27 0h8v1h-8z"/><path d="M281 29h13v2h-13zm13 0h1v24h-1zm29 0h7v2h-7zm7 0h1v1h-1zm29 0h7v1h-7zm-64 1h1v22h-1zm65 0h6v1h-6z"/><path d="M281 31h15v1h-15zm15 0h1v20h-1zm26 0h7v3h-7zm7 0h1v1h-1zm32 0h5v1h-5zm-78 1h13v1h-13z"/><path d="M321 32h7v25h-7zm40 0h5v1h-5zm-77 1h13v2h-13zm13 0h1v16h-1zm65 0h4v1h-4z"/><path d="M320 34h8v22h-8zm8 0h1v1h-1zm34 0h4v1h-4zm-78 1h13v1h-13zm80 0h2v8h-2zm-78 1h12v13h-12zm12 0h1v11h-1z"/><path d="M319 37h8v16h-8zm44 1h3v1h-3zm-79 2h14v1h-14z"/><path d="M318 41h9v8h-9zm49 0h1v2h-1zm1 0h1v1h-1zm-4 2h3v1h-3zm3 0h1v1h-1zm-39 1h1v20h-1zm-43 1h13v4h-13zm44 1h1v19h-1zm-31 1h1v1h-1zm32 1h1v18h-1zm-45 1h12v2h-12zm12 0h1v1h-1z"/><path d="M318 49h13v1h-13zm13 0h1v17h-1zm-47 1h12v2h-12zm48 0h1v17h-1zm-36 1h1v1h-1zm37 0h1v16h-1zm1 0h1v17h-1zm-50 1h11v1h-11zm11 0h1v1h-1zm40 0h1v16h-1zm-52 1h11v1h-11zm11 0h1v1h-1z"/><path d="M319 53h18v1h-18zm18 0h2v16h-2zm2 0h1v17h-1zm-58 1h12v1h-12zm12 0h1v1h-1z"/><path d="M336 54h3v15h-3zm-54 1h10v1h-10zm10 0h1v1h-1zm48 0h1v15h-1zm1 0h1v15h-1zm-60 1h10v1h-10zm10 0h1v1h-1z"/><path d="M320 56h23v1h-23zm23 0h1v15h-1zm-63 1h9v1h-9zm9 0h1v1h-1z"/><path d="M321 57h25v1h-25zm25 0h1v15h-1zm-67 1h9v1h-9zm9 0h1v1h-1z"/><path d="M322 58h27v1h-27zm27 0h1v17h-1zm-71 1h7v1h-7zm7 0h1v1h-1zm3 0h1v1h-1z"/><path d="M322 59h29v1h-29zm29 0h1v16h-1zm-75 1h7v1h-7zm7 0h1v1h-1z"/><path d="M323 60h31v1h-31zm31 0h1v16h-1zm-96 1h1v4h-1zm16 0h5v3h-5zm5 0h1v5h-1z"/><path d="M324 61h32v1h-32zm32 0h1v17h-1zm-97 1h20v2h-20z"/><path d="M325 62h33v1h-33zm33 0h1v18h-1z"/><path d="M326 63h34v1h-34zm34 0h1v21h-1zm-101 1h21v1h-21zm21 0h1v2h-1z"/><path d="M327 64h34v1h-34zm34 0h1v42h-1zm-103 1h1v1h-1zm1 0h1v1h-1zm11 0h1v1h-1zm7 0h8v1h-8zm8 0h1v6h-1z"/><path d="M329 65h34v1h-34zm34 0h1v39h-1zm-84 1h9v1h-9zm9 0h1v14h-1z"/><path d="M330 66h34v1h-34zm34 0h1v38h-1zm-83 1h10v1h-10zm10 0h2v38h-2zm2 0h1v37h-1z"/><path d="M332 67h33v1h-33zm33 0h1v36h-1zm-83 1h10v1h-10z"/><path d="M334 68h32v1h-32zm32 0h1v34h-1zm-83 1h11v1h-11zm11 0h1v34h-1z"/><path d="M336 69h31v1h-31zm31 0h1v32h-1zm-83 1h11v1h-11zm11 0h1v32h-1zm44 0h28v1h-28z"/><path d="M285 71h11v1h-11zm11 0h1v31h-1zm46 0h26v1h-26zm26 0h1v28h-1z"/><path d="M286 72h11v1h-11zm11 0h1v29h-1zm48 0h24v1h-24zm24 0h1v26h-1z"/><path d="M286 73h12v1h-12zm12 0h1v26h-1zm49 0h22v1h-22z"/><path d="M287 74h12v2h-12zm12 0h1v24h-1zm51 0h20v1h-20zm20 0h1v21h-1zm-21 1h21v1h-21z"/><path d="M287 76h13v1h-13zm13 0h1v20h-1zm53 0h17v1h-17zm-64 1h11v21h-11zm66 0h16v1h-16zm16 0h1v16h-1zm-70 1h1v16h-1zm55 0h15v1h-15zm1 1h14v1h-14z"/><path d="M288 80h13v1h-13zm70 0h13v1h-13zm1 1h12v1h-12zm-57 1h1v8h-1zm57 0h12v1h-12zm3 1h10v10h-10zm10 0h1v4h-1z"/><path d="M360 84h12v1h-12zm-204 1h14v1h-14zm14 0h1v22h-1zm148 0h2v20h-2zm2 0h1v21h-1zm-162 1h12v6h-12zm13 1h1v21h-1zm201 0h1v1h-1zm-160 2h4v5h-4zm4 0h1v1h-1zm86 1h1v1h-1zm19 0h1v17h-1z"/><path d="M211 91h4v6h-4zm77 0h13v5h-13zm-130 1h14v1h-14zm14 0h1v16h-1zm-13 1h13v2h-13zm203 0h10v1h-10zm10 0h1v1h-1zm-157 1h1v1h-1zm86 0h1v1h-1zm21 0h1v13h-1zm40 0h8v4h-8zm-203 1h13v1h-13z"/><path d="M210 95h4v4h-4zm77 0h13v3h-13zm83 0h1v1h-1zm-210 1h13v2h-13zm13 0h1v12h-1zm127 0h1v1h-1zm60 0h9v3h-9z"/><path d="M209 97h5v2h-5zm5 0h1v1h-1zm71 0h14v2h-14zm38 0h1v10h-1zm-163 1h14v1h-14zm14 0h1v11h-1zm125 0h1v1h-1zm70 0h1v1h-1zm-208 1h13v1h-13zm47 0h5v2h-5zm5 0h1v1h-1zm72 0h13v2h-13zm13 0h1v1h-1zm26 0h1v9h-1zm35 0h9v2h-9zm9 0h1v1h-1z"/><path d="M161 100h14v1h-14zm14 0h1v9h-1zm32 0h5v2h-5zm118 0h1v8h-1z"/><path d="M162 101h14v1h-14zm14 0h1v8h-1zm36 0h1v1h-1zm72 0h13v1h-13zm13 0h1v1h-1zm29 0h1v7h-1zm32 0h9v1h-9zm9 0h1v1h-1z"/><path d="M163 102h14v1h-14zm14 0h1v7h-1zm27 0h7v1h-7zm7 0h1v1h-1zm72 0h13v1h-13zm13 0h1v1h-1zm61 0h9v1h-9zm9 0h1v1h-1z"/><path d="M164 103h14v1h-14zm14 0h1v7h-1zm27 0h5v1h-5zm5 0h1v1h-1zm72 0h12v1h-12zm12 0h1v1h-1zm33 0h1v5h-1zm30 0h8v1h-8zm8 0h1v1h-1z"/><path d="M165 104h14v1h-14zm14 0h1v6h-1zm22 0h8v1h-8zm8 0h1v1h-1zm71 0h13v1h-13zm13 0h1v1h-1zm35 0h1v5h-1zm1 0h1v5h-1zm27 0h8v1h-8zm8 0h1v1h-1z"/><path d="M166 105h14v1h-14zm14 0h1v5h-1zm21 0h7v1h-7zm7 0h1v1h-1zm71 0h13v1h-13zm13 0h1v1h-1zm26 0h12v1h-12zm12 0h2v4h-2zm2 0h1v4h-1zm22 0h8v1h-8zm8 0h1v1h-1z"/><path d="M167 106h16v1h-16zm16 0h1v4h-1zm16 0h8v1h-8zm8 0h1v1h-1zm51 0h1v3h-1zm18 0h14v1h-14zm14 0h1v1h-1zm29 0h13v1h-13zm34 0h8v1h-8zm8 0h2v1h-2zm2 0h1v1h-1z"/><path d="M169 107h19v1h-19zm19 0h1v3h-1zm5 0h13v1h-13zm13 0h1v1h-1zm38 0h15v2h-15zm15 0h1v2h-1zm13 0h15v1h-15zm15 0h1v1h-1zm34 0h13v1h-13zm13 0h1v3h-1zm17 0h8v1h-8zm8 0h1v1h-1z"/><path d="M171 108h33v1h-33zm33 0h1v1h-1zm31 0h50v1h-50zm50 0h1v1h-1zm39 0h13v1h-13zm13 0h1v2h-1zm11 0h9v1h-9zm9 0h1v1h-1zm-183 1h27v1h-27zm27 0h1v1h-1zm34 0h45v1h-45zm45 0h1v1h-1z"/><path d="M328 109h26v1h-26zm26 0h1v1h-1zm-176 1h19v1h-19zm19 0h1v1h-1zm136 0h17v1h-17zm17 0h1v1h-1z"/></g><path d="M105 26h1v1h-1zM48 43h1v1h-1zm26 0h1v1h-1zm-27 7h1v1h-1zm28 0h1v1h-1zm15 2h1v1h-1zm6 1h1v1h-1zm-8 2h1v1h-1zm-54 1h1v1h-1zm-2 2h1v1h-1zm67 12h1v1h-1zm-51 2h1v1h-1zm-30 3h1v1h-1zm86 0h1v1h-1zm12 0h1v1h-1zm-78 5h1v1h-1zm45 3h1v1h-1zm38 0h1v1h-1zm-22 2h1v1h-1zm13 1h1v1h-1zM5 87h1v1H5zm88 1h1v1h-1zm24 0h1v1h-1zm-7 1h1v1h-1zm12 0h1v1h-1zm-52 3h1v1h-1zm13 7h1v1h-1zm-40 1h1v1h-1zm41 1h1v1h-1zm-58 4h1v1h-1zm61 0h1v1h-1zm27 1h1v1h-1zm4 1h1v1h-1zm-87 1h1v1h-1zm31 5h1v1h-1zm1 1h1v1h-1zm12 3h1v1h-1zm-23 11h1v1h-1zm18 0h1v1h-1z" fill="#444142"/></svg>