<svg xmlns="http://www.w3.org/2000/svg" role="img" viewBox="-10.75 -10.75 381.00 559.00"><title>Voice Metadata Standardization logo</title><style>svg {enable-background:new 0 0 360 538}</style><style>.st1{fill:#00a9ce}</style><path fill="#4298b5" d="M31.04 536.88c2.42-.75 4.5-1.83 6.24-3.25 1.74-1.42 3.1-3.18 4.08-5.27.97-2.09 1.46-4.48 1.46-7.16v-.15c0-2.37-.38-4.41-1.13-6.12-.75-1.7-1.86-3.19-3.34-4.45-1.48-1.27-3.29-2.35-5.44-3.25-2.15-.9-4.59-1.72-7.34-2.44-2.33-.62-4.26-1.16-5.79-1.63-1.53-.46-2.73-.96-3.61-1.47-.88-.51-1.49-1.1-1.82-1.74-.34-.64-.5-1.41-.5-2.28v-.15c0-1.34.58-2.46 1.74-3.37 1.16-.9 2.9-1.36 5.23-1.36 2.32 0 4.65.48 6.97 1.43 2.32.96 4.7 2.26 7.12 3.91l6.2-8.98c-2.79-2.22-5.85-3.92-9.18-5.11-3.33-1.19-6.98-1.78-10.96-1.78-2.79 0-5.34.39-7.65 1.16-2.31.77-4.31 1.89-5.97 3.33-1.67 1.45-2.96 3.16-3.89 5.15-.92 1.99-1.38 4.22-1.38 6.7v.15c0 2.68.43 4.93 1.28 6.74.85 1.81 2.06 3.32 3.61 4.53 1.55 1.21 3.44 2.23 5.67 3.06 2.23.83 4.71 1.58 7.46 2.25 2.28.57 4.13 1.11 5.55 1.63 1.42.52 2.54 1.03 3.34 1.55.8.52 1.35 1.07 1.63 1.67.28.59.43 1.28.43 2.05v.15c0 1.6-.68 2.85-2.05 3.76-1.37.9-3.29 1.36-5.77 1.36-3.1 0-5.95-.59-8.56-1.78-2.61-1.19-5.15-2.79-7.63-4.8L0 529.32c3.25 2.94 6.87 5.12 10.84 6.54C14.82 537.29 18.87 538 23 538c2.94 0 5.62-.38 8.04-1.12zm41.29.38c1.5-.44 2.86-1.02 4.1-1.74v-9.45c-1.81 1.03-3.74 1.55-5.81 1.55-2.53 0-3.8-1.35-3.8-4.04v-17.8h9.76v-10.07h-9.76V485.1H55.06v10.61H50.1v10.07h4.96v19.67c0 2.43.3 4.43.89 6 .59 1.58 1.42 2.85 2.48 3.83s2.32 1.66 3.79 2.05c1.47.39 3.11.58 4.92.58 1.97.01 3.7-.21 5.19-.65zm24.79-8.71c-1.19-.88-1.78-2.12-1.78-3.72v-.15c0-1.86.72-3.28 2.17-4.26s3.43-1.47 5.96-1.47c1.45 0 2.8.14 4.07.43 1.26.28 2.41.66 3.45 1.12v2.09c0 2.17-.84 3.92-2.52 5.27-1.68 1.34-3.91 2.01-6.7 2.01-1.92 0-3.47-.44-4.65-1.32zm8.44 8.02c2.01-.95 3.74-2.23 5.19-3.83v4.49h11.38v-24.09c0-2.79-.36-5.3-1.08-7.55-.72-2.24-1.86-4.14-3.41-5.69-1.5-1.5-3.4-2.65-5.69-3.45-2.3-.8-5.07-1.2-8.32-1.2-3.51 0-6.51.31-8.98.93-2.48.62-4.85 1.42-7.12 2.4l2.94 8.98c1.91-.72 3.73-1.28 5.46-1.66 1.73-.39 3.73-.58 6-.58 2.94 0 5.16.65 6.66 1.94s2.24 3.17 2.24 5.65v.7c-1.5-.52-3.03-.93-4.61-1.24-1.57-.31-3.42-.46-5.54-.46-2.48 0-4.74.27-6.78.81s-3.8 1.36-5.27 2.44c-1.47 1.08-2.62 2.45-3.45 4.1-.83 1.65-1.24 3.61-1.24 5.89v.15c0 2.07.37 3.89 1.12 5.46.75 1.58 1.77 2.9 3.06 3.99 1.29 1.08 2.8 1.9 4.53 2.44 1.73.54 3.57.81 5.54.81 2.9 0 5.35-.48 7.37-1.43zm27.88.65h11.77v-23.1c0-2.78.66-4.88 1.98-6.3 1.32-1.42 3.11-2.13 5.38-2.13s4.03.71 5.27 2.13c1.24 1.41 1.86 3.51 1.86 6.3v23.1h11.77v-26.87c0-4.8-1.23-8.57-3.68-11.31s-5.93-4.1-10.42-4.1c-1.5 0-2.84.18-4.03.55-1.19.36-2.27.86-3.25 1.48s-1.87 1.34-2.67 2.14c-.8.81-1.54 1.65-2.21 2.54v-5.93h-11.77v41.5zm65.55-10.02c-1.21-.54-2.28-1.32-3.21-2.32-.93-1.01-1.67-2.22-2.21-3.64s-.81-2.98-.81-4.69v-.15c0-1.76.27-3.33.81-4.72.54-1.39 1.28-2.6 2.21-3.6.93-1.01 2-1.78 3.21-2.32 1.21-.54 2.52-.81 3.91-.81 1.39 0 2.7.27 3.91.81s2.27 1.32 3.18 2.32c.9 1.01 1.63 2.22 2.17 3.64s.81 2.98.81 4.69v.15c0 1.7-.27 3.27-.81 4.69-.54 1.42-1.27 2.63-2.17 3.64-.9 1.01-1.96 1.78-3.18 2.32s-2.52.81-3.91.81c-1.39-.01-2.69-.28-3.91-.82zm8.6 8.9c2.04-1.26 3.78-2.88 5.23-4.84v5.96h11.77v-56.53h-11.77v20.45c-1.39-1.65-3.11-3.1-5.15-4.34-2.04-1.24-4.63-1.86-7.78-1.86-2.48 0-4.85.46-7.13 1.39-2.27.93-4.27 2.31-6 4.14-1.73 1.83-3.12 4.08-4.18 6.74-1.06 2.66-1.59 5.72-1.59 9.18v.15c0 3.46.53 6.52 1.59 9.18s2.46 4.91 4.22 6.74c1.75 1.83 3.77 3.21 6.04 4.14 2.27.93 4.62 1.39 7.05 1.39 3.09.01 5.66-.62 7.7-1.89zm39.38-7.55c-1.19-.88-1.78-2.12-1.78-3.72v-.15c0-1.86.72-3.28 2.17-4.26s3.43-1.47 5.96-1.47c1.45 0 2.8.14 4.07.43 1.27.28 2.41.66 3.45 1.12v2.09c0 2.17-.84 3.92-2.52 5.27-1.68 1.34-3.91 2.01-6.7 2.01-1.91 0-3.46-.44-4.65-1.32zm8.44 8.02c2.01-.95 3.74-2.23 5.19-3.83v4.49h11.38v-24.09c0-2.79-.36-5.3-1.08-7.55-.72-2.24-1.86-4.14-3.41-5.69-1.5-1.5-3.4-2.65-5.69-3.45-2.3-.8-5.07-1.2-8.33-1.2-3.51 0-6.5.31-8.98.93-2.48.62-4.85 1.42-7.12 2.4l2.94 8.98c1.91-.72 3.73-1.28 5.46-1.66 1.73-.39 3.73-.58 6-.58 2.94 0 5.16.65 6.66 1.94s2.25 3.17 2.25 5.65v.7c-1.5-.52-3.03-.93-4.61-1.24-1.57-.31-3.42-.46-5.54-.46-2.48 0-4.74.27-6.78.81s-3.8 1.36-5.27 2.44c-1.47 1.08-2.62 2.45-3.45 4.1-.83 1.65-1.24 3.61-1.24 5.89v.15c0 2.07.37 3.89 1.12 5.46.75 1.58 1.77 2.9 3.06 3.99 1.29 1.08 2.8 1.9 4.53 2.44 1.73.54 3.57.81 5.54.81 2.9 0 5.36-.48 7.37-1.43zm27.88.65h11.77v-15.33c0-5.01 1.12-8.7 3.37-11.08 2.24-2.37 5.33-3.56 9.25-3.56h.62v-12.31c-3.51-.15-6.3.62-8.36 2.32-2.07 1.7-3.69 3.98-4.88 6.82v-8.36h-11.77v41.5zm49.68-10.02c-1.21-.54-2.28-1.32-3.21-2.32-.93-1.01-1.67-2.22-2.21-3.64s-.81-2.98-.81-4.69v-.15c0-1.76.27-3.33.81-4.72.54-1.39 1.28-2.6 2.21-3.6.93-1.01 2-1.78 3.21-2.32 1.21-.54 2.52-.81 3.91-.81s2.7.27 3.91.81 2.27 1.32 3.17 2.32c.9 1.01 1.63 2.22 2.17 3.64s.81 2.98.81 4.69v.15c0 1.7-.27 3.27-.81 4.69-.54 1.42-1.27 2.63-2.17 3.64-.9 1.01-1.96 1.78-3.17 2.32-1.21.54-2.52.81-3.91.81s-2.7-.28-3.91-.82zm8.6 8.9c2.04-1.26 3.78-2.88 5.23-4.84v5.96h11.77v-56.53H346.8v20.45c-1.39-1.65-3.11-3.1-5.15-4.34-2.04-1.24-4.64-1.86-7.78-1.86-2.48 0-4.85.46-7.12 1.39-2.27.93-4.27 2.31-6 4.14-1.73 1.83-3.12 4.08-4.18 6.74-1.06 2.66-1.59 5.72-1.59 9.18v.15c0 3.46.53 6.52 1.59 9.18s2.47 4.91 4.22 6.74c1.76 1.83 3.77 3.21 6.04 4.14 2.27.93 4.62 1.39 7.05 1.39 3.08.01 5.65-.62 7.69-1.89z"/><path d="M2.59 459.78h11.77v-35.16l15.1 22.92h.31l15.26-23.16v35.39H56.8v-54.21H43.95L29.7 428.49l-14.25-22.92H2.59v54.21zm75.51-24.01c.47-2.68 1.46-4.83 2.98-6.43 1.52-1.6 3.52-2.4 6-2.4s4.47.81 5.96 2.44c1.5 1.63 2.43 3.76 2.79 6.39H78.1zm19.98 22.89c2.79-1.37 5.16-3.27 7.12-5.69L98.47 447c-1.65 1.5-3.25 2.58-4.8 3.25-1.55.67-3.3 1.01-5.27 1.01-2.63 0-4.84-.68-6.62-2.05-1.78-1.37-2.96-3.39-3.52-6.08h28.89c.05-.57.09-1.11.12-1.63.03-.52.04-1.01.04-1.47 0-2.94-.4-5.77-1.2-8.48-.8-2.71-2.04-5.11-3.72-7.2-1.68-2.09-3.78-3.76-6.31-4.99-2.53-1.24-5.53-1.86-8.98-1.86-3.05 0-5.82.57-8.33 1.7-2.51 1.14-4.66 2.69-6.47 4.65-1.81 1.96-3.21 4.26-4.22 6.89-1.01 2.63-1.51 5.42-1.51 8.36v.16c0 3.2.54 6.11 1.63 8.71 1.08 2.61 2.59 4.87 4.53 6.78 1.94 1.91 4.23 3.38 6.89 4.41 2.66 1.03 5.54 1.55 8.64 1.55 3.76 0 7.04-.69 9.82-2.05zm37.18 1.16c1.5-.44 2.87-1.02 4.1-1.74v-9.45c-1.81 1.03-3.74 1.55-5.81 1.55-2.53 0-3.79-1.35-3.79-4.04v-17.8h9.76v-10.07h-9.76v-10.61h-11.77v10.61h-4.96v10.07h4.96v19.67c0 2.43.3 4.43.89 6 .59 1.58 1.42 2.85 2.48 3.83s2.32 1.67 3.79 2.05c1.47.39 3.11.58 4.92.58 1.96.01 3.69-.21 5.19-.65zm23.62-8.71c-1.19-.88-1.78-2.12-1.78-3.72v-.15c0-1.86.72-3.28 2.17-4.26 1.44-.98 3.43-1.47 5.96-1.47 1.44 0 2.8.14 4.07.43s2.41.66 3.45 1.12v2.09c0 2.17-.84 3.92-2.52 5.27-1.68 1.34-3.91 2.01-6.7 2.01-1.92-.01-3.47-.45-4.65-1.32zm8.44 8.01c2.01-.95 3.74-2.23 5.19-3.83v4.49h11.38v-24.09c0-2.79-.36-5.3-1.08-7.55-.72-2.25-1.86-4.14-3.41-5.69-1.5-1.5-3.39-2.64-5.69-3.45-2.3-.8-5.07-1.2-8.32-1.2-3.51 0-6.51.31-8.98.93-2.48.62-4.85 1.42-7.12 2.4l2.94 8.98c1.91-.72 3.73-1.28 5.46-1.67 1.73-.39 3.73-.58 6-.58 2.94 0 5.16.65 6.66 1.94s2.25 3.18 2.25 5.65v.7c-1.5-.52-3.03-.93-4.61-1.24-1.58-.31-3.42-.47-5.54-.47-2.48 0-4.74.27-6.78.81s-3.79 1.36-5.27 2.44c-1.47 1.08-2.62 2.45-3.45 4.1-.83 1.65-1.24 3.62-1.24 5.89v.15c0 2.07.37 3.89 1.12 5.46.75 1.57 1.77 2.9 3.06 3.99 1.29 1.08 2.8 1.9 4.53 2.44 1.73.54 3.57.81 5.54.81 2.89.02 5.34-.45 7.36-1.41zm42.86-9.37c-1.21-.54-2.28-1.32-3.21-2.32-.93-1.01-1.66-2.22-2.21-3.64-.54-1.42-.81-2.98-.81-4.69v-.15c0-1.76.27-3.33.81-4.72.54-1.39 1.28-2.6 2.21-3.6.93-1.01 2-1.78 3.21-2.32 1.21-.54 2.52-.81 3.91-.81 1.39 0 2.7.27 3.91.81s2.27 1.32 3.17 2.32c.9 1.01 1.63 2.22 2.17 3.64s.81 2.98.81 4.69v.15c0 1.7-.27 3.27-.81 4.69-.54 1.42-1.27 2.63-2.17 3.64-.9 1.01-1.96 1.78-3.17 2.32-1.21.54-2.52.81-3.91.81-1.39-.01-2.69-.28-3.91-.82zm8.6 8.91c2.04-1.27 3.78-2.88 5.23-4.84v5.96h11.77v-56.53h-11.77v20.45c-1.39-1.65-3.11-3.1-5.15-4.34-2.04-1.24-4.64-1.86-7.78-1.86-2.48 0-4.85.46-7.12 1.39-2.27.93-4.27 2.31-6 4.14-1.73 1.83-3.12 4.08-4.18 6.74-1.06 2.66-1.59 5.72-1.59 9.18v.15c0 3.46.53 6.52 1.59 9.18s2.46 4.91 4.22 6.74c1.75 1.83 3.77 3.21 6.04 4.14 2.27.93 4.62 1.39 7.05 1.39 3.08 0 5.65-.63 7.69-1.89zm38.22-7.55c-1.19-.88-1.78-2.12-1.78-3.72v-.15c0-1.86.72-3.28 2.17-4.26s3.43-1.47 5.96-1.47c1.45 0 2.8.14 4.07.43 1.26.28 2.41.66 3.45 1.12v2.09c0 2.17-.84 3.92-2.52 5.27-1.68 1.34-3.91 2.01-6.7 2.01-1.92-.01-3.46-.45-4.65-1.32zm8.44 8.01c2.01-.95 3.74-2.23 5.19-3.83v4.49h11.39v-24.09c0-2.79-.36-5.3-1.09-7.55-.72-2.25-1.86-4.14-3.41-5.69-1.5-1.5-3.4-2.64-5.69-3.45-2.3-.8-5.07-1.2-8.33-1.2-3.51 0-6.5.31-8.98.93-2.48.62-4.85 1.42-7.12 2.4l2.94 8.98c1.91-.72 3.73-1.28 5.46-1.67 1.73-.39 3.73-.58 6-.58 2.94 0 5.16.65 6.66 1.94s2.25 3.18 2.25 5.65v.7c-1.5-.52-3.03-.93-4.61-1.24-1.58-.31-3.42-.47-5.54-.47-2.48 0-4.74.27-6.78.81s-3.8 1.36-5.27 2.44c-1.47 1.08-2.62 2.45-3.45 4.1-.83 1.65-1.24 3.62-1.24 5.89v.15c0 2.07.37 3.89 1.12 5.46.75 1.57 1.77 2.9 3.06 3.99 1.29 1.08 2.8 1.9 4.53 2.44 1.73.54 3.57.81 5.54.81 2.9.02 5.36-.45 7.37-1.41zm45.92.7c1.5-.44 2.86-1.02 4.1-1.74v-9.45c-1.81 1.03-3.74 1.55-5.81 1.55-2.53 0-3.8-1.35-3.8-4.04v-17.8h9.76v-10.07h-9.76v-10.61h-11.77v10.61h-4.96v10.07h4.96v19.67c0 2.43.3 4.43.89 6 .59 1.58 1.42 2.85 2.48 3.83s2.32 1.67 3.79 2.05c1.47.39 3.11.58 4.92.58 1.98.01 3.71-.21 5.2-.65zm23.62-8.71c-1.19-.88-1.78-2.12-1.78-3.72v-.15c0-1.86.72-3.28 2.17-4.26 1.44-.98 3.43-1.47 5.96-1.47 1.45 0 2.8.14 4.07.43 1.26.28 2.41.66 3.45 1.12v2.09c0 2.17-.84 3.92-2.52 5.27-1.68 1.34-3.91 2.01-6.7 2.01-1.91-.01-3.46-.45-4.65-1.32zm8.45 8.01c2.01-.95 3.74-2.23 5.19-3.83v4.49H360v-24.09c0-2.79-.36-5.3-1.08-7.55-.72-2.25-1.86-4.14-3.41-5.69-1.5-1.5-3.39-2.64-5.69-3.45-2.3-.8-5.07-1.2-8.33-1.2-3.51 0-6.51.31-8.98.93-2.48.62-4.85 1.42-7.12 2.4l2.94 8.98c1.91-.72 3.73-1.28 5.46-1.67 1.73-.39 3.73-.58 6-.58 2.94 0 5.16.65 6.66 1.94s2.25 3.18 2.25 5.65v.7c-1.5-.52-3.03-.93-4.61-1.24-1.57-.31-3.42-.47-5.54-.47-2.48 0-4.74.27-6.78.81s-3.79 1.36-5.27 2.44c-1.47 1.08-2.62 2.45-3.45 4.1-.83 1.65-1.24 3.62-1.24 5.89v.15c0 2.07.37 3.89 1.12 5.46.75 1.57 1.77 2.9 3.06 3.99 1.29 1.08 2.8 1.9 4.53 2.44 1.73.54 3.57.81 5.54.81 2.9.02 5.35-.45 7.37-1.41z" class="st1"/><path fill="#2a94b2" d="M359.99 180c0-99.41-80.59-180-180-180v299.63l4.32-.06.46 36.54-4.79.06v23.82c99.43 0 180.01-80.59 180.01-179.99zm-116.1 143.22l-17.83-31.89 24.01-13.42 3.49 6.24-17.08 9.55 3.62 6.47 15.04-8.41 3.49 6.24-15.04 8.4 3.74 6.7 17.31-9.68 3.49 6.24-24.24 13.56zm-36.45-27.4c1.66-.4 3.2-.64 4.64-.7 1.44-.06 2.77.01 4 .21 1.23.2 2.4.52 3.51.97 1.11.45 2.17.97 3.18 1.59l-3.57 6.94c-1.69-.91-3.34-1.55-4.95-1.91-1.61-.36-3.31-.32-5.1.12-1.49.36-2.79.99-3.92 1.87-1.13.89-2.02 1.95-2.69 3.18-.67 1.24-1.09 2.58-1.27 4.04-.18 1.46-.09 2.95.28 4.47l.03.1c.37 1.52.98 2.9 1.81 4.12.84 1.23 1.83 2.24 2.97 3.04 1.14.79 2.42 1.33 3.83 1.62 1.41.28 2.88.24 4.4-.13 2.03-.49 3.65-1.28 4.88-2.37 1.22-1.08 2.37-2.44 3.44-4.06l6.19 3.81c-.67 1.2-1.41 2.31-2.2 3.33-.79 1.02-1.7 1.95-2.73 2.79-1.03.84-2.2 1.58-3.52 2.2-1.32.63-2.84 1.15-4.56 1.57-2.6.63-5.14.75-7.6.35s-4.7-1.23-6.73-2.47c-2.02-1.24-3.76-2.87-5.22-4.88s-2.5-4.28-3.11-6.82l-.03-.1c-.62-2.54-.74-5.02-.37-7.46.37-2.44 1.16-4.69 2.38-6.76 1.21-2.07 2.84-3.86 4.87-5.38 2.03-1.51 4.42-2.61 7.16-3.28zm19.36-159.93c10.76 12.23 16.69 27.96 16.69 44.3 0 16.26-5.88 31.94-16.56 44.15-2.14 2.44-5.13 3.69-8.13 3.69-2.52 0-5.06-.88-7.11-2.67-4.49-3.93-4.95-10.75-1.02-15.24 7.23-8.27 11.22-18.9 11.22-29.93 0-11.08-4.01-21.74-11.3-30.03-3.94-4.48-3.5-11.3.98-15.24 4.47-3.95 11.29-3.51 15.23.97zm34.08-32.48c18.85 21.03 29.22 48.3 29.22 76.78 0 28.34-10.29 55.51-28.96 76.5-2.13 2.4-5.1 3.62-8.07 3.62-2.55 0-5.12-.9-7.18-2.73-4.45-3.96-4.85-10.79-.89-15.25 15.15-17.03 23.5-39.1 23.5-62.14 0-23.15-8.42-45.3-23.71-62.37-3.98-4.44-3.6-11.27.84-15.25 4.44-3.98 11.26-3.61 15.25.84zm75.28 76.77c0 40.05-15.04 78.27-42.36 107.6-2.13 2.28-5.01 3.44-7.91 3.44-2.64 0-5.28-.96-7.36-2.89-4.36-4.07-4.61-10.9-.55-15.26 23.58-25.32 36.57-58.31 36.57-92.88 0-34.75-13.11-67.86-36.9-93.23-4.08-4.35-3.86-11.18.49-15.26s11.18-3.86 15.27.49c27.57 29.38 42.75 67.74 42.75 107.99z"/><path d="M180 299.63V0C80.59 0 .01 80.59.01 180S80.59 359.99 180 359.99v-23.82l-3.25.04-.46-36.54 3.71-.04zm-50.22 10.69l.02-.1c.56-2.55 1.55-4.83 2.99-6.85 1.44-2.02 3.18-3.69 5.23-5.01 2.05-1.32 4.34-2.21 6.89-2.67 2.54-.46 5.19-.39 7.94.21s5.18 1.64 7.28 3.11c2.1 1.47 3.81 3.22 5.14 5.23 1.32 2.02 2.21 4.24 2.66 6.67.45 2.43.4 4.92-.16 7.47l-.02.1c-.55 2.55-1.55 4.84-2.99 6.86-1.44 2.02-3.18 3.69-5.23 5-2.05 1.32-4.34 2.21-6.88 2.67-2.54.46-5.19.39-7.94-.21s-5.18-1.64-7.28-3.11c-2.1-1.47-3.81-3.22-5.14-5.23-1.32-2.01-2.21-4.24-2.66-6.67-.46-2.43-.41-4.92.15-7.47zm-31.64 3.15l5.06-39.33 7.74 4.33-4.22 27.12 20.9-17.8 7.56 4.23-30.85 24.91-6.19-3.46zm65.9-135.66c-6.43 1.96-11.22 4.08-7.51 12.45.72 1.62-1.93 5.74-4.06 7.36-2.68 2.04-6.41 2.7-11.94 4.82 4.08 2.74 6.45 4.35 8.84 5.93 4.22 2.81 6.76 5.68 2.46 10.78-1.4 1.66-1.6 4.95-1.25 7.33 1.29 8.75-1.29 14.06-9.84 15.78-5.99 1.2-12.44 1.2-18.55.52-24.26-2.71-34.96 5.13-38.65 29.45-1.24 8.21-1.72 16.54-2.6 25.38-1.18-.69-2.7-1.29-3.86-2.31C.01 227.89 8.63 105.98 94.23 49.78c6.48-4.25 11.51-5.06 18.25-.5 25.55 17.27 40.28 40.63 39.13 71.8-.62 16.86 4.15 30.12 16.37 41.48 7.34 6.82 5.7 12.3-3.94 15.25zm-26.03 134.2c-.33 1.53-.39 3.03-.15 4.51.23 1.47.72 2.83 1.47 4.06.75 1.23 1.71 2.29 2.89 3.17 1.18.88 2.57 1.49 4.17 1.84 1.56.34 3.07.37 4.52.08 1.45-.29 2.76-.84 3.91-1.66 1.16-.82 2.14-1.84 2.96-3.07.82-1.23 1.4-2.61 1.73-4.14l.02-.1c.33-1.53.38-3.03.15-4.51-.23-1.47-.72-2.83-1.47-4.06-.75-1.23-1.72-2.29-2.92-3.17-1.2-.88-2.58-1.5-4.14-1.84-1.6-.35-3.12-.38-4.55-.08-1.43.29-2.73.85-3.89 1.67-1.16.82-2.15 1.84-2.96 3.07-.82 1.23-1.4 2.61-1.73 4.14l-.01.09z" class="st1"/></svg>