<svg xmlns="http://www.w3.org/2000/svg" role="img" viewBox="-11.99 -11.99 623.48 513.48"><title>Waltz logo</title><style>svg {enable-background:new 0 0 600 490}</style><path d="M35.7 461.7L65.8 387 96 461.7l24.5-69.8h11.2l-35.7 98-30.1-75-30.1 75-35.8-98h11.2l24.5 69.8zm157.9-3.1L182.3 485H171l43-97.6 41.9 97.6h-11.5l-11-26.4h-39.8zm20.1-47l-15.9 37.3h31.5l-15.6-37.3zm112 63.8H372v9.6h-56.7v-93.1h10.4v83.5zm126 9.6h-10.4v-83.5h-27.6v-9.6h65.9v9.6h-27.9V485zm146.9-9.6v9.6h-66.7l50.8-83.5h-44.3v-9.6H600l-50.9 83.5h49.5z"/><path d="M147 270.8L62.9 115.4c-2.2 1.8-4.7 3.1-7.4 4l84.1 155.4c2.2-1.8 4.7-3.1 7.4-4zm175.2-122L167.9 274.9c2.2 1.8 4 4 5.3 6.5l154.3-126.1c-2.1-1.8-3.9-4-5.3-6.5zm87 82.4L357.4 154c-2 2-4.4 3.6-7 4.7l51.9 77.2c2-2 4.3-3.6 6.9-4.7zM542.9 42.8L425.8 230.9c2.7 1 5.1 2.5 7.1 4.5L550 47.2c-2.6-1-5-2.5-7.1-4.4z"/><path d="M48.8 80.3c9.9 0 18 8.1 18 18s-8.1 18-18 18-18-8.1-18-18 8.1-18 18-18m0-8.4c-14.6 0-26.4 11.8-26.4 26.4s11.8 26.4 26.4 26.4 26.4-11.8 26.4-26.4-11.8-26.4-26.4-26.4z"/><path d="M153.7 274c9.9 0 18 8.1 18 18s-8.1 18-18 18-18-8.1-18-18 8.1-18 18-18m0-8.4c-14.6 0-26.4 11.8-26.4 26.4s11.8 26.4 26.4 26.4 26.4-11.8 26.4-26.4c0-14.6-11.8-26.4-26.4-26.4z"/><path d="M341.7 120.3c9.9 0 18 8.1 18 18s-8.1 18-18 18-18-8.1-18-18 8.1-18 18-18m0-8.4c-14.6 0-26.4 11.8-26.4 26.4 0 14.6 11.8 26.4 26.4 26.4s26.4-11.8 26.4-26.4-11.8-26.4-26.4-26.4z"/><path d="M417.9 233.6c9.9 0 18 8.1 18 18s-8.1 18-18 18-18-8.1-18-18 8.1-18 18-18m0-8.4c-14.6 0-26.4 11.8-26.4 26.4 0 14.6 11.8 26.4 26.4 26.4s26.4-11.8 26.4-26.4c0-14.6-11.8-26.4-26.4-26.4z"/><path d="M558 8.6c9.9 0 18 8.1 18 18s-8.1 18-18 18-18-8.1-18-18 8.1-18 18-18m0-8.4c-14.6 0-26.4 11.8-26.4 26.4S543.4 53 558 53c14.6 0 26.4-11.8 26.4-26.4S572.6.2 558 .2z"/></svg>