<svg id="Layer_1" data-name="Layer 1" xmlns="http://www.w3.org/2000/svg" xmlns:xlink="http://www.w3.org/1999/xlink" viewBox="0 0 925.08002 237.08"><defs><style>.cls-1{fill:none;}.cls-2{clip-path:url(#clip-path);}.cls-3{fill:#43af5a;}.cls-4{fill:#d2e4f4;}.cls-5{fill:#fc0;}.cls-6{fill:#0086bf;}</style><clipPath id="clip-path"><path class="cls-1" d="M276.58229.13942V55.98061L135.8474,101.0686V45.41606L276.39364.13942ZM135.8474,136.34665V235.3893h54.70928V174.64314l86.02561-27.54328V91.25867Z"/></clipPath></defs><title>left-logo-finos</title><g class="cls-2"><path class="cls-3" d="M258.26773,191.663h41.36146V155.547c-14.65231-10.49681-29.17162-21.00423-43.54881-31.78824-4.38374-3.3256-7.70937-3.47687-12.09311.15114-8.16286,6.80236-16.7792,13.00005-25.0932,19.65131-3.47673,2.72094-6.04656,2.72094-9.221-.60465-15.1164-15.26755-30.68625-30.2328-45.6515-45.65148-3.77909-3.93025-6.5-3.93025-10.58141-.60465-15.28864,12.56626-30.6515,24.9874-46.03394,37.413v57.5511L141.3075,299.23241l89.57693-69.857h27.38333V191.66453Z"/><path class="cls-4" d="M107.32906-.44807V40.72287H67.23739V68.15614h40.16883v65.95578c15.38238-12.42558,30.74662-24.8468,46.03395-37.41309,4.08141-3.32558,6.80227-3.32558,10.5813.60475,14.96533,15.41859,30.53517,30.38386,45.65155,45.65144,3.17442,3.3256,5.74421,3.3256,9.221.60461,8.31392-6.65119,16.93039-12.84886,25.0932-19.65123,4.38378-3.628,7.70938-3.47688,12.09316-.15119,14.37722,10.784,28.89642,21.293,43.54877,31.78977V-.44807Z"/><path class="cls-5" d="M233.06625,83.39646a30.53572,30.53572,0,1,0-.30185.00149Q232.91532,83.398,233.06625,83.39646Z"/></g><path class="cls-6" d="M324.56523,27.84134h77.36441V48.14508H346.96946V69.84917H395.2784V90.1529h-48.659v39.55733H324.21518V27.84134Z"/><path class="cls-6" d="M421.88336,27.84134h22.40415v101.869H421.88336Z"/><path class="cls-6" d="M469.8423,27.84134h20.65383L538.10494,90.503V27.84134H560.159v101.869H541.25552L491.89629,64.94828v64.76207H469.84218V27.84134Z"/><path class="cls-6" d="M579.41272,79.30086h0c0-29.05536,22.75424-52.85986,54.2601-52.85986s53.91,23.45439,53.91,52.50977v.35008c0,29.05538-22.75422,52.5098-54.2601,52.5098S579.41272,108.00625,579.41272,79.30086Zm84.71569,0h0c0-17.85333-12.95243-32.206-30.80569-32.206S602.867,61.44753,602.867,78.95073v.35008c0,17.50319,12.95249,31.85589,30.80569,31.85589S664.12841,96.45414,664.12841,79.30086Z"/><path class="cls-6" d="M699.13491,115.00757l13.30247-15.753c9.10171,7.70148,18.9035,12.25229,30.45571,12.25229,9.10171,0,14.70279-3.50066,14.70279-9.4518V101.705c0-5.6011-3.50068-8.75159-20.6538-12.95244-20.65381-5.251-33.60629-10.85205-33.60629-31.15578v-.35011c0-18.5534,14.70279-30.80568,35.70669-30.80568a58.21726,58.21726,0,0,1,37.807,12.95244l-11.5521,16.80309c-9.10171-6.30113-17.85338-10.15186-26.605-10.15186s-12.95249,3.85072-12.95249,8.7516v.35011c0,6.65121,4.20082,8.75159,22.05408,13.30243C768.44779,73.69978,780,81.40126,780,98.90451v.35009c0,20.30373-15.40282,31.50588-37.457,31.50588A62.82069,62.82069,0,0,1,699.13491,115.00757Z"/><path class="cls-6" d="M323.83788,150.45849H330.694v54.41817h34.19518v6.33571H323.83788Z"/><path class="cls-6" d="M373.047,198.1946v-.175c0-9.63343,7.8114-14.66663,19.18122-14.66663a47.03667,47.03667,0,0,1,13.71232,1.90864v-1.38729c0-7.98642-4.86-12.15189-13.27846-12.15189a31.22646,31.22646,0,0,0-13.62665,3.21115l-1.99614-5.468a36.80191,36.80191,0,0,1,16.31642-3.81725c6.33571,0,11.28333,1.73545,14.49439,4.9466a17.74505,17.74505,0,0,1,4.68684,13.19094v27.42648h-6.5964v-6.68209a19.67258,19.67258,0,0,1-16.14233,7.63638C381.3788,212.16669,373.047,207.39326,373.047,198.1946Zm32.98013-3.47276v-4.16545a46.1454,46.1454,0,0,0-13.10528-1.90863c-8.33185,0-13.10528,3.64409-13.10528,9.02548v.17318c0,5.64114,5.20729,8.93888,11.28323,8.93888,8.24527,0,14.92733-4.94661,14.92733-12.06348Z"/><path class="cls-6" d="M426.684,166.341h6.683v7.81141a16.99119,16.99119,0,0,1,15.36119-8.76573c10.84943,0,17.18508,7.29,17.18508,17.96622v27.85943h-6.683V185.00181c0-8.33279-4.51367-13.53913-12.41073-13.53913-7.72481,0-13.45256,5.64114-13.45256,14.0605v25.68919h-6.683Z"/><path class="cls-6" d="M477.54376,188.90754v-.17318c0-14.66848,10.67527-23.34765,21.43714-23.34765a20.24812,20.24812,0,0,1,17.186,9.54685V147.85529H522.849V211.2124H516.1669v-9.02548c-3.64594,5.37955-8.94071,9.97971-17.186,9.97971C488.219,212.16669,477.54376,203.66074,477.54376,188.90754Zm38.8829-.08659v-.17318a16.67691,16.67691,0,0,0-16.06561-17.26654q-.08256-.003-.16515-.00512c-8.67913,0-15.795,6.42228-15.795,17.27166v.17318c0,10.58775,7.29,17.35826,15.795,17.35826a16.75581,16.75581,0,0,0,16.234-17.26181l-.00325-.09648Z"/><path class="cls-6" d="M534.04468,205.48463l3.38433-4.77345a26.23694,26.23694,0,0,0,15.53621,5.72776c5.37955,0,9.28525-2.7782,9.28525-7.11686v-.17316c0-4.51366-5.293-6.24912-11.19573-7.898-7.03026-1.99707-14.84166-4.42708-14.84166-12.67141v-.17317c0-7.72482,6.42414-12.84644,15.27645-12.84644a30.67273,30.67273,0,0,1,16.14233,4.94836l-3.038,5.03325a25.37316,25.37316,0,0,0-13.27941-4.33865c-5.293,0-8.67729,2.77636-8.67729,6.5089v.17316c0,4.25207,5.55457,5.90092,11.54208,7.72481,6.94368,2.08183,14.40688,4.77343,14.40688,12.84458v.17318c0,8.506-7.03026,13.45255-15.96916,13.45255A30.859,30.859,0,0,1,534.04468,205.48463Z"/><path class="cls-6" d="M578.21962,188.99411v-.17317a23.37143,23.37143,0,0,1,40.96566-15.44963l-4.42707,4.68683c-3.55934-3.73068-7.55163-6.76865-13.62573-6.76865-9.11392,0-16.05575,7.723-16.05575,17.35825v.17318c0,9.72,7.11685,17.44485,16.48869,17.44485a18.51652,18.51652,0,0,0,13.71416-6.684l4.252,3.99235a23.21182,23.21182,0,0,1-41.312-14.58Z"/><path class="cls-6" d="M627.1698,198.1946v-.175c0-9.63343,7.8114-14.66663,19.18031-14.66663a47.041,47.041,0,0,1,13.71416,1.90864v-1.38729c0-7.98642-4.86186-12.15189-13.27938-12.15189a31.21887,31.21887,0,0,0-13.62573,3.21115l-1.99707-5.468a36.79669,36.79669,0,0,1,16.31735-3.81725c6.33571,0,11.28232,1.73545,14.49347,4.9466a17.74521,17.74521,0,0,1,4.68684,13.19094v27.42648h-6.59548v-6.68209a19.675,19.675,0,0,1-16.14417,7.63638C635.50258,212.16669,627.1698,207.39326,627.1698,198.1946Zm32.98106-3.47276v-4.16545a46.15211,46.15211,0,0,0-13.1062-1.90863c-8.33088,0-13.10436,3.64409-13.10436,9.02548v.17318c0,5.64114,5.20637,8.93888,11.28231,8.93888,8.24434,0,14.92825-4.94661,14.92825-12.06348Z"/><path class="cls-6" d="M680.80685,166.341h6.684v9.02732c3.64409-5.38139,8.93889-9.98161,17.18323-9.98161,10.76279,0,21.439,8.50595,21.439,23.261v.17318c0,14.66664-10.58961,23.34577-21.439,23.34577a20.23765,20.23765,0,0,1-17.18323-9.54686v22.47985h-6.684Zm38.449,22.5665v-.17318c0-10.5896-7.29-17.35825-15.796-17.35825a16.73183,16.73183,0,0,0-16.23249,17.21664l.00173.055v.17318a16.7,16.7,0,0,0,16.02229,17.35126q.10424.00415.20847.007C712.139,206.17918,719.25589,199.757,719.25589,188.90754Z"/><path class="cls-6" d="M758.22261,206.439a18.566,18.566,0,0,0,14.147-6.33571l4.16547,3.73252a23.1583,23.1583,0,0,1-18.48575,8.41752c-12.32322,0-22.39145-9.46026-22.39145-23.43235,0-13.01962,9.11207-23.43422,21.52372-23.43422,13.27938,0,20.91576,10.58961,20.91576,23.78056,0,.608,0,1.30251-.08659,2.34342H742.42664C743.3828,200.971,750.32463,206.439,758.22261,206.439Zm13.10621-20.30965c-.78114-8.15776-5.468-15.10143-14.32029-15.10143-7.72481,0-13.62573,6.42228-14.58189,15.10143Z"/></svg>