<svg id="Layer_1" data-name="Layer 1" xmlns="http://www.w3.org/2000/svg" xmlns:xlink="http://www.w3.org/1999/xlink" viewBox="0 0 361 151.23031"><defs><style>.cls-1{fill:none;}.cls-2{clip-path:url(#clip-path);}.cls-3{fill:#43af5a;}.cls-4{fill:#d2e4f4;}.cls-5{fill:#fc0;}.cls-6{fill:#0086bf;}</style><clipPath id="clip-path"><path class="cls-1" d="M87.24065,9.42387v29.6l-74.6,23.9v-29.5l74.5-24Zm-74.6,72.2v52.5h29v-32.2l45.6-14.6v-29.6Z"/></clipPath></defs><title>FINOS_landscape_logo</title><g class="cls-2"><path class="cls-3" d="M77.53256,110.94569H99.45722V91.80148C91.69041,86.23739,83.99409,80.66767,76.3731,74.95134c-2.32371-1.76282-4.08654-1.843-6.41025.08012-4.32693,3.60576-8.89423,6.891-13.30127,10.41666-1.84293,1.4423-3.20513,1.4423-4.88782-.32051-8.01282-8.09294-16.266-16.02564-24.1987-24.19869-2.0032-2.08333-3.44551-2.08333-5.60894-.32051C13.862,67.26946,5.71854,73.85359-2.4353,80.44011v30.50638l17.97021,57.019,47.48246-37.02941H77.53258V110.94648Z"/><path class="cls-4" d="M-2.4762,9.11246V30.93613H-23.72778V45.47781H-2.4353V80.4393c8.15381-6.58649,16.298-13.17066,24.40143-19.83173,2.16345-1.76281,3.60571-1.76281,5.60888.32056,7.93274,8.173,16.18592,16.10571,24.19873,24.19867,1.68268,1.76282,3.04486,1.76282,4.88782.32049,4.407-3.52563,8.97437-6.81085,13.30127-10.41662,2.32373-1.9231,4.08655-1.843,6.41028-.08014,7.621,5.71631,15.31726,11.28686,23.0841,16.85095V9.11246Z"/><path class="cls-5" d="M64.1739,53.55632a16.18623,16.18623,0,1,0-.16.00079Q64.09388,53.55711,64.1739,53.55632Z"/></g><path class="cls-6" d="M107.6958,33.01144h41.00892v10.7625h-29.133V55.27873h25.60735V66.04122H119.38613V87.00956H107.51025V33.01144Z"/><path class="cls-6" d="M159.28168,33.01144h11.87587V87.00962H159.28168Z"/><path class="cls-6" d="M184.70349,33.01144h10.94807L220.88779,66.2268V33.01144h11.6903V87.00962H222.55783L196.39376,52.68089V87.00962H184.70343V33.01144Z"/><path class="cls-6" d="M242.784,60.28883h0c0-15.40151,12.06144-28.01967,28.76191-28.01967s28.57633,12.43258,28.57633,27.8341v.18557c0,15.40152-12.06144,27.83411-28.76191,27.83411S242.784,75.50483,242.784,60.28883Zm44.90565,0h0c0-9.4636-6.86576-17.0716-16.32932-17.0716s-16.1438,7.608-16.1438,16.886v.18557c0,9.278,6.86577,16.886,16.32932,16.886S287.68964,69.38135,287.68964,60.28883Z"/><path class="cls-6" d="M306.24571,79.21605l7.05129-8.35024c4.82459,4.08236,10.02026,6.49463,16.1438,6.49463,4.82459,0,7.79357-1.85561,7.79357-5.01016V72.1647c0-2.969-1.85561-4.639-10.94807-6.86576-10.94807-2.78341-17.81384-5.7524-17.81384-16.51489v-.18558c0-9.83469,7.79358-16.32931,18.92722-16.32931a30.85945,30.85945,0,0,1,20.04053,6.86576l-6.12348,8.90689c-4.82459-3.34007-9.46361-5.38124-14.10262-5.38124s-6.86577,2.04117-6.86577,4.639v.18558c0,3.52564,2.22675,4.639,11.6903,7.05128,10.94807,2.78341,17.0716,6.86577,17.0716,16.1438v.18557c0,10.7625-8.16465,16.70047-19.855,16.70047A33.29967,33.29967,0,0,1,306.24571,79.21605Z"/><path class="cls-6" d="M107.31025,101.18813h3.63428v28.8457h18.126v3.3584H107.31025Z"/><path class="cls-6" d="M133.39473,126.49184v-.09278c0-5.10644,4.14062-7.77441,10.16748-7.77441a24.93307,24.93307,0,0,1,7.26855,1.01172V118.901c0-4.2334-2.57617-6.44141-7.03857-6.44141a16.55227,16.55227,0,0,0-7.22315,1.70215l-1.0581-2.89844a19.50773,19.50773,0,0,1,8.64892-2.02343c3.3584,0,5.981.91992,7.68311,2.62207a9.40619,9.40619,0,0,1,2.48437,6.99218v14.53809h-3.49658v-3.542a10.42792,10.42792,0,0,1-8.55664,4.04785C137.81123,133.89809,133.39473,131.36781,133.39473,126.49184Zm17.48193-1.84082v-2.208a24.46037,24.46037,0,0,0-6.94678-1.01172c-4.4165,0-6.94677,1.93164-6.94677,4.78418v.0918c0,2.99023,2.76025,4.73828,5.98095,4.73828C147.33467,131.04555,150.87666,128.42348,150.87666,124.651Z"/><path class="cls-6" d="M161.82637,109.60707h3.54248v4.14063a9.00659,9.00659,0,0,1,8.14258-4.64649c5.751,0,9.10937,3.86426,9.10937,9.52344v14.76758h-3.54248V119.49867c0-4.417-2.39258-7.17675-6.57861-7.17675-4.09473,0-7.13086,2.99023-7.13086,7.45312v13.61719h-3.54248Z"/><path class="cls-6" d="M188.78584,121.569v-.0918c0-7.77539,5.65869-12.376,11.36328-12.376a10.733,10.733,0,0,1,9.10986,5.06055V99.80824h3.542v33.584h-3.542v-4.78418c-1.93261,2.85156-4.73925,5.29-9.10986,5.29C194.44453,133.89809,188.78584,129.3893,188.78584,121.569Zm20.61084-.0459v-.0918a8.84,8.84,0,0,0-8.60352-9.15527c-4.60058,0-8.37255,3.40429-8.37255,9.15527v.0918c0,5.6123,3.86425,9.20117,8.37255,9.20117A8.88182,8.88182,0,0,0,209.39668,121.52309Z"/><path class="cls-6" d="M218.73555,130.3561l1.79394-2.53028a13.90752,13.90752,0,0,0,8.23535,3.03614c2.85157,0,4.92188-1.47266,4.92188-3.77247v-.09179c0-2.39258-2.80567-3.3125-5.93457-4.18653-3.72656-1.05859-7.86719-2.34668-7.86719-6.71679v-.0918c0-4.09473,3.40527-6.80957,8.09766-6.80957a16.25879,16.25879,0,0,1,8.55664,2.623l-1.61035,2.668a13.44969,13.44969,0,0,0-7.03907-2.29981c-2.80566,0-4.59961,1.47168-4.59961,3.4502v.09179c0,2.25391,2.94434,3.12793,6.11817,4.09473,3.68066,1.10352,7.63672,2.53027,7.63672,6.80859v.0918c0,4.50879-3.72657,7.13086-8.46485,7.13086A16.35751,16.35751,0,0,1,218.73555,130.3561Z"/><path class="cls-6" d="M242.15156,121.61489v-.0918a12.3886,12.3886,0,0,1,21.71485-8.18945l-2.34668,2.48437c-1.88672-1.97754-4.00293-3.58789-7.22266-3.58789-4.83105,0-8.51074,4.09375-8.51074,9.20117v.0918c0,5.15234,3.77246,9.24707,8.74023,9.24707a9.81517,9.81517,0,0,0,7.26953-3.543L264.05,129.3434a12.304,12.304,0,0,1-21.89844-7.72851Z"/><path class="cls-6" d="M268.09883,126.49184v-.09278c0-5.10644,4.14062-7.77441,10.167-7.77441a24.93515,24.93515,0,0,1,7.26953,1.01172V118.901c0-4.2334-2.57715-6.44141-7.03906-6.44141a16.54842,16.54842,0,0,0-7.22266,1.70215l-1.05859-2.89844a19.505,19.505,0,0,1,8.64941-2.02343c3.3584,0,5.98047.91992,7.68262,2.62207a9.4062,9.4062,0,0,1,2.48438,6.99218v14.53809h-3.4961v-3.542a10.42924,10.42924,0,0,1-8.55762,4.04785C272.51582,133.89809,268.09883,131.36781,268.09883,126.49184Zm17.48242-1.84082v-2.208a24.46416,24.46416,0,0,0-6.94727-1.01172c-4.416,0-6.94628,1.93164-6.94628,4.78418v.0918c0,2.99023,2.75976,4.73828,5.98046,4.73828C282.03828,131.04555,285.58125,128.42348,285.58125,124.651Z"/><path class="cls-6" d="M296.53047,109.60707h3.543v4.78516c1.93164-2.85254,4.73828-5.291,9.1084-5.291,5.70507,0,11.36425,4.50879,11.36425,12.33008v.0918c0,7.77441-5.61328,12.375-11.36425,12.375a10.7275,10.7275,0,0,1-9.1084-5.06055v11.916h-3.543ZM316.91133,121.569v-.0918c0-5.61328-3.86426-9.20117-8.37305-9.20117a8.8691,8.8691,0,0,0-8.60351,9.15527v.0918a8.85225,8.85225,0,0,0,8.60351,9.20117C313.13887,130.72426,316.91133,127.32,316.91133,121.569Z"/><path class="cls-6" d="M337.5666,130.862a9.84139,9.84139,0,0,0,7.499-3.3584l2.208,1.97851a12.27565,12.27565,0,0,1-9.79883,4.46192c-6.53222,0-11.86914-5.01465-11.86914-12.4209,0-6.90137,4.83008-12.42188,11.40918-12.42188,7.03907,0,11.08692,5.61328,11.08692,12.60547,0,.32227,0,.69043-.0459,1.24219H329.19355C329.70039,127.96352,333.38008,130.862,337.5666,130.862Zm6.94727-10.76563c-.41407-4.32422-2.89844-8.00488-7.59082-8.00488-4.09473,0-7.22266,3.40429-7.7295,8.00488Z"/></svg>