<svg id="Layer_1" data-name="Layer 1" xmlns="http://www.w3.org/2000/svg" viewBox="0 0 419.64001 80.14"><defs><style>.cls-1{fill:#0086bf;}.cls-2{fill:#00b5e2;}</style></defs><title>right-logo-finos2</title><path class="cls-1" d="M159.9905,20.71h29.05879v7.62627H168.40572v8.15225H186.551V44.1148H168.27423V58.9729H159.859V20.71Z"/><path class="cls-1" d="M196.54409,20.71h8.4152V58.97294h-8.4152Z"/><path class="cls-1" d="M214.5579,20.71h7.75777L240.198,44.2463V20.71h8.28371V58.97294h-7.10032L222.84159,34.64771V58.97294h-8.28373V20.71Z"/><path class="cls-1" d="M255.71356,40.03868h0c0-10.91347,8.5467-19.85466,20.38059-19.85466s20.2491,8.8097,20.2491,19.72316v.1315c0,10.91346-8.5467,19.72315-20.38059,19.72315S255.71356,50.82069,255.71356,40.03868Zm31.82,0h0c0-6.70588-4.86506-12.09689-11.5709-12.09689s-11.43945,5.391-11.43945,11.96539v.1315c0,6.57438,4.86506,11.96539,11.5709,11.96539S287.53356,46.48161,287.53356,40.03868Z"/><path class="cls-1" d="M300.68233,53.45044l4.99652-5.91695c3.41869,2.89275,7.10033,4.60207,11.43945,4.60207,3.41869,0,5.5225-1.31487,5.5225-3.55018v-.1315c0-2.10381-1.31488-3.28719-7.75777-4.86506-7.75777-1.97231-12.62283-4.07613-12.62283-11.7024v-.13149c0-6.96884,5.5225-11.57091,13.41176-11.57091a21.86689,21.86689,0,0,1,14.20066,4.86507l-4.33908,6.31139c-3.41869-2.36676-6.70588-3.81314-9.99307-3.81314s-4.86506,1.44638-4.86506,3.2872V30.966c0,2.49826,1.57787,3.2872,8.28371,4.99652C326.71688,37.93487,331.056,40.82761,331.056,47.402v.13149c0,7.62627-5.78545,11.8339-14.0692,11.8339A23.596,23.596,0,0,1,300.68233,53.45044Z"/><polygon class="cls-2" points="136.636 -0.097 136.636 18.926 88.693 34.285 88.693 15.327 136.572 -0.097 136.636 -0.097"/><polygon class="cls-2" points="88.693 46.303 88.693 80.043 107.331 80.043 107.331 59.349 136.636 49.966 136.636 30.944 88.693 46.303"/><path class="cls-1" d="M136.63608,30.87926c0-.06428-.06427-.06428,0,0l-.06427-.06428-18.44442-5.91249L88.69345,34.34963v.1928h.06427l18.44441,5.91249,29.43393-9.44713Z"/></svg>